<?xml version="1.0" encoding="UTF-8"?>
<!DOCTYPE svg PUBLIC "-//W3C//DTD SVG 1.1//EN" "http://www.w3.org/Graphics/SVG/1.1/DTD/svg11.dtd">
<svg version="1.1" xmlns="http://www.w3.org/2000/svg" xmlns:xlink="http://www.w3.org/1999/xlink" x="0" y="0" width="200" height="200" viewBox="0, 0, 200, 200">
  <g id="Background">
    <rect x="0" y="0" width="200" height="200" fill="#000000" fill-opacity="0"/>
  </g>
  <g id="Layer_1">
    <path d="M80.047,59.622 C85.547,59.187 91.503,58.971 96.333,58.893 L96.333,66.05 C94.043,66.132 91.486,66.285 89.087,66.541 C80.649,67.444 79.073,69.272 78.052,77.38 C77.625,80.758 77.499,84.341 77.499,86.783 C77.499,89.217 77.625,92.807 78.052,96.175 C79.073,104.28 80.649,106.111 89.087,107.012 C91.486,107.27 94.043,107.424 96.333,107.505 L96.333,114.664 C91.503,114.587 85.547,114.371 80.047,113.933 C64.909,112.723 62.085,110.262 60.248,99.394 C59.483,94.865 59.258,90.049 59.258,86.778 C59.258,83.506 59.483,78.691 60.248,74.162 C62.085,63.293 64.909,60.835 80.047,59.622" fill="#00264A"/>
    <path d="M141.698,86.778 C141.698,90.049 141.473,94.865 140.708,99.393 C138.873,110.262 136.048,112.724 120.909,113.933 C115.409,114.371 109.456,114.588 104.625,114.665 L104.625,107.505 C106.914,107.423 109.47,107.27 111.867,107.012 C120.308,106.111 121.884,104.28 122.903,96.175 C123.329,92.808 123.456,89.217 123.456,86.783 C123.456,84.341 123.329,80.758 122.903,77.38 C121.884,69.272 120.308,67.443 111.867,66.541 C109.47,66.285 106.914,66.131 104.625,66.051 L104.625,58.893 C109.456,58.971 115.409,59.186 120.909,59.623 C136.048,60.836 138.873,63.293 140.708,74.162 C141.473,78.691 141.698,83.506 141.698,86.778" fill="#DC3B41"/>
    <path d="M35.784,127.095 C37.181,127.095 38.538,127.338 39.773,127.783 L39.49,130.416 C38.497,130.233 37.525,129.95 36.23,129.95 C33.617,129.95 32.16,131.57 32.16,134.1 C32.16,136.813 33.638,138.231 36.23,138.231 C37.546,138.231 38.497,137.968 39.49,137.785 L39.773,140.399 C38.538,140.864 37.181,141.107 35.784,141.107 C31.046,141.107 28.576,138.171 28.576,134.121 C28.576,130.233 31.046,127.095 35.784,127.095 z M46.412,129.767 C50.644,129.767 52.182,133.331 51.433,136.591 L44.022,136.591 C44.427,137.908 45.601,138.454 47.262,138.454 C48.315,138.454 49.489,138.252 50.785,137.948 L51.048,140.317 C49.712,140.802 48.112,141.107 46.655,141.107 C43.395,141.107 40.641,139.405 40.641,135.437 C40.641,132.279 42.645,129.767 46.412,129.767 z M46.391,132.197 C45.217,132.197 44.407,133.048 44.062,134.182 L48.254,134.182 C48.254,132.804 47.485,132.197 46.391,132.197 z M57.77,129.767 C59.187,129.767 60.727,130.051 62.002,130.577 L61.719,132.845 C60.079,132.379 58.783,132.218 57.932,132.218 C56.697,132.218 56.373,132.522 56.373,133.068 C56.373,134.566 62.508,133.291 62.508,137.725 C62.508,140.114 60.321,141.107 57.79,141.107 C56.191,141.107 54.47,140.844 53.174,140.297 L53.437,138.029 C55.118,138.514 56.433,138.656 57.608,138.656 C58.762,138.656 59.208,138.413 59.208,137.826 C59.208,136.328 53.072,137.583 53.072,133.169 C53.072,130.617 55.279,129.767 57.77,129.767 z M81.743,129.767 C84.274,129.767 86.562,130.739 86.562,133.514 L86.562,140.802 L83.444,140.802 L83.241,139.871 C82.33,140.701 81.217,141.107 79.86,141.107 C77.916,141.107 76.357,139.77 76.357,137.785 C76.357,134.587 79.597,133.473 83.241,134.263 L83.241,133.857 C83.241,132.866 82.451,132.46 81.217,132.46 C80.204,132.46 78.766,132.643 77.349,133.19 L77.066,130.84 C78.321,130.173 80.082,129.767 81.743,129.767 z M81.122,136.245 C80.309,136.427 79.891,136.753 79.779,137.564 C79.779,138.312 80.427,138.697 81.237,138.697 C81.945,138.697 82.796,138.272 83.241,137.745 L83.241,136.409 C81.997,136.177 82.701,136.259 81.122,136.245 z M106.593,129.767 C110.825,129.767 112.363,133.331 111.615,136.591 L104.205,136.591 C104.609,137.908 105.784,138.454 107.444,138.454 C108.497,138.454 109.67,138.252 110.967,137.948 L111.23,140.317 C109.894,140.802 108.295,141.107 106.836,141.107 C103.576,141.107 100.823,139.405 100.823,135.437 C100.823,132.279 102.827,129.767 106.593,129.767 z M106.573,132.197 C105.398,132.197 104.588,133.048 104.245,134.182 L108.436,134.182 C108.436,132.804 107.666,132.197 106.573,132.197 z M124.985,129.767 C129.217,129.767 130.756,133.331 130.006,136.591 L122.595,136.591 C123,137.908 124.175,138.454 125.835,138.454 C126.89,138.454 128.063,138.252 129.359,137.948 L129.621,140.317 C128.286,140.802 126.685,141.107 125.228,141.107 C121.968,141.107 119.215,139.405 119.215,135.437 C119.215,132.279 121.219,129.767 124.985,129.767 z M124.965,132.197 C123.79,132.197 122.981,133.048 122.636,134.182 L126.827,134.182 C126.827,132.804 126.059,132.197 124.965,132.197 z M166.221,129.767 C170.453,129.767 171.991,133.331 171.242,136.591 L163.832,136.591 C164.236,137.908 165.411,138.454 167.071,138.454 C168.124,138.454 169.297,138.252 170.594,137.948 L170.858,140.317 C169.521,140.802 167.922,141.107 166.463,141.107 C163.204,141.107 160.45,139.405 160.45,135.437 C160.45,132.279 162.455,129.767 166.221,129.767 z M166.201,132.197 C165.026,132.197 164.216,133.048 163.871,134.182 L168.064,134.182 C168.064,132.804 167.294,132.197 166.201,132.197 z M97.243,127.48 L97.243,130.072 L99.672,130.072 L99.672,132.501 L97.243,132.501 L97.243,137.36 C97.243,138.312 97.911,138.555 99.612,138.272 L99.875,140.62 C97.041,141.532 93.922,141.289 93.922,137.706 L93.922,132.501 L92.302,132.501 L92.302,130.273 L93.922,130.072 L94.307,127.48 L97.243,127.48 z M147.442,130.072 L147.442,140.803 L144.121,140.803 L144.121,130.072 L147.442,130.072 z M67.797,126.264 L67.797,140.802 L64.476,140.802 L64.476,126.264 L67.797,126.264 z M75.633,130.072 L71.806,134.95 L71.806,135.032 L76.038,140.802 L72.049,140.802 L68.06,135.173 L71.867,130.072 L75.633,130.072 z M117.121,126.264 L117.121,140.802 L113.803,140.802 L113.803,126.264 L117.121,126.264 z M134.231,130.072 L136.782,137.441 L136.863,137.441 L139.415,130.072 L142.897,130.072 L138.827,140.802 L134.757,140.802 L130.667,130.072 L134.231,130.072 z M159.139,130.072 L159.139,132.501 L153.954,138.292 L153.954,138.373 L159.34,138.373 L159.34,140.802 L149.702,140.802 L149.702,138.393 L154.906,132.581 L154.906,132.501 L149.904,132.501 L149.904,130.072 L159.139,130.072 z M85.367,125.9 L82.614,129.16 L79.941,129.16 L81.642,125.9 L85.367,125.9 z M145.781,125.778 C147.279,125.778 147.745,126.346 147.745,127.439 C147.745,128.512 147.279,129.079 145.781,129.079 C144.283,129.079 143.816,128.512 143.816,127.439 C143.816,126.346 144.283,125.778 145.781,125.778 z M34.589,123.43 L35.521,124.948 L36.452,123.43 L39.611,123.43 L37.445,126.448 L33.578,126.448 L31.411,123.43 L34.589,123.43 z" fill="#00264A"/>
  </g>
</svg>
