<?xml version="1.0" encoding="UTF-8"?>
<!DOCTYPE svg PUBLIC "-//W3C//DTD SVG 1.1//EN" "http://www.w3.org/Graphics/SVG/1.1/DTD/svg11.dtd">
<svg version="1.1" xmlns="http://www.w3.org/2000/svg" xmlns:xlink="http://www.w3.org/1999/xlink" x="0" y="0" width="200" height="200" viewBox="0, 0, 200, 200">
  <g id="Background">
    <rect x="0" y="0" width="200" height="200" fill="#000000" fill-opacity="0"/>
  </g>
  <g id="Layer_1">
    <path d="M30.229,106.73 C28.991,108.38 27.238,108.999 25.691,108.999 C20.535,108.999 17.543,105.183 17.543,100.336 C17.543,95.385 20.535,91.569 25.691,91.569 C29.094,91.569 32.292,93.632 32.705,97.448 L29.198,97.448 C28.785,95.694 27.445,94.663 25.692,94.663 C22.392,94.663 21.154,97.551 21.154,100.439 C21.154,103.223 22.392,106.008 25.692,106.008 C28.064,106.008 29.405,104.77 29.611,102.399 L26.001,102.399 L26.001,99.614 L33.014,99.614 L33.014,108.587 L30.642,108.587 L30.229,106.73 z M34.768,91.982 L38.377,91.982 L38.377,105.493 L46.525,105.493 L46.525,108.587 L34.768,108.587 L34.768,91.982 z M48.175,102.192 L42.09,92.085 L46.215,92.085 L50.135,98.685 L53.951,92.085 L57.973,92.085 L51.785,102.296 L51.785,108.69 L48.175,108.69 L48.175,102.192 z M58.282,91.982 L65.81,91.982 C69.936,91.982 71.586,94.56 71.586,97.345 C71.586,100.13 69.936,102.708 65.81,102.708 L61.891,102.708 L61.891,108.69 L58.282,108.69 L58.282,91.982 z M61.892,99.82 L64.78,99.82 C66.43,99.82 67.977,99.407 67.977,97.344 C67.977,95.178 66.43,94.869 64.78,94.869 L61.892,94.869 L61.892,99.82 z M72.618,91.982 L76.331,91.982 L76.331,98.376 L83.034,98.376 L83.034,91.982 L86.644,91.982 L86.644,108.586 L83.034,108.586 L83.034,101.47 L76.331,101.47 L76.331,108.586 L72.721,108.586 L72.721,91.982 L72.618,91.982 z M88.707,91.982 L92.316,91.982 L92.316,108.586 L88.707,108.586 L88.707,91.982 z M105.518,97.654 C105.312,96.003 103.662,94.662 101.908,94.662 C98.608,94.662 97.37,97.447 97.37,100.335 C97.37,103.119 98.608,105.904 101.908,105.904 C104.178,105.904 105.415,104.357 105.725,102.191 L109.231,102.191 C108.818,106.316 106.034,108.998 101.908,108.998 C96.752,108.998 93.761,105.182 93.761,100.334 C93.761,95.384 96.752,91.568 101.908,91.568 C105.518,91.568 108.612,93.734 109.128,97.549 L105.519,97.549 L105.519,97.654 z M128.207,92.085 L131.816,92.085 L138.726,103.224 L138.726,103.224 L138.726,92.085 L142.129,92.085 L142.129,108.689 L138.52,108.689 L131.61,97.551 L131.61,97.551 L131.61,108.689 L128.207,108.689 L128.207,92.085 z M146.771,103.12 C146.771,105.286 148.524,106.214 150.484,106.214 C151.722,106.214 153.682,105.801 153.682,104.151 C153.682,102.398 151.206,102.088 148.731,101.367 C146.256,100.748 143.781,99.717 143.781,96.622 C143.781,93.219 146.978,91.569 149.969,91.569 C153.475,91.569 156.673,93.116 156.673,96.932 L153.166,96.932 C153.063,94.973 151.619,94.457 149.866,94.457 C148.732,94.457 147.391,94.973 147.391,96.313 C147.391,97.551 148.216,97.757 152.341,98.788 C153.579,99.098 157.292,99.82 157.292,103.636 C157.292,106.73 154.919,108.999 150.382,108.999 C146.669,108.999 143.266,107.143 143.266,103.121 C143.265,103.12 146.771,103.12 146.771,103.12 z M158.632,108.895 L158.632,107.555 L159.663,107.555 L159.663,108.896 L158.632,108.896 z M165.748,104.358 C165.542,103.43 164.923,102.811 163.892,102.811 C162.344,102.811 161.622,104.255 161.622,105.595 C161.622,106.935 162.344,108.379 163.892,108.379 C164.923,108.379 165.748,107.554 165.748,106.523 L166.573,106.523 C166.367,108.07 165.335,109.102 163.892,109.102 C161.932,109.102 160.797,107.554 160.797,105.595 C160.797,103.636 161.932,102.089 163.892,102.089 C165.336,102.089 166.367,102.811 166.573,104.358 C166.573,104.358 165.748,104.358 165.748,104.358 z M172.967,105.595 C172.967,107.451 171.833,109.102 169.873,109.102 C167.914,109.102 166.779,107.554 166.779,105.595 C166.779,103.636 167.913,102.089 169.873,102.089 C171.833,102.192 172.967,103.739 172.967,105.595 z M167.502,105.595 C167.502,107.039 168.224,108.379 169.771,108.379 C171.318,108.379 172.04,106.935 172.04,105.595 C172.04,104.255 171.318,102.811 169.771,102.811 C168.327,102.811 167.502,104.255 167.502,105.595 z M173.483,102.398 L174.205,102.398 L174.205,103.532 L174.205,103.532 C174.618,102.707 175.339,102.191 176.371,102.191 C177.196,102.191 178.021,102.604 178.227,103.429 C178.64,102.604 179.465,102.191 180.29,102.191 C181.734,102.191 182.457,102.913 182.457,104.46 L182.457,108.895 L181.631,108.895 L181.631,104.46 C181.631,103.429 181.219,102.81 180.084,102.81 C178.743,102.81 178.331,103.944 178.331,105.182 L178.331,108.895 L177.506,108.895 L177.506,104.461 C177.506,103.533 177.197,102.811 176.165,102.811 C174.824,102.811 174.206,103.842 174.206,105.183 L174.206,108.792 L173.381,108.792 L173.381,102.398 L173.483,102.398 z M127.05,93.052 C127.05,92.439 126.548,91.938 125.936,91.938 L111.485,91.938 C110.872,91.938 110.37,92.439 110.37,93.052 L110.37,107.502 C110.37,108.115 110.872,108.618 111.485,108.618 L125.936,108.618 C126.548,108.618 127.05,108.115 127.05,107.502 L127.05,93.052 z" fill="#F9F9F9"/>
    <path d="M30.229,106.061 C28.991,107.711 27.238,108.33 25.691,108.33 C20.535,108.33 17.543,104.514 17.543,99.666 C17.543,94.716 20.535,90.9 25.691,90.9 C29.094,90.9 32.292,92.963 32.705,96.778 L29.198,96.778 C28.785,95.025 27.445,93.994 25.692,93.994 C22.392,93.994 21.154,96.882 21.154,99.769 C21.154,102.554 22.392,105.339 25.692,105.339 C28.064,105.339 29.405,104.101 29.611,101.729 L26.001,101.729 L26.001,98.945 L33.014,98.945 L33.014,107.918 L30.642,107.918 L30.229,106.061 z M34.768,91.313 L38.377,91.313 L38.377,104.824 L46.525,104.824 L46.525,107.918 L34.768,107.918 L34.768,91.313 z M48.175,101.523 L42.09,91.416 L46.215,91.416 L50.135,98.016 L53.951,91.416 L57.973,91.416 L51.785,101.626 L51.785,108.021 L48.175,108.021 L48.175,101.523 z M58.282,91.313 L65.81,91.313 C69.936,91.313 71.586,93.891 71.586,96.676 C71.586,99.461 69.936,102.039 65.81,102.039 L61.891,102.039 L61.891,108.021 L58.282,108.021 L58.282,91.313 z M61.892,99.151 L64.78,99.151 C66.43,99.151 67.977,98.738 67.977,96.675 C67.977,94.509 66.43,94.2 64.78,94.2 L61.892,94.2 L61.892,99.151 z M72.618,91.313 L76.331,91.313 L76.331,97.707 L83.034,97.707 L83.034,91.313 L86.644,91.313 L86.644,107.917 L83.034,107.917 L83.034,100.801 L76.331,100.801 L76.331,107.917 L72.721,107.917 L72.721,91.313 L72.618,91.313 z M88.707,91.313 L92.316,91.313 L92.316,107.917 L88.707,107.917 L88.707,91.313 z M105.518,96.984 C105.312,95.334 103.662,93.993 101.908,93.993 C98.608,93.993 97.37,96.778 97.37,99.666 C97.37,102.45 98.608,105.235 101.908,105.235 C104.178,105.235 105.415,103.688 105.725,101.522 L109.231,101.522 C108.818,105.647 106.034,108.329 101.908,108.329 C96.752,108.329 93.761,104.512 93.761,99.665 C93.761,94.715 96.752,90.898 101.908,90.898 C105.518,90.898 108.612,93.065 109.128,96.88 L105.519,96.88 L105.519,96.984 z M128.207,91.416 L131.816,91.416 L138.726,102.554 L138.726,102.554 L138.726,91.416 L142.129,91.416 L142.129,108.02 L138.52,108.02 L131.611,96.881 L131.611,96.881 L131.611,108.02 L128.208,108.02 L128.208,91.416 z M146.771,102.451 C146.771,104.617 148.524,105.545 150.484,105.545 C151.722,105.545 153.682,105.132 153.682,103.482 C153.682,101.729 151.206,101.419 148.731,100.698 C146.256,100.079 143.781,99.047 143.781,95.953 C143.781,92.55 146.978,90.9 149.969,90.9 C153.475,90.9 156.673,92.447 156.673,96.263 L153.166,96.263 C153.063,94.304 151.619,93.788 149.866,93.788 C148.732,93.788 147.391,94.304 147.391,95.644 C147.391,96.882 148.216,97.088 152.341,98.119 C153.579,98.428 157.292,99.151 157.292,102.967 C157.292,106.061 154.919,108.33 150.382,108.33 C146.669,108.33 143.266,106.474 143.266,102.451 C143.265,102.451 146.771,102.451 146.771,102.451 z M158.632,108.226 L158.632,106.886 L159.663,106.886 L159.663,108.227 L158.632,108.227 z M165.748,103.689 C165.542,102.761 164.923,102.142 163.892,102.142 C162.344,102.142 161.622,103.586 161.622,104.926 C161.622,106.266 162.344,107.71 163.892,107.71 C164.923,107.71 165.748,106.885 165.748,105.854 L166.573,105.854 C166.367,107.401 165.335,108.432 163.892,108.432 C161.932,108.432 160.797,106.885 160.797,104.926 C160.797,102.967 161.932,101.42 163.892,101.42 C165.336,101.42 166.367,102.142 166.573,103.689 C166.573,103.689 165.748,103.689 165.748,103.689 z M172.967,104.926 C172.967,106.782 171.833,108.432 169.873,108.432 C167.914,108.432 166.779,106.885 166.779,104.926 C166.779,102.967 167.913,101.42 169.873,101.42 C171.833,101.523 172.967,103.07 172.967,104.926 z M167.502,104.926 C167.502,106.37 168.224,107.71 169.771,107.71 C171.318,107.71 172.04,106.266 172.04,104.926 C172.04,103.586 171.318,102.142 169.771,102.142 C168.327,102.142 167.502,103.586 167.502,104.926 z M173.483,101.729 L174.205,101.729 L174.205,102.863 L174.205,102.863 C174.618,102.038 175.339,101.522 176.371,101.522 C177.196,101.522 178.021,101.935 178.227,102.76 C178.64,101.935 179.465,101.522 180.29,101.522 C181.734,101.522 182.457,102.244 182.457,103.791 L182.457,108.226 L181.631,108.226 L181.631,103.791 C181.631,102.76 181.219,102.141 180.084,102.141 C178.743,102.141 178.331,103.275 178.331,104.513 L178.331,108.226 L177.506,108.226 L177.506,103.792 C177.506,102.864 177.197,102.142 176.165,102.142 C174.824,102.142 174.206,103.173 174.206,104.514 L174.206,108.123 L173.381,108.123 L173.381,101.729 L173.483,101.729 z" fill="#191919"/>
    <g>
      <path d="M127.05,106.833 C127.05,107.446 126.548,107.949 125.936,107.949 L111.485,107.949 C110.872,107.949 110.37,107.446 110.37,106.833 L110.37,92.383 C110.37,91.77 110.872,91.269 111.485,91.269 L125.936,91.269 C126.548,91.269 127.05,91.77 127.05,92.383 L127.05,106.833 z" fill="#BC2328"/>
      <g>
        <path d="M123.831,97.28 L120.38,97.28 L120.38,93.819 C120.38,93.51 120.153,93.261 119.846,93.261 L117.616,93.261 C117.308,93.261 117.058,93.509 117.058,93.819 L117.058,97.28 L113.611,97.28 C113.303,97.28 113.053,97.497 113.053,97.805 L113.053,100.036 C113.053,100.341 113.302,100.592 113.611,100.592 L117.058,100.592 L117.058,104.03 C117.058,104.338 117.308,104.587 117.616,104.587 L119.846,104.587 C120.153,104.587 120.38,104.338 120.38,104.03 L120.38,100.592 L123.831,100.592 C124.139,100.592 124.389,100.342 124.389,100.036 L124.389,97.805 C124.389,97.496 124.139,97.28 123.831,97.28 z" fill="#A00000"/>
        <path d="M123.831,97.949 L120.38,97.949 L120.38,94.488 C120.38,94.179 120.153,93.93 119.846,93.93 L117.616,93.93 C117.308,93.93 117.058,94.178 117.058,94.488 L117.058,97.949 L113.611,97.949 C113.303,97.949 113.053,98.166 113.053,98.474 L113.053,100.705 C113.053,101.01 113.302,101.261 113.611,101.261 L117.058,101.261 L117.058,104.699 C117.058,105.007 117.308,105.257 117.616,105.257 L119.846,105.257 C120.153,105.257 120.38,105.007 120.38,104.699 L120.38,101.261 L123.831,101.261 C124.139,101.261 124.389,101.011 124.389,100.705 L124.389,98.474 C124.389,98.166 124.139,97.949 123.831,97.949 z" fill="#FFFFFF"/>
      </g>
    </g>
  </g>
</svg>
