<?xml version="1.0" encoding="UTF-8"?>
<!DOCTYPE svg PUBLIC "-//W3C//DTD SVG 1.1//EN" "http://www.w3.org/Graphics/SVG/1.1/DTD/svg11.dtd">
<svg version="1.1" xmlns="http://www.w3.org/2000/svg" xmlns:xlink="http://www.w3.org/1999/xlink" x="0" y="0" width="200" height="200" viewBox="0, 0, 200, 200">
  <g id="Background">
    <rect x="0" y="0" width="200" height="200" fill="#000000" fill-opacity="0"/>
  </g>
  <g id="Layer_1">
    <path d="M137.606,108.127 C138.772,107.162 139.683,105.729 140.337,103.83 L151.741,103.83 C151.28,105.373 150.668,106.807 149.905,108.127 z" fill="#003E7E"/>
    <path d="M93.79,82.074 L96.2,104.435 L106.548,82.074 L120.866,82.074 L116.228,108.128 L105.633,108.128 C106.056,105.923 106.494,103.681 106.952,101.403 L108.711,94.895 L102.497,108.128 L88.625,108.128 L87.21,94.895 L86.706,99.961 C86.505,101.453 86.171,103.522 85.702,106.173 C85.58,106.824 85.463,107.476 85.351,108.128 L74.834,108.128 L79.473,82.074 z" fill="#003E7E"/>
    <path d="M101.76,109.695 L97.907,117.898 L89.67,117.898 L88.793,109.695 z" fill="#003E7E"/>
    <path d="M115.946,109.695 L114.488,117.898 L103.785,117.898 C104.289,115.216 104.799,112.51 105.317,109.774 C105.324,109.749 105.329,109.721 105.334,109.695 z" fill="#003E7E"/>
    <path d="M53.382,82.074 L65.287,82.074 L60.414,109.551 L76.69,109.551 L75.184,117.899 L47.003,117.899 z" fill="#003E7E"/>
    <path d="M85.115,109.567 C84.668,112.306 84.125,115.167 83.642,117.899 L76.811,117.899 L78.317,109.567 z" fill="#003E7E"/>
    <path d="M141.743,96.005 C141.743,93.775 141.057,92.203 139.684,91.292 C138.779,90.694 137.691,90.394 136.419,90.394 C134.008,90.394 132.033,91.417 130.49,93.458 C129.252,95.124 128.365,97.387 127.829,100.246 C127.595,101.443 127.476,102.588 127.476,103.688 C127.476,105.657 127.94,107.138 128.869,108.126 L117.853,108.126 L121.225,89.193 C122.213,88.113 123.327,87.131 124.564,86.247 C128.449,83.481 132.753,82.098 137.474,82.098 C143.468,82.098 147.739,83.529 150.284,86.388 C152.092,88.431 152.997,91.259 152.997,94.873 L152.997,96.005 z" fill="#003E7E"/>
    <path d="M148.892,109.695 C147.759,111.27 146.383,112.659 144.757,113.872 C141.141,116.576 136.854,117.926 131.897,117.926 C126.741,117.926 122.73,116.707 119.867,114.27 C118.82,113.383 117.967,112.364 117.302,111.22 L117.575,109.695 z" fill="#003E7E"/>
  </g>
</svg>
