<?xml version="1.0" encoding="UTF-8"?>
<!DOCTYPE svg PUBLIC "-//W3C//DTD SVG 1.1//EN" "http://www.w3.org/Graphics/SVG/1.1/DTD/svg11.dtd">
<svg version="1.1" xmlns="http://www.w3.org/2000/svg" xmlns:xlink="http://www.w3.org/1999/xlink" x="0" y="0" width="32" height="32" viewBox="0, 0, 32, 32">
  <g id="Background">
    <rect x="0" y="0" width="32" height="32" fill="#000000" fill-opacity="0"/>
  </g>
  <g id="Layer_1">
    <path d="M32,5.314 C30.811,5.884 29.538,6.26 28.23,6.427 C29.585,5.553 30.626,4.167 31.116,2.517 C29.84,3.335 28.428,3.916 26.946,4.232 C25.75,2.858 24.044,2 22.157,2 C18.53,2 15.591,5.165 15.591,9.068 C15.591,9.622 15.649,10.162 15.761,10.678 C10.304,10.384 5.467,7.57 2.229,3.294 C1.641,4.386 1.335,5.607 1.339,6.847 C1.339,9.3 2.499,11.463 4.261,12.731 C3.211,12.694 2.187,12.39 1.287,11.848 L1.287,11.938 C1.287,15.362 3.549,18.218 6.553,18.868 C5.589,19.149 4.571,19.19 3.588,18.988 C4.423,21.798 6.848,23.841 9.721,23.898 C7.474,25.794 4.643,26.924 1.567,26.924 C1.037,26.924 0.515,26.891 0.001,26.824 C2.905,28.83 6.356,30 10.064,30 C22.139,30 28.744,19.23 28.744,9.888 C28.744,9.582 28.736,9.278 28.724,8.973 C30.024,7.957 31.133,6.717 32,5.313 z" fill="#B5B397"/>
  </g>
</svg>
