<?xml version="1.0" encoding="UTF-8"?>
<!DOCTYPE svg PUBLIC "-//W3C//DTD SVG 1.1//EN" "http://www.w3.org/Graphics/SVG/1.1/DTD/svg11.dtd">
<svg version="1.1" xmlns="http://www.w3.org/2000/svg" xmlns:xlink="http://www.w3.org/1999/xlink" x="0" y="0" width="640" height="360" viewBox="0, 0, 1600, 900">
  <g id="Background">
    <rect x="0" y="0" width="1600" height="900" fill="#350000"/>
  </g>
  <g id="Layer_1">
    <path d="M332.5,490.5 C332.5,549 335,585 339.5,606.5 C365,617.5 405.5,625 457.5,625 C558.5,625 601,576.5 601,521.5 C601,470 587,444 503,414 L460.5,398.5 C437.5,390.5 432.5,380 432.5,365 C432.5,350.5 443,335.5 482.5,335.5 C497,335.5 515.5,338 530,342 L536,396 L594,396 C594,341 593,292.5 589,281.5 C563.5,275 522,269.5 489.5,269.5 C385,269.5 345,317.5 345,375.5 C345,437.5 380.5,461.5 429,476.5 L473,489.5 C502,498.5 511,509.5 511,527 C511,545 499,558.5 467.5,558.5 C445.5,558.5 423.5,555.5 400.5,548.5 L392.5,490.5 z" fill-opacity="0" stroke="#FFFFFF" stroke-width="10" stroke-dasharray="20,10"/>
    <path d="M792.5,277.5 L792.5,330 L743.5,334 C798.5,496.5 802.5,508.5 807.5,526.5 C812.5,512 817.5,496.5 874,334 L824,330 L824,277.5 L997.5,277.5 L997.5,330 L961.5,334 L854.5,615.5 L755.5,615.5 L650,334 L615,330 L615,277.5 L792.5,277.5 z M782.5,287.5 L625,287.5 L625,321.078 L651.135,324.065 L657.216,324.76 L659.364,330.491 L762.431,605.5 L847.603,605.5 L952.152,330.447 L954.323,324.736 L987.5,321.049 L987.5,287.5 L834,287.5 L834,320.768 L874.797,324.032 L887.694,325.063 L883.445,337.284 C858.636,408.637 841.946,456.849 830.894,489.001 C825.039,506.034 817.176,529.114 816.954,529.76 L806.471,560.159 L797.865,529.176 C792.968,511.548 789.171,500.129 734.028,337.206 L729.922,325.075 L742.686,324.033 L782.5,320.783 L782.5,287.5 z" fill="#FFFFFF"/>
    <path d="M1300.5,597.5 L1300.5,489.5 L1326.5,487.5 L1326.5,436 L1178.5,436 L1178.5,487.5 L1221.5,491 L1221.5,545 C1205,549.5 1188,552 1167,552 C1114.5,552 1085.5,518 1085.5,454 C1085.5,368 1125,336.5 1182.5,336.5 C1194,336.5 1212.5,339 1225.5,342.5 L1233,393 L1293.5,393 C1293.5,315 1292,297.5 1288.5,281 C1255,273 1221.5,268.5 1174,268.5 C1058,268.5 997.5,336.5 997.5,455 C997.5,559.5 1058,624.5 1153.5,624.5 C1231,624.5 1269,607.5 1300.5,597.5 z" fill="#FFFFFF"/>
  </g>
</svg>
