<?xml version="1.0" encoding="UTF-8"?>
<!DOCTYPE svg PUBLIC "-//W3C//DTD SVG 1.1//EN" "http://www.w3.org/Graphics/SVG/1.1/DTD/svg11.dtd">
<svg version="1.1" xmlns="http://www.w3.org/2000/svg" xmlns:xlink="http://www.w3.org/1999/xlink" x="0" y="0" width="1600" height="900" viewBox="0, 0, 1600, 900">
  <g id="Background">
    <rect x="0" y="0" width="1600" height="900" fill="#262408"/>
  </g>
  <g id="Layer_1">
    <path d="M1142.154,266.023 C1142.154,346.556 1076.869,411.841 996.335,411.841 C915.802,411.841 850.517,346.556 850.517,266.023 C850.517,185.49 915.802,120.205 996.335,120.205 C1076.869,120.205 1142.154,185.49 1142.154,266.023 z" fill="#FFFFFF" id="circle47_1_" display="none"/>
    <path d="M1057.849,274.871 C1057.849,306.692 1032.053,332.488 1000.232,332.488 C968.411,332.488 942.616,306.692 942.616,274.871 C942.616,243.051 968.411,217.255 1000.232,217.255 C1032.053,217.255 1057.849,243.051 1057.849,274.871 z" fill="#ACF063"/>
    <path d="M999.887,206.219 L999.887,206.214 L1139.121,206.214 C1113.81,155.106 1061.129,119.962 1000.232,119.962 C950.935,119.962 907.019,142.992 878.648,178.878 L931.767,269.716 C934.395,234.32 963.86,206.397 999.887,206.219 z M1000.232,343.528 C970.521,343.528 945.221,324.655 935.659,298.246 L871.55,188.608 C854.99,213.264 845.323,242.938 845.323,274.871 C845.323,352.846 902.937,417.354 977.917,428.174 L1031.363,336.081 C1022.018,340.842 1011.44,343.528 1000.232,343.528 z M1144.063,217.255 L1037.579,217.255 C1056.423,229.494 1068.889,250.726 1068.889,274.871 C1068.889,286.744 1065.874,297.914 1060.57,307.656 L1060.609,307.679 L989.951,429.433 C993.35,429.655 996.776,429.781 1000.232,429.781 C1085.787,429.781 1155.141,360.426 1155.141,274.871 C1155.141,254.508 1151.205,235.065 1144.063,217.255 z" fill="#ACF063"/>
  </g>
  <g id="Layer_2">
    <path d="M452.379,241.301 C452.379,241.301 451.908,241.878 451.199,242.838 C451.098,243.362 450.993,243.886 450.897,244.412 C451.343,243.17 451.835,242.118 452.379,241.301 z" fill="#C5FF7C"/>
    <path d="M499.263,165.59 C499.567,165.281 499.863,164.967 500.17,164.661 C514.299,150.531 530.751,139.439 549.068,131.692 C568.028,123.672 588.173,119.606 608.943,119.606 C628.549,119.606 647.596,123.233 665.617,130.385 C676.143,132.203 690.174,135.705 701.863,142.351 C675.631,123.722 643.567,112.768 608.943,112.768 C564.054,112.768 523.471,131.185 494.319,160.867 C495.676,162.515 497.309,164.105 499.263,165.59 z" fill="#C5FF7C"/>
    <path d="M556.299,286.424 C555.18,285.492 554.224,284.497 553.409,283.458 C553.135,285.753 552.953,288.222 552.954,290.814 C552.953,295.644 553.557,300.857 555.207,306.025 C556.86,311.196 559.544,316.324 563.775,321.084 C566.598,324.258 570.114,327.273 574.513,330.013 L574.267,330.409 C582.529,330.559 595.975,330.4 602.789,328.129 C613.044,324.71 629.453,311.72 629.453,311.72 C633.555,307.618 638.34,309.669 642.443,309.669 C646.545,309.669 647.912,303.516 642.443,297.363 C636.973,291.21 617.83,285.057 603.473,294.628 C589.115,304.2 568.605,296.679 556.299,286.424 z M566.209,196.196 C565.294,199.603 564.501,203.928 564.503,208.63 C564.503,213.377 565.299,218.482 567.531,223.504 C569.322,227.533 571.013,230.487 572.55,232.86 C573.631,234.527 574.638,235.905 575.581,237.188 C577.506,235.417 579.756,233.64 581.596,232.413 C585.698,229.679 601.422,222.158 603.473,220.107 C605.524,218.056 609.626,207.117 606.208,203.699 C602.79,200.28 580.912,202.331 574.075,200.964 C571.194,200.388 568.437,198.355 566.209,196.196 z M570.624,263.093 C570.645,263.147 570.656,263.178 570.656,263.178 C570.683,263.126 570.704,263.07 570.73,263.016 L570.624,263.093 z M773.026,232.413 C773.026,237.97 768.007,245.758 767.035,247.212 C767.238,246.696 767.556,245.068 767.556,239.933 C767.556,232.413 769.607,213.27 760.036,192.075 C750.464,170.881 736.107,160.626 736.107,160.626 L736.107,165.412 C734.056,158.575 714.913,145.585 714.913,145.585 L714.913,152.422 C749.097,183.871 752.515,205.749 752.515,205.749 C746.362,185.922 728.586,170.881 713.545,156.524 C698.504,142.167 667.055,134.646 667.055,134.646 C700.555,153.789 716.964,183.871 716.964,183.871 C699.872,167.463 686.198,168.83 686.198,168.83 C696.453,176.351 701.239,184.555 710.811,199.596 C720.382,214.637 719.699,250.188 719.699,250.188 C714.913,238.566 705.341,233.78 705.341,233.78 C705.341,233.78 707.392,254.29 708.76,265.913 C710.127,277.536 703.974,299.413 703.974,299.413 C703.974,291.209 699.188,289.158 699.188,289.158 C699.188,289.158 700.555,293.944 693.719,315.822 C686.882,337.7 673.892,345.22 671.841,344.536 C669.79,343.853 671.841,340.434 671.841,340.434 C671.841,340.434 668.422,337.7 663.637,345.22 C659.6,351.563 652.646,354.988 650.567,355.905 C652.797,354.639 653.381,350.006 653.381,350.006 C653.381,350.006 648.596,352.741 626.718,356.159 C604.84,359.577 594.585,350.006 594.585,350.006 C596.636,347.955 606.207,350.006 606.207,350.006 C606.207,347.955 595.268,344.536 584.33,343.169 C575.436,342.057 571.124,337.933 569.061,334.625 C564.959,331.869 561.519,328.836 558.666,325.627 C555.395,321.949 552.897,318.041 551.035,314.076 C547.307,306.137 546.118,298.002 546.117,290.813 C546.119,284.026 547.174,278.057 548.229,273.751 C549.285,269.447 550.345,266.804 550.393,266.686 L550.393,266.686 L550.539,266.744 C551.823,262.793 554.343,259.617 557.327,258.322 C556.391,257.684 555.431,257.089 554.439,256.566 C549.975,254.178 544.914,253.187 539.94,254.012 C534.955,254.802 530.183,257.272 525.942,260.514 C521.872,263.619 518.633,268.041 516.508,272.921 C514.368,277.817 513.296,283.221 513.296,288.652 C513.292,294.088 514.361,299.548 516.332,304.691 C518.298,309.84 521.151,314.671 524.6,319.045 C528.05,323.425 532.089,327.356 536.471,330.863 C531.901,327.604 527.624,323.888 523.881,319.644 C520.14,315.408 516.938,310.633 514.602,305.408 C512.263,300.191 510.806,294.523 510.488,288.732 C510.167,282.946 510.979,277.046 513.034,271.523 C515.092,266.011 518.365,260.852 523.022,256.856 C525.272,254.972 527.721,253.26 530.38,251.844 C533.035,250.426 535.921,249.321 538.96,248.699 C541.994,248.075 545.173,247.957 548.273,248.389 C551.376,248.811 554.382,249.765 557.166,251.087 C559.954,252.409 562.528,254.088 564.886,255.998 C566.064,256.954 567.191,257.968 568.266,259.042 C568.804,259.579 569.328,260.13 569.84,260.702 C570.267,261.182 570.661,261.637 571.088,262.177 C573.524,255.862 571.816,245.306 571.416,243.09 C570.127,241.265 568.297,238.962 566.236,235.675 C564.682,233.195 563.001,230.152 561.281,226.28 C558.59,220.227 557.663,214.133 557.664,208.629 C557.666,202.201 558.915,196.552 560.158,192.476 C560.542,191.219 560.926,190.113 561.275,189.178 C565.139,172.372 583.644,155.84 583.644,155.84 C557.664,152.422 539.888,176.351 539.888,176.351 C539.816,176.306 539.743,176.267 539.67,176.223 C537.828,178.265 531.582,185.57 531,191.392 C531,191.392 531.216,180.929 533.833,173.613 C523.92,170.455 512.253,172.105 506.27,173.345 L506.308,173.563 C500.177,174.663 494.577,177.022 489.602,179.992 C484.629,182.96 480.291,186.536 476.726,189.999 C469.605,196.911 465.585,203.367 465.543,203.439 L465.543,203.439 L465.544,203.442 L465.351,203.323 C452.768,221.559 444.858,260.445 444.858,260.445 C446.226,254.292 452.379,246.771 452.379,246.771 C445.542,257.027 446.91,304.201 446.91,304.201 C446.91,296.68 451.012,287.792 451.012,287.792 C452.379,303.517 459.216,354.109 503.655,392.396 C548.094,430.682 585.697,434.1 585.697,434.1 C576.809,431.365 574.758,427.263 574.758,427.263 C603.473,438.886 621.248,436.835 621.248,436.835 C616.463,434.1 615.779,432.049 615.779,432.049 C646.545,433.417 687.566,422.478 697.137,415.641 C706.709,408.804 714.913,395.13 714.913,395.13 C739.525,383.508 756.617,359.579 761.403,347.273 C766.189,334.966 761.403,321.976 761.403,321.976 C761.403,321.976 761.403,321.293 773.026,295.313 C784.648,269.333 773.026,232.413 773.026,232.413 z M485.969,174.2 C488.853,172.469 491.966,170.907 495.285,169.618 C482.123,158.655 483.145,144.218 483.145,144.218 C469.974,156.935 466.76,178.397 466.086,191.376 C466.272,191.158 466.457,190.94 466.651,190.717 C471.107,185.592 477.61,179.219 485.969,174.2 z" fill="#C5FF7C"/>
  </g>
  <g id="Layer_3">
    <path d="M595.492,477.078 C511.372,477.078 443.168,545.283 443.168,629.402 L443.168,629.402 C443.168,711.096 507.492,777.755 588.247,781.544 L588.247,781.544 C590.672,781.666 593.067,781.726 595.492,781.726 L595.492,781.726 C634.505,781.726 670.062,767.055 697.011,742.956 L697.011,742.956 C679.156,754.808 658.27,761.598 635.96,761.598 L635.96,761.598 C599.675,761.598 567.209,743.592 545.354,715.219 L545.354,715.219 C528.499,695.333 517.617,665.96 516.859,632.979 L516.859,632.979 C516.859,632.888 516.859,625.886 516.859,625.795 L516.859,625.795 C517.617,592.814 528.499,563.41 545.354,543.555 L545.354,543.555 C567.209,515.182 599.705,497.176 635.96,497.176 L635.96,497.176 C658.27,497.176 679.156,503.996 697.011,515.849 L697.011,515.849 C670.214,491.871 634.838,477.23 596.068,477.078 L596.068,477.078 C595.886,477.078 595.674,477.078 595.492,477.078 z" fill="#92D649"/>
    <path d="M553.743,546.308 C567.498,530.078 585.28,520.262 604.673,520.262 L604.673,520.262 C648.322,520.262 683.707,569.759 683.707,630.773 L683.707,630.773 C683.707,691.816 648.322,741.284 604.673,741.284 L604.673,741.284 C585.25,741.284 567.498,731.497 553.743,715.267 L553.743,715.267 C575.255,743.193 607.209,760.915 642.922,760.915 L642.922,760.915 C664.881,760.915 685.438,754.202 703.011,742.566 L703.011,742.566 C733.711,715.118 753.015,675.228 753.015,630.803 L753.015,630.803 C753.015,586.407 733.711,546.487 703.011,519.039 L703.011,519.039 C685.438,507.373 664.881,500.69 642.922,500.69 L642.922,500.69 C607.209,500.69 575.255,518.412 553.743,546.338" fill="#92D649"/>
  </g>
  <g id="Layer_4">
    <path d="M865.725,612.306 C874.677,541.845 922.713,477.926 1008.865,477.078 C1060.879,478.072 1103.68,501.637 1129.115,546.578 C1141.91,570.035 1145.901,594.664 1146.749,621.823 L1146.749,653.75 L955.566,653.75 C956.441,732.597 1071.576,729.913 1121.173,695.152 L1121.173,759.332 C1092.136,776.783 1026.288,792.326 975.278,772.332 C931.827,756.011 900.881,710.582 901.093,666.849 C899.68,610.116 929.283,572.6 975.278,551.263 C965.528,563.365 958.109,576.697 954.223,599.73 L1062.179,599.73 C1062.179,599.73 1068.493,535.218 1001.087,535.218 C937.5,537.465 891.647,574.437 865.718,612.299 z" fill="#79BD30"/>
  </g>
</svg>
