<svg xmlns="http://www.w3.org/2000/svg" xmlns:xlink="http://www.w3.org/1999/xlink" version="1.1" x="0" y="0" width="1600" height="900" viewBox="0 0 1600 900">
  <g id="Background">
    <rect x="0" y="0" width="1600" height="900" fill="#43376E"/>
  </g>
  <defs>
    <linearGradient id="Gradient_1" gradientUnits="userSpaceOnUse" x1="800" y1="0" x2="800" y2="900">
      <stop offset="0" stop-color="#FFFFFF"/>
      <stop offset="1" stop-color="#000000"/>
    </linearGradient>
  </defs>
  <g id="" display="none" opacity="0.18">
    <path d="M0 0L1600 0 1600 900 0 900 0 0z" fill="url(#Gradient_1)" opacity="1" display="none"/>
  </g>
  <g id="Layer_3">
    <path d="M1247.8 541.67L1258 541.67C1260.52 541.67 1262.68 541.63 1265.68 541.19 1270 540.55 1272.72 538.07 1272.72 533.67 1272.72 529.83 1270.4 527.83 1266.24 527.35 1270 526.23 1271.6 524.31 1271.6 520.99 1271.6 517.67 1269.72 515.71 1265.72 515.03 1264.04 514.75 1260.68 514.63 1258.4 514.63L1247.8 514.63 1247.8 518.83 1251.64 519.19 1251.64 537.11 1247.8 537.47zM1258.28 530.39L1260.28 530.39C1261.04 530.39 1261.96 530.43 1262.76 530.51 1264.52 530.67 1265.52 531.71 1265.52 533.43 1265.52 534.91 1264.84 535.75 1263.64 536.19 1262.84 536.47 1261.56 536.47 1260.56 536.47L1258.28 536.47zM1258.28 525.23L1258.28 519.83 1260.48 519.83C1261.44 519.83 1262.68 519.91 1263.28 520.23 1264.12 520.67 1264.6 521.31 1264.6 522.43 1264.6 523.83 1263.88 524.63 1262.8 524.95 1262.12 525.15 1261.12 525.23 1260.12 525.23z" fill="#FFFFFF"/>
    <path d="M1297.44 531.07C1297.44 524.51 1294.32 520.87 1287.52 520.87 1280 520.87 1276.36 524.71 1276.36 531.99 1276.36 538.67 1280.08 542.31 1286.56 542.31 1293.76 542.31 1297.44 538.35 1297.44 531.07zM1290.72 531.79C1290.72 536.39 1289.24 537.63 1286.76 537.63 1284.44 537.63 1282.92 536.43 1282.92 531.35 1282.92 527.75 1283.96 525.51 1287 525.51 1290.16 525.51 1290.72 527.87 1290.72 531.79z" fill="#FFFFFF"/>
    <path d="M1322.04 531.07C1322.04 524.51 1318.92 520.87 1312.12 520.87 1304.6 520.87 1300.96 524.71 1300.96 531.99 1300.96 538.67 1304.68 542.31 1311.16 542.31 1318.36 542.31 1322.04 538.35 1322.04 531.07zM1315.32 531.79C1315.32 536.39 1313.84 537.63 1311.36 537.63 1309.04 537.63 1307.52 536.43 1307.52 531.35 1307.52 527.75 1308.56 525.51 1311.6 525.51 1314.76 525.51 1315.32 527.87 1315.32 531.79z" fill="#FFFFFF"/>
    <path d="M1339.28 541.15L1338.52 536.55C1337.56 536.71 1336.44 536.75 1335.88 536.75 1335 536.75 1334.32 536.55 1333.96 536.03 1333.52 535.43 1333.36 534.59 1333.36 532.95L1333.36 526.35 1338.16 526.35 1338.16 521.55 1333.36 521.55 1333.36 516.15 1327.36 516.55C1327.2 519.11 1327.12 520.23 1327.12 521.55 1326.6 521.55 1324.6 521.67 1323.4 521.95L1323.4 526.35 1327.04 526.35 1327.04 534.31C1327.04 536.95 1327.44 538.99 1328.28 540.11 1329.12 541.27 1330.84 541.99 1332.88 541.99 1335.52 541.99 1337.8 541.63 1339.28 541.15z" fill="#FFFFFF"/>
    <path d="M1341.44 534.35C1341.44 538.23 1341.6 540.15 1341.92 541.19 1344.28 541.91 1347.16 542.31 1349.88 542.31 1356.48 542.31 1358.96 538.79 1358.96 535.55 1358.96 532.71 1357.96 530.27 1353.56 529.27L1350.24 528.51C1349.12 528.27 1348.72 527.63 1348.72 526.91 1348.72 526.03 1349.4 525.27 1351.04 525.27 1351.64 525.27 1352.6 525.31 1353.6 525.55L1354.08 528.35 1358.44 528.35C1358.44 525.95 1358.36 522.71 1357.92 521.59 1356.24 521.15 1353.56 520.87 1351.28 520.87 1344.92 520.87 1342.12 523.95 1342.12 527.27 1342.12 531.19 1344.16 532.83 1347.4 533.67L1350.56 534.47C1351.56 534.75 1352.08 535.15 1352.08 536.11 1352.08 536.87 1351.64 537.71 1349.8 537.71 1348.68 537.71 1347.24 537.47 1346.44 537.11L1345.8 534.35z" fill="#FFFFFF"/>
    <path d="M1376.32 541.15L1375.56 536.55C1374.6 536.71 1373.48 536.75 1372.92 536.75 1372.04 536.75 1371.36 536.55 1371 536.03 1370.56 535.43 1370.4 534.59 1370.4 532.95L1370.4 526.35 1375.2 526.35 1375.2 521.55 1370.4 521.55 1370.4 516.15 1364.4 516.55C1364.24 519.11 1364.16 520.23 1364.16 521.55 1363.64 521.55 1361.64 521.67 1360.44 521.95L1360.44 526.35 1364.08 526.35 1364.08 534.31C1364.08 536.95 1364.48 538.99 1365.32 540.11 1366.16 541.27 1367.88 541.99 1369.92 541.99 1372.56 541.99 1374.84 541.63 1376.32 541.15z" fill="#FFFFFF"/>
    <path d="M1391.08 541.67L1391.08 537.51 1387.2 537.11 1387.2 527.47C1388.6 526.79 1390.4 526.51 1391.92 526.51 1393.04 526.51 1393.84 526.59 1394.2 526.63L1394.2 521.11C1393.84 521.07 1393.28 521.03 1392.92 521.03 1390.44 521.03 1388.28 522.35 1387.12 524.35L1387.12 520.95C1384 520.99 1380.44 521.51 1377.52 522.47L1377.52 526.55 1380.96 526.55 1380.96 537.15 1377.68 537.51 1377.68 541.67z" fill="#FFFFFF"/>
    <path d="M1416.4 537.11L1413.2 537.11 1413.2 528.51C1413.2 525.67 1412.84 524.03 1412.16 522.95 1411.28 521.51 1409.52 520.87 1406.6 520.87 1404.2 520.87 1399.68 521.55 1396.68 522.55L1397.56 526.83C1400.2 526.19 1403 525.99 1404.4 525.99 1405.76 525.99 1406.4 526.23 1406.76 526.71 1407 527.11 1407.08 527.87 1407.08 528.67L1407.08 529.23C1404.04 529.35 1401.2 529.63 1398.92 530.35 1396.56 531.07 1395.04 532.87 1395.04 535.79 1395.04 538.99 1397.04 542.15 1401.64 542.15 1403.32 542.15 1405.68 541.59 1407.44 539.71L1407.8 542.03C1410.68 542.03 1414.32 541.59 1416.4 541.03zM1407.16 536.35C1406.24 537.19 1404.68 537.71 1403.6 537.71 1402.24 537.71 1401.48 536.91 1401.48 535.63 1401.48 534.75 1401.92 534.03 1402.96 533.67 1404.32 533.19 1406.4 533.11 1407.16 533.03z" fill="#FFFFFF"/>
    <path d="M1431 551.51L1431 547.35 1427 546.99 1427 541.87C1427.96 541.99 1428.92 542.03 1429.92 542.03 1436.32 542.03 1440.4 538.43 1440.4 530.83 1440.4 524.23 1437.96 520.91 1433.8 520.91 1431.2 520.91 1428.4 522.31 1427 523.47L1426.88 520.87C1423.76 520.99 1420.48 521.47 1417.32 522.39L1417.32 526.47 1420.8 526.47 1420.8 546.99 1417.52 547.35 1417.52 551.51zM1427 536.91L1427 526.87C1428.2 526.47 1429.24 526.23 1430.48 526.23 1432.4 526.23 1433.64 527.75 1433.64 531.43 1433.64 535.71 1432 537.19 1429.56 537.19 1428.6 537.19 1427.8 537.07 1427 536.91z" fill="#FFFFFF"/>
    <path d="M1470.44 542.07L1470.44 535.87 1474.32 535.87 1474.32 530.75 1470.44 530.75 1470.44 515.79 1463.6 515.79 1452.32 532.23 1452.32 535.87 1463.92 535.87 1463.92 542.07zM1463.92 530.75L1458.32 530.75C1461.16 526.47 1462.48 524.59 1464 522.11 1463.92 524.87 1463.92 526.47 1463.92 530.75z" fill="#FFFFFF"/>
    <path d="M115.87 578.67L115.87 574.51 111.91 574.15 111.91 563.35 116.07 563.35 116.07 558.55 111.91 558.55 111.91 557.55C111.91 556.31 112.03 555.47 112.43 554.87 112.87 554.27 113.75 554.07 114.95 554.07 115.63 554.07 116.43 554.11 117.31 554.23L117.91 549.71C116.79 549.47 114.59 549.27 113.23 549.27 110.63 549.27 108.55 550.07 107.31 551.43 106.19 552.59 105.67 554.55 105.67 557.35L105.67 558.55C105.07 558.55 103.27 558.67 102.23 558.91L102.23 563.35 105.67 563.35 105.67 574.15 102.39 574.51 102.39 578.67z" fill="#FFFFFF"/>
    <path d="M139.59 568.07C139.59 561.51 136.47 557.87 129.67 557.87 122.15 557.87 118.51 561.71 118.51 568.99 118.51 575.67 122.23 579.31 128.71 579.31 135.91 579.31 139.59 575.35 139.59 568.07zM132.87 568.79C132.87 573.39 131.39 574.63 128.91 574.63 126.59 574.63 125.07 573.43 125.07 568.35 125.07 564.75 126.11 562.51 129.15 562.51 132.31 562.51 132.87 564.87 132.87 568.79z" fill="#FFFFFF"/>
    <path d="M155.99 578.67L155.99 574.51 152.11 574.11 152.11 564.47C153.51 563.79 155.31 563.51 156.83 563.51 157.95 563.51 158.75 563.59 159.11 563.63L159.11 558.11C158.75 558.07 158.19 558.03 157.83 558.03 155.35 558.03 153.19 559.35 152.03 561.35L152.03 557.95C148.91 557.99 145.35 558.51 142.43 559.47L142.43 563.55 145.87 563.55 145.87 574.15 142.59 574.51 142.59 578.67z" fill="#FFFFFF"/>
    <path d="M174.19 578.67L174.19 574.51 170.95 574.15 170.95 563.99C172.27 563.47 173.47 563.31 174.71 563.31 175.51 563.31 176.11 563.55 176.27 564.39 176.39 565.11 176.39 566.43 176.39 568.35L176.39 578.67 186.07 578.67 186.07 574.51 182.71 574.15 182.71 566.87C182.71 565.75 182.71 564.87 182.67 563.99 183.99 563.51 185.19 563.31 186.39 563.31 187.19 563.31 187.83 563.55 187.99 564.43 188.15 565.11 188.15 566.43 188.15 568.35L188.15 578.67 197.83 578.67 197.83 574.51 194.43 574.15 194.43 566.87C194.43 564.63 194.43 562.87 194.27 561.75 193.95 559.35 192.63 557.99 189.79 557.99 187.35 557.99 184.75 559.19 182.39 560.83 181.87 558.95 180.67 557.99 178.15 557.99 176.15 557.99 173.15 559.15 170.95 560.71L170.83 557.95C168.11 557.95 164.15 558.63 161.27 559.43L161.27 563.55 164.71 563.55 164.71 574.15 161.43 574.51 161.43 578.67z" fill="#FFFFFF"/>
    <path d="M223.11 578.23L223.11 574.31 219.91 574.31 219.91 558.15C216.71 558.15 213.11 558.67 210.23 559.35L210.23 563.27 213.55 563.27 213.55 573.23C212.19 573.71 211.03 573.95 209.87 573.95 208.79 573.95 208.11 573.35 207.95 572.43 207.83 571.75 207.83 570.75 207.83 568.87L207.83 558.15C204.91 558.15 201.31 558.63 198.27 559.31L198.27 563.27 201.51 563.27 201.51 570.19C201.51 572.07 201.55 573.79 201.67 574.95 201.99 577.55 203.51 579.23 206.99 579.23 209.27 579.23 211.67 578.23 213.83 576.55L214.23 579.03C217.31 579.03 221.35 578.63 223.11 578.23z" fill="#FFFFFF"/>
    <path d="M237.35 578.67L237.35 574.51 234.03 574.15 234.03 549.03C231.15 549.03 227.63 549.71 224.35 550.59L224.35 554.67 227.79 554.67 227.79 574.15 224.71 574.51 224.71 578.67z" fill="#FFFFFF"/>
    <path d="M260.87 574.11L257.67 574.11 257.67 565.51C257.67 562.67 257.31 561.03 256.63 559.95 255.75 558.51 253.99 557.87 251.07 557.87 248.67 557.87 244.15 558.55 241.15 559.55L242.03 563.83C244.67 563.19 247.47 562.99 248.87 562.99 250.23 562.99 250.87 563.23 251.23 563.71 251.47 564.11 251.55 564.87 251.55 565.67L251.55 566.23C248.51 566.35 245.67 566.63 243.39 567.35 241.03 568.07 239.51 569.87 239.51 572.79 239.51 575.99 241.51 579.15 246.11 579.15 247.79 579.15 250.15 578.59 251.91 576.71L252.27 579.03C255.15 579.03 258.79 578.59 260.87 578.03zM251.63 573.35C250.71 574.19 249.15 574.71 248.07 574.71 246.71 574.71 245.95 573.91 245.95 572.63 245.95 571.75 246.39 571.03 247.43 570.67 248.79 570.19 250.87 570.11 251.63 570.03zM250.27 556.27L256.87 549.87 250.55 549.87 245.75 556.27z" fill="#FFFFFF"/>
    <path d="M276.43 578.67L276.43 574.51 272.55 574.11 272.55 564.47C273.95 563.79 275.75 563.51 277.27 563.51 278.39 563.51 279.19 563.59 279.55 563.63L279.55 558.11C279.19 558.07 278.63 558.03 278.27 558.03 275.79 558.03 273.63 559.35 272.47 561.35L272.47 557.95C269.35 557.99 265.79 558.51 262.87 559.47L262.87 563.55 266.31 563.55 266.31 574.15 263.03 574.51 263.03 578.67zM273.79 550.19L271.03 553.31 268.35 550.19 263.91 550.19 268.55 556.27 273.43 556.27 278.19 550.19z" fill="#FFFFFF"/>
    <path d="M299.87 576.63L297.87 572.71C295.91 573.79 293.83 574.27 291.51 574.27 288.91 574.27 287.51 572.95 287.07 571.03 286.99 570.63 286.99 569.95 286.99 569.79L299.47 569.79C299.55 569.11 299.59 568.31 299.59 568.03 299.59 562.87 298.19 557.87 290.75 557.87 285.31 557.87 280.55 561.51 280.55 568.95 280.55 575.11 284.03 579.31 289.95 579.31 293.67 579.31 296.71 578.47 299.87 576.63zM293.51 565.59L287.19 565.59C287.47 563.71 288.79 562.35 290.63 562.35 292.67 562.35 293.55 563.35 293.55 564.83 293.55 565.07 293.55 565.31 293.51 565.59z" fill="#FFFFFF"/>
    <path d="M220.87 352.67C221.11 351.35 221.27 349.27 221.27 343.15L216.75 343.15 216.15 347.43 208.07 347.43 208.07 330.19 212.27 329.83 212.27 325.63 197.55 325.63 197.55 329.83 201.39 330.19 201.39 348.11 197.55 348.47 197.55 352.67z" fill="#FFFFFF"/>
    <path d="M246.99 352.67C247.23 351.39 247.39 349.23 247.39 343.15L242.87 343.15 242.27 347.43 234.19 347.43 234.19 341.55 241.95 341.55 241.95 336.07 234.19 336.07 234.19 331.11 241.43 331.11 242.03 334.63 246.51 334.63C246.51 328.63 246.23 326.67 245.99 325.63L223.67 325.63 223.67 329.83 227.51 330.19 227.51 348.11 223.67 348.47 223.67 352.67z" fill="#FFFFFF"/>
    <path d="M250.55 342.63C250.55 347.31 250.75 350.19 251.11 351.91 253.15 352.79 256.39 353.39 260.55 353.39 268.63 353.39 272.03 349.51 272.03 345.11 272.03 340.99 270.91 338.91 264.19 336.51L260.79 335.27C258.95 334.63 258.55 333.79 258.55 332.59 258.55 331.43 259.39 330.23 262.55 330.23 263.71 330.23 265.19 330.43 266.35 330.75L266.83 335.07 271.47 335.07C271.47 330.67 271.39 326.79 271.07 325.91 269.03 325.39 265.71 324.95 263.11 324.95 254.75 324.95 251.55 328.79 251.55 333.43 251.55 338.39 254.39 340.31 258.27 341.51L261.79 342.55C264.11 343.27 264.83 344.15 264.83 345.55 264.83 346.99 263.87 348.07 261.35 348.07 259.59 348.07 257.83 347.83 255.99 347.27L255.35 342.63z" fill="#FFFFFF"/>
    <path d="M274.99 342.63C274.99 347.31 275.19 350.19 275.55 351.91 277.59 352.79 280.83 353.39 284.99 353.39 293.07 353.39 296.47 349.51 296.47 345.11 296.47 340.99 295.35 338.91 288.63 336.51L285.23 335.27C283.39 334.63 282.99 333.79 282.99 332.59 282.99 331.43 283.83 330.23 286.99 330.23 288.15 330.23 289.63 330.43 290.79 330.75L291.27 335.07 295.91 335.07C295.91 330.67 295.83 326.79 295.51 325.91 293.47 325.39 290.15 324.95 287.55 324.95 279.19 324.95 275.99 328.79 275.99 333.43 275.99 338.39 278.83 340.31 282.71 341.51L286.23 342.55C288.55 343.27 289.27 344.15 289.27 345.55 289.27 346.99 288.31 348.07 285.79 348.07 284.03 348.07 282.27 347.83 280.43 347.27L279.79 342.63z" fill="#FFFFFF"/>
    <path d="M612.05 794L612.05 789.84 608.17 789.44 608.17 779.8C609.57 779.12 611.37 778.84 612.89 778.84 614.01 778.84 614.81 778.92 615.17 778.96L615.17 773.44C614.81 773.4 614.25 773.36 613.89 773.36 611.41 773.36 609.25 774.68 608.09 776.68L608.09 773.28C604.97 773.32 601.41 773.84 598.49 774.8L598.49 778.88 601.93 778.88 601.93 789.48 598.65 789.84 598.65 794z" fill="#FFFFFF"/>
    <path d="M635.49 791.96L633.49 788.04C631.53 789.12 629.45 789.6 627.13 789.6 624.53 789.6 623.13 788.28 622.69 786.36 622.61 785.96 622.61 785.28 622.61 785.12L635.09 785.12C635.17 784.44 635.21 783.64 635.21 783.36 635.21 778.2 633.81 773.2 626.37 773.2 620.93 773.2 616.17 776.84 616.17 784.28 616.17 790.44 619.65 794.64 625.57 794.64 629.29 794.64 632.33 793.8 635.49 791.96zM629.13 780.92L622.81 780.92C623.09 779.04 624.41 777.68 626.25 777.68 628.29 777.68 629.17 778.68 629.17 780.16 629.17 780.4 629.17 780.64 629.13 780.92z" fill="#FFFFFF"/>
    <path d="M638.49 786.68C638.49 790.56 638.65 792.48 638.97 793.52 641.33 794.24 644.21 794.64 646.93 794.64 653.53 794.64 656.01 791.12 656.01 787.88 656.01 785.04 655.01 782.6 650.61 781.6L647.29 780.84C646.17 780.6 645.77 779.96 645.77 779.24 645.77 778.36 646.45 777.6 648.09 777.6 648.69 777.6 649.65 777.64 650.65 777.88L651.13 780.68 655.49 780.68C655.49 778.28 655.41 775.04 654.97 773.92 653.29 773.48 650.61 773.2 648.33 773.2 641.97 773.2 639.17 776.28 639.17 779.6 639.17 783.52 641.21 785.16 644.45 786L647.61 786.8C648.61 787.08 649.13 787.48 649.13 788.44 649.13 789.2 648.69 790.04 646.85 790.04 645.73 790.04 644.29 789.8 643.49 789.44L642.85 786.68z" fill="#FFFFFF"/>
    <path d="M671.49 803.84L671.49 799.68 667.49 799.32 667.49 794.2C668.45 794.32 669.41 794.36 670.41 794.36 676.81 794.36 680.89 790.76 680.89 783.16 680.89 776.56 678.45 773.24 674.29 773.24 671.69 773.24 668.89 774.64 667.49 775.8L667.37 773.2C664.25 773.32 660.97 773.8 657.81 774.72L657.81 778.8 661.29 778.8 661.29 799.32 658.01 799.68 658.01 803.84zM667.49 789.24L667.49 779.2C668.69 778.8 669.73 778.56 670.97 778.56 672.89 778.56 674.13 780.08 674.13 783.76 674.13 788.04 672.49 789.52 670.05 789.52 669.09 789.52 668.29 789.4 667.49 789.24z" fill="#FFFFFF"/>
    <path d="M705.49 783.4C705.49 776.84 702.37 773.2 695.57 773.2 688.05 773.2 684.41 777.04 684.41 784.32 684.41 791 688.13 794.64 694.61 794.64 701.81 794.64 705.49 790.68 705.49 783.4zM698.77 784.12C698.77 788.72 697.29 789.96 694.81 789.96 692.49 789.96 690.97 788.76 690.97 783.68 690.97 780.08 692.01 777.84 695.05 777.84 698.21 777.84 698.77 780.2 698.77 784.12z" fill="#FFFFFF"/>
    <path d="M721.29 794L721.29 789.84 718.01 789.48 718.01 779.32C719.41 778.8 720.73 778.64 721.93 778.64 722.77 778.64 723.45 778.88 723.61 779.76 723.73 780.44 723.73 781.76 723.73 783.68L723.73 794 733.41 794 733.41 789.84 730.05 789.48 730.05 782.36C730.05 780.12 730.05 778.28 729.89 777.12 729.57 774.72 728.41 773.32 725.33 773.32 723.45 773.32 720.21 774.44 718.01 776.04L717.89 773.28C715.17 773.28 710.89 773.96 708.33 774.8L708.33 778.88 711.77 778.88 711.77 789.48 708.49 789.84 708.49 794z" fill="#FFFFFF"/>
    <path d="M754.25 794C754.45 793.08 754.73 790.56 754.73 785.28L750.33 785.28 749.57 789.48 743.37 789.48C745.45 787.32 747.21 785.44 753.89 777.96L753.89 773.88 736.13 773.88C735.85 774.84 735.61 777.04 735.61 782.12L739.85 782.12 740.65 778.24 745.41 778.24C743.17 780.64 741.33 782.88 735.21 789.96L735.21 794z" fill="#FFFFFF"/>
    <path d="M766.29 767.92C766.29 765.4 764.89 764.6 763.01 764.6 761.17 764.6 759.61 765.52 759.61 767.92 759.61 770.32 761.17 771.2 762.89 771.2 764.89 771.2 766.29 770.16 766.29 767.92zM770.17 794L770.17 789.84 766.89 789.48 766.89 773.28C763.73 773.28 760.21 773.88 757.21 774.76L757.21 778.88 760.65 778.88 760.65 789.48 757.37 789.84 757.37 794z" fill="#FFFFFF"/>
    <path d="M786.97 794L793.21 778.36 795.65 778 795.65 773.88 784.21 773.88 784.21 778 786.65 778.28C785.29 782.24 784.29 785.48 783.49 788.16 782.57 785.36 781.69 782.28 780.13 778.28L782.65 778 782.65 773.88 770.93 773.88 770.93 778 773.37 778.36 779.61 794z" fill="#FFFFFF"/>
    <path d="M810.29 794L810.29 789.84 807.01 789.48 807.01 779.32C808.41 778.8 809.73 778.64 810.93 778.64 811.77 778.64 812.45 778.88 812.61 779.76 812.73 780.44 812.73 781.76 812.73 783.68L812.73 794 822.41 794 822.41 789.84 819.05 789.48 819.05 782.36C819.05 780.12 819.05 778.28 818.89 777.12 818.57 774.72 817.41 773.32 814.33 773.32 812.45 773.32 809.21 774.44 807.01 776.04L806.89 773.28C804.17 773.28 799.89 773.96 797.33 774.8L797.33 778.88 800.77 778.88 800.77 789.48 797.49 789.84 797.49 794z" fill="#FFFFFF"/>
    <path d="M831.25 771.6L837.85 765.2 831.53 765.2 826.73 771.6zM837.05 794L837.05 789.84 833.77 789.48 833.77 773.28C830.61 773.28 827.09 773.88 824.09 774.76L824.09 778.88 827.53 778.88 827.53 789.48 824.25 789.84 824.25 794z" fill="#FFFFFF"/>
    <path d="M871.49 789.64L868.29 789.64 868.29 764.32C865.05 764.36 861.45 765.04 858.21 765.92L858.21 770 861.93 770 861.93 773.96C860.97 773.6 859.37 773.44 858.33 773.44 853.33 773.44 848.73 776.44 848.73 784.4 848.73 790.72 852.09 794.4 856.57 794.4 858.77 794.4 860.65 793.52 862.25 792.04L862.61 794.36C865.61 794.36 868.97 794.08 871.49 793.56zM861.93 788.4C860.65 789.08 859.53 789.4 858.73 789.4 856.77 789.4 855.25 788.36 855.25 784.08 855.25 779.48 857.29 778.64 859.33 778.64 860.05 778.64 860.97 778.72 861.93 778.92z" fill="#FFFFFF"/>
    <path d="M893.01 791.96L891.01 788.04C889.05 789.12 886.97 789.6 884.65 789.6 882.05 789.6 880.65 788.28 880.21 786.36 880.13 785.96 880.13 785.28 880.13 785.12L892.61 785.12C892.69 784.44 892.73 783.64 892.73 783.36 892.73 778.2 891.33 773.2 883.89 773.2 878.45 773.2 873.69 776.84 873.69 784.28 873.69 790.44 877.17 794.64 883.09 794.64 886.81 794.64 889.85 793.8 893.01 791.96zM886.65 780.92L880.33 780.92C880.61 779.04 881.93 777.68 883.77 777.68 885.81 777.68 886.69 778.68 886.69 780.16 886.69 780.4 886.69 780.64 886.65 780.92z" fill="#FFFFFF"/>
    <path d="M896.01 786.68C896.01 790.56 896.17 792.48 896.49 793.52 898.85 794.24 901.73 794.64 904.45 794.64 911.05 794.64 913.53 791.12 913.53 787.88 913.53 785.04 912.53 782.6 908.13 781.6L904.81 780.84C903.69 780.6 903.29 779.96 903.29 779.24 903.29 778.36 903.97 777.6 905.61 777.6 906.21 777.6 907.17 777.64 908.17 777.88L908.65 780.68 913.01 780.68C913.01 778.28 912.93 775.04 912.49 773.92 910.81 773.48 908.13 773.2 905.85 773.2 899.49 773.2 896.69 776.28 896.69 779.6 896.69 783.52 898.73 785.16 901.97 786L905.13 786.8C906.13 787.08 906.65 787.48 906.65 788.44 906.65 789.2 906.21 790.04 904.37 790.04 903.25 790.04 901.81 789.8 901.01 789.44L900.37 786.68z" fill="#FFFFFF"/>
    <path d="M925.49 767.92C925.49 765.4 924.09 764.6 922.21 764.6 920.37 764.6 918.81 765.52 918.81 767.92 918.81 770.32 920.37 771.2 922.09 771.2 924.09 771.2 925.49 770.16 925.49 767.92zM929.37 794L929.37 789.84 926.09 789.48 926.09 773.28C922.93 773.28 919.41 773.88 916.41 774.76L916.41 778.88 919.85 778.88 919.85 789.48 916.57 789.84 916.57 794z" fill="#FFFFFF"/>
    <path d="M937.69 787.6C938.49 787.84 939.49 787.96 940.49 787.96 945.41 787.96 949.21 785.56 949.21 780.84 949.21 780.24 949.13 779.32 948.85 778.68L951.77 778.68 951.77 774.16 945.61 774.16C944.45 773.56 942.81 773.2 940.65 773.2 934.21 773.2 931.65 776.88 931.65 780.8 931.65 783.2 932.69 785.48 934.57 786.48 932.73 788.48 932.05 789.76 932.05 791.04 932.05 792.64 932.93 793.8 934.61 794.32 931.89 795.52 930.65 797.12 930.65 798.92 930.65 801.48 932.53 804.4 939.81 804.4 947.41 804.4 951.37 800.92 951.37 796.44 951.37 793.04 949.77 790.92 945.17 790.4L938.49 789.64C937.49 789.52 937.21 789.08 937.21 788.64 937.21 788.36 937.33 787.96 937.69 787.6zM937.89 795.16L941.29 795.36C943.89 795.52 944.53 796.4 944.53 797.68 944.53 798.72 943.29 799.88 940.89 799.88 937.57 799.88 936.61 798.8 936.61 797.72 936.61 796.88 937.01 796.04 937.89 795.16zM943.33 780.68C943.33 782.68 942.33 783.72 940.53 783.72 938.85 783.72 937.93 782.76 937.93 780.72 937.93 779.12 938.61 777.6 940.61 777.6 942.69 777.6 943.33 779.04 943.33 780.68z" fill="#FFFFFF"/>
    <path d="M966.81 794L966.81 789.84 963.53 789.48 963.53 779.32C964.93 778.8 966.25 778.64 967.45 778.64 968.29 778.64 968.97 778.88 969.13 779.76 969.25 780.44 969.25 781.76 969.25 783.68L969.25 794 978.93 794 978.93 789.84 975.57 789.48 975.57 782.36C975.57 780.12 975.57 778.28 975.41 777.12 975.09 774.72 973.93 773.32 970.85 773.32 968.97 773.32 965.73 774.44 963.53 776.04L963.41 773.28C960.69 773.28 956.41 773.96 953.85 774.8L953.85 778.88 957.29 778.88 957.29 789.48 954.01 789.84 954.01 794z" fill="#FFFFFF"/>
    <path d="M1153.37 783.84L1153.37 779.68 1149.37 779.32 1149.37 774.2C1150.33 774.32 1151.29 774.36 1152.29 774.36 1158.69 774.36 1162.77 770.76 1162.77 763.16 1162.77 756.56 1160.33 753.24 1156.17 753.24 1153.57 753.24 1150.77 754.64 1149.37 755.8L1149.25 753.2C1146.13 753.32 1142.85 753.8 1139.69 754.72L1139.69 758.8 1143.17 758.8 1143.17 779.32 1139.89 779.68 1139.89 783.84zM1149.37 769.24L1149.37 759.2C1150.57 758.8 1151.61 758.56 1152.85 758.56 1154.77 758.56 1156.01 760.08 1156.01 763.76 1156.01 768.04 1154.37 769.52 1151.93 769.52 1150.97 769.52 1150.17 769.4 1149.37 769.24z" fill="#FFFFFF"/>
    <path d="M1179.17 774L1179.17 769.84 1175.29 769.44 1175.29 759.8C1176.69 759.12 1178.49 758.84 1180.01 758.84 1181.13 758.84 1181.93 758.92 1182.29 758.96L1182.29 753.44C1181.93 753.4 1181.37 753.36 1181.01 753.36 1178.53 753.36 1176.37 754.68 1175.21 756.68L1175.21 753.28C1172.09 753.32 1168.53 753.84 1165.61 754.8L1165.61 758.88 1169.05 758.88 1169.05 769.48 1165.77 769.84 1165.77 774zM1176.53 745.52L1173.77 748.64 1171.09 745.52 1166.65 745.52 1171.29 751.6 1176.17 751.6 1180.93 745.52z" fill="#FFFFFF"/>
    <path d="M1193.01 747.92C1193.01 745.4 1191.61 744.6 1189.73 744.6 1187.89 744.6 1186.33 745.52 1186.33 747.92 1186.33 750.32 1187.89 751.2 1189.61 751.2 1191.61 751.2 1193.01 750.16 1193.01 747.92zM1196.89 774L1196.89 769.84 1193.61 769.48 1193.61 753.28C1190.45 753.28 1186.93 753.88 1183.93 754.76L1183.93 758.88 1187.37 758.88 1187.37 769.48 1184.09 769.84 1184.09 774z" fill="#FFFFFF"/>
    <path d="M1217.89 774C1218.09 773.08 1218.37 770.56 1218.37 765.28L1213.97 765.28 1213.21 769.48 1207.01 769.48C1209.09 767.32 1210.85 765.44 1217.53 757.96L1217.53 753.88 1199.77 753.88C1199.49 754.84 1199.25 757.04 1199.25 762.12L1203.49 762.12 1204.29 758.24 1209.05 758.24C1206.81 760.64 1204.97 762.88 1198.85 769.96L1198.85 774z" fill="#FFFFFF"/>
    <path d="M1233.45 783.84L1233.45 779.68 1229.45 779.32 1229.45 774.2C1230.41 774.32 1231.37 774.36 1232.37 774.36 1238.77 774.36 1242.85 770.76 1242.85 763.16 1242.85 756.56 1240.41 753.24 1236.25 753.24 1233.65 753.24 1230.85 754.64 1229.45 755.8L1229.33 753.2C1226.21 753.32 1222.93 753.8 1219.77 754.72L1219.77 758.8 1223.25 758.8 1223.25 779.32 1219.97 779.68 1219.97 783.84zM1229.45 769.24L1229.45 759.2C1230.65 758.8 1231.69 758.56 1232.93 758.56 1234.85 758.56 1236.09 760.08 1236.09 763.76 1236.09 768.04 1234.45 769.52 1232.01 769.52 1231.05 769.52 1230.25 769.4 1229.45 769.24z" fill="#FFFFFF"/>
    <path d="M1269.33 773.56L1269.33 769.64 1266.13 769.64 1266.13 753.48C1262.93 753.48 1259.33 754 1256.45 754.68L1256.45 758.6 1259.77 758.6 1259.77 768.56C1258.41 769.04 1257.25 769.28 1256.09 769.28 1255.01 769.28 1254.33 768.68 1254.17 767.76 1254.05 767.08 1254.05 766.08 1254.05 764.2L1254.05 753.48C1251.13 753.48 1247.53 753.96 1244.49 754.64L1244.49 758.6 1247.73 758.6 1247.73 765.52C1247.73 767.4 1247.77 769.12 1247.89 770.28 1248.21 772.88 1249.73 774.56 1253.21 774.56 1255.49 774.56 1257.89 773.56 1260.05 771.88L1260.45 774.36C1263.53 774.36 1267.57 773.96 1269.33 773.56zM1260.25 748.52C1260.25 746.32 1258.89 744.88 1256.57 744.88 1254.41 744.88 1252.77 746.4 1252.77 748.6 1252.77 750.64 1254.33 752.32 1256.53 752.32 1258.77 752.32 1260.25 750.52 1260.25 748.52zM1258.53 748.56C1258.53 749.76 1257.81 750.68 1256.61 750.68 1255.25 750.68 1254.57 749.76 1254.57 748.6 1254.57 747.36 1255.33 746.48 1256.53 746.48 1257.69 746.48 1258.53 747.28 1258.53 748.56z" fill="#FFFFFF"/>
    <path d="M1271.49 766.68C1271.49 770.56 1271.65 772.48 1271.97 773.52 1274.33 774.24 1277.21 774.64 1279.93 774.64 1286.53 774.64 1289.01 771.12 1289.01 767.88 1289.01 765.04 1288.01 762.6 1283.61 761.6L1280.29 760.84C1279.17 760.6 1278.77 759.96 1278.77 759.24 1278.77 758.36 1279.45 757.6 1281.09 757.6 1281.69 757.6 1282.65 757.64 1283.65 757.88L1284.13 760.68 1288.49 760.68C1288.49 758.28 1288.41 755.04 1287.97 753.92 1286.29 753.48 1283.61 753.2 1281.33 753.2 1274.97 753.2 1272.17 756.28 1272.17 759.6 1272.17 763.52 1274.21 765.16 1277.45 766L1280.61 766.8C1281.61 767.08 1282.13 767.48 1282.13 768.44 1282.13 769.2 1281.69 770.04 1279.85 770.04 1278.73 770.04 1277.29 769.8 1276.49 769.44L1275.85 766.68z" fill="#FFFFFF"/>
    <path d="M1313.21 763.4C1313.21 756.84 1310.09 753.2 1303.29 753.2 1295.77 753.2 1292.13 757.04 1292.13 764.32 1292.13 771 1295.85 774.64 1302.33 774.64 1309.53 774.64 1313.21 770.68 1313.21 763.4zM1306.49 764.12C1306.49 768.72 1305.01 769.96 1302.53 769.96 1300.21 769.96 1298.69 768.76 1298.69 763.68 1298.69 760.08 1299.73 757.84 1302.77 757.84 1305.93 757.84 1306.49 760.2 1306.49 764.12z" fill="#FFFFFF"/>
    <path d="M1318.01 773.28C1320.73 774.08 1323.89 774.56 1327.13 774.56 1333.57 774.56 1337.61 770.88 1337.61 763.28 1337.61 756.68 1335.13 753.4 1330.77 753.4 1328.29 753.4 1325.69 754.72 1324.17 755.92L1324.17 744.36C1321.53 744.36 1317.61 745.12 1314.53 745.92L1314.53 750 1318.01 750zM1324.21 769.48L1324.21 759.32C1325.41 758.92 1326.45 758.64 1327.73 758.64 1329.45 758.64 1330.85 760.24 1330.85 763.88 1330.85 768.16 1329.25 769.72 1326.77 769.72 1325.81 769.72 1325.05 769.64 1324.21 769.48z" fill="#FFFFFF"/>
    <path d="M1360.45 771.96L1358.45 768.04C1356.49 769.12 1354.41 769.6 1352.09 769.6 1349.49 769.6 1348.09 768.28 1347.65 766.36 1347.57 765.96 1347.57 765.28 1347.57 765.12L1360.05 765.12C1360.13 764.44 1360.17 763.64 1360.17 763.36 1360.17 758.2 1358.77 753.2 1351.33 753.2 1345.89 753.2 1341.13 756.84 1341.13 764.28 1341.13 770.44 1344.61 774.64 1350.53 774.64 1354.25 774.64 1357.29 773.8 1360.45 771.96zM1354.09 760.92L1347.77 760.92C1348.05 759.04 1349.37 757.68 1351.21 757.68 1353.25 757.68 1354.13 758.68 1354.13 760.16 1354.13 760.4 1354.13 760.64 1354.09 760.92z" fill="#FFFFFF"/>
    <path d="M1375.97 774L1375.97 769.84 1372.69 769.48 1372.69 759.32C1374.09 758.8 1375.41 758.64 1376.61 758.64 1377.45 758.64 1378.13 758.88 1378.29 759.76 1378.41 760.44 1378.41 761.76 1378.41 763.68L1378.41 774 1388.09 774 1388.09 769.84 1384.73 769.48 1384.73 762.36C1384.73 760.12 1384.73 758.28 1384.57 757.12 1384.25 754.72 1383.09 753.32 1380.01 753.32 1378.13 753.32 1374.89 754.44 1372.69 756.04L1372.57 753.28C1369.85 753.28 1365.57 753.96 1363.01 754.8L1363.01 758.88 1366.45 758.88 1366.45 769.48 1363.17 769.84 1363.17 774z" fill="#FFFFFF"/>
    <path d="M1396.93 751.6L1403.53 745.2 1397.21 745.2 1392.41 751.6zM1402.73 774L1402.73 769.84 1399.45 769.48 1399.45 753.28C1396.29 753.28 1392.77 753.88 1389.77 754.76L1389.77 758.88 1393.21 758.88 1393.21 769.48 1389.93 769.84 1389.93 774z" fill="#FFFFFF"/>
    <path d="M305.63 148L305.63 143.84 301.75 143.44 301.75 133.8C303.15 133.12 304.95 132.84 306.47 132.84 307.59 132.84 308.39 132.92 308.75 132.96L308.75 127.44C308.39 127.4 307.83 127.36 307.47 127.36 304.99 127.36 302.83 128.68 301.67 130.68L301.67 127.28C298.55 127.32 294.99 127.84 292.07 128.8L292.07 132.88 295.51 132.88 295.51 143.48 292.23 143.84 292.23 148z" fill="#FFFFFF"/>
    <path d="M330.83 137.4C330.83 130.84 327.71 127.2 320.91 127.2 313.39 127.2 309.75 131.04 309.75 138.32 309.75 145 313.47 148.64 319.95 148.64 327.15 148.64 330.83 144.68 330.83 137.4zM324.11 138.12C324.11 142.72 322.63 143.96 320.15 143.96 317.83 143.96 316.31 142.76 316.31 137.68 316.31 134.08 317.35 131.84 320.39 131.84 323.55 131.84 324.11 134.2 324.11 138.12z" fill="#FFFFFF"/>
    <path d="M352.83 148C353.03 147.08 353.31 144.56 353.31 139.28L348.91 139.28 348.15 143.48 341.95 143.48C344.03 141.32 345.79 139.44 352.47 131.96L352.47 127.88 334.71 127.88C334.43 128.84 334.19 131.04 334.19 136.12L338.43 136.12 339.23 132.24 343.99 132.24C341.75 134.64 339.91 136.88 333.79 143.96L333.79 148z" fill="#FFFFFF"/>
    <path d="M356.23 140.68C356.23 144.56 356.39 146.48 356.71 147.52 359.07 148.24 361.95 148.64 364.67 148.64 371.27 148.64 373.75 145.12 373.75 141.88 373.75 139.04 372.75 136.6 368.35 135.6L365.03 134.84C363.91 134.6 363.51 133.96 363.51 133.24 363.51 132.36 364.19 131.6 365.83 131.6 366.43 131.6 367.39 131.64 368.39 131.88L368.87 134.68 373.23 134.68C373.23 132.28 373.15 129.04 372.71 127.92 371.03 127.48 368.35 127.2 366.07 127.2 359.71 127.2 356.91 130.28 356.91 133.6 356.91 137.52 358.95 139.16 362.19 140L365.35 140.8C366.35 141.08 366.87 141.48 366.87 142.44 366.87 143.2 366.43 144.04 364.59 144.04 363.47 144.04 362.03 143.8 361.23 143.44L360.59 140.68zM368.11 119.52L365.35 122.64 362.67 119.52 358.23 119.52 362.87 125.6 367.75 125.6 372.51 119.52z" fill="#FFFFFF"/>
    <path d="M385.71 121.92C385.71 119.4 384.31 118.6 382.43 118.6 380.59 118.6 379.03 119.52 379.03 121.92 379.03 124.32 380.59 125.2 382.31 125.2 384.31 125.2 385.71 124.16 385.71 121.92zM389.59 148L389.59 143.84 386.31 143.48 386.31 127.28C383.15 127.28 379.63 127.88 376.63 128.76L376.63 132.88 380.07 132.88 380.07 143.48 376.79 143.84 376.79 148z" fill="#FFFFFF"/>
    <path d="M404.99 148L404.99 143.84 401.11 143.44 401.11 133.8C402.51 133.12 404.31 132.84 405.83 132.84 406.95 132.84 407.75 132.92 408.11 132.96L408.11 127.44C407.75 127.4 407.19 127.36 406.83 127.36 404.35 127.36 402.19 128.68 401.03 130.68L401.03 127.28C397.91 127.32 394.35 127.84 391.43 128.8L391.43 132.88 394.87 132.88 394.87 143.48 391.59 143.84 391.59 148zM402.35 119.52L399.59 122.64 396.91 119.52 392.47 119.52 397.11 125.6 401.99 125.6 406.75 119.52z" fill="#FFFFFF"/>
    <path d="M430.19 137.4C430.19 130.84 427.07 127.2 420.27 127.2 412.75 127.2 409.11 131.04 409.11 138.32 409.11 145 412.83 148.64 419.31 148.64 426.51 148.64 430.19 144.68 430.19 137.4zM423.47 138.12C423.47 142.72 421.99 143.96 419.51 143.96 417.19 143.96 415.67 142.76 415.67 137.68 415.67 134.08 416.71 131.84 419.75 131.84 422.91 131.84 423.47 134.2 423.47 138.12z" fill="#FFFFFF"/>
    <path d="M447.19 148L453.43 132.36 455.87 132 455.87 127.88 444.43 127.88 444.43 132 446.87 132.28C445.51 136.24 444.51 139.48 443.71 142.16 442.79 139.36 441.91 136.28 440.35 132.28L442.87 132 442.87 127.88 431.15 127.88 431.15 132 433.59 132.36 439.83 148z" fill="#FFFFFF"/>
    <path d="M477.71 143.44L474.51 143.44 474.51 134.84C474.51 132 474.15 130.36 473.47 129.28 472.59 127.84 470.83 127.2 467.91 127.2 465.51 127.2 460.99 127.88 457.99 128.88L458.87 133.16C461.51 132.52 464.31 132.32 465.71 132.32 467.07 132.32 467.71 132.56 468.07 133.04 468.31 133.44 468.39 134.2 468.39 135L468.39 135.56C465.35 135.68 462.51 135.96 460.23 136.68 457.87 137.4 456.35 139.2 456.35 142.12 456.35 145.32 458.35 148.48 462.95 148.48 464.63 148.48 466.99 147.92 468.75 146.04L469.11 148.36C471.99 148.36 475.63 147.92 477.71 147.36zM468.47 142.68C467.55 143.52 465.99 144.04 464.91 144.04 463.55 144.04 462.79 143.24 462.79 141.96 462.79 141.08 463.23 140.36 464.27 140 465.63 139.52 467.71 139.44 468.47 139.36zM467.11 125.6L473.71 119.2 467.39 119.2 462.59 125.6z" fill="#FFFFFF"/>
    <path d="M492.67 148L492.67 143.84 489.39 143.48 489.39 133.32C490.79 132.8 492.11 132.64 493.31 132.64 494.15 132.64 494.83 132.88 494.99 133.76 495.11 134.44 495.11 135.76 495.11 137.68L495.11 148 504.79 148 504.79 143.84 501.43 143.48 501.43 136.36C501.43 134.12 501.43 132.28 501.27 131.12 500.95 128.72 499.79 127.32 496.71 127.32 494.83 127.32 491.59 128.44 489.39 130.04L489.27 127.28C486.55 127.28 482.27 127.96 479.71 128.8L479.71 132.88 483.15 132.88 483.15 143.48 479.87 143.84 479.87 148z" fill="#FFFFFF"/>
    <path d="M513.63 125.6L520.23 119.2 513.91 119.2 509.11 125.6zM519.43 148L519.43 143.84 516.15 143.48 516.15 127.28C512.99 127.28 509.47 127.88 506.47 128.76L506.47 132.88 509.91 132.88 509.91 143.48 506.63 143.84 506.63 148z" fill="#FFFFFF"/>
    <path d="M372.91 762L372.91 757.84 369.59 757.48 369.59 732.36C366.71 732.36 363.19 733.04 359.91 733.92L359.91 738 363.35 738 363.35 757.48 360.27 757.84 360.27 762z" fill="#FFFFFF"/>
    <path d="M396.43 757.44L393.23 757.44 393.23 748.84C393.23 746 392.87 744.36 392.19 743.28 391.31 741.84 389.55 741.2 386.63 741.2 384.23 741.2 379.71 741.88 376.71 742.88L377.59 747.16C380.23 746.52 383.03 746.32 384.43 746.32 385.79 746.32 386.43 746.56 386.79 747.04 387.03 747.44 387.11 748.2 387.11 749L387.11 749.56C384.07 749.68 381.23 749.96 378.95 750.68 376.59 751.4 375.07 753.2 375.07 756.12 375.07 759.32 377.07 762.48 381.67 762.48 383.35 762.48 385.71 761.92 387.47 760.04L387.83 762.36C390.71 762.36 394.35 761.92 396.43 761.36zM387.19 756.68C386.27 757.52 384.71 758.04 383.63 758.04 382.27 758.04 381.51 757.24 381.51 755.96 381.51 755.08 381.95 754.36 382.99 754 384.35 753.52 386.43 753.44 387.19 753.36z" fill="#FFFFFF"/>
    <path d="M400.91 772.44C406.07 771.04 410.51 768.68 413.15 761.36L418.51 746.36 420.95 746 420.95 741.88 409.63 741.88 409.63 746 412.07 746.28C410.75 750.24 409.91 753.84 409.15 756.52 408.23 753.92 407.19 750.52 405.55 746.28L408.07 746 408.07 741.88 396.51 741.88 396.51 746 398.95 746.36 404.95 762 405.99 762C405.03 764.72 402.31 766.4 398.99 767.36z" fill="#FFFFFF"/>
    <path d="M443.19 751.4C443.19 744.84 440.07 741.2 433.27 741.2 425.75 741.2 422.11 745.04 422.11 752.32 422.11 759 425.83 762.64 432.31 762.64 439.51 762.64 443.19 758.68 443.19 751.4zM436.47 752.12C436.47 756.72 434.99 757.96 432.51 757.96 430.19 757.96 428.67 756.76 428.67 751.68 428.67 748.08 429.71 745.84 432.75 745.84 435.91 745.84 436.47 748.2 436.47 752.12z" fill="#FFFFFF"/>
    <path d="M469.67 761.56L469.67 757.64 466.47 757.64 466.47 741.48C463.27 741.48 459.67 742 456.79 742.68L456.79 746.6 460.11 746.6 460.11 756.56C458.75 757.04 457.59 757.28 456.43 757.28 455.35 757.28 454.67 756.68 454.51 755.76 454.39 755.08 454.39 754.08 454.39 752.2L454.39 741.48C451.47 741.48 447.87 741.96 444.83 742.64L444.83 746.6 448.07 746.6 448.07 753.52C448.07 755.4 448.11 757.12 448.23 758.28 448.55 760.88 450.07 762.56 453.55 762.56 455.83 762.56 458.23 761.56 460.39 759.88L460.79 762.36C463.87 762.36 467.91 761.96 469.67 761.56z" fill="#FFFFFF"/>
    <path d="M485.79 761.48L485.03 756.88C484.07 757.04 482.95 757.08 482.39 757.08 481.51 757.08 480.83 756.88 480.47 756.36 480.03 755.76 479.87 754.92 479.87 753.28L479.87 746.68 484.67 746.68 484.67 741.88 479.87 741.88 479.87 736.48 473.87 736.88C473.71 739.44 473.63 740.56 473.63 741.88 473.11 741.88 471.11 742 469.91 742.28L469.91 746.68 473.55 746.68 473.55 754.64C473.55 757.28 473.95 759.32 474.79 760.44 475.63 761.6 477.35 762.32 479.39 762.32 482.03 762.32 484.31 761.96 485.79 761.48z" fill="#FFFFFF"/>
    <path d="M1225.01 283.51L1225.01 279.35 1221.01 278.99 1221.01 273.87C1221.97 273.99 1222.93 274.03 1223.93 274.03 1230.33 274.03 1234.41 270.43 1234.41 262.83 1234.41 256.23 1231.97 252.91 1227.81 252.91 1225.21 252.91 1222.41 254.31 1221.01 255.47L1220.89 252.87C1217.77 252.99 1214.49 253.47 1211.33 254.39L1211.33 258.47 1214.81 258.47 1214.81 278.99 1211.53 279.35 1211.53 283.51zM1221.01 268.91L1221.01 258.87C1222.21 258.47 1223.25 258.23 1224.49 258.23 1226.41 258.23 1227.65 259.75 1227.65 263.43 1227.65 267.71 1226.01 269.19 1223.57 269.19 1222.61 269.19 1221.81 269.07 1221.01 268.91z" fill="#FFFFFF"/>
    <path d="M1250.81 273.67L1250.81 269.51 1246.93 269.11 1246.93 259.47C1248.33 258.79 1250.13 258.51 1251.65 258.51 1252.77 258.51 1253.57 258.59 1253.93 258.63L1253.93 253.11C1253.57 253.07 1253.01 253.03 1252.65 253.03 1250.17 253.03 1248.01 254.35 1246.85 256.35L1246.85 252.95C1243.73 252.99 1240.17 253.51 1237.25 254.47L1237.25 258.55 1240.69 258.55 1240.69 269.15 1237.41 269.51 1237.41 273.67zM1248.17 245.19L1245.41 248.31 1242.73 245.19 1238.29 245.19 1242.93 251.27 1247.81 251.27 1252.57 245.19z" fill="#FFFFFF"/>
    <path d="M1262.73 251.27L1269.33 244.87 1263.01 244.87 1258.21 251.27zM1268.53 273.67L1268.53 269.51 1265.25 269.15 1265.25 252.95C1262.09 252.95 1258.57 253.55 1255.57 254.43L1255.57 258.55 1259.01 258.55 1259.01 269.15 1255.73 269.51 1255.73 273.67z" fill="#FFFFFF"/>
    <path d="M1270.81 266.35C1270.81 270.23 1270.97 272.15 1271.29 273.19 1273.65 273.91 1276.53 274.31 1279.25 274.31 1285.85 274.31 1288.33 270.79 1288.33 267.55 1288.33 264.71 1287.33 262.27 1282.93 261.27L1279.61 260.51C1278.49 260.27 1278.09 259.63 1278.09 258.91 1278.09 258.03 1278.77 257.27 1280.41 257.27 1281.01 257.27 1281.97 257.31 1282.97 257.55L1283.45 260.35 1287.81 260.35C1287.81 257.95 1287.73 254.71 1287.29 253.59 1285.61 253.15 1282.93 252.87 1280.65 252.87 1274.29 252.87 1271.49 255.95 1271.49 259.27 1271.49 263.19 1273.53 264.83 1276.77 265.67L1279.93 266.47C1280.93 266.75 1281.45 267.15 1281.45 268.11 1281.45 268.87 1281.01 269.71 1279.17 269.71 1278.05 269.71 1276.61 269.47 1275.81 269.11L1275.17 266.35z" fill="#FFFFFF"/>
    <path d="M1305.69 273.15L1304.93 268.55C1303.97 268.71 1302.85 268.75 1302.29 268.75 1301.41 268.75 1300.73 268.55 1300.37 268.03 1299.93 267.43 1299.77 266.59 1299.77 264.95L1299.77 258.35 1304.57 258.35 1304.57 253.55 1299.77 253.55 1299.77 248.15 1293.77 248.55C1293.61 251.11 1293.53 252.23 1293.53 253.55 1293.01 253.55 1291.01 253.67 1289.81 253.95L1289.81 258.35 1293.45 258.35 1293.45 266.31C1293.45 268.95 1293.85 270.99 1294.69 272.11 1295.53 273.27 1297.25 273.99 1299.29 273.99 1301.93 273.99 1304.21 273.63 1305.69 273.15z" fill="#FFFFFF"/>
    <path d="M1330.81 273.23L1330.81 269.31 1327.61 269.31 1327.61 253.15C1324.41 253.15 1320.81 253.67 1317.93 254.35L1317.93 258.27 1321.25 258.27 1321.25 268.23C1319.89 268.71 1318.73 268.95 1317.57 268.95 1316.49 268.95 1315.81 268.35 1315.65 267.43 1315.53 266.75 1315.53 265.75 1315.53 263.87L1315.53 253.15C1312.61 253.15 1309.01 253.63 1305.97 254.31L1305.97 258.27 1309.21 258.27 1309.21 265.19C1309.21 267.07 1309.25 268.79 1309.37 269.95 1309.69 272.55 1311.21 274.23 1314.69 274.23 1316.97 274.23 1319.37 273.23 1321.53 271.55L1321.93 274.03C1325.01 274.03 1329.05 273.63 1330.81 273.23z" fill="#FFFFFF"/>
    <path d="M1345.13 283.51L1345.13 279.35 1341.13 278.99 1341.13 273.87C1342.09 273.99 1343.05 274.03 1344.05 274.03 1350.45 274.03 1354.53 270.43 1354.53 262.83 1354.53 256.23 1352.09 252.91 1347.93 252.91 1345.33 252.91 1342.53 254.31 1341.13 255.47L1341.01 252.87C1337.89 252.99 1334.61 253.47 1331.45 254.39L1331.45 258.47 1334.93 258.47 1334.93 278.99 1331.65 279.35 1331.65 283.51zM1341.13 268.91L1341.13 258.87C1342.33 258.47 1343.37 258.23 1344.61 258.23 1346.53 258.23 1347.77 259.75 1347.77 263.43 1347.77 267.71 1346.13 269.19 1343.69 269.19 1342.73 269.19 1341.93 269.07 1341.13 268.91z" fill="#FFFFFF"/>
    <path d="M1370.33 273.67L1370.33 269.51 1367.05 269.15 1367.05 258.99C1368.45 258.47 1369.77 258.31 1370.97 258.31 1371.81 258.31 1372.49 258.55 1372.65 259.43 1372.77 260.11 1372.77 261.43 1372.77 263.35L1372.77 273.67 1382.45 273.67 1382.45 269.51 1379.09 269.15 1379.09 262.03C1379.09 259.79 1379.09 257.95 1378.93 256.79 1378.61 254.39 1377.45 252.99 1374.37 252.99 1372.49 252.99 1369.25 254.11 1367.05 255.71L1366.93 252.95C1364.21 252.95 1359.93 253.63 1357.37 254.47L1357.37 258.55 1360.81 258.55 1360.81 269.15 1357.53 269.51 1357.53 273.67z" fill="#FFFFFF"/>
    <path d="M1405.29 263.07C1405.29 256.51 1402.17 252.87 1395.37 252.87 1387.85 252.87 1384.21 256.71 1384.21 263.99 1384.21 270.67 1387.93 274.31 1394.41 274.31 1401.61 274.31 1405.29 270.35 1405.29 263.07zM1398.57 263.79C1398.57 268.39 1397.09 269.63 1394.61 269.63 1392.29 269.63 1390.77 268.43 1390.77 263.35 1390.77 259.75 1391.81 257.51 1394.85 257.51 1398.01 257.51 1398.57 259.87 1398.57 263.79z" fill="#FFFFFF"/>
    <path d="M1408.57 266.35C1408.57 270.23 1408.73 272.15 1409.05 273.19 1411.41 273.91 1414.29 274.31 1417.01 274.31 1423.61 274.31 1426.09 270.79 1426.09 267.55 1426.09 264.71 1425.09 262.27 1420.69 261.27L1417.37 260.51C1416.25 260.27 1415.85 259.63 1415.85 258.91 1415.85 258.03 1416.53 257.27 1418.17 257.27 1418.77 257.27 1419.73 257.31 1420.73 257.55L1421.21 260.35 1425.57 260.35C1425.57 257.95 1425.49 254.71 1425.05 253.59 1423.37 253.15 1420.69 252.87 1418.41 252.87 1412.05 252.87 1409.25 255.95 1409.25 259.27 1409.25 263.19 1411.29 264.83 1414.53 265.67L1417.69 266.47C1418.69 266.75 1419.21 267.15 1419.21 268.11 1419.21 268.87 1418.77 269.71 1416.93 269.71 1415.81 269.71 1414.37 269.47 1413.57 269.11L1412.93 266.35z" fill="#FFFFFF"/>
    <path d="M1443.45 273.15L1442.69 268.55C1441.73 268.71 1440.61 268.75 1440.05 268.75 1439.17 268.75 1438.49 268.55 1438.13 268.03 1437.69 267.43 1437.53 266.59 1437.53 264.95L1437.53 258.35 1442.33 258.35 1442.33 253.55 1437.53 253.55 1437.53 248.15 1431.53 248.55C1431.37 251.11 1431.29 252.23 1431.29 253.55 1430.77 253.55 1428.77 253.67 1427.57 253.95L1427.57 258.35 1431.21 258.35 1431.21 266.31C1431.21 268.95 1431.61 270.99 1432.45 272.11 1433.29 273.27 1435.01 273.99 1437.05 273.99 1439.69 273.99 1441.97 273.63 1443.45 273.15z" fill="#FFFFFF"/>
    <path d="M622.67 131.84L622.67 127.68 618.67 127.32 618.67 122.2C619.63 122.32 620.59 122.36 621.59 122.36 627.99 122.36 632.07 118.76 632.07 111.16 632.07 104.56 629.63 101.24 625.47 101.24 622.87 101.24 620.07 102.64 618.67 103.8L618.55 101.2C615.43 101.32 612.15 101.8 608.99 102.72L608.99 106.8 612.47 106.8 612.47 127.32 609.19 127.68 609.19 131.84zM618.67 117.24L618.67 107.2C619.87 106.8 620.91 106.56 622.15 106.56 624.07 106.56 625.31 108.08 625.31 111.76 625.31 116.04 623.67 117.52 621.23 117.52 620.27 117.52 619.47 117.4 618.67 117.24z" fill="#FFFFFF"/>
    <path d="M648.47 122L648.47 117.84 644.59 117.44 644.59 107.8C645.99 107.12 647.79 106.84 649.31 106.84 650.43 106.84 651.23 106.92 651.59 106.96L651.59 101.44C651.23 101.4 650.67 101.36 650.31 101.36 647.83 101.36 645.67 102.68 644.51 104.68L644.51 101.28C641.39 101.32 637.83 101.84 634.91 102.8L634.91 106.88 638.35 106.88 638.35 117.48 635.07 117.84 635.07 122zM645.83 93.52L643.07 96.64 640.39 93.52 635.95 93.52 640.59 99.6 645.47 99.6 650.23 93.52z" fill="#FFFFFF"/>
    <path d="M662.31 95.92C662.31 93.4 660.91 92.6 659.03 92.6 657.19 92.6 655.63 93.52 655.63 95.92 655.63 98.32 657.19 99.2 658.91 99.2 660.91 99.2 662.31 98.16 662.31 95.92zM666.19 122L666.19 117.84 662.91 117.48 662.91 101.28C659.75 101.28 656.23 101.88 653.23 102.76L653.23 106.88 656.67 106.88 656.67 117.48 653.39 117.84 653.39 122z" fill="#FFFFFF"/>
    <path d="M687.19 122C687.39 121.08 687.67 118.56 687.67 113.28L683.27 113.28 682.51 117.48 676.31 117.48C678.39 115.32 680.15 113.44 686.83 105.96L686.83 101.88 669.07 101.88C668.79 102.84 668.55 105.04 668.55 110.12L672.79 110.12 673.59 106.24 678.35 106.24C676.11 108.64 674.27 110.88 668.15 117.96L668.15 122z" fill="#FFFFFF"/>
    <path d="M702.75 131.84L702.75 127.68 698.75 127.32 698.75 122.2C699.71 122.32 700.67 122.36 701.67 122.36 708.07 122.36 712.15 118.76 712.15 111.16 712.15 104.56 709.71 101.24 705.55 101.24 702.95 101.24 700.15 102.64 698.75 103.8L698.63 101.2C695.51 101.32 692.23 101.8 689.07 102.72L689.07 106.8 692.55 106.8 692.55 127.32 689.27 127.68 689.27 131.84zM698.75 117.24L698.75 107.2C699.95 106.8 700.99 106.56 702.23 106.56 704.15 106.56 705.39 108.08 705.39 111.76 705.39 116.04 703.75 117.52 701.31 117.52 700.35 117.52 699.55 117.4 698.75 117.24z" fill="#FFFFFF"/>
    <path d="M738.63 121.56L738.63 117.64 735.43 117.64 735.43 101.48C732.23 101.48 728.63 102 725.75 102.68L725.75 106.6 729.07 106.6 729.07 116.56C727.71 117.04 726.55 117.28 725.39 117.28 724.31 117.28 723.63 116.68 723.47 115.76 723.35 115.08 723.35 114.08 723.35 112.2L723.35 101.48C720.43 101.48 716.83 101.96 713.79 102.64L713.79 106.6 717.03 106.6 717.03 113.52C717.03 115.4 717.07 117.12 717.19 118.28 717.51 120.88 719.03 122.56 722.51 122.56 724.79 122.56 727.19 121.56 729.35 119.88L729.75 122.36C732.83 122.36 736.87 121.96 738.63 121.56zM729.55 96.52C729.55 94.32 728.19 92.88 725.87 92.88 723.71 92.88 722.07 94.4 722.07 96.6 722.07 98.64 723.63 100.32 725.83 100.32 728.07 100.32 729.55 98.52 729.55 96.52zM727.83 96.56C727.83 97.76 727.11 98.68 725.91 98.68 724.55 98.68 723.87 97.76 723.87 96.6 723.87 95.36 724.63 94.48 725.83 94.48 726.99 94.48 727.83 95.28 727.83 96.56z" fill="#FFFFFF"/>
    <path d="M740.79 114.68C740.79 118.56 740.95 120.48 741.27 121.52 743.63 122.24 746.51 122.64 749.23 122.64 755.83 122.64 758.31 119.12 758.31 115.88 758.31 113.04 757.31 110.6 752.91 109.6L749.59 108.84C748.47 108.6 748.07 107.96 748.07 107.24 748.07 106.36 748.75 105.6 750.39 105.6 750.99 105.6 751.95 105.64 752.95 105.88L753.43 108.68 757.79 108.68C757.79 106.28 757.71 103.04 757.27 101.92 755.59 101.48 752.91 101.2 750.63 101.2 744.27 101.2 741.47 104.28 741.47 107.6 741.47 111.52 743.51 113.16 746.75 114L749.91 114.8C750.91 115.08 751.43 115.48 751.43 116.44 751.43 117.2 750.99 118.04 749.15 118.04 748.03 118.04 746.59 117.8 745.79 117.44L745.15 114.68z" fill="#FFFFFF"/>
    <path d="M782.51 111.4C782.51 104.84 779.39 101.2 772.59 101.2 765.07 101.2 761.43 105.04 761.43 112.32 761.43 119 765.15 122.64 771.63 122.64 778.83 122.64 782.51 118.68 782.51 111.4zM775.79 112.12C775.79 116.72 774.31 117.96 771.83 117.96 769.51 117.96 767.99 116.76 767.99 111.68 767.99 108.08 769.03 105.84 772.07 105.84 775.23 105.84 775.79 108.2 775.79 112.12z" fill="#FFFFFF"/>
    <path d="M787.31 121.28C790.03 122.08 793.19 122.56 796.43 122.56 802.87 122.56 806.91 118.88 806.91 111.28 806.91 104.68 804.43 101.4 800.07 101.4 797.59 101.4 794.99 102.72 793.47 103.92L793.47 92.36C790.83 92.36 786.91 93.12 783.83 93.92L783.83 98 787.31 98zM793.51 117.48L793.51 107.32C794.71 106.92 795.75 106.64 797.03 106.64 798.75 106.64 800.15 108.24 800.15 111.88 800.15 116.16 798.55 117.72 796.07 117.72 795.11 117.72 794.35 117.64 793.51 117.48z" fill="#FFFFFF"/>
    <path d="M829.75 119.96L827.75 116.04C825.79 117.12 823.71 117.6 821.39 117.6 818.79 117.6 817.39 116.28 816.95 114.36 816.87 113.96 816.87 113.28 816.87 113.12L829.35 113.12C829.43 112.44 829.47 111.64 829.47 111.36 829.47 106.2 828.07 101.2 820.63 101.2 815.19 101.2 810.43 104.84 810.43 112.28 810.43 118.44 813.91 122.64 819.83 122.64 823.55 122.64 826.59 121.8 829.75 119.96zM823.39 108.92L817.07 108.92C817.35 107.04 818.67 105.68 820.51 105.68 822.55 105.68 823.43 106.68 823.43 108.16 823.43 108.4 823.43 108.64 823.39 108.92z" fill="#FFFFFF"/>
    <path d="M845.27 122L845.27 117.84 841.99 117.48 841.99 107.32C843.39 106.8 844.71 106.64 845.91 106.64 846.75 106.64 847.43 106.88 847.59 107.76 847.71 108.44 847.71 109.76 847.71 111.68L847.71 122 857.39 122 857.39 117.84 854.03 117.48 854.03 110.36C854.03 108.12 854.03 106.28 853.87 105.12 853.55 102.72 852.39 101.32 849.31 101.32 847.43 101.32 844.19 102.44 841.99 104.04L841.87 101.28C839.15 101.28 834.87 101.96 832.31 102.8L832.31 106.88 835.75 106.88 835.75 117.48 832.47 117.84 832.47 122z" fill="#FFFFFF"/>
    <path d="M866.23 99.6L872.83 93.2 866.51 93.2 861.71 99.6zM872.03 122L872.03 117.84 868.75 117.48 868.75 101.28C865.59 101.28 862.07 101.88 859.07 102.76L859.07 106.88 862.51 106.88 862.51 117.48 859.23 117.84 859.23 122z" fill="#FFFFFF"/>
    <path d="M897.99 122L904.23 106.36 906.67 106 906.67 101.88 895.23 101.88 895.23 106 897.67 106.28C896.31 110.24 895.31 113.48 894.51 116.16 893.59 113.36 892.71 110.28 891.15 106.28L893.67 106 893.67 101.88 881.95 101.88 881.95 106 884.39 106.36 890.63 122z" fill="#FFFFFF"/>
    <path d="M926.91 122C927.11 121.08 927.39 118.56 927.39 113.28L922.99 113.28 922.23 117.48 916.03 117.48C918.11 115.32 919.87 113.44 926.55 105.96L926.55 101.88 908.79 101.88C908.51 102.84 908.27 105.04 908.27 110.12L912.51 110.12 913.31 106.24 918.07 106.24C915.83 108.64 913.99 110.88 907.87 117.96L907.87 122z" fill="#FFFFFF"/>
    <path d="M942.39 122L942.39 117.84 939.07 117.48 939.07 107.32C940.31 106.84 941.79 106.64 942.99 106.64 943.83 106.64 944.51 106.88 944.67 107.76 944.79 108.44 944.79 109.76 944.79 111.68L944.79 122 954.47 122 954.47 117.84 951.11 117.48 951.11 110.2C951.11 107.96 951.11 106.24 950.95 105.12 950.63 102.72 949.39 101.32 946.39 101.32 944.59 101.32 941.27 102.48 939.03 104.04L939.03 92.36C936.31 92.36 932.23 93.08 929.39 93.92L929.39 98 932.83 98 932.83 117.48 929.75 117.84 929.75 122z" fill="#FFFFFF"/>
    <path d="M968.67 122L968.67 117.84 965.35 117.48 965.35 92.36C962.47 92.36 958.95 93.04 955.67 93.92L955.67 98 959.11 98 959.11 117.48 956.03 117.84 956.03 122z" fill="#FFFFFF"/>
    <path d="M990.35 119.96L988.35 116.04C986.39 117.12 984.31 117.6 981.99 117.6 979.39 117.6 977.99 116.28 977.55 114.36 977.47 113.96 977.47 113.28 977.47 113.12L989.95 113.12C990.03 112.44 990.07 111.64 990.07 111.36 990.07 106.2 988.67 101.2 981.23 101.2 975.79 101.2 971.03 104.84 971.03 112.28 971.03 118.44 974.51 122.64 980.43 122.64 984.15 122.64 987.19 121.8 990.35 119.96zM983.99 108.92L977.67 108.92C977.95 107.04 979.27 105.68 981.11 105.68 983.15 105.68 984.03 106.68 984.03 108.16 984.03 108.4 984.03 108.64 983.99 108.92z" fill="#FFFFFF"/>
    <path d="M1015.83 117.64L1012.63 117.64 1012.63 92.32C1009.39 92.36 1005.79 93.04 1002.55 93.92L1002.55 98 1006.27 98 1006.27 101.96C1005.31 101.6 1003.71 101.44 1002.67 101.44 997.67 101.44 993.07 104.44 993.07 112.4 993.07 118.72 996.43 122.4 1000.91 122.4 1003.11 122.4 1004.99 121.52 1006.59 120.04L1006.95 122.36C1009.95 122.36 1013.31 122.08 1015.83 121.56zM1006.27 116.4C1004.99 117.08 1003.87 117.4 1003.07 117.4 1001.11 117.4 999.59 116.36 999.59 112.08 999.59 107.48 1001.63 106.64 1003.67 106.64 1004.39 106.64 1005.31 106.72 1006.27 106.92z" fill="#FFFFFF"/>
    <path d="M1041.31 121.56L1041.31 117.64 1038.11 117.64 1038.11 101.48C1034.91 101.48 1031.31 102 1028.43 102.68L1028.43 106.6 1031.75 106.6 1031.75 116.56C1030.39 117.04 1029.23 117.28 1028.07 117.28 1026.99 117.28 1026.31 116.68 1026.15 115.76 1026.03 115.08 1026.03 114.08 1026.03 112.2L1026.03 101.48C1023.11 101.48 1019.51 101.96 1016.47 102.64L1016.47 106.6 1019.71 106.6 1019.71 113.52C1019.71 115.4 1019.75 117.12 1019.87 118.28 1020.19 120.88 1021.71 122.56 1025.19 122.56 1027.47 122.56 1029.87 121.56 1032.03 119.88L1032.43 122.36C1035.51 122.36 1039.55 121.96 1041.31 121.56z" fill="#FFFFFF"/>
  </g>
  <g id="Layer_4" opacity="0.32">
    <path d="M182.63 253.6C183.43 253.84 184.43 253.96 185.43 253.96 190.35 253.96 194.15 251.56 194.15 246.84 194.15 246.24 194.07 245.32 193.79 244.68L196.71 244.68 196.71 240.16 190.55 240.16C189.39 239.56 187.75 239.2 185.59 239.2 179.15 239.2 176.59 242.88 176.59 246.8 176.59 249.2 177.63 251.48 179.51 252.48 177.67 254.48 176.99 255.76 176.99 257.04 176.99 258.64 177.87 259.8 179.55 260.32 176.83 261.52 175.59 263.12 175.59 264.92 175.59 267.48 177.47 270.4 184.75 270.4 192.35 270.4 196.31 266.92 196.31 262.44 196.31 259.04 194.71 256.92 190.11 256.4L183.43 255.64C182.43 255.52 182.15 255.08 182.15 254.64 182.15 254.36 182.27 253.96 182.63 253.6zM182.83 261.16L186.23 261.36C188.83 261.52 189.47 262.4 189.47 263.68 189.47 264.72 188.23 265.88 185.83 265.88 182.51 265.88 181.55 264.8 181.55 263.72 181.55 262.88 181.95 262.04 182.83 261.16zM188.27 246.68C188.27 248.68 187.27 249.72 185.47 249.72 183.79 249.72 182.87 248.76 182.87 246.72 182.87 245.12 183.55 243.6 185.55 243.6 187.63 243.6 188.27 245.04 188.27 246.68z" fill="#FFFFFF"/>
    <path d="M212.35 260L212.35 255.84 208.47 255.44 208.47 245.8C209.87 245.12 211.67 244.84 213.19 244.84 214.31 244.84 215.11 244.92 215.47 244.96L215.47 239.44C215.11 239.4 214.55 239.36 214.19 239.36 211.71 239.36 209.55 240.68 208.39 242.68L208.39 239.28C205.27 239.32 201.71 239.84 198.79 240.8L198.79 244.88 202.23 244.88 202.23 255.48 198.95 255.84 198.95 260z" fill="#FFFFFF"/>
    <path d="M226.19 233.92C226.19 231.4 224.79 230.6 222.91 230.6 221.07 230.6 219.51 231.52 219.51 233.92 219.51 236.32 221.07 237.2 222.79 237.2 224.79 237.2 226.19 236.16 226.19 233.92zM230.07 260L230.07 255.84 226.79 255.48 226.79 239.28C223.63 239.28 220.11 239.88 217.11 240.76L217.11 244.88 220.55 244.88 220.55 255.48 217.27 255.84 217.27 260z" fill="#FFFFFF"/>
    <path d="M255.19 255.64L251.99 255.64 251.99 230.32C248.75 230.36 245.15 231.04 241.91 231.92L241.91 236 245.63 236 245.63 239.96C244.67 239.6 243.07 239.44 242.03 239.44 237.03 239.44 232.43 242.44 232.43 250.4 232.43 256.72 235.79 260.4 240.27 260.4 242.47 260.4 244.35 259.52 245.95 258.04L246.31 260.36C249.31 260.36 252.67 260.08 255.19 259.56zM245.63 254.4C244.35 255.08 243.23 255.4 242.43 255.4 240.47 255.4 238.95 254.36 238.95 250.08 238.95 245.48 240.99 244.64 243.03 244.64 243.75 244.64 244.67 244.72 245.63 244.92z" fill="#FFFFFF"/>
    <path d="M266.63 252.68C266.63 256.56 266.79 258.48 267.11 259.52 269.47 260.24 272.35 260.64 275.07 260.64 281.67 260.64 284.15 257.12 284.15 253.88 284.15 251.04 283.15 248.6 278.75 247.6L275.43 246.84C274.31 246.6 273.91 245.96 273.91 245.24 273.91 244.36 274.59 243.6 276.23 243.6 276.83 243.6 277.79 243.64 278.79 243.88L279.27 246.68 283.63 246.68C283.63 244.28 283.55 241.04 283.11 239.92 281.43 239.48 278.75 239.2 276.47 239.2 270.11 239.2 267.31 242.28 267.31 245.6 267.31 249.52 269.35 251.16 272.59 252L275.75 252.8C276.75 253.08 277.27 253.48 277.27 254.44 277.27 255.2 276.83 256.04 274.99 256.04 273.87 256.04 272.43 255.8 271.63 255.44L270.99 252.68z" fill="#FFFFFF"/>
    <path d="M290.35 270.44C295.51 269.04 299.95 266.68 302.59 259.36L307.95 244.36 310.39 244 310.39 239.88 299.07 239.88 299.07 244 301.51 244.28C300.19 248.24 299.35 251.84 298.59 254.52 297.67 251.92 296.63 248.52 294.99 244.28L297.51 244 297.51 239.88 285.95 239.88 285.95 244 288.39 244.36 294.39 260 295.43 260C294.47 262.72 291.75 264.4 288.43 265.36z" fill="#FFFFFF"/>
    <path d="M311.71 252.68C311.71 256.56 311.87 258.48 312.19 259.52 314.55 260.24 317.43 260.64 320.15 260.64 326.75 260.64 329.23 257.12 329.23 253.88 329.23 251.04 328.23 248.6 323.83 247.6L320.51 246.84C319.39 246.6 318.99 245.96 318.99 245.24 318.99 244.36 319.67 243.6 321.31 243.6 321.91 243.6 322.87 243.64 323.87 243.88L324.35 246.68 328.71 246.68C328.71 244.28 328.63 241.04 328.19 239.92 326.51 239.48 323.83 239.2 321.55 239.2 315.19 239.2 312.39 242.28 312.39 245.6 312.39 249.52 314.43 251.16 317.67 252L320.83 252.8C321.83 253.08 322.35 253.48 322.35 254.44 322.35 255.2 321.91 256.04 320.07 256.04 318.95 256.04 317.51 255.8 316.71 255.44L316.07 252.68z" fill="#FFFFFF"/>
    <path d="M346.59 259.48L345.83 254.88C344.87 255.04 343.75 255.08 343.19 255.08 342.31 255.08 341.63 254.88 341.27 254.36 340.83 253.76 340.67 252.92 340.67 251.28L340.67 244.68 345.47 244.68 345.47 239.88 340.67 239.88 340.67 234.48 334.67 234.88C334.51 237.44 334.43 238.56 334.43 239.88 333.91 239.88 331.91 240 330.71 240.28L330.71 244.68 334.35 244.68 334.35 252.64C334.35 255.28 334.75 257.32 335.59 258.44 336.43 259.6 338.15 260.32 340.19 260.32 342.83 260.32 345.11 259.96 346.59 259.48z" fill="#FFFFFF"/>
    <path d="M367.75 257.96L365.75 254.04C363.79 255.12 361.71 255.6 359.39 255.6 356.79 255.6 355.39 254.28 354.95 252.36 354.87 251.96 354.87 251.28 354.87 251.12L367.35 251.12C367.43 250.44 367.47 249.64 367.47 249.36 367.47 244.2 366.07 239.2 358.63 239.2 353.19 239.2 348.43 242.84 348.43 250.28 348.43 256.44 351.91 260.64 357.83 260.64 361.55 260.64 364.59 259.8 367.75 257.96zM361.39 246.92L355.07 246.92C355.35 245.04 356.67 243.68 358.51 243.68 360.55 243.68 361.43 244.68 361.43 246.16 361.43 246.4 361.43 246.64 361.39 246.92z" fill="#FFFFFF"/>
    <path d="M383.23 260L383.23 255.84 379.99 255.48 379.99 245.32C381.31 244.8 382.51 244.64 383.75 244.64 384.55 244.64 385.15 244.88 385.31 245.72 385.43 246.44 385.43 247.76 385.43 249.68L385.43 260 395.11 260 395.11 255.84 391.75 255.48 391.75 248.2C391.75 247.08 391.75 246.2 391.71 245.32 393.03 244.84 394.23 244.64 395.43 244.64 396.23 244.64 396.87 244.88 397.03 245.76 397.19 246.44 397.19 247.76 397.19 249.68L397.19 260 406.87 260 406.87 255.84 403.47 255.48 403.47 248.2C403.47 245.96 403.47 244.2 403.31 243.08 402.99 240.68 401.67 239.32 398.83 239.32 396.39 239.32 393.79 240.52 391.43 242.16 390.91 240.28 389.71 239.32 387.19 239.32 385.19 239.32 382.19 240.48 379.99 242.04L379.87 239.28C377.15 239.28 373.19 239.96 370.31 240.76L370.31 244.88 373.75 244.88 373.75 255.48 370.47 255.84 370.47 260z" fill="#FFFFFF"/>
    <path d="M1118.91 171.29C1118.91 175.97 1119.11 178.85 1119.47 180.57 1121.51 181.45 1124.75 182.05 1128.91 182.05 1136.99 182.05 1140.39 178.17 1140.39 173.77 1140.39 169.65 1139.27 167.57 1132.55 165.17L1129.15 163.93C1127.31 163.29 1126.91 162.45 1126.91 161.25 1126.91 160.09 1127.75 158.89 1130.91 158.89 1132.07 158.89 1133.55 159.09 1134.71 159.41L1135.19 163.73 1139.83 163.73C1139.83 159.33 1139.75 155.45 1139.43 154.57 1137.39 154.05 1134.07 153.61 1131.47 153.61 1123.11 153.61 1119.91 157.45 1119.91 162.09 1119.91 167.05 1122.75 168.97 1126.63 170.17L1130.15 171.21C1132.47 171.93 1133.19 172.81 1133.19 174.21 1133.19 175.65 1132.23 176.73 1129.71 176.73 1127.95 176.73 1126.19 176.49 1124.35 175.93L1123.71 171.29z" fill="#FFFFFF"/>
    <path d="M1155.99 181.33L1155.99 177.13 1151.99 176.81 1153.15 173.61 1161.27 173.61 1162.43 176.81 1158.55 177.13 1158.55 181.33 1172.59 181.33 1172.59 177.13 1169.75 176.81 1161.55 154.29 1153.19 154.29 1144.83 176.81 1141.95 177.13 1141.95 181.33zM1154.83 168.17C1156.43 163.41 1156.87 161.77 1157.31 160.29 1157.67 161.85 1158.03 163.21 1159.55 168.17z" fill="#FFFFFF"/>
    <path d="M1174.19 171.29C1174.19 175.97 1174.39 178.85 1174.75 180.57 1176.79 181.45 1180.03 182.05 1184.19 182.05 1192.27 182.05 1195.67 178.17 1195.67 173.77 1195.67 169.65 1194.55 167.57 1187.83 165.17L1184.43 163.93C1182.59 163.29 1182.19 162.45 1182.19 161.25 1182.19 160.09 1183.03 158.89 1186.19 158.89 1187.35 158.89 1188.83 159.09 1189.99 159.41L1190.47 163.73 1195.11 163.73C1195.11 159.33 1195.03 155.45 1194.71 154.57 1192.67 154.05 1189.35 153.61 1186.75 153.61 1178.39 153.61 1175.19 157.45 1175.19 162.09 1175.19 167.05 1178.03 168.97 1181.91 170.17L1185.43 171.21C1187.75 171.93 1188.47 172.81 1188.47 174.21 1188.47 175.65 1187.51 176.73 1184.99 176.73 1183.23 176.73 1181.47 176.49 1179.63 175.93L1178.99 171.29z" fill="#FFFFFF"/>
    <path d="M1198.63 171.29C1198.63 175.97 1198.83 178.85 1199.19 180.57 1201.23 181.45 1204.47 182.05 1208.63 182.05 1216.71 182.05 1220.11 178.17 1220.11 173.77 1220.11 169.65 1218.99 167.57 1212.27 165.17L1208.87 163.93C1207.03 163.29 1206.63 162.45 1206.63 161.25 1206.63 160.09 1207.47 158.89 1210.63 158.89 1211.79 158.89 1213.27 159.09 1214.43 159.41L1214.91 163.73 1219.55 163.73C1219.55 159.33 1219.47 155.45 1219.15 154.57 1217.11 154.05 1213.79 153.61 1211.19 153.61 1202.83 153.61 1199.63 157.45 1199.63 162.09 1199.63 167.05 1202.47 168.97 1206.35 170.17L1209.87 171.21C1212.19 171.93 1212.91 172.81 1212.91 174.21 1212.91 175.65 1211.95 176.73 1209.43 176.73 1207.67 176.73 1205.91 176.49 1204.07 175.93L1203.43 171.29z" fill="#FFFFFF"/>
    <path d="M1233.45 408.51L1233.45 404.35 1229.45 403.99 1229.45 398.87C1230.41 398.99 1231.37 399.03 1232.37 399.03 1238.77 399.03 1242.85 395.43 1242.85 387.83 1242.85 381.23 1240.41 377.91 1236.25 377.91 1233.65 377.91 1230.85 379.31 1229.45 380.47L1229.33 377.87C1226.21 377.99 1222.93 378.47 1219.77 379.39L1219.77 383.47 1223.25 383.47 1223.25 403.99 1219.97 404.35 1219.97 408.51zM1229.45 393.91L1229.45 383.87C1230.65 383.47 1231.69 383.23 1232.93 383.23 1234.85 383.23 1236.09 384.75 1236.09 388.43 1236.09 392.71 1234.45 394.19 1232.01 394.19 1231.05 394.19 1230.25 394.07 1229.45 393.91z" fill="#FFFFFF"/>
    <path d="M1259.25 398.67L1259.25 394.51 1255.37 394.11 1255.37 384.47C1256.77 383.79 1258.57 383.51 1260.09 383.51 1261.21 383.51 1262.01 383.59 1262.37 383.63L1262.37 378.11C1262.01 378.07 1261.45 378.03 1261.09 378.03 1258.61 378.03 1256.45 379.35 1255.29 381.35L1255.29 377.95C1252.17 377.99 1248.61 378.51 1245.69 379.47L1245.69 383.55 1249.13 383.55 1249.13 394.15 1245.85 394.51 1245.85 398.67z" fill="#FFFFFF"/>
    <path d="M1284.45 388.07C1284.45 381.51 1281.33 377.87 1274.53 377.87 1267.01 377.87 1263.37 381.71 1263.37 388.99 1263.37 395.67 1267.09 399.31 1273.57 399.31 1280.77 399.31 1284.45 395.35 1284.45 388.07zM1277.73 388.79C1277.73 393.39 1276.25 394.63 1273.77 394.63 1271.45 394.63 1269.93 393.43 1269.93 388.35 1269.93 384.75 1270.97 382.51 1274.01 382.51 1277.17 382.51 1277.73 384.87 1277.73 388.79z" fill="#FFFFFF"/>
    <path d="M1301.69 398.15L1300.93 393.55C1299.97 393.71 1298.85 393.75 1298.29 393.75 1297.41 393.75 1296.73 393.55 1296.37 393.03 1295.93 392.43 1295.77 391.59 1295.77 389.95L1295.77 383.35 1300.57 383.35 1300.57 378.55 1295.77 378.55 1295.77 373.15 1289.77 373.55C1289.61 376.11 1289.53 377.23 1289.53 378.55 1289.01 378.55 1287.01 378.67 1285.81 378.95L1285.81 383.35 1289.45 383.35 1289.45 391.31C1289.45 393.95 1289.85 395.99 1290.69 397.11 1291.53 398.27 1293.25 398.99 1295.29 398.99 1297.93 398.99 1300.21 398.63 1301.69 398.15z" fill="#FFFFFF"/>
    <path d="M1324.61 388.07C1324.61 381.51 1321.49 377.87 1314.69 377.87 1307.17 377.87 1303.53 381.71 1303.53 388.99 1303.53 395.67 1307.25 399.31 1313.73 399.31 1320.93 399.31 1324.61 395.35 1324.61 388.07zM1317.89 388.79C1317.89 393.39 1316.41 394.63 1313.93 394.63 1311.61 394.63 1310.09 393.43 1310.09 388.35 1310.09 384.75 1311.13 382.51 1314.17 382.51 1317.33 382.51 1317.89 384.87 1317.89 388.79z" fill="#FFFFFF"/>
    <path d="M1341.85 398.15L1341.09 393.55C1340.13 393.71 1339.01 393.75 1338.45 393.75 1337.57 393.75 1336.89 393.55 1336.53 393.03 1336.09 392.43 1335.93 391.59 1335.93 389.95L1335.93 383.35 1340.73 383.35 1340.73 378.55 1335.93 378.55 1335.93 373.15 1329.93 373.55C1329.77 376.11 1329.69 377.23 1329.69 378.55 1329.17 378.55 1327.17 378.67 1325.97 378.95L1325.97 383.35 1329.61 383.35 1329.61 391.31C1329.61 393.95 1330.01 395.99 1330.85 397.11 1331.69 398.27 1333.41 398.99 1335.45 398.99 1338.09 398.99 1340.37 398.63 1341.85 398.15z" fill="#FFFFFF"/>
    <path d="M1346.29 409.11C1351.45 407.71 1355.89 405.35 1358.53 398.03L1363.89 383.03 1366.33 382.67 1366.33 378.55 1355.01 378.55 1355.01 382.67 1357.45 382.95C1356.13 386.91 1355.29 390.51 1354.53 393.19 1353.61 390.59 1352.57 387.19 1350.93 382.95L1353.45 382.67 1353.45 378.55 1341.89 378.55 1341.89 382.67 1344.33 383.03 1350.33 398.67 1351.37 398.67C1350.41 401.39 1347.69 403.07 1344.37 404.03z" fill="#FFFFFF"/>
    <path d="M1380.61 408.51L1380.61 404.35 1376.61 403.99 1376.61 398.87C1377.57 398.99 1378.53 399.03 1379.53 399.03 1385.93 399.03 1390.01 395.43 1390.01 387.83 1390.01 381.23 1387.57 377.91 1383.41 377.91 1380.81 377.91 1378.01 379.31 1376.61 380.47L1376.49 377.87C1373.37 377.99 1370.09 378.47 1366.93 379.39L1366.93 383.47 1370.41 383.47 1370.41 403.99 1367.13 404.35 1367.13 408.51zM1376.61 393.91L1376.61 383.87C1377.81 383.47 1378.85 383.23 1380.09 383.23 1382.01 383.23 1383.25 384.75 1383.25 388.43 1383.25 392.71 1381.61 394.19 1379.17 394.19 1378.21 394.19 1377.41 394.07 1376.61 393.91z" fill="#FFFFFF"/>
    <path d="M1395.37 409.11C1400.53 407.71 1404.97 405.35 1407.61 398.03L1412.97 383.03 1415.41 382.67 1415.41 378.55 1404.09 378.55 1404.09 382.67 1406.53 382.95C1405.21 386.91 1404.37 390.51 1403.61 393.19 1402.69 390.59 1401.65 387.19 1400.01 382.95L1402.53 382.67 1402.53 378.55 1390.97 378.55 1390.97 382.67 1393.41 383.03 1399.41 398.67 1400.45 398.67C1399.49 401.39 1396.77 403.07 1393.45 404.03z" fill="#FFFFFF"/>
    <path d="M167.25 669.68C167.25 673.56 167.41 675.48 167.73 676.52 170.09 677.24 172.97 677.64 175.69 677.64 182.29 677.64 184.77 674.12 184.77 670.88 184.77 668.04 183.77 665.6 179.37 664.6L176.05 663.84C174.93 663.6 174.53 662.96 174.53 662.24 174.53 661.36 175.21 660.6 176.85 660.6 177.45 660.6 178.41 660.64 179.41 660.88L179.89 663.68 184.25 663.68C184.25 661.28 184.17 658.04 183.73 656.92 182.05 656.48 179.37 656.2 177.09 656.2 170.73 656.2 167.93 659.28 167.93 662.6 167.93 666.52 169.97 668.16 173.21 669L176.37 669.8C177.37 670.08 177.89 670.48 177.89 671.44 177.89 672.2 177.45 673.04 175.61 673.04 174.49 673.04 173.05 672.8 172.25 672.44L171.61 669.68zM179.13 648.52L176.37 651.64 173.69 648.52 169.25 648.52 173.89 654.6 178.77 654.6 183.53 648.52z" fill="#FFFFFF"/>
    <path d="M209.65 672.44L206.45 672.44 206.45 663.84C206.45 661 206.09 659.36 205.41 658.28 204.53 656.84 202.77 656.2 199.85 656.2 197.45 656.2 192.93 656.88 189.93 657.88L190.81 662.16C193.45 661.52 196.25 661.32 197.65 661.32 199.01 661.32 199.65 661.56 200.01 662.04 200.25 662.44 200.33 663.2 200.33 664L200.33 664.56C197.29 664.68 194.45 664.96 192.17 665.68 189.81 666.4 188.29 668.2 188.29 671.12 188.29 674.32 190.29 677.48 194.89 677.48 196.57 677.48 198.93 676.92 200.69 675.04L201.05 677.36C203.93 677.36 207.57 676.92 209.65 676.36zM200.41 671.68C199.49 672.52 197.93 673.04 196.85 673.04 195.49 673.04 194.73 672.24 194.73 670.96 194.73 670.08 195.17 669.36 196.21 669 197.57 668.52 199.65 668.44 200.41 668.36z" fill="#FFFFFF"/>
    <path d="M213.61 676.28C216.33 677.08 219.49 677.56 222.73 677.56 229.17 677.56 233.21 673.88 233.21 666.28 233.21 659.68 230.73 656.4 226.37 656.4 223.89 656.4 221.29 657.72 219.77 658.92L219.77 647.36C217.13 647.36 213.21 648.12 210.13 648.92L210.13 653 213.61 653zM219.81 672.48L219.81 662.32C221.01 661.92 222.05 661.64 223.33 661.64 225.05 661.64 226.45 663.24 226.45 666.88 226.45 671.16 224.85 672.72 222.37 672.72 221.41 672.72 220.65 672.64 219.81 672.48z" fill="#FFFFFF"/>
    <path d="M248.57 677L248.57 672.84 245.25 672.48 245.25 647.36C242.37 647.36 238.85 648.04 235.57 648.92L235.57 653 239.01 653 239.01 672.48 235.93 672.84 235.93 677z" fill="#FFFFFF"/>
    <path d="M272.01 666.4C272.01 659.84 268.89 656.2 262.09 656.2 254.57 656.2 250.93 660.04 250.93 667.32 250.93 674 254.65 677.64 261.13 677.64 268.33 677.64 272.01 673.68 272.01 666.4zM265.29 667.12C265.29 671.72 263.81 672.96 261.33 672.96 259.01 672.96 257.49 671.76 257.49 666.68 257.49 663.08 258.53 660.84 261.57 660.84 264.73 660.84 265.29 663.2 265.29 667.12z" fill="#FFFFFF"/>
    <path d="M287.81 677L287.81 672.84 284.53 672.48 284.53 662.32C285.93 661.8 287.25 661.64 288.45 661.64 289.29 661.64 289.97 661.88 290.13 662.76 290.25 663.44 290.25 664.76 290.25 666.68L290.25 677 299.93 677 299.93 672.84 296.57 672.48 296.57 665.36C296.57 663.12 296.57 661.28 296.41 660.12 296.09 657.72 294.93 656.32 291.85 656.32 289.97 656.32 286.73 657.44 284.53 659.04L284.41 656.28C281.69 656.28 277.41 656.96 274.85 657.8L274.85 661.88 278.29 661.88 278.29 672.48 275.01 672.84 275.01 677z" fill="#FFFFFF"/>
    <path d="M304.73 687.44C309.89 686.04 314.33 683.68 316.97 676.36L322.33 661.36 324.77 661 324.77 656.88 313.45 656.88 313.45 661 315.89 661.28C314.57 665.24 313.73 668.84 312.97 671.52 312.05 668.92 311.01 665.52 309.37 661.28L311.89 661 311.89 656.88 300.33 656.88 300.33 661 302.77 661.36 308.77 677 309.81 677C308.85 679.72 306.13 681.4 302.81 682.36z" fill="#FFFFFF"/>
    <path d="M1204.55 669L1204.55 664.8 1200.83 664.44 1200.83 658.24 1202.67 658.24C1203.39 658.52 1204.03 659.12 1204.83 660.56 1205.63 661.96 1206.23 663.28 1207.31 665.16 1208.63 667.48 1210.39 669.12 1213.55 669.12 1215.07 669.12 1216.99 669 1218.23 668.8L1217.87 663.8C1217.43 663.88 1216.99 663.92 1216.75 663.92 1215.03 663.92 1213.99 663.44 1213.03 661.84 1212.55 661 1211.71 659.6 1211.35 659.12 1210.67 658.08 1210.07 657.48 1209.31 657.12 1212.87 656 1215.07 653.76 1215.07 649.24 1215.07 645.76 1213.11 643.52 1210.27 642.64 1208.59 642.12 1206.55 641.96 1204.23 641.96L1190.35 641.96 1190.35 646.16 1194.19 646.52 1194.19 664.44 1190.35 664.8 1190.35 669zM1200.83 653.16L1200.83 647.16 1203.23 647.16C1204.67 647.16 1205.83 647.28 1206.51 647.64 1207.35 648.08 1207.87 648.68 1207.87 650.28 1207.87 651.28 1207.59 652.08 1206.67 652.6 1205.71 653.12 1204.23 653.16 1202.55 653.16z" fill="#FFFFFF"/>
    <path d="M1238.95 666.96L1236.95 663.04C1234.99 664.12 1232.91 664.6 1230.59 664.6 1227.99 664.6 1226.59 663.28 1226.15 661.36 1226.07 660.96 1226.07 660.28 1226.07 660.12L1238.55 660.12C1238.63 659.44 1238.67 658.64 1238.67 658.36 1238.67 653.2 1237.27 648.2 1229.83 648.2 1224.39 648.2 1219.63 651.84 1219.63 659.28 1219.63 665.44 1223.11 669.64 1229.03 669.64 1232.75 669.64 1235.79 668.8 1238.95 666.96zM1232.59 655.92L1226.27 655.92C1226.55 654.04 1227.87 652.68 1229.71 652.68 1231.75 652.68 1232.63 653.68 1232.63 655.16 1232.63 655.4 1232.63 655.64 1232.59 655.92z" fill="#FFFFFF"/>
    <path d="M1243.47 668.28C1246.19 669.08 1249.35 669.56 1252.59 669.56 1259.03 669.56 1263.07 665.88 1263.07 658.28 1263.07 651.68 1260.59 648.4 1256.23 648.4 1253.75 648.4 1251.15 649.72 1249.63 650.92L1249.63 639.36C1246.99 639.36 1243.07 640.12 1239.99 640.92L1239.99 645 1243.47 645zM1249.67 664.48L1249.67 654.32C1250.87 653.92 1251.91 653.64 1253.19 653.64 1254.91 653.64 1256.31 655.24 1256.31 658.88 1256.31 663.16 1254.71 664.72 1252.23 664.72 1251.27 664.72 1250.51 664.64 1249.67 664.48z" fill="#FFFFFF"/>
    <path d="M1287.67 658.4C1287.67 651.84 1284.55 648.2 1277.75 648.2 1270.23 648.2 1266.59 652.04 1266.59 659.32 1266.59 666 1270.31 669.64 1276.79 669.64 1283.99 669.64 1287.67 665.68 1287.67 658.4zM1280.95 659.12C1280.95 663.72 1279.47 664.96 1276.99 664.96 1274.67 664.96 1273.15 663.76 1273.15 658.68 1273.15 655.08 1274.19 652.84 1277.23 652.84 1280.39 652.84 1280.95 655.2 1280.95 659.12z" fill="#FFFFFF"/>
    <path d="M1312.27 658.4C1312.27 651.84 1309.15 648.2 1302.35 648.2 1294.83 648.2 1291.19 652.04 1291.19 659.32 1291.19 666 1294.91 669.64 1301.39 669.64 1308.59 669.64 1312.27 665.68 1312.27 658.4zM1305.55 659.12C1305.55 663.72 1304.07 664.96 1301.59 664.96 1299.27 664.96 1297.75 663.76 1297.75 658.68 1297.75 655.08 1298.79 652.84 1301.83 652.84 1304.99 652.84 1305.55 655.2 1305.55 659.12z" fill="#FFFFFF"/>
    <path d="M1329.51 668.48L1328.75 663.88C1327.79 664.04 1326.67 664.08 1326.11 664.08 1325.23 664.08 1324.55 663.88 1324.19 663.36 1323.75 662.76 1323.59 661.92 1323.59 660.28L1323.59 653.68 1328.39 653.68 1328.39 648.88 1323.59 648.88 1323.59 643.48 1317.59 643.88C1317.43 646.44 1317.35 647.56 1317.35 648.88 1316.83 648.88 1314.83 649 1313.63 649.28L1313.63 653.68 1317.27 653.68 1317.27 661.64C1317.27 664.28 1317.67 666.32 1318.51 667.44 1319.35 668.6 1321.07 669.32 1323.11 669.32 1325.75 669.32 1328.03 668.96 1329.51 668.48z" fill="#FFFFFF"/>
    <path d="M199.93 477L199.93 472.84 196.65 472.48 196.65 462.32C198.05 461.8 199.37 461.64 200.57 461.64 201.41 461.64 202.09 461.88 202.25 462.76 202.37 463.44 202.37 464.76 202.37 466.68L202.37 477 212.05 477 212.05 472.84 208.69 472.48 208.69 465.36C208.69 463.12 208.69 461.28 208.53 460.12 208.21 457.72 207.05 456.32 203.97 456.32 202.09 456.32 198.85 457.44 196.65 459.04L196.53 456.28C193.81 456.28 189.53 456.96 186.97 457.8L186.97 461.88 190.41 461.88 190.41 472.48 187.13 472.84 187.13 477z" fill="#FFFFFF"/>
    <path d="M234.89 472.44L231.69 472.44 231.69 463.84C231.69 461 231.33 459.36 230.65 458.28 229.77 456.84 228.01 456.2 225.09 456.2 222.69 456.2 218.17 456.88 215.17 457.88L216.05 462.16C218.69 461.52 221.49 461.32 222.89 461.32 224.25 461.32 224.89 461.56 225.25 462.04 225.49 462.44 225.57 463.2 225.57 464L225.57 464.56C222.53 464.68 219.69 464.96 217.41 465.68 215.05 466.4 213.53 468.2 213.53 471.12 213.53 474.32 215.53 477.48 220.13 477.48 221.81 477.48 224.17 476.92 225.93 475.04L226.29 477.36C229.17 477.36 232.81 476.92 234.89 476.36zM225.65 471.68C224.73 472.52 223.17 473.04 222.09 473.04 220.73 473.04 219.97 472.24 219.97 470.96 219.97 470.08 220.41 469.36 221.45 469 222.81 468.52 224.89 468.44 225.65 468.36z" fill="#FFFFFF"/>
    <path d="M251.61 477L257.85 461.36 260.29 461 260.29 456.88 248.85 456.88 248.85 461 251.29 461.28C249.93 465.24 248.93 468.48 248.13 471.16 247.21 468.36 246.33 465.28 244.77 461.28L247.29 461 247.29 456.88 235.57 456.88 235.57 461 238.01 461.36 244.25 477z" fill="#FFFFFF"/>
    <path d="M263.33 476.28C266.05 477.08 269.21 477.56 272.45 477.56 278.89 477.56 282.93 473.88 282.93 466.28 282.93 459.68 280.45 456.4 276.09 456.4 273.61 456.4 271.01 457.72 269.49 458.92L269.49 447.36C266.85 447.36 262.93 448.12 259.85 448.92L259.85 453 263.33 453zM269.53 472.48L269.53 462.32C270.73 461.92 271.77 461.64 273.05 461.64 274.77 461.64 276.17 463.24 276.17 466.88 276.17 471.16 274.57 472.72 272.09 472.72 271.13 472.72 270.37 472.64 269.53 472.48z" fill="#FFFFFF"/>
    <path d="M307.29 472.44L304.09 472.44 304.09 463.84C304.09 461 303.73 459.36 303.05 458.28 302.17 456.84 300.41 456.2 297.49 456.2 295.09 456.2 290.57 456.88 287.57 457.88L288.45 462.16C291.09 461.52 293.89 461.32 295.29 461.32 296.65 461.32 297.29 461.56 297.65 462.04 297.89 462.44 297.97 463.2 297.97 464L297.97 464.56C294.93 464.68 292.09 464.96 289.81 465.68 287.45 466.4 285.93 468.2 285.93 471.12 285.93 474.32 287.93 477.48 292.53 477.48 294.21 477.48 296.57 476.92 298.33 475.04L298.69 477.36C301.57 477.36 305.21 476.92 307.29 476.36zM298.05 471.68C297.13 472.52 295.57 473.04 294.49 473.04 293.13 473.04 292.37 472.24 292.37 470.96 292.37 470.08 292.81 469.36 293.85 469 295.21 468.52 297.29 468.44 298.05 468.36z" fill="#FFFFFF"/>
    <path d="M322.85 477L322.85 472.84 318.97 472.44 318.97 462.8C320.37 462.12 322.17 461.84 323.69 461.84 324.81 461.84 325.61 461.92 325.97 461.96L325.97 456.44C325.61 456.4 325.05 456.36 324.69 456.36 322.21 456.36 320.05 457.68 318.89 459.68L318.89 456.28C315.77 456.32 312.21 456.84 309.29 457.8L309.29 461.88 312.73 461.88 312.73 472.48 309.45 472.84 309.45 477z" fill="#FFFFFF"/>
  </g>
  <g id="ikony">
    <path d="M939.37 247.76C976.1 247.76 1005.88 276.89 1005.88 312.83L1005.88 587.17C1005.88 623.11 976.1 652.24 939.37 652.24L660.63 652.24C623.9 652.24 594.12 623.11 594.12 587.17L594.12 312.83C594.12 276.89 623.9 247.76 660.63 247.76L939.37 247.76zM799.64 324.89L699.45 324.89 699.45 575.45 810.22 575.45C844.65 575.45 870.31 569.52 887.18 557.66 904.05 545.8 912.49 527.78 912.49 503.62 912.49 487.84 908.56 474.53 900.7 463.68 892.84 452.83 881.75 445.39 867.42 441.36 878.63 437.22 887.18 430.9 893.07 422.39 898.97 413.78 901.91 403.37 901.91 391.18 901.91 368.02 893.82 351.18 877.65 340.67 861.58 330.15 835.58 324.89 799.64 324.89zM805.36 465.86C818.88 465.86 829 468.6 835.7 474.08 842.4 479.45 845.75 487.56 845.75 498.42 845.75 509.49 842.34 517.77 835.52 523.25 828.82 528.74 818.77 531.48 805.36 531.48L766.19 531.48 766.19 465.86 805.36 465.86zM803.11 368.86C813.63 368.86 821.6 371.15 827.03 375.74 832.46 380.22 835.18 386.76 835.18 395.37 835.18 404.1 832.46 410.7 827.03 415.18 821.6 419.65 813.63 421.89 803.11 421.89L766.19 421.89 766.19 368.86 803.11 368.86z" fill="#FFFFFF"/>
  </g>
</svg>
