<?xml version="1.0" encoding="UTF-8"?>
<!DOCTYPE svg PUBLIC "-//W3C//DTD SVG 1.1//EN" "http://www.w3.org/Graphics/SVG/1.1/DTD/svg11.dtd">
<svg version="1.1" xmlns="http://www.w3.org/2000/svg" xmlns:xlink="http://www.w3.org/1999/xlink" x="0" y="0" width="1000" height="575" viewBox="0, 0, 1000, 575">
  <g id="Background">
    <rect x="0" y="0" width="1000" height="575" fill="#FFFFFF"/>
  </g>
  <g id="Background">
    <path d="M0,0 L1000,0 L1000,575 L0,575 z" fill="#5FA316"/>
    <path d="M0,0 L1000,0 L1000,575 L0,575 L0,0 z" fill="#000000" opacity="0.691"/>
  </g>
  <g id="Layer_2">
    <g opacity="0.567">
      <path d="M667.295,449.805 L651.775,458.764 L644.365,448.894 C639.324,450.463 633.978,451.198 628.54,450.98 L623.619,463.216 L606.313,458.579 L608.367,445.577 C603.552,443.043 599.289,439.736 595.708,435.856 L584.352,440.698 L575.396,425.179 L585.264,417.77 C583.697,412.727 582.962,407.384 583.178,401.944 L571.339,397.183 L575.977,379.879 L588.582,381.773 C591.114,376.953 594.423,372.695 598.303,369.112 L593.461,357.758 L608.977,348.8 L616.388,358.669 C621.43,357.103 626.775,356.365 632.215,356.583 L636.817,345.134 L654.123,349.771 L652.386,361.985 C657.201,364.517 661.464,367.826 665.044,371.706 L676.399,366.865 L685.357,382.384 L675.487,389.793 C677.057,394.834 677.791,400.179 677.576,405.617 L689.472,410.342 L684.837,427.647 L672.17,425.789 C669.638,430.607 666.329,434.868 662.449,438.45 L667.295,449.805 L667.295,449.805 z M645.643,394.952 C643.39,391.047 639.646,388.001 634.943,386.741 C630.242,385.481 625.475,386.246 621.569,388.502 C617.664,390.755 614.617,394.499 613.36,399.203 C612.096,403.903 612.862,408.67 615.119,412.575 C617.371,416.481 621.116,419.523 625.819,420.785 C630.52,422.044 635.287,421.282 639.192,419.026 C643.098,416.77 646.143,413.024 647.401,408.323 C648.664,403.625 647.901,398.857 645.643,394.952 L645.643,394.952 z" fill="#F8E700"/>
      <path d="M406.837,470.385 C422.851,470.688 438.432,468.369 453.118,463.784 L462.674,479.678 L486.01,469.774 L481.172,451.697 C487.75,448.01 494.035,443.828 499.969,439.191 C506.29,434.256 512.207,428.805 517.654,422.895 L534.245,432.084 L549.501,411.84 L535.987,398.313 C542.383,387.544 547.458,375.843 550.962,363.413 C538.539,362.001 526.472,358.806 515.098,353.976 C500.653,402.026 454.136,439.713 396.099,432.587 C335.816,425.185 292.945,370.273 300.347,309.999 C304.055,279.805 319.608,254.004 341.76,236.697 C369.844,214.756 405.462,208.684 437.619,217.129 C439.328,204.786 442.804,192.808 447.928,181.533 C446.223,181.075 444.505,180.643 442.776,180.242 L442.407,159.546 L417.246,156.455 L411.881,176.445 C396.46,176.184 381.446,178.356 367.249,182.64 L356.628,164.972 L333.296,174.88 L338.605,194.727 C331.756,198.514 325.221,202.831 319.066,207.642 C313.298,212.151 307.864,217.084 302.815,222.403 L285.057,212.568 L269.8,232.813 L283.97,246.994 C276.135,259.826 270.186,274.014 266.562,289.221 L246.867,289.57 L243.778,314.735 L262.572,319.776 C262.164,335.574 264.316,350.965 268.682,365.499 L252.299,375.352 L262.203,398.687 L280.522,393.785 C284.38,400.836 288.802,407.556 293.739,413.873 C298.375,419.806 303.461,425.383 308.957,430.556 L299.891,446.924 L320.137,462.179 L333.259,449.071 C346.399,457.07 360.955,463.091 376.566,466.668 L376.892,485.113 L402.054,488.2 L406.837,470.385 L406.837,470.385 z" fill="#F8E700"/>
    </g>
    <path d="M582.255,243.529 C584.108,245.836 583.958,249.217 581.817,251.35 C579.672,253.479 576.295,253.613 574,251.752 C571.606,252.923 568.917,253.581 566.076,253.581 C556.113,253.581 548.034,245.503 548.034,235.54 C548.034,232.683 548.7,229.979 549.882,227.58 L520.106,197.674 C517.822,195.38 517.834,191.671 520.129,189.389 C522.423,187.108 526.134,187.116 528.415,189.41 L558.187,219.312 C560.572,218.151 563.248,217.501 566.076,217.501 C576.04,217.501 584.116,225.579 584.116,235.54 C584.116,238.411 583.448,241.122 582.255,243.529 L582.255,243.529 z M621.479,180.143 C607.304,165.967 587.713,157.197 566.081,157.197 C544.444,157.197 524.857,165.967 510.681,180.143 C496.504,194.317 487.736,213.907 487.736,235.542 C487.736,257.177 496.504,276.763 510.681,290.94 C524.857,305.116 544.444,313.889 566.081,313.889 C587.713,313.889 607.304,305.116 621.479,290.94 C635.653,276.764 644.426,257.177 644.426,235.542 C644.426,213.907 635.653,194.317 621.479,180.143 L621.479,180.143 z M589.584,112.948 L575.874,112.948 L575.874,122.364 C594.578,123.959 611.989,130.086 627.002,139.646 L640.463,124.351 C642.602,121.922 646.331,121.69 648.756,123.822 L666.399,139.35 C668.824,141.485 669.062,145.22 666.928,147.643 L653.458,162.945 C669.831,182.632 679.678,207.935 679.678,235.54 C679.678,266.912 666.964,295.312 646.406,315.866 C625.852,336.423 597.448,349.137 566.079,349.137 C534.706,349.137 506.305,336.423 485.748,315.866 C465.192,295.312 452.477,266.912 452.477,235.54 C452.477,207.933 462.326,182.63 478.697,162.945 L465.222,147.634 C463.087,145.21 463.323,141.479 465.751,139.345 L483.391,123.816 C485.817,121.681 489.548,121.916 491.683,124.344 L505.15,139.644 C520.166,130.084 537.579,123.955 556.283,122.361 L556.283,112.945 L542.574,112.945 C539.342,112.945 536.697,110.31 536.697,107.072 L536.697,87.485 C536.697,84.252 539.342,81.61 542.574,81.61 L589.583,81.61 C592.816,81.61 595.458,84.257 595.458,87.485 L595.458,107.074 C595.46,110.302 592.82,112.948 589.584,112.948 L589.584,112.948 z" fill="#F4F1C7"/>
  </g>
  <g id="Layer_3">
    <text transform="matrix(1, 0, 0, 1, 633.58, 210.505)" display="none">
      <tspan x="-172.58" y="25" font-family="Foro-ExtraBold" font-size="72" fill="#F4F1C7">Pokročilý</tspan>
    </text>
    <text transform="matrix(1, 0, 0, 1, 677.86, 284.905)" display="none">
      <tspan x="-216.86" y="25" font-family="Foro-ExtraBold" font-size="72" fill="#F4F1C7">responzivní</tspan>
    </text>
    <text transform="matrix(1, 0, 0, 1, 580.804, 359.305)" display="none">
      <tspan x="-119.804" y="25" font-family="Foro-ExtraBold" font-size="72" fill="#F4F1C7">design</tspan>
    </text>
  </g>
  <g id="text_outlines"/>
</svg>
