<?xml version="1.0" encoding="UTF-8"?>
<!DOCTYPE svg PUBLIC "-//W3C//DTD SVG 1.1//EN" "http://www.w3.org/Graphics/SVG/1.1/DTD/svg11.dtd">
<svg version="1.1" xmlns="http://www.w3.org/2000/svg" xmlns:xlink="http://www.w3.org/1999/xlink" x="0" y="0" width="498.898" height="708.661" viewBox="0, 0, 498.898, 708.661">
  <g id="Background">
    <rect x="0" y="0" width="498.898" height="708.661" fill="#48440E"/>
  </g>
  <g id="Tagline">
    <path d="M167.692,612.167 C167.768,611.711 167.787,611.046 167.787,608.804 L166.932,608.804 L166.609,610.97 C164.576,610.97 162.581,610.989 160.795,611.008 C162.315,609.83 163.645,608.728 164.785,607.664 C166.248,606.315 167.255,604.719 167.255,603.104 C167.255,600.957 166.077,599.665 163.588,599.665 C162.372,599.665 160.947,600.045 159.56,600.919 L159.978,601.926 C161.099,601.28 162.277,600.881 163.398,600.881 C165.26,600.881 165.868,602.002 165.868,603.199 C165.868,604.358 165.146,605.669 164.139,606.695 C162.505,608.348 160.852,609.735 158.914,611.198 L158.914,612.167 z" fill="#FFFFFF"/>
    <path d="M178.18,612.167 C178.256,611.711 178.275,611.046 178.275,608.804 L177.42,608.804 L177.097,610.97 C175.064,610.97 173.069,610.989 171.283,611.008 C172.803,609.83 174.133,608.728 175.273,607.664 C176.736,606.315 177.743,604.719 177.743,603.104 C177.743,600.957 176.565,599.665 174.076,599.665 C172.86,599.665 171.435,600.045 170.048,600.919 L170.466,601.926 C171.587,601.28 172.765,600.881 173.886,600.881 C175.748,600.881 176.356,602.002 176.356,603.199 C176.356,604.358 175.634,605.669 174.627,606.695 C172.993,608.348 171.34,609.735 169.402,611.198 L169.402,612.167 z" fill="#FFFFFF"/>
    <path d="M189.181,612.167 L189.181,611.274 L187.414,611.122 L187.414,605.118 C188.725,604.111 189.884,603.75 190.758,603.75 C191.518,603.75 191.936,604.054 192.069,604.605 C192.164,605.023 192.221,605.726 192.221,606.828 L192.221,612.167 L195.337,612.167 L195.337,611.274 L193.437,611.122 L193.437,606.505 C193.437,605.441 193.437,604.814 193.361,604.263 C193.19,603.18 192.601,602.553 191.252,602.553 C190.093,602.553 188.497,603.275 187.414,604.244 L187.319,602.591 C186.483,602.591 185.115,602.819 184.298,603.047 L184.298,603.902 L186.198,603.902 L186.198,611.122 L184.431,611.274 L184.431,612.167 z" fill="#FFFFFF"/>
    <path d="M205.521,607.246 C205.521,604.13 204.172,602.496 201.341,602.496 C198.548,602.496 196.838,604.282 196.838,607.607 C196.838,610.628 198.415,612.452 201.075,612.452 C203.982,612.452 205.521,610.533 205.521,607.246 z M204.229,607.531 C204.229,610.172 202.937,611.35 201.189,611.35 C199.289,611.35 198.13,610.267 198.13,607.284 C198.13,605.156 199.175,603.598 201.265,603.598 C203.678,603.598 204.229,605.251 204.229,607.531 z" fill="#FFFFFF"/>
    <path d="M212.646,612.167 L216.028,603.845 L217.358,603.693 L217.358,602.8 L212.912,602.8 L212.912,603.693 L214.717,603.826 C213.007,608.082 212.589,609.203 212.038,610.78 C211.43,609.146 211.05,608.063 209.359,603.826 L211.164,603.693 L211.164,602.8 L206.68,602.8 L206.68,603.693 L207.991,603.845 L211.335,612.167 z" fill="#FFFFFF"/>
    <path d="M219.049,617.088 C221.576,616.727 222.944,615.226 224.331,611.426 L227.086,603.845 L228.416,603.693 L228.416,602.8 L223.989,602.8 L223.989,603.693 L225.813,603.826 C224.274,608.025 223.837,609.431 223.286,611.027 C222.716,609.469 222.222,608.139 220.417,603.826 L222.222,603.693 L222.222,602.8 L217.776,602.8 L217.776,603.693 L219.087,603.845 L222.45,612.167 L222.754,612.167 C221.823,614.371 220.911,615.682 218.764,615.967 z M222.982,601.527 L225.756,598.677 L224.236,598.677 L221.918,601.527 z" fill="#FFFFFF"/>
    <path d="M237.346,611.027 L236.89,610.172 C235.845,610.875 235.028,611.274 233.793,611.274 C232.102,611.274 230.867,610.039 230.867,607.683 C230.867,605.08 232.026,603.598 234.097,603.598 C234.61,603.598 235.161,603.636 235.674,603.769 L235.921,605.593 L236.947,605.593 C236.947,604.434 236.947,603.275 236.852,602.857 C236.111,602.61 235.161,602.496 234.23,602.496 C231.532,602.496 229.575,604.206 229.575,607.797 C229.575,610.761 231.19,612.452 233.527,612.452 C235.066,612.452 236.225,611.882 237.346,611.027 z" fill="#FFFFFF"/>
    <path d="M243.027,612.167 L243.027,611.274 L241.26,611.122 L241.26,605.137 C242.552,604.111 243.749,603.75 244.585,603.75 C245.364,603.75 245.801,604.054 245.934,604.605 C246.029,605.023 246.067,605.726 246.067,606.828 L246.067,612.167 L249.183,612.167 L249.183,611.274 L247.283,611.122 L247.283,606.486 C247.283,605.441 247.283,604.795 247.207,604.263 C247.055,603.18 246.447,602.553 245.079,602.553 C243.977,602.553 242.381,603.256 241.241,604.244 L241.241,598.145 C240.348,598.145 239.132,598.316 238.163,598.601 L238.163,599.456 L240.044,599.456 L240.044,611.122 L238.296,611.274 L238.296,612.167 z" fill="#FFFFFF"/>
    <path d="M260.089,612.167 L263.471,603.845 L264.801,603.693 L264.801,602.8 L260.355,602.8 L260.355,603.693 L262.16,603.826 C260.45,608.082 260.032,609.203 259.481,610.78 C258.873,609.146 258.493,608.063 256.802,603.826 L258.607,603.693 L258.607,602.8 L254.123,602.8 L254.123,603.693 L255.434,603.845 L258.778,612.167 z" fill="#FFFFFF"/>
    <path d="M270.14,612.167 L270.14,611.274 L268.373,611.122 L268.373,598.145 C267.404,598.145 266.283,598.316 265.276,598.601 L265.276,599.456 L267.157,599.456 L267.157,611.122 L265.409,611.274 L265.409,612.167 z" fill="#FFFFFF"/>
    <path d="M280.742,611.16 L278.861,611.16 L278.861,606.087 C278.861,604.681 278.785,603.94 278.5,603.427 C278.12,602.762 277.265,602.496 276.22,602.496 C275.232,602.496 273.769,602.781 272.363,603.294 L272.572,604.301 C273.826,603.883 275.023,603.674 275.783,603.674 C276.733,603.674 277.075,603.864 277.36,604.206 C277.569,604.491 277.664,605.118 277.664,606.011 L277.664,606.695 C276.106,606.733 274.472,606.904 273.427,607.227 C272.306,607.588 271.66,608.405 271.66,609.507 C271.66,610.97 272.553,612.357 274.529,612.357 C275.821,612.357 276.942,611.825 277.721,610.97 L277.816,612.3 C278.785,612.3 280.096,612.148 280.742,611.996 z M277.683,610.039 C276.904,610.799 275.935,611.255 274.833,611.255 C273.769,611.255 272.933,610.685 272.933,609.507 C272.933,608.823 273.37,608.329 274.073,608.082 C274.89,607.797 276.391,607.664 277.683,607.626 z" fill="#FFFFFF"/>
    <path d="M282.072,609.317 C282.072,610.362 282.129,611.331 282.243,611.939 C283.06,612.224 284.2,612.452 285.245,612.452 C287.487,612.452 288.741,611.217 288.741,609.621 C288.741,608.443 288.171,607.626 286.613,607.132 L285.112,606.638 C283.972,606.258 283.687,605.745 283.687,605.042 C283.687,604.358 284.2,603.541 285.72,603.541 C286.176,603.541 286.746,603.56 287.316,603.712 L287.639,605.441 L288.532,605.441 C288.532,604.586 288.513,603.37 288.399,602.819 C287.677,602.61 286.803,602.496 285.853,602.496 C283.573,602.496 282.414,603.731 282.414,605.156 C282.414,606.41 282.965,607.246 284.39,607.721 L285.758,608.158 C287.126,608.614 287.411,609.07 287.411,609.811 C287.411,610.723 286.613,611.369 285.245,611.369 C284.656,611.369 283.934,611.236 283.307,611.046 L282.984,609.317 z" fill="#FFFFFF"/>
    <path d="M296.17,611.939 L295.961,610.951 C295.467,611.065 294.935,611.141 294.517,611.141 C293.966,611.141 293.567,610.932 293.377,610.628 C293.187,610.324 293.092,609.83 293.092,608.804 L293.092,603.921 L295.657,603.921 L295.657,602.8 L293.092,602.8 L293.092,600.33 L291.914,600.425 C291.876,601.698 291.857,602.667 291.857,602.8 C291.287,602.8 290.527,602.838 289.938,602.914 L289.938,603.921 L291.838,603.921 L291.838,609.013 C291.838,610.172 291.971,610.989 292.256,611.445 C292.598,611.977 293.244,612.319 294.042,612.319 C294.802,612.319 295.543,612.167 296.17,611.939 z" fill="#FFFFFF"/>
    <path d="M301.927,612.167 L301.927,611.274 L300.16,611.122 L300.16,605.118 C301.471,604.111 302.63,603.75 303.504,603.75 C304.264,603.75 304.682,604.054 304.815,604.605 C304.91,605.023 304.967,605.726 304.967,606.828 L304.967,612.167 L308.083,612.167 L308.083,611.274 L306.183,611.122 L306.183,606.505 C306.183,605.441 306.183,604.814 306.107,604.263 C305.936,603.18 305.347,602.553 303.998,602.553 C302.839,602.553 301.243,603.275 300.16,604.244 L300.065,602.591 C299.229,602.591 297.861,602.819 297.044,603.047 L297.044,603.902 L298.944,603.902 L298.944,611.122 L297.177,611.274 L297.177,612.167 z" fill="#FFFFFF"/>
    <path d="M318.267,607.246 C318.267,604.13 316.918,602.496 314.087,602.496 C311.294,602.496 309.584,604.282 309.584,607.607 C309.584,610.628 311.161,612.452 313.821,612.452 C316.728,612.452 318.267,610.533 318.267,607.246 z M316.975,607.531 C316.975,610.172 315.683,611.35 313.935,611.35 C312.035,611.35 310.876,610.267 310.876,607.284 C310.876,605.156 311.921,603.598 314.011,603.598 C316.424,603.598 316.975,605.251 316.975,607.531 z" fill="#FFFFFF"/>
    <path d="M320.376,609.317 C320.376,610.362 320.433,611.331 320.547,611.939 C321.364,612.224 322.504,612.452 323.549,612.452 C325.791,612.452 327.045,611.217 327.045,609.621 C327.045,608.443 326.475,607.626 324.917,607.132 L323.416,606.638 C322.276,606.258 321.991,605.745 321.991,605.042 C321.991,604.358 322.504,603.541 324.024,603.541 C324.48,603.541 325.05,603.56 325.62,603.712 L325.943,605.441 L326.836,605.441 C326.836,604.586 326.817,603.37 326.703,602.819 C325.981,602.61 325.107,602.496 324.157,602.496 C321.877,602.496 320.718,603.731 320.718,605.156 C320.718,606.41 321.269,607.246 322.694,607.721 L324.062,608.158 C325.43,608.614 325.715,609.07 325.715,609.811 C325.715,610.723 324.917,611.369 323.549,611.369 C322.96,611.369 322.238,611.236 321.611,611.046 L321.288,609.317 z" fill="#FFFFFF"/>
    <path d="M334.474,611.939 L334.265,610.951 C333.771,611.065 333.239,611.141 332.821,611.141 C332.27,611.141 331.871,610.932 331.681,610.628 C331.491,610.324 331.396,609.83 331.396,608.804 L331.396,603.921 L333.961,603.921 L333.961,602.8 L331.396,602.8 L331.396,600.33 L330.218,600.425 C330.18,601.698 330.161,602.667 330.161,602.8 C329.591,602.8 328.831,602.838 328.242,602.914 L328.242,603.921 L330.142,603.921 L330.142,609.013 C330.142,610.172 330.275,610.989 330.56,611.445 C330.902,611.977 331.548,612.319 332.346,612.319 C333.106,612.319 333.847,612.167 334.474,611.939 z" fill="#FFFFFF"/>
    <path d="M337.001,601.527 L339.775,598.677 L338.255,598.677 L335.937,601.527 z M340.136,612.167 L340.136,611.274 L338.369,611.122 L338.369,602.591 C337.476,602.591 336.26,602.781 335.253,603.028 L335.253,603.902 L337.153,603.902 L337.153,611.122 L335.386,611.274 L335.386,612.167 z" fill="#FFFFFF"/>
    <path d="M170.618,632.246 C170.618,629.13 169.269,627.496 166.438,627.496 C163.645,627.496 161.935,629.282 161.935,632.607 C161.935,635.628 163.512,637.452 166.172,637.452 C169.079,637.452 170.618,635.533 170.618,632.246 z M169.326,632.531 C169.326,635.172 168.034,636.35 166.286,636.35 C164.386,636.35 163.227,635.267 163.227,632.284 C163.227,630.156 164.272,628.598 166.362,628.598 C168.775,628.598 169.326,630.251 169.326,632.531 z" fill="#FFFFFF"/>
    <path d="M182.816,636.179 L180.954,636.179 L180.954,623.126 C179.947,623.145 178.883,623.297 177.8,623.601 L177.8,624.456 L179.719,624.456 L179.719,627.952 C179.054,627.667 178.313,627.572 177.591,627.572 C175.159,627.572 172.898,628.883 172.898,632.664 C172.898,635.875 174.418,637.376 176.546,637.376 C177.952,637.376 178.959,636.749 179.757,635.951 L179.852,637.3 C180.84,637.3 181.923,637.186 182.816,637.015 z M179.719,635.02 C178.864,635.704 178.123,636.236 176.85,636.236 C175.482,636.236 174.209,635.495 174.209,632.512 C174.209,630.137 175.406,628.731 177.648,628.731 C178.351,628.731 179.092,628.883 179.719,629.111 z" fill="#FFFFFF"/>
    <path d="M192.829,637.167 L192.829,636.274 L191.081,636.122 L191.081,633.918 L192.791,632.398 L194.577,635.21 C194.9,635.723 195.299,636.274 195.641,636.578 C196.116,636.996 196.515,637.243 197.427,637.243 C197.712,637.243 198.13,637.186 198.377,637.129 L198.301,636.103 C198.13,636.141 197.94,636.141 197.826,636.141 C197.389,636.141 196.933,636.065 196.515,635.685 C196.173,635.381 195.774,634.83 195.394,634.241 L193.684,631.562 C194.596,630.688 195.432,629.795 196.344,628.807 L197.864,628.674 L197.864,627.8 L193.437,627.8 L193.437,628.674 L194.824,628.807 C193.551,630.251 192.354,631.448 191.081,632.683 L191.081,623.145 C190.112,623.145 188.877,623.335 187.984,623.601 L187.984,624.456 L189.865,624.456 L189.865,636.122 L188.117,636.274 L188.117,637.167 z" fill="#FFFFFF"/>
    <path d="M209.739,637.034 L209.739,636.198 L207.858,636.198 L207.858,627.61 C206.87,627.61 205.692,627.781 204.666,628.028 L204.666,628.883 L206.623,628.883 L206.623,634.792 C205.445,635.799 204.381,636.217 203.507,636.217 C202.671,636.217 202.082,635.875 201.949,635.21 C201.873,634.792 201.816,634.146 201.816,633.139 L201.816,627.61 C200.923,627.61 199.669,627.8 198.719,628.028 L198.719,628.883 L200.6,628.883 L200.6,633.405 C200.6,634.336 200.6,635.02 200.695,635.571 C200.866,636.692 201.531,637.395 203.051,637.395 C204.4,637.395 205.616,636.711 206.68,635.723 L206.775,637.319 C207.763,637.319 208.884,637.205 209.739,637.034 z" fill="#FFFFFF"/>
    <path d="M215.458,637.167 L215.458,636.274 L213.691,636.122 L213.691,623.145 C212.722,623.145 211.601,623.316 210.594,623.601 L210.594,624.456 L212.475,624.456 L212.475,636.122 L210.727,636.274 L210.727,637.167 z" fill="#FFFFFF"/>
    <path d="M226.06,636.16 L224.179,636.16 L224.179,631.087 C224.179,629.681 224.103,628.94 223.818,628.427 C223.438,627.762 222.583,627.496 221.538,627.496 C220.55,627.496 219.087,627.781 217.681,628.294 L217.89,629.301 C219.144,628.883 220.341,628.674 221.101,628.674 C222.051,628.674 222.393,628.864 222.678,629.206 C222.887,629.491 222.982,630.118 222.982,631.011 L222.982,631.695 C221.424,631.733 219.79,631.904 218.745,632.227 C217.624,632.588 216.978,633.405 216.978,634.507 C216.978,635.97 217.871,637.357 219.847,637.357 C221.139,637.357 222.26,636.825 223.039,635.97 L223.134,637.3 C224.103,637.3 225.414,637.148 226.06,636.996 z M223.001,635.039 C222.222,635.799 221.253,636.255 220.151,636.255 C219.087,636.255 218.251,635.685 218.251,634.507 C218.251,633.823 218.688,633.329 219.391,633.082 C220.208,632.797 221.709,632.664 223.001,632.626 z" fill="#FFFFFF"/>
    <path d="M232.881,636.939 L232.672,635.951 C232.178,636.065 231.646,636.141 231.228,636.141 C230.677,636.141 230.278,635.932 230.088,635.628 C229.898,635.324 229.803,634.83 229.803,633.804 L229.803,628.921 L232.368,628.921 L232.368,627.8 L229.803,627.8 L229.803,625.33 L228.625,625.425 C228.587,626.698 228.568,627.667 228.568,627.8 C227.998,627.8 227.238,627.838 226.649,627.914 L226.649,628.921 L228.549,628.921 L228.549,634.013 C228.549,635.172 228.682,635.989 228.967,636.445 C229.309,636.977 229.955,637.319 230.753,637.319 C231.513,637.319 232.254,637.167 232.881,636.939 z" fill="#FFFFFF"/>
    <path d="M234.325,642.088 C236.852,641.727 238.22,640.226 239.607,636.426 L242.362,628.845 L243.692,628.693 L243.692,627.8 L239.265,627.8 L239.265,628.693 L241.089,628.826 C239.55,633.025 239.113,634.431 238.562,636.027 C237.992,634.469 237.498,633.139 235.693,628.826 L237.498,628.693 L237.498,627.8 L233.052,627.8 L233.052,628.693 L234.363,628.845 L237.726,637.167 L238.03,637.167 C237.099,639.371 236.187,640.682 234.04,640.967 z M238.258,626.527 L241.032,623.677 L239.512,623.677 L237.194,626.527 z" fill="#FFFFFF"/>
    <path d="M252.622,636.027 L252.166,635.172 C251.121,635.875 250.304,636.274 249.069,636.274 C247.378,636.274 246.143,635.039 246.143,632.683 C246.143,630.08 247.302,628.598 249.373,628.598 C249.886,628.598 250.437,628.636 250.95,628.769 L251.197,630.593 L252.223,630.593 C252.223,629.434 252.223,628.275 252.128,627.857 C251.387,627.61 250.437,627.496 249.506,627.496 C246.808,627.496 244.851,629.206 244.851,632.797 C244.851,635.761 246.466,637.452 248.803,637.452 C250.342,637.452 251.501,636.882 252.622,636.027 z" fill="#FFFFFF"/>
    <path d="M258.303,637.167 L258.303,636.274 L256.536,636.122 L256.536,630.137 C257.828,629.111 259.025,628.75 259.861,628.75 C260.64,628.75 261.077,629.054 261.21,629.605 C261.305,630.023 261.343,630.726 261.343,631.828 L261.343,637.167 L264.459,637.167 L264.459,636.274 L262.559,636.122 L262.559,631.486 C262.559,630.441 262.559,629.795 262.483,629.263 C262.331,628.18 261.723,627.553 260.355,627.553 C259.253,627.553 257.657,628.256 256.517,629.244 L256.517,623.145 C255.624,623.145 254.408,623.316 253.439,623.601 L253.439,624.456 L255.32,624.456 L255.32,636.122 L253.572,636.274 L253.572,637.167 z" fill="#FFFFFF"/>
    <path d="M275.251,637.167 L275.251,636.274 L273.123,636.122 L273.123,630.384 C273.94,629.396 275.061,628.826 276.201,628.826 C276.334,628.826 276.695,628.864 276.847,628.883 L276.847,627.591 C276.657,627.572 276.429,627.553 276.258,627.553 C274.966,627.553 273.655,628.465 273.104,629.415 L273.028,627.591 C271.831,627.591 270.482,627.895 270.007,628.047 L270.007,628.921 L271.907,628.921 L271.907,636.122 L270.14,636.274 L270.14,637.167 z" fill="#FFFFFF"/>
    <path d="M286.86,632.246 C286.86,629.13 285.511,627.496 282.68,627.496 C279.887,627.496 278.177,629.282 278.177,632.607 C278.177,635.628 279.754,637.452 282.414,637.452 C285.321,637.452 286.86,635.533 286.86,632.246 z M285.568,632.531 C285.568,635.172 284.276,636.35 282.528,636.35 C280.628,636.35 279.469,635.267 279.469,632.284 C279.469,630.156 280.514,628.598 282.604,628.598 C285.017,628.598 285.568,630.251 285.568,632.531 z" fill="#FFFFFF"/>
    <path d="M293.301,637.167 L293.301,636.274 L291.534,636.122 L291.534,630.137 C292.826,629.111 294.023,628.75 294.859,628.75 C295.638,628.75 296.075,629.054 296.208,629.605 C296.303,630.023 296.341,630.726 296.341,631.828 L296.341,637.167 L299.457,637.167 L299.457,636.274 L297.557,636.122 L297.557,631.486 C297.557,630.441 297.557,629.795 297.481,629.263 C297.329,628.18 296.721,627.553 295.353,627.553 C294.251,627.553 292.655,628.256 291.515,629.244 L291.515,623.145 C290.622,623.145 289.406,623.316 288.437,623.601 L288.437,624.456 L290.318,624.456 L290.318,636.122 L288.57,636.274 L288.57,637.167 z" fill="#FFFFFF"/>
    <path d="M311.104,637.034 L311.104,636.198 L309.223,636.198 L309.223,627.61 C308.235,627.61 307.057,627.781 306.031,628.028 L306.031,628.883 L307.988,628.883 L307.988,634.792 C306.81,635.799 305.746,636.217 304.872,636.217 C304.036,636.217 303.447,635.875 303.314,635.21 C303.238,634.792 303.181,634.146 303.181,633.139 L303.181,627.61 C302.288,627.61 301.034,627.8 300.084,628.028 L300.084,628.883 L301.965,628.883 L301.965,633.405 C301.965,634.336 301.965,635.02 302.06,635.571 C302.231,636.692 302.896,637.395 304.416,637.395 C305.765,637.395 306.981,636.711 308.045,635.723 L308.14,637.319 C309.128,637.319 310.249,637.205 311.104,637.034 z M306.924,625.064 C306.924,624.057 306.297,623.392 305.271,623.392 C304.302,623.392 303.58,624.095 303.58,625.102 C303.58,626.052 304.264,626.812 305.252,626.812 C306.259,626.812 306.924,625.995 306.924,625.064 z M306.316,625.083 C306.316,625.729 305.955,626.223 305.29,626.223 C304.549,626.223 304.207,625.729 304.207,625.102 C304.207,624.437 304.587,623.962 305.252,623.962 C305.898,623.962 306.316,624.399 306.316,625.083 z" fill="#FFFFFF"/>
    <path d="M321.402,641.841 L321.402,640.929 L319.255,640.777 L319.255,636.92 C320.034,637.224 320.775,637.338 321.725,637.338 C324.271,637.338 326,635.799 326,632.113 C326,629.054 324.898,627.534 322.903,627.534 C321.497,627.534 320.167,628.313 319.255,629.054 L319.16,627.591 C318.153,627.61 317.165,627.762 316.158,628.028 L316.158,628.883 L318.039,628.883 L318.039,640.777 L316.272,640.929 L316.272,641.841 z M319.255,635.704 L319.255,629.966 C320.224,629.32 321.269,628.712 322.428,628.712 C324.195,628.712 324.689,630.232 324.689,632.341 C324.689,634.773 323.739,636.236 321.687,636.236 C320.718,636.236 319.958,636.065 319.255,635.704 z" fill="#FFFFFF"/>
    <path d="M336.963,632.246 C336.963,629.13 335.614,627.496 332.783,627.496 C329.99,627.496 328.28,629.282 328.28,632.607 C328.28,635.628 329.857,637.452 332.517,637.452 C335.424,637.452 336.963,635.533 336.963,632.246 z M335.671,632.531 C335.671,635.172 334.379,636.35 332.631,636.35 C330.731,636.35 329.572,635.267 329.572,632.284 C329.572,630.156 330.617,628.598 332.707,628.598 C335.12,628.598 335.671,630.251 335.671,632.531 z" fill="#FFFFFF"/>
    <path d="M183.937,662.167 L183.937,661.255 L181.562,661.103 L181.562,656.258 L186.369,656.258 L186.369,655.061 L181.562,655.061 L181.562,650.52 L186.559,650.52 L186.787,652.534 L187.737,652.534 C187.737,650.976 187.699,649.741 187.585,649.323 L178.275,649.323 L178.275,650.235 L180.251,650.387 L180.251,661.103 L178.275,661.255 L178.275,662.167 z" fill="#FFFFFF"/>
    <path d="M193.779,662.167 L193.779,661.274 L192.012,661.122 L192.012,648.145 C191.043,648.145 189.922,648.316 188.915,648.601 L188.915,649.456 L190.796,649.456 L190.796,661.122 L189.048,661.274 L189.048,662.167 z" fill="#FFFFFF"/>
    <path d="M203.64,660.97 L203.165,660.096 C202.234,660.78 201.208,661.312 199.783,661.312 C198.035,661.312 196.648,660.229 196.648,657.664 L196.648,657.398 L203.431,657.398 C203.45,657.113 203.469,656.828 203.469,656.619 C203.469,654.434 202.728,652.496 199.84,652.496 C197.484,652.496 195.356,654.073 195.356,657.569 C195.356,660.419 196.876,662.452 199.574,662.452 C201.303,662.452 202.443,661.844 203.64,660.97 z M202.215,656.391 L196.705,656.391 C196.99,654.358 198.358,653.541 199.821,653.541 C201.645,653.541 202.234,654.719 202.234,655.954 C202.234,656.106 202.234,656.258 202.215,656.391 z" fill="#FFFFFF"/>
    <path d="M208.789,662.167 L208.789,661.274 L207.003,661.122 L209.378,657.987 L211.981,661.122 L210.29,661.274 L210.29,662.167 L214.793,662.167 L214.793,661.274 L213.501,661.122 L210.347,657.284 L213.083,653.807 L214.337,653.674 L214.337,652.8 L210.195,652.8 L210.195,653.674 L211.81,653.807 L209.625,656.619 L207.383,653.807 L208.884,653.674 L208.884,652.8 L204.628,652.8 L204.628,653.674 L205.882,653.826 L208.656,657.284 L205.73,661.122 L204.381,661.274 L204.381,662.167 z" fill="#FFFFFF"/>
    <path d="M217.035,661.768 C218.27,662.205 219.258,662.433 220.626,662.433 C223.381,662.433 224.996,660.799 224.996,657.132 C224.996,654.092 223.856,652.553 221.842,652.553 C220.417,652.553 219.106,653.37 218.251,654.073 L218.251,648.145 C217.358,648.145 216.123,648.335 215.135,648.601 L215.135,649.456 L217.035,649.456 z M218.251,660.913 L218.251,654.966 C219.239,654.301 220.246,653.731 221.462,653.731 C223.096,653.731 223.685,655.27 223.685,657.36 C223.685,659.754 222.868,661.293 220.588,661.293 C219.714,661.293 218.954,661.16 218.251,660.913 z" fill="#FFFFFF"/>
    <path d="M235.959,657.246 C235.959,654.13 234.61,652.496 231.779,652.496 C228.986,652.496 227.276,654.282 227.276,657.607 C227.276,660.628 228.853,662.452 231.513,662.452 C234.42,662.452 235.959,660.533 235.959,657.246 z M234.667,657.531 C234.667,660.172 233.375,661.35 231.627,661.35 C229.727,661.35 228.568,660.267 228.568,657.284 C228.568,655.156 229.613,653.598 231.703,653.598 C234.116,653.598 234.667,655.251 234.667,657.531 z" fill="#FFFFFF"/>
    <path d="M241.716,662.167 L241.716,661.274 L239.93,661.122 L242.305,657.987 L244.908,661.122 L243.217,661.274 L243.217,662.167 L247.72,662.167 L247.72,661.274 L246.428,661.122 L243.274,657.284 L246.01,653.807 L247.264,653.674 L247.264,652.8 L243.122,652.8 L243.122,653.674 L244.737,653.807 L242.552,656.619 L240.31,653.807 L241.811,653.674 L241.811,652.8 L237.555,652.8 L237.555,653.674 L238.809,653.826 L241.583,657.284 L238.657,661.122 L237.308,661.274 L237.308,662.167 z" fill="#FFFFFF"/>
    <path d="M257.619,662.167 L257.619,661.274 L255.852,661.122 L255.852,648.145 C254.883,648.145 253.762,648.316 252.755,648.601 L252.755,649.456 L254.636,649.456 L254.636,661.122 L252.888,661.274 L252.888,662.167 z" fill="#FFFFFF"/>
    <path d="M268.221,661.16 L266.34,661.16 L266.34,656.087 C266.34,654.681 266.264,653.94 265.979,653.427 C265.599,652.762 264.744,652.496 263.699,652.496 C262.711,652.496 261.248,652.781 259.842,653.294 L260.051,654.301 C261.305,653.883 262.502,653.674 263.262,653.674 C264.212,653.674 264.554,653.864 264.839,654.206 C265.048,654.491 265.143,655.118 265.143,656.011 L265.143,656.695 C263.585,656.733 261.951,656.904 260.906,657.227 C259.785,657.588 259.139,658.405 259.139,659.507 C259.139,660.97 260.032,662.357 262.008,662.357 C263.3,662.357 264.421,661.825 265.2,660.97 L265.295,662.3 C266.264,662.3 267.575,662.148 268.221,661.996 z M265.162,660.039 C264.383,660.799 263.414,661.255 262.312,661.255 C261.248,661.255 260.412,660.685 260.412,659.507 C260.412,658.823 260.849,658.329 261.552,658.082 C262.369,657.797 263.87,657.664 265.162,657.626 z" fill="#FFFFFF"/>
    <path d="M269.684,667.088 C272.211,666.727 273.579,665.226 274.966,661.426 L277.721,653.845 L279.051,653.693 L279.051,652.8 L274.624,652.8 L274.624,653.693 L276.448,653.826 C274.909,658.025 274.472,659.431 273.921,661.027 C273.351,659.469 272.857,658.139 271.052,653.826 L272.857,653.693 L272.857,652.8 L268.411,652.8 L268.411,653.693 L269.722,653.845 L273.085,662.167 L273.389,662.167 C272.458,664.371 271.546,665.682 269.399,665.967 z" fill="#FFFFFF"/>
    <path d="M288.893,657.246 C288.893,654.13 287.544,652.496 284.713,652.496 C281.92,652.496 280.21,654.282 280.21,657.607 C280.21,660.628 281.787,662.452 284.447,662.452 C287.354,662.452 288.893,660.533 288.893,657.246 z M287.601,657.531 C287.601,660.172 286.309,661.35 284.561,661.35 C282.661,661.35 281.502,660.267 281.502,657.284 C281.502,655.156 282.547,653.598 284.637,653.598 C287.05,653.598 287.601,655.251 287.601,657.531 z" fill="#FFFFFF"/>
    <path d="M301.3,662.034 L301.3,661.198 L299.419,661.198 L299.419,652.61 C298.431,652.61 297.253,652.781 296.227,653.028 L296.227,653.883 L298.184,653.883 L298.184,659.792 C297.006,660.799 295.942,661.217 295.068,661.217 C294.232,661.217 293.643,660.875 293.51,660.21 C293.434,659.792 293.377,659.146 293.377,658.139 L293.377,652.61 C292.484,652.61 291.23,652.8 290.28,653.028 L290.28,653.883 L292.161,653.883 L292.161,658.405 C292.161,659.336 292.161,660.02 292.256,660.571 C292.427,661.692 293.092,662.395 294.612,662.395 C295.961,662.395 297.177,661.711 298.241,660.723 L298.336,662.319 C299.324,662.319 300.445,662.205 301.3,662.034 z" fill="#FFFFFF"/>
    <path d="M308.178,661.939 L307.969,660.951 C307.475,661.065 306.943,661.141 306.525,661.141 C305.974,661.141 305.575,660.932 305.385,660.628 C305.195,660.324 305.1,659.83 305.1,658.804 L305.1,653.921 L307.665,653.921 L307.665,652.8 L305.1,652.8 L305.1,650.33 L303.922,650.425 C303.884,651.698 303.865,652.667 303.865,652.8 C303.295,652.8 302.535,652.838 301.946,652.914 L301.946,653.921 L303.846,653.921 L303.846,659.013 C303.846,660.172 303.979,660.989 304.264,661.445 C304.606,661.977 305.252,662.319 306.05,662.319 C306.81,662.319 307.551,662.167 308.178,661.939 z" fill="#FFFFFF"/>
    <path d="M309.622,667.088 C312.149,666.727 313.517,665.226 314.904,661.426 L317.659,653.845 L318.989,653.693 L318.989,652.8 L314.562,652.8 L314.562,653.693 L316.386,653.826 C314.847,658.025 314.41,659.431 313.859,661.027 C313.289,659.469 312.795,658.139 310.99,653.826 L312.795,653.693 L312.795,652.8 L308.349,652.8 L308.349,653.693 L309.66,653.845 L313.023,662.167 L313.327,662.167 C312.396,664.371 311.484,665.682 309.337,665.967 z" fill="#FFFFFF"/>
    <path d="M320.414,661.293 C320.414,660.533 319.939,660.286 319.502,660.286 C319.046,660.286 318.571,660.571 318.571,661.293 C318.571,662.034 319.103,662.3 319.483,662.3 C319.996,662.3 320.414,661.996 320.414,661.293 z" fill="#FFFFFF"/>
    <path d="M498.898,0 L498.898,708.661 L0,708.661 L0,0 L498.898,0 z M493.898,5 L5,5 L5,703.661 L493.898,703.661 L493.898,5 z" fill="#FFFFFF" display="none"/>
  </g>
  <g id="Vzhůru_do_CSS3">
    <path d="M79.051,493.608 L89.537,466.021 L93.065,465.629 L93.065,460.484 L76.062,460.484 L76.062,465.629 L80.962,466.021 C75.425,481.946 74.935,483.465 74.445,484.886 C73.955,483.122 73.563,481.946 68.173,466.021 L72.975,465.629 L72.975,460.484 L55.58,460.484 L55.58,465.629 L59.01,466.021 L69.349,493.608 z" fill="#FFFFFF"/>
    <path d="M117.908,493.608 C118.153,492.481 118.496,489.394 118.496,482.926 L113.106,482.926 L112.175,488.071 L104.58,488.071 C107.128,485.425 109.284,483.122 117.467,473.959 L117.467,468.961 L95.711,468.961 C95.368,470.137 95.074,472.832 95.074,479.055 L100.268,479.055 L101.248,474.302 L107.079,474.302 C104.335,477.242 102.081,479.986 94.584,488.659 L94.584,493.608 z" fill="#FFFFFF"/>
    <path d="M136.871,493.608 L136.871,488.512 L132.804,488.071 L132.804,475.625 C134.323,475.037 136.136,474.792 137.606,474.792 C138.635,474.792 139.468,475.086 139.664,476.164 C139.811,476.997 139.811,478.614 139.811,480.966 L139.811,493.608 L151.669,493.608 L151.669,488.512 L147.553,488.071 L147.553,479.153 C147.553,476.409 147.553,474.302 147.357,472.93 C146.965,469.99 145.446,468.275 141.771,468.275 C139.566,468.275 135.499,469.696 132.755,471.607 L132.755,457.299 C129.423,457.299 124.425,458.181 120.946,459.21 L120.946,464.208 L125.16,464.208 L125.16,488.071 L121.387,488.512 L121.387,493.608 z" fill="#FFFFFF"/>
    <path d="M182.686,493.069 L182.686,488.267 L178.766,488.267 L178.766,468.471 C174.846,468.471 170.436,469.108 166.908,469.941 L166.908,474.743 L170.975,474.743 L170.975,486.944 C169.309,487.532 167.888,487.826 166.467,487.826 C165.144,487.826 164.311,487.091 164.115,485.964 C163.968,485.131 163.968,483.906 163.968,481.603 L163.968,468.471 C160.391,468.471 155.981,469.059 152.257,469.892 L152.257,474.743 L156.226,474.743 L156.226,483.22 C156.226,485.523 156.275,487.63 156.422,489.051 C156.814,492.236 158.676,494.294 162.939,494.294 C165.732,494.294 168.672,493.069 171.318,491.011 L171.808,494.049 C175.581,494.049 180.53,493.559 182.686,493.069 z M171.563,462.395 C171.563,459.7 169.897,457.936 167.055,457.936 C164.409,457.936 162.4,459.798 162.4,462.493 C162.4,464.992 164.311,467.05 167.006,467.05 C169.75,467.05 171.563,464.845 171.563,462.395 z M169.456,462.444 C169.456,463.914 168.574,465.041 167.104,465.041 C165.438,465.041 164.605,463.914 164.605,462.493 C164.605,460.974 165.536,459.896 167.006,459.896 C168.427,459.896 169.456,460.876 169.456,462.444 z" fill="#FFFFFF"/>
    <path d="M201.404,493.608 L201.404,488.512 L196.651,488.022 L196.651,476.213 C198.366,475.38 200.571,475.037 202.433,475.037 C203.805,475.037 204.785,475.135 205.226,475.184 L205.226,468.422 C204.785,468.373 204.099,468.324 203.658,468.324 C200.62,468.324 197.974,469.941 196.553,472.391 L196.553,468.226 C192.731,468.275 188.37,468.912 184.793,470.088 L184.793,475.086 L189.007,475.086 L189.007,488.071 L184.989,488.512 L184.989,493.608 z" fill="#FFFFFF"/>
    <path d="M236.684,493.069 L236.684,488.267 L232.764,488.267 L232.764,468.471 C228.844,468.471 224.434,469.108 220.906,469.941 L220.906,474.743 L224.973,474.743 L224.973,486.944 C223.307,487.532 221.886,487.826 220.465,487.826 C219.142,487.826 218.309,487.091 218.113,485.964 C217.966,485.131 217.966,483.906 217.966,481.603 L217.966,468.471 C214.389,468.471 209.979,469.059 206.255,469.892 L206.255,474.743 L210.224,474.743 L210.224,483.22 C210.224,485.523 210.273,487.63 210.42,489.051 C210.812,492.236 212.674,494.294 216.937,494.294 C219.73,494.294 222.67,493.069 225.316,491.011 L225.806,494.049 C229.579,494.049 234.528,493.559 236.684,493.069 z" fill="#FFFFFF"/>
    <path d="M278.726,488.267 L274.806,488.267 L274.806,457.25 C270.837,457.299 266.427,458.132 262.458,459.21 L262.458,464.208 L267.015,464.208 L267.015,469.059 C265.839,468.618 263.879,468.422 262.605,468.422 C256.48,468.422 250.845,472.097 250.845,481.848 C250.845,489.59 254.961,494.098 260.449,494.098 C263.144,494.098 265.447,493.02 267.407,491.207 L267.848,494.049 C271.523,494.049 275.639,493.706 278.726,493.069 z M267.015,486.748 C265.447,487.581 264.075,487.973 263.095,487.973 C260.694,487.973 258.832,486.699 258.832,481.456 C258.832,475.821 261.331,474.792 263.83,474.792 C264.712,474.792 265.839,474.89 267.015,475.135 z" fill="#FFFFFF"/>
    <path d="M307.636,480.623 C307.636,472.587 303.814,468.128 295.484,468.128 C286.272,468.128 281.813,472.832 281.813,481.75 C281.813,489.933 286.37,494.392 294.308,494.392 C303.128,494.392 307.636,489.541 307.636,480.623 z M299.404,481.505 C299.404,487.14 297.591,488.659 294.553,488.659 C291.711,488.659 289.849,487.189 289.849,480.966 C289.849,476.556 291.123,473.812 294.847,473.812 C298.718,473.812 299.404,476.703 299.404,481.505 z" fill="#FFFFFF"/>
    <path d="M352.765,489.198 L349.384,484.298 C345.905,486.748 342.181,487.483 339.829,487.483 C334.733,487.483 331.891,483.71 331.891,477.585 C331.891,469.255 335.566,466.168 340.956,466.168 C342.034,466.168 343.553,466.315 344.876,466.756 L345.562,472.244 L351.54,472.244 C351.54,464.649 351.393,462.395 351.05,460.827 C347.767,460.043 344.876,459.602 340.172,459.602 C329.147,459.602 323.267,466.266 323.267,477.879 C323.267,488.12 329.049,494.49 338.261,494.49 C343.994,494.49 348.943,492.187 352.765,489.198 z" fill="#FFFFFF"/>
    <path d="M355.999,481.309 C355.999,487.042 356.244,490.57 356.685,492.677 C359.184,493.755 363.153,494.49 368.249,494.49 C378.147,494.49 382.312,489.737 382.312,484.347 C382.312,479.3 380.94,476.752 372.708,473.812 L368.543,472.293 C366.289,471.509 365.799,470.48 365.799,469.01 C365.799,467.589 366.828,466.119 370.699,466.119 C372.12,466.119 373.933,466.364 375.354,466.756 L375.942,472.048 L381.626,472.048 C381.626,466.658 381.528,461.905 381.136,460.827 C378.637,460.19 374.57,459.651 371.385,459.651 C361.144,459.651 357.224,464.355 357.224,470.039 C357.224,476.115 360.703,478.467 365.456,479.937 L369.768,481.211 C372.61,482.093 373.492,483.171 373.492,484.886 C373.492,486.65 372.316,487.973 369.229,487.973 C367.073,487.973 364.917,487.679 362.663,486.993 L361.879,481.309 z" fill="#FFFFFF"/>
    <path d="M385.938,481.309 C385.938,487.042 386.183,490.57 386.624,492.677 C389.123,493.755 393.092,494.49 398.188,494.49 C408.086,494.49 412.251,489.737 412.251,484.347 C412.251,479.3 410.879,476.752 402.647,473.812 L398.482,472.293 C396.228,471.509 395.738,470.48 395.738,469.01 C395.738,467.589 396.767,466.119 400.638,466.119 C402.059,466.119 403.872,466.364 405.293,466.756 L405.881,472.048 L411.565,472.048 C411.565,466.658 411.467,461.905 411.075,460.827 C408.576,460.19 404.509,459.651 401.324,459.651 C391.083,459.651 387.163,464.355 387.163,470.039 C387.163,476.115 390.642,478.467 395.395,479.937 L399.707,481.211 C402.549,482.093 403.431,483.171 403.431,484.886 C403.431,486.65 402.255,487.973 399.168,487.973 C397.012,487.973 394.856,487.679 392.602,486.993 L391.818,481.309 z" fill="#FFFFFF"/>
    <path d="M415.828,493.265 C417.69,493.853 421.904,494.441 424.599,494.441 C435.428,494.441 440.475,490.668 440.475,483.514 C440.475,479.692 438.074,476.85 433.566,476.262 C437.584,474.988 439.348,471.901 439.348,469.5 C439.348,464.453 436.212,461.366 428.764,461.366 C425.236,461.366 420.238,462.689 416.563,464.453 L418.768,469.745 C422.394,468.177 425.677,467.883 427.294,467.883 C430.038,467.883 431.41,468.765 431.41,470.627 C431.41,472.93 429.401,474.547 422.296,474.792 L422.59,480.77 C423.57,480.672 425.824,480.574 426.559,480.574 C430.724,480.574 431.802,481.946 431.802,483.857 C431.802,486.307 430.381,487.924 423.619,487.924 C421.512,487.924 418.278,487.336 417.151,486.993 z" fill="#FFFFFF"/>
  </g>
  <g id="Logo">
    <g>
      <path d="M257.901,253.26 L206.02,279.73 L190.942,287.413 L192.763,306.2 L278.433,306.2 L275.206,339.285 L249.467,345.904 L226.369,339.285 L223.692,319.434 L194.078,319.434 L197.932,359.138 L249.449,372.372 L300.966,359.138 L308.676,279.73 L262.327,279.73 L311.133,254.654 L313.844,226.79 L185.053,226.79 L187.633,253.26 z" fill="#75D310"/>
      <path d="M317.675,375.258 L249.338,394.208 L181.186,375.288 L166.006,204.951 L332.889,204.951 z M146.752,183.115 L165.431,392.758 L249.313,416.046 L333.419,392.722 L352.145,183.115 z" fill="#75D310"/>
    </g>
  </g>
  <g id="Autor">
    <path d="M181.932,59.5 L181.932,58.588 L179.918,58.455 C180.07,51.482 180.108,50.209 180.127,47.967 C180.659,49.278 181.191,50.608 184.174,57.353 L185.181,57.353 C187.974,50.931 188.601,49.297 189.133,47.929 C189.152,49.924 189.209,51.368 189.399,58.455 L187.404,58.588 L187.404,59.5 L192.591,59.5 L192.591,58.588 L190.729,58.455 L190.387,47.701 L192.325,47.568 L192.325,46.656 L188.449,46.656 C185.941,52.337 185.257,54.047 184.706,55.548 C184.212,54.161 183.547,52.584 180.906,46.656 L176.954,46.656 L176.954,47.568 L178.911,47.701 L178.607,58.455 L176.745,58.588 L176.745,59.5 z" fill="#FFFFFF"/>
    <path d="M203.478,58.493 L201.597,58.493 L201.597,53.42 C201.597,52.014 201.521,51.273 201.236,50.76 C200.856,50.095 200.001,49.829 198.956,49.829 C197.968,49.829 196.505,50.114 195.099,50.627 L195.308,51.634 C196.562,51.216 197.759,51.007 198.519,51.007 C199.469,51.007 199.811,51.197 200.096,51.539 C200.305,51.824 200.4,52.451 200.4,53.344 L200.4,54.028 C198.842,54.066 197.208,54.237 196.163,54.56 C195.042,54.921 194.396,55.738 194.396,56.84 C194.396,58.303 195.289,59.69 197.265,59.69 C198.557,59.69 199.678,59.158 200.457,58.303 L200.552,59.633 C201.521,59.633 202.832,59.481 203.478,59.329 z M200.419,57.372 C199.64,58.132 198.671,58.588 197.569,58.588 C196.505,58.588 195.669,58.018 195.669,56.84 C195.669,56.156 196.106,55.662 196.809,55.415 C197.626,55.13 199.127,54.997 200.419,54.959 z" fill="#FFFFFF"/>
    <path d="M209.71,59.5 L209.71,58.607 L207.582,58.455 L207.582,52.717 C208.399,51.729 209.52,51.159 210.66,51.159 C210.793,51.159 211.154,51.197 211.306,51.216 L211.306,49.924 C211.116,49.905 210.888,49.886 210.717,49.886 C209.425,49.886 208.114,50.798 207.563,51.748 L207.487,49.924 C206.29,49.924 204.941,50.228 204.466,50.38 L204.466,51.254 L206.366,51.254 L206.366,58.455 L204.599,58.607 L204.599,59.5 z" fill="#FFFFFF"/>
    <path d="M218.754,59.272 L218.545,58.284 C218.051,58.398 217.519,58.474 217.101,58.474 C216.55,58.474 216.151,58.265 215.961,57.961 C215.771,57.657 215.676,57.163 215.676,56.137 L215.676,51.254 L218.241,51.254 L218.241,50.133 L215.676,50.133 L215.676,47.663 L214.498,47.758 C214.46,49.031 214.441,50 214.441,50.133 C213.871,50.133 213.111,50.171 212.522,50.247 L212.522,51.254 L214.422,51.254 L214.422,56.346 C214.422,57.505 214.555,58.322 214.84,58.778 C215.182,59.31 215.828,59.652 216.626,59.652 C217.386,59.652 218.127,59.5 218.754,59.272 z" fill="#FFFFFF"/>
    <path d="M222.668,47.34 C222.668,46.618 222.269,46.371 221.794,46.371 C221.338,46.371 220.92,46.675 220.92,47.34 C220.92,48.043 221.376,48.271 221.775,48.271 C222.269,48.271 222.668,47.986 222.668,47.34 z M224.416,59.5 L224.416,58.607 L222.649,58.455 L222.649,49.924 C221.756,49.924 220.54,50.114 219.533,50.361 L219.533,51.235 L221.433,51.235 L221.433,58.455 L219.666,58.607 L219.666,59.5 z" fill="#FFFFFF"/>
    <path d="M230.344,59.5 L230.344,58.607 L228.577,58.455 L228.577,52.451 C229.888,51.444 231.047,51.083 231.921,51.083 C232.681,51.083 233.099,51.387 233.232,51.938 C233.327,52.356 233.384,53.059 233.384,54.161 L233.384,59.5 L236.5,59.5 L236.5,58.607 L234.6,58.455 L234.6,53.838 C234.6,52.774 234.6,52.147 234.524,51.596 C234.353,50.513 233.764,49.886 232.415,49.886 C231.256,49.886 229.66,50.608 228.577,51.577 L228.482,49.924 C227.646,49.924 226.278,50.152 225.461,50.38 L225.461,51.235 L227.361,51.235 L227.361,58.455 L225.594,58.607 L225.594,59.5 z" fill="#FFFFFF"/>
    <path d="M247.235,59.5 L247.235,58.588 L245.221,58.455 C245.373,51.482 245.411,50.209 245.43,47.967 C245.962,49.278 246.494,50.608 249.477,57.353 L250.484,57.353 C253.277,50.931 253.904,49.297 254.436,47.929 C254.455,49.924 254.512,51.368 254.702,58.455 L252.707,58.588 L252.707,59.5 L257.894,59.5 L257.894,58.588 L256.032,58.455 L255.69,47.701 L257.628,47.568 L257.628,46.656 L253.752,46.656 C251.244,52.337 250.56,54.047 250.009,55.548 C249.515,54.161 248.85,52.584 246.209,46.656 L242.257,46.656 L242.257,47.568 L244.214,47.701 L243.91,58.455 L242.048,58.588 L242.048,59.5 z" fill="#FFFFFF"/>
    <path d="M262.321,47.34 C262.321,46.618 261.922,46.371 261.447,46.371 C260.991,46.371 260.573,46.675 260.573,47.34 C260.573,48.043 261.029,48.271 261.428,48.271 C261.922,48.271 262.321,47.986 262.321,47.34 z M264.069,59.5 L264.069,58.607 L262.302,58.455 L262.302,49.924 C261.409,49.924 260.193,50.114 259.186,50.361 L259.186,51.235 L261.086,51.235 L261.086,58.455 L259.319,58.607 L259.319,59.5 z" fill="#FFFFFF"/>
    <path d="M273.398,58.36 L272.942,57.505 C271.897,58.208 271.08,58.607 269.845,58.607 C268.154,58.607 266.919,57.372 266.919,55.016 C266.919,52.413 268.078,50.931 270.149,50.931 C270.662,50.931 271.213,50.969 271.726,51.102 L271.973,52.926 L272.999,52.926 C272.999,51.767 272.999,50.608 272.904,50.19 C272.163,49.943 271.213,49.829 270.282,49.829 C267.584,49.829 265.627,51.539 265.627,55.13 C265.627,58.094 267.242,59.785 269.579,59.785 C271.118,59.785 272.277,59.215 273.398,58.36 z" fill="#FFFFFF"/>
    <path d="M279.079,59.5 L279.079,58.607 L277.312,58.455 L277.312,52.47 C278.604,51.444 279.801,51.083 280.637,51.083 C281.416,51.083 281.853,51.387 281.986,51.938 C282.081,52.356 282.119,53.059 282.119,54.161 L282.119,59.5 L285.235,59.5 L285.235,58.607 L283.335,58.455 L283.335,53.819 C283.335,52.774 283.335,52.128 283.259,51.596 C283.107,50.513 282.499,49.886 281.131,49.886 C280.029,49.886 278.433,50.589 277.293,51.577 L277.293,45.478 C276.4,45.478 275.184,45.649 274.215,45.934 L274.215,46.789 L276.096,46.789 L276.096,58.455 L274.348,58.607 L274.348,59.5 z" fill="#FFFFFF"/>
    <path d="M295.837,58.493 L293.956,58.493 L293.956,53.42 C293.956,52.014 293.88,51.273 293.595,50.76 C293.215,50.095 292.36,49.829 291.315,49.829 C290.327,49.829 288.864,50.114 287.458,50.627 L287.667,51.634 C288.921,51.216 290.118,51.007 290.878,51.007 C291.828,51.007 292.17,51.197 292.455,51.539 C292.664,51.824 292.759,52.451 292.759,53.344 L292.759,54.028 C291.201,54.066 289.567,54.237 288.522,54.56 C287.401,54.921 286.755,55.738 286.755,56.84 C286.755,58.303 287.648,59.69 289.624,59.69 C290.916,59.69 292.037,59.158 292.816,58.303 L292.911,59.633 C293.88,59.633 295.191,59.481 295.837,59.329 z M292.778,57.372 C291.999,58.132 291.03,58.588 289.928,58.588 C288.864,58.588 288.028,58.018 288.028,56.84 C288.028,56.156 288.465,55.662 289.168,55.415 C289.985,55.13 291.486,54.997 292.778,54.959 z M290.821,48.86 L293.595,46.01 L292.075,46.01 L289.757,48.86 z" fill="#FFFFFF"/>
    <path d="M301.499,59.5 L301.499,58.607 L299.732,58.455 L299.732,45.478 C298.763,45.478 297.642,45.649 296.635,45.934 L296.635,46.789 L298.516,46.789 L298.516,58.455 L296.768,58.607 L296.768,59.5 z" fill="#FFFFFF"/>
    <path d="M311.36,58.303 L310.885,57.429 C309.954,58.113 308.928,58.645 307.503,58.645 C305.755,58.645 304.368,57.562 304.368,54.997 L304.368,54.731 L311.151,54.731 C311.17,54.446 311.189,54.161 311.189,53.952 C311.189,51.767 310.448,49.829 307.56,49.829 C305.204,49.829 303.076,51.406 303.076,54.902 C303.076,57.752 304.596,59.785 307.294,59.785 C309.023,59.785 310.163,59.177 311.36,58.303 z M309.935,53.724 L304.425,53.724 C304.71,51.691 306.078,50.874 307.541,50.874 C309.365,50.874 309.954,52.052 309.954,53.287 C309.954,53.439 309.954,53.591 309.935,53.724 z" fill="#FFFFFF"/>
    <path d="M317.155,59.5 L317.155,58.607 L315.407,58.455 L315.407,56.251 L317.117,54.731 L318.903,57.543 C319.226,58.056 319.625,58.607 319.967,58.911 C320.442,59.329 320.841,59.576 321.753,59.576 C322.038,59.576 322.456,59.519 322.703,59.462 L322.627,58.436 C322.456,58.474 322.266,58.474 322.152,58.474 C321.715,58.474 321.259,58.398 320.841,58.018 C320.499,57.714 320.1,57.163 319.72,56.574 L318.01,53.895 C318.922,53.021 319.758,52.128 320.67,51.14 L322.19,51.007 L322.19,50.133 L317.763,50.133 L317.763,51.007 L319.15,51.14 C317.877,52.584 316.68,53.781 315.407,55.016 L315.407,45.478 C314.438,45.478 313.203,45.668 312.31,45.934 L312.31,46.789 L314.191,46.789 L314.191,58.455 L312.443,58.607 L312.443,59.5 z" fill="#FFFFFF"/>
  </g>
</svg>
