<?xml version="1.0" encoding="utf-8"?>
<!-- Generator: Adobe Illustrator 15.0.0, SVG Export Plug-In . SVG Version: 6.00 Build 0)  -->
<!DOCTYPE svg PUBLIC "-//W3C//DTD SVG 1.1//EN" "http://www.w3.org/Graphics/SVG/1.1/DTD/svg11.dtd">
<svg version="1.1" xmlns="http://www.w3.org/2000/svg" xmlns:xlink="http://www.w3.org/1999/xlink" x="0px" y="0px"
	 width="1131.55px" height="95.102px" viewBox="0 0 1131.55 95.102" enable-background="new 0 0 1131.55 95.102"
	 xml:space="preserve">
<g id="Layer">
</g>
<g id="Row_10">
</g>
<g id="zip.png">
	<path fill-rule="evenodd" clip-rule="evenodd" fill="#575756" d="M1073.564,54.51c-0.14,0.091-0.309,0.15-0.489,0.181
		s-0.38,0.04-0.58,0.04h-1.351v-2.4h1.351c0.2,0,0.399,0.021,0.58,0.05c0.181,0.03,0.35,0.081,0.489,0.17
		c0.141,0.091,0.25,0.21,0.341,0.36c0.08,0.16,0.119,0.37,0.119,0.62s-0.039,0.46-0.119,0.62
		C1073.814,54.3,1073.705,54.43,1073.564,54.51z M1075.564,52.58c-0.1-0.31-0.26-0.58-0.479-0.82c-0.22-0.239-0.5-0.43-0.85-0.58
		c-0.341-0.139-0.761-0.219-1.261-0.219h-3.569v8.01h1.739v-2.87h1.83c0.5,0,0.92-0.08,1.261-0.221c0.35-0.149,0.63-0.339,0.85-0.58
		c0.22-0.239,0.38-0.509,0.479-0.819c0.101-0.31,0.15-0.63,0.15-0.95C1075.715,53.2,1075.665,52.88,1075.564,52.58z
		 M1067.975,50.961h-1.739v8.01h1.739V50.961z M1064.975,57.49h-4.35l4.24-5.14v-1.39h-6.221v1.479h3.91l-4.25,5.14v1.391h6.67
		V57.49z M1085.045,49.63v11.431c0,1.26-1.01,2.28-2.25,2.28h-31.5c-1.24,0-2.25-1.021-2.25-2.28V49.63
		c0-1.26,1.01-2.289,2.25-2.289h31.5C1084.035,47.341,1085.045,48.37,1085.045,49.63z M1078.925,31.13v8.37
		c0,0.53,0.431,0.961,0.96,0.961h8.601L1078.925,31.13z M1092.045,43.341v25c0,2.209-1.789,4-4,4h-31c-2.21,0-4-1.791-4-4v-2h3v2
		c0,0.56,0.45,1,1,1h31c0.55,0,1-0.44,1-1v-25h-9.16c-2.119,0-3.84-1.711-3.84-3.841V29.36c-0.06,0-0.12-0.02-0.189-0.02h-18.811
		c-0.55,0-1,0.45-1,1v14h-3v-14c0-2.211,1.79-4,4-4h18.811c2.63,0,4,1.5,4,1.5l11.069,10.81c0,0,0.57,0.5,0.89,1.811h0.23V43.341z"
		/>
</g>
<g id="xtm.png">
</g>
<g id="xls.png">
	<path fill-rule="evenodd" clip-rule="evenodd" fill="#575756" d="M1012.555,52.62c0.08-0.11,0.17-0.199,0.29-0.279
		c0.11-0.07,0.24-0.12,0.38-0.15c0.141-0.03,0.281-0.05,0.42-0.05c0.21,0,0.41,0.02,0.591,0.06c0.18,0.03,0.34,0.1,0.48,0.19
		c0.139,0.09,0.259,0.21,0.339,0.369c0.09,0.15,0.141,0.351,0.15,0.591h1.689c0-0.46-0.09-0.86-0.26-1.18
		c-0.18-0.33-0.41-0.591-0.71-0.801c-0.29-0.21-0.63-0.36-1.01-0.46c-0.38-0.09-0.78-0.14-1.19-0.14c-0.359,0-0.709,0.05-1.069,0.15
		c-0.351,0.1-0.67,0.239-0.95,0.449c-0.28,0.2-0.51,0.45-0.68,0.75c-0.171,0.31-0.26,0.66-0.26,1.07c0,0.37,0.069,0.68,0.2,0.939
		c0.139,0.261,0.319,0.471,0.54,0.641c0.219,0.18,0.469,0.32,0.75,0.43c0.279,0.1,0.569,0.2,0.869,0.271
		c0.29,0.079,0.57,0.159,0.85,0.22c0.281,0.069,0.531,0.15,0.75,0.239c0.23,0.091,0.41,0.2,0.541,0.341
		c0.14,0.13,0.209,0.31,0.209,0.521c0,0.199-0.05,0.369-0.159,0.5c-0.1,0.13-0.23,0.239-0.391,0.31
		c-0.149,0.07-0.32,0.13-0.489,0.149c-0.18,0.03-0.351,0.041-0.5,0.041c-0.23,0-0.45-0.031-0.67-0.08
		c-0.211-0.061-0.4-0.15-0.561-0.261c-0.16-0.12-0.28-0.271-0.38-0.46c-0.101-0.18-0.14-0.41-0.14-0.68h-1.69
		c-0.01,0.489,0.08,0.92,0.271,1.28c0.18,0.359,0.43,0.649,0.75,0.88c0.31,0.24,0.67,0.409,1.079,0.51
		c0.411,0.11,0.83,0.17,1.271,0.17c0.54,0,1.01-0.07,1.42-0.189c0.41-0.131,0.76-0.311,1.03-0.54
		c0.279-0.221,0.489-0.491,0.63-0.811c0.14-0.311,0.21-0.649,0.21-1.02c0-0.45-0.09-0.82-0.28-1.101
		c-0.189-0.29-0.409-0.52-0.67-0.69c-0.26-0.17-0.52-0.3-0.78-0.379c-0.26-0.08-0.47-0.13-0.62-0.161l-1.2-0.31
		c-0.31-0.09-0.55-0.17-0.72-0.25c-0.169-0.08-0.29-0.17-0.35-0.271c-0.061-0.1-0.09-0.219-0.09-0.38
		C1012.445,52.88,1012.485,52.73,1012.555,52.62z M1010.235,57.49h-3.851v-6.529h-1.74v8.01h5.591V57.49z M1003.705,50.961h-1.91
		l-1.609,2.56l-1.551-2.56h-2.01l2.55,3.81l-2.76,4.2h1.95l1.76-2.771l1.729,2.771h2.07l-2.76-4.18L1003.705,50.961z
		 M1025.045,49.63v11.431c0,1.26-1.01,2.28-2.25,2.28h-31.5c-1.24,0-2.25-1.021-2.25-2.28V49.63c0-1.26,1.01-2.289,2.25-2.289h31.5
		C1024.035,47.341,1025.045,48.37,1025.045,49.63z M1018.925,31.13v8.37c0,0.53,0.43,0.961,0.96,0.961h8.601L1018.925,31.13z
		 M1032.045,43.341v25c0,2.209-1.789,4-4,4h-31c-2.21,0-4-1.791-4-4v-2h3v2c0,0.56,0.45,1,1,1h31c0.55,0,1-0.44,1-1v-25h-9.16
		c-2.119,0-3.84-1.711-3.84-3.841V29.36c-0.06,0-0.12-0.02-0.19-0.02h-18.81c-0.55,0-1,0.45-1,1v14h-3v-14c0-2.211,1.79-4,4-4h18.81
		c2.631,0,4,1.5,4,1.5l11.07,10.81c0,0,0.57,0.5,0.891,1.811h0.229V43.341L1032.045,43.341z"/>
</g>
<g id="wps.png">
</g>
<g id="wpd.png">
</g>
<g id="wmv.png">
</g>
<g id="wma.png">
</g>
<g id="wav.png">
</g>
<g id="vob.png">
</g>
<g id="vcd.png">
</g>
<g id="Row_9">
</g>
<g id="txt.png">
	<path fill-rule="evenodd" clip-rule="evenodd" fill="#575756" d="M957.385,50.961h-6.479v1.479h2.369v6.53h1.741v-6.53h2.369
		V50.961z M950.585,50.961h-1.91l-1.6,2.56l-1.551-2.56h-1.899h-0.119h-6.361v1.479h2.371v6.53h1.74v-6.53h2.369v-1.3l2.43,3.63
		l-2.76,4.2h1.95l1.761-2.771l1.729,2.771h2.069l-2.76-4.18L950.585,50.961z M965.045,49.63v11.431c0,1.26-1.01,2.28-2.25,2.28
		h-31.5c-1.24,0-2.25-1.021-2.25-2.28V49.63c0-1.26,1.01-2.289,2.25-2.289h31.5C964.035,47.341,965.045,48.37,965.045,49.63z
		 M958.925,31.13v8.37c0,0.53,0.431,0.961,0.96,0.961h8.601L958.925,31.13z M972.045,43.341v25c0,2.209-1.789,4-4,4h-31
		c-2.21,0-4-1.791-4-4v-2h3v2c0,0.56,0.45,1,1,1h31c0.55,0,1-0.44,1-1v-25h-9.16c-2.119,0-3.84-1.711-3.84-3.841V29.36
		c-0.06,0-0.12-0.02-0.189-0.02h-18.811c-0.55,0-1,0.45-1,1v14h-3v-14c0-2.211,1.79-4,4-4h18.811c2.63,0,4,1.5,4,1.5l11.069,10.81
		c0,0,0.57,0.5,0.89,1.811h0.23V43.341z"/>
</g>
<g id="ttf.png">
</g>
<g id="torrent.png">
</g>
<g id="tif.png">
</g>
<g id="tgz.png">
</g>
<g id="swf.png">
</g>
<g id="ss.png">
</g>
<g id="sql.png">
</g>
<g id="sitx.png">
</g>
<g id="sit.png">
</g>
<g id="Row_8">
</g>
<g id="ses.png">
</g>
<g id="sea.png">
</g>
<g id="rtf.png">
	<path fill-rule="evenodd" clip-rule="evenodd" fill="#575756" d="M881.405,54.58h-1.899v-2.25h1.899
		c0.399,0,0.699,0.091,0.899,0.261c0.201,0.18,0.3,0.459,0.3,0.85c0,0.4-0.099,0.7-0.3,0.88
		C882.104,54.49,881.805,54.58,881.405,54.58z M897.085,50.961h-5.56v8.01h1.74V55.66h3.31v-1.369h-3.31V52.44h3.819V50.961z
		 M891.035,50.961h-6.48v1.479h2.37v6.53h1.74v-6.53h2.37V50.961z M884.045,54.391c0.2-0.341,0.3-0.75,0.3-1.22
		c0-0.301-0.06-0.591-0.159-0.86c-0.11-0.261-0.271-0.49-0.47-0.7c-0.2-0.2-0.45-0.36-0.73-0.47c-0.28-0.12-0.601-0.18-0.96-0.18
		h-4.26v8.01h1.74v-3.13h1.729c0.439,0,0.75,0.1,0.95,0.289c0.189,0.2,0.31,0.5,0.369,0.92c0.05,0.32,0.08,0.661,0.101,1.011
		c0.03,0.35,0.08,0.65,0.18,0.91h1.74c-0.08-0.11-0.14-0.25-0.181-0.41c-0.04-0.16-0.069-0.33-0.09-0.511
		c-0.02-0.18-0.029-0.359-0.039-0.529l-0.021-0.45c-0.021-0.2-0.05-0.399-0.09-0.6s-0.101-0.391-0.189-0.561
		c-0.091-0.17-0.2-0.31-0.341-0.43c-0.14-0.13-0.32-0.221-0.53-0.28V55.18C883.535,55,883.854,54.74,884.045,54.391z M905.045,49.63
		v11.431c0,1.26-1.01,2.28-2.25,2.28h-31.5c-1.24,0-2.25-1.021-2.25-2.28V49.63c0-1.26,1.01-2.289,2.25-2.289h31.5
		C904.035,47.341,905.045,48.37,905.045,49.63z M898.925,31.13v8.37c0,0.53,0.43,0.961,0.96,0.961h8.601L898.925,31.13z
		 M912.045,43.341v25c0,2.209-1.789,4-4,4h-31c-2.21,0-4-1.791-4-4v-2h3v2c0,0.56,0.45,1,1,1h31c0.55,0,1-0.44,1-1v-25h-9.16
		c-2.119,0-3.84-1.711-3.84-3.841V29.36c-0.06,0-0.12-0.02-0.19-0.02h-18.81c-0.55,0-1,0.45-1,1v14h-3v-14c0-2.211,1.79-4,4-4h18.81
		c2.631,0,4,1.5,4,1.5l11.07,10.81c0,0,0.57,0.5,0.891,1.811h0.229V43.341L912.045,43.341z"/>
</g>
<g id="rmvb.png">
</g>
<g id="rm.png">
</g>
<g id="rar.png">
	<path fill-rule="evenodd" clip-rule="evenodd" fill="#575756" d="M819.285,54.58h-1.9v-2.25h1.9c0.4,0,0.7,0.091,0.9,0.261
		c0.199,0.18,0.3,0.459,0.3,0.85c0,0.4-0.101,0.7-0.3,0.88C819.985,54.49,819.686,54.58,819.285,54.58z M827.135,52.94h0.03
		l0.99,2.93h-2.05L827.135,52.94z M835.176,54.58h-1.91v-2.25h1.91c0.389,0,0.689,0.091,0.889,0.261
		c0.201,0.18,0.301,0.459,0.301,0.85c0,0.4-0.1,0.7-0.301,0.88C835.865,54.49,835.564,54.58,835.176,54.58z M838.155,58.561
		c-0.04-0.16-0.07-0.33-0.091-0.511c-0.02-0.18-0.029-0.359-0.039-0.529l-0.02-0.45c-0.011-0.2-0.041-0.399-0.08-0.6
		c-0.041-0.2-0.111-0.391-0.19-0.561c-0.091-0.17-0.21-0.31-0.351-0.43c-0.14-0.13-0.32-0.221-0.529-0.28V55.18
		c0.439-0.18,0.76-0.439,0.959-0.789c0.191-0.341,0.291-0.75,0.291-1.22c0-0.301-0.051-0.591-0.16-0.86
		c-0.11-0.261-0.26-0.49-0.46-0.7c-0.21-0.2-0.45-0.36-0.74-0.47c-0.28-0.12-0.601-0.18-0.95-0.18h-4.27v8.01h1.74v-3.13h1.74
		c0.439,0,0.75,0.1,0.939,0.289c0.189,0.2,0.32,0.5,0.38,0.92c0.04,0.32,0.08,0.661,0.101,1.011c0.02,0.35,0.08,0.65,0.18,0.91
		h1.729C838.256,58.86,838.195,58.721,838.155,58.561z M828.055,50.961h-1.779l-2.99,8.01h1.75l0.62-1.78h2.96l0.6,1.78h1.801
		L828.055,50.961z M822.275,58.561c-0.04-0.16-0.07-0.33-0.09-0.511c-0.021-0.18-0.03-0.359-0.041-0.529l-0.02-0.45
		c-0.02-0.2-0.04-0.399-0.08-0.6c-0.039-0.2-0.109-0.391-0.199-0.561s-0.201-0.31-0.34-0.43c-0.141-0.13-0.32-0.221-0.531-0.28
		V55.18c0.44-0.18,0.761-0.439,0.961-0.789c0.189-0.341,0.289-0.75,0.289-1.22c0-0.301-0.049-0.591-0.16-0.86
		c-0.109-0.261-0.26-0.49-0.469-0.7c-0.201-0.2-0.44-0.36-0.73-0.47c-0.28-0.12-0.6-0.18-0.96-0.18h-4.261v8.01h1.74v-3.13h1.74
		c0.43,0,0.75,0.1,0.939,0.289c0.191,0.2,0.32,0.5,0.381,0.92c0.04,0.32,0.07,0.661,0.1,1.011c0.02,0.35,0.08,0.65,0.17,0.91h1.74
		C822.375,58.86,822.314,58.721,822.275,58.561z M845.045,49.63v11.431c0,1.26-1.01,2.28-2.25,2.28h-31.5
		c-1.24,0-2.25-1.021-2.25-2.28V49.63c0-1.26,1.01-2.289,2.25-2.289h31.5C844.035,47.341,845.045,48.37,845.045,49.63z
		 M838.926,31.13v8.37c0,0.53,0.43,0.961,0.959,0.961h8.601L838.926,31.13z M852.045,43.341v25c0,2.209-1.789,4-4,4h-31
		c-2.21,0-4-1.791-4-4v-2h3v2c0,0.56,0.45,1,1,1h31c0.551,0,1-0.44,1-1v-25h-9.16c-2.119,0-3.84-1.711-3.84-3.841V29.36
		c-0.06,0-0.119-0.02-0.189-0.02h-18.811c-0.55,0-1,0.45-1,1v14h-3v-14c0-2.211,1.79-4,4-4h18.811c2.63,0,4,1.5,4,1.5l11.07,10.81
		c0,0,0.569,0.5,0.889,1.811h0.23V43.341L852.045,43.341z"/>
</g>
<g id="ram.png">
</g>
<g id="qxd.png">
</g>
<g id="qbw.png">
</g>
<g id="qbb.png">
</g>
<g id="Row_7">
</g>
<g id="pub.png">
</g>
<g id="ptb.png">
</g>
<g id="pst.png">
</g>
<g id="psd.png">
</g>
<g id="ps.png">
</g>
<g id="ppt.png">
	<path fill-rule="evenodd" clip-rule="evenodd" fill="#575756" d="M761.385,54.51c-0.14,0.091-0.3,0.15-0.49,0.181
		c-0.18,0.03-0.369,0.04-0.569,0.04h-1.351v-2.4h1.351c0.2,0,0.39,0.021,0.569,0.05c0.19,0.03,0.351,0.081,0.49,0.17
		c0.141,0.091,0.25,0.21,0.34,0.36c0.08,0.16,0.131,0.37,0.131,0.62s-0.051,0.46-0.131,0.62
		C761.635,54.3,761.525,54.43,761.385,54.51z M768.795,54.51c-0.14,0.091-0.3,0.15-0.48,0.181c-0.189,0.03-0.379,0.04-0.579,0.04
		h-1.351v-2.4h1.351c0.2,0,0.39,0.021,0.579,0.05c0.181,0.03,0.341,0.081,0.48,0.17c0.141,0.091,0.26,0.21,0.34,0.36
		c0.09,0.16,0.131,0.37,0.131,0.62s-0.041,0.46-0.131,0.62C769.055,54.3,768.936,54.43,768.795,54.51z M777.915,50.961h-6.479v1.479
		h2.369v6.53h1.74v-6.53h2.37V50.961z M770.795,52.58c-0.1-0.31-0.26-0.58-0.47-0.82c-0.22-0.239-0.5-0.43-0.851-0.58
		c-0.35-0.139-0.77-0.219-1.26-0.219h-3.57v8.01h1.74v-2.87h1.83c0.49,0,0.91-0.08,1.26-0.221c0.351-0.149,0.631-0.339,0.851-0.58
		c0.21-0.239,0.37-0.509,0.47-0.819c0.1-0.31,0.15-0.63,0.15-0.95C770.945,53.2,770.895,52.88,770.795,52.58z M763.385,52.58
		c-0.1-0.31-0.26-0.58-0.479-0.82c-0.21-0.239-0.5-0.43-0.841-0.58c-0.35-0.139-0.77-0.219-1.27-0.219h-3.56v8.01h1.739v-2.87h1.82
		c0.5,0,0.92-0.08,1.27-0.221c0.341-0.149,0.631-0.339,0.841-0.58c0.22-0.239,0.38-0.509,0.479-0.819
		c0.101-0.31,0.15-0.63,0.15-0.95C763.535,53.2,763.485,52.88,763.385,52.58z M785.045,49.63v11.431c0,1.26-1.01,2.28-2.25,2.28
		h-31.5c-1.24,0-2.25-1.021-2.25-2.28V49.63c0-1.26,1.01-2.289,2.25-2.289h31.5C784.035,47.341,785.045,48.37,785.045,49.63z
		 M778.926,31.13v8.37c0,0.53,0.43,0.961,0.959,0.961h8.601L778.926,31.13z M792.045,43.341v25c0,2.209-1.789,4-4,4h-31
		c-2.21,0-4-1.791-4-4v-2h3v2c0,0.56,0.45,1,1,1h31c0.551,0,1-0.44,1-1v-25h-9.16c-2.119,0-3.84-1.711-3.84-3.841V29.36
		c-0.06,0-0.119-0.02-0.189-0.02h-18.811c-0.55,0-1,0.45-1,1v14h-3v-14c0-2.211,1.79-4,4-4h18.811c2.63,0,4,1.5,4,1.5l11.07,10.81
		c0,0,0.569,0.5,0.889,1.811h0.23V43.341L792.045,43.341z"/>
</g>
<g id="pps.png">
	<path fill-rule="evenodd" clip-rule="evenodd" fill="#575756" d="M700.855,54.51c-0.141,0.091-0.301,0.15-0.49,0.181
		c-0.18,0.03-0.37,0.04-0.57,0.04h-1.35v-2.4h1.35c0.2,0,0.391,0.021,0.57,0.05c0.189,0.03,0.35,0.081,0.49,0.17
		c0.14,0.091,0.25,0.21,0.34,0.36c0.08,0.16,0.13,0.37,0.13,0.62s-0.05,0.46-0.13,0.62C701.105,54.3,700.995,54.43,700.855,54.51z
		 M708.266,54.51c-0.141,0.091-0.301,0.15-0.48,0.181c-0.189,0.03-0.38,0.04-0.58,0.04h-1.35v-2.4h1.35c0.2,0,0.391,0.021,0.58,0.05
		c0.18,0.03,0.34,0.081,0.48,0.17c0.14,0.091,0.26,0.21,0.34,0.36c0.09,0.16,0.13,0.37,0.13,0.62s-0.04,0.46-0.13,0.62
		C708.525,54.3,708.405,54.43,708.266,54.51z M713.085,52.62c0.08-0.11,0.171-0.199,0.29-0.279c0.11-0.07,0.24-0.12,0.381-0.15
		c0.139-0.03,0.279-0.05,0.42-0.05c0.209,0,0.409,0.02,0.59,0.06c0.18,0.03,0.34,0.1,0.479,0.19c0.14,0.09,0.261,0.21,0.34,0.369
		c0.091,0.15,0.14,0.351,0.15,0.591h1.68c0-0.46-0.08-0.86-0.26-1.18c-0.17-0.33-0.399-0.591-0.7-0.801
		c-0.29-0.21-0.63-0.36-1.01-0.46c-0.381-0.09-0.78-0.14-1.189-0.14c-0.361,0-0.711,0.05-1.07,0.15
		c-0.351,0.1-0.67,0.239-0.95,0.449c-0.28,0.2-0.511,0.45-0.681,0.75c-0.18,0.31-0.26,0.66-0.26,1.07c0,0.37,0.07,0.68,0.2,0.939
		c0.14,0.261,0.319,0.471,0.54,0.641c0.221,0.18,0.471,0.32,0.75,0.43c0.279,0.1,0.57,0.2,0.87,0.271
		c0.29,0.079,0.569,0.159,0.851,0.22c0.279,0.069,0.529,0.15,0.75,0.239c0.229,0.091,0.399,0.2,0.539,0.341
		c0.141,0.13,0.211,0.31,0.211,0.521c0,0.199-0.061,0.369-0.16,0.5c-0.101,0.13-0.23,0.239-0.391,0.31
		c-0.15,0.07-0.32,0.13-0.49,0.149c-0.18,0.03-0.35,0.041-0.5,0.041c-0.229,0-0.449-0.031-0.67-0.08
		c-0.21-0.061-0.4-0.15-0.56-0.261c-0.16-0.12-0.28-0.271-0.38-0.46c-0.1-0.18-0.141-0.41-0.141-0.68h-1.689
		c-0.01,0.489,0.08,0.92,0.27,1.28c0.18,0.359,0.43,0.649,0.75,0.88c0.311,0.24,0.67,0.409,1.08,0.51c0.41,0.11,0.83,0.17,1.27,0.17
		c0.541,0,1.011-0.07,1.42-0.189c0.41-0.131,0.761-0.311,1.031-0.54c0.279-0.221,0.489-0.491,0.629-0.811
		c0.141-0.311,0.211-0.649,0.211-1.02c0-0.45-0.09-0.82-0.28-1.101c-0.19-0.29-0.41-0.52-0.67-0.69
		c-0.261-0.17-0.521-0.3-0.78-0.379c-0.27-0.08-0.47-0.13-0.62-0.161l-1.2-0.31c-0.31-0.09-0.55-0.17-0.72-0.25
		s-0.29-0.17-0.351-0.271c-0.059-0.1-0.09-0.219-0.09-0.38C712.975,52.88,713.016,52.73,713.085,52.62z M710.266,52.58
		c-0.101-0.31-0.26-0.58-0.471-0.82c-0.22-0.239-0.5-0.43-0.85-0.58c-0.35-0.139-0.77-0.219-1.26-0.219h-3.57v8.01h1.74v-2.87h1.83
		c0.49,0,0.91-0.08,1.26-0.221c0.35-0.149,0.63-0.339,0.85-0.58c0.211-0.239,0.37-0.509,0.471-0.819c0.1-0.31,0.149-0.63,0.149-0.95
		C710.415,53.2,710.365,52.88,710.266,52.58z M702.855,52.58c-0.1-0.31-0.26-0.58-0.471-0.82c-0.22-0.239-0.51-0.43-0.85-0.58
		c-0.35-0.139-0.77-0.219-1.27-0.219h-3.561v8.01h1.74v-2.87h1.82c0.5,0,0.92-0.08,1.27-0.221c0.34-0.149,0.63-0.339,0.85-0.58
		c0.211-0.239,0.371-0.509,0.471-0.819c0.1-0.31,0.15-0.63,0.15-0.95C703.006,53.2,702.955,52.88,702.855,52.58z M725.045,49.63
		v11.431c0,1.26-1.01,2.28-2.25,2.28h-31.5c-1.24,0-2.25-1.021-2.25-2.28V49.63c0-1.26,1.01-2.289,2.25-2.289h31.5
		C724.035,47.341,725.045,48.37,725.045,49.63z M718.926,31.13v8.37c0,0.53,0.43,0.961,0.959,0.961h8.601L718.926,31.13z
		 M732.045,43.341v25c0,2.209-1.789,4-4,4h-31c-2.21,0-4-1.791-4-4v-2h3v2c0,0.56,0.45,1,1,1h31c0.551,0,1-0.44,1-1v-25h-9.16
		c-2.119,0-3.84-1.711-3.84-3.841V29.36c-0.06,0-0.119-0.02-0.189-0.02h-18.811c-0.55,0-1,0.45-1,1v14h-3v-14c0-2.211,1.79-4,4-4
		h18.811c2.63,0,4,1.5,4,1.5l11.07,10.81c0,0,0.569,0.5,0.889,1.811h0.23V43.341L732.045,43.341z"/>
</g>
<g id="png.png">
	<path fill-rule="evenodd" clip-rule="evenodd" fill="#575756" d="M639.795,54.51c-0.14,0.091-0.3,0.15-0.48,0.181
		c-0.189,0.03-0.379,0.04-0.579,0.04h-1.351v-2.4h1.351c0.2,0,0.39,0.021,0.579,0.05c0.181,0.03,0.341,0.081,0.48,0.17
		c0.141,0.091,0.26,0.21,0.34,0.36c0.09,0.16,0.131,0.37,0.131,0.62s-0.041,0.46-0.131,0.62
		C640.055,54.3,639.936,54.43,639.795,54.51z M658.525,54.641h-3.32v1.31h1.75c-0.05,0.56-0.23,0.99-0.55,1.29
		c-0.31,0.29-0.761,0.439-1.33,0.439c-0.399,0-0.729-0.079-1-0.229s-0.5-0.359-0.67-0.609c-0.17-0.261-0.29-0.541-0.37-0.86
		c-0.07-0.32-0.109-0.64-0.109-0.98c0-0.35,0.039-0.689,0.109-1.02c0.08-0.33,0.2-0.62,0.37-0.88s0.399-0.46,0.67-0.62
		c0.271-0.15,0.601-0.23,1-0.23c0.42,0,0.78,0.11,1.069,0.341c0.301,0.22,0.5,0.56,0.601,1.01h1.66c-0.04-0.46-0.17-0.86-0.36-1.21
		c-0.199-0.35-0.46-0.65-0.76-0.891c-0.311-0.24-0.65-0.42-1.029-0.539c-0.381-0.131-0.781-0.19-1.181-0.19
		c-0.61,0-1.149,0.109-1.64,0.33c-0.48,0.21-0.891,0.51-1.221,0.89c-0.34,0.39-0.59,0.83-0.77,1.34c-0.17,0.521-0.26,1.07-0.26,1.67
		c0,0.58,0.09,1.13,0.26,1.63c0.18,0.5,0.43,0.94,0.77,1.32c0.33,0.37,0.74,0.66,1.221,0.88c0.49,0.211,1.029,0.32,1.64,0.32
		c0.38,0,0.76-0.08,1.14-0.24c0.37-0.16,0.721-0.449,1.03-0.85l0.17,0.91h1.11V54.641z M649.735,50.961h-1.63v5.369h-0.021
		l-3.3-5.369h-1.73v8.01h1.631v-5.36h0.02l3.29,5.36h1.74V50.961z M641.795,52.58c-0.1-0.31-0.26-0.58-0.47-0.82
		c-0.22-0.239-0.5-0.43-0.851-0.58c-0.35-0.139-0.77-0.219-1.26-0.219h-3.57v8.01h1.74v-2.87h1.83c0.49,0,0.91-0.08,1.26-0.221
		c0.351-0.149,0.631-0.339,0.851-0.58c0.21-0.239,0.37-0.509,0.47-0.819c0.1-0.31,0.15-0.63,0.15-0.95
		C641.945,53.2,641.895,52.88,641.795,52.58z M665.045,49.63v11.431c0,1.26-1.01,2.28-2.25,2.28h-31.5c-1.24,0-2.25-1.021-2.25-2.28
		V49.63c0-1.26,1.01-2.289,2.25-2.289h31.5C664.035,47.341,665.045,48.37,665.045,49.63z M658.926,31.13v8.37
		c0,0.53,0.43,0.961,0.959,0.961h8.601L658.926,31.13z M672.045,43.341v25c0,2.209-1.789,4-4,4h-31c-2.21,0-4-1.791-4-4v-2h3v2
		c0,0.56,0.45,1,1,1h31c0.551,0,1-0.44,1-1v-25h-9.16c-2.119,0-3.84-1.711-3.84-3.841V29.36c-0.06,0-0.119-0.02-0.189-0.02h-18.811
		c-0.55,0-1,0.45-1,1v14h-3v-14c0-2.211,1.79-4,4-4h18.811c2.63,0,4,1.5,4,1.5l11.07,10.81c0,0,0.569,0.5,0.889,1.811h0.23V43.341
		L672.045,43.341z"/>
</g>
<g id="pdf.png">
	<path fill-rule="evenodd" clip-rule="evenodd" fill="#575756" d="M580.855,54.51c-0.141,0.091-0.301,0.15-0.49,0.181
		c-0.18,0.03-0.37,0.04-0.57,0.04h-1.35v-2.4h1.35c0.2,0,0.391,0.021,0.57,0.05c0.189,0.03,0.35,0.081,0.49,0.17
		c0.14,0.091,0.25,0.21,0.34,0.36c0.08,0.16,0.13,0.37,0.13,0.62s-0.05,0.46-0.13,0.62C581.105,54.3,580.995,54.43,580.855,54.51z
		 M588.766,56.961c-0.181,0.189-0.391,0.319-0.631,0.399c-0.24,0.09-0.479,0.13-0.729,0.13h-1.55v-5.05h1.24
		c0.43,0,0.789,0.06,1.08,0.189c0.289,0.12,0.529,0.3,0.699,0.53c0.18,0.23,0.311,0.511,0.391,0.84
		c0.069,0.32,0.109,0.69,0.109,1.091c0,0.439-0.05,0.81-0.16,1.12C589.096,56.521,588.955,56.76,588.766,56.961z M598.145,50.961
		h-5.56v8.01h1.74V55.66h3.31v-1.369h-3.31V52.44h3.819V50.961z M590.846,53.18c-0.181-0.489-0.431-0.899-0.75-1.229
		c-0.33-0.33-0.711-0.58-1.141-0.739c-0.439-0.161-0.92-0.25-1.43-0.25h-3.41v8.01h3.41c0.609,0,1.13-0.11,1.58-0.311
		c0.449-0.21,0.82-0.489,1.119-0.85c0.301-0.36,0.521-0.78,0.67-1.28c0.15-0.489,0.221-1.03,0.221-1.609
		C591.115,54.26,591.025,53.68,590.846,53.18z M582.855,52.58c-0.1-0.31-0.26-0.58-0.471-0.82c-0.22-0.239-0.51-0.43-0.85-0.58
		c-0.35-0.139-0.77-0.219-1.27-0.219h-3.561v8.01h1.74v-2.87h1.82c0.5,0,0.92-0.08,1.27-0.221c0.34-0.149,0.63-0.339,0.85-0.58
		c0.211-0.239,0.371-0.509,0.471-0.819c0.1-0.31,0.15-0.63,0.15-0.95C583.006,53.2,582.955,52.88,582.855,52.58z M605.045,49.63
		v11.431c0,1.26-1.01,2.28-2.25,2.28h-31.5c-1.24,0-2.25-1.021-2.25-2.28V49.63c0-1.26,1.01-2.289,2.25-2.289h31.5
		C604.035,47.341,605.045,48.37,605.045,49.63z M598.926,31.13v8.37c0,0.53,0.43,0.961,0.959,0.961h8.601L598.926,31.13z
		 M612.045,43.341v25c0,2.209-1.789,4-4,4h-31c-2.21,0-4-1.791-4-4v-2h3v2c0,0.56,0.45,1,1,1h31c0.551,0,1-0.44,1-1v-25h-9.16
		c-2.119,0-3.84-1.711-3.84-3.841V29.36c-0.06,0-0.119-0.02-0.189-0.02h-18.811c-0.55,0-1,0.45-1,1v14h-3v-14c0-2.211,1.79-4,4-4
		h18.811c2.63,0,4,1.5,4,1.5l11.07,10.81c0,0,0.569,0.5,0.889,1.811h0.23V43.341L612.045,43.341z"/>
</g>
<g id="ogg.png">
</g>
<g id="Row_6">
</g>
<g id="msi.png">
</g>
<g id="mpg.png">
	<path fill-rule="evenodd" clip-rule="evenodd" fill="#575756" d="M528.795,54.509c-0.14,0.091-0.3,0.15-0.48,0.181
		c-0.189,0.03-0.379,0.04-0.579,0.04h-1.351v-2.4h1.351c0.2,0,0.39,0.021,0.579,0.051c0.181,0.029,0.341,0.08,0.48,0.169
		c0.141,0.091,0.26,0.21,0.34,0.36c0.09,0.16,0.131,0.37,0.131,0.62s-0.041,0.46-0.131,0.62
		C529.055,54.299,528.936,54.429,528.795,54.509z M539.055,54.64h-3.319v1.31h1.75c-0.05,0.56-0.24,0.99-0.55,1.29
		c-0.311,0.29-0.761,0.439-1.33,0.439c-0.4,0-0.73-0.079-1-0.229c-0.28-0.15-0.5-0.359-0.67-0.609
		c-0.17-0.261-0.291-0.541-0.371-0.86c-0.079-0.32-0.109-0.64-0.109-0.98c0-0.35,0.03-0.689,0.109-1.02
		c0.08-0.33,0.201-0.62,0.371-0.88s0.39-0.46,0.67-0.62c0.27-0.15,0.6-0.23,1-0.23c0.419,0,0.77,0.11,1.069,0.341
		c0.3,0.22,0.49,0.56,0.6,1.01h1.661c-0.041-0.46-0.17-0.86-0.371-1.21c-0.189-0.35-0.449-0.65-0.75-0.891
		c-0.309-0.24-0.649-0.42-1.029-0.539c-0.391-0.131-0.779-0.19-1.18-0.19c-0.61,0-1.16,0.11-1.641,0.33
		c-0.479,0.21-0.89,0.51-1.22,0.89c-0.34,0.391-0.59,0.83-0.771,1.34c-0.18,0.521-0.26,1.07-0.26,1.67c0,0.58,0.08,1.131,0.26,1.631
		c0.181,0.5,0.431,0.939,0.771,1.319c0.33,0.37,0.74,0.66,1.22,0.88c0.48,0.211,1.03,0.32,1.641,0.32c0.38,0,0.76-0.08,1.14-0.24
		c0.37-0.16,0.72-0.449,1.029-0.85l0.171,0.91h1.109V54.64z M530.795,52.579c-0.1-0.31-0.26-0.58-0.47-0.82
		c-0.22-0.239-0.5-0.43-0.851-0.58c-0.35-0.139-0.77-0.219-1.26-0.219h-3.57v8.01h1.74V56.1h1.83c0.49,0,0.91-0.08,1.26-0.22
		c0.351-0.15,0.631-0.34,0.851-0.581c0.21-0.239,0.37-0.509,0.47-0.819c0.1-0.31,0.15-0.63,0.15-0.95
		C530.945,53.199,530.895,52.88,530.795,52.579z M523.635,50.96h-2.449l-1.75,5.51h-0.021l-1.851-5.51h-2.449v8.01h1.63v-5.62h0.021
		l1.939,5.62h1.34l1.94-5.68h0.021v5.68h1.629V50.96z M545.045,49.63v11.43c0,1.26-1.01,2.28-2.25,2.28h-31.5
		c-1.24,0-2.25-1.021-2.25-2.28V49.63c0-1.261,1.01-2.29,2.25-2.29h31.5C544.035,47.34,545.045,48.369,545.045,49.63z
		 M538.925,31.13v8.369c0,0.53,0.431,0.961,0.96,0.961h8.601L538.925,31.13z M552.045,43.34v25c0,2.209-1.789,4-4,4h-31
		c-2.21,0-4-1.791-4-4v-2h3v2c0,0.56,0.45,1,1,1h31c0.55,0,1-0.44,1-1v-25h-9.16c-2.119,0-3.84-1.71-3.84-3.841v-10.14
		c-0.06,0-0.12-0.02-0.189-0.02h-18.811c-0.55,0-1,0.45-1,1v14h-3v-14c0-2.21,1.79-4,4-4h18.811c2.63,0,4,1.5,4,1.5l11.069,10.81
		c0,0,0.57,0.5,0.89,1.811h0.23V43.34z"/>
</g>
<g id="mpeg.png">
	<path fill-rule="evenodd" clip-rule="evenodd" fill="#575756" d="M466.175,54.96c-0.12,0.08-0.27,0.13-0.43,0.159
		c-0.17,0.03-0.34,0.04-0.521,0.04h-1.209v-2.15h1.209c0.181,0,0.351,0.011,0.521,0.04c0.16,0.021,0.31,0.081,0.43,0.15
		c0.13,0.08,0.23,0.19,0.311,0.33c0.069,0.141,0.109,0.33,0.109,0.55c0,0.23-0.04,0.42-0.109,0.561
		C466.405,54.779,466.305,54.89,466.175,54.96z M481.445,55.079h-2.99v1.18h1.58c-0.05,0.5-0.22,0.891-0.5,1.15
		c-0.279,0.27-0.681,0.4-1.2,0.4c-0.35,0-0.649-0.07-0.89-0.21c-0.25-0.13-0.45-0.32-0.601-0.551c-0.149-0.22-0.26-0.479-0.329-0.77
		c-0.07-0.28-0.11-0.58-0.11-0.88c0-0.31,0.04-0.62,0.11-0.91c0.069-0.3,0.18-0.561,0.329-0.79c0.15-0.239,0.351-0.42,0.601-0.56
		c0.24-0.141,0.54-0.2,0.89-0.2c0.381,0,0.7,0.101,0.97,0.3c0.261,0.2,0.44,0.5,0.54,0.9h1.49c-0.04-0.41-0.149-0.771-0.329-1.08
		c-0.181-0.32-0.411-0.58-0.681-0.801c-0.28-0.21-0.59-0.379-0.931-0.489c-0.34-0.11-0.689-0.16-1.06-0.16
		c-0.54,0-1.03,0.09-1.46,0.29c-0.439,0.19-0.81,0.46-1.1,0.8c-0.301,0.35-0.53,0.75-0.69,1.21s-0.24,0.96-0.24,1.49
		c0,0.529,0.08,1.01,0.24,1.47c0.16,0.45,0.39,0.851,0.69,1.18c0.29,0.341,0.66,0.601,1.1,0.791c0.43,0.189,0.92,0.29,1.46,0.29
		c0.351,0,0.69-0.07,1.03-0.221c0.34-0.14,0.65-0.4,0.92-0.76l0.16,0.82h1V55.079z M474.195,57.64h-3.83v-1.76h3.439v-1.23h-3.439
		v-1.54h3.75v-1.33h-5.311v7.19h5.391V57.64z M467.975,53.229c-0.09-0.28-0.229-0.52-0.43-0.74c-0.19-0.21-0.45-0.39-0.76-0.52
		c-0.311-0.13-0.69-0.19-1.13-0.19h-3.21v7.19h1.57v-2.58h1.64c0.439,0,0.819-0.07,1.13-0.2c0.31-0.13,0.569-0.3,0.76-0.52
		c0.2-0.21,0.34-0.46,0.43-0.741c0.091-0.27,0.141-0.56,0.141-0.85C468.115,53.79,468.065,53.499,467.975,53.229z M460.575,51.779
		h-2.2l-1.58,4.94h-0.02l-1.66-4.94h-2.2v7.19h1.47v-5.05h0.021l1.739,5.05h1.2l1.74-5.101h0.02v5.101h1.471V51.779z M485.045,49.63
		v11.43c0,1.26-1.01,2.28-2.25,2.28h-31.5c-1.24,0-2.25-1.021-2.25-2.28V49.63c0-1.261,1.01-2.29,2.25-2.29h31.5
		C484.035,47.34,485.045,48.369,485.045,49.63z M478.925,31.13v8.369c0,0.53,0.43,0.961,0.96,0.961h8.601L478.925,31.13z
		 M492.045,43.34v25c0,2.209-1.789,4-4,4h-31c-2.21,0-4-1.791-4-4v-2h3v2c0,0.56,0.45,1,1,1h31c0.55,0,1-0.44,1-1v-25h-9.16
		c-2.119,0-3.84-1.71-3.84-3.841v-10.14c-0.06,0-0.12-0.02-0.19-0.02h-18.81c-0.55,0-1,0.45-1,1v14h-3v-14c0-2.21,1.79-4,4-4h18.81
		c2.631,0,4,1.5,4,1.5l11.07,10.81c0,0,0.57,0.5,0.891,1.811h0.229V43.34L492.045,43.34z"/>
</g>
<g id="mp4.png">
	<path fill-rule="evenodd" clip-rule="evenodd" fill="#575756" d="M409.855,54.509c-0.14,0.091-0.301,0.15-0.49,0.181
		c-0.18,0.03-0.37,0.04-0.57,0.04h-1.35v-2.4h1.35c0.2,0,0.391,0.021,0.57,0.051c0.189,0.029,0.351,0.08,0.49,0.169
		c0.14,0.091,0.25,0.21,0.34,0.36c0.08,0.16,0.13,0.37,0.13,0.62s-0.05,0.46-0.13,0.62
		C410.105,54.299,409.995,54.429,409.855,54.509z M415.775,53.119h0.029v2.721h-2.039L415.775,53.119z M418.335,55.84h-1.03v-4.721
		h-1.41l-3.369,4.57v1.46h3.279v1.82h1.5v-1.82h1.03V55.84z M411.855,52.579c-0.1-0.31-0.261-0.58-0.471-0.82
		c-0.22-0.239-0.51-0.43-0.85-0.58c-0.35-0.139-0.77-0.219-1.27-0.219h-3.561v8.01h1.74V56.1h1.82c0.5,0,0.92-0.08,1.27-0.22
		c0.34-0.15,0.63-0.34,0.85-0.581c0.21-0.239,0.371-0.509,0.471-0.819c0.1-0.31,0.15-0.63,0.15-0.95
		C412.006,53.199,411.955,52.88,411.855,52.579z M404.695,50.96h-2.45l-1.75,5.51h-0.021l-1.85-5.51h-2.45v8.01h1.63v-5.62h0.021
		l1.94,5.62h1.34l1.939-5.68h0.021v5.68h1.63V50.96z M425.045,49.63v11.43c0,1.26-1.01,2.28-2.25,2.28h-31.5
		c-1.24,0-2.25-1.021-2.25-2.28V49.63c0-1.261,1.01-2.29,2.25-2.29h31.5C424.035,47.34,425.045,48.369,425.045,49.63z
		 M418.925,31.13v8.369c0,0.53,0.43,0.961,0.96,0.961h8.601L418.925,31.13z M432.045,43.34v25c0,2.209-1.789,4-4,4h-31
		c-2.21,0-4-1.791-4-4v-2h3v2c0,0.56,0.45,1,1,1h31c0.55,0,1-0.44,1-1v-25h-9.16c-2.119,0-3.84-1.71-3.84-3.841v-10.14
		c-0.06,0-0.12-0.02-0.189-0.02h-18.811c-0.55,0-1,0.45-1,1v14h-3v-14c0-2.21,1.79-4,4-4h18.811c2.63,0,3.999,1.5,3.999,1.5
		l11.07,10.81c0,0,0.57,0.5,0.891,1.811h0.229V43.34L432.045,43.34z"/>
</g>
<g id="mp3.png">
	<path fill-rule="evenodd" clip-rule="evenodd" fill="#575756" d="M349.855,54.509c-0.14,0.091-0.301,0.15-0.49,0.181
		c-0.18,0.03-0.37,0.04-0.57,0.04h-1.35v-2.4h1.35c0.2,0,0.391,0.021,0.57,0.051c0.189,0.029,0.351,0.08,0.49,0.169
		c0.14,0.091,0.25,0.21,0.34,0.36c0.08,0.16,0.13,0.37,0.13,0.62s-0.05,0.46-0.13,0.62
		C350.105,54.299,349.995,54.429,349.855,54.509z M357.756,54.149c0.18-0.29,0.27-0.63,0.27-1.01c0-0.35-0.08-0.66-0.24-0.93
		c-0.15-0.271-0.35-0.5-0.6-0.69c-0.25-0.18-0.53-0.32-0.841-0.42c-0.31-0.091-0.62-0.14-0.93-0.14c-0.399,0-0.76,0.069-1.08,0.199
		c-0.329,0.131-0.61,0.32-0.84,0.551c-0.229,0.239-0.41,0.529-0.54,0.859s-0.199,0.7-0.22,1.109h1.5
		c-0.011-0.409,0.09-0.739,0.29-1.009c0.199-0.261,0.51-0.4,0.899-0.4c0.291,0,0.55,0.09,0.771,0.271
		c0.22,0.18,0.33,0.439,0.33,0.779c0,0.221-0.051,0.4-0.16,0.54c-0.109,0.13-0.24,0.23-0.41,0.3c-0.17,0.07-0.34,0.12-0.54,0.131
		c-0.19,0.02-0.37,0.02-0.54,0v1.119c0.19,0,0.391,0.011,0.6,0.02c0.211,0.011,0.41,0.051,0.591,0.12
		c0.17,0.081,0.319,0.19,0.43,0.351c0.12,0.149,0.18,0.38,0.18,0.68c0,0.381-0.13,0.68-0.37,0.9c-0.239,0.22-0.539,0.33-0.899,0.33
		c-0.23,0-0.42-0.04-0.59-0.12c-0.171-0.08-0.31-0.19-0.421-0.33c-0.109-0.14-0.189-0.3-0.25-0.49c-0.06-0.19-0.09-0.39-0.1-0.6
		h-1.5c0,0.45,0.061,0.86,0.2,1.21c0.13,0.35,0.33,0.65,0.58,0.89c0.25,0.24,0.55,0.43,0.91,0.551
		c0.359,0.129,0.76,0.189,1.189,0.189c0.38,0,0.74-0.05,1.091-0.16c0.35-0.12,0.649-0.279,0.92-0.5c0.27-0.21,0.479-0.479,0.64-0.81
		c0.16-0.32,0.24-0.68,0.24-1.091c0-0.449-0.13-0.839-0.37-1.159s-0.58-0.53-1.01-0.631v-0.02
		C357.295,54.64,357.565,54.439,357.756,54.149z M351.855,52.579c-0.1-0.31-0.261-0.58-0.471-0.82c-0.22-0.239-0.51-0.43-0.85-0.58
		c-0.35-0.139-0.77-0.219-1.27-0.219h-3.561v8.01h1.74V56.1h1.82c0.5,0,0.92-0.08,1.27-0.22c0.34-0.15,0.63-0.34,0.85-0.581
		c0.21-0.239,0.371-0.509,0.471-0.819c0.1-0.31,0.15-0.63,0.15-0.95C352.006,53.199,351.955,52.88,351.855,52.579z M344.695,50.96
		h-2.45l-1.75,5.51h-0.021l-1.85-5.51h-2.45v8.01h1.63v-5.62h0.021l1.94,5.62h1.34l1.939-5.68h0.021v5.68h1.63V50.96z
		 M365.045,49.63v11.43c0,1.26-1.01,2.28-2.25,2.28h-31.5c-1.24,0-2.25-1.021-2.25-2.28V49.63c0-1.261,1.01-2.29,2.25-2.29h31.5
		C364.035,47.34,365.045,48.369,365.045,49.63z M358.925,31.13v8.369c0,0.53,0.431,0.961,0.96,0.961h8.601L358.925,31.13z
		 M372.045,43.34v25c0,2.209-1.789,4-4,4h-31c-2.21,0-4-1.791-4-4v-2h3v2c0,0.56,0.45,1,1,1h31c0.55,0,1-0.44,1-1v-25h-9.16
		c-2.119,0-3.84-1.71-3.84-3.841v-10.14c-0.06,0-0.12-0.02-0.189-0.02h-18.811c-0.55,0-1,0.45-1,1v14h-3v-14c0-2.21,1.79-4,4-4
		h18.811c2.63,0,4,1.5,4,1.5l11.069,10.81c0,0,0.57,0.5,0.891,1.811h0.229V43.34L372.045,43.34z"/>
</g>
<g id="mp2.png">
</g>
<g id="mov.png">
</g>
<g id="mid.png">
</g>
<g id="mdb.png">
</g>
<g id="mcd.png">
</g>
<g id="Row_5">
</g>
<g id="m4v.png">
</g>
<g id="m4p.png">
</g>
<g id="m4b.png">
</g>
<g id="m4a.png">
</g>
<g id="log.png">
</g>
<g id="lnk.png">
</g>
<g id="jpg.png">
	<path fill-rule="evenodd" clip-rule="evenodd" fill="#575756" d="M287.205,54.509c-0.141,0.091-0.3,0.15-0.48,0.181
		c-0.189,0.03-0.379,0.04-0.58,0.04h-1.35v-2.4h1.35c0.201,0,0.391,0.021,0.58,0.051c0.181,0.029,0.34,0.08,0.48,0.17
		s0.26,0.209,0.34,0.359c0.09,0.16,0.131,0.37,0.131,0.62s-0.041,0.46-0.131,0.62C287.465,54.3,287.346,54.429,287.205,54.509z
		 M297.465,54.64h-3.32v1.31h1.75c-0.049,0.56-0.229,0.99-0.549,1.29c-0.311,0.29-0.761,0.439-1.33,0.439
		c-0.391,0-0.73-0.079-1-0.229c-0.271-0.149-0.49-0.36-0.66-0.61c-0.17-0.26-0.301-0.539-0.381-0.859
		c-0.069-0.32-0.109-0.641-0.109-0.98c0-0.35,0.04-0.689,0.109-1.02c0.08-0.33,0.211-0.62,0.381-0.88
		c0.17-0.261,0.39-0.46,0.66-0.62c0.27-0.15,0.609-0.23,1-0.23c0.42,0,0.779,0.11,1.069,0.34c0.3,0.221,0.5,0.561,0.601,1.011h1.66
		c-0.041-0.46-0.16-0.86-0.36-1.21s-0.46-0.65-0.761-0.891c-0.31-0.24-0.649-0.42-1.029-0.539c-0.381-0.131-0.78-0.19-1.18-0.19
		c-0.61,0-1.15,0.11-1.641,0.33c-0.48,0.21-0.89,0.51-1.22,0.89c-0.33,0.391-0.591,0.83-0.771,1.34c-0.17,0.521-0.26,1.07-0.26,1.67
		c0,0.58,0.09,1.131,0.26,1.631c0.18,0.5,0.44,0.939,0.771,1.319c0.33,0.37,0.739,0.66,1.22,0.88c0.49,0.211,1.03,0.32,1.641,0.32
		c0.379,0,0.76-0.08,1.14-0.24s0.72-0.449,1.03-0.85l0.18,0.91h1.1V54.64z M289.205,52.579c-0.1-0.31-0.25-0.58-0.47-0.82
		c-0.22-0.239-0.5-0.43-0.851-0.58c-0.35-0.139-0.77-0.219-1.26-0.219h-3.57v8.01h1.74V56.1h1.83c0.49,0,0.91-0.08,1.26-0.22
		c0.351-0.15,0.631-0.34,0.851-0.58s0.37-0.51,0.47-0.82s0.15-0.63,0.15-0.95C289.355,53.199,289.305,52.88,289.205,52.579z
		 M281.335,50.96h-1.739v5.409c0,0.14-0.011,0.29-0.021,0.44c-0.011,0.15-0.04,0.29-0.101,0.43c-0.049,0.13-0.14,0.23-0.27,0.32
		c-0.12,0.08-0.3,0.119-0.529,0.119c-0.211,0-0.381-0.039-0.511-0.1c-0.12-0.07-0.229-0.16-0.3-0.279
		c-0.07-0.11-0.13-0.25-0.15-0.42c-0.029-0.16-0.05-0.34-0.05-0.541v-0.35h-1.569v0.689c0,0.44,0.069,0.82,0.219,1.131
		c0.15,0.31,0.341,0.56,0.591,0.76c0.239,0.2,0.521,0.34,0.83,0.439c0.31,0.091,0.63,0.141,0.96,0.141c0.59,0,1.061-0.09,1.41-0.28
		c0.35-0.18,0.609-0.409,0.8-0.68c0.18-0.271,0.3-0.57,0.351-0.88c0.049-0.32,0.079-0.6,0.079-0.86V50.96z M305.045,49.63v11.43
		c0,1.26-1.01,2.279-2.25,2.279h-31.5c-1.24,0-2.25-1.02-2.25-2.279V49.63c0-1.261,1.01-2.291,2.25-2.291h31.5
		C304.035,47.339,305.045,48.369,305.045,49.63z M298.926,31.13v8.369c0,0.53,0.43,0.961,0.959,0.961h8.601L298.926,31.13z
		 M312.045,43.339v25c0,2.211-1.789,4-4,4h-31c-2.21,0-4-1.789-4-4v-2h3v2c0,0.561,0.45,1,1,1h31c0.551,0,1-0.439,1-1v-25h-9.16
		c-2.119,0-3.84-1.709-3.84-3.84v-10.14c-0.06,0-0.119-0.021-0.189-0.021h-18.811c-0.55,0-1,0.451-1,1v14h-3v-14c0-2.209,1.79-4,4-4
		h18.811c2.63,0,4,1.5,4,1.5l11.07,10.811c0,0,0.569,0.5,0.889,1.811h0.23V43.339L312.045,43.339z"/>
</g>
<g id="jpeg.png">
	<path fill-rule="evenodd" clip-rule="evenodd" fill="#575756" d="M223.506,54.509c-0.141,0.091-0.301,0.15-0.49,0.181
		c-0.181,0.03-0.381,0.04-0.57,0.04h-1.36v-2.4h1.36c0.189,0,0.39,0.021,0.57,0.051c0.189,0.029,0.35,0.08,0.49,0.17
		c0.139,0.09,0.25,0.209,0.34,0.359c0.08,0.16,0.119,0.37,0.119,0.62s-0.039,0.46-0.119,0.62
		C223.756,54.3,223.645,54.429,223.506,54.509z M241.176,54.64h-3.32v1.31h1.75c-0.061,0.56-0.24,0.99-0.551,1.29
		c-0.319,0.29-0.76,0.439-1.34,0.439c-0.39,0-0.72-0.079-0.99-0.229c-0.279-0.149-0.5-0.36-0.67-0.61
		c-0.17-0.26-0.289-0.539-0.369-0.859s-0.121-0.641-0.121-0.98c0-0.35,0.041-0.689,0.121-1.02s0.199-0.62,0.369-0.88
		c0.17-0.261,0.391-0.46,0.67-0.62c0.271-0.15,0.601-0.23,0.99-0.23c0.42,0,0.78,0.11,1.08,0.34c0.29,0.221,0.49,0.561,0.6,1.011
		h1.66c-0.049-0.46-0.17-0.86-0.369-1.21c-0.2-0.35-0.45-0.65-0.76-0.891c-0.301-0.24-0.65-0.42-1.031-0.539
		c-0.379-0.131-0.77-0.19-1.18-0.19c-0.6,0-1.15,0.11-1.63,0.33c-0.489,0.21-0.89,0.51-1.229,0.89c-0.33,0.391-0.58,0.83-0.76,1.34
		c-0.181,0.521-0.271,1.07-0.271,1.67c0,0.58,0.09,1.131,0.271,1.631c0.18,0.5,0.43,0.939,0.76,1.319
		c0.34,0.37,0.74,0.66,1.229,0.88c0.479,0.211,1.03,0.32,1.63,0.32c0.391,0,0.771-0.08,1.141-0.24c0.38-0.16,0.72-0.449,1.029-0.85
		l0.18,0.91h1.111V54.64z M232.766,57.489h-4.26v-1.96h3.829v-1.37h-3.829v-1.72h4.17V50.96h-5.91v8.01h6V57.489z M225.506,52.579
		c-0.101-0.31-0.261-0.58-0.48-0.82c-0.221-0.239-0.5-0.43-0.85-0.58c-0.341-0.139-0.761-0.219-1.261-0.219h-3.569v8.01h1.739V56.1
		h1.83c0.5,0,0.92-0.08,1.261-0.22c0.35-0.15,0.629-0.34,0.85-0.58c0.22-0.24,0.38-0.51,0.48-0.82c0.1-0.311,0.149-0.63,0.149-0.95
		C225.655,53.199,225.605,52.88,225.506,52.579z M217.625,50.96h-1.74v5.409c0,0.14,0,0.29-0.01,0.44s-0.05,0.29-0.1,0.43
		c-0.061,0.13-0.15,0.23-0.27,0.32c-0.131,0.08-0.311,0.119-0.541,0.119c-0.199,0-0.369-0.039-0.5-0.1
		c-0.13-0.07-0.229-0.16-0.31-0.279c-0.07-0.11-0.12-0.25-0.149-0.42c-0.031-0.16-0.051-0.34-0.051-0.541v-0.35h-1.57v0.689
		c0,0.44,0.08,0.82,0.221,1.131c0.15,0.31,0.35,0.56,0.59,0.76s0.52,0.34,0.83,0.439c0.31,0.091,0.63,0.141,0.97,0.141
		c0.59,0,1.06-0.09,1.399-0.28c0.351-0.18,0.621-0.409,0.801-0.68s0.3-0.57,0.35-0.88c0.061-0.32,0.08-0.6,0.08-0.86V50.96z
		 M245.045,49.63v11.43c0,1.26-1.01,2.279-2.25,2.279h-31.5c-1.24,0-2.25-1.02-2.25-2.279V49.63c0-1.261,1.01-2.291,2.25-2.291h31.5
		C244.035,47.339,245.045,48.369,245.045,49.63z M238.926,31.13v8.369c0,0.53,0.43,0.961,0.959,0.961h8.601L238.926,31.13z
		 M252.045,43.339v25c0,2.211-1.789,4-4,4h-31c-2.21,0-4-1.789-4-4v-2h3v2c0,0.561,0.45,1,1,1h31c0.551,0,1-0.439,1-1v-25h-9.16
		c-2.119,0-3.84-1.709-3.84-3.84v-10.14c-0.06,0-0.119-0.021-0.189-0.021h-18.811c-0.55,0-1,0.451-1,1v14h-3v-14c0-2.209,1.79-4,4-4
		h18.811c2.63,0,4,1.5,4,1.5l11.07,10.811c0,0,0.569,0.5,0.889,1.811h0.23V43.339L252.045,43.339z"/>
</g>
<g id="jar.png">
</g>
<g id="iso.png">
</g>
<g id="Row_4">
</g>
<g id="indd.png">
</g>
<g id="ifo.png">
</g>
<g id="html.png">
</g>
<g id="htm.png">
</g>
<g id="hqx.png">
</g>
<g id="gz.png">
</g>
<g id="gif.png">
</g>
<g id="flv.png">
</g>
<g id="fla.png">
</g>
<g id="exe.png">
</g>
<g id="Row_3">
</g>
<g id="eps.png">
</g>
<g id="eml.png">
</g>
<g id="dwg.png">
</g>
<g id="dvf.png">
</g>
<g id="dss.png">
	<path fill-rule="evenodd" clip-rule="evenodd" fill="#575756" d="M159.766,56.96c-0.18,0.19-0.39,0.32-0.63,0.4
		c-0.24,0.09-0.48,0.13-0.73,0.13h-1.55v-5.05h1.24c0.43,0,0.79,0.06,1.08,0.19c0.29,0.12,0.53,0.3,0.7,0.53
		c0.18,0.23,0.31,0.51,0.39,0.84c0.07,0.32,0.11,0.69,0.11,1.09c0,0.44-0.05,0.81-0.16,1.12
		C160.096,56.52,159.956,56.76,159.766,56.96z M168.796,56.84c-0.17,0.25-0.39,0.46-0.67,0.61c-0.27,0.15-0.6,0.23-1,0.23
		c-0.39,0-0.72-0.08-0.99-0.23c-0.28-0.15-0.5-0.36-0.67-0.61c-0.17-0.26-0.29-0.54-0.37-0.86c-0.08-0.32-0.11-0.64-0.11-0.98
		c0-0.35,0.03-0.69,0.11-1.02s0.2-0.62,0.37-0.88c0.17-0.26,0.39-0.46,0.67-0.62c0.27-0.15,0.6-0.23,0.99-0.23
		c0.4,0,0.73,0.08,1,0.23c0.28,0.16,0.5,0.36,0.67,0.62c0.17,0.26,0.29,0.55,0.37,0.88s0.11,0.67,0.11,1.02
		c0,0.34-0.03,0.66-0.11,0.98C169.086,56.3,168.966,56.58,168.796,56.84z M173.566,53.98c0.08-0.33,0.2-0.62,0.37-0.88
		c0.17-0.26,0.39-0.46,0.67-0.62c0.27-0.15,0.6-0.23,1-0.23c0.21,0,0.41,0.04,0.61,0.11c0.2,0.07,0.37,0.17,0.53,0.3
		c0.15,0.12,0.28,0.27,0.38,0.44c0.11,0.17,0.17,0.35,0.2,0.55h1.69c-0.05-0.46-0.18-0.87-0.38-1.23c-0.2-0.36-0.45-0.66-0.76-0.9
		c-0.3-0.24-0.65-0.43-1.04-0.56c-0.39-0.12-0.8-0.19-1.23-0.19c-0.61,0-1.16,0.11-1.64,0.33c-0.48,0.21-0.89,0.51-1.22,0.89
		c-0.34,0.39-0.59,0.83-0.77,1.34c-0.18,0.52-0.26,1.07-0.26,1.67c0,0.58,0.08,1.13,0.26,1.63c0.18,0.5,0.43,0.94,0.77,1.32
		c0.33,0.37,0.74,0.66,1.22,0.88c0.48,0.21,1.03,0.32,1.64,0.32c0.48,0,0.93-0.08,1.34-0.23c0.4-0.15,0.76-0.36,1.06-0.65
		c0.3-0.28,0.55-0.63,0.73-1.03c0.19-0.4,0.3-0.85,0.34-1.36h-1.68c-0.07,0.54-0.25,0.98-0.55,1.31c-0.3,0.32-0.71,0.49-1.24,0.49
		c-0.4,0-0.73-0.08-1-0.23c-0.28-0.15-0.5-0.36-0.67-0.61c-0.17-0.26-0.29-0.54-0.37-0.86c-0.08-0.32-0.11-0.64-0.11-0.98
		C173.456,54.65,173.486,54.31,173.566,53.98z M170.756,53.33c-0.18-0.51-0.43-0.95-0.77-1.34c-0.33-0.38-0.74-0.68-1.22-0.89
		c-0.48-0.22-1.02-0.33-1.64-0.33c-0.6,0-1.15,0.11-1.63,0.33c-0.48,0.21-0.89,0.51-1.22,0.89c-0.34,0.39-0.59,0.83-0.77,1.34
		c-0.18,0.52-0.26,1.07-0.26,1.67c0,0.58,0.08,1.13,0.26,1.63c0.18,0.5,0.43,0.94,0.77,1.32c0.33,0.37,0.74,0.66,1.22,0.88
		c0.48,0.21,1.03,0.32,1.63,0.32c0.62,0,1.16-0.11,1.64-0.32c0.48-0.22,0.89-0.51,1.22-0.88c0.34-0.38,0.59-0.82,0.77-1.32
		c0.18-0.5,0.26-1.05,0.26-1.63C171.016,54.4,170.936,53.85,170.756,53.33z M161.846,53.18c-0.18-0.49-0.43-0.9-0.75-1.23
		c-0.33-0.33-0.71-0.58-1.14-0.74c-0.44-0.16-0.92-0.25-1.43-0.25h-3.41v8.01h3.41c0.61,0,1.13-0.11,1.58-0.31
		c0.45-0.21,0.82-0.49,1.12-0.85c0.3-0.36,0.52-0.78,0.67-1.28c0.15-0.49,0.22-1.03,0.22-1.61
		C162.116,54.26,162.026,53.68,161.846,53.18z M185.046,49.63v11.43c0,1.26-1.01,2.28-2.25,2.28h-31.5c-1.24,0-2.25-1.02-2.25-2.28
		V49.63c0-1.26,1.01-2.29,2.25-2.29h31.5C184.036,47.34,185.046,48.37,185.046,49.63z M178.926,31.13v8.37
		c0,0.53,0.43,0.96,0.96,0.96h8.6L178.926,31.13z M192.046,43.34v25c0,2.21-1.79,4-4,4h-31c-2.21,0-4-1.79-4-4v-2h3v2
		c0,0.56,0.45,1,1,1h31c0.55,0,1-0.44,1-1v-25h-9.16c-2.12,0-3.84-1.71-3.84-3.84V29.36c-0.06,0-0.12-0.02-0.19-0.02h-18.81
		c-0.55,0-1,0.45-1,1v14h-3v-14c0-2.21,1.79-4,4-4h18.81c2.63,0,4,1.5,4,1.5l11.07,10.81c0,0,0.57,0.5,0.89,1.81h0.23V43.34
		L192.046,43.34z"/>
</g>
<g id="doc.png">
</g>
<g id="dmg.png">
</g>
<g id="dll.png">
</g>
<g id="divx.png">
</g>
<g id="dat.png">
</g>
<g id="Row_2">
</g>
<g id="chm.png">
</g>
<g id="cdr.png">
</g>
<g id="cdl.png">
</g>
<g id="cda.png">
</g>
<g id="cbr.png">
</g>
<g id="cab.png">
</g>
<g id="bup.png">
</g>
<g id="bmp.png">
	<path fill-rule="evenodd" clip-rule="evenodd" fill="#575756" d="M99.145,54.2h-1.76v-1.87h1.63c0.149,0,0.3,0.01,0.45,0.04
		c0.14,0.03,0.27,0.07,0.38,0.14c0.109,0.07,0.2,0.16,0.26,0.28c0.07,0.12,0.1,0.27,0.1,0.46c0,0.34-0.1,0.58-0.3,0.73
		S99.455,54.2,99.145,54.2z M100.145,57.38c-0.12,0.08-0.26,0.14-0.41,0.17c-0.16,0.03-0.32,0.05-0.49,0.05h-1.859v-2.2h1.89
		c0.38,0,0.68,0.09,0.91,0.27c0.229,0.17,0.34,0.47,0.34,0.88c0,0.21-0.03,0.38-0.1,0.51C100.355,57.2,100.255,57.3,100.145,57.38z
		 M116.735,54.51c-0.14,0.09-0.3,0.15-0.479,0.18c-0.19,0.03-0.381,0.04-0.58,0.04h-1.351v-2.4h1.351c0.199,0,0.39,0.02,0.58,0.05
		c0.18,0.03,0.34,0.08,0.479,0.17c0.14,0.09,0.26,0.21,0.34,0.36c0.09,0.16,0.13,0.37,0.13,0.62s-0.04,0.46-0.13,0.62
		C116.995,54.3,116.875,54.43,116.735,54.51z M118.735,52.58c-0.1-0.31-0.25-0.58-0.47-0.82c-0.22-0.24-0.5-0.43-0.851-0.58
		c-0.35-0.14-0.77-0.22-1.26-0.22h-3.57v8.01h1.74V56.1h1.83c0.49,0,0.91-0.08,1.26-0.22c0.351-0.15,0.631-0.34,0.851-0.58
		c0.22-0.24,0.37-0.51,0.47-0.82s0.15-0.63,0.15-0.95C118.885,53.2,118.834,52.88,118.735,52.58z M111.575,50.96h-2.45l-1.75,5.51
		h-0.02l-1.85-5.51h-2.45v8.01h1.63v-5.62h0.02l1.94,5.62h1.34l1.94-5.68h0.02v5.68h1.63V50.96z M101.905,55.36
		c-0.24-0.35-0.6-0.6-1.09-0.74c0.36-0.17,0.62-0.39,0.81-0.66c0.181-0.27,0.271-0.61,0.271-1.01c0-0.38-0.061-0.69-0.19-0.94
		c-0.12-0.26-0.29-0.46-0.51-0.62c-0.22-0.15-0.49-0.26-0.8-0.33c-0.311-0.06-0.65-0.1-1.03-0.1h-3.72v8.01h3.83
		c0.359,0,0.7-0.05,1.04-0.14c0.33-0.09,0.63-0.22,0.899-0.41c0.261-0.19,0.471-0.43,0.62-0.72c0.16-0.3,0.23-0.65,0.23-1.05
		C102.265,56.15,102.145,55.72,101.905,55.36z M125.045,49.63v11.43c0,1.26-1.011,2.28-2.25,2.28h-31.5c-1.24,0-2.25-1.02-2.25-2.28
		V49.63c0-1.26,1.01-2.29,2.25-2.29h31.5C124.035,47.34,125.045,48.37,125.045,49.63z M118.925,31.13v8.37
		c0,0.53,0.43,0.96,0.96,0.96h8.6L118.925,31.13z M132.045,43.34v25c0,2.21-1.79,4-4,4h-31c-2.211,0-4-1.79-4-4v-2h3v2
		c0,0.56,0.449,1,1,1h31c0.55,0,1-0.44,1-1v-25h-9.16c-2.12,0-3.84-1.71-3.84-3.84V29.36c-0.061,0-0.12-0.02-0.19-0.02h-18.81
		c-0.551,0-1,0.45-1,1v14h-3v-14c0-2.21,1.789-4,4-4h18.81c2.63,0,4,1.5,4,1.5l11.07,10.81c0,0,0.569,0.5,0.89,1.81h0.23V43.34
		L132.045,43.34z"/>
</g>
<g id="bin.png">
</g>
<g id="bat.png">
</g>
<g id="Row_1">
</g>
<g id="avi.png">
	<path fill-rule="evenodd" clip-rule="evenodd" fill="#575756" d="M41.844,52.94h0.021l1,2.93h-2.051L41.844,52.94z M55.384,50.96
		h-1.74v8.01h1.74V50.96z M50.745,50.96l-1.79,5.63h-0.02l-1.761-5.63h-1.79l2.561,8.01h1.96l2.63-8.01H50.745z M40.985,50.96
		l-3,8.01h1.75l0.62-1.78h2.959l0.601,1.78h1.81l-2.959-8.01H40.985z M65.044,49.63v11.43c0,1.26-1.01,2.28-2.25,2.28h-31.5
		c-1.24,0-2.25-1.02-2.25-2.28V49.63c0-1.26,1.01-2.29,2.25-2.29h31.5C64.035,47.34,65.044,48.37,65.044,49.63z M58.924,31.13v8.37
		c0,0.53,0.431,0.96,0.96,0.96h8.601L58.924,31.13z M72.044,43.34v25c0,2.21-1.789,4-4,4h-31c-2.21,0-4-1.79-4-4v-2h3v2
		c0,0.56,0.45,1,1,1h31c0.55,0,1-0.44,1-1v-25h-9.16c-2.119,0-3.84-1.71-3.84-3.84V29.36c-0.06,0-0.12-0.02-0.189-0.02H37.044
		c-0.55,0-1,0.45-1,1v14h-3v-14c0-2.21,1.79-4,4-4h18.811c2.63,0,4,1.5,4,1.5l11.069,10.81c0,0,0.57,0.5,0.89,1.81h0.23V43.34z"/>
</g>
<g id="asx.png">
</g>
<g id="asf.png">
</g>
<g id="amr.png">
</g>
<g id="aiff.png">
</g>
<g id="aif.png">
</g>
<g id="ai.png">
</g>
<g id="ace.png">
</g>
<g id="_x37_z.png">
</g>
<g id="_x33_gp.png">
</g>
</svg>
