<?xml version="1.0" encoding="UTF-8"?>
<!DOCTYPE svg PUBLIC "-//W3C//DTD SVG 1.1//EN" "http://www.w3.org/Graphics/SVG/1.1/DTD/svg11.dtd">
<svg version="1.1" xmlns="http://www.w3.org/2000/svg" xmlns:xlink="http://www.w3.org/1999/xlink" x="0" y="0" width="500" height="500" viewBox="0, 0, 500, 500">
  <g id="CSS_kod">
    <path d="M67.083,323.048 L67.083,307.636 C55.229,307.636 46.535,302.697 46.535,284.125 L46.535,262.984 C46.535,246.98 38.83,237.299 25.79,234.73 C39.818,230.779 46.535,222.48 46.535,204.896 L46.535,181.977 C46.535,164.393 55.229,161.824 67.083,161.824 L67.083,146.215 C33.297,146.215 19.467,155.502 19.467,181.187 L19.467,201.537 C19.467,217.936 15.515,226.827 0.5,228.605 L0.5,240.855 C14.33,242.238 19.467,249.351 19.467,267.528 L19.467,289.262 C19.467,315.54 34.878,323.048 67.083,323.048 z" fill="#59AC71"/>
    <path d="M189.163,284.822 L175.17,264.543 C160.772,274.683 145.36,277.724 135.626,277.724 C114.536,277.724 102.774,262.11 102.774,236.761 C102.774,202.286 117.984,189.511 140.29,189.511 C144.752,189.511 151.038,190.119 156.514,191.944 L159.353,214.657 L184.093,214.657 C184.093,183.224 183.485,173.896 182.065,167.407 C168.478,164.162 156.514,162.337 137.046,162.337 C91.418,162.337 67.083,189.916 67.083,237.978 C67.083,280.361 91.012,306.723 129.137,306.723 C152.863,306.723 173.345,297.192 189.163,284.822 z" fill="#59AC71"/>
    <path d="M200.114,252.173 C200.114,275.899 201.128,290.5 202.953,299.22 C213.295,303.681 229.721,306.723 250.811,306.723 C291.775,306.723 309.012,287.053 309.012,264.746 C309.012,243.858 303.334,233.313 269.265,221.146 L252.028,214.859 C242.7,211.615 240.672,207.356 240.672,201.272 C240.672,195.392 244.93,189.308 260.951,189.308 C266.832,189.308 274.335,190.322 280.216,191.944 L282.649,213.845 L306.173,213.845 C306.173,191.539 305.767,171.868 304.145,167.407 C293.803,164.77 276.971,162.54 263.79,162.54 C221.407,162.54 205.183,182.007 205.183,205.531 C205.183,230.677 219.582,240.411 239.252,246.495 L257.098,251.767 C268.86,255.417 272.51,259.879 272.51,266.976 C272.51,274.277 267.643,279.752 254.867,279.752 C245.944,279.752 237.021,278.536 227.693,275.696 L224.448,252.173 z" fill="#59AC71"/>
    <path d="M324.018,252.173 C324.018,275.899 325.032,290.5 326.858,299.22 C337.2,303.681 353.626,306.723 374.716,306.723 C415.68,306.723 432.917,287.053 432.917,264.746 C432.917,243.858 427.239,233.313 393.17,221.146 L375.933,214.859 C366.604,211.615 364.577,207.356 364.577,201.272 C364.577,195.392 368.835,189.308 384.856,189.308 C390.736,189.308 398.24,190.322 404.121,191.944 L406.554,213.845 L430.078,213.845 C430.078,191.539 429.672,171.868 428.05,167.407 C417.708,164.77 400.876,162.54 387.695,162.54 C345.311,162.54 329.088,182.007 329.088,205.531 C329.088,230.677 343.486,240.411 363.157,246.495 L381.003,251.767 C392.764,255.417 396.415,259.879 396.415,266.976 C396.415,274.277 391.548,279.752 378.772,279.752 C369.849,279.752 360.926,278.536 351.598,275.696 L348.353,252.173 z" fill="#59AC71"/>
    <path d="M432.917,146.114 L432.917,161.525 C444.771,161.525 453.465,166.465 453.465,185.037 L453.465,206.178 C453.465,222.181 461.17,231.863 474.21,234.431 C460.182,238.383 453.465,246.681 453.465,264.266 L453.465,287.185 C453.465,304.769 444.771,307.337 432.917,307.337 L432.917,322.946 C466.703,322.946 480.533,313.66 480.533,287.975 L480.533,267.624 C480.533,251.225 484.485,242.334 499.5,240.556 L499.5,228.306 C485.67,226.923 480.533,219.811 480.533,201.633 L480.533,179.9 C480.533,153.622 465.122,146.114 432.917,146.114 z" fill="#59AC71"/>
    <path d="M430.548,214.071 L302.19,342.428 L242.29,282.528 L199.504,325.314 L302.19,428 L473.333,256.857 z" fill="#2E2C09"/>
  </g>
</svg>
