<?xml version="1.0" encoding="utf-8"?>
<!-- Generator: Adobe Illustrator 16.0.3, SVG Export Plug-In . SVG Version: 6.00 Build 0)  -->
<!DOCTYPE svg PUBLIC "-//W3C//DTD SVG 1.1//EN" "http://www.w3.org/Graphics/SVG/1.1/DTD/svg11.dtd">
<svg version="1.1" id="Vrstva_1" xmlns="http://www.w3.org/2000/svg" xmlns:xlink="http://www.w3.org/1999/xlink" x="0px" y="0px"
	 width="595.28px" height="595.281px" viewBox="123.305 0 595.28 595.281" enable-background="new 123.305 0 595.28 595.281"
	 xml:space="preserve">
<linearGradient id="SVGID_1_" gradientUnits="userSpaceOnUse" x1="835.9067" y1="-266.646" x2="835.9067" y2="277.606" gradientTransform="matrix(1 0 0 -1 -414.96 303.1211)">
	<stop  offset="0.005" style="stop-color:#999999"/>
	<stop  offset="1" style="stop-color:#B3B3B3"/>
</linearGradient>
<path fill="url(#SVGID_1_)" d="M625.425,43.681c-12.117-12.11-26.668-18.166-43.678-18.166H260.138
	c-17.008,0-31.568,6.056-43.682,18.166c-12.11,12.116-18.167,26.674-18.167,43.684v420.557c0,17.018,6.057,31.562,18.167,43.677
	c12.113,12.117,26.674,18.169,43.682,18.169h321.604c17.018,0,31.566-6.052,43.684-18.169
	c12.113-12.115,18.178-26.673,18.178-43.677V87.364C643.601,70.354,637.527,55.794,625.425,43.681L625.425,43.681z M438.337,537.688
	c-4.891,4.895-10.691,7.341-17.396,7.341c-6.704,0-12.5-2.446-17.396-7.341c-4.898-4.899-7.344-10.705-7.344-17.392
	c0-6.699,2.445-12.513,7.344-17.399c4.902-4.898,10.697-7.353,17.396-7.353c6.701,0,12.504,2.453,17.396,7.353
	c4.895,4.888,7.352,10.7,7.352,17.399C445.689,526.982,443.232,532.782,438.337,537.688z"/>
<g>
	<defs>
		<path id="SVGID_2_" d="M594.117,458.438c0,3.359-1.232,6.246-3.668,8.706c-2.453,2.453-5.348,3.669-8.703,3.669H260.138
			c-3.348,0-6.248-1.223-8.696-3.669c-2.446-2.445-3.671-5.347-3.671-8.706V87.364c0-3.35,1.224-6.253,3.671-8.696
			c2.45-2.45,5.349-3.673,8.696-3.673h321.605c3.355,0,6.25,1.217,8.703,3.673c2.445,2.443,3.67,5.347,3.67,8.696V458.438
			L594.117,458.438z"/>
	</defs>
	<clipPath id="SVGID_3_">
		<use xlink:href="#SVGID_2_"  overflow="visible"/>
	</clipPath>
	
		<radialGradient id="SVGID_4_" cx="835.9038" cy="30.2173" r="509.7491" gradientTransform="matrix(1 0 0 -1 -414.96 303.1211)" gradientUnits="userSpaceOnUse">
		<stop  offset="0" style="stop-color:#89831B"/>
		<stop  offset="1" style="stop-color:#47440F"/>
	</radialGradient>
	<path clip-path="url(#SVGID_3_)" fill="url(#SVGID_4_)" d="M650.007,518.323c0,4.438-1.631,8.265-4.854,11.514
		c-3.248,3.243-7.066,4.854-11.508,4.854H208.238c-4.431,0-8.266-1.618-11.504-4.854c-3.236-3.242-4.855-7.074-4.855-11.514V27.479
		c0-4.431,1.616-8.266,4.855-11.502c3.24-3.243,7.073-4.861,11.504-4.861h425.408c4.439,0,8.26,1.612,11.508,4.861
		c3.236,3.236,4.854,7.071,4.854,11.502V518.323z"/>
</g>
<g>
	<defs>
		<path id="SVGID_5_" d="M594.117,458.438c0,3.359-1.232,6.246-3.668,8.706c-2.453,2.453-5.348,3.669-8.703,3.669H260.138
			c-3.348,0-6.248-1.223-8.696-3.669c-2.446-2.445-3.671-5.347-3.671-8.706V87.364c0-3.35,1.224-6.253,3.671-8.696
			c2.45-2.45,5.349-3.673,8.696-3.673h321.605c3.355,0,6.25,1.217,8.703,3.673c2.445,2.443,3.67,5.347,3.67,8.696V458.438
			L594.117,458.438z"/>
	</defs>
	<clipPath id="SVGID_6_">
		<use xlink:href="#SVGID_5_"  overflow="visible"/>
	</clipPath>
	<path clip-path="url(#SVGID_6_)" fill="#56CF00" d="M353.059,180.249h135.769l-2.279,26.075l-54.385,24.554h52.1l-5.701,78.424
		l-55.525,15.819l-56.288-14.854l-3.994-39.767h25.672l1.902,20.389l32.708,6.77l29.473-9.32l1.904-32.147h-93.37l-2.091-24.99
		l60.278-27.84h-62.749L353.059,180.249z"/>
</g>
<g>
	<defs>
		<path id="SVGID_7_" d="M594.117,458.438c0,3.359-1.232,6.246-3.668,8.706c-2.453,2.453-5.348,3.669-8.703,3.669H260.138
			c-3.348,0-6.248-1.223-8.696-3.669c-2.446-2.445-3.671-5.347-3.671-8.706V87.364c0-3.35,1.224-6.253,3.671-8.696
			c2.45-2.45,5.349-3.673,8.696-3.673h321.605c3.355,0,6.25,1.217,8.703,3.673c2.445,2.443,3.67,5.347,3.67,8.696V458.438
			L594.117,458.438z"/>
	</defs>
	<clipPath id="SVGID_8_">
		<use xlink:href="#SVGID_7_"  overflow="visible"/>
	</clipPath>
	<path clip-path="url(#SVGID_8_)" fill="#56CF00" d="M320.541,138.472l18.257,204.164l82.146,24.267l82.146-23.916l18.258-204.514
		H320.541L320.541,138.472z M488.878,330.423L421.8,348.409l-67.079-17.986l-15.354-175.439h164.867L488.878,330.423z
		 M420.944,416.074l97.923,30.765l97.926,30.758H225.096l97.924-30.758L420.944,416.074z"/>
</g>
</svg>
