<?xml version="1.0" encoding="utf-8"?>
<!-- Generator: Adobe Illustrator 16.0.3, SVG Export Plug-In . SVG Version: 6.00 Build 0)  -->
<!DOCTYPE svg PUBLIC "-//W3C//DTD SVG 1.1//EN" "http://www.w3.org/Graphics/SVG/1.1/DTD/svg11.dtd">
<svg version="1.1" id="Vrstva_1" xmlns="http://www.w3.org/2000/svg" xmlns:xlink="http://www.w3.org/1999/xlink" x="0px" y="0px"
	 width="595.28px" height="595.281px" viewBox="123.305 0 595.28 595.281" enable-background="new 123.305 0 595.28 595.281"
	 xml:space="preserve">
<path fill="#F7DF1E" d="M153.182,30.182H692V569H153.182V30.182z"/>
<path fill="#2F2B00" d="M294.858,480.459l41.232-24.955c7.955,14.104,15.192,26.036,32.55,26.036
	c16.639,0,27.128-6.508,27.128-31.824V277.549h50.638v172.885c0,52.443-30.744,76.315-75.595,76.315
	c-40.507,0-64.019-20.98-75.956-46.297 M473.906,475.032l41.229-23.873c10.857,17.726,24.959,30.747,49.916,30.747
	c20.982,0,34.359-10.491,34.359-24.959c0-17.36-13.742-23.509-36.893-33.635l-12.654-5.428
	c-36.533-15.551-60.768-35.082-60.768-76.314c0-37.977,28.936-66.914,74.146-66.914c32.191,0,55.34,11.215,71.975,40.512
	l-39.424,25.317c-8.682-15.551-18.082-21.7-32.551-21.7c-14.828,0-24.234,9.405-24.234,21.7c0,15.19,9.406,21.342,31.105,30.746
	l12.656,5.425c43.041,18.444,67.273,37.253,67.273,79.568c0,45.573-35.805,70.527-83.91,70.527c-47.018,0-77.4-22.421-92.229-51.718
	"/>
<path fill="#2F2D00" d="M410.656,29c0.565,1.659,0.338,0.702,0.512,2.907v63.871c0,2.302-0.767,4.508-2.302,6.618
	s-3.453,3.356-5.753,3.74l-53.227,8.056c-3.644,10.357-7.385,19.084-11.221,26.181c6.713,9.591,16.975,22.826,30.785,39.705
	c1.918,2.302,2.877,4.7,2.877,7.193s-0.863,4.699-2.589,6.617c-5.179,7.097-14.674,17.454-28.484,31.073
	c-13.81,13.619-22.825,20.428-27.045,20.428c-2.302,0-4.795-0.863-7.48-2.589l-39.704-31.073
	c-8.439,4.411-17.166,8.055-26.181,10.932c-3.069,26.086-5.851,43.924-8.345,53.514c-1.343,5.372-4.795,8.057-10.357,8.057H158.27
	c-2.236,0.014-4.424-0.654-6.27-1.916V126.391c11.277,7.497,24.885,10.233,38.205,10.53c20.332,0,37.691-7.192,52.077-21.578
	c14.385-14.385,21.578-31.744,21.578-52.076c0.035-11.944-2.639-23.748-8.331-34.267H410.656z"/>
</svg>
