<?xml version="1.0" encoding="utf-8"?>
<!-- Generator: Adobe Illustrator 16.0.3, SVG Export Plug-In . SVG Version: 6.00 Build 0)  -->
<!DOCTYPE svg PUBLIC "-//W3C//DTD SVG 1.1//EN" "http://www.w3.org/Graphics/SVG/1.1/DTD/svg11.dtd">
<svg version="1.1" id="Vrstva_1" xmlns="http://www.w3.org/2000/svg" xmlns:xlink="http://www.w3.org/1999/xlink" x="0px" y="0px"
	 width="595.28px" height="595.281px" viewBox="123.305 0 595.28 595.281" enable-background="new 123.305 0 595.28 595.281"
	 xml:space="preserve">
<path fill="none" d="M0,0h841.89v595.281H0V0z"/>
<path fill="#002C3A" d="M432.111,61.67l75.293,62.079h-54.045l-32.431-26.738l-32.429,26.738h-54.046l75.556-62.295
	C416.555,56.069,425.892,56.334,432.111,61.67L432.111,61.67z M432.089,313.859l44.773,37.163l125.652-104.296l-43.551-35.907
	V166.26l80.354,66.249l23.035,18.213c0.09,1.141,0.137,2.293,0.137,3.456v239.534c0,12.028-4.932,22.973-12.854,30.896
	c-7.922,7.921-18.867,12.853-30.895,12.853H223.117c-12.032,0-22.982-4.924-30.905-12.847c-7.915-7.915-12.843-18.854-12.843-30.901
	V254.178c0-1.161,0.049-2.315,0.139-3.456l23.032-18.213l80.352-66.249v44.559l-43.551,35.907l125.652,104.296l-2.472,2.053
	l47.421-39.361C416.473,308.281,425.845,308.513,432.089,313.859L432.089,313.859z M627.984,270.245L503.765,373.352l-6.057-5.024
	l130.275,108.13V270.245z M606.101,502.954l-185.173-153.7l-185.174,153.7H606.101z M213.875,476.455l124.218-103.104
	L213.875,270.247V476.455L213.875,476.455z"/>
<path fill="#59AC71" d="M282.892,115.119h284.701v160.592l-17.256,14.325v-157.66H291.52v157.66l-17.257-14.325V115.119H282.892z"/>
<path fill="#59AC71" d="M334.664,163.722h172.531c4.75,0,8.627,3.876,8.627,8.627c0,4.75-3.877,8.626-8.627,8.626H334.664
	c-4.75,0-8.627-3.876-8.627-8.626C326.037,167.598,329.914,163.722,334.664,163.722z M334.664,198.648h172.531
	c4.75,0,8.627,3.876,8.627,8.627c0,4.75-3.877,8.626-8.627,8.626H334.664c-4.75,0-8.627-3.876-8.627-8.626
	C326.037,202.524,329.914,198.648,334.664,198.648z M334.664,233.574h172.531c4.75,0,8.627,3.876,8.627,8.627
	c0,4.75-3.877,8.626-8.627,8.626H334.664c-4.75,0-8.627-3.876-8.627-8.626C326.037,237.45,329.914,233.574,334.664,233.574z
	 M334.664,268.5h172.531c4.75,0,8.627,3.876,8.627,8.627c0,4.75-3.877,8.626-8.627,8.626H334.664c-4.75,0-8.627-3.876-8.627-8.626
	C326.037,272.376,329.914,268.5,334.664,268.5z"/>
</svg>
