<?xml version="1.0" encoding="UTF-8"?>
<!DOCTYPE svg PUBLIC "-//W3C//DTD SVG 1.1//EN" "http://www.w3.org/Graphics/SVG/1.1/DTD/svg11.dtd">
<svg version="1.1" xmlns="http://www.w3.org/2000/svg" xmlns:xlink="http://www.w3.org/1999/xlink" x="0" y="0" width="500" height="500" viewBox="0, 0, 500, 500">
  <g id="Rychlost">
    <path d="M263.898,21 C325.58,21 375.581,71.774 375.581,134.517 C375.581,135.675 375.388,136.833 375.388,137.992 C419.019,138.088 454.444,174.093 454.348,218.496 C454.239,247.787 438.421,274.985 412.811,289.225 C397.463,260.692 367.83,244.805 336,244 C300.003,244.085 268.396,266.134 254.5,299 L108.392,299 C60.708,298.903 22,259.617 22,211.16 C22,172.645 46.422,139.922 80.592,128.146 C85.129,100.539 108.875,79.399 137.351,79.399 C146.617,79.399 155.401,81.716 163.22,85.674 C181.174,47.449 219.399,21 263.898,21 z" fill="#2E2C09"/>
    <path d="M296.667,211 C198.725,211 119.333,290.392 119.333,388.333 C119.333,420.679 128.129,450.897 143.256,477 L450.078,477 C465.204,450.897 474,420.679 474,388.333 C474,290.392 394.608,211 296.667,211 z M382.354,309.509 L328.374,390.479 C330.697,395.196 332.133,400.445 332.133,406.067 C332.133,425.662 316.262,441.533 296.667,441.533 C277.071,441.533 261.2,425.662 261.2,406.067 C261.2,386.471 277.071,370.6 296.667,370.6 C297.411,370.6 298.121,370.777 298.848,370.813 L352.846,289.825 C358.272,281.667 369.285,279.468 377.442,284.913 C385.582,290.357 387.781,301.351 382.354,309.509 z" fill="#F87049"/>
  </g>
</svg>
