<?xml version="1.0" encoding="UTF-8"?>
<!DOCTYPE svg PUBLIC "-//W3C//DTD SVG 1.1//EN" "http://www.w3.org/Graphics/SVG/1.1/DTD/svg11.dtd">
<svg version="1.1" xmlns="http://www.w3.org/2000/svg" xmlns:xlink="http://www.w3.org/1999/xlink" x="0" y="0" width="500" height="500" viewBox="0, 0, 500, 500">
  <g id="Webová_koderina">
    <path d="M175.875,197 L158.625,172 C140.875,184.5 121.875,188.25 109.875,188.25 C83.875,188.25 69.375,169 69.375,137.75 C69.375,95.25 88.125,79.5 115.625,79.5 C121.125,79.5 128.875,80.25 135.625,82.5 L139.125,110.5 L169.625,110.5 C169.625,71.75 168.875,60.25 167.125,52.25 C150.375,48.25 135.625,46 111.625,46 C55.375,46 25.375,80 25.375,139.25 C25.375,191.5 54.875,224 101.875,224 C131.125,224 156.375,212.25 175.875,197 z" fill="#2E2C09"/>
    <path d="M189.375,156.75 C189.375,186 190.625,204 192.875,214.75 C205.625,220.25 225.875,224 251.875,224 C302.375,224 323.625,199.75 323.625,172.25 C323.625,146.5 316.625,133.5 274.625,118.5 L253.375,110.75 C241.875,106.75 239.375,101.5 239.375,94 C239.375,86.75 244.625,79.25 264.375,79.25 C271.625,79.25 280.875,80.5 288.125,82.5 L291.125,109.5 L320.125,109.5 C320.125,82 319.625,57.75 317.625,52.25 C304.875,49 284.125,46.25 267.875,46.25 C215.625,46.25 195.625,70.25 195.625,99.25 C195.625,130.25 213.375,142.25 237.625,149.75 L259.625,156.25 C274.125,160.75 278.625,166.25 278.625,175 C278.625,184 272.625,190.75 256.875,190.75 C245.875,190.75 234.875,189.25 223.375,185.75 L219.375,156.75 z" fill="#2E2C09"/>
    <path d="M339.083,156.75 C339.083,186 340.333,204 342.583,214.75 C355.333,220.25 375.583,224 401.583,224 C452.083,224 473.333,199.75 473.333,172.25 C473.333,146.5 466.333,133.5 424.333,118.5 L403.083,110.75 C391.583,106.75 389.083,101.5 389.083,94 C389.083,86.75 394.333,79.25 414.083,79.25 C421.333,79.25 430.583,80.5 437.833,82.5 L440.833,109.5 L469.833,109.5 C469.833,82 469.333,57.75 467.333,52.25 C454.583,49 433.833,46.25 417.583,46.25 C365.333,46.25 345.333,70.25 345.333,99.25 C345.333,130.25 363.083,142.25 387.333,149.75 L409.333,156.25 C423.833,160.75 428.333,166.25 428.333,175 C428.333,184 422.333,190.75 406.583,190.75 C395.583,190.75 384.583,189.25 373.083,185.75 L369.083,156.75 z" fill="#2E2C09"/>
    <path d="M375.333,470 L375.333,450.5 C360.333,450.5 349.333,444.25 349.333,420.75 L349.333,394 C349.333,373.75 339.583,361.5 323.083,358.25 C340.833,353.25 349.333,342.75 349.333,320.5 L349.333,291.5 C349.333,269.25 360.333,266 375.333,266 L375.333,246.25 C332.583,246.25 315.083,258 315.083,290.5 L315.083,316.25 C315.083,337 310.083,348.25 291.083,350.5 L291.083,366 C308.583,367.75 315.083,376.75 315.083,399.75 L315.083,427.25 C315.083,460.5 334.583,470 375.333,470 z" fill="#5FA316"/>
    <path d="M388.833,246.25 L388.833,266 C404.083,266 415.083,272 415.083,295.75 L415.083,322.25 C415.083,342.75 424.583,354.75 441.083,358 C423.583,363 415.083,373.75 415.083,396 L415.083,425 C415.083,447 404.083,450.5 388.833,450.5 L388.833,470 C431.583,470 449.333,458.5 449.333,426 L449.333,400 C449.333,379.25 454.333,368.25 473.083,365.75 L473.083,350.25 C455.833,348.75 449.333,339.75 449.333,316.75 L449.333,289.25 C449.333,256 429.583,246.25 388.833,246.25 z" fill="#5FA316"/>
  </g>
</svg>
