<?xml version="1.0" encoding="utf-8"?>
<!-- Generator: Adobe Illustrator 16.0.3, SVG Export Plug-In . SVG Version: 6.00 Build 0)  -->
<!DOCTYPE svg PUBLIC "-//W3C//DTD SVG 1.1//EN" "http://www.w3.org/Graphics/SVG/1.1/DTD/svg11.dtd">
<svg version="1.1" id="Vrstva_1" xmlns="http://www.w3.org/2000/svg" xmlns:xlink="http://www.w3.org/1999/xlink" x="0px" y="0px"
	 width="595.28px" height="595.281px" viewBox="123.305 0 595.28 595.281" enable-background="new 123.305 0 595.28 595.281"
	 xml:space="preserve">
<g>
	<path fill="#2687B2" d="M185.465,297.632c0,93.205,54.162,173.765,132.719,211.925l-112.329-307.76
		C192.79,231.082,185.465,263.492,185.465,297.632 M579.908,285.755c0-29.112-10.457-49.258-19.414-64.943
		c-11.936-19.407-23.133-35.822-23.133-55.228c0-21.644,16.414-41.793,39.547-41.793c1.043,0,2.033,0.125,3.051,0.188
		c-41.895-38.386-97.713-61.824-159.017-61.824c-82.271,0-154.642,42.213-196.748,106.136c5.53,0.178,10.737,0.285,15.155,0.285
		c24.625,0,62.76-2.992,62.76-2.992c12.687-0.743,14.187,17.904,1.507,19.406c0,0-12.763,1.491-26.951,2.236L362.412,442.3
		l51.54-154.552l-36.684-100.522c-12.689-0.745-24.7-2.236-24.7-2.236c-12.692-0.751-11.203-20.149,1.494-19.406
		c0,0,38.882,2.992,62.019,2.992c24.62,0,62.76-2.992,62.76-2.992c12.695-0.743,14.191,17.904,1.502,19.406
		c0,0-12.773,1.491-26.945,2.236l85.1,253.13l23.492-78.478C572.156,329.294,579.908,305.908,579.908,285.755"/>
	<path fill="#2687B2" d="M425.078,318.232l-70.662,205.3c21.602,6.364,44.005,9.596,66.525,9.596
		c27.422,0,53.725-4.735,78.199-13.349c-0.625-1.013-1.211-2.081-1.688-3.245L425.078,318.232z M627.578,184.662
		c1.01,7.5,1.582,15.546,1.582,24.216c0,23.885-4.473,50.747-17.908,84.341L539.33,501.17
		c70.008-40.816,117.088-116.664,117.088-203.539C656.417,256.69,645.958,218.201,627.578,184.662"/>
	<path fill="#2687B2" d="M420.943,559.554c-144.415,0-261.911-117.502-261.911-261.921c0-144.415,117.496-261.904,261.911-261.904
		c144.416,0,261.912,117.489,261.912,261.904C682.855,442.052,565.359,559.554,420.943,559.554 M420.943,23.141
		c-151.362,0-274.499,123.134-274.499,274.492c0,151.367,123.137,274.508,274.499,274.508
		c151.359,0,274.504-123.141,274.504-274.508C695.447,146.275,572.302,23.141,420.943,23.141"/>
</g>
</svg>
