<?xml version="1.0"?><svg xmlns="http://www.w3.org/2000/svg" width="44" height="44"><path d="m18.378 2.25c1.1-.4 2.25-.6 3.5-.6 1.25 0 2.4.2 3.5.6 1.426-1.974 3.35-2.754 6-1.7 1.753.697 2.65 2.316 3.3 4.2.351 1.018-.082 2.114-.7 2.9-.483.614-1.1 1.2-1.8 1.6.8 2.5.4 5-.7 7.6 3.1 1.6 6.289 3.422 9.4 4.9.89.423 1.678.913 2.2 1.8.478.813.54 2.02 0 3.1-.86 1.721-2.89 2.271-4.8 1.6-1.79-.629-3.6-1.5-5.4-2.2l.4 3.6c2.9 1.3 4.415 4.803 3.6 8.4-.885 3.904-4.598 6.593-8.1 5.7-1.598-.407-2.9-1.5-3.7-2.8-2 .3-4.1.3-6.2 0-.8 1.4-2.095 2.422-3.7 2.8-3.495.822-7.204-1.799-8.1-5.7-.804-3.499.7-7 3.5-8.3l.5-3.7c-1.8.7-3.697 1.508-5.4 2.1-.597.208-1.407.549-2.3.4-.909-.152-1.921-.79-2.5-2-.521-1.09-.4-2.3.1-3.1.5-.8 1.309-1.383 2.1-1.8 3.01-1.584 6.3-3.2 9.4-4.9-1.1-2.1-1.4-4.9-.7-7.4-.7-.4-1.391-.906-1.9-1.6-.591-.806-.943-1.809-.7-2.9.358-1.61 1.671-3.245 3.2-4.2 1.979-1.235 4.963-.107 6 1.6m-5.194-.505c-1.494.734-2.097 1.809-2.706 3.405-.192.503.05 1.237.5 1.8.353.442.8.8 1.3 1.1 1-2.2 2.7-4 4.9-5.1-1.371-1.568-2.274-2.051-3.994-1.206m17.694.001c-1.589-.822-2.8-.4-4.1 1.1 2.2 1.1 3.9 2.9 4.9 5.1.5-.3.913-.69 1.2-1.1.414-.591.617-1.304.5-1.8-.283-1.204-1.189-2.622-2.5-3.3m-8.8 1.4c-5 0-9.265 4.099-9.2 9.1.035 2.7 1.1 5 3 6.7-.5-.9-.8-2-.8-3.1 0-2.5 1.4-4.7 3.4-5.9-.8-.2-1.3-.9-1.3-1.7 0-1 .8-1.8 1.8-1.8.9 0 1.8.8 1.8 1.8 0 .3-.1.6-.2.9.9-.2 1.9-.3 3.2 0-.2-.3-.3-.6-.3-.9 0-1 .8-1.8 1.8-1.8.9 0 1.8.8 1.8 1.8 0 .8-.6 1.5-1.4 1.7 2 1.2 3.4 3.4 3.4 5.9 0 1.1-.3 2.2-.8 3.1 1.8-1.7 3-4 3-6.7 0-5-4.2-9.1-9.2-9.1m-3.1 4.2c-.5 0-.8.3-.8.8 0 .5.3.8.8.8.5 0 .8-.4.8-.8 0-.4-.3-.8-.8-.8m6.3 0c-.5 0-.8.3-.8.8 0 .5.3.8.8.8.5 0 .8-.4.8-.8 0-.4-.3-.8-.8-.8m-8.8 8.5c.1 2.3 2.6 5.5 5.6 5.5 3.2 0 5.6-2.5 5.6-5.5 0-3.1-2.5-5.5-5.6-5.5-3.1 0-5.6 2.4-5.6 5.5m5.6-4.7c1.5 0 2.8 1.3 2.8 2.8 0 1.5-1.3 2.8-2.8 2.8-1.5 0-2.8-1.3-2.8-2.8 0-1.5 1.3-2.8 2.8-2.8m0 1c-1.1 0-1.9.8-1.9 1.9 0 1.1.85 1.9 1.9 1.9 1.05 0 1.9-.85 1.9-1.9 0-1.05-.9-1.9-1.9-1.9m-8.9 5.8c-3.2 1.7-6.287 3.424-9.5 5.2-.587.325-1.2.8-1.5 1.3-.3.5-.327 1.01 0 1.8.284.685.871.918 1.4 1.1.482.166 1.183-.14 1.6-.3 2.185-.84 4.3-1.8 6.5-2.6.5-.2 1.07.195 1 .7l-.6 4.3c1.2-.1 2.6-.1 3.8.6.4-3 3-5.2 6.1-5.2 3.1 0 5.7 2.3 6.1 5.2 1.1-.5 2.3-.9 3.8-.7l-.5-4.2c-.059-.497.489-.87 1-.7.391.13 4.886 2.146 6.4 2.6.488.146 1.2.4 1.8.2.525-.175 1.017-.393 1.3-1.1.317-.793.3-1.3 0-1.8-.3-.5-.887-.924-1.6-1.3-3.087-1.625-6.2-3.4-9.4-5-1.7 2.3-5.3 4.6-8.8 4.6-3.3 0-6.3-1.8-8.9-4.7m8.8 8.3c-2.65 0-4.7 1.8-4.8 4.7 1.1 1 2 2.565 2.5 4.2.506 1.671.3 3.3-.2 4.7 1.7.1 3.3.2 5 0-.5-1.4-.575-3.094-.2-4.7.325-1.394 1.3-2.8 2.4-4.1 0-2.1-2.05-4.8-4.7-4.8m-10 4.6c-2.695.621-4.312 3.703-3.5 7 .788 3.203 3.719 5.282 6.4 4.6 3.222-.819 4.263-4.139 3.5-7-.758-2.843-3.636-5.237-6.4-4.6m19-.1c-2.599.122-4.1 2-5.4 4.7-.9 3 .41 5.97 3.5 7 2.61.87 5.48-1.406 6.4-4.6.78-2.706-.699-7.278-4.5-7.1" style="fill:#999"/></svg>