<?xml version="1.0"?><svg xmlns="http://www.w3.org/2000/svg" width="44" height="44"><path d="m11.437.528c.858 0 1.607.665 1.607 1.493v1.894h16.846v1.377h-16.846v1.98c0 .919-.78 1.521-1.607 1.521h-1.75c-.858 0-1.607-.694-1.607-1.521v-5.252c0-.919.78-1.493 1.607-1.493zm22.877-.001c.858 0 1.607.665 1.607 1.493v1.98h6.372c.858 0 1.607.694 1.607 1.521v36.449c0 .919-.78 1.521-1.607 1.521h-40.585c-.858 0-1.607-.694-1.607-1.521v-36.528c0-.919.78-1.521 1.607-1.521h5.309v1.377h-5.309c-.091 0-.229.143-.229.143v7.204h41.04v-7.117c0-.091.015-.143-.229-.143h-6.372v1.894c0 .919-.78 1.521-1.607 1.521h-1.75c-.858 0-1.607-.694-1.607-1.521v-5.252c0-.919.78-1.493 1.607-1.493zm-24.628 1.384c-.091 0-.229.115-.229.115v5.252c0 .091-.015.143.229.143h1.75c.091 0 .229-.143.229-.143v-5.252c0-.091.015-.115-.229-.115h-1.75m22.872 0c-.091 0-.229.115-.229.115v5.252c0 .091-.015.143.229.143h1.75c.091 0 .229-.143.229-.143v-5.252c0-.091.015-.115-.229-.115h-1.75m-31.09 40.06c0 .091-.015.143.229.143h40.585c.091 0 .229-.143.229-.143v-27.952h-41.04zm28.559-20.948l-8.637 13.11-6.515-5.97.918-1.033 5.339 4.879 7.749-11.738z" style="fill:#999;color:#000"/></svg>