<?xml version="1.0" encoding="UTF-8" standalone="no"?>
<svg
   xmlns:dc="http://purl.org/dc/elements/1.1/"
   xmlns:cc="http://creativecommons.org/ns#"
   xmlns:rdf="http://www.w3.org/1999/02/22-rdf-syntax-ns#"
   xmlns:svg="http://www.w3.org/2000/svg"
   xmlns="http://www.w3.org/2000/svg"
   xmlns:sodipodi="http://sodipodi.sourceforge.net/DTD/sodipodi-0.dtd"
   xmlns:inkscape="http://www.inkscape.org/namespaces/inkscape"
   width="50"
   height="50"
   id="svg2"
   version="1.1"
   inkscape:version="0.48.5 r10040"
   sodipodi:docname="completation-50.svg">
  <metadata
     id="metadata10">
    <rdf:RDF>
      <cc:Work
         rdf:about="">
        <dc:format>image/svg+xml</dc:format>
        <dc:type
           rdf:resource="http://purl.org/dc/dcmitype/StillImage" />
      </cc:Work>
    </rdf:RDF>
  </metadata>
  <defs
     id="defs8" />
  <sodipodi:namedview
     pagecolor="#ffffff"
     bordercolor="#666666"
     borderopacity="1"
     objecttolerance="10"
     gridtolerance="10"
     guidetolerance="10"
     inkscape:pageopacity="0"
     inkscape:pageshadow="2"
     inkscape:window-width="1920"
     inkscape:window-height="1178"
     id="namedview6"
     showgrid="false"
     inkscape:zoom="18.652425"
     inkscape:cx="18.593326"
     inkscape:cy="25"
     inkscape:window-x="0"
     inkscape:window-y="0"
     inkscape:window-maximized="1"
     inkscape:current-layer="svg2" />
  <path
     d="m 28.961404,3.8896068 a 0.708721,0.708721 0 0 0 -0.34375,0.1562 l -4.406,3.844 -1.594,-1.781 a 0.708721,0.708721 0 0 0 -0.6875,-0.2187 0.708721,0.708721 0 0 0 -0.34375,0.2187 l -2.531,2.563 a 0.7188,0.7188 0 0 0 -0.0625,0 h -3.5 a 0.708721,0.708721 0 0 0 -0.0625,0 0.708721,0.708721 0 0 0 -0.375,0.1563 L 4.7114043,16.734107 a 0.708721,0.708721 0 0 0 -0.15625,0.125 0.708721,0.708721 0 0 0 -0.03125,0 0.708721,0.708721 0 0 0 -0.03125,0.031 0.708721,0.708721 0 0 0 -0.03125,0.031 0.708721,0.708721 0 0 0 0,0.031 0.708721,0.708721 0 0 0 -0.09375,0.094 0.708721,0.708721 0 0 0 0,0.031 0.708721,0.708721 0 0 0 -0.03125,0.031 0.708721,0.708721 0 0 0 0,0.031 0.708721,0.708721 0 0 0 -0.03125,0.094 0.708721,0.708721 0 0 0 0,0.031 l -3.93799996,7.812 a 0.708721,0.708721 0 0 0 0.93749996,0.9375 l 3,-1.5 v 20.875 a 0.708721,0.708721 0 0 0 0.6875,0.7187 H 34.836154 a 0.708721,0.708721 0 0 0 0.28125,0 0.708721,0.708721 0 0 0 0.03125,0 0.708721,0.708721 0 0 0 0.40625,-0.2812 l 0.031,-0.062 a 0.708721,0.708721 0 0 0 0.03125,-0.031 l 7.938,-9.906 a 0.708721,0.708721 0 0 0 0.15625,-0.4375 v -9.719 l 5.781,-5.781 a 0.708721,0.708721 0 0 0 0.09375,-0.875 l -5.875,-9.7500002 a 0.708721,0.708721 0 0 0 0,-0.031 v -0.031 a 0.708721,0.708721 0 0 0 -0.125,-0.2188 0.708721,0.708721 0 0 0 -0.03125,-0.031 0.708721,0.708721 0 0 0 -0.03125,-0.031 0.708721,0.708721 0 0 0 -0.03125,-0.031 0.708721,0.708721 0 0 0 -0.03125,-0.031 0.708721,0.708721 0 0 0 0,-0.031 0.708721,0.708721 0 0 0 -0.3125,-0.125 0.708721,0.708721 0 0 0 -0.125,-0.031 0.708721,0.708721 0 0 0 -0.03125,0 h -9.125 l -4.25,-4.563 a 0.708721,0.708721 0 0 0 -0.65625,-0.2187 z m 0.094,1.688 8.094,8.6560002 -2.438,2.438 h -2.75 a 0.708721,0.708721 0 0 0 -0.125,-0.1562 l -6.688,-7.5310002 3.906,-3.406 m -7,2.031 8.03,9.0600002 h -16.906 l 8.875,-9.0600002 m -6.344,2.5000002 h 1.938 l -6.438,6.563 H 7.1154043 l 8.5939997,-6.563 m 19.5,0 h 6.06 l -3.125,3.125 -2.938,-3.125 m 7.656,0.406 5.25,8.75 -7,7 -5.25,-8.75 7,-7 m -37.1599997,7.594 h 5.5309997 a 0.708721,0.708721 0 0 0 0.40625,0 h 0.063 22.563 v 26.562 H 5.7036543 v -21.12 a 0.708721,0.708721 0 0 0 0,-0.1562 v -5.281 m 29.9999997,1.844 4.688,7.813 a 0.708721,0.708721 0 0 0 1.09375,0.125 l 0.781,-0.781 v 8.03 l -6.563,8.219 v -23.406 m -31.4369997,0.438 v 2.563 l -1.719,0.875 1.719,-3.438 m 10.6562497,2.2812 a 0.71942903,0.71942903 0 1 0 0.0625,1.4375 h 10 a 0.71875,0.71875 0 0 0 0,-1.4375 h -10 a 0.708721,0.708721 0 0 0 -0.0625,0"
     style="color:#000000;fill:#7f7f7f"
     id="path4"
     inkscape:connector-curvature="0" />
</svg>
