<?xml version="1.0" encoding="UTF-8" standalone="no"?>
<svg
   xmlns:dc="http://purl.org/dc/elements/1.1/"
   xmlns:cc="http://creativecommons.org/ns#"
   xmlns:rdf="http://www.w3.org/1999/02/22-rdf-syntax-ns#"
   xmlns:svg="http://www.w3.org/2000/svg"
   xmlns="http://www.w3.org/2000/svg"
   xmlns:sodipodi="http://sodipodi.sourceforge.net/DTD/sodipodi-0.dtd"
   xmlns:inkscape="http://www.inkscape.org/namespaces/inkscape"
   width="44"
   height="44"
   id="svg2"
   version="1.1"
   inkscape:version="0.48.5 r10040"
   sodipodi:docname="delivery-44.svg">
  <metadata
     id="metadata10">
    <rdf:RDF>
      <cc:Work
         rdf:about="">
        <dc:format>image/svg+xml</dc:format>
        <dc:type
           rdf:resource="http://purl.org/dc/dcmitype/StillImage" />
      </cc:Work>
    </rdf:RDF>
  </metadata>
  <defs
     id="defs8" />
  <sodipodi:namedview
     pagecolor="#ffffff"
     bordercolor="#666666"
     borderopacity="1"
     objecttolerance="10"
     gridtolerance="10"
     guidetolerance="10"
     inkscape:pageopacity="0"
     inkscape:pageshadow="2"
     inkscape:window-width="1920"
     inkscape:window-height="1178"
     id="namedview6"
     showgrid="false"
     inkscape:zoom="21.195938"
     inkscape:cx="16.362127"
     inkscape:cy="22"
     inkscape:window-x="0"
     inkscape:window-y="0"
     inkscape:window-maximized="1"
     inkscape:current-layer="svg2" />
  <path
     d="m 2.463463,6.0497704 c -1.2907855,0 -2.3634605,1.0083145 -2.3634605,2.2481482 V 31.264783 c 0,1.337268 1.1120064,2.449275 2.4492745,2.449275 h 3.8035266 c 0.386163,2.401898 2.5020143,4.236172 5.0433604,4.236172 2.572632,0 4.725133,-1.875393 5.071965,-4.32288 h 8.298928 c 0.615001,0 1.19067,-0.224368 1.613482,-0.605168 0.442479,0.42907 1.045858,0.691876 1.70019,0.691876 h 1.23894 c 0.386163,2.401898 2.502014,4.236172 5.04336,4.236172 2.810408,0 5.100569,-2.239209 5.100569,-5.014755 0,-2.775547 -2.289267,-5.04336 -5.100569,-5.04336 -2.603025,0 -4.763571,1.946011 -5.071965,4.438192 h -1.210335 c -0.379906,0 -0.798249,-0.320015 -0.980604,-0.691875 0.0072,-0.09207 0.02056,-0.203808 0.0286,-0.288729 V 14.258416 c 0,-0.403147 0.58282,-0.663271 0.951105,-0.663271 h 7.118092 c 0.843838,0 1.811033,0.750873 2.478773,1.584877 l 0.345937,0.461251 h -4.58211 c -0.645392,0 -1.226425,0.290516 -1.671585,0.72048 -0.444266,0.429964 -0.778583,1.009208 -0.778583,1.700189 v 3.515693 c 0,1.337268 1.112006,2.449274 2.449274,2.449274 h 9.077512 v 7.146697 c 0,0.506839 -0.558685,1.066418 -1.066417,1.066418 h -1.7574 v 1.382856 h 1.7574 c 1.337268,0 2.449274,-1.112006 2.449274,-2.449274 v -8.382061 c 0,-1.947799 -1.44096,-3.659609 -1.44096,-3.659609 -1.231788,-1.598286 -2.464471,-3.222495 -3.688214,-4.812735 -0.788416,-1.025299 -2.019311,-2.103337 -3.572902,-2.103337 h -7.118092 c -0.334317,0 -0.658801,0.07688 -0.951105,0.20202 V 8.3837326 c 0,-1.2907858 -1.036919,-2.3339622 -2.276752,-2.3339622 z m 0,1.3837507 h 22.39209 c 0.420131,0 0.902835,0.3968897 0.893896,0.9502115 l -0.05721,23.2278824 c -9e-5,0.35577 -0.483598,0.634666 -0.922501,0.634666 H 16.47081 c -0.346832,-2.451062 -2.499333,-4.351485 -5.071966,-4.351485 -2.6030242,0 -4.7635704,1.946011 -5.0719644,4.438193 H 2.5519577 c -0.5068389,0 -1.0664177,-0.558685 -1.0664177,-1.066418 V 8.2997066 c 0,-0.4201315 0.4272822,-0.8652916 0.9806037,-0.8652916 m 30.9788543,9.595972 h 5.648527 l 2.276753,2.940023 c 0,0 1.010996,1.50979 1.095916,2.6799 0,0 -6.013237,0 -9.019408,0 -0.506839,0 -1.066418,-0.558685 -1.066418,-1.066418 0,-1.171897 0,-3.515692 0,-3.515692 0,-0.690982 0.446054,-1.036919 1.066418,-1.036919 M 11.402421,29.278547 c 2.078308,0 3.746318,1.64745 3.746318,3.659609 0,2.01216 -1.667116,3.631899 -3.746318,3.631899 -2.0783078,0 -3.7463174,-1.619739 -3.7463174,-3.631899 0,-2.012159 1.6671157,-3.659609 3.7463174,-3.659609 m 22.966865,0 c 2.078308,0 3.715925,1.64745 3.715925,3.659609 0,2.01216 -1.638511,3.631899 -3.715925,3.631899 -2.078308,0 -3.746317,-1.619739 -3.746317,-3.631899 0,-2.012159 1.667115,-3.659609 3.746317,-3.659609"
     style="color:#000000;fill:#ffffff"
     id="path4"
     inkscape:connector-curvature="0" />
</svg>
