<?xml version="1.0" encoding="UTF-8" standalone="no"?>
<svg
   xmlns:dc="http://purl.org/dc/elements/1.1/"
   xmlns:cc="http://creativecommons.org/ns#"
   xmlns:rdf="http://www.w3.org/1999/02/22-rdf-syntax-ns#"
   xmlns:svg="http://www.w3.org/2000/svg"
   xmlns="http://www.w3.org/2000/svg"
   xmlns:sodipodi="http://sodipodi.sourceforge.net/DTD/sodipodi-0.dtd"
   xmlns:inkscape="http://www.inkscape.org/namespaces/inkscape"
   width="50"
   height="50"
   id="svg2"
   version="1.1"
   inkscape:version="0.48.5 r10040"
   sodipodi:docname="delivery-50.svg">
  <metadata
     id="metadata10">
    <rdf:RDF>
      <cc:Work
         rdf:about="">
        <dc:format>image/svg+xml</dc:format>
        <dc:type
           rdf:resource="http://purl.org/dc/dcmitype/StillImage" />
      </cc:Work>
    </rdf:RDF>
  </metadata>
  <defs
     id="defs8" />
  <sodipodi:namedview
     pagecolor="#ffffff"
     bordercolor="#666666"
     borderopacity="1"
     objecttolerance="10"
     gridtolerance="10"
     guidetolerance="10"
     inkscape:pageopacity="0"
     inkscape:pageshadow="2"
     inkscape:window-width="1920"
     inkscape:window-height="1178"
     id="namedview6"
     showgrid="false"
     inkscape:zoom="18.652425"
     inkscape:cx="18.593326"
     inkscape:cy="25"
     inkscape:window-x="0"
     inkscape:window-y="0"
     inkscape:window-maximized="1"
     inkscape:current-layer="svg2" />
  <path
     d="m 3.1445,7.1565 c -1.444,0 -2.644,1.128 -2.644,2.515 v 25.693 c 0,1.496 1.244,2.74 2.74,2.74 h 4.255 c 0.432,2.687 2.799,4.739 5.642,4.739 2.878,0 5.286,-2.098 5.674,-4.836 h 9.284 c 0.688,0 1.332,-0.251 1.805,-0.677 0.495,0.48 1.17,0.774 1.902,0.774 h 1.386 c 0.432,2.687 2.799,4.739 5.642,4.739 3.144,0 5.706,-2.505 5.706,-5.61 0,-3.105 -2.561,-5.642 -5.706,-5.642 -2.912,0 -5.329,2.177 -5.674,4.965 h -1.354 c -0.425,0 -0.893,-0.358 -1.097,-0.774 0.008,-0.103 0.023,-0.228 0.032,-0.323 v -19.12 c 0,-0.451 0.652,-0.742 1.064,-0.742 h 7.963 c 0.944,0 2.026,0.84 2.773,1.773 l 0.387,0.516 h -5.126 c -0.722,0 -1.372,0.325 -1.87,0.806 -0.497,0.481 -0.871,1.129 -0.871,1.902 v 3.933 c 0,1.496 1.244,2.74 2.74,2.74 h 10.155 v 7.995 c 0,0.567 -0.625,1.193 -1.193,1.193 h -1.966 v 1.547 h 1.966 c 1.496,0 2.74,-1.244 2.74,-2.74 v -9.377 c 0,-2.179 -1.612,-4.094 -1.612,-4.094 -1.378,-1.788 -2.757,-3.605 -4.126,-5.384 -0.882,-1.147 -2.259,-2.353 -3.997,-2.353 h -7.963 c -0.374,0 -0.737,0.086 -1.064,0.226 v -4.513 c 0,-1.444 -1.16,-2.611 -2.547,-2.611 z m 0,1.548 h 25.05 c 0.47,0 1.01,0.444 1,1.063 l -0.064,25.985 c -10e-5,0.398 -0.541,0.71 -1.032,0.71 h -9.284 c -0.388,-2.742 -2.796,-4.868 -5.674,-4.868 -2.912,0 -5.329,2.177 -5.674,4.965 h -4.223 c -0.567,0 -1.193,-0.625 -1.193,-1.193 V 9.6735 c 0,-0.47 0.478,-0.968 1.097,-0.968 m 34.656,10.735 h 6.319 l 2.547,3.289 c 0,0 1.131,1.689 1.226,2.998 0,0 -6.727,0 -10.09,0 -0.567,0 -1.193,-0.625 -1.193,-1.193 0,-1.311 0,-3.933 0,-3.933 0,-0.773 0.499,-1.16 1.193,-1.16 m -24.661,13.701 c 2.325,0 4.191,1.843 4.191,4.094 0,2.251 -1.865,4.063 -4.191,4.063 -2.325,0 -4.191,-1.812 -4.191,-4.063 0,-2.251 1.865,-4.094 4.191,-4.094 m 25.693,0 c 2.325,0 4.157,1.843 4.157,4.094 0,2.251 -1.833,4.063 -4.157,4.063 -2.325,0 -4.191,-1.812 -4.191,-4.063 0,-2.251 1.865,-4.094 4.191,-4.094"
     style="color:#000000;fill:#999999"
     id="path4"
     inkscape:connector-curvature="0" />
</svg>
