<?xml version="1.0"?><svg xmlns="http://www.w3.org/2000/svg" viewBox="0 0 17 16" enable-background="new 0 0 17 16" width="17" height="16"><path d="m.094 1.906c0 0 0 8.566 0 12.188 5.831 0 11.812 0 16.813 0 0-4.22 0-12.188 0-12.188zm1 1h14.813v.469l-6.406 5.625c-.613.538-1.362.56-2 0l-6.406-5.625zm0 1.781c1.453 1.311 2.534 2.263 3.938 3.5l-3.938 3.156zm14.813 0v6.656l-3.938-3.156zm-10.125 4.156c.523.458.947.82 1.094.938 1.055.847 2.178.875 3.25 0 .143-.117.554-.491 1.063-.938l4.719 3.781v.469h-14.813v-.469z" color="#000" fill="#909090"/></svg>
