<?xml version="1.0"?><svg xmlns="http://www.w3.org/2000/svg" viewBox="0 0 30 30" enable-background="new 0 0 30 30" width="30" height="30"><path fill="#fff" d="m17.7 9.3c.6 0 1.1 0 1.7 0 .5 0 .6-.1.6-.6 0-.8 0-1.7 0-2.5 0-.4-.1-.5-.5-.5h-3c0 0-.7.2-1 .3-1.7.6-2.5 1.8-2.7 3.5-.1.9 0 1.9 0 2.9-.8 0-1.5 0-2.2 0-.6 0-.6.1-.6.6 0 .9 0 1.8 0 2.7 0 .4.1.6.6.6.7 0 1.5 0 2.2 0v.4c0 2.3 0 4.7 0 7 0 .2 0 .7.2.7h3.6c.2 0 .2-.4.2-.7 0-2.3 0-4.6 0-7v-.5c.8 0 1.6 0 2.4 0 .7 0 .8-.1.8-.8 0-.8 0-1.7 0-2.5 0-.5-.1-.6-.6-.6-.8 0-1.5 0-2.3 0-.1 0-.2 0-.4 0 0-.8 0-1.6 0-2.3.1-.4.5-.7 1-.7"/><circle fill="none" stroke="#fff" stroke-miterlimit="10" cx="15" cy="15" r="14.4"/></svg>