<?xml version="1.0"?><svg xmlns="http://www.w3.org/2000/svg" viewBox="0 0 16 16" width="16" height="16" style="enable-background:new 0 0 16 16"><path d="m13.867 0h-11.802c-1.135 0-2.065.929-2.065 2.065v11.871c0 1.135.929 2.065 2.065 2.065h6.503v-6.194h-2.099v-2.374h2.099c0 0-.011-.665 0-.998.02-.583.013-2.02.542-2.842.442-.69 1.437-1.287 2.521-1.287.933 0 1.204 0 2.168 0l-.034 2.305c-.516 0-.941 0-1.411 0-1.443 0-1.239 1.435-1.239 1.824 0 .333 0 .998 0 .998h2.271v2.374h-2.271v6.194h2.753c1.135 0 2.065-.929 2.065-2.065v-11.871c0-1.135-.929-2.065-2.065-2.065" style="fill:#fff"/></svg>