<?xml version="1.0" encoding="UTF-8" standalone="no"?>
<svg
   xmlns:dc="http://purl.org/dc/elements/1.1/"
   xmlns:cc="http://creativecommons.org/ns#"
   xmlns:rdf="http://www.w3.org/1999/02/22-rdf-syntax-ns#"
   xmlns:svg="http://www.w3.org/2000/svg"
   xmlns="http://www.w3.org/2000/svg"
   xmlns:sodipodi="http://sodipodi.sourceforge.net/DTD/sodipodi-0.dtd"
   xmlns:inkscape="http://www.inkscape.org/namespaces/inkscape"
   width="50"
   height="50"
   id="svg2"
   version="1.1"
   inkscape:version="0.48.5 r10040"
   sodipodi:docname="finish-50.svg">
  <metadata
     id="metadata10">
    <rdf:RDF>
      <cc:Work
         rdf:about="">
        <dc:format>image/svg+xml</dc:format>
        <dc:type
           rdf:resource="http://purl.org/dc/dcmitype/StillImage" />
      </cc:Work>
    </rdf:RDF>
  </metadata>
  <defs
     id="defs8" />
  <sodipodi:namedview
     pagecolor="#ffffff"
     bordercolor="#666666"
     borderopacity="1"
     objecttolerance="10"
     gridtolerance="10"
     guidetolerance="10"
     inkscape:pageopacity="0"
     inkscape:pageshadow="2"
     inkscape:window-width="1920"
     inkscape:window-height="1178"
     id="namedview6"
     showgrid="false"
     inkscape:zoom="18.652425"
     inkscape:cx="18.593326"
     inkscape:cy="25"
     inkscape:window-x="0"
     inkscape:window-y="0"
     inkscape:window-maximized="1"
     inkscape:current-layer="svg2" />
  <path
     d="m 21.463777,1.3402865 c -8.438,0 -13.9759997,4.164 -15.9059997,5.875 l -0.719,-2 a 0.708721,0.708721 0 0 0 -0.71875,-0.5 0.708721,0.708721 0 0 0 -0.625,0.9688 l 1.063,2.938 14.1199997,39.5630005 a 0.71158933,0.71158933 0 1 0 1.34375,-0.4688 l -4.781,-13.344 c 0.442,-0.436 5.306,-5.125 10.313,-5.125 2.921,0 4.764,0.473 6.5,0.969 1.736,0.496 3.411,1.031 5.719,1.031 4.615,0 8.438,-2.094 8.438,-2.094 a 0.708721,0.708721 0 0 0 0.34375,-0.625 V 2.0282865 a 0.708721,0.708721 0 0 0 -1.15625,-0.5312 c 0,0 -4.797,3.937 -9.625,3.937 -2.414,0 -4.289,-0.939 -6.438,-1.969 -2.148,-1.03 -4.571,-2.125 -7.875,-2.125 m 0,1.406 c 0.398,0 0.787,0 1.156,0.031 l 2.156,7.9690005 c 1.8,0 7,2.5 7,2.5 l -1.781,-7.9380005 c 1.728,0.804 3.553,1.531 5.781,1.531 1.012,0 1.951,-0.146 2.844,-0.344 l 0.656,7.5310005 c 0,0 2.684,-0.688 5.875,-2.875 v 8.625 c -2.692,1.436 -5.281,1.969 -5.281,1.969 l 0.531,7.844 c -0.815,0.141 -1.686,0.25 -2.625,0.25 -0.797,0 -1.492,-0.076 -2.156,-0.188 l -1.844,-7.969 c 0.194,0.04 1.867,0.344 3.094,0.344 1.3,0 3,-0.281 3,-0.281 l -0.594,-7.719 c 0,0 -1.313,0.406 -2.813,0.406 -2.4,0 -4.688,-1.188 -4.688,-1.188 l 1.875,8.375 c -2,-0.505 -5,-1.397 -6.375,-1.594 l 2.156,8.125 c -1.108,-0.189 -2.362,-0.313 -3.875,-0.313 -1.264,0 -2.457,0.219 -3.563,0.563 l -2.906,-7.563 c 0.079,-0.029 2.696,-1 4.469,-1 1.8,0 3.719,0.313 3.719,0.313 l -2.5,-9.313 c 0,0 -0.725,-0.094 -1.625,-0.094 -4.1,-0.1 -7.5,1.281 -7.5,1.281 l 3.375,8.719 c -2.861,1.091 -5.709,3.511 -6.875,4.563 l -3.3439997,-9.219 c 3.1929997,-2.782 6.8439997,-4.156 6.8439997,-4.156 l -2.969,-7.5310005 c 2.342,-0.948 5.289,-1.656 8.781,-1.656"
     style="color:#000000;fill:#7f7f7f"
     id="path4"
     inkscape:connector-curvature="0" />
</svg>
