<?xml version="1.0" encoding="UTF-8" standalone="no"?>
<svg
   xmlns:dc="http://purl.org/dc/elements/1.1/"
   xmlns:cc="http://creativecommons.org/ns#"
   xmlns:rdf="http://www.w3.org/1999/02/22-rdf-syntax-ns#"
   xmlns:svg="http://www.w3.org/2000/svg"
   xmlns="http://www.w3.org/2000/svg"
   xmlns:sodipodi="http://sodipodi.sourceforge.net/DTD/sodipodi-0.dtd"
   xmlns:inkscape="http://www.inkscape.org/namespaces/inkscape"
   width="44"
   height="44"
   id="svg2"
   version="1.1"
   inkscape:version="0.48.5 r10040"
   sodipodi:docname="location-44.svg">
  <metadata
     id="metadata10">
    <rdf:RDF>
      <cc:Work
         rdf:about="">
        <dc:format>image/svg+xml</dc:format>
        <dc:type
           rdf:resource="http://purl.org/dc/dcmitype/StillImage" />
      </cc:Work>
    </rdf:RDF>
  </metadata>
  <defs
     id="defs8" />
  <sodipodi:namedview
     pagecolor="#ffffff"
     bordercolor="#666666"
     borderopacity="1"
     objecttolerance="10"
     gridtolerance="10"
     guidetolerance="10"
     inkscape:pageopacity="0"
     inkscape:pageshadow="2"
     inkscape:window-width="1920"
     inkscape:window-height="1178"
     id="namedview6"
     showgrid="false"
     inkscape:zoom="21.195938"
     inkscape:cx="16.362127"
     inkscape:cy="22"
     inkscape:window-x="0"
     inkscape:window-y="0"
     inkscape:window-maximized="1"
     inkscape:current-layer="svg2" />
  <path
     d="m 22.003769,0.85906679 c -7.873,0 -14.209,6.33400001 -14.209,14.03000021 0,6.442 3.447,13.381 6.854,18.774 3.407,5.394 6.824,9.256 6.824,9.256 a 0.703045,0.703045 0 0 0 1.054462,-0.029 c 0,0 3.419,-3.886 6.824,-9.315 3.406,-5.428 6.854,-12.38 6.854,-18.688 0,-7.6950002 -6.332,-14.03000021 -14.209,-14.03000021 m 0,1.40600001 c 7.123,0 12.8,5.698 12.8,12.6250002 0,5.784 -3.306,12.598 -6.649,17.921 -2.923,4.658 -5.463,7.714 -6.151,8.52 -0.692,-0.8 -3.233,-3.787 -6.151,-8.407 -3.341,-5.291 -6.649,-12.11 -6.649,-18.04 0,-6.9270002 5.68,-12.6250002 12.8,-12.6250002 m 0,7.498 c -3.376,0 -6.151,2.7260002 -6.151,6.0600002 0,3.337 2.775,6.03 6.151,6.03 3.376,0 6.151,-2.697 6.151,-6.03 0,-3.337 -2.775,-6.0600002 -6.151,-6.0600002 m 0,1.4060002 c 2.629,0 4.746,2.093 4.746,4.657 0,2.564 -2.116,4.628 -4.746,4.628 -2.629,0 -4.746,-2.064 -4.746,-4.628 0,-2.564 2.116,-4.657 4.746,-4.657"
     style="color:#000000;fill:#ffffff"
     id="path4"
     inkscape:connector-curvature="0" />
</svg>
