<?xml version="1.0" encoding="UTF-8" standalone="no"?>
<svg
   xmlns:dc="http://purl.org/dc/elements/1.1/"
   xmlns:cc="http://creativecommons.org/ns#"
   xmlns:rdf="http://www.w3.org/1999/02/22-rdf-syntax-ns#"
   xmlns:svg="http://www.w3.org/2000/svg"
   xmlns="http://www.w3.org/2000/svg"
   xmlns:sodipodi="http://sodipodi.sourceforge.net/DTD/sodipodi-0.dtd"
   xmlns:inkscape="http://www.inkscape.org/namespaces/inkscape"
   viewBox="0 0 12 12"
   enable-background="new 0 0 17 16"
   width="12"
   height="12"
   id="svg2"
   version="1.1"
   inkscape:version="0.48.5 r10040"
   sodipodi:docname="magnifier.svg">
  <metadata
     id="metadata10">
    <rdf:RDF>
      <cc:Work
         rdf:about="">
        <dc:format>image/svg+xml</dc:format>
        <dc:type
           rdf:resource="http://purl.org/dc/dcmitype/StillImage" />
      </cc:Work>
    </rdf:RDF>
  </metadata>
  <defs
     id="defs8" />
  <sodipodi:namedview
     pagecolor="#6e6e6e"
     bordercolor="#666666"
     borderopacity="1"
     objecttolerance="10"
     gridtolerance="10"
     guidetolerance="10"
     inkscape:pageopacity="0.52156863"
     inkscape:pageshadow="2"
     inkscape:window-width="1920"
     inkscape:window-height="1178"
     id="namedview6"
     showgrid="false"
     showguides="true"
     inkscape:guide-bbox="true"
     inkscape:zoom="55.462898"
     inkscape:cx="6.4632725"
     inkscape:cy="6.9203209"
     inkscape:window-x="-8"
     inkscape:window-y="-8"
     inkscape:window-maximized="1"
     inkscape:current-layer="svg2" />
  <path
     id="path7"
     d="M 11.737194,11.164143 8.5046773,7.931626 c 0.709577,-0.8409799 1.156347,-1.9184855 1.156347,-3.1011136 0,-2.6017818 -2.1287302,-4.73051232 -4.730512,-4.73051232 C 2.3287306,0.10000008 0.2,2.2287306 0.2,4.8305124 c 0,2.6017818 2.1287306,4.7305123 4.7305123,4.7305123 1.051225,0 2.0236081,-0.3416481 2.7857462,-0.9198218 L 10.975056,11.9 11.737194,11.164143 z M 1.251225,4.8305124 c 0,-2.023608 1.6556793,-3.6792874 3.6792873,-3.6792874 2.0236081,0 3.679287,1.6556794 3.679287,3.6792874 0,2.023608 -1.6556789,3.6792874 -3.679287,3.6792874 -2.023608,0 -3.6792873,-1.6556794 -3.6792873,-3.6792874 z"
     inkscape:connector-curvature="0"
     style="fill:#000000;fill-opacity:0.25098039" />
</svg>
