<?xml version="1.0" encoding="UTF-8" standalone="no"?>
<svg
   xmlns:dc="http://purl.org/dc/elements/1.1/"
   xmlns:cc="http://creativecommons.org/ns#"
   xmlns:rdf="http://www.w3.org/1999/02/22-rdf-syntax-ns#"
   xmlns:svg="http://www.w3.org/2000/svg"
   xmlns="http://www.w3.org/2000/svg"
   xmlns:sodipodi="http://sodipodi.sourceforge.net/DTD/sodipodi-0.dtd"
   xmlns:inkscape="http://www.inkscape.org/namespaces/inkscape"
   viewBox="0 0 12 18"
   id="svg2"
   version="1.1"
   inkscape:version="0.48.5 r10040"
   width="12"
   height="18"
   sodipodi:docname="map-marker.svg">
  <metadata
     id="metadata14">
    <rdf:RDF>
      <cc:Work
         rdf:about="">
        <dc:format>image/svg+xml</dc:format>
        <dc:type
           rdf:resource="http://purl.org/dc/dcmitype/StillImage" />
      </cc:Work>
    </rdf:RDF>
  </metadata>
  <defs
     id="defs12" />
  <sodipodi:namedview
     pagecolor="#6e6e6e"
     bordercolor="#666666"
     borderopacity="1"
     objecttolerance="10"
     gridtolerance="10"
     guidetolerance="10"
     inkscape:pageopacity="0.54901961"
     inkscape:pageshadow="2"
     inkscape:window-width="1920"
     inkscape:window-height="1178"
     id="namedview10"
     showgrid="false"
     fit-margin-top="0"
     fit-margin-left="0"
     fit-margin-right="0"
     fit-margin-bottom="0"
     inkscape:zoom="17.35021"
     inkscape:cx="-10.186618"
     inkscape:cy="0.32963375"
     inkscape:window-x="-8"
     inkscape:window-y="-8"
     inkscape:window-maximized="1"
     inkscape:current-layer="svg2"
     showguides="true"
     inkscape:guide-bbox="true" />
  <path
     style="font-size:medium;font-style:normal;font-variant:normal;font-weight:normal;font-stretch:normal;text-indent:0;text-align:start;text-decoration:none;line-height:normal;letter-spacing:normal;word-spacing:normal;text-transform:none;direction:ltr;block-progression:tb;writing-mode:lr-tb;text-anchor:start;baseline-shift:baseline;color:#000000;fill:#ffffff;fill-opacity:1;stroke:none;stroke-width:0.97959185;marker:none;visibility:visible;display:inline;overflow:visible;enable-background:accumulate;font-family:Sans;-inkscape-font-specification:Sans"
     d="M 6,0 C 2.6874354,0 0,2.6874354 0,6 c 0,2.7292471 1.4437761,5.755375 2.84375,8 1.3999739,2.244625 2.6204054,3.652363 2.78125,3.84375 0.183188,0.217973 0.566812,0.217973 0.75,0 C 6.5358446,17.652363 7.7570532,16.194871 9.15625,13.9375 10.555447,11.680129 12,8.6780311 12,6 12,2.6874355 9.3125646,0 6,0 z m 0,1 c 2.7853946,0 5,2.2146053 5,5 0,2.317887 -1.3003448,5.249973 -2.65625,7.4375 C 7.17078,15.329892 6,16.6875 6,16.6875 6,16.6875 4.8275347,15.34671 3.65625,13.46875 2.3011218,11.296028 1,8.376876 1,6 1,3.2146054 3.2146054,1 6,1 z"
     id="path6"
     inkscape:connector-curvature="0"
     sodipodi:nodetypes="ssssssssssscsss" />
  <path
     style="font-size:medium;font-style:normal;font-variant:normal;font-weight:normal;font-stretch:normal;text-indent:0;text-align:start;text-decoration:none;line-height:normal;letter-spacing:normal;word-spacing:normal;text-transform:none;direction:ltr;block-progression:tb;writing-mode:lr-tb;text-anchor:start;baseline-shift:baseline;color:#000000;fill:#ffffff;fill-opacity:1;stroke:none;stroke-width:2.66666675;marker:none;visibility:visible;display:inline;overflow:visible;enable-background:accumulate;font-family:Sans;-inkscape-font-specification:Sans"
     d="m 6.000002,9.1874997 c -1.4819877,0 -2.6977041,-1.2157164 -2.6977041,-2.6977041 0,-1.4819878 1.2157164,-2.6977041 2.6977041,-2.6977041 1.4819878,0 2.6977041,1.2157163 2.6977041,2.6977041 0,1.4819877 -1.2157163,2.6977041 -2.6977041,2.6977041 z m 0,-0.987245 c 0.9525747,0 1.7104592,-0.7578844 1.7104592,-1.7104591 0,-0.9525747 -0.7578845,-1.7104592 -1.7104592,-1.7104592 -0.9525747,0 -1.7104592,0.7578845 -1.7104592,1.7104592 0,0.9525747 0.7578845,1.7104591 1.7104592,1.7104591 z"
     id="circle8"
     inkscape:connector-curvature="0"
     sodipodi:nodetypes="ssssssssss" />
</svg>
