<?xml version="1.0" encoding="UTF-8" standalone="no"?>
<svg
   xmlns:dc="http://purl.org/dc/elements/1.1/"
   xmlns:cc="http://creativecommons.org/ns#"
   xmlns:rdf="http://www.w3.org/1999/02/22-rdf-syntax-ns#"
   xmlns:svg="http://www.w3.org/2000/svg"
   xmlns="http://www.w3.org/2000/svg"
   xmlns:sodipodi="http://sodipodi.sourceforge.net/DTD/sodipodi-0.dtd"
   xmlns:inkscape="http://www.inkscape.org/namespaces/inkscape"
   viewBox="0 0 20 20"
   width="20"
   height="20"
   id="svg2"
   version="1.1"
   inkscape:version="0.48.5 r10040"
   sodipodi:docname="phone - Copy.svg">
  <metadata
     id="metadata10">
    <rdf:RDF>
      <cc:Work
         rdf:about="">
        <dc:format>image/svg+xml</dc:format>
        <dc:type
           rdf:resource="http://purl.org/dc/dcmitype/StillImage" />
      </cc:Work>
    </rdf:RDF>
  </metadata>
  <defs
     id="defs8" />
  <sodipodi:namedview
     pagecolor="#ffffff"
     bordercolor="#666666"
     borderopacity="1"
     objecttolerance="10"
     gridtolerance="10"
     guidetolerance="10"
     inkscape:pageopacity="0"
     inkscape:pageshadow="2"
     inkscape:window-width="1920"
     inkscape:window-height="1178"
     id="namedview6"
     showgrid="false"
     inkscape:zoom="10.072641"
     inkscape:cx="20.964525"
     inkscape:cy="-1.037495"
     inkscape:window-x="0"
     inkscape:window-y="0"
     inkscape:window-maximized="1"
     inkscape:current-layer="svg2" />
  <path
     d="M 4.1853094,0.06924667 C 2.2629467,0.63772743 0.63105791,2.1948162 0.13363724,3.8092517 0.02393043,4.1670455 0.15732391,5.3276938 0.91280491,7.0044626 1.668286,8.6799849 3.1480813,10.953908 6.0553119,13.861139 9.0211358,16.763382 11.296306,18.256891 12.950635,19.042292 14.604963,19.82894 15.697046,19.9 16.105952,19.9 c 1.494756,-0.342834 2.534477,-1.868756 3.351045,-2.883543 0.533574,-0.711848 0.479967,-1.65059 -0.03865,-2.064484 -1.259135,-1.003567 -2.777577,-1.953529 -4.051672,-2.72771 -0.522354,-0.3179 -1.058421,-0.23562 -1.714169,0.155834 -0.551028,0.304187 -1.118262,0.625827 -1.596982,0.896354 C 9.8065367,11.571009 8.6271886,10.516327 6.7571861,7.9781106 7.0626199,7.4532632 7.3867536,6.8748092 7.6921874,6.3412351 7.9976211,5.7316143 8.0449945,5.1382001 7.8093742,4.6657129 6.904293,3.2544843 5.9593184,1.812089 5.160204,0.61404074 4.927077,0.20638019 4.5455965,0.09293337 4.186556,0.068 m -0.07854,1.2466684 c 0.2505804,0.3764938 2.2464964,3.4071445 2.5718768,3.8958385 0.013713,0.02618 0.077293,0.1583269 -0.1171868,0.5460407 -0.4874473,0.8813945 -0.8402545,1.5221821 -1.2853151,2.2988565 1.1095349,1.5059753 2.2926231,2.8897779 3.5467714,4.1090189 1.0073085,0.978634 2.0582497,1.850055 3.1540717,2.591824 0,0 1.565815,-0.877655 2.337503,-1.325209 0.1683,-0.09724 0.450047,-0.114693 0.506147,-0.07854 1.265368,0.814075 2.813731,1.858783 3.701359,2.493337 0.02868,0.02868 0.17578,0.14212 -0.03865,0.428854 -0.719329,0.963675 -1.419956,1.629396 -2.37615,2.37615 -0.339094,0 -1.117015,-0.02992 -2.610524,-0.740521 C 12.004414,17.200968 9.8464317,15.794726 6.952914,12.962296 4.1254693,10.134847 2.7217207,7.9980573 2.0435331,6.4945753 1.3653455,4.9910933 1.3815522,4.1807589 1.3815522,3.8067584 2.0410398,2.7445969 3.2415814,1.8956158 4.1092626,1.3134216"
     id="path4"
     inkscape:connector-curvature="0"
     style="color:#000000;fill:#6fb62c;fill-opacity:1" />
</svg>
