<?xml version="1.0"?><svg xmlns="http://www.w3.org/2000/svg" viewBox="0 0 17 16" enable-background="new 0 0 17 16" width="17" height="16"><path d="m3.844 0c-1.542.456-2.851 1.705-3.25 3-.088.287.019 1.218.625 2.563.606 1.344 1.793 3.168 4.125 5.5 2.379 2.328 4.204 3.526 5.531 4.156 1.327.631 2.203.688 2.531.688 1.199-.275 2.033-1.499 2.688-2.313.428-.571.385-1.324-.031-1.656-1.01-.805-2.228-1.567-3.25-2.188-.419-.255-.849-.189-1.375.125-.442.244-.897.502-1.281.719-1.804-1.368-2.75-2.214-4.25-4.25.245-.421.505-.885.75-1.313.245-.489.283-.965.094-1.344-.726-1.132-1.484-2.289-2.125-3.25-.187-.327-.493-.418-.781-.438m-.063 1c.201.302 1.802 2.733 2.063 3.125.011.021.062.127-.094.438-.391.707-.674 1.221-1.031 1.844.89 1.208 1.839 2.318 2.845 3.296.808.785 1.651 1.484 2.53 2.079 0 0 1.256-.704 1.875-1.063.135-.078.361-.092.406-.063 1.015.653 2.257 1.491 2.969 2 .023.023.141.114-.031.344-.577.773-1.139 1.307-1.906 1.906-.272 0-.896-.024-2.094-.594-1.198-.569-2.929-1.697-5.25-3.969-2.268-2.268-3.394-3.982-3.938-5.188-.544-1.206-.531-1.856-.531-2.156.529-.852 1.492-1.533 2.188-2" color="#000" fill="#fff"/></svg>