<?xml version="1.0" encoding="UTF-8" standalone="no"?>
<svg
   xmlns:dc="http://purl.org/dc/elements/1.1/"
   xmlns:cc="http://creativecommons.org/ns#"
   xmlns:rdf="http://www.w3.org/1999/02/22-rdf-syntax-ns#"
   xmlns:svg="http://www.w3.org/2000/svg"
   xmlns="http://www.w3.org/2000/svg"
   xmlns:sodipodi="http://sodipodi.sourceforge.net/DTD/sodipodi-0.dtd"
   xmlns:inkscape="http://www.inkscape.org/namespaces/inkscape"
   width="44"
   height="44"
   id="svg2"
   version="1.1"
   inkscape:version="0.48.5 r10040"
   sodipodi:docname="savings-44.svg">
  <metadata
     id="metadata10">
    <rdf:RDF>
      <cc:Work
         rdf:about="">
        <dc:format>image/svg+xml</dc:format>
        <dc:type
           rdf:resource="http://purl.org/dc/dcmitype/StillImage" />
      </cc:Work>
    </rdf:RDF>
  </metadata>
  <defs
     id="defs8" />
  <sodipodi:namedview
     pagecolor="#ffffff"
     bordercolor="#666666"
     borderopacity="1"
     objecttolerance="10"
     gridtolerance="10"
     guidetolerance="10"
     inkscape:pageopacity="0"
     inkscape:pageshadow="2"
     inkscape:window-width="1920"
     inkscape:window-height="1178"
     id="namedview6"
     showgrid="false"
     inkscape:zoom="21.195938"
     inkscape:cx="16.362127"
     inkscape:cy="22"
     inkscape:window-x="0"
     inkscape:window-y="0"
     inkscape:window-maximized="1"
     inkscape:current-layer="svg2" />
  <path
     d="m 16.1525,2.8313051 c -3.572,0 -6.53,2.928 -6.53,6.501 0,1.0309999 0.217,1.9859999 0.645,2.8389999 l 1.259,-0.615 c -0.322,-0.645 -0.498,-1.382 -0.498,-2.2249999 0,-2.8 2.325,-5.095 5.124,-5.095 2.8,0 5.095,2.296 5.095,5.095 h 1.405 c 0,-3.572 -2.928,-6.501 -6.501,-6.501 m 16.749,3.924 c -0.022,10e-5 -0.17,0.061 -0.19,0.066 -2.237,0.565 -4.713,1.837 -6.34,4.9409999 -1.58,-0.331 -3.21,-0.615 -4.978,-0.615 -5.108,0 -8.937,1.571 -12.03,3.894 0,0 -0.02,0 -0.029,0 -1.632,1.239 -2.893,2.964 -3.66,5.095 -0.151,-0.035 -0.722,-0.182 -1.376,-0.615 -0.746,-0.494 -1.405,-1.235 -1.405,-2.519 0,-0.965 0.532,-1.915 1.347,-2.254 0.306,-0.131 0.487,-0.502 0.404,-0.825 -0.189,-0.495 -0.659,-0.603 -0.959,-0.464 -1.41,0.654 -2.196,2.072 -2.196,3.542 0,1.809 1.062,3.035 2.05,3.69 0.802,0.53 1.457,0.723 1.728,0.791 -0.323,1.33 -0.473,2.779 -0.41,4.363 0.203,3.861 2.797,6.725 4.861,8.316 0.326,0.251 0.344,0.527 0.322,0.615 -0.201,0.734 -0.546,1.439 -0.82,2.137 -0.433,1.103 0.155,2.395 1.347,2.839 1.019,0.38 2.228,0.924 2.928,1.171 1.148,0.407 2.429,-0.146 2.839,-1.259 0.23,-0.62 0.472,-1.272 0.674,-1.816 0.061,-0.173 0.095,-0.25 0.117,-0.293 0.038,0 0.116,0 0.263,0.029 2.799,0.596 4.896,0.542 7.906,0.205 0.294,-0.021 0.335,0.026 0.293,0 -0.038,-0.024 0.037,0.024 0.117,0.234 l 0.674,1.757 c 0.423,1.103 1.728,1.728 2.87,1.2 0.917,-0.324 2.025,-0.782 2.899,-1.113 1.19,-0.451 1.807,-1.777 1.347,-2.87 -0.175,-0.417 -0.396,-0.841 -0.586,-1.259 -0.111,-0.245 0.167,-0.354 0.263,-0.41 2.156,-1.234 3.857,-2.878 4.802,-5.095 0.07,-0.166 0.171,-0.332 0.263,-0.439 0.096,-0.111 0.258,-0.176 0.586,-0.176 h 1.494 c 1.209,0 2.196,-0.948 2.196,-2.108 v -4.393 c 0,-1.169 -1.036,-2.137 -2.196,-2.137 h -1.494 c -0.515,0 -0.581,-0.251 -0.557,-0.176 -0.422,-2.517 -2.183,-5.712 -6,-7.291 0.019,-2.34 0.667,-3.462 1.405,-5.7979999 0.247,-0.783 -0.419,-1.055 -0.761,-0.966 m -1.083,1.962 c -0.631,1.8099999 -1.025,3.3799999 -1.025,5.2119999 0.007,0.282 0.202,0.55 0.468,0.645 3.767,1.314 5.31,4.372 5.65,6.587 0.007,0.04 0.017,0.079 0.029,0.117 0.213,0.637 0.89,1.113 1.874,1.113 h 1.494 c 0.321,0 0.768,0.333 0.791,0.82 0.066,1.43 0,2.87 0,4.305 0,0.339 -0.312,0.703 -0.791,0.703 h -1.494 c -0.609,0 -1.137,0.195 -1.494,0.497 -0.319,0.264 -0.516,0.639 -0.674,0.966 -0.902,1.883 -2.161,3.312 -4.07,4.363 -0.013,10e-5 -0.141,0.085 -0.154,0.092 -0.67,0.323 -0.967,0.923 -0.989,1.402 -0.02,0.454 0.149,0.742 0.176,0.791 l 0.557,1.23 c 0.158,0.351 -0.069,0.829 -0.498,0.996 l -3.02,1.171 c -0.344,0.133 -0.863,-0.11 -0.996,-0.468 -0.225,-0.611 -0.462,-1.141 -0.645,-1.669 -0.131,-0.38 -0.298,-0.758 -0.674,-0.996 -0.376,-0.237 -0.786,-0.232 -1.171,-0.205 -2.72,0.299 -4.732,0.417 -7.524,-0.176 -0.372,-0.072 -0.804,-0.155 -1.23,0.088 -0.425,0.243 -0.597,0.635 -0.762,1.083 -0.278,0.758 -0.509,1.424 -0.645,1.786 -0.145,0.389 -0.558,0.603 -1.083,0.41 -0.97,-0.357 -1.932,-0.766 -2.899,-1.113 -0.454,-0.163 -0.639,-0.677 -0.498,-1.054 0.018,-0.04 0.553,-1.308 0.849,-2.196 0.195,-0.585 0.083,-1.139 -0.146,-1.523 -0.173,-0.291 -0.447,-0.475 -0.703,-0.674 -1.85,-1.437 -4.104,-3.99 -4.276,-7.233 -0.18,-4.493 1.407,-7.686 3.924,-9.604 0.007,0 0.023,0 0.029,0 2.895,-2.166 6.372,-3.631 11.186,-3.631 1.804,0 3.526,0.276 5.183,0.645 0.308,0.07 0.653,-0.097 0.791,-0.38 1.105,-2.417 2.759,-3.4479999 4.451,-4.0989999 m 0.439,11.7709999 c -1.154,-10e-5 -2.167,0.951 -2.167,2.137 0,1.187 0.97,2.167 2.167,2.167 1.197,0 2.152,-1.034 2.167,-2.167 0.015,-1.133 -1.012,-2.13 -2.167,-2.137 m 0,0.937 c 0.8,0.023 1.249,0.599 1.23,1.259 -0.019,0.661 -0.558,1.171 -1.23,1.171 -0.672,0 -1.23,-0.543 -1.23,-1.23 0,-0.687 0.429,-1.223 1.23,-1.2"
     style="color:#000000;fill:#ffffff"
     id="path4"
     inkscape:connector-curvature="0" />
</svg>
