<?xml version="1.0"?><svg xmlns="http://www.w3.org/2000/svg" viewBox="0 0 30 30" enable-background="new 0 0 30 30" width="30" height="30"><path fill="#fff" d="m22.2 9.8c.7-.5 1.3-1.2 1.5-2-.5.2-1 .4-1.5.6-.7.2-.7.2-1.2-.1-.9-.6-1.9-.9-3-.8-2.3.3-3.4 2.4-3.1 4.6-3.3 0-5.7-1.6-7.9-3.9-1.1 1.9-.2 3.7 1.1 5.1-.6 0-1.1-.2-1.7-.4.1 1.9 1.2 3.2 3 3.7-.5.2-1.1.1-1.6.2.6 1.5 1.9 2.4 3.5 2.5-1.6 1.3-3.5 1.8-5.5 1.6 1.6 1.3 4.2 1.7 6.3 1.6 2.3-.1 4.5-.9 6.3-2.4 1.6-1.3 2.8-3.1 3.4-5 .4-1.1.4-2.2.5-3.4.1-1 1.2-1.5 1.8-2.3-.6.2-1.2.4-1.9.4"/><circle fill="none" stroke="#fff" stroke-miterlimit="10" cx="15" cy="15" r="14.4"/></svg>