<svg xmlns="http://www.w3.org/2000/svg" width="200" height="200"><defs><clipPath id="a"><path d="M131.053 97.669l4.182-6.109h-2.537l-4.386 6.313h-.04V91.56h-2.314v14.494h2.314v-4.689l1.279-1.828.613 1.138 2.899 5.379h2.618l-4.628-8.385z"/></clipPath><clipPath id="b"><path d="M106.177 91.56h-9.155v1.949h3.452v12.545h2.313V93.509h3.39V91.56z"/></clipPath><clipPath id="c"><path d="M120.162 100.675l-.551 2.455h-.042l-2.455-11.57h-2.456l3.41 14.494h2.944l3.653-14.494h-2.456l-2.047 9.115z"/></clipPath><clipPath id="d"><path d="M112.975 87.662h-2.437l-1.216 2.923h1.501l2.152-2.923z"/></clipPath><clipPath id="e"><path d="M81.17 104.592c-1.178 0-2.146-.644-2.406-3.917a24.268 24.268 0 01-.07-1.929c0-4.872 1.095-5.725 2.476-5.725 1.38 0 2.477.853 2.477 5.725 0 .731-.027 1.364-.071 1.929-.261 3.273-1.228 3.917-2.406 3.917zm0-13.316c-3.329 0-4.791 2.354-4.791 7.531 0 .67.026 1.29.076 1.868.335 3.877 1.817 5.663 4.715 5.663 2.897 0 4.38-1.786 4.714-5.663.05-.578.076-1.198.076-1.868 0-5.177-1.461-7.531-4.79-7.531"/></clipPath><clipPath id="f"><path d="M70.452 98.319h-1.644v-5.014h1.481c1.848 0 2.477.955 2.477 2.517 0 1.847-1.076 2.497-2.314 2.497zm.629-6.759h-4.588v14.494h2.315v-5.989h2.029c2.7 0 4.242-1.685 4.242-4.282 0-2.478-1.217-4.223-3.998-4.223"/></clipPath><clipPath id="g"><path d="M91.888 98.319h-1.644v-5.014h1.481c1.848 0 2.477.955 2.477 2.517 0 1.847-1.076 2.497-2.314 2.497zm.63-6.759h-4.589v14.494h2.315v-5.989h2.03c2.699 0 4.243-1.685 4.243-4.282 0-2.478-1.219-4.223-3.999-4.223"/></clipPath><clipPath id="h"><path d="M108.949 100.675l.006-.022 1.725-7.144h.042l1.668 7.166h-3.441zm3.316-9.115h-2.966l-4.119 14.494h2.415l.933-3.552h4.244l.892 3.552h2.417l-3.816-14.494"/></clipPath><clipPath id="i"><path d="M139.955 100.675l.195-.811 1.537-6.355h.04l1.669 7.166h-3.441zm5.715 0l-2.4-9.115h-2.964l-4.121 14.494h2.416l.933-3.552h4.244l.892 3.552h2.416l-1.416-5.379"/></clipPath><clipPath id="j"><path d="M45.398 100.675l1.035-6.152h.04l1.036 6.152h-2.111zm3.431-9.115h-4.751l-3.532 14.494h4.02l.385-2.538h3.004l.386 2.538h4.02L48.829 91.56"/></clipPath><clipPath id="k"><path d="M33.423 100.675l1.035-6.152h.041l1.035 6.152h-2.111zm3.431-9.115h-4.751l-3.532 14.494h4.02l.385-2.538h3.005l.386 2.538h4.019L36.854 91.56"/></clipPath><clipPath id="l"><path d="M57.372 100.675l1.035-6.152h.042l1.035 6.152h-2.112zm5.652 0l-2.221-9.115h-4.75l-3.532 14.494h4.019l.386-2.538h3.004l.386 2.538h4.019l-1.311-5.379"/></clipPath><clipPath id="m"><path d="M57.372 100.675l1.035-6.152h.042l1.035 6.152h3.54l-2.221-9.115h-4.75l-2.222 9.115h3.541z"/></clipPath><clipPath id="n"><path d="M45.398 100.675l1.035-6.152h.04l1.036 6.152h3.54l-2.22-9.115h-4.751l-2.221 9.115h3.541z"/></clipPath><clipPath id="o"><path d="M33.423 100.675l1.035-6.152h.041l1.035 6.152h3.541l-2.221-9.115h-4.751l-2.221 9.115h3.541z"/></clipPath><clipPath id="p"><path d="M35.534 100.675h-5.652l-1.311 5.379h4.02l.385-2.538h3.005l.386 2.538h4.019l-1.311-5.379h-3.541z"/></clipPath><clipPath id="q"><path d="M47.509 100.675h-5.652l-1.311 5.379h4.02l.385-2.538h3.004l.386 2.538h4.02l-1.312-5.379h-3.54z"/></clipPath><clipPath id="r"><path d="M59.484 100.675h-5.653l-1.31 5.379h4.019l.386-2.538h3.004l.386 2.538h4.019l-1.311-5.379h-3.54z"/></clipPath><clipPath id="s"><path d="M129.551 99.537l.613 1.138h2.547l-1.658-3.006 4.182-6.109h-2.537l-4.386 6.313h-.04V91.56h-2.314v9.115h2.797l.796-1.138z"/></clipPath><clipPath id="t"><path d="M102.787 93.509h3.39V91.56h-9.155v1.949h3.452v7.166h2.313v-7.166z"/></clipPath><clipPath id="u"><path d="M124.665 91.56h-2.456l-2.047 9.115h2.205l2.298-9.115z"/></clipPath><clipPath id="v"><path d="M112.975 87.662h-2.437l-1.216 2.923h1.501l2.152-2.923z"/></clipPath><clipPath id="w"><path d="M117.114 91.56h-2.456l2.145 9.115h2.245l-1.934-9.115z"/></clipPath><clipPath id="x"><path d="M78.694 98.746c0-4.872 1.095-5.725 2.476-5.725 1.38 0 2.477.853 2.477 5.725 0 .731-.027 1.364-.071 1.929h2.308c.05-.578.076-1.198.076-1.868 0-5.177-1.461-7.531-4.79-7.531-3.329 0-4.791 2.354-4.791 7.531 0 .67.026 1.29.076 1.868h2.309a24.268 24.268 0 01-.07-1.929z"/></clipPath><clipPath id="y"><path d="M68.808 93.305h1.481c1.848 0 2.477.955 2.477 2.517 0 1.847-1.076 2.497-2.314 2.497h-1.644v-5.014zm0 6.76h2.029c2.7 0 4.242-1.685 4.242-4.282 0-2.478-1.217-4.223-3.998-4.223h-4.588v9.115h2.315v-.61"/></clipPath><clipPath id="z"><path d="M90.244 93.305h1.481c1.848 0 2.477.955 2.477 2.517 0 1.847-1.076 2.497-2.314 2.497h-1.644v-5.014zm0 6.76h2.03c2.699 0 4.243-1.685 4.243-4.282 0-2.478-1.219-4.223-3.999-4.223h-4.589v9.115h2.315v-.61"/></clipPath><clipPath id="A"><path d="M108.955 100.653l1.725-7.144h.042l1.668 7.166h2.274l-2.399-9.115h-2.966l-2.59 9.115h2.24l.006-.022z"/></clipPath><clipPath id="B"><path d="M140.15 99.864l1.537-6.355h.04l1.669 7.166h2.274l-2.4-9.115h-2.964l-2.591 9.115h2.24l.195-.811z"/></clipPath><clipPath id="C"><path d="M100.474 106.054h2.313v-5.38h-2.313z"/></clipPath><clipPath id="D"><path d="M87.929 106.054h2.315v-5.38h-2.315z"/></clipPath><clipPath id="E"><path d="M87.929 106.054h2.315v-5.38h-2.315z"/></clipPath><clipPath id="F"><path d="M87.929 106.054h2.315v-5.38h-2.315z"/></clipPath><clipPath id="G"><path d="M81.17 106.338c2.897 0 4.38-1.786 4.714-5.663h-2.308c-.261 3.273-1.228 3.917-2.406 3.917-1.178 0-2.146-.644-2.406-3.917h-2.309c.335 3.877 1.817 5.663 4.715 5.663z"/></clipPath><clipPath id="H"><path d="M138.601 106.054l.933-3.552h4.244l.892 3.552h2.416l-1.416-5.379h-7.955l-1.53 5.379h2.416z"/></clipPath><clipPath id="I"><path d="M66.493 106.054h2.315v-5.38h-2.315z"/></clipPath><clipPath id="J"><path d="M66.493 106.054h2.315v-5.38h-2.315z"/></clipPath><clipPath id="K"><path d="M66.493 106.054h2.315v-5.38h-2.315z"/></clipPath><clipPath id="L"><path d="M107.595 106.054l.933-3.552h4.244l.892 3.552h2.417l-1.417-5.379h-7.955l-1.529 5.379h2.415z"/></clipPath><clipPath id="M"><path d="M133.063 106.054h2.618l-2.97-5.379h-2.546l2.898 5.379z"/></clipPath><clipPath id="N"><path d="M128.272 106.054v-4.689l.483-.69h-2.797v5.379h2.314z"/></clipPath><clipPath id="O"><path d="M121.012 106.054l1.355-5.379h-2.205l-.551 2.455h-.042l-.521-2.455h-2.245l1.265 5.379h2.944z"/></clipPath></defs><g clip-path="url(#a)"><path d="M125.958 106.092h9.723v-.574h-9.723z" fill="#343534"/><path d="M125.958 105.518h9.723v-1.151h-9.723z" fill="#353635"/><path d="M125.958 104.367h9.723v-1.151h-9.723z" fill="#363736"/><path d="M125.958 103.216h9.723v-1.152h-9.723z" fill="#373837"/><path d="M125.958 102.064h9.723v-1.15h-9.723z" fill="#383938"/><path d="M125.958 100.914h9.723v-1.151h-9.723z" fill="#3A3A39"/><path d="M125.958 99.763h9.723v-1.15h-9.723z" fill="#3B3B3A"/><path d="M125.958 98.612h9.723v-1.151h-9.723z" fill="#3C3C3B"/><path d="M125.958 97.461h9.723v-1.15h-9.723z" fill="#3C3D3C"/><path d="M125.958 96.311h9.723V95.16h-9.723z" fill="#3D3E3D"/><path d="M125.958 95.159h9.723v-1.15h-9.723z" fill="#3E3F3E"/><path d="M125.958 94.009h9.723v-1.152h-9.723z" fill="#3F403F"/><path d="M125.958 92.857h9.723v-1.15h-9.723z" fill="#404140"/><path d="M125.958 91.707h9.723v-.172h-9.723z" fill="#414241"/></g><g clip-path="url(#b)"><path d="M97.022 106.092h9.155v-.574h-9.155z" fill="#343534"/><path d="M97.022 105.518h9.155v-1.151h-9.155z" fill="#353635"/><path d="M97.022 104.367h9.155v-1.151h-9.155z" fill="#363736"/><path d="M97.022 103.216h9.155v-1.152h-9.155z" fill="#373837"/><path d="M97.022 102.064h9.155v-1.15h-9.155z" fill="#383938"/><path d="M97.022 100.914h9.155v-1.151h-9.155z" fill="#3A3A39"/><path d="M97.022 99.763h9.155v-1.15h-9.155z" fill="#3B3B3A"/><path d="M97.022 98.612h9.155v-1.151h-9.155z" fill="#3C3C3B"/><path d="M97.022 97.461h9.155v-1.15h-9.155z" fill="#3C3D3C"/><path d="M97.022 96.311h9.155V95.16h-9.155z" fill="#3D3E3D"/><path d="M97.022 95.159h9.155v-1.15h-9.155z" fill="#3E3F3E"/><path d="M97.022 94.009h9.155v-1.152h-9.155z" fill="#3F403F"/><path d="M97.022 92.857h9.155v-1.15h-9.155z" fill="#404140"/><path d="M97.022 91.707h9.155v-.172h-9.155z" fill="#414241"/></g><g clip-path="url(#c)"><path d="M114.658 106.092h10.007v-.574h-10.007z" fill="#343534"/><path d="M114.658 105.518h10.007v-1.151h-10.007z" fill="#353635"/><path d="M114.658 104.367h10.007v-1.151h-10.007z" fill="#363736"/><path d="M114.658 103.216h10.007v-1.152h-10.007z" fill="#373837"/><path d="M114.658 102.064h10.007v-1.15h-10.007z" fill="#383938"/><path d="M114.658 100.914h10.007v-1.151h-10.007z" fill="#3A3A39"/><path d="M114.658 99.763h10.007v-1.15h-10.007z" fill="#3B3B3A"/><path d="M114.658 98.612h10.007v-1.151h-10.007z" fill="#3C3C3B"/><path d="M114.658 97.461h10.007v-1.15h-10.007z" fill="#3C3D3C"/><path d="M114.658 96.311h10.007V95.16h-10.007z" fill="#3D3E3D"/><path d="M114.658 95.159h10.007v-1.15h-10.007z" fill="#3E3F3E"/><path d="M114.658 94.009h10.007v-1.152h-10.007z" fill="#3F403F"/><path d="M114.658 92.857h10.007v-1.15h-10.007z" fill="#404140"/><path d="M114.658 91.707h10.007v-.172h-10.007z" fill="#414241"/></g><g clip-path="url(#d)"><path d="M109.322 90.605h3.653v-.126h-3.653z" fill="#343534"/><path d="M109.322 90.479h3.653v-.23h-3.653z" fill="#353635"/><path d="M109.322 90.249h3.653v-.25h-3.653z" fill="#363736"/><path d="M109.322 89.999h3.653v-.23h-3.653z" fill="#373837"/><path d="M109.322 89.768h3.653v-.23h-3.653z" fill="#383938"/><path d="M109.322 89.538h3.653v-.23h-3.653z" fill="#3A3A39"/><path d="M109.322 89.308h3.653v-.23h-3.653z" fill="#3B3B3A"/><path d="M109.322 89.078h3.653v-.23h-3.653z" fill="#3C3C3B"/><path d="M109.322 88.848h3.653v-.23h-3.653z" fill="#3C3D3C"/><path d="M109.322 88.617h3.653v-.251h-3.653z" fill="#3D3E3D"/><path d="M109.322 88.366h3.653v-.23h-3.653z" fill="#3E3F3E"/><path d="M109.322 88.136h3.653v-.229h-3.653z" fill="#3F403F"/><path d="M109.322 87.906h3.653v-.23h-3.653z" fill="#404140"/><path d="M109.322 87.676h3.653v-.021h-3.653z" fill="#414241"/></g><g clip-path="url(#e)"><path d="M76.379 106.378h9.581v-.597h-9.581z" fill="#343534"/><path d="M76.379 105.781h9.581v-1.196h-9.581z" fill="#353635"/><path d="M76.379 104.585h9.581v-1.195h-9.581z" fill="#363736"/><path d="M76.379 103.389h9.581v-1.196h-9.581z" fill="#373837"/><path d="M76.379 102.193h9.581v-1.196h-9.581z" fill="#383938"/><path d="M76.379 100.997h9.581v-1.196h-9.581z" fill="#3A3A39"/><path d="M76.379 99.8h9.581v-1.196h-9.581z" fill="#3B3B3A"/><path d="M76.379 98.604h9.581v-1.196h-9.581z" fill="#3C3C3B"/><path d="M76.379 97.408h9.581v-1.195h-9.581z" fill="#3C3D3C"/><path d="M76.379 96.212h9.581v-1.195h-9.581z" fill="#3D3E3D"/><path d="M76.379 95.017h9.581v-1.196h-9.581z" fill="#3E3F3E"/><path d="M76.379 93.821h9.581v-1.196h-9.581z" fill="#3F403F"/><path d="M76.379 92.624h9.581v-1.196h-9.581z" fill="#404140"/><path d="M76.379 91.428h9.581v-.179h-9.581z" fill="#414241"/></g><g clip-path="url(#f)"><path d="M66.493 106.092h8.586v-.574h-8.586z" fill="#343534"/><path d="M66.493 105.518h8.586v-1.151h-8.586z" fill="#353635"/><path d="M66.493 104.367h8.586v-1.151h-8.586z" fill="#363736"/><path d="M66.493 103.216h8.586v-1.152h-8.586z" fill="#373837"/><path d="M66.493 102.064h8.586v-1.15h-8.586z" fill="#383938"/><path d="M66.493 100.914h8.586v-1.151h-8.586z" fill="#3A3A39"/><path d="M66.493 99.763h8.586v-1.15h-8.586z" fill="#3B3B3A"/><path d="M66.493 98.612h8.586v-1.151h-8.586z" fill="#3C3C3B"/><path d="M66.493 97.461h8.586v-1.15h-8.586z" fill="#3C3D3C"/><path d="M66.493 96.311h8.586V95.16h-8.586z" fill="#3D3E3D"/><path d="M66.493 95.159h8.586v-1.15h-8.586z" fill="#3E3F3E"/><path d="M66.493 94.009h8.586v-1.152h-8.586z" fill="#3F403F"/><path d="M66.493 92.857h8.586v-1.15h-8.586z" fill="#404140"/><path d="M66.493 91.707h8.586v-.172h-8.586z" fill="#414241"/></g><g clip-path="url(#g)"><path d="M87.929 106.092h8.587v-.574h-8.587z" fill="#343534"/><path d="M87.929 105.518h8.587v-1.151h-8.587z" fill="#353635"/><path d="M87.929 104.367h8.587v-1.151h-8.587z" fill="#363736"/><path d="M87.929 103.216h8.587v-1.152h-8.587z" fill="#373837"/><path d="M87.929 102.064h8.587v-1.15h-8.587z" fill="#383938"/><path d="M87.929 100.914h8.587v-1.151h-8.587z" fill="#3A3A39"/><path d="M87.929 99.763h8.587v-1.15h-8.587z" fill="#3B3B3A"/><path d="M87.929 98.612h8.587v-1.151h-8.587z" fill="#3C3C3B"/><path d="M87.929 97.461h8.587v-1.15h-8.587z" fill="#3C3D3C"/><path d="M87.929 96.311h8.587V95.16h-8.587z" fill="#3D3E3D"/><path d="M87.929 95.159h8.587v-1.15h-8.587z" fill="#3E3F3E"/><path d="M87.929 94.009h8.587v-1.152h-8.587z" fill="#3F403F"/><path d="M87.929 92.857h8.587v-1.15h-8.587z" fill="#404140"/><path d="M87.929 91.707h8.587v-.172h-8.587z" fill="#414241"/></g><g clip-path="url(#h)"><path d="M105.18 106.092h10.901v-.574H105.18z" fill="#343534"/><path d="M105.18 105.518h10.901v-1.151H105.18z" fill="#353635"/><path d="M105.18 104.367h10.901v-1.151H105.18z" fill="#363736"/><path d="M105.18 103.216h10.901v-1.152H105.18z" fill="#373837"/><path d="M105.18 102.064h10.901v-1.15H105.18z" fill="#383938"/><path d="M105.18 100.914h10.901v-1.151H105.18z" fill="#3A3A39"/><path d="M105.18 99.763h10.901v-1.15H105.18z" fill="#3B3B3A"/><path d="M105.18 98.612h10.901v-1.151H105.18z" fill="#3C3C3B"/><path d="M105.18 97.461h10.901v-1.15H105.18z" fill="#3C3D3C"/><path d="M105.18 96.311h10.901V95.16H105.18z" fill="#3D3E3D"/><path d="M105.18 95.159h10.901v-1.15H105.18z" fill="#3E3F3E"/><path d="M105.18 94.009h10.901v-1.152H105.18z" fill="#3F403F"/><path d="M105.18 92.857h10.901v-1.15H105.18z" fill="#404140"/><path d="M105.18 91.707h10.901v-.172H105.18z" fill="#414241"/></g><g clip-path="url(#i)"><path d="M136.185 106.092h10.901v-.574h-10.901z" fill="#343534"/><path d="M136.185 105.518h10.901v-1.151h-10.901z" fill="#353635"/><path d="M136.185 104.367h10.901v-1.151h-10.901z" fill="#363736"/><path d="M136.185 103.216h10.901v-1.152h-10.901z" fill="#373837"/><path d="M136.185 102.064h10.901v-1.15h-10.901z" fill="#383938"/><path d="M136.185 100.914h10.901v-1.151h-10.901z" fill="#3A3A39"/><path d="M136.185 99.763h10.901v-1.15h-10.901z" fill="#3B3B3A"/><path d="M136.185 98.612h10.901v-1.151h-10.901z" fill="#3C3C3B"/><path d="M136.185 97.461h10.901v-1.15h-10.901z" fill="#3C3D3C"/><path d="M136.185 96.311h10.901V95.16h-10.901z" fill="#3D3E3D"/><path d="M136.185 95.159h10.901v-1.15h-10.901z" fill="#3E3F3E"/><path d="M136.185 94.009h10.901v-1.152h-10.901z" fill="#3F403F"/><path d="M136.185 92.857h10.901v-1.15h-10.901z" fill="#404140"/><path d="M136.185 91.707h10.901v-.172h-10.901z" fill="#414241"/></g><g clip-path="url(#j)"><path d="M40.546 106.054h11.815v-.51H40.546zm0-.51h11.815v-.226H40.546z" fill="#2F67A3"/><path d="M40.546 105.318h11.815v-.453H40.546z" fill="#3067A3"/><path d="M40.546 104.865h11.815v-.454H40.546z" fill="#3068A4"/><path d="M40.546 104.411h11.815v-.225H40.546z" fill="#2F68A4"/><path d="M40.546 104.186h11.815v-.453H40.546z" fill="#3168A4"/><path d="M40.546 103.733h11.815v-.679H40.546z" fill="#3169A4"/><path d="M40.546 103.054h11.815v-.737H40.546z" fill="#3269A5"/><path d="M40.546 102.317h11.815v-.226H40.546z" fill="#316AA5"/><path d="M40.546 102.091h11.815v-.226H40.546z" fill="#336AA5"/><path d="M40.546 101.864h11.815v-.679H40.546z" fill="#326AA5"/><path d="M40.546 101.185h11.815v-.227H40.546z" fill="#326BA6"/><path d="M40.546 100.958h11.815v-.453H40.546z" fill="#336BA6"/><path d="M40.546 100.505h11.815v-.679H40.546z" fill="#326BA6"/><path d="M40.546 99.826h11.815v-.453H40.546z" fill="#336CA7"/><path d="M40.546 99.373h11.815v-.737H40.546z" fill="#336CA7"/><path d="M40.546 98.636h11.815v-.679H40.546z" fill="#346DA8"/><path d="M40.546 97.957h11.815v-.453H40.546z" fill="#336EA8"/><path d="M40.546 97.505h11.815v-.68H40.546z" fill="#346EA8"/><path d="M40.546 96.825h11.815v-.453H40.546z" fill="#346FA9"/><path d="M40.546 96.372h11.815v-.226H40.546z" fill="#366FA9"/><path d="M40.546 96.146h11.815v-.68H40.546z" fill="#356FA9"/><path d="M40.546 95.466h11.815v-.226H40.546z" fill="#3570AA"/><path d="M40.546 95.24h11.815v-.283H40.546zm0-.283h11.815v-.68H40.546z" fill="#3670AA"/><path d="M40.546 94.277h11.815v-.679H40.546z" fill="#3771AB"/><path d="M40.546 93.598h11.815v-.453H40.546z" fill="#3672AB"/><path d="M40.546 93.145h11.815v-.226H40.546z" fill="#3872AB"/><path d="M40.546 92.919h11.815v-.454H40.546z" fill="#3772AC"/><path d="M40.546 92.465h11.815v-.453H40.546z" fill="#3773AC"/><path d="M40.546 92.012h11.815v-.226H40.546zm0-.226h11.815v-.226H40.546z" fill="#3873AC"/></g><g clip-path="url(#k)"><path d="M28.571 106.054h11.815v-.51H28.571zm0-.51h11.815v-.226H28.571z" fill="#2F67A3"/><path d="M28.571 105.318h11.815v-.453H28.571z" fill="#3067A3"/><path d="M28.571 104.865h11.815v-.454H28.571z" fill="#3068A4"/><path d="M28.571 104.411h11.815v-.225H28.571z" fill="#2F68A4"/><path d="M28.571 104.186h11.815v-.453H28.571z" fill="#3168A4"/><path d="M28.571 103.733h11.815v-.679H28.571z" fill="#3169A4"/><path d="M28.571 103.054h11.815v-.737H28.571z" fill="#3269A5"/><path d="M28.571 102.317h11.815v-.226H28.571z" fill="#316AA5"/><path d="M28.571 102.091h11.815v-.226H28.571z" fill="#336AA5"/><path d="M28.571 101.864h11.815v-.679H28.571z" fill="#326AA5"/><path d="M28.571 101.185h11.815v-.227H28.571z" fill="#326BA6"/><path d="M28.571 100.958h11.815v-.453H28.571z" fill="#336BA6"/><path d="M28.571 100.505h11.815v-.679H28.571z" fill="#326BA6"/><path d="M28.571 99.826h11.815v-.453H28.571z" fill="#336CA7"/><path d="M28.571 99.373h11.815v-.737H28.571z" fill="#336CA7"/><path d="M28.571 98.636h11.815v-.679H28.571z" fill="#346DA8"/><path d="M28.571 97.957h11.815v-.453H28.571z" fill="#336EA8"/><path d="M28.571 97.505h11.815v-.68H28.571z" fill="#346EA8"/><path d="M28.571 96.825h11.815v-.453H28.571z" fill="#346FA9"/><path d="M28.571 96.372h11.815v-.226H28.571z" fill="#366FA9"/><path d="M28.571 96.146h11.815v-.68H28.571z" fill="#356FA9"/><path d="M28.571 95.466h11.815v-.226H28.571z" fill="#3570AA"/><path d="M28.571 95.24h11.815v-.283H28.571zm0-.283h11.815v-.68H28.571z" fill="#3670AA"/><path d="M28.571 94.277h11.815v-.679H28.571z" fill="#3771AB"/><path d="M28.571 93.598h11.815v-.453H28.571z" fill="#3672AB"/><path d="M28.571 93.145h11.815v-.226H28.571z" fill="#3872AB"/><path d="M28.571 92.919h11.815v-.454H28.571z" fill="#3772AC"/><path d="M28.571 92.465h11.815v-.453H28.571z" fill="#3773AC"/><path d="M28.571 92.012h11.815v-.226H28.571zm0-.226h11.815v-.226H28.571z" fill="#3873AC"/></g><g clip-path="url(#l)"><path d="M52.521 106.054h11.815v-.51H52.521zm0-.51h11.815v-.226H52.521z" fill="#2F67A3"/><path d="M52.521 105.318h11.815v-.453H52.521z" fill="#3067A3"/><path d="M52.521 104.865h11.815v-.454H52.521z" fill="#3068A4"/><path d="M52.521 104.411h11.815v-.225H52.521z" fill="#2F68A4"/><path d="M52.521 104.186h11.815v-.453H52.521z" fill="#3168A4"/><path d="M52.521 103.733h11.815v-.679H52.521z" fill="#3169A4"/><path d="M52.521 103.054h11.815v-.737H52.521z" fill="#3269A5"/><path d="M52.521 102.317h11.815v-.226H52.521z" fill="#316AA5"/><path d="M52.521 102.091h11.815v-.226H52.521z" fill="#336AA5"/><path d="M52.521 101.864h11.815v-.679H52.521z" fill="#326AA5"/><path d="M52.521 101.185h11.815v-.227H52.521z" fill="#326BA6"/><path d="M52.521 100.958h11.815v-.453H52.521z" fill="#336BA6"/><path d="M52.521 100.505h11.815v-.679H52.521z" fill="#326BA6"/><path d="M52.521 99.826h11.815v-.453H52.521z" fill="#336CA7"/><path d="M52.521 99.373h11.815v-.737H52.521z" fill="#336CA7"/><path d="M52.521 98.636h11.815v-.679H52.521z" fill="#346DA8"/><path d="M52.521 97.957h11.815v-.453H52.521z" fill="#336EA8"/><path d="M52.521 97.505h11.815v-.68H52.521z" fill="#346EA8"/><path d="M52.521 96.825h11.815v-.453H52.521z" fill="#346FA9"/><path d="M52.521 96.372h11.815v-.226H52.521z" fill="#366FA9"/><path d="M52.521 96.146h11.815v-.68H52.521z" fill="#356FA9"/><path d="M52.521 95.466h11.815v-.226H52.521z" fill="#3570AA"/><path d="M52.521 95.24h11.815v-.283H52.521zm0-.283h11.815v-.68H52.521z" fill="#3670AA"/><path d="M52.521 94.277h11.815v-.679H52.521z" fill="#3771AB"/><path d="M52.521 93.598h11.815v-.453H52.521z" fill="#3672AB"/><path d="M52.521 93.145h11.815v-.226H52.521z" fill="#3872AB"/><path d="M52.521 92.919h11.815v-.454H52.521z" fill="#3772AC"/><path d="M52.521 92.465h11.815v-.453H52.521z" fill="#3773AC"/><path d="M52.521 92.012h11.815v-.226H52.521zm0-.226h11.815v-.226H52.521z" fill="#3873AC"/></g><g clip-path="url(#m)"><path d="M53.831 91.56h9.193v9.115h-9.193z" fill="#3E79B1"/></g><g clip-path="url(#n)"><path d="M41.857 91.56h9.192v9.115h-9.192z" fill="#3E79B1"/></g><g clip-path="url(#o)"><path d="M29.882 91.56h9.193v9.115h-9.193z" fill="#3E79B1"/></g><g clip-path="url(#p)"><path d="M28.571 106.054h11.815v-.19H28.571zm0-.19h11.815v-.084H28.571z" fill="#2F67A3"/><path d="M28.571 105.781h11.815v-.168H28.571z" fill="#3067A3"/><path d="M28.571 105.613h11.815v-.168H28.571z" fill="#3068A4"/><path d="M28.571 105.445h11.815v-.085H28.571z" fill="#2F68A4"/><path d="M28.571 105.36h11.815v-.168H28.571z" fill="#3168A4"/><path d="M28.571 105.192h11.815v-.252H28.571z" fill="#3169A4"/><path d="M28.571 104.94h11.815v-.274H28.571z" fill="#3269A5"/><path d="M28.571 104.667h11.815v-.084H28.571z" fill="#316AA5"/><path d="M28.571 104.583h11.815v-.085H28.571z" fill="#336AA5"/><path d="M28.571 104.499h11.815v-.252H28.571z" fill="#326AA5"/><path d="M28.571 104.247h11.815v-.085H28.571z" fill="#326BA6"/><path d="M28.571 104.162h11.815v-.168H28.571z" fill="#336BA6"/><path d="M28.571 103.994h11.815v-.252H28.571z" fill="#326BA6"/><path d="M28.571 103.743h11.815v-.168H28.571z" fill="#336CA7"/><path d="M28.571 103.575h11.815v-.274H28.571z" fill="#336CA7"/><path d="M28.571 103.301h11.815v-.253H28.571z" fill="#346DA8"/><path d="M28.571 103.048h11.815v-.168H28.571z" fill="#336EA8"/><path d="M28.571 102.88h11.815v-.252H28.571z" fill="#346EA8"/><path d="M28.571 102.629h11.815v-.168H28.571z" fill="#346FA9"/><path d="M28.571 102.46h11.815v-.084H28.571z" fill="#366FA9"/><path d="M28.571 102.376h11.815v-.252H28.571z" fill="#356FA9"/><path d="M28.571 102.124h11.815v-.084H28.571z" fill="#3570AA"/><path d="M28.571 102.04h11.815v-.104H28.571zm0-.105h11.815v-.252H28.571z" fill="#3670AA"/><path d="M28.571 101.684h11.815v-.253H28.571z" fill="#3771AB"/><path d="M28.571 101.431h11.815v-.168H28.571z" fill="#3672AB"/><path d="M28.571 101.263h11.815v-.084H28.571z" fill="#3872AB"/><path d="M28.571 101.179h11.815v-.168H28.571z" fill="#3772AC"/><path d="M28.571 101.011h11.815v-.168H28.571z" fill="#3773AC"/><path d="M28.571 100.843h11.815v-.085H28.571zm0-.085h11.815v-.084H28.571z" fill="#3873AC"/></g><g clip-path="url(#q)"><path d="M40.546 106.054h11.815v-.19H40.546zm0-.19h11.815v-.084H40.546z" fill="#2F67A3"/><path d="M40.546 105.781h11.815v-.168H40.546z" fill="#3067A3"/><path d="M40.546 105.613h11.815v-.168H40.546z" fill="#3068A4"/><path d="M40.546 105.445h11.815v-.085H40.546z" fill="#2F68A4"/><path d="M40.546 105.36h11.815v-.168H40.546z" fill="#3168A4"/><path d="M40.546 105.192h11.815v-.252H40.546z" fill="#3169A4"/><path d="M40.546 104.94h11.815v-.274H40.546z" fill="#3269A5"/><path d="M40.546 104.667h11.815v-.084H40.546z" fill="#316AA5"/><path d="M40.546 104.583h11.815v-.085H40.546z" fill="#336AA5"/><path d="M40.546 104.499h11.815v-.252H40.546z" fill="#326AA5"/><path d="M40.546 104.247h11.815v-.085H40.546z" fill="#326BA6"/><path d="M40.546 104.162h11.815v-.168H40.546z" fill="#336BA6"/><path d="M40.546 103.994h11.815v-.252H40.546z" fill="#326BA6"/><path d="M40.546 103.743h11.815v-.168H40.546z" fill="#336CA7"/><path d="M40.546 103.575h11.815v-.274H40.546z" fill="#336CA7"/><path d="M40.546 103.301h11.815v-.253H40.546z" fill="#346DA8"/><path d="M40.546 103.048h11.815v-.168H40.546z" fill="#336EA8"/><path d="M40.546 102.88h11.815v-.252H40.546z" fill="#346EA8"/><path d="M40.546 102.629h11.815v-.168H40.546z" fill="#346FA9"/><path d="M40.546 102.46h11.815v-.084H40.546z" fill="#366FA9"/><path d="M40.546 102.376h11.815v-.252H40.546z" fill="#356FA9"/><path d="M40.546 102.124h11.815v-.084H40.546z" fill="#3570AA"/><path d="M40.546 102.04h11.815v-.104H40.546zm0-.105h11.815v-.252H40.546z" fill="#3670AA"/><path d="M40.546 101.684h11.815v-.253H40.546z" fill="#3771AB"/><path d="M40.546 101.431h11.815v-.168H40.546z" fill="#3672AB"/><path d="M40.546 101.263h11.815v-.084H40.546z" fill="#3872AB"/><path d="M40.546 101.179h11.815v-.168H40.546z" fill="#3772AC"/><path d="M40.546 101.011h11.815v-.168H40.546z" fill="#3773AC"/><path d="M40.546 100.843h11.815v-.085H40.546zm0-.085h11.815v-.084H40.546z" fill="#3873AC"/></g><g clip-path="url(#r)"><path d="M52.521 106.054h11.815v-.19H52.521zm0-.19h11.815v-.084H52.521z" fill="#2F67A3"/><path d="M52.521 105.781h11.815v-.168H52.521z" fill="#3067A3"/><path d="M52.521 105.613h11.815v-.168H52.521z" fill="#3068A4"/><path d="M52.521 105.445h11.815v-.085H52.521z" fill="#2F68A4"/><path d="M52.521 105.36h11.815v-.168H52.521z" fill="#3168A4"/><path d="M52.521 105.192h11.815v-.252H52.521z" fill="#3169A4"/><path d="M52.521 104.94h11.815v-.274H52.521z" fill="#3269A5"/><path d="M52.521 104.667h11.815v-.084H52.521z" fill="#316AA5"/><path d="M52.521 104.583h11.815v-.085H52.521z" fill="#336AA5"/><path d="M52.521 104.499h11.815v-.252H52.521z" fill="#326AA5"/><path d="M52.521 104.247h11.815v-.085H52.521z" fill="#326BA6"/><path d="M52.521 104.162h11.815v-.168H52.521z" fill="#336BA6"/><path d="M52.521 103.994h11.815v-.252H52.521z" fill="#326BA6"/><path d="M52.521 103.743h11.815v-.168H52.521z" fill="#336CA7"/><path d="M52.521 103.575h11.815v-.274H52.521z" fill="#336CA7"/><path d="M52.521 103.301h11.815v-.253H52.521z" fill="#346DA8"/><path d="M52.521 103.048h11.815v-.168H52.521z" fill="#336EA8"/><path d="M52.521 102.88h11.815v-.252H52.521z" fill="#346EA8"/><path d="M52.521 102.629h11.815v-.168H52.521z" fill="#346FA9"/><path d="M52.521 102.46h11.815v-.084H52.521z" fill="#366FA9"/><path d="M52.521 102.376h11.815v-.252H52.521z" fill="#356FA9"/><path d="M52.521 102.124h11.815v-.084H52.521z" fill="#3570AA"/><path d="M52.521 102.04h11.815v-.104H52.521zm0-.105h11.815v-.252H52.521z" fill="#3670AA"/><path d="M52.521 101.684h11.815v-.253H52.521z" fill="#3771AB"/><path d="M52.521 101.431h11.815v-.168H52.521z" fill="#3672AB"/><path d="M52.521 101.263h11.815v-.084H52.521z" fill="#3872AB"/><path d="M52.521 101.179h11.815v-.168H52.521z" fill="#3772AC"/><path d="M52.521 101.011h11.815v-.168H52.521z" fill="#3773AC"/><path d="M52.521 100.843h11.815v-.085H52.521zm0-.085h11.815v-.084H52.521z" fill="#3873AC"/></g><path d="M148.628 103.374h2.313v2.68h-2.313zm13.219-2.517v.305c0 2.619-1.078 5.176-4.467 5.176-3.654 0-4.791-2.355-4.791-7.531 0-5.177 1.137-7.531 4.811-7.531 4.122 0 4.365 3.025 4.365 4.546v.265h-2.313v-.244c0-1.36-.407-2.883-2.072-2.822-1.724 0-2.476 1.056-2.476 5.725s.752 5.846 2.476 5.846c1.95 0 2.152-2.131 2.152-3.491v-.244h2.315m.914 3.37l6.069-10.718h-5.703V91.56h8.242v1.949l-6.07 10.596h6.13v1.949h-8.668v-1.827" fill="#343534"/><g clip-path="url(#s)"><path d="M125.958 100.675h9.277v-.036h-9.277z" fill="#4C4D4C"/><path d="M125.958 100.639h9.277v-.712h-9.277z" fill="#4D4E4D"/><path d="M125.958 99.927h9.277v-.712h-9.277z" fill="#4E4F4E"/><path d="M125.958 99.215h9.277v-.712h-9.277z" fill="#4F504F"/><path d="M125.958 98.503h9.277v-.712h-9.277z" fill="#505150"/><path d="M125.958 97.791h9.277v-.713h-9.277z" fill="#515251"/><path d="M125.958 97.078h9.277v-.711h-9.277z" fill="#525352"/><path d="M125.958 96.367h9.277v-.713h-9.277z" fill="#535453"/><path d="M125.958 95.654h9.277v-.712h-9.277z" fill="#545554"/><path d="M125.958 94.942h9.277v-.712h-9.277z" fill="#555655"/><path d="M125.958 94.23h9.277v-.712h-9.277z" fill="#565756"/><path d="M125.958 93.518h9.277v-.712h-9.277z" fill="#575856"/><path d="M125.958 92.806h9.277v-.712h-9.277z" fill="#585957"/><path d="M125.958 92.094h9.277v-.534h-9.277z" fill="#595A58"/></g><g clip-path="url(#t)"><path d="M97.022 100.675h9.155v-.036h-9.155z" fill="#4C4D4C"/><path d="M97.022 100.639h9.155v-.712h-9.155z" fill="#4D4E4D"/><path d="M97.022 99.927h9.155v-.712h-9.155z" fill="#4E4F4E"/><path d="M97.022 99.215h9.155v-.712h-9.155z" fill="#4F504F"/><path d="M97.022 98.503h9.155v-.712h-9.155z" fill="#505150"/><path d="M97.022 97.791h9.155v-.713h-9.155z" fill="#515251"/><path d="M97.022 97.078h9.155v-.711h-9.155z" fill="#525352"/><path d="M97.022 96.367h9.155v-.713h-9.155z" fill="#535453"/><path d="M97.022 95.654h9.155v-.712h-9.155z" fill="#545554"/><path d="M97.022 94.942h9.155v-.712h-9.155z" fill="#555655"/><path d="M97.022 94.23h9.155v-.712h-9.155z" fill="#565756"/><path d="M97.022 93.518h9.155v-.712h-9.155z" fill="#575856"/><path d="M97.022 92.806h9.155v-.712h-9.155z" fill="#585957"/><path d="M97.022 92.094h9.155v-.534h-9.155z" fill="#595A58"/></g><g clip-path="url(#u)"><path d="M120.162 100.675h4.503v-.036h-4.503z" fill="#4C4D4C"/><path d="M120.162 100.639h4.503v-.712h-4.503z" fill="#4D4E4D"/><path d="M120.162 99.927h4.503v-.712h-4.503z" fill="#4E4F4E"/><path d="M120.162 99.215h4.503v-.712h-4.503z" fill="#4F504F"/><path d="M120.162 98.503h4.503v-.712h-4.503z" fill="#505150"/><path d="M120.162 97.791h4.503v-.713h-4.503z" fill="#515251"/><path d="M120.162 97.078h4.503v-.711h-4.503z" fill="#525352"/><path d="M120.162 96.367h4.503v-.713h-4.503z" fill="#535453"/><path d="M120.162 95.654h4.503v-.712h-4.503z" fill="#545554"/><path d="M120.162 94.942h4.503v-.712h-4.503z" fill="#555655"/><path d="M120.162 94.23h4.503v-.712h-4.503z" fill="#565756"/><path d="M120.162 93.518h4.503v-.712h-4.503z" fill="#575856"/><path d="M120.162 92.806h4.503v-.712h-4.503z" fill="#585957"/><path d="M120.162 92.094h4.503v-.534h-4.503z" fill="#595A58"/></g><g clip-path="url(#v)"><path d="M109.322 90.585h3.653v-.021h-3.653z" fill="#4C4D4C"/><path d="M109.322 90.565h3.653v-.23h-3.653z" fill="#4D4E4D"/><path d="M109.322 90.335h3.653v-.23h-3.653z" fill="#4E4F4E"/><path d="M109.322 90.105h3.653v-.23h-3.653z" fill="#4F504F"/><path d="M109.322 89.875h3.653v-.23h-3.653z" fill="#505150"/><path d="M109.322 89.645h3.653v-.23h-3.653z" fill="#515251"/><path d="M109.322 89.416h3.653v-.23h-3.653z" fill="#525352"/><path d="M109.322 89.186h3.653v-.229h-3.653z" fill="#535453"/><path d="M109.322 88.957h3.653v-.23h-3.653z" fill="#545554"/><path d="M109.322 88.727h3.653v-.23h-3.653z" fill="#555655"/><path d="M109.322 88.497h3.653v-.23h-3.653z" fill="#565756"/><path d="M109.322 88.268h3.653v-.23h-3.653z" fill="#575856"/><path d="M109.322 88.038h3.653v-.23h-3.653z" fill="#585957"/><path d="M109.322 87.808h3.653v-.146h-3.653z" fill="#595A58"/></g><g clip-path="url(#w)"><path d="M114.658 100.675h4.39v-.036h-4.39z" fill="#4C4D4C"/><path d="M114.658 100.639h4.39v-.712h-4.39z" fill="#4D4E4D"/><path d="M114.658 99.927h4.39v-.712h-4.39z" fill="#4E4F4E"/><path d="M114.658 99.215h4.39v-.712h-4.39z" fill="#4F504F"/><path d="M114.658 98.503h4.39v-.712h-4.39z" fill="#505150"/><path d="M114.658 97.791h4.39v-.713h-4.39z" fill="#515251"/><path d="M114.658 97.078h4.39v-.711h-4.39z" fill="#525352"/><path d="M114.658 96.367h4.39v-.713h-4.39z" fill="#535453"/><path d="M114.658 95.654h4.39v-.712h-4.39z" fill="#545554"/><path d="M114.658 94.942h4.39v-.712h-4.39z" fill="#555655"/><path d="M114.658 94.23h4.39v-.712h-4.39z" fill="#565756"/><path d="M114.658 93.518h4.39v-.712h-4.39z" fill="#575856"/><path d="M114.658 92.806h4.39v-.712h-4.39z" fill="#585957"/><path d="M114.658 92.094h4.39v-.534h-4.39z" fill="#595A58"/></g><g clip-path="url(#x)"><path d="M76.379 100.675h9.581v-.037h-9.581z" fill="#4C4D4C"/><path d="M76.379 100.638h9.581v-.735h-9.581z" fill="#4D4E4D"/><path d="M76.379 99.904h9.581v-.735h-9.581z" fill="#4E4F4E"/><path d="M76.379 99.169h9.581v-.734h-9.581z" fill="#4F504F"/><path d="M76.379 98.435h9.581V97.7h-9.581z" fill="#505150"/><path d="M76.379 97.7h9.581v-.734h-9.581z" fill="#515251"/><path d="M76.379 96.966h9.581v-.735h-9.581z" fill="#525352"/><path d="M76.379 96.231h9.581v-.734h-9.581z" fill="#535453"/><path d="M76.379 95.498h9.581v-.735h-9.581z" fill="#545554"/><path d="M76.379 94.763h9.581v-.735h-9.581z" fill="#555655"/><path d="M76.379 94.029h9.581v-.734h-9.581z" fill="#565756"/><path d="M76.379 93.295h9.581v-.735h-9.581z" fill="#575856"/><path d="M76.379 92.561h9.581v-.735h-9.581z" fill="#585957"/><path d="M76.379 91.826h9.581v-.55h-9.581z" fill="#595A58"/></g><g clip-path="url(#y)"><path d="M66.493 100.675h8.586v-.036h-8.586z" fill="#4C4D4C"/><path d="M66.493 100.639h8.586v-.712h-8.586z" fill="#4D4E4D"/><path d="M66.493 99.927h8.586v-.712h-8.586z" fill="#4E4F4E"/><path d="M66.493 99.215h8.586v-.712h-8.586z" fill="#4F504F"/><path d="M66.493 98.503h8.586v-.712h-8.586z" fill="#505150"/><path d="M66.493 97.791h8.586v-.713h-8.586z" fill="#515251"/><path d="M66.493 97.078h8.586v-.711h-8.586z" fill="#525352"/><path d="M66.493 96.367h8.586v-.713h-8.586z" fill="#535453"/><path d="M66.493 95.654h8.586v-.712h-8.586z" fill="#545554"/><path d="M66.493 94.942h8.586v-.712h-8.586z" fill="#555655"/><path d="M66.493 94.23h8.586v-.712h-8.586z" fill="#565756"/><path d="M66.493 93.518h8.586v-.712h-8.586z" fill="#575856"/><path d="M66.493 92.806h8.586v-.712h-8.586z" fill="#585957"/><path d="M66.493 92.094h8.586v-.534h-8.586z" fill="#595A58"/></g><g clip-path="url(#z)"><path d="M87.929 100.675h8.587v-.036h-8.587z" fill="#4C4D4C"/><path d="M87.929 100.639h8.587v-.712h-8.587z" fill="#4D4E4D"/><path d="M87.929 99.927h8.587v-.712h-8.587z" fill="#4E4F4E"/><path d="M87.929 99.215h8.587v-.712h-8.587z" fill="#4F504F"/><path d="M87.929 98.503h8.587v-.712h-8.587z" fill="#505150"/><path d="M87.929 97.791h8.587v-.713h-8.587z" fill="#515251"/><path d="M87.929 97.078h8.587v-.711h-8.587z" fill="#525352"/><path d="M87.929 96.367h8.587v-.713h-8.587z" fill="#535453"/><path d="M87.929 95.654h8.587v-.712h-8.587z" fill="#545554"/><path d="M87.929 94.942h8.587v-.712h-8.587z" fill="#555655"/><path d="M87.929 94.23h8.587v-.712h-8.587z" fill="#565756"/><path d="M87.929 93.518h8.587v-.712h-8.587z" fill="#575856"/><path d="M87.929 92.806h8.587v-.712h-8.587z" fill="#585957"/><path d="M87.929 92.094h8.587v-.534h-8.587z" fill="#595A58"/></g><g clip-path="url(#A)"><path d="M106.709 100.675h7.955v-.036h-7.955z" fill="#4C4D4C"/><path d="M106.709 100.639h7.955v-.712h-7.955z" fill="#4D4E4D"/><path d="M106.709 99.927h7.955v-.712h-7.955z" fill="#4E4F4E"/><path d="M106.709 99.215h7.955v-.712h-7.955z" fill="#4F504F"/><path d="M106.709 98.503h7.955v-.712h-7.955z" fill="#505150"/><path d="M106.709 97.791h7.955v-.713h-7.955z" fill="#515251"/><path d="M106.709 97.078h7.955v-.711h-7.955z" fill="#525352"/><path d="M106.709 96.367h7.955v-.713h-7.955z" fill="#535453"/><path d="M106.709 95.654h7.955v-.712h-7.955z" fill="#545554"/><path d="M106.709 94.942h7.955v-.712h-7.955z" fill="#555655"/><path d="M106.709 94.23h7.955v-.712h-7.955z" fill="#565756"/><path d="M106.709 93.518h7.955v-.712h-7.955z" fill="#575856"/><path d="M106.709 92.806h7.955v-.712h-7.955z" fill="#585957"/><path d="M106.709 92.094h7.955v-.534h-7.955z" fill="#595A58"/></g><g clip-path="url(#B)"><path d="M137.715 100.675h7.955v-.036h-7.955z" fill="#4C4D4C"/><path d="M137.715 100.639h7.955v-.712h-7.955z" fill="#4D4E4D"/><path d="M137.715 99.927h7.955v-.712h-7.955z" fill="#4E4F4E"/><path d="M137.715 99.215h7.955v-.712h-7.955z" fill="#4F504F"/><path d="M137.715 98.503h7.955v-.712h-7.955z" fill="#505150"/><path d="M137.715 97.791h7.955v-.713h-7.955z" fill="#515251"/><path d="M137.715 97.078h7.955v-.711h-7.955z" fill="#525352"/><path d="M137.715 96.367h7.955v-.713h-7.955z" fill="#535453"/><path d="M137.715 95.654h7.955v-.712h-7.955z" fill="#545554"/><path d="M137.715 94.942h7.955v-.712h-7.955z" fill="#555655"/><path d="M137.715 94.23h7.955v-.712h-7.955z" fill="#565756"/><path d="M137.715 93.518h7.955v-.712h-7.955z" fill="#575856"/><path d="M137.715 92.806h7.955v-.712h-7.955z" fill="#585957"/><path d="M137.715 92.094h7.955v-.534h-7.955z" fill="#595A58"/></g><g clip-path="url(#C)"><path d="M100.474 106.068h2.313v-.213h-2.313z" fill="#343534"/><path d="M100.474 105.855h2.313v-.427h-2.313z" fill="#353635"/><path d="M100.474 105.427h2.313V105h-2.313z" fill="#363736"/><path d="M100.474 105h2.313v-.427h-2.313z" fill="#373837"/><path d="M100.474 104.573h2.313v-.427h-2.313z" fill="#383938"/><path d="M100.474 104.146h2.313v-.426h-2.313z" fill="#3A3A39"/><path d="M100.474 103.72h2.313v-.428h-2.313z" fill="#3B3B3A"/><path d="M100.474 103.291h2.313v-.426h-2.313z" fill="#3C3C3B"/><path d="M100.474 102.865h2.313v-.427h-2.313z" fill="#3C3D3C"/><path d="M100.474 102.438h2.313v-.427h-2.313z" fill="#3D3E3D"/><path d="M100.474 102.011h2.313v-.427h-2.313z" fill="#3E3F3E"/><path d="M100.474 101.583h2.313v-.427h-2.313z" fill="#3F403F"/><path d="M100.474 101.156h2.313v-.427h-2.313z" fill="#404140"/><path d="M100.474 100.729h2.313v-.064h-2.313z" fill="#414241"/><path d="M100.474 106.068h2.313v-.213h-2.313z" fill="#343534"/><path d="M100.474 105.855h2.313v-.427h-2.313z" fill="#353635"/><path d="M100.474 105.427h2.313V105h-2.313z" fill="#363736"/><path d="M100.474 105h2.313v-.427h-2.313z" fill="#373837"/><path d="M100.474 104.573h2.313v-.427h-2.313z" fill="#383938"/><path d="M100.474 104.146h2.313v-.426h-2.313z" fill="#3A3A39"/><path d="M100.474 103.72h2.313v-.428h-2.313z" fill="#3B3B3A"/><path d="M100.474 103.291h2.313v-.426h-2.313z" fill="#3C3C3B"/><path d="M100.474 102.865h2.313v-.427h-2.313z" fill="#3C3D3C"/><path d="M100.474 102.438h2.313v-.427h-2.313z" fill="#3D3E3D"/><path d="M100.474 102.011h2.313v-.427h-2.313z" fill="#3E3F3E"/><path d="M100.474 101.583h2.313v-.427h-2.313z" fill="#3F403F"/><path d="M100.474 101.156h2.313v-.427h-2.313z" fill="#404140"/><path d="M100.474 100.729h2.313v-.064h-2.313z" fill="#414241"/></g><g clip-path="url(#D)"><path d="M87.929 106.068h2.315v-.021h-2.315z" fill="#343534"/></g><path d="M87.929 106.047h2.315v-.192h-2.315z" fill="#343534"/><path d="M87.929 105.855h2.315v-.427h-2.315z" fill="#353635"/><path d="M87.929 105.427h2.315v-.426h-2.315z" fill="#363736"/><path d="M87.929 105.001h2.315v-.428h-2.315z" fill="#373837"/><path d="M87.929 104.573h2.315v-.427h-2.315z" fill="#383938"/><path d="M87.929 104.146h2.315v-.426h-2.315z" fill="#3A3A39"/><path d="M87.929 103.72h2.315v-.428h-2.315z" fill="#3B3B3A"/><path d="M87.929 103.291h2.315v-.426h-2.315z" fill="#3C3C3B"/><path d="M87.929 102.865h2.315v-.427h-2.315z" fill="#3C3D3C"/><path d="M87.929 102.438h2.315v-.427h-2.315z" fill="#3D3E3D"/><path d="M87.929 102.011h2.315v-.427h-2.315z" fill="#3E3F3E"/><path d="M87.929 101.583h2.315v-.427h-2.315z" fill="#3F403F"/><path d="M87.929 101.156h2.315v-.427h-2.315z" fill="#404140"/><path d="M87.929 100.729h2.315v-.042h-2.315z" fill="#414241"/><g clip-path="url(#E)"><path d="M87.929 100.686h2.315v-.021h-2.315z" fill="#414241"/><path d="M87.929 106.068h2.315v-.021h-2.315z" fill="#343534"/></g><path d="M87.929 106.047h2.315v-.192h-2.315z" fill="#343534"/><path d="M87.929 105.855h2.315v-.427h-2.315z" fill="#353635"/><path d="M87.929 105.427h2.315v-.426h-2.315z" fill="#363736"/><path d="M87.929 105.001h2.315v-.428h-2.315z" fill="#373837"/><path d="M87.929 104.573h2.315v-.427h-2.315z" fill="#383938"/><path d="M87.929 104.146h2.315v-.426h-2.315z" fill="#3A3A39"/><path d="M87.929 103.72h2.315v-.428h-2.315z" fill="#3B3B3A"/><path d="M87.929 103.291h2.315v-.426h-2.315z" fill="#3C3C3B"/><path d="M87.929 102.865h2.315v-.427h-2.315z" fill="#3C3D3C"/><path d="M87.929 102.438h2.315v-.427h-2.315z" fill="#3D3E3D"/><path d="M87.929 102.011h2.315v-.427h-2.315z" fill="#3E3F3E"/><path d="M87.929 101.583h2.315v-.427h-2.315z" fill="#3F403F"/><path d="M87.929 101.156h2.315v-.427h-2.315z" fill="#404140"/><path d="M87.929 100.729h2.315v-.042h-2.315z" fill="#414241"/><g clip-path="url(#F)"><path d="M87.929 100.686h2.315v-.021h-2.315z" fill="#414241"/></g><g clip-path="url(#G)"><path d="M76.455 106.338h9.429v-.483h-9.429z" fill="#343534"/><path d="M76.455 105.855h9.429v-.427h-9.429z" fill="#353635"/><path d="M76.455 105.427h9.429V105h-9.429z" fill="#363736"/><path d="M76.455 105h9.429v-.427h-9.429z" fill="#373837"/><path d="M76.455 104.573h9.429v-.427h-9.429z" fill="#383938"/><path d="M76.455 104.146h9.429v-.426h-9.429z" fill="#3A3A39"/><path d="M76.455 103.72h9.429v-.428h-9.429z" fill="#3B3B3A"/><path d="M76.455 103.291h9.429v-.426h-9.429z" fill="#3C3C3B"/><path d="M76.455 102.865h9.429v-.427h-9.429z" fill="#3C3D3C"/><path d="M76.455 102.438h9.429v-.427h-9.429z" fill="#3D3E3D"/><path d="M76.455 102.011h9.429v-.427h-9.429z" fill="#3E3F3E"/><path d="M76.455 101.583h9.429v-.427h-9.429z" fill="#3F403F"/><path d="M76.455 101.156h9.429v-.427h-9.429z" fill="#404140"/><path d="M76.455 100.729h9.429v-.064h-9.429z" fill="#414241"/><path d="M76.455 106.338h9.429v-.483h-9.429z" fill="#343534"/><path d="M76.455 105.855h9.429v-.427h-9.429z" fill="#353635"/><path d="M76.455 105.427h9.429V105h-9.429z" fill="#363736"/><path d="M76.455 105h9.429v-.427h-9.429z" fill="#373837"/><path d="M76.455 104.573h9.429v-.427h-9.429z" fill="#383938"/><path d="M76.455 104.146h9.429v-.426h-9.429z" fill="#3A3A39"/><path d="M76.455 103.72h9.429v-.428h-9.429z" fill="#3B3B3A"/><path d="M76.455 103.291h9.429v-.426h-9.429z" fill="#3C3C3B"/><path d="M76.455 102.865h9.429v-.427h-9.429z" fill="#3C3D3C"/><path d="M76.455 102.438h9.429v-.427h-9.429z" fill="#3D3E3D"/><path d="M76.455 102.011h9.429v-.427h-9.429z" fill="#3E3F3E"/><path d="M76.455 101.583h9.429v-.427h-9.429z" fill="#3F403F"/><path d="M76.455 101.156h9.429v-.427h-9.429z" fill="#404140"/><path d="M76.455 100.729h9.429v-.064h-9.429z" fill="#414241"/></g><g clip-path="url(#H)"><path d="M136.185 106.068h10.901v-.213h-10.901z" fill="#343534"/><path d="M136.185 105.855h10.901v-.427h-10.901z" fill="#353635"/><path d="M136.185 105.427h10.901V105h-10.901z" fill="#363736"/><path d="M136.185 105h10.901v-.427h-10.901z" fill="#373837"/><path d="M136.185 104.573h10.901v-.427h-10.901z" fill="#383938"/><path d="M136.185 104.146h10.901v-.426h-10.901z" fill="#3A3A39"/><path d="M136.185 103.72h10.901v-.428h-10.901z" fill="#3B3B3A"/><path d="M136.185 103.291h10.901v-.426h-10.901z" fill="#3C3C3B"/><path d="M136.185 102.865h10.901v-.427h-10.901z" fill="#3C3D3C"/><path d="M136.185 102.438h10.901v-.427h-10.901z" fill="#3D3E3D"/><path d="M136.185 102.011h10.901v-.427h-10.901z" fill="#3E3F3E"/><path d="M136.185 101.583h10.901v-.427h-10.901z" fill="#3F403F"/><path d="M136.185 101.156h10.901v-.427h-10.901z" fill="#404140"/><path d="M136.185 100.729h10.901v-.064h-10.901z" fill="#414241"/><path d="M136.185 106.068h10.901v-.213h-10.901z" fill="#343534"/><path d="M136.185 105.855h10.901v-.427h-10.901z" fill="#353635"/><path d="M136.185 105.427h10.901V105h-10.901z" fill="#363736"/><path d="M136.185 105h10.901v-.427h-10.901z" fill="#373837"/><path d="M136.185 104.573h10.901v-.427h-10.901z" fill="#383938"/><path d="M136.185 104.146h10.901v-.426h-10.901z" fill="#3A3A39"/><path d="M136.185 103.72h10.901v-.428h-10.901z" fill="#3B3B3A"/><path d="M136.185 103.291h10.901v-.426h-10.901z" fill="#3C3C3B"/><path d="M136.185 102.865h10.901v-.427h-10.901z" fill="#3C3D3C"/><path d="M136.185 102.438h10.901v-.427h-10.901z" fill="#3D3E3D"/><path d="M136.185 102.011h10.901v-.427h-10.901z" fill="#3E3F3E"/><path d="M136.185 101.583h10.901v-.427h-10.901z" fill="#3F403F"/><path d="M136.185 101.156h10.901v-.427h-10.901z" fill="#404140"/><path d="M136.185 100.729h10.901v-.064h-10.901z" fill="#414241"/></g><g clip-path="url(#I)"><path d="M66.493 106.068h2.315v-.021h-2.315z" fill="#343534"/></g><path d="M66.493 106.047h2.315v-.192h-2.315z" fill="#343534"/><path d="M66.493 105.855h2.315v-.427h-2.315z" fill="#353635"/><path d="M66.493 105.427h2.315v-.426h-2.315z" fill="#363736"/><path d="M66.493 105.001h2.315v-.428h-2.315z" fill="#373837"/><path d="M66.493 104.573h2.315v-.427h-2.315z" fill="#383938"/><path d="M66.493 104.146h2.315v-.426h-2.315z" fill="#3A3A39"/><path d="M66.493 103.72h2.315v-.428h-2.315z" fill="#3B3B3A"/><path d="M66.493 103.291h2.315v-.426h-2.315z" fill="#3C3C3B"/><path d="M66.493 102.865h2.315v-.427h-2.315z" fill="#3C3D3C"/><path d="M66.493 102.438h2.315v-.427h-2.315z" fill="#3D3E3D"/><path d="M66.493 102.011h2.315v-.427h-2.315z" fill="#3E3F3E"/><path d="M66.493 101.583h2.315v-.427h-2.315z" fill="#3F403F"/><path d="M66.493 101.156h2.315v-.427h-2.315z" fill="#404140"/><path d="M66.493 100.729h2.315v-.042h-2.315z" fill="#414241"/><g clip-path="url(#J)"><path d="M66.493 100.686h2.315v-.021h-2.315z" fill="#414241"/><path d="M66.493 106.068h2.315v-.021h-2.315z" fill="#343534"/></g><path d="M66.493 106.047h2.315v-.192h-2.315z" fill="#343534"/><path d="M66.493 105.855h2.315v-.427h-2.315z" fill="#353635"/><path d="M66.493 105.427h2.315v-.426h-2.315z" fill="#363736"/><path d="M66.493 105.001h2.315v-.428h-2.315z" fill="#373837"/><path d="M66.493 104.573h2.315v-.427h-2.315z" fill="#383938"/><path d="M66.493 104.146h2.315v-.426h-2.315z" fill="#3A3A39"/><path d="M66.493 103.72h2.315v-.428h-2.315z" fill="#3B3B3A"/><path d="M66.493 103.291h2.315v-.426h-2.315z" fill="#3C3C3B"/><path d="M66.493 102.865h2.315v-.427h-2.315z" fill="#3C3D3C"/><path d="M66.493 102.438h2.315v-.427h-2.315z" fill="#3D3E3D"/><path d="M66.493 102.011h2.315v-.427h-2.315z" fill="#3E3F3E"/><path d="M66.493 101.583h2.315v-.427h-2.315z" fill="#3F403F"/><path d="M66.493 101.156h2.315v-.427h-2.315z" fill="#404140"/><path d="M66.493 100.729h2.315v-.042h-2.315z" fill="#414241"/><g clip-path="url(#K)"><path d="M66.493 100.686h2.315v-.021h-2.315z" fill="#414241"/></g><g clip-path="url(#L)"><path d="M105.18 106.068h10.901v-.213H105.18z" fill="#343534"/><path d="M105.18 105.855h10.901v-.427H105.18z" fill="#353635"/><path d="M105.18 105.427h10.901V105H105.18z" fill="#363736"/><path d="M105.18 105h10.901v-.427H105.18z" fill="#373837"/><path d="M105.18 104.573h10.901v-.427H105.18z" fill="#383938"/><path d="M105.18 104.146h10.901v-.426H105.18z" fill="#3A3A39"/><path d="M105.18 103.72h10.901v-.428H105.18z" fill="#3B3B3A"/><path d="M105.18 103.291h10.901v-.426H105.18z" fill="#3C3C3B"/><path d="M105.18 102.865h10.901v-.427H105.18z" fill="#3C3D3C"/><path d="M105.18 102.438h10.901v-.427H105.18z" fill="#3D3E3D"/><path d="M105.18 102.011h10.901v-.427H105.18z" fill="#3E3F3E"/><path d="M105.18 101.583h10.901v-.427H105.18z" fill="#3F403F"/><path d="M105.18 101.156h10.901v-.427H105.18z" fill="#404140"/><path d="M105.18 100.729h10.901v-.064H105.18z" fill="#414241"/><path d="M105.18 106.068h10.901v-.213H105.18z" fill="#343534"/><path d="M105.18 105.855h10.901v-.427H105.18z" fill="#353635"/><path d="M105.18 105.427h10.901V105H105.18z" fill="#363736"/><path d="M105.18 105h10.901v-.427H105.18z" fill="#373837"/><path d="M105.18 104.573h10.901v-.427H105.18z" fill="#383938"/><path d="M105.18 104.146h10.901v-.426H105.18z" fill="#3A3A39"/><path d="M105.18 103.72h10.901v-.428H105.18z" fill="#3B3B3A"/><path d="M105.18 103.291h10.901v-.426H105.18z" fill="#3C3C3B"/><path d="M105.18 102.865h10.901v-.427H105.18z" fill="#3C3D3C"/><path d="M105.18 102.438h10.901v-.427H105.18z" fill="#3D3E3D"/><path d="M105.18 102.011h10.901v-.427H105.18z" fill="#3E3F3E"/><path d="M105.18 101.583h10.901v-.427H105.18z" fill="#3F403F"/><path d="M105.18 101.156h10.901v-.427H105.18z" fill="#404140"/><path d="M105.18 100.729h10.901v-.064H105.18z" fill="#414241"/></g><g clip-path="url(#M)"><path d="M130.165 106.068h5.516v-.213h-5.516z" fill="#343534"/><path d="M130.165 105.855h5.516v-.427h-5.516z" fill="#353635"/><path d="M130.165 105.427h5.516V105h-5.516z" fill="#363736"/><path d="M130.165 105h5.516v-.427h-5.516z" fill="#373837"/><path d="M130.165 104.573h5.516v-.427h-5.516z" fill="#383938"/><path d="M130.165 104.146h5.516v-.426h-5.516z" fill="#3A3A39"/><path d="M130.165 103.72h5.516v-.428h-5.516z" fill="#3B3B3A"/><path d="M130.165 103.291h5.516v-.426h-5.516z" fill="#3C3C3B"/><path d="M130.165 102.865h5.516v-.427h-5.516z" fill="#3C3D3C"/><path d="M130.165 102.438h5.516v-.427h-5.516z" fill="#3D3E3D"/><path d="M130.165 102.011h5.516v-.427h-5.516z" fill="#3E3F3E"/><path d="M130.165 101.583h5.516v-.427h-5.516z" fill="#3F403F"/><path d="M130.165 101.156h5.516v-.427h-5.516z" fill="#404140"/><path d="M130.165 100.729h5.516v-.064h-5.516z" fill="#414241"/><path d="M130.165 106.068h5.516v-.213h-5.516z" fill="#343534"/><path d="M130.165 105.855h5.516v-.427h-5.516z" fill="#353635"/><path d="M130.165 105.427h5.516V105h-5.516z" fill="#363736"/><path d="M130.165 105h5.516v-.427h-5.516z" fill="#373837"/><path d="M130.165 104.573h5.516v-.427h-5.516z" fill="#383938"/><path d="M130.165 104.146h5.516v-.426h-5.516z" fill="#3A3A39"/><path d="M130.165 103.72h5.516v-.428h-5.516z" fill="#3B3B3A"/><path d="M130.165 103.291h5.516v-.426h-5.516z" fill="#3C3C3B"/><path d="M130.165 102.865h5.516v-.427h-5.516z" fill="#3C3D3C"/><path d="M130.165 102.438h5.516v-.427h-5.516z" fill="#3D3E3D"/><path d="M130.165 102.011h5.516v-.427h-5.516z" fill="#3E3F3E"/><path d="M130.165 101.583h5.516v-.427h-5.516z" fill="#3F403F"/><path d="M130.165 101.156h5.516v-.427h-5.516z" fill="#404140"/><path d="M130.165 100.729h5.516v-.064h-5.516z" fill="#414241"/></g><g clip-path="url(#N)"><path d="M125.958 106.068h2.797v-.213h-2.797z" fill="#343534"/><path d="M125.958 105.855h2.797v-.427h-2.797z" fill="#353635"/><path d="M125.958 105.427h2.797V105h-2.797z" fill="#363736"/><path d="M125.958 105h2.797v-.427h-2.797z" fill="#373837"/><path d="M125.958 104.573h2.797v-.427h-2.797z" fill="#383938"/><path d="M125.958 104.146h2.797v-.426h-2.797z" fill="#3A3A39"/><path d="M125.958 103.72h2.797v-.428h-2.797z" fill="#3B3B3A"/><path d="M125.958 103.291h2.797v-.426h-2.797z" fill="#3C3C3B"/><path d="M125.958 102.865h2.797v-.427h-2.797z" fill="#3C3D3C"/><path d="M125.958 102.438h2.797v-.427h-2.797z" fill="#3D3E3D"/><path d="M125.958 102.011h2.797v-.427h-2.797z" fill="#3E3F3E"/><path d="M125.958 101.583h2.797v-.427h-2.797z" fill="#3F403F"/><path d="M125.958 101.156h2.797v-.427h-2.797z" fill="#404140"/><path d="M125.958 100.729h2.797v-.064h-2.797z" fill="#414241"/><path d="M125.958 106.068h2.797v-.213h-2.797z" fill="#343534"/><path d="M125.958 105.855h2.797v-.427h-2.797z" fill="#353635"/><path d="M125.958 105.427h2.797V105h-2.797z" fill="#363736"/><path d="M125.958 105h2.797v-.427h-2.797z" fill="#373837"/><path d="M125.958 104.573h2.797v-.427h-2.797z" fill="#383938"/><path d="M125.958 104.146h2.797v-.426h-2.797z" fill="#3A3A39"/><path d="M125.958 103.72h2.797v-.428h-2.797z" fill="#3B3B3A"/><path d="M125.958 103.291h2.797v-.426h-2.797z" fill="#3C3C3B"/><path d="M125.958 102.865h2.797v-.427h-2.797z" fill="#3C3D3C"/><path d="M125.958 102.438h2.797v-.427h-2.797z" fill="#3D3E3D"/><path d="M125.958 102.011h2.797v-.427h-2.797z" fill="#3E3F3E"/><path d="M125.958 101.583h2.797v-.427h-2.797z" fill="#3F403F"/><path d="M125.958 101.156h2.797v-.427h-2.797z" fill="#404140"/><path d="M125.958 100.729h2.797v-.064h-2.797z" fill="#414241"/></g><g clip-path="url(#O)"><path d="M116.803 106.068h5.564v-.213h-5.564z" fill="#343534"/><path d="M116.803 105.855h5.564v-.427h-5.564z" fill="#353635"/><path d="M116.803 105.427h5.564V105h-5.564z" fill="#363736"/><path d="M116.803 105h5.564v-.427h-5.564z" fill="#373837"/><path d="M116.803 104.573h5.564v-.427h-5.564z" fill="#383938"/><path d="M116.803 104.146h5.564v-.426h-5.564z" fill="#3A3A39"/><path d="M116.803 103.72h5.564v-.428h-5.564z" fill="#3B3B3A"/><path d="M116.803 103.291h5.564v-.426h-5.564z" fill="#3C3C3B"/><path d="M116.803 102.865h5.564v-.427h-5.564z" fill="#3C3D3C"/><path d="M116.803 102.438h5.564v-.427h-5.564z" fill="#3D3E3D"/><path d="M116.803 102.011h5.564v-.427h-5.564z" fill="#3E3F3E"/><path d="M116.803 101.583h5.564v-.427h-5.564z" fill="#3F403F"/><path d="M116.803 101.156h5.564v-.427h-5.564z" fill="#404140"/><path d="M116.803 100.729h5.564v-.064h-5.564z" fill="#414241"/><path d="M116.803 106.068h5.564v-.213h-5.564z" fill="#343534"/><path d="M116.803 105.855h5.564v-.427h-5.564z" fill="#353635"/><path d="M116.803 105.427h5.564V105h-5.564z" fill="#363736"/><path d="M116.803 105h5.564v-.427h-5.564z" fill="#373837"/><path d="M116.803 104.573h5.564v-.427h-5.564z" fill="#383938"/><path d="M116.803 104.146h5.564v-.426h-5.564z" fill="#3A3A39"/><path d="M116.803 103.72h5.564v-.428h-5.564z" fill="#3B3B3A"/><path d="M116.803 103.291h5.564v-.426h-5.564z" fill="#3C3C3B"/><path d="M116.803 102.865h5.564v-.427h-5.564z" fill="#3C3D3C"/><path d="M116.803 102.438h5.564v-.427h-5.564z" fill="#3D3E3D"/><path d="M116.803 102.011h5.564v-.427h-5.564z" fill="#3E3F3E"/><path d="M116.803 101.583h5.564v-.427h-5.564z" fill="#3F403F"/><path d="M116.803 101.156h5.564v-.427h-5.564z" fill="#404140"/><path d="M116.803 100.729h5.564v-.064h-5.564z" fill="#414241"/></g></svg>