<svg xmlns="http://www.w3.org/2000/svg" width="200" height="200"><path fill="none" d="M0 0h200v200H0z"/><path d="M34.546 118.185h-3.247v-2.363h-.077c-1.66 1.891-3.886 2.836-6.557 2.836-5.59 0-9.107-4.254-9.107-8.985 0-4.874 3.438-9.058 9.153-9.058 2.587 0 4.932 1.088 6.511 2.909h.077v-2.436h3.247zm-15.673-8.729c0 3.348 2.189 6.513 6.236 6.513 4.17 0 6.355-3.022 6.355-6.478 0-3.417-2.388-6.184-6.389-6.184-3.769 0-6.202 2.945-6.202 6.149m25.616 8.729h-3.235V103.78h-1.985v-2.692h1.985v-6.149h3.235v6.149h3.408v2.692h-3.408zm24.704 0h-3.238v-2.363h-.077c-1.66 1.891-3.886 2.836-6.557 2.836-5.59 0-9.112-4.254-9.112-8.985 0-4.874 3.443-9.058 9.158-9.058 2.578 0 4.932 1.088 6.511 2.909h.077v-2.436h3.238zm-15.664-8.729c0 3.348 2.189 6.513 6.232 6.513 4.174 0 6.354-3.022 6.354-6.478 0-3.417-2.383-6.184-6.392-6.184-3.759 0-6.194 2.945-6.194 6.149m35.791-3.277h-.085c-1.498-1.708-3.357-2.87-5.91-2.87-3.929 0-6.719 2.91-6.719 6.327 0 3.385 2.591 6.33 6.558 6.33 2.714 0 4.619-1.092 6.194-2.945h.076v3.894c-1.854 1.128-3.756 1.744-6.024 1.744-5.754 0-10.127-3.855-10.127-9.023 0-5.092 4.576-9.02 10.164-9.02 2.071 0 4.175.616 5.873 1.709zm19.271 0h-.09c-1.489-1.708-3.353-2.87-5.902-2.87-3.933 0-6.723 2.91-6.723 6.327 0 3.385 2.588 6.33 6.563 6.33 2.709 0 4.615-1.092 6.194-2.945h.081v3.894c-1.864 1.128-3.768 1.744-6.034 1.744-5.753 0-10.122-3.855-10.122-9.023 0-5.092 4.58-9.02 10.164-9.02 2.062 0 4.171.616 5.869 1.709zm22.512 12.006h-3.243v-2.363h-.076c-1.665 1.891-3.887 2.836-6.559 2.836-5.588 0-9.106-4.254-9.106-8.985 0-4.874 3.434-9.058 9.149-9.058 2.583 0 4.937 1.088 6.516 2.909h.076v-2.436h3.243zm-15.673-8.729c0 3.348 2.189 6.513 6.236 6.513 4.174 0 6.355-3.022 6.355-6.478 0-3.417-2.388-6.184-6.393-6.184-3.769 0-6.198 2.945-6.198 6.149m24.905-6.511h.085c1.004-1.418 2.625-2.332 4.568-2.332 2.227 0 4.251 1.057 5.267 2.84 1.126-1.891 3.404-2.84 5.703-2.84 4.865 0 6.079 3.567 6.079 7.167v10.407h-3.247v-9.938c0-2.212-.16-4.94-3.476-4.94-3.721 0-4.132 3.235-4.132 5.819v9.059h-3.234v-9.714c0-2.111-.288-5.164-3.404-5.164-3.807 0-4.209 3.456-4.209 6.037v8.841h-3.243v-17.098h3.243zm45.223 15.24h-3.243v-2.363h-.076c-1.663 1.891-3.887 2.836-6.557 2.836-5.59 0-9.112-4.254-9.112-8.985 0-4.874 3.438-9.058 9.154-9.058 2.591 0 4.936 1.088 6.515 2.909h.076v-2.436h3.243zm-15.664-8.729c0 3.348 2.185 6.513 6.227 6.513 4.175 0 6.364-3.022 6.364-6.478 0-3.417-2.388-6.184-6.397-6.184-3.772 0-6.194 2.945-6.194 6.149" fill="#07183E"/></svg>