<svg xmlns="http://www.w3.org/2000/svg" width="200" height="200"><path d="M71.457 79.067c1.315.14 2.469.706 3.42 1.607a5.55 5.55 0 010 7.875 5.588 5.588 0 01-3.382 1.601 4.796 4.796 0 00-2.233 1.047c-1.203 1.016-1.819 2.496-1.689 3.947.113 1.252.148 2.745.039 4.115a6.38 6.38 0 001.864 5.031c1.002.994 2.245 1.632 3.553 1.794a7.457 7.457 0 014.351 2.128 7.433 7.433 0 010 10.551c-2.926 2.914-7.675 2.914-10.604 0a7.407 7.407 0 01-2.154-4.51 6.367 6.367 0 00-1.413-2.981c-1.366-1.603-3.359-2.426-5.312-2.25a10.727 10.727 0 01-7.895-2.497c-.783-.651-2.349-.573-3.286-.127-.678.321-1.216.827-1.529 1.447a3.979 3.979 0 01-7.128-.078c-.189-.449-.26-.567-.349-1.137-.034-.222-.02-.449-.031-.673v-.124c.124-1.49.952-2.635 2.251-3.335a3.98 3.98 0 012.645-.273c.57.09 1.167.04 1.744-.177 1.002-.378 2.133-.916 1.995-2.386-.367-3.126.727-6.306 3.05-8.793.899-.965.6-1.679.254-2.277a2.177 2.177 0 00-1.053-.941 2.63 2.63 0 01-1.295-1.128 2.642 2.642 0 01.972-3.62 2.669 2.669 0 013.638.968c.319.549.416 1.163.322 1.744-.03.384.034.779.21 1.152.321.675.802 1.242 2.273 1.1 2.682-.257 3.054-.284 5.568.061 1.344.185 2.737-.355 3.773-1.384.745-.744 1.223-1.669 1.346-2.638a5.51 5.51 0 011.594-3.232 5.642 5.642 0 013.419-1.607c.355-.034.715 0 1.072 0zm-13.985 12.04c-2.214-.144-4.189.558-5.79 2.078a7.212 7.212 0 0010.199 10.198 7.214 7.214 0 00-.001-10.198c-.935-.905-2.1-1.623-3.383-1.905-.338-.074-.683-.115-1.025-.173z" fill="#EDA02F"/><path d="M83.98 92.828h-7.438c-.886 0-1.651.322-2.291.961a3.169 3.169 0 00-.96 2.318v4.351c0 .903.32 1.678.96 2.319.64.639 1.405.961 2.291.961h6.049v-1.534h-4.558c-.394 0-.829-.135-1.098-.406a1.368 1.368 0 01-.407-1.001v-5.028c0-.393.137-.727.407-1 .269-.272.601-.407.994-.407h4.688c.377 0 .7.135.97.407.27.273.404.607.404 1v7.969h3.24v-7.631c0-.902-.316-1.675-.948-2.318a3.118 3.118 0 00-2.303-.961m31.555 0h-7.439c-.886 0-1.649.322-2.29.961a3.166 3.166 0 00-.961 2.318v4.351c0 .903.32 1.678.961 2.319.641.639 1.404.961 2.29.961h6.05v-1.534h-4.663c-.393 0-.724-.135-.994-.406a1.367 1.367 0 01-.405-1.001v-5.028c0-.393.135-.727.405-1 .27-.272.601-.407.994-.407h4.69c.376 0 .699.135.968.407.27.273.404.607.404 1v7.969h3.241v-7.631c0-.902-.318-1.675-.949-2.318a3.12 3.12 0 00-2.302-.961m29.845 7.704h-.986c-.316 0-.579.11-.792.331a1.1 1.1 0 00-.322.797v.948c0 .311.106.577.322.796.213.223.476.331.792.331h.986c.313 0 .581-.108.802-.331.224-.219.336-.485.336-.796v-.948c0-.31-.112-.575-.336-.797a1.093 1.093 0 00-.802-.331m0-11.341h-1.033c-.313 0-.577.111-.791.332-.214.222-.276.488-.276.798v8.1c0 .31.106.576.322.797.213.221.476.332.792.332h.986c.313 0 .581-.111.802-.332a1.08 1.08 0 00.336-.797v-8.1c0-.31-.112-.576-.336-.798a1.092 1.092 0 00-.802-.332m-43.673 3.637L96.7 99.984l-.824 1.181c-.622.979-1.29 1.469-2.007 1.469-.383 0-.704-.14-.967-.417a1.368 1.368 0 01-.394-.978v-5.133h-.001v-2.149c0-.311-.111-.576-.335-.798a1.097 1.097 0 00-.802-.331h-.988a1.06 1.06 0 00-.79.331 1.104 1.104 0 00-.322.798v6.523c0 .899.32 1.667.955 2.303.638.637 1.396.955 2.277.955h1.689c1.207 0 2.023-.074 2.448-.225.863-.299 1.695-1.047 2.497-2.245l5.849-8.44h-3.278m38.608 9.377c-.394 0-.724-.136-.995-.407a1.361 1.361 0 01-.403-1.001l-.001-5.04c0-.374.095-.699.365-.979.273-.278.597-.42.977-.42h1.362v-1.53h-2.745c-1.258 0-2.167.756-2.586 1.189a3.1 3.1 0 01.169-.288s.926-1.505 2.459-1.699v-.964h-.003v-.745c0-.31-.112-.576-.334-.798a1.101 1.101 0 00-.803-.332h-1.033c-.316 0-.578.111-.792.332-.215.222-.275.488-.275.798v10.424h.013c.061.781.375 1.46.947 2.032.64.64 1.405.961 2.291.961h3.042v-1.533h-1.655m-16.624-9.356c-.919 0-1.692.283-2.314.852-.624.57-.934 1.293-.934 2.17 0 .862.305 1.85.922 2.411.613.561 1.39.841 2.324.841h5.724c.393 0 .724.132.994.402.27.269.404.6.404.991v.345c0 .373-.134.694-.404.964a1.361 1.361 0 01-.996.402h-4.334c-.394 0-.726-.139-.997-.411a1.36 1.36 0 01-.403-1v-.342h-3.24c0 .906.319 1.68.959 2.321.641.641 1.406.943 2.292.943h7.115c.918 0 1.692-.283 2.313-.854.626-.569.935-1.292.935-2.17 0-.86-.307-1.706-.922-2.267-.614-.56-1.388-.84-2.324-.84h-5.725c-.391 0-.722-.134-.993-.402a1.343 1.343 0 01-.404-.99v-.489c0-.374.134-.697.405-.965.27-.269.601-.403.995-.403h4.328c.394 0 .725.12.996.393.27.271.404.604.404 1v.339h3.24c0-.906-.318-1.679-.959-2.321-.641-.639-1.407-.941-2.293-.941l-7.108.021m25.291-4.185h-.186v-.497a.958.958 0 01.218-.021c.247 0 .362.106.362.265 0 .179-.178.253-.394.253m.465.127v-.022c.197-.063.351-.199.351-.411a.442.442 0 00-.175-.37c-.115-.084-.26-.138-.577-.138-.281 0-.497.033-.652.054v1.733h.393v-.687h.185c.216 0 .321.084.352.264.052.211.081.359.135.423h.411a1.59 1.59 0 01-.122-.423c-.053-.233-.137-.37-.301-.423" fill="#43545A"/><path d="M149.065 90.122c-.755 0-1.322-.613-1.322-1.385 0-.761.567-1.383 1.303-1.383h.01c.742 0 1.301.622 1.301 1.395 0 .76-.559 1.384-1.292 1.373m.002-3.147h-.011c-.988 0-1.776.774-1.776 1.762 0 .99.788 1.773 1.776 1.773.987 0 1.762-.783 1.762-1.773 0-.988-.775-1.762-1.751-1.762m-92.289 6.827a4.49 4.49 0 00-2.053 8.482 2.244 2.244 0 003.329-1.748h-1.276a2.245 2.245 0 112.245-2.245v3.828a2.245 2.245 0 002.246-2.244v-1.584a4.49 4.49 0 00-4.491-4.489m58.543 21.495c.133.222.281.332.443.332.297 0 .624-.136.984-.408.36-.272.673-.656.939-1.15.265-.492.398-.902.398-1.229 0-.312-.049-.468-.145-.468-.5 0-1.062.367-1.685 1.097-.622.731-.934 1.34-.934 1.826m-.557-3.348c.305-1.807.526-2.877.659-3.211.135-.333.367-.501.699-.501.258 0 .387.229.387.685 0 .311-.129.957-.387 1.939a31.902 31.902 0 00-.489 2.198c.39-.519.815-.94 1.276-1.26.46-.32.871-.482 1.233-.482.296 0 .542.127.737.381.198.252.296.552.296.893 0 .969-.371 1.88-1.115 2.731-.744.852-1.534 1.279-2.371 1.279-.251 0-.486-.068-.703-.205-.216-.138-.339-.313-.367-.527-.013-.115-.036-.193-.072-.231a2.824 2.824 0 01-.106-.122c-.093-.096-.138-.226-.138-.396 0-.197.048-.601.146-1.217l.315-1.954m6.189 2.122a2.84 2.84 0 001.314-.636c.379-.322.568-.616.568-.881a.393.393 0 00-.087-.262.277.277 0 00-.224-.106c-.274 0-.577.201-.91.603a3.157 3.157 0 00-.661 1.282m3.166.835c0 .327-.276.719-.827 1.173a2.85 2.85 0 01-1.863.682c-.53 0-.948-.168-1.254-.503-.304-.334-.458-.801-.458-1.397 0-.882.313-1.707.935-2.477.622-.771 1.287-1.156 1.995-1.156.352 0 .635.112.849.334.213.224.32.49.32.799 0 .547-.263 1.068-.787 1.562-.525.497-1.199.838-2.02 1.026-.094.022-.141.08-.141.169 0 .152.067.297.201.433a.714.714 0 00.535.206c.632 0 1.259-.327 1.882-.976.12-.126.236-.19.349-.19.189 0 .284.106.284.315m5.937-.776l-.08.843a8.7 8.7 0 00-.036.802c0 .239.021.516.065.83a.503.503 0 01-.236.283.735.735 0 01-.397.118c-.431 0-.645-.273-.645-.821 0-.243.066-.821.202-1.735.094-.657.141-1.146.141-1.468 0-.017-.018-.04-.055-.066-.218-.136-.326-.269-.326-.395 0-.165.121-.342.363-.534a.565.565 0 00.214-.318c.026-.121.065-.313.116-.573.17-1.002.434-1.716.79-2.139.357-.424.81-.634 1.36-.634.321 0 .593.104.814.313.222.209.333.469.333.777 0 .276-.065.563-.192.86-.127.297-.295.446-.503.446a.32.32 0 01-.229-.088.293.293 0 01-.096-.228l.029-.412c0-.49-.102-.733-.307-.733-.253 0-.493.319-.715.959-.221.64-.331 1.184-.331 1.634 0 .047.029.071.09.071.649 0 1.11-.004 1.379-.01.269-.006.404.098.404.311 0 .209-.163.362-.489.46a3.43 3.43 0 01-1.025.149c-.243.021-.4.043-.472.06-.076.467-.131.877-.166 1.232v.006m3.467.061l.08-.153c.381-.763.791-1.383 1.23-1.859.438-.476.866-.715 1.285-.715.319 0 .582.088.785.265a.803.803 0 01.304.627.71.71 0 01-.103.388.326.326 0 01-.288.163.737.737 0 01-.533-.241c-.115-.103-.204-.156-.27-.156-.235 0-.63.367-1.183 1.1a5.038 5.038 0 00-.999 2.471c-.035.264-.112.45-.232.556-.12.104-.282.157-.486.157-.218 0-.371-.124-.464-.371-.089-.246-.135-.65-.135-1.21a18.594 18.594 0 01.127-2.278c.016-.138.028-.246.033-.325.029-.308.06-.521.096-.634a.682.682 0 01.253-.323.71.71 0 01.439-.152c.17 0 .299.051.386.147a.465.465 0 01.133.32c0 .149-.07.455-.213.921-.049.16-.091.351-.127.575l-.118.727m4.825-.12a2.835 2.835 0 001.314-.636c.379-.322.568-.616.568-.881a.398.398 0 00-.087-.262.276.276 0 00-.224-.106c-.273 0-.576.201-.91.603a3.157 3.157 0 00-.661 1.282m3.166.835c0 .327-.275.719-.826 1.173a2.854 2.854 0 01-1.863.682c-.531 0-.95-.168-1.255-.503-.304-.334-.458-.801-.458-1.397 0-.882.313-1.707.935-2.477.622-.771 1.288-1.156 1.995-1.156.351 0 .635.112.849.334.213.224.32.49.32.799 0 .547-.263 1.068-.787 1.562-.525.497-1.199.838-2.02 1.026-.093.022-.141.08-.141.169 0 .152.067.297.201.433a.713.713 0 00.535.206c.632 0 1.259-.327 1.882-.976.12-.126.236-.19.349-.19.189 0 .284.106.284.315m1.838-.835a2.835 2.835 0 001.314-.636c.379-.322.567-.616.567-.881a.397.397 0 00-.085-.262.28.28 0 00-.225-.106c-.272 0-.577.201-.91.603a3.157 3.157 0 00-.661 1.282m3.165.835c0 .327-.275.719-.824 1.173a2.856 2.856 0 01-1.863.682c-.532 0-.951-.168-1.255-.503-.307-.334-.458-.801-.458-1.397 0-.882.311-1.707.933-2.477.623-.771 1.288-1.156 1.996-1.156.351 0 .635.112.848.334.215.224.322.49.322.799 0 .547-.264 1.068-.789 1.562-.523.497-1.198.838-2.018 1.026-.094.022-.141.08-.141.169 0 .152.067.297.2.433a.714.714 0 00.535.206c.633 0 1.26-.327 1.882-.976.121-.126.236-.19.35-.19.188 0 .282.106.282.315" fill="#43545A"/></svg>