<svg xmlns="http://www.w3.org/2000/svg" width="200" height="200"><path fill="none" d="M0 0h200v200H0z"/><path d="M55.11 107.857a4.574 4.574 0 00-6.473-.283l-9.899 9.063a6.973 6.973 0 01-5.11 1.863 7.03 7.03 0 01-4.924-2.296c-2.646-2.884-2.452-7.394.437-10.034l3.677-3.372 3.069 3.354a4.583 4.583 0 006.758-6.195l-3.067-3.341 2.548-2.35c5.139-4.702 5.49-12.705.781-17.848-4.7-5.134-12.707-5.485-17.846-.776-5.132 4.71-5.485 12.709-.777 17.852l2.343 2.55-3.679 3.366c-6.611 6.057-7.064 16.37-1 22.985a16.178 16.178 0 0011.28 5.266c.49.016.965.016 1.447 0a16.202 16.202 0 0010.256-4.258l9.898-9.073a4.579 4.579 0 00.281-6.473M31.254 82.398a3.461 3.461 0 012.187-.906 3.456 3.456 0 012.71 1.121 3.462 3.462 0 01-.215 4.895l-2.565 2.333-2.332-2.546a3.474 3.474 0 01.215-4.897" fill="#E85323"/><path d="M72.212 91.489c-2.644 0-3.765 1.728-3.765 4.341v.576h7.496v-.609c0-2.613-.951-4.308-3.731-4.308m6.613 6.104c0 .713-.51 1.154-1.119 1.154h-9.259v.916c0 2.679 1.187 4.442 3.899 4.442 1.459 0 2.375-.239 3.019-.475.781-.273 1.187-.613 1.73-.613.679 0 1.121.51 1.121 1.222 0 .68-.715 1.254-1.732 1.662-1.186.476-2.814.713-4.306.713-4.885 0-6.681-3.324-6.681-7.191v-3.152c0-3.833 1.933-7.191 6.681-7.191 4.917 0 6.647 3.187 6.647 7.191zm11.413 8.817h-1.017c-4.678 0-5.901-2.915-5.901-7.359v-7.223h-.984c-.712 0-1.288-.578-1.288-1.255 0-.713.576-1.289 1.288-1.289h.984v-3.493c0-.814.645-1.491 1.492-1.491.814 0 1.459.677 1.459 1.491v3.493h3.153a1.29 1.29 0 011.291 1.289c0 .677-.578 1.255-1.291 1.255h-3.153l.035 7.19c0 3.389.543 4.68 3.221 4.68h.711c.746 0 1.324.611 1.324 1.355 0 .746-.578 1.357-1.324 1.357m16.183.204a1.486 1.486 0 01-1.496-1.494v-9.563c0-2.136-.572-3.661-3.185-3.661-1.935 0-3.325.847-4.139 2.136v11.088c0 .849-.644 1.494-1.458 1.494a1.484 1.484 0 01-1.492-1.494V93.692c0-1.355-.408-1.763-1.053-2.136a1.066 1.066 0 01-.576-.982c0-.883.612-1.291 1.459-1.291.543 0 1.289.272 1.831.713.34.34.61.713.746 1.119 1.187-1.289 2.917-2.035 5.329-2.035 4.27 0 5.525 2.646 5.525 6.207l.033 9.833c0 .849-.677 1.494-1.524 1.494m12.188-15.125c-2.644 0-3.765 1.728-3.765 4.341v.576h7.494v-.609c0-2.613-.949-4.308-3.729-4.308m6.613 6.104c0 .713-.508 1.154-1.119 1.154h-9.259v.916c0 2.679 1.187 4.442 3.901 4.442 1.457 0 2.372-.239 3.017-.475.783-.273 1.187-.613 1.732-.613.675 0 1.117.51 1.117 1.222 0 .68-.713 1.254-1.728 1.662-1.19.476-2.818.713-4.31.713-4.881 0-6.679-3.324-6.679-7.191v-3.152c0-3.833 1.933-7.191 6.679-7.191 4.921 0 6.649 3.187 6.649 7.191zm11.413 8.817h-1.017c-4.681 0-5.901-2.915-5.901-7.359v-7.223h-.984c-.713 0-1.289-.578-1.289-1.255 0-.713.576-1.289 1.289-1.289h.984v-3.493c0-.814.644-1.491 1.492-1.491.812 0 1.46.677 1.46 1.491v3.493h3.154a1.29 1.29 0 011.288 1.289c0 .677-.58 1.255-1.288 1.255h-3.154l.034 7.19c0 3.389.542 4.68 3.219 4.68h.713c.744 0 1.324.611 1.324 1.355 0 .746-.58 1.357-1.324 1.357m9.602-14.921c-2.645 0-3.768 1.728-3.768 4.341v.576h7.498v-.609c0-2.613-.949-4.308-3.73-4.308m6.614 6.104c0 .713-.512 1.154-1.121 1.154h-9.261v.916c0 2.679 1.191 4.442 3.901 4.442 1.457 0 2.372-.239 3.021-.475.779-.273 1.187-.613 1.728-.613.679 0 1.12.51 1.12 1.222 0 .68-.712 1.254-1.73 1.662-1.187.476-2.815.713-4.307.713-4.885 0-6.679-3.324-6.679-7.191v-3.152c0-3.833 1.933-7.191 6.679-7.191 4.917 0 6.649 3.187 6.649 7.191zm13.015-5.392c-.576 0-.881-.239-2.068-.239-1.425 0-3.222.442-3.798 3.054v10.104c0 .85-.644 1.494-1.456 1.494a1.486 1.486 0 01-1.496-1.494V93.692c0-1.355-.408-1.763-1.052-2.136a1.071 1.071 0 01-.576-.982c0-.816.542-1.29 1.495-1.29 1.285 0 2.304 1.05 2.712 2.102 1.457-2.034 3.458-2.272 4.679-2.272 1.392 0 2.985.441 2.985 1.595 0 .814-.51 1.492-1.425 1.492m11.978 6.546h-3.562c-2.848 0-3.596 1.252-3.596 2.644v.238c0 1.459.816 2.679 3.493 2.679 2.273 0 3.665-1.154 3.665-3.563zm2.981 7.867c-.541 0-1.082-.17-1.525-.51-.369-.304-.712-.745-.88-1.222-1.256 1.392-3.257 1.732-4.749 1.732-4.17 0-5.937-2.204-5.937-5.02v-.238c0-2.814 1.936-4.917 6.277-4.917h3.833v-.847c0-2.679-.645-4.036-3.493-4.036-1.189 0-1.969.17-2.613.441-.748.305-1.121.576-1.593.576-.715 0-1.22-.542-1.22-1.187 0-.71.677-1.255 1.628-1.628 1.22-.508 2.71-.678 3.999-.678 4.817 0 6.244 2.342 6.244 6.782v6.341c0 1.357.304 1.763.945 2.105.375.236.58.574.58 1.017 0 .881-.611 1.289-1.496 1.289" fill="#2B2B2A"/></svg>