<svg xmlns="http://www.w3.org/2000/svg" width="200" height="200"><path fill="#FFF" d="M0 0h200v200H0z"/><path d="M75.81 82H46.65c-1.58 0-2.87 1.29-2.87 2.87v29.27c0 1.57 1.29 2.86 2.87 2.86h29.27c1.58 0 2.87-1.29 2.87-2.87V84.87C78.68 83.29 77.4 82 75.81 82m21.85 13.15v-3.26h-9.59v14.93h4.05v-5.64h5.24v-3.26h-5.24v-2.77h5.54zm6.63 11.96c3.06 0 5.83-1.88 5.83-5.83 0-3.26-2.27-5.54-5.64-5.54-3.76 0-6.03 2.27-6.03 5.73.1 3.57 2.58 5.64 5.84 5.64zm.1-2.86c-1.19 0-1.78-1.29-1.78-2.87 0-1.48.4-2.87 1.78-2.87 1.19 0 1.68 1.38 1.68 2.87 0 1.78-.6 2.87-1.68 2.87zm13.74-8.51c-.99 0-2.37.59-2.87 2.18h-.1l-.2-1.98h-3.36c.1.89.1 1.98.1 3.66v7.22h4.05v-6.03c.2-.89.99-1.38 2.18-1.38.4 0 .69 0 .99.1v-3.76c-.3-.01-.49-.01-.79-.01m8.4 0c-.99 0-2.37.59-2.87 2.18h-.1l-.2-1.98h-3.46c.1.89.1 1.98.1 3.66v7.22h4.05v-6.03c.2-.89.99-1.38 2.18-1.38.4 0 .69 0 .99.1v-3.76c-.19-.01-.39-.01-.69-.01m11.77 7.02c.1-.3.2-.89.2-1.48 0-2.97-1.48-5.54-5.04-5.54-4.05 0-5.64 3.26-5.64 5.83 0 3.46 2.18 5.54 6.03 5.54 1.38 0 2.77-.2 4.05-.69l-.49-2.67c-.99.3-1.98.4-2.97.4-1.38 0-2.67-.49-2.77-1.38h6.63zm-6.72-2.67c.1-.69.49-1.78 1.68-1.78 1.29 0 1.58 1.19 1.58 1.78h-3.26zm13.44 0c-1.29-.4-1.68-.59-1.68-.99s.4-.59 1.09-.59c.89 0 1.88.4 2.37.59l.59-2.67c-.69-.3-1.88-.59-3.26-.59-2.87 0-4.75 1.58-4.75 3.76 0 1.29.79 2.57 3.16 3.36 1.19.4 1.38.49 1.38.89s-.3.59-1.19.59c-.99 0-2.37-.4-2.97-.79l-.69 2.77c.89.4 2.18.79 3.76.79 3.36 0 4.94-1.58 4.94-3.66.22-1.68-.67-2.86-2.75-3.46M156 98.91v-2.97h-2.27v-3.06l-3.86 1.09v2.08h-1.38v2.97h1.38v3.86c0 1.68.4 2.77.99 3.36.59.59 1.58.99 2.77.99.99 0 1.88-.1 2.37-.3v-3.16c-.3.1-.49.1-.99.1-.99 0-1.29-.49-1.29-1.78v-3.16H156z" fill="#F02828"/><path d="M67.11 97.72v3.56h2.27v2.97c-.2.1-.79.2-1.48.2-2.18 0-4.05-1.88-4.05-5.04 0-3.46 2.47-4.94 4.35-4.94 1.88 0 3.06.3 4.05.69l.89-3.66c-.89-.4-2.67-.79-4.94-.79-5.54 0-9.1 3.06-9.1 9 0 2.47.79 4.65 2.47 6.13 1.58 1.48 2.97 2.27 6.23 2.27 2.27 0 4.65-.49 5.93-.99v-9.39c.01-.01-6.62-.01-6.62-.01zm-9.78 2.18v-.5c0-.59 0-1.19.1-1.78h-3.46v-3.16h4.25c.4-.89.89-1.68 1.48-2.37V90.7H49.42v17.1h4.55v-6.53h3.46c-.1-.39-.1-.88-.1-1.37" fill="#FFF"/></svg>