<svg xmlns="http://www.w3.org/2000/svg" width="200" height="200"><linearGradient id="a" gradientUnits="userSpaceOnUse" x1="95.202" y1="672.633" x2="165.646" y2="773.236" gradientTransform="translate(-40.772 -679.084) scale(1.0773)"><stop offset=".243" stop-color="#f19303"/><stop offset=".283" stop-color="#e98c06"/><stop offset="1" stop-color="#601334"/></linearGradient><path fill="url(#a)" d="M88.797 101.323h-8.931v27.207h3.792v-10.762h5.139c2.541 0 4.534-.753 5.979-2.257s2.167-3.493 2.167-5.967c0-2.46-.723-4.445-2.167-5.955-1.444-1.511-3.438-2.266-5.979-2.266zm3.252 12.056c-.735 1.008-1.819 1.511-3.252 1.511h-5.139v-10.688h5.139c1.445 0 2.531.509 3.261 1.527.728 1.02 1.092 2.304 1.092 3.854.001 1.524-.366 2.79-1.101 3.796zm13.612 3.415h5.14c1.207 0 2.157.444 2.85 1.329.69.887 1.036 2.091 1.036 3.612v2.302c0 .924.059 1.801.178 2.63.119.831.389 1.45.813 1.863h3.904v-.43c-.411-.41-.7-.975-.867-1.69a10.145 10.145 0 01-.253-2.328v-2.376c0-1.619-.302-2.98-.908-4.083-.604-1.104-1.584-1.886-2.942-2.348 1.233-.599 2.178-1.426 2.832-2.485.654-1.057.981-2.297.981-3.717 0-2.49-.704-4.399-2.111-5.731-1.41-1.333-3.401-1.999-5.98-1.999h-8.464v27.188h3.791v-11.737zm0-12.574h4.673c1.443 0 2.521.43 3.231 1.291.711.862 1.066 2.072 1.066 3.632 0 1.523-.364 2.7-1.094 3.528-.729.832-1.858 1.246-3.391 1.246h-4.486v-9.697h.001zm11.137-11.77c1.824-2.167 2.738-4.97 2.738-8.407v-3.868c0-3.426-.914-6.229-2.738-8.41-1.824-2.179-4.182-3.269-7.072-3.269h-7.476v27.206h7.476c2.89 0 5.248-1.084 7.072-3.252zm-10.752.374V71.373h3.549c1.906 0 3.411.813 4.513 2.442s1.652 3.729 1.652 6.298v3.913c0 2.597-.551 4.711-1.652 6.346-1.104 1.635-2.606 2.452-4.513 2.452h-3.549zm-24.292.673c-1.745-1.732-2.616-4.199-2.616-7.4v-8.072c0-3.153.827-5.593 2.484-7.325 1.657-1.732 3.856-2.598 6.597-2.598 2.778 0 4.902.701 6.373 2.103 1.469 1.4 2.254 3.367 2.354 5.895l-.038.112h-3.587c-.063-1.705-.508-3.005-1.336-3.896-.83-.89-2.065-1.336-3.711-1.336-1.656 0-2.963.595-3.924 1.789-.959 1.191-1.439 2.922-1.439 5.193v8.123c0 2.321.514 4.089 1.542 5.306 1.028 1.216 2.426 1.825 4.195 1.825 1.296 0 2.301-.221 3.018-.664.716-.442 1.249-1.005 1.597-1.69v-6.186h-4.652v-2.747h8.446v9.903c-.624 1.096-1.635 2.08-3.037 2.952-1.401.873-3.192 1.308-5.372 1.308-2.854 0-5.152-.864-6.897-2.596l.003.001zm65.479 53.736v-95h-95v95h95zM53.744 53.744h91.978v91.978H53.744V53.744z"/></svg>