<svg xmlns="http://www.w3.org/2000/svg" width="200" height="200"><path d="M42.507 121.534c-11.871 0-21.535-9.604-21.535-21.534 0-11.872 9.664-21.534 21.535-21.534 11.869 0 21.533 9.662 21.533 21.534 0 11.93-9.664 21.534-21.533 21.534m0-42.054c-11.333 0-20.521 9.186-20.521 20.52 0 11.333 9.188 20.519 20.521 20.519 11.334 0 20.519-9.186 20.519-20.519 0-11.273-9.185-20.52-20.519-20.52m18.247 26.659c-.008.018-.043.044-.109.021-.05-.018-.068-.043-.064-.077.003-.033.722-2.156.715-4.591-.007-2.626-1.075-4.238-2.443-4.238-.837 0-1.433.599-1.433 1.493 0 1.612 1.967 1.731 1.967 5.25 0 1.432-.297 2.803-.776 4.294-2.205 7.456-9.244 10.917-16.104 10.917-3.162 0-5.409-.651-6.078-.951-.029-.014-.051-.064-.029-.122.016-.037.061-.069.088-.059.27.109 2.2.714 4.587.714 2.624 0 4.175-1.074 4.175-2.385 0-.835-.655-1.492-1.49-1.492-1.612 0-1.732 2.027-5.191 2.027-1.492 0-2.803-.299-4.354-.774-7.398-2.269-10.922-9.247-10.916-16.166.002-3.372.946-6.054.962-6.079.01-.02.055-.037.107-.02.053.02.067.062.063.078-.088.28-.714 2.203-.714 4.588 0 2.627 1.073 4.178 2.444 4.178.776 0 1.434-.596 1.434-1.433 0-1.61-1.97-1.789-1.97-5.251 0-1.49.298-2.804.775-4.353 2.268-7.396 9.248-10.864 16.107-10.916 3.188-.025 5.978.93 6.085 1.014.018.016.039.058.018.107-.023.055-.06.063-.08.059-.034-.004-1.848-.761-4.593-.761-2.564-.002-4.174 1.073-4.174 2.443 0 .777.595 1.432 1.489 1.432 1.613 0 1.733-1.968 5.191-1.968 1.491 0 2.803.298 4.354.775 7.457 2.269 10.852 9.306 10.915 16.107.034 3.483-.947 6.117-.958 6.139m-10.255-5.124c-2.028 0-3.578 1.489-3.578 3.281 0 1.491.894 2.684 2.087 2.684.418 0 .836-.239.836-.776 0-.775-1.028-.964-.95-2.124.052-.764.772-1.277 1.486-1.277 1.431 0 2.101 1.388 2.101 2.819-.059 2.207-1.684 3.743-3.592 3.743-2.505 0-4.114-2.385-4.114-4.951 0-3.817 2.502-5.31 3.817-5.667.012 0 3.43.61 3.323-.897-.048-.661-1.032-.916-1.747-.945-.792-.033-1.59.255-1.59.255-.416-.211-.703-.621-.882-1.099 2.446-1.848 4.175-3.639 4.175-5.664 0-1.074-.716-2.03-2.088-2.03-2.445 0-4.295 3.102-4.295 5.904 0 .478 0 .957.122 1.373-1.552 1.133-2.706 1.837-4.793 3.09 0-.263.054-.934.229-1.807.715-.776 1.699-1.939 1.699-2.831 0-.418-.238-.78-.717-.78-1.192 0-2.086 1.79-2.326 3.043-.537.658-1.61 1.494-2.505 1.494-.716 0-.953-.657-1.015-.896 2.267-.777 5.07-3.878 5.07-6.679 0-.596-.236-1.911-2.027-1.911-2.684 0-4.951 3.997-4.951 7.099-.953 0-1.311-1.014-1.311-1.788 0-.777.297-1.554.297-1.792s-.119-.535-.477-.535c-.896 0-1.431 1.191-1.431 2.563.06 1.909 1.313 3.103 2.982 3.222.239 1.132 1.252 2.207 2.505 2.207.776 0 1.73-.239 2.386-.837-.06.419-.119.778-.179 1.138-2.625 1.371-4.532 2.326-6.263 3.875-1.371 1.254-2.147 2.925-2.147 4.233 0 1.792 1.134 3.461 3.46 3.461 2.743 0 4.831-2.206 5.846-5.249.477-1.431.668-3.514.788-5.423 2.743-1.553 4.045-2.452 5.474-3.464.18.297.36.536.598.715-1.253.657-4.235 2.506-4.235 6.861 0 3.099 2.087 6.56 6.202 6.56 3.402 0 5.728-2.802 5.728-5.485 0-2.446-1.372-4.713-3.998-4.713m-16.403 8.35c-.894.04-1.492-.53-1.492-1.486 0-2.563 3.557-5.013 6.24-6.325-.476 3.579-1.685 7.671-4.748 7.811m1.968-14.079c0-1.97 1.942-5.711 3.13-5.313 1.401.466-1.162 4.24-3.13 5.313m11.274-.892c0-2.448 1.656-4.825 2.561-4.374 1.03.515-.771 2.821-2.561 4.374m49.579-.359c0 .7-.181 1.152-.7 1.49-1.084.7-2.665 1.13-4.313 1.13-4.359 0-6.82-3.23-6.82-7.815 0-5.69 3.794-7.994 7.023-7.994 1.965 0 3.252.656 4.155 1.287.248.181.361.362.361.611 0 .338-.316.744-.7.744-.225 0-.338-.112-.609-.293-1.017-.677-2.055-1.016-3.253-1.016-2.845 0-5.555 2.145-5.555 6.661 0 3.863 2.01 6.482 5.465 6.482a7.094 7.094 0 003.162-.723c.272-.135.362-.315.362-.767v-4.043h-3.41c-.453 0-.701-.225-.701-.699 0-.453.248-.7.701-.7h4.154c.452 0 .678.247.678.7zm11.449 2.394h-6.211c-.947 0-1.512-.543-1.512-1.49V82.788c0-1.016.497-1.716 1.648-1.716h6.075c.474 0 .722.226.722.7s-.226.701-.722.701h-5.917c-.226 0-.384.18-.384.429v4.832h5.578c.451 0 .7.248.7.723 0 .452-.249.677-.7.677h-5.578v5.555c0 .204.09.34.294.34h6.007c.496 0 .722.203.722.677 0 .474-.248.723-.722.723m21.385.067c-.406 0-.632-.226-.632-.7v-13.21l-4.426 8.219c-.203.384-.452.588-.835.588-.475 0-.678-.226-.859-.565 0 0-3.703-6.775-4.403-8.242v13.21c0 .474-.226.7-.655.7-.475 0-.678-.226-.678-.7V82.224c0-.678.452-1.219 1.152-1.219.497 0 .859.203 1.084.609l4.359 8.085 4.358-8.085c.225-.406.588-.609 1.084-.609.7 0 1.152.541 1.152 1.219v13.572c0 .474-.226.7-.701.7m11.291-9.439c-.632-.655-1.512-1.039-2.506-1.039-.971 0-1.852.384-2.485 1.039-.79.813-1.152 2.009-1.152 3.613 0 1.535.34 2.688 1.13 3.523a3.387 3.387 0 002.507 1.129c.971 0 1.874-.429 2.529-1.129.768-.835 1.128-1.988 1.128-3.523 0-1.604-.383-2.8-1.151-3.613m.994 8.13c-.926.993-2.123 1.467-3.5 1.467-1.356 0-2.552-.474-3.478-1.467-1.039-1.084-1.559-2.597-1.559-4.517 0-1.987.543-3.568 1.604-4.63.926-.903 2.101-1.355 3.433-1.355 1.355 0 2.529.452 3.432 1.355 1.084 1.062 1.626 2.643 1.626 4.63 0 1.92-.519 3.433-1.558 4.517m12.556 1.309c-.475 0-.723-.226-.723-.7v-6.639c0-1.378-.429-3.139-2.733-3.139-1.92 0-3.455 1.4-3.455 4.02v5.758c0 .474-.226.7-.7.7s-.701-.226-.701-.7V85.543c0-.45.227-.699.701-.699s.7.249.7.699v1.198c.632-1.13 1.919-2.056 3.636-2.056 2.913 0 3.952 1.942 3.952 4.088v7.023c0 .474-.204.7-.677.7m8.354-10.478c-2.213 0-3.455 1.739-3.568 3.771h6.663c.022-1.987-.972-3.771-3.095-3.771m3.433 5.081h-7.046c0 2.53 1.604 4.223 3.749 4.223 1.151 0 2.1-.452 2.642-.791.249-.157.339-.226.52-.226.383 0 .632.407.632.724 0 .248-.135.361-.317.52-.655.518-1.806 1.106-3.499 1.106-3.298 0-5.15-2.44-5.15-5.872 0-3.229 1.694-6.097 5.081-6.097 2.823 0 4.45 2.077 4.45 5.127 0 .7-.295 1.286-1.062 1.286m12.649-5.668c0 .225-.068.497-.136.768-.903 3.364-2.597 7.295-4.313 10.117-1.513 2.574-3.138 4.2-3.884 4.561-.542.271-.926.339-1.265.339-.271 0-.565-.248-.565-.7 0-.271.068-.429.633-.565.949-.248 2.055-1.31 3.748-3.929-1.105-1.897-1.942-3.817-2.799-6.526-.407-1.311-.656-2.191-.904-3.365a5.184 5.184 0 01-.09-.632c0-.43.338-.678.79-.678.384 0 .565.181.633.565.225 1.197.473 2.258.812 3.364.701 2.282 1.582 4.608 2.326 6.053.814-1.469 1.785-3.614 2.575-5.85.406-1.151.791-2.438 1.038-3.59.068-.361.249-.542.611-.542.451 0 .79.203.79.61m-88.163 26.28h-3.342v5.668c0 .204.09.339.293.339h3.388c2.01 0 3.296-1.039 3.296-3.048 0-2.169-1.558-2.959-3.635-2.959m-.204-6.617h-2.755c-.225 0-.383.181-.383.43v4.787h3.409c1.649 0 2.914-.971 2.914-2.551 0-1.74-.859-2.666-3.185-2.666m.453 13.957h-3.501c-.948 0-1.513-.543-1.513-1.491v-12.149c0-1.017.497-1.716 1.648-1.716h2.981c2.71 0 4.539 1.038 4.539 3.975 0 1.399-.88 2.866-2.371 3.251 1.988.361 3.026 1.784 3.026 3.726 0 2.868-1.987 4.404-4.809 4.404m15.062-6.865c0-2.055-1.333-3.546-3.275-3.546-2.574 0-3.546 2.416-3.546 4.629 0 2.214.723 4.675 3.546 4.675 1.942 0 3.275-1.467 3.275-3.522zm.7 6.932c-.475 0-.7-.225-.7-.7v-1.084c-.497.881-1.558 1.943-3.478 1.943-3.343 0-4.743-2.846-4.743-6.008 0-3.117 1.445-5.962 4.901-5.962 1.762 0 2.8.904 3.32 1.784v-.948c0-.452.225-.678.7-.678.451 0 .7.226.7.678v10.275c0 .475-.249.7-.7.7m12.352 0c-.474 0-.722-.225-.722-.7v-6.639c0-1.377-.429-3.139-2.733-3.139-1.92 0-3.455 1.401-3.455 4.02v5.758c0 .475-.226.7-.701.7-.473 0-.7-.225-.7-.7v-10.252c0-.451.227-.701.7-.701.475 0 .701.25.701.701v1.196c.632-1.129 1.919-2.055 3.636-2.055 2.913 0 3.952 1.943 3.952 4.089v7.022c0 .475-.204.7-.678.7m5.374-6.413c2.145-1.513 3.795-3.206 4.991-4.9.158-.227.294-.362.565-.362.405 0 .722.294.722.587 0 .181-.09.384-.203.542-.904 1.31-2.055 2.507-3.523 3.794 1.829 1.649 3.456 3.975 4.201 5.442.18.362.202.497.202.678 0 .316-.316.655-.722.655-.339 0-.475-.18-.632-.474-.948-1.784-2.349-3.907-4.156-5.465-.361.271-1.038.768-1.445 1.039v4.155c0 .473-.225.722-.7.722-.474 0-.7-.249-.7-.722v-15.582c0-.452.226-.7.7-.7.475 0 .7.248.7.7z" fill="#4A88C6"/></svg>