<svg xmlns="http://www.w3.org/2000/svg" width="200" height="200"><defs><clipPath id="a"><path d="M100 49.001c21.431 0 38.805 17.372 38.804 38.804.001 21.431-17.373 38.805-38.804 38.804-21.431.001-38.804-17.373-38.804-38.804 0-21.432 17.373-38.804 38.804-38.804zm0 26.657c-6.707 0-12.147 5.438-12.147 12.147 0 6.708 5.44 12.146 12.147 12.146 6.708 0 12.146-5.438 12.146-12.146 0-6.709-5.438-12.147-12.146-12.147z"/></clipPath></defs><path d="M138.743 126.604c-6.865-.012-13.527-1.912-19.279-5.222 10.968-6.371 18.528-17.963 19.279-31.374v36.596m-36.767-26.812a38.962 38.962 0 01-1.867-11.817h38.634-26.598c-.082 5.959-4.456 10.882-10.169 11.817m36.767-11.817v-.095.095m-38.635 0v-.156l.001.156" fill="#464644"/><g clip-path="url(#a)"><path d="M72.587 115.27c-7-6.988-11.346-16.634-11.391-27.295h26.658a12.115 12.115 0 003.575 8.437L72.587 115.27" fill="#5F605C"/><path d="M100 126.609c-10.666 0-20.327-4.303-27.341-11.268l18.849-18.852A12.107 12.107 0 00100 99.952l.109-.001v26.658H100" fill="#20211F"/><path d="M72.659 115.342l-.072-.072 18.842-18.858.079.077-18.849 18.853" fill="#111210"/><path d="M91.311 79.318L72.46 60.467C79.49 53.385 89.233 49 99.999 49h.11v26.659l-.109-.001a12.109 12.109 0 00-8.689 3.66" fill="#161615"/><path d="M87.855 87.975h-26.66v-.17c0-10.658 4.297-20.313 11.253-27.326l18.789 18.915a12.105 12.105 0 00-3.382 8.581" fill="#464644"/><path d="M91.237 79.394L72.448 60.478c.005-.003.008-.007.012-.011l18.85 18.851-.073.076" fill="#0E0E0C"/><path d="M108.618 79.245a12.105 12.105 0 00-8.339-3.584v-26.66c10.62.075 20.225 4.417 27.189 11.394l-18.85 18.85" fill="#5F605C"/><path d="M100.279 75.661l-.17-.003V49.001h.17v26.66" fill="#0F0F0D"/><path d="M100.109 126.609V99.951a11.977 11.977 0 001.867-.16 38.523 38.523 0 009.455 15.457 38.7 38.7 0 008.032 6.135 38.63 38.63 0 01-19.354 5.226m38.634-36.601v-2.033h.061a39.12 39.12 0 01-.061 2.033" fill="#464644"/><path d="M119.464 121.382a38.611 38.611 0 01-8.033-6.135 38.522 38.522 0 01-9.455-15.455c5.714-.935 10.086-5.858 10.169-11.817h26.597v2.033c-.749 13.41-8.31 25.003-19.278 31.374" fill="#151614"/></g><g fill="#0A0B09"><path d="M78.947 145.18v4.817c-.952.577-2.512.897-3.698.897-3.31 0-5.23-2.36-5.23-5.134 0-2.897 2.113-5.134 5.093-5.134 1.794 0 2.883.485 3.642 1.271l-.938 1.007c-.8-.773-1.725-1.034-2.704-1.034-2.236 0-3.685 1.753-3.685 3.89 0 2.205 1.643 3.889 3.795 3.889.924 0 1.808-.177 2.4-.509v-2.719h-2.165v-1.241z"/><path d="M75.112 140.734c-2.888 0-4.987 2.114-4.987 5.026 0 2.958 2.108 5.025 5.125 5.025 1.039 0 2.594-.268 3.591-.851v-4.647h-3.279v1.029h2.166v2.886l-.053.03c-.596.335-1.49.526-2.453.526-2.223 0-3.901-1.719-3.901-3.998 0-2.318 1.594-3.998 3.791-3.998 1.087 0 1.971.324 2.7.992l.794-.857c-.808-.794-1.923-1.163-3.494-1.163m.138 10.265c-3.143 0-5.336-2.157-5.336-5.239 0-2.985 2.234-5.241 5.198-5.241 1.681 0 2.863.414 3.72 1.303l.069.072-1.08 1.161-.079-.074c-.701-.677-1.562-1.006-2.63-1.006-2.074 0-3.579 1.591-3.579 3.785 0 2.156 1.585 3.782 3.689 3.782.899 0 1.728-.167 2.295-.465v-2.55h-2.169v-1.456h3.705v4.986l-.048.03c-1.03.627-2.668.912-3.755.912m8.187-1.35c1.325 0 2.152-.949 2.152-2.276 0-1.323-.827-2.274-2.152-2.274-1.325 0-2.152.951-2.152 2.274 0 1.327.827 2.276 2.152 2.276m0-5.711c1.947 0 3.479 1.532 3.479 3.435 0 1.905-1.532 3.435-3.479 3.435-1.944 0-3.479-1.53-3.479-3.435 0-1.903 1.535-3.435 3.479-3.435"/><path d="M83.437 145.204c-1.223 0-2.046.872-2.046 2.169 0 1.297.823 2.17 2.046 2.17 1.223 0 2.047-.873 2.047-2.17s-.824-2.169-2.047-2.169m0 4.554c-1.349 0-2.26-.958-2.26-2.385 0-1.424.911-2.383 2.26-2.383 1.351 0 2.26.959 2.26 2.383 0 1.427-.909 2.385-2.26 2.385m0-5.714c-1.889 0-3.37 1.465-3.37 3.329 0 1.866 1.481 3.331 3.37 3.331 1.89 0 3.37-1.465 3.37-3.331 0-1.864-1.48-3.329-3.37-3.329m0 6.872c-2.01 0-3.582-1.557-3.582-3.543 0-1.986 1.572-3.542 3.582-3.542 2.012 0 3.582 1.556 3.582 3.542 0 1.986-1.57 3.543-3.582 3.543m7.66-1.267c1.325 0 2.152-.949 2.152-2.276 0-1.323-.827-2.274-2.152-2.274-1.327 0-2.152.951-2.152 2.274 0 1.327.825 2.276 2.152 2.276m0-5.711c1.945 0 3.477 1.532 3.477 3.435 0 1.905-1.532 3.435-3.477 3.435-1.946 0-3.476-1.53-3.476-3.435 0-1.903 1.53-3.435 3.476-3.435"/><path d="M91.097 145.204c-1.225 0-2.044.872-2.044 2.169 0 1.297.819 2.17 2.044 2.17 1.223 0 2.044-.873 2.044-2.17s-.821-2.169-2.044-2.169m0 4.554c-1.353 0-2.26-.958-2.26-2.385 0-1.424.907-2.383 2.26-2.383 1.352 0 2.258.959 2.258 2.383 0 1.427-.906 2.385-2.258 2.385m0-5.714c-1.888 0-3.37 1.465-3.37 3.329 0 1.866 1.482 3.331 3.37 3.331 1.89 0 3.372-1.465 3.372-3.331 0-1.864-1.482-3.329-3.372-3.329m0 6.872c-2.011 0-3.584-1.557-3.584-3.543 0-1.986 1.573-3.542 3.584-3.542 2.009 0 3.583 1.556 3.583 3.542 0 1.986-1.574 3.543-3.583 3.543m9.84-3.543c0-1.322-.827-2.274-2.153-2.274-1.323 0-2.15.952-2.15 2.274 0 1.327.827 2.277 2.15 2.277 1.326 0 2.153-.95 2.153-2.277m1.244 3.271h-1.244v-.937h-.028c-.48.703-1.392 1.101-2.276 1.101-2.026 0-3.322-1.503-3.322-3.435 0-1.959 1.309-3.435 3.322-3.435.94 0 1.834.428 2.276 1.106h.028v-4.329h1.244z"/><path d="M98.785 145.204c-1.223 0-2.046.872-2.046 2.169 0 1.297.823 2.17 2.046 2.17 1.226 0 2.045-.873 2.045-2.17s-.819-2.169-2.045-2.169m0 4.554c-1.35 0-2.257-.958-2.257-2.385 0-1.424.907-2.383 2.257-2.383 1.352 0 2.258.959 2.258 2.383 0 1.427-.906 2.385-2.258 2.385m-.153-5.714c-1.893 0-3.218 1.369-3.218 3.329 0 1.961 1.325 3.331 3.218 3.331.89 0 1.75-.415 2.19-1.058l.035-.045h.16l.026.106v.832h1.03v-9.719h-1.03v4.329h-.164l-.057-.05c-.419-.641-1.278-1.055-2.19-1.055m0 6.872c-2.016 0-3.429-1.458-3.429-3.543s1.413-3.542 3.429-3.542c.872 0 1.704.358 2.198.93v-4.152h1.457v10.142h-1.457v-.771c-.509.574-1.34.936-2.198.936m6.522-1.513h1.238c2.235 0 4.139-1.229 4.139-3.643 0-1.244-.648-3.716-3.821-3.716h-1.556zm-1.326-8.598h2.977c4.125 0 5.132 3.147 5.132 4.955 0 2.498-1.861 4.884-5.353 4.884h-2.756z"/><path d="M105.259 149.296h1.133c1.859 0 4.032-.925 4.032-3.536 0-.371-.103-3.61-3.714-3.61h-1.451zm1.133.212h-1.346v-7.57h1.664c3.818 0 3.926 3.431 3.926 3.822 0 2.59-2.128 3.748-4.244 3.748m-2.459 1.031h2.651c3.605 0 5.248-2.48 5.248-4.779 0-.498-.14-4.849-5.027-4.849h-2.872zm2.651.212h-2.861v-10.052h3.082c4.138 0 5.239 3.181 5.239 5.061 0 2.479-1.873 4.991-5.46 4.991m9.833-3.254c-1.176 0-2.611.207-2.611 1.259 0 .743.553 1.059 1.41 1.059 1.378 0 1.862-1.019 1.862-1.903v-.415zm-3.507-2.591c.691-.65 1.685-.968 2.594-.968 1.932 0 2.733 1.049 2.733 2.179v3.341c0 .456.014.84.055 1.185h-1.103c-.028-.33-.042-.659-.042-.993h-.028c-.553.841-1.299 1.158-2.29 1.158-1.214 0-2.264-.689-2.264-1.958 0-1.682 1.614-2.262 3.603-2.262h.91v-.277c0-.678-.498-1.38-1.56-1.38-.951 0-1.408.403-1.862.746z"/><path d="M116.417 147.605c-1.144 0-2.505.199-2.505 1.15 0 .631.44.954 1.304.954 1.292 0 1.756-.927 1.756-1.798v-.306zm-1.201 2.318c-.977 0-1.516-.415-1.516-1.168 0-.622.473-1.364 2.717-1.364h.767v.52c0 .929-.517 2.012-1.968 2.012m.952-3.23c-1.597 0-3.494.373-3.494 2.156 0 1.282 1.082 1.855 2.155 1.855 1.019 0 1.696-.345 2.201-1.113l.032-.049h.163l.027.107c0 .298.01.594.035.89h.886a10.52 10.52 0 01-.042-1.081v-3.342c0-1.002-.689-2.072-2.627-2.072-.914 0-1.817.322-2.439.866l.6.624.017-.012c.426-.326.913-.698 1.836-.698 1.146 0 1.666.77 1.666 1.487v.382zm-1.339 4.223c-1.396 0-2.37-.85-2.37-2.067 0-1.527 1.317-2.369 3.709-2.369h.804v-.169c0-.613-.456-1.272-1.454-1.272-.853 0-1.285.332-1.707.654l-.166.124-.884-.916.078-.074c.661-.624 1.658-.996 2.665-.996 2.095 0 2.838 1.179 2.838 2.285v3.342c0 .498.016.859.056 1.175l.013.117h-1.322l-.007-.096c-.02-.237-.034-.477-.038-.717-.525.667-1.238.979-2.215.979m8.541-5.736h-1.781v2.967c0 .731 0 1.502.938 1.502.29 0 .635-.041.881-.191v1.131c-.287.166-.867.219-1.114.219-1.919 0-1.944-1.173-1.944-2.221v-3.407h-1.436v-1.076h1.436v-1.836h1.239v1.836h1.781z"/><path d="M119.02 145.071h1.435v3.516c0 .994 0 2.117 1.838 2.117.266 0 .748-.058 1.01-.182v-.892a2.17 2.17 0 01-.777.127c-1.045 0-1.045-.893-1.045-1.61v-3.076h1.783v-.861h-1.783v-1.834h-1.026v1.834h-1.435zm3.273 5.845c-2.051 0-2.051-1.345-2.051-2.329v-3.3h-1.436v-1.289h1.436v-1.833h1.453v1.833h1.782v1.289h-1.782v2.86c0 .869.057 1.395.831 1.395.247 0 .59-.029.829-.176l.162-.102v1.387l-.053.031c-.336.191-.974.234-1.171.234m5.795-3.419c-1.172 0-2.609.207-2.609 1.259 0 .743.553 1.059 1.408 1.059 1.378 0 1.863-1.019 1.863-1.903v-.415zm-3.503-2.591c.688-.65 1.684-.968 2.593-.968 1.93 0 2.731 1.049 2.731 2.179v3.341c0 .456.016.84.057 1.185h-1.104c-.027-.33-.041-.659-.041-.993h-.031c-.549.841-1.294 1.158-2.288 1.158-1.215 0-2.264-.689-2.264-1.958 0-1.682 1.615-2.262 3.601-2.262h.911v-.277c0-.678-.496-1.38-1.557-1.38-.953 0-1.409.403-1.864.746z"/><path d="M128.088 147.605c-1.14 0-2.5.199-2.5 1.15 0 .631.436.954 1.299.954 1.295 0 1.756-.927 1.756-1.798v-.306zm-1.201 2.318c-.976 0-1.512-.415-1.512-1.168 0-.622.469-1.364 2.713-1.364h.768v.52c0 .929-.517 2.012-1.969 2.012m.952-3.23c-1.594 0-3.493.373-3.493 2.156 0 1.282 1.082 1.855 2.156 1.855 1.017 0 1.697-.345 2.2-1.113l.033-.049h.164l.028.107c0 .298.011.594.032.89h.887c-.03-.296-.044-.637-.044-1.081v-3.342c0-1.002-.689-2.072-2.624-2.072-.914 0-1.818.322-2.443.866l.604.624.014-.012c.429-.326.912-.698 1.84-.698 1.144 0 1.663.77 1.663 1.487v.382zm-1.337 4.223c-1.397 0-2.37-.85-2.37-2.067 0-1.527 1.317-2.369 3.707-2.369h.804v-.169c0-.613-.455-1.272-1.45-1.272-.854 0-1.289.332-1.709.654l-.165.124-.888-.916.08-.074c.662-.624 1.658-.996 2.667-.996 2.094 0 2.837 1.179 2.837 2.285v3.342c0 .498.018.859.054 1.175l.016.117h-1.322l-.007-.096a12.153 12.153 0 01-.042-.717c-.523.667-1.237.979-2.212.979"/></g></svg>