<svg xmlns="http://www.w3.org/2000/svg" width="200" height="200"><path d="M47.516 119.535h-3.174a.679.679 0 00-.474.196.6.6 0 00-.213.458v2.881c0 .174.071.327.213.456a.668.668 0 00.474.198h3.174a.62.62 0 00.458-.198.617.617 0 00.196-.456v-2.881a.625.625 0 00-.196-.458.62.62 0 00-.458-.196zm-.097 6.643h-3.012a.639.639 0 00-.459.196.638.638 0 00-.195.459v17.118a.69.69 0 00.195.475.615.615 0 00.459.212h3.013a.611.611 0 00.458-.212c.13-.142.196-.3.196-.475v-17.118a.639.639 0 00-.196-.459.636.636 0 00-.459-.196zm18.743 0h-7.66c-1.416 0-2.617.159-3.599.475-.981.316-1.784.754-2.405 1.309a4.967 4.967 0 00-1.358 1.931 6.32 6.32 0 00-.426 2.308v.228c0 .829.098 1.55.294 2.161.196.611.547 1.167 1.047 1.668a2.863 2.863 0 00-.981 1.181c-.218.478-.327.97-.327 1.471v.033c0 .59.13 1.152.393 1.684.26.537.622.978 1.08 1.326a5.318 5.318 0 00-1.228 1.655 4.484 4.484 0 00-.442 1.947v.293c0 1.726.688 3.06 2.063 4.01 1.373.949 3.392 1.423 6.056 1.423 2.79 0 4.826-.436 6.103-1.308 1.278-.873 1.913-2.151 1.913-3.828v-.229c0-.874-.174-1.588-.523-2.145-.349-.557-.841-1.02-1.473-1.392-.634-.372-1.402-.681-2.308-.933a79.201 79.201 0 00-3.026-.767l-3.863-.917c-.372-.087-.648-.207-.834-.36-.185-.153-.28-.394-.28-.72 0-.329.187-.613.558-.851.326.13.785.255 1.374.376.589.12 1.32.181 2.191.181 2.49 0 4.404-.48 5.747-1.441 1.341-.96 2.011-2.466 2.011-4.517v-.228c0-.569-.071-1.052-.211-1.458a4.75 4.75 0 00-.607-1.162l1.08-.425c.197-.086.333-.17.408-.245.078-.075.115-.236.115-.476v-1.374a.855.855 0 00-.261-.621.84.84 0 00-.621-.263zm-11.39 19.377c0-.588.076-1.031.228-1.326a9.4 9.4 0 01.591-.965l2.91.687c.853.196 1.535.377 2.047.54.513.164.906.321 1.179.475.272.152.447.305.525.458.076.151.114.316.114.492v.229c0 .304-.044.572-.133.8-.087.229-.266.42-.539.572-.273.153-.648.273-1.13.362-.48.088-1.11.131-1.896.131-.765 0-1.398-.048-1.9-.148-.5-.098-.901-.239-1.194-.426-.295-.186-.503-.414-.622-.687a2.205 2.205 0 01-.18-.9v-.294zm7.234-13.026c0 .829-.246 1.467-.736 1.913-.492.448-1.415.672-2.768.672-.762 0-1.372-.076-1.832-.229-.457-.152-.813-.354-1.062-.605a1.899 1.899 0 01-.509-.836 3.319 3.319 0 01-.132-.915v-.262c0-.395.055-.759.166-1.096.107-.338.294-.634.557-.884.26-.254.62-.448 1.078-.59.459-.141 1.037-.213 1.733-.213.7 0 1.278.072 1.737.213.459.142.817.337 1.08.59.261.25.441.546.539.884.098.337.148.701.148 1.096v.262zm63.747-4.484c-.406-.656-.979-1.168-1.718-1.537-.743-.372-1.702-.559-2.88-.559-.545 0-1.037.028-1.474.082-.435.055-.86.143-1.277.262a8.138 8.138 0 00-1.227.474c-.405.196-.845.448-1.326.755v-.689a.622.622 0 00-.195-.457.629.629 0 00-.458-.198h-2.849a.626.626 0 00-.457.198.626.626 0 00-.196.457v17.118c0 .175.065.333.196.475a.608.608 0 00.457.212h3.011a.62.62 0 00.462-.212.695.695 0 00.195-.475v-13.157a13.65 13.65 0 011.947-.868 5.309 5.309 0 011.752-.311c.631 0 1.131.061 1.505.179.368.121.649.318.833.589.185.274.305.646.36 1.114.056.469.082 1.063.082 1.784v10.67c0 .174.065.333.197.474.13.141.284.212.458.212h3.01a.616.616 0 00.46-.212.69.69 0 00.196-.474v-10.67a17.54 17.54 0 00-.228-2.913c-.156-.894-.432-1.669-.836-2.323zm17.026.23a6.55 6.55 0 00-2.436-1.721c-.969-.404-2.083-.605-3.348-.605-1.242 0-2.35.195-3.33.588-.98.392-1.8.949-2.464 1.67-.666.72-1.172 1.592-1.519 2.617-.35 1.027-.525 2.173-.525 3.438v2.423c0 1.613.255 2.95.764 4.009.511 1.059 1.153 1.898 1.933 2.519a6.997 6.997 0 002.558 1.31c.927.249 1.804.375 2.633.375.743 0 1.391-.009 1.948-.031a26.559 26.559 0 001.537-.1c.468-.044.934-.098 1.394-.163a25.77 25.77 0 001.471-.261c.307-.045.497-.132.574-.263.076-.13.113-.328.113-.588v-2.16c0-.174-.055-.299-.164-.377a.726.726 0 00-.425-.115h-.099c-.697.067-1.578.136-2.636.214a47.837 47.837 0 01-3.385.115c-.787 0-1.436-.126-1.948-.377-.514-.25-.917-.576-1.213-.982a3.573 3.573 0 01-.602-1.34 6.47 6.47 0 01-.165-1.458v-.098h10.669c.437 0 .653-.271.653-.818v-1.833c0-1.222-.168-2.34-.506-3.355-.335-1.016-.829-1.892-1.482-2.633zm-2.33 5.564h-6.97v-.133c0-1.309.328-2.306.987-2.994.658-.688 1.5-1.033 2.529-1.033 1.031 0 1.864.348 2.5 1.047.637.699.954 1.692.954 2.979v.134zm-67.668-14.304h-3.044a.627.627 0 00-.458.196.632.632 0 00-.196.459v23.761c0 .175.066.333.196.475.13.141.282.212.458.212h3.044a.557.557 0 00.441-.212c.121-.142.18-.3.18-.475V120.19a.654.654 0 00-.18-.459.572.572 0 00-.441-.196zm82.879 21.995h-1.736c-.307 0-.541-.017-.704-.049a.57.57 0 01-.376-.246c-.088-.131-.14-.317-.166-.556a12.967 12.967 0 01-.031-.983V129.42h2.944a.645.645 0 00.463-.196.643.643 0 00.195-.46v-1.931a.646.646 0 00-.195-.459.64.64 0 00-.463-.196h-2.944v-3.371c0-.327-.171-.491-.516-.491h-.133l-3.023.525c-.173.043-.324.12-.452.229a.526.526 0 00-.195.424v2.684h-3.078a.621.621 0 00-.457.196.627.627 0 00-.196.459v1.474a.52.52 0 00.196.424c.128.11.281.187.457.23l3.078.459v10.275c0 1.091.097 1.98.289 2.668.197.688.499 1.216.912 1.588.41.371.946.621 1.607.751.661.133 1.449.198 2.361.198.374 0 .737-.023 1.097-.066.362-.045.738-.1 1.13-.165.412-.065.621-.262.621-.589v-2.061c0-.326-.228-.489-.685-.489zm-48.301-13.257c-.654-.719-1.468-1.289-2.438-1.701-.972-.415-2.1-.623-3.388-.623-1.289 0-2.419.208-3.389.623-.972.412-1.783.982-2.437 1.701-.654.72-1.151 1.577-1.491 2.57-.337.992-.506 2.078-.506 3.257v2.65c0 1.179.168 2.266.506 3.257.341.994.837 1.85 1.491 2.569.654.721 1.465 1.289 2.437 1.703.971.414 2.1.622 3.389.622 1.288 0 2.416-.208 3.388-.622.97-.414 1.784-.982 2.438-1.703.652-.719 1.148-1.575 1.487-2.569.34-.991.508-2.078.508-3.257v-2.65c0-1.179-.168-2.265-.508-3.257-.339-.993-.835-1.85-1.487-2.57zm-2.324 8.477c0 1.352-.296 2.427-.886 3.224-.587.797-1.461 1.195-2.617 1.195s-2.03-.399-2.62-1.195c-.588-.797-.882-1.872-.882-3.224v-2.651c0-1.354.293-2.427.882-3.223.589-.797 1.464-1.196 2.62-1.196 1.156 0 2.03.399 2.617 1.196.589.796.886 1.869.886 3.223v2.651zm-15.481-8.477c-.653-.719-1.467-1.289-2.437-1.701-.972-.415-2.1-.623-3.387-.623s-2.416.208-3.386.623a6.896 6.896 0 00-2.44 1.701 7.195 7.195 0 00-1.488 2.57c-.34.992-.508 2.078-.508 3.257v2.65c0 1.179.168 2.266.508 3.257.336.994.833 1.85 1.488 2.569.656.721 1.468 1.289 2.44 1.703.97.414 2.099.622 3.386.622s2.415-.208 3.387-.622c.97-.414 1.784-.982 2.437-1.703a7.211 7.211 0 001.492-2.569c.335-.991.507-2.078.507-3.257v-2.65c0-1.179-.172-2.265-.507-3.257a7.233 7.233 0 00-1.492-2.57zm-2.323 8.477c0 1.352-.292 2.427-.883 3.224-.59.797-1.463 1.195-2.618 1.195-1.159 0-2.029-.399-2.618-1.195-.591-.797-.885-1.872-.885-3.224v-2.651c0-1.354.294-2.427.885-3.223.589-.797 1.459-1.196 2.618-1.196 1.155 0 2.028.399 2.618 1.196.59.796.883 1.869.883 3.223v2.651z" fill="#53565A"/><path d="M110.935 104.19a4.255 4.255 0 00-4.255 4.256 4.256 4.256 0 104.255-4.256zM100 70.719c-16.93 0-30.705 14.558-30.705 32.454 0 3.491 1.405 6.539 3.959 8.586 2.142 1.719 5.009 2.664 8.073 2.664 6.185 0 12.757-3.986 12.757-11.369 0-6.908 2.799-7.48 5.915-7.48 3.561 0 4.715 1.277 5.356 3.196a3.55 3.55 0 006.736-2.244c-1.223-3.674-4.314-8.053-12.092-8.053-4.86 0-13.015 1.894-13.015 14.581 0 3.131-3.384 4.267-5.657 4.267-1.434 0-2.758-.402-3.631-1.101-.875-.702-1.3-1.698-1.3-3.047 0-13.981 10.59-25.354 23.604-25.354 13.016 0 23.605 11.373 23.605 25.354 0 .735 0 3.404-2.894 4.288a3.552 3.552 0 00-2.359 4.434c.574 1.875 2.571 2.948 4.446 2.374 4.959-1.514 7.906-5.942 7.906-11.095.001-17.897-13.773-32.455-30.704-32.455z" fill="#E87722"/></svg>