<svg xmlns="http://www.w3.org/2000/svg" width="200" height="200"><path fill="#0089CF" d="M25.526 130.917h50.781a5.527 5.527 0 005.528-5.526V74.609a5.527 5.527 0 00-5.528-5.526H25.526A5.527 5.527 0 0020 74.609v50.781a5.526 5.526 0 005.526 5.527zm39.851-10.16c0 .665-.544 1.208-1.208 1.208H37.665a1.21 1.21 0 01-1.208-1.208v-2.416c0-.666.543-1.209 1.208-1.209h26.503c.664 0 1.208.543 1.208 1.209v2.416zm-23.603-7.3v-2.416c0-.665.544-1.208 1.208-1.208H58.85a1.21 1.21 0 011.208 1.208v2.416c0 .665-.543 1.21-1.208 1.21H42.983a1.213 1.213 0 01-1.209-1.21zm29.62 10.279h-2.417a1.21 1.21 0 01-1.207-1.201h-.001c-.011-9.02-7.333-14.083-15.682-19.032l4.808-2.741c3.247 2.005 6.368 4.156 8.944 6.664 4.544 4.427 6.757 9.367 6.763 15.104a1.21 1.21 0 01-1.208 1.206zM36.457 78.768c0-.664.544-1.208 1.208-1.208h26.503c.664 0 1.208.544 1.208 1.208v2.418c0 .664-.544 1.207-1.208 1.207H37.665a1.211 1.211 0 01-1.208-1.207v-2.418zm23.602 7.299v2.416c0 .665-.543 1.21-1.208 1.21H42.983a1.212 1.212 0 01-1.208-1.21v-2.416c0-.664.544-1.209 1.208-1.209h15.868c.664 0 1.208.545 1.208 1.209zm-30.828-8.601a1.212 1.212 0 011.208-1.203h2.417c.665 0 1.208.544 1.208 1.209-.011 9.021 7.308 14.086 15.654 19.034l-4.721 2.795c-3.278-2.021-6.431-4.188-9.027-6.72-4.541-4.427-6.745-9.369-6.74-15.109v-.002l.001-.004zm0 45.063c-.005-5.74 2.199-10.683 6.739-15.108 3.824-3.729 8.852-6.67 13.716-9.513 9.292-5.433 18.071-10.564 18.083-20.442h.001a1.211 1.211 0 011.208-1.203h2.417c.664 0 1.208.544 1.208 1.209-.007 5.737-2.22 10.678-6.764 15.103-3.826 3.726-8.852 6.665-13.713 9.506-9.294 5.436-18.073 10.567-18.062 20.449a1.21 1.21 0 01-1.208 1.207h-2.417a1.21 1.21 0 01-1.208-1.201v-.007c0 .001 0 .001 0 0z"/><path d="M97.974 122.135c0 .974-.278 1.391-1.252 1.391h-4.245c-.905 0-1.252-.417-1.252-1.391v-44.53c0-.973.347-1.391 1.252-1.391h4.245c.974 0 1.252.418 1.252 1.391v44.53zm45.917.068c0 .905-.346 1.322-1.251 1.322h-4.105c-.904 0-1.253-.417-1.253-1.322V90.269c-.138.348-1.042 3.549-1.67 5.147l-8.069 19.552c-.348.904-.905 1.392-1.739 1.392h-3.618c-.905 0-1.322-.557-1.669-1.392l-8.628-20.387c-.696-1.53-1.253-3.965-1.322-4.174v31.796c0 .905-.349 1.322-1.252 1.322h-3.896c-.905 0-1.252-.417-1.252-1.322V77.536c0-.904.347-1.322 1.252-1.322h3.896c.624 0 .973.278 1.183.764l12.036 27.971c.486 1.183 1.391 3.896 1.461 4.175.069-.278 1.044-2.922 1.531-4.105l11.827-28.178c.21-.487.558-.626 1.183-.626h4.105c.905 0 1.251.418 1.251 1.322v44.666zm34.786-22.334c.905 0 1.323.349 1.323 1.253v12.245c0 5.706-3.409 10.714-15.376 10.714-11.968 0-15.376-5.008-15.376-10.714V86.372c0-5.706 3.408-10.715 15.376-10.715 11.967 0 15.376 5.009 15.376 10.715v3.061c0 .904-.348 1.322-1.253 1.322h-4.034c-.975 0-1.323-.418-1.323-1.322v-1.948c0-3.757-2.436-6.053-8.697-6.053s-8.627 2.296-8.627 6.053v24.77c0 3.758 2.365 6.053 8.627 6.053 6.193 0 8.697-2.227 8.697-5.982v-6.68h-8.28c-.903 0-1.32-.348-1.32-1.321v-3.201c0-.904.417-1.253 1.32-1.253h13.567z" fill="#F04E26"/></svg>