<svg xmlns="http://www.w3.org/2000/svg" width="200" height="200"><path d="M108.02 103.224c0 .964-.695 1.139-1.204 1.15h-.736c-.976.004-1.15-.535-1.15-1.053v-2.811s-3.328 3.357-3.328 3.406c-1.619 1.371-3.491-.618-2.246-2.156l3.438-3.41h-2.743c-.597-.026-1.097-.126-1.097-1.15v-.856c0-.876.601-1.14 1.197-1.15h7.869zm3.022-12.044H96.346c-1.514.109-2.378 1.206-2.378 2.847v23.911h5.766v-9.107h10.239c1.509.111 3.03-.766 3.03-2.52V93.667c0-1.903-1.314-2.487-1.961-2.487m24.124-9.06a3.831 3.831 0 00-3.832 3.835 3.828 3.828 0 003.832 3.83 3.828 3.828 0 003.83-3.83 3.83 3.83 0 00-3.83-3.835m-12.27 12.636h-.066v-3.585h-6.309v17.737h6.937v-6.125c0-3.824 1.444-5.181 4.28-5.181.465 0 .962.132 1.43.203v-7.043c-.294-.035-.602-.102-.895-.102-2.701 0-4.413 1.323-5.377 4.096m8.78 14.152h6.946V91.169h-6.946zm44.535-13.681v-4.06h-3.329v-5.52h-6.849v5.52h-8.442c-.857-.331-1.851-.509-3.016-.509-2.634 0-4.334 1.153-5.903 3.283v-2.774h-6.346v17.74h6.947v-9.032c0-2.275.57-3.665 2.702-3.665 1.971 0 2.438 1.559 2.438 3.32v9.377h6.942v-10.63c0-1.136-.128-2.15-.361-3.05h4.942v7.419c0 6.132 1.1 6.769 10.208 6.261v-5.04h-1.095c-1.94 0-2.167-.571-2.167-2.205v-6.435zM24.086 108.908h6.947V91.169h-6.947z" fill="#BA2229"/><path d="M46.826 108.907V99.53c0-1.761-.472-3.32-2.441-3.32-2.136 0-2.704 1.39-2.704 3.664v9.033h-6.944V91.166h6.344v2.773c1.567-2.129 3.274-3.281 5.908-3.281 4.607 0 6.777 2.743 6.777 7.619v10.63zm16.56-10.869c0-1.892 1.169-3.081 3.241-3.081 1.631 0 3.069 1.462 3.069 3.081zm27.511-2.811v-4.061h-3.34v-5.519h-6.844v5.519H69.696c-1.026-.301-2.121-.508-3.339-.508-5.608 0-9.917 3.726-9.917 9.555 0 5.957 4.34 9.202 9.949 9.202 4.072 0 8.479-1.449 9.683-5.855h-6.644c-.501 1.05-1.503 1.559-2.604 1.559-1.837 0-3.438-1.39-3.438-3.489h13.252c.041-2.464-.519-4.644-1.575-6.403h5.555v7.419c0 6.132 1.1 6.769 10.214 6.261v-5.039H89.73c-1.938 0-2.173-.574-2.173-2.206v-6.435zm-59.45-9.329a3.827 3.827 0 01-3.829 3.826 3.832 3.832 0 010-7.662 3.831 3.831 0 013.829 3.836" fill="#5D5E5D"/></svg>