<svg xmlns="http://www.w3.org/2000/svg" width="200" height="200"><path fill="#0000DC" d="M30 79.98v39.666h6.16V79.98H30zm6.439 0l3.828 39.666h2.053L38.493 79.98h-2.054zm9.988 0l-3.826 39.666h2.054L48.48 79.98h-2.053zm2.333 0v39.666h6.254V79.98H48.76zm23.427 0v30.52c0 5.319 4.854 9.52 9.987 9.52 5.134 0 9.986-4.105 9.986-9.52V79.98h-6.253v30.333c0 2.147-1.96 3.641-3.733 3.641-1.866 0-3.734-1.493-3.734-3.641V79.98h-6.253zm39.199 0v39.666h6.255V79.98h-6.255zm6.44 0l5.882 39.666h2.146l-5.881-39.666h-2.147zm8.308 0v39.666h6.252V79.98h-6.252zm26.88 37.427v2.239H170v-2.239h-5.414v-35.28H170V79.98h-16.986v2.24h5.32v35.28h-5.32v-.093z"/></svg>