<svg xmlns="http://www.w3.org/2000/svg" width="200" height="200"><path fill="#BD3632" d="M94.854 87.701v24.606h2.773v-10.723h13.325v-2.529H97.627v-8.788h14.906v-2.566H94.854zm23.383 24.606h2.776V87.701h-2.776v24.606zm27.279-24.606v19.715l-15.5-19.715h-2.599v24.606h2.707V92.128l15.884 20.178h2.214V87.701h-2.706zm9.426 24.606h2.774V87.701h-2.774v24.606zm8.222-24.606v2.566h8.261v22.04h2.812v-22.04h8.264v-2.566h-19.337zM35.919 95.54c0-4.884-3.657-7.844-9.213-7.844H17.5v24.611h2.775v-8.68h5.976c5.24 0 9.668-2.746 9.668-8.087m-2.812.105c0 3.267-2.671 5.445-6.75 5.445h-6.082V90.266h6.223c3.973 0 6.609 1.827 6.609 5.379m28.224 16.662l-7.559-10.055c3.866-.703 6.681-3.095 6.681-7.206 0-4.428-3.482-7.351-8.895-7.351h-10.58v24.611h2.78v-9.561h7.028l7.136 9.561h3.409zm-3.692-17.158c0 3.202-2.637 5.098-6.327 5.098h-7.554v-9.98h7.59c3.97-.001 6.291 1.826 6.291 4.882m32.321 4.818c0-6.817-5.024-12.691-12.515-12.691-7.486 0-12.582 5.943-12.582 12.764 0 6.816 5.025 12.685 12.516 12.685 7.485 0 12.581-5.936 12.581-12.758m-2.882.073c0 5.625-4.01 10.119-9.633 10.119-5.624 0-9.7-4.566-9.7-10.191 0-5.624 4.009-10.122 9.634-10.122 5.621-.001 9.699 4.566 9.699 10.194"/></svg>