<svg xmlns="http://www.w3.org/2000/svg" width="200" height="200"><path d="M36.024 85.646a51.74 51.74 0 00-2.688.509c-.59.126-1.179.244-1.761.392-.537.136-1.088.257-1.615.426-.508.161-1.01.328-1.508.521a9.63 9.63 0 00-2.684 1.585c-.488.413-.944.86-1.327 1.378-.27.37-.494.751-.712 1.156-.203.384-.344.839-.347 1.279-.007 1.295.81 2.379 1.751 3.184.309.263.638.505.971.737.99.687 2.067 1.291 3.162 1.817 1.13.54 2.266 1.06 3.417 1.554 1.088.466 2.2.86 3.323 1.236l.972.321c1.017.34 2.056.654 3.067 1.022.627.229 1.298.443 1.926.729.652.296 1.329.592 1.905 1.019.386.28.719.631.965 1.04.242.403.393.865.403 1.337a2.24 2.24 0 01-.358 1.276c-.631.992-1.729 1.669-2.789 2.12a45.21 45.21 0 01-4.853 1.741c-.94.277-1.88.552-2.827.8-.951.248-1.92.51-2.881.752-.958.243-1.916.461-2.877.67-.551.118-1.105.235-1.653.35-.33.066-.652.136-.982.208-.688.151-1.376.3-2.067.449-.786.174-1.572.344-2.357.516-.229.05-.457.112-.685.163-.203.047-.965.225-.4.191.786-.044 2.884-.228 7.369-.831 1.624-.27 3.255-.503 4.883-.77a86.147 86.147 0 006.042-1.202 48.617 48.617 0 001.709-.437c.376-.105.747-.214 1.116-.33 1.572-.489 4.094-1.354 4.691-1.615 2.281-1.004 3.702-1.76 4.442-3.56a4.311 4.311 0 00.295-2.04 4.649 4.649 0 00-.614-1.805c-.313-.521-.741-.967-1.186-1.378-.832-.761-1.765-1.376-2.762-1.898-.28-.147-.568-.288-.859-.421a38.578 38.578 0 00-1.088-.477 24.883 24.883 0 00-1.561-.584c-1.369-.47-2.758-.891-4.133-1.342a28.676 28.676 0 01-2.302-.853 17.453 17.453 0 01-.944-.428 14.205 14.205 0 01-1.07-.581c-.432-.261-1.137-.712-.941-1.324.138-.437.611-.607.997-.763a9.008 9.008 0 011.109-.346c1.137-.293 2.298-.491 3.445-.737.337-.072.674-.145 1.011-.224.895-.211 1.817-.369 2.67-.709.733-.289 1.673-.753 1.947-1.56.393-1.177-.052-2.449-.695-3.442-.231-.356-.47-.705-.715-1.054-.337-.474-.709-.919-1.074-1.37-.165-.205-.365-.19-.533-.137-.225.077-.839.798-5.74 1.74" fill="#C8232A"/><path d="M104.449 101.916s.134.035.134.037c.508.146.758.489.369.939-.123.144-.222.305-.32.461l-.084.142a.991.991 0 00-.161.437l.006.088c.025.229.208.475.32.671.234.404.481.763.754 1.134.042.059.642-.936.681-.991.214-.299.463-.563.684-.855.277-.367.579-.714.979-.947.4-.235.859-.329 1.319-.377.456-.051.912-.072 1.365-.097.933-.049 1.86-.155 2.786-.245.358-.036.887-.125 1.211.052.312.17.55.465.793.718.29.307.574.621.849.941.326.38.617.785.978 1.136.228.224.464.421.723.61l.134.086c.459.23.782-.072.88-.539.141-.689-.249-1.359-.568-1.939-.172-.314-.34-.646-.484-.973-.127-.271-.253-.689-.028-.949.175-.198.536-.208.775-.271.284-.076.562-.162.846-.22.568-.117 1.132-.27 1.711-.343.323-.039.853-.279 1.13.004.365.367.018 1.059-.123 1.451-.228.655-.459 1.334-.532 2.027-.064.631.09 1.31.491 1.814.294.37.789.689 1.252.421.368-.216.638-.677.804-1.06.309-.73.523-1.487.768-2.239.221-.676.449-1.352.702-2.02.185-.488.399-.967.586-1.453.119-.316.284-.611.414-.921.105-.263.14-.605.4-.77.315-.198.704.375.856.575.287.374.543.765.807 1.155.291.421.554.979 1.024 1.219.811.417 1.537-.558 1.993-1.081.317-.357.636-.726.962-1.084.346-.384.701-.765 1.046-1.149.223-.246.518-.728.887-.735.319-.006.393.344.421.595.14 1.198.192 2.417.372 3.619.07.447.158.891.235 1.335l.112.628c.056.298.116.596.179.893.137.616.281 1.232.467 1.834.165.51.375 1.062.797 1.42.501.425 1.42.283 1.743-.31.067-.125.094-.276.123-.416.056-.295.028-.604.003-.9-.084-1.058-.378-2.091-.397-3.158-.003-.44.033-.877.067-1.316.074-1.022.204-2.042.26-3.066.07-1.253.182-2.577-.179-3.798a4.271 4.271 0 00-1.017-1.779 3.184 3.184 0 00-.79-.621 2.403 2.403 0 00-.964-.29c-.769-.038-1.565.388-2.166.833-.512.379-.975.811-1.413 1.272-.78.829-1.562 1.683-2.253 2.592-.2.264-.442.743-.845.693-.478-.063-.731-.783-.878-1.162a18.57 18.57 0 00-.47-1.058c-.217-.442-.439-.88-.645-1.328-.173-.372-.348-.758-.615-1.068-.305-.355-.698-.526-1.133-.67-.308-.102-.747-.23-1.049-.049-.404.242-.326.849-.351 1.242-.025.351-.063.691-.095 1.042-.087.847-.139 1.719-.329 2.551-.085.368-.207.831-.524 1.068-.245.182-.554.158-.838.17-.231.011-.466.003-.701-.003-.534-.013-1.067-.034-1.601-.02-.455.015-.915.043-1.374.06-.408.018-.818.058-1.229.058-.459.026-1.021.1-1.452-.103-.341-.164-.523-.532-.674-.859-.218-.465-.495-.899-.755-1.342-.234-.394-.462-.791-.701-1.182-.344-.563-.684-1.124-1.035-1.682a28.016 28.016 0 00-.712-1.093c-.2-.292-.453-.683-.804-.804-.322-.112-.638.1-.705.42-.045.206.003.419-.039.626a3.141 3.141 0 01-.225.64c-.178.414-.417.8-.659 1.179-.814 1.266-1.421 2.672-2.147 3.989-.137.246-.281.486-.418.732-.186.343-.308.628-.715.737-.366.096-.758.047-1.127.138-.455.114-.59.507-.666.934-.064.361-.074.729-.13 1.093-.042.263-.106.559-.078.824zm5.979-4.493l.067-.154.077-.134.067-.122.067-.106.045-.103.049-.077.039-.075.049-.048.119-.209.07-.125.085-.122.178-.305.109-.164.113-.17.028-.028.038-.01.084.03.042.027.057.067.112.162.116.217.129.296.137.353.151.428.028.076.049.124.064.162.087.208.011.039.017.049.029.095.02.075.018.077v.057l.01.058-.01.017v.077l-.056.076-.039.047-.095.039-.126.039-.158.019h-.098l-.094.008-.934.076H111l-.141.01h-.147l-.112.009-.116-.009h-.217l-.106-.019-.066-.019-.056-.037-.032-.049-.028-.067.014-.065.014-.088.049-.094.071-.123.063-.105.055-.095.057-.077.042-.075.039-.058.017-.057.028-.028M54.7 109.333c-.375.013-.747.083-1.119.062-.435-.025-.709-.29-.87-.675-.19-.462-.298-.985-.414-1.469-.106-.458-.19-.909-.141-1.377.032-.255.071-.441.277-.616.327-.27.783-.095 1.127-.287.309-.174.411-.552.438-.879.05-.552-.01-1.142-.038-1.695-.084-1.421.011-2.87-.168-4.283-.039-.326-.144-.7-.506-.796-.716-.191-.723-.902-.768-1.514-.028-.384-.032-.837.123-1.198.206-.495.758-.751 1.242-.9.47-.146.947-.279 1.424-.409.485-.131.986-.203 1.481-.288.509-.086 1.017-.159 1.53-.238.498-.079.996-.148 1.501-.202.471-.053.944-.111 1.418-.139a77.787 77.787 0 011.67-.087c.498-.021.996-.011 1.491-.007.495.004.986.024 1.477.04.505.018 1.018.06 1.516.128.726.098 1.417.225 2.042.633.649.43 1.081 1.309.439 1.958-.649.658-1.695.549-2.537.549-.692-.001-1.379.018-2.07.037-.663.021-1.327.09-1.993.132a89.329 89.329 0 00-3.772.303c-.508.05-1.021.099-1.522.192-.422.077-.917.152-1.239.461-.239.23-.25.614-.151.914.193.579 1.07.433 1.533.421 1.053-.032 2.095-.205 3.144-.276.484-.033.965-.05 1.445-.078a16.172 16.172 0 011.748-.027 9.878 9.878 0 011.515.188c.615.128 1.187.365 1.751.626.723.251.607 1.165.488 1.753-.063.309-.165.58-.442.753-.632.389-1.526.291-2.231.31a33.7 33.7 0 00-2.084.144c-1.092.104-2.183.212-3.271.347-.666.084-1.333.2-2 .271-.449.048-1.038.003-1.406.321l-.067.057-.049.028-.035.067-.043.088c-.049.28-.336 1.205-.049 1.426l.06.028h.095c.365.002.726-.019 1.091-.035.554-.025 1.109-.047 1.666-.093 1.067-.088 2.134-.175 3.2-.268.695-.062 1.411-.1 2.112-.164a64.334 64.334 0 013.159-.192c.638-.027 1.252-.016 1.852-.281.695-.311 1.27-.854 1.951-1.207.859-.444 1.74-.841 2.61-1.26 1.067-.514 2.109-1.105 3.193-1.582.835-.367 1.674-.73 2.509-1.095.404-.175.817-.34 1.203-.561.267-.156.958-.495.783-.914-.091-.218-.368-.249-.572-.274-.8-.096-2.807.052-4.035.242-1.99.348-2.267.609-2.821.06-.421-.451-.316-1.088-.253-1.646.063-.573.337-1.442.53-1.658.575-.754 2.473-.842 3.358-.907.456-.033.919-.047 1.379-.051.645-.005 1.288.039 1.929.039.559.025 1.113.06 1.667.116.632.063 1.323.079 1.937.275.2.065.4.132.59.221.635.297 1.213.685 1.645 1.239.256.328.425.705.509 1.11.042.195.07.386.042.584-.021.146-.063.437-.154.553l-.039.049c-.088.193-.257.367-.411.506-.75.659-1.845.9-2.75 1.273-.45.186-.892.4-1.334.602-1.242.567-2.473 1.156-3.74 1.67-1.042.426-2.081.863-3.08 1.384-.275.144-.674.349-.839.628-.165.295.193.293.424.298.253.009.509-.006.765-.025a87.37 87.37 0 002.309-.22c.786-.088 1.579-.158 2.365-.258.74-.095 1.48-.191 2.217-.272a22.685 22.685 0 012.4-.117c.811 0 1.6.01 2.4.144l.12.019.21.01c.337 0 .691-.045.863-.384.281-.548.442-1.208.646-1.789.259-.753.529-1.504.8-2.253.035-.104.074-.207.112-.31.308-.848.611-1.699.947-2.535.133-.339.274-.674.383-1.023.08-.262.119-.527.242-.776.203-.4.572-.657.986-.366.333.235.561.643.754.998.2.373.372.746.467 1.161.094.42-.007.791-.133 1.193-.13.412-.299.821-.407 1.241-.236.9.648 1.626 1.329 2.036.614.372 1.32.623 1.979.902.495.209.99.428 1.512.531.313.06.709.123.986-.075.449-.326.586-.963.737-1.465.183-.617.319-1.251.456-1.88.119-.522.2-1.051.256-1.583.046-.419.084-.84.109-1.26.027-.545-.014-1.071-.021-1.615 0-.351.063-.805.309-1.079.316-.362.863-.176 1.129.168.008.008.099.125.099.125.162.274.28.574.371.879.158.547.247 1.11.303 1.675.048.467.08.933.098 1.402.055 1.616-.056 3.235-.274 4.835-.119.863-.309 1.703-.491 2.553-.106.467-.186.947-.386 1.385a3.313 3.313 0 01-.53.802 1.571 1.571 0 01-.341.291c-.438.276-1.01.265-1.508.216-.695-.065-1.361-.244-2.014-.484a13.314 13.314 0 01-1.21-.499c-.404-.192-.811-.385-1.201-.606a13.128 13.128 0 01-1.14-.73 7.048 7.048 0 01-.993-.83c-.263-.27-.459-.618-.705-.904-.263-.301-.466-.403-.639.013-.104.27-.161.554-.224.838-.105.497-.253.989-.407 1.474-.147.479-.783 1.809-1.474 1.19-.224-.2-.386-.459-.723-.455-.343.005-.67.146-1.003.219-.351.08-.716.121-1.074.193-.677.139-1.354.297-2.027.432-.45.088-.899.151-1.345.228-.431.074-.866.13-1.301.195-.449.067-.895.138-1.341.191-.701.088-1.399.172-2.098.246-.561.074-1.119.13-1.677.194-.467.051-.93.1-1.396.146-.783.076-1.558.144-2.344.17-1.182.042-2.407.112-3.572-.122-.26-.052-.645-.083-.842-.276-.14-.137-.028-.37-.133-.531l-.018-.029-.045-.049-.043-.029-.045-.02h-.095l-.049.02-.056.019-.049.038-.099.069-.063.075-.049.086-.028.097c-.253.816-1.109 1.122-1.887 1.222l-12.46 1.47m116.323-6.329c-1.635.118-3.176.394-4.835.237-.536-.053-1.459-.097-1.912-.393-1.326-.874 3.32-2.43 3.891-2.634 1.61-.575 4.857-1.512 4.857-1.512s3.048-.758 3.139-2.4c.112-1.993-1.937-2.894-3.505-3.393a16.475 16.475 0 00-1.958-.322 20.114 20.114 0 00-1.347-.081c-.845-.03-1.67.052-2.513.154-.862.104-2.697.158-2.964 1.242-.134.553-.759 1.692-.235 2.192.554.531 1.456.31 2.137.243.94-.093 1.869-.268 2.806-.361.692-.069 1.593-.221 2.162.286.698.63-1.155 1.226-1.523 1.384-1.399.596-2.862 1.024-4.266 1.609-1.316.547-2.636 1.074-3.92 1.687-.59.281-1.14.627-1.694.964l-.267-.183-1.617.172-1.621.134c-1.085.089-2.183.12-3.271.171-.543.019-1.396.041-1.824-.365-.936-.889-.414-2.121.204-2.98.676-.935 1.627-1.628 2.603-2.217a9.323 9.323 0 012.119-.939 10.783 10.783 0 011.533-.353c.074.144.158.288.239.428.042.081 1.253-.428 1.368-.487.372-.193.891-.581.902-1.05.018-.57-.474-1.138-.919-1.422-.498-.318-1.064-.423-1.649-.429a13.21 13.21 0 00-1.899.113 9.761 9.761 0 00-3.354 1.137 10.109 10.109 0 00-2.382 1.847 6.653 6.653 0 00-.857 1.126c-.312.516-.54 1.086-.723 1.66-.494 1.588-.343 3.565.373 5.063.491 1.029 1.253 1.923 2.228 2.523 1.228.756 2.782 1.005 4.189.735a8.38 8.38 0 001.656-.486c.576-.234 1.137-.405 1.674-.716.105-.057 1.253-.714 1.319-.626.179.233.284.519.477.742.186.216.422.412.646.58.474.356 1.011.497 1.589.565 1.449.174 2.92.262 4.38.281 1.164.016 2.343-.064 3.501-.172.751-.07 1.502-.168 2.249-.26 1.902-.233 3.474-.656 5.533-1.545a5.725 5.725 0 001.948-1.481 4.633 4.633 0 00-.709-.352c-1.499-.602-3.208-.627-4.8-.423a58.79 58.79 0 01-2.2.23c-.319.029-.639.054-.958.077m-25.378 1.701a1.942 1.942 0 00-.095-.773c-.214-.562-.807-1.132-1.396-1.241-.534-.096-1.176.006-1.611.348-.235.186-.491.486-.614.765-.27.612-.242 1.521.155 2.063.67.917 2.087.917 2.876.173.379-.354.646-.806.685-1.335" fill="#1A1919"/></svg>