<svg xmlns="http://www.w3.org/2000/svg" width="200" height="200"><path fill="#FFF" d="M0 0h200v200H0z"/><path d="M67.11 97.72v3.56h2.27v2.97c-.2.1-.79.2-1.48.2-2.18 0-4.05-1.88-4.05-5.04 0-3.46 2.47-4.94 4.35-4.94 1.88 0 3.06.3 4.05.69l.89-3.66c-.89-.4-2.67-.79-4.94-.79-5.54 0-9.1 3.06-9.1 9 0 2.47.79 4.65 2.47 6.13 1.58 1.48 2.97 2.27 6.23 2.27 2.27 0 4.65-.49 5.93-.99v-9.39c.01-.01-6.62-.01-6.62-.01zm-9.78 2.18v-.5c0-.59 0-1.19.1-1.78h-3.46v-3.16h4.25c.4-.89.89-1.68 1.48-2.37V90.7H49.42v17.1h4.55v-6.53h3.46c-.1-.39-.1-.88-.1-1.37" fill="#FFF"/><path d="M79.072 109.088c0 1.316-.452 2.408-1.358 3.273-.907.869-2.022 1.303-3.346 1.303-1.917 0-3.447-.735-4.591-2.203l1.258-1.43c1.02 1.153 2.102 1.729 3.247 1.729.753 0 1.423-.244 2.008-.735.587-.492.88-1.109.88-1.851 0-.754-.348-1.416-1.044-1.989-.343-.286-1.02-.686-2.031-1.202-1.153-.59-1.997-1.176-2.531-1.759-.724-.781-1.087-1.716-1.087-2.802 0-1.21.408-2.199 1.224-2.968.814-.767 1.828-1.151 3.038-1.151 1.43 0 2.87.7 4.319 2.103l-1.287 1.33c-1.068-1.04-2.111-1.559-3.132-1.559-.619 0-1.168.205-1.645.615-.476.409-.714.92-.714 1.53 0 1.028.991 2.059 2.974 3.089 1.22.629 2.106 1.23 2.659 1.802.773.801 1.159 1.759 1.159 2.875zm15.927 4.175h-2.003v-7.422c0-1.792-.072-2.989-.215-3.59-.496-2.068-1.802-3.103-3.917-3.103-1.211 0-2.296.399-3.254 1.194a5.602 5.602 0 00-1.895 2.981c-.191.745-.286 2.156-.286 4.234v5.706h-2.002V91.698h2.002v8.795c1.611-2.126 3.556-3.189 5.835-3.189 1.135 0 2.157.287 3.068.865a5.168 5.168 0 012.016 2.38c.434 1.011.652 2.581.652 4.706v8.008zm16.521-7.694c0-1.716-.584-3.195-1.752-4.439-1.167-1.245-2.604-1.867-4.311-1.867-1.707 0-3.144.622-4.312 1.867-1.167 1.243-1.751 2.723-1.751 4.439a6.39 6.39 0 00.786 3.105c.543.99 1.283 1.754 2.216 2.287a6.05 6.05 0 003.06.8c2.365 0 4.115-1.015 5.249-3.045a6.354 6.354 0 00.815-3.147zm2.031-.042c0 2.288-.777 4.216-2.331 5.784-1.555 1.569-3.476 2.353-5.764 2.353-2.287 0-4.211-.782-5.77-2.347-1.559-1.561-2.339-3.494-2.339-5.791 0-2.155.716-4.024 2.146-5.605 1.573-1.745 3.561-2.617 5.963-2.617 2.393 0 4.376.868 5.948 2.602 1.431 1.583 2.147 3.457 2.147 5.621zm16.737-.016a6.37 6.37 0 00-.828-3.145c-.554-.991-1.304-1.762-2.253-2.309a6.079 6.079 0 00-3.095-.823c-1.773 0-3.244.61-4.412 1.831-1.169 1.219-1.753 2.722-1.753 4.504 0 2.48 1.026 4.291 3.076 5.434a6.25 6.25 0 003.117.83 5.891 5.891 0 003.088-.858c.926-.562 1.667-1.341 2.224-2.331a6.293 6.293 0 00.836-3.133zm2.016-.069c0 2.268-.762 4.198-2.287 5.791-1.546 1.62-3.441 2.431-5.692 2.431-2.468 0-4.548-1.025-6.234-3.075v8.365h-1.988v-21.25h1.988v2.861c1.583-2.174 3.642-3.261 6.178-3.261 2.241 0 4.14.797 5.697 2.389 1.56 1.591 2.338 3.508 2.338 5.749z" fill="#A7C721"/><path d="M141.871 99.421h-3.175v13.842h-2.016V99.421h-2.732v-1.717h2.732v-5.777h2.016v5.777h3.175zm14.891 4.489c-.495-1.973-1.559-3.34-3.189-4.104a6.192 6.192 0 00-2.645-.586c-1.527 0-2.838.491-3.932 1.472-.802.717-1.408 1.79-1.818 3.219h11.584zm2.201 1.732h-13.984c.038 1.744.582 3.199 1.63 4.361 1.106 1.219 2.517 1.83 4.233 1.83 1.659 0 3.065-.505 4.219-1.514.524-.458 1.092-1.198 1.701-2.218l1.687.886c-1.047 2.051-2.501 3.434-4.361 4.147-.906.354-1.93.53-3.074.53-2.336 0-4.269-.773-5.8-2.317-1.529-1.544-2.294-3.485-2.294-5.82 0-1.973.606-3.733 1.816-5.278 1.535-1.963 3.59-2.945 6.162-2.945 2.652 0 4.769 1.005 6.351 3.016 1.125 1.431 1.696 3.204 1.714 5.322zm9.471-6.221h-3.175v13.842h-2.016V99.421h-2.73v-1.717h2.73v-5.777h2.016v5.777h3.175z" fill="#6C963D"/><path d="M31.566 97.474h16.53v16.531h-16.53z" fill="#A7C721"/><path d="M49.184 97.474h16.531v16.531H49.184z" fill="#14B1EF"/><path d="M40.266 79.856h16.531v16.531H40.266z" fill="#F7A12B"/></svg>