<svg xmlns="http://www.w3.org/2000/svg" width="200" height="200"><path fill="none" d="M0 0h200v200H0z"/><path d="M173.88 135.578H66.69v-21.283h107.19zm-82.145-10.857c.041-1.383.083-2.813-.018-4.293l-.057-.147-.085-.068a1.24 1.24 0 00-.358-.212l-.042-.015h-.046c-.044 0-.088-.008-.131-.015-.068-.009-.134-.018-.198-.018-.248 0-.429.125-.536.373l-.031.07.014.076c.097.49.041.993-.016 1.526-.052.477-.105.963-.051 1.462a.254.254 0 00-.166-.053l-.105.004-.07.061c-.607.527-1.405.6-2.177.6-.256 0-.516-.009-.777-.018-.264-.01-.526-.019-.786-.019-.488 0-1.113.029-1.675.251-.235-.117-.227-.302-.088-.78.056-.197.11-.383.102-.56l-.002-.05-.021-.044c-.192-.41-.164-.866-.136-1.306.032-.505.062-1.029-.25-1.459l-.089-.109-.136.008c-.35.023-.878.055-1.08.609l-.022.06.009.062c.375 2.477.248 4.958.126 7.359l-.066 1.396.02.051c.143.342.469.685.877.685l.114-.006.055-.036c.824-.54.669-1.417.532-2.192-.077-.438-.158-.889-.081-1.291l.657-.143c.532-.117 1.087-.169 1.799-.169.399 0 .81.016 1.236.033.373.015.761.031 1.166.036.467.009.542.282.542 1.156.002.403.002.82.152 1.146l.266.579.195-.605a1.7 1.7 0 00.028-.102 5.343 5.343 0 01-.143.751l-.014.051.01.052c.068.407.351.659.737.659.317 0 .647-.178.839-.452l.052-.074-.009-.092c-.156-1.644-.111-3.243-.066-4.788m9.443 3.898c.149-.172.382-.172.616-.278-1.297-.34-2.958.298-4.276-.276-.257-.468-.044-1.129.169-1.618 1.192-.298 2.341-.02 3.448-.489-1.383-.341.383-.171.447-.723-.724-1.831-2.469-1.107-4.171-1.512.063-.489-.213-1.192.17-1.618 1.681-.234 2.979.191 4.406-.276-.32-.149-.596-.787.383-.575.233-.256.213-.341.362-.661-1.576-1.212-4.193-.531-6.449-.509-.196 0-.336.18-.512.387-.032.04-.066.08-.105.122.127 2.875-.149 5.876 0 8.919.17.234.17.554.51.532 1.916 0 3.768.149 5.769-.022.489.065 1.043-.127.958-.596-.214-.872-1.171-.68-1.725-.807m16.549-8.832c-.983 0-2.027.159-2.945.3-.444.067-.871.132-1.263.177l-.256.028.038.254c.233 1.544.137 3.081.035 4.709-.087 1.415-.179 2.879-.016 4.444.13.284.396.614.726.614.069 0 .136-.015.123-.023a9.554 9.554 0 011.049-.052c.398 0 .803.018 1.207.033.409.016.817.033 1.215.033 1.297 0 2.759-.164 3.779-1.377l.033-.039.016-.05c.642-2.141.704-4.739.145-7.198-.729-1.247-2-1.853-3.886-1.853m2.485 7.801c-.325.053-.661.293-.987.529a7.986 7.986 0 00-.377.279c-.689.115-1.466.134-2.219.154-.608.017-1.183.031-1.711.092-.086-.047-.196-.181-.289-.352.074-.923.014-1.855-.044-2.76-.093-1.425-.18-2.776.229-4.044.143-.011.289-.021.438-.028-.145.084-.372.249-.33.491.056.312.47.372.87.43.078.01.144.021.241.037l.107.001c.29 0 .6-.019.918-.038.324-.02.656-.041.985-.041.868 0 1.449.153 1.885.495l.105.082.127-.043a.566.566 0 00.18-.094c.245 2.012.203 3.59-.128 4.81m13.466-6.335l-.026-.038c-.772-1.062-1.984-1.579-3.703-1.579-.951 0-1.953.154-2.834.288l-.326.049-.039.024c-2.406 1.391-1.934 4.384-1.556 6.789.078.489.152.958.218 1.462.376.869 1.297 1.601 2.228 1.745.326 0 .686.022 1.063.043.43.025.88.05 1.333.05 1.211 0 2.715-.163 3.652-1.507.604-2.143.605-4.931.003-7.28zm-1.934 6.307c-.682.546-1.384.622-2.041.622-.258 0-.522-.014-.795-.025-.295-.017-.6-.031-.914-.031-.111 0-.224.001-.338.006-1.255-1.03-1.235-3.167-1.05-5.107.112-.575.27-1.129.654-1.373a1.627 1.627 0 00-.195.392l-.116.325.468.006c.428 0 .861-.034 1.295-.067.422-.033.843-.065 1.261-.065.589 0 1.068.067 1.497.214.819 1.536.685 3.621.274 5.103m11.456 1.059c.151-.172.384-.172.618-.278-1.298-.34-2.959.298-4.277-.276-.256-.468-.045-1.129.169-1.618 1.193-.298 2.341-.02 3.448-.489-1.383-.341.384-.171.447-.723-.723-1.831-2.468-1.107-4.171-1.512.062-.489-.213-1.192.169-1.618 1.683-.234 2.981.191 4.407-.276-.319-.149-.596-.787.384-.575.233-.256.212-.341.361-.661-1.575-1.212-4.194-.531-6.449-.509-.195 0-.335.18-.511.387a1.84 1.84 0 01-.106.122c.127 2.875-.149 5.876 0 8.919.169.234.169.554.511.532 1.914 0 3.766.149 5.767-.022.49.065 1.043-.127.958-.596-.212-.872-1.171-.68-1.725-.807m13.626-6.833c-1.256-2.681-4.811-1.469-7.47-1.596-.171.17-.234.256-.383.425-.043 2.895.277 6.087-.086 8.918.086.235.342.382.511.618 1.575-.469.129-2.321.639-3.555 0-.234.297-.574.617-.51 1.384.256-.446.574.149 1.276 1.021-.531 2.384-.34 3.513-.319 1.446-.149.723 1.745 1.234 2.107.02-.872.298-2.256-.469-2.873 1.725.575.213 2.66 1.149 3.745.32.065.469-.107.703-.191-.064-1.617.34-3.171-.596-4.491 1.085-.852.618-2.362.489-3.554m-2.299 2.916c-1.425.064-2.915-.745-4.086.255a.871.871 0 01-.404-.383c.106-1.042-.021-2.149.255-3.128.723-.128.022.552.447.936 1.362.107 3.428-.724 4.511.447-.04.723.32 1.745-.723 1.873m-77.789-3c-.171 1.446 1.446-.149 2.255.062-.66-.211-1.468-.34-2.255-.062m3.035-.934c.007-.189.019-.473-.19-.657l-.047-.042-.063-.014c-.919-.208-1.927-.301-3.263-.301-.644 0-1.296.022-1.951.043-.655.022-1.313.042-1.968.042l-.449-.003a.723.723 0 00-.558.293c-.195.244-.266.58-.194.904l.014.061.042.048c.194.219.417.357.662.417l-.164.341.068.03c.363.146.759.157 1.142.17.478.014.931.027 1.257.308.033.651.07.919.348.919l.138-.01.073-.097c.053-.069.096-.249.13-.477-.019.855-.005 1.729.008 2.583.022 1.338.043 2.721-.062 3.996l-.007.076.038.067c.017.029.03.065.044.101.057.151.154.403.445.482a14.46 14.46 0 00.428.027c.281 0 .477-.119.586-.352l.025-.052-.002-.057c-.02-1.371-.02-2.716-.02-4.061 0-1.317 0-2.634-.021-3.978.02-.021.041-.043.062-.062.196.023.388.033.575.033.623 0 1.196-.108 1.75-.214.303-.057.605-.114.907-.151l.249-.032-.034-.247c-.005-.036-.001-.084.002-.134m17.212 9.638c1.383.276 2.916.276 4.024.063-1.3-.169-2.726.129-4.024-.063m42.024 0c1.383.276 2.915.276 4.022.063-1.298-.169-2.725.129-4.022-.063m23.866 0c1.319.426 2.831.192 4.193.042-1.362.15-2.809-.021-4.193-.042m4.469-6.236c.153-.01.326-.034.493-.041a21.146 21.146 0 00-4.281-.279c-.32.256-.958.298-1.383-.169-.256-.554-.384-1.512.085-2.086 1.32-.873.17.617.362 1.106 1.254-.701 3.49-.957 4.98-.063.064-.489-.276-.874-.382-1.192.893-.042.531.936.956 1.319.256.383.553-.022.873-.042.362-.979-.384-1.66-.98-2.277-1.787-.576-3.893-.64-5.787-.149-1.108.447-1.385 1.745-1.406 2.788-.213.745 1.299 2.277.234 1.852 1.129 1.957 3.746.957 5.534 1.425.489.149.916.616.789 1.192-1.087 1.171-3.045.681-4.556.681.085.064.149.064.234.149-1.256.702-.638-1.66-1.979-1.277-.469.489-.278.979-.171 1.447 1.469 2.341 4.789 1.321 7.023.894 1.108-.616 1.278-1.979 1.065-3.257.043-1.063-1.213-1.723-1.703-2.021" fill="#F05123"/><path d="M35.042 82.727c3.427 2.571 8.368 4.485 11.996 7.41 2.018 1.612 3.277 4.586 3.277 7.358 0 5.849-5.495 10.434-12.25 10.434-6.853 0-11.945-4.737-11.945-11.039 0-1.964.253-2.569 1.715-2.569h4.485c1.159 0 1.462.704 1.462 2.669 0 2.168 1.16 3.782 4.184 3.782 3.376 0 4.737-1.713 4.737-3.377 0-2.017-2.671-3.428-3.679-3.931-3.176-1.766-6.755-3.378-9.578-5.746"/><path d="M39.024 93.464c-3.176-1.766-6.755-3.378-9.578-5.747-2.015-1.763-3.326-4.536-3.326-7.208 0-5.443 4.32-10.087 11.074-10.087 8.721 0 11.802 4.19 11.802 9.886 0 1.965-.404 2.369-1.563 2.369h-4.689c-.957 0-1.409-.404-1.409-2.369 0-1.764-.512-2.628-4.039-2.628-2.924 0-3.664 1.37-3.664 2.727 0 1.263.554 1.563 1.41 2.32 3.427 2.571 8.368 4.486 11.996 7.41m26.974-1.766v12.704c0 3.829-3.678 6.854-7.56 6.854-2.017 0-3.377-.403-5.141-1.462-.402-.252-1.007-.052-1.007.301v10.636c0 1.009-.503 1.814-1.515 1.814h-4.585c-1.06 0-1.612-.553-1.612-1.662V83.583c0-1.108.552-1.662 1.612-1.662h3.931c.757 0 1.311.05 1.666.655.25.503.603.605 1.007.302 1.611-1.158 3.124-1.864 5.695-1.864 3.88 0 7.509 2.974 7.509 7.357m-7.66 1.918c0-1.111-.051-3.126-2.42-3.126-2.367 0-3.628 1.461-3.628 3.024v8.466c0 2.623 1.662 3.229 3.628 3.229 1.563 0 2.42-1.363 2.42-3.127zm18.411 15.32c0 1.263-.354 1.512-1.513 1.512h-4.586c-1.21 0-1.563-.201-1.563-1.36V83.583c0-1.109.505-1.663 1.563-1.663h4.637c1.209 0 1.512.453 1.512 1.11 0 .553.554.656.907.302 1.765-1.865 4.133-2.318 6.099-2.318.656 0 1.21.554 1.21 1.209v3.881c0 .807-.352 1.463-1.411 1.463h-1.512c-2.974 0-5.343 2.923-5.343 5.292zm10.143-30.542c0-2.371 2.018-4.337 4.588-4.337 2.57 0 4.588 1.915 4.588 4.337 0 2.367-2.018 4.283-4.588 4.283-2.57 0-4.588-1.916-4.588-4.283m.758 8.467c0-1.21.402-1.613 1.563-1.613h4.636c.958 0 1.462.605 1.462 1.764v21.421c0 1.26-.102 2.016-1.662 2.016h-4.236c-1.763 0-1.763-.958-1.763-2.117zm12.86 23.588c-1.258 0-1.561-.554-1.561-1.712V83.583c0-1.159.403-1.662 1.561-1.662h4.134c.805 0 1.058.251 1.412.907.201.453.453.554.807.303 1.562-1.008 3.577-2.117 6.147-2.117 4.184 0 7.309 3.024 7.309 7.256v16.886c0 1.259-.351 1.966-1.511 1.966h-4.587c-1.211 0-1.564-.554-1.564-1.712V90.437c0-2.266-.805-3.023-2.368-3.023-1.764 0-3.679.957-3.679 3.023v14.719c0 .958-.202 1.966-1.563 1.966zm33.671-5.189c-.402-.758-.907-.859-1.461.098l-2.874 5.193c-.201.554-.907.754-1.662.402l-4.384-2.47c-.859-.504-1.009-1.209-.455-2.065l4.585-7.158c.455-.756.555-2.068 0-2.925l-4.635-7.257c-.555-.859-.405-1.562.454-2.066l4.333-2.42c.707-.353 1.21-.251 1.563.353l2.874 4.991c.604 1.056 1.26.957 1.814-.052l2.62-4.737c.253-.555 1.11-.857 1.714-.504l4.384 2.369c.91.453 1.06 1.207.455 2.168l-4.587 7.155c-.554.857-.454 2.169 0 2.925l4.437 6.956c.554 1.008.351 1.712-.505 2.117l-4.235 2.62c-.856.454-1.513-.05-1.663-.402z"/></svg>