<svg xmlns="http://www.w3.org/2000/svg" width="200" height="200"><path fill="#FFF" d="M0 0h200v200H0z"/><defs><linearGradient id="a" gradientUnits="userSpaceOnUse" x1="170.711" y1="170.711" x2="29.289" y2="29.289"><stop offset="0" stop-color="#EC57E2"/><stop offset="1" stop-color="#FFD302"/></linearGradient></defs><path d="M0 0h200v200H0z" fill="url(#a)"/><path d="M75.094 96.295l50.858 17.177c.674.337 1.01.674 1.01 1.347 0 .674-.336 1.348-1.01 1.348l-50.858 17.514c-.673.336-1.684 0-2.02-1.011-.337-.673 0-1.684 1.01-2.021l46.479-15.83L74.084 98.99c-.674-.337-1.347-1.011-1.01-2.021.336-.674 1.347-1.011 2.02-.674zm50.858-26.944l-46.479 15.83 46.479 15.829c.674.337 1.347 1.011 1.01 2.021-.336.674-1.01 1.347-2.02 1.011L74.084 86.528c-.674-.337-1.01-.674-1.01-1.347 0-.674.336-1.348 1.01-1.348l50.858-17.514c.673-.336 1.684 0 2.02 1.011.337.673-.336 1.684-1.01 2.021z" fill="#FFF"/></svg>