<svg xmlns="http://www.w3.org/2000/svg" width="160" height="65.672" viewBox="7.5 0 160 65.672">
  <path fill="#1A1F71" d="M69.988 10.168L50.934 55.625H38.503l-9.378-36.278c-.567-2.231-1.064-3.052-2.793-3.993-2.83-1.536-7.497-2.973-11.601-3.866l.276-1.318h20.012c2.548 0 4.841 1.696 5.425 4.632l4.955 26.306L57.634 10.17h12.354zm48.707 30.616c.053-11.996-16.584-12.662-16.473-18.021.037-1.628 1.588-3.363 4.986-3.808 1.686-.216 6.33-.392 11.6 2.034l2.061-9.645c-2.832-1.022-6.471-2.009-11-2.009-11.629 0-19.807 6.176-19.873 15.024-.072 6.545 5.842 10.196 10.291 12.373 4.588 2.228 6.125 3.657 6.102 5.647-.033 3.05-3.658 4.399-7.033 4.451-5.918.092-9.344-1.6-12.078-2.873l-2.134 9.967c2.752 1.258 7.823 2.355 13.073 2.41 12.359.004 20.441-6.099 20.478-15.55m30.701 14.841h10.873l-9.5-45.457h-10.031c-2.262 0-4.166 1.312-5.008 3.332l-17.646 42.125h12.35l2.453-6.788h15.084l1.425 6.788zM136.27 39.521l6.189-17.072 3.561 17.072h-9.75zM86.792 10.168l-9.724 45.457h-11.76l9.724-45.457h11.76z"/>
</svg>
