<svg xmlns="http://www.w3.org/2000/svg" width="600" height="337.5" viewBox="0 0 600 337.5"><path fill="#FFF" d="M0 0h600v337.5H0z"/><path d="M0 0h600v337.5H0z" fill="#F7DF1E"/><path d="M0 0h600v337.5H0V0z" fill="#2F2B00" opacity=".882"/><path d="M197.25 66h205.5v205.5h-205.5z" fill="#F7DF1E"/><path d="M251.284 237.731l15.726-9.517c3.034 5.379 5.794 9.93 12.414 9.93 6.346 0 10.346-2.483 10.346-12.138v-65.662h19.313v65.936c0 20.001-11.726 29.106-28.831 29.106-15.449 0-24.416-8.001-28.969-17.657m68.288-2.068l15.725-9.104c4.14 6.76 9.519 11.726 19.037 11.726 8.002 0 13.104-4.001 13.104-9.519 0-6.621-5.241-8.966-14.07-12.828l-4.827-2.07c-13.933-5.931-23.176-13.38-23.176-29.105 0-14.484 11.036-25.521 28.279-25.521 12.278 0 21.106 4.278 27.45 15.451l-15.036 9.656c-3.311-5.931-6.896-8.277-12.414-8.277-5.656 0-9.243 3.587-9.243 8.277 0 5.793 3.587 8.139 11.863 11.726l4.828 2.069c16.415 7.035 25.657 14.208 25.657 30.347 0 17.381-13.656 26.898-32.002 26.898-17.933 0-29.52-8.551-35.175-19.725" fill="#2F2B00"/></svg>