<svg xmlns="http://www.w3.org/2000/svg" width="600" height="337.5" viewBox="0 0 600 337.5"><path fill="#FFF" d="M0 0h600v337.5H0z"/><path d="M0 0h600v337.5H0z" fill="#48440D"/><path d="M0 0h600v337.5H0V0z" opacity=".512"/><path d="M422.127 207.715h-.187.094c-13.785-.009-25.519-2.066-30.117-4.957l5.635 8.82 2.057 27.462s22.458 15.523 44.661 0l1.629-27.761 4.856-7.769c-5.311 2.49-16.163 4.197-28.721 4.206h.094z" fill="#FFF"/><path d="M422.127 207.715h-.187.094c-13.785-.009-25.519-2.066-30.117-4.957l5.635 8.82 2.057 27.462s22.458 15.523 44.661 0l1.629-27.761 4.856-7.769c-5.311 2.49-16.163 4.197-28.721 4.206h.094z" stroke="#000" stroke-width=".594" fill="none"/><path d="M452.561 170.17c-.98.725-1.939 1.286-2.873 1.682a7.612 7.612 0 01-3.004.596c-1 0-1.774-.214-2.321-.641-.546-.427-.819-1.014-.819-1.763v-.171c0-.052.006-.119.019-.195.053-.457.258-.985.613-1.579.355-.596.783-1.214 1.283-1.854a51.076 51.076 0 011.601-1.946 99.965 99.965 0 001.571-1.866c.479-.586.877-1.125 1.194-1.613.317-.489.475-.885.475-1.19a.534.534 0 00-.198-.436c-.132-.106-.35-.16-.652-.16-.527 0-1.07.134-1.63.401a8.058 8.058 0 00-1.66 1.076c-.546.45-1.08.965-1.6 1.544a22.888 22.888 0 00-1.462 1.809 24.399 24.399 0 00-1.243 1.888 26.872 26.872 0 00-.959 1.751c-.078.168-.191.405-.336.709-.146.306-.303.65-.474 1.031-.171.381-.352.775-.544 1.177a52.1 52.1 0 00-.522 1.146l-.424.961c-.126.282-.215.477-.267.583-.067.138-.175.396-.326.778-.151.382-.326.829-.523 1.339l-.623 1.614c-.216.564-.421 1.099-.612 1.602l-.503 1.328c-.145.381-.238.641-.277.778-.131.397-.286.77-.464 1.122-.178.35-.381.66-.612.927-.23.266-.494.48-.79.64a2.057 2.057 0 01-.997.241c-.475 0-.866-.112-1.177-.333-.308-.221-.463-.645-.463-1.27 0-.306.04-.618.119-.938.079-.321.178-.638.296-.95.119-.314.241-.618.366-.915.125-.299.24-.585.345-.859a419.143 419.143 0 012.173-4.589 213.343 213.343 0 002.124-4.555c.142-.314.271-.621.409-.932l-.123.12a26.107 26.107 0 01-2.557 2.14 13.66 13.66 0 01-2.529 1.476c-.836.366-1.65.549-2.44.549-.54 0-.99-.084-1.352-.251a2.257 2.257 0 01-.87-.686 2.702 2.702 0 01-.464-1.031c-.032-.135-.051-.277-.072-.418-.23.176-.464.348-.699.51a14.191 14.191 0 01-2.41 1.361c-.79.344-1.501.515-2.133.515-.632 0-1.146-.205-1.541-.618-.395-.412-.593-1.114-.593-2.106 0-.702.106-1.518.316-2.448-.342.595-.77 1.197-1.283 1.807-.514.611-1.1 1.168-1.758 1.672a8.844 8.844 0 01-2.213 1.224c-.817.313-1.706.469-2.667.469-.435 0-.852-.052-1.254-.16a2.653 2.653 0 01-1.057-.549c-.303-.259-.546-.606-.731-1.041-.185-.435-.276-.981-.276-1.637 0-.015.026-.247.078-.699.053-.45.221-1.159.504-2.129.284-.967.721-2.224 1.313-3.765.594-1.542 1.429-3.41 2.51-5.607.276-.581.595-.997.957-1.248a2.017 2.017 0 011.175-.378c.185 0 .376.027.573.08.199.054.382.137.554.252.171.114.31.26.415.435.105.175.158.377.158.606 0 .152-.02.298-.059.435-.067.26-.208.599-.424 1.018-.218.42-.471.901-.761 1.442a117.29 117.29 0 00-.918 1.752 24.353 24.353 0 00-.899 1.945 19.027 19.027 0 00-.712 2.049 8.623 8.623 0 00-.335 2.025c0 .275.065.527.197.756.132.229.349.343.652.343.856 0 1.673-.275 2.45-.823a10.817 10.817 0 002.153-2.049 19.698 19.698 0 001.788-2.633c.533-.938.977-1.796 1.333-2.574.25-.519.471-1.077.662-1.671.19-.596.398-1.144.622-1.649a5.03 5.03 0 01.77-1.258 1.375 1.375 0 011.086-.504c.475 0 .85.177 1.127.527.276.351.414.771.414 1.258 0 .275-.088.653-.266 1.134a31.77 31.77 0 01-.672 1.648c-.27.618-.563 1.278-.879 1.98-.316.702-.61 1.415-.879 2.14-.27.725-.494 1.435-.672 2.129a7.808 7.808 0 00-.266 1.934c0 .549.289.825.869.825.409 0 .915-.138 1.521-.413.606-.274 1.242-.66 1.907-1.156.166-.123.333-.253.499-.389.186-.748.403-1.441.656-2.071.461-1.191.929-2.372 1.402-3.547l1.305-3.229 5.985-14.764c.237-.594.556-1.014.957-1.258.402-.244.807-.366 1.216-.366.407 0 .779.13 1.115.389.336.26.504.679.504 1.259 0 .275-.056.565-.168.87-.112.306-.254.633-.425.984-.328.718-.721 1.595-1.175 2.633a423.926 423.926 0 00-3.062 7.199c-.546 1.32-1.08 2.606-1.6 3.857a421.798 421.798 0 00-1.461 3.559 906.373 906.373 0 00-1.176 2.918c-.145.351-.286.76-.424 1.225a4.406 4.406 0 00-.207 1.248c0 .228.039.411.118.548.079.137.23.207.455.207.276 0 .621-.096 1.036-.287.415-.19.863-.442 1.343-.756.481-.312.982-.671 1.501-1.076a46.673 46.673 0 001.551-1.258 41.37 41.37 0 001.472-1.305 56.03 56.03 0 001.255-1.201.89.89 0 01.304-.197 40.64 40.64 0 00.603-1.909c.106-.275.251-.663.435-1.167s.396-.999.632-1.488a6.34 6.34 0 01.8-1.27c.296-.358.616-.538.959-.538.526 0 .909.119 1.146.354.237.238.355.584.355 1.043 0 .091-.013.236-.04.434a12.923 12.923 0 01-.226 1.259 2.955 2.955 0 01-.128.435 26.383 26.383 0 011.579-1.545 16.402 16.402 0 011.758-1.385 10.218 10.218 0 011.857-1.008 4.966 4.966 0 011.896-.388c.435 0 .867.061 1.294.183a3.79 3.79 0 011.146.537c.336.238.61.535.82.893.21.358.316.774.316 1.248 0 .626-.161 1.293-.484 2.002-.323.71-.728 1.423-1.215 2.139a26.592 26.592 0 01-1.58 2.095 80.144 80.144 0 01-1.59 1.854c-.494.558-.909 1.03-1.245 1.419-.335.39-.51.653-.523.791 0 .183.06.331.178.446.119.114.316.172.593.172.224 0 .553-.123.988-.367.434-.243 1.044-.667 1.827-1.269a91.358 91.358 0 002.983-2.427c.827-.696 1.794-1.524 2.884-2.468l5.575-47.324h-.038c-5.654 2.648-21.537 5.446-40.25 5.446-18.71 0-34.594-2.798-40.248-5.446h-.047l4.235 43.437a37.03 37.03 0 01.751-2.24 42.278 42.278 0 011.965-4.475 39.772 39.772 0 012.43-4.131 32.04 32.04 0 012.796-3.582 22.126 22.126 0 013.042-2.815c1.04-.785 2.091-1.4 3.15-1.843 1.061-.442 2.111-.664 3.152-.664 1.198 0 2.357.321 3.476.962 1.12.641 2.166 1.678 3.142 3.113.223.32.365.645.423.973.06.327.089.636.089.926 0 .687-.167 1.229-.503 1.625-.336.397-.734.595-1.195.595-.422 0-.814-.217-1.176-.651-.362-.435-.767-1.057-1.215-1.866-.421-.733-.886-1.262-1.393-1.59a2.97 2.97 0 00-1.649-.493c-.922 0-1.906.374-2.953 1.121-1.047.748-2.084 1.737-3.111 2.965-1.027 1.228-2.011 2.633-2.953 4.211a43.402 43.402 0 00-2.499 4.853 33.918 33.918 0 00-1.728 4.898c-.429 1.61-.643 3.056-.643 4.338 0 .427.03.866.089 1.315.06.451.171.859.336 1.225.165.366.388.667.672.904.283.237.642.354 1.076.354.487 0 1.04-.16 1.659-.481.619-.319 1.262-.74 1.926-1.258a23.999 23.999 0 002.005-1.763 31.742 31.742 0 001.877-1.991 29.072 29.072 0 001.541-1.934c.448-.618.784-1.156 1.008-1.614l1.837-5.379c.223-.579.516-.991.879-1.236.362-.244.734-.366 1.116-.366.184 0 .368.031.553.092.185.061.349.156.495.285.145.13.26.298.345.504.086.206.128.446.128.721 0 .732-.066 1.418-.198 2.06a16.095 16.095 0 01-.503 1.877c-.205.61-.431 1.224-.682 1.842a45.64 45.64 0 00-.731 1.935c-.052.076-.147.316-.286.72a115.24 115.24 0 00-1.145 3.571c-.231.756-.468 1.526-.711 2.312a191.69 191.69 0 00-.701 2.311 482.81 482.81 0 00-1.047 3.582c-.119.412-.191.656-.217.733a4.838 4.838 0 01-.316.812 5.478 5.478 0 01-.515.848 3.133 3.133 0 01-.651.663 1.22 1.22 0 01-.732.263c-.421 0-.727-.137-.918-.411-.191-.275-.286-.779-.286-1.511v-.321c0-.106.007-.221.019-.342.013-.245.113-.703.297-1.375.185-.67.404-1.429.662-2.276.256-.848.533-1.725.829-2.633.297-.908.563-1.72.8-2.437a38.653 38.653 0 01-2.271 2.277 24.412 24.412 0 01-2.509 2.037 14.947 14.947 0 01-2.588 1.477c-.87.381-1.706.572-2.509.572-.922 0-1.715-.199-2.381-.596-.12-.071-.232-.152-.345-.232l2.691 27.6 1.566 2.452c4.597 2.891 16.331 4.947 30.117 4.956 12.558-.009 23.41-1.716 28.72-4.206l2.003-3.202 3.865-32.806c-.32.287-.63.566-.928.838a39.924 39.924 0 01-3.133 2.601z" fill="#FFF"/><path d="M452.561 170.17c-.98.725-1.939 1.286-2.873 1.682a7.612 7.612 0 01-3.004.596c-1 0-1.774-.214-2.321-.641-.546-.427-.819-1.014-.819-1.763v-.171c0-.052.006-.119.019-.195.053-.457.258-.985.613-1.579.355-.596.783-1.214 1.283-1.854a51.076 51.076 0 011.601-1.946 99.965 99.965 0 001.571-1.866c.479-.586.877-1.125 1.194-1.613.317-.489.475-.885.475-1.19a.534.534 0 00-.198-.436c-.132-.106-.35-.16-.652-.16-.527 0-1.07.134-1.63.401a8.058 8.058 0 00-1.66 1.076c-.546.45-1.08.965-1.6 1.544a22.888 22.888 0 00-1.462 1.809 24.399 24.399 0 00-1.243 1.888 26.872 26.872 0 00-.959 1.751c-.078.168-.191.405-.336.709-.146.306-.303.65-.474 1.031-.171.381-.352.775-.544 1.177a52.1 52.1 0 00-.522 1.146l-.424.961c-.126.282-.215.477-.267.583-.067.138-.175.396-.326.778-.151.382-.326.829-.523 1.339l-.623 1.614c-.216.564-.421 1.099-.612 1.602l-.503 1.328c-.145.381-.238.641-.277.778-.131.397-.286.77-.464 1.122-.178.35-.381.66-.612.927-.23.266-.494.48-.79.64a2.057 2.057 0 01-.997.241c-.475 0-.866-.112-1.177-.333-.308-.221-.463-.645-.463-1.27 0-.306.04-.618.119-.938.079-.321.178-.638.296-.95.119-.314.241-.618.366-.915.125-.299.24-.585.345-.859a419.143 419.143 0 012.173-4.589 213.343 213.343 0 002.124-4.555c.142-.314.271-.621.409-.932l-.123.12a26.107 26.107 0 01-2.557 2.14 13.66 13.66 0 01-2.529 1.476c-.836.366-1.65.549-2.44.549-.54 0-.99-.084-1.352-.251a2.257 2.257 0 01-.87-.686 2.702 2.702 0 01-.464-1.031c-.032-.135-.051-.277-.072-.418-.23.176-.464.348-.699.51a14.191 14.191 0 01-2.41 1.361c-.79.344-1.501.515-2.133.515-.632 0-1.146-.205-1.541-.618-.395-.412-.593-1.114-.593-2.106 0-.702.106-1.518.316-2.448-.342.595-.77 1.197-1.283 1.807-.514.611-1.1 1.168-1.758 1.672a8.844 8.844 0 01-2.213 1.224c-.817.313-1.706.469-2.667.469-.435 0-.852-.052-1.254-.16a2.653 2.653 0 01-1.057-.549c-.303-.259-.546-.606-.731-1.041-.185-.435-.276-.981-.276-1.637 0-.015.026-.247.078-.699.053-.45.221-1.159.504-2.129.284-.967.721-2.224 1.313-3.765.594-1.542 1.429-3.41 2.51-5.607.276-.581.595-.997.957-1.248a2.017 2.017 0 011.175-.378c.185 0 .376.027.573.08.199.054.382.137.554.252.171.114.31.26.415.435.105.175.158.377.158.606 0 .152-.02.298-.059.435-.067.26-.208.599-.424 1.018-.218.42-.471.901-.761 1.442a117.29 117.29 0 00-.918 1.752 24.353 24.353 0 00-.899 1.945 19.027 19.027 0 00-.712 2.049 8.623 8.623 0 00-.335 2.025c0 .275.065.527.197.756.132.229.349.343.652.343.856 0 1.673-.275 2.45-.823a10.817 10.817 0 002.153-2.049 19.698 19.698 0 001.788-2.633c.533-.938.977-1.796 1.333-2.574.25-.519.471-1.077.662-1.671.19-.596.398-1.144.622-1.649a5.03 5.03 0 01.77-1.258 1.375 1.375 0 011.086-.504c.475 0 .85.177 1.127.527.276.351.414.771.414 1.258 0 .275-.088.653-.266 1.134a31.77 31.77 0 01-.672 1.648c-.27.618-.563 1.278-.879 1.98-.316.702-.61 1.415-.879 2.14-.27.725-.494 1.435-.672 2.129a7.808 7.808 0 00-.266 1.934c0 .549.289.825.869.825.409 0 .915-.138 1.521-.413.606-.274 1.242-.66 1.907-1.156.166-.123.333-.253.499-.389.186-.748.403-1.441.656-2.071.461-1.191.929-2.372 1.402-3.547l1.305-3.229 5.985-14.764c.237-.594.556-1.014.957-1.258.402-.244.807-.366 1.216-.366.407 0 .779.13 1.115.389.336.26.504.679.504 1.259 0 .275-.056.565-.168.87-.112.306-.254.633-.425.984-.328.718-.721 1.595-1.175 2.633a423.926 423.926 0 00-3.062 7.199c-.546 1.32-1.08 2.606-1.6 3.857a421.798 421.798 0 00-1.461 3.559 906.373 906.373 0 00-1.176 2.918c-.145.351-.286.76-.424 1.225a4.406 4.406 0 00-.207 1.248c0 .228.039.411.118.548.079.137.23.207.455.207.276 0 .621-.096 1.036-.287.415-.19.863-.442 1.343-.756.481-.312.982-.671 1.501-1.076a46.673 46.673 0 001.551-1.258 41.37 41.37 0 001.472-1.305 56.03 56.03 0 001.255-1.201.89.89 0 01.304-.197 40.64 40.64 0 00.603-1.909c.106-.275.251-.663.435-1.167s.396-.999.632-1.488a6.34 6.34 0 01.8-1.27c.296-.358.616-.538.959-.538.526 0 .909.119 1.146.354.237.238.355.584.355 1.043 0 .091-.013.236-.04.434a12.923 12.923 0 01-.226 1.259 2.955 2.955 0 01-.128.435 26.383 26.383 0 011.579-1.545 16.402 16.402 0 011.758-1.385 10.218 10.218 0 011.857-1.008 4.966 4.966 0 011.896-.388c.435 0 .867.061 1.294.183a3.79 3.79 0 011.146.537c.336.238.61.535.82.893.21.358.316.774.316 1.248 0 .626-.161 1.293-.484 2.002-.323.71-.728 1.423-1.215 2.139a26.592 26.592 0 01-1.58 2.095 80.144 80.144 0 01-1.59 1.854c-.494.558-.909 1.03-1.245 1.419-.335.39-.51.653-.523.791 0 .183.06.331.178.446.119.114.316.172.593.172.224 0 .553-.123.988-.367.434-.243 1.044-.667 1.827-1.269a91.358 91.358 0 002.983-2.427c.827-.696 1.794-1.524 2.884-2.468l5.575-47.324h-.038c-5.654 2.648-21.537 5.446-40.25 5.446-18.71 0-34.594-2.798-40.248-5.446h-.047l4.235 43.437a37.03 37.03 0 01.751-2.24 42.278 42.278 0 011.965-4.475 39.772 39.772 0 012.43-4.131 32.04 32.04 0 012.796-3.582 22.126 22.126 0 013.042-2.815c1.04-.785 2.091-1.4 3.15-1.843 1.061-.442 2.111-.664 3.152-.664 1.198 0 2.357.321 3.476.962 1.12.641 2.166 1.678 3.142 3.113.223.32.365.645.423.973.06.327.089.636.089.926 0 .687-.167 1.229-.503 1.625-.336.397-.734.595-1.195.595-.422 0-.814-.217-1.176-.651-.362-.435-.767-1.057-1.215-1.866-.421-.733-.886-1.262-1.393-1.59a2.97 2.97 0 00-1.649-.493c-.922 0-1.906.374-2.953 1.121-1.047.748-2.084 1.737-3.111 2.965-1.027 1.228-2.011 2.633-2.953 4.211a43.402 43.402 0 00-2.499 4.853 33.918 33.918 0 00-1.728 4.898c-.429 1.61-.643 3.056-.643 4.338 0 .427.03.866.089 1.315.06.451.171.859.336 1.225.165.366.388.667.672.904.283.237.642.354 1.076.354.487 0 1.04-.16 1.659-.481.619-.319 1.262-.74 1.926-1.258a23.999 23.999 0 002.005-1.763 31.742 31.742 0 001.877-1.991 29.072 29.072 0 001.541-1.934c.448-.618.784-1.156 1.008-1.614l1.837-5.379c.223-.579.516-.991.879-1.236.362-.244.734-.366 1.116-.366.184 0 .368.031.553.092.185.061.349.156.495.285.145.13.26.298.345.504.086.206.128.446.128.721 0 .732-.066 1.418-.198 2.06a16.095 16.095 0 01-.503 1.877c-.205.61-.431 1.224-.682 1.842a45.64 45.64 0 00-.731 1.935c-.052.076-.147.316-.286.72a115.24 115.24 0 00-1.145 3.571c-.231.756-.468 1.526-.711 2.312a191.69 191.69 0 00-.701 2.311 482.81 482.81 0 00-1.047 3.582c-.119.412-.191.656-.217.733a4.838 4.838 0 01-.316.812 5.478 5.478 0 01-.515.848 3.133 3.133 0 01-.651.663 1.22 1.22 0 01-.732.263c-.421 0-.727-.137-.918-.411-.191-.275-.286-.779-.286-1.511v-.321c0-.106.007-.221.019-.342.013-.245.113-.703.297-1.375.185-.67.404-1.429.662-2.276.256-.848.533-1.725.829-2.633.297-.908.563-1.72.8-2.437a38.653 38.653 0 01-2.271 2.277 24.412 24.412 0 01-2.509 2.037 14.947 14.947 0 01-2.588 1.477c-.87.381-1.706.572-2.509.572-.922 0-1.715-.199-2.381-.596-.12-.071-.232-.152-.345-.232l2.691 27.6 1.566 2.452c4.597 2.891 16.331 4.947 30.117 4.956 12.558-.009 23.41-1.716 28.72-4.206l2.003-3.202 3.865-32.806c-.32.287-.63.566-.928.838a39.924 39.924 0 01-3.133 2.601z" stroke="#000" stroke-width=".594" fill="none"/><path d="M422.394 108.12c-22.279 0-40.339 2.048-40.339 4.575 0 2.525 18.06 6.239 40.339 6.239 22.281 0 40.339-3.714 40.339-6.239 0-2.528-18.058-4.575-40.339-4.575zm7.194 7.217c-2.58 0-4.874-.762-4.874-1.42 0-.252.339-.519.901-.754.311-.56 1.968-.988 3.973-.988 1.972 0 3.612.415 3.96.963.617.24.998.518.998.78 0 .657-2.378 1.419-4.958 1.419z" fill="#FFF"/><path d="M422.394 108.12c-22.279 0-40.339 2.048-40.339 4.575 0 2.525 18.06 6.239 40.339 6.239 22.281 0 40.339-3.714 40.339-6.239 0-2.528-18.058-4.575-40.339-4.575zm7.194 7.217c-2.58 0-4.874-.762-4.874-1.42 0-.252.339-.519.901-.754.311-.56 1.968-.988 3.973-.988 1.972 0 3.612.415 3.96.963.617.24.998.518.998.78 0 .657-2.378 1.419-4.958 1.419z" stroke="#000" stroke-width=".594" fill="none"/><path d="M429.588 114.534c2.226 0 4.03-.528 4.03-1.18a.407.407 0 00-.07-.216c-.932-.364-2.407-.641-3.96-.641-1.59 0-3.07.29-3.973.667a.4.4 0 00-.058.191c0 .651 1.804 1.179 4.031 1.179z" fill="#FFF"/><path d="M429.588 114.534c2.226 0 4.03-.528 4.03-1.18a.407.407 0 00-.07-.216c-.932-.364-2.407-.641-3.96-.641-1.59 0-3.07.29-3.973.667a.4.4 0 00-.058.191c0 .651 1.804 1.179 4.031 1.179z" stroke="#000" stroke-width=".594" fill="none"/><path d="M458.981 71.584l-5.389-3.962-21.695 22.332-6.187 23.37h7.819l6.05-20.73z" fill="#FFF"/><path d="M458.981 71.584l-5.389-3.962-21.695 22.332-6.187 23.37h7.819l6.05-20.73z" stroke="#000" stroke-width=".594" fill="none"/><g fill="#FFF"><path d="M157.614 161.621s-2.299 5.611-3.559 8.585c-1.367 3.235-6.579 4.843-6.579 4.843s2.702-2.772 2.702-9.795c0-2.946 3.888-4.118 3.888-4.118l3.548.485zm-10.378 58.331s1.68 10.047 8.409 10.047c5.718 0 7.403-8.487 7.403-10.24l-15.812.193zm-22.894-111.848l-.779-.483c-2.295.076.779.483.779.483z"/><path d="M150.971 157.837s-3.631 1.623-7.69.302c-5.313-1.734-5.666-7.139-5.666-7.139s-3.26 9.357 5.879 11.158c7.329 1.445 11.664-2.71 11.664-2.71l-4.187-1.611zm2.581-47.457c-.39-8.025 6.334-14.416 8.664-14.689.129 1.36-.129 6.664 2.2 8.295.679-4.332 2.972-9.108 12.027-12.238-1.939 5.033-.258 9.248.542 11.201 6.183-5.491 10.35-4.583 10.35-4.583s-4.297 7.252-2.616 12.012c-12.414-.953-31.107 1.29-31.167.002zm-26.318 12.224c-2.962-2.404-.753-4.635-.988-7.367-.127-1.453-.245-2.824-.735-3.581-2.725-4.21-9.155-5.488-9.219-5.501l-3.018-.578 1.998-2.286c.258-.297 8.463-7.954 21.159-3.945 8.881 2.802 15.455 12.304 15.7 12.688l-4.453 2.048c-.052-.08-5.25-9.012-12.869-11.415-6.159-1.944-11.836-.094-14.267 1.118 2.585 1.009 5.964 2.848 8 5.992.961 1.486 1.122 3.357 1.279 5.167.206 2.398.4 4.661 2.203 6.127l-4.79 1.533z"/><path d="M152.541 158.628c.082.15.124.233.124.233s-6.107 4.483-12.365-.066c-3.35-2.438-3.034-8.467-2.007-11.024a20.388 20.388 0 016.825 2.904c-2.391-2.088-4.485-3.625-4.479-3.66l-2.718-.753-5.282-1.772c-.067.394-1.995 9.229 3.566 15.249 2.466 2.669 14.022 8.646 19.508-1.574l-3.172.463z"/><path d="M151.969 159.285c3.439 5.119 12.112 2.194 11.963-3.218 0 0-5.796 3.129-10.917-2.632-2.99-3.364-12.57-12.639-25.562-9.557 8.972 1.93 20.85 9.949 24.516 15.407z"/><path d="M126.239 173.732c.827.468 3.744 3.423 3.747 7.843 0 2.216-.226 13.35-1.348 20.152 1.687 1.072 2.861 1.3 4.541 2.393.841-7.878 1.444-19.296 1.163-23.905-.322-5.254-3.197-8.78-5.864-10.284-.835-.47-1.708-.932-2.586-1.397-4.568-2.415-9.291-4.912-9.291-9.177 0-3.336 1.325-4.38 2.73-5.486l.15-.12c.932-.736 1.986-1.57 2.61-2.941 1.704-3.748 1.983-13.296 0-15.72-.988-1.207-3.636-5.268-2.875-7.998.29-1.041.96-1.813 2.052-2.36 1.155-.579 2.716-.873 4.637-.873 3.774 0 7.959 1.124 10.118 1.793 7.716 2.392 17.026 9.29 19.695 11.347l.13.097 1.707 1.161-1.068-1.748c-.066-.109-6.83-10.99-18.925-14.979-2.353-.776-6.976-2.079-11.519-2.079-2.704 0-5 .462-6.817 1.373-2.215 1.108-3.715 2.876-4.338 5.112-1.527 5.481 3.447 11.582 3.617 11.777.58 1.013.825 8.37-.514 11.314-.185.407-.69.806-1.329 1.311-.201.159-.425.323-.662.499-1.89 1.396-4.748 3.505-4.748 8.365 0 6.652 6.89 10.258 12.427 13.157.909.478 1.776.93 2.559 1.373zm30.515-14.146l-4.785-.301s1.222 2.109 2.015 4.837c.895 3.086-.818 7.595-.818 7.595s6.38-7.066 3.587-12.131zm-5.974 80.362c-17.03-1.28-23.021-17.022-23.021-20.301l4.447.002-2.224-.002h2.224c.022 1.417 4.548 14.884 18.915 15.964l-.341 4.337z"/><path d="M140.846 220.08a15.127 15.127 0 01-.368-1.288c-.119-.474-.705-1.817.018-.284a5.614 5.614 0 01-.397-1.205c-11.505-.014-21.515-7.742-19.581-23.988-1.506-1.956-3.615 3.945-3.615 3.945s-5.76 16.36 9.116 22.701c4.956 2.115 9.336 3.63 10.37 3.019 2.153.427 4.096-1.04 4.825-2.006a10.791 10.791 0 01-.368-.894z"/><path d="M145.787 209.388c.018-1.371.304-2.7.982-4.023.048-.091.102-.178.154-.267-4.428-.037-9.527-.452-13.868-2.152-4.773-1.868-10.743-8.256-11.768-15.762 0 0-8.988 6.784-6.347 21.306 2.479 13.636 14.143 18.082 27.446 18.834.008-.089-1.496-3.126-1.021-4.986-7.554.537-16.001-2.318-20.078-8.882-3.733-6.007-2.686-16.264-1.152-17.767 3.743 11.553 17.209 13.901 25.653 13.699z"/><path d="M147.181 201.118c-2.393 6.872-7.283 12.433-7.283 12.433s6.726-.299 7.097-1.463c.275-.859 6.074-14.137 8.299-29.693-2.093 3.365-7.908 18.134-8.113 18.723zm67.748-93.014l.78-.483c2.295.076-.78.483-.78.483zm-26.631 49.733s3.633 1.623 7.69.302c5.315-1.734 5.669-7.139 5.669-7.139s3.258 9.357-5.88 11.158c-7.329 1.445-11.665-2.71-11.665-2.71l4.186-1.61z"/><path d="M212.036 122.604c2.963-2.404.756-4.635.99-7.367.125-1.453.243-2.824.733-3.581 2.726-4.21 9.156-5.488 9.222-5.501l3.019-.578-1.999-2.286c-.259-.297-8.463-7.954-21.161-3.945-8.88 2.802-15.453 12.304-15.698 12.688l4.451 2.048c.054-.08 5.252-9.012 12.872-11.415 6.158-1.944 11.835-.094 14.265 1.118-2.584 1.009-5.965 2.848-8.001 5.992-.961 1.486-1.121 3.357-1.277 5.167-.207 2.398-.402 4.661-2.206 6.127l4.789 1.533zm-25.305 36.024c-.082.15-.124.233-.124.233s6.105 4.483 12.362-.066c3.353-2.438 3.036-8.467 2.008-11.024a20.391 20.391 0 00-6.824 2.904c2.392-2.088 4.485-3.625 4.478-3.66l2.718-.753 5.282-1.77c.068.393 1.994 9.228-3.569 15.248-2.464 2.669-14.02 8.647-19.506-1.574l3.174.462z"/><path d="M187.301 159.285c-3.439 5.119-12.11 2.194-11.96-3.218 0 0 5.793 3.129 10.915-2.632 2.99-3.364 12.572-12.639 25.563-9.557-8.971 1.93-20.85 9.949-24.518 15.407z"/><path d="M213.034 173.732c-.828.468-3.746 3.423-3.746 7.843-.002 2.216.224 13.35 1.347 20.152-1.688 1.072-2.862 1.3-4.542 2.393-.841-7.878-1.446-19.296-1.162-23.905.32-5.254 3.195-8.78 5.861-10.284.836-.47 1.709-.932 2.589-1.397 4.568-2.415 9.291-4.912 9.291-9.177 0-3.336-1.327-4.38-2.73-5.486l-.15-.12c-.931-.736-1.987-1.57-2.61-2.941-1.704-3.749-1.983-13.296-.002-15.72.989-1.207 3.639-5.268 2.877-7.998-.292-1.041-.963-1.813-2.054-2.36-1.155-.579-2.714-.873-4.637-.873-3.771 0-7.959 1.124-10.116 1.793-7.717 2.392-17.027 9.29-19.698 11.347l-.129.097-1.708 1.161 1.068-1.748c.067-.109 6.83-10.99 18.925-14.979 2.353-.776 6.975-2.079 11.519-2.079 2.705 0 4.998.462 6.817 1.373 2.215 1.108 3.714 2.876 4.338 5.112 1.527 5.481-3.447 11.582-3.617 11.777-.58 1.013-.826 8.37.512 11.314.184.407.69.806 1.331 1.311.2.159.422.323.661.499 1.891 1.396 4.748 3.505 4.748 8.365 0 6.652-6.89 10.258-12.426 13.157-.909.478-1.777.93-2.559 1.372z"/><path d="M204.814 121.821c-1.096-1.816-3.899-5.322-10.359-8.403-7.209-3.438-15.552-5.183-24.802-5.186v-.002h-.036v.001c-9.251.004-17.596 1.749-24.803 5.186-6.46 3.082-9.261 6.587-10.358 8.403l-.471.609 5.531 1.205.177-.217.092-.198c.086-.358.827-2.289 6.995-5.231 6.593-3.146 14.284-4.741 22.855-4.744 8.571.003 16.258 1.598 22.851 4.744 6.168 2.942 6.911 4.873 6.996 5.231l.093.198.173.217 5.533-1.205-.468-.608zm-24.295 104.424c-2.311-2.417-3.678-5.018-4.008-5.816-.189-.456-.405-1.323.273-2.005.528-.527 1.444-.798 2.724-.798h1.97l5.882.001 1.197.002c1.682 0 2.51.47 2.909.865.58.574.672 1.373.272 2.373-1.07 2.672-3.498 4.853-4.216 5.457-.939.794-2.289 1.265-3.614 1.265-1.358 0-2.562-.478-3.39-1.344zm2-66.659l4.782-.301s-1.222 2.109-2.014 4.837c-.895 3.086.818 7.595.818 7.595s-6.38-7.066-3.587-12.131zm-12.883-16.711c-3.049 0-7.025-.083-10.008-2.18 0 0 3.906 6.699 10.003 6.699l.005-.847.005.847c6.099 0 10.004-6.698 10.004-6.698-2.983 2.097-6.962 2.179-10.009 2.179z"/><path d="M178.033 142.842c-3.059 1.812-5.791 2.439-8.397 2.494-2.606-.055-5.337-.682-8.396-2.494 0 0 4.454 5.318 8.374 5.359v.003l.022-.001.022.001v-.002c3.918-.041 8.375-5.359 8.375-5.359zm10.458 97.106l-.341-4.337c14.364-1.081 18.89-14.547 18.913-15.964h4.448c.001 3.277-5.993 19.021-23.02 20.301z"/><path d="M198.424 220.08c.149-.423.258-.854.368-1.288.12-.474.707-1.817-.018-.284.186-.393.307-.797.397-1.205 11.505-.014 21.515-7.742 19.579-23.988 1.506-1.956 3.617 3.945 3.617 3.945s5.76 16.36-9.115 22.701c-4.957 2.115-9.336 3.63-10.37 3.019-2.155.427-4.098-1.04-4.825-2.006.136-.297.263-.594.367-.894z"/><path d="M193.482 209.388a8.876 8.876 0 00-.98-4.023c-.049-.091-.103-.178-.154-.267 4.428-.037 9.527-.452 13.869-2.152 4.771-1.868 10.741-8.256 11.767-15.762 0 0 8.988 6.784 6.347 21.306-2.481 13.636-14.144 18.082-27.446 18.834-.008-.089 1.496-3.126 1.021-4.986 7.551.537 15.998-2.318 20.078-8.882 3.732-6.007 2.685-16.264 1.15-17.767-3.741 11.553-17.208 13.901-25.653 13.699z"/><path d="M198.854 212.809c-1.589-1.681-4.511-3.685-11.249-3.685l-17.946-.011h-.044l-17.949.011c-6.736 0-9.658 2.004-11.248 3.684-2.317 2.446-2.68 5.849-1.077 10.103 4.258 11.32 10.242 22.822 30.273 22.838v.002l.022-.002.022.002v-.002c20.029-.017 26.014-11.518 30.273-22.839 1.602-4.254 1.238-7.656-1.076-10.102zm-3.119 9.307c-2.028 5.685-7.481 19.446-26.1 19.47-18.621-.024-24.071-13.784-26.1-19.47-1.122-3.154-1.037-5.488.263-6.937.887-.991 2.927-2.174 7.575-2.174l4.856-.002c3.582-.003 8.08-.007 13.407-.009 5.325.002 9.825.006 13.406.009l4.855.002c4.649 0 6.688 1.182 7.576 2.174 1.299 1.451 1.386 3.783.263 6.937z"/><path d="M192.089 201.118c2.394 6.872 7.283 12.434 7.283 12.434s-6.726-.299-7.097-1.464c-.273-.858-6.073-14.137-8.298-29.693 2.092 3.365 7.907 18.134 8.112 18.723z"/></g><path d="M339.05 210.712l2.853-15.334c-4.041-.714-12.6-2.972-15.691-4.755 2.615-2.496 6.538-8.44 8.916-14.027l6.775-.951v-12.482h-27.816v12.482l2.378.238c-.595 1.545-1.545 3.328-2.616 4.279-3.922-2.972-9.153-9.629-11.768-13.195 8.797-4.874 15.929-11.412 15.929-21.16 0-14.265-10.342-19.02-22.824-19.02-16.523 0-23.893 9.035-23.893 19.971 0 5.587 1.902 9.867 4.874 13.789-11.532 4.518-18.069 12.245-18.069 23.894 0 17.475 13.551 26.034 31.263 26.034 10.224 0 18.307-3.21 23.894-7.965 7.37 4.993 17.712 7.132 25.796 8.202zm-54.444-36.732c3.685 4.756 10.699 13.79 15.454 17.832-2.378 1.189-5.944 2.258-10.343 2.258-7.845 0-12.481-4.042-12.481-10.342 0-3.804 2.377-7.488 7.37-9.748zm8.678-18.306c-2.378-2.853-4.161-6.419-4.161-9.153 0-3.448 2.14-6.3 6.538-6.3 4.279 0 6.538 1.782 6.538 5.824 0 3.685-3.685 7.37-8.915 9.629z" fill="#BAE36F"/></svg>