<svg xmlns="http://www.w3.org/2000/svg" width="600" height="337.5" viewBox="0 0 600 337.5"><path fill="#FFF" d="M0 0h600v337.5H0z"/><path d="M0 0h600v337.5H0z" fill="#5FA316"/><path d="M0 0h600v337.5H0V0z" opacity=".691"/><path d="M312.984 191.348a4.706 4.706 0 01-.352 6.277 4.708 4.708 0 01-6.274.322 14.43 14.43 0 01-6.36 1.468c-7.995 0-14.48-6.483-14.48-14.48 0-2.293.535-4.462 1.483-6.388l-23.898-24.003a4.7 4.7 0 01.019-6.65 4.702 4.702 0 016.649.018l23.896 24a14.403 14.403 0 016.331-1.454c7.998 0 14.48 6.483 14.48 14.478 0 2.305-.537 4.48-1.494 6.412zm31.481-50.875c-11.376-11.377-27.1-18.416-44.463-18.416-17.366 0-33.086 7.039-44.464 18.416-11.378 11.376-18.416 27.099-18.416 44.464s7.038 33.085 18.416 44.463 27.098 18.419 44.464 18.419c17.363 0 33.087-7.04 44.463-18.419 11.377-11.377 18.418-27.098 18.418-44.463 0-17.364-7.041-33.087-18.418-44.464zm-25.599-53.931h-11.004v7.556a90.603 90.603 0 0141.036 13.871l10.804-12.275a4.73 4.73 0 016.656-.424l14.161 12.462c1.947 1.714 2.137 4.712.425 6.657l-10.811 12.282c13.14 15.8 21.044 36.108 21.044 58.264 0 25.18-10.205 47.976-26.705 64.472-16.496 16.498-39.294 26.704-64.471 26.704-25.181 0-47.975-10.206-64.475-26.704-16.498-16.496-26.704-39.292-26.704-64.471 0-22.157 7.904-42.466 21.045-58.265l-10.816-12.289a4.726 4.726 0 01.425-6.653l14.159-12.464c1.946-1.713 4.941-1.525 6.654.423l10.809 12.28a90.627 90.627 0 0141.041-13.871V86.54h-11.005a4.726 4.726 0 01-4.716-4.714v-15.72a4.73 4.73 0 014.716-4.716h37.73a4.73 4.73 0 014.717 4.716v15.722a4.727 4.727 0 01-4.715 4.715z" fill="#F4F1C7"/></svg>