<svg xmlns="http://www.w3.org/2000/svg" width="600" height="337.5" viewBox="0 0 600 337.5"><path fill="#FFF" d="M0 0h600v337.5H0z"/><path d="M0 0h600v337.5H0z" fill="#43376E"/><path d="M372.547 63.473c19.124 0 34.626 15.165 34.626 33.872v142.81c0 18.707-15.502 33.872-34.625 33.872H227.452c-19.123 0-34.625-15.165-34.625-33.873V97.345c0-18.707 15.502-33.872 34.625-33.872h145.095zm-72.733 40.151H247.66v130.429h57.658c17.926 0 31.281-3.088 40.063-9.261 8.783-6.173 13.174-15.55 13.174-28.13 0-8.212-2.045-15.142-6.135-20.792-4.091-5.649-9.866-9.522-17.325-11.619 5.835-2.154 10.286-5.444 13.354-9.871 3.068-4.485 4.602-9.901 4.602-16.249 0-12.056-4.211-20.82-12.632-26.295-8.362-5.475-21.897-8.212-40.605-8.212zm2.978 73.382c7.039 0 12.302 1.427 15.791 4.281 3.489 2.795 5.233 7.017 5.233 12.666 0 5.766-1.775 10.077-5.324 12.93-3.489 2.853-8.722 4.281-15.7 4.28h-20.393v-34.157h20.393zm-1.173-50.494c5.474 0 9.625 1.194 12.452 3.582 2.828 2.329 4.241 5.737 4.241 10.221 0 4.543-1.413 7.979-4.241 10.309-2.827 2.33-6.978 3.495-12.452 3.495h-19.22v-27.606h19.22z" fill="#FFF"/></svg>