<svg xmlns="http://www.w3.org/2000/svg" width="600" height="337.5" viewBox="0 0 600 337.5"><path fill="#FFF" d="M0 0h600v337.5H0z"/><path d="M0 0h600v337.5H0z" fill="#5FA316"/><path d="M0 0h600v337.5H0V0z" opacity=".691"/><path d="M388.914 233.991V78.007h-212.6v155.984h93.013v12.999h-39.863v12.998h106.3V246.99h-39.863v-12.999h93.013zM202.889 104.005h159.45v103.989h-159.45V104.005zm197.836-19.347v47.644c0 3.93 3.287 7.146 7.305 7.146h63.313c4.018 0 7.305-3.216 7.305-7.146V84.658c0-3.931-3.287-7.147-7.305-7.147H408.03c-4.018 0-7.305 3.216-7.305 7.147zm75.489 23.822c0 1.315-1.092 2.382-2.436 2.382-1.344 0-2.435-1.067-2.435-2.382 0-1.315 1.091-2.382 2.435-2.382s2.435 1.067 2.435 2.382zm-7.305-21.44v42.879h-58.444V87.04h58.444zm3.646 62.146h-28.438c-3.352 0-6.094 2.682-6.094 5.961v51.665c0 3.28 2.742 5.962 6.094 5.962h28.438c3.352 0 6.094-2.682 6.094-5.961v-51.666c0-3.278-2.742-5.961-6.094-5.961zm-22.345 2.98h16.251v1.988h-16.25v-1.988zm8.126 56.634c-2.244 0-4.062-1.779-4.062-3.975 0-2.195 1.818-3.974 4.062-3.974 2.245 0 4.063 1.779 4.063 3.974 0 2.197-1.818 3.975-4.063 3.975zm16.251-11.923h-32.501v-39.743h32.501v39.743zm-45.473 4.368h-25.55c-1.562 0-2.839 1.25-2.839 2.777v38.88c0 1.528 1.277 2.778 2.839 2.778h25.55c1.561 0 2.839-1.25 2.839-2.778v-38.879c0-1.528-1.278-2.778-2.839-2.778zm-12.775 42.43c-1.219 0-2.209-.967-2.209-2.16s.99-2.161 2.209-2.161 2.209.967 2.209 2.161c0 1.192-.99 2.16-2.209 2.16zm12.775-6.326h-25.55v-30.55h25.55v30.55zm0-88.163h-25.55c-1.562 0-2.839 1.249-2.839 2.777v38.881c0 1.527 1.277 2.777 2.839 2.777h25.55c1.561 0 2.839-1.25 2.839-2.777v-38.881c0-1.528-1.278-2.777-2.839-2.777zm-12.775 42.43c-1.219 0-2.209-.968-2.209-2.16 0-1.194.99-2.162 2.209-2.162s2.209.968 2.209 2.161-.99 2.16-2.209 2.16zm12.775-6.327h-25.55V154.74h25.55v30.549z" fill="#CFCE7A"/></svg>