<svg xmlns="http://www.w3.org/2000/svg" width="600" height="337.5" viewBox="0 0 600 337.5"><path fill="#FFF" d="M0 0h600v337.5H0z"/><path d="M0 0h600v337.5H0z" fill="#1A1807"/><path d="M274.095 172.023l-30.719 30.72c-14.589-6.958-32.573-4.437-44.653 7.642-18.508 18.508-9.316 40.627-9.316 40.627.924 2.215 3.066 2.642 4.761.943l19.977-19.978a4.378 4.378 0 016.169 0l12.339 12.339a4.372 4.372 0 010 6.164l-19.979 19.979c-1.695 1.697-1.271 3.843.942 4.758 0 0 22.12 9.193 40.627-9.312 12.081-12.082 14.603-30.066 7.642-44.656l30.2-30.201-16.93-17.841a16.91 16.91 0 01-1.06-1.184zm53.315-16.299l29.214-29.213c14.585 6.961 32.568 4.444 44.647-7.637 18.505-18.51 9.313-40.629 9.313-40.629-.919-2.215-3.062-2.642-4.759-.943L385.85 97.281a4.375 4.375 0 01-6.17 0l-12.339-12.339c-1.695-1.695-1.695-4.471 0-6.169l19.983-19.98c1.695-1.695 1.271-3.837-.947-4.76 0 0-22.115-9.191-40.622 9.314-12.081 12.081-14.596 30.066-7.635 44.657l-29.732 29.731c.404.335.797.686 1.176 1.058l17.846 16.931z" fill="#95926A"/><path d="M301.115 53.998s-31.102-8.804-60.046 20.141a468810.317 468810.317 0 00-27.791 27.791c-1.527 1.527-1.839 3.716-.694 4.863 1.148 1.146.832 3.335-.695 4.862l-5.556 5.558c-1.527 1.527-3.714 1.841-4.862.694-1.148-1.147-3.335-.832-4.863.695l-8.339 8.339a3.942 3.942 0 000 5.558l16.676 16.673a3.939 3.939 0 005.555 0l8.337-8.339c1.528-1.527 1.841-3.716.695-4.862-1.146-1.147-.832-3.335.695-4.862l5.558-5.558c1.529-1.529 3.718-1.841 4.864-.697 1.145 1.147 3.333.835 4.863-.694l5.557-5.558 39.682 39.683c-.685 2.618-.037 5.519 2.003 7.558l102.819 108.379c3.051 3.055 8.055 3.057 11.116 0l13.895-13.894c3.056-3.057 3.056-8.059 0-11.117L302.201 146.396c-2.041-2.04-4.94-2.688-7.56-2.001l-39.68-39.684 5.557-5.557a3.942 3.942 0 000-5.558s-4.168-4.167 9.727-18.063c15.635-15.634 31.046-19.497 31.046-19.497 2.03-.742 1.953-1.657-.176-2.038z" fill="#D4D3C3"/></svg>