<svg xmlns="http://www.w3.org/2000/svg" width="600" height="337.5" viewBox="0 0 600 337.5"><path fill="#FFF" d="M0 0h600v337.5H0z"/><path d="M0 0h600v337.5H0z" fill="#350000"/><path d="M399.445 244.129l-28.455 22.798 40.202 25.678zM268.764 81.755l-29.531-36.86-28.456 22.797 29.406 36.701z" fill="#B43B18"/><path d="M260.856 224.391c12.367 8.729 26.983 5.568 42.08-4.367-15.517-12.124-31.033-24.25-46.549-36.376-7.957 17.132-8.172 31.823 4.468 40.744zM407.121 49.489c-26.12 5.642-120.807 77.928-148.133 129.406l48.506 37.389c47.163-40.256 101.384-142.558 99.627-166.795zm-48.452 86.055a2.223 2.223 0 01-3.106.464l-26.28-19.436a2.22 2.22 0 012.641-3.57l26.28 19.437a2.22 2.22 0 01.465 3.105zm9.532-11.409a2.217 2.217 0 01-3.103.465l-26.28-19.435a2.22 2.22 0 112.64-3.569l26.279 19.437a2.215 2.215 0 01.464 3.102z" fill="#FFF"/><path d="M244.638 203.8c-37.115-.468-31.469 33.86-31.469 33.86 7.681 31.724-24.36 35.871-24.36 35.871 66.075 45.439 93.61-38.986 93.61-38.986-39.012 5.366-37.781-30.745-37.781-30.745z" fill="#FFF"/><path d="M270.181 141.833l25.406-26.603-21.986-27.441-28.581 22.64zm81.492 43.397l-24.04 28.308 38.589 48.163 28.456-22.797z" fill="#B43B18"/></svg>