<svg xmlns="http://www.w3.org/2000/svg" width="1000" height="575"><path fill="#FFCC2F" d="M0 0h1000v575H0z"/><path d="M648.861 127.073c-56.521 0-98.67 59.736-79.185 102.643 79.994.001 47.428-73.84 79.185-102.643z" fill="#00ACEE"/><path d="M452.089 114.842c-91.989 0-184.324 91.438-140.382 217.557 29.849 17.942 69.65 10.829 78.569 1.276 13.482 4.31 25.511 6.123 36.262 6.123 55.875 0 103.622-59.365 103.622-133.553-.001-76.089-50.219-91.403-78.071-91.403z" fill="#EF5734"/><path d="M414.419 196.264c0 20.528 16.642 37.171 37.171 37.171s37.171-16.643 37.171-37.171-16.642-37.171-37.171-37.171c-20.529.001-37.171 16.643-37.171 37.171z" fill="#FFCC2F"/><path d="M429.336 196.264c0 12.29 9.964 22.254 22.254 22.254 12.291 0 22.254-9.964 22.254-22.254 0-12.291-9.963-22.254-22.254-22.254-12.29.001-22.254 9.963-22.254 22.254z" fill="#543729"/><path d="M464.557 186.39c0 4.453-5.806 8.063-12.968 8.063-7.161 0-12.967-3.61-12.967-8.063 0-4.453 5.806-8.063 12.967-8.063 7.162 0 12.968 3.61 12.968 8.063z" fill="#FFF"/><path d="M527.835 177.224c-16.896 9.84-16.337 41.694-8.829 57.237 14.538-5.389 34.795-16.077 37.941-17.989 3.144-1.91-1.74-9.157 10.466-9.157 16.93 0 32.238 5.29 36.632 7.195-2.781-5.725-37.577-37.286-76.21-37.286z" fill="#CECECE"/><path d="M705.188 283.164c-21.947-21.089-131.687-34.252-166.315-38.084a101.435 101.435 0 004.286-12.276 138.25 138.25 0 0115.084-5.597c.642 1.894 3.665 9.151 5.388 12.594 69.631 1.921 73.207-51.744 76.037-66.446 2.769-14.376 2.629-28.266 26.511-53.659-35.582-10.37-86.75 16.07-103.891 55.424-6.44-2.414-12.896-4.196-19.281-5.298-4.574-18.456-28.399-69.874-90.918-69.874-40.49 0-81.322 16.72-112.023 45.873-16.544 15.709-29.539 34.363-38.622 55.444-9.812 22.774-14.787 47.85-14.787 74.532 0 92.925 63.441 174.36 99.287 174.36 15.654 0 29.12-11.723 32.281-22.23 2.651 7.205 10.783 29.603 13.453 35.305 3.947 8.431 22.202 15.728 30.192 6.978 10.272 5.708 29.12 9.145 39.393-6.074 19.784 4.185 37.275-7.613 37.655-21.69 9.708-.518 14.47-14.149 12.35-25.002-1.562-7.993-18.254-36.668-24.767-46.566 12.891 10.484 45.539 13.452 49.503.007 20.781 16.31 53.167 7.751 55.735-5.516 25.252 6.562 54.215-7.848 49.459-25.301 40.564-2.807 35.372-45.967 23.99-56.904zm-105.637-71.536c-10.684-4.194-24.238-6.848-33.736-6.848-13.471 0-21.675 7.634-34.35 7.634-2.661 0-9.011.013-14.106-1.802 3.351 3.515 7.521 5.421 15.605 5.421 4.828 0 14.386-2.465 22.129-4.793.107 1.63.278 3.248.508 4.855-14.502 3.468-29.721 12.693-34.126 15.088-9.796-21.633-1.375-42.089 6.415-51.533 34.889.083 63.068 24.04 71.661 31.978zm15.085-1.631l-5.338-4.983a157.471 157.471 0 00-17.059-13.899c8.736-17.334 19.716-36.263 33.583-47.973-15.262 6.152-30.332 24.539-39.242 44.194a136.853 136.853 0 00-13.802-7.713c12.428-26.529 41.309-48.685 73.139-50.416-21.32 19.334-13.316 57.924-31.281 80.79zm-43.794 18.084c-2.351-5.096-4.731-13.559-4.441-18.534 3.961-.093 11.558 1.392 12.78 1.68-.464 2.336-.712 7.454-.722 8.116.753-1.296 2.842-5.768 3.692-7.524 7.606 1.453 17.606 3.883 23.469 6.615-6.884 4.457-18.584 9.307-34.778 9.647zm-47.532-59.827c-27.819 28.194-16.833 63.861-6.705 79.983-14.409 23.969-42.735 40.366-75.641 47.827 36.942 0 58.667-9.508 71.306-18.823 8.064-5.943 12.44-11.809 14.674-15.074 54.769 3.543 141.492 21.187 149.952 26.902 3.396 2.294 6.899 7.369 7.413 12.224-41.157-5.762-115.344-11.824-134.772-12.854 13.792 1.956 114.373 21.003 131.809 25.461-5.307 8.654-17.394 14.764-35.613 10.518 9.844 13.412-9.271 29.501-35.894 20.64 5.86 13.166-17.845 25.018-44.786 11.296.343 13.171-33.422 14.689-46.771.135.255 1.735 1.839 5.055 2.523 6.508-4.302 38.46-35.802 62.322-68.067 62.322-78.999 0-147.82-64.161-147.82-149.521 0-90.248 66.695-157.588 147.171-157.588 46.113 0 66.942 36.294 71.221 50.044z" fill="#543729"/></svg>