<svg xmlns="http://www.w3.org/2000/svg" width="200" height="200" viewBox="0, 0, 200, 200"><path fill="none" d="M0 0h200v200H0z"/><path d="M80.047 59.622c5.5-.435 11.456-.65 16.286-.73v7.158c-2.29.082-4.847.235-7.246.49-8.438.904-10.014 2.732-11.035 10.84-.427 3.378-.553 6.96-.553 9.403 0 2.434.125 6.024.552 9.392 1.02 8.105 2.597 9.936 11.035 10.837 2.4.258 4.956.412 7.246.493v7.16c-4.83-.078-10.786-.294-16.286-.732-15.138-1.21-17.962-3.67-19.8-14.54-.764-4.528-.99-9.344-.99-12.615 0-3.272.226-8.087.99-12.616 1.838-10.87 4.662-13.327 19.8-14.54" fill="#00264A"/><path d="M141.698 86.778c0 3.27-.225 8.087-.99 12.615-1.835 10.87-4.66 13.33-19.8 14.54-5.5.438-11.452.655-16.283.732v-7.16c2.29-.082 4.845-.235 7.242-.493 8.44-.9 10.017-2.732 11.036-10.837.426-3.367.553-6.958.553-9.392 0-2.442-.127-6.025-.553-9.403-1.02-8.108-2.595-9.937-11.036-10.84-2.397-.255-4.953-.41-7.242-.49v-7.157c4.83.078 10.784.293 16.284.73 15.138 1.213 17.963 3.67 19.798 14.54.765 4.528.99 9.343.99 12.615" fill="#DC3B41"/><path d="M35.784 127.095c1.397 0 2.754.243 3.99.688l-.284 2.633c-.993-.183-1.965-.466-3.26-.466-2.613 0-4.07 1.62-4.07 4.15 0 2.713 1.478 4.13 4.07 4.13 1.316 0 2.267-.262 3.26-.445l.283 2.614c-1.235.464-2.592.707-3.99.707-4.737 0-7.207-2.936-7.207-6.986 0-3.887 2.47-7.025 7.208-7.025zm10.628 2.672c4.232 0 5.77 3.564 5.02 6.824h-7.41c.405 1.318 1.58 1.864 3.24 1.864 1.053 0 2.227-.202 3.523-.506l.263 2.37c-1.336.484-2.936.79-4.393.79-3.26 0-6.014-1.703-6.014-5.67 0-3.16 2.005-5.67 5.772-5.67zm-.02 2.43c-1.175 0-1.985.85-2.33 1.985h4.192c0-1.378-.77-1.985-1.863-1.985zm11.378-2.43c1.417 0 2.957.284 4.232.81l-.283 2.268c-1.64-.466-2.937-.627-3.788-.627-1.235 0-1.56.304-1.56.85 0 1.498 6.136.223 6.136 4.657 0 2.39-2.187 3.382-4.718 3.382-1.6 0-3.32-.263-4.616-.81l.263-2.268c1.68.484 2.996.626 4.17.626 1.155 0 1.6-.243 1.6-.83 0-1.498-6.135-.243-6.135-4.657 0-2.553 2.207-3.403 4.698-3.403zm23.973 0c2.53 0 4.82.972 4.82 3.747v7.288h-3.12l-.202-.93c-.91.83-2.023 1.235-3.38 1.235-1.944 0-3.503-1.337-3.503-3.322 0-3.198 3.24-4.312 6.884-3.522v-.406c0-.99-.79-1.397-2.023-1.397-1.013 0-2.45.183-3.868.73l-.284-2.35c1.255-.667 3.016-1.073 4.677-1.073zm-.62 6.478c-.814.182-1.232.508-1.344 1.32 0 .747.647 1.132 1.457 1.132.708 0 1.56-.425 2.004-.952v-1.336c-1.243-.233-.54-.15-2.118-.165zm25.47-6.478c4.232 0 5.77 3.564 5.022 6.824h-7.41c.404 1.318 1.58 1.864 3.24 1.864 1.052 0 2.225-.202 3.522-.506l.263 2.37c-1.336.484-2.935.79-4.394.79-3.26 0-6.013-1.703-6.013-5.67 0-3.16 2.004-5.67 5.77-5.67zm-.02 2.43c-1.175 0-1.985.85-2.328 1.985h4.19c0-1.378-.77-1.985-1.862-1.985zm18.412-2.43c4.232 0 5.77 3.564 5.02 6.824h-7.41c.405 1.318 1.58 1.864 3.24 1.864 1.055 0 2.228-.202 3.524-.506l.26 2.37c-1.334.484-2.935.79-4.392.79-3.26 0-6.013-1.703-6.013-5.67 0-3.16 2.004-5.67 5.77-5.67zm-.02 2.43c-1.175 0-1.984.85-2.33 1.985h4.192c0-1.378-.768-1.985-1.862-1.985zm41.256-2.43c4.233 0 5.77 3.564 5.022 6.824h-7.41c.404 1.318 1.58 1.864 3.24 1.864 1.052 0 2.225-.202 3.522-.506l.264 2.37c-1.337.484-2.936.79-4.395.79-3.26 0-6.013-1.703-6.013-5.67 0-3.16 2.005-5.67 5.77-5.67zm-.02 2.43c-1.174 0-1.984.85-2.33 1.985h4.194c0-1.378-.77-1.985-1.863-1.985zm-68.957-4.717v2.592h2.43v2.43h-2.43v4.858c0 .952.668 1.195 2.37.912l.262 2.348c-2.834.912-5.953.67-5.953-2.914V132.5h-1.62v-2.227l1.62-.2.385-2.593h2.936zm50.2 2.592v10.73h-3.322v-10.73h3.322zm-79.646-3.808v14.538h-3.32v-14.538h3.32zm7.836 3.808l-3.827 4.878v.082l4.232 5.77h-3.99l-3.988-5.63 3.807-5.1h3.766zm41.488-3.808v14.538h-3.317v-14.538h3.318zm17.11 3.808l2.552 7.37h.08l2.553-7.37h3.482l-4.07 10.73h-4.07l-4.09-10.73h3.564zm24.91 0v2.43l-5.186 5.79v.08h5.386v2.43h-9.638v-2.41l5.204-5.81v-.08h-5.002v-2.43h9.235zM85.366 125.9l-2.753 3.26H79.94l1.702-3.26h3.725zm60.414-.122c1.5 0 1.965.568 1.965 1.66 0 1.074-.466 1.64-1.964 1.64-1.497 0-1.964-.566-1.964-1.64 0-1.092.467-1.66 1.965-1.66zM34.59 123.43l.93 1.518.932-1.518h3.16l-2.167 3.018h-3.867l-2.167-3.018h3.18z" fill="#00264A"/></svg>