<svg xmlns="http://www.w3.org/2000/svg" width="1000" height="575"><path fill="#CFCEC0" d="M0 0h1000v575H0z"/><path d="M588 108h24.667v24H588v-24z" fill="#5FA316"/><path d="M192.5 108.5h24v24h-24v-24z" stroke="#000" fill="none"/><text transform="translate(506.5 96)"><tspan x="-157.806" y="-12" font-family="Foro-ExtraBold" font-size="36" fill="#48440E">device-pixel-ratio</tspan> <tspan x="-280.998" y="34" font-family="Foro-Light" font-size="36" fill="#48440E">hardwarové pixely / css pixely</tspan></text><text transform="translate(249 461.5)"><tspan x="-138" y="-31.5" font-family="Foro-Light" font-size="14" fill="#48440E">iPhone 3GS-</tspan> <tspan x="-138" y="-13.5" font-family="Foro-Light" font-size="14" fill="#48440E">iPad 2-</tspan> <tspan x="-138" y="4.5" font-family="Foro-Light" font-size="14" fill="#48440E">Samsung Galaxy Ace</tspan> <tspan x="-138" y="22.5" font-family="Foro-Light" font-size="14" fill="#48440E">Laptop, desktop …</tspan></text><text transform="translate(467 461.5)"><tspan x="-138" y="-31.5" font-family="Foro-Light" font-size="14" fill="#48440E">Samsung Galaxy S II</tspan> <tspan x="-138" y="-13.5" font-family="Foro-Light" font-size="14" fill="#48440E">Nokia Lumia 900</tspan> <tspan x="-138" y="4.5" font-family="Foro-Light" font-size="14" fill="#48440E">HTC Nexus One</tspan> <tspan x="-138" y="22.5" font-family="Foro-Light" font-size="14" fill="#48440E">Kindle Fire HD …</tspan></text><text transform="translate(683 461.5)"><tspan x="-138" y="-31.5" font-family="Foro-Light" font-size="14" fill="#48440E">iPhone 4-5S</tspan> <tspan x="-138" y="-13.5" font-family="Foro-Light" font-size="14" fill="#48440E">iPad 3+</tspan> <tspan x="-138" y="4.5" font-family="Foro-Light" font-size="14" fill="#48440E">Google Nexus 1 gen</tspan> <tspan x="-138" y="22.5" font-family="Foro-Light" font-size="14" fill="#48440E">Samsung Galaxy SIII …</tspan></text><text transform="translate(899 461.5)"><tspan x="-138" y="-31.5" font-family="Foro-Light" font-size="14" fill="#48440E">iPhone 6 Plus</tspan> <tspan x="-138" y="-13.5" font-family="Foro-Light" font-size="14" fill="#48440E">Google Nexus 5</tspan> <tspan x="-138" y="4.5" font-family="Foro-Light" font-size="14" fill="#48440E">HTC One</tspan> <tspan x="-138" y="22.5" font-family="Foro-Light" font-size="14" fill="#48440E">Samsung Galaxy SIV …</tspan></text><text transform="translate(182 196)"><tspan x="-12.172" y="8" font-family="Foro-Light" font-size="24" fill="#48440E">1</tspan> <tspan x="1.076" y="8" font-family="Helvetica" font-size="19" fill="#48440E">×</tspan></text><text transform="translate(406.086 196)"><tspan x="-20.584" y="8" font-family="Foro-Light" font-size="24" fill="#48440E">1.5</tspan> <tspan x="9.488" y="8" font-family="Helvetica" font-size="19" fill="#48440E">×</tspan></text><text transform="translate(616 196)"><tspan x="-12.172" y="8" font-family="Foro-Light" font-size="24" fill="#48440E">2</tspan> <tspan x="1.076" y="8" font-family="Helvetica" font-size="19" fill="#48440E">×</tspan></text><text transform="translate(832 196)"><tspan x="-12.172" y="8" font-family="Foro-Light" font-size="24" fill="#48440E">3</tspan> <tspan x="1.076" y="8" font-family="Helvetica" font-size="19" fill="#48440E">×</tspan></text><path d="M109 228h24.667v24H109v-24zm434 0h49.333v48H543v-48zm215 0h74v72h-74v-72zm-432 0h36.833v39H326v-39z" fill="#5FA316"/><path d="M134.5 228.5v144m24-144v144m24-144v144m24-144v144m24-144v144m-122-96h148m-148-24h148m-148 48h148m-148 24h148m-148 24h148m96-120v144m24-144v144m24-144v144m24-144v144m24-144v144m-122-96h148m-148-24h148m-148 48h148m-148 24h148m-148 24h148m94-120v144m24-144v144m24-144v144m24-144v144m24-144v144m-122-96h148m-148-24h148m-148 48h148m-148 24h148m-148 24h148m94-120v144m24-144v144m24-144v144m24-144v144m24-144v144m-122-96h148m-148-24h148m-148 48h148m-148 24h148m-148 24h148" stroke="#000" fill="none"/></svg>