<svg xmlns="http://www.w3.org/2000/svg" width="200" height="200" viewBox="0, 0, 200, 200"><path fill="none" d="M0 0h200v200H0z"/><path d="M36.024 85.646c-.902.146-1.797.316-2.688.51-.59.125-1.18.243-1.76.39-.538.137-1.09.258-1.616.427-.508.16-1.01.328-1.508.52-.97.38-1.888.916-2.684 1.586-.488.412-.944.86-1.327 1.377-.27.37-.493.75-.71 1.156-.204.384-.345.84-.348 1.28-.007 1.294.81 2.378 1.75 3.183.31.263.64.505.972.737.99.687 2.067 1.29 3.162 1.817 1.13.54 2.266 1.06 3.417 1.554 1.088.466 2.2.86 3.323 1.236l.972.32c1.017.34 2.056.655 3.067 1.023.627.23 1.298.443 1.926.73.653.295 1.33.59 1.906 1.018.386.28.72.632.965 1.04.243.404.394.866.404 1.338.015.453-.115.893-.358 1.276-.63.992-1.73 1.67-2.79 2.12-1.58.672-3.202 1.253-4.852 1.74-.94.278-1.88.553-2.827.8-.95.25-1.92.51-2.88.753s-1.917.46-2.878.67c-.552.118-1.106.235-1.654.35-.33.066-.652.136-.982.208l-2.067.45c-.786.173-1.572.343-2.357.515-.23.05-.457.112-.685.163-.203.047-.965.225-.4.19.786-.043 2.884-.227 7.37-.83 1.623-.27 3.254-.503 4.882-.77 2.028-.333 4.043-.725 6.042-1.202.57-.134 1.14-.28 1.708-.436.376-.105.747-.214 1.116-.33 1.572-.49 4.094-1.354 4.69-1.615 2.282-1.005 3.703-1.76 4.443-3.56.253-.64.372-1.355.295-2.04-.077-.63-.288-1.264-.614-1.806-.313-.52-.74-.967-1.186-1.378-.832-.76-1.765-1.376-2.762-1.898-.28-.147-.568-.288-.86-.42-.36-.167-.722-.324-1.087-.478-.516-.216-1.035-.404-1.56-.584-1.37-.47-2.76-.89-4.134-1.342-.78-.256-1.552-.533-2.303-.853-.32-.132-.635-.276-.944-.427-.365-.177-.72-.372-1.07-.58-.432-.262-1.137-.713-.94-1.325.137-.437.61-.607.996-.763.357-.146.736-.248 1.108-.346 1.137-.294 2.298-.492 3.445-.738.337-.072.674-.145 1.01-.224.896-.21 1.818-.37 2.67-.71.734-.288 1.674-.752 1.948-1.56.394-1.176-.05-2.448-.694-3.44-.23-.357-.47-.706-.715-1.055-.336-.474-.708-.92-1.073-1.37-.165-.205-.365-.19-.533-.137-.225.077-.84.798-5.74 1.74" fill="#C8232A"/><path d="M104.45 101.916s.133.035.133.037c.508.146.758.49.37.94-.124.143-.223.304-.32.46l-.085.142c-.084.14-.147.272-.16.437l.005.088c.025.23.208.475.32.67.234.405.48.764.754 1.135.042.06.642-.936.68-.99.215-.3.464-.564.685-.856.277-.368.58-.715.98-.948.4-.235.858-.33 1.318-.377.456-.05.912-.072 1.365-.097.933-.05 1.86-.155 2.786-.245.36-.036.888-.125 1.212.052.312.17.55.465.793.718.29.307.574.62.85.94.325.38.616.786.977 1.137.228.224.464.42.723.61l.134.086c.458.23.78-.072.88-.54.14-.688-.25-1.358-.57-1.938-.17-.314-.34-.646-.483-.973-.127-.27-.253-.69-.028-.95.174-.197.535-.207.774-.27.284-.076.562-.162.846-.22.568-.117 1.132-.27 1.71-.343.324-.04.854-.28 1.13.004.366.367.02 1.06-.122 1.45-.228.656-.46 1.335-.532 2.028-.064.63.09 1.31.49 1.814.295.37.79.69 1.253.42.367-.215.637-.676.803-1.06.31-.73.523-1.486.768-2.238.222-.676.45-1.352.703-2.02.185-.488.4-.967.586-1.453.118-.316.283-.61.413-.92.105-.264.14-.606.4-.77.315-.2.704.374.856.574.286.375.542.766.806 1.156.29.42.554.98 1.024 1.22.81.416 1.537-.56 1.993-1.082.317-.357.636-.726.962-1.084.346-.384.7-.765 1.046-1.15.224-.245.52-.727.888-.734.32-.006.393.344.42.595.14 1.2.193 2.418.373 3.62.07.447.16.89.236 1.335l.112.628c.056.298.116.596.18.893.136.616.28 1.232.466 1.834.165.51.375 1.062.797 1.42.502.425 1.42.283 1.744-.31.067-.125.094-.276.123-.416.056-.295.028-.604.003-.9-.084-1.058-.378-2.09-.397-3.158-.003-.44.033-.877.067-1.316.074-1.022.204-2.042.26-3.066.07-1.253.182-2.577-.18-3.798-.1-.35-.244-.69-.43-1.004-.162-.28-.365-.544-.586-.775-.235-.246-.49-.46-.79-.62-.28-.154-.646-.275-.964-.29-.77-.04-1.565.387-2.166.832-.512.378-.975.81-1.413 1.27-.78.83-1.56 1.684-2.252 2.593-.2.264-.442.743-.845.693-.478-.063-.73-.783-.878-1.162-.144-.36-.305-.71-.47-1.058-.217-.442-.44-.88-.645-1.328-.173-.372-.348-.758-.615-1.068-.305-.355-.698-.526-1.133-.67-.308-.102-.747-.23-1.05-.05-.403.243-.325.85-.35 1.243-.025.35-.063.69-.095 1.042-.087.847-.14 1.72-.33 2.55-.084.37-.206.832-.523 1.07-.245.18-.554.157-.838.17-.23.01-.466.002-.7-.004-.535-.012-1.068-.033-1.602-.02-.455.016-.915.044-1.374.06-.408.02-.818.06-1.23.06-.458.025-1.02.1-1.45-.104-.342-.164-.524-.532-.675-.86-.218-.464-.495-.898-.755-1.34-.234-.395-.462-.792-.7-1.183-.345-.563-.685-1.124-1.036-1.682-.228-.368-.467-.734-.712-1.092-.2-.292-.453-.683-.804-.804-.322-.112-.638.1-.705.42-.045.206.003.42-.04.626-.044.22-.132.435-.224.64-.18.414-.418.8-.66 1.18-.814 1.265-1.42 2.67-2.147 3.988-.137.246-.28.486-.418.732-.186.343-.308.628-.715.737-.366.096-.758.047-1.127.138-.455.114-.59.507-.666.934-.064.36-.074.728-.13 1.092-.042.263-.106.56-.078.824zm5.978-4.493l.067-.154.077-.135.067-.122.066-.106.045-.103.05-.077.04-.075.048-.048.12-.21.07-.124.084-.122.178-.305.11-.164.112-.17.028-.03.038-.01.084.03.042.028.057.067.113.162.116.217.128.296.137.353.15.428.03.077.048.124.064.163.087.208.01.04.018.05.03.094.02.075.017.076v.057l.01.058-.01.018v.077l-.057.076-.04.048-.094.04-.127.038-.158.02h-.098l-.094.007-.934.076H111l-.14.01h-.148l-.112.008-.116-.01h-.217l-.106-.018-.065-.02-.056-.036-.033-.05-.028-.066.013-.065.014-.088.05-.094.07-.122.063-.105.055-.095.057-.077.042-.074.04-.058.016-.057.028-.027M54.7 109.333c-.375.013-.747.083-1.12.062-.434-.025-.708-.29-.87-.675-.19-.462-.297-.985-.413-1.47-.106-.457-.19-.908-.14-1.376.03-.255.07-.44.276-.616.327-.27.783-.095 1.127-.287.31-.173.41-.55.438-.878.05-.552-.01-1.142-.038-1.695-.084-1.42.01-2.87-.168-4.283-.04-.326-.144-.7-.506-.796-.716-.19-.723-.902-.768-1.514-.028-.384-.032-.837.123-1.198.207-.495.76-.75 1.243-.9.47-.146.947-.28 1.424-.41.485-.13.986-.202 1.48-.287.51-.087 1.018-.16 1.53-.24.5-.078.997-.147 1.502-.2.47-.054.943-.112 1.417-.14.554-.033 1.116-.066 1.67-.087.498-.02.996-.01 1.49-.007.496.004.987.024 1.478.04.505.018 1.018.06 1.516.128.727.098 1.418.225 2.043.633.65.43 1.08 1.31.44 1.958-.65.658-1.696.55-2.538.55-.692-.002-1.38.017-2.07.036-.663.022-1.327.09-1.993.133-.618.038-1.232.082-1.853.13-.64.05-1.28.11-1.92.173-.508.05-1.02.1-1.522.192-.422.077-.917.152-1.24.46-.238.23-.25.615-.15.915.193.58 1.07.433 1.533.42 1.054-.03 2.096-.204 3.145-.275.484-.033.965-.05 1.445-.078.583-.035 1.162-.055 1.748-.027.512.025 1.014.085 1.515.188.615.13 1.187.366 1.75.627.724.25.608 1.165.49 1.753-.064.31-.166.58-.443.753-.632.39-1.526.29-2.23.31-.696.02-1.394.08-2.085.144-1.092.104-2.183.212-3.27.347-.667.084-1.334.2-2 .27-.45.05-1.04.004-1.407.322l-.067.057-.048.028-.035.068-.043.088c-.05.28-.336 1.205-.05 1.426l.06.028h.096c.365.002.726-.02 1.09-.035.555-.025 1.11-.047 1.667-.093 1.067-.088 2.134-.175 3.2-.268.695-.062 1.41-.1 2.112-.164 1.052-.094 2.105-.15 3.158-.192.638-.027 1.252-.016 1.852-.28.695-.312 1.27-.855 1.95-1.208.86-.444 1.74-.84 2.61-1.26 1.068-.514 2.11-1.105 3.194-1.582.835-.367 1.674-.73 2.51-1.095.403-.175.816-.34 1.202-.56.267-.157.958-.496.783-.915-.092-.218-.37-.25-.573-.274-.8-.096-2.807.052-4.035.242-1.99.348-2.267.61-2.82.06-.422-.45-.317-1.088-.254-1.646.063-.573.337-1.442.53-1.658.575-.754 2.473-.842 3.358-.907.456-.033.92-.047 1.38-.05.644-.006 1.287.038 1.928.038.56.025 1.113.06 1.667.116.633.062 1.324.078 1.938.274.2.065.4.132.59.22.635.298 1.213.686 1.645 1.24.256.328.425.705.51 1.11.04.195.07.386.04.584-.02.146-.062.437-.153.553l-.04.05c-.087.193-.256.367-.41.506-.75.66-1.845.9-2.75 1.273-.45.185-.892.4-1.334.6-1.242.568-2.473 1.157-3.74 1.67-1.042.427-2.08.864-3.08 1.385-.275.144-.674.35-.84.628-.164.295.194.293.425.298.254.01.51-.005.766-.024.768-.063 1.537-.136 2.31-.22.785-.088 1.578-.158 2.364-.258.74-.095 1.48-.19 2.217-.272.807-.086 1.593-.116 2.4-.117.81 0 1.6.01 2.4.143l.12.02.21.01c.337 0 .69-.046.863-.385.28-.548.442-1.208.646-1.79.26-.752.53-1.503.8-2.252.035-.104.074-.207.112-.31.308-.848.61-1.7.947-2.535.133-.338.274-.673.383-1.022.08-.262.12-.527.242-.776.203-.4.572-.657.986-.366.333.235.56.643.754.998.2.373.372.746.467 1.16.094.42-.007.792-.133 1.194-.13.412-.3.82-.407 1.24-.236.9.648 1.627 1.33 2.037.613.372 1.32.623 1.978.902.495.21.99.428 1.512.53.313.06.71.124.986-.074.45-.326.586-.963.737-1.465.183-.617.32-1.25.456-1.88.12-.522.2-1.05.256-1.583.046-.42.084-.84.11-1.26.026-.545-.015-1.07-.022-1.615 0-.35.063-.805.31-1.08.315-.36.862-.175 1.128.17.008.007.1.124.1.124.16.274.28.574.37.88.158.546.247 1.11.303 1.674.05.467.08.933.1 1.402.054 1.616-.057 3.235-.275 4.835-.12.863-.31 1.703-.49 2.553-.107.467-.187.947-.387 1.385-.134.288-.32.567-.53.802-.102.115-.214.21-.34.29-.44.277-1.01.266-1.51.217-.694-.065-1.36-.244-2.013-.484-.414-.15-.814-.31-1.21-.5-.404-.19-.81-.384-1.2-.605-.393-.223-.776-.47-1.14-.73-.352-.247-.695-.523-.994-.83-.262-.27-.458-.618-.704-.904-.263-.302-.466-.404-.64.012-.103.27-.16.554-.223.838-.105.497-.253.99-.407 1.474-.147.48-.783 1.81-1.474 1.19-.224-.2-.386-.46-.723-.455-.344.004-.67.145-1.004.218-.35.08-.716.12-1.074.193-.677.14-1.354.298-2.027.433-.45.088-.9.15-1.345.228-.43.075-.866.13-1.3.196-.45.067-.896.138-1.342.19-.7.09-1.4.173-2.098.247-.56.074-1.12.13-1.677.194-.467.05-.93.1-1.396.146-.783.076-1.558.144-2.344.17-1.182.042-2.407.112-3.572-.122-.26-.05-.644-.082-.84-.275-.14-.137-.03-.37-.134-.53l-.018-.03-.045-.05-.043-.028-.045-.02h-.095l-.05.02-.055.02-.05.037-.098.07-.063.074-.05.086-.027.097c-.253.817-1.11 1.123-1.887 1.223l-12.46 1.47M171.023 103.004c-1.635.118-3.176.394-4.835.237-.536-.052-1.46-.096-1.912-.392-1.326-.874 3.32-2.43 3.89-2.634 1.61-.575 4.858-1.512 4.858-1.512s3.048-.758 3.14-2.4c.11-1.993-1.938-2.894-3.506-3.393-.653-.146-1.294-.257-1.958-.323-.445-.046-.898-.065-1.347-.08-.845-.03-1.67.05-2.513.153-.862.104-2.697.158-2.964 1.242-.134.553-.76 1.692-.235 2.192.555.53 1.457.31 2.138.243.94-.093 1.87-.268 2.806-.36.692-.07 1.593-.222 2.162.285.698.63-1.155 1.226-1.523 1.384-1.4.596-2.862 1.024-4.266 1.61-1.316.546-2.636 1.073-3.92 1.686-.59.28-1.14.627-1.694.964l-.267-.183-1.617.172-1.622.134c-1.085.088-2.183.12-3.27.17-.544.02-1.397.04-1.825-.365-.936-.89-.414-2.12.204-2.98.676-.935 1.627-1.628 2.603-2.217.656-.396 1.382-.718 2.12-.94.497-.15 1.014-.275 1.532-.352.074.144.158.288.24.428.04.08 1.252-.428 1.367-.487.37-.193.89-.58.9-1.05.02-.57-.473-1.138-.918-1.422-.498-.318-1.064-.423-1.65-.43-.634-.007-1.273.03-1.898.114-.442.058-.876.157-1.308.28-.716.21-1.396.492-2.046.856-.863.482-1.705 1.128-2.382 1.847-.323.342-.614.723-.857 1.126-.31.515-.54 1.085-.722 1.66-.494 1.587-.343 3.564.373 5.062.492 1.03 1.254 1.923 2.23 2.523 1.227.756 2.78 1.005 4.188.735.59-.11 1.113-.265 1.656-.486.576-.234 1.137-.405 1.674-.716.105-.057 1.253-.714 1.32-.626.178.233.283.52.476.742.186.216.422.412.646.58.474.356 1.01.497 1.59.565 1.448.173 2.92.26 4.38.28 1.163.016 2.342-.064 3.5-.172.75-.07 1.502-.168 2.25-.26 1.9-.233 3.473-.656 5.532-1.545.972-.458 1.576-1.046 1.948-1.48-.218-.137-.47-.257-.71-.353-1.498-.602-3.207-.627-4.8-.423-.733.093-1.466.165-2.2.23-.318.03-.638.054-.957.077M145.645 104.705c.017-.278-.014-.558-.095-.773-.214-.562-.807-1.132-1.396-1.24-.534-.097-1.176.005-1.61.347-.236.185-.492.485-.615.764-.27.612-.243 1.52.154 2.063.67.917 2.087.917 2.876.173.38-.354.646-.806.685-1.335" fill="#1A1919"/></svg>