<svg xmlns="http://www.w3.org/2000/svg" width="1600" height="900"><path fill="#48440D" d="M0 0h1600v900H0z"/><path d="M0 0h1600v900H0V0z" opacity=".512"/><path d="M1125.673 553.908h-.499.25c-36.762-.026-68.052-5.509-80.313-13.219l15.026 23.518 5.486 73.234s59.888 41.393 119.095 0l4.344-74.031 12.949-20.718c-14.162 6.639-43.101 11.192-76.587 11.216h.249z" fill="#FFF"/><path d="M1125.673 553.908h-.499.25c-36.762-.026-68.052-5.509-80.313-13.219l15.026 23.518 5.486 73.234s59.888 41.393 119.095 0l4.344-74.031 12.949-20.718c-14.162 6.639-43.101 11.192-76.587 11.216h.249z" stroke="#000" stroke-width="1.583" fill="none"/><path d="M1206.831 453.787c-2.615 1.933-5.171 3.43-7.663 4.486-2.495 1.058-5.164 1.588-8.009 1.588-2.669 0-4.732-.57-6.19-1.711-1.457-1.138-2.186-2.704-2.186-4.699v-.457c0-.141.017-.317.053-.52.14-1.219.686-2.626 1.634-4.211.947-1.588 2.088-3.237 3.422-4.944a136.091 136.091 0 014.267-5.189 244.27 244.27 0 004.19-4.975c1.279-1.564 2.342-2.999 3.185-4.302.845-1.303 1.266-2.36 1.266-3.174 0-.488-.177-.874-.527-1.161-.352-.282-.932-.427-1.738-.427-1.405 0-2.855.357-4.346 1.068-1.493.711-2.97 1.669-4.427 2.87a39.813 39.813 0 00-4.267 4.119 60.653 60.653 0 00-3.897 4.822 64.484 64.484 0 00-3.317 5.036 70.232 70.232 0 00-2.556 4.669c-.211.447-.509 1.08-.896 1.892a128.95 128.95 0 00-1.264 2.747 167.83 167.83 0 01-1.449 3.141 135.537 135.537 0 00-1.395 3.054l-1.131 2.563a61.707 61.707 0 01-.712 1.557c-.177.367-.465 1.056-.869 2.074a504.024 504.024 0 00-1.395 3.571l-1.66 4.304c-.577 1.505-1.123 2.93-1.633 4.273-.509 1.341-.958 2.522-1.341 3.54-.388 1.016-.635 1.708-.74 2.074a21.927 21.927 0 01-1.236 2.992 12.297 12.297 0 01-1.633 2.472 7.42 7.42 0 01-2.109 1.708c-.791.43-1.677.642-2.658.642-1.267 0-2.31-.297-3.137-.887-.822-.588-1.236-1.719-1.236-3.387 0-.814.105-1.648.316-2.501.211-.855.475-1.701.791-2.534.316-.836.642-1.648.974-2.44.334-.795.642-1.558.92-2.29 1.898-4.069 3.83-8.149 5.795-12.238a556.53 556.53 0 005.664-12.146c.377-.836.722-1.655 1.089-2.485-.11.105-.218.215-.326.318-2.284 2.159-4.556 4.061-6.82 5.708-2.268 1.648-4.516 2.96-6.743 3.937-2.23.975-4.4 1.463-6.507 1.463-1.44 0-2.642-.223-3.607-.671-.966-.447-1.739-1.058-2.319-1.829-.58-.774-.994-1.689-1.239-2.747-.082-.362-.134-.741-.188-1.116-.616.47-1.238.927-1.865 1.36-2.176 1.505-4.318 2.716-6.427 3.631-2.106.915-4.002 1.372-5.687 1.372-1.687 0-3.056-.548-4.111-1.648-1.053-1.097-1.579-2.97-1.579-5.614 0-1.872.282-4.05.842-6.531-.913 1.588-2.054 3.194-3.422 4.822a29.735 29.735 0 01-4.688 4.457c-1.758 1.342-3.724 2.431-5.901 3.265-2.178.834-4.549 1.25-7.111 1.25-1.16 0-2.273-.141-3.346-.426a7.061 7.061 0 01-2.818-1.466c-.808-.689-1.456-1.616-1.949-2.776-.493-1.16-.737-2.616-.737-4.364 0-.041.07-.661.21-1.864.14-1.201.588-3.092 1.343-5.677.756-2.581 1.923-5.93 3.502-10.041 1.582-4.111 3.811-9.094 6.692-14.952.737-1.548 1.589-2.657 2.553-3.327.967-.672 2.011-1.008 3.134-1.008.493 0 1.002.072 1.528.213a4.982 4.982 0 011.477.672c.455.304.825.692 1.107 1.159.279.467.421 1.005.421 1.616 0 .407-.054.795-.159 1.159-.177.694-.553 1.598-1.131 2.716a313.524 313.524 0 01-2.029 3.847 338.118 338.118 0 00-2.448 4.671 65.6 65.6 0 00-2.397 5.187 51.102 51.102 0 00-1.897 5.464c-.528 1.851-.826 3.653-.895 5.4 0 .734.174 1.404.527 2.015.349.611.93.915 1.738.915 2.282 0 4.459-.733 6.533-2.196 2.07-1.466 3.983-3.287 5.741-5.464a52.447 52.447 0 004.767-7.02c1.423-2.503 2.607-4.79 3.555-6.867a34.428 34.428 0 001.765-4.456 43.641 43.641 0 011.66-4.395c.597-1.344 1.28-2.462 2.054-3.357.771-.894 1.739-1.342 2.897-1.342 1.266 0 2.266.469 3.004 1.404.737.937 1.104 2.056 1.104 3.355 0 .734-.235 1.742-.709 3.023a82.664 82.664 0 01-1.793 4.395c-.721 1.648-1.5 3.408-2.343 5.28a91.426 91.426 0 00-2.343 5.707 55.947 55.947 0 00-1.792 5.676c-.475 1.852-.71 3.571-.71 5.157 0 1.465.771 2.199 2.317 2.199 1.089 0 2.441-.367 4.056-1.099 1.616-.732 3.311-1.761 5.084-3.083.443-.331.888-.676 1.331-1.037.495-1.998 1.074-3.845 1.75-5.524a705.237 705.237 0 013.74-9.461c1.264-3.133 2.422-6.002 3.477-8.608l15.96-39.37c.632-1.586 1.484-2.706 2.553-3.357 1.072-.65 2.153-.976 3.242-.976 1.087 0 2.078.345 2.975 1.037.896.693 1.344 1.811 1.344 3.358 0 .732-.15 1.506-.448 2.319a27.867 27.867 0 01-1.133 2.625 472.896 472.896 0 00-3.134 7.02 924.78 924.78 0 00-3.897 9.034 1048.836 1048.836 0 00-4.268 10.163 4875.554 4875.554 0 01-4.267 10.284 1217.845 1217.845 0 00-3.897 9.492 2124.476 2124.476 0 00-3.134 7.782 33.831 33.831 0 00-1.131 3.267c-.369 1.241-.552 2.349-.552 3.327 0 .608.105 1.097.316 1.463.21.365.614.55 1.212.55.737 0 1.657-.254 2.764-.764 1.107-.507 2.299-1.181 3.581-2.015a57.16 57.16 0 004.003-2.869 126.246 126.246 0 004.135-3.355 113.793 113.793 0 003.925-3.48 141.458 141.458 0 003.347-3.205c.231-.234.507-.4.81-.525.593-1.731 1.133-3.43 1.611-5.089.282-.733.668-1.769 1.161-3.113a42.521 42.521 0 011.684-3.969c.632-1.301 1.344-2.43 2.133-3.387.791-.955 1.643-1.435 2.556-1.435 1.405 0 2.424.317 3.056.946.632.633.948 1.557.948 2.779 0 .244-.034.63-.106 1.159a37.938 37.938 0 01-.604 3.357c-.125.53-.237.915-.342 1.159a70.297 70.297 0 014.213-4.119 43.521 43.521 0 014.688-3.694 27.276 27.276 0 014.953-2.687c1.685-.69 3.371-1.036 5.056-1.036 1.158 0 2.309.163 3.45.488a10.07 10.07 0 013.056 1.434 7.569 7.569 0 012.186 2.38c.56.955.842 2.065.842 3.327 0 1.669-.428 3.448-1.29 5.341-.86 1.892-1.939 3.794-3.239 5.704a71.395 71.395 0 01-4.213 5.586 214.5 214.5 0 01-4.241 4.943 406.538 406.538 0 00-3.319 3.785c-.894 1.04-1.362 1.741-1.395 2.108 0 .488.159.884.475 1.191.316.304.842.457 1.579.457.598 0 1.477-.326 2.635-.977 1.158-.652 2.784-1.78 4.873-3.387 2.088-1.608 4.742-3.765 7.955-6.472a739.309 739.309 0 007.69-6.58l14.866-126.198h-.1c-15.077 7.062-57.433 14.522-107.333 14.522-49.893 0-92.252-7.46-107.331-14.522h-.124l11.294 115.833a98.058 98.058 0 012.004-5.973 111.648 111.648 0 015.241-11.933 104.995 104.995 0 016.479-11.017 85.313 85.313 0 017.454-9.553c2.635-2.909 5.338-5.412 8.113-7.508 2.774-2.094 5.575-3.733 8.401-4.914 2.828-1.179 5.629-1.769 8.403-1.769 3.195 0 6.286.855 9.271 2.563 2.985 1.709 5.775 4.477 8.377 8.302.596.855.974 1.719 1.13 2.594.159.875.237 1.699.237 2.472 0 1.831-.447 3.277-1.342 4.334-.895 1.058-1.958 1.586-3.187 1.586-1.124 0-2.169-.58-3.135-1.738-.967-1.159-2.046-2.817-3.241-4.976-1.123-1.953-2.361-3.366-3.713-4.241-1.352-.875-2.818-1.313-4.398-1.313-2.459 0-5.084.997-7.875 2.991-2.793 1.994-5.558 4.63-8.296 7.905-2.741 3.276-5.365 7.02-7.876 11.231a116.23 116.23 0 00-6.664 12.94c-1.932 4.417-3.468 8.77-4.608 13.062-1.142 4.292-1.713 8.149-1.713 11.567 0 1.14.079 2.311.236 3.508.159 1.202.456 2.29.896 3.267.439.977 1.036 1.779 1.792 2.41.756.633 1.712.945 2.87.945 1.3 0 2.774-.426 4.425-1.281 1.65-.852 3.364-1.973 5.136-3.355a64.278 64.278 0 005.348-4.702 84.533 84.533 0 005.004-5.31 77.285 77.285 0 004.108-5.157c1.195-1.648 2.09-3.082 2.688-4.304l4.898-14.344c.597-1.545 1.378-2.644 2.345-3.296.965-.65 1.958-.976 2.977-.976.49 0 .981.082 1.474.244.493.163.93.417 1.318.762.387.346.693.794.921 1.343.228.55.341 1.191.341 1.922 0 1.953-.176 3.783-.527 5.494a42.744 42.744 0 01-1.342 5.005 86.155 86.155 0 01-1.818 4.913 121.203 121.203 0 00-1.949 5.159c-.139.204-.394.844-.764 1.92a333.11 333.11 0 00-3.054 9.524 1596.08 1596.08 0 01-1.896 6.165 464.33 464.33 0 00-1.87 6.164 1067.32 1067.32 0 00-1.606 5.463c-.475 1.626-.869 2.99-1.186 4.089a69.157 69.157 0 01-.579 1.955c-.177.648-.458 1.372-.842 2.165a14.43 14.43 0 01-1.372 2.259 8.333 8.333 0 01-1.738 1.77c-.632.467-1.282.701-1.95.701-1.123 0-1.94-.366-2.448-1.097-.51-.734-.763-2.077-.763-4.029v-.855c0-.284.017-.591.051-.914.034-.652.298-1.873.791-3.665a245.33 245.33 0 011.765-6.071 346.625 346.625 0 012.213-7.021c.789-2.422 1.5-4.586 2.133-6.5a103.45 103.45 0 01-6.058 6.074 65.082 65.082 0 01-6.691 5.432c-2.282 1.608-4.583 2.92-6.9 3.938-2.318 1.015-4.548 1.525-6.691 1.525-2.458 0-4.574-.529-6.348-1.588-.321-.191-.621-.407-.922-.62l7.176 73.601 4.177 6.537c12.261 7.709 43.551 13.192 80.313 13.218 33.486-.025 62.426-4.577 76.587-11.216l5.341-8.539 10.305-87.483c-.852.764-1.68 1.511-2.473 2.234-2.954 2.693-5.738 5.002-8.355 6.935z" fill="#FFF"/><path d="M1206.831 453.787c-2.615 1.933-5.171 3.43-7.663 4.486-2.495 1.058-5.164 1.588-8.009 1.588-2.669 0-4.732-.57-6.19-1.711-1.457-1.138-2.186-2.704-2.186-4.699v-.457c0-.141.017-.317.053-.52.14-1.219.686-2.626 1.634-4.211.947-1.588 2.088-3.237 3.422-4.944a136.091 136.091 0 014.267-5.189 244.27 244.27 0 004.19-4.975c1.279-1.564 2.342-2.999 3.185-4.302.845-1.303 1.266-2.36 1.266-3.174 0-.488-.177-.874-.527-1.161-.352-.282-.932-.427-1.738-.427-1.405 0-2.855.357-4.346 1.068-1.493.711-2.97 1.669-4.427 2.87a39.813 39.813 0 00-4.267 4.119 60.653 60.653 0 00-3.897 4.822 64.484 64.484 0 00-3.317 5.036 70.232 70.232 0 00-2.556 4.669c-.211.447-.509 1.08-.896 1.892a128.95 128.95 0 00-1.264 2.747 167.83 167.83 0 01-1.449 3.141 135.537 135.537 0 00-1.395 3.054l-1.131 2.563a61.707 61.707 0 01-.712 1.557c-.177.367-.465 1.056-.869 2.074a504.024 504.024 0 00-1.395 3.571l-1.66 4.304c-.577 1.505-1.123 2.93-1.633 4.273-.509 1.341-.958 2.522-1.341 3.54-.388 1.016-.635 1.708-.74 2.074a21.927 21.927 0 01-1.236 2.992 12.297 12.297 0 01-1.633 2.472 7.42 7.42 0 01-2.109 1.708c-.791.43-1.677.642-2.658.642-1.267 0-2.31-.297-3.137-.887-.822-.588-1.236-1.719-1.236-3.387 0-.814.105-1.648.316-2.501.211-.855.475-1.701.791-2.534.316-.836.642-1.648.974-2.44.334-.795.642-1.558.92-2.29 1.898-4.069 3.83-8.149 5.795-12.238a556.53 556.53 0 005.664-12.146c.377-.836.722-1.655 1.089-2.485-.11.105-.218.215-.326.318-2.284 2.159-4.556 4.061-6.82 5.708-2.268 1.648-4.516 2.96-6.743 3.937-2.23.975-4.4 1.463-6.507 1.463-1.44 0-2.642-.223-3.607-.671-.966-.447-1.739-1.058-2.319-1.829-.58-.774-.994-1.689-1.239-2.747-.082-.362-.134-.741-.188-1.116-.616.47-1.238.927-1.865 1.36-2.176 1.505-4.318 2.716-6.427 3.631-2.106.915-4.002 1.372-5.687 1.372-1.687 0-3.056-.548-4.111-1.648-1.053-1.097-1.579-2.97-1.579-5.614 0-1.872.282-4.05.842-6.531-.913 1.588-2.054 3.194-3.422 4.822a29.735 29.735 0 01-4.688 4.457c-1.758 1.342-3.724 2.431-5.901 3.265-2.178.834-4.549 1.25-7.111 1.25-1.16 0-2.273-.141-3.346-.426a7.061 7.061 0 01-2.818-1.466c-.808-.689-1.456-1.616-1.949-2.776-.493-1.16-.737-2.616-.737-4.364 0-.041.07-.661.21-1.864.14-1.201.588-3.092 1.343-5.677.756-2.581 1.923-5.93 3.502-10.041 1.582-4.111 3.811-9.094 6.692-14.952.737-1.548 1.589-2.657 2.553-3.327.967-.672 2.011-1.008 3.134-1.008.493 0 1.002.072 1.528.213a4.982 4.982 0 011.477.672c.455.304.825.692 1.107 1.159.279.467.421 1.005.421 1.616 0 .407-.054.795-.159 1.159-.177.694-.553 1.598-1.131 2.716a313.524 313.524 0 01-2.029 3.847 338.118 338.118 0 00-2.448 4.671 65.6 65.6 0 00-2.397 5.187 51.102 51.102 0 00-1.897 5.464c-.528 1.851-.826 3.653-.895 5.4 0 .734.174 1.404.527 2.015.349.611.93.915 1.738.915 2.282 0 4.459-.733 6.533-2.196 2.07-1.466 3.983-3.287 5.741-5.464a52.447 52.447 0 004.767-7.02c1.423-2.503 2.607-4.79 3.555-6.867a34.428 34.428 0 001.765-4.456 43.641 43.641 0 011.66-4.395c.597-1.344 1.28-2.462 2.054-3.357.771-.894 1.739-1.342 2.897-1.342 1.266 0 2.266.469 3.004 1.404.737.937 1.104 2.056 1.104 3.355 0 .734-.235 1.742-.709 3.023a82.664 82.664 0 01-1.793 4.395c-.721 1.648-1.5 3.408-2.343 5.28a91.426 91.426 0 00-2.343 5.707 55.947 55.947 0 00-1.792 5.676c-.475 1.852-.71 3.571-.71 5.157 0 1.465.771 2.199 2.317 2.199 1.089 0 2.441-.367 4.056-1.099 1.616-.732 3.311-1.761 5.084-3.083.443-.331.888-.676 1.331-1.037.495-1.998 1.074-3.845 1.75-5.524a705.237 705.237 0 013.74-9.461c1.264-3.133 2.422-6.002 3.477-8.608l15.96-39.37c.632-1.586 1.484-2.706 2.553-3.357 1.072-.65 2.153-.976 3.242-.976 1.087 0 2.078.345 2.975 1.037.896.693 1.344 1.811 1.344 3.358 0 .732-.15 1.506-.448 2.319a27.867 27.867 0 01-1.133 2.625 472.896 472.896 0 00-3.134 7.02 924.78 924.78 0 00-3.897 9.034 1048.836 1048.836 0 00-4.268 10.163 4875.554 4875.554 0 01-4.267 10.284 1217.845 1217.845 0 00-3.897 9.492 2124.476 2124.476 0 00-3.134 7.782 33.831 33.831 0 00-1.131 3.267c-.369 1.241-.552 2.349-.552 3.327 0 .608.105 1.097.316 1.463.21.365.614.55 1.212.55.737 0 1.657-.254 2.764-.764 1.107-.507 2.299-1.181 3.581-2.015a57.16 57.16 0 004.003-2.869 126.246 126.246 0 004.135-3.355 113.793 113.793 0 003.925-3.48 141.458 141.458 0 003.347-3.205c.231-.234.507-.4.81-.525.593-1.731 1.133-3.43 1.611-5.089.282-.733.668-1.769 1.161-3.113a42.521 42.521 0 011.684-3.969c.632-1.301 1.344-2.43 2.133-3.387.791-.955 1.643-1.435 2.556-1.435 1.405 0 2.424.317 3.056.946.632.633.948 1.557.948 2.779 0 .244-.034.63-.106 1.159a37.938 37.938 0 01-.604 3.357c-.125.53-.237.915-.342 1.159a70.297 70.297 0 014.213-4.119 43.521 43.521 0 014.688-3.694 27.276 27.276 0 014.953-2.687c1.685-.69 3.371-1.036 5.056-1.036 1.158 0 2.309.163 3.45.488a10.07 10.07 0 013.056 1.434 7.569 7.569 0 012.186 2.38c.56.955.842 2.065.842 3.327 0 1.669-.428 3.448-1.29 5.341-.86 1.892-1.939 3.794-3.239 5.704a71.395 71.395 0 01-4.213 5.586 214.5 214.5 0 01-4.241 4.943 406.538 406.538 0 00-3.319 3.785c-.894 1.04-1.362 1.741-1.395 2.108 0 .488.159.884.475 1.191.316.304.842.457 1.579.457.598 0 1.477-.326 2.635-.977 1.158-.652 2.784-1.78 4.873-3.387 2.088-1.608 4.742-3.765 7.955-6.472a739.309 739.309 0 007.69-6.58l14.866-126.198h-.1c-15.077 7.062-57.433 14.522-107.333 14.522-49.893 0-92.252-7.46-107.331-14.522h-.124l11.294 115.833a98.058 98.058 0 012.004-5.973 111.648 111.648 0 015.241-11.933 104.995 104.995 0 016.479-11.017 85.313 85.313 0 017.454-9.553c2.635-2.909 5.338-5.412 8.113-7.508 2.774-2.094 5.575-3.733 8.401-4.914 2.828-1.179 5.629-1.769 8.403-1.769 3.195 0 6.286.855 9.271 2.563 2.985 1.709 5.775 4.477 8.377 8.302.596.855.974 1.719 1.13 2.594.159.875.237 1.699.237 2.472 0 1.831-.447 3.277-1.342 4.334-.895 1.058-1.958 1.586-3.187 1.586-1.124 0-2.169-.58-3.135-1.738-.967-1.159-2.046-2.817-3.241-4.976-1.123-1.953-2.361-3.366-3.713-4.241-1.352-.875-2.818-1.313-4.398-1.313-2.459 0-5.084.997-7.875 2.991-2.793 1.994-5.558 4.63-8.296 7.905-2.741 3.276-5.365 7.02-7.876 11.231a116.23 116.23 0 00-6.664 12.94c-1.932 4.417-3.468 8.77-4.608 13.062-1.142 4.292-1.713 8.149-1.713 11.567 0 1.14.079 2.311.236 3.508.159 1.202.456 2.29.896 3.267.439.977 1.036 1.779 1.792 2.41.756.633 1.712.945 2.87.945 1.3 0 2.774-.426 4.425-1.281 1.65-.852 3.364-1.973 5.136-3.355a64.278 64.278 0 005.348-4.702 84.533 84.533 0 005.004-5.31 77.285 77.285 0 004.108-5.157c1.195-1.648 2.09-3.082 2.688-4.304l4.898-14.344c.597-1.545 1.378-2.644 2.345-3.296.965-.65 1.958-.976 2.977-.976.49 0 .981.082 1.474.244.493.163.93.417 1.318.762.387.346.693.794.921 1.343.228.55.341 1.191.341 1.922 0 1.953-.176 3.783-.527 5.494a42.744 42.744 0 01-1.342 5.005 86.155 86.155 0 01-1.818 4.913 121.203 121.203 0 00-1.949 5.159c-.139.204-.394.844-.764 1.92a333.11 333.11 0 00-3.054 9.524 1596.08 1596.08 0 01-1.896 6.165 464.33 464.33 0 00-1.87 6.164 1067.32 1067.32 0 00-1.606 5.463c-.475 1.626-.869 2.99-1.186 4.089a69.157 69.157 0 01-.579 1.955c-.177.648-.458 1.372-.842 2.165a14.43 14.43 0 01-1.372 2.259 8.333 8.333 0 01-1.738 1.77c-.632.467-1.282.701-1.95.701-1.123 0-1.94-.366-2.448-1.097-.51-.734-.763-2.077-.763-4.029v-.855c0-.284.017-.591.051-.914.034-.652.298-1.873.791-3.665a245.33 245.33 0 011.765-6.071 346.625 346.625 0 012.213-7.021c.789-2.422 1.5-4.586 2.133-6.5a103.45 103.45 0 01-6.058 6.074 65.082 65.082 0 01-6.691 5.432c-2.282 1.608-4.583 2.92-6.9 3.938-2.318 1.015-4.548 1.525-6.691 1.525-2.458 0-4.574-.529-6.348-1.588-.321-.191-.621-.407-.922-.62l7.176 73.601 4.177 6.537c12.261 7.709 43.551 13.192 80.313 13.218 33.486-.025 62.426-4.577 76.587-11.216l5.341-8.539 10.305-87.483c-.852.764-1.68 1.511-2.473 2.234-2.954 2.693-5.738 5.002-8.355 6.935z" stroke="#000" stroke-width="1.583" fill="none"/><path d="M1126.384 288.321c-59.41 0-107.57 5.46-107.57 12.198 0 6.733 48.16 16.637 107.57 16.637 59.416 0 107.57-9.904 107.57-16.637 0-6.738-48.154-12.198-107.57-12.198zm19.184 19.245c-6.879 0-12.998-2.034-12.998-3.787 0-.672.906-1.384 2.402-2.008.83-1.495 5.251-2.638 10.596-2.638 5.261 0 9.633 1.107 10.56 2.568 1.645.641 2.661 1.382 2.661 2.08 0 1.751-6.341 3.785-13.221 3.785z" fill="#FFF"/><path d="M1126.384 288.321c-59.41 0-107.57 5.46-107.57 12.198 0 6.733 48.16 16.637 107.57 16.637 59.416 0 107.57-9.904 107.57-16.637 0-6.738-48.154-12.198-107.57-12.198zm19.184 19.245c-6.879 0-12.998-2.034-12.998-3.787 0-.672.906-1.384 2.402-2.008.83-1.495 5.251-2.638 10.596-2.638 5.261 0 9.633 1.107 10.56 2.568 1.645.641 2.661 1.382 2.661 2.08 0 1.751-6.341 3.785-13.221 3.785z" stroke="#000" stroke-width="1.583" fill="none"/><path d="M1145.568 305.423c5.935 0 10.748-1.408 10.748-3.146 0-.197-.069-.39-.188-.577-2.484-.969-6.419-1.707-10.56-1.707-4.241 0-8.187.773-10.596 1.778-.09.165-.152.333-.152.507 0 1.737 4.811 3.145 10.748 3.145z" fill="#FFF"/><path d="M1145.568 305.423c5.935 0 10.748-1.408 10.748-3.146 0-.197-.069-.39-.188-.577-2.484-.969-6.419-1.707-10.56-1.707-4.241 0-8.187.773-10.596 1.778-.09.165-.152.333-.152.507 0 1.737 4.811 3.145 10.748 3.145z" stroke="#000" stroke-width="1.583" fill="none"/><path d="M1223.951 190.891l-14.372-10.566-57.853 59.552-16.5 62.32h20.851l16.134-55.279z" fill="#FFF"/><path d="M1223.951 190.891l-14.372-10.566-57.853 59.552-16.5 62.32h20.851l16.134-55.279z" stroke="#000" stroke-width="1.583" fill="none"/><g fill="#FFF"><path d="M420.304 430.99s-6.131 14.963-9.489 22.894c-3.646 8.624-17.545 12.913-17.545 12.913s7.205-7.392 7.205-26.12c0-7.856 10.368-10.98 10.368-10.98l9.461 1.293zM392.63 586.539s4.481 26.791 22.424 26.791c15.247 0 19.74-22.63 19.74-27.307l-42.164.516zm-61.052-298.263l-2.076-1.286c-6.119.202 2.076 1.286 2.076 1.286z"/><path d="M402.591 420.901s-9.683 4.327-20.507.803c-14.168-4.623-15.112-19.038-15.112-19.038s-8.692 24.953 15.678 29.756c19.545 3.852 31.105-7.228 31.105-7.228l-11.164-4.293zm6.881-126.554c-1.041-21.4 16.892-38.444 23.105-39.17.344 3.626-.346 17.771 5.866 22.121 1.809-11.553 7.924-24.291 32.073-32.636-5.172 13.419-.691 24.66 1.443 29.87 16.491-14.643 27.602-12.223 27.602-12.223s-11.458 19.342-6.977 32.033c-33.104-2.539-82.95 3.441-83.112.005zm-70.18 32.596c-7.899-6.41-2.011-12.36-2.635-19.643-.34-3.875-.653-7.532-1.959-9.549-7.268-11.228-24.416-14.635-24.587-14.671l-8.048-1.542 5.327-6.096c.691-.79 22.569-21.21 56.424-10.518 23.683 7.472 41.215 32.81 41.868 33.834l-11.875 5.462c-.14-.215-14-24.032-34.317-30.441-16.425-5.184-31.562-.252-38.046 2.981 6.893 2.692 15.905 7.594 21.335 15.981 2.561 3.961 2.993 8.948 3.411 13.777.55 6.393 1.065 12.428 5.875 16.337l-12.773 4.088z"/><path d="M406.776 423.008c.218.399.329.622.329.622s-16.284 11.955-32.972-.177c-8.933-6.5-8.089-22.578-5.352-29.396 7.116 1.577 13.153 4.422 18.198 7.743-6.376-5.567-11.958-9.666-11.943-9.76l-7.247-2.007-14.085-4.725c-.181 1.051-5.319 24.61 9.511 40.662 6.573 7.118 37.389 23.057 52.019-4.198l-8.458 1.236z"/><path d="M405.25 424.76c9.169 13.651 32.301 5.85 31.903-8.581 0 0-15.457 8.344-29.113-7.02-7.973-8.97-33.52-33.703-68.165-25.484 23.926 5.147 55.599 26.531 65.375 41.085z"/><path d="M336.638 463.286c2.206 1.247 9.984 9.127 9.989 20.913 0 5.91-.601 35.601-3.592 53.74 4.498 2.859 7.631 3.467 12.11 6.381 2.242-21.007 3.85-51.455 3.1-63.746-.857-14.011-8.525-23.414-15.637-27.424-2.227-1.253-4.554-2.485-6.897-3.724-12.181-6.439-24.777-13.099-24.777-24.472 0-8.897 3.535-11.68 7.279-14.629l.403-.32c2.484-1.963 5.295-4.189 6.96-7.845 4.544-9.995 5.287-35.455 0-41.918-2.635-3.221-9.697-14.051-7.667-21.328.774-2.778 2.562-4.836 5.473-6.295 3.08-1.543 7.242-2.326 12.365-2.326 10.063 0 21.224 2.997 26.982 4.78 20.576 6.38 45.404 24.774 52.521 30.26.204.153.324.243.345.257l4.554 3.098-2.848-4.662c-.175-.29-18.214-29.306-50.467-39.944-6.274-2.07-18.602-5.543-30.716-5.543-7.213 0-13.334 1.232-18.18 3.66-5.906 2.955-9.906 7.672-11.568 13.633-4.073 14.615 9.192 30.886 9.645 31.406 1.546 2.701 2.201 22.319-1.371 30.171-.492 1.084-1.839 2.15-3.544 3.496-.534.423-1.132.861-1.765 1.331-5.04 3.722-12.662 9.345-12.662 22.307 0 17.736 18.374 27.352 33.14 35.084 2.423 1.275 4.735 2.481 6.825 3.659zm81.371-37.723l-12.76-.803s3.262 5.625 5.375 12.899c2.386 8.229-2.182 20.254-2.182 20.254s17.013-18.843 9.567-32.35zm-15.928 214.299c-45.414-3.414-61.391-45.394-61.391-54.137l11.86.005-5.93-.005h5.93c.058 3.779 12.128 39.689 50.44 42.571l-.909 11.566z"/><path d="M375.589 586.88c-.393-1.128-.69-2.278-.982-3.435-.315-1.264-1.881-4.845.05-.757-.496-1.047-.821-2.126-1.06-3.213-30.681-.038-57.372-20.645-52.215-63.968-4.017-5.216-9.641 10.519-9.641 10.519s-15.359 43.628 24.309 60.537c13.217 5.64 24.898 9.681 27.654 8.05 5.741 1.141 10.923-2.774 12.866-5.349a28.835 28.835 0 01-.981-2.384z"/><path d="M388.766 558.368c.048-3.657.811-7.199 2.618-10.728.127-.243.273-.476.409-.712-11.806-.1-25.403-1.205-36.981-5.739-12.726-4.98-28.646-22.016-31.381-42.033 0 0-23.967 18.092-16.924 56.817 6.61 36.363 37.715 48.218 73.19 50.224.019-.236-3.99-8.337-2.723-13.296-20.144 1.432-42.669-6.181-53.543-23.685-9.955-16.02-7.163-43.372-3.072-47.379 9.981 30.806 45.891 37.068 68.407 36.531z"/><path d="M392.483 536.314c-6.384 18.326-19.423 33.157-19.423 33.157s17.937-.798 18.927-3.903c.733-2.289 16.196-37.7 22.131-79.182-5.583 8.973-21.088 48.358-21.635 49.928zm180.661-248.038l2.079-1.286c6.121.202-2.079 1.286-2.079 1.286zm-71.016 132.625s9.687 4.327 20.507.803c14.172-4.623 15.116-19.038 15.116-19.038s8.687 24.953-15.682 29.756c-19.542 3.852-31.104-7.228-31.104-7.228l11.163-4.293z"/><path d="M565.43 326.943c7.899-6.41 2.016-12.36 2.64-19.643.334-3.875.647-7.532 1.954-9.549 7.27-11.228 24.416-14.635 24.592-14.671l8.049-1.542-5.328-6.096c-.691-.79-22.568-21.21-56.429-10.518-23.679 7.472-41.211 32.81-41.862 33.834l11.87 5.462c.144-.215 14.005-24.032 34.323-30.441 16.423-5.184 31.56-.252 38.04 2.981-6.889 2.692-15.904 7.594-21.334 15.981-2.562 3.961-2.99 8.948-3.406 13.777-.55 6.393-1.071 12.428-5.881 16.337l12.772 4.088zm-67.481 96.065c-.218.399-.331.622-.331.622s16.279 11.955 32.967-.177c8.939-6.5 8.095-22.578 5.353-29.396-7.113 1.577-13.149 4.422-18.196 7.743 6.377-5.567 11.959-9.666 11.939-9.76l7.252-2.007 14.084-4.722c.181 1.05 5.317 24.609-9.518 40.662-6.571 7.117-37.387 23.057-52.014-4.198l8.464 1.233z"/><path d="M499.469 424.76c-9.168 13.651-32.294 5.85-31.894-8.581 0 0 15.451 8.344 29.107-7.02 7.973-8.97 33.525-33.703 68.169-25.484-23.924 5.147-55.601 26.531-65.382 41.085z"/><path d="M568.089 463.286c-2.207 1.247-9.989 9.127-9.989 20.913-.005 5.91.598 35.601 3.592 53.74-4.499 2.859-7.632 3.467-12.111 6.381-2.242-21.007-3.855-51.455-3.1-63.746.856-14.011 8.521-23.414 15.632-27.424 2.227-1.253 4.555-2.485 6.903-3.724 12.181-6.439 24.777-13.099 24.777-24.472 0-8.897-3.539-11.68-7.282-14.629l-.399-.32c-2.484-1.963-5.299-4.189-6.96-7.845-4.545-9.995-5.291-35.455-.005-41.918 2.636-3.221 9.702-14.051 7.672-21.328-.778-2.778-2.568-4.836-5.478-6.295-3.081-1.543-7.237-2.326-12.365-2.326-10.056 0-21.223 2.997-26.977 4.78-20.576 6.38-45.403 24.774-52.525 30.26-.203.153-.321.243-.344.257l-4.556 3.098 2.848-4.662c.181-.29 18.215-29.306 50.467-39.944 6.276-2.07 18.602-5.543 30.718-5.543 7.213 0 13.327 1.232 18.178 3.66 5.908 2.955 9.905 7.672 11.569 13.633 4.073 14.615-9.193 30.886-9.645 31.406-1.547 2.701-2.201 22.319 1.367 30.171.491 1.084 1.838 2.15 3.548 3.496.534.423 1.126.861 1.764 1.331 5.042 3.722 12.66 9.345 12.66 22.307 0 17.736-18.374 27.352-33.135 35.084-2.425 1.275-4.74 2.481-6.824 3.659z"/><path d="M546.17 324.856c-2.923-4.842-10.396-14.192-27.623-22.408-19.223-9.167-41.472-13.819-66.138-13.83v-.005h-.096v.003c-24.67.012-46.922 4.664-66.141 13.829-17.226 8.218-24.697 17.567-27.622 22.409l-1.255 1.624 14.751 3.212.468-.577.247-.53c.228-.953 2.205-6.102 18.652-13.948 17.582-8.389 38.089-12.642 60.946-12.649 22.859.007 43.357 4.26 60.938 12.649 16.448 7.846 18.431 12.995 18.657 13.948l.246.53.462.577 14.756-3.212-1.248-1.622zm-64.787 278.463c-6.162-6.444-9.807-13.38-10.688-15.51-.504-1.214-1.078-3.527.729-5.344 1.409-1.407 3.85-2.129 7.264-2.129h5.253c5.475 0 11.878 0 15.685.003l3.193.005c4.485 0 6.694 1.255 7.758 2.307 1.547 1.531 1.789 3.662.723 6.329-2.853 7.125-9.326 12.939-11.239 14.551-2.507 2.117-6.105 3.372-9.639 3.372-3.622 0-6.832-1.274-9.039-3.584zm5.334-177.756l12.752-.803s-3.257 5.625-5.37 12.899c-2.386 8.229 2.182 20.254 2.182 20.254s-17.014-18.843-9.564-32.35zm-34.353-44.564c-8.132 0-18.735-.218-26.691-5.811 0 0 10.417 17.863 26.677 17.863l.014-2.26.013 2.26c16.262 0 26.677-17.863 26.677-17.863-7.955 5.593-18.566 5.811-26.69 5.811z"/><path d="M474.754 380.913c-8.157 4.829-15.442 6.503-22.39 6.651-6.951-.148-14.233-1.822-22.391-6.651 0 0 11.879 14.181 22.33 14.29v.008c.019 0 .038-.005.059-.005.019 0 .038.005.059.005v-.008c10.449-.109 22.333-14.29 22.333-14.29zm27.889 258.949l-.909-11.567c38.303-2.882 50.372-38.792 50.435-42.571h11.86c.005 8.742-15.978 50.724-61.386 54.138z"/><path d="M529.129 586.88c.399-1.128.691-2.278.983-3.435.319-1.264 1.886-4.845-.048-.757.496-1.047.821-2.126 1.06-3.213 30.681-.038 57.372-20.645 52.21-63.968 4.016-5.216 9.644 10.519 9.644 10.519s15.361 43.628-24.307 60.537c-13.218 5.64-24.897 9.681-27.654 8.05-5.746 1.141-10.928-2.774-12.866-5.349.362-.791.701-1.583.978-2.384z"/><path d="M515.952 558.368c-.043-3.657-.811-7.199-2.613-10.728-.128-.243-.274-.476-.408-.712 11.805-.1 25.403-1.205 36.981-5.739 12.725-4.98 28.644-22.016 31.381-42.033 0 0 23.967 18.092 16.924 56.817-6.616 36.363-37.717 48.218-73.191 50.224-.018-.236 3.992-8.337 2.723-13.296 20.139 1.432 42.665-6.181 53.545-23.685 9.949-16.02 7.158-43.372 3.066-47.379-9.976 30.806-45.891 37.068-68.408 36.531z"/><path d="M530.277 567.489c-4.238-4.482-12.031-9.825-29.997-9.825l-47.857-.028h-.117c-13.792.01-47.864.028-47.864.028-17.962 0-25.754 5.344-29.995 9.825-6.177 6.523-7.145 15.597-2.872 26.94 11.355 30.189 27.312 60.861 80.728 60.904v.005c.02 0 .038-.005.059-.005.019 0 .038.005.059.005v-.005c53.411-.046 69.368-30.715 80.727-60.904 4.273-11.343 3.302-20.417-2.871-26.94zm-8.316 24.822c-5.41 15.16-19.95 51.855-69.6 51.919-49.657-.064-64.192-36.758-69.602-51.919-2.993-8.411-2.765-14.635.701-18.501 2.367-2.643 7.806-5.798 20.201-5.798l12.949-.005c9.553-.008 21.547-.018 35.752-.023 14.2.005 26.2.015 35.751.023l12.944.005c12.398 0 17.836 3.153 20.204 5.798 3.463 3.87 3.694 10.09.7 18.501z"/><path d="M512.238 536.314c6.383 18.326 19.421 33.157 19.421 33.157s-17.935-.798-18.926-3.903c-.728-2.289-16.193-37.7-22.128-79.182 5.58 8.973 21.085 48.358 21.633 49.928z"/></g><path d="M904.134 561.9l7.607-40.893c-10.777-1.902-33.601-7.925-41.843-12.68 6.974-6.656 17.435-22.506 23.775-37.405l18.068-2.536v-33.285h-74.177v33.285l6.34.634c-1.585 4.121-4.121 8.876-6.974 11.412-10.461-7.925-24.409-25.677-31.383-35.187 23.458-12.997 42.478-30.432 42.478-56.425 0-38.04-27.579-50.72-60.863-50.72-44.063 0-63.717 24.092-63.717 53.256 0 14.898 5.072 26.31 12.997 36.771-30.749 12.046-48.184 32.651-48.184 63.717 0 46.598 36.138 69.422 83.371 69.422 27.262 0 48.817-8.559 63.716-21.239 19.654 13.314 47.233 19.02 68.789 21.873zm-145.185-97.952c9.827 12.68 28.53 36.772 41.21 47.549-6.34 3.17-15.85 6.023-27.579 6.023-20.922 0-33.285-10.778-33.285-27.578 0-10.144 6.34-19.971 19.654-25.994zm23.141-48.818c-6.34-7.608-11.095-17.118-11.095-24.408 0-9.193 5.706-16.801 17.435-16.801 11.411 0 17.434 4.755 17.434 15.533 0 9.826-9.826 19.653-23.774 25.676z" fill="#BAE36F"/></svg>