<svg xmlns="http://www.w3.org/2000/svg" width="640" height="360" viewBox="0 0 1600 900"><path fill="#350000" d="M0 0h1600v900H0z"/><path d="M332.5 490.5c0 58.5 2.5 94.5 7 116 25.5 11 66 18.5 118 18.5 101 0 143.5-48.5 143.5-103.5 0-51.5-14-77.5-98-107.5l-42.5-15.5c-23-8-28-18.5-28-33.5 0-14.5 10.5-29.5 50-29.5 14.5 0 33 2.5 47.5 6.5l6 54h58c0-55-1-103.5-5-114.5-25.5-6.5-67-12-99.5-12-104.5 0-144.5 48-144.5 106 0 62 35.5 86 84 101l44 13c29 9 38 20 38 37.5 0 18-12 31.5-43.5 31.5-22 0-44-3-67-10l-8-58z" stroke="#FFF" stroke-width="10" stroke-dasharray="20,10" fill="none"/><path d="M792.5 277.5V330l-49 4c55 162.5 59 174.5 64 192.5 5-14.5 10-30 66.5-192.5l-50-4v-52.5h173.5V330l-36 4-107 281.5h-99L650 334l-35-4v-52.5h177.5zm-10 10H625v33.578l26.135 2.987 6.081.695 2.148 5.731L762.431 605.5h85.172l104.549-275.053 2.171-5.711 33.177-3.687V287.5H834v33.268l40.797 3.264 12.897 1.031-4.249 12.221c-24.809 71.353-41.499 119.565-52.551 151.717-5.855 17.033-13.718 40.113-13.94 40.759l-10.483 30.399-8.606-30.983c-4.897-17.628-8.694-29.047-63.837-191.97l-4.106-12.131 12.764-1.042 39.814-3.25V287.5zm518 310v-108l26-2V436h-148v51.5l43 3.5v54c-16.5 4.5-33.5 7-54.5 7-52.5 0-81.5-34-81.5-98 0-86 39.5-117.5 97-117.5 11.5 0 30 2.5 43 6l7.5 50.5h60.5c0-78-1.5-95.5-5-112-33.5-8-67-12.5-114.5-12.5-116 0-176.5 68-176.5 186.5 0 104.5 60.5 169.5 156 169.5 77.5 0 115.5-17 147-27z" fill="#FFF"/></svg>