<svg xmlns="http://www.w3.org/2000/svg" width="1600" height="900"><path fill="#1A1807" d="M0 0h1600v900H0z"/><path d="M730.919 458.728l-81.916 81.92c-38.904-18.554-86.863-11.833-119.075 20.379-49.355 49.355-24.842 108.338-24.842 108.338 2.464 5.907 8.174 7.045 12.694 2.516l53.273-53.278c4.529-4.519 11.922-4.519 16.451 0l32.904 32.904c4.52 4.529 4.52 11.918 0 16.438l-53.278 53.277c-4.52 4.525-3.391 10.249 2.512 12.69 0 0 58.987 24.513 108.338-24.833 32.217-32.217 38.942-80.176 20.379-119.081l80.533-80.537-45.146-47.578a45.744 45.744 0 01-2.827-3.155zm142.173-43.463l77.904-77.903c38.895 18.563 86.849 11.852 119.061-20.365 49.346-49.36 24.833-108.343 24.833-108.343-2.451-5.907-8.165-7.045-12.689-2.516l-53.269 53.278c-4.524 4.524-11.932 4.524-16.452 0l-32.903-32.904c-4.52-4.52-4.52-11.923 0-16.452l53.287-53.278c4.52-4.519 3.391-10.234-2.526-12.693 0 0-58.973-24.509-108.324 24.837-32.216 32.217-38.923 80.175-20.36 119.085l-79.286 79.282a50.11 50.11 0 013.137 2.822l47.587 45.15z" fill="#95926A"/><path d="M802.972 143.994s-82.936-23.478-160.12 53.711c-58.974 58.969-74.109 74.108-74.109 74.108-4.073 4.073-4.905 9.91-1.853 12.967 3.062 3.057 2.22 8.894-1.853 12.967l-14.815 14.819c-4.073 4.073-9.905 4.91-12.967 1.853-3.061-3.057-8.893-2.22-12.966 1.853l-22.237 22.237c-4.073 4.073-4.073 10.742 0 14.82l44.469 44.464c4.073 4.073 10.747 4.073 14.815 0l22.232-22.237c4.073-4.073 4.91-9.909 1.853-12.966-3.057-3.058-2.22-8.894 1.853-12.967l14.82-14.82c4.077-4.078 9.914-4.91 12.971-1.858 3.052 3.057 8.889 2.225 12.967-1.853l14.82-14.82 105.817 105.822c-1.825 6.98-.099 14.717 5.343 20.154l274.182 289.011c8.136 8.146 21.479 8.151 29.644 0l37.052-37.052c8.15-8.151 8.15-21.489 0-29.644L805.869 390.39c-5.442-5.441-13.174-7.168-20.158-5.338L679.894 279.23l14.82-14.82c4.073-4.077 4.077-10.751 0-14.819 0 0-11.114-11.114 25.938-48.171 41.694-41.689 82.79-51.989 82.79-51.989 5.414-1.98 5.207-4.421-.47-5.437z" fill="#D4D3C3"/></svg>