<svg xmlns="http://www.w3.org/2000/svg" width="1600" height="900"><path fill="#681B04" d="M0 0h1600v900H0z"/><path d="M942.639 107.345H900.9l43.406 47.101v22.42H854.9v-26.249h43.398L854.9 103.514V81.062h87.739v26.283zm-105.461 0h-41.739l43.404 47.101v22.42h-89.406v-26.249h43.403l-43.403-47.103V81.062h87.741v26.283zm-104.43 1.067h-45.04v41.106h45.04v27.348h-77.051V81.062h77.051v27.35zM594.322 733.927l-45.768-513.325h502.892l-45.81 513.242-205.944 57.094-205.37-57.011zm0 0" fill="#FFF"/><path d="M800.003 747.298l166.409-46.135 39.151-438.588h-205.56v484.723zm0 0" fill="#E6D9CD"/><g fill="#681B04"><path d="M800.002 448.55h83.308l5.753-64.469h-89.061v-62.959h157.867l-1.51 16.891-15.473 173.491H800.002V448.55zm.377 163.502l-.276.078-70.116-18.934-4.483-50.21h-63.196l8.818 98.849 128.962 35.802.291-.081v-65.504zm0 0"/><path d="M877.959 508.84l-7.581 84.314-70.217 18.952v65.501l129.064-35.772.947-10.634 10.952-122.361h-63.165zM800.22 321.122v62.959H648.148l-1.263-14.151-2.869-31.917-1.505-16.891H800.22zm-.218 127.435v62.957h-69.229l-1.261-14.149-2.871-31.917-1.504-16.891h74.865zm0 0"/></g></svg>