<svg xmlns="http://www.w3.org/2000/svg" width="1600" height="900"><path fill="#5FA316" d="M0 0h1600v900H0z"/><path d="M0 0h1600v900H0V0z" opacity=".691"/><path d="M1037.105 623.976V208.02H470.171v415.956h248.034v34.663h-106.3v34.664h283.466v-34.664h-106.3v-34.663h248.034zm-496.067-346.63h425.2V554.65h-425.2V277.346zm527.561-51.591v127.05c0 10.481 8.767 19.057 19.481 19.057h168.836c10.714 0 19.48-8.576 19.48-19.057v-127.05c0-10.482-8.766-19.058-19.48-19.058H1088.08c-10.714 0-19.481 8.576-19.481 19.058zm201.304 63.525c0 3.506-2.909 6.352-6.494 6.352-3.584 0-6.493-2.846-6.493-6.352 0-3.507 2.909-6.353 6.493-6.353 3.585 0 6.494 2.846 6.494 6.353zm-19.481-57.173v114.345h-155.848V232.107h155.848zm9.724 165.721h-75.835c-8.938 0-16.251 7.154-16.251 15.897v137.776c0 8.743 7.313 15.897 16.251 15.897h75.835c8.938 0 16.25-7.154 16.25-15.897V413.725c0-8.743-7.312-15.897-16.25-15.897zm-59.585 7.948h43.335v5.299h-43.335v-5.299zm21.667 151.024c-5.985 0-10.833-4.743-10.833-10.599 0-5.855 4.848-10.598 10.833-10.598 5.986 0 10.834 4.743 10.834 10.598 0 5.856-4.848 10.599-10.834 10.599zm43.335-31.795h-86.669V419.024h86.669v105.981zm-121.259 11.648h-68.134c-4.164 0-7.571 3.333-7.571 7.406v103.683c0 4.073 3.407 7.406 7.571 7.406h68.134c4.164 0 7.571-3.333 7.571-7.406V544.059c0-4.073-3.407-7.406-7.571-7.406zm-34.067 113.148c-3.251 0-5.89-2.581-5.89-5.762 0-3.181 2.639-5.762 5.89-5.762 3.252 0 5.89 2.581 5.89 5.762 0 3.181-2.638 5.762-5.89 5.762zm34.067-16.871h-68.134v-81.465h68.134v81.465zm0-235.102h-68.134c-4.164 0-7.571 3.332-7.571 7.406v103.683c0 4.073 3.407 7.405 7.571 7.405h68.134c4.164 0 7.571-3.332 7.571-7.405V405.234c0-4.074-3.407-7.406-7.571-7.406zm-34.067 113.147c-3.251 0-5.89-2.581-5.89-5.761 0-3.181 2.639-5.762 5.89-5.762 3.252 0 5.89 2.581 5.89 5.762 0 3.18-2.638 5.761-5.89 5.761zm34.067-16.87h-68.134V412.64h68.134v81.465z" fill="#CFCE7A"/></svg>