<svg xmlns="http://www.w3.org/2000/svg" width="1920" height="1080"><path fill="#F4F1C7" d="M0 0h1920v1080H0z"/><path d="M0 0h1920v1080H0V0z" opacity=".797"/><path d="M589.59 422.63l5.22-.63v-9.27h-23.13V422l5.13.63c-1.71 9.72-2.7 15.39-3.42 20.25-.99-4.32-2.34-8.64-8.19-28.26h-10.89c-5.31 18-6.39 22.68-7.83 28.35-.54-3.33-1.98-9.99-4.05-20.16l5.4-.81v-9.27h-25.38V422l5.49.81L536.4 458h16.11c4.14-13.14 5.76-18.63 6.93-23.58 1.26 5.31 2.52 10.35 6.03 23.58h15.93zm53.1 30.78l-4.5-8.82c-4.41 2.43-9.09 3.51-14.31 3.51-5.85 0-9-2.97-9.99-7.29-.18-.9-.18-2.43-.18-2.79h28.08c.18-1.53.27-3.33.27-3.96 0-11.61-3.15-22.86-19.89-22.86-12.24 0-22.95 8.19-22.95 24.93 0 13.86 7.83 23.31 21.15 23.31 8.37 0 15.21-1.89 22.32-6.03zm-14.31-24.84h-14.22c.63-4.23 3.6-7.29 7.74-7.29 4.59 0 6.57 2.25 6.57 5.58 0 .54 0 1.08-.09 1.71zm24.48 27.81c6.12 1.8 13.23 2.88 20.52 2.88 14.49 0 23.58-8.28 23.58-25.38 0-14.85-5.58-22.23-15.39-22.23-5.58 0-11.43 2.97-14.85 5.67v-26.01c-5.94 0-14.76 1.71-21.69 3.51V404h7.83zm13.95-8.55v-22.86c2.7-.9 5.04-1.53 7.92-1.53 3.87 0 7.02 3.6 7.02 11.79 0 9.63-3.6 13.14-9.18 13.14-2.16 0-3.87-.18-5.76-.54zm85.5-13.68c0-14.76-7.02-22.95-22.32-22.95-16.92 0-25.11 8.64-25.11 25.02 0 15.03 8.37 23.22 22.95 23.22 16.2 0 24.48-8.91 24.48-25.29zm-15.12 1.62c0 10.35-3.33 13.14-8.91 13.14-5.22 0-8.64-2.7-8.64-14.13 0-8.1 2.34-13.14 9.18-13.14 7.11 0 8.37 5.31 8.37 14.13zM790.56 458l14.04-35.19 5.49-.81v-9.27h-25.74V422l5.49.63c-3.06 8.91-5.31 16.2-7.11 22.23-2.07-6.3-4.05-13.23-7.56-22.23l5.67-.63v-9.27h-26.37V422l5.49.81L774 458zm30.24 23.49c11.61-3.15 21.6-8.46 27.54-24.93l12.06-33.75 5.49-.81v-9.27h-25.47V422l5.49.63c-2.97 8.91-4.86 17.01-6.57 23.04-2.07-5.85-4.41-13.5-8.1-23.04l5.67-.63v-9.27H810.9V422l5.49.81 13.5 35.19h2.34c-2.16 6.12-8.28 9.9-15.75 12.06zm19.89-73.89l14.85-14.4h-14.22l-10.8 14.4zm78.93 50.4v-9.36l-8.91-.81v-24.3h9.36v-10.8h-9.36v-2.25c0-2.79.27-4.68 1.17-6.03.99-1.35 2.97-1.8 5.67-1.8 1.53 0 3.33.09 5.31.36l1.35-10.17c-2.52-.54-7.47-.99-10.53-.99-5.85 0-10.53 1.8-13.32 4.86-2.52 2.61-3.69 7.02-3.69 13.32v2.7c-1.35 0-5.4.27-7.74.81v9.99h7.74v24.3l-7.38.81V458zm35.64 0v-9.36l-8.73-.9v-21.69c3.15-1.53 7.2-2.16 10.62-2.16 2.52 0 4.32.18 5.13.27v-12.42c-.81-.09-2.07-.18-2.88-.18-5.58 0-10.44 2.97-13.05 7.47v-7.65c-7.02.09-15.03 1.26-21.6 3.42v9.18h7.74v23.85l-7.38.81V458zm56.7-23.85c0-14.76-7.02-22.95-22.32-22.95-16.92 0-25.11 8.64-25.11 25.02 0 15.03 8.37 23.22 22.95 23.22 16.2 0 24.48-8.91 24.48-25.29zm-15.12 1.62c0 10.35-3.33 13.14-8.91 13.14-5.22 0-8.64-2.7-8.64-14.13 0-8.1 2.34-13.14 9.18-13.14 7.11 0 8.37 5.31 8.37 14.13zm50.67 22.23v-9.36l-7.38-.81v-22.86c3.15-1.17 6.12-1.53 8.82-1.53 1.89 0 3.42.54 3.78 2.52.27 1.53.27 4.5.27 8.82V458h21.78v-9.36l-7.56-.81v-16.02c0-5.04 0-9.18-.36-11.79-.72-5.4-3.33-8.55-10.26-8.55-4.23 0-11.52 2.52-16.47 6.12l-.27-6.21c-6.12 0-15.75 1.53-21.51 3.42v9.18h7.74v23.85l-7.38.81V458zm63.45-1.17l-1.71-10.35c-2.16.36-4.68.45-5.94.45-1.98 0-3.51-.45-4.32-1.62-.99-1.35-1.35-3.24-1.35-6.93v-14.85h10.8v-10.8h-10.8v-12.15l-13.5.9c-.36 5.76-.54 8.28-.54 11.25-1.17 0-5.67.27-8.37.9v9.9h8.19v17.91c0 5.94.9 10.53 2.79 13.05 1.89 2.61 5.76 4.23 10.35 4.23 5.94 0 11.07-.81 14.4-1.89zm47.61-3.42l-4.5-8.82c-4.41 2.43-9.09 3.51-14.31 3.51-5.85 0-9-2.97-9.99-7.29-.18-.9-.18-2.43-.18-2.79h28.08c.18-1.53.27-3.33.27-3.96 0-11.61-3.15-22.86-19.89-22.86-12.24 0-22.95 8.19-22.95 24.93 0 13.86 7.83 23.31 21.15 23.31 8.37 0 15.21-1.89 22.32-6.03zm-14.31-24.84h-14.22c.63-4.23 3.6-7.29 7.74-7.29 4.59 0 6.57 2.25 6.57 5.58 0 .54 0 1.08-.09 1.71zm49.23 29.43v-9.36l-7.38-.81v-22.86c3.15-1.17 6.12-1.53 8.82-1.53 1.89 0 3.42.54 3.78 2.52.27 1.53.27 4.5.27 8.82V458h21.78v-9.36l-7.56-.81v-16.02c0-5.04 0-9.18-.36-11.79-.72-5.4-3.33-8.55-10.26-8.55-4.23 0-11.52 2.52-16.47 6.12l-.27-6.21c-6.12 0-15.75 1.53-21.51 3.42v9.18h7.74v23.85l-7.38.81V458zm82.44-9.81h-7.2v-56.97c-7.29.09-15.39 1.62-22.68 3.6V404h8.37v8.91c-2.16-.81-5.76-1.17-8.1-1.17-11.25 0-21.6 6.75-21.6 24.66 0 14.22 7.56 22.5 17.64 22.5 4.95 0 9.18-1.98 12.78-5.31l.81 5.22c6.75 0 14.31-.63 19.98-1.8zm-21.51-2.79c-2.88 1.53-5.4 2.25-7.2 2.25-4.41 0-7.83-2.34-7.83-11.97 0-10.35 4.59-12.24 9.18-12.24 1.62 0 3.69.18 5.85.63z" fill="#F4F1C7"/><path d="M813.5 452.5h0m0 0v-4" stroke="#000" stroke-linecap="round" fill="none"/><path d="M951.07 242v-6.24l-5.82-.6V220.7c2.1-1.02 4.8-1.44 7.08-1.44 1.68 0 2.88.12 3.42.18v-8.28c-.54-.06-1.38-.12-1.92-.12-3.72 0-6.96 1.98-8.7 4.98v-5.1c-4.68.06-10.02.84-14.4 2.28v6.12h5.16v15.9l-4.92.54V242zm35.16-3.06l-3-5.88c-2.94 1.62-6.06 2.34-9.54 2.34-3.9 0-6-1.98-6.66-4.86-.12-.6-.12-1.62-.12-1.86h18.72c.12-1.02.18-2.22.18-2.64 0-7.74-2.1-15.24-13.26-15.24-8.16 0-15.3 5.46-15.3 16.62 0 9.24 5.22 15.54 14.1 15.54 5.58 0 10.14-1.26 14.88-4.02zm-9.54-16.56h-9.48c.42-2.82 2.4-4.86 5.16-4.86 3.06 0 4.38 1.5 4.38 3.72 0 .36 0 .72-.06 1.14zm14.04 8.64c0 5.82.24 8.7.72 10.26 3.54 1.08 7.86 1.68 11.94 1.68 9.9 0 13.62-5.28 13.62-10.14 0-4.26-1.5-7.92-8.1-9.42l-4.98-1.14c-1.68-.36-2.28-1.32-2.28-2.4 0-1.32 1.02-2.46 3.48-2.46.9 0 2.34.06 3.84.42l.72 4.2h6.54c0-3.6-.12-8.46-.78-10.14-2.52-.66-6.54-1.08-9.96-1.08-9.54 0-13.74 4.62-13.74 9.6 0 5.88 3.06 8.34 7.92 9.6l4.74 1.2c1.5.42 2.28 1.02 2.28 2.46 0 1.14-.66 2.4-3.42 2.4-1.68 0-3.84-.36-5.04-.9l-.96-4.14zm49.5 25.74v-6.24l-6-.54v-7.68c1.44.18 2.88.24 4.38.24 9.6 0 15.72-5.4 15.72-16.8 0-9.9-3.66-14.88-9.9-14.88-3.9 0-8.1 2.1-10.2 3.84l-.18-3.9c-4.68.18-9.6.9-14.34 2.28v6.12h5.22v30.78l-4.92.54v6.24zm-6-21.9V219.8c1.8-.6 3.36-.96 5.22-.96 2.88 0 4.74 2.28 4.74 7.8 0 6.42-2.46 8.64-6.12 8.64-1.44 0-2.64-.18-3.84-.42zm57-8.76c0-9.84-4.68-15.3-14.88-15.3-11.28 0-16.74 5.76-16.74 16.68 0 10.02 5.58 15.48 15.3 15.48 10.8 0 16.32-5.94 16.32-16.86zm-10.08 1.08c0 6.9-2.22 8.76-5.94 8.76-3.48 0-5.76-1.8-5.76-9.42 0-5.4 1.56-8.76 6.12-8.76 4.74 0 5.58 3.54 5.58 9.42zm33.78 14.82v-6.24l-4.92-.54v-15.24c2.1-.78 4.08-1.02 5.88-1.02 1.26 0 2.28.36 2.52 1.68.18 1.02.18 3 .18 5.88V242h14.52v-6.24l-5.04-.54v-10.68c0-3.36 0-6.12-.24-7.86-.48-3.6-2.22-5.7-6.84-5.7-2.82 0-7.68 1.68-10.98 4.08l-.18-4.14c-4.08 0-10.5 1.02-14.34 2.28v6.12h5.16v15.9l-4.92.54V242zm49.44 0c.3-1.38.72-5.16.72-13.08h-6.6l-1.14 6.3h-9.3c3.12-3.24 5.76-6.06 15.78-17.28v-6.12h-26.64c-.42 1.44-.78 4.74-.78 12.36h6.36l1.2-5.82h7.14c-3.36 3.6-6.12 6.96-15.3 17.58V242zm18.06-39.12c0-3.78-2.1-4.98-4.92-4.98-2.76 0-5.1 1.38-5.1 4.98 0 3.6 2.34 4.92 4.92 4.92 3 0 5.1-1.56 5.1-4.92zm5.82 39.12v-6.24l-4.92-.54v-24.3c-4.74 0-10.02.9-14.52 2.22v6.18h5.16v15.9l-4.92.54V242zm25.2 0l9.36-23.46 3.66-.54v-6.18h-17.16V218l3.66.42c-2.04 5.94-3.54 10.8-4.74 14.82-1.38-4.2-2.7-8.82-5.04-14.82l3.78-.42v-6.18h-17.58V218l3.66.54 9.36 23.46zm34.98 0v-6.24l-4.92-.54v-15.24c2.1-.78 4.08-1.02 5.88-1.02 1.26 0 2.28.36 2.52 1.68.18 1.02.18 3 .18 5.88V242h14.52v-6.24l-5.04-.54v-10.68c0-3.36 0-6.12-.24-7.86-.48-3.6-2.22-5.7-6.84-5.7-2.82 0-7.68 1.68-10.98 4.08l-.18-4.14c-4.08 0-10.5 1.02-14.34 2.28v6.12h5.16v15.9l-4.92.54V242zm31.44-33.6l9.9-9.6h-9.48l-7.2 9.6zm8.7 33.6v-6.24l-4.92-.54v-24.3c-4.74 0-10.02.9-14.52 2.22v6.18h5.16v15.9l-4.92.54V242zm51.66-6.54h-4.8v-37.98c-4.86.06-10.26 1.08-15.12 2.4V206h5.58v5.94c-1.44-.54-3.84-.78-5.4-.78-7.5 0-14.4 4.5-14.4 16.44 0 9.48 5.04 15 11.76 15 3.3 0 6.12-1.32 8.52-3.54l.54 3.48c4.5 0 9.54-.42 13.32-1.2zm-14.34-1.86c-1.92 1.02-3.6 1.5-4.8 1.5-2.94 0-5.22-1.56-5.22-7.98 0-6.9 3.06-8.16 6.12-8.16 1.08 0 2.46.12 3.9.42zm46.62 5.34l-3-5.88c-2.94 1.62-6.06 2.34-9.54 2.34-3.9 0-6-1.98-6.66-4.86-.12-.6-.12-1.62-.12-1.86h18.72c.12-1.02.18-2.22.18-2.64 0-7.74-2.1-15.24-13.26-15.24-8.16 0-15.3 5.46-15.3 16.62 0 9.24 5.22 15.54 14.1 15.54 5.58 0 10.14-1.26 14.88-4.02zm-9.54-16.56h-9.48c.42-2.82 2.4-4.86 5.16-4.86 3.06 0 4.38 1.5 4.38 3.72 0 .36 0 .72-.06 1.14zm14.04 8.64c0 5.82.24 8.7.72 10.26 3.54 1.08 7.86 1.68 11.94 1.68 9.9 0 13.62-5.28 13.62-10.14 0-4.26-1.5-7.92-8.1-9.42l-4.98-1.14c-1.68-.36-2.28-1.32-2.28-2.4 0-1.32 1.02-2.46 3.48-2.46.9 0 2.34.06 3.84.42l.72 4.2h6.54c0-3.6-.12-8.46-.78-10.14-2.52-.66-6.54-1.08-9.96-1.08-9.54 0-13.74 4.62-13.74 9.6 0 5.88 3.06 8.34 7.92 9.6l4.74 1.2c1.5.42 2.28 1.02 2.28 2.46 0 1.14-.66 2.4-3.42 2.4-1.68 0-3.84-.36-5.04-.9l-.96-4.14zm44.22-28.14c0-3.78-2.1-4.98-4.92-4.98-2.76 0-5.1 1.38-5.1 4.98 0 3.6 2.34 4.92 4.92 4.92 3 0 5.1-1.56 5.1-4.92zm5.82 39.12v-6.24l-4.92-.54v-24.3c-4.74 0-10.02.9-14.52 2.22v6.18h5.16v15.9l-4.92.54V242zm12.48-9.6c1.2.36 2.7.54 4.2.54 7.38 0 13.08-3.6 13.08-10.68 0-.9-.12-2.28-.54-3.24h4.38v-6.78h-9.24c-1.74-.9-4.2-1.44-7.44-1.44-9.66 0-13.5 5.52-13.5 11.4 0 3.6 1.56 7.02 4.38 8.52-2.76 3-3.78 4.92-3.78 6.84 0 2.4 1.32 4.14 3.84 4.92-4.08 1.8-5.94 4.2-5.94 6.9 0 3.84 2.82 8.22 13.74 8.22 11.4 0 17.34-5.22 17.34-11.94 0-5.1-2.4-8.28-9.3-9.06l-10.02-1.14c-1.5-.18-1.92-.84-1.92-1.5 0-.42.18-1.02.72-1.56zm.3 11.34l5.1.3c3.9.24 4.86 1.56 4.86 3.48 0 1.56-1.86 3.3-5.46 3.3-4.98 0-6.42-1.62-6.42-3.24 0-1.26.6-2.52 1.92-3.84zm8.16-21.72c0 3-1.5 4.56-4.2 4.56-2.52 0-3.9-1.44-3.9-4.5 0-2.4 1.02-4.68 4.02-4.68 3.12 0 4.08 2.16 4.08 4.62zm35.22 19.98v-6.24l-4.92-.54v-15.24c2.1-.78 4.08-1.02 5.88-1.02 1.26 0 2.28.36 2.52 1.68.18 1.02.18 3 .18 5.88V242h14.52v-6.24l-5.04-.54v-10.68c0-3.36 0-6.12-.24-7.86-.48-3.6-2.22-5.7-6.84-5.7-2.82 0-7.68 1.68-10.98 4.08l-.18-4.14c-4.08 0-10.5 1.02-14.34 2.28v6.12h5.16v15.9l-4.92.54V242zM366.74 620h15.3c3.78 0 7.02-.06 11.52-.72 6.48-.96 10.56-4.68 10.56-11.28 0-5.76-3.48-8.76-9.72-9.48 5.64-1.68 8.04-4.56 8.04-9.54 0-4.98-2.82-7.92-8.82-8.94-2.52-.42-7.56-.6-10.98-.6h-15.9v6.3l5.76.54v26.88l-5.76.54zm15.72-16.92h3c1.14 0 2.52.06 3.72.18 2.64.24 4.14 1.8 4.14 4.38 0 2.22-1.02 3.48-2.82 4.14-1.2.42-3.12.42-4.62.42h-3.42zm0-7.74v-8.1h3.3c1.44 0 3.3.12 4.2.6 1.26.66 1.98 1.62 1.98 3.3 0 2.1-1.08 3.3-2.7 3.78-1.02.3-2.52.42-4.02.42zm58.74 8.76c0-9.84-4.68-15.3-14.88-15.3-11.28 0-16.74 5.76-16.74 16.68 0 10.02 5.58 15.48 15.3 15.48 10.8 0 16.32-5.94 16.32-16.86zm-10.08 1.08c0 6.9-2.22 8.76-5.94 8.76-3.48 0-5.76-1.8-5.76-9.42 0-5.4 1.56-8.76 6.12-8.76 4.74 0 5.58 3.54 5.58 9.42zm46.98-1.08c0-9.84-4.68-15.3-14.88-15.3-11.28 0-16.74 5.76-16.74 16.68 0 10.02 5.58 15.48 15.3 15.48 10.8 0 16.32-5.94 16.32-16.86zm-10.08 1.08c0 6.9-2.22 8.76-5.94 8.76-3.48 0-5.76-1.8-5.76-9.42 0-5.4 1.56-8.76 6.12-8.76 4.74 0 5.58 3.54 5.58 9.42zm35.94 14.04l-1.14-6.9c-1.44.24-3.12.3-3.96.3-1.32 0-2.34-.3-2.88-1.08-.66-.9-.9-2.16-.9-4.62v-9.9h7.2v-7.2h-7.2v-8.1l-9 .6c-.24 3.84-.36 5.52-.36 7.5-.78 0-3.78.18-5.58.6v6.6h5.46v11.94c0 3.96.6 7.02 1.86 8.7 1.26 1.74 3.84 2.82 6.9 2.82 3.96 0 7.38-.54 9.6-1.26zm3.24-10.2c0 5.82.24 8.7.72 10.26 3.54 1.08 7.86 1.68 11.94 1.68 9.9 0 13.62-5.28 13.62-10.14 0-4.26-1.5-7.92-8.1-9.42l-4.98-1.14c-1.68-.36-2.28-1.32-2.28-2.4 0-1.32 1.02-2.46 3.48-2.46.9 0 2.34.06 3.84.42l.72 4.2h6.54c0-3.6-.12-8.46-.78-10.14-2.52-.66-6.54-1.08-9.96-1.08-9.54 0-13.74 4.62-13.74 9.6 0 5.88 3.06 8.34 7.92 9.6l4.74 1.2c1.5.42 2.28 1.02 2.28 2.46 0 1.14-.66 2.4-3.42 2.4-1.68 0-3.84-.36-5.04-.9l-.96-4.14zm52.32 10.2l-1.14-6.9c-1.44.24-3.12.3-3.96.3-1.32 0-2.34-.3-2.88-1.08-.66-.9-.9-2.16-.9-4.62v-9.9h7.2v-7.2h-7.2v-8.1l-9 .6c-.24 3.84-.36 5.52-.36 7.5-.78 0-3.78.18-5.58.6v6.6h5.46v11.94c0 3.96.6 7.02 1.86 8.7 1.26 1.74 3.84 2.82 6.9 2.82 3.96 0 7.38-.54 9.6-1.26zm22.14.78v-6.24l-5.82-.6V598.7c2.1-1.02 4.8-1.44 7.08-1.44 1.68 0 2.88.12 3.42.18v-8.28c-.54-.06-1.38-.12-1.92-.12-3.72 0-6.96 1.98-8.7 4.98v-5.1c-4.68.06-10.02.84-14.4 2.28v6.12h5.16v15.9l-4.92.54V620zm37.98-6.84h-4.8v-12.9c0-4.26-.54-6.72-1.56-8.34-1.32-2.16-3.96-3.12-8.34-3.12-3.6 0-10.38 1.02-14.88 2.52l1.32 6.42c3.96-.96 8.16-1.26 10.26-1.26 2.04 0 3 .36 3.54 1.08.36.6.48 1.74.48 2.94v.84c-4.56.18-8.82.6-12.24 1.68-3.54 1.08-5.82 3.78-5.82 8.16 0 4.8 3 9.54 9.9 9.54 2.52 0 6.06-.84 8.7-3.66l.54 3.48c4.32 0 9.78-.66 12.9-1.5zm-13.86-1.14c-1.38 1.26-3.72 2.04-5.34 2.04-2.04 0-3.18-1.2-3.18-3.12 0-1.32.66-2.4 2.22-2.94 2.04-.72 5.16-.84 6.3-.96zm35.76 22.74v-6.24l-6-.54v-7.68c1.44.18 2.88.24 4.38.24 9.6 0 15.72-5.4 15.72-16.8 0-9.9-3.66-14.88-9.9-14.88-3.9 0-8.1 2.1-10.2 3.84l-.18-3.9c-4.68.18-9.6.9-14.34 2.28v6.12h5.22v30.78l-4.92.54v6.24zm-6-21.9V597.8c1.8-.6 3.36-.96 5.22-.96 2.88 0 4.74 2.28 4.74 7.8 0 6.42-2.46 8.64-6.12 8.64-1.44 0-2.64-.18-3.84-.42zm602.02-9.02v-12.96l3.12-.24v-6.18h-17.76v6.18l5.16.42v6.48c-1.98.54-4.02.84-6.54.84-6.3 0-9.78-4.08-9.78-11.76 0-10.32 4.74-14.1 11.64-14.1 1.38 0 3.6.3 5.16.72l.9 6.06h7.26c0-9.36-.18-11.46-.6-13.44-4.02-.96-8.04-1.5-13.74-1.5-13.92 0-21.18 8.16-21.18 22.38 0 12.54 7.26 20.34 18.72 20.34 9.3 0 13.86-2.04 17.64-3.24zm26.76 2.16v-6.24l-5.82-.6V584.7c2.1-1.02 4.8-1.44 7.08-1.44 1.68 0 2.88.12 3.42.18v-8.28c-.54-.06-1.38-.12-1.92-.12-3.72 0-6.96 1.98-8.7 4.98v-5.1c-4.68.06-10.02.84-14.4 2.28v6.12h5.16v15.9l-4.92.54V606zm43.68-.66v-5.88h-4.8v-24.24c-4.8 0-10.2.78-14.52 1.8v5.88h4.98v14.94c-2.04.72-3.78 1.08-5.52 1.08-1.62 0-2.64-.9-2.88-2.28-.18-1.02-.18-2.52-.18-5.34v-16.08c-4.38 0-9.78.72-14.34 1.74v5.94h4.86v10.38c0 2.82.06 5.4.24 7.14.48 3.9 2.76 6.42 7.98 6.42 3.42 0 7.02-1.5 10.26-4.02l.6 3.72c4.62 0 10.68-.6 13.32-1.2zm22.02.66v-6.24l-4.92-.54v-15.24c2.1-.78 4.08-1.02 5.88-1.02 1.26 0 2.28.36 2.52 1.68.18 1.02.18 3 .18 5.88V606h14.52v-6.24l-5.04-.54v-10.68c0-3.36 0-6.12-.24-7.86-.48-3.6-2.22-5.7-6.84-5.7-2.82 0-7.68 1.68-10.98 4.08l-.18-4.14c-4.08 0-10.5 1.02-14.34 2.28v6.12h5.16v15.9l-4.92.54V606zm42.3-.78l-1.14-6.9c-1.44.24-3.12.3-3.96.3-1.32 0-2.34-.3-2.88-1.08-.66-.9-.9-2.16-.9-4.62v-9.9h7.2v-7.2h-7.2v-8.1l-9 .6c-.24 3.84-.36 5.52-.36 7.5-.78 0-3.78.18-5.58.6v6.6h5.46v11.94c0 3.96.6 7.02 1.86 8.7 1.26 1.74 3.84 2.82 6.9 2.82 3.96 0 7.38-.54 9.6-1.26zm44.22 1.74l1.44-7.74c-2.04-.36-6.36-1.5-7.92-2.4 1.32-1.26 3.3-4.26 4.5-7.08l3.42-.48v-6.3h-14.04v6.3l1.2.12c-.3.78-.78 1.68-1.32 2.16-1.98-1.5-4.62-4.86-5.94-6.66 4.44-2.46 8.04-5.76 8.04-10.68 0-7.2-5.22-9.6-11.52-9.6-8.34 0-12.06 4.56-12.06 10.08 0 2.82.96 4.98 2.46 6.96-5.82 2.28-9.12 6.18-9.12 12.06 0 8.82 6.84 13.14 15.78 13.14 5.16 0 9.24-1.62 12.06-4.02 3.72 2.52 8.94 3.6 13.02 4.14zm-27.48-18.54c1.86 2.4 5.4 6.96 7.8 9-1.2.6-3 1.14-5.22 1.14-3.96 0-6.3-2.04-6.3-5.22 0-1.92 1.2-3.78 3.72-4.92zm4.38-9.24c-1.2-1.44-2.1-3.24-2.1-4.62 0-1.74 1.08-3.18 3.3-3.18 2.16 0 3.3.9 3.3 2.94 0 1.86-1.86 3.72-4.5 4.86zm66.06 24.66v-12.96l3.12-.24v-6.18h-17.76v6.18l5.16.42v6.48c-1.98.54-4.02.84-6.54.84-6.3 0-9.78-4.08-9.78-11.76 0-10.32 4.74-14.1 11.64-14.1 1.38 0 3.6.3 5.16.72l.9 6.06h7.26c0-9.36-.18-11.46-.6-13.44-4.02-.96-8.04-1.5-13.74-1.5-13.92 0-21.18 8.16-21.18 22.38 0 12.54 7.26 20.34 18.72 20.34 9.3 0 13.86-2.04 17.64-3.24zm41.88 1.5v-5.88h-4.8v-24.24c-4.8 0-10.2.78-14.52 1.8v5.88h4.98v14.94c-2.04.72-3.78 1.08-5.52 1.08-1.62 0-2.64-.9-2.88-2.28-.18-1.02-.18-2.52-.18-5.34v-16.08c-4.38 0-9.78.72-14.34 1.74v5.94h4.86v10.38c0 2.82.06 5.4.24 7.14.48 3.9 2.76 6.42 7.98 6.42 3.42 0 7.02-1.5 10.26-4.02l.6 3.72c4.62 0 10.68-.6 13.32-1.2zm21.36.66v-6.24l-4.98-.54v-37.68c-4.32 0-9.6 1.02-14.52 2.34V570h5.16v29.22l-4.62.54V606zm21.48 14.76v-6.24l-6-.54v-7.68c1.44.18 2.88.24 4.38.24 9.6 0 15.72-5.4 15.72-16.8 0-9.9-3.66-14.88-9.9-14.88-3.9 0-8.1 2.1-10.2 3.84l-.18-3.9c-4.68.18-9.6.9-14.34 2.28v6.12h5.22v30.78l-4.92.54v6.24zm-6-21.9V583.8c1.8-.6 3.36-.96 5.22-.96 2.88 0 4.74 2.28 4.74 7.8 0 6.42-2.46 8.64-6.12 8.64-1.44 0-2.64-.18-3.84-.42zM296.35 317v-6.3l-6-.48 1.74-4.8h12.18l1.74 4.8-5.82.48v6.3h21.06v-6.3l-4.26-.48-12.3-33.78h-12.54l-12.54 33.78-4.32.48v6.3zm-1.74-19.74c2.4-7.14 3.06-9.6 3.72-11.82.54 2.34 1.08 4.38 3.36 11.82zm47.7 19.74v-6.24l-4.92-.54v-15.24c2.1-.78 4.08-1.02 5.88-1.02 1.26 0 2.28.36 2.52 1.68.18 1.02.18 3 .18 5.88V317h14.52v-6.24l-5.04-.54v-10.68c0-3.36 0-6.12-.24-7.86-.48-3.6-2.22-5.7-6.84-5.7-2.82 0-7.68 1.68-10.98 4.08l-.18-4.14c-4.08 0-10.5 1.02-14.34 2.28v6.12h5.16v15.9l-4.92.54V317zm30.12-9.6c1.2.36 2.7.54 4.2.54 7.38 0 13.08-3.6 13.08-10.68 0-.9-.12-2.28-.54-3.24h4.38v-6.78h-9.24c-1.74-.9-4.2-1.44-7.44-1.44-9.66 0-13.5 5.52-13.5 11.4 0 3.6 1.56 7.02 4.38 8.52-2.76 3-3.78 4.92-3.78 6.84 0 2.4 1.32 4.14 3.84 4.92-4.08 1.8-5.94 4.2-5.94 6.9 0 3.84 2.82 8.22 13.74 8.22 11.4 0 17.34-5.22 17.34-11.94 0-5.1-2.4-8.28-9.3-9.06l-10.02-1.14c-1.5-.18-1.92-.84-1.92-1.5 0-.42.18-1.02.72-1.56zm.3 11.34l5.1.3c3.9.24 4.86 1.56 4.86 3.48 0 1.56-1.86 3.3-5.46 3.3-4.98 0-6.42-1.62-6.42-3.24 0-1.26.6-2.52 1.92-3.84zm8.16-21.72c0 3-1.5 4.56-4.2 4.56-2.52 0-3.9-1.44-3.9-4.5 0-2.4 1.02-4.68 4.02-4.68 3.12 0 4.08 2.16 4.08 4.62zm50.88 19.32v-5.88h-4.8v-24.24c-4.8 0-10.2.78-14.52 1.8v5.88h4.98v14.94c-2.04.72-3.78 1.08-5.52 1.08-1.62 0-2.64-.9-2.88-2.28-.18-1.02-.18-2.52-.18-5.34v-16.08c-4.38 0-9.78.72-14.34 1.74v5.94h4.86v10.38c0 2.82.06 5.4.24 7.14.48 3.9 2.76 6.42 7.98 6.42 3.42 0 7.02-1.5 10.26-4.02l.6 3.72c4.62 0 10.68-.6 13.32-1.2zm21.36.66v-6.24l-4.98-.54v-37.68c-4.32 0-9.6 1.02-14.52 2.34V281h5.16v29.22l-4.62.54V317zm35.28-6.84h-4.8v-12.9c0-4.26-.54-6.72-1.56-8.34-1.32-2.16-3.96-3.12-8.34-3.12-3.6 0-10.38 1.02-14.88 2.52l1.32 6.42c3.96-.96 8.16-1.26 10.26-1.26 2.04 0 3 .36 3.54 1.08.36.6.48 1.74.48 2.94v.84c-4.56.18-8.82.6-12.24 1.68-3.54 1.08-5.82 3.78-5.82 8.16 0 4.8 3 9.54 9.9 9.54 2.52 0 6.06-.84 8.7-3.66l.54 3.48c4.32 0 9.78-.66 12.9-1.5zm-13.86-1.14c-1.38 1.26-3.72 2.04-5.34 2.04-2.04 0-3.18-1.2-3.18-3.12 0-1.32.66-2.4 2.22-2.94 2.04-.72 5.16-.84 6.3-.96zm37.2 7.98v-6.24l-5.82-.6V295.7c2.1-1.02 4.8-1.44 7.08-1.44 1.68 0 2.88.12 3.42.18v-8.28c-.54-.06-1.38-.12-1.92-.12-3.72 0-6.96 1.98-8.7 4.98v-5.1c-4.68.06-10.02.84-14.4 2.28v6.12h5.16v15.9l-4.92.54V317zm29.1-33.72l5.22-.54v-6.3h-21.54v6.3l6.36.54v18.84c0 2.82-.18 4.92-.9 5.94-.72 1.02-2.16 1.38-3.36 1.38-1.98 0-4.2-.36-5.94-.84l-1.8 7.98c2.22.72 5.82 1.14 9.36 1.14 6.66 0 10.2-3.18 11.46-6.24.96-2.34 1.14-5.1 1.14-9.78zm8.7 18.66c0 7.02.3 11.34.84 13.92 3.06 1.32 7.92 2.22 14.16 2.22 12.12 0 17.22-5.82 17.22-12.42 0-6.18-1.68-9.3-11.76-12.9l-5.1-1.86c-2.76-.96-3.36-2.22-3.36-4.02 0-1.74 1.26-3.54 6-3.54 1.74 0 3.96.3 5.7.78l.72 6.48h6.96c0-6.6-.12-12.42-.6-13.74-3.06-.78-8.04-1.44-11.94-1.44-12.54 0-17.34 5.76-17.34 12.72 0 7.44 4.26 10.32 10.08 12.12l5.28 1.56c3.48 1.08 4.56 2.4 4.56 4.5 0 2.16-1.44 3.78-5.22 3.78-2.64 0-5.28-.36-8.04-1.2l-.96-6.96zm200.96 414.78c6.48-1.92 10.98-5.22 13.02-8.22 1.2-1.8 2.1-4.62 2.1-9.24v-29.34c-3.72 0-9.6.9-14.52 2.22v6.18h5.16v20.1c0 2.76-.36 4.98-1.02 6.3-1.02 2.1-3.66 3.78-7.38 5.28zm14.22-54.84c0-3.78-2.1-4.98-4.92-4.98-2.76 0-5.1 1.38-5.1 4.98 0 3.6 2.34 4.92 4.92 4.92 3 0 5.1-1.56 5.1-4.92zm39.18 32.28h-4.8v-12.9c0-4.26-.54-6.72-1.56-8.34-1.32-2.16-3.96-3.12-8.34-3.12-3.6 0-10.38 1.02-14.88 2.52l1.32 6.42c3.96-.96 8.16-1.26 10.26-1.26 2.04 0 3 .36 3.54 1.08.36.6.48 1.74.48 2.94v.84c-4.56.18-8.82.6-12.24 1.68-3.54 1.08-5.82 3.78-5.82 8.16 0 4.8 3 9.54 9.9 9.54 2.52 0 6.06-.84 8.7-3.66l.54 3.48c4.32 0 9.78-.66 12.9-1.5zm-13.86-1.14c-1.38 1.26-3.72 2.04-5.34 2.04-2.04 0-3.18-1.2-3.18-3.12 0-1.32.66-2.4 2.22-2.94 2.04-.72 5.16-.84 6.3-.96zm38.94 7.98l9.36-23.46 3.66-.54v-6.18h-17.16V677l3.66.42c-2.04 5.94-3.54 10.8-4.74 14.82-1.38-4.2-2.7-8.82-5.04-14.82l3.78-.42v-6.18h-17.58V677l3.66.54 9.36 23.46zm45.78-6.84h-4.8v-12.9c0-4.26-.54-6.72-1.56-8.34-1.32-2.16-3.96-3.12-8.34-3.12-3.6 0-10.38 1.02-14.88 2.52l1.32 6.42c3.96-.96 8.16-1.26 10.26-1.26 2.04 0 3 .36 3.54 1.08.36.6.48 1.74.48 2.94v.84c-4.56.18-8.82.6-12.24 1.68-3.54 1.08-5.82 3.78-5.82 8.16 0 4.8 3 9.54 9.9 9.54 2.52 0 6.06-.84 8.7-3.66l.54 3.48c4.32 0 9.78-.66 12.9-1.5zm-13.86-1.14c-1.38 1.26-3.72 2.04-5.34 2.04-2.04 0-3.18-1.2-3.18-3.12 0-1.32.66-2.4 2.22-2.94 2.04-.72 5.16-.84 6.3-.96zm17.52-3c0 5.82.24 8.7.72 10.26 3.54 1.08 7.86 1.68 11.94 1.68 9.9 0 13.62-5.28 13.62-10.14 0-4.26-1.5-7.92-8.1-9.42l-4.98-1.14c-1.68-.36-2.28-1.32-2.28-2.4 0-1.32 1.02-2.46 3.48-2.46.9 0 2.34.06 3.84.42l.72 4.2h6.54c0-3.6-.12-8.46-.78-10.14-2.52-.66-6.54-1.08-9.96-1.08-9.54 0-13.74 4.62-13.74 9.6 0 5.88 3.06 8.34 7.92 9.6l4.74 1.2c1.5.42 2.28 1.02 2.28 2.46 0 1.14-.66 2.4-3.42 2.4-1.68 0-3.84-.36-5.04-.9l-.96-4.14zm58.68 8.04l-2.76-5.82c-3.18 1.26-5.28 2.04-8.52 2.04-3.54 0-6.66-2.4-6.66-8.22 0-7.26 3-9.3 6.12-9.3.84 0 1.8.12 2.7.3l.54 4.86h7.14c0-5.88 0-8.88-.36-10.86-2.82-.84-6.36-1.26-9.48-1.26-10.68 0-16.44 6.12-16.44 16.86 0 9.36 5.34 15.3 14.1 15.3 5.1 0 9.36-1.44 13.62-3.9zm23.82 2.94v-6.24l-5.82-.6V679.7c2.1-1.02 4.8-1.44 7.08-1.44 1.68 0 2.88.12 3.42.18v-8.28c-.54-.06-1.38-.12-1.92-.12-3.72 0-6.96 1.98-8.7 4.98v-5.1c-4.68.06-10.02.84-14.4 2.28v6.12h5.16v15.9l-4.92.54V701zm20.76-39.12c0-3.78-2.1-4.98-4.92-4.98-2.76 0-5.1 1.38-5.1 4.98 0 3.6 2.34 4.92 4.92 4.92 3 0 5.1-1.56 5.1-4.92zm5.82 39.12v-6.24l-4.92-.54v-24.3c-4.74 0-10.02.9-14.52 2.22v6.18h5.16v15.9l-4.92.54V701zm21.66 14.76v-6.24l-6-.54v-7.68c1.44.18 2.88.24 4.38.24 9.6 0 15.72-5.4 15.72-16.8 0-9.9-3.66-14.88-9.9-14.88-3.9 0-8.1 2.1-10.2 3.84l-.18-3.9c-4.68.18-9.6.9-14.34 2.28v6.12h5.22v30.78l-4.92.54v6.24zm-6-21.9V678.8c1.8-.6 3.36-.96 5.22-.96 2.88 0 4.74 2.28 4.74 7.8 0 6.42-2.46 8.64-6.12 8.64-1.44 0-2.64-.18-3.84-.42zm45.96 6.36l-1.14-6.9c-1.44.24-3.12.3-3.96.3-1.32 0-2.34-.3-2.88-1.08-.66-.9-.9-2.16-.9-4.62v-9.9h7.2v-7.2h-7.2v-8.1l-9 .6c-.24 3.84-.36 5.52-.36 7.5-.78 0-3.78.18-5.58.6v6.6h5.46v11.94c0 3.96.6 7.02 1.86 8.7 1.26 1.74 3.84 2.82 6.9 2.82 3.96 0 7.38-.54 9.6-1.26z" fill="#F4F1C7"/><path d="M1310.06 343v-6.3l-4.92-.54v-9.9h14.4v9.9l-4.98.54v6.3h20.76v-6.3l-5.82-.54v-26.88l5.82-.54v-6.3h-20.76v6.3l4.98.54v8.82h-14.4v-8.82l4.92-.54v-6.3h-20.7v6.3l5.76.54v26.88l-5.76.54v6.3zm59.28 0v-6.3l-5.82-.54v-25.5h6.6l1.08 7.14h6.54c0-9.54-.24-13.92-.6-15.36h-37.38c-.36 2.28-.54 5.16-.54 15.36h6.6l1.08-7.14h6.66v25.5l-5.82.54v6.3zm31.32 0v-6.3l-5.22-.42c.12-16.14.12-21.54 0-26.58 1.2 4.08 3.12 10.08 8.04 25.98h7.68c5.04-16.2 7.08-22.8 7.86-25.98 0 4.14.06 10.68.24 26.58l-5.1.42v6.3h20.46v-6.3l-5.34-.42-.78-27.12 5.46-.42v-6.3h-20.04c-3.72 12.36-5.04 17.34-6.24 22.14-1.14-4.8-2.52-9.9-6.18-22.14h-20.88v6.3l5.52.42-.6 27.12-5.28.42v6.3zm72.42 0c.36-1.98.6-5.1.6-14.28h-6.78l-.9 6.42h-12.12v-25.86l6.3-.54v-6.3h-22.08v6.3l5.76.54v26.88l-5.76.54v6.3zm5.46-.42c2.22.84 6.66 1.38 10.44 1.38 12.66 0 18.96-4.98 18.96-14.76 0-5.76-3.54-11.1-13.26-11.1-1.08 0-3.06.12-4.14.3l.48-5.94h15.6v-8.28h-23.4l-2.1 22.14c1.98-.48 5.88-.96 8.34-.96 5.46 0 7.38 1.74 7.38 5.16 0 2.94-1.5 5.52-8.64 5.52-2.82 0-6.66-.66-8.04-1.14zM692.36 253.6l-4.14-6c-4.26 3-8.82 3.9-11.7 3.9-6.24 0-9.72-4.62-9.72-12.12 0-10.2 4.5-13.98 11.1-13.98 1.32 0 3.18.18 4.8.72l.84 6.72h7.32c0-9.3-.18-12.06-.6-13.98-4.02-.96-7.56-1.5-13.32-1.5-13.5 0-20.7 8.16-20.7 22.38 0 12.54 7.08 20.34 18.36 20.34 7.02 0 13.08-2.82 17.76-6.48zm3.24-9.66c0 7.02.3 11.34.84 13.92 3.06 1.32 7.92 2.22 14.16 2.22 12.12 0 17.22-5.82 17.22-12.42 0-6.18-1.68-9.3-11.76-12.9l-5.1-1.86c-2.76-.96-3.36-2.22-3.36-4.02 0-1.74 1.26-3.54 6-3.54 1.74 0 3.96.3 5.7.78l.72 6.48h6.96c0-6.6-.12-12.42-.6-13.74-3.06-.78-8.04-1.44-11.94-1.44-12.54 0-17.34 5.76-17.34 12.72 0 7.44 4.26 10.32 10.08 12.12l5.28 1.56c3.48 1.08 4.56 2.4 4.56 4.5 0 2.16-1.44 3.78-5.22 3.78-2.64 0-5.28-.36-8.04-1.2l-.96-6.96zm36.66 0c0 7.02.3 11.34.84 13.92 3.06 1.32 7.92 2.22 14.16 2.22 12.12 0 17.22-5.82 17.22-12.42 0-6.18-1.68-9.3-11.76-12.9l-5.1-1.86c-2.76-.96-3.36-2.22-3.36-4.02 0-1.74 1.26-3.54 6-3.54 1.74 0 3.96.3 5.7.78l.72 6.48h6.96c0-6.6-.12-12.42-.6-13.74-3.06-.78-8.04-1.44-11.94-1.44-12.54 0-17.34 5.76-17.34 12.72 0 7.44 4.26 10.32 10.08 12.12l5.28 1.56c3.48 1.08 4.56 2.4 4.56 4.5 0 2.16-1.44 3.78-5.22 3.78-2.64 0-5.28-.36-8.04-1.2l-.96-6.96zm36.6 14.64c2.28.72 7.44 1.44 10.74 1.44 13.26 0 19.44-4.62 19.44-13.38 0-4.68-2.94-8.16-8.46-8.88 4.92-1.56 7.08-5.34 7.08-8.28 0-6.18-3.84-9.96-12.96-9.96-4.32 0-10.44 1.62-14.94 3.78l2.7 6.48c4.44-1.92 8.46-2.28 10.44-2.28 3.36 0 5.04 1.08 5.04 3.36 0 2.82-2.46 4.8-11.16 5.1l.36 7.32c1.2-.12 3.96-.24 4.86-.24 5.1 0 6.42 1.68 6.42 4.02 0 3-1.74 4.98-10.02 4.98-2.58 0-6.54-.72-7.92-1.14zm608.51 194.18v-6.24l-6-.54v-7.68c1.44.18 2.88.24 4.38.24 9.6 0 15.72-5.4 15.72-16.8 0-9.9-3.66-14.88-9.9-14.88-3.9 0-8.1 2.1-10.2 3.84l-.18-3.9c-4.68.18-9.6.9-14.34 2.28v6.12h5.22v30.78l-4.92.54v6.24zm-6-21.9V415.8c1.8-.6 3.36-.96 5.22-.96 2.88 0 4.74 2.28 4.74 7.8 0 6.42-2.46 8.64-6.12 8.64-1.44 0-2.64-.18-3.84-.42zm44.7 7.14v-6.24l-5.82-.6V416.7c2.1-1.02 4.8-1.44 7.08-1.44 1.68 0 2.88.12 3.42.18v-8.28c-.54-.06-1.38-.12-1.92-.12-3.72 0-6.96 1.98-8.7 4.98v-5.1c-4.68.06-10.02.84-14.4 2.28v6.12h5.16v15.9l-4.92.54V438zm37.8-15.9c0-9.84-4.68-15.3-14.88-15.3-11.28 0-16.74 5.76-16.74 16.68 0 10.02 5.58 15.48 15.3 15.48 10.8 0 16.32-5.94 16.32-16.86zm-10.08 1.08c0 6.9-2.22 8.76-5.94 8.76-3.48 0-5.76-1.8-5.76-9.42 0-5.4 1.56-8.76 6.12-8.76 4.74 0 5.58 3.54 5.58 9.42zm24.06 5.22c1.2.36 2.7.54 4.2.54 7.38 0 13.08-3.6 13.08-10.68 0-.9-.12-2.28-.54-3.24h4.38v-6.78h-9.24c-1.74-.9-4.2-1.44-7.44-1.44-9.66 0-13.5 5.52-13.5 11.4 0 3.6 1.56 7.02 4.38 8.52-2.76 3-3.78 4.92-3.78 6.84 0 2.4 1.32 4.14 3.84 4.92-4.08 1.8-5.94 4.2-5.94 6.9 0 3.84 2.82 8.22 13.74 8.22 11.4 0 17.34-5.22 17.34-11.94 0-5.1-2.4-8.28-9.3-9.06l-10.02-1.14c-1.5-.18-1.92-.84-1.92-1.5 0-.42.18-1.02.72-1.56zm.3 11.34l5.1.3c3.9.24 4.86 1.56 4.86 3.48 0 1.56-1.86 3.3-5.46 3.3-4.98 0-6.42-1.62-6.42-3.24 0-1.26.6-2.52 1.92-3.84zm8.16-21.72c0 3-1.5 4.56-4.2 4.56-2.52 0-3.9-1.44-3.9-4.5 0-2.4 1.02-4.68 4.02-4.68 3.12 0 4.08 2.16 4.08 4.62zm36.12 19.98v-6.24l-5.82-.6V416.7c2.1-1.02 4.8-1.44 7.08-1.44 1.68 0 2.88.12 3.42.18v-8.28c-.54-.06-1.38-.12-1.92-.12-3.72 0-6.96 1.98-8.7 4.98v-5.1c-4.68.06-10.02.84-14.4 2.28v6.12h5.16v15.9l-4.92.54V438zm35.16-3.06l-3-5.88c-2.94 1.62-6.06 2.34-9.54 2.34-3.9 0-6-1.98-6.66-4.86-.12-.6-.12-1.62-.12-1.86h18.72c.12-1.02.18-2.22.18-2.64 0-7.74-2.1-15.24-13.26-15.24-8.16 0-15.3 5.46-15.3 16.62 0 9.24 5.22 15.54 14.1 15.54 5.58 0 10.14-1.26 14.88-4.02zm-9.54-16.56h-9.48c.42-2.82 2.4-4.86 5.16-4.86 3.06 0 4.38 1.5 4.38 3.72 0 .36 0 .72-.06 1.14zm14.04 8.64c0 5.82.24 8.7.72 10.26 3.54 1.08 7.86 1.68 11.94 1.68 9.9 0 13.62-5.28 13.62-10.14 0-4.26-1.5-7.92-8.1-9.42l-4.98-1.14c-1.68-.36-2.28-1.32-2.28-2.4 0-1.32 1.02-2.46 3.48-2.46.9 0 2.34.06 3.84.42l.72 4.2h6.54c0-3.6-.12-8.46-.78-10.14-2.52-.66-6.54-1.08-9.96-1.08-9.54 0-13.74 4.62-13.74 9.6 0 5.88 3.06 8.34 7.92 9.6l4.74 1.2c1.5.42 2.28 1.02 2.28 2.46 0 1.14-.66 2.4-3.42 2.4-1.68 0-3.84-.36-5.04-.9l-.96-4.14zm31.26 0c0 5.82.24 8.7.72 10.26 3.54 1.08 7.86 1.68 11.94 1.68 9.9 0 13.62-5.28 13.62-10.14 0-4.26-1.5-7.92-8.1-9.42l-4.98-1.14c-1.68-.36-2.28-1.32-2.28-2.4 0-1.32 1.02-2.46 3.48-2.46.9 0 2.34.06 3.84.42l.72 4.2h6.54c0-3.6-.12-8.46-.78-10.14-2.52-.66-6.54-1.08-9.96-1.08-9.54 0-13.74 4.62-13.74 9.6 0 5.88 3.06 8.34 7.92 9.6l4.74 1.2c1.5.42 2.28 1.02 2.28 2.46 0 1.14-.66 2.4-3.42 2.4-1.68 0-3.84-.36-5.04-.9l-.96-4.14zm44.22-28.14c0-3.78-2.1-4.98-4.92-4.98-2.76 0-5.1 1.38-5.1 4.98 0 3.6 2.34 4.92 4.92 4.92 3 0 5.1-1.56 5.1-4.92zm5.82 39.12v-6.24l-4.92-.54v-24.3c-4.74 0-10.02.9-14.52 2.22v6.18h5.16v15.9l-4.92.54V438zm25.2 0l9.36-23.46 3.66-.54v-6.18h-17.16V414l3.66.42c-2.04 5.94-3.54 10.8-4.74 14.82-1.38-4.2-2.7-8.82-5.04-14.82l3.78-.42v-6.18h-17.58V414l3.66.54 9.36 23.46zm43.74-3.06l-3-5.88c-2.94 1.62-6.06 2.34-9.54 2.34-3.9 0-6-1.98-6.66-4.86-.12-.6-.12-1.62-.12-1.86h18.72c.12-1.02.18-2.22.18-2.64 0-7.74-2.1-15.24-13.26-15.24-8.16 0-15.3 5.46-15.3 16.62 0 9.24 5.22 15.54 14.1 15.54 5.58 0 10.14-1.26 14.88-4.02zm-9.54-16.56h-9.48c.42-2.82 2.4-4.86 5.16-4.86 3.06 0 4.38 1.5 4.38 3.72 0 .36 0 .72-.06 1.14zm-333.63 93.56l-3-5.88c-2.94 1.62-6.06 2.34-9.54 2.34-3.9 0-6-1.98-6.66-4.86-.12-.6-.12-1.62-.12-1.86h18.72c.12-1.02.18-2.22.18-2.64 0-7.74-2.1-15.24-13.26-15.24-8.16 0-15.3 5.46-15.3 16.62 0 9.24 5.22 15.54 14.1 15.54 5.58 0 10.14-1.26 14.88-4.02zm-9.54-16.56h-9.48c.42-2.82 2.4-4.86 5.16-4.86 3.06 0 4.38 1.5 4.38 3.72 0 .36 0 .72-.06 1.14zm32.82 19.62v-6.24l-4.92-.54v-15.24c2.1-.78 4.08-1.02 5.88-1.02 1.26 0 2.28.36 2.52 1.68.18 1.02.18 3 .18 5.88V515h14.52v-6.24l-5.04-.54v-10.68c0-3.36 0-6.12-.24-7.86-.48-3.6-2.22-5.7-6.84-5.7-2.82 0-7.68 1.68-10.98 4.08l-.18-4.14c-4.08 0-10.5 1.02-14.34 2.28v6.12h5.16v15.9l-4.92.54V515zm39.48 0v-6.24l-4.98-.54v-15.24c1.86-.72 4.08-1.02 5.88-1.02 1.26 0 2.28.36 2.52 1.68.18 1.02.18 3 .18 5.88V515h14.52v-6.24l-5.04-.54V497.3c0-3.36 0-5.94-.24-7.62-.48-3.6-2.34-5.7-6.84-5.7-2.7 0-7.68 1.74-11.04 4.08v-17.52c-4.08 0-10.2 1.08-14.46 2.34V479h5.16v29.22l-4.62.54V515zm52.38-6.84h-4.8v-12.9c0-4.26-.54-6.72-1.56-8.34-1.32-2.16-3.96-3.12-8.34-3.12-3.6 0-10.38 1.02-14.88 2.52l1.32 6.42c3.96-.96 8.16-1.26 10.26-1.26 2.04 0 3 .36 3.54 1.08.36.6.48 1.74.48 2.94v.84c-4.56.18-8.82.6-12.24 1.68-3.54 1.08-5.82 3.78-5.82 8.16 0 4.8 3 9.54 9.9 9.54 2.52 0 6.06-.84 8.7-3.66l.54 3.48c4.32 0 9.78-.66 12.9-1.5zm-13.86-1.14c-1.38 1.26-3.72 2.04-5.34 2.04-2.04 0-3.18-1.2-3.18-3.12 0-1.32.66-2.4 2.22-2.94 2.04-.72 5.16-.84 6.3-.96zm36.3 7.98v-6.24l-4.92-.54v-15.24c2.1-.78 4.08-1.02 5.88-1.02 1.26 0 2.28.36 2.52 1.68.18 1.02.18 3 .18 5.88V515h14.52v-6.24l-5.04-.54v-10.68c0-3.36 0-6.12-.24-7.86-.48-3.6-2.22-5.7-6.84-5.7-2.82 0-7.68 1.68-10.98 4.08l-.18-4.14c-4.08 0-10.5 1.02-14.34 2.28v6.12h5.16v15.9l-4.92.54V515zm48.54-2.94l-2.76-5.82c-3.18 1.26-5.28 2.04-8.52 2.04-3.54 0-6.66-2.4-6.66-8.22 0-7.26 3-9.3 6.12-9.3.84 0 1.8.12 2.7.3l.54 4.86h7.14c0-5.88 0-8.88-.36-10.86-2.82-.84-6.36-1.26-9.48-1.26-10.68 0-16.44 6.12-16.44 16.86 0 9.36 5.34 15.3 14.1 15.3 5.1 0 9.36-1.44 13.62-3.9zm32.16-.12l-3-5.88c-2.94 1.62-6.06 2.34-9.54 2.34-3.9 0-6-1.98-6.66-4.86-.12-.6-.12-1.62-.12-1.86h18.72c.12-1.02.18-2.22.18-2.64 0-7.74-2.1-15.24-13.26-15.24-8.16 0-15.3 5.46-15.3 16.62 0 9.24 5.22 15.54 14.1 15.54 5.58 0 10.14-1.26 14.88-4.02zm-9.54-16.56h-9.48c.42-2.82 2.4-4.86 5.16-4.86 3.06 0 4.38 1.5 4.38 3.72 0 .36 0 .72-.06 1.14zm32.76 19.62v-6.24l-4.86-.54v-15.24c1.98-.78 3.78-1.02 5.64-1.02 1.2 0 2.1.36 2.34 1.62.18 1.08.18 3.06.18 5.94V515h14.52v-6.24l-5.04-.54V497.3c0-1.68 0-3-.06-4.32 1.98-.72 3.78-1.02 5.58-1.02 1.2 0 2.16.36 2.4 1.68.24 1.02.24 3 .24 5.88V515h14.52v-6.24l-5.1-.54V497.3c0-3.36 0-6-.24-7.68-.48-3.6-2.46-5.64-6.72-5.64-3.66 0-7.56 1.8-11.1 4.26-.78-2.82-2.58-4.26-6.36-4.26-3 0-7.5 1.74-10.8 4.08l-.18-4.14c-4.08 0-10.02 1.02-14.34 2.22v6.18h5.16v15.9l-4.92.54V515zm67.02-3.06l-3-5.88c-2.94 1.62-6.06 2.34-9.54 2.34-3.9 0-6-1.98-6.66-4.86-.12-.6-.12-1.62-.12-1.86h18.72c.12-1.02.18-2.22.18-2.64 0-7.74-2.1-15.24-13.26-15.24-8.16 0-15.3 5.46-15.3 16.62 0 9.24 5.22 15.54 14.1 15.54 5.58 0 10.14-1.26 14.88-4.02zm-9.54-16.56h-9.48c.42-2.82 2.4-4.86 5.16-4.86 3.06 0 4.38 1.5 4.38 3.72 0 .36 0 .72-.06 1.14zm32.82 19.62v-6.24l-4.92-.54v-15.24c2.1-.78 4.08-1.02 5.88-1.02 1.26 0 2.28.36 2.52 1.68.18 1.02.18 3 .18 5.88V515h14.52v-6.24l-5.04-.54v-10.68c0-3.36 0-6.12-.24-7.86-.48-3.6-2.22-5.7-6.84-5.7-2.82 0-7.68 1.68-10.98 4.08l-.18-4.14c-4.08 0-10.5 1.02-14.34 2.28v6.12h5.16v15.9l-4.92.54V515zm42.3-.78l-1.14-6.9c-1.44.24-3.12.3-3.96.3-1.32 0-2.34-.3-2.88-1.08-.66-.9-.9-2.16-.9-4.62v-9.9h7.2v-7.2h-7.2v-8.1l-9 .6c-.24 3.84-.36 5.52-.36 7.5-.78 0-3.78.18-5.58.6v6.6h5.46v11.94c0 3.96.6 7.02 1.86 8.7 1.26 1.74 3.84 2.82 6.9 2.82 3.96 0 7.38-.54 9.6-1.26zM1469.09 701h15.3c3.78 0 7.02-.06 11.52-.72 6.48-.96 10.56-4.68 10.56-11.28 0-5.76-3.48-8.76-9.72-9.48 5.64-1.68 8.04-4.56 8.04-9.54 0-4.98-2.82-7.92-8.82-8.94-2.52-.42-7.56-.6-10.98-.6h-15.9v6.3l5.76.54v26.88l-5.76.54zm15.72-16.92h3c1.14 0 2.52.06 3.72.18 2.64.24 4.14 1.8 4.14 4.38 0 2.22-1.02 3.48-2.82 4.14-1.2.42-3.12.42-4.62.42h-3.42zm0-7.74v-8.1h3.3c1.44 0 3.3.12 4.2.6 1.26.66 1.98 1.62 1.98 3.3 0 2.1-1.08 3.3-2.7 3.78-1.02.3-2.52.42-4.02.42zm58.74 8.76c0-9.84-4.68-15.3-14.88-15.3-11.28 0-16.74 5.76-16.74 16.68 0 10.02 5.58 15.48 15.3 15.48 10.8 0 16.32-5.94 16.32-16.86zm-10.08 1.08c0 6.9-2.22 8.76-5.94 8.76-3.48 0-5.76-1.8-5.76-9.42 0-5.4 1.56-8.76 6.12-8.76 4.74 0 5.58 3.54 5.58 9.42zm56.76-8.76l3.48-.42v-6.18h-15.42V677l3.42.42c-1.14 6.48-1.8 10.26-2.28 13.5-.66-2.88-1.56-5.76-5.46-18.84h-7.26c-3.54 12-4.26 15.12-5.22 18.9-.36-2.22-1.32-6.66-2.7-13.44l3.6-.54v-6.18h-16.92V677l3.66.54 5.64 23.46h10.74c2.76-8.76 3.84-12.42 4.62-15.72.84 3.54 1.68 6.9 4.02 15.72h10.62zm35.4 20.52l-3-5.88c-2.94 1.62-6.06 2.34-9.54 2.34-3.9 0-6-1.98-6.66-4.86-.12-.6-.12-1.62-.12-1.86h18.72c.12-1.02.18-2.22.18-2.64 0-7.74-2.1-15.24-13.26-15.24-8.16 0-15.3 5.46-15.3 16.62 0 9.24 5.22 15.54 14.1 15.54 5.58 0 10.14-1.26 14.88-4.02zm-9.54-16.56h-9.48c.42-2.82 2.4-4.86 5.16-4.86 3.06 0 4.38 1.5 4.38 3.72 0 .36 0 .72-.06 1.14zm33.72 19.62v-6.24l-5.82-.6V679.7c2.1-1.02 4.8-1.44 7.08-1.44 1.68 0 2.88.12 3.42.18v-8.28c-.54-.06-1.38-.12-1.92-.12-3.72 0-6.96 1.98-8.7 4.98v-5.1c-4.68.06-10.02.84-14.4 2.28v6.12h5.16v15.9l-4.92.54V701zm-477.02-6v-6.3l-6-.54v-8.34l13.2-18.6 4.38-.48v-6.3h-20.52v6.3l5.1.48c-3.72 5.22-4.98 7.08-6.72 9.96-1.8-3-2.94-4.8-6.42-9.96l4.8-.48v-6.3h-21.06v6.3l4.2.48 13.14 18.6v8.34l-6 .54v6.3zm37.74-3.06l-3-5.88c-2.94 1.62-6.06 2.34-9.54 2.34-3.9 0-6-1.98-6.66-4.86-.12-.6-.12-1.62-.12-1.86h18.72c.12-1.02.18-2.22.18-2.64 0-7.74-2.1-15.24-13.26-15.24-8.16 0-15.3 5.46-15.3 16.62 0 9.24 5.22 15.54 14.1 15.54 5.58 0 10.14-1.26 14.88-4.02zm-9.54-16.56h-9.48c.42-2.82 2.4-4.86 5.16-4.86 3.06 0 4.38 1.5 4.38 3.72 0 .36 0 .72-.06 1.14zm45.24 3.72c0-9.84-4.68-15.3-14.88-15.3-11.28 0-16.74 5.76-16.74 16.68 0 10.02 5.58 15.48 15.3 15.48 10.8 0 16.32-5.94 16.32-16.86zm-10.08 1.08c0 6.9-2.22 8.76-5.94 8.76-3.48 0-5.76-1.8-5.76-9.42 0-5.4 1.56-8.76 6.12-8.76 4.74 0 5.58 3.54 5.58 9.42zm33.72 14.82v-6.24l-4.86-.54v-15.24c1.98-.78 3.78-1.02 5.64-1.02 1.2 0 2.1.36 2.34 1.62.18 1.08.18 3.06.18 5.94V695h14.52v-6.24l-5.04-.54V677.3c0-1.68 0-3-.06-4.32 1.98-.72 3.78-1.02 5.58-1.02 1.2 0 2.16.36 2.4 1.68.24 1.02.24 3 .24 5.88V695h14.52v-6.24l-5.1-.54V677.3c0-3.36 0-6-.24-7.68-.48-3.6-2.46-5.64-6.72-5.64-3.66 0-7.56 1.8-11.1 4.26-.78-2.82-2.58-4.26-6.36-4.26-3 0-7.5 1.74-10.8 4.08l-.18-4.14c-4.08 0-10.02 1.02-14.34 2.22v6.18h5.16v15.9l-4.92.54V695zm69.66-6.84h-4.8v-12.9c0-4.26-.54-6.72-1.56-8.34-1.32-2.16-3.96-3.12-8.34-3.12-3.6 0-10.38 1.02-14.88 2.52l1.32 6.42c3.96-.96 8.16-1.26 10.26-1.26 2.04 0 3 .36 3.54 1.08.36.6.48 1.74.48 2.94v.84c-4.56.18-8.82.6-12.24 1.68-3.54 1.08-5.82 3.78-5.82 8.16 0 4.8 3 9.54 9.9 9.54 2.52 0 6.06-.84 8.7-3.66l.54 3.48c4.32 0 9.78-.66 12.9-1.5zm-13.86-1.14c-1.38 1.26-3.72 2.04-5.34 2.04-2.04 0-3.18-1.2-3.18-3.12 0-1.32.66-2.4 2.22-2.94 2.04-.72 5.16-.84 6.3-.96zm36.3 7.98v-6.24l-4.92-.54v-15.24c2.1-.78 4.08-1.02 5.88-1.02 1.26 0 2.28.36 2.52 1.68.18 1.02.18 3 .18 5.88V695h14.52v-6.24l-5.04-.54v-10.68c0-3.36 0-6.12-.24-7.86-.48-3.6-2.22-5.7-6.84-5.7-2.82 0-7.68 1.68-10.98 4.08l-.18-4.14c-4.08 0-10.5 1.02-14.34 2.28v6.12h5.16v15.9l-4.92.54V695zM975.64 343v-6.3l-7.14-.48v-9.36h12.18v-8.22H968.5v-7.98h10.92l.9 5.28h6.66c0-9-.36-11.94-.72-13.5h-33.54v6.3l5.76.54v26.88l-5.76.54v6.3zm33.24 0v-6.24l-4.98-.54v-37.68c-4.32 0-9.6 1.02-14.52 2.34V307h5.16v29.22l-4.62.54V343zm32.52-3.06l-3-5.88c-2.94 1.62-6.06 2.34-9.54 2.34-3.9 0-6-1.98-6.66-4.86-.12-.6-.12-1.62-.12-1.86h18.72c.12-1.02.18-2.22.18-2.64 0-7.74-2.1-15.24-13.26-15.24-8.16 0-15.3 5.46-15.3 16.62 0 9.24 5.22 15.54 14.1 15.54 5.58 0 10.14-1.26 14.88-4.02zm-9.54-16.56h-9.48c.42-2.82 2.4-4.86 5.16-4.86 3.06 0 4.38 1.5 4.38 3.72 0 .36 0 .72-.06 1.14zM1060.9 343v-6.24l-3.78-.54 4.02-5.04 4.8 5.1-2.04.48V343h16.68v-6.24l-3.3-.54-8.28-8.58 7.2-8.22 3.48-.48v-6.12h-15.06v6.06l2.94.42-3.78 4.62-4.02-4.62 2.04-.42v-6.06h-16.68v6.06l3.3.54 7.38 7.74-7.62 9.06-3.66.54V343zm25.26-1.08c4.08 1.2 8.82 1.92 13.68 1.92 9.66 0 15.72-5.52 15.72-16.92 0-9.9-3.72-14.82-10.26-14.82-3.72 0-7.62 1.98-9.9 3.78v-17.34c-3.96 0-9.84 1.14-14.46 2.34V307h5.22zm9.3-5.7v-15.24c1.8-.6 3.36-1.02 5.28-1.02 2.58 0 4.68 2.4 4.68 7.86 0 6.42-2.4 8.76-6.12 8.76-1.44 0-2.58-.12-3.84-.36zm57-9.12c0-9.84-4.68-15.3-14.88-15.3-11.28 0-16.74 5.76-16.74 16.68 0 10.02 5.58 15.48 15.3 15.48 10.8 0 16.32-5.94 16.32-16.86zm-10.08 1.08c0 6.9-2.22 8.76-5.94 8.76-3.48 0-5.76-1.8-5.76-9.42 0-5.4 1.56-8.76 6.12-8.76 4.74 0 5.58 3.54 5.58 9.42zM1171.6 343v-6.24l-3.78-.54 4.02-5.04 4.8 5.1-2.04.48V343h16.68v-6.24l-3.3-.54-8.28-8.58 7.2-8.22 3.48-.48v-6.12h-15.06v6.06l2.94.42-3.78 4.62-4.02-4.62 2.04-.42v-6.06h-16.68v6.06l3.3.54 7.38 7.74-7.62 9.06-3.66.54V343zM998.43 624c.36-1.98.6-5.1.6-14.28h-6.78l-.9 6.42h-12.12v-25.86l6.3-.54v-6.3h-22.08v6.3l5.76.54v26.88l-5.76.54v6.3zm39.18 0c.36-1.92.6-5.16.6-14.28h-6.78l-.9 6.42h-12.12v-8.82h11.64v-8.22h-11.64v-7.44h10.86l.9 5.28h6.72c0-9-.42-11.94-.78-13.5h-33.48v6.3l5.76.54v26.88l-5.76.54v6.3zm5.34-15.06c0 7.02.3 11.34.84 13.92 3.06 1.32 7.92 2.22 14.16 2.22 12.12 0 17.22-5.82 17.22-12.42 0-6.18-1.68-9.3-11.76-12.9l-5.1-1.86c-2.76-.96-3.36-2.22-3.36-4.02 0-1.74 1.26-3.54 6-3.54 1.74 0 3.96.3 5.7.78l.72 6.48h6.96c0-6.6-.12-12.42-.6-13.74-3.06-.78-8.04-1.44-11.94-1.44-12.54 0-17.34 5.76-17.34 12.72 0 7.44 4.26 10.32 10.08 12.12l5.28 1.56c3.48 1.08 4.56 2.4 4.56 4.5 0 2.16-1.44 3.78-5.22 3.78-2.64 0-5.28-.36-8.04-1.2l-.96-6.96zm36.66 0c0 7.02.3 11.34.84 13.92 3.06 1.32 7.92 2.22 14.16 2.22 12.12 0 17.22-5.82 17.22-12.42 0-6.18-1.68-9.3-11.76-12.9l-5.1-1.86c-2.76-.96-3.36-2.22-3.36-4.02 0-1.74 1.26-3.54 6-3.54 1.74 0 3.96.3 5.7.78l.72 6.48h6.96c0-6.6-.12-12.42-.6-13.74-3.06-.78-8.04-1.44-11.94-1.44-12.54 0-17.34 5.76-17.34 12.72 0 7.44 4.26 10.32 10.08 12.12l5.28 1.56c3.48 1.08 4.56 2.4 4.56 4.5 0 2.16-1.44 3.78-5.22 3.78-2.64 0-5.28-.36-8.04-1.2l-.96-6.96zm-41.93-78c0 7.02.3 11.34.84 13.92 3.06 1.32 7.92 2.22 14.16 2.22 12.12 0 17.22-5.82 17.22-12.42 0-6.18-1.68-9.3-11.76-12.9l-5.1-1.86c-2.76-.96-3.36-2.22-3.36-4.02 0-1.74 1.26-3.54 6-3.54 1.74 0 3.96.3 5.7.78l.72 6.48h6.96c0-6.6-.12-12.42-.6-13.74-3.06-.78-8.04-1.44-11.94-1.44-12.54 0-17.34 5.76-17.34 12.72 0 7.44 4.26 10.32 10.08 12.12l5.28 1.56c3.48 1.08 4.56 2.4 4.56 4.5 0 2.16-1.44 3.78-5.22 3.78-2.64 0-5.28-.36-8.04-1.2l-.96-6.96zM1093.3 546v-6.3l-6-.48 1.74-4.8h12.18l1.74 4.8-5.82.48v6.3h21.06v-6.3l-4.26-.48-12.3-33.78h-12.54l-12.54 33.78-4.32.48v6.3zm-1.74-19.74c2.4-7.14 3.06-9.6 3.72-11.82.54 2.34 1.08 4.38 3.36 11.82zm29.04 4.68c0 7.02.3 11.34.84 13.92 3.06 1.32 7.92 2.22 14.16 2.22 12.12 0 17.22-5.82 17.22-12.42 0-6.18-1.68-9.3-11.76-12.9l-5.1-1.86c-2.76-.96-3.36-2.22-3.36-4.02 0-1.74 1.26-3.54 6-3.54 1.74 0 3.96.3 5.7.78l.72 6.48h6.96c0-6.6-.12-12.42-.6-13.74-3.06-.78-8.04-1.44-11.94-1.44-12.54 0-17.34 5.76-17.34 12.72 0 7.44 4.26 10.32 10.08 12.12l5.28 1.56c3.48 1.08 4.56 2.4 4.56 4.5 0 2.16-1.44 3.78-5.22 3.78-2.64 0-5.28-.36-8.04-1.2l-.96-6.96zm36.66 0c0 7.02.3 11.34.84 13.92 3.06 1.32 7.92 2.22 14.16 2.22 12.12 0 17.22-5.82 17.22-12.42 0-6.18-1.68-9.3-11.76-12.9l-5.1-1.86c-2.76-.96-3.36-2.22-3.36-4.02 0-1.74 1.26-3.54 6-3.54 1.74 0 3.96.3 5.7.78l.72 6.48h6.96c0-6.6-.12-12.42-.6-13.74-3.06-.78-8.04-1.44-11.94-1.44-12.54 0-17.34 5.76-17.34 12.72 0 7.44 4.26 10.32 10.08 12.12l5.28 1.56c3.48 1.08 4.56 2.4 4.56 4.5 0 2.16-1.44 3.78-5.22 3.78-2.64 0-5.28-.36-8.04-1.2l-.96-6.96zm-950.33.06v-6.3l-7.14-.48v-9.36h12.18v-8.22h-12.18v-7.98h10.92l.9 5.28h6.66c0-9-.36-11.94-.72-13.5h-33.54v6.3l5.76.54v26.88l-5.76.54v6.3zm44.4-15.9c0-9.84-4.68-15.3-14.88-15.3-11.28 0-16.74 5.76-16.74 16.68 0 10.02 5.58 15.48 15.3 15.48 10.8 0 16.32-5.94 16.32-16.86zm-10.08 1.08c0 6.9-2.22 8.76-5.94 8.76-3.48 0-5.76-1.8-5.76-9.42 0-5.4 1.56-8.76 6.12-8.76 4.74 0 5.58 3.54 5.58 9.42zm49.8 14.16v-5.88h-4.8v-24.24c-4.8 0-10.2.78-14.52 1.8v5.88h4.98v14.94c-2.04.72-3.78 1.08-5.52 1.08-1.62 0-2.64-.9-2.88-2.28-.18-1.02-.18-2.52-.18-5.34v-16.08c-4.38 0-9.78.72-14.34 1.74v5.94h4.86v10.38c0 2.82.06 5.4.24 7.14.48 3.9 2.76 6.42 7.98 6.42 3.42 0 7.02-1.5 10.26-4.02l.6 3.72c4.62 0 10.68-.6 13.32-1.2zm22.02.66v-6.24l-4.92-.54v-15.24c2.1-.78 4.08-1.02 5.88-1.02 1.26 0 2.28.36 2.52 1.68.18 1.02.18 3 .18 5.88V531h14.52v-6.24l-5.04-.54v-10.68c0-3.36 0-6.12-.24-7.86-.48-3.6-2.22-5.7-6.84-5.7-2.82 0-7.68 1.68-10.98 4.08l-.18-4.14c-4.08 0-10.5 1.02-14.34 2.28v6.12h5.16v15.9l-4.92.54V531zm54.96-6.54h-4.8v-37.98c-4.86.06-10.26 1.08-15.12 2.4V495h5.58v5.94c-1.44-.54-3.84-.78-5.4-.78-7.5 0-14.4 4.5-14.4 16.44 0 9.48 5.04 15 11.76 15 3.3 0 6.12-1.32 8.52-3.54l.54 3.48c4.5 0 9.54-.42 13.32-1.2zm-14.34-1.86c-1.92 1.02-3.6 1.5-4.8 1.5-2.94 0-5.22-1.56-5.22-7.98 0-6.9 3.06-8.16 6.12-8.16 1.08 0 2.46.12 3.9.42zm49.92 1.56h-4.8v-12.9c0-4.26-.54-6.72-1.56-8.34-1.32-2.16-3.96-3.12-8.34-3.12-3.6 0-10.38 1.02-14.88 2.52l1.32 6.42c3.96-.96 8.16-1.26 10.26-1.26 2.04 0 3 .36 3.54 1.08.36.6.48 1.74.48 2.94v.84c-4.56.18-8.82.6-12.24 1.68-3.54 1.08-5.82 3.78-5.82 8.16 0 4.8 3 9.54 9.9 9.54 2.52 0 6.06-.84 8.7-3.66l.54 3.48c4.32 0 9.78-.66 12.9-1.5zm-13.86-1.14c-1.38 1.26-3.72 2.04-5.34 2.04-2.04 0-3.18-1.2-3.18-3.12 0-1.32.66-2.4 2.22-2.94 2.04-.72 5.16-.84 6.3-.96zm38.46 7.2l-1.14-6.9c-1.44.24-3.12.3-3.96.3-1.32 0-2.34-.3-2.88-1.08-.66-.9-.9-2.16-.9-4.62v-9.9h7.2v-7.2h-7.2v-8.1l-9 .6c-.24 3.84-.36 5.52-.36 7.5-.78 0-3.78.18-5.58.6v6.6h5.46v11.94c0 3.96.6 7.02 1.86 8.7 1.26 1.74 3.84 2.82 6.9 2.82 3.96 0 7.38-.54 9.6-1.26zm15.84-38.34c0-3.78-2.1-4.98-4.92-4.98-2.76 0-5.1 1.38-5.1 4.98 0 3.6 2.34 4.92 4.92 4.92 3 0 5.1-1.56 5.1-4.92zm5.82 39.12v-6.24l-4.92-.54v-24.3c-4.74 0-10.02.9-14.52 2.22v6.18h5.16v15.9l-4.92.54V531zm35.16-15.9c0-9.84-4.68-15.3-14.88-15.3-11.28 0-16.74 5.76-16.74 16.68 0 10.02 5.58 15.48 15.3 15.48 10.8 0 16.32-5.94 16.32-16.86zm-10.08 1.08c0 6.9-2.22 8.76-5.94 8.76-3.48 0-5.76-1.8-5.76-9.42 0-5.4 1.56-8.76 6.12-8.76 4.74 0 5.58 3.54 5.58 9.42zM508.73 531v-6.24l-4.92-.54v-15.24c2.1-.78 4.08-1.02 5.88-1.02 1.26 0 2.28.36 2.52 1.68.18 1.02.18 3 .18 5.88V531h14.52v-6.24l-5.04-.54v-10.68c0-3.36 0-6.12-.24-7.86-.48-3.6-2.22-5.7-6.84-5.7-2.82 0-7.68 1.68-10.98 4.08l-.18-4.14c-4.08 0-10.5 1.02-14.34 2.28v6.12h5.16v15.9l-4.92.54V531zm112.67 22c3.72-13.5 5.88-22.44 6.78-26.88.96 4.44 3.12 13.74 6.36 26.88h11.04l8.28-33.84 4.56-.42v-6.3h-19.98v6.3l5.58.42c-2.22 9.72-3.36 15.06-4.32 19.98-1.38-7.02-2.52-12.42-5.88-26.7h-10.44c-3.96 15.3-5.16 19.68-6.84 27.12-1.14-6.96-2.16-11.7-3.9-20.4l5.76-.42v-6.3h-20.28v6.3l4.14.42L610.3 553zm56.52 0v-6.3l-6-.48 1.74-4.8h12.18l1.74 4.8-5.82.48v6.3h21.06v-6.3l-4.26-.48-12.3-33.78h-12.54l-12.54 33.78-4.32.48v6.3zm-1.74-19.74c2.4-7.14 3.06-9.6 3.72-11.82.54 2.34 1.08 4.38 3.36 11.82zm50.4 19.74v-6.3l-5.76-.54v-26.88l5.76-.54v-6.3h-21.54v6.3l5.76.54v26.88l-5.76.54v6.3zm36.42 0v-6.3l-6-.48 1.74-4.8h12.18l1.74 4.8-5.82.48v6.3h21.06v-6.3l-4.26-.48-12.3-33.78H758.8l-12.54 33.78-4.32.48v6.3zm-1.74-19.74c2.4-7.14 3.06-9.6 3.72-11.82.54 2.34 1.08 4.38 3.36 11.82zM811.42 553v-6.3l-5.58-.54v-9.3h2.76c1.08.42 2.04 1.32 3.24 3.48 1.2 2.1 2.1 4.08 3.72 6.9 1.98 3.48 4.62 5.94 9.36 5.94 2.28 0 5.16-.18 7.02-.48l-.54-7.5c-.66.12-1.32.18-1.68.18-2.58 0-4.14-.72-5.58-3.12-.72-1.26-1.98-3.36-2.52-4.08-1.02-1.56-1.92-2.46-3.06-3 5.34-1.68 8.64-5.04 8.64-11.82 0-5.22-2.94-8.58-7.2-9.9-2.52-.78-5.58-1.02-9.06-1.02h-20.82v6.3l5.76.54v26.88l-5.76.54v6.3zm-5.58-23.76v-9h3.6c2.16 0 3.9.18 4.92.72 1.26.66 2.04 1.56 2.04 3.96 0 1.5-.42 2.7-1.8 3.48-1.44.78-3.66.84-6.18.84zM855.28 553v-6.3l-5.76-.54v-26.88l5.76-.54v-6.3h-21.54v6.3l5.76.54v26.88l-5.76.54v6.3zm22.68 0v-6.3l-6-.48 1.74-4.8h12.18l1.74 4.8-5.82.48v6.3h21.06v-6.3l-4.26-.48-12.3-33.78h-12.54l-12.54 33.78-4.32.48v6.3zm-1.74-19.74c2.4-7.14 3.06-9.6 3.72-11.82.54 2.34 1.08 4.38 3.36 11.82zm204.79 244.54v-7.38l-20.64-9.18 20.64-9.36v-7.26L1053.59 758v6.66zm28.56 15.96v-6.24l-6-.54v-7.68c1.44.18 2.88.24 4.38.24 9.6 0 15.72-5.4 15.72-16.8 0-9.9-3.66-14.88-9.9-14.88-3.9 0-8.1 2.1-10.2 3.84l-.18-3.9c-4.68.18-9.6.9-14.34 2.28v6.12h5.22v30.78l-4.92.54v6.24zm-6-21.9V756.8c1.8-.6 3.36-.96 5.22-.96 2.88 0 4.74 2.28 4.74 7.8 0 6.42-2.46 8.64-6.12 8.64-1.44 0-2.64-.18-3.84-.42zm37.98-31.98c0-3.78-2.1-4.98-4.92-4.98-2.76 0-5.1 1.38-5.1 4.98 0 3.6 2.34 4.92 4.92 4.92 3 0 5.1-1.56 5.1-4.92zm5.82 39.12v-6.24l-4.92-.54v-24.3c-4.74 0-10.02.9-14.52 2.22v6.18h5.16v15.9l-4.92.54V779zm31.26-2.94l-2.76-5.82c-3.18 1.26-5.28 2.04-8.52 2.04-3.54 0-6.66-2.4-6.66-8.22 0-7.26 3-9.3 6.12-9.3.84 0 1.8.12 2.7.3l.54 4.86h7.14c0-5.88 0-8.88-.36-10.86-2.82-.84-6.36-1.26-9.48-1.26-10.68 0-16.44 6.12-16.44 16.86 0 9.36 5.34 15.3 14.1 15.3 5.1 0 9.36-1.44 13.62-3.9zm25.74 2.16l-1.14-6.9c-1.44.24-3.12.3-3.96.3-1.32 0-2.34-.3-2.88-1.08-.66-.9-.9-2.16-.9-4.62v-9.9h7.2v-7.2h-7.2v-8.1l-9 .6c-.24 3.84-.36 5.52-.36 7.5-.78 0-3.78.18-5.58.6v6.6h5.46v11.94c0 3.96.6 7.02 1.86 8.7 1.26 1.74 3.84 2.82 6.9 2.82 3.96 0 7.38-.54 9.6-1.26zm37.68.12v-5.88h-4.8v-24.24c-4.8 0-10.2.78-14.52 1.8v5.88h4.98v14.94c-2.04.72-3.78 1.08-5.52 1.08-1.62 0-2.64-.9-2.88-2.28-.18-1.02-.18-2.52-.18-5.34v-16.08c-4.38 0-9.78.72-14.34 1.74v5.94h4.86v10.38c0 2.82.06 5.4.24 7.14.48 3.9 2.76 6.42 7.98 6.42 3.42 0 7.02-1.5 10.26-4.02l.6 3.72c4.62 0 10.68-.6 13.32-1.2zm22.92.66v-6.24l-5.82-.6V757.7c2.1-1.02 4.8-1.44 7.08-1.44 1.68 0 2.88.12 3.42.18v-8.28c-.54-.06-1.38-.12-1.92-.12-3.72 0-6.96 1.98-8.7 4.98v-5.1c-4.68.06-10.02.84-14.4 2.28v6.12h5.16v15.9l-4.92.54V779zm35.16-3.06l-3-5.88c-2.94 1.62-6.06 2.34-9.54 2.34-3.9 0-6-1.98-6.66-4.86-.12-.6-.12-1.62-.12-1.86h18.72c.12-1.02.18-2.22.18-2.64 0-7.74-2.1-15.24-13.26-15.24-8.16 0-15.3 5.46-15.3 16.62 0 9.24 5.22 15.54 14.1 15.54 5.58 0 10.14-1.26 14.88-4.02zm-9.54-16.56h-9.48c.42-2.82 2.4-4.86 5.16-4.86 3.06 0 4.38 1.5 4.38 3.72 0 .36 0 .72-.06 1.14zm19.8-14.76V752l20.7 9.12-20.7 9.42v7.26l27.42-13.38v-6.6zM597.52 789c3.72-13.5 5.88-22.44 6.78-26.88.96 4.44 3.12 13.74 6.36 26.88h11.04l8.28-33.84 4.56-.42v-6.3h-19.98v6.3l5.58.42c-2.22 9.72-3.36 15.06-4.32 19.98-1.38-7.02-2.52-12.42-5.88-26.7H599.5c-3.96 15.3-5.16 19.68-6.84 27.12-1.14-6.96-2.16-11.7-3.9-20.4l5.76-.42v-6.3h-20.28v6.3l4.14.42 8.04 33.84zm66.12-3.06l-3-5.88c-2.94 1.62-6.06 2.34-9.54 2.34-3.9 0-6-1.98-6.66-4.86-.12-.6-.12-1.62-.12-1.86h18.72c.12-1.02.18-2.22.18-2.64 0-7.74-2.1-15.24-13.26-15.24-8.16 0-15.3 5.46-15.3 16.62 0 9.24 5.22 15.54 14.1 15.54 5.58 0 10.14-1.26 14.88-4.02zm-9.54-16.56h-9.48c.42-2.82 2.4-4.86 5.16-4.86 3.06 0 4.38 1.5 4.38 3.72 0 .36 0 .72-.06 1.14zm16.32 18.54c4.08 1.2 8.82 1.92 13.68 1.92 9.66 0 15.72-5.52 15.72-16.92 0-9.9-3.72-14.82-10.26-14.82-3.72 0-7.62 1.98-9.9 3.78v-17.34c-3.96 0-9.84 1.14-14.46 2.34V753h5.22zm9.3-5.7v-15.24c1.8-.6 3.36-1.02 5.28-1.02 2.58 0 4.68 2.4 4.68 7.86 0 6.42-2.4 8.76-6.12 8.76-1.44 0-2.58-.12-3.84-.36zm24.84-8.28c0 7.02.3 11.34.84 13.92 3.06 1.32 7.92 2.22 14.16 2.22 12.12 0 17.22-5.82 17.22-12.42 0-6.18-1.68-9.3-11.76-12.9l-5.1-1.86c-2.76-.96-3.36-2.22-3.36-4.02 0-1.74 1.26-3.54 6-3.54 1.74 0 3.96.3 5.7.78l.72 6.48h6.96c0-6.6-.12-12.42-.6-13.74-3.06-.78-8.04-1.44-11.94-1.44-12.54 0-17.34 5.76-17.34 12.72 0 7.44 4.26 10.32 10.08 12.12l5.28 1.56c3.48 1.08 4.56 2.4 4.56 4.5 0 2.16-1.44 3.78-5.22 3.78-2.64 0-5.28-.36-8.04-1.2l-.96-6.96zm57.78 14.28l-1.14-6.9c-1.44.24-3.12.3-3.96.3-1.32 0-2.34-.3-2.88-1.08-.66-.9-.9-2.16-.9-4.62v-9.9h7.2v-7.2h-7.2v-8.1l-9 .6c-.24 3.84-.36 5.52-.36 7.5-.78 0-3.78.18-5.58.6v6.6h5.46v11.94c0 3.96.6 7.02 1.86 8.7 1.26 1.74 3.84 2.82 6.9 2.82 3.96 0 7.38-.54 9.6-1.26zm34.38-15.12c0-9.84-4.68-15.3-14.88-15.3-11.28 0-16.74 5.76-16.74 16.68 0 10.02 5.58 15.48 15.3 15.48 10.8 0 16.32-5.94 16.32-16.86zm-10.08 1.08c0 6.9-2.22 8.76-5.94 8.76-3.48 0-5.76-1.8-5.76-9.42 0-5.4 1.56-8.76 6.12-8.76 4.74 0 5.58 3.54 5.58 9.42zM821.32 789v-6.24l-5.82-.6V767.7c2.1-1.02 4.8-1.44 7.08-1.44 1.68 0 2.88.12 3.42.18v-8.28c-.54-.06-1.38-.12-1.92-.12-3.72 0-6.96 1.98-8.7 4.98v-5.1c-4.68.06-10.02.84-14.4 2.28v6.12h5.16v15.9l-4.92.54V789zm37.98-6.84h-4.8v-12.9c0-4.26-.54-6.72-1.56-8.34-1.32-2.16-3.96-3.12-8.34-3.12-3.6 0-10.38 1.02-14.88 2.52l1.32 6.42c3.96-.96 8.16-1.26 10.26-1.26 2.04 0 3 .36 3.54 1.08.36.6.48 1.74.48 2.94v.84c-4.56.18-8.82.6-12.24 1.68-3.54 1.08-5.82 3.78-5.82 8.16 0 4.8 3 9.54 9.9 9.54 2.52 0 6.06-.84 8.7-3.66l.54 3.48c4.32 0 9.78-.66 12.9-1.5zm-13.86-1.14c-1.38 1.26-3.72 2.04-5.34 2.04-2.04 0-3.18-1.2-3.18-3.12 0-1.32.66-2.4 2.22-2.94 2.04-.72 5.16-.84 6.3-.96zm26.28-1.62c1.2.36 2.7.54 4.2.54 7.38 0 13.08-3.6 13.08-10.68 0-.9-.12-2.28-.54-3.24h4.38v-6.78h-9.24c-1.74-.9-4.2-1.44-7.44-1.44-9.66 0-13.5 5.52-13.5 11.4 0 3.6 1.56 7.02 4.38 8.52-2.76 3-3.78 4.92-3.78 6.84 0 2.4 1.32 4.14 3.84 4.92-4.08 1.8-5.94 4.2-5.94 6.9 0 3.84 2.82 8.22 13.74 8.22 11.4 0 17.34-5.22 17.34-11.94 0-5.1-2.4-8.28-9.3-9.06l-10.02-1.14c-1.5-.18-1.92-.84-1.92-1.5 0-.42.18-1.02.72-1.56zm.3 11.34l5.1.3c3.9.24 4.86 1.56 4.86 3.48 0 1.56-1.86 3.3-5.46 3.3-4.98 0-6.42-1.62-6.42-3.24 0-1.26.6-2.52 1.92-3.84zm8.16-21.72c0 3-1.5 4.56-4.2 4.56-2.52 0-3.9-1.44-3.9-4.5 0-2.4 1.02-4.68 4.02-4.68 3.12 0 4.08 2.16 4.08 4.62zm44.34 16.92l-3-5.88c-2.94 1.62-6.06 2.34-9.54 2.34-3.9 0-6-1.98-6.66-4.86-.12-.6-.12-1.62-.12-1.86h18.72c.12-1.02.18-2.22.18-2.64 0-7.74-2.1-15.24-13.26-15.24-8.16 0-15.3 5.46-15.3 16.62 0 9.24 5.22 15.54 14.1 15.54 5.58 0 10.14-1.26 14.88-4.02zm-9.54-16.56h-9.48c.42-2.82 2.4-4.86 5.16-4.86 3.06 0 4.38 1.5 4.38 3.72 0 .36 0 .72-.06 1.14zM721.74 614.94c0 7.02.3 11.34.84 13.92 3.06 1.32 7.92 2.22 14.16 2.22 12.12 0 17.22-5.82 17.22-12.42 0-6.18-1.68-9.3-11.76-12.9l-5.1-1.86c-2.76-.96-3.36-2.22-3.36-4.02 0-1.74 1.26-3.54 6-3.54 1.74 0 3.96.3 5.7.78l.72 6.48h6.96c0-6.6-.12-12.42-.6-13.74-3.06-.78-8.04-1.44-11.94-1.44-12.54 0-17.34 5.76-17.34 12.72 0 7.44 4.26 10.32 10.08 12.12l5.28 1.56c3.48 1.08 4.56 2.4 4.56 4.5 0 2.16-1.44 3.78-5.22 3.78-2.64 0-5.28-.36-8.04-1.2l-.96-6.96zm63.3 15.06l12.84-33.78 4.32-.48v-6.3h-20.82v6.3l6 .48c-6.78 19.5-7.38 21.36-7.98 23.1-.6-2.16-1.08-3.6-7.68-23.1l5.88-.48v-6.3h-21.3v6.3l4.2.48L773.16 630zm56.52-2.16v-12.96l3.12-.24v-6.18h-17.76v6.18l5.16.42v6.48c-1.98.54-4.02.84-6.54.84-6.3 0-9.78-4.08-9.78-11.76 0-10.32 4.74-14.1 11.64-14.1 1.38 0 3.6.3 5.16.72l.9 6.06h7.26c0-9.36-.18-11.46-.6-13.44-4.02-.96-8.04-1.5-13.74-1.5-13.92 0-21.18 8.16-21.18 22.38 0 12.54 7.26 20.34 18.72 20.34 9.3 0 13.86-2.04 17.64-3.24zM681.19 358.76v-6.24l-6-.54v-7.68c1.44.18 2.88.24 4.38.24 9.6 0 15.72-5.4 15.72-16.8 0-9.9-3.66-14.88-9.9-14.88-3.9 0-8.1 2.1-10.2 3.84l-.18-3.9c-4.68.18-9.6.9-14.34 2.28v6.12h5.22v30.78l-4.92.54v6.24zm-6-21.9V321.8c1.8-.6 3.36-.96 5.22-.96 2.88 0 4.74 2.28 4.74 7.8 0 6.42-2.46 8.64-6.12 8.64-1.44 0-2.64-.18-3.84-.42zm44.7 7.14v-6.24l-5.82-.6V322.7c2.1-1.02 4.8-1.44 7.08-1.44 1.68 0 2.88.12 3.42.18v-8.28c-.54-.06-1.38-.12-1.92-.12-3.72 0-6.96 1.98-8.7 4.98v-5.1c-4.68.06-10.02.84-14.4 2.28v6.12h5.16v15.9l-4.92.54V344zm35.16-3.06l-3-5.88c-2.94 1.62-6.06 2.34-9.54 2.34-3.9 0-6-1.98-6.66-4.86-.12-.6-.12-1.62-.12-1.86h18.72c.12-1.02.18-2.22.18-2.64 0-7.74-2.1-15.24-13.26-15.24-8.16 0-15.3 5.46-15.3 16.62 0 9.24 5.22 15.54 14.1 15.54 5.58 0 10.14-1.26 14.88-4.02zm-9.54-16.56h-9.48c.42-2.82 2.4-4.86 5.16-4.86 3.06 0 4.38 1.5 4.38 3.72 0 .36 0 .72-.06 1.14zM779.35 344v-6.24l-5.94-.54v-16.2h13.2v16.2l-4.92.54V344h19.26v-6.24l-4.98-.54v-23.4h-22.56v-1.5c0-1.86.18-3.12.78-4.02.66-.9 1.98-1.2 3.78-1.2 1.02 0 2.22.06 3.54.24l.9-6.78c-1.68-.36-4.98-.66-7.02-.66-3.9 0-7.02 1.2-8.88 3.24-1.68 1.74-2.46 4.68-2.46 8.88v1.8c-.9 0-3.6.18-5.16.54v6.66h5.16v16.2l-4.92.54V344zm15.78-39.12c0-3.78-2.1-4.98-4.92-4.98-2.76 0-5.16 1.38-5.16 4.98 0 3.6 2.4 4.92 4.98 4.92 3 0 5.1-1.56 5.1-4.92zm23.7 39.12v-6.24l-3.78-.54 4.02-5.04 4.8 5.1-2.04.48V344h16.68v-6.24l-3.3-.54-8.28-8.58 7.2-8.22 3.48-.48v-6.12h-15.06v6.06l2.94.42-3.78 4.62-4.02-4.62 2.04-.42v-6.06h-16.68v6.06l3.3.54 7.38 7.74-7.62 9.06-3.66.54V344zm-573.3 84.5v-6.24l-5.94-.54v-16.2h6.24v-7.2h-6.24v-1.5c0-1.86.18-3.12.78-4.02.66-.9 1.98-1.2 3.78-1.2 1.02 0 2.22.06 3.54.24l.9-6.78c-1.68-.36-4.98-.66-7.02-.66-3.9 0-7.02 1.2-8.88 3.24-1.68 1.74-2.46 4.68-2.46 8.88v1.8c-.9 0-3.6.18-5.16.54v6.66h5.16v16.2l-4.92.54v6.24zm36.3-6.84h-4.8v-12.9c0-4.26-.54-6.72-1.56-8.34-1.32-2.16-3.96-3.12-8.34-3.12-3.6 0-10.38 1.02-14.88 2.52l1.32 6.42c3.96-.96 8.16-1.26 10.26-1.26 2.04 0 3 .36 3.54 1.08.36.6.48 1.74.48 2.94v.84c-4.56.18-8.82.6-12.24 1.68-3.54 1.08-5.82 3.78-5.82 8.16 0 4.8 3 9.54 9.9 9.54 2.52 0 6.06-.84 8.7-3.66l.54 3.48c4.32 0 9.78-.66 12.9-1.5zm-13.86-1.14c-1.38 1.26-3.72 2.04-5.34 2.04-2.04 0-3.18-1.2-3.18-3.12 0-1.32.66-2.4 2.22-2.94 2.04-.72 5.16-.84 6.3-.96zm35.64 7.98v-6.24l-4.98-.54v-37.68c-4.32 0-9.6 1.02-14.52 2.34v6.12h5.16v29.22l-4.62.54v6.24zm21.36 0v-6.24l-4.98-.54v-37.68c-4.32 0-9.6 1.02-14.52 2.34v6.12h5.16v29.22l-4.62.54v6.24zm5.52-1.08c4.08 1.2 8.82 1.92 13.68 1.92 9.66 0 15.72-5.52 15.72-16.92 0-9.9-3.72-14.82-10.26-14.82-3.72 0-7.62 1.98-9.9 3.78v-17.34c-3.96 0-9.84 1.14-14.46 2.34v6.12h5.22zm9.3-5.7v-15.24c1.8-.6 3.36-1.02 5.28-1.02 2.58 0 4.68 2.4 4.68 7.86 0 6.42-2.4 8.76-6.12 8.76-1.44 0-2.58-.12-3.84-.36zm56.64-.06h-4.8v-12.9c0-4.26-.54-6.72-1.56-8.34-1.32-2.16-3.96-3.12-8.34-3.12-3.6 0-10.38 1.02-14.88 2.52l1.32 6.42c3.96-.96 8.16-1.26 10.26-1.26 2.04 0 3 .36 3.54 1.08.36.6.48 1.74.48 2.94v.84c-4.56.18-8.82.6-12.24 1.68-3.54 1.08-5.82 3.78-5.82 8.16 0 4.8 3 9.54 9.9 9.54 2.52 0 6.06-.84 8.7-3.66l.54 3.48c4.32 0 9.78-.66 12.9-1.5zm-13.86-1.14c-1.38 1.26-3.72 2.04-5.34 2.04-2.04 0-3.18-1.2-3.18-3.12 0-1.32.66-2.4 2.22-2.94 2.04-.72 5.16-.84 6.3-.96zm44.7 5.04l-2.76-5.82c-3.18 1.26-5.28 2.04-8.52 2.04-3.54 0-6.66-2.4-6.66-8.22 0-7.26 3-9.3 6.12-9.3.84 0 1.8.12 2.7.3l.54 4.86h7.14c0-5.88 0-8.88-.36-10.86-2.82-.84-6.36-1.26-9.48-1.26-10.68 0-16.44 6.12-16.44 16.86 0 9.36 5.34 15.3 14.1 15.3 5.1 0 9.36-1.44 13.62-3.9zm21.6 2.94v-6.24l-4.62-.54v-2.4l3.48-2.76 3.84 5.88c1.08 1.68 2.64 3.66 4.2 4.74s3.84 1.56 6.6 1.56c1.98 0 3.36-.3 4.14-.54l-.42-7.38c-.48.06-.9.06-1.2.06-.36 0-1.38-.12-2.16-.54-1.02-.54-2.28-1.68-3.66-3.66l-4.38-6.48c1.8-1.68 3.72-3.6 5.64-5.52l4.32-.42v-5.94h-17.1v6.12l3.06.36c-2.4 2.7-4.44 4.74-6.36 6.48v-27.24c-4.14 0-10.92 1.26-14.52 2.34v6.12h5.16v29.22l-4.62.54v6.24zm2.82 293.26v-6.24l-6-.54v-7.68c1.44.18 2.88.24 4.38.24 9.6 0 15.72-5.4 15.72-16.8 0-9.9-3.66-14.88-9.9-14.88-3.9 0-8.1 2.1-10.2 3.84l-.18-3.9c-4.68.18-9.6.9-14.34 2.28v6.12h5.22v30.78l-4.92.54v6.24zm-6-21.9V684.8c1.8-.6 3.36-.96 5.22-.96 2.88 0 4.74 2.28 4.74 7.8 0 6.42-2.46 8.64-6.12 8.64-1.44 0-2.64-.18-3.84-.42zm57-8.76c0-9.84-4.68-15.3-14.88-15.3-11.28 0-16.74 5.76-16.74 16.68 0 10.02 5.58 15.48 15.3 15.48 10.8 0 16.32-5.94 16.32-16.86zm-10.08 1.08c0 6.9-2.22 8.76-5.94 8.76-3.48 0-5.76-1.8-5.76-9.42 0-5.4 1.56-8.76 6.12-8.76 4.74 0 5.58 3.54 5.58 9.42zM525.73 707v-6.24l-4.98-.54v-37.68c-4.32 0-9.6 1.02-14.52 2.34V671h5.16v29.22l-4.62.54V707zm7.56 15.66c7.74-2.1 14.4-5.64 18.36-16.62l8.04-22.5 3.66-.54v-6.18h-16.98V683l3.66.42c-1.98 5.94-3.24 11.34-4.38 15.36-1.38-3.9-2.94-9-5.4-15.36l3.78-.42v-6.18h-17.34V683l3.66.54 9 23.46h1.56c-1.44 4.08-5.52 6.6-10.5 8.04zM585.43 707v-6.24l-5.94-.54v-16.2h13.2v16.2l-4.92.54V707h19.26v-6.24l-4.98-.54v-23.4h-22.56v-1.5c0-1.86.18-3.12.78-4.02.66-.9 1.98-1.2 3.78-1.2 1.02 0 2.22.06 3.54.24l.9-6.78c-1.68-.36-4.98-.66-7.02-.66-3.9 0-7.02 1.2-8.88 3.24-1.68 1.74-2.46 4.68-2.46 8.88v1.8c-.9 0-3.6.18-5.16.54v6.66h5.16v16.2l-4.92.54V707zm15.78-39.12c0-3.78-2.1-4.98-4.92-4.98-2.76 0-5.16 1.38-5.16 4.98 0 3.6 2.4 4.92 4.98 4.92 3 0 5.1-1.56 5.1-4.92zm27.3 39.12v-6.24l-4.98-.54v-37.68c-4.32 0-9.6 1.02-14.52 2.34V671h5.16v29.22l-4.62.54V707zm21.36 0v-6.24l-4.98-.54v-37.68c-4.32 0-9.6 1.02-14.52 2.34V671h5.16v29.22l-4.62.54V707z" opacity=".117" fill="#F4F1C7"/><path d="M611.25 933.42l3.48-.42v-6.18h-15.42V933l3.42.42c-1.14 6.48-1.8 10.26-2.28 13.5-.66-2.88-1.56-5.76-5.46-18.84h-7.26c-3.54 12-4.26 15.12-5.22 18.9-.36-2.22-1.32-6.66-2.7-13.44l3.6-.54v-6.18h-16.92V933l3.66.54 5.64 23.46h10.74c2.76-8.76 3.84-12.42 4.62-15.72.84 3.54 1.68 6.9 4.02 15.72h10.62zm48.36 0l3.48-.42v-6.18h-15.42V933l3.42.42c-1.14 6.48-1.8 10.26-2.28 13.5-.66-2.88-1.56-5.76-5.46-18.84h-7.26c-3.54 12-4.26 15.12-5.22 18.9-.36-2.22-1.32-6.66-2.7-13.44l3.6-.54v-6.18h-16.92V933l3.66.54 5.64 23.46h10.74c2.76-8.76 3.84-12.42 4.62-15.72.84 3.54 1.68 6.9 4.02 15.72h10.62zm48.36 0l3.48-.42v-6.18h-15.42V933l3.42.42c-1.14 6.48-1.8 10.26-2.28 13.5-.66-2.88-1.56-5.76-5.46-18.84h-7.26c-3.54 12-4.26 15.12-5.22 18.9-.36-2.22-1.32-6.66-2.7-13.44l3.6-.54v-6.18h-16.92V933l3.66.54 5.64 23.46h10.74c2.76-8.76 3.84-12.42 4.62-15.72.84 3.54 1.68 6.9 4.02 15.72h10.62zm14.16 18.54c0-4.56-2.88-5.88-5.52-5.88-2.82 0-5.64 1.74-5.64 5.88 0 4.26 3.06 5.7 5.46 5.7 3.3 0 5.7-1.74 5.7-5.7zm26.1 5.04l9.36-23.46 3.66-.54v-6.18h-17.16V933l3.66.42c-2.04 5.94-3.54 10.8-4.74 14.82-1.38-4.2-2.7-8.82-5.04-14.82l3.78-.42v-6.18h-17.58V933l3.66.54 9.36 23.46zm43.38 0c.3-1.38.72-5.16.72-13.08h-6.6l-1.14 6.3h-9.3c3.12-3.24 5.76-6.06 15.78-17.28v-6.12h-26.64c-.42 1.44-.78 4.74-.78 12.36h6.36l1.2-5.82h7.14c-3.36 3.6-6.12 6.96-15.3 17.58V957zm23.22 0v-6.24l-4.98-.54v-15.24c1.86-.72 4.08-1.02 5.88-1.02 1.26 0 2.28.36 2.52 1.68.18 1.02.18 3 .18 5.88V957h14.52v-6.24l-5.04-.54V939.3c0-3.36 0-5.94-.24-7.62-.48-3.6-2.34-5.7-6.84-5.7-2.7 0-7.68 1.74-11.04 4.08v-17.52c-4.08 0-10.2 1.08-14.46 2.34V921h5.16v29.22l-4.62.54V957zm56.1-.66v-5.88h-4.8v-24.24c-4.8 0-10.2.78-14.52 1.8v5.88h4.98v14.94c-2.04.72-3.78 1.08-5.52 1.08-1.62 0-2.64-.9-2.88-2.28-.18-1.02-.18-2.52-.18-5.34v-16.08c-4.38 0-9.78.72-14.34 1.74v5.94h4.86v10.38c0 2.82.06 5.4.24 7.14.48 3.9 2.76 6.42 7.98 6.42 3.42 0 7.02-1.5 10.26-4.02l.6 3.72c4.62 0 10.68-.6 13.32-1.2zm22.92.66v-6.24l-5.82-.6V935.7c2.1-1.02 4.8-1.44 7.08-1.44 1.68 0 2.88.12 3.42.18v-8.28c-.54-.06-1.38-.12-1.92-.12-3.72 0-6.96 1.98-8.7 4.98v-5.1c-4.68.06-10.02.84-14.4 2.28v6.12h5.16v15.9l-4.92.54V957zm43.68-.66v-5.88h-4.8v-24.24c-4.8 0-10.2.78-14.52 1.8v5.88h4.98v14.94c-2.04.72-3.78 1.08-5.52 1.08-1.62 0-2.64-.9-2.88-2.28-.18-1.02-.18-2.52-.18-5.34v-16.08c-4.38 0-9.78.72-14.34 1.74v5.94h4.86v10.38c0 2.82.06 5.4.24 7.14.48 3.9 2.76 6.42 7.98 6.42 3.42 0 7.02-1.5 10.26-4.02l.6 3.72c4.62 0 10.68-.6 13.32-1.2zm37.74-5.88h-4.8v-37.98c-4.86.06-10.26 1.08-15.12 2.4V921h5.58v5.94c-1.44-.54-3.84-.78-5.4-.78-7.5 0-14.4 4.5-14.4 16.44 0 9.48 5.04 15 11.76 15 3.3 0 6.12-1.32 8.52-3.54l.54 3.48c4.5 0 9.54-.42 13.32-1.2zm-14.34-1.86c-1.92 1.02-3.6 1.5-4.8 1.5-2.94 0-5.22-1.56-5.22-7.98 0-6.9 3.06-8.16 6.12-8.16 1.08 0 2.46.12 3.9.42zm49.26-7.5c0-9.84-4.68-15.3-14.88-15.3-11.28 0-16.74 5.76-16.74 16.68 0 10.02 5.58 15.48 15.3 15.48 10.8 0 16.32-5.94 16.32-16.86zm-10.08 1.08c0 6.9-2.22 8.76-5.94 8.76-3.48 0-5.76-1.8-5.76-9.42 0-5.4 1.56-8.76 6.12-8.76 4.74 0 5.58 3.54 5.58 9.42zm33.12 14.82v-6.24l-4.98-.54v-37.68c-4.32 0-9.6 1.02-14.52 2.34V921h5.16v29.22l-4.62.54V957zm38.04-.66v-5.88h-4.8v-24.24c-4.8 0-10.2.78-14.52 1.8v5.88h4.98v14.94c-2.04.72-3.78 1.08-5.52 1.08-1.62 0-2.64-.9-2.88-2.28-.18-1.02-.18-2.52-.18-5.34v-16.08c-4.38 0-9.78.72-14.34 1.74v5.94h4.86v10.38c0 2.82.06 5.4.24 7.14.48 3.9 2.76 6.42 7.98 6.42 3.42 0 7.02-1.5 10.26-4.02l.6 3.72c4.62 0 10.68-.6 13.32-1.2zm14.94-4.38c0-4.56-2.88-5.88-5.52-5.88-2.82 0-5.64 1.74-5.64 5.88 0 4.26 3.06 5.7 5.46 5.7 3.3 0 5.7-1.74 5.7-5.7zm32.4 2.1l-2.76-5.82c-3.18 1.26-5.28 2.04-8.52 2.04-3.54 0-6.66-2.4-6.66-8.22 0-7.26 3-9.3 6.12-9.3.84 0 1.8.12 2.7.3l.54 4.86h7.14c0-5.88 0-8.88-.36-10.86-2.82-.84-6.36-1.26-9.48-1.26-10.68 0-16.44 6.12-16.44 16.86 0 9.36 5.34 15.3 14.1 15.3 5.1 0 9.36-1.44 13.62-3.9zm32.22 2.94c.3-1.38.72-5.16.72-13.08h-6.6l-1.14 6.3h-9.3c3.12-3.24 5.76-6.06 15.78-17.28v-6.12h-26.64c-.42 1.44-.78 4.74-.78 12.36h6.36l1.2-5.82h7.14c-3.36 3.6-6.12 6.96-15.3 17.58V957zm7.56 4.98l19.62-48.78h-4.8l-19.68 48.78zm41.82-4.98v-6.24l-4.62-.54v-2.4l3.48-2.76 3.84 5.88c1.08 1.68 2.64 3.66 4.2 4.74s3.84 1.56 6.6 1.56c1.98 0 3.36-.3 4.14-.54l-.42-7.38c-.48.06-.9.06-1.2.06-.36 0-1.38-.12-2.16-.54-1.02-.54-2.28-1.68-3.66-3.66l-4.38-6.48c1.8-1.68 3.72-3.6 5.64-5.52l4.32-.42v-5.94h-17.1v6.12l3.06.36c-2.4 2.7-4.44 4.74-6.36 6.48v-27.24c-4.14 0-10.92 1.26-14.52 2.34V921h5.16v29.22l-4.62.54V957zm54.96-.66v-5.88h-4.8v-24.24c-4.8 0-10.2.78-14.52 1.8v5.88h4.98v14.94c-2.04.72-3.78 1.08-5.52 1.08-1.62 0-2.64-.9-2.88-2.28-.18-1.02-.18-2.52-.18-5.34v-16.08c-4.38 0-9.78.72-14.34 1.74v5.94h4.86v10.38c0 2.82.06 5.4.24 7.14.48 3.9 2.76 6.42 7.98 6.42 3.42 0 7.02-1.5 10.26-4.02l.6 3.72c4.62 0 10.68-.6 13.32-1.2zm22.92.66v-6.24l-5.82-.6V935.7c2.1-1.02 4.8-1.44 7.08-1.44 1.68 0 2.88.12 3.42.18v-8.28c-.54-.06-1.38-.12-1.92-.12-3.72 0-6.96 1.98-8.7 4.98v-5.1c-4.68.06-10.02.84-14.4 2.28v6.12h5.16v15.9l-4.92.54V957zm36.48 0c.3-1.38.72-5.16.72-13.08h-6.6l-1.14 6.3h-9.3c3.12-3.24 5.76-6.06 15.78-17.28v-6.12h-26.64c-.42 1.44-.78 4.74-.78 12.36h6.36l1.2-5.82h7.14c-3.36 3.6-6.12 6.96-15.3 17.58V957zm8.94 15.66c7.74-2.1 14.4-5.64 18.36-16.62l8.04-22.5 3.66-.54v-6.18h-16.98V933l3.66.42c-1.98 5.94-3.24 11.34-4.38 15.36-1.38-3.9-2.94-9-5.4-15.36l3.78-.42v-6.18h-17.34V933l3.66.54 9 23.46h1.56c-1.44 4.08-5.52 6.6-10.5 8.04z" fill="#5FA316"/><path d="M569.8 967l771.3 2" stroke="#5FA316" stroke-width="4" fill="none"/></svg>