<?xml version="1.0" encoding="UTF-8"?>
<!DOCTYPE svg PUBLIC "-//W3C//DTD SVG 1.1//EN" "http://www.w3.org/Graphics/SVG/1.1/DTD/svg11.dtd">
<svg version="1.1" xmlns="http://www.w3.org/2000/svg" xmlns:xlink="http://www.w3.org/1999/xlink" x="0" y="0" width="500" height="500" viewBox="0, 0, 500, 500">
  <g id="Box_Semitransparent">
    <g id="Box_-_semitransparent" opacity="0.15">
      <path d="M254.055,298.111 L22,207.318 L22,106.786 L254.055,16 L486.109,106.786 L486.109,207.318 L254.055,298.111 z M52.085,187.897 L254.055,266.923 L456.024,187.905 L456.024,126.206 L254.055,47.188 L52.085,126.206 L52.085,187.897 z" fill="#FFFFFF"/>
      <path d="M254.055,484 L37.577,399.307 L37.577,207.737 L67.662,207.737 L67.662,379.887 L254.055,452.812 L440.448,379.887 L440.448,207.737 L470.533,207.737 L470.533,399.307 z" fill="#FFFFFF"/>
      <path d="M254.055,213.101 L32.786,126.517 L41.307,106.468 L254.055,189.702 L466.802,106.468 L475.324,126.517 z" fill="#FFFFFF"/>
      <path d="M242.773,201.405 L265.337,201.405 L265.337,282.517 L242.773,282.517 z" fill="#FFFFFF"/>
      <path d="M242.773,288.04 L265.337,288.04 L265.337,469.417 L242.773,469.417 z" fill="#FFFFFF"/>
    </g>
  </g>
  <g id="Adam">
    <g id="ikon">
      <path d="M242.164,395.627 L242.164,370.038 C222.016,370.038 207.241,361.836 207.241,330.997 L207.241,295.893 C207.241,269.318 194.145,253.243 171.982,248.978 C195.824,242.416 207.241,228.637 207.241,199.438 L207.241,161.382 C207.241,132.183 222.016,127.918 242.164,127.918 L242.164,102 C184.743,102 161.237,117.42 161.237,160.069 L161.237,193.861 C161.237,221.091 154.521,235.855 129,238.807 L129,259.148 C152.506,261.445 161.237,273.255 161.237,303.438 L161.237,339.527 C161.237,383.161 187.429,395.627 242.164,395.627 z" fill="#59AC71"/>
      <path d="M258.836,397 L258.836,371.41 C278.984,371.41 293.759,363.208 293.759,332.369 L293.759,297.265 C293.759,270.691 306.855,254.615 329.018,250.35 C305.176,243.789 293.759,230.01 293.759,200.811 L293.759,162.754 C293.759,133.556 278.984,129.291 258.836,129.291 L258.836,103.373 C316.257,103.373 339.763,118.792 339.763,161.442 L339.763,195.234 C339.763,222.464 346.479,237.227 372,240.18 L372,260.521 C348.494,262.817 339.763,274.628 339.763,304.811 L339.763,340.899 C339.763,384.533 313.571,397 258.836,397 z" fill="#59AC71"/>
    </g>
  </g>
</svg>
