<?xml version="1.0" encoding="UTF-8"?>
<!DOCTYPE svg PUBLIC "-//W3C//DTD SVG 1.1//EN" "http://www.w3.org/Graphics/SVG/1.1/DTD/svg11.dtd">
<svg version="1.1" xmlns="http://www.w3.org/2000/svg" xmlns:xlink="http://www.w3.org/1999/xlink" x="0" y="0" width="500" height="500" viewBox="0, 0, 500, 500">
  <g id="Dokumentace,_style_guides">
    <path d="M408.243,144.443 L298.157,34.355 C289.604,25.804 278.006,21 265.912,21 L102.4,21 C77.216,21 56.8,41.415 56.8,66.6 L56.8,431.4 C56.8,456.584 77.216,477 102.4,477 L376,477 C401.184,477 421.6,456.584 421.6,431.4 L421.6,176.688 C421.6,164.594 416.796,152.995 408.243,144.443 z M102.4,431.4 L102.4,66.6 L262,66.6 L262,157.8 C262,170.391 272.207,180.6 284.8,180.6 L376,180.6 L376,431.4 L102.4,431.4 z" fill="#59AC71"/>
    <path d="M419.548,135.071 L291.19,263.428 L231.29,203.528 L188.504,246.314 L291.19,349 L462.333,177.857 z" fill="#FFFFFF"/>
  </g>
</svg>
