<?xml version="1.0" encoding="utf-8"?>
<!-- Generator: Adobe Illustrator 16.0.3, SVG Export Plug-In . SVG Version: 6.00 Build 0)  -->
<!DOCTYPE svg PUBLIC "-//W3C//DTD SVG 1.1//EN" "http://www.w3.org/Graphics/SVG/1.1/DTD/svg11.dtd">
<svg version="1.1" id="Vrstva_1" xmlns="http://www.w3.org/2000/svg" xmlns:xlink="http://www.w3.org/1999/xlink" x="0px" y="0px"
	 width="500px" height="500px" viewBox="170.945 47.64 500 500" enable-background="new 170.945 47.64 500 500"
	 xml:space="preserve">
<g>
	<path fill="#FFFFFF" d="M593.545,362.552h-0.238h0.119c-17.63-0.013-32.637-2.643-38.518-6.341l7.207,11.281l2.631,35.122
		c0,0,28.723,19.854,57.12,0l2.083-35.505l6.211-9.937c-6.793,3.185-20.672,5.368-36.734,5.38h0.121L593.545,362.552z"/>
	<path fill="none" stroke="#000000" stroke-width="0.594" d="M594.01,363.016h-0.239h0.121c-17.631-0.012-32.639-2.643-38.52-6.34
		l7.207,11.28l2.631,35.123c0,0,28.723,19.854,57.12,0l2.084-35.506l6.21-9.937c-6.792,3.186-20.672,5.369-36.732,5.381h0.119
		L594.01,363.016z"/>
	<path fill="#FFFFFF" d="M632.47,314.532c-1.254,0.928-2.48,1.646-3.676,2.151c-1.216,0.512-2.523,0.771-3.842,0.762
		c-1.279,0-2.27-0.273-2.969-0.819s-1.048-1.297-1.048-2.255v-0.219c0-0.067,0.009-0.152,0.025-0.249
		c0.067-0.585,0.329-1.26,0.784-2.021c0.496-0.823,1.044-1.615,1.641-2.371c0.66-0.847,1.344-1.676,2.047-2.488
		c0.68-0.788,1.35-1.584,2.01-2.387c0.546-0.659,1.055-1.349,1.527-2.063c0.404-0.625,0.607-1.131,0.607-1.521
		c0.008-0.216-0.086-0.422-0.254-0.558c-0.168-0.135-0.447-0.204-0.834-0.204c-0.674,0-1.369,0.171-2.084,0.512
		c-0.762,0.371-1.475,0.833-2.123,1.377c-0.73,0.606-1.416,1.267-2.047,1.975c-0.662,0.739-1.285,1.511-1.869,2.313
		c-0.567,0.779-1.098,1.585-1.59,2.415c-0.438,0.731-0.846,1.478-1.227,2.239c-0.101,0.215-0.245,0.518-0.43,0.907
		c-0.188,0.391-0.387,0.831-0.606,1.317c-0.226,0.505-0.458,1.007-0.696,1.506c-0.228,0.486-0.451,0.975-0.668,1.467l-0.541,1.229
		c-0.111,0.25-0.225,0.498-0.342,0.745c-0.086,0.177-0.225,0.507-0.417,0.996c-0.226,0.569-0.448,1.14-0.67,1.712l-0.796,2.064
		c-0.275,0.721-0.539,1.406-0.782,2.049l-0.644,1.698c-0.186,0.487-0.305,0.82-0.354,0.995c-0.168,0.509-0.366,0.984-0.595,1.436
		c-0.227,0.446-0.486,0.843-0.781,1.185c-0.294,0.341-0.633,0.614-1.012,0.818c-0.391,0.21-0.83,0.316-1.273,0.31
		c-0.608,0-1.108-0.145-1.506-0.427c-0.395-0.283-0.593-0.824-0.593-1.625c0-0.391,0.052-0.79,0.153-1.198
		c0.1-0.41,0.227-0.816,0.378-1.216c0.151-0.401,0.309-0.79,0.468-1.17c0.16-0.384,0.307-0.748,0.441-1.099
		c0.915-1.962,1.842-3.919,2.779-5.87c0.928-1.931,1.834-3.872,2.717-5.825c0.182-0.401,0.346-0.794,0.523-1.191l-0.158,0.153
		c-1.03,0.98-2.123,1.896-3.27,2.737c-1.008,0.742-2.093,1.376-3.235,1.887c-1.069,0.47-2.11,0.703-3.12,0.703
		c-0.691,0-1.267-0.107-1.729-0.321c-0.438-0.196-0.821-0.497-1.113-0.877c-0.288-0.394-0.49-0.843-0.593-1.319
		c-0.041-0.172-0.065-0.354-0.092-0.535c-0.295,0.226-0.594,0.445-0.894,0.653c-0.97,0.679-2.001,1.263-3.083,1.741
		c-1.011,0.438-1.92,0.658-2.729,0.658s-1.465-0.263-1.971-0.79s-0.759-1.426-0.759-2.693c0-0.899,0.136-1.942,0.403-3.133
		c-0.476,0.818-1.025,1.592-1.64,2.312c-0.669,0.793-1.423,1.511-2.248,2.139c-0.863,0.654-1.817,1.183-2.831,1.565
		c-1.044,0.401-2.182,0.601-3.41,0.601c-0.541,0.002-1.082-0.066-1.604-0.205c-0.498-0.129-0.96-0.368-1.352-0.702
		c-0.388-0.331-0.698-0.775-0.935-1.331c-0.236-0.557-0.354-1.255-0.354-2.094c0-0.02,0.033-0.316,0.1-0.895
		c0.068-0.575,0.283-1.481,0.645-2.724c0.363-1.236,0.922-2.844,1.68-4.814c0.76-1.972,1.826-4.361,3.211-7.17
		c0.353-0.744,0.76-1.275,1.223-1.597c0.438-0.313,0.965-0.482,1.504-0.483c0.236,0,0.48,0.035,0.732,0.103
		c0.254,0.069,0.488,0.176,0.709,0.322c0.219,0.145,0.396,0.332,0.53,0.556c0.134,0.225,0.202,0.483,0.202,0.776
		c0,0.194-0.025,0.38-0.076,0.557c-0.085,0.333-0.266,0.766-0.541,1.301c-0.279,0.538-0.604,1.152-0.975,1.845
		c-0.396,0.743-0.789,1.491-1.174,2.241c-0.42,0.812-0.803,1.642-1.149,2.488c-0.354,0.854-0.657,1.729-0.91,2.619
		c-0.245,0.844-0.39,1.713-0.429,2.591c0,0.352,0.083,0.674,0.252,0.966c0.168,0.293,0.445,0.439,0.834,0.439
		c1.094,0,2.139-0.352,3.133-1.053c1.034-0.743,1.961-1.624,2.754-2.621c0.852-1.059,1.617-2.186,2.287-3.367
		c0.615-1.072,1.184-2.171,1.705-3.292c0.319-0.664,0.603-1.378,0.846-2.138c0.227-0.716,0.492-1.42,0.795-2.108
		c0.248-0.582,0.58-1.124,0.985-1.609c0.341-0.416,0.853-0.654,1.39-0.646c0.607,0,1.087,0.226,1.441,0.674
		c0.354,0.449,0.529,0.986,0.529,1.609c0,0.352-0.111,0.836-0.34,1.45c-0.268,0.711-0.553,1.414-0.859,2.108
		c-0.371,0.846-0.746,1.69-1.125,2.532c-0.405,0.899-0.78,1.813-1.123,2.736c-0.334,0.893-0.621,1.801-0.861,2.724
		c-0.215,0.807-0.33,1.638-0.34,2.473c0,0.702,0.37,1.055,1.112,1.055c0.523,0,1.17-0.176,1.945-0.527
		c0.774-0.35,1.589-0.845,2.438-1.479c0.213-0.157,0.426-0.323,0.639-0.498c0.238-0.956,0.516-1.842,0.838-2.648
		c0.59-1.516,1.187-3.027,1.795-4.536l1.668-4.13l7.654-18.883c0.304-0.759,0.713-1.296,1.225-1.608
		c0.514-0.313,1.031-0.469,1.555-0.469c0.519-0.001,1.021,0.175,1.426,0.497c0.431,0.333,0.646,0.869,0.646,1.611
		c0,0.352-0.072,0.723-0.216,1.112c-0.144,0.393-0.325,0.811-0.544,1.259c-0.419,0.918-0.922,2.04-1.502,3.367
		c-1.334,3.058-2.64,6.127-3.916,9.208c-0.698,1.688-1.382,3.333-2.047,4.933c-0.63,1.515-1.253,3.032-1.869,4.553
		c-0.502,1.242-1.004,2.485-1.504,3.73c-0.207,0.513-0.388,1.035-0.543,1.566c-0.164,0.517-0.252,1.055-0.264,1.597
		c0,0.291,0.049,0.526,0.15,0.701c0.101,0.175,0.295,0.265,0.582,0.265c0.354,0,0.795-0.123,1.325-0.367
		c0.596-0.279,1.17-0.603,1.718-0.967c0.615-0.399,1.256-0.857,1.92-1.376c0.672-0.522,1.334-1.059,1.982-1.609
		c0.642-0.541,1.27-1.098,1.884-1.669c0.543-0.503,1.078-1.016,1.604-1.535c0.111-0.11,0.244-0.196,0.389-0.253
		c0.277-0.808,0.535-1.621,0.771-2.44c0.137-0.353,0.32-0.849,0.557-1.494c0.238-0.646,0.508-1.282,0.809-1.901
		c0.275-0.581,0.619-1.125,1.023-1.625c0.379-0.458,0.787-0.688,1.227-0.688c0.672,0,1.162,0.152,1.465,0.452
		c0.304,0.304,0.455,0.747,0.455,1.334c0,0.116-0.018,0.302-0.051,0.554c-0.07,0.542-0.167,1.079-0.291,1.611
		c-0.039,0.188-0.094,0.375-0.162,0.557c0.645-0.687,1.318-1.347,2.019-1.977c0.708-0.641,1.46-1.232,2.249-1.771
		c0.744-0.51,1.54-0.942,2.375-1.288c0.768-0.323,1.591-0.492,2.424-0.497c0.557,0,1.109,0.078,1.656,0.234
		c0.523,0.145,1.02,0.377,1.465,0.688c0.43,0.304,0.781,0.684,1.049,1.142c0.27,0.457,0.404,0.99,0.404,1.596
		c0,0.801-0.205,1.654-0.619,2.561c-0.413,0.908-0.932,1.82-1.553,2.735c-0.63,0.926-1.305,1.819-2.021,2.68
		c-0.666,0.801-1.344,1.591-2.033,2.371c-0.535,0.603-1.066,1.207-1.594,1.814c-0.428,0.5-0.65,0.836-0.668,1.012
		c0,0.234,0.076,0.424,0.227,0.571c0.152,0.146,0.406,0.22,0.76,0.22c0.287,0,0.707-0.158,1.263-0.47
		c0.556-0.311,1.337-0.854,2.338-1.623c1.293-1.008,2.565-2.043,3.815-3.104c1.236-1.044,2.465-2.097,3.688-3.157l7.13-60.526
		h-0.048c-7.231,3.387-27.545,6.965-51.479,6.965c-23.93,0-44.246-3.578-51.477-6.965h-0.061l5.417,55.555
		c0.29-0.965,0.61-1.92,0.96-2.865c0.728-1.954,1.566-3.865,2.514-5.723c0.93-1.822,1.967-3.587,3.107-5.284
		c1.082-1.61,2.278-3.141,3.577-4.581c1.181-1.32,2.483-2.525,3.891-3.602c1.33-1.003,2.674-1.79,4.028-2.356
		c1.356-0.565,2.7-0.849,4.031-0.849c1.533,0,3.015,0.41,4.446,1.23c1.433,0.819,2.77,2.146,4.018,3.982
		c0.286,0.409,0.468,0.825,0.542,1.243c0.076,0.419,0.113,0.814,0.113,1.185c0,0.879-0.214,1.572-0.643,2.078
		c-0.431,0.509-0.939,0.762-1.529,0.762c-0.54,0-1.041-0.278-1.504-0.833c-0.463-0.556-0.981-1.353-1.554-2.386
		c-0.538-0.938-1.134-1.614-1.782-2.034c-0.625-0.413-1.358-0.633-2.107-0.63c-1.181,0-2.439,0.478-3.777,1.433
		c-1.34,0.957-2.666,2.221-3.979,3.792c-1.313,1.572-2.571,3.368-3.776,5.387c-1.195,1.999-2.263,4.072-3.197,6.207
		c-0.895,2.028-1.635,4.123-2.21,6.263c-0.548,2.06-0.821,3.909-0.821,5.548c0,0.547,0.037,1.108,0.113,1.683
		c0.066,0.541,0.211,1.069,0.43,1.566c0.211,0.469,0.496,0.854,0.859,1.156c0.363,0.304,0.82,0.453,1.376,0.453
		c0.623,0,1.33-0.205,2.122-0.615c0.792-0.408,1.614-0.946,2.463-1.609c0.896-0.703,1.752-1.456,2.564-2.254
		c0.838-0.814,1.639-1.663,2.4-2.547c0.692-0.796,1.35-1.621,1.971-2.474c0.573-0.79,1.004-1.479,1.291-2.063l2.35-6.88
		c0.284-0.74,0.659-1.267,1.123-1.581c0.463-0.312,0.939-0.468,1.427-0.468c0.235,0,0.472,0.041,0.708,0.118
		c0.236,0.078,0.447,0.2,0.633,0.365c0.186,0.167,0.333,0.38,0.441,0.644c0.109,0.264,0.164,0.571,0.164,0.922
		c0,0.937-0.086,1.813-0.254,2.635c-0.166,0.813-0.381,1.614-0.643,2.4c-0.268,0.794-0.559,1.58-0.873,2.356
		c-0.33,0.817-0.642,1.642-0.934,2.475c-0.068,0.097-0.189,0.403-0.366,0.921c-0.513,1.514-1.002,3.036-1.465,4.566
		c-0.302,0.986-0.604,1.973-0.909,2.957c-0.306,0.984-0.605,1.969-0.896,2.956c-0.452,1.525-0.898,3.053-1.34,4.581
		c-0.088,0.313-0.181,0.626-0.277,0.938c-0.104,0.357-0.238,0.705-0.404,1.038c-0.186,0.381-0.406,0.744-0.658,1.086
		c-0.234,0.321-0.515,0.606-0.833,0.847c-0.267,0.212-0.596,0.329-0.936,0.337c-0.539,0-0.931-0.175-1.175-0.525
		c-0.244-0.353-0.366-0.997-0.366-1.933v-0.411c0-0.136,0.009-0.281,0.025-0.438c0.017-0.313,0.145-0.899,0.38-1.759
		c0.236-0.856,0.517-1.827,0.847-2.91c0.327-1.086,0.681-2.207,1.06-3.368c0.381-1.161,0.721-2.199,1.023-3.116
		c-0.928,1.011-1.896,1.981-2.904,2.912c-1.011,0.938-2.083,1.809-3.209,2.605c-1.038,0.738-2.146,1.371-3.311,1.889
		c-1.112,0.487-2.182,0.731-3.209,0.731c-1.179,0-2.193-0.255-3.045-0.762c-0.154-0.092-0.296-0.195-0.441-0.297l3.441,35.299
		l2.004,3.137c5.879,3.697,20.887,6.327,38.52,6.338c16.061-0.011,29.939-2.194,36.73-5.379l2.563-4.096l4.943-41.957
		c-0.41,0.366-0.807,0.724-1.188,1.071c-1.278,1.176-2.615,2.287-4.006,3.327V314.532z"/>
	<path fill="none" stroke="#000000" stroke-width="0.594" d="M632.935,314.998c-1.254,0.927-2.48,1.645-3.676,2.15
		c-1.215,0.512-2.523,0.771-3.842,0.763c-1.279,0-2.269-0.274-2.968-0.819c-0.698-0.547-1.048-1.298-1.048-2.255v-0.219
		c0-0.067,0.008-0.152,0.025-0.249c0.066-0.585,0.329-1.261,0.783-2.021c0.498-0.824,1.045-1.616,1.641-2.371
		c0.662-0.847,1.346-1.676,2.048-2.489c0.68-0.787,1.349-1.583,2.009-2.386c0.546-0.659,1.057-1.349,1.528-2.063
		c0.404-0.625,0.606-1.132,0.606-1.521c0.008-0.216-0.086-0.422-0.253-0.559c-0.169-0.134-0.448-0.204-0.834-0.204
		c-0.675,0-1.368,0.171-2.085,0.513c-0.762,0.371-1.475,0.833-2.123,1.377c-0.73,0.606-1.414,1.267-2.046,1.975
		c-0.662,0.739-1.286,1.511-1.87,2.313c-0.566,0.78-1.098,1.586-1.59,2.416c-0.436,0.73-0.846,1.478-1.227,2.239
		c-0.1,0.214-0.244,0.518-0.43,0.906c-0.188,0.391-0.387,0.832-0.605,1.319c-0.227,0.504-0.458,1.006-0.696,1.505
		c-0.229,0.486-0.45,0.975-0.667,1.466l-0.543,1.229c-0.11,0.251-0.225,0.499-0.341,0.746c-0.085,0.177-0.225,0.506-0.417,0.995
		c-0.226,0.569-0.449,1.141-0.67,1.712l-0.797,2.064c-0.275,0.722-0.537,1.406-0.782,2.05l-0.644,1.697
		c-0.186,0.488-0.305,0.82-0.354,0.995c-0.167,0.509-0.366,0.985-0.593,1.436c-0.229,0.447-0.488,0.844-0.782,1.186
		c-0.295,0.341-0.632,0.614-1.011,0.818c-0.393,0.209-0.831,0.315-1.275,0.309c-0.607,0-1.107-0.143-1.506-0.427
		c-0.395-0.282-0.592-0.824-0.592-1.624c0-0.391,0.051-0.79,0.152-1.198c0.1-0.411,0.227-0.816,0.379-1.216
		c0.152-0.402,0.308-0.791,0.467-1.171c0.161-0.383,0.308-0.747,0.441-1.098c0.916-1.963,1.842-3.919,2.78-5.87
		c0.929-1.931,1.834-3.873,2.716-5.825c0.182-0.402,0.347-0.794,0.523-1.192l-0.156,0.153c-1.031,0.981-2.124,1.896-3.271,2.737
		c-1.008,0.743-2.092,1.377-3.234,1.888c-1.068,0.469-2.11,0.702-3.121,0.702c-0.69,0-1.266-0.106-1.729-0.32
		c-0.438-0.196-0.82-0.497-1.113-0.878c-0.289-0.393-0.49-0.842-0.594-1.318c-0.04-0.173-0.064-0.354-0.092-0.535
		c-0.294,0.226-0.593,0.445-0.894,0.652c-0.968,0.68-2.001,1.263-3.081,1.741c-1.012,0.439-1.922,0.658-2.73,0.658
		c-0.807,0-1.465-0.263-1.971-0.79c-0.505-0.527-0.758-1.425-0.758-2.693c0-0.898,0.137-1.942,0.404-3.132
		c-0.478,0.818-1.026,1.592-1.641,2.312c-0.67,0.793-1.424,1.51-2.248,2.138c-0.864,0.655-1.817,1.183-2.831,1.566
		c-1.045,0.4-2.182,0.6-3.411,0.6c-0.541,0.003-1.08-0.065-1.604-0.205c-0.498-0.128-0.961-0.368-1.352-0.701
		c-0.389-0.331-0.699-0.776-0.935-1.332c-0.237-0.557-0.353-1.254-0.353-2.093c0-0.02,0.031-0.317,0.099-0.895
		c0.068-0.576,0.282-1.482,0.645-2.724c0.362-1.236,0.923-2.844,1.679-4.814c0.76-1.973,1.828-4.361,3.211-7.171
		c0.354-0.744,0.762-1.275,1.225-1.596c0.438-0.314,0.963-0.483,1.502-0.483c0.236,0,0.48,0.035,0.732,0.103
		c0.255,0.069,0.489,0.175,0.709,0.322c0.219,0.145,0.396,0.332,0.531,0.556c0.133,0.224,0.201,0.482,0.201,0.775
		c0,0.194-0.025,0.381-0.075,0.556c-0.086,0.333-0.267,0.767-0.542,1.302c-0.279,0.537-0.604,1.152-0.973,1.845
		c-0.398,0.743-0.79,1.491-1.175,2.24c-0.419,0.813-0.804,1.642-1.149,2.488c-0.354,0.855-0.657,1.729-0.911,2.62
		c-0.245,0.844-0.39,1.713-0.429,2.591c0,0.351,0.084,0.673,0.252,0.966s0.447,0.438,0.834,0.438c1.096,0,2.141-0.351,3.135-1.052
		c1.033-0.743,1.959-1.625,2.753-2.621c0.852-1.059,1.616-2.186,2.286-3.368c0.615-1.071,1.185-2.17,1.705-3.291
		c0.32-0.664,0.603-1.378,0.848-2.138c0.227-0.717,0.492-1.42,0.795-2.108c0.246-0.582,0.579-1.124,0.984-1.609
		c0.34-0.417,0.852-0.654,1.389-0.646c0.607,0,1.088,0.226,1.441,0.674c0.354,0.449,0.531,0.986,0.531,1.609
		c0,0.352-0.113,0.835-0.342,1.451c-0.266,0.711-0.553,1.414-0.859,2.108c-0.37,0.846-0.745,1.689-1.124,2.531
		c-0.405,0.9-0.78,1.813-1.124,2.737c-0.334,0.893-0.621,1.801-0.859,2.723c-0.217,0.807-0.331,1.639-0.34,2.474
		c0,0.702,0.369,1.055,1.111,1.055c0.522,0,1.17-0.176,1.944-0.527c0.776-0.351,1.589-0.845,2.438-1.479
		c0.213-0.157,0.428-0.324,0.64-0.498c0.238-0.956,0.515-1.842,0.839-2.648c0.588-1.516,1.186-3.028,1.793-4.536l1.668-4.13
		l7.656-18.883c0.302-0.76,0.711-1.296,1.224-1.609c0.514-0.313,1.032-0.468,1.555-0.468c0.518,0,1.021,0.174,1.427,0.498
		c0.43,0.332,0.645,0.869,0.645,1.61c0,0.352-0.071,0.722-0.215,1.112c-0.144,0.392-0.326,0.81-0.544,1.258
		c-0.42,0.919-0.923,2.04-1.503,3.368c-1.333,3.057-2.639,6.126-3.916,9.208c-0.698,1.688-1.381,3.333-2.046,4.934
		c-0.63,1.514-1.253,3.031-1.869,4.552c-0.503,1.242-1.005,2.486-1.504,3.731c-0.206,0.512-0.388,1.035-0.542,1.566
		c-0.165,0.517-0.254,1.054-0.266,1.597c0,0.291,0.049,0.525,0.15,0.7s0.295,0.265,0.582,0.265c0.354,0,0.795-0.122,1.325-0.366
		c0.597-0.279,1.17-0.603,1.718-0.968c0.615-0.398,1.257-0.856,1.92-1.375c0.673-0.522,1.334-1.059,1.983-1.609
		c0.641-0.541,1.269-1.098,1.884-1.669c0.543-0.504,1.078-1.016,1.604-1.536c0.111-0.11,0.243-0.195,0.39-0.252
		c0.275-0.808,0.534-1.622,0.77-2.44c0.137-0.353,0.322-0.849,0.557-1.494c0.238-0.647,0.508-1.282,0.809-1.902
		c0.276-0.581,0.619-1.125,1.023-1.625c0.379-0.458,0.787-0.687,1.227-0.687c0.672,0,1.163,0.151,1.465,0.452
		c0.305,0.305,0.455,0.748,0.455,1.334c0,0.117-0.018,0.302-0.051,0.555c-0.07,0.542-0.167,1.079-0.29,1.611
		c-0.04,0.188-0.095,0.375-0.163,0.557c0.645-0.688,1.318-1.347,2.02-1.977c0.709-0.641,1.459-1.232,2.248-1.771
		c0.744-0.511,1.541-0.942,2.375-1.289c0.768-0.323,1.592-0.492,2.425-0.497c0.558,0,1.108,0.079,1.655,0.235
		c0.523,0.145,1.02,0.378,1.466,0.687c0.43,0.305,0.78,0.684,1.05,1.142c0.268,0.458,0.403,0.99,0.403,1.596
		c0,0.8-0.206,1.653-0.619,2.561s-0.931,1.82-1.554,2.735c-0.629,0.926-1.304,1.819-2.021,2.68
		c-0.665,0.801-1.344,1.591-2.033,2.371c-0.534,0.602-1.064,1.207-1.592,1.814c-0.43,0.499-0.652,0.835-0.669,1.012
		c0,0.234,0.077,0.424,0.228,0.57c0.152,0.146,0.404,0.221,0.758,0.221c0.287,0,0.707-0.158,1.264-0.47
		c0.556-0.312,1.336-0.854,2.338-1.624c1.293-1.007,2.564-2.042,3.814-3.103c1.236-1.044,2.467-2.097,3.689-3.157l7.129-60.526
		h-0.049c-7.23,3.386-27.545,6.965-51.479,6.965c-23.93,0-44.244-3.579-51.475-6.965h-0.062l5.416,55.555
		c0.291-0.965,0.61-1.921,0.962-2.865c0.726-1.955,1.564-3.865,2.513-5.723c0.929-1.823,1.966-3.587,3.108-5.284
		c1.082-1.61,2.276-3.141,3.576-4.581c1.182-1.319,2.484-2.525,3.89-3.601c1.331-1.003,2.675-1.79,4.029-2.357
		c1.356-0.565,2.7-0.849,4.031-0.849c1.532,0,3.015,0.411,4.446,1.231c1.432,0.819,2.77,2.146,4.018,3.981
		c0.285,0.408,0.467,0.825,0.541,1.244c0.076,0.419,0.113,0.814,0.113,1.185c0,0.879-0.213,1.572-0.643,2.078
		c-0.43,0.509-0.939,0.762-1.528,0.762c-0.54,0-1.041-0.277-1.505-0.833c-0.463-0.556-0.98-1.352-1.553-2.385
		c-0.538-0.938-1.134-1.614-1.782-2.034c-0.626-0.414-1.358-0.633-2.108-0.631c-1.18,0-2.439,0.479-3.777,1.434
		c-1.34,0.957-2.666,2.221-3.979,3.792c-1.314,1.571-2.572,3.368-3.776,5.386c-1.195,2-2.263,4.073-3.197,6.207
		c-0.896,2.029-1.634,4.124-2.21,6.264c-0.549,2.06-0.822,3.909-0.822,5.548c0,0.547,0.039,1.108,0.113,1.683
		c0.066,0.54,0.211,1.068,0.432,1.566c0.209,0.469,0.495,0.854,0.858,1.156c0.362,0.303,0.821,0.452,1.376,0.452
		c0.623,0,1.33-0.204,2.121-0.614c0.793-0.408,1.615-0.946,2.465-1.609c0.895-0.703,1.752-1.456,2.563-2.255
		c0.837-0.813,1.638-1.663,2.401-2.546c0.691-0.796,1.348-1.621,1.971-2.475c0.572-0.79,1.002-1.479,1.289-2.063l2.35-6.879
		c0.285-0.74,0.66-1.267,1.123-1.581c0.465-0.312,0.939-0.468,1.428-0.468c0.235,0,0.471,0.04,0.707,0.117
		c0.236,0.079,0.447,0.2,0.633,0.365c0.187,0.167,0.334,0.381,0.441,0.645c0.11,0.264,0.164,0.57,0.164,0.922
		c0,0.936-0.084,1.813-0.254,2.634c-0.165,0.813-0.379,1.614-0.643,2.401c-0.266,0.794-0.558,1.58-0.873,2.355
		c-0.329,0.818-0.642,1.643-0.934,2.476c-0.068,0.096-0.188,0.403-0.366,0.92c-0.513,1.514-1.001,3.036-1.464,4.566
		c-0.303,0.987-0.605,1.973-0.91,2.958c-0.305,0.983-0.604,1.968-0.896,2.955c-0.452,1.526-0.898,3.054-1.34,4.582
		c-0.088,0.313-0.18,0.626-0.277,0.937c-0.103,0.357-0.238,0.705-0.403,1.039c-0.187,0.38-0.407,0.743-0.658,1.085
		c-0.234,0.322-0.515,0.607-0.833,0.848c-0.268,0.211-0.596,0.329-0.936,0.337c-0.539,0-0.931-0.175-1.176-0.526
		c-0.244-0.352-0.365-0.996-0.365-1.933v-0.41c0-0.136,0.01-0.282,0.025-0.438c0.016-0.313,0.145-0.899,0.379-1.759
		c0.237-0.856,0.518-1.828,0.847-2.911c0.327-1.085,0.683-2.206,1.061-3.367c0.38-1.162,0.72-2.199,1.023-3.117
		c-0.928,1.011-1.897,1.982-2.905,2.913c-1.011,0.938-2.082,1.809-3.209,2.605c-1.037,0.738-2.146,1.37-3.311,1.889
		c-1.112,0.486-2.181,0.731-3.209,0.731c-1.178,0-2.192-0.255-3.045-0.763c-0.153-0.091-0.295-0.194-0.441-0.297l3.441,35.301
		l2.004,3.136c5.879,3.696,20.887,6.326,38.52,6.338c16.061-0.012,29.94-2.194,36.732-5.379l2.562-4.095l4.942-41.959
		c-0.409,0.367-0.807,0.724-1.187,1.071c-1.278,1.177-2.616,2.287-4.007,3.328V314.998z"/>
	<path fill="#FFFFFF" d="M593.886,235.172c-28.494,0-51.592,2.62-51.592,5.852c0,3.229,23.098,7.979,51.592,7.979
		c28.497,0,51.593-4.75,51.593-7.979C645.479,237.791,622.384,235.172,593.886,235.172z M603.088,244.403
		c-3.3,0-6.233-0.974-6.233-1.816c0-0.323,0.433-0.664,1.151-0.964c0.398-0.717,2.518-1.265,5.082-1.265
		c2.521,0,4.619,0.532,5.064,1.232c0.789,0.307,1.276,0.663,1.276,0.998C609.428,243.428,606.386,244.403,603.088,244.403z"/>
	<path fill="none" stroke="#000000" stroke-width="0.594" d="M594.351,235.637c-28.493,0-51.592,2.619-51.592,5.852
		c0,3.229,23.099,7.979,51.592,7.979c28.497,0,51.594-4.75,51.594-7.979C645.945,238.256,622.848,235.637,594.351,235.637z
		 M603.552,244.868c-3.3,0-6.232-0.975-6.232-1.816c0-0.323,0.433-0.664,1.151-0.964c0.398-0.717,2.518-1.264,5.081-1.264
		c2.523,0,4.621,0.532,5.064,1.231c0.79,0.308,1.277,0.663,1.277,0.998C609.894,243.893,606.853,244.868,603.552,244.868z"/>
	<path fill="#FFFFFF" d="M603.088,243.375c2.848,0,5.154-0.675,5.154-1.509c-0.004-0.099-0.033-0.195-0.09-0.276
		c-1.191-0.466-3.078-0.819-5.064-0.819c-2.033,0-3.927,0.37-5.082,0.853c-0.045,0.074-0.069,0.158-0.073,0.244
		C597.932,242.7,600.239,243.375,603.088,243.375z"/>
	<path fill="none" stroke="#000000" stroke-width="0.594" d="M603.552,243.841c2.848,0,5.154-0.675,5.154-1.509
		c-0.002-0.099-0.033-0.195-0.09-0.277c-1.191-0.465-3.078-0.818-5.064-0.818c-2.033,0-3.926,0.37-5.081,0.852
		c-0.045,0.074-0.07,0.159-0.073,0.245C598.398,243.166,600.705,243.841,603.552,243.841z"/>
	<path fill="#FFFFFF" d="M640.681,188.444l-6.894-5.067l-27.747,28.562l-7.913,29.89h10l7.737-26.513L640.681,188.444z"/>
	<path fill="none" stroke="#000000" stroke-width="0.594" d="M641.146,188.909l-6.893-5.066l-27.748,28.562l-7.912,29.89h10
		l7.738-26.513L641.146,188.909z"/>
	<g>
		<path fill="#FFFFFF" d="M255.24,303.598c0,0-2.941,7.176-4.552,10.979c-1.748,4.138-8.414,6.194-8.414,6.194
			s3.456-3.546,3.456-12.528c0-3.768,4.972-5.267,4.972-5.267L255.24,303.598z M241.967,378.202c0,0,2.149,12.851,10.755,12.851
			c7.313,0,9.469-10.855,9.469-13.098L241.967,378.202z M212.687,235.151l-0.997-0.617
			C208.754,234.631,212.687,235.151,212.687,235.151z"/>
		<path fill="#FFFFFF" d="M246.744,298.759c0,0-4.644,2.076-9.836,0.387c-6.795-2.218-7.246-9.13-7.246-9.13
			s-4.17,11.966,7.52,14.27c9.373,1.848,14.917-3.466,14.917-3.466L246.744,298.759z M250.045,238.063
			c-0.499-10.264,8.101-18.438,11.081-18.787c0.166,1.74-0.165,8.523,2.814,10.609c0.869-5.542,3.801-11.648,15.382-15.653
			c-2.479,6.437-0.329,11.828,0.693,14.326c7.909-7.022,13.238-5.86,13.238-5.86s-5.496,9.274-3.346,15.363
			C274.029,236.841,250.122,239.71,250.045,238.063L250.045,238.063z M216.385,253.697c-3.788-3.074-0.963-5.928-1.263-9.422
			c-0.163-1.858-0.314-3.612-0.94-4.58c-3.485-5.385-11.709-7.019-11.791-7.035l-3.859-0.739l2.555-2.925
			c0.33-0.379,10.824-10.172,27.062-5.045c11.359,3.583,19.767,15.736,20.08,16.228l-5.695,2.618
			c-0.066-0.102-6.715-11.525-16.459-14.598c-7.877-2.487-15.138-0.121-18.247,1.429c3.306,1.291,7.628,3.642,10.231,7.664
			c1.229,1.9,1.435,4.294,1.636,6.609c0.264,3.067,0.513,5.961,2.818,7.835L216.385,253.697z"/>
		<path fill="#FFFFFF" d="M248.752,299.771c0.105,0.191,0.16,0.298,0.16,0.298s-7.812,5.732-15.815-0.085
			c-4.285-3.118-3.88-10.83-2.567-14.099c3.113,0.693,6.072,1.952,8.729,3.713c-3.058-2.67-5.737-4.636-5.729-4.681l-3.477-0.964
			l-6.755-2.266c-0.085,0.503-2.552,11.803,4.56,19.503c3.155,3.413,17.934,11.058,24.95-2.014L248.752,299.771L248.752,299.771z"/>
		<path fill="#FFFFFF" d="M248.02,300.61c4.398,6.547,15.492,2.807,15.301-4.116c0,0-7.413,4.002-13.962-3.366
			c-3.824-4.303-16.077-16.165-32.693-12.223C228.14,283.374,243.332,293.63,248.02,300.61L248.02,300.61z"/>
		<path fill="#FFFFFF" d="M215.113,319.088c1.058,0.598,4.789,4.378,4.792,10.031c0,2.834-0.29,17.074-1.725,25.773
			c2.158,1.372,3.659,1.662,5.808,3.06c1.075-10.074,1.846-24.679,1.487-30.573c-0.412-6.719-4.088-11.229-7.5-13.153
			c-1.067-0.6-2.185-1.19-3.308-1.786c-5.842-3.089-11.882-6.282-11.882-11.736c0-4.267,1.694-5.602,3.491-7.017l0.191-0.154
			c1.193-0.941,2.541-2.008,3.338-3.761c2.179-4.794,2.536-17.005,0-20.105c-1.263-1.545-4.65-6.738-3.677-10.23
			c0.372-1.331,1.228-2.318,2.624-3.019c1.478-0.74,3.475-1.115,5.931-1.115c4.827,0,10.18,1.437,12.941,2.292
			c9.869,3.059,21.775,11.882,25.189,14.513l0.167,0.124l2.183,1.485l-1.366-2.236c-0.085-0.14-8.735-14.056-24.205-19.158
			c-3.01-0.992-8.922-2.658-14.732-2.658c-3.458,0-6.396,0.59-8.719,1.755c-2.833,1.417-4.752,3.678-5.549,6.538
			c-1.953,7.01,4.409,14.813,4.626,15.062c0.742,1.296,1.056,10.705-0.657,14.471c-0.237,0.52-0.883,1.03-1.7,1.676
			c-0.257,0.204-0.542,0.414-0.846,0.639c-2.417,1.785-6.072,4.482-6.072,10.697c0,8.508,8.812,13.119,15.894,16.827
			C213.002,317.943,214.111,318.521,215.113,319.088L215.113,319.088z M254.14,300.996l-6.12-0.386c0,0,1.563,2.698,2.578,6.188
			c1.144,3.946-1.046,9.713-1.046,9.713s8.159-9.037,4.587-15.515H254.14z M246.5,403.776
			c-21.781-1.638-29.443-21.771-29.443-25.965l5.688,0.002l-2.845-0.002h2.845c0.028,1.812,5.816,19.036,24.191,20.418
			L246.5,403.776L246.5,403.776z"/>
		<path fill="#FFFFFF" d="M233.794,378.365c-0.181-0.542-0.338-1.092-0.47-1.646c-0.152-0.606-0.902-2.325,0.023-0.363
			c-0.227-0.493-0.397-1.011-0.507-1.542c-14.716-0.018-27.518-9.901-25.045-30.68c-1.926-2.501-4.623,5.046-4.623,5.046
			s-7.367,20.923,11.659,29.033c6.339,2.706,11.94,4.643,13.263,3.861c2.753,0.547,5.238-1.33,6.17-2.565
			C234.092,379.135,233.934,378.754,233.794,378.365L233.794,378.365z"/>
		<path fill="#FFFFFF" d="M240.114,364.69c0.023-1.754,0.389-3.452,1.256-5.145c0.061-0.116,0.13-0.229,0.197-0.342
			c-5.664-0.047-12.185-0.578-17.737-2.752c-6.104-2.39-13.74-10.56-15.051-20.159c0,0-11.496,8.676-8.118,27.249
			c3.169,17.44,18.088,23.126,35.103,24.089c0.011-0.115-1.914-3.998-1.306-6.377c-9.661,0.687-20.465-2.965-25.679-11.36
			c-4.774-7.683-3.436-20.802-1.474-22.724c4.787,14.776,22.01,17.779,32.81,17.521H240.114z"/>
		<path fill="#FFFFFF" d="M241.897,354.113c-3.061,8.789-9.314,15.902-9.314,15.902s8.602-0.382,9.077-1.872
			c0.352-1.099,7.768-18.08,10.614-37.976C249.596,334.47,242.159,353.36,241.897,354.113L241.897,354.113z M328.545,235.151
			l0.998-0.617C332.478,234.631,328.545,235.151,328.545,235.151z M294.485,298.759c0,0,4.646,2.076,9.836,0.387
			c6.797-2.218,7.25-9.13,7.25-9.13s4.167,11.966-7.52,14.27c-9.373,1.848-14.919-3.466-14.919-3.466L294.485,298.759
			L294.485,298.759z"/>
		<path fill="#FFFFFF" d="M324.844,253.697c3.79-3.074,0.967-5.928,1.267-9.422c0.16-1.858,0.31-3.612,0.938-4.58
			c3.485-5.385,11.709-7.019,11.793-7.035l3.862-0.739l-2.557-2.925c-0.332-0.379-10.824-10.172-27.065-5.045
			c-11.357,3.583-19.764,15.736-20.078,16.228l5.693,2.618c0.07-0.102,6.718-11.525,16.463-14.598
			c7.875-2.487,15.137-0.122,18.244,1.429c-3.305,1.291-7.629,3.642-10.232,7.664c-1.229,1.9-1.434,4.294-1.634,6.609
			c-0.264,3.067-0.514,5.961-2.82,7.835L324.844,253.697L324.844,253.697z M292.481,299.771c-0.105,0.191-0.16,0.298-0.16,0.298
			s7.809,5.732,15.811-0.085c4.289-3.119,3.883-10.83,2.569-14.101c-3.112,0.695-6.07,1.954-8.728,3.715
			c3.059-2.67,5.735-4.636,5.727-4.681l3.477-0.964l6.756-2.262c0.086,0.502,2.549,11.802-4.566,19.5
			c-3.151,3.414-17.931,11.059-24.946-2.013l4.058,0.592H292.481z"/>
		<path fill="#FFFFFF" d="M293.209,300.61c-4.398,6.547-15.489,2.807-15.297-4.116c0,0,7.41,4.002,13.961-3.366
			c3.824-4.303,16.079-16.165,32.694-12.223C313.093,283.374,297.9,293.63,293.209,300.61L293.209,300.61z"/>
		<path fill="#FFFFFF" d="M326.122,319.088c-1.06,0.598-4.792,4.378-4.792,10.031c-0.003,2.834,0.286,17.074,1.723,25.773
			c-2.159,1.372-3.66,1.662-5.809,3.06c-1.076-10.074-1.851-24.679-1.487-30.573c0.409-6.719,4.086-11.229,7.496-13.153
			c1.069-0.6,2.186-1.19,3.312-1.786c5.842-3.089,11.883-6.282,11.883-11.736c0-4.267-1.696-5.602-3.492-7.017l-0.192-0.154
			c-1.19-0.941-2.541-2.008-3.338-3.761c-2.18-4.795-2.536-17.005-0.002-20.105c1.264-1.545,4.653-6.738,3.679-10.23
			c-0.374-1.331-1.232-2.319-2.627-3.019c-1.476-0.74-3.471-1.115-5.93-1.115c-4.823,0-10.18,1.437-12.938,2.292
			c-9.869,3.059-21.777,11.882-25.194,14.513l-0.164,0.124l-2.186,1.485l1.367-2.236c0.086-0.14,8.735-14.056,24.205-19.158
			c3.009-0.992,8.921-2.658,14.733-2.658c3.459,0,6.392,0.59,8.718,1.755c2.833,1.417,4.75,3.678,5.549,6.538
			c1.953,7.01-4.409,14.813-4.626,15.062c-0.742,1.296-1.057,10.705,0.654,14.471c0.235,0.52,0.883,1.03,1.703,1.676
			c0.256,0.204,0.54,0.414,0.845,0.639c2.418,1.785,6.072,4.482,6.072,10.697c0,8.508-8.812,13.119-15.892,16.827
			c-1.162,0.612-2.273,1.19-3.272,1.755L326.122,319.088z"/>
		<path fill="#FFFFFF" d="M315.608,252.696c-1.401-2.323-4.986-6.807-13.248-10.748c-9.221-4.396-19.891-6.628-31.722-6.632v-0.003
			h-0.046v0.002c-11.832,0.005-22.504,2.237-31.722,6.633c-8.262,3.941-11.844,8.424-13.247,10.747l-0.603,0.779l7.074,1.542
			l0.226-0.278l0.118-0.253c0.11-0.458,1.058-2.927,8.947-6.69c8.432-4.024,18.268-6.064,29.23-6.068
			c10.962,0.004,20.793,2.043,29.225,6.068c7.889,3.763,8.84,6.231,8.948,6.69l0.12,0.253l0.22,0.278l7.077-1.542l-0.599-0.777
			H315.608z M284.534,386.25c-2.955-3.09-4.704-6.417-5.125-7.438c-0.242-0.583-0.519-1.691,0.349-2.563
			c0.675-0.675,1.847-1.021,3.483-1.021h2.52l7.523,0.002l1.53,0.002c2.152,0,3.211,0.602,3.721,1.106
			c0.742,0.734,0.859,1.757,0.348,3.035c-1.368,3.418-4.474,6.207-5.392,6.979c-1.202,1.016-2.928,1.618-4.623,1.618
			C287.133,387.969,285.594,387.358,284.534,386.25L284.534,386.25z M287.094,300.996l6.116-0.386c0,0-1.563,2.698-2.576,6.188
			c-1.146,3.946,1.046,9.713,1.046,9.713s-8.159-9.037-4.588-15.515H287.094z M270.616,279.623c-3.899,0-8.985-0.106-12.8-2.789
			c0,0,4.995,8.568,12.794,8.568l0.006-1.083l0.005,1.083c7.802,0,12.796-8.567,12.796-8.567
			C279.602,279.517,274.513,279.623,270.616,279.623z"/>
		<path fill="#FFFFFF" d="M281.356,279.581c-3.913,2.317-7.406,3.12-10.739,3.189c-3.334-0.069-6.826-0.872-10.738-3.189
			c0,0,5.696,6.801,10.709,6.854v0.004l0.029-0.001l0.028,0.001v-0.002C275.656,286.383,281.356,279.582,281.356,279.581
			L281.356,279.581z M294.732,403.776l-0.437-5.547c18.371-1.382,24.16-18.606,24.189-20.418h5.689
			C324.175,382.003,316.509,402.138,294.732,403.776L294.732,403.776z"/>
		<path fill="#FFFFFF" d="M307.435,378.365c0.191-0.541,0.331-1.092,0.471-1.646c0.154-0.606,0.903-2.325-0.023-0.363
			c0.238-0.503,0.393-1.02,0.508-1.542c14.715-0.018,27.517-9.901,25.041-30.68c1.926-2.501,4.626,5.046,4.626,5.046
			s7.366,20.923-11.658,29.033c-6.339,2.706-11.94,4.643-13.263,3.861c-2.757,0.547-5.242-1.33-6.171-2.565
			C307.139,379.13,307.303,378.75,307.435,378.365L307.435,378.365z"/>
		<path fill="#FFFFFF" d="M301.115,364.69c-0.006-1.79-0.436-3.553-1.254-5.145c-0.063-0.116-0.131-0.229-0.196-0.342
			c5.663-0.047,12.185-0.578,17.737-2.752c6.103-2.39,13.738-10.56,15.05-20.159c0,0,11.496,8.676,8.117,27.249
			c-3.172,17.44-18.09,23.126-35.102,24.089c-0.011-0.115,1.913-3.998,1.306-6.377c9.657,0.687,20.461-2.965,25.679-11.36
			c4.772-7.683,3.434-20.802,1.471-22.724c-4.784,14.776-22.008,17.779-32.81,17.521H301.115z"/>
		<path fill="#FFFFFF" d="M307.985,369.066c-2.032-2.15-5.769-4.713-14.386-4.713l-22.953-0.015h-0.056l-22.957,0.015
			c-8.615,0-12.353,2.563-14.386,4.712c-2.963,3.128-3.428,7.48-1.378,12.922c5.446,14.478,13.1,29.188,38.718,29.208v0.003
			l0.029-0.003l0.028,0.003v-0.003c25.616-0.021,33.271-14.73,38.718-29.211c2.049-5.439,1.583-9.791-1.376-12.919L307.985,369.066z
			 M303.996,380.969c-2.593,7.271-9.568,24.871-33.381,24.901c-23.816-0.03-30.786-17.63-33.381-24.901
			c-1.435-4.034-1.326-7.019,0.337-8.872c1.134-1.268,3.743-2.781,9.688-2.781l6.21-0.003c4.581-0.003,10.334-0.008,17.147-0.011
			c6.81,0.003,12.566,0.008,17.146,0.011l6.209,0.003c5.945,0,8.553,1.512,9.688,2.781c1.663,1.856,1.773,4.838,0.337,8.872H303.996
			z"/>
		<path fill="#FFFFFF" d="M299.333,354.113c3.062,8.789,9.314,15.903,9.314,15.903s-8.603-0.383-9.076-1.873
			c-0.351-1.097-7.768-18.08-10.614-37.976C291.633,334.47,299.071,353.36,299.333,354.113z"/>
	</g>
	<path fill="#BAE36F" d="M487.293,366.384l3.648-19.612c-5.168-0.913-16.115-3.8-20.068-6.081
		c3.344-3.192,8.361-10.794,11.402-17.939l8.666-1.216V305.57h-35.576v15.965l3.042,0.304c-0.763,1.976-1.978,4.257-3.347,5.472
		c-5.016-3.8-11.705-12.314-15.051-16.875c11.252-6.233,20.373-14.595,20.373-27.063c0-18.244-13.228-24.326-29.191-24.326
		c-21.132,0-30.558,11.556-30.558,25.543c0,7.146,2.433,12.62,6.233,17.635c-14.75,5.778-23.11,15.661-23.11,30.56
		c0,22.351,17.332,33.296,39.986,33.296c13.076,0,23.413-4.104,30.559-10.186C463.726,362.28,476.955,365.015,487.293,366.384
		L487.293,366.384z M417.659,319.404c4.713,6.083,13.684,17.638,19.766,22.808c-3.041,1.521-7.604,2.888-13.229,2.888
		c-10.034,0-15.963-5.17-15.963-13.227C408.234,327.007,411.274,322.296,417.659,319.404L417.659,319.404z M428.759,295.992
		c-3.042-3.648-5.321-8.21-5.321-11.707c0-4.41,2.736-8.057,8.361-8.057c5.473,0,8.361,2.278,8.361,7.448
		C440.16,288.39,435.447,293.103,428.759,295.992L428.759,295.992z"/>
</g>
</svg>
