<?xml version="1.0" encoding="utf-8"?>
<!-- Generator: Adobe Illustrator 16.0.3, SVG Export Plug-In . SVG Version: 6.00 Build 0)  -->
<!DOCTYPE svg PUBLIC "-//W3C//DTD SVG 1.1//EN" "http://www.w3.org/Graphics/SVG/1.1/DTD/svg11.dtd">
<svg version="1.1" id="Vrstva_1" xmlns="http://www.w3.org/2000/svg" xmlns:xlink="http://www.w3.org/1999/xlink" x="0px" y="0px"
	 width="500px" height="500px" viewBox="170.945 47.64 500 500" enable-background="new 170.945 47.64 500 500"
	 xml:space="preserve">
<g>
	<path fill="#F7DF1E" d="M195.945,72.641h450v449.998h-450V72.641z"/>
	<path fill="#2F2B00" d="M314.267,448.694l34.436-20.841c6.644,11.779,12.688,21.744,27.185,21.744
		c13.896,0,22.655-5.435,22.655-26.578V279.232h42.291v144.386c0,43.799-25.676,63.735-63.133,63.735
		c-33.83,0-53.466-17.521-63.435-38.664 M463.802,444.163l34.432-19.938c9.066,14.804,20.846,25.678,41.688,25.678
		c17.523,0,28.695-8.762,28.695-20.845c0-14.5-11.477-19.635-30.811-28.091l-10.569-4.532c-30.511-12.987-50.749-29.3-50.749-63.735
		c0-31.717,24.164-55.884,61.924-55.884c26.885,0,46.217,9.366,60.109,33.834l-32.925,21.145
		c-7.252-12.987-15.103-18.124-27.185-18.124c-12.385,0-20.24,7.855-20.24,18.124c0,12.686,7.855,17.822,25.978,25.678l10.569,4.529
		c35.947,15.404,56.186,31.113,56.186,66.454c0,38.061-29.904,58.901-70.078,58.901c-39.27,0-64.643-18.727-77.026-43.193"/>
</g>
</svg>
