<?xml version="1.0" encoding="UTF-8"?>
<!DOCTYPE svg PUBLIC "-//W3C//DTD SVG 1.1//EN" "http://www.w3.org/Graphics/SVG/1.1/DTD/svg11.dtd">
<svg version="1.1" xmlns="http://www.w3.org/2000/svg" xmlns:xlink="http://www.w3.org/1999/xlink" x="0" y="0" width="500" height="500" viewBox="0, 0, 500, 500">
  <g id="Background">
    <rect x="0" y="0" width="500" height="500" fill="#000000" fill-opacity="0"/>
  </g>
  <g id="BG">
    <path d="M-53,-25 L553,-25 L553,525 L-53,525 L-53,-25 z" fill="#2E2C09" display="none"/>
    <path d="M165.018,201.67 L22,142.763 L22,78.086 L165.018,21 L308.036,79.3 L308.036,143.066 L165.018,201.367 z M40.522,130.92 L165.018,181.629 L289.513,131.224 L289.513,91.75 L165.018,40.13 L40.522,91.75 L40.522,131.224 z" fill="#FFFFFF"/>
    <path d="M165.018,320.7 L31.413,266.651 L31.413,142.763 L50.239,142.763 L50.239,253.898 L165.018,300.356 L279.797,253.898 L279.797,142.763 L298.623,142.763 L298.623,266.043 z" fill="#FFFFFF"/>
    <path d="M165.018,147.014 L28.68,91.446 L33.842,78.389 L165.018,131.831 L296.194,78.389 L301.052,91.446 z" fill="#FFFFFF"/>
    <path d="M158.034,142.763 L172.002,142.763 L172.002,194.383 L158.034,194.383 z M158.034,198.33 L172.002,198.33 L172.002,314.323 L158.034,314.323 z" fill="#FFFFFF"/>
  </g>
  <g id="Layer_3">
    <path d="M22,251 L473.289,251 L473.289,404.173 L247.644,404.173 L247.644,429 L147.563,429 L147.563,404.173 L22,404.173 L22,251 z M47.483,378.411 L97.523,378.411 L97.523,301.589 L122.544,301.589 L122.544,378.411 L147.563,378.411 L147.563,277.232 L47.483,277.232 L47.483,378.411 z M172.12,276.763 L172.583,404.643 L222.16,404.643 L222.16,379.348 L272.201,379.348 L272.201,276.763 L172.12,276.763 z M221.697,301.121 L248.107,301.121 L248.107,353.116 L221.697,353.116 L221.697,301.121 z M297.685,276.763 L297.685,377.943 L347.725,377.943 L347.725,301.589 L372.745,301.589 L372.745,377.473 L397.765,377.473 L397.765,302.057 L422.785,302.057 L422.785,377.943 L447.805,377.943 L447.805,276.763 L297.685,276.763 z" fill="#81B6D2" id="Layer_1"/>
  </g>
  <g id="Layer_4"/>
</svg>
