<?xml version="1.0" encoding="UTF-8"?>
<!DOCTYPE svg PUBLIC "-//W3C//DTD SVG 1.1//EN" "http://www.w3.org/Graphics/SVG/1.1/DTD/svg11.dtd">
<svg version="1.1" xmlns="http://www.w3.org/2000/svg" xmlns:xlink="http://www.w3.org/1999/xlink" x="0" y="0" width="500" height="500" viewBox="0, 0, 500, 500">
  <g id="AVIF_a_WebP">
    <path d="M188.25,184.667 L311.75,184.667 C320.276,184.667 327.188,191.979 327.188,201 L327.188,299 C327.188,308.021 320.276,315.333 311.75,315.333 L188.25,315.333 C179.724,315.333 172.812,308.021 172.812,299 L172.812,201 C172.812,192.017 179.759,184.667 188.25,184.667 z M311.75,254.818 L311.75,201 L188.25,201 L188.25,254.818 L221.441,219.702 C224.442,216.589 229.245,216.589 232.247,219.702 L273.156,262.985 L290.909,244.202 C293.911,241.089 298.714,241.089 301.716,244.202 L311.75,254.818 z M311.75,277.848 L296.313,261.515 L278.559,280.298 C275.558,283.411 270.755,283.411 267.753,280.298 L226.844,236.933 L188.25,277.767 L188.25,299 L311.75,299 L311.75,277.848 z M273.156,233.667 C268.893,233.667 265.438,230.01 265.438,225.5 C265.438,220.99 268.893,217.333 273.156,217.333 C277.419,217.333 280.875,220.99 280.875,225.5 C280.875,230.01 277.419,233.667 273.156,233.667 z" fill="#47769B"/>
    <path d="M153.392,72.529 L160.816,71.633 L160.816,58.449 L127.92,58.449 L127.92,71.633 L135.216,72.529 C132.784,86.353 131.376,94.417 130.352,101.329 C128.944,95.185 127.024,89.041 118.704,61.137 L103.216,61.137 C95.664,86.737 94.128,93.393 92.08,101.457 C91.312,96.721 89.264,87.249 86.32,72.785 L94,71.633 L94,58.449 L57.904,58.449 L57.904,71.633 L65.712,72.785 L77.744,122.833 L100.656,122.833 C106.544,104.145 108.848,96.337 110.512,89.297 C112.304,96.849 114.096,104.017 119.088,122.833 L141.744,122.833 z" fill="#FFFFFF"/>
    <path d="M223.912,116.305 L217.512,103.761 C211.24,107.217 204.584,108.753 197.16,108.753 C188.84,108.753 184.36,104.529 182.952,98.385 C182.696,97.105 182.696,94.929 182.696,94.417 L222.632,94.417 C222.888,92.241 223.016,89.681 223.016,88.785 C223.016,72.273 218.536,56.273 194.728,56.273 C177.32,56.273 162.088,67.921 162.088,91.729 C162.088,111.441 173.224,124.881 192.168,124.881 C204.072,124.881 213.8,122.193 223.912,116.305 z M203.56,80.977 L183.336,80.977 C184.232,74.961 188.456,70.609 194.344,70.609 C200.872,70.609 203.688,73.809 203.688,78.545 C203.688,79.313 203.688,80.081 203.56,80.977 z" fill="#FFFFFF"/>
    <path d="M233.376,120.529 C242.08,123.089 252.192,124.625 262.56,124.625 C283.168,124.625 296.096,112.849 296.096,88.529 C296.096,67.409 288.16,56.913 274.208,56.913 C266.272,56.913 257.952,61.137 253.088,64.977 L253.088,27.985 C244.64,27.985 232.096,30.417 222.24,32.977 L222.24,46.033 L233.376,46.033 z M253.216,108.369 L253.216,75.857 C257.056,74.577 260.384,73.681 264.48,73.681 C269.984,73.681 274.464,78.801 274.464,90.449 C274.464,104.145 269.344,109.137 261.408,109.137 C258.336,109.137 255.904,108.881 253.216,108.369 z" fill="#FFFFFF"/>
    <path d="M346.005,91.038 C346.005,75.009 336.093,70.369 327.024,70.369 C317.322,70.369 307.621,76.485 307.621,91.038 C307.621,106.223 317.955,111.073 326.391,111.073 C337.78,111.073 346.005,104.746 346.005,91.038 z" fill="#59AC71"/>
    <path d="M398.016,154.321 L398.016,141.009 L385.216,139.857 L385.216,123.473 C388.288,123.857 391.36,123.985 394.56,123.985 C415.04,123.985 428.096,112.465 428.096,88.145 C428.096,67.025 420.288,56.401 406.976,56.401 C398.656,56.401 389.696,60.881 385.216,64.593 L384.832,56.273 C374.848,56.657 364.352,58.193 354.24,61.137 L354.24,74.193 L365.376,74.193 L365.376,139.857 L354.88,141.009 L354.88,154.321 z M385.216,107.601 L385.216,75.473 C389.056,74.193 392.384,73.425 396.352,73.425 C402.496,73.425 406.464,78.289 406.464,90.065 C406.464,103.761 401.216,108.497 393.408,108.497 C390.336,108.497 387.776,108.113 385.216,107.601 z" fill="#FFFFFF"/>
    <path d="M136.98,467 L136.98,453.56 L124.18,452.536 L127.892,442.296 L153.876,442.296 L157.588,452.536 L145.172,453.56 L145.172,467 L190.1,467 L190.1,453.56 L181.012,452.536 L154.772,380.472 L128.02,380.472 L101.268,452.536 L92.052,453.56 L92.052,467 z M133.268,424.888 C138.388,409.656 139.796,404.408 141.204,399.672 C142.356,404.664 143.508,409.016 148.372,424.888 z" fill="#FFFFFF"/>
    <path d="M236.804,467 L264.196,394.936 L273.412,393.912 L273.412,380.472 L228.996,380.472 L228.996,393.912 L241.796,394.936 C227.332,436.536 226.052,440.504 224.772,444.216 C223.492,439.608 222.468,436.536 208.388,394.936 L220.932,393.912 L220.932,380.472 L175.492,380.472 L175.492,393.912 L184.452,394.936 L211.46,467 z" fill="#FFFFFF"/>
    <path d="M325.948,467 L325.948,453.56 L313.66,452.408 L313.66,395.064 L325.948,393.912 L325.948,380.472 L279.996,380.472 L279.996,393.912 L292.284,395.064 L292.284,452.408 L279.996,453.56 L279.996,467 z" fill="#EDAC54"/>
    <path d="M383.756,467 L383.756,453.56 L368.524,452.536 L368.524,432.568 L394.508,432.568 L394.508,415.032 L368.524,415.032 L368.524,398.008 L391.82,398.008 L393.74,409.272 L407.948,409.272 C407.948,390.072 407.18,383.8 406.412,380.472 L334.86,380.472 L334.86,393.912 L347.148,395.064 L347.148,452.408 L334.86,453.56 L334.86,467 z" fill="#E77A4F"/>
  </g>
</svg>
