<?xml version="1.0" encoding="utf-8"?>
<!-- Generator: Adobe Illustrator 16.0.3, SVG Export Plug-In . SVG Version: 6.00 Build 0)  -->
<!DOCTYPE svg PUBLIC "-//W3C//DTD SVG 1.1//EN" "http://www.w3.org/Graphics/SVG/1.1/DTD/svg11.dtd">
<svg version="1.1" id="Vrstva_1" xmlns="http://www.w3.org/2000/svg" xmlns:xlink="http://www.w3.org/1999/xlink" x="0px" y="0px"
	 width="500px" height="500px" viewBox="170.945 47.64 500 500" enable-background="new 170.945 47.64 500 500"
	 xml:space="preserve">
<g>
	<polygon fill="#FFFFFF" points="625.683,249.277 626.074,249.667 626.074,249.667 	"/>
	<path fill="#FFFFFF" d="M640.974,272.128c-3.313-8.188-8.337-15.903-14.899-22.46l-0.001-0.001
		c-6.557-6.563-14.271-11.585-22.459-14.899c-6.306-2.556-12.891-4.11-19.535-4.696c1.502-1.791,2.916-3.659,4.229-5.603
		c3.653-5.408,6.56-11.394,8.55-17.792c1.992-6.396,3.058-13.208,3.056-20.163c0.005-9.276-1.898-18.283-5.344-26.417
		c-5.175-12.218-13.734-22.511-24.545-29.82c-5.407-3.653-11.394-6.56-17.793-8.55c-6.396-1.991-13.206-3.058-20.161-3.056
		c-9.277-0.005-18.284,1.898-26.418,5.345c-6.269,2.655-12.025,6.206-17.138,10.49c-0.587-6.644-2.142-13.229-4.698-19.535
		c-3.314-8.188-8.339-15.903-14.9-22.46v0.002c-6.556-6.563-14.27-11.587-22.459-14.901c-8.195-3.322-16.86-4.971-25.514-4.971
		c-8.652,0-17.318,1.648-25.514,4.971c-8.188,3.314-15.903,8.338-22.46,14.901c-6.563,6.556-11.585,14.271-14.899,22.459
		c-2.556,6.306-4.11,12.891-4.696,19.533c-1.792-1.5-3.659-2.914-5.604-4.229c-5.407-3.653-11.393-6.56-17.791-8.55
		c-6.396-1.991-13.208-3.058-20.163-3.056c-9.276-0.005-18.283,1.898-26.417,5.345c-12.217,5.175-22.51,13.733-29.819,24.544
		c-3.654,5.407-6.561,11.393-8.551,17.792c-1.991,6.396-3.058,13.208-3.056,20.162c-0.005,9.277,1.898,18.284,5.345,26.418
		c2.655,6.27,6.207,12.026,10.491,17.139c-6.644,0.586-13.229,2.141-19.535,4.697c-8.188,3.314-15.902,8.337-22.459,14.899
		l-0.002,0.001c-6.563,6.557-11.586,14.271-14.9,22.46c-3.321,8.194-4.97,16.86-4.97,25.513c0,8.653,1.648,17.318,4.97,25.514
		c3.314,8.188,8.338,15.901,14.9,22.459l0.002,0.001c6.557,6.563,14.271,11.585,22.459,14.899
		c6.306,2.557,12.891,4.111,19.533,4.696c-1.5,1.792-2.914,3.659-4.229,5.602c-3.653,5.408-6.56,11.394-8.55,17.793
		c-1.991,6.396-3.058,13.208-3.056,20.163c-0.005,9.276,1.898,18.282,5.345,26.418c5.175,12.217,13.734,22.51,24.544,29.818
		c5.408,3.654,11.394,6.561,17.792,8.551c6.396,1.992,13.208,3.057,20.162,3.055c9.277,0.006,18.284-1.897,26.418-5.343
		c6.269-2.655,12.026-6.207,17.14-10.491c0.586,6.643,2.141,13.228,4.696,19.535c3.314,8.188,8.337,15.901,14.899,22.459
		c6.557,6.562,14.271,11.586,22.46,14.9c8.194,3.322,16.861,4.971,25.514,4.971c8.653,0,17.318-1.648,25.514-4.971
		c8.188-3.314,15.903-8.339,22.459-14.9l0,0c6.563-6.556,11.586-14.271,14.9-22.459c2.557-6.306,4.111-12.891,4.698-19.535
		c1.79,1.501,3.657,2.916,5.601,4.229c5.408,3.654,11.393,6.561,17.792,8.551c6.396,1.992,13.208,3.057,20.163,3.055
		c9.276,0.006,18.282-1.897,26.417-5.343c12.218-5.175,22.511-13.734,29.819-24.545c3.654-5.407,6.561-11.394,8.551-17.793
		c1.992-6.396,3.058-13.206,3.056-20.161c0.005-9.276-1.898-18.284-5.344-26.418c-2.655-6.269-6.208-12.025-10.492-17.14
		c6.644-0.585,13.229-2.14,19.536-4.696c8.188-3.314,15.902-8.337,22.459-14.899l0.001-0.001
		c6.563-6.558,11.586-14.271,14.899-22.459c3.322-8.195,4.971-16.86,4.971-25.514C645.945,288.988,644.297,280.322,640.974,272.128z
		"/>
</g>
<path fill="#EDA921" d="M603.013,272.729c-13.759-13.758-36.065-13.758-49.824,0h-72.103l50.984-50.984
	c19.457,0,35.229-15.774,35.229-35.231c0-19.456-15.772-35.229-35.229-35.229s-35.23,15.773-35.23,35.229l-50.984,50.985v-72.103
	c13.758-13.759,13.758-36.064,0-49.824c-13.758-13.758-36.064-13.758-49.822,0c-13.758,13.76-13.758,36.065,0,49.824v72.103
	l-50.985-50.985c0-19.456-15.773-35.229-35.23-35.229c-19.457,0-35.229,15.773-35.229,35.229c0,19.458,15.772,35.231,35.229,35.231
	l50.984,50.984h-72.103c-13.758-13.758-36.064-13.758-49.823,0c-13.758,13.758-13.758,36.064,0,49.822
	c13.759,13.759,36.065,13.759,49.823,0h72.104l-50.985,50.984c-19.457,0-35.229,15.773-35.229,35.23s15.772,35.229,35.229,35.229
	c19.458,0,35.23-15.772,35.23-35.229l50.985-50.985v72.104c-13.758,13.759-13.758,36.065,0,49.824
	c13.758,13.758,36.064,13.758,49.822,0c13.758-13.759,13.758-36.065,0-49.824v-72.104l50.984,50.985
	c0,19.457,15.773,35.229,35.23,35.229s35.229-15.772,35.229-35.229s-15.772-35.23-35.229-35.23l-50.985-50.984h72.104
	c13.759,13.759,36.065,13.759,49.824,0C616.771,308.794,616.771,286.487,603.013,272.729z"/>
</svg>
