<?xml version="1.0" encoding="utf-8"?>
<!-- Generator: Adobe Illustrator 16.0.3, SVG Export Plug-In . SVG Version: 6.00 Build 0)  -->
<!DOCTYPE svg PUBLIC "-//W3C//DTD SVG 1.1//EN" "http://www.w3.org/Graphics/SVG/1.1/DTD/svg11.dtd">
<svg version="1.1" id="Vrstva_1" xmlns="http://www.w3.org/2000/svg" xmlns:xlink="http://www.w3.org/1999/xlink" x="0px" y="0px"
	 width="500px" height="500px" viewBox="170.945 47.64 500 500" enable-background="new 170.945 47.64 500 500"
	 xml:space="preserve">
<g>
	<path fill="#2687B2" d="M227.929,297.634c0,76.398,44.395,142.43,108.786,173.709l-92.072-252.262
		C233.934,243.085,227.929,269.65,227.929,297.634 M551.242,287.899c0-23.862-8.571-40.376-15.914-53.231
		c-9.783-15.907-18.96-29.363-18.96-45.27c0-17.741,13.454-34.257,32.414-34.257c0.856,0,1.667,0.104,2.501,0.155
		c-34.34-31.464-80.092-50.677-130.341-50.677c-67.435,0-126.755,34.602-161.268,86.998c4.532,0.146,8.8,0.233,12.421,0.233
		c20.185,0,51.443-2.453,51.443-2.453c10.399-0.609,11.629,14.676,1.235,15.907c0,0-10.462,1.222-22.09,1.832l70.284,209.076
		l42.245-126.682l-30.068-82.395c-10.401-0.61-20.246-1.832-20.246-1.832c-10.403-0.615-9.183-16.517,1.224-15.907
		c0,0,31.871,2.453,50.835,2.453c20.181,0,51.444-2.453,51.444-2.453c10.404-0.609,11.632,14.676,1.23,15.907
		c0,0-10.471,1.222-22.088,1.832l69.754,207.483l19.256-64.325C544.887,323.587,551.242,304.418,551.242,287.899"/>
	<path fill="#2687B2" d="M424.332,314.519l-57.919,168.277c17.707,5.217,36.07,7.866,54.529,7.866
		c21.831,0.01,43.507-3.689,64.099-10.942c-0.535-0.847-0.998-1.735-1.385-2.659L424.332,314.519z M590.314,205.036
		c0.83,6.148,1.297,12.742,1.297,19.85c0,19.577-3.666,41.596-14.678,69.131l-58.951,170.451
		c57.383-33.456,95.973-95.625,95.973-166.834C613.955,264.075,605.381,232.527,590.314,205.036"/>
	<path fill="#2687B2" d="M420.943,512.323c-118.372,0-214.679-96.313-214.679-214.688c0-118.372,96.307-214.674,214.679-214.674
		c118.374,0,214.682,96.302,214.682,214.674C635.625,416.01,539.316,512.323,420.943,512.323 M420.943,72.641
		c-124.066,0-224.998,100.931-224.998,224.993c0,124.071,100.932,225.005,224.998,225.005s225.002-100.934,225.002-225.005
		C645.945,173.572,545.009,72.641,420.943,72.641"/>
</g>
</svg>
