<svg xmlns="http://www.w3.org/2000/svg" width="963.78" height="1417.323" viewBox="0, 0, 481.89, 708.661"><path fill="none" d="M0 0h481.89v708.661H0z"/><defs><radialGradient id="b" gradientUnits="userSpaceOnUse" cx="240.639" cy="320.759" r="217.503"><stop offset=".096" stop-color="#2B490A"/><stop offset="1" stop-color="#03212C"/></radialGradient><filter id="a" x="0" y="0"><feGaussianBlur in="SourceGraphic" stdDeviation="5"/></filter></defs><path d="M242.012 694.761c-131.877 0-238.784-5.715-238.784-12.764 0-7.05 106.907-12.764 238.784-12.764 131.876 0 238.783 5.714 238.783 12.764 0 7.049-106.907 12.764-238.783 12.764z" opacity=".15" filter="url(#a)"/><path d="M480.795 642.547c0 21.029-17.206 38.234-38.235 38.234H41.463c-21.029 0-38.235-17.205-38.235-38.234V40.234C3.228 19.206 20.434 2 41.463 2h401.095c21.029 0 38.234 17.206 38.234 38.234v602.313z" fill="#2F2B00"/><path d="M474.593 635.805c0 21.029-17.206 38.234-38.234 38.234H47.665c-21.029 0-38.235-17.205-38.235-38.234V45.279c0-21.029 17.206-38.235 38.235-38.235h388.691c21.029 0 38.234 17.206 38.234 38.235v590.526z" fill="#151100"/><path d="M261.079 637.948c0 11.34-8.927 20.532-19.94 20.532-11.013 0-19.941-9.192-19.941-20.532 0-11.339 8.928-20.532 19.941-20.532 11.013 0 19.94 9.193 19.94 20.532z" stroke="#646141" stroke-width="2" stroke-miterlimit="10" opacity=".5" fill="none"/><g><path d="M23.136 42.444h435.006v556.63H23.136V42.444z" fill="url(#b)"/><path d="M235.051 559.087l5.886-15.484 1.98-.22v-2.888h-9.544v2.888l2.751.22c-3.108 8.938-3.383 9.791-3.658 10.589-.275-.991-.495-1.651-3.52-10.589l2.695-.22v-2.888h-9.764v2.888l1.926.22 5.803 15.484zM254.947 556.396h-2.122v-16.794c-2.149.027-4.537.478-6.686 1.061v2.706h2.467v2.627c-.636-.239-1.698-.345-2.388-.345-3.316 0-6.367 1.99-6.367 7.27 0 4.192 2.229 6.632 5.2 6.632 1.459 0 2.706-.583 3.768-1.565l.238 1.539c1.99 0 4.219-.186 5.89-.531zm-6.341-.822c-.849.451-1.592.663-2.122.663-1.3 0-2.308-.69-2.308-3.529 0-3.051 1.353-3.608 2.706-3.608.477 0 1.088.053 1.724.186zM153.095 265.088L162.279 241l3.048-.334v-3.799h-13.485v3.799l4.3.334c-5.301 14.736-5.802 16.239-6.303 17.617-.501-1.67-.877-2.797-6.096-17.617l4.217-.334v-3.799h-13.693v3.799l2.964.334 9.017 24.088zM184.698 265.088c.208-.96.417-3.382.417-8.517h-3.799l-.71 4.384h-7.765c2.129-2.338 4.008-4.342 11.564-13.067v-3.716H166.83c-.293 1.002-.501 3.131-.501 8.058h3.632l.751-4.05h6.304c-2.213 2.505-4.175 4.801-11.23 13.234v3.674zM200.186 265.088v-3.757l-3.549-.376v-11.188a10.366 10.366 0 0 1 4.968-1.295c1.086 0 1.879.334 2.088 1.295.125.793.167 2.212.167 4.3v11.021h9.184v-3.757l-3.674-.376v-8.224c0-2.296 0-4.05-.167-5.219-.334-2.463-1.628-3.882-4.759-3.882-2.004 0-5.469 1.294-7.848 3.047v-12.524c-2.631 0-6.471.71-9.185 1.503v3.674h3.757v21.625l-3.381.376v3.757zM239.261 264.67v-3.548h-3.548v-17.367c-3.048 0-6.429.501-9.268 1.169v3.59h3.715v11.021c-1.753.919-3.298 1.336-4.675 1.336-1.336 0-2.213-.668-2.38-1.753-.167-.752-.167-1.879-.167-3.924v-11.439c-2.755 0-6.346.501-9.226 1.127v3.632h3.674v7.849c0 2.003.041 3.715.208 4.926.334 2.63 1.879 4.383 5.428 4.383 2.546 0 5.093-1.169 7.389-3.047l.334 2.839c2.964 0 6.679-.376 8.516-.794zm-9.435-26.175c0-2.296-1.377-3.799-3.757-3.799-2.213 0-3.882 1.586-3.882 3.882 0 2.129 1.586 3.883 3.84 3.883 2.296 0 3.799-1.879 3.799-3.966zm-1.628.042c0 1.294-.751 2.296-2.087 2.296-1.503 0-2.213-1.002-2.213-2.255 0-1.336.793-2.296 2.129-2.296 1.295 0 2.171.877 2.171 2.255zM254.624 265.088v-3.757l-4.216-.418v-10.645c1.586-1.086 3.59-1.629 5.427-1.629.334 0 1.753.084 2.129.126v-5.052c-.376-.042-.96-.083-1.336-.083-2.63 0-5.051 1.544-6.262 3.632v-3.674c-2.63.042-6.721.626-9.143 1.461v3.674h3.758v12.232l-3.549.376v3.757zM285.058 264.67v-3.548h-3.549v-17.367c-3.047 0-6.429.501-9.267 1.169v3.59h3.715v11.021c-1.753.919-3.298 1.336-4.676 1.336-1.336 0-2.212-.668-2.379-1.753-.167-.752-.167-1.879-.167-3.924v-11.439c-2.756 0-6.346.501-9.226 1.127v3.632h3.673v7.849c0 2.003.042 3.715.209 4.926.334 2.63 1.879 4.383 5.427 4.383 2.547 0 5.093-1.169 7.39-3.047l.333 2.839c2.965 0 6.68-.376 8.517-.794zM320.71 261.122h-3.548v-27.011c-3.09.042-6.429.71-9.519 1.545v3.674h3.966v5.009c-1.127-.459-2.797-.626-4.008-.626-5.26 0-10.102 3.048-10.102 11.355 0 6.722 3.465 10.437 8.14 10.437 2.505 0 4.551-1.002 6.221-2.63l.334 2.589c2.88 0 6.053-.293 8.516-.794zm-9.101-1.587c-1.503.919-2.797 1.42-4.175 1.42-2.296 0-4.216-1.211-4.216-6.221 0-4.884 2.254-6.303 5.135-6.303 1.002 0 2.129.167 3.256.417zM344.923 254.067c0-6.847-3.172-10.563-10.019-10.563-7.306 0-11.146 3.966-11.146 11.481 0 6.93 3.799 10.771 10.269 10.771 7.139 0 10.896-4.133 10.896-11.689zm-5.886.709c0 5.093-1.962 6.68-4.801 6.68-2.797 0-4.717-1.503-4.717-7.139 0-3.966 1.419-6.596 4.926-6.596 3.924 0 4.592 2.755 4.592 7.055zM106.108 310.982v-3.757l-4.216-.418v-10.645c1.586-1.086 3.59-1.628 5.427-1.628.334 0 1.753.083 2.129.125v-5.052c-.376-.041-.96-.083-1.336-.083-2.63 0-5.051 1.545-6.262 3.632v-3.674c-2.63.042-6.721.626-9.143 1.461v3.674h3.758v12.232l-3.549.376v3.757zM131.115 308.728l-1.837-3.549c-2.046 1.211-4.216 1.879-6.847 1.879-3.047 0-4.8-1.712-5.218-4.259-.083-.417-.083-1.168-.083-1.377h13.526c.083-.71.125-1.461.125-1.795 0-5.26-1.503-10.228-8.892-10.228-5.511 0-10.395 3.673-10.395 11.438 0 6.429 3.548 10.813 9.643 10.813 3.841 0 6.847-1.002 9.978-2.922zm-5.678-11.147h-8.099c.376-2.588 2.171-4.133 4.467-4.133 2.672 0 3.674 1.461 3.674 3.298 0 .251 0 .543-.042.835zM134.538 303.676c0 3.632.167 5.678.459 6.805 2.297.751 5.01 1.169 7.724 1.169 6.345 0 8.975-3.465 8.975-6.847 0-2.88-1.085-5.218-5.343-6.303l-3.424-.835c-1.544-.418-2.003-1.211-2.003-2.13 0-1.085.793-2.129 2.964-2.129.709 0 1.795.042 2.88.293l.585 3.172h3.715c0-2.337-.083-5.552-.501-6.763-1.711-.459-4.133-.709-6.429-.709-6.178 0-8.976 3.089-8.976 6.47 0 3.758 1.837 5.469 5.135 6.388l3.215.876c1.628.46 2.171 1.044 2.171 2.213 0 1.085-.793 2.087-3.048 2.087-1.169 0-2.713-.25-3.715-.668l-.668-3.089zM167.31 321.252v-3.757l-4.3-.376v-6.095c1.169.25 2.338.334 3.674.334 6.387 0 10.52-3.674 10.52-11.648 0-6.846-2.505-10.27-6.847-10.27-2.838 0-5.761 1.503-7.347 2.839l-.125-2.839c-2.964.084-6.095.543-9.06 1.42v3.674h3.758v22.585l-3.549.376v3.757zm-4.3-14.779v-11.021c1.503-.668 2.88-1.169 4.55-1.169 2.505 0 3.758 2.004 3.758 6.012 0 4.717-1.837 6.679-4.885 6.679a11.81 11.81 0 0 1-3.423-.501zM202.628 299.961c0-6.847-3.173-10.562-10.019-10.562-7.306 0-11.147 3.966-11.147 11.48 0 6.93 3.799 10.771 10.27 10.771 7.139 0 10.896-4.133 10.896-11.689zm-5.886.709c0 5.094-1.963 6.68-4.801 6.68-2.797 0-4.718-1.503-4.718-7.139 0-3.966 1.42-6.596 4.926-6.596 3.925 0 4.593 2.755 4.593 7.055zM218.701 310.982v-3.757l-3.549-.376v-11.23c1.837-.96 3.549-1.252 5.01-1.252 1.085 0 1.837.334 2.046 1.294.166.793.208 2.212.208 4.3v11.021h9.185v-3.757l-3.674-.376v-8.099c0-2.338 0-4.133-.167-5.344-.376-2.463-1.587-3.882-4.759-3.882-2.088 0-5.511 1.252-7.849 3.047l-.125-3.089c-2.547 0-6.638.668-9.059 1.461v3.674h3.757v12.232l-3.548.376v3.757zM252.558 310.982c.208-.96.417-3.382.417-8.516h-3.799l-.71 4.383h-7.764c2.129-2.338 4.007-4.342 11.563-13.067v-3.715H234.69c-.292 1.002-.501 3.131-.501 8.057h3.632l.751-4.05h6.304c-2.212 2.505-4.174 4.801-11.23 13.234v3.674zM264.539 283.888c0-2.38-1.294-3.131-3.047-3.131-1.629 0-3.09.877-3.09 3.131 0 2.296 1.461 3.089 3.006 3.089 1.837 0 3.131-.96 3.131-3.089zm3.966 27.094v-3.757l-3.548-.376v-17.367c-2.923 0-6.346.585-9.185 1.42v3.715h3.758v12.232l-3.549.376v3.757zM285.121 310.982l6.763-16.824 2.63-.376v-3.715h-11.356v3.715l2.965.292c-2.088 5.469-3.132 8.642-4.05 11.564-1.002-3.089-1.962-5.886-4.133-11.564l3.006-.292v-3.715h-11.564v3.715l2.63.376 6.721 16.824zM308.958 310.982v-3.757l-3.548-.376v-11.23c1.837-.96 3.548-1.252 5.009-1.252 1.086 0 1.837.334 2.046 1.294.167.793.209 2.212.209 4.3v11.021h9.184v-3.757l-3.674-.376v-8.099c0-2.338 0-4.133-.167-5.344-.375-2.463-1.586-3.882-4.759-3.882-2.087 0-5.51 1.252-7.848 3.047l-.125-3.089c-2.547 0-6.638.668-9.06 1.461v3.674h3.758v12.232l-3.549.376v3.757zM330.166 287.603l6.638-6.596h-5.678l-5.01 6.596zm6.304 23.379v-3.757l-3.549-.376v-17.367c-2.922 0-6.345.585-9.184 1.42v3.715h3.757v12.232l-3.548.376v3.757zM350.789 310.982v-3.757l-3.549-.376v-11.188a10.375 10.375 0 0 1 4.968-1.294c1.086 0 1.879.334 2.088 1.294.125.793.167 2.212.167 4.3v11.021h9.184v-3.757l-3.674-.376v-8.224c0-2.296 0-4.05-.167-5.219-.334-2.463-1.628-3.882-4.759-3.882-2.004 0-5.469 1.294-7.848 3.047v-12.524c-2.63 0-6.471.71-9.185 1.503v3.674h3.758v21.625l-3.382.376v3.757zM387.652 299.961c0-6.847-3.173-10.562-10.02-10.562-7.305 0-11.146 3.966-11.146 11.48 0 6.93 3.799 10.771 10.27 10.771 7.139 0 10.896-4.133 10.896-11.689zm-5.887.709c0 5.094-1.962 6.68-4.8 6.68-2.798 0-4.718-1.503-4.718-7.139 0-3.966 1.42-6.596 4.926-6.596 3.925 0 4.592 2.755 4.592 7.055zM150.152 339.968l2.546-.292v-3.715h-10.896v3.715l2.923.292c-1.336 5.803-2.046 8.809-2.505 11.189-.585-2.213-1.169-4.718-4.3-14.737h-4.3c-2.881 9.101-3.632 11.856-4.425 14.778-.376-2.045-1.128-5.26-2.464-11.146l2.881-.376v-3.715h-11.397v3.715l2.63.376 4.467 16.824h6.095c2.505-7.347 3.549-10.896 4.217-13.276.668 2.464 1.67 5.762 3.924 13.276h6.053zM174.657 354.622l-1.837-3.549c-2.045 1.211-4.216 1.879-6.846 1.879-3.048 0-4.801-1.712-5.218-4.258-.084-.418-.084-1.169-.084-1.378h13.526c.084-.71.125-1.461.125-1.795 0-5.26-1.503-10.228-8.892-10.228-5.51 0-10.395 3.674-10.395 11.439 0 6.429 3.549 10.812 9.644 10.812 3.841 0 6.846-1.002 9.977-2.922zm-5.677-11.147h-8.099c.375-2.588 2.171-4.133 4.467-4.133 2.672 0 3.673 1.461 3.673 3.298 0 .251 0 .543-.041.835zM179.709 356.125a31.224 31.224 0 0 0 9.059 1.336c6.554 0 10.604-3.799 10.604-11.773 0-6.805-2.63-10.228-7.181-10.228-2.713 0-5.385 1.503-7.097 2.797v-12.316c-2.505 0-6.262.752-9.143 1.503v3.674h3.758zm5.427-3.465v-11.23c1.419-.668 2.839-1.211 4.55-1.211 2.296 0 3.758 2.087 3.758 6.095 0 4.676-1.712 6.721-4.968 6.721-1.253 0-2.296-.125-3.34-.375zM226.841 352.91h-3.548V325.9c-3.089.041-6.429.709-9.518 1.544v3.674h3.966v5.01c-1.128-.46-2.798-.627-4.008-.627-5.26 0-10.103 3.048-10.103 11.356 0 6.721 3.465 10.437 8.141 10.437 2.504 0 4.55-1.002 6.22-2.631l.334 2.589c2.881 0 6.053-.292 8.516-.793zm-9.1-1.586c-1.503.918-2.798 1.419-4.175 1.419-2.296 0-4.217-1.211-4.217-6.22 0-4.885 2.255-6.304 5.135-6.304 1.002 0 2.129.167 3.257.417zM249.51 354.622l-1.837-3.549c-2.045 1.211-4.216 1.879-6.846 1.879-3.048 0-4.801-1.712-5.219-4.258-.083-.418-.083-1.169-.083-1.378h13.526c.083-.71.125-1.461.125-1.795 0-5.26-1.503-10.228-8.892-10.228-5.511 0-10.395 3.674-10.395 11.439 0 6.429 3.548 10.812 9.644 10.812 3.84 0 6.846-1.002 9.977-2.922zm-5.677-11.147h-8.099c.375-2.588 2.17-4.133 4.467-4.133 2.671 0 3.673 1.461 3.673 3.298 0 .251 0 .543-.041.835zM252.933 349.57c0 3.632.167 5.678.46 6.805 2.296.752 5.009 1.169 7.723 1.169 6.345 0 8.976-3.465 8.976-6.846 0-2.881-1.086-5.219-5.344-6.304l-3.423-.835c-1.545-.418-2.004-1.211-2.004-2.129 0-1.086.793-2.129 2.964-2.129.71 0 1.795.041 2.88.292l.585 3.173h3.715c0-2.338-.083-5.553-.501-6.763-1.711-.46-4.133-.71-6.429-.71-6.178 0-8.975 3.089-8.975 6.471 0 3.757 1.836 5.469 5.135 6.387l3.214.877c1.628.459 2.171 1.043 2.171 2.212 0 1.086-.793 2.088-3.048 2.088-1.169 0-2.713-.251-3.715-.668l-.668-3.09zM282.031 329.782c0-2.379-1.294-3.131-3.047-3.131-1.628 0-3.09.877-3.09 3.131 0 2.296 1.462 3.089 3.006 3.089 1.837 0 3.131-.96 3.131-3.089zm3.966 27.094v-3.757l-3.548-.376v-17.367c-2.923 0-6.346.585-9.185 1.42v3.715h3.758v12.232l-3.549.376v3.757zM294.597 350.113a10.56 10.56 0 0 0 2.964.418c5.01 0 8.767-2.505 8.767-7.39 0-.876-.209-2.087-.668-2.797H309v-4.133h-6.387c-1.169-.584-2.672-.918-4.843-.918-6.346 0-8.976 3.757-8.976 7.807 0 2.504 1.044 4.884 3.048 5.928-1.92 2.003-2.588 3.339-2.588 4.592 0 1.628.835 2.839 2.713 3.381-3.047 1.378-4.3 3.09-4.3 5.01 0 2.839 2.213 5.719 9.393 5.719 7.431 0 11.564-3.465 11.564-8.099 0-3.423-1.628-5.552-6.22-6.053l-6.888-.793c-1.42-.125-1.712-.71-1.712-1.253 0-.375.167-.876.793-1.419zm.418 7.64l3.924.292c3.006.251 3.757 1.211 3.757 2.714 0 1.336-1.586 2.797-4.717 2.797-3.549 0-5.093-1.128-5.093-2.63 0-1.002.626-2.088 2.129-3.173zm6.137-14.737c0 2.38-1.295 3.632-3.507 3.632-2.046 0-3.34-1.169-3.34-3.632 0-1.879.96-3.715 3.423-3.715 2.589 0 3.424 1.753 3.424 3.715zM323.278 356.876v-3.757l-3.549-.376v-11.23c1.837-.96 3.549-1.252 5.01-1.252 1.085 0 1.837.334 2.045 1.294.167.793.209 2.212.209 4.3v11.021h9.184v-3.757l-3.673-.376v-8.099c0-2.338 0-4.133-.167-5.343-.376-2.464-1.587-3.883-4.759-3.883-2.088 0-5.511 1.252-7.849 3.048l-.125-3.09c-2.547 0-6.638.668-9.059 1.461v3.674h3.757v12.232l-3.549.376v3.757zM362.353 356.459v-3.549h-3.549v-17.367c-3.047 0-6.429.501-9.267 1.169v3.59h3.715v11.022c-1.753.918-3.298 1.336-4.676 1.336-1.336 0-2.212-.668-2.379-1.754-.167-.751-.167-1.878-.167-3.924v-11.439c-2.755 0-6.346.501-9.226 1.127v3.632h3.673v7.849c0 2.004.042 3.715.209 4.926.334 2.63 1.879 4.384 5.427 4.384 2.547 0 5.093-1.169 7.39-3.048l.334 2.839c2.964 0 6.679-.376 8.516-.793z" fill="#FFF"/><path d="M190.698 411.57l.164-.672a10.55 10.55 0 0 1-.925-.074c-.313-.045-.432-.149-.432-.418 0-.119.03-.283.059-.432.075-.403 1.03-5.117 1.432-7.175.254 1.059.433 1.745 1.656 6.921.06.224.179.358.433.358.238 0 .358-.09.522-.328 3.162-4.982 3.789-5.982 4.341-6.907-.194 1.015-1.224 6.758-1.283 7.026-.075.343-.149.656-.239.746-.119.134-.328.239-1.283.283l-.119.672c.88-.015 1.566-.03 1.969-.03.432 0 1.298.015 1.969.03l.119-.672a11.245 11.245 0 0 1-.895-.089c-.224-.03-.447-.105-.447-.373 0-.164.015-.418.104-.94.955-5.489 1.044-5.966 1.104-6.28.089-.477.164-.671.283-.82.12-.119.343-.209 1.238-.254l.15-.686c-.463.03-1.089.03-1.328.03-.373 0-1.014-.015-1.387-.03-3.267 5.102-3.804 5.997-4.445 7.13-.254-1.208-.433-2.058-1.656-7.13-.254.03-.776.03-1.134.03-.328 0-.984 0-1.641-.03l-.149.657c.478.014.776.029.955.074.239.045.358.119.358.343 0 .06-.015.224-.045.373-.074.343-.224 1.119-1.387 6.519-.164.805-.284 1.103-.463 1.253-.119.119-.522.194-1.163.223l-.149.672c.775-.015 1.641-.03 1.954-.03.328 0 1.148.015 1.76.03zM205.376 410.436c0 .104 0 .283.015.433.06.552.313.82.88.82.388 0 .999-.119 1.521-.388l.15-.626a4.503 4.503 0 0 1-.925.134c-.492 0-.627-.209-.627-.507 0-.507.09-1.089.388-2.253l.91-3.58h-.805l-.254.552c-.477-.283-1.074-.388-1.462-.388-1.104 0-1.984.344-2.715.985-1.074.925-1.7 2.64-1.7 3.848 0 1.403.641 2.268 2.073 2.268.94 0 1.805-.448 2.551-1.298zm.03-.761c-.567.552-1.417 1.179-2.312 1.179-.91 0-1.283-.478-1.283-1.462 0-1.208.597-2.551 1.357-3.207.522-.448 1.119-.716 1.775-.716.627 0 1.03.134 1.403.358l-.612 2.342a21.639 21.639 0 0 0-.328 1.506zM210.284 411.555l.745-3.163c.12-.507.284-1.461.329-1.745.387-.432.939-.94 1.551-.94.403 0 .582.179.626.657h.552c.164-.478.239-.821.239-1.164 0-.432-.313-.611-.82-.611-.925 0-1.746.805-2.134 1.357.03-.149.03-.373.03-.492 0-.642-.328-.835-.731-.835-.343 0-.85.134-1.402.432l-.119.582c.149-.03.447-.06.582-.06.432 0 .626.179.626.627 0 .522-.104 1.193-.239 1.834l-.79 3.521zM218.711 411.242l-.208-.672c-.448.164-.836.254-1.209.254-.537 0-.745-.313-.745-.776 0-.537.119-1.133.223-1.626l.537-2.744c.507 0 1.238-.015 1.88-.045l.119-.716c-.716-.03-1.402-.03-1.82-.03.269-1.193.343-1.581.343-1.7 0-.209-.149-.269-.328-.269-.253 0-.373.119-.462.313-.179.403-.299.776-.522 1.179-.12.209-.239.343-.478.447-.283.12-.596.179-.865.239l-.119.582h1.298c-.299 1.461-.612 2.864-.791 3.893-.06.298-.089.626-.089.85 0 .94.581 1.313 1.357 1.313.462 0 1.208-.134 1.879-.492zM222.933 410.675a5.333 5.333 0 0 1-1.014.134c-.433 0-.552-.164-.552-.507 0-.299.104-.791.208-1.238l.418-1.731c.105-.462.373-1.506.373-1.954 0-.596-.343-.76-.791-.76-.343 0-.909.134-1.461.432l-.12.582c.164-.03.522-.06.642-.06.432 0 .581.12.581.507 0 .343-.134.955-.298 1.656l-.447 1.85c-.135.596-.194.969-.194 1.268 0 .656.462.835.925.835.387 0 .939-.089 1.596-.388zm-.06-8.92c0-.463-.268-.791-.731-.791-.477 0-.88.388-.88.97 0 .462.299.76.746.76.492 0 .865-.402.865-.939zM225.409 411.555l.895-3.789c.089-.373.194-.91.239-1.193.716-.612 1.491-1.015 2.222-1.015.522 0 .88.164.88.791 0 .164-.044.567-.119.85l-.552 2.387c-.134.596-.179.984-.179 1.283 0 .656.448.82.88.82.403 0 .97-.089 1.596-.388l.149-.626a4.887 4.887 0 0 1-1.014.134c-.403 0-.552-.164-.552-.507 0-.298.119-.821.224-1.268l.462-1.924c.135-.537.179-1.03.179-1.298 0-.865-.581-1.223-1.402-1.223-1.014 0-2.058.537-2.745 1.357.03-.134.03-.343.03-.462 0-.686-.313-.865-.731-.865-.328 0-.85.134-1.402.432l-.119.582c.149-.03.447-.06.582-.06.432 0 .626.149.626.597 0 .358-.164 1.163-.283 1.685l-.821 3.7zM238.834 411.57l.164-.672a10.55 10.55 0 0 1-.925-.074c-.313-.045-.432-.149-.432-.418 0-.119.029-.283.059-.432.075-.403 1.03-5.117 1.432-7.175.254 1.059.433 1.745 1.656 6.921.06.224.179.358.433.358.238 0 .358-.09.522-.328 3.162-4.982 3.789-5.982 4.34-6.907-.193 1.015-1.223 6.758-1.282 7.026-.075.343-.15.656-.239.746-.119.134-.328.239-1.283.283l-.119.672c.88-.015 1.566-.03 1.969-.03.432 0 1.298.015 1.969.03l.119-.672a11.245 11.245 0 0 1-.895-.089c-.224-.03-.447-.105-.447-.373 0-.164.015-.418.104-.94.955-5.489 1.044-5.966 1.104-6.28.089-.477.164-.671.283-.82.12-.119.343-.209 1.238-.254l.15-.686c-.463.03-1.089.03-1.328.03-.373 0-1.014-.015-1.387-.03-3.267 5.102-3.804 5.997-4.445 7.13-.254-1.208-.433-2.058-1.656-7.13-.254.03-.776.03-1.134.03-.328 0-.984 0-1.641-.03l-.149.657c.477.014.776.029.955.074.238.045.358.119.358.343 0 .06-.015.224-.045.373-.075.343-.224 1.119-1.387 6.519-.164.805-.284 1.103-.463 1.253-.119.119-.522.194-1.163.223l-.149.672c.775-.015 1.641-.03 1.954-.03.328 0 1.148.015 1.76.03zM252.035 410.675a5.312 5.312 0 0 1-1.014.134c-.433 0-.552-.164-.552-.507 0-.299.104-.791.209-1.238l.417-1.731c.105-.462.373-1.506.373-1.954 0-.596-.343-.76-.79-.76-.343 0-.91.134-1.462.432l-.119.582c.164-.03.522-.06.641-.06.433 0 .582.12.582.507 0 .343-.134.955-.299 1.656l-.447 1.85c-.134.596-.194.969-.194 1.268 0 .656.462.835.925.835.388 0 .94-.089 1.596-.388zm-.06-8.92c0-.463-.268-.791-.73-.791-.478 0-.881.388-.881.97 0 .462.299.76.746.76.493 0 .865-.402.865-.939zM258.912 410.585l-.388-.611c-.701.492-1.462.865-2.282.865-1.313 0-1.775-.791-1.775-1.999 0-.999.432-2.133 1.074-2.775a2.4 2.4 0 0 1 1.655-.656c.418 0 .686.075.91.284.164.164.239.462.239 1.074h.597c.119-.358.223-.97.223-1.239 0-.358-.119-.611-.581-.79-.314-.119-.761-.179-1.149-.179-.94 0-1.745.268-2.446.85-1.089.88-1.567 2.312-1.567 3.67 0 1.64.925 2.685 2.477 2.685 1.148 0 2.207-.493 3.013-1.179zM261.104 411.555l1.134-4.967c.701-.612 1.492-1.03 2.238-1.03.507 0 .88.164.88.791 0 .164-.045.567-.12.85l-.552 2.387c-.149.597-.193.984-.193 1.283 0 .656.462.82.895.82.387 0 .954-.089 1.596-.388l.134-.626a4.767 4.767 0 0 1-1 .134c-.417 0-.551-.164-.551-.507 0-.298.104-.821.208-1.268l.463-1.924c.134-.537.194-1.03.194-1.298 0-.865-.582-1.223-1.417-1.223-.985 0-1.969.507-2.67 1.298.208-.821.596-2.492.82-3.685.045-.268.119-.611.119-.865 0-.552-.343-.686-.746-.686-.358 0-.969.119-1.551.403l-.119.596c.179-.045.507-.074.626-.074.433 0 .597.104.597.522 0 .432-.179 1.297-.283 1.79l-1.641 7.667zM272.904 410.436c0 .104 0 .283.014.433.06.552.314.82.881.82.387 0 .999-.119 1.521-.388l.149-.626a4.494 4.494 0 0 1-.925.134c-.492 0-.626-.209-.626-.507 0-.507.089-1.089.388-2.253l.91-3.58h-.806l-.253.552c-.478-.283-1.074-.387-1.462-.387-1.104 0-1.984.343-2.715.984-1.074.925-1.701 2.64-1.701 3.848 0 1.403.642 2.268 2.074 2.268.94 0 1.805-.448 2.551-1.298zm.029-.761c-.566.552-1.417 1.179-2.312 1.179-.91 0-1.283-.478-1.283-1.462 0-1.208.597-2.551 1.358-3.207.522-.448 1.119-.716 1.775-.716.626 0 1.029.134 1.402.358l-.611 2.342c-.15.581-.239 1.029-.329 1.506zm-.432-5.951l1.924-1.626c.343-.284.552-.493.552-.761 0-.328-.298-.537-.537-.537-.224 0-.403.134-.731.552l-1.581 2.014zM279.407 411.301l.149-.626c-.268.074-.79.134-1.014.134-.418 0-.552-.164-.552-.507 0-.298.104-.791.209-1.238l1.163-5.311c.209-.969.448-1.998.448-2.386 0-.582-.328-.716-.776-.716-.328 0-.954.119-1.521.403l-.105.596c.164-.03.537-.074.657-.074.432 0 .552.149.552.552 0 .313-.15 1.193-.284 1.79l-1.238 5.668c-.134.597-.194.969-.194 1.268 0 .656.463.835.91.835.388 0 .955-.089 1.596-.388zM286.373 410.57l-.373-.611c-.969.626-1.581.88-2.446.88-1.238 0-1.73-.85-1.73-1.79 0-.179 0-.373.029-.552 3.103 0 4.64-.821 4.64-2.372 0-.761-.523-1.566-1.925-1.566-2.178 0-3.774 1.939-3.774 4.624 0 1.79 1.179 2.581 2.387 2.581 1.417 0 2.327-.493 3.192-1.194zm-4.415-2.789c.343-1.537 1.402-2.417 2.491-2.417.746 0 1.029.299 1.029.866 0 .85-1.029 1.476-3.52 1.551zM288.447 411.555c.522-2.253 1.282-5.803 2.058-9.338.06-.269.119-.627.119-.88 0-.552-.343-.686-.745-.686-.358 0-.97.119-1.552.402l-.119.597c.179-.045.507-.074.626-.074.433 0 .597.104.597.522 0 .432-.179 1.297-.283 1.775l-1.641 7.682zm5.459-.209l.164-.641a3.512 3.512 0 0 1-.85.104c-.477 0-.865-.358-1.044-.567-.478-.552-1.164-1.536-1.686-2.61.492-.567.925-.97 1.432-1.417.328-.299.791-.537 1.149-.537.268 0 .388.104.432.492h.537c.12-.418.179-.731.179-.94 0-.447-.298-.641-.79-.641-.686 0-1.417.462-1.999 1.014-.507.492-1.119 1.149-1.909 2.178.522 1.074 1.327 2.506 1.984 3.237.387.447.79.596 1.402.596.343 0 .82-.149.999-.268z" fill="#5FA316"/></g></svg>