<?xml version="1.0" encoding="utf-8"?>
<!-- Generator: Adobe Illustrator 18.0.0, SVG Export Plug-In . SVG Version: 6.00 Build 0)  -->
<!DOCTYPE svg PUBLIC "-//W3C//DTD SVG 1.1//EN" "http://www.w3.org/Graphics/SVG/1.1/DTD/svg11.dtd">
<svg version="1.1" id="SK" xmlns="http://www.w3.org/2000/svg" xmlns:xlink="http://www.w3.org/1999/xlink" x="0px" y="0px"
	 viewBox="0 0 461.7 155.5" enable-background="new 0 0 461.7 155.5" xml:space="preserve">
<filter  id="AI_GaussianBlur_4">
	<feGaussianBlur  stdDeviation="2"></feGaussianBlur>
</filter>
<g>
	<g>
		<path fill="#676867" d="M154.6,31.9l-16.5,32.5c-2.9,5.5-4.4,9.3-5.7,12.6h-0.2c-0.1-3.4-0.4-6.4-1-11.7l-3.8-33.3h-6.5l6.4,52h7
			l27.4-52H154.6z M186.8,47.1c-2.6-0.8-6.5-1.4-10.1-1.4c-16.3,0-25.8,13.6-25.8,26.7c0,7.1,4.1,12.3,10.7,12.3
			c5.3,0,10.5-2.7,14.5-10.5h0.2c-0.5,3.9-0.8,7.4-0.8,9.6h6c-0.2-4.2,0.3-10.8,1.5-17.3L186.8,47.1z M177.4,62.6
			c-1.9,9.9-8.2,16.9-13.5,16.9c-4.9,0-6.4-4.1-6.4-8.2c0-10.4,7.9-20.4,17.7-20.4c2.2,0,3.5,0.2,4.4,0.5L177.4,62.6z M205.3,42
			l8.9-11h-5.2l-5.5,7.1h-0.2l-3.3-7.1h-4.9l5.4,11H205.3z M202.9,50.7c2.8,0,5.2,0.9,6.5,1.7l1.8-4.9c-1.4-0.9-4.4-1.9-7.8-1.9
			c-7.9,0-13.5,5-13.5,11.5c0,3.9,2.4,7.2,6.7,9.6c3.9,2.2,5.2,3.9,5.2,6.9c0,3.3-2.8,6.1-7.1,6.1c-3.1,0-6.2-1.2-8-2.3l-1.9,4.7
			c1.7,1.3,5.3,2.5,9.3,2.5c7.9,0,14.2-4.4,14.2-12.3c0-4.2-2.8-7.5-6.9-9.8c-3.4-1.9-5.2-3.5-5.2-6.2
			C196.2,53.1,199,50.7,202.9,50.7z M242.1,55.3c0-5.4-3.9-9.6-10.9-9.6c-12,0-20.4,12.7-20.4,24c0,8.2,4.3,15,14.2,15
			c5,0,9.6-1.4,12.3-2.9l-0.9-4.8c-2.3,1.2-5.6,2.5-10,2.5c-3.9,0-6.9-1.6-8.3-5c-0.8-2-1.1-5.5-0.8-7.1
			C231.1,67.7,242.1,65.1,242.1,55.3z M230.2,50.7c3.4,0,5.7,1.7,5.7,4.7c0,5.9-7.9,7.2-18,7.1C219.6,56.6,224.1,50.7,230.2,50.7z"
			/>
		<path fill="#1979A3" d="M269.4,29.1l9.3-9.1h-5.7l-5.6,5.6h-0.2l-3.6-5.6h-5.3l6.2,9.1H269.4z M266.9,36.6c4.2,0,7.4,1.5,9,2.5
			l2.3-5.2c-1.8-1.2-5.6-2.7-10.6-2.7C258,31.1,250,37,250,46.4c0,5.6,3.7,9.7,10.3,13.3c5.5,2.9,7.6,5.9,7.6,9.7
			c0,6.2-5.4,9.7-11.3,9.7c-4.3,0-8.2-1.4-11-3.3l-2.3,5.2c2.2,1.9,7.3,3.5,12.5,3.6c11.7,0,18.7-7.1,18.7-16c0-6.4-3.5-10.5-9.9-14
			c-5.5-3-8.1-5.4-8.1-9.6C256.6,40.8,260.5,36.6,266.9,36.6z M296.7,45.7C284.6,45.7,276,57,276,69.4c0,8.4,5.2,15.3,14.6,15.3
			c12.6,0,20.7-12,20.7-23.5C311.3,53.3,306.8,45.7,296.7,45.7z M291.5,79.6c-5.4,0-8.8-4.4-8.8-10.5c0-8.6,5.3-18.3,13.3-18.3
			c6.7,0,8.7,6.1,8.7,10.4C304.7,69.9,299,79.6,291.5,79.6z M329,42l8.9-11h-5.2l-5.5,7.1h-0.2l-3.3-7.1H319l5.4,11H329z
			 M326.5,50.7c2.8,0,5.2,0.9,6.5,1.7l1.8-4.9c-1.4-0.9-4.4-1.9-7.8-1.9c-7.9,0-13.5,5-13.5,11.5c0,3.9,2.4,7.2,6.7,9.6
			c3.9,2.2,5.2,3.9,5.2,6.9c0,3.3-2.8,6.1-7.1,6.1c-3.1,0-6.2-1.2-8-2.3l-1.9,4.7c1.7,1.3,5.3,2.5,9.3,2.5c7.9,0,14.2-4.4,14.2-12.3
			c0-4.2-2.8-7.5-6.9-9.8c-3.4-1.9-5.2-3.5-5.2-6.2C319.9,53.1,322.7,50.7,326.5,50.7z M354.1,45.7c-12.1,0-20.7,11.3-20.7,23.7
			c0,8.4,5.2,15.3,14.6,15.3c12.6,0,20.7-12,20.7-23.5C368.8,53.3,364.2,45.7,354.1,45.7z M348.9,79.6c-5.4,0-8.8-4.4-8.8-10.5
			c0-8.6,5.3-18.3,13.3-18.3c6.7,0,8.7,6.1,8.7,10.4C362.1,69.9,356.4,79.6,348.9,79.6z M395.1,46.5l-11.3,21.7
			c-2.2,4.2-3.2,6.7-4,8.7h-0.2c-0.1-2.1-0.6-4.9-1.2-9.2l-3.2-21.3h-6.5l6.5,37.3h6.2l20.7-37.3H395.1z M453.4,46.5l-9.6,20.7
			c-1.9,4.2-3,6.8-4,9.2h-0.2c-0.4-2.8-0.8-5.6-1.7-9.9l-3.7-20h-11.2L410,59.6c-1,1-2.4,2.5-3.5,3.8h-0.2l6.6-34.3h-6.4l-10.4,54.7
			h6.3l2.7-14.2l4.7-4.2l9,18.4h7l-11.1-22l13.4-12.7l6.9,32.3c0.2,0.7,0.2,1.1-0.2,1.7c-2,3.7-4.7,6.7-7.2,8.6
			c-2.5,2-5.2,3-6.9,3.5l1.6,5.6c2.1-0.5,6.6-2.2,10.8-6.5c5.1-5,8.9-11.6,12.9-19.6l14-28.4H453.4z"/>
	</g>
	<path fill="#A3A1A2" d="M175.9,106.6c-1.1,0.1-2.2,1.7-3.3,4.8c-0.5,1.3-1,3.2-1.6,5.6c-0.4,0.5-0.6,0.7-0.6,0.7
		c-0.1-0.4-0.3-0.6-0.6-0.6c-2.9,0-5.7,1.9-8.2,5.7c-2.1,3.1-3.4,6-3.9,8.9c-0.2,1.2,0,2.3,0.7,3.4c0.8,1.2,1.8,1.8,3.1,1.8
		c1.1-0.1,2.3-0.5,3.8-1.3c1.3-0.9,2.3-1.9,3.1-2.8c0,1,0,2,0,3.1c0,1.6,0.2,2.3,0.7,2.3c0.7,0,1.3-0.2,1.6-0.5
		c0.6-4.9,1.1-8.7,1.5-11.2c1.2-8.1,2.7-14,4.4-17.6c0.2-0.3,0.3-0.7,0.3-1C177.1,107,176.7,106.5,175.9,106.6z M169.8,124.8
		c-0.3,1.7-0.9,3.3-1.9,4.8c-1,1.4-2,2.5-3,3.2c-0.3,0.2-0.6,0.4-1,0.6c-0.3,0.2-0.8,0.4-1.5,0.5c-0.7,0-1.2-0.3-1.6-1
		c-0.3-0.5-0.4-1.1-0.3-1.7c0.3-1.9,1.3-3.9,2.8-6.2c1.8-2.7,3.6-4.2,5.4-4.5c0.5,0.1,0.8,0.9,0.9,2.2
		C169.9,123.7,169.9,124.4,169.8,124.8z M298.4,115.3c0.5,0,2.2-1,5.2-3c3-2,4.5-3.3,4.7-3.9c0.1-0.3,0-0.6-0.3-0.8
		c-0.2-0.2-0.5-0.4-0.9-0.4c-0.5,0-2.2,0.8-5.2,2.5c-3.2,1.8-4.8,3.1-5,4c0,0.1,0.1,0.4,0.5,0.9
		C297.8,115.1,298.1,115.3,298.4,115.3z M191.1,116.3c-1.2-0.1-3,1.2-5.2,3.8c-1.8,2.1-3.5,4.4-4.9,7c-0.3-1-0.3-2.2-0.1-3.6
		c0.2-1.4,0.1-2.6-0.2-3.5c-1,0-1.7,0.5-2.2,1.4c-0.2,0.4-0.4,1.1-0.5,2.1c0,0.2-0.1,1.4-0.1,3.5c0,2.3,0,3.9,0,4.7
		c0,0.2-0.1,0.8-0.2,1.8c-0.1,0.8-0.2,1.4-0.1,1.7c0,0.3,0.2,0.7,0.6,1c0.3,0.3,0.7,0.5,1,0.5c0.4,0,1.2-1.3,2.3-3.8
		c1.5-3.5,2.8-6,3.9-7.6c1.6-2.4,3.1-4.1,4.5-4.9c0.7,0.5,0.5,3.9-0.6,10.2c-0.4,2.3-0.9,4.5-1.3,6.5c-0.1,0.5,0,0.9,0.2,1.2
		c0.3,0.3,0.6,0.4,1,0.4c0.5,0,1.1-0.8,1.7-2.3c0.4-1.1,0.7-2.1,0.9-3.1c0.7-3.1,1.2-5.9,1.4-8.4C193.6,119.8,193,116.9,191.1,116.3
		z M127,125.3c2.4-1.5,4.7-2.9,7.1-4.4c4.8-3.1,8.2-5.8,10.2-8.1c1-1.1,1.6-2.4,1.8-3.8c0.3-1.9-1.2-3.3-4.5-4.2
		c-1.9-0.6-3.8-0.9-5.8-0.9c-1.9,0-3.8,0-5.4,0.3c-1.7,0.2-3.3,0.6-5,1.1c-1.6,0.7-2.5,1.6-2.7,2.6c0,0.3,0.3,0.8,0.9,1.6
		c0.4,0.5,0.8,0.9,1.2,1.4c-0.1,1.9-0.2,3.8-0.4,5.7c-0.2,2.9-0.4,5.1-0.6,6.4c-0.1,0.8-0.3,1.4-0.5,1.6c0,0.6,0.2,1.3,0.6,2
		c0,7,0.7,10.5,2.1,10.5c0.4,0,0.9-0.5,1.5-1.6c0.5-0.9,0.7-1.6,0.8-2.1c0-0.3-0.4-1.2-1.3-2.8c-0.1-0.3-0.2-1.1-0.3-2.4
		c-0.1-1.3-0.1-2.2,0-2.7C126.9,125.4,126.9,125.3,127,125.3z M127.3,116.5c0.3-3.5,0.5-5.6,0.6-6.4c0.2-1.2,0.7-2.1,1.4-2.5
		c0.7-0.4,3.1-0.7,7.1-0.7c1.1,0,2.4,0.2,4,0.7c1.9,0.5,2.8,1.2,2.8,2c-0.1,1.4-2.8,3.9-7.9,7.4c-4.5,3-7.2,4.7-8.4,5.1
		C126.9,121.7,127.1,119.8,127.3,116.5z M210.1,120.6c-0.5-1.5-1.4-2.4-2.9-2.9c-0.4-0.2-1.1-0.2-1.9-0.2c-2.3,0.1-4.5,1.7-6.6,4.7
		c-1.4,2.5-2.3,4.7-2.7,6.8c-0.3,2.1-0.1,4,0.7,5.6c1,1.9,2.6,2.8,4.8,2.8c0.9,0,2.1-0.3,3.5-0.8c2.2-0.8,3.9-2,5.2-3.6
		c0.1-0.1,0.1-0.3,0-0.5c-0.1-0.2-0.2-0.4-0.3-0.5h-0.6l-1.4,1c-0.4,0.3-1.2,0.6-2.4,1c-1.2,0.4-2,0.6-2.5,0.6
		c-1.2,0-2.1-0.4-2.9-1.3c-0.8-0.9-1-1.9-0.8-3.1c0-0.3,0.1-0.5,0.2-0.7c0.3-0.1,1.9-0.4,4.7-0.6c2.6-0.3,4.2-0.4,4.7-0.4
		c0.8-0.2,1.3-0.5,1.4-1.1c0.1-0.6,0.2-1,0.2-1.4c0.1-0.3,0-1,0-2.2C210.4,122.3,210.3,121.3,210.1,120.6z M207.2,125
		c-0.1,0.1-0.2,0.3-0.3,0.5c-0.1,0.2-0.5,0.3-1.3,0.4c-0.6,0-1.5,0.1-2.8,0.2c-1.3,0.1-2.2,0.2-2.8,0.2c0,0,0-0.1-0.1-0.2
		c0-0.1-0.1-0.2,0-0.3c0.2-1,0.8-2.1,2-3.3c1.2-1.2,2.2-1.8,3.2-1.8c0.9,0,1.5,0.6,1.8,1.8C207.3,123.4,207.4,124.3,207.2,125z
		 M153.9,118.3c-2.6,0-5.7,1.7-9.4,5c-3.5,3.2-5.5,5.9-5.9,8.3c-0.2,1.3-0.1,2.5,0.3,3.5c0.6,1.3,1.6,1.9,3.1,1.9c2.1,0,4.9-2,8.4-6
		c0,1.3,0,2.5,0,3.8c0,1.3,0.4,1.9,1,1.9c0.5,0,0.9-0.3,1.4-0.8c0.4-0.5,0.6-0.9,0.7-1.3c0-0.2,0.1-0.8,0.1-1.9c0-0.6,0-1.2,0-1.8
		c0.5-3.1,0.8-5.2,1.1-6.5c0,0.1,0.1-0.2,0.2-0.7c0.1-0.5,0.3-1,0.3-1.4C155.9,119.7,155.4,118.3,153.9,118.3z M151.8,124.1
		c-0.1,0.5-0.6,1.4-1.5,2.9c-0.8,1.3-1.3,2.1-1.5,2.3c-2.6,2.8-4.4,4.3-5.4,4.5c-0.2,0-0.4,0-0.6,0c-1,0-1.4-0.6-1.2-1.9
		c0.2-0.9,0.5-1.8,1.2-2.9c0.8-1.4,2.2-3,4.1-4.7c2.2-1.8,3.9-2.8,5.2-2.8C152.2,121.5,152.1,122.3,151.8,124.1z M377.3,118.4
		c-1.7-1.3-3.3-1.8-4.8-1.6c-2.3,0.3-4.4,2.4-6.3,6.4c-1.3,2.7-2.2,5.1-2.6,7.2c-0.4,1.9-0.2,3.6,0.6,5.2c1.1,1.7,2.6,2.5,4.6,2.5
		c2.4,0,4.7-1.5,6.8-4.5c1.7-2.7,2.8-5.3,3.3-7.7c0.3-1.4,0.3-2.7,0.1-4C378.8,120.3,378.2,119.1,377.3,118.4z M376.1,125.4
		c-0.2,1.7-1,3.7-2.3,6c-1.5,2.6-3,4-4.4,4c-1.4,0-2.3-0.7-2.7-2.2c-0.3-1.1-0.2-2.5,0.4-4.2c0.3-1,0.6-2,1.1-3.2
		c1.6-3.8,3.4-5.7,5.4-5.7c1,0,1.7,0.7,2.1,2C376.2,123.1,376.3,124.2,376.1,125.4z M406.5,118.4c-1.7-1.3-3.3-1.8-4.8-1.6
		c-2.3,0.3-4.4,2.4-6.3,6.4c-1.3,2.7-2.2,5.1-2.6,7.2c-0.4,1.9-0.2,3.6,0.6,5.2c1.1,1.7,2.6,2.5,4.6,2.5c2.4,0,4.7-1.5,6.8-4.5
		c1.7-2.7,2.8-5.3,3.3-7.7c0.3-1.4,0.3-2.7,0.1-4C408,120.3,407.4,119.1,406.5,118.4z M405.3,125.4c-0.2,1.7-1,3.7-2.3,6
		c-1.5,2.6-3,4-4.4,4c-1.4,0-2.3-0.7-2.7-2.2c-0.3-1.1-0.2-2.5,0.4-4.2c0.3-1,0.6-2,1.1-3.2c1.6-3.8,3.4-5.7,5.4-5.7
		c1,0,1.7,0.7,2.1,2C405.4,123.1,405.5,124.2,405.3,125.4z M364.5,107.9c0.2-0.9-0.2-1.3-1.1-1.3c-1.1,0.1-2.2,1.7-3.3,4.8
		c-0.5,1.3-1,3.2-1.6,5.6c-0.4,0.5-0.6,0.7-0.6,0.7c-0.1-0.4-0.3-0.6-0.6-0.6c-2.9,0-5.7,1.9-8.2,5.7c-2.1,3.1-3.4,6-3.9,8.9
		c-0.2,1.2,0,2.3,0.7,3.4c0.8,1.2,1.8,1.8,3.1,1.8c1.1-0.1,2.3-0.5,3.8-1.3c1.3-0.9,2.3-1.9,3.1-2.8c0,1,0,2,0,3.1
		c0,1.6,0.2,2.3,0.7,2.3c0.7,0,1.3-0.2,1.6-0.5c0.6-4.9,1.1-8.7,1.5-11.2c1.2-8.1,2.7-14,4.4-17.6
		C364.4,108.5,364.5,108.2,364.5,107.9z M357.4,124.8c-0.3,1.7-0.9,3.3-1.9,4.8c-1,1.4-2,2.5-3,3.2c-0.3,0.2-0.6,0.4-1,0.6
		c-0.3,0.2-0.8,0.4-1.5,0.5c-0.7,0-1.2-0.3-1.6-1c-0.3-0.5-0.4-1.1-0.3-1.7c0.3-1.9,1.3-3.9,2.8-6.2c1.8-2.7,3.6-4.2,5.4-4.5
		c0.5,0.1,0.8,0.9,0.9,2.2C357.5,123.7,357.5,124.4,357.4,124.8z M427.3,116.5c-0.2,0-0.7,0.2-1.5,0.6c-4.3,3.7-7.7,6.5-10.2,8.3
		c1-7.3,1.9-12.7,2.6-16.3c0.1-1-0.2-1.5-1-1.5c-0.6,0-1.1,0.5-1.7,1.6c-0.4,0.8-0.6,1.4-0.7,1.9l-0.7,3.8c-0.1,0.5-0.6,4-1.6,10.5
		c-1,6.1-1.5,9.2-1.5,9.3c0,0.8,0.2,1.4,0.6,1.8c0.4,0.4,0.7,0.6,1.1,0.6c0.3-0.1,0.7-0.3,1.2-0.8c0.6-0.7,0.9-1.7,0.7-2.9
		c0-0.9,0-1.7,0.1-2.5c0-0.7,0.1-1.2,0.1-1.3c0.1-0.5,0.3-0.9,0.6-1.2c2.6,2.9,4.1,4.6,4.6,5.1c2.1,2,3.9,3.3,5.7,3.7
		c1.2,0,1.8-0.6,1.9-1.7c0-0.2,0-0.4-0.1-0.6c-0.1-0.2-0.3-0.4-0.5-0.6c-1.2-0.5-2.2-1.2-3.2-2c-2.3-1.9-3.9-3.9-5-5.9
		c5.7-4.6,8.8-7.5,9.3-8.7c0.1-0.1,0.1-0.4,0-0.8C427.9,116.7,427.7,116.5,427.3,116.5z M444.1,118.3c-2.6,0-5.7,1.7-9.4,5
		c-3.5,3.2-5.5,5.9-5.9,8.3c-0.2,1.3-0.1,2.5,0.3,3.5c0.6,1.3,1.6,1.9,3.1,1.9c2.1,0,4.9-2,8.4-6c0,1.3,0,2.5,0,3.8
		c0,1.3,0.4,1.9,1,1.9c0.5,0,0.9-0.3,1.4-0.8c0.4-0.5,0.6-0.9,0.7-1.3c0-0.2,0.1-0.8,0.1-1.9c0-0.6,0-1.2,0-1.8
		c0.5-3.1,0.8-5.2,1.1-6.5c0,0.1,0.1-0.2,0.2-0.7c0.1-0.5,0.3-1,0.3-1.4C446.1,119.7,445.6,118.3,444.1,118.3z M442,124.1
		c-0.1,0.5-0.6,1.4-1.5,2.9c-0.8,1.3-1.3,2.1-1.5,2.3c-2.6,2.8-4.4,4.3-5.4,4.5c-0.2,0-0.4,0-0.6,0c-1,0-1.4-0.6-1.2-1.9
		c0.2-0.9,0.5-1.8,1.2-2.9c0.8-1.4,2.2-3,4.1-4.7c2.2-1.8,3.9-2.8,5.2-2.8C442.4,121.5,442.3,122.3,442,124.1z M285.7,118.1
		c-0.9-0.2-2.6,1.7-4.8,5.6c-3,4.8-4.8,7.6-5.5,8.3c-0.7-1.8-1.1-4.2-1.3-7.3c-0.1-2.2-0.2-4.1-0.1-5.8c-0.2-0.2-0.3-0.4-0.5-0.6
		c-0.2-0.3-0.5-0.4-0.8-0.3c-0.5,0.1-1.1,0.4-1.7,1c-0.1,0.3-0.2,0.6-0.3,1c0.4,5.9,0.7,9.4,0.9,10.5c0.7,5,1.8,7.5,3.2,7.5
		c0.5,0,2.5-2.8,5.9-8.5c1.3-2,2.5-4.1,3.8-6.2c1.4-2.4,2.1-3.7,2.1-3.8c0-0.1,0-0.4-0.2-0.6C286.2,118.3,286,118.1,285.7,118.1z
		 M235.7,118c-0.5-0.1-1.3,0.1-2.2,0.4c-1.2,0.5-2.3,1.2-3.3,2.3c-0.4,0.5-1.3,1.5-2.6,3.2c0-1.1-0.2-2.2-0.4-3.4
		c-0.5-1.7-1.3-2.5-2.2-2.5c-1.3,0.1-2.7,1.1-4.2,3c-1.2,1.5-2.1,3-2.9,4.3l0.1-1.1c0.1-1.2,0.2-2.5,0.3-4.1c0.1-1.8-0.2-2.7-1-2.7
		c-1.2,0-1.9,1-2.2,3.1c0,0.1-0.2,1.8-0.5,5.2c-0.3,3.3-0.5,5.1-0.5,5.2l-0.6,4.2c-0.2,0.9,0.4,1.5,1.8,1.7c0.5-0.3,1.1-1.5,1.8-3.3
		c1.4-3,2.4-5.2,3.1-6.5c1.3-2.3,2.3-3.5,3.1-3.8c0.7,0.2,1.1,1.7,1,4.4c-0.1,2-0.4,3.8-0.7,5.7c-0.1,1.2,0,2,0.3,2.4
		c0.3,0.4,1,0.4,2,0c1.2-3,2.4-5.9,3.5-8.6c1.2-2.8,2.6-4.5,4.1-5c0.4,0.3,0.6,0.6,0.6,1c-0.2,3.3-0.4,5.8-0.7,7.5
		c-0.2,1.1-0.3,2.2-0.5,3.3c-0.1,2.1,0.4,3.1,1.4,3.1c0.4,0,0.8-0.3,1.3-0.8c0.5-0.6,0.7-1.3,0.6-2c0-0.1,0-0.3-0.2-0.7
		c-0.1-0.4-0.2-0.6-0.1-0.8l1.1-8.8C237.7,120.2,237.2,118.2,235.7,118z M254.7,120.6c-0.5-1.5-1.4-2.4-2.9-2.9
		c-0.4-0.2-1.1-0.2-1.9-0.2c-2.3,0.1-4.5,1.7-6.6,4.7c-1.4,2.5-2.3,4.7-2.7,6.8c-0.3,2.1-0.1,4,0.7,5.6c1,1.9,2.6,2.8,4.8,2.8
		c0.9,0,2.1-0.3,3.5-0.8c2.2-0.8,3.9-2,5.2-3.6c0.1-0.1,0.1-0.3,0-0.5c-0.1-0.2-0.2-0.4-0.3-0.5h-0.6l-1.4,1c-0.4,0.3-1.2,0.6-2.4,1
		c-1.2,0.4-2,0.6-2.5,0.6c-1.2,0-2.1-0.4-2.9-1.3c-0.8-0.9-1-1.9-0.8-3.1c0-0.3,0.1-0.5,0.2-0.7c0.3-0.1,1.9-0.4,4.7-0.6
		c2.6-0.3,4.2-0.4,4.7-0.4c0.8-0.2,1.3-0.5,1.4-1.1c0.1-0.6,0.2-1,0.2-1.4c0.1-0.3,0-1,0-2.2C255,122.3,254.8,121.3,254.7,120.6z
		 M251.8,125c-0.1,0.1-0.2,0.3-0.3,0.5c-0.1,0.2-0.5,0.3-1.3,0.4c-0.6,0-1.5,0.1-2.8,0.2c-1.3,0.1-2.2,0.2-2.8,0.2
		c0,0,0-0.1-0.1-0.2c0-0.1-0.1-0.2,0-0.3c0.2-1,0.8-2.1,2-3.3c1.2-1.2,2.2-1.8,3.2-1.8c0.9,0,1.5,0.6,1.8,1.8
		C251.9,123.4,252,124.3,251.8,125z M303.5,118.3c-2.6,0-5.7,1.7-9.4,5c-3.5,3.2-5.5,5.9-5.9,8.3c-0.2,1.3-0.1,2.5,0.3,3.5
		c0.6,1.3,1.6,1.9,3.1,1.9c2.1,0,4.9-2,8.4-6c0,1.3,0,2.5,0,3.8c0,1.3,0.4,1.9,1,1.9c0.5,0,0.9-0.3,1.4-0.8c0.4-0.5,0.6-0.9,0.7-1.3
		c0-0.2,0.1-0.8,0.1-1.9c0-0.6,0-1.2,0-1.8c0.5-3.1,0.8-5.2,1.1-6.5c0,0.1,0.1-0.2,0.2-0.7c0.1-0.5,0.3-1,0.3-1.4
		C305.5,119.7,305,118.3,303.5,118.3z M301.4,124.1c-0.1,0.5-0.6,1.4-1.5,2.9c-0.8,1.3-1.3,2.1-1.5,2.3c-2.6,2.8-4.4,4.3-5.4,4.5
		c-0.2,0-0.4,0-0.6,0c-1,0-1.4-0.6-1.2-1.9c0.2-0.9,0.5-1.8,1.2-2.9c0.8-1.4,2.2-3,4.1-4.7c2.2-1.8,3.9-2.8,5.2-2.8
		C301.8,121.5,301.7,122.3,301.4,124.1z M329.6,118c-0.5-0.1-1.3,0.1-2.2,0.4c-1.2,0.5-2.3,1.2-3.3,2.3c-0.4,0.5-1.3,1.5-2.6,3.2
		c0-1.1-0.2-2.2-0.4-3.4c-0.5-1.7-1.3-2.5-2.2-2.5c-1.3,0.1-2.7,1.1-4.2,3c-1.2,1.5-2.1,3-2.9,4.3l0.1-1.1c0.1-1.2,0.2-2.5,0.3-4.1
		c0.1-1.8-0.2-2.7-1-2.7c-1.2,0-1.9,1-2.2,3.1c0,0.1-0.2,1.8-0.5,5.2c-0.3,3.3-0.5,5.1-0.5,5.2l-0.6,4.2c-0.2,0.9,0.4,1.5,1.8,1.7
		c0.5-0.3,1.1-1.5,1.8-3.3c1.4-3,2.4-5.2,3.1-6.5c1.3-2.3,2.3-3.5,3.1-3.8c0.7,0.2,1.1,1.7,1,4.4c-0.1,2-0.4,3.8-0.7,5.7
		c-0.1,1.2,0,2,0.3,2.4c0.3,0.4,1,0.4,2,0c1.2-3,2.4-5.9,3.5-8.6c1.2-2.8,2.6-4.5,4.1-5c0.4,0.3,0.6,0.6,0.6,1
		c-0.2,3.3-0.4,5.8-0.7,7.5c-0.2,1.1-0.3,2.2-0.5,3.3c-0.1,2.1,0.4,3.1,1.4,3.1c0.4,0,0.8-0.3,1.3-0.8c0.5-0.6,0.7-1.3,0.6-2
		c0-0.1,0-0.3-0.2-0.7c-0.1-0.4-0.2-0.6-0.1-0.8l1.1-8.8C331.6,120.2,331.1,118.2,329.6,118z"/>
</g>
<g>
	<path fill-rule="evenodd" clip-rule="evenodd" fill="#DCF1F4" d="M57.2,1.2c31.1,0,56.4,25.1,56.4,56.1c0,31-25.2,56.1-56.4,56.1
		C26,113.4,0.8,88.3,0.8,57.3C0.8,26.3,26,1.2,57.2,1.2z"/>
	<radialGradient id="SVGID_1_" cx="58.4866" cy="93.7033" r="58.5566" gradientUnits="userSpaceOnUse">
		<stop  offset="0" style="stop-color:#259BD5"/>
		<stop  offset="1" style="stop-color:#1A7BA8"/>
	</radialGradient>
	<path fill-rule="evenodd" clip-rule="evenodd" fill="url(#SVGID_1_)" d="M57.4,12.6c27.1,0,49,21.8,49,48.8
		c0,26.9-21.9,48.8-49,48.8c-27.1,0-49-21.8-49-48.8C8.4,34.5,30.3,12.6,57.4,12.6z"/>
	<radialGradient id="SVGID_2_" cx="61.0835" cy="66.6957" r="41.1031" gradientUnits="userSpaceOnUse">
		<stop  offset="0" style="stop-color:#259BD5"/>
		<stop  offset="1" style="stop-color:#259BD5;stop-opacity:0"/>
	</radialGradient>
	<path fill-rule="evenodd" clip-rule="evenodd" fill="url(#SVGID_2_)" d="M57.4,12.6c27.1,0,49,21.8,49,48.8
		c0,26.9-21.9,48.8-49,48.8c-27.1,0-49-21.8-49-48.8C8.4,34.5,30.3,12.6,57.4,12.6z"/>
	<g>
		<defs>
			<path id="SVGID_3_" d="M57.4,12.6c27.1,0,49,21.8,49,48.8c0,26.9-21.9,48.8-49,48.8c-27.1,0-49-21.8-49-48.8
				C8.4,34.5,30.3,12.6,57.4,12.6z"/>
		</defs>
		<clipPath id="SVGID_4_">
			<use xlink:href="#SVGID_3_"  overflow="visible"/>
		</clipPath>
		<linearGradient id="SVGID_5_" gradientUnits="userSpaceOnUse" x1="12.6783" y1="61.8204" x2="82.8816" y2="61.8204">
			<stop  offset="0.4134" style="stop-color:#259BD5"/>
			<stop  offset="0.4506" style="stop-color:#259BD5;stop-opacity:0.9104"/>
			<stop  offset="0.8288" style="stop-color:#259BD5;stop-opacity:0"/>
		</linearGradient>
		
			<path clip-path="url(#SVGID_4_)" fill-rule="evenodd" clip-rule="evenodd" fill="url(#SVGID_5_)" filter="url(#AI_GaussianBlur_4)" d="
			M41.2,23.3C58,23.2,66.8,35.6,71,49.5c2.4,8.3,2.1,20.3-0.8,27.8c-3.6,9.4-9.3,17-17.8,20.9c-2.6,1.2-5.3,1.3-8.4,2
			c-0.8,0.2-2.2,0-2.8-0.2c-1.5-0.4-2.6,0.1-4-0.3c-2.6-0.8-5-2.1-7.2-3.2c-2.2-1.1-3.3-2.4-5.1-3.9c-6.3-5.2-9.5-13-11.8-22.6
			c-1.3-5.5-0.7-15.4,0.8-20.1c3.4-10.6,8.7-19.8,17.8-24.1c1.7-0.8,3.7-1.5,5.5-2C38.2,23.5,40.4,23.9,41.2,23.3z"/>
	</g>
	<linearGradient id="SVGID_6_" gradientUnits="userSpaceOnUse" x1="58.2342" y1="63.8188" x2="58.2342" y2="113.3539">
		<stop  offset="0" style="stop-color:#228FC1"/>
		<stop  offset="8.142835e-02" style="stop-color:#5A9ECA"/>
		<stop  offset="0.191" style="stop-color:#85B2D5"/>
		<stop  offset="0.3058" style="stop-color:#A8C6E0"/>
		<stop  offset="0.4244" style="stop-color:#C6D8EA"/>
		<stop  offset="0.548" style="stop-color:#DDE7F2"/>
		<stop  offset="0.679" style="stop-color:#EEF2F8"/>
		<stop  offset="0.822" style="stop-color:#FAFBFD"/>
		<stop  offset="1" style="stop-color:#FFFFFF"/>
	</linearGradient>
	<path opacity="0.56" fill-rule="evenodd" clip-rule="evenodd" fill="url(#SVGID_6_)" d="M20.5,55.4c0,0,11,9,38.1,9s37.3-9,37.3-9
		s-7.7,31.9-38.1,31.9C27.4,87.3,20.5,55.4,20.5,55.4z"/>
	<linearGradient id="SVGID_7_" gradientUnits="userSpaceOnUse" x1="58.2858" y1="55.7881" x2="58.2858" y2="91.1757">
		<stop  offset="0" style="stop-color:#17446C"/>
		<stop  offset="5.981439e-02" style="stop-color:#385478"/>
		<stop  offset="0.1574" style="stop-color:#606E8D"/>
		<stop  offset="0.2596" style="stop-color:#828AA4"/>
		<stop  offset="0.3647" style="stop-color:#A1A6BA"/>
		<stop  offset="0.4733" style="stop-color:#BEC1CF"/>
		<stop  offset="0.5865" style="stop-color:#D7D8E0"/>
		<stop  offset="0.7062" style="stop-color:#EBEAEE"/>
		<stop  offset="0.8371" style="stop-color:#F8F8FA"/>
		<stop  offset="1" style="stop-color:#FFFFFF"/>
	</linearGradient>
	<path opacity="0.13" fill="url(#SVGID_7_)" d="M95.3,57.4L95.3,57.4 M95.3,57.4c0,0-7.5,31.3-37.4,31.3
		c-29.9,0-36.6-31.3-36.6-31.3s10,25.4,36.6,25.4C84.5,82.8,95.3,57.4,95.3,57.4 M21.3,55.3c-0.2,0-0.4,0-0.6,0.1
		c-1,0.3-1.7,1.4-1.4,2.4c0.1,0.3,1.8,8.3,7.4,16.4C34.2,85,45,90.7,57.9,90.7c12.9,0,23.8-5.7,31.6-16.5c5.5-7.7,7.6-15.3,7.8-16.3
		c0.1-0.2,0.1-0.4,0.1-0.6c0-1.1-0.8-2-1.9-2.1c-0.1,0-0.1,0-0.2,0c-0.1,0-0.2,0-0.3,0c-0.3,0-0.6,0.2-0.9,0.4
		c-0.2,0.2-0.4,0.3-0.6,0.6c-0.1,0.1-0.1,0.2-0.2,0.3c-0.2,0.5-2.9,6.4-8.4,12.2c-7.6,7.9-16.7,12-27.1,12c-10.4,0-19.4-4-26.7-12
		c-5.5-6-7.9-12-7.9-12.1C22.9,55.8,22.1,55.3,21.3,55.3L21.3,55.3z"/>
	<path fill="#FFFFFF" d="M57.9,88.7c-29.9,0-36.6-31.3-36.6-31.3s10,25.4,36.6,25.4c26.6,0,37.4-25.4,37.4-25.4S87.8,88.7,57.9,88.7
		z"/>
	
		<radialGradient id="SVGID_8_" cx="-79.8936" cy="-184.6505" r="15.9674" gradientTransform="matrix(1.3017 0.6628 -0.2642 0.5189 127.9575 176.248)" gradientUnits="userSpaceOnUse">
		<stop  offset="0.3432" style="stop-color:#FFFFFF"/>
		<stop  offset="0.9859" style="stop-color:#FFFFFF;stop-opacity:0"/>
	</radialGradient>
	<path opacity="0.17" fill-rule="evenodd" clip-rule="evenodd" fill="url(#SVGID_8_)" d="M93.5,38.1c-4.7,9.2-17.7,11.8-29.2,6
		S47.3,26,52,16.9s17.7-11.8,29.2-6S98.2,28.9,93.5,38.1z"/>
</g>
</svg>
