<svg xmlns="http://www.w3.org/2000/svg" width="200" height="200" viewBox="0, 0, 200, 200"><path fill="none" d="M0 0h200v200H0z"/><path d="M69.048 71.572c1.786.19 3.353.96 4.644 2.182 2.968 2.95 2.968 7.742 0 10.695-1.283 1.277-2.915 2-4.592 2.173-1.085.196-2.132.668-3.033 1.422-1.634 1.38-2.47 3.39-2.294 5.36.154 1.7.2 3.728.054 5.588-.19 2.45.65 4.955 2.53 6.832 1.36 1.35 3.05 2.217 4.826 2.437 2.162.273 4.25 1.234 5.91 2.89 3.976 3.953 3.976 10.37 0 14.328-3.975 3.957-10.424 3.957-14.402 0-1.72-1.715-2.697-3.89-2.924-6.124-.265-1.448-.9-2.845-1.92-4.048-1.854-2.178-4.56-3.295-7.213-3.056-3.78.335-7.66-.797-10.722-3.39-1.062-.885-3.188-.78-4.46-.174-.92.436-1.652 1.123-2.077 1.965-.52 1.027-1.37 1.895-2.494 2.427-2.686 1.276-5.904.143-7.188-2.533-.256-.61-.353-.77-.473-1.544-.048-.3-.03-.61-.043-.914v-.17c.168-2.022 1.293-3.577 3.057-4.528 1.165-.553 2.43-.65 3.59-.37.775.122 1.586.054 2.37-.24 1.36-.514 2.897-1.245 2.71-3.24-.5-4.246.987-8.565 4.14-11.943 1.222-1.31.816-2.28.346-3.093-.34-.588-.843-1.04-1.43-1.278-.716-.293-1.344-.81-1.758-1.532-1.002-1.718-.41-3.922 1.32-4.916 1.728-.997 3.94-.407 4.94 1.314.433.745.565 1.58.437 2.37-.04.52.046 1.057.285 1.563.436.916 1.09 1.685 3.086 1.493 3.643-.35 4.15-.386 7.563.083 1.825.25 3.716-.482 5.123-1.88 1.012-1.01 1.66-2.266 1.828-3.583.205-1.607.923-3.157 2.165-4.39 1.245-1.232 2.89-2.013 4.642-2.18.483-.047.97 0 1.456 0zm-18.992 16.35c-3.007-.195-5.69.758-7.863 2.823-3.824 3.824-3.824 10.027 0 13.85 3.82 3.824 10.024 3.824 13.85 0 3.822-3.824 3.822-10.026 0-13.85-1.27-1.23-2.852-2.205-4.595-2.587-.46-.1-.928-.157-1.392-.235z" fill="#EDA02F"/><path d="M86.055 90.26H75.953c-1.203 0-2.242.437-3.11 1.305-.87.873-1.305 1.923-1.305 3.148v5.908c0 1.228.435 2.28 1.304 3.15.87.87 1.908 1.306 3.11 1.306h8.217v-2.083h-6.19c-.536 0-1.127-.184-1.493-.552-.367-.368-.552-.82-.552-1.358v-6.828c0-.534.185-.988.552-1.358.366-.37.816-.553 1.35-.553h6.366c.512 0 .95.184 1.318.553.368.37.55.824.55 1.358v10.822h4.4V94.713c0-1.225-.43-2.275-1.288-3.148-.858-.868-1.9-1.305-3.127-1.305M128.907 90.26h-10.102c-1.204 0-2.24.437-3.11 1.305-.87.873-1.305 1.923-1.305 3.148v5.908c0 1.228.434 2.28 1.305 3.15.87.87 1.906 1.306 3.11 1.306h8.216v-2.083h-6.332c-.533 0-.983-.184-1.35-.552-.366-.368-.55-.82-.55-1.358v-6.828c0-.534.184-.988.55-1.358.367-.37.817-.553 1.35-.553h6.37c.51 0 .95.184 1.314.553.367.37.55.824.55 1.358v10.822h4.4V94.713c0-1.225-.432-2.275-1.288-3.148-.86-.868-1.902-1.305-3.127-1.305M169.438 100.722h-1.34c-.428 0-.786.15-1.075.45-.293.3-.437.66-.437 1.082v1.287c0 .424.144.785.437 1.083.29.302.647.45 1.076.45h1.338c.425 0 .788-.148 1.09-.45.303-.298.455-.66.455-1.082v-1.286c0-.42-.152-.78-.456-1.082-.3-.3-.664-.45-1.09-.45M169.438 85.32h-1.403c-.426 0-.784.15-1.075.45-.29.303-.374.664-.374 1.085v11c0 .422.144.782.437 1.083.29.3.647.45 1.076.45h1.338c.425 0 .788-.15 1.09-.45.303-.3.455-.66.455-1.083v-11c0-.42-.152-.782-.456-1.084-.3-.3-.663-.45-1.09-.45M110.13 90.26l-6.8 9.718-1.12 1.604c-.845 1.33-1.752 1.995-2.726 1.995-.52 0-.956-.19-1.313-.566-.358-.376-.534-.817-.534-1.328v-6.97h-.002v-2.92c0-.42-.15-.78-.454-1.082-.3-.3-.664-.45-1.09-.45h-1.34c-.426 0-.784.15-1.074.45-.292.3-.437.66-.437 1.083v8.86c0 1.22.433 2.262 1.296 3.126.866.864 1.895 1.296 3.092 1.296h2.293c1.64 0 2.75-.1 3.326-.305 1.172-.405 2.302-1.42 3.39-3.05l7.944-11.46h-4.45M162.56 102.994c-.536 0-.984-.184-1.352-.553-.368-.368-.548-.82-.548-1.358v-6.844c0-.51.128-.95.495-1.33.37-.378.81-.57 1.327-.57h1.85V90.26h-3.728c-1.71 0-2.943 1.026-3.512 1.615.065-.125.14-.257.23-.39 0 0 1.257-2.045 3.338-2.31v-1.308h-.004v-1.012c0-.42-.15-.782-.453-1.084-.303-.3-.667-.45-1.09-.45h-1.404c-.43 0-.785.15-1.076.45-.292.303-.373.664-.373 1.085v14.156h.018c.083 1.062.51 1.984 1.286 2.76.87.87 1.908 1.306 3.112 1.306h4.13v-2.082h-2.247M139.983 90.288c-1.248 0-2.297.385-3.142 1.157-.846.774-1.267 1.756-1.267 2.948 0 1.17.414 2.512 1.25 3.274.834.76 1.89 1.142 3.157 1.142h7.774c.533 0 .983.178 1.35.545.366.365.548.814.548 1.345v.47c0 .505-.182.942-.548 1.308-.37.366-.82.546-1.353.546h-5.885c-.535 0-.985-.19-1.353-.558-.368-.37-.548-.823-.548-1.358v-.464h-4.4c0 1.23.433 2.28 1.303 3.152.87.87 1.91 1.28 3.112 1.28h9.66c1.248 0 2.3-.385 3.143-1.16.85-.772 1.27-1.755 1.27-2.947 0-1.17-.417-2.317-1.252-3.08-.834-.76-1.884-1.14-3.156-1.14h-7.774c-.532 0-.98-.182-1.35-.546-.365-.366-.547-.814-.547-1.344v-.665c0-.507.182-.946.55-1.31.366-.366.815-.548 1.35-.548h5.878c.536 0 .986.164 1.354.534.366.37.548.822.548 1.36v.46h4.4c0-1.23-.43-2.28-1.302-3.152-.87-.868-1.91-1.278-3.114-1.278l-9.653.028M174.33 84.605h-.253v-.675c.056-.013.153-.028.295-.028.336 0 .492.143.492.36 0 .242-.24.343-.535.343m.63.172v-.03c.268-.085.477-.27.477-.558 0-.23-.1-.402-.238-.503-.156-.114-.353-.188-.784-.188-.38 0-.675.044-.886.073v2.353h.534v-.933h.252c.293 0 .435.114.477.36.07.285.11.487.184.573h.558c-.04-.086-.098-.215-.166-.574-.073-.316-.187-.503-.41-.575" fill="#43545A"/><path d="M174.442 86.585c-1.025 0-1.795-.832-1.795-1.88 0-1.034.77-1.88 1.77-1.88h.012c1.007 0 1.766.846 1.766 1.895 0 1.033-.76 1.88-1.754 1.865m.002-4.273h-.015c-1.342 0-2.412 1.05-2.412 2.392 0 1.344 1.07 2.408 2.41 2.408 1.342 0 2.395-1.064 2.395-2.408 0-1.34-1.053-2.392-2.38-2.392M49.114 91.582c-3.366 0-6.097 2.73-6.097 6.097 0 2.36 1.343 4.407 3.308 5.42.44.247.946.387 1.485.387 1.587 0 2.89-1.21 3.037-2.76h-1.733c-1.684 0-3.05-1.365-3.05-3.048 0-1.686 1.366-3.05 3.05-3.05 1.685 0 3.05 1.364 3.05 3.05v5.197c1.684 0 3.048-1.364 3.048-3.047v-2.15c0-3.37-2.73-6.098-6.098-6.098M128.617 120.774c.18.3.38.45.6.45.405 0 .848-.185 1.338-.554.49-.37.914-.89 1.275-1.56.36-.67.54-1.226.54-1.67 0-.424-.066-.636-.197-.636-.68 0-1.442.498-2.288 1.49-.845.992-1.268 1.82-1.268 2.48m-.757-4.547c.415-2.454.714-3.908.895-4.36.183-.453.5-.68.95-.68.35 0 .525.31.525.93 0 .42-.175 1.3-.525 2.632-.18.657-.405 1.65-.665 2.984.53-.705 1.107-1.277 1.733-1.71.625-.436 1.183-.655 1.675-.655.4 0 .735.17 1 .516.27.342.403.75.403 1.212 0 1.317-.504 2.553-1.514 3.71s-2.083 1.736-3.22 1.736c-.34 0-.66-.092-.954-.278-.294-.187-.46-.425-.5-.716-.016-.156-.048-.262-.096-.314-.047-.05-.095-.106-.145-.165-.125-.13-.186-.306-.186-.537 0-.267.065-.816.2-1.653l.426-2.653M136.265 119.11c.675-.135 1.27-.425 1.784-.865.514-.438.77-.837.77-1.197 0-.14-.037-.26-.117-.355-.08-.097-.182-.144-.305-.144-.37 0-.783.27-1.235.818-.454.548-.752 1.128-.898 1.74m4.3 1.134c0 .445-.375.977-1.123 1.594-.747.616-1.59.925-2.53.925-.72 0-1.288-.227-1.704-.68-.413-.455-.622-1.09-.622-1.9 0-1.196.425-2.317 1.27-3.363.845-1.046 1.748-1.57 2.71-1.57.477 0 .862.153 1.152.454.29.305.435.666.435 1.086 0 .743-.357 1.45-1.07 2.122-.712.674-1.627 1.137-2.742 1.393-.126.03-.19.11-.19.23 0 .207.09.403.273.588.18.186.423.28.726.28.858 0 1.71-.444 2.555-1.325.163-.172.32-.258.474-.258.255 0 .384.144.384.427M148.627 119.188l-.108 1.145c-.036.367-.05.73-.05 1.09 0 .324.028.7.088 1.127-.043.15-.15.277-.32.384-.172.107-.35.16-.54.16-.585 0-.876-.37-.876-1.114 0-.33.09-1.116.275-2.357.127-.892.19-1.556.19-1.993 0-.024-.023-.055-.074-.09-.296-.185-.442-.366-.442-.537 0-.223.165-.464.494-.724.156-.125.254-.27.29-.434.036-.164.09-.424.158-.777.23-1.363.59-2.332 1.073-2.906.484-.576 1.1-.862 1.847-.862.436 0 .805.142 1.105.426.302.283.452.636.452 1.055 0 .375-.09.764-.26 1.168-.174.404-.402.607-.684.607-.123 0-.227-.04-.312-.12-.086-.08-.13-.182-.13-.31l.04-.56c0-.665-.14-.995-.417-.995-.344 0-.67.434-.97 1.302-.302.87-.45 1.61-.45 2.22 0 .063.038.096.12.096.883 0 1.508-.005 1.874-.013.366-.008.55.132.55.422 0 .282-.222.49-.664.623-.44.137-.906.203-1.393.203-.33.03-.543.058-.64.082-.104.633-.178 1.19-.226 1.673v.008M153.335 119.27l.11-.206c.516-1.036 1.073-1.88 1.67-2.525.594-.648 1.176-.972 1.744-.972.433 0 .79.12 1.065.36.276.238.413.523.413.85 0 .206-.047.383-.14.53-.094.147-.225.22-.39.22-.266 0-.507-.11-.725-.327-.155-.14-.276-.21-.366-.21-.32 0-.856.497-1.606 1.492-.752.996-1.205 2.115-1.357 3.356-.047.36-.152.61-.315.755-.163.14-.383.214-.66.214-.296 0-.503-.17-.63-.505-.12-.334-.183-.882-.183-1.642 0-.312.008-.733.025-1.262.017-.5.068-1.11.148-1.832.02-.188.038-.334.044-.442.04-.418.082-.707.13-.86.05-.156.165-.302.344-.44.18-.137.38-.205.597-.205.23 0 .405.067.524.198.12.133.18.277.18.435 0 .202-.095.617-.29 1.25-.066.217-.123.477-.17.78l-.162.988M159.888 119.11c.675-.135 1.27-.425 1.784-.865.515-.438.772-.837.772-1.197 0-.14-.04-.26-.118-.355-.08-.097-.18-.144-.304-.144-.372 0-.783.27-1.236.818-.454.548-.752 1.128-.898 1.74m4.3 1.134c0 .445-.374.977-1.123 1.594-.747.616-1.59.925-2.53.925-.72 0-1.29-.227-1.704-.68-.412-.455-.62-1.09-.62-1.9 0-1.196.424-2.317 1.27-3.363.844-1.046 1.748-1.57 2.708-1.57.477 0 .863.153 1.153.454.29.305.436.666.436 1.086 0 .743-.357 1.45-1.07 2.122-.712.674-1.627 1.137-2.742 1.393-.127.03-.19.11-.19.23 0 .207.09.403.272.588.18.186.423.28.726.28.858 0 1.71-.444 2.556-1.325.163-.172.32-.258.474-.258.257 0 .385.144.385.427M166.684 119.11c.675-.135 1.27-.425 1.784-.865.515-.438.77-.837.77-1.197 0-.14-.037-.26-.116-.355-.08-.097-.182-.144-.305-.144-.37 0-.783.27-1.236.818-.453.548-.75 1.128-.896 1.74m4.297 1.134c0 .445-.372.977-1.118 1.594-.748.616-1.593.925-2.53.925-.722 0-1.29-.227-1.704-.68-.416-.455-.622-1.09-.622-1.9 0-1.196.422-2.317 1.268-3.363.846-1.046 1.75-1.57 2.71-1.57.477 0 .862.153 1.152.454.29.305.437.666.437 1.086 0 .743-.358 1.45-1.07 2.122-.712.674-1.63 1.137-2.742 1.393-.127.03-.19.11-.19.23 0 .207.09.403.27.588.183.186.425.28.728.28.86 0 1.71-.444 2.556-1.325.163-.172.32-.258.475-.258.254 0 .38.144.38.427" fill="#43545A"/></svg>