<svg xmlns="http://www.w3.org/2000/svg" width="200" height="200" viewBox="0, 0, 200, 200"><path fill="none" d="M0 0h200v200H0z"/><g fill="#083566"><path d="M116.656 86.032H128.007c2.824 0 2.788 1.54 2.764 3.774-.025 2.092-.346 5.187-1.252 9.436-.886 4.173-1.797 7.248-2.674 9.432-.655 1.637-1.285 2.764-1.826 3.497-.835 1.102-1.31 1.333-1.848 1.54-.545.197-1.383.268-2.66.258H72.536c-2.76 0-3.33-.643-3.33-2.618 0-1.25.206-3.07.715-5.456.543-2.562.903-3.146 1.55-4.507 1-2.055 1.876-2.81 2.687-3.263.82-.446 1.884-.643 3.438-.643H92.49l1.553-7.31H77.595c-1.412 0-2.94.106-4.527.554-1.188.34-2.403.88-3.533 1.675-1.7 1.19-3.148 2.914-4.293 5.096-1.15 2.194-1.762 3.535-2.476 6.876-.575 2.715-.87 4.975-.874 6.978.005 1.668.207 3.183.752 4.598.407 1.054 1.035 2.04 1.84 2.82 1.206 1.188 2.692 1.82 4.048 2.132 1.37.317 2.688.378 4.003.383 6.187-.003 41.696-.003 47.978 0 1.215-.008 2.7-.003 4.395-.46 1.262-.34 2.603-.98 3.8-1.963 1.808-1.485 3.247-3.597 4.51-6.475 1.267-2.89 2.387-6.618 3.456-11.627.967-4.567 1.407-8.088 1.41-10.952-.003-2.087-.232-3.845-.777-5.415-.41-1.173-1.023-2.244-1.834-3.106-1.215-1.313-2.79-1.997-4.095-2.277-1.325-.29-2.462-.282-3.37-.287h-17.273l-6.62 31.123h7.474l5.066-23.81"/><path d="M145.96 78.264c-1.144-2.318-2.695-4.178-4.428-5.558-2.61-2.082-5.542-3.083-8.184-3.582-2.647-.497-5.077-.514-6.84-.517H102.77L94 109.843h7.477l7.215-33.923h17.816c1.488 0 3.187.026 4.86.285 1.254.19 2.48.508 3.575.995 1.646.75 2.997 1.788 4.107 3.646 1.094 1.865 1.95 4.716 1.953 9.138 0 2.576-.294 5.668-.99 9.335-1.255 6.627-2.808 11.495-4.48 14.987-1.253 2.622-2.56 4.468-3.85 5.787-1.946 1.963-3.838 2.86-6.066 3.407-2.22.532-4.785.588-7.595.58H71.184c-3.083.008-6.217-.828-8.372-2.615-1.093-.898-2-2.026-2.68-3.582-.68-1.553-1.133-3.567-1.133-6.21 0-1.69.184-3.63.618-5.835.923-4.71 1.872-6.97 3.233-9.662 2.06-4.042 4.31-6.068 6.578-7.27 2.274-1.187 4.743-1.55 7.288-1.55H94.64l1.555-7.312h-19.48c-2.147 0-4.523.2-6.978.906-3.68 1.04-7.5 3.334-10.565 7.356-3.083 4.018-5.194 8.303-6.73 16.124-.51 2.608-.755 5.014-.757 7.242 0 3.48.606 6.535 1.746 9.14 1.695 3.92 4.622 6.697 7.83 8.323 3.22 1.644 6.69 2.255 9.924 2.258h46.838c2.537-.003 5.296-.01 8.187-.548 2.163-.402 4.408-1.125 6.568-2.39 3.253-1.896 6.187-4.974 8.573-9.45 2.397-4.484 4.338-10.382 5.848-18.324.762-4.03 1.117-7.565 1.117-10.696.003-4.758-.823-8.62-2.354-11.72"/><path d="M99.222 68.607h-32.18l-1.556 7.313h25.046c7.687 0 8.69-7.313 8.69-7.313"/></g></svg>