<svg xmlns="http://www.w3.org/2000/svg" width="1920" height="1080"><path fill="#FFF" d="M0 0h1920v1080H0z"/><path d="M0 0h1920v1080H0z"/><path d="M0 0h1920v1080H0z" fill="#FBF9E9"/><path d="M73.114 384.461h1773.772" stroke="#000" stroke-width="2" stroke-dasharray="4,4" fill="none" opacity=".27"/><path d="M73.114 677.109h1773.772M73.114 96.859h1773.772M73.114 971.758h1773.772" stroke="#000" stroke-width="2" stroke-dasharray="4,4" fill="none" opacity=".267"/><text transform="translate(136.849 235)"><tspan x="-42.849" y="9" font-family="Foro Light, Georgia, serif" font-size="27" fill="#8A847A">Desi</tspan> <tspan x="11.691" y="9" font-family="Foro Light, Georgia, serif" font-size="27" fill="#8A847A">g</tspan> <tspan x="25.758" y="9" font-family="Foro Light, Georgia, serif" font-size="27" fill="#8A847A">n</tspan></text><text transform="translate(150.429 537)"><tspan x="-57.429" y="9" font-family="Foro Light, Georgia, serif" font-size="27" fill="#8A847A">F</tspan> <tspan x="-43.025" y="9" font-family="Foro Light, Georgia, serif" font-size="27" fill="#8A847A">r</tspan> <tspan x="-32.103" y="9" font-family="Foro Light, Georgia, serif" font-size="27" fill="#8A847A">onten</tspan> <tspan x="41.175" y="9" font-family="Foro Light, Georgia, serif" font-size="27" fill="#8A847A">d</tspan></text><text transform="translate(150.054 839)"><tspan x="-54.054" y="9" font-family="Foro Light, Georgia, serif" font-size="27" fill="#8A847A">Ba</tspan> <tspan x="-21.411" y="9" font-family="Foro Light, Georgia, serif" font-size="27" fill="#8A847A">c</tspan> <tspan x="-8.343" y="9" font-family="Foro Light, Georgia, serif" font-size="27" fill="#8A847A">k</tspan> <tspan x="6.588" y="9" font-family="Foro Light, Georgia, serif" font-size="27" fill="#8A847A">en</tspan> <tspan x="37.8" y="9" font-family="Foro Light, Georgia, serif" font-size="27" fill="#8A847A">d</tspan></text><path d="M1399.543 331.074h309.805v429.852h-309.805zm0 0" fill="#53842D"/><path d="M1715.896 187.871h127.554v500.18h-127.554zm0 0" fill="#679D35"/><text transform="translate(745.341 480)"><tspan x="-10.341" y="9" font-family="Foro-ExtraBold" font-size="27" fill="#48440E">V</tspan></text><text transform="translate(763.661 480)"><tspan x="-8.248" y="9" font-family="Foro-ExtraBold" font-size="27" fill="#48440E">ý</tspan></text><text transform="translate(801.015 480)"><tspan x="-28.863" y="9" font-family="Foro-ExtraBold" font-size="27" fill="#48440E">v</tspan> <tspan x="-12.785" y="9" font-family="Foro-ExtraBold" font-size="27" fill="#48440E">o</tspan> <tspan x="3.82" y="9" font-family="Foro-ExtraBold" font-size="27" fill="#48440E">j</tspan> <tspan x="12.663" y="9" font-family="Foro-ExtraBold" font-size="27" fill="#48440E">á</tspan></text><text transform="translate(836.115 480)"><tspan x="-6.318" y="9" font-family="Foro-ExtraBold" font-size="27" fill="#48440E">ř</tspan></text><text transform="translate(1553.979 263)"><tspan x="-60.979" y="9" font-family="Foro-ExtraBold" font-size="27" fill="#53832C">F</tspan> <tspan x="-45.198" y="9" font-family="Foro-ExtraBold" font-size="27" fill="#53832C">r</tspan> <tspan x="-33.831" y="9" font-family="Foro-ExtraBold" font-size="27" fill="#53832C">on</tspan> <tspan x=".837" y="9" font-family="Foro-ExtraBold" font-size="27" fill="#53832C">t</tspan> <tspan x="11.232" y="9" font-family="Foro-ExtraBold" font-size="27" fill="#53832C">e</tspan> <tspan x="26.46" y="9" font-family="Foro-ExtraBold" font-size="27" fill="#53832C">n</tspan> <tspan x="43.916" y="9" font-family="Foro-ExtraBold" font-size="27" fill="#53832C">d</tspan></text><text transform="translate(1553.772 291)"><tspan x="-38.772" y="9" font-family="Foro-ExtraBold" font-size="27" fill="#53832C">k</tspan> <tspan x="-22.437" y="9" font-family="Foro-ExtraBold" font-size="27" fill="#53832C">o</tspan> <tspan x="-5.832" y="9" font-family="Foro-ExtraBold" font-size="27" fill="#53832C">d</tspan> <tspan x="10.908" y="9" font-family="Foro-ExtraBold" font-size="27" fill="#53832C">é</tspan> <tspan x="26.136" y="9" font-family="Foro-ExtraBold" font-size="27" fill="#53832C">r</tspan></text><text transform="translate(1778.979 127)"><tspan x="-60.979" y="9" font-family="Foro-ExtraBold" font-size="27" fill="#669D36">F</tspan> <tspan x="-45.198" y="9" font-family="Foro-ExtraBold" font-size="27" fill="#669D36">r</tspan> <tspan x="-33.831" y="9" font-family="Foro-ExtraBold" font-size="27" fill="#669D36">on</tspan> <tspan x=".837" y="9" font-family="Foro-ExtraBold" font-size="27" fill="#669D36">t</tspan> <tspan x="11.232" y="9" font-family="Foro-ExtraBold" font-size="27" fill="#669D36">e</tspan> <tspan x="26.46" y="9" font-family="Foro-ExtraBold" font-size="27" fill="#669D36">n</tspan> <tspan x="43.916" y="9" font-family="Foro-ExtraBold" font-size="27" fill="#669D36">d</tspan></text><text transform="translate(1779.313 155)"><tspan x="-58.313" y="9" font-family="Foro-ExtraBold" font-size="27" fill="#669D36">d</tspan> <tspan x="-41.573" y="9" font-family="Foro-ExtraBold" font-size="27" fill="#669D36">esi</tspan> <tspan x="-2.288" y="9" font-family="Foro-ExtraBold" font-size="27" fill="#669D36">g</tspan> <tspan x="13.318" y="9" font-family="Foro-ExtraBold" font-size="27" fill="#669D36">n</tspan> <tspan x="30.449" y="9" font-family="Foro-ExtraBold" font-size="27" fill="#669D36">é</tspan> <tspan x="45.677" y="9" font-family="Foro-ExtraBold" font-size="27" fill="#669D36">r</tspan></text><path d="M300.114 534.152H622.95v437.469H300.114zm0 0" fill="#48440E"/><text transform="translate(461.707 753)"><tspan x="-63.707" y="9" font-family="Foro Light, Georgia, serif" font-size="27" fill="#FFF">J</tspan> <tspan x="-52.907" y="9" font-family="Foro Light, Georgia, serif" font-size="27" fill="#FFF">a</tspan> <tspan x="-37.476" y="9" font-family="Foro Light, Georgia, serif" font-size="27" fill="#FFF">v</tspan> <tspan x="-22.451" y="9" font-family="Foro Light, Georgia, serif" font-size="27" fill="#FFF">a</tspan> <tspan x="-7.411" y="9" font-family="Foro Light, Georgia, serif" font-size="27" fill="#FFF">s</tspan> <tspan x="5.062" y="9" font-family="Foro Light, Georgia, serif" font-size="27" fill="#FFF">c</tspan> <tspan x="18.535" y="9" font-family="Foro Light, Georgia, serif" font-size="27" fill="#FFF">r</tspan> <tspan x="29.875" y="9" font-family="Foro Light, Georgia, serif" font-size="27" fill="#FFF">ip</tspan> <tspan x="54.311" y="9" font-family="Foro Light, Georgia, serif" font-size="27" fill="#FFF">t</tspan></text><path d="M627.176 534.152h322.836v437.469H627.176zm0 0" fill="#48440E"/><text transform="translate(788.365 753)"><tspan x="-27.365" y="9" font-family="Foro Light, Georgia, serif" font-size="27" fill="#FFF">PH</tspan> <tspan x="10.436" y="9" font-family="Foro Light, Georgia, serif" font-size="27" fill="#FFF">P</tspan></text><path d="M955.176 534.152h151.38v437.469h-151.38zm0 0" fill="#48440E"/><text transform="translate(1031.147 753)"><tspan x="-28.147" y="9" font-family="Foro Light, Georgia, serif" font-size="27" fill="#FFF">J</tspan> <tspan x="-17.347" y="9" font-family="Foro Light, Georgia, serif" font-size="27" fill="#FFF">a</tspan> <tspan x="-2.039" y="9" font-family="Foro Light, Georgia, serif" font-size="27" fill="#FFF">v</tspan> <tspan x="13.108" y="9" font-family="Foro Light, Georgia, serif" font-size="27" fill="#FFF">a</tspan></text><path d="M1111.72 534.152h151.38v437.469h-151.38zm0 0" fill="#48440E"/><text transform="translate(1187.193 753)"><tspan x="-30.193" y="9" font-family="Foro Light, Georgia, serif" font-size="27" fill="#FFF">.N</tspan> <tspan x="-4.408" y="9" font-family="Foro Light, Georgia, serif" font-size="27" fill="#FFF">E</tspan> <tspan x="11.941" y="9" font-family="Foro Light, Georgia, serif" font-size="27" fill="#FFF">T</tspan></text><path d="M1269.896 534.152h126.115v437.469h-126.115zm0 0" fill="#48440E"/><text transform="translate(1333.031 753)"><tspan x="-23.031" y="9" font-family="Foro Light, Georgia, serif" font-size="27" fill="#FFF">at</tspan> <tspan x="1.404" y="9" font-family="Foro Light, Georgia, serif" font-size="27" fill="#FFF">d</tspan> <tspan x="17.928" y="9" font-family="Foro Light, Georgia, serif" font-size="27" fill="#FFF">.</tspan></text></svg>