<svg xmlns="http://www.w3.org/2000/svg" xmlns:xlink="http://www.w3.org/1999/xlink" width="680" height="250"><path fill="#2C6214" stroke="#2C6214" stroke-width="1.51" d="M0 0h680v250H0z"/><path fill="#FFF" d="M413.887 223.149c-.371-4.139-.749-6.207-2.634-7.338-8.468.754-7.337-4.514-11.29-1.879-.939-3.015.19-3.765-1.507-4.332-.75-.378-3.95 1.129-5.079-.378-3.387-4.698-7.902 0-7.902 3.954 0 2.447-15.998-.561-15.998-.561-3.012 0-7.15-2.262-9.03-7.154-.567-1.693-4.33-1.88-4.33-1.88-3.574-6.965-3.952 1.69-8.281-.188-4.893-2.073-.94-2.263-7.151-4.144-1.505-.372-3.574-.941-4.52-3.007-.561-.942-2.821.559-5.079-2.447-1.318-1.693-4.14-.943-4.893-1.507-1.13 1.507-2.823 1.694-2.071 3.012-3.763 0-5.646 1.881-5.081-2.824.377-2.066-3.389-1.503-7.717-3.196-.75-.379-3.951 2.632-2.635 6.021.568.942 2.074 2.447 0 5.27-2.444 3.012 1.508 10.728-1.689 9.03-6.965-3.762-6.779-2.255-7.906.754-.188 4.327-4.89 2.449-4.89 6.588 0 4.516.939 6.775-1.32 6.775-3.39-.568-1.131-2.823-3.768-2.444-2.443.185 0-3.201-3.384-.566-1.506 1.125-2.823-3.765-4.895-2.822-2.067.938 0 2.068-1.503 3.947-3.766 0-4.895 5.646-8.094 2.448-3.385-3.386-9.972-3.764-12.233-4.515-2.821-.943-2.821-2.823 0-4.708 1.131-.75-1.315-2.635-3.012-3.198-3.573-1.505-7.148-3.575-8.464-5.08-1.881-2.443-2.258-3.011-3.389-7.152-.942-3.384-6.772.189-6.772-4.891 0-7.152-4.897-5.271-5.834-5.456-.381 1.504.564 4.89-2.826 2.632-5.834-4.89 1.506-5.834-3.761-8.847-3.765-2.255-.567-6.207-7.34-5.268-1.505.19-7.717-11.104-11.481-16.56-4.14-6.399-5.833 0-10.159-2.824-1.13-2.637-1.694-4.895-1.694-4.895.187-3.575-4.141-1.881-4.329-4.323-.941-3.202-.566-1.131-.379-4.332.942-2.633-2.445.377-2.445-3.95.938-6.401-4.519-3.578-3.014-9.6 0 0-3.76-2.443-5.267-6.397 0-1.881 4.518-2.635 3.95-5.269-.565-2.446 3.391-3.952 3.952-6.21.945-3.769-3.385-2.069-3.008-4.518 2.821-5.079-2.45-1.88-4.705-6.022-3.391-2.444-5.458-2.067-5.268-4.889-5.458-4.517-1.133-7.151-3.012-9.786-.942-3.765 0-1.317-2.262-3.389-2.635-.376-2.448-3.388-.184-3.201 1.127.19-2.825-4.89.75-4.515 1.696.189 2.823.189 2.068 3.765.755 1.316 2.639 1.505 2.639 1.505-.942 3.953 1.315 3.574 1.315 3.953v2.443s-.377 1.696 1.881 1.886c.754-3.204 1.882-9.224 5.083-11.671.75-.751 1.507-1.881 2.255-2.445.946-.751 2.826 1.314 2.261-2.447-.375-1.506 2.635-1.882 3.952-1.882 3.386 0 4.704-.94 5.646.754 1.503 2.445.751-2.632 3.954-3.012 3.761 3.576 2.255-1.882 4.515-.943 1.126-.187 1.88 5.083 4.326 4.331 6.401-1.506 3.577-5.832 4.518-8.656 1.317-.375 2.824 2.824 3.763 1.317.755-.564 1.318-1.886 2.822 0 4.139.376 3.579-6.023 3.954-5.458 0 0-.188-3.764 2.446-.378 1.88 2.446 1.88-3.012 5.647-4.703 1.692-.375-.375 2.822 3.198 3.765 1.13.187 5.457-3.391 4.328-6.963-.94-3.579 4.33-.754 6.963-3.579 2.823 2.451 3.952-.561 8.281 1.133 2.631.94 3.95-1.133 3.388-3.01-.377-1.887 3.195-.57 3.575-2.639.376-1.881 1.694-.563 4.517-.186.75.186 3.197-2.257 5.458-2.824 2.443-.755 5.269-3.764 8.281-2.823 3.386 1.13 5.078-1.504 5.267-3.01-.377-2.445-.377-2.071-1.881-.941-.374-3.388-3.766.563-2.071-3.388-.377-2.823-2.82.754-3.949-.754 0-1.692 1.317-3.009 1.317-3.009 0-.752.188-2.072 2.445-2.447 3.199-.565 2.445 2.821 3.199 3.012 2.447.184 2.07-1.883 3.574-1.883.754 0 3.2-.187 3.011 1.129-.189 2.069 4.894 1.129 3.766 5.079-.375.942-2.635 2.639-1.317 3.581.756.938 1.695.187 3.2-.567 2.258-.375.375 3.386-.565 4.329-.939.938-.189 2.26 3.2 2.632 1.505 0 1.694 1.697 3.385 1.697 3.578-.188.941-4.142 6.401-4.142 1.317.189 2.635.75 4.704 1.13 3.763.376 0-2.635 1.88-5.079 3.575-5.273-2.443-4.143-1.88-5.461 1.13-1.317 2.635-1.317 4.328-1.692 3.01-.752 2.633 3.954 4.325 2.257.758-1.128.188-2.445 1.696-2.634.379-.191-.188 2.634.379 3.388.562.754 1.881-2.071 2.633-.565.565.188 3.387.942 3.387 2.823 0 2.071-1.507 1.696-1.321 3.2.38 6.208 3.58 4.326 4.332 6.208.565 1.504-.378 3.204.377 5.458 2.444-1.876 1.506-3.008 3.201-2.819 1.13.565 2.257 3.195 5.08 3.007 10.165-.75 4.329 4.143 9.598 3.391 2.448-.377 3.952-3.203 5.457-1.694.38 2.069 1.316 2.823 1.316 3.761.378 6.589 3.39-.186 6.588 1.886 4.708 3.011-1.318 6.585.753 7.339.752-.377 4.145.754 3.763-2.447-.188-1.881.943-2.448 2.261-2.448 1.691 0 2.258 1.129 3.575 1.695 2.633 1.507 1.315-3.201 3.385-2.07 2.635.942 3.575-.376 5.084.375 1.316 3.014 8.47 6.777 4.328 7.53-2.822.563 0 3.573-1.694 4.143-2.445.748.189 2.632-3.577.938-1.691-.751-2.635 2.822-5.646 3.762-3.199.937-1.882 3.949.751 3.949 1.316 0 1.507.754 1.127 2.447.757 1.882 3.766 0 3.766 0 1.132-.563 2.449 0 1.883 3.012-.563 2.26 2.824.563 4.139 3.198.567.94.754 3.574 2.823 4.516 2.446 1.32 3.388 2.447 2.446 5.46-.563 1.127 4.896 6.584 6.588 6.584 2.261 0 3.198.75 2.638-1.882-.188-.94 1.314-2.068 2.255-1.127.754.939 2.823-4.891 3.762-5.08 0 0 4.328-3.012 6.966-2.258 1.317 2.258 3.012 1.691 2.822-.754 0-.756-2.634-1.32-1.879-2.825 1.505-2.634-1.693-2.067-3.011-3.572-.759-1.133-.188-3.012-.759-4.141-.561-1.131-3.198-2.259-3.198-3.578 0-.372 1.881-2.068 2.072-2.635 6.585 1.693 12.23 5.646 15.053 4.895 0 1.508 2.263 4.14 2.263 4.14 1.505 2.258 3.763-.753 5.27.753 1.315 1.314-1.884 7.341 1.881 3.952 1.502-1.319 2.068-.188 2.445 1.691 0 .564 1.504 1.885 2.633-1.505.188-.563 4.332.94 7.342.38 1.882-.38 3.197-2.635 3.386-3.765 3.201.561 4.706.561 2.636 3.011-1.317 1.692 2.632 3.199.565 5.834-.758.754-1.695-.566-3.39 1.694-.94 1.314-5.834-.566-4.703 2.447 1.317 1.878 2.823 3.759 4.141 3.949l2.446-.19s1.88.19 2.067 2.823c0 0 .379 1.314.567 2.258.376 2.637 1.506 4.706 4.328 4.706 1.884 0 2.068 1.506 5.082-.377 1.882-1.315 2.633 0 3.573-1.503 0-2.073-1.507-2.638-.566-3.58.942-1.314 2.826-.189 4.331.942.941 1.32-.566 3.575.754 4.141 2.632 0 3.951-1.315 4.326-.188 1.128 3.575 3.391 1.505 3.952 3.388.94 2.821 1.883 2.633 2.632 2.258 4.898-2.823 6.779.188 9.602 1.317 2.634.938.753-2.823 3.951-1.317 0 1.317-.187 2.444.374 3.013 2.074 1.883 1.131 1.693-.374 3.009.564 4.895 2.448 7.716 4.516 10.729.757.939 2.825-1.697 3.201 1.883.189 2.068.941 2.068 1.505 1.314.189-.376.376-1.503.75-1.503 4.33 0 2.636 9.22 4.33 12.417-3.199.563-1.315.753-2.256 2.258-.943 1.697-2.074 1.697-3.951.755-1.886-.942-2.822-.378-5.272-.378-2.448 0-2.822.566-3.387 2.26-.563 1.502-.939 3.576-3.761 4.517-2.638.939-3.012 3.764-3.579 4.89-.75 1.317-.374 3.206-7.149 4.519-6.777 1.51-4.704 3.762-7.716 7.152-3.014 3.386 1.508 6.774.378 10.159-1.318 3.39-2.448 4.519-7.721 4.329-5.267-.376-2.822 3.955-3.762 6.023-.938 2.259-1.505 2.825-3.386 2.259-1.885-.564-1.885.378-3.011 2.069-1.318 1.882.187 1.697-2.823 2.823-3.201 1.32-4.33 1.32-7.342 2.823-3.012 1.507-2.442 1.507-3.949.375-1.317-1.315-1.888-2.632-3.767-.752-1.881 1.884-2.447 1.507-4.325-.189-1.884-1.879-5.646-2.257-8.095-2.444-2.447-.377-3.577 2.07-5.456 3.951-1.881 1.882-.376 2.443-3.198 4.893-2.632 2.448-1.696 3.386-3.012 7.15-1.32 3.575-3.015 4.326-3.015 4.326"/><circle fill="#324A21" cx="283.722" cy="104.037" r="7.239"/><circle fill="#324A21" cx="398.715" cy="176.751" r="7.239"/><path fill="#F8B21A" d="M553.742 156.499l-141.979 18.742 142.428-3.04z"/><defs><circle id="a" cx="592.477" cy="162.477" r="47.5"/></defs><clipPath id="b"><use xlink:href="#a" overflow="visible"/></clipPath><g clip-path="url(#b)"><linearGradient id="c" gradientUnits="userSpaceOnUse" x1="878.784" y1="-447.082" x2="776.49" y2="-344.789" gradientTransform="matrix(1 0 0 -1 -235.16 -233.46)"><stop offset="0" stop-color="#ec57e2"/><stop offset="1" stop-color="#ffd302"/></linearGradient><path fill="url(#c)" d="M520.145 90.145h144.664v144.664H520.145V90.145z"/><path fill="#FFF" d="M574.462 159.797l36.786 12.426c.488.242.73.486.73.973 0 .488-.242.975-.73.975l-36.786 12.67c-.486.244-1.218 0-1.461-.732-.245-.486 0-1.217.729-1.463l33.62-11.449-33.62-11.449c-.486-.244-.975-.73-.729-1.461.243-.49.975-.734 1.461-.49zm36.786-19.488l-33.619 11.451 33.619 11.447c.488.244.975.732.73 1.463-.242.486-.73.975-1.462.73l-36.786-12.668c-.486-.244-.729-.488-.729-.973 0-.49.243-.977.729-.977l36.786-12.668c.488-.244 1.22 0 1.462.73.245.49-.242 1.22-.73 1.465z"/></g><path fill="#85C660" d="M119.5 74.5l148 28.5-137.334-11.167z"/><circle fill="#85C660" cx="87.525" cy="87.525" r="47.5"/><path fill-rule="evenodd" clip-rule="evenodd" fill="#FFF" d="M119.6 87.089v-.002h-1.571l-.002-.008v.008H90.871a1.455 1.455 0 100 2.911h27.061c-1.259 15.689-14.388 28.027-30.401 28.027-1.084 0-2.156-.057-3.21-.168V57.193a30.67 30.67 0 013.21-.169c10.375 0 19.539 5.183 25.049 13.098l-.002-.007.012-.009a1.47 1.47 0 002.401-1.673l.005-.003-.039-.055a1.313 1.313 0 00-.096-.135c-6.057-8.568-16.039-14.166-27.331-14.166-18.474 0-33.451 14.977-33.451 33.45 0 18.475 14.977 33.451 33.451 33.451 18.063 0 32.778-14.318 33.424-32.223a1.454 1.454 0 00-1.354-1.663zM70.275 97.518c-5.518 0-9.992-4.474-9.992-9.992 0-5.518 4.474-9.991 9.992-9.991 5.519 0 9.993 4.474 9.993 9.991 0 5.518-4.474 9.992-9.993 9.992z"/></svg>