<svg xmlns="http://www.w3.org/2000/svg" width="1600" height="900" viewBox="0, 0, 1600, 900"><path fill="#48440E" d="M0 0h1600v900H0z"/><path d="M0 0h1600v900H0V0z" opacity=".475"/><g fill="#8CBA4D"><path d="M601.357 114.75h30.97v29.934h28.33V114.75h30.976v90.647h-30.975v-30.354h-28.332v30.352h-30.97V114.75zM732.36 144.808h-27.27v-30.06h85.516v30.062H763.33v60.587h-30.972v-60.59zM804.185 114.75h32.294l19.863 31.85 19.845-31.85h32.307v90.647h-30.843v-44.93l-21.31 32.23h-.53l-21.325-32.23v44.928h-30.302V114.75zM923.91 114.75h30.984v60.686h43.556v29.96h-74.54v-90.647zM719.535 465.186H800v-61.05h-86.036l5.57 61.05zM556.717 245.144l44.304 486.103 198.86 54.004 199.045-53.978 44.358-486.128H556.717zM960.953 700.32L800 743.973v-61.868l-.1.03-124.84-33.905-8.73-95.728h61.18l4.53 49.663 67.874 17.933.086-.028v-95.264H663.8l-16.438-180.292H800v-59.62H998.86l-37.91 415.427z"/><path d="M875.016 524.806H800v95.266l67.943-17.94 7.073-77.326zM800 284.894v59.62h152.637l-5.46 59.62H800v61.052h141.63L924.91 648.23 800 682.103v61.868l160.953-43.65 37.908-415.43H800z" opacity=".58"/><g opacity=".2"><path d="M799.998 344.513H647.36l16.44 180.292h136.198v-59.62h-80.463l-5.57-61.05h86.033zM800 620.07l-.087.027-67.874-17.933-4.53-49.663h-61.182l8.73 95.727L799.9 682.13l.1-.026z"/></g></g></svg>