<svg xmlns="http://www.w3.org/2000/svg" width="1600" height="900"><path fill="#43376E" d="M0 0h1600v900H0z"/><path d="M993.461 169.261c50.995 0 92.334 40.441 92.334 90.326v380.826c0 49.886-41.339 90.326-92.334 90.326H606.539c-50.995 0-92.334-40.44-92.334-90.326V259.587c0-49.885 41.339-90.326 92.334-90.326h386.922zM799.504 276.328H660.426v347.809h153.756c47.803 0 83.415-8.231 106.835-24.694 23.42-16.462 35.13-41.467 35.131-75.013-.001-21.898-5.455-40.379-16.362-55.444-10.909-15.065-26.309-25.393-46.2-30.984 15.56-5.746 27.431-14.521 35.612-26.324 8.181-11.959 12.272-26.402 12.272-43.331 0-32.148-11.229-55.521-33.687-70.121-22.298-14.598-58.391-21.897-108.279-21.898zm7.94 195.686c18.769 0 32.805 3.805 42.109 11.415 9.304 7.455 13.956 18.715 13.956 33.779 0 15.376-4.733 26.869-14.197 34.478-9.304 7.611-23.26 11.416-41.868 11.415h-54.38v-91.087h54.38zm-3.128-134.65c14.598 0 25.666 3.184 33.206 9.551 7.539 6.212 11.309 15.298 11.309 27.256 0 12.114-3.77 21.277-11.309 27.489-7.54 6.213-18.608 9.319-33.206 9.319h-51.252v-73.615h51.252z" fill="#FFF"/></svg>