<svg xmlns="http://www.w3.org/2000/svg" width="1600" height="900" viewBox="0, 0, 1600, 900"><path fill="#5FA316" d="M0 0h1600v900H0z"/><path d="M0 0h1600v900H0V0z" opacity=".691"/><path d="M834.624 510.26c3.966 4.94 3.647 12.174-.94 16.74-4.59 4.556-11.816 4.84-16.73.86-5.122 2.505-10.878 3.914-16.96 3.914-21.32 0-38.613-17.288-38.613-38.613 0-6.115 1.426-11.9 3.954-17.035l-63.727-64.008c-4.888-4.91-4.863-12.85.05-17.733 4.91-4.883 12.848-4.862 17.732.046l63.722 64c5.102-2.486 10.833-3.877 16.882-3.877 21.33 0 38.613 17.288 38.613 38.608 0 6.147-1.43 11.948-3.983 17.1zm83.95-135.666c-30.338-30.338-72.267-49.11-118.568-49.11-46.31 0-88.23 18.772-118.57 49.11-30.343 30.337-49.11 72.266-49.11 118.57 0 46.307 18.767 88.227 49.11 118.57 30.34 30.34 72.26 49.117 118.57 49.117 46.3 0 88.23-18.775 118.568-49.117 30.337-30.338 49.114-72.262 49.114-118.568 0-46.305-18.777-88.234-49.114-118.57zM850.31 230.778h-29.344v20.15c40.034 3.417 77.297 16.53 109.43 36.99l28.81-32.734c4.58-5.2 12.56-5.697 17.75-1.132l37.762 33.234c5.19 4.57 5.697 12.564 1.132 17.75l-28.83 32.752c35.042 42.134 56.12 96.29 56.12 155.373 0 67.145-27.215 127.934-71.214 171.925-43.99 43.995-104.784 71.21-171.924 71.21-67.148 0-127.932-27.215-171.932-71.21-43.995-43.99-71.21-104.78-71.21-171.924 0-59.086 21.077-113.242 56.12-155.372l-28.843-32.77c-4.57-5.19-4.062-13.175 1.132-17.744l37.757-33.235c5.19-4.57 13.176-4.067 17.745 1.127l28.824 32.748c32.14-20.46 69.408-33.578 109.442-36.99v-20.152h-29.345c-6.916 0-12.576-5.642-12.576-12.572v-41.92c0-6.92 5.66-12.575 12.576-12.575h100.613c6.922 0 12.577 5.663 12.577 12.576v41.926c.004 6.908-5.647 12.572-12.572 12.572z" fill="#F4F1C7"/></svg>