<svg xmlns="http://www.w3.org/2000/svg" width="1600" height="900"><path fill="#350000" d="M0 0h1600v900H0z"/><path d="M462.482 480.07c0 39.767 1.699 64.239 4.758 78.854 17.334 7.478 44.865 12.576 80.214 12.576 68.657 0 97.547-32.969 97.547-70.357 0-35.008-9.516-52.682-66.618-73.076l-28.89-10.536c-15.635-5.438-19.034-12.576-19.034-22.773 0-9.856 7.138-20.053 33.989-20.053 9.857 0 22.433 1.699 32.289 4.419l4.079 36.707h39.427c0-37.387-.68-70.356-3.399-77.834-17.334-4.418-45.545-8.157-67.638-8.157-71.036 0-98.227 32.629-98.227 72.056 0 42.146 24.132 58.461 57.101 68.657l29.91 8.837c19.714 6.118 25.832 13.596 25.832 25.492 0 12.236-8.158 21.413-29.571 21.413-14.955 0-29.91-2.039-45.545-6.798l-5.438-39.427z" stroke="#FFF" stroke-width="7" stroke-dasharray="14,7" fill="none"/><path d="M775.018 335.118v35.688l-33.309 2.719c37.388 110.464 40.107 118.621 43.506 130.857 3.399-9.857 6.798-20.393 45.205-130.857l-33.989-2.719v-35.688h117.941v35.688l-24.472 2.719-72.736 191.357h-67.297L678.15 373.525l-23.792-2.719v-35.688h120.66zm-7 7h-106.66v22.443l17.587 2.009 4.256.487 1.504 4.012 70.013 186.813h57.618l71.021-186.844 1.52-3.998 4.25-.472 18.245-2.027v-22.423H803.431v22.226l27.547 2.203 9.028.723-2.974 8.554c-16.865 48.504-28.21 81.277-35.723 103.133-3.98 11.578-9.325 27.268-9.477 27.707l-7.337 21.279-6.025-21.688c-3.327-11.977-5.909-19.743-43.391-130.486l-2.874-8.491 8.935-.73 26.878-2.194v-22.236z" fill="#FFF"/><g fill="#FFF"><path d="M1120.344 552.646V479.23l17.674-1.359v-35.009h-100.607v35.009l29.231 2.379v36.708c-11.216 3.059-22.773 4.758-37.048 4.758-35.688 0-55.402-23.112-55.402-66.618 0-58.46 26.852-79.873 65.939-79.873 7.817 0 20.393 1.699 29.23 4.078l5.098 34.329h41.127c0-53.022-1.02-64.919-3.399-76.135-22.773-5.438-45.545-8.497-77.834-8.497-78.854 0-119.981 46.225-119.981 126.778 0 71.037 41.127 115.222 106.045 115.222 52.683 0 78.514-11.556 99.927-18.354z"/><path d="M1034.353 329c32.289 0 55.061 3.059 77.834 8.497 2.379 11.216 3.399 23.113 3.399 76.135h-41.127l-5.098-34.329c-8.837-2.379-21.413-4.078-29.231-4.078-39.086 0-65.938 21.413-65.938 79.873 0 43.506 19.714 66.618 55.402 66.618 14.275 0 25.832-1.699 37.048-4.758V480.25l-29.231-2.379v-35.009h100.607v35.009l-17.674 1.359v73.416C1098.931 559.444 1073.1 571 1020.417 571c-64.918 0-106.045-44.185-106.045-115.222 0-80.553 41.127-126.778 119.981-126.778zm0 7c-73.913 0-112.981 41.953-112.981 119.778 0 67.11 37.957 108.222 99.045 108.222 31.263 0 53.666-3.771 77.397-11.271 5.19-1.673 10.356-3.42 15.53-5.143v-74.838l6.463-.497 11.211-.863v-21.526h-86.607v21.555l22.799 1.856 6.432.524v48.507l-5.158 1.407c-12.406 3.383-24.612 5.005-38.89 5.005-40.04 0-62.402-26.713-62.402-73.618 0-58.248 26.225-86.873 72.938-86.873 8.587 0 21.781 1.823 31.051 4.319l4.43 1.193.674 4.538 4.211 28.357h28.082c-.094-13.953 0-27.917-.582-41.861-.299-7.186-.733-14.351-1.87-21.458-23.513-5.631-47.682-7.181-71.773-7.313z"/></g><g opacity=".864" fill="#AD3523"><path d="M246.328 228.58v-4.2l-3.88-.36v-17h4.4l.72 4.76h4.36c0-6.36-.16-9.28-.4-10.24h-24.92c-.24 1.52-.36 3.44-.36 10.24h4.4l.72-4.76h4.44v17l-3.88.36v4.2z"/><path d="M266.728 228.58l6.24-15.64 2.44-.36v-4.12h-11.44v4.12l2.44.28c-1.36 3.96-2.36 7.2-3.16 9.88-.92-2.8-1.8-5.88-3.36-9.88l2.52-.28v-4.12h-11.72v4.12l2.44.36 6.24 15.64zm30.52-4.56h-3.2v-8.6c0-2.84-.36-4.48-1.04-5.56-.88-1.44-2.64-2.08-5.56-2.08-2.4 0-6.92.68-9.92 1.68l.88 4.28c2.64-.64 5.44-.84 6.84-.84 1.36 0 2 .24 2.36.72.24.4.32 1.16.32 1.96v.56c-3.04.12-5.88.4-8.16 1.12-2.36.72-3.88 2.52-3.88 5.44 0 3.2 2 6.36 6.6 6.36 1.68 0 4.04-.56 5.8-2.44l.36 2.32c2.88 0 6.52-.44 8.6-1zm-9.24-.76c-.92.84-2.48 1.36-3.56 1.36-1.36 0-2.12-.8-2.12-2.08 0-.88.44-1.6 1.48-1.96 1.36-.48 3.44-.56 4.2-.64zm24.8 5.32v-4.16l-3.88-.4v-9.64c1.4-.68 3.2-.96 4.72-.96 1.12 0 1.92.08 2.28.12v-5.52c-.36-.04-.92-.08-1.28-.08-2.48 0-4.64 1.32-5.8 3.32v-3.4c-3.12.04-6.68.56-9.6 1.52v4.08h3.44v10.6l-3.28.36v4.16zm9.16 10.44c5.16-1.4 9.6-3.76 12.24-11.08l5.36-15 2.44-.36v-4.12h-11.32v4.12l2.44.28c-1.32 3.96-2.16 7.56-2.92 10.24-.92-2.6-1.96-6-3.6-10.24l2.52-.28v-4.12h-11.56v4.12l2.44.36 6 15.64h1.04c-.96 2.72-3.68 4.4-7 5.36zM985.118 102l8.56-22.52 2.88-.32v-4.2h-13.88v4.2l4 .32c-4.52 13-4.92 14.24-5.32 15.4-.4-1.44-.72-2.4-5.12-15.4l3.92-.32v-4.2h-14.2v4.2l2.8.32 8.44 22.52zm20.64-26.08c0-2.52-1.4-3.32-3.28-3.32-1.84 0-3.4.92-3.4 3.32s1.56 3.28 3.28 3.28c2 0 3.4-1.04 3.4-3.28zm3.88 26.08v-4.16l-3.28-.36v-16.2c-3.16 0-6.68.6-9.68 1.48v4.12h3.44v10.6l-3.28.36V102zm21.68-2.04l-2-3.92c-1.96 1.08-4.04 1.56-6.36 1.56-2.6 0-4-1.32-4.44-3.24-.08-.4-.08-1.08-.08-1.24h12.48c.08-.68.12-1.48.12-1.76 0-5.16-1.4-10.16-8.84-10.16-5.44 0-10.2 3.64-10.2 11.08 0 6.16 3.48 10.36 9.4 10.36 3.72 0 6.76-.84 9.92-2.68zm-6.36-11.04h-6.32c.28-1.88 1.6-3.24 3.44-3.24 2.04 0 2.92 1 2.92 2.48 0 .24 0 .48-.04.76zm38.08-2.64l2.32-.28v-4.12h-10.28V86l2.28.28c-.76 4.32-1.2 6.84-1.52 9-.44-1.92-1.04-3.84-3.64-12.56h-4.84c-2.36 8-2.84 10.08-3.48 12.6-.24-1.48-.88-4.44-1.8-8.96l2.4-.36v-4.12h-11.28V86l2.44.36 3.76 15.64h7.16c1.84-5.84 2.56-8.28 3.08-10.48.56 2.36 1.12 4.6 2.68 10.48h7.08zm16.24 25.56v-4.16l-4-.36v-5.12c.96.12 1.92.16 2.92.16 6.4 0 10.48-3.6 10.48-11.2 0-6.6-2.44-9.92-6.6-9.92-2.6 0-5.4 1.4-6.8 2.56l-.12-2.6c-3.12.12-6.4.6-9.56 1.52v4.08h3.48v20.52l-3.28.36v4.16zm-4-14.6V87.2c1.2-.4 2.24-.64 3.48-.64 1.92 0 3.16 1.52 3.16 5.2 0 4.28-1.64 5.76-4.08 5.76-.96 0-1.76-.12-2.56-.28zm38-5.84c0-6.56-3.12-10.2-9.92-10.2-7.52 0-11.16 3.84-11.16 11.12 0 6.68 3.72 10.32 10.2 10.32 7.2 0 10.88-3.96 10.88-11.24zm-6.72.72c0 4.6-1.48 5.84-3.96 5.84-2.32 0-3.84-1.2-3.84-6.28 0-3.6 1.04-5.84 4.08-5.84 3.16 0 3.72 2.36 3.72 6.28zm23.12 9.88v-4.16l-3.88-.4V87.8c1.4-.68 3.2-.96 4.72-.96 1.12 0 1.92.08 2.28.12v-5.52c-.36-.04-.92-.08-1.28-.08-2.48 0-4.64 1.32-5.8 3.32v-3.4c-3.12.04-6.68.56-9.6 1.52v4.08h3.44v10.6l-3.28.36V102zm20.04-.52l-.76-4.6c-.96.16-2.08.2-2.64.2-.88 0-1.56-.2-1.92-.72-.44-.6-.6-1.44-.6-3.08v-6.6h4.8v-4.8h-4.8v-5.4l-6 .4c-.16 2.56-.24 3.68-.24 5-.52 0-2.52.12-3.72.4v4.4h3.64v7.96c0 2.64.4 4.68 1.24 5.8.84 1.16 2.56 1.88 4.6 1.88 2.64 0 4.92-.36 6.4-.84zM137.988 643.24v-4.2l-4-.32 1.16-3.2h8.12l1.16 3.2-3.88.32v4.2h14.04v-4.2l-2.84-.32-8.2-22.52h-8.36l-8.36 22.52-2.88.32v4.2zm-1.16-13.16c1.6-4.76 2.04-6.4 2.48-7.88.36 1.56.72 2.92 2.24 7.88zm31.8 13.16v-4.16l-3.28-.36v-10.16c1.4-.52 2.72-.68 3.92-.68.84 0 1.52.24 1.68 1.12.12.68.12 2 .12 3.92v10.32h9.68v-4.16l-3.36-.36v-7.12c0-2.24 0-4.08-.16-5.24-.32-2.4-1.48-3.8-4.56-3.8-1.88 0-5.12 1.12-7.32 2.72l-.12-2.76c-2.72 0-7 .68-9.56 1.52v4.08h3.44v10.6l-3.28.36v4.16zm22.88-26.08c0-2.52-1.4-3.32-3.28-3.32-1.84 0-3.4.92-3.4 3.32s1.56 3.28 3.28 3.28c2 0 3.4-1.04 3.4-3.28zm3.88 26.08v-4.16l-3.28-.36v-16.2c-3.16 0-6.68.6-9.68 1.48v4.12h3.44v10.6l-3.28.36v4.16zm14.76 0v-4.16l-3.24-.36v-10.16c1.32-.52 2.52-.68 3.76-.68.8 0 1.4.24 1.56 1.08.12.72.12 2.04.12 3.96v10.32h9.68v-4.16l-3.36-.36v-7.28c0-1.12 0-2-.04-2.88 1.32-.48 2.52-.68 3.72-.68.8 0 1.44.24 1.6 1.12.16.68.16 2 .16 3.92v10.32h9.68v-4.16l-3.4-.36v-7.28c0-2.24 0-4-.16-5.12-.32-2.4-1.64-3.76-4.48-3.76-2.44 0-5.04 1.2-7.4 2.84-.52-1.88-1.72-2.84-4.24-2.84-2 0-5 1.16-7.2 2.72l-.12-2.76c-2.72 0-6.68.68-9.56 1.48v4.12h3.44v10.6l-3.28.36v4.16zm46.44-4.56h-3.2v-8.6c0-2.84-.36-4.48-1.04-5.56-.88-1.44-2.64-2.08-5.56-2.08-2.4 0-6.92.68-9.92 1.68l.88 4.28c2.64-.64 5.44-.84 6.84-.84 1.36 0 2 .24 2.36.72.24.4.32 1.16.32 1.96v.56c-3.04.12-5.88.4-8.16 1.12-2.36.72-3.88 2.52-3.88 5.44 0 3.2 2 6.36 6.6 6.36 1.68 0 4.04-.56 5.8-2.44l.36 2.32c2.88 0 6.52-.44 8.6-1zm-9.24-.76c-.92.84-2.48 1.36-3.56 1.36-1.36 0-2.12-.8-2.12-2.08 0-.88.44-1.6 1.48-1.96 1.36-.48 3.44-.56 4.2-.64zm29.8 3.36l-1.84-3.88c-2.12.84-3.52 1.36-5.68 1.36-2.36 0-4.44-1.6-4.44-5.48 0-4.84 2-6.2 4.08-6.2.56 0 1.2.08 1.8.2l.36 3.24h4.76c0-3.92 0-5.92-.24-7.24-1.88-.56-4.24-.84-6.32-.84-7.12 0-10.96 4.08-10.96 11.24 0 6.24 3.56 10.2 9.4 10.2 3.4 0 6.24-.96 9.08-2.6zm21.44-.08l-2-3.92c-1.96 1.08-4.04 1.56-6.36 1.56-2.6 0-4-1.32-4.44-3.24-.08-.4-.08-1.08-.08-1.24h12.48c.08-.68.12-1.48.12-1.76 0-5.16-1.4-10.16-8.84-10.16-5.44 0-10.2 3.64-10.2 11.08 0 6.16 3.48 10.36 9.4 10.36 3.72 0 6.76-.84 9.92-2.68zm-6.36-11.04h-6.32c.28-1.88 1.6-3.24 3.44-3.24 2.04 0 2.92 1 2.92 2.48 0 .24 0 .48-.04.76zM684.584 812v-4.2l-3.72-.36v-6.2h1.84c.72.28 1.36.88 2.16 2.32.8 1.4 1.4 2.72 2.48 4.6 1.32 2.32 3.08 3.96 6.24 3.96 1.52 0 3.44-.12 4.68-.32l-.36-5c-.44.08-.88.12-1.12.12-1.72 0-2.76-.48-3.72-2.08-.48-.84-1.32-2.24-1.68-2.72-.68-1.04-1.28-1.64-2.04-2 3.56-1.12 5.76-3.36 5.76-7.88 0-3.48-1.96-5.72-4.8-6.6-1.68-.52-3.72-.68-6.04-.68h-13.88v4.2l3.84.36v17.92l-3.84.36v4.2zm-3.72-15.84v-6h2.4c1.44 0 2.6.12 3.28.48.84.44 1.36 1.04 1.36 2.64 0 1-.28 1.8-1.2 2.32-.96.52-2.44.56-4.12.56zm38.12 13.8l-2-3.92c-1.96 1.08-4.04 1.56-6.36 1.56-2.6 0-4-1.32-4.44-3.24-.08-.4-.08-1.08-.08-1.24h12.48c.08-.68.12-1.48.12-1.76 0-5.16-1.4-10.16-8.84-10.16-5.44 0-10.2 3.64-10.2 11.08 0 6.16 3.48 10.36 9.4 10.36 3.72 0 6.76-.84 9.92-2.68zm-6.36-11.04h-6.32c.28-1.88 1.6-3.24 3.44-3.24 2.04 0 2.92 1 2.92 2.48 0 .24 0 .48-.04.76zm9.36 5.76c0 3.88.16 5.8.48 6.84 2.36.72 5.24 1.12 7.96 1.12 6.6 0 9.08-3.52 9.08-6.76 0-2.84-1-5.28-5.4-6.28l-3.32-.76c-1.12-.24-1.52-.88-1.52-1.6 0-.88.68-1.64 2.32-1.64.6 0 1.56.04 2.56.28l.48 2.8h4.36c0-2.4-.08-5.64-.52-6.76-1.68-.44-4.36-.72-6.64-.72-6.36 0-9.16 3.08-9.16 6.4 0 3.92 2.04 5.56 5.28 6.4l3.16.8c1 .28 1.52.68 1.52 1.64 0 .76-.44 1.6-2.28 1.6-1.12 0-2.56-.24-3.36-.6l-.64-2.76zm33 17.16v-4.16l-4-.36v-5.12c.96.12 1.92.16 2.92.16 6.4 0 10.48-3.6 10.48-11.2 0-6.6-2.44-9.92-6.6-9.92-2.6 0-5.4 1.4-6.8 2.56l-.12-2.6c-3.12.12-6.4.6-9.56 1.52v4.08h3.48v20.52l-3.28.36v4.16zm-4-14.6V797.2c1.2-.4 2.24-.64 3.48-.64 1.92 0 3.16 1.52 3.16 5.2 0 4.28-1.64 5.76-4.08 5.76-.96 0-1.76-.12-2.56-.28zm38-5.84c0-6.56-3.12-10.2-9.92-10.2-7.52 0-11.16 3.84-11.16 11.12 0 6.68 3.72 10.32 10.2 10.32 7.2 0 10.88-3.96 10.88-11.24zm-6.72.72c0 4.6-1.48 5.84-3.96 5.84-2.32 0-3.84-1.2-3.84-6.28 0-3.6 1.04-5.84 4.08-5.84 3.16 0 3.72 2.36 3.72 6.28zm22.52 9.88v-4.16l-3.28-.36v-10.16c1.4-.52 2.72-.68 3.92-.68.84 0 1.52.24 1.68 1.12.12.68.12 2 .12 3.92V812h9.68v-4.16l-3.36-.36v-7.12c0-2.24 0-4.08-.16-5.24-.32-2.4-1.48-3.8-4.56-3.8-1.88 0-5.12 1.12-7.32 2.72l-.12-2.76c-2.72 0-7 .68-9.56 1.52v4.08h3.44v10.6l-3.28.36V812zm32.96 0c.2-.92.48-3.44.48-8.72h-4.4l-.76 4.2h-6.2c2.08-2.16 3.84-4.04 10.52-11.52v-4.08h-17.76c-.28.96-.52 3.16-.52 8.24h4.24l.8-3.88h4.76c-2.24 2.4-4.08 4.64-10.2 11.72V812zm12.04-26.08c0-2.52-1.4-3.32-3.28-3.32-1.84 0-3.4.92-3.4 3.32s1.56 3.28 3.28 3.28c2 0 3.4-1.04 3.4-3.28zm3.88 26.08v-4.16l-3.28-.36v-16.2c-3.16 0-6.68.6-9.68 1.48v4.12h3.44v10.6l-3.28.36V812zm16.8 0l6.24-15.64 2.44-.36v-4.12h-11.44V796l2.44.28c-1.36 3.96-2.36 7.2-3.16 9.88-.92-2.8-1.8-5.88-3.36-9.88l2.52-.28v-4.12h-11.72V796l2.44.36 6.24 15.64zm23.32 0v-4.16l-3.28-.36v-10.16c1.4-.52 2.72-.68 3.92-.68.84 0 1.52.24 1.68 1.12.12.68.12 2 .12 3.92V812h9.68v-4.16l-3.36-.36v-7.12c0-2.24 0-4.08-.16-5.24-.32-2.4-1.48-3.8-4.56-3.8-1.88 0-5.12 1.12-7.32 2.72l-.12-2.76c-2.72 0-7 .68-9.56 1.52v4.08h3.44v10.6l-3.28.36V812zm20.96-22.4l6.6-6.4h-6.32l-4.8 6.4zm5.8 22.4v-4.16l-3.28-.36v-16.2c-3.16 0-6.68.6-9.68 1.48v4.12h3.44v10.6l-3.28.36V812zM348.448 110.9v-4.2l-3.88-.36v-17h4.4l.72 4.76h4.36c0-6.36-.16-9.28-.4-10.24h-24.92c-.24 1.52-.36 3.44-.36 10.24h4.4l.72-4.76h4.44v17l-3.88.36v4.2zm20.44 0v-4.16l-3.88-.4V96.7c1.4-.68 3.2-.96 4.72-.96 1.12 0 1.92.08 2.28.12v-5.52c-.36-.04-.92-.08-1.28-.08-2.48 0-4.64 1.32-5.8 3.32v-3.4c-3.12.04-6.68.56-9.6 1.52v4.08h3.44v10.6l-3.28.36v4.16zm25.32-4.56h-3.2v-8.6c0-2.84-.36-4.48-1.04-5.56-.88-1.44-2.64-2.08-5.56-2.08-2.4 0-6.92.68-9.92 1.68l.88 4.28c2.64-.64 5.44-.84 6.84-.84 1.36 0 2 .24 2.36.72.24.4.32 1.16.32 1.96v.56c-3.04.12-5.88.4-8.16 1.12-2.36.72-3.88 2.52-3.88 5.44 0 3.2 2 6.36 6.6 6.36 1.68 0 4.04-.56 5.8-2.44l.36 2.32c2.88 0 6.52-.44 8.6-1zm-9.24-.76c-.92.84-2.48 1.36-3.56 1.36-1.36 0-2.12-.8-2.12-2.08 0-.88.44-1.6 1.48-1.96 1.36-.48 3.44-.56 4.2-.64zm24.2 5.32v-4.16l-3.28-.36V96.22c1.4-.52 2.72-.68 3.92-.68.84 0 1.52.24 1.68 1.12.12.68.12 2 .12 3.92v10.32h9.68v-4.16l-3.36-.36v-7.12c0-2.24 0-4.08-.16-5.24-.32-2.4-1.48-3.8-4.56-3.8-1.88 0-5.12 1.12-7.32 2.72l-.12-2.76c-2.72 0-7 .68-9.56 1.52v4.08h3.44v10.6l-3.28.36v4.16zm14.24-7.32c0 3.88.16 5.8.48 6.84 2.36.72 5.24 1.12 7.96 1.12 6.6 0 9.08-3.52 9.08-6.76 0-2.84-1-5.28-5.4-6.28l-3.32-.76c-1.12-.24-1.52-.88-1.52-1.6 0-.88.68-1.64 2.32-1.64.6 0 1.56.04 2.56.28l.48 2.8h4.36c0-2.4-.08-5.64-.52-6.76-1.68-.44-4.36-.72-6.64-.72-6.36 0-9.16 3.08-9.16 6.4 0 3.92 2.04 5.56 5.28 6.4l3.16.8c1 .28 1.52.68 1.52 1.64 0 .76-.44 1.6-2.28 1.6-1.12 0-2.56-.24-3.36-.6l-.64-2.76zm34.04 7.32v-4.16l-3.96-.36v-10.8h4.16v-4.8h-4.16v-1c0-1.24.12-2.08.52-2.68.44-.6 1.32-.8 2.52-.8.68 0 1.48.04 2.36.16l.6-4.52c-1.12-.24-3.32-.44-4.68-.44-2.6 0-4.68.8-5.92 2.16-1.12 1.16-1.64 3.12-1.64 5.92v1.2c-.6 0-2.4.12-3.44.36v4.44h3.44v10.8l-3.28.36v4.16zm23.72-10.6c0-6.56-3.12-10.2-9.92-10.2-7.52 0-11.16 3.84-11.16 11.12 0 6.68 3.72 10.32 10.2 10.32 7.2 0 10.88-3.96 10.88-11.24zm-6.72.72c0 4.6-1.48 5.84-3.96 5.84-2.32 0-3.84-1.2-3.84-6.28 0-3.6 1.04-5.84 4.08-5.84 3.16 0 3.72 2.36 3.72 6.28zm23.12 9.88v-4.16l-3.88-.4V96.7c1.4-.68 3.2-.96 4.72-.96 1.12 0 1.92.08 2.28.12v-5.52c-.36-.04-.92-.08-1.28-.08-2.48 0-4.64 1.32-5.8 3.32v-3.4c-3.12.04-6.68.56-9.6 1.52v4.08h3.44v10.6l-3.28.36v4.16zm18.2 0v-4.16l-3.24-.36V96.22c1.32-.52 2.52-.68 3.76-.68.8 0 1.4.24 1.56 1.08.12.72.12 2.04.12 3.96v10.32h9.68v-4.16l-3.36-.36V99.1c0-1.12 0-2-.04-2.88 1.32-.48 2.52-.68 3.72-.68.8 0 1.44.24 1.6 1.12.16.68.16 2 .16 3.92v10.32h9.68v-4.16l-3.4-.36V99.1c0-2.24 0-4-.16-5.12-.32-2.4-1.64-3.76-4.48-3.76-2.44 0-5.04 1.2-7.4 2.84-.52-1.88-1.72-2.84-4.24-2.84-2 0-5 1.16-7.2 2.72l-.12-2.76c-2.72 0-6.68.68-9.56 1.48v4.12h3.44v10.6l-3.28.36v4.16zm46.44-4.56h-3.2v-8.6c0-2.84-.36-4.48-1.04-5.56-.88-1.44-2.64-2.08-5.56-2.08-2.4 0-6.92.68-9.92 1.68l.88 4.28c2.64-.64 5.44-.84 6.84-.84 1.36 0 2 .24 2.36.72.24.4.32 1.16.32 1.96v.56c-3.04.12-5.88.4-8.16 1.12-2.36.72-3.88 2.52-3.88 5.44 0 3.2 2 6.36 6.6 6.36 1.68 0 4.04-.56 5.8-2.44l.36 2.32c2.88 0 6.52-.44 8.6-1zm-9.24-.76c-.92.84-2.48 1.36-3.56 1.36-1.36 0-2.12-.8-2.12-2.08 0-.88.44-1.6 1.48-1.96 1.36-.48 3.44-.56 4.2-.64zm29.8 3.36l-1.84-3.88c-2.12.84-3.52 1.36-5.68 1.36-2.36 0-4.44-1.6-4.44-5.48 0-4.84 2-6.2 4.08-6.2.56 0 1.2.08 1.8.2l.36 3.24h4.76c0-3.92 0-5.92-.24-7.24-1.88-.56-4.24-.84-6.32-.84-7.12 0-10.96 4.08-10.96 11.24 0 6.24 3.56 10.2 9.4 10.2 3.4 0 6.24-.96 9.08-2.6zm21.44-.08l-2-3.92c-1.96 1.08-4.04 1.56-6.36 1.56-2.6 0-4-1.32-4.44-3.24-.08-.4-.08-1.08-.08-1.24h12.48c.08-.68.12-1.48.12-1.76 0-5.16-1.4-10.16-8.84-10.16-5.44 0-10.2 3.64-10.2 11.08 0 6.16 3.48 10.36 9.4 10.36 3.72 0 6.76-.84 9.92-2.68zm-6.36-11.04h-6.32c.28-1.88 1.6-3.24 3.44-3.24 2.04 0 2.92 1 2.92 2.48 0 .24 0 .48-.04.76zm618.404 573.62v-8.64l2.08-.16v-4.12h-11.84v4.12l3.44.28v4.32c-1.32.36-2.68.56-4.36.56-4.2 0-6.52-2.72-6.52-7.84 0-6.88 3.16-9.4 7.76-9.4.92 0 2.4.2 3.44.48l.6 4.04h4.84c0-6.24-.12-7.64-.4-8.96-2.68-.64-5.36-1-9.16-1-9.28 0-14.12 5.44-14.12 14.92 0 8.36 4.84 13.56 12.48 13.56 6.2 0 9.24-1.36 11.76-2.16zm17.84 1.44v-4.16l-3.88-.4v-9.64c1.4-.68 3.2-.96 4.72-.96 1.12 0 1.92.08 2.28.12v-5.52c-.36-.04-.92-.08-1.28-.08-2.48 0-4.64 1.32-5.8 3.32v-3.4c-3.12.04-6.68.56-9.6 1.52v4.08h3.44v10.6l-3.28.36v4.16zm29.12-.44v-3.92h-3.2v-16.16c-3.2 0-6.8.52-9.68 1.2v3.92h3.32v9.96c-1.36.48-2.52.72-3.68.72-1.08 0-1.76-.6-1.92-1.52-.12-.68-.12-1.68-.12-3.56v-10.72c-2.92 0-6.52.48-9.56 1.16v3.96h3.24v6.92c0 1.88.04 3.6.16 4.76.32 2.6 1.84 4.28 5.32 4.28 2.28 0 4.68-1 6.84-2.68l.4 2.48c3.08 0 7.12-.4 8.88-.8zm14.68.44v-4.16l-3.28-.36V658.2c1.4-.52 2.72-.68 3.92-.68.84 0 1.52.24 1.68 1.12.12.68.12 2 .12 3.92v10.32h9.68v-4.16l-3.36-.36v-7.12c0-2.24 0-4.08-.16-5.24-.32-2.4-1.48-3.8-4.56-3.8-1.88 0-5.12 1.12-7.32 2.72l-.12-2.76c-2.72 0-7 .68-9.56 1.52v4.08h3.44v10.6l-3.28.36v4.16zm28.2-.52l-.76-4.6c-.96.16-2.08.2-2.64.2-.88 0-1.56-.2-1.92-.72-.44-.6-.6-1.44-.6-3.08v-6.6h4.8v-4.8h-4.8v-5.4l-6 .4c-.16 2.56-.24 3.68-.24 5-.52 0-2.52.12-3.72.4v4.4h3.64v7.96c0 2.64.4 4.68 1.24 5.8.84 1.16 2.56 1.88 4.6 1.88 2.64 0 4.92-.36 6.4-.84zm29.48 1.16l.96-5.16c-1.36-.24-4.24-1-5.28-1.6.88-.84 2.2-2.84 3-4.72l2.28-.32v-4.2h-9.36v4.2l.8.08c-.2.52-.52 1.12-.88 1.44-1.32-1-3.08-3.24-3.96-4.44 2.96-1.64 5.36-3.84 5.36-7.12 0-4.8-3.48-6.4-7.68-6.4-5.56 0-8.04 3.04-8.04 6.72 0 1.88.64 3.32 1.64 4.64-3.88 1.52-6.08 4.12-6.08 8.04 0 5.88 4.56 8.76 10.52 8.76 3.44 0 6.16-1.08 8.04-2.68 2.48 1.68 5.96 2.4 8.68 2.76zm-18.32-12.36c1.24 1.6 3.6 4.64 5.2 6-.8.4-2 .76-3.48.76-2.64 0-4.2-1.36-4.2-3.48 0-1.28.8-2.52 2.48-3.28zm2.92-6.16c-.8-.96-1.4-2.16-1.4-3.08 0-1.16.72-2.12 2.2-2.12 1.44 0 2.2.6 2.2 1.96 0 1.24-1.24 2.48-3 3.24zm44.04 16.44v-8.64l2.08-.16v-4.12h-11.84v4.12l3.44.28v4.32c-1.32.36-2.68.56-4.36.56-4.2 0-6.52-2.72-6.52-7.84 0-6.88 3.16-9.4 7.76-9.4.92 0 2.4.2 3.44.48l.6 4.04h4.84c0-6.24-.12-7.64-.4-8.96-2.68-.64-5.36-1-9.16-1-9.28 0-14.12 5.44-14.12 14.92 0 8.36 4.84 13.56 12.48 13.56 6.2 0 9.24-1.36 11.76-2.16zm27.92 1v-3.92h-3.2v-16.16c-3.2 0-6.8.52-9.68 1.2v3.92h3.32v9.96c-1.36.48-2.52.72-3.68.72-1.08 0-1.76-.6-1.92-1.52-.12-.68-.12-1.68-.12-3.56v-10.72c-2.92 0-6.52.48-9.56 1.16v3.96h3.24v6.92c0 1.88.04 3.6.16 4.76.32 2.6 1.84 4.28 5.32 4.28 2.28 0 4.68-1 6.84-2.68l.4 2.48c3.08 0 7.12-.4 8.88-.8zm14.24.44v-4.16l-3.32-.36v-25.12c-2.88 0-6.4.68-9.68 1.56v4.08h3.44v19.48l-3.08.36v4.16zm14.32 9.84v-4.16l-4-.36v-5.12c.96.12 1.92.16 2.92.16 6.4 0 10.48-3.6 10.48-11.2 0-6.6-2.44-9.92-6.6-9.92-2.6 0-5.4 1.4-6.8 2.56l-.12-2.6c-3.12.12-6.4.6-9.56 1.52v4.08h3.48v20.52l-3.28.36v4.16zm-4-14.6v-10.04c1.2-.4 2.24-.64 3.48-.64 1.92 0 3.16 1.52 3.16 5.2 0 4.28-1.64 5.76-4.08 5.76-.96 0-1.76-.12-2.56-.28zM1257.012 308v-4.2l-3.84-.36v-17.92l3.84-.36v-4.2h-14.36v4.2l3.84.36v17.92l-3.84.36v4.2zm15.12 0v-4.16l-3.28-.36v-10.16c1.4-.52 2.72-.68 3.92-.68.84 0 1.52.24 1.68 1.12.12.68.12 2 .12 3.92V308h9.68v-4.16l-3.36-.36v-7.12c0-2.24 0-4.08-.16-5.24-.32-2.4-1.48-3.8-4.56-3.8-1.88 0-5.12 1.12-7.32 2.72l-.12-2.76c-2.72 0-7 .68-9.56 1.52v4.08h3.44v10.6l-3.28.36V308zm28.2-.52l-.76-4.6c-.96.16-2.08.2-2.64.2-.88 0-1.56-.2-1.92-.72-.44-.6-.6-1.44-.6-3.08v-6.6h4.8v-4.8h-4.8v-5.4l-6 .4c-.16 2.56-.24 3.68-.24 5-.52 0-2.52.12-3.72.4v4.4h3.64v7.96c0 2.64.4 4.68 1.24 5.8.84 1.16 2.56 1.88 4.6 1.88 2.64 0 4.92-.36 6.4-.84zm21.16-1.52l-2-3.92c-1.96 1.08-4.04 1.56-6.36 1.56-2.6 0-4-1.32-4.44-3.24-.08-.4-.08-1.08-.08-1.24h12.48c.08-.68.12-1.48.12-1.76 0-5.16-1.4-10.16-8.84-10.16-5.44 0-10.2 3.64-10.2 11.08 0 6.16 3.48 10.36 9.4 10.36 3.72 0 6.76-.84 9.92-2.68zm-6.36-11.04h-6.32c.28-1.88 1.6-3.24 3.44-3.24 2.04 0 2.92 1 2.92 2.48 0 .24 0 .48-.04.76zm22.48 13.08v-4.16l-3.88-.4v-9.64c1.4-.68 3.2-.96 4.72-.96 1.12 0 1.92.08 2.28.12v-5.52c-.36-.04-.92-.08-1.28-.08-2.48 0-4.64 1.32-5.8 3.32v-3.4c-3.12.04-6.68.56-9.6 1.52v4.08h3.44v10.6l-3.28.36V308zm25.32-4.56h-3.2v-8.6c0-2.84-.36-4.48-1.04-5.56-.88-1.44-2.64-2.08-5.56-2.08-2.4 0-6.92.68-9.92 1.68l.88 4.28c2.64-.64 5.44-.84 6.84-.84 1.36 0 2 .24 2.36.72.24.4.32 1.16.32 1.96v.56c-3.04.12-5.88.4-8.16 1.12-2.36.72-3.88 2.52-3.88 5.44 0 3.2 2 6.36 6.6 6.36 1.68 0 4.04-.56 5.8-2.44l.36 2.32c2.88 0 6.52-.44 8.6-1zm-9.24-.76c-.92.84-2.48 1.36-3.56 1.36-1.36 0-2.12-.8-2.12-2.08 0-.88.44-1.6 1.48-1.96 1.36-.48 3.44-.56 4.2-.64zm23.52 5.32v-4.16l-3.08-.36v-1.6l2.32-1.84 2.56 3.92c.72 1.12 1.76 2.44 2.8 3.16 1.04.72 2.56 1.04 4.4 1.04 1.32 0 2.24-.2 2.76-.36l-.28-4.92c-.32.04-.6.04-.8.04-.24 0-.92-.08-1.44-.36-.68-.36-1.52-1.12-2.44-2.44l-2.92-4.32c1.2-1.12 2.48-2.4 3.76-3.68l2.88-.28v-3.96h-11.4v4.08l2.04.24c-1.6 1.8-2.96 3.16-4.24 4.32v-18.16c-2.76 0-7.28.84-9.68 1.56V284h3.44v19.48l-3.08.36V308zm31.44-1.96l-1.84-3.88c-2.12.84-3.52 1.36-5.68 1.36-2.36 0-4.44-1.6-4.44-5.48 0-4.84 2-6.2 4.08-6.2.56 0 1.2.08 1.8.2l.36 3.24h4.76c0-3.92 0-5.92-.24-7.24-1.88-.56-4.24-.84-6.32-.84-7.12 0-10.96 4.08-10.96 11.24 0 6.24 3.56 10.2 9.4 10.2 3.4 0 6.24-.96 9.08-2.6zm21.44-.08l-2-3.92c-1.96 1.08-4.04 1.56-6.36 1.56-2.6 0-4-1.32-4.44-3.24-.08-.4-.08-1.08-.08-1.24h12.48c.08-.68.12-1.48.12-1.76 0-5.16-1.4-10.16-8.84-10.16-5.44 0-10.2 3.64-10.2 11.08 0 6.16 3.48 10.36 9.4 10.36 3.72 0 6.76-.84 9.92-2.68zm-6.36-11.04h-6.32c.28-1.88 1.6-3.24 3.44-3.24 2.04 0 2.92 1 2.92 2.48 0 .24 0 .48-.04.76z"/></g><path d="M419.366 728.8v-4.2l-3.84-.36v-17.92l3.84-.36v-4.2h-14.36v4.2l3.84.36v17.92l-3.84.36v4.2zm14.68 0v-4.16l-3.32-.36v-25.12c-2.88 0-6.4.68-9.68 1.56v4.08h3.44v19.48l-3.08.36v4.16zm25.36-.44v-3.92h-3.2v-16.16c-3.2 0-6.8.52-9.68 1.2v3.92h3.32v9.96c-1.36.48-2.52.72-3.68.72-1.08 0-1.76-.6-1.92-1.52-.12-.68-.12-1.68-.12-3.56v-10.72c-2.92 0-6.52.48-9.56 1.16v3.96h3.24v6.92c0 1.88.04 3.6.16 4.76.32 2.6 1.84 4.28 5.32 4.28 2.28 0 4.68-1 6.84-2.68l.4 2.48c3.08 0 7.12-.4 8.88-.8zm2.16-6.88c0 3.88.16 5.8.48 6.84 2.36.72 5.24 1.12 7.96 1.12 6.6 0 9.08-3.52 9.08-6.76 0-2.84-1-5.28-5.4-6.28l-3.32-.76c-1.12-.24-1.52-.88-1.52-1.6 0-.88.68-1.64 2.32-1.64.6 0 1.56.04 2.56.28l.48 2.8h4.36c0-2.4-.08-5.64-.52-6.76-1.68-.44-4.36-.72-6.64-.72-6.36 0-9.16 3.08-9.16 6.4 0 3.92 2.04 5.56 5.28 6.4l3.16.8c1 .28 1.52.68 1.52 1.64 0 .76-.44 1.6-2.28 1.6-1.12 0-2.56-.24-3.36-.6l-.64-2.76zm34.88 6.8l-.76-4.6c-.96.16-2.08.2-2.64.2-.88 0-1.56-.2-1.92-.72-.44-.6-.6-1.44-.6-3.08v-6.6h4.8v-4.8h-4.8v-5.4l-6 .4c-.16 2.56-.24 3.68-.24 5-.52 0-2.52.12-3.72.4v4.4h3.64v7.96c0 2.64.4 4.68 1.24 5.8.84 1.16 2.56 1.88 4.6 1.88 2.64 0 4.92-.36 6.4-.84zm14.76.52v-4.16l-3.88-.4v-9.64c1.4-.68 3.2-.96 4.72-.96 1.12 0 1.92.08 2.28.12v-5.52c-.36-.04-.92-.08-1.28-.08-2.48 0-4.64 1.32-5.8 3.32v-3.4c-3.12.04-6.68.56-9.6 1.52v4.08h3.44v10.6l-3.28.36v4.16zm25.32-4.56h-3.2v-8.6c0-2.84-.36-4.48-1.04-5.56-.88-1.44-2.64-2.08-5.56-2.08-2.4 0-6.92.68-9.92 1.68l.88 4.28c2.64-.64 5.44-.84 6.84-.84 1.36 0 2 .24 2.36.72.24.4.32 1.16.32 1.96v.56c-3.04.12-5.88.4-8.16 1.12-2.36.72-3.88 2.52-3.88 5.44 0 3.2 2 6.36 6.6 6.36 1.68 0 4.04-.56 5.8-2.44l.36 2.32c2.88 0 6.52-.44 8.6-1zm-9.24-.76c-.92.84-2.48 1.36-3.56 1.36-1.36 0-2.12-.8-2.12-2.08 0-.88.44-1.6 1.48-1.96 1.36-.48 3.44-.56 4.2-.64zm25.64 4.8l-.76-4.6c-.96.16-2.08.2-2.64.2-.88 0-1.56-.2-1.92-.72-.44-.6-.6-1.44-.6-3.08v-6.6h4.8v-4.8h-4.8v-5.4l-6 .4c-.16 2.56-.24 3.68-.24 5-.52 0-2.52.12-3.72.4v4.4h3.64v7.96c0 2.64.4 4.68 1.24 5.8.84 1.16 2.56 1.88 4.6 1.88 2.64 0 4.92-.36 6.4-.84zm22.92-10.08c0-6.56-3.12-10.2-9.92-10.2-7.52 0-11.16 3.84-11.16 11.12 0 6.68 3.72 10.32 10.2 10.32 7.2 0 10.88-3.96 10.88-11.24zm-6.72.72c0 4.6-1.48 5.84-3.96 5.84-2.32 0-3.84-1.2-3.84-6.28 0-3.6 1.04-5.84 4.08-5.84 3.16 0 3.72 2.36 3.72 6.28zm23.12 9.88v-4.16l-3.88-.4v-9.64c1.4-.68 3.2-.96 4.72-.96 1.12 0 1.92.08 2.28.12v-5.52c-.36-.04-.92-.08-1.28-.08-2.48 0-4.64 1.32-5.8 3.32v-3.4c-3.12.04-6.68.56-9.6 1.52v4.08h3.44v10.6l-3.28.36v4.16zm128.218-547.26v-4.2l-4.44-.32v-5.64h2.08c2.2 0 4.4-.16 6.2-.8 3.68-1.24 5.44-4.08 5.44-7.84 0-4.4-1.88-6.68-5.88-7.68-1.68-.4-5.44-.56-7.72-.56h-10.6v4.2l3.84.36v17.92l-3.84.36v4.2zm-4.44-15.32v-6.52h2.2c1.28 0 2.52.2 3.2.6.76.44 1.28 1.36 1.28 2.52 0 1.44-.6 2.48-1.68 3-.6.28-1.88.4-2.88.4zm29.12 15.32v-4.16l-3.32-.36v-10.16c1.24-.48 2.72-.68 3.92-.68.84 0 1.52.24 1.68 1.12.12.68.12 2 .12 3.92v10.32h9.68v-4.16l-3.36-.36v-7.28c0-2.24 0-3.96-.16-5.08-.32-2.4-1.56-3.8-4.56-3.8-1.8 0-5.12 1.16-7.36 2.72V151.9c-2.72 0-6.8.72-9.64 1.56v4.08h3.44v19.48l-3.08.36v4.16zm34.92-10.6c0-6.56-3.12-10.2-9.92-10.2-7.52 0-11.16 3.84-11.16 11.12 0 6.68 3.72 10.32 10.2 10.32 7.2 0 10.88-3.96 10.88-11.24zm-6.72.72c0 4.6-1.48 5.84-3.96 5.84-2.32 0-3.84-1.2-3.84-6.28 0-3.6 1.04-5.84 4.08-5.84 3.16 0 3.72 2.36 3.72 6.28zm23.96 9.36l-.76-4.6c-.96.16-2.08.2-2.64.2-.88 0-1.56-.2-1.92-.72-.44-.6-.6-1.44-.6-3.08v-6.6h4.8v-4.8h-4.8v-5.4l-6 .4c-.16 2.56-.24 3.68-.24 5-.52 0-2.52.12-3.72.4v4.4h3.64v7.96c0 2.64.4 4.68 1.24 5.8.84 1.16 2.56 1.88 4.6 1.88 2.64 0 4.92-.36 6.4-.84zm22.92-10.08c0-6.56-3.12-10.2-9.92-10.2-7.52 0-11.16 3.84-11.16 11.12 0 6.68 3.72 10.32 10.2 10.32 7.2 0 10.88-3.96 10.88-11.24zm-6.72.72c0 4.6-1.48 5.84-3.96 5.84-2.32 0-3.84-1.2-3.84-6.28 0-3.6 1.04-5.84 4.08-5.84 3.16 0 3.72 2.36 3.72 6.28zm10 2.56c0 3.88.16 5.8.48 6.84 2.36.72 5.24 1.12 7.96 1.12 6.6 0 9.08-3.52 9.08-6.76 0-2.84-1-5.28-5.4-6.28l-3.32-.76c-1.12-.24-1.52-.88-1.52-1.6 0-.88.68-1.64 2.32-1.64.6 0 1.56.04 2.56.28l.48 2.8h4.36c0-2.4-.08-5.64-.52-6.76-1.68-.44-4.36-.72-6.64-.72-6.36 0-9.16 3.08-9.16 6.4 0 3.92 2.04 5.56 5.28 6.4l3.16.8c1 .28 1.52.68 1.52 1.64 0 .76-.44 1.6-2.28 1.6-1.12 0-2.56-.24-3.36-.6l-.64-2.76zm32.92 7.32v-4.16l-3.32-.36v-10.16c1.24-.48 2.72-.68 3.92-.68.84 0 1.52.24 1.68 1.12.12.68.12 2 .12 3.92v10.32h9.68v-4.16l-3.36-.36v-7.28c0-2.24 0-3.96-.16-5.08-.32-2.4-1.56-3.8-4.56-3.8-1.8 0-5.12 1.16-7.36 2.72V151.9c-2.72 0-6.8.72-9.64 1.56v4.08h3.44v19.48l-3.08.36v4.16zm34.92-10.6c0-6.56-3.12-10.2-9.92-10.2-7.52 0-11.16 3.84-11.16 11.12 0 6.68 3.72 10.32 10.2 10.32 7.2 0 10.88-3.96 10.88-11.24zm-6.72.72c0 4.6-1.48 5.84-3.96 5.84-2.32 0-3.84-1.2-3.84-6.28 0-3.6 1.04-5.84 4.08-5.84 3.16 0 3.72 2.36 3.72 6.28zm22.16 19.72v-4.16l-4-.36v-5.12c.96.12 1.92.16 2.92.16 6.4 0 10.48-3.6 10.48-11.2 0-6.6-2.44-9.92-6.6-9.92-2.6 0-5.4 1.4-6.8 2.56l-.12-2.6c-3.12.12-6.4.6-9.56 1.52v4.08h3.48v20.52l-3.28.36v4.16zm-4-14.6v-10.04c1.2-.4 2.24-.64 3.48-.64 1.92 0 3.16 1.52 3.16 5.2 0 4.28-1.64 5.76-4.08 5.76-.96 0-1.76-.12-2.56-.28zm288.148 5.78h10.2c2.52 0 4.68-.04 7.68-.48 4.32-.64 7.04-3.12 7.04-7.52 0-3.84-2.32-5.84-6.48-6.32 3.76-1.12 5.36-3.04 5.36-6.36 0-3.32-1.88-5.28-5.88-5.96-1.68-.28-5.04-.4-7.32-.4h-10.6v4.2l3.84.36V178l-3.84.36zm10.48-11.28h2c.76 0 1.68.04 2.48.12 1.76.16 2.76 1.2 2.76 2.92 0 1.48-.68 2.32-1.88 2.76-.8.28-2.08.28-3.08.28h-2.28zm0-5.16v-5.4h2.2c.96 0 2.2.08 2.8.4.84.44 1.32 1.08 1.32 2.2 0 1.4-.72 2.2-1.8 2.52-.68.2-1.68.28-2.68.28zm38.84 11.88h-3.2v-8.6c0-2.84-.36-4.48-1.04-5.56-.88-1.44-2.64-2.08-5.56-2.08-2.4 0-6.92.68-9.92 1.68l.88 4.28c2.64-.64 5.44-.84 6.84-.84 1.36 0 2 .24 2.36.72.24.4.32 1.16.32 1.96v.56c-3.04.12-5.88.4-8.16 1.12-2.36.72-3.88 2.52-3.88 5.44 0 3.2 2 6.36 6.6 6.36 1.68 0 4.04-.56 5.8-2.44l.36 2.32c2.88 0 6.52-.44 8.6-1zm-9.24-.76c-.92.84-2.48 1.36-3.56 1.36-1.36 0-2.12-.8-2.12-2.08 0-.88.44-1.6 1.48-1.96 1.36-.48 3.44-.56 4.2-.64zm24.8 5.32v-4.16l-3.88-.4v-9.64c1.4-.68 3.2-.96 4.72-.96 1.12 0 1.92.08 2.28.12V162c-.36-.04-.92-.08-1.28-.08-2.48 0-4.64 1.32-5.8 3.32v-3.4c-3.12.04-6.68.56-9.6 1.52v4.08h3.44v10.6l-3.28.36v4.16zm20.8 0l6.24-15.64 2.44-.36v-4.12h-11.44v4.12l2.44.28c-1.36 3.96-2.36 7.2-3.16 9.88-.92-2.8-1.8-5.88-3.36-9.88l2.52-.28v-4.12h-11.72v4.12l2.44.36 6.24 15.64zm13.16 10.44c5.16-1.4 9.6-3.76 12.24-11.08l5.36-15 2.44-.36v-4.12h-11.32v4.12l2.44.28c-1.32 3.96-2.16 7.56-2.92 10.24-.92-2.6-1.96-6-3.6-10.24l2.52-.28v-4.12h-11.56v4.12l2.44.36 6 15.64h1.04c-.96 2.72-3.68 4.4-7 5.36zM219.92 443.68l-2.76-4c-2.84 2-5.88 2.6-7.8 2.6-4.16 0-6.48-3.08-6.48-8.08 0-6.8 3-9.32 7.4-9.32.88 0 2.12.12 3.2.48l.56 4.48h4.88c0-6.2-.12-8.04-.4-9.32-2.68-.64-5.04-1-8.88-1-9 0-13.8 5.44-13.8 14.92 0 8.36 4.72 13.56 12.24 13.56 4.68 0 8.72-1.88 11.84-4.32zm2.16-6.44c0 4.68.2 7.56.56 9.28 2.04.88 5.28 1.48 9.44 1.48 8.08 0 11.48-3.88 11.48-8.28 0-4.12-1.12-6.2-7.84-8.6l-3.4-1.24c-1.84-.64-2.24-1.48-2.24-2.68 0-1.16.84-2.36 4-2.36 1.16 0 2.64.2 3.8.52l.48 4.32H243c0-4.4-.08-8.28-.4-9.16-2.04-.52-5.36-.96-7.96-.96-8.36 0-11.56 3.84-11.56 8.48 0 4.96 2.84 6.88 6.72 8.08l3.52 1.04c2.32.72 3.04 1.6 3.04 3 0 1.44-.96 2.52-3.48 2.52-1.76 0-3.52-.24-5.36-.8l-.64-4.64zm24.44 0c0 4.68.2 7.56.56 9.28 2.04.88 5.28 1.48 9.44 1.48 8.08 0 11.48-3.88 11.48-8.28 0-4.12-1.12-6.2-7.84-8.6l-3.4-1.24c-1.84-.64-2.24-1.48-2.24-2.68 0-1.16.84-2.36 4-2.36 1.16 0 2.64.2 3.8.52l.48 4.32h4.64c0-4.4-.08-8.28-.4-9.16-2.04-.52-5.36-.96-7.96-.96-8.36 0-11.56 3.84-11.56 8.48 0 4.96 2.84 6.88 6.72 8.08l3.52 1.04c2.32.72 3.04 1.6 3.04 3 0 1.44-.96 2.52-3.48 2.52-1.76 0-3.52-.24-5.36-.8l-.64-4.64zm660.518 279.28v-8.64l2.08-.16v-4.12h-11.84v4.12l3.44.28v4.32c-1.32.36-2.68.56-4.36.56-4.2 0-6.52-2.72-6.52-7.84 0-6.88 3.16-9.4 7.76-9.4.92 0 2.4.2 3.44.48l.6 4.04h4.84c0-6.24-.12-7.64-.4-8.96-2.68-.64-5.36-1-9.16-1-9.28 0-14.12 5.44-14.12 14.92 0 8.36 4.84 13.56 12.48 13.56 6.2 0 9.24-1.36 11.76-2.16zm17.84 1.44v-4.16l-3.88-.4v-9.64c1.4-.68 3.2-.96 4.72-.96 1.12 0 1.92.08 2.28.12v-5.52c-.36-.04-.92-.08-1.28-.08-2.48 0-4.64 1.32-5.8 3.32v-3.4c-3.12.04-6.68.56-9.6 1.52v4.08h3.44v10.6l-3.28.36v4.16zm25.32-4.56h-3.2v-8.6c0-2.84-.36-4.48-1.04-5.56-.88-1.44-2.64-2.08-5.56-2.08-2.4 0-6.92.68-9.92 1.68l.88 4.28c2.64-.64 5.44-.84 6.84-.84 1.36 0 2 .24 2.36.72.24.4.32 1.16.32 1.96v.56c-3.04.12-5.88.4-8.16 1.12-2.36.72-3.88 2.52-3.88 5.44 0 3.2 2 6.36 6.6 6.36 1.68 0 4.04-.56 5.8-2.44l.36 2.32c2.88 0 6.52-.44 8.6-1zm-9.24-.76c-.92.84-2.48 1.36-3.56 1.36-1.36 0-2.12-.8-2.12-2.08 0-.88.44-1.6 1.48-1.96 1.36-.48 3.44-.56 4.2-.64zm34.08.96h-3.2v-25.32c-3.24.04-6.84.72-10.08 1.6v4.08h3.72v3.96c-.96-.36-2.56-.52-3.6-.52-5 0-9.6 3-9.6 10.96 0 6.32 3.36 10 7.84 10 2.2 0 4.08-.88 5.68-2.36l.36 2.32c3 0 6.36-.28 8.88-.8zm-9.56-1.24c-1.28.68-2.4 1-3.2 1-1.96 0-3.48-1.04-3.48-5.32 0-4.6 2.04-5.44 4.08-5.44.72 0 1.64.08 2.6.28zm20.48-20.48c0-2.52-1.4-3.32-3.28-3.32-1.84 0-3.4.92-3.4 3.32s1.56 3.28 3.28 3.28c2 0 3.4-1.04 3.4-3.28zm3.88 26.08v-4.16l-3.28-.36v-16.2c-3.16 0-6.68.6-9.68 1.48v4.12h3.44v10.6l-3.28.36v4.16zm21.68-2.04l-2-3.92c-1.96 1.08-4.04 1.56-6.36 1.56-2.6 0-4-1.32-4.44-3.24-.08-.4-.08-1.08-.08-1.24h12.48c.08-.68.12-1.48.12-1.76 0-5.16-1.4-10.16-8.84-10.16-5.44 0-10.2 3.64-10.2 11.08 0 6.16 3.48 10.36 9.4 10.36 3.72 0 6.76-.84 9.92-2.68zm-6.36-11.04h-6.32c.28-1.88 1.6-3.24 3.44-3.24 2.04 0 2.92 1 2.92 2.48 0 .24 0 .48-.04.76zm21.88 13.08v-4.16l-3.28-.36v-10.16c1.4-.52 2.72-.68 3.92-.68.84 0 1.52.24 1.68 1.12.12.68.12 2 .12 3.92v10.32h9.68v-4.16l-3.36-.36v-7.12c0-2.24 0-4.08-.16-5.24-.32-2.4-1.48-3.8-4.56-3.8-1.88 0-5.12 1.12-7.32 2.72l-.12-2.76c-2.72 0-7 .68-9.56 1.52v4.08h3.44v10.6l-3.28.36v4.16zm28.2-.52l-.76-4.6c-.96.16-2.08.2-2.64.2-.88 0-1.56-.2-1.92-.72-.44-.6-.6-1.44-.6-3.08v-6.6h4.8v-4.8h-4.8v-5.4l-6 .4c-.16 2.56-.24 3.68-.24 5-.52 0-2.52.12-3.72.4v4.4h3.64v7.96c0 2.64.4 4.68 1.24 5.8.84 1.16 2.56 1.88 4.6 1.88 2.64 0 4.92-.36 6.4-.84zm4.44 10.96c5.16-1.4 9.6-3.76 12.24-11.08l5.36-15 2.44-.36v-4.12h-11.32v4.12l2.44.28c-1.32 3.96-2.16 7.56-2.92 10.24-.92-2.6-1.96-6-3.6-10.24l2.52-.28v-4.12h-11.56v4.12l2.44.36 6 15.64h1.04c-.96 2.72-3.68 4.4-7 5.36zM1351 473.56v-4.2l-4.76-.32v-6.24h8.12v-5.48h-8.12V452h7.28l.6 3.52h4.44c0-6-.24-7.96-.48-9h-22.36v4.2l3.84.36V469l-3.84.36v4.2zm17.68-26.08c0-2.52-1.4-3.32-3.28-3.32-1.84 0-3.4.92-3.4 3.32s1.56 3.28 3.28 3.28c2 0 3.4-1.04 3.4-3.28zm3.88 26.08v-4.16l-3.28-.36v-16.2c-3.16 0-6.68.6-9.68 1.48v4.12h3.44v10.6l-3.28.36v4.16zm14.36 0v-4.16l-3.32-.36v-25.12c-2.88 0-6.4.68-9.68 1.56v4.08h3.44v19.48l-3.08.36v4.16zm16.12-.52l-.76-4.6c-.96.16-2.08.2-2.64.2-.88 0-1.56-.2-1.92-.72-.44-.6-.6-1.44-.6-3.08v-6.6h4.8v-4.8h-4.8v-5.4l-6 .4c-.16 2.56-.24 3.68-.24 5-.52 0-2.52.12-3.72.4v4.4h3.64v7.96c0 2.64.4 4.68 1.24 5.8.84 1.16 2.56 1.88 4.6 1.88 2.64 0 4.92-.36 6.4-.84zm14.76.52v-4.16l-3.88-.4v-9.64c1.4-.68 3.2-.96 4.72-.96 1.12 0 1.92.08 2.28.12V453c-.36-.04-.92-.08-1.28-.08-2.48 0-4.64 1.32-5.8 3.32v-3.4c-3.12.04-6.68.56-9.6 1.52v4.08h3.44v10.6l-3.28.36v4.16zm9.16 10.44c5.16-1.4 9.6-3.76 12.24-11.08l5.36-15 2.44-.36v-4.12h-11.32v4.12l2.44.28c-1.32 3.96-2.16 7.56-2.92 10.24-.92-2.6-1.96-6-3.6-10.24l2.52-.28v-4.12h-11.56v4.12l2.44.36 6 15.64h1.04c-.96 2.72-3.68 4.4-7 5.36z" opacity=".475" fill="#AD3523"/></svg>