<svg xmlns="http://www.w3.org/2000/svg" width="1600" height="900"><path d="M0 0h1600v900H0z"/><path d="M0 0h1600v900H0V0z" fill="#B43B18" opacity=".453"/><path d="M799.075 150.457l-288.127 99.195 45.529 369.288 242.905 130.603 244.155-132.376 45.515-369.274-289.977-97.436zm0 0" fill="#B2B2B2"/><path d="M1060.315 269.239l-261.909-87.373v536.473l219.492-118.833 42.417-330.267zm0 0" fill="#B52E31"/><path d="M543.281 270.814l39.012 330.271 216.106 117.254V181.855l-255.118 88.959zm0 0" fill="#E23237"/><path d="M859.113 448.7L798.88 325.654 745.856 448.7h113.257zm22.963 51.741h-159.66l-35.72 87.401-66.439 1.199 178.149-387.694 184.358 387.691h-61.582l-39.106-88.597zm0 0" fill="#F2F2F2"/><path d="M798.406 201.347l.474 124.307 60.17 123.141h-60.512l-.136 51.564 83.67.079 39.107 88.614 63.575 1.155-186.348-388.86zm0 0" fill="#B2B2B2"/></svg>