<svg xmlns="http://www.w3.org/2000/svg" width="1600" height="900"><path fill="#F7DF1E" d="M0 0h1600v900H0z"/><path d="M0 0h1600v900H0V0z" fill="#2F2B00" opacity=".882"/><path d="M526 176h548v548H526z" fill="#F7DF1E"/><path d="M670.089 633.949l41.937-25.38c8.091 14.345 15.451 26.481 33.104 26.481 16.922 0 27.591-6.619 27.591-32.367V427.584h51.498v175.828c0 53.338-31.266 77.617-76.881 77.617-41.197 0-65.11-21.336-77.249-47.085m182.102-5.513l41.931-24.279c11.039 18.027 25.384 31.269 50.765 31.269 21.339 0 34.945-10.669 34.945-25.383 0-17.657-13.977-23.911-37.52-34.208l-12.872-5.521c-37.155-15.815-61.802-35.679-61.802-77.614 0-38.624 29.428-68.054 75.411-68.054 32.738 0 56.281 11.405 73.2 41.201l-40.096 25.748c-8.829-15.815-18.391-22.069-33.104-22.069-15.082 0-24.647 9.564-24.647 22.069 0 15.451 9.565 21.705 31.634 31.27l12.873 5.517c43.775 18.761 68.422 37.888 68.422 80.925 0 46.351-36.417 71.731-85.34 71.731-47.821 0-78.721-22.805-93.8-52.602" fill="#2F2B00"/></svg>