<svg xmlns="http://www.w3.org/2000/svg" width="1600" height="900"><path fill="#262408" d="M0 0h1600v900H0z"/><g fill="#ACF063"><path d="M1057.849 274.871c0 31.821-25.796 57.617-57.617 57.617-31.821 0-57.616-25.796-57.616-57.617 0-31.82 25.795-57.616 57.616-57.616 31.821 0 57.617 25.796 57.617 57.616z"/><path d="M999.887 206.219v-.005h139.234c-25.311-51.108-77.992-86.252-138.889-86.252-49.297 0-93.213 23.03-121.584 58.916l53.119 90.838c2.628-35.396 32.093-63.319 68.12-63.497zm.345 137.309c-29.711 0-55.011-18.873-64.573-45.282L871.55 188.608c-16.56 24.656-26.227 54.33-26.227 86.263 0 77.975 57.614 142.483 132.594 153.303l53.446-92.093c-9.345 4.761-19.923 7.447-31.131 7.447zm143.831-126.273h-106.484c18.844 12.239 31.31 33.471 31.31 57.616 0 11.873-3.015 23.043-8.319 32.785l.039.023-70.658 121.754c3.399.222 6.825.348 10.281.348 85.555 0 154.909-69.355 154.909-154.91 0-20.363-3.936-39.806-11.078-57.616z"/></g><g fill="#C5FF7C"><path d="M452.379 241.301s-.471.577-1.18 1.537c-.101.524-.206 1.048-.302 1.574.446-1.242.938-2.294 1.482-3.111zm46.884-75.711c.304-.309.6-.623.907-.929 14.129-14.13 30.581-25.222 48.898-32.969 18.96-8.02 39.105-12.086 59.875-12.086 19.606 0 38.653 3.627 56.674 10.779 10.526 1.818 24.557 5.32 36.246 11.966-26.232-18.629-58.296-29.583-92.92-29.583-44.889 0-85.472 18.417-114.624 48.099a29.452 29.452 0 004.944 4.723z"/><path d="M556.299 286.424a19.593 19.593 0 01-2.89-2.966 61.84 61.84 0 00-.455 7.356c-.001 4.83.603 10.043 2.253 15.211 1.653 5.171 4.337 10.299 8.568 15.059 2.823 3.174 6.339 6.189 10.738 8.929l-.246.396c8.262.15 21.708-.009 28.522-2.28 10.255-3.419 26.664-16.409 26.664-16.409 4.102-4.102 8.887-2.051 12.99-2.051 4.102 0 5.469-6.153 0-12.306-5.47-6.153-24.613-12.306-38.97-2.735-14.358 9.572-34.868 2.051-47.174-8.204zm9.91-90.228c-.915 3.407-1.708 7.732-1.706 12.434 0 4.747.796 9.852 3.028 14.874 1.791 4.029 3.482 6.983 5.019 9.356 1.081 1.667 2.088 3.045 3.031 4.328 1.925-1.771 4.175-3.548 6.015-4.775 4.102-2.734 19.826-10.255 21.877-12.306 2.051-2.051 6.153-12.99 2.735-16.408-3.418-3.419-25.296-1.368-32.133-2.735-2.881-.576-5.638-2.609-7.866-4.768zm4.415 66.897l.032.085c.027-.052.048-.108.074-.162l-.106.077zm202.402-30.68c0 5.557-5.019 13.345-5.991 14.799.203-.516.521-2.144.521-7.279 0-7.52 2.051-26.663-7.52-47.858-9.572-21.194-23.929-31.449-23.929-31.449v4.786c-2.051-6.837-21.194-19.827-21.194-19.827v6.837c34.184 31.449 37.602 53.327 37.602 53.327-6.153-19.827-23.929-34.868-38.97-49.225s-46.49-21.878-46.49-21.878c33.5 19.143 49.909 49.225 49.909 49.225-17.092-16.408-30.766-15.041-30.766-15.041 10.255 7.521 15.041 15.725 24.613 30.766 9.571 15.041 8.888 50.592 8.888 50.592-4.786-11.622-14.358-16.408-14.358-16.408s2.051 20.51 3.419 32.133c1.367 11.623-4.786 33.5-4.786 33.5 0-8.204-4.786-10.255-4.786-10.255s1.367 4.786-5.469 26.664c-6.837 21.878-19.827 29.398-21.878 28.714-2.051-.683 0-4.102 0-4.102s-3.419-2.734-8.204 4.786c-4.037 6.343-10.991 9.768-13.07 10.685 2.23-1.266 2.814-5.899 2.814-5.899s-4.785 2.735-26.663 6.153c-21.878 3.418-32.133-6.153-32.133-6.153 2.051-2.051 11.622 0 11.622 0 0-2.051-10.939-5.47-21.877-6.837-8.894-1.112-13.206-5.236-15.269-8.544-4.102-2.756-7.542-5.789-10.395-8.998a48.107 48.107 0 01-7.631-11.551c-3.728-7.939-4.917-16.074-4.918-23.263.002-6.787 1.057-12.756 2.112-17.062 1.056-4.304 2.116-6.947 2.164-7.065l.146.058c1.284-3.951 3.804-7.127 6.788-8.422a29.924 29.924 0 00-2.888-1.756c-4.464-2.388-9.525-3.379-14.499-2.554-4.985.79-9.757 3.26-13.998 6.502-4.07 3.105-7.309 7.527-9.434 12.407-2.14 4.896-3.212 10.3-3.212 15.731-.004 5.436 1.065 10.896 3.036 16.039 1.966 5.149 4.819 9.98 8.268 14.354 3.45 4.38 7.489 8.311 11.871 11.818-4.57-3.259-8.847-6.975-12.59-11.219-3.741-4.236-6.943-9.011-9.279-14.236-2.339-5.217-3.796-10.885-4.114-16.676-.321-5.786.491-11.686 2.546-17.209 2.058-5.512 5.331-10.671 9.988-14.667 2.25-1.884 4.699-3.596 7.358-5.012 2.655-1.418 5.541-2.523 8.58-3.145a27.564 27.564 0 019.313-.31c3.103.422 6.109 1.376 8.893 2.698 2.788 1.322 5.362 3.001 7.72 4.911a44.067 44.067 0 013.38 3.044 40.622 40.622 0 011.574 1.66c.427.48.821.935 1.248 1.475 2.436-6.315.728-16.871.328-19.087-1.289-1.825-3.119-4.128-5.18-7.415-1.554-2.48-3.235-5.523-4.955-9.395-2.691-6.053-3.618-12.147-3.617-17.651.002-6.428 1.251-12.077 2.494-16.153a57.363 57.363 0 011.117-3.298c3.864-16.806 22.369-33.338 22.369-33.338-25.98-3.418-43.756 20.511-43.756 20.511-.072-.045-.145-.084-.218-.128-1.842 2.042-8.088 9.347-8.67 15.169 0 0 .216-10.463 2.833-17.779-9.913-3.158-21.58-1.508-27.563-.268l.038.218c-6.131 1.1-11.731 3.459-16.706 6.429-4.973 2.968-9.311 6.544-12.876 10.007-7.121 6.912-11.141 13.368-11.183 13.44l.001.003-.193-.119c-12.583 18.236-20.493 57.122-20.493 57.122 1.368-6.153 7.521-13.674 7.521-13.674-6.837 10.256-5.469 57.43-5.469 57.43 0-7.521 4.102-16.409 4.102-16.409 1.367 15.725 8.204 66.317 52.643 104.604 44.439 38.286 82.042 41.704 82.042 41.704-8.888-2.735-10.939-6.837-10.939-6.837 28.715 11.623 46.49 9.572 46.49 9.572-4.785-2.735-5.469-4.786-5.469-4.786 30.766 1.368 71.787-9.571 81.358-16.408 9.572-6.837 17.776-20.511 17.776-20.511 24.612-11.622 41.704-35.551 46.49-47.857 4.786-12.307 0-25.297 0-25.297s0-.683 11.623-26.663c11.622-25.98 0-62.9 0-62.9zM485.969 174.2a61.136 61.136 0 019.316-4.582c-13.162-10.963-12.14-25.4-12.14-25.4-13.171 12.717-16.385 34.179-17.059 47.158.186-.218.371-.436.565-.659 4.456-5.125 10.959-11.498 19.318-16.517z"/></g><g fill="#92D649"><path d="M595.492 477.078c-84.12 0-152.324 68.205-152.324 152.324 0 81.694 64.324 148.353 145.079 152.142 2.425.122 4.82.182 7.245.182 39.013 0 74.57-14.671 101.519-38.77-17.855 11.852-38.741 18.642-61.051 18.642-36.285 0-68.751-18.006-90.606-46.379-16.855-19.886-27.737-49.259-28.495-82.24v-7.184c.758-32.981 11.64-62.385 28.495-82.24 21.855-28.373 54.351-46.379 90.606-46.379 22.31 0 43.196 6.82 61.051 18.673-26.797-23.978-62.173-38.619-100.943-38.771h-.576z"/><path d="M553.743 546.308c13.755-16.23 31.537-26.046 50.93-26.046 43.649 0 79.034 49.497 79.034 110.511 0 61.043-35.385 110.511-79.034 110.511-19.423 0-37.175-9.787-50.93-26.017 21.512 27.926 53.466 45.648 89.179 45.648 21.959 0 42.516-6.713 60.089-18.349 30.7-27.448 50.004-67.338 50.004-111.763 0-44.396-19.304-84.316-50.004-111.764-17.573-11.666-38.13-18.349-60.089-18.349-35.713 0-67.667 17.722-89.179 45.648"/></g><path d="M865.725 612.306c8.952-70.461 56.988-134.38 143.14-135.228 52.014.994 94.815 24.559 120.25 69.5 12.795 23.457 16.786 48.086 17.634 75.245v31.927H955.566c.875 78.847 116.01 76.163 165.607 41.402v64.18c-29.037 17.451-94.885 32.994-145.895 13-43.451-16.321-74.397-61.75-74.185-105.483-1.413-56.733 28.19-94.249 74.185-115.586-9.75 12.102-17.169 25.434-21.055 48.467h107.956s6.314-64.512-61.092-64.512c-63.587 2.247-109.44 39.219-135.369 77.081z" fill="#79BD30"/></svg>