<svg xmlns="http://www.w3.org/2000/svg" width="1600" height="900"><path fill="#350000" d="M0 0h1600v900H0z"/><path d="M1065.188 651.011l-75.882 60.795 107.205 68.475zM716.705 218.013l-78.751-98.294-75.881 60.795 78.416 97.868z" fill="#B43B18"/><path d="M695.615 598.376c32.979 23.278 71.955 14.848 112.214-11.645-41.376-32.332-82.753-64.669-124.128-97.004-21.222 45.685-21.794 84.859 11.914 108.649zm390.042-466.404c-69.654 15.043-322.153 207.808-395.022 345.079l129.348 99.706c125.77-107.35 270.357-380.155 265.674-444.785zM956.45 361.449a5.925 5.925 0 01-8.282 1.239l-70.079-51.831a5.916 5.916 0 01-1.238-8.278 5.917 5.917 0 018.278-1.24l70.08 51.831a5.918 5.918 0 011.241 8.279zm25.42-30.421a5.916 5.916 0 01-8.276 1.241l-70.081-51.829a5.92 5.92 0 117.041-9.516l70.078 51.829a5.913 5.913 0 011.238 8.275z" fill="#FFF"/><path d="M652.368 543.466c-98.972-1.247-83.917 90.294-83.917 90.294 20.481 84.598-64.962 95.656-64.962 95.656 176.2 121.169 249.628-103.962 249.628-103.962-104.034 14.309-100.749-81.988-100.749-81.988z" fill="#FFF"/><path d="M720.483 378.219l67.749-70.939-58.628-73.175-76.217 60.373zm217.312 115.729l-64.108 75.487L976.593 697.87l75.883-60.794z" fill="#B43B18"/></svg>