<svg xmlns="http://www.w3.org/2000/svg" width="1600" height="900"><path fill="#002400" d="M0 0h1600v900H0z"/><path d="M546.23 457.901v102.402h.114c.465 11.353 7.082 24.769 18.479 38.663l15.435-124.693-34.028-16.372zm253.796 115.535c-13.529 0-25.555-5.623-25.555-5.623l-143.26-68.954 20.309 163.533c41.399 19.674 91.956 33.637 146.89 33.637 137.977 0 250.028-87.05 252.054-135.719h.151V459.19L825.644 567.725s-12.076 5.711-25.618 5.711z" fill="#92D649"/><path d="M574.836 710.382s5.17 24.989 29.429 24.989c24.26 0 29.43-24.989 29.43-24.989l-29.43-224.341-29.429 224.341zm617.347-365.784l-367.067-175.03c-13.812-6.585-36.417-6.585-50.23 0L407.813 344.529c-13.806 6.598-13.806 17.372 0 23.957l160.488 76.489c7.132 3.403 13.592 6.259 18.221 8.12 4.34 1.743 7.158 3.529 7.158 3.07 0-4.221 1.962-6.938 3.377-8.076.623-.516 3.485-2.17 7.58-4.403l23.693-12.309 128.845-66.948c-1.151-2.421-1.925-4.943-1.925-7.617 0-15.441 20.026-27.951 44.726-27.951 24.693 0 44.726 12.517 44.726 27.951 0 15.442-20.033 27.958-44.726 27.958a65.653 65.653 0 01-20.857-3.39l-155.676 80.886s-2.252 1.666-2.252 4.22c0 2.654 1.378 3.931 1.378 3.931 5.767 3.221 11.635 6.026 19.46 9.806l132.87 63.306c13.812 6.642 36.398 6.642 50.217 0l367.061-174.948c13.818-6.624 13.818-17.398.006-23.983z" fill="#FFF"/></svg>