<svg xmlns="http://www.w3.org/2000/svg" width="1600" height="900"><path fill="#5FA316" d="M0 0h1600v900H0z"/><path d="M0 0h1600v900H0V0z" opacity=".691"/><path d="M834.624 510.26c3.966 4.939 3.647 12.174-.939 16.739-4.59 4.557-11.817 4.842-16.73.86a38.495 38.495 0 01-16.961 3.915c-21.321 0-38.613-17.288-38.613-38.613a38.473 38.473 0 013.953-17.036l-63.727-64.008c-4.888-4.909-4.863-12.849.05-17.733 4.909-4.883 12.848-4.862 17.732.046l63.723 64a38.441 38.441 0 0116.882-3.877c21.329 0 38.613 17.288 38.613 38.608 0 6.146-1.43 11.947-3.983 17.099zm83.95-135.666c-30.338-30.338-72.267-49.11-118.568-49.11-46.309 0-88.23 18.772-118.571 49.11-30.342 30.337-49.11 72.266-49.11 118.571 0 46.306 18.768 88.226 49.11 118.568 30.341 30.342 72.262 49.118 118.571 49.118 46.301 0 88.23-18.776 118.568-49.118 30.337-30.338 49.114-72.262 49.114-118.568 0-46.305-18.777-88.234-49.114-118.571zm-68.263-143.816h-29.345v20.151c40.034 3.416 77.297 16.529 109.429 36.99l28.812-32.735c4.578-5.199 12.559-5.697 17.749-1.132l37.762 33.234c5.19 4.569 5.697 12.564 1.132 17.749l-28.829 32.753c35.041 42.134 56.119 96.291 56.119 155.373 0 67.144-27.215 127.933-71.214 171.924-43.991 43.995-104.784 71.21-171.924 71.21-67.148 0-127.932-27.215-171.932-71.21-43.995-43.991-71.21-104.78-71.21-171.924 0-59.087 21.077-113.243 56.119-155.373l-28.842-32.77c-4.569-5.189-4.062-13.175 1.132-17.744l37.758-33.235c5.19-4.569 13.176-4.066 17.745 1.128l28.824 32.748c32.141-20.461 69.408-33.578 109.442-36.991v-20.151h-29.345c-6.916 0-12.576-5.642-12.576-12.572v-41.92c0-6.921 5.66-12.576 12.576-12.576h100.613c6.922 0 12.577 5.663 12.577 12.576v41.925c.004 6.908-5.647 12.572-12.572 12.572z" fill="#F4F1C7"/></svg>