<svg xmlns="http://www.w3.org/2000/svg" width="1600" height="900"><path fill="#48440E" d="M0 0h1600v900H0z"/><path d="M0 0h1600v900H0V0z" opacity=".475"/><g fill="#8CBA4D"><path d="M601.357 114.749h30.969v29.935h28.332v-29.935h30.975v90.648h-30.975v-30.354h-28.332v30.352h-30.969v-90.646zm131.002 30.059H705.09v-30.059h85.516v30.061h-27.277v60.587h-30.971v-60.589zm71.826-30.059h32.294l19.864 31.851 19.845-31.851h32.307v90.648h-30.843v-44.929l-21.309 32.229h-.532l-21.324-32.229v44.927h-30.302v-90.646zm119.726 0h30.983v60.687h43.556v29.959h-74.539v-90.646zM719.535 465.186h80.464v-61.051h-86.035l5.571 61.051zM556.717 245.144l44.304 486.103 198.858 54.004 199.046-53.979 44.358-486.128H556.717zm404.236 455.177l-160.954 43.651v-61.868l-.098.029-124.841-33.904-8.73-95.727h61.179l4.53 49.663 67.875 17.933.086-.028v-95.264H663.801l-16.439-180.292h152.637v-59.62h198.863l-37.909 415.427z"/><path d="M875.016 524.806h-75.017v95.266l67.944-17.941 7.073-77.325zm-75.017-239.912v59.62h152.638l-5.459 59.621H799.999v61.051h141.632l-16.72 183.043-124.912 33.875v61.868l160.954-43.651 37.908-415.429H799.999z" opacity=".58"/><path d="M799.998 344.513H647.36l16.44 180.292h136.198v-59.62h-80.463l-5.571-61.051h86.034zm.001 275.557l-.086.027-67.874-17.933-4.53-49.663h-61.181l8.73 95.726 124.843 33.904.098-.027z" opacity=".2"/></g></svg>