<svg xmlns="http://www.w3.org/2000/svg" width="1600" height="900"><path fill="#43376E" d="M0 0h1600v900H0z"/><path d="M1247.8 541.67h10.2c2.52 0 4.68-.04 7.68-.48 4.32-.64 7.04-3.12 7.04-7.52 0-3.84-2.32-5.84-6.48-6.32 3.76-1.12 5.36-3.04 5.36-6.36 0-3.32-1.88-5.28-5.88-5.96-1.68-.28-5.04-.4-7.32-.4h-10.6v4.2l3.84.36v17.92l-3.84.36zm10.48-11.28h2c.76 0 1.68.04 2.48.12 1.76.16 2.76 1.2 2.76 2.92 0 1.48-.68 2.32-1.88 2.76-.8.28-2.08.28-3.08.28h-2.28zm0-5.16v-5.4h2.2c.96 0 2.2.08 2.8.4.84.44 1.32 1.08 1.32 2.2 0 1.4-.72 2.2-1.8 2.52-.68.2-1.68.28-2.68.28zm39.16 5.84c0-6.56-3.12-10.2-9.92-10.2-7.52 0-11.16 3.84-11.16 11.12 0 6.68 3.72 10.32 10.2 10.32 7.2 0 10.88-3.96 10.88-11.24zm-6.72.72c0 4.6-1.48 5.84-3.96 5.84-2.32 0-3.84-1.2-3.84-6.28 0-3.6 1.04-5.84 4.08-5.84 3.16 0 3.72 2.36 3.72 6.28zm31.32-.72c0-6.56-3.12-10.2-9.92-10.2-7.52 0-11.16 3.84-11.16 11.12 0 6.68 3.72 10.32 10.2 10.32 7.2 0 10.88-3.96 10.88-11.24zm-6.72.72c0 4.6-1.48 5.84-3.96 5.84-2.32 0-3.84-1.2-3.84-6.28 0-3.6 1.04-5.84 4.08-5.84 3.16 0 3.72 2.36 3.72 6.28zm23.96 9.36l-.76-4.6c-.96.16-2.08.2-2.64.2-.88 0-1.56-.2-1.92-.72-.44-.6-.6-1.44-.6-3.08v-6.6h4.8v-4.8h-4.8v-5.4l-6 .4c-.16 2.56-.24 3.68-.24 5-.52 0-2.52.12-3.72.4v4.4h3.64v7.96c0 2.64.4 4.68 1.24 5.8.84 1.16 2.56 1.88 4.6 1.88 2.64 0 4.92-.36 6.4-.84zm2.16-6.8c0 3.88.16 5.8.48 6.84 2.36.72 5.24 1.12 7.96 1.12 6.6 0 9.08-3.52 9.08-6.76 0-2.84-1-5.28-5.4-6.28l-3.32-.76c-1.12-.24-1.52-.88-1.52-1.6 0-.88.68-1.64 2.32-1.64.6 0 1.56.04 2.56.28l.48 2.8h4.36c0-2.4-.08-5.64-.52-6.76-1.68-.44-4.36-.72-6.64-.72-6.36 0-9.16 3.08-9.16 6.4 0 3.92 2.04 5.56 5.28 6.4l3.16.8c1 .28 1.52.68 1.52 1.64 0 .76-.44 1.6-2.28 1.6-1.12 0-2.56-.24-3.36-.6l-.64-2.76zm34.88 6.8l-.76-4.6c-.96.16-2.08.2-2.64.2-.88 0-1.56-.2-1.92-.72-.44-.6-.6-1.44-.6-3.08v-6.6h4.8v-4.8h-4.8v-5.4l-6 .4c-.16 2.56-.24 3.68-.24 5-.52 0-2.52.12-3.72.4v4.4h3.64v7.96c0 2.64.4 4.68 1.24 5.8.84 1.16 2.56 1.88 4.6 1.88 2.64 0 4.92-.36 6.4-.84zm14.76.52v-4.16l-3.88-.4v-9.64c1.4-.68 3.2-.96 4.72-.96 1.12 0 1.92.08 2.28.12v-5.52c-.36-.04-.92-.08-1.28-.08-2.48 0-4.64 1.32-5.8 3.32v-3.4c-3.12.04-6.68.56-9.6 1.52v4.08h3.44v10.6l-3.28.36v4.16zm25.32-4.56h-3.2v-8.6c0-2.84-.36-4.48-1.04-5.56-.88-1.44-2.64-2.08-5.56-2.08-2.4 0-6.92.68-9.92 1.68l.88 4.28c2.64-.64 5.44-.84 6.84-.84 1.36 0 2 .24 2.36.72.24.4.32 1.16.32 1.96v.56c-3.04.12-5.88.4-8.16 1.12-2.36.72-3.88 2.52-3.88 5.44 0 3.2 2 6.36 6.6 6.36 1.68 0 4.04-.56 5.8-2.44l.36 2.32c2.88 0 6.52-.44 8.6-1zm-9.24-.76c-.92.84-2.48 1.36-3.56 1.36-1.36 0-2.12-.8-2.12-2.08 0-.88.44-1.6 1.48-1.96 1.36-.48 3.44-.56 4.2-.64zm23.84 15.16v-4.16l-4-.36v-5.12c.96.12 1.92.16 2.92.16 6.4 0 10.48-3.6 10.48-11.2 0-6.6-2.44-9.92-6.6-9.92-2.6 0-5.4 1.4-6.8 2.56l-.12-2.6c-3.12.12-6.4.6-9.56 1.52v4.08h3.48v20.52l-3.28.36v4.16zm-4-14.6v-10.04c1.2-.4 2.24-.64 3.48-.64 1.92 0 3.16 1.52 3.16 5.2 0 4.28-1.64 5.76-4.08 5.76-.96 0-1.76-.12-2.56-.28zm43.44 5.16v-6.2h3.88v-5.12h-3.88v-14.96h-6.84l-11.28 16.44v3.64h11.6v6.2zm-6.52-11.32h-5.6c2.84-4.28 4.16-6.16 5.68-8.64-.08 2.76-.08 4.36-.08 8.64zM115.87 578.67v-4.16l-3.96-.36v-10.8h4.16v-4.8h-4.16v-1c0-1.24.12-2.08.52-2.68.44-.6 1.32-.8 2.52-.8.68 0 1.48.04 2.36.16l.6-4.52c-1.12-.24-3.32-.44-4.68-.44-2.6 0-4.68.8-5.92 2.16-1.12 1.16-1.64 3.12-1.64 5.92v1.2c-.6 0-2.4.12-3.44.36v4.44h3.44v10.8l-3.28.36v4.16zm23.72-10.6c0-6.56-3.12-10.2-9.92-10.2-7.52 0-11.16 3.84-11.16 11.12 0 6.68 3.72 10.32 10.2 10.32 7.2 0 10.88-3.96 10.88-11.24zm-6.72.72c0 4.6-1.48 5.84-3.96 5.84-2.32 0-3.84-1.2-3.84-6.28 0-3.6 1.04-5.84 4.08-5.84 3.16 0 3.72 2.36 3.72 6.28zm23.12 9.88v-4.16l-3.88-.4v-9.64c1.4-.68 3.2-.96 4.72-.96 1.12 0 1.92.08 2.28.12v-5.52c-.36-.04-.92-.08-1.28-.08-2.48 0-4.64 1.32-5.8 3.32v-3.4c-3.12.04-6.68.56-9.6 1.52v4.08h3.44v10.6l-3.28.36v4.16zm18.2 0v-4.16l-3.24-.36v-10.16c1.32-.52 2.52-.68 3.76-.68.8 0 1.4.24 1.56 1.08.12.72.12 2.04.12 3.96v10.32h9.68v-4.16l-3.36-.36v-7.28c0-1.12 0-2-.04-2.88 1.32-.48 2.52-.68 3.72-.68.8 0 1.44.24 1.6 1.12.16.68.16 2 .16 3.92v10.32h9.68v-4.16l-3.4-.36v-7.28c0-2.24 0-4-.16-5.12-.32-2.4-1.64-3.76-4.48-3.76-2.44 0-5.04 1.2-7.4 2.84-.52-1.88-1.72-2.84-4.24-2.84-2 0-5 1.16-7.2 2.72l-.12-2.76c-2.72 0-6.68.68-9.56 1.48v4.12h3.44v10.6l-3.28.36v4.16zm48.92-.44v-3.92h-3.2v-16.16c-3.2 0-6.8.52-9.68 1.2v3.92h3.32v9.96c-1.36.48-2.52.72-3.68.72-1.08 0-1.76-.6-1.92-1.52-.12-.68-.12-1.68-.12-3.56v-10.72c-2.92 0-6.52.48-9.56 1.16v3.96h3.24v6.92c0 1.88.04 3.6.16 4.76.32 2.6 1.84 4.28 5.32 4.28 2.28 0 4.68-1 6.84-2.68l.4 2.48c3.08 0 7.12-.4 8.88-.8zm14.24.44v-4.16l-3.32-.36v-25.12c-2.88 0-6.4.68-9.68 1.56v4.08h3.44v19.48l-3.08.36v4.16zm23.52-4.56h-3.2v-8.6c0-2.84-.36-4.48-1.04-5.56-.88-1.44-2.64-2.08-5.56-2.08-2.4 0-6.92.68-9.92 1.68l.88 4.28c2.64-.64 5.44-.84 6.84-.84 1.36 0 2 .24 2.36.72.24.4.32 1.16.32 1.96v.56c-3.04.12-5.88.4-8.16 1.12-2.36.72-3.88 2.52-3.88 5.44 0 3.2 2 6.36 6.6 6.36 1.68 0 4.04-.56 5.8-2.44l.36 2.32c2.88 0 6.52-.44 8.6-1zm-9.24-.76c-.92.84-2.48 1.36-3.56 1.36-1.36 0-2.12-.8-2.12-2.08 0-.88.44-1.6 1.48-1.96 1.36-.48 3.44-.56 4.2-.64zm-1.36-17.08l6.6-6.4h-6.32l-4.8 6.4zm26.16 22.4v-4.16l-3.88-.4v-9.64c1.4-.68 3.2-.96 4.72-.96 1.12 0 1.92.08 2.28.12v-5.52c-.36-.04-.92-.08-1.28-.08-2.48 0-4.64 1.32-5.8 3.32v-3.4c-3.12.04-6.68.56-9.6 1.52v4.08h3.44v10.6l-3.28.36v4.16zm-2.64-28.48l-2.76 3.12-2.68-3.12h-4.44l4.64 6.08h4.88l4.76-6.08zm26.08 26.44l-2-3.92c-1.96 1.08-4.04 1.56-6.36 1.56-2.6 0-4-1.32-4.44-3.24-.08-.4-.08-1.08-.08-1.24h12.48c.08-.68.12-1.48.12-1.76 0-5.16-1.4-10.16-8.84-10.16-5.44 0-10.2 3.64-10.2 11.08 0 6.16 3.48 10.36 9.4 10.36 3.72 0 6.76-.84 9.92-2.68zm-6.36-11.04h-6.32c.28-1.88 1.6-3.24 3.44-3.24 2.04 0 2.92 1 2.92 2.48 0 .24 0 .48-.04.76zm-72.64-212.92c.24-1.32.4-3.4.4-9.52h-4.52l-.6 4.28h-8.08v-17.24l4.2-.36v-4.2h-14.72v4.2l3.84.36v17.92l-3.84.36v4.2zm26.12 0c.24-1.28.4-3.44.4-9.52h-4.52l-.6 4.28h-8.08v-5.88h7.76v-5.48h-7.76v-4.96h7.24l.6 3.52h4.48c0-6-.28-7.96-.52-9h-22.32v4.2l3.84.36v17.92l-3.84.36v4.2zm3.56-10.04c0 4.68.2 7.56.56 9.28 2.04.88 5.28 1.48 9.44 1.48 8.08 0 11.48-3.88 11.48-8.28 0-4.12-1.12-6.2-7.84-8.6l-3.4-1.24c-1.84-.64-2.24-1.48-2.24-2.68 0-1.16.84-2.36 4-2.36 1.16 0 2.64.2 3.8.52l.48 4.32h4.64c0-4.4-.08-8.28-.4-9.16-2.04-.52-5.36-.96-7.96-.96-8.36 0-11.56 3.84-11.56 8.48 0 4.96 2.84 6.88 6.72 8.08l3.52 1.04c2.32.72 3.04 1.6 3.04 3 0 1.44-.96 2.52-3.48 2.52-1.76 0-3.52-.24-5.36-.8l-.64-4.64zm24.44 0c0 4.68.2 7.56.56 9.28 2.04.88 5.28 1.48 9.44 1.48 8.08 0 11.48-3.88 11.48-8.28 0-4.12-1.12-6.2-7.84-8.6l-3.4-1.24c-1.84-.64-2.24-1.48-2.24-2.68 0-1.16.84-2.36 4-2.36 1.16 0 2.64.2 3.8.52l.48 4.32h4.64c0-4.4-.08-8.28-.4-9.16-2.04-.52-5.36-.96-7.96-.96-8.36 0-11.56 3.84-11.56 8.48 0 4.96 2.84 6.88 6.72 8.08l3.52 1.04c2.32.72 3.04 1.6 3.04 3 0 1.44-.96 2.52-3.48 2.52-1.76 0-3.52-.24-5.36-.8l-.64-4.64zM612.05 794v-4.16l-3.88-.4v-9.64c1.4-.68 3.2-.96 4.72-.96 1.12 0 1.92.08 2.28.12v-5.52c-.36-.04-.92-.08-1.28-.08-2.48 0-4.64 1.32-5.8 3.32v-3.4c-3.12.04-6.68.56-9.6 1.52v4.08h3.44v10.6l-3.28.36V794zm23.44-2.04l-2-3.92c-1.96 1.08-4.04 1.56-6.36 1.56-2.6 0-4-1.32-4.44-3.24-.08-.4-.08-1.08-.08-1.24h12.48c.08-.68.12-1.48.12-1.76 0-5.16-1.4-10.16-8.84-10.16-5.44 0-10.2 3.64-10.2 11.08 0 6.16 3.48 10.36 9.4 10.36 3.72 0 6.76-.84 9.92-2.68zm-6.36-11.04h-6.32c.28-1.88 1.6-3.24 3.44-3.24 2.04 0 2.92 1 2.92 2.48 0 .24 0 .48-.04.76zm9.36 5.76c0 3.88.16 5.8.48 6.84 2.36.72 5.24 1.12 7.96 1.12 6.6 0 9.08-3.52 9.08-6.76 0-2.84-1-5.28-5.4-6.28l-3.32-.76c-1.12-.24-1.52-.88-1.52-1.6 0-.88.68-1.64 2.32-1.64.6 0 1.56.04 2.56.28l.48 2.8h4.36c0-2.4-.08-5.64-.52-6.76-1.68-.44-4.36-.72-6.64-.72-6.36 0-9.16 3.08-9.16 6.4 0 3.92 2.04 5.56 5.28 6.4l3.16.8c1 .28 1.52.68 1.52 1.64 0 .76-.44 1.6-2.28 1.6-1.12 0-2.56-.24-3.36-.6l-.64-2.76zm33 17.16v-4.16l-4-.36v-5.12c.96.12 1.92.16 2.92.16 6.4 0 10.48-3.6 10.48-11.2 0-6.6-2.44-9.92-6.6-9.92-2.6 0-5.4 1.4-6.8 2.56l-.12-2.6c-3.12.12-6.4.6-9.56 1.52v4.08h3.48v20.52l-3.28.36v4.16zm-4-14.6V779.2c1.2-.4 2.24-.64 3.48-.64 1.92 0 3.16 1.52 3.16 5.2 0 4.28-1.64 5.76-4.08 5.76-.96 0-1.76-.12-2.56-.28zm38-5.84c0-6.56-3.12-10.2-9.92-10.2-7.52 0-11.16 3.84-11.16 11.12 0 6.68 3.72 10.32 10.2 10.32 7.2 0 10.88-3.96 10.88-11.24zm-6.72.72c0 4.6-1.48 5.84-3.96 5.84-2.32 0-3.84-1.2-3.84-6.28 0-3.6 1.04-5.84 4.08-5.84 3.16 0 3.72 2.36 3.72 6.28zm22.52 9.88v-4.16l-3.28-.36v-10.16c1.4-.52 2.72-.68 3.92-.68.84 0 1.52.24 1.68 1.12.12.68.12 2 .12 3.92V794h9.68v-4.16l-3.36-.36v-7.12c0-2.24 0-4.08-.16-5.24-.32-2.4-1.48-3.8-4.56-3.8-1.88 0-5.12 1.12-7.32 2.72l-.12-2.76c-2.72 0-7 .68-9.56 1.52v4.08h3.44v10.6l-3.28.36V794zm32.96 0c.2-.92.48-3.44.48-8.72h-4.4l-.76 4.2h-6.2c2.08-2.16 3.84-4.04 10.52-11.52v-4.08h-17.76c-.28.96-.52 3.16-.52 8.24h4.24l.8-3.88h4.76c-2.24 2.4-4.08 4.64-10.2 11.72V794zm12.04-26.08c0-2.52-1.4-3.32-3.28-3.32-1.84 0-3.4.92-3.4 3.32s1.56 3.28 3.28 3.28c2 0 3.4-1.04 3.4-3.28zm3.88 26.08v-4.16l-3.28-.36v-16.2c-3.16 0-6.68.6-9.68 1.48v4.12h3.44v10.6l-3.28.36V794zm16.8 0l6.24-15.64 2.44-.36v-4.12h-11.44V778l2.44.28c-1.36 3.96-2.36 7.2-3.16 9.88-.92-2.8-1.8-5.88-3.36-9.88l2.52-.28v-4.12h-11.72V778l2.44.36 6.24 15.64zm23.32 0v-4.16l-3.28-.36v-10.16c1.4-.52 2.72-.68 3.92-.68.84 0 1.52.24 1.68 1.12.12.68.12 2 .12 3.92V794h9.68v-4.16l-3.36-.36v-7.12c0-2.24 0-4.08-.16-5.24-.32-2.4-1.48-3.8-4.56-3.8-1.88 0-5.12 1.12-7.32 2.72l-.12-2.76c-2.72 0-7 .68-9.56 1.52v4.08h3.44v10.6l-3.28.36V794zm20.96-22.4l6.6-6.4h-6.32l-4.8 6.4zm5.8 22.4v-4.16l-3.28-.36v-16.2c-3.16 0-6.68.6-9.68 1.48v4.12h3.44v10.6l-3.28.36V794zm34.44-4.36h-3.2v-25.32c-3.24.04-6.84.72-10.08 1.6V770h3.72v3.96c-.96-.36-2.56-.52-3.6-.52-5 0-9.6 3-9.6 10.96 0 6.32 3.36 10 7.84 10 2.2 0 4.08-.88 5.68-2.36l.36 2.32c3 0 6.36-.28 8.88-.8zm-9.56-1.24c-1.28.68-2.4 1-3.2 1-1.96 0-3.48-1.04-3.48-5.32 0-4.6 2.04-5.44 4.08-5.44.72 0 1.64.08 2.6.28zm31.08 3.56l-2-3.92c-1.96 1.08-4.04 1.56-6.36 1.56-2.6 0-4-1.32-4.44-3.24-.08-.4-.08-1.08-.08-1.24h12.48c.08-.68.12-1.48.12-1.76 0-5.16-1.4-10.16-8.84-10.16-5.44 0-10.2 3.64-10.2 11.08 0 6.16 3.48 10.36 9.4 10.36 3.72 0 6.76-.84 9.92-2.68zm-6.36-11.04h-6.32c.28-1.88 1.6-3.24 3.44-3.24 2.04 0 2.92 1 2.92 2.48 0 .24 0 .48-.04.76zm9.36 5.76c0 3.88.16 5.8.48 6.84 2.36.72 5.24 1.12 7.96 1.12 6.6 0 9.08-3.52 9.08-6.76 0-2.84-1-5.28-5.4-6.28l-3.32-.76c-1.12-.24-1.52-.88-1.52-1.6 0-.88.68-1.64 2.32-1.64.6 0 1.56.04 2.56.28l.48 2.8h4.36c0-2.4-.08-5.64-.52-6.76-1.68-.44-4.36-.72-6.64-.72-6.36 0-9.16 3.08-9.16 6.4 0 3.92 2.04 5.56 5.28 6.4l3.16.8c1 .28 1.52.68 1.52 1.64 0 .76-.44 1.6-2.28 1.6-1.12 0-2.56-.24-3.36-.6l-.64-2.76zm29.48-18.76c0-2.52-1.4-3.32-3.28-3.32-1.84 0-3.4.92-3.4 3.32s1.56 3.28 3.28 3.28c2 0 3.4-1.04 3.4-3.28zm3.88 26.08v-4.16l-3.28-.36v-16.2c-3.16 0-6.68.6-9.68 1.48v4.12h3.44v10.6l-3.28.36V794zm8.32-6.4c.8.24 1.8.36 2.8.36 4.92 0 8.72-2.4 8.72-7.12 0-.6-.08-1.52-.36-2.16h2.92v-4.52h-6.16c-1.16-.6-2.8-.96-4.96-.96-6.44 0-9 3.68-9 7.6 0 2.4 1.04 4.68 2.92 5.68-1.84 2-2.52 3.28-2.52 4.56 0 1.6.88 2.76 2.56 3.28-2.72 1.2-3.96 2.8-3.96 4.6 0 2.56 1.88 5.48 9.16 5.48 7.6 0 11.56-3.48 11.56-7.96 0-3.4-1.6-5.52-6.2-6.04l-6.68-.76c-1-.12-1.28-.56-1.28-1 0-.28.12-.68.48-1.04zm.2 7.56l3.4.2c2.6.16 3.24 1.04 3.24 2.32 0 1.04-1.24 2.2-3.64 2.2-3.32 0-4.28-1.08-4.28-2.16 0-.84.4-1.68 1.28-2.56zm5.44-14.48c0 2-1 3.04-2.8 3.04-1.68 0-2.6-.96-2.6-3 0-1.6.68-3.12 2.68-3.12 2.08 0 2.72 1.44 2.72 3.08zM966.81 794v-4.16l-3.28-.36v-10.16c1.4-.52 2.72-.68 3.92-.68.84 0 1.52.24 1.68 1.12.12.68.12 2 .12 3.92V794h9.68v-4.16l-3.36-.36v-7.12c0-2.24 0-4.08-.16-5.24-.32-2.4-1.48-3.8-4.56-3.8-1.88 0-5.12 1.12-7.32 2.72l-.12-2.76c-2.72 0-7 .68-9.56 1.52v4.08h3.44v10.6l-3.28.36V794zm186.56-10.16v-4.16l-4-.36v-5.12c.96.12 1.92.16 2.92.16 6.4 0 10.48-3.6 10.48-11.2 0-6.6-2.44-9.92-6.6-9.92-2.6 0-5.4 1.4-6.8 2.56l-.12-2.6c-3.12.12-6.4.6-9.56 1.52v4.08h3.48v20.52l-3.28.36v4.16zm-4-14.6V759.2c1.2-.4 2.24-.64 3.48-.64 1.92 0 3.16 1.52 3.16 5.2 0 4.28-1.64 5.76-4.08 5.76-.96 0-1.76-.12-2.56-.28zm29.8 4.76v-4.16l-3.88-.4v-9.64c1.4-.68 3.2-.96 4.72-.96 1.12 0 1.92.08 2.28.12v-5.52c-.36-.04-.92-.08-1.28-.08-2.48 0-4.64 1.32-5.8 3.32v-3.4c-3.12.04-6.68.56-9.6 1.52v4.08h3.44v10.6l-3.28.36V774zm-2.64-28.48l-2.76 3.12-2.68-3.12h-4.44l4.64 6.08h4.88l4.76-6.08zm16.48 2.4c0-2.52-1.4-3.32-3.28-3.32-1.84 0-3.4.92-3.4 3.32s1.56 3.28 3.28 3.28c2 0 3.4-1.04 3.4-3.28zm3.88 26.08v-4.16l-3.28-.36v-16.2c-3.16 0-6.68.6-9.68 1.48v4.12h3.44v10.6l-3.28.36V774zm21 0c.2-.92.48-3.44.48-8.72h-4.4l-.76 4.2h-6.2c2.08-2.16 3.84-4.04 10.52-11.52v-4.08h-17.76c-.28.96-.52 3.16-.52 8.24h4.24l.8-3.88h4.76c-2.24 2.4-4.08 4.64-10.2 11.72V774zm15.56 9.84v-4.16l-4-.36v-5.12c.96.12 1.92.16 2.92.16 6.4 0 10.48-3.6 10.48-11.2 0-6.6-2.44-9.92-6.6-9.92-2.6 0-5.4 1.4-6.8 2.56l-.12-2.6c-3.12.12-6.4.6-9.56 1.52v4.08h3.48v20.52l-3.28.36v4.16zm-4-14.6V759.2c1.2-.4 2.24-.64 3.48-.64 1.92 0 3.16 1.52 3.16 5.2 0 4.28-1.64 5.76-4.08 5.76-.96 0-1.76-.12-2.56-.28zm39.88 4.32v-3.92h-3.2v-16.16c-3.2 0-6.8.52-9.68 1.2v3.92h3.32v9.96c-1.36.48-2.52.72-3.68.72-1.08 0-1.76-.6-1.92-1.52-.12-.68-.12-1.68-.12-3.56v-10.72c-2.92 0-6.52.48-9.56 1.16v3.96h3.24v6.92c0 1.88.04 3.6.16 4.76.32 2.6 1.84 4.28 5.32 4.28 2.28 0 4.68-1 6.84-2.68l.4 2.48c3.08 0 7.12-.4 8.88-.8zm-9.08-25.04c0-2.2-1.36-3.64-3.68-3.64-2.16 0-3.8 1.52-3.8 3.72 0 2.04 1.56 3.72 3.76 3.72 2.24 0 3.72-1.8 3.72-3.8zm-1.72.04c0 1.2-.72 2.12-1.92 2.12-1.36 0-2.04-.92-2.04-2.08 0-1.24.76-2.12 1.96-2.12 1.16 0 2 .8 2 2.08zm12.96 18.12c0 3.88.16 5.8.48 6.84 2.36.72 5.24 1.12 7.96 1.12 6.6 0 9.08-3.52 9.08-6.76 0-2.84-1-5.28-5.4-6.28l-3.32-.76c-1.12-.24-1.52-.88-1.52-1.6 0-.88.68-1.64 2.32-1.64.6 0 1.56.04 2.56.28l.48 2.8h4.36c0-2.4-.08-5.64-.52-6.76-1.68-.44-4.36-.72-6.64-.72-6.36 0-9.16 3.08-9.16 6.4 0 3.92 2.04 5.56 5.28 6.4l3.16.8c1 .28 1.52.68 1.52 1.64 0 .76-.44 1.6-2.28 1.6-1.12 0-2.56-.24-3.36-.6l-.64-2.76zm41.72-3.28c0-6.56-3.12-10.2-9.92-10.2-7.52 0-11.16 3.84-11.16 11.12 0 6.68 3.72 10.32 10.2 10.32 7.2 0 10.88-3.96 10.88-11.24zm-6.72.72c0 4.6-1.48 5.84-3.96 5.84-2.32 0-3.84-1.2-3.84-6.28 0-3.6 1.04-5.84 4.08-5.84 3.16 0 3.72 2.36 3.72 6.28zm11.52 9.16c2.72.8 5.88 1.28 9.12 1.28 6.44 0 10.48-3.68 10.48-11.28 0-6.6-2.48-9.88-6.84-9.88-2.48 0-5.08 1.32-6.6 2.52v-11.56c-2.64 0-6.56.76-9.64 1.56V750h3.48zm6.2-3.8v-10.16c1.2-.4 2.24-.68 3.52-.68 1.72 0 3.12 1.6 3.12 5.24 0 4.28-1.6 5.84-4.08 5.84-.96 0-1.72-.08-2.56-.24zm36.24 2.48l-2-3.92c-1.96 1.08-4.04 1.56-6.36 1.56-2.6 0-4-1.32-4.44-3.24-.08-.4-.08-1.08-.08-1.24h12.48c.08-.68.12-1.48.12-1.76 0-5.16-1.4-10.16-8.84-10.16-5.44 0-10.2 3.64-10.2 11.08 0 6.16 3.48 10.36 9.4 10.36 3.72 0 6.76-.84 9.92-2.68zm-6.36-11.04h-6.32c.28-1.88 1.6-3.24 3.44-3.24 2.04 0 2.92 1 2.92 2.48 0 .24 0 .48-.04.76zm21.88 13.08v-4.16l-3.28-.36v-10.16c1.4-.52 2.72-.68 3.92-.68.84 0 1.52.24 1.68 1.12.12.68.12 2 .12 3.92V774h9.68v-4.16l-3.36-.36v-7.12c0-2.24 0-4.08-.16-5.24-.32-2.4-1.48-3.8-4.56-3.8-1.88 0-5.12 1.12-7.32 2.72l-.12-2.76c-2.72 0-7 .68-9.56 1.52v4.08h3.44v10.6l-3.28.36V774zm20.96-22.4l6.6-6.4h-6.32l-4.8 6.4zm5.8 22.4v-4.16l-3.28-.36v-16.2c-3.16 0-6.68.6-9.68 1.48v4.12h3.44v10.6l-3.28.36V774zM305.63 148v-4.16l-3.88-.4v-9.64c1.4-.68 3.2-.96 4.72-.96 1.12 0 1.92.08 2.28.12v-5.52c-.36-.04-.92-.08-1.28-.08-2.48 0-4.64 1.32-5.8 3.32v-3.4c-3.12.04-6.68.56-9.6 1.52v4.08h3.44v10.6l-3.28.36V148zm25.2-10.6c0-6.56-3.12-10.2-9.92-10.2-7.52 0-11.16 3.84-11.16 11.12 0 6.68 3.72 10.32 10.2 10.32 7.2 0 10.88-3.96 10.88-11.24zm-6.72.72c0 4.6-1.48 5.84-3.96 5.84-2.32 0-3.84-1.2-3.84-6.28 0-3.6 1.04-5.84 4.08-5.84 3.16 0 3.72 2.36 3.72 6.28zm28.72 9.88c.2-.92.48-3.44.48-8.72h-4.4l-.76 4.2h-6.2c2.08-2.16 3.84-4.04 10.52-11.52v-4.08h-17.76c-.28.96-.52 3.16-.52 8.24h4.24l.8-3.88h4.76c-2.24 2.4-4.08 4.64-10.2 11.72V148zm3.4-7.32c0 3.88.16 5.8.48 6.84 2.36.72 5.24 1.12 7.96 1.12 6.6 0 9.08-3.52 9.08-6.76 0-2.84-1-5.28-5.4-6.28l-3.32-.76c-1.12-.24-1.52-.88-1.52-1.6 0-.88.68-1.64 2.32-1.64.6 0 1.56.04 2.56.28l.48 2.8h4.36c0-2.4-.08-5.64-.52-6.76-1.68-.44-4.36-.72-6.64-.72-6.36 0-9.16 3.08-9.16 6.4 0 3.92 2.04 5.56 5.28 6.4l3.16.8c1 .28 1.52.68 1.52 1.64 0 .76-.44 1.6-2.28 1.6-1.12 0-2.56-.24-3.36-.6l-.64-2.76zm11.88-21.16l-2.76 3.12-2.68-3.12h-4.44l4.64 6.08h4.88l4.76-6.08zm17.6 2.4c0-2.52-1.4-3.32-3.28-3.32-1.84 0-3.4.92-3.4 3.32s1.56 3.28 3.28 3.28c2 0 3.4-1.04 3.4-3.28zm3.88 26.08v-4.16l-3.28-.36v-16.2c-3.16 0-6.68.6-9.68 1.48v4.12h3.44v10.6l-3.28.36V148zm15.4 0v-4.16l-3.88-.4v-9.64c1.4-.68 3.2-.96 4.72-.96 1.12 0 1.92.08 2.28.12v-5.52c-.36-.04-.92-.08-1.28-.08-2.48 0-4.64 1.32-5.8 3.32v-3.4c-3.12.04-6.68.56-9.6 1.52v4.08h3.44v10.6l-3.28.36V148zm-2.64-28.48l-2.76 3.12-2.68-3.12h-4.44l4.64 6.08h4.88l4.76-6.08zm27.84 17.88c0-6.56-3.12-10.2-9.92-10.2-7.52 0-11.16 3.84-11.16 11.12 0 6.68 3.72 10.32 10.2 10.32 7.2 0 10.88-3.96 10.88-11.24zm-6.72.72c0 4.6-1.48 5.84-3.96 5.84-2.32 0-3.84-1.2-3.84-6.28 0-3.6 1.04-5.84 4.08-5.84 3.16 0 3.72 2.36 3.72 6.28zm23.72 9.88l6.24-15.64 2.44-.36v-4.12h-11.44V132l2.44.28c-1.36 3.96-2.36 7.2-3.16 9.88-.92-2.8-1.8-5.88-3.36-9.88l2.52-.28v-4.12h-11.72V132l2.44.36 6.24 15.64zm30.52-4.56h-3.2v-8.6c0-2.84-.36-4.48-1.04-5.56-.88-1.44-2.64-2.08-5.56-2.08-2.4 0-6.92.68-9.92 1.68l.88 4.28c2.64-.64 5.44-.84 6.84-.84 1.36 0 2 .24 2.36.72.24.4.32 1.16.32 1.96v.56c-3.04.12-5.88.4-8.16 1.12-2.36.72-3.88 2.52-3.88 5.44 0 3.2 2 6.36 6.6 6.36 1.68 0 4.04-.56 5.8-2.44l.36 2.32c2.88 0 6.52-.44 8.6-1zm-9.24-.76c-.92.84-2.48 1.36-3.56 1.36-1.36 0-2.12-.8-2.12-2.08 0-.88.44-1.6 1.48-1.96 1.36-.48 3.44-.56 4.2-.64zm-1.36-17.08l6.6-6.4h-6.32l-4.8 6.4zm25.56 22.4v-4.16l-3.28-.36v-10.16c1.4-.52 2.72-.68 3.92-.68.84 0 1.52.24 1.68 1.12.12.68.12 2 .12 3.92V148h9.68v-4.16l-3.36-.36v-7.12c0-2.24 0-4.08-.16-5.24-.32-2.4-1.48-3.8-4.56-3.8-1.88 0-5.12 1.12-7.32 2.72l-.12-2.76c-2.72 0-7 .68-9.56 1.52v4.08h3.44v10.6l-3.28.36V148zm20.96-22.4l6.6-6.4h-6.32l-4.8 6.4zm5.8 22.4v-4.16l-3.28-.36v-16.2c-3.16 0-6.68.6-9.68 1.48v4.12h3.44v10.6l-3.28.36V148zM372.91 762v-4.16l-3.32-.36v-25.12c-2.88 0-6.4.68-9.68 1.56V738h3.44v19.48l-3.08.36V762zm23.52-4.56h-3.2v-8.6c0-2.84-.36-4.48-1.04-5.56-.88-1.44-2.64-2.08-5.56-2.08-2.4 0-6.92.68-9.92 1.68l.88 4.28c2.64-.64 5.44-.84 6.84-.84 1.36 0 2 .24 2.36.72.24.4.32 1.16.32 1.96v.56c-3.04.12-5.88.4-8.16 1.12-2.36.72-3.88 2.52-3.88 5.44 0 3.2 2 6.36 6.6 6.36 1.68 0 4.04-.56 5.8-2.44l.36 2.32c2.88 0 6.52-.44 8.6-1zm-9.24-.76c-.92.84-2.48 1.36-3.56 1.36-1.36 0-2.12-.8-2.12-2.08 0-.88.44-1.6 1.48-1.96 1.36-.48 3.44-.56 4.2-.64zm13.72 15.76c5.16-1.4 9.6-3.76 12.24-11.08l5.36-15 2.44-.36v-4.12h-11.32V746l2.44.28c-1.32 3.96-2.16 7.56-2.92 10.24-.92-2.6-1.96-6-3.6-10.24l2.52-.28v-4.12h-11.56V746l2.44.36 6 15.64h1.04c-.96 2.72-3.68 4.4-7 5.36zm42.28-21.04c0-6.56-3.12-10.2-9.92-10.2-7.52 0-11.16 3.84-11.16 11.12 0 6.68 3.72 10.32 10.2 10.32 7.2 0 10.88-3.96 10.88-11.24zm-6.72.72c0 4.6-1.48 5.84-3.96 5.84-2.32 0-3.84-1.2-3.84-6.28 0-3.6 1.04-5.84 4.08-5.84 3.16 0 3.72 2.36 3.72 6.28zm33.2 9.44v-3.92h-3.2v-16.16c-3.2 0-6.8.52-9.68 1.2v3.92h3.32v9.96c-1.36.48-2.52.72-3.68.72-1.08 0-1.76-.6-1.92-1.52-.12-.68-.12-1.68-.12-3.56v-10.72c-2.92 0-6.52.48-9.56 1.16v3.96h3.24v6.92c0 1.88.04 3.6.16 4.76.32 2.6 1.84 4.28 5.32 4.28 2.28 0 4.68-1 6.84-2.68l.4 2.48c3.08 0 7.12-.4 8.88-.8zm16.12-.08l-.76-4.6c-.96.16-2.08.2-2.64.2-.88 0-1.56-.2-1.92-.72-.44-.6-.6-1.44-.6-3.08v-6.6h4.8v-4.8h-4.8v-5.4l-6 .4c-.16 2.56-.24 3.68-.24 5-.52 0-2.52.12-3.72.4v4.4h3.64v7.96c0 2.64.4 4.68 1.24 5.8.84 1.16 2.56 1.88 4.6 1.88 2.64 0 4.92-.36 6.4-.84zm739.22-477.97v-4.16l-4-.36v-5.12c.96.12 1.92.16 2.92.16 6.4 0 10.48-3.6 10.48-11.2 0-6.6-2.44-9.92-6.6-9.92-2.6 0-5.4 1.4-6.8 2.56l-.12-2.6c-3.12.12-6.4.6-9.56 1.52v4.08h3.48v20.52l-3.28.36v4.16zm-4-14.6v-10.04c1.2-.4 2.24-.64 3.48-.64 1.92 0 3.16 1.52 3.16 5.2 0 4.28-1.64 5.76-4.08 5.76-.96 0-1.76-.12-2.56-.28zm29.8 4.76v-4.16l-3.88-.4v-9.64c1.4-.68 3.2-.96 4.72-.96 1.12 0 1.92.08 2.28.12v-5.52c-.36-.04-.92-.08-1.28-.08-2.48 0-4.64 1.32-5.8 3.32v-3.4c-3.12.04-6.68.56-9.6 1.52v4.08h3.44v10.6l-3.28.36v4.16zm-2.64-28.48l-2.76 3.12-2.68-3.12h-4.44l4.64 6.08h4.88l4.76-6.08zm14.56 6.08l6.6-6.4h-6.32l-4.8 6.4zm5.8 22.4v-4.16l-3.28-.36v-16.2c-3.16 0-6.68.6-9.68 1.48v4.12h3.44v10.6l-3.28.36v4.16zm2.28-7.32c0 3.88.16 5.8.48 6.84 2.36.72 5.24 1.12 7.96 1.12 6.6 0 9.08-3.52 9.08-6.76 0-2.84-1-5.28-5.4-6.28l-3.32-.76c-1.12-.24-1.52-.88-1.52-1.6 0-.88.68-1.64 2.32-1.64.6 0 1.56.04 2.56.28l.48 2.8h4.36c0-2.4-.08-5.64-.52-6.76-1.68-.44-4.36-.72-6.64-.72-6.36 0-9.16 3.08-9.16 6.4 0 3.92 2.04 5.56 5.28 6.4l3.16.8c1 .28 1.52.68 1.52 1.64 0 .76-.44 1.6-2.28 1.6-1.12 0-2.56-.24-3.36-.6l-.64-2.76zm34.88 6.8l-.76-4.6c-.96.16-2.08.2-2.64.2-.88 0-1.56-.2-1.92-.72-.44-.6-.6-1.44-.6-3.08v-6.6h4.8v-4.8h-4.8v-5.4l-6 .4c-.16 2.56-.24 3.68-.24 5-.52 0-2.52.12-3.72.4v4.4h3.64v7.96c0 2.64.4 4.68 1.24 5.8.84 1.16 2.56 1.88 4.6 1.88 2.64 0 4.92-.36 6.4-.84zm25.12.08v-3.92h-3.2v-16.16c-3.2 0-6.8.52-9.68 1.2v3.92h3.32v9.96c-1.36.48-2.52.72-3.68.72-1.08 0-1.76-.6-1.92-1.52-.12-.68-.12-1.68-.12-3.56v-10.72c-2.92 0-6.52.48-9.56 1.16v3.96h3.24v6.92c0 1.88.04 3.6.16 4.76.32 2.6 1.84 4.28 5.32 4.28 2.28 0 4.68-1 6.84-2.68l.4 2.48c3.08 0 7.12-.4 8.88-.8zm14.32 10.28v-4.16l-4-.36v-5.12c.96.12 1.92.16 2.92.16 6.4 0 10.48-3.6 10.48-11.2 0-6.6-2.44-9.92-6.6-9.92-2.6 0-5.4 1.4-6.8 2.56l-.12-2.6c-3.12.12-6.4.6-9.56 1.52v4.08h3.48v20.52l-3.28.36v4.16zm-4-14.6v-10.04c1.2-.4 2.24-.64 3.48-.64 1.92 0 3.16 1.52 3.16 5.2 0 4.28-1.64 5.76-4.08 5.76-.96 0-1.76-.12-2.56-.28zm29.2 4.76v-4.16l-3.28-.36v-10.16c1.4-.52 2.72-.68 3.92-.68.84 0 1.52.24 1.68 1.12.12.68.12 2 .12 3.92v10.32h9.68v-4.16l-3.36-.36v-7.12c0-2.24 0-4.08-.16-5.24-.32-2.4-1.48-3.8-4.56-3.8-1.88 0-5.12 1.12-7.32 2.72l-.12-2.76c-2.72 0-7 .68-9.56 1.52v4.08h3.44v10.6l-3.28.36v4.16zm34.96-10.6c0-6.56-3.12-10.2-9.92-10.2-7.52 0-11.16 3.84-11.16 11.12 0 6.68 3.72 10.32 10.2 10.32 7.2 0 10.88-3.96 10.88-11.24zm-6.72.72c0 4.6-1.48 5.84-3.96 5.84-2.32 0-3.84-1.2-3.84-6.28 0-3.6 1.04-5.84 4.08-5.84 3.16 0 3.72 2.36 3.72 6.28zm10 2.56c0 3.88.16 5.8.48 6.84 2.36.72 5.24 1.12 7.96 1.12 6.6 0 9.08-3.52 9.08-6.76 0-2.84-1-5.28-5.4-6.28l-3.32-.76c-1.12-.24-1.52-.88-1.52-1.6 0-.88.68-1.64 2.32-1.64.6 0 1.56.04 2.56.28l.48 2.8h4.36c0-2.4-.08-5.64-.52-6.76-1.68-.44-4.36-.72-6.64-.72-6.36 0-9.16 3.08-9.16 6.4 0 3.92 2.04 5.56 5.28 6.4l3.16.8c1 .28 1.52.68 1.52 1.64 0 .76-.44 1.6-2.28 1.6-1.12 0-2.56-.24-3.36-.6l-.64-2.76zm34.88 6.8l-.76-4.6c-.96.16-2.08.2-2.64.2-.88 0-1.56-.2-1.92-.72-.44-.6-.6-1.44-.6-3.08v-6.6h4.8v-4.8h-4.8v-5.4l-6 .4c-.16 2.56-.24 3.68-.24 5-.52 0-2.52.12-3.72.4v4.4h3.64v7.96c0 2.64.4 4.68 1.24 5.8.84 1.16 2.56 1.88 4.6 1.88 2.64 0 4.92-.36 6.4-.84zM622.67 131.84v-4.16l-4-.36v-5.12c.96.12 1.92.16 2.92.16 6.4 0 10.48-3.6 10.48-11.2 0-6.6-2.44-9.92-6.6-9.92-2.6 0-5.4 1.4-6.8 2.56l-.12-2.6c-3.12.12-6.4.6-9.56 1.52v4.08h3.48v20.52l-3.28.36v4.16zm-4-14.6V107.2c1.2-.4 2.24-.64 3.48-.64 1.92 0 3.16 1.52 3.16 5.2 0 4.28-1.64 5.76-4.08 5.76-.96 0-1.76-.12-2.56-.28zm29.8 4.76v-4.16l-3.88-.4v-9.64c1.4-.68 3.2-.96 4.72-.96 1.12 0 1.92.08 2.28.12v-5.52c-.36-.04-.92-.08-1.28-.08-2.48 0-4.64 1.32-5.8 3.32v-3.4c-3.12.04-6.68.56-9.6 1.52v4.08h3.44v10.6l-3.28.36V122zm-2.64-28.48l-2.76 3.12-2.68-3.12h-4.44l4.64 6.08h4.88l4.76-6.08zm16.48 2.4c0-2.52-1.4-3.32-3.28-3.32-1.84 0-3.4.92-3.4 3.32s1.56 3.28 3.28 3.28c2 0 3.4-1.04 3.4-3.28zm3.88 26.08v-4.16l-3.28-.36v-16.2c-3.16 0-6.68.6-9.68 1.48v4.12h3.44v10.6l-3.28.36V122zm21 0c.2-.92.48-3.44.48-8.72h-4.4l-.76 4.2h-6.2c2.08-2.16 3.84-4.04 10.52-11.52v-4.08h-17.76c-.28.96-.52 3.16-.52 8.24h4.24l.8-3.88h4.76c-2.24 2.4-4.08 4.64-10.2 11.72V122zm15.56 9.84v-4.16l-4-.36v-5.12c.96.12 1.92.16 2.92.16 6.4 0 10.48-3.6 10.48-11.2 0-6.6-2.44-9.92-6.6-9.92-2.6 0-5.4 1.4-6.8 2.56l-.12-2.6c-3.12.12-6.4.6-9.56 1.52v4.08h3.48v20.52l-3.28.36v4.16zm-4-14.6V107.2c1.2-.4 2.24-.64 3.48-.64 1.92 0 3.16 1.52 3.16 5.2 0 4.28-1.64 5.76-4.08 5.76-.96 0-1.76-.12-2.56-.28zm39.88 4.32v-3.92h-3.2v-16.16c-3.2 0-6.8.52-9.68 1.2v3.92h3.32v9.96c-1.36.48-2.52.72-3.68.72-1.08 0-1.76-.6-1.92-1.52-.12-.68-.12-1.68-.12-3.56v-10.72c-2.92 0-6.52.48-9.56 1.16v3.96h3.24v6.92c0 1.88.04 3.6.16 4.76.32 2.6 1.84 4.28 5.32 4.28 2.28 0 4.68-1 6.84-2.68l.4 2.48c3.08 0 7.12-.4 8.88-.8zm-9.08-25.04c0-2.2-1.36-3.64-3.68-3.64-2.16 0-3.8 1.52-3.8 3.72 0 2.04 1.56 3.72 3.76 3.72 2.24 0 3.72-1.8 3.72-3.8zm-1.72.04c0 1.2-.72 2.12-1.92 2.12-1.36 0-2.04-.92-2.04-2.08 0-1.24.76-2.12 1.96-2.12 1.16 0 2 .8 2 2.08zm12.96 18.12c0 3.88.16 5.8.48 6.84 2.36.72 5.24 1.12 7.96 1.12 6.6 0 9.08-3.52 9.08-6.76 0-2.84-1-5.28-5.4-6.28l-3.32-.76c-1.12-.24-1.52-.88-1.52-1.6 0-.88.68-1.64 2.32-1.64.6 0 1.56.04 2.56.28l.48 2.8h4.36c0-2.4-.08-5.64-.52-6.76-1.68-.44-4.36-.72-6.64-.72-6.36 0-9.16 3.08-9.16 6.4 0 3.92 2.04 5.56 5.28 6.4l3.16.8c1 .28 1.52.68 1.52 1.64 0 .76-.44 1.6-2.28 1.6-1.12 0-2.56-.24-3.36-.6l-.64-2.76zm41.72-3.28c0-6.56-3.12-10.2-9.92-10.2-7.52 0-11.16 3.84-11.16 11.12 0 6.68 3.72 10.32 10.2 10.32 7.2 0 10.88-3.96 10.88-11.24zm-6.72.72c0 4.6-1.48 5.84-3.96 5.84-2.32 0-3.84-1.2-3.84-6.28 0-3.6 1.04-5.84 4.08-5.84 3.16 0 3.72 2.36 3.72 6.28zm11.52 9.16c2.72.8 5.88 1.28 9.12 1.28 6.44 0 10.48-3.68 10.48-11.28 0-6.6-2.48-9.88-6.84-9.88-2.48 0-5.08 1.32-6.6 2.52V92.36c-2.64 0-6.56.76-9.64 1.56V98h3.48zm6.2-3.8v-10.16c1.2-.4 2.24-.68 3.52-.68 1.72 0 3.12 1.6 3.12 5.24 0 4.28-1.6 5.84-4.08 5.84-.96 0-1.72-.08-2.56-.24zm36.24 2.48l-2-3.92c-1.96 1.08-4.04 1.56-6.36 1.56-2.6 0-4-1.32-4.44-3.24-.08-.4-.08-1.08-.08-1.24h12.48c.08-.68.12-1.48.12-1.76 0-5.16-1.4-10.16-8.84-10.16-5.44 0-10.2 3.64-10.2 11.08 0 6.16 3.48 10.36 9.4 10.36 3.72 0 6.76-.84 9.92-2.68zm-6.36-11.04h-6.32c.28-1.88 1.6-3.24 3.44-3.24 2.04 0 2.92 1 2.92 2.48 0 .24 0 .48-.04.76zM845.27 122v-4.16l-3.28-.36v-10.16c1.4-.52 2.72-.68 3.92-.68.84 0 1.52.24 1.68 1.12.12.68.12 2 .12 3.92V122h9.68v-4.16l-3.36-.36v-7.12c0-2.24 0-4.08-.16-5.24-.32-2.4-1.48-3.8-4.56-3.8-1.88 0-5.12 1.12-7.32 2.72l-.12-2.76c-2.72 0-7 .68-9.56 1.52v4.08h3.44v10.6l-3.28.36V122zm20.96-22.4l6.6-6.4h-6.32l-4.8 6.4zm5.8 22.4v-4.16l-3.28-.36v-16.2c-3.16 0-6.68.6-9.68 1.48v4.12h3.44v10.6l-3.28.36V122zm25.96 0l6.24-15.64 2.44-.36v-4.12h-11.44V106l2.44.28c-1.36 3.96-2.36 7.2-3.16 9.88-.92-2.8-1.8-5.88-3.36-9.88l2.52-.28v-4.12h-11.72V106l2.44.36 6.24 15.64zm28.92 0c.2-.92.48-3.44.48-8.72h-4.4l-.76 4.2h-6.2c2.08-2.16 3.84-4.04 10.52-11.52v-4.08h-17.76c-.28.96-.52 3.16-.52 8.24h4.24l.8-3.88h4.76c-2.24 2.4-4.08 4.64-10.2 11.72V122zm15.48 0v-4.16l-3.32-.36v-10.16c1.24-.48 2.72-.68 3.92-.68.84 0 1.52.24 1.68 1.12.12.68.12 2 .12 3.92V122h9.68v-4.16l-3.36-.36v-7.28c0-2.24 0-3.96-.16-5.08-.32-2.4-1.56-3.8-4.56-3.8-1.8 0-5.12 1.16-7.36 2.72V92.36c-2.72 0-6.8.72-9.64 1.56V98h3.44v19.48l-3.08.36V122zm26.28 0v-4.16l-3.32-.36V92.36c-2.88 0-6.4.68-9.68 1.56V98h3.44v19.48l-3.08.36V122zm21.68-2.04l-2-3.92c-1.96 1.08-4.04 1.56-6.36 1.56-2.6 0-4-1.32-4.44-3.24-.08-.4-.08-1.08-.08-1.24h12.48c.08-.68.12-1.48.12-1.76 0-5.16-1.4-10.16-8.84-10.16-5.44 0-10.2 3.64-10.2 11.08 0 6.16 3.48 10.36 9.4 10.36 3.72 0 6.76-.84 9.92-2.68zm-6.36-11.04h-6.32c.28-1.88 1.6-3.24 3.44-3.24 2.04 0 2.92 1 2.92 2.48 0 .24 0 .48-.04.76zm31.84 8.72h-3.2V92.32c-3.24.04-6.84.72-10.08 1.6V98h3.72v3.96c-.96-.36-2.56-.52-3.6-.52-5 0-9.6 3-9.6 10.96 0 6.32 3.36 10 7.84 10 2.2 0 4.08-.88 5.68-2.36l.36 2.32c3 0 6.36-.28 8.88-.8zm-9.56-1.24c-1.28.68-2.4 1-3.2 1-1.96 0-3.48-1.04-3.48-5.32 0-4.6 2.04-5.44 4.08-5.44.72 0 1.64.08 2.6.28zm35.04 5.16v-3.92h-3.2v-16.16c-3.2 0-6.8.52-9.68 1.2v3.92h3.32v9.96c-1.36.48-2.52.72-3.68.72-1.08 0-1.76-.6-1.92-1.52-.12-.68-.12-1.68-.12-3.56v-10.72c-2.92 0-6.52.48-9.56 1.16v3.96h3.24v6.92c0 1.88.04 3.6.16 4.76.32 2.6 1.84 4.28 5.32 4.28 2.28 0 4.68-1 6.84-2.68l.4 2.48c3.08 0 7.12-.4 8.88-.8z" fill="#FFF"/><path d="M182.63 253.6c.8.24 1.8.36 2.8.36 4.92 0 8.72-2.4 8.72-7.12 0-.6-.08-1.52-.36-2.16h2.92v-4.52h-6.16c-1.16-.6-2.8-.96-4.96-.96-6.44 0-9 3.68-9 7.6 0 2.4 1.04 4.68 2.92 5.68-1.84 2-2.52 3.28-2.52 4.56 0 1.6.88 2.76 2.56 3.28-2.72 1.2-3.96 2.8-3.96 4.6 0 2.56 1.88 5.48 9.16 5.48 7.6 0 11.56-3.48 11.56-7.96 0-3.4-1.6-5.52-6.2-6.04l-6.68-.76c-1-.12-1.28-.56-1.28-1 0-.28.12-.68.48-1.04zm.2 7.56l3.4.2c2.6.16 3.24 1.04 3.24 2.32 0 1.04-1.24 2.2-3.64 2.2-3.32 0-4.28-1.08-4.28-2.16 0-.84.4-1.68 1.28-2.56zm5.44-14.48c0 2-1 3.04-2.8 3.04-1.68 0-2.6-.96-2.6-3 0-1.6.68-3.12 2.68-3.12 2.08 0 2.72 1.44 2.72 3.08zM212.35 260v-4.16l-3.88-.4v-9.64c1.4-.68 3.2-.96 4.72-.96 1.12 0 1.92.08 2.28.12v-5.52c-.36-.04-.92-.08-1.28-.08-2.48 0-4.64 1.32-5.8 3.32v-3.4c-3.12.04-6.68.56-9.6 1.52v4.08h3.44v10.6l-3.28.36V260zm13.84-26.08c0-2.52-1.4-3.32-3.28-3.32-1.84 0-3.4.92-3.4 3.32s1.56 3.28 3.28 3.28c2 0 3.4-1.04 3.4-3.28zm3.88 26.08v-4.16l-3.28-.36v-16.2c-3.16 0-6.68.6-9.68 1.48v4.12h3.44v10.6l-3.28.36V260zm25.12-4.36h-3.2v-25.32c-3.24.04-6.84.72-10.08 1.6V236h3.72v3.96c-.96-.36-2.56-.52-3.6-.52-5 0-9.6 3-9.6 10.96 0 6.32 3.36 10 7.84 10 2.2 0 4.08-.88 5.68-2.36l.36 2.32c3 0 6.36-.28 8.88-.8zm-9.56-1.24c-1.28.68-2.4 1-3.2 1-1.96 0-3.48-1.04-3.48-5.32 0-4.6 2.04-5.44 4.08-5.44.72 0 1.64.08 2.6.28zm21-1.72c0 3.88.16 5.8.48 6.84 2.36.72 5.24 1.12 7.96 1.12 6.6 0 9.08-3.52 9.08-6.76 0-2.84-1-5.28-5.4-6.28l-3.32-.76c-1.12-.24-1.52-.88-1.52-1.6 0-.88.68-1.64 2.32-1.64.6 0 1.56.04 2.56.28l.48 2.8h4.36c0-2.4-.08-5.64-.52-6.76-1.68-.44-4.36-.72-6.64-.72-6.36 0-9.16 3.08-9.16 6.4 0 3.92 2.04 5.56 5.28 6.4l3.16.8c1 .28 1.52.68 1.52 1.64 0 .76-.44 1.6-2.28 1.6-1.12 0-2.56-.24-3.36-.6l-.64-2.76zm23.72 17.76c5.16-1.4 9.6-3.76 12.24-11.08l5.36-15 2.44-.36v-4.12h-11.32V244l2.44.28c-1.32 3.96-2.16 7.56-2.92 10.24-.92-2.6-1.96-6-3.6-10.24l2.52-.28v-4.12h-11.56V244l2.44.36 6 15.64h1.04c-.96 2.72-3.68 4.4-7 5.36zm21.36-17.76c0 3.88.16 5.8.48 6.84 2.36.72 5.24 1.12 7.96 1.12 6.6 0 9.08-3.52 9.08-6.76 0-2.84-1-5.28-5.4-6.28l-3.32-.76c-1.12-.24-1.52-.88-1.52-1.6 0-.88.68-1.64 2.32-1.64.6 0 1.56.04 2.56.28l.48 2.8h4.36c0-2.4-.08-5.64-.52-6.76-1.68-.44-4.36-.72-6.64-.72-6.36 0-9.16 3.08-9.16 6.4 0 3.92 2.04 5.56 5.28 6.4l3.16.8c1 .28 1.52.68 1.52 1.64 0 .76-.44 1.6-2.28 1.6-1.12 0-2.56-.24-3.36-.6l-.64-2.76zm34.88 6.8l-.76-4.6c-.96.16-2.08.2-2.64.2-.88 0-1.56-.2-1.92-.72-.44-.6-.6-1.44-.6-3.08v-6.6h4.8v-4.8h-4.8v-5.4l-6 .4c-.16 2.56-.24 3.68-.24 5-.52 0-2.52.12-3.72.4v4.4h3.64v7.96c0 2.64.4 4.68 1.24 5.8.84 1.16 2.56 1.88 4.6 1.88 2.64 0 4.92-.36 6.4-.84zm21.16-1.52l-2-3.92c-1.96 1.08-4.04 1.56-6.36 1.56-2.6 0-4-1.32-4.44-3.24-.08-.4-.08-1.08-.08-1.24h12.48c.08-.68.12-1.48.12-1.76 0-5.16-1.4-10.16-8.84-10.16-5.44 0-10.2 3.64-10.2 11.08 0 6.16 3.48 10.36 9.4 10.36 3.72 0 6.76-.84 9.92-2.68zm-6.36-11.04h-6.32c.28-1.88 1.6-3.24 3.44-3.24 2.04 0 2.92 1 2.92 2.48 0 .24 0 .48-.04.76zM383.23 260v-4.16l-3.24-.36v-10.16c1.32-.52 2.52-.68 3.76-.68.8 0 1.4.24 1.56 1.08.12.72.12 2.04.12 3.96V260h9.68v-4.16l-3.36-.36v-7.28c0-1.12 0-2-.04-2.88 1.32-.48 2.52-.68 3.72-.68.8 0 1.44.24 1.6 1.12.16.68.16 2 .16 3.92V260h9.68v-4.16l-3.4-.36v-7.28c0-2.24 0-4-.16-5.12-.32-2.4-1.64-3.76-4.48-3.76-2.44 0-5.04 1.2-7.4 2.84-.52-1.88-1.72-2.84-4.24-2.84-2 0-5 1.16-7.2 2.72l-.12-2.76c-2.72 0-6.68.68-9.56 1.48v4.12h3.44v10.6l-3.28.36V260zm735.68-88.71c0 4.68.2 7.56.56 9.28 2.04.88 5.28 1.48 9.44 1.48 8.08 0 11.48-3.88 11.48-8.28 0-4.12-1.12-6.2-7.84-8.6l-3.4-1.24c-1.84-.64-2.24-1.48-2.24-2.68 0-1.16.84-2.36 4-2.36 1.16 0 2.64.2 3.8.52l.48 4.32h4.64c0-4.4-.08-8.28-.4-9.16-2.04-.52-5.36-.96-7.96-.96-8.36 0-11.56 3.84-11.56 8.48 0 4.96 2.84 6.88 6.72 8.08l3.52 1.04c2.32.72 3.04 1.6 3.04 3 0 1.44-.96 2.52-3.48 2.52-1.76 0-3.52-.24-5.36-.8l-.64-4.64zm37.08 10.04v-4.2l-4-.32 1.16-3.2h8.12l1.16 3.2-3.88.32v4.2h14.04v-4.2l-2.84-.32-8.2-22.52h-8.36l-8.36 22.52-2.88.32v4.2zm-1.16-13.16c1.6-4.76 2.04-6.4 2.48-7.88.36 1.56.72 2.92 2.24 7.88zm19.36 3.12c0 4.68.2 7.56.56 9.28 2.04.88 5.28 1.48 9.44 1.48 8.08 0 11.48-3.88 11.48-8.28 0-4.12-1.12-6.2-7.84-8.6l-3.4-1.24c-1.84-.64-2.24-1.48-2.24-2.68 0-1.16.84-2.36 4-2.36 1.16 0 2.64.2 3.8.52l.48 4.32h4.64c0-4.4-.08-8.28-.4-9.16-2.04-.52-5.36-.96-7.96-.96-8.36 0-11.56 3.84-11.56 8.48 0 4.96 2.84 6.88 6.72 8.08l3.52 1.04c2.32.72 3.04 1.6 3.04 3 0 1.44-.96 2.52-3.48 2.52-1.76 0-3.52-.24-5.36-.8l-.64-4.64zm24.44 0c0 4.68.2 7.56.56 9.28 2.04.88 5.28 1.48 9.44 1.48 8.08 0 11.48-3.88 11.48-8.28 0-4.12-1.12-6.2-7.84-8.6l-3.4-1.24c-1.84-.64-2.24-1.48-2.24-2.68 0-1.16.84-2.36 4-2.36 1.16 0 2.64.2 3.8.52l.48 4.32h4.64c0-4.4-.08-8.28-.4-9.16-2.04-.52-5.36-.96-7.96-.96-8.36 0-11.56 3.84-11.56 8.48 0 4.96 2.84 6.88 6.72 8.08l3.52 1.04c2.32.72 3.04 1.6 3.04 3 0 1.44-.96 2.52-3.48 2.52-1.76 0-3.52-.24-5.36-.8l-.64-4.64zm34.82 237.22v-4.16l-4-.36v-5.12c.96.12 1.92.16 2.92.16 6.4 0 10.48-3.6 10.48-11.2 0-6.6-2.44-9.92-6.6-9.92-2.6 0-5.4 1.4-6.8 2.56l-.12-2.6c-3.12.12-6.4.6-9.56 1.52v4.08h3.48v20.52l-3.28.36v4.16zm-4-14.6v-10.04c1.2-.4 2.24-.64 3.48-.64 1.92 0 3.16 1.52 3.16 5.2 0 4.28-1.64 5.76-4.08 5.76-.96 0-1.76-.12-2.56-.28zm29.8 4.76v-4.16l-3.88-.4v-9.64c1.4-.68 3.2-.96 4.72-.96 1.12 0 1.92.08 2.28.12v-5.52c-.36-.04-.92-.08-1.28-.08-2.48 0-4.64 1.32-5.8 3.32v-3.4c-3.12.04-6.68.56-9.6 1.52v4.08h3.44v10.6l-3.28.36v4.16zm25.2-10.6c0-6.56-3.12-10.2-9.92-10.2-7.52 0-11.16 3.84-11.16 11.12 0 6.68 3.72 10.32 10.2 10.32 7.2 0 10.88-3.96 10.88-11.24zm-6.72.72c0 4.6-1.48 5.84-3.96 5.84-2.32 0-3.84-1.2-3.84-6.28 0-3.6 1.04-5.84 4.08-5.84 3.16 0 3.72 2.36 3.72 6.28zm23.96 9.36l-.76-4.6c-.96.16-2.08.2-2.64.2-.88 0-1.56-.2-1.92-.72-.44-.6-.6-1.44-.6-3.08v-6.6h4.8v-4.8h-4.8v-5.4l-6 .4c-.16 2.56-.24 3.68-.24 5-.52 0-2.52.12-3.72.4v4.4h3.64v7.96c0 2.64.4 4.68 1.24 5.8.84 1.16 2.56 1.88 4.6 1.88 2.64 0 4.92-.36 6.4-.84zm22.92-10.08c0-6.56-3.12-10.2-9.92-10.2-7.52 0-11.16 3.84-11.16 11.12 0 6.68 3.72 10.32 10.2 10.32 7.2 0 10.88-3.96 10.88-11.24zm-6.72.72c0 4.6-1.48 5.84-3.96 5.84-2.32 0-3.84-1.2-3.84-6.28 0-3.6 1.04-5.84 4.08-5.84 3.16 0 3.72 2.36 3.72 6.28zm23.96 9.36l-.76-4.6c-.96.16-2.08.2-2.64.2-.88 0-1.56-.2-1.92-.72-.44-.6-.6-1.44-.6-3.08v-6.6h4.8v-4.8h-4.8v-5.4l-6 .4c-.16 2.56-.24 3.68-.24 5-.52 0-2.52.12-3.72.4v4.4h3.64v7.96c0 2.64.4 4.68 1.24 5.8.84 1.16 2.56 1.88 4.6 1.88 2.64 0 4.92-.36 6.4-.84zm4.44 10.96c5.16-1.4 9.6-3.76 12.24-11.08l5.36-15 2.44-.36v-4.12h-11.32v4.12l2.44.28c-1.32 3.96-2.16 7.56-2.92 10.24-.92-2.6-1.96-6-3.6-10.24l2.52-.28v-4.12h-11.56v4.12l2.44.36 6 15.64h1.04c-.96 2.72-3.68 4.4-7 5.36zm34.32-.6v-4.16l-4-.36v-5.12c.96.12 1.92.16 2.92.16 6.4 0 10.48-3.6 10.48-11.2 0-6.6-2.44-9.92-6.6-9.92-2.6 0-5.4 1.4-6.8 2.56l-.12-2.6c-3.12.12-6.4.6-9.56 1.52v4.08h3.48v20.52l-3.28.36v4.16zm-4-14.6v-10.04c1.2-.4 2.24-.64 3.48-.64 1.92 0 3.16 1.52 3.16 5.2 0 4.28-1.64 5.76-4.08 5.76-.96 0-1.76-.12-2.56-.28zm18.76 15.2c5.16-1.4 9.6-3.76 12.24-11.08l5.36-15 2.44-.36v-4.12h-11.32v4.12l2.44.28c-1.32 3.96-2.16 7.56-2.92 10.24-.92-2.6-1.96-6-3.6-10.24l2.52-.28v-4.12h-11.56v4.12l2.44.36 6 15.64h1.04c-.96 2.72-3.68 4.4-7 5.36zM167.25 669.68c0 3.88.16 5.8.48 6.84 2.36.72 5.24 1.12 7.96 1.12 6.6 0 9.08-3.52 9.08-6.76 0-2.84-1-5.28-5.4-6.28l-3.32-.76c-1.12-.24-1.52-.88-1.52-1.6 0-.88.68-1.64 2.32-1.64.6 0 1.56.04 2.56.28l.48 2.8h4.36c0-2.4-.08-5.64-.52-6.76-1.68-.44-4.36-.72-6.64-.72-6.36 0-9.16 3.08-9.16 6.4 0 3.92 2.04 5.56 5.28 6.4l3.16.8c1 .28 1.52.68 1.52 1.64 0 .76-.44 1.6-2.28 1.6-1.12 0-2.56-.24-3.36-.6l-.64-2.76zm11.88-21.16l-2.76 3.12-2.68-3.12h-4.44l4.64 6.08h4.88l4.76-6.08zm30.52 23.92h-3.2v-8.6c0-2.84-.36-4.48-1.04-5.56-.88-1.44-2.64-2.08-5.56-2.08-2.4 0-6.92.68-9.92 1.68l.88 4.28c2.64-.64 5.44-.84 6.84-.84 1.36 0 2 .24 2.36.72.24.4.32 1.16.32 1.96v.56c-3.04.12-5.88.4-8.16 1.12-2.36.72-3.88 2.52-3.88 5.44 0 3.2 2 6.36 6.6 6.36 1.68 0 4.04-.56 5.8-2.44l.36 2.32c2.88 0 6.52-.44 8.6-1zm-9.24-.76c-.92.84-2.48 1.36-3.56 1.36-1.36 0-2.12-.8-2.12-2.08 0-.88.44-1.6 1.48-1.96 1.36-.48 3.44-.56 4.2-.64zm13.2 4.6c2.72.8 5.88 1.28 9.12 1.28 6.44 0 10.48-3.68 10.48-11.28 0-6.6-2.48-9.88-6.84-9.88-2.48 0-5.08 1.32-6.6 2.52v-11.56c-2.64 0-6.56.76-9.64 1.56V653h3.48zm6.2-3.8v-10.16c1.2-.4 2.24-.68 3.52-.68 1.72 0 3.12 1.6 3.12 5.24 0 4.28-1.6 5.84-4.08 5.84-.96 0-1.72-.08-2.56-.24zm28.76 4.52v-4.16l-3.32-.36v-25.12c-2.88 0-6.4.68-9.68 1.56V653h3.44v19.48l-3.08.36V677zm23.44-10.6c0-6.56-3.12-10.2-9.92-10.2-7.52 0-11.16 3.84-11.16 11.12 0 6.68 3.72 10.32 10.2 10.32 7.2 0 10.88-3.96 10.88-11.24zm-6.72.72c0 4.6-1.48 5.84-3.96 5.84-2.32 0-3.84-1.2-3.84-6.28 0-3.6 1.04-5.84 4.08-5.84 3.16 0 3.72 2.36 3.72 6.28zm22.52 9.88v-4.16l-3.28-.36v-10.16c1.4-.52 2.72-.68 3.92-.68.84 0 1.52.24 1.68 1.12.12.68.12 2 .12 3.92V677h9.68v-4.16l-3.36-.36v-7.12c0-2.24 0-4.08-.16-5.24-.32-2.4-1.48-3.8-4.56-3.8-1.88 0-5.12 1.12-7.32 2.72l-.12-2.76c-2.72 0-7 .68-9.56 1.52v4.08h3.44v10.6l-3.28.36V677zm16.92 10.44c5.16-1.4 9.6-3.76 12.24-11.08l5.36-15 2.44-.36v-4.12h-11.32V661l2.44.28c-1.32 3.96-2.16 7.56-2.92 10.24-.92-2.6-1.96-6-3.6-10.24l2.52-.28v-4.12h-11.56V661l2.44.36 6 15.64h1.04c-.96 2.72-3.68 4.4-7 5.36zM1204.55 669v-4.2l-3.72-.36v-6.2h1.84c.72.28 1.36.88 2.16 2.32.8 1.4 1.4 2.72 2.48 4.6 1.32 2.32 3.08 3.96 6.24 3.96 1.52 0 3.44-.12 4.68-.32l-.36-5c-.44.08-.88.12-1.12.12-1.72 0-2.76-.48-3.72-2.08-.48-.84-1.32-2.24-1.68-2.72-.68-1.04-1.28-1.64-2.04-2 3.56-1.12 5.76-3.36 5.76-7.88 0-3.48-1.96-5.72-4.8-6.6-1.68-.52-3.72-.68-6.04-.68h-13.88v4.2l3.84.36v17.92l-3.84.36v4.2zm-3.72-15.84v-6h2.4c1.44 0 2.6.12 3.28.48.84.44 1.36 1.04 1.36 2.64 0 1-.28 1.8-1.2 2.32-.96.52-2.44.56-4.12.56zm38.12 13.8l-2-3.92c-1.96 1.08-4.04 1.56-6.36 1.56-2.6 0-4-1.32-4.44-3.24-.08-.4-.08-1.08-.08-1.24h12.48c.08-.68.12-1.48.12-1.76 0-5.16-1.4-10.16-8.84-10.16-5.44 0-10.2 3.64-10.2 11.08 0 6.16 3.48 10.36 9.4 10.36 3.72 0 6.76-.84 9.92-2.68zm-6.36-11.04h-6.32c.28-1.88 1.6-3.24 3.44-3.24 2.04 0 2.92 1 2.92 2.48 0 .24 0 .48-.04.76zm10.88 12.36c2.72.8 5.88 1.28 9.12 1.28 6.44 0 10.48-3.68 10.48-11.28 0-6.6-2.48-9.88-6.84-9.88-2.48 0-5.08 1.32-6.6 2.52v-11.56c-2.64 0-6.56.76-9.64 1.56V645h3.48zm6.2-3.8v-10.16c1.2-.4 2.24-.68 3.52-.68 1.72 0 3.12 1.6 3.12 5.24 0 4.28-1.6 5.84-4.08 5.84-.96 0-1.72-.08-2.56-.24zm38-6.08c0-6.56-3.12-10.2-9.92-10.2-7.52 0-11.16 3.84-11.16 11.12 0 6.68 3.72 10.32 10.2 10.32 7.2 0 10.88-3.96 10.88-11.24zm-6.72.72c0 4.6-1.48 5.84-3.96 5.84-2.32 0-3.84-1.2-3.84-6.28 0-3.6 1.04-5.84 4.08-5.84 3.16 0 3.72 2.36 3.72 6.28zm31.32-.72c0-6.56-3.12-10.2-9.92-10.2-7.52 0-11.16 3.84-11.16 11.12 0 6.68 3.72 10.32 10.2 10.32 7.2 0 10.88-3.96 10.88-11.24zm-6.72.72c0 4.6-1.48 5.84-3.96 5.84-2.32 0-3.84-1.2-3.84-6.28 0-3.6 1.04-5.84 4.08-5.84 3.16 0 3.72 2.36 3.72 6.28zm23.96 9.36l-.76-4.6c-.96.16-2.08.2-2.64.2-.88 0-1.56-.2-1.92-.72-.44-.6-.6-1.44-.6-3.08v-6.6h4.8v-4.8h-4.8v-5.4l-6 .4c-.16 2.56-.24 3.68-.24 5-.52 0-2.52.12-3.72.4v4.4h3.64v7.96c0 2.64.4 4.68 1.24 5.8.84 1.16 2.56 1.88 4.6 1.88 2.64 0 4.92-.36 6.4-.84zM199.93 477v-4.16l-3.28-.36v-10.16c1.4-.52 2.72-.68 3.92-.68.84 0 1.52.24 1.68 1.12.12.68.12 2 .12 3.92V477h9.68v-4.16l-3.36-.36v-7.12c0-2.24 0-4.08-.16-5.24-.32-2.4-1.48-3.8-4.56-3.8-1.88 0-5.12 1.12-7.32 2.72l-.12-2.76c-2.72 0-7 .68-9.56 1.52v4.08h3.44v10.6l-3.28.36V477zm34.96-4.56h-3.2v-8.6c0-2.84-.36-4.48-1.04-5.56-.88-1.44-2.64-2.08-5.56-2.08-2.4 0-6.92.68-9.92 1.68l.88 4.28c2.64-.64 5.44-.84 6.84-.84 1.36 0 2 .24 2.36.72.24.4.32 1.16.32 1.96v.56c-3.04.12-5.88.4-8.16 1.12-2.36.72-3.88 2.52-3.88 5.44 0 3.2 2 6.36 6.6 6.36 1.68 0 4.04-.56 5.8-2.44l.36 2.32c2.88 0 6.52-.44 8.6-1zm-9.24-.76c-.92.84-2.48 1.36-3.56 1.36-1.36 0-2.12-.8-2.12-2.08 0-.88.44-1.6 1.48-1.96 1.36-.48 3.44-.56 4.2-.64zm25.96 5.32l6.24-15.64 2.44-.36v-4.12h-11.44V461l2.44.28c-1.36 3.96-2.36 7.2-3.16 9.88-.92-2.8-1.8-5.88-3.36-9.88l2.52-.28v-4.12h-11.72V461l2.44.36 6.24 15.64zm11.72-.72c2.72.8 5.88 1.28 9.12 1.28 6.44 0 10.48-3.68 10.48-11.28 0-6.6-2.48-9.88-6.84-9.88-2.48 0-5.08 1.32-6.6 2.52v-11.56c-2.64 0-6.56.76-9.64 1.56V453h3.48zm6.2-3.8v-10.16c1.2-.4 2.24-.68 3.52-.68 1.72 0 3.12 1.6 3.12 5.24 0 4.28-1.6 5.84-4.08 5.84-.96 0-1.72-.08-2.56-.24zm37.76-.04h-3.2v-8.6c0-2.84-.36-4.48-1.04-5.56-.88-1.44-2.64-2.08-5.56-2.08-2.4 0-6.92.68-9.92 1.68l.88 4.28c2.64-.64 5.44-.84 6.84-.84 1.36 0 2 .24 2.36.72.24.4.32 1.16.32 1.96v.56c-3.04.12-5.88.4-8.16 1.12-2.36.72-3.88 2.52-3.88 5.44 0 3.2 2 6.36 6.6 6.36 1.68 0 4.04-.56 5.8-2.44l.36 2.32c2.88 0 6.52-.44 8.6-1zm-9.24-.76c-.92.84-2.48 1.36-3.56 1.36-1.36 0-2.12-.8-2.12-2.08 0-.88.44-1.6 1.48-1.96 1.36-.48 3.44-.56 4.2-.64zm24.8 5.32v-4.16l-3.88-.4v-9.64c1.4-.68 3.2-.96 4.72-.96 1.12 0 1.92.08 2.28.12v-5.52c-.36-.04-.92-.08-1.28-.08-2.48 0-4.64 1.32-5.8 3.32v-3.4c-3.12.04-6.68.56-9.6 1.52v4.08h3.44v10.6l-3.28.36V477z" opacity=".32" fill="#FFF"/><path d="M939.37 247.76c36.73 0 66.51 29.13 66.51 65.07v274.34c0 35.94-29.78 65.07-66.51 65.07H660.63c-36.73 0-66.51-29.13-66.51-65.07V312.83c0-35.94 29.78-65.07 66.51-65.07h278.74zm-139.73 77.13H699.45v250.56h110.77c34.43 0 60.09-5.93 76.96-17.79 16.87-11.86 25.31-29.88 25.31-54.04 0-15.78-3.93-29.09-11.79-39.94-7.86-10.85-18.95-18.29-33.28-22.32 11.21-4.14 19.76-10.46 25.65-18.97 5.9-8.61 8.84-19.02 8.84-31.21 0-23.16-8.09-40-24.26-50.51-16.07-10.52-42.07-15.78-78.01-15.78zm5.72 140.97c13.52 0 23.64 2.74 30.34 8.22 6.7 5.37 10.05 13.48 10.05 24.34 0 11.07-3.41 19.35-10.23 24.83-6.7 5.49-16.75 8.23-30.16 8.23h-39.17v-65.62h39.17zm-2.25-97c10.52 0 18.49 2.29 23.92 6.88 5.43 4.48 8.15 11.02 8.15 19.63 0 8.73-2.72 15.33-8.15 19.81-5.43 4.47-13.4 6.71-23.92 6.71h-36.92v-53.03h36.92z" fill="#FFF"/></svg>