<svg xmlns="http://www.w3.org/2000/svg" width="1000" height="575"><path fill="#5FA316" d="M0 0h1000v575H0z"/><path d="M0 0h1000v575H0V0z" opacity=".691"/><g fill="#F4F1C7"><path d="M400.841 386.515l-10.825 6.249-5.168-6.884a32.732 32.732 0 01-11.038 1.455l-3.432 8.534-12.071-3.234 1.433-9.069a32.788 32.788 0 01-8.83-6.78l-7.92 3.377-6.247-10.824 6.883-5.168a32.782 32.782 0 01-1.455-11.038l-8.258-3.321 3.235-12.069 8.792 1.321a32.741 32.741 0 016.78-8.831l-3.377-7.919 10.822-6.248 5.169 6.883a32.788 32.788 0 0111.039-1.455l3.21-7.985 12.071 3.234-1.212 8.519a32.747 32.747 0 018.829 6.78l7.92-3.376 6.248 10.824-6.884 5.168a32.752 32.752 0 011.457 11.037l8.297 3.295-3.233 12.07-8.835-1.296a32.741 32.741 0 01-6.78 8.831l3.38 7.92zm-15.102-38.259a12.246 12.246 0 00-7.463-5.727 12.252 12.252 0 00-9.328 1.228 12.24 12.24 0 00-5.726 7.464 12.237 12.237 0 001.227 9.327 12.248 12.248 0 007.463 5.726c3.279.878 6.604.347 9.328-1.227a12.248 12.248 0 005.725-7.465 12.23 12.23 0 00-1.226-9.326zm-166.563 52.613a101.714 101.714 0 0032.28-4.604l6.665 11.086 16.277-6.908-3.375-12.608a103.495 103.495 0 0013.111-8.723 102.839 102.839 0 0012.335-11.366l11.572 6.409 10.641-14.12-9.426-9.435a101.647 101.647 0 0010.445-24.342 89.97 89.97 0 01-25.015-6.582c-10.075 33.514-42.52 59.8-83 54.83-42.046-5.163-71.948-43.463-66.785-85.503 2.586-21.06 13.434-39.056 28.885-51.127 19.588-15.304 44.431-19.539 66.86-13.649a89.715 89.715 0 017.19-24.827 106.54 106.54 0 00-3.593-.901l-.258-14.435-17.549-2.156-3.742 13.943a101.681 101.681 0 00-31.13 4.321l-7.408-12.323-16.274 6.91 3.703 13.843a103.395 103.395 0 00-24.963 19.304l-12.386-6.86-10.641 14.121 9.883 9.891a101.704 101.704 0 00-12.142 29.452l-13.737.244-2.154 17.552 13.108 3.516a101.63 101.63 0 004.262 31.891l-11.427 6.872 6.908 16.276 12.777-3.419a103.157 103.157 0 009.219 14.011 103.446 103.446 0 0010.614 11.636l-6.323 11.417 14.121 10.64 9.152-9.143a101.724 101.724 0 0030.206 12.274l.228 12.865 17.55 2.153 3.336-12.426z" opacity=".567"/><path d="M341.527 242.641a4.091 4.091 0 01-.306 5.455 4.09 4.09 0 01-5.452.28 12.54 12.54 0 01-5.527 1.276c-6.949 0-12.584-5.634-12.584-12.583 0-1.993.465-3.879 1.289-5.552l-20.768-20.859a4.087 4.087 0 015.795-5.764l20.766 20.856a12.53 12.53 0 015.502-1.263c6.95 0 12.583 5.634 12.583 12.582a12.51 12.51 0 01-1.298 5.572zm27.358-44.211c-9.887-9.887-23.551-16.004-38.639-16.004-15.092 0-28.753 6.117-38.641 16.004-9.888 9.886-16.004 23.55-16.004 38.64s6.116 28.751 16.004 38.639c9.888 9.888 23.549 16.007 38.641 16.007 15.088 0 28.752-6.119 38.639-16.007 9.886-9.887 16.005-23.549 16.005-38.639 0-15.09-6.119-28.754-16.005-38.64zm-22.246-46.867h-9.563v6.567a78.725 78.725 0 0135.661 12.054l9.389-10.668a4.11 4.11 0 015.784-.369l12.306 10.831a4.112 4.112 0 01.369 5.784l-9.395 10.673c11.42 13.731 18.288 31.38 18.288 50.634 0 21.881-8.868 41.69-23.207 56.026-14.336 14.338-34.147 23.206-56.027 23.206-21.882 0-41.691-8.868-56.029-23.206-14.338-14.336-23.206-34.145-23.206-56.026 0-19.256 6.869-36.904 18.288-50.634l-9.399-10.679a4.107 4.107 0 01.369-5.782l12.304-10.831a4.108 4.108 0 015.783.368l9.393 10.672a78.742 78.742 0 0135.665-12.055v-6.567h-9.562a4.107 4.107 0 01-4.099-4.097v-13.661a4.11 4.11 0 014.099-4.098h32.788a4.11 4.11 0 014.098 4.098v13.663a4.108 4.108 0 01-4.097 4.097z"/></g><path d="M505.8 235.504v-7.56l-7.992-.576v-10.152h3.744c3.96 0 7.92-.288 11.16-1.44 6.624-2.232 9.792-7.344 9.792-14.112 0-7.92-3.384-12.024-10.584-13.824-3.024-.72-9.792-1.008-13.896-1.008h-19.08v7.56l6.912.648v32.256l-6.912.648v7.56zm-7.992-27.576v-11.736h3.96c2.304 0 4.536.36 5.76 1.08 1.368.792 2.304 2.448 2.304 4.536 0 2.592-1.08 4.464-3.024 5.4-1.08.504-3.384.72-5.184.72zm65.88 8.496c0-11.808-5.616-18.36-17.856-18.36-13.536 0-20.088 6.912-20.088 20.016 0 12.024 6.696 18.576 18.36 18.576 12.96 0 19.584-7.128 19.584-20.232zm-12.096 1.296c0 8.28-2.664 10.512-7.128 10.512-4.176 0-6.912-2.16-6.912-11.304 0-6.48 1.872-10.512 7.344-10.512 5.688 0 6.696 4.248 6.696 11.304zm39.312 17.784v-7.488l-5.544-.648v-2.88l4.176-3.312 4.608 7.056c1.296 2.016 3.168 4.392 5.04 5.688 1.872 1.296 4.608 1.872 7.92 1.872 2.376 0 4.032-.36 4.968-.648l-.504-8.856c-.576.072-1.08.072-1.44.072-.432 0-1.656-.144-2.592-.648-1.224-.648-2.736-2.016-4.392-4.392l-5.256-7.776c2.16-2.016 4.464-4.32 6.768-6.624l5.184-.504v-7.128h-20.52v7.344l3.672.432c-2.88 3.24-5.328 5.688-7.632 7.776v-32.688c-4.968 0-13.104 1.512-17.424 2.808v7.344h6.192v35.064l-5.544.648v7.488zm47.52 0v-7.488l-6.984-.72v-17.352c2.52-1.224 5.76-1.728 8.496-1.728 2.016 0 3.456.144 4.104.216v-9.936a24.734 24.734 0 00-2.304-.144c-4.464 0-8.352 2.376-10.44 5.976v-6.12c-5.616.072-12.024 1.008-17.28 2.736v7.344h6.192v19.08l-5.904.648v7.488zm45.36-19.08c0-11.808-5.616-18.36-17.856-18.36-13.536 0-20.088 6.912-20.088 20.016 0 12.024 6.696 18.576 18.36 18.576 12.96 0 19.584-7.128 19.584-20.232zm-12.096 1.296c0 8.28-2.664 10.512-7.128 10.512-4.176 0-6.912-2.16-6.912-11.304 0-6.48 1.872-10.512 7.344-10.512 5.688 0 6.696 4.248 6.696 11.304zm51.696 14.256l-3.312-6.984c-3.816 1.512-6.336 2.448-10.224 2.448-4.248 0-7.992-2.88-7.992-9.864 0-8.712 3.6-11.16 7.344-11.16 1.008 0 2.16.144 3.24.36l.648 5.832h8.568c0-7.056 0-10.656-.432-13.032-3.384-1.008-7.632-1.512-11.376-1.512-12.816 0-19.728 7.344-19.728 20.232 0 11.232 6.408 18.36 16.92 18.36 6.12 0 11.232-1.728 16.344-4.68zm-10.08-47.736l-4.968 5.616-4.824-5.616h-7.992l8.352 10.944h8.784l8.568-10.944zm29.88 4.32c0-4.536-2.52-5.976-5.904-5.976-3.312 0-6.12 1.656-6.12 5.976s2.808 5.904 5.904 5.904c3.6 0 6.12-1.872 6.12-5.904zm6.984 46.944v-7.488l-5.904-.648v-29.16c-5.688 0-12.024 1.08-17.424 2.664v7.416h6.192v19.08l-5.904.648v7.488zm25.848 0v-7.488l-5.976-.648v-45.216c-5.184 0-11.52 1.224-17.424 2.808v7.344h6.192v35.064l-5.544.648v7.488zm9.072 18.792c9.288-2.52 17.28-6.768 22.032-19.944l9.648-27 4.392-.648v-7.416h-20.376v7.416l4.392.504c-2.376 7.128-3.888 13.608-5.256 18.432-1.656-4.68-3.528-10.8-6.48-18.432l4.536-.504v-7.416h-20.808v7.416l4.392.648 10.8 28.152h1.872c-1.728 4.896-6.624 7.92-12.6 9.648zM801 195.184l11.88-11.52h-11.376l-8.64 11.52zm-297.648 119.37v-7.488l-6.984-.72v-17.352c2.52-1.224 5.76-1.728 8.496-1.728 2.016 0 3.456.144 4.104.216v-9.936a24.734 24.734 0 00-2.304-.144c-4.464 0-8.352 2.376-10.44 5.976v-6.12c-5.616.072-12.024 1.008-17.28 2.736v7.344h6.192v19.08l-5.904.648v7.488zm42.192-3.672l-3.6-7.056c-3.528 1.944-7.272 2.808-11.448 2.808-4.68 0-7.2-2.376-7.992-5.832-.144-.72-.144-1.944-.144-2.232h22.464c.144-1.224.216-2.664.216-3.168 0-9.288-2.52-18.288-15.912-18.288-9.792 0-18.36 6.552-18.36 19.944 0 11.088 6.264 18.648 16.92 18.648 6.696 0 12.168-1.512 17.856-4.824zm-11.448-19.872H522.72c.504-3.384 2.88-5.832 6.192-5.832 3.672 0 5.256 1.8 5.256 4.464 0 .432 0 .864-.072 1.368zm16.848 10.368c0 6.984.288 10.44.864 12.312 4.248 1.296 9.432 2.016 14.328 2.016 11.88 0 16.344-6.336 16.344-12.168 0-5.112-1.8-9.504-9.72-11.304l-5.976-1.368c-2.016-.432-2.736-1.584-2.736-2.88 0-1.584 1.224-2.952 4.176-2.952 1.08 0 2.808.072 4.608.504l.864 5.04h7.848c0-4.32-.144-10.152-.936-12.168-3.024-.792-7.848-1.296-11.952-1.296-11.448 0-16.488 5.544-16.488 11.52 0 7.056 3.672 10.008 9.504 11.52l5.688 1.44c1.8.504 2.736 1.224 2.736 2.952 0 1.368-.792 2.88-4.104 2.88-2.016 0-4.608-.432-6.048-1.08l-1.152-4.968zm59.4 30.888v-7.488l-7.2-.648v-9.216c1.728.216 3.456.288 5.256.288 11.52 0 18.864-6.48 18.864-20.16 0-11.88-4.392-17.856-11.88-17.856-4.68 0-9.72 2.52-12.24 4.608l-.216-4.68c-5.616.216-11.52 1.08-17.208 2.736v7.344h6.264v36.936l-5.904.648v7.488zm-7.2-26.28v-18.072c2.16-.72 4.032-1.152 6.264-1.152 3.456 0 5.688 2.736 5.688 9.36 0 7.704-2.952 10.368-7.344 10.368-1.728 0-3.168-.216-4.608-.504zm68.4-10.512c0-11.808-5.616-18.36-17.856-18.36-13.536 0-20.088 6.912-20.088 20.016 0 12.024 6.696 18.576 18.36 18.576 12.96 0 19.584-7.128 19.584-20.232zm-12.096 1.296c0 8.28-2.664 10.512-7.128 10.512-4.176 0-6.912-2.16-6.912-11.304 0-6.48 1.872-10.512 7.344-10.512 5.688 0 6.696 4.248 6.696 11.304zm40.536 17.784v-7.488l-5.904-.648V288.13c2.52-.936 4.896-1.224 7.056-1.224 1.512 0 2.736.432 3.024 2.016.216 1.224.216 3.6.216 7.056v18.576H721.8v-7.488l-6.048-.648v-12.816c0-4.032 0-7.344-.288-9.432-.576-4.32-2.664-6.84-8.208-6.84-3.384 0-9.216 2.016-13.176 4.896l-.216-4.968c-4.896 0-12.6 1.224-17.208 2.736v7.344h6.192v19.08l-5.904.648v7.488zm59.328 0c.36-1.656.864-6.192.864-15.696h-7.92l-1.368 7.56h-11.16c3.744-3.888 6.912-7.272 18.936-20.736v-7.344h-31.968c-.504 1.728-.936 5.688-.936 14.832h7.632l1.44-6.984h8.568c-4.032 4.32-7.344 8.352-18.36 21.096v7.272zm21.672-46.944c0-4.536-2.52-5.976-5.904-5.976-3.312 0-6.12 1.656-6.12 5.976s2.808 5.904 5.904 5.904c3.6 0 6.12-1.872 6.12-5.904zm6.984 46.944v-7.488l-5.904-.648v-29.16c-5.688 0-12.024 1.08-17.424 2.664v7.416h6.192v19.08l-5.904.648v7.488zm30.24 0l11.232-28.152 4.392-.648v-7.416H813.24v7.416l4.392.504a445.561 445.561 0 00-5.688 17.784c-1.656-5.04-3.24-10.584-6.048-17.784l4.536-.504v-7.416h-21.096v7.416l4.392.648 11.232 28.152zm41.976 0v-7.488l-5.904-.648V288.13c2.52-.936 4.896-1.224 7.056-1.224 1.512 0 2.736.432 3.024 2.016.216 1.224.216 3.6.216 7.056v18.576H882v-7.488l-6.048-.648v-12.816c0-4.032 0-7.344-.288-9.432-.576-4.32-2.664-6.84-8.208-6.84-3.384 0-9.216 2.016-13.176 4.896l-.216-4.968c-4.896 0-12.6 1.224-17.208 2.736v7.344h6.192v19.08l-5.904.648v7.488zm37.728-40.32l11.88-11.52h-11.376l-8.64 11.52zm10.44 40.32v-7.488l-5.904-.648v-29.16c-5.688 0-12.024 1.08-17.424 2.664v7.416h6.192v19.08l-5.904.648v7.488zm-387.216 71.202h-5.76V340.18c-5.832.072-12.312 1.296-18.144 2.88v7.344h6.696v7.128c-1.728-.648-4.608-.936-6.48-.936-9 0-17.28 5.4-17.28 19.728 0 11.376 6.048 18 14.112 18 3.96 0 7.344-1.584 10.224-4.248l.648 4.176c5.4 0 11.448-.504 15.984-1.44zm-17.208-2.232c-2.304 1.224-4.32 1.8-5.76 1.8-3.528 0-6.264-1.872-6.264-9.576 0-8.28 3.672-9.792 7.344-9.792 1.296 0 2.952.144 4.68.504zm55.944 6.408l-3.6-7.056c-3.528 1.944-7.272 2.808-11.448 2.808-4.68 0-7.2-2.376-7.992-5.832-.144-.72-.144-1.944-.144-2.232h22.464c.144-1.224.216-2.664.216-3.168 0-9.288-2.52-18.288-15.912-18.288-9.792 0-18.36 6.552-18.36 19.944 0 11.088 6.264 18.648 16.92 18.648 6.696 0 12.168-1.512 17.856-4.824zm-11.448-19.872h-11.376c.504-3.384 2.88-5.832 6.192-5.832 3.672 0 5.256 1.8 5.256 4.464 0 .432 0 .864-.072 1.368zm16.848 10.368c0 6.984.288 10.44.864 12.312 4.248 1.296 9.432 2.016 14.328 2.016 11.88 0 16.344-6.336 16.344-12.168 0-5.112-1.8-9.504-9.72-11.304l-5.976-1.368c-2.016-.432-2.736-1.584-2.736-2.88 0-1.584 1.224-2.952 4.176-2.952 1.08 0 2.808.072 4.608.504l.864 5.04h7.848c0-4.32-.144-10.152-.936-12.168-3.024-.792-7.848-1.296-11.952-1.296-11.448 0-16.488 5.544-16.488 11.52 0 7.056 3.672 10.008 9.504 11.52l5.688 1.44c1.8.504 2.736 1.224 2.736 2.952 0 1.368-.792 2.88-4.104 2.88-2.016 0-4.608-.432-6.048-1.08l-1.152-4.968zm53.064-33.768c0-4.536-2.52-5.976-5.904-5.976-3.312 0-6.12 1.656-6.12 5.976s2.808 5.904 5.904 5.904c3.6 0 6.12-1.872 6.12-5.904zm6.984 46.944v-7.488l-5.904-.648v-29.16c-5.688 0-12.024 1.08-17.424 2.664v7.416h6.192v19.08l-5.904.648v7.488zm14.976-11.52c1.44.432 3.24.648 5.04.648 8.856 0 15.696-4.32 15.696-12.816 0-1.08-.144-2.736-.648-3.888h5.256v-8.136h-11.088c-2.088-1.08-5.04-1.728-8.928-1.728-11.592 0-16.2 6.624-16.2 13.68 0 4.32 1.872 8.424 5.256 10.224-3.312 3.6-4.536 5.904-4.536 8.208 0 2.88 1.584 4.968 4.608 5.904-4.896 2.16-7.128 5.04-7.128 8.28 0 4.608 3.384 9.864 16.488 9.864 13.68 0 20.808-6.264 20.808-14.328 0-6.12-2.88-9.936-11.16-10.872l-12.024-1.368c-1.8-.216-2.304-1.008-2.304-1.8 0-.504.216-1.224.864-1.872zm.36 13.608l6.12.36c4.68.288 5.832 1.872 5.832 4.176 0 1.872-2.232 3.96-6.552 3.96-5.976 0-7.704-1.944-7.704-3.888 0-1.512.72-3.024 2.304-4.608zm9.792-26.064c0 3.6-1.8 5.472-5.04 5.472-3.024 0-4.68-1.728-4.68-5.4 0-2.88 1.224-5.616 4.824-5.616 3.744 0 4.896 2.592 4.896 5.544zm42.264 23.976v-7.488l-5.904-.648V367.18c2.52-.936 4.896-1.224 7.056-1.224 1.512 0 2.736.432 3.024 2.016.216 1.224.216 3.6.216 7.056v18.576h17.424v-7.488l-6.048-.648v-12.816c0-4.032 0-7.344-.288-9.432-.576-4.32-2.664-6.84-8.208-6.84-3.384 0-9.216 2.016-13.176 4.896l-.216-4.968c-4.896 0-12.6 1.224-17.208 2.736v7.344h6.192v19.08l-5.904.648v7.488z" fill="#F4F1C7"/></svg>