<svg xmlns="http://www.w3.org/2000/svg" width="1000" height="575"><path fill="#FFF" d="M0 0h1000v575H0z"/><path d="M0 0h1000v575H0z" fill="#5FA316"/><path d="M0 0h1000v575H0V0z" opacity=".691"/><path d="M667.295 449.805l-15.52 8.959-7.41-9.87a46.912 46.912 0 01-15.825 2.086l-4.921 12.236-17.306-4.637 2.054-13.002a47.018 47.018 0 01-12.659-9.721l-11.356 4.842-8.956-15.519 9.868-7.409a47.018 47.018 0 01-2.086-15.826l-11.839-4.761 4.638-17.304 12.605 1.894a46.94 46.94 0 019.721-12.661l-4.842-11.354 15.516-8.958 7.411 9.869a46.995 46.995 0 0115.827-2.086l4.602-11.449 17.306 4.637-1.737 12.214a46.958 46.958 0 0112.658 9.721l11.355-4.841 8.958 15.519-9.87 7.409a46.958 46.958 0 012.089 15.824l11.896 4.725-4.635 17.305-12.667-1.858a46.956 46.956 0 01-9.721 12.661l4.846 11.355zm-21.652-54.853a17.559 17.559 0 00-10.7-8.211 17.565 17.565 0 00-13.374 1.761 17.544 17.544 0 00-8.209 10.701 17.537 17.537 0 001.759 13.372 17.558 17.558 0 0010.7 8.21 17.566 17.566 0 0013.373-1.759 17.565 17.565 0 008.209-10.703c1.263-4.698.5-9.466-1.758-13.371zm-238.806 75.433a145.86 145.86 0 0046.281-6.601l9.556 15.894 23.336-9.904-4.838-18.077a148.263 148.263 0 0036.482-28.802l16.591 9.189 15.256-20.244-13.514-13.527a145.74 145.74 0 0014.975-34.9 128.993 128.993 0 01-35.864-9.437c-14.445 48.05-60.962 85.737-118.999 78.611-60.283-7.402-103.154-62.314-95.752-122.588 3.708-30.194 19.261-55.995 41.413-73.302 28.084-21.941 63.702-28.013 95.859-19.568a128.64 128.64 0 0110.309-35.596 153.85 153.85 0 00-5.152-1.291l-.369-20.696-25.161-3.091-5.365 19.99a145.783 145.783 0 00-44.632 6.195l-10.621-17.668-23.332 9.908 5.309 19.847a148.062 148.062 0 00-35.79 27.676l-17.758-9.835-15.257 20.245 14.17 14.181a145.808 145.808 0 00-17.408 42.227l-19.695.349-3.089 25.165 18.794 5.041a145.68 145.68 0 006.11 45.723l-16.383 9.853 9.904 23.335 18.319-4.902a147.956 147.956 0 0013.217 20.088 148.33 148.33 0 0015.218 16.683l-9.066 16.368 20.246 15.255 13.122-13.108a145.825 145.825 0 0043.307 17.597l.326 18.445 25.162 3.087 4.783-17.815z" opacity=".567" fill="#F8E700"/><path d="M582.255 243.529a5.866 5.866 0 01-.438 7.821 5.864 5.864 0 01-7.817.402 17.985 17.985 0 01-7.924 1.829c-9.963 0-18.042-8.078-18.042-18.041 0-2.857.666-5.561 1.848-7.96l-29.776-29.906a5.86 5.86 0 018.309-8.264l29.772 29.902a17.972 17.972 0 017.889-1.811c9.964 0 18.04 8.078 18.04 18.039 0 2.871-.668 5.582-1.861 7.989zm39.224-63.386c-14.175-14.176-33.766-22.946-55.398-22.946-21.637 0-41.224 8.77-55.4 22.946-14.177 14.174-22.945 33.764-22.945 55.399 0 21.635 8.768 41.221 22.945 55.398 14.176 14.176 33.763 22.949 55.4 22.949 21.632 0 41.223-8.773 55.398-22.949 14.174-14.176 22.947-33.763 22.947-55.398 0-21.635-8.773-41.225-22.947-55.399zm-31.895-67.195h-13.71v9.416a112.865 112.865 0 0151.128 17.282l13.461-15.295c2.139-2.429 5.868-2.661 8.293-.529l17.643 15.528c2.425 2.135 2.663 5.87.529 8.293l-13.47 15.302c16.373 19.687 26.22 44.99 26.22 72.595 0 31.372-12.714 59.772-33.272 80.326-20.554 20.557-48.958 33.271-80.327 33.271-31.373 0-59.774-12.714-80.331-33.271-20.556-20.554-33.271-48.954-33.271-80.326 0-27.607 9.849-52.91 26.22-72.595l-13.475-15.311c-2.135-2.424-1.899-6.155.529-8.289l17.64-15.529c2.426-2.135 6.157-1.9 8.292.528l13.467 15.3a112.886 112.886 0 0151.133-17.283v-9.416h-13.709c-3.232 0-5.877-2.635-5.877-5.873V87.485c0-3.233 2.645-5.875 5.877-5.875h47.009c3.233 0 5.875 2.647 5.875 5.875v19.589c.002 3.228-2.638 5.874-5.874 5.874z" fill="#F4F1C7"/></svg>