<svg xmlns="http://www.w3.org/2000/svg" width="498.898" height="708.661"><path fill="#48440E" d="M0 0h498.898v708.661H0z"/><path d="M167.692 612.167c.076-.456.095-1.121.095-3.363h-.855l-.323 2.166c-2.033 0-4.028.019-5.814.038 1.52-1.178 2.85-2.28 3.99-3.344 1.463-1.349 2.47-2.945 2.47-4.56 0-2.147-1.178-3.439-3.667-3.439-1.216 0-2.641.38-4.028 1.254l.418 1.007c1.121-.646 2.299-1.045 3.42-1.045 1.862 0 2.47 1.121 2.47 2.318 0 1.159-.722 2.47-1.729 3.496-1.634 1.653-3.287 3.04-5.225 4.503v.969zm10.488 0c.076-.456.095-1.121.095-3.363h-.855l-.323 2.166c-2.033 0-4.028.019-5.814.038 1.52-1.178 2.85-2.28 3.99-3.344 1.463-1.349 2.47-2.945 2.47-4.56 0-2.147-1.178-3.439-3.667-3.439-1.216 0-2.641.38-4.028 1.254l.418 1.007c1.121-.646 2.299-1.045 3.42-1.045 1.862 0 2.47 1.121 2.47 2.318 0 1.159-.722 2.47-1.729 3.496-1.634 1.653-3.287 3.04-5.225 4.503v.969zm11.001 0v-.893l-1.767-.152v-6.004c1.311-1.007 2.47-1.368 3.344-1.368.76 0 1.178.304 1.311.855.095.418.152 1.121.152 2.223v5.339h3.116v-.893l-1.9-.152v-4.617c0-1.064 0-1.691-.076-2.242-.171-1.083-.76-1.71-2.109-1.71-1.159 0-2.755.722-3.838 1.691l-.095-1.653c-.836 0-2.204.228-3.021.456v.855h1.9v7.22l-1.767.152v.893zm16.34-4.921c0-3.116-1.349-4.75-4.18-4.75-2.793 0-4.503 1.786-4.503 5.111 0 3.021 1.577 4.845 4.237 4.845 2.907 0 4.446-1.919 4.446-5.206zm-1.292.285c0 2.641-1.292 3.819-3.04 3.819-1.9 0-3.059-1.083-3.059-4.066 0-2.128 1.045-3.686 3.135-3.686 2.413 0 2.964 1.653 2.964 3.933zm8.417 4.636l3.382-8.322 1.33-.152v-.893h-4.446v.893l1.805.133c-1.71 4.256-2.128 5.377-2.679 6.954-.608-1.634-.988-2.717-2.679-6.954l1.805-.133v-.893h-4.484v.893l1.311.152 3.344 8.322zm6.403 4.921c2.527-.361 3.895-1.862 5.282-5.662l2.755-7.581 1.33-.152v-.893h-4.427v.893l1.824.133c-1.539 4.199-1.976 5.605-2.527 7.201-.57-1.558-1.064-2.888-2.869-7.201l1.805-.133v-.893h-4.446v.893l1.311.152 3.363 8.322h.304c-.931 2.204-1.843 3.515-3.99 3.8zm3.933-15.561l2.774-2.85h-1.52l-2.318 2.85zm14.364 9.5l-.456-.855c-1.045.703-1.862 1.102-3.097 1.102-1.691 0-2.926-1.235-2.926-3.591 0-2.603 1.159-4.085 3.23-4.085.513 0 1.064.038 1.577.171l.247 1.824h1.026c0-1.159 0-2.318-.095-2.736-.741-.247-1.691-.361-2.622-.361-2.698 0-4.655 1.71-4.655 5.301 0 2.964 1.615 4.655 3.952 4.655 1.539 0 2.698-.57 3.819-1.425zm5.681 1.14v-.893l-1.767-.152v-5.985c1.292-1.026 2.489-1.387 3.325-1.387.779 0 1.216.304 1.349.855.095.418.133 1.121.133 2.223v5.339h3.116v-.893l-1.9-.152v-4.636c0-1.045 0-1.691-.076-2.223-.152-1.083-.76-1.71-2.128-1.71-1.102 0-2.698.703-3.838 1.691v-6.099c-.893 0-2.109.171-3.078.456v.855h1.881v11.666l-1.748.152v.893zm17.062 0l3.382-8.322 1.33-.152v-.893h-4.446v.893l1.805.133c-1.71 4.256-2.128 5.377-2.679 6.954-.608-1.634-.988-2.717-2.679-6.954l1.805-.133v-.893h-4.484v.893l1.311.152 3.344 8.322zm10.051 0v-.893l-1.767-.152v-12.977c-.969 0-2.09.171-3.097.456v.855h1.881v11.666l-1.748.152v.893zm10.602-1.007h-1.881v-5.073c0-1.406-.076-2.147-.361-2.66-.38-.665-1.235-.931-2.28-.931-.988 0-2.451.285-3.857.798l.209 1.007c1.254-.418 2.451-.627 3.211-.627.95 0 1.292.19 1.577.532.209.285.304.912.304 1.805v.684c-1.558.038-3.192.209-4.237.532-1.121.361-1.767 1.178-1.767 2.28 0 1.463.893 2.85 2.869 2.85 1.292 0 2.413-.532 3.192-1.387l.095 1.33c.969 0 2.28-.152 2.926-.304zm-3.059-1.121c-.779.76-1.748 1.216-2.85 1.216-1.064 0-1.9-.57-1.9-1.748 0-.684.437-1.178 1.14-1.425.817-.285 2.318-.418 3.61-.456zm4.389-.722c0 1.045.057 2.014.171 2.622a9.724 9.724 0 003.002.513c2.242 0 3.496-1.235 3.496-2.831 0-1.178-.57-1.995-2.128-2.489l-1.501-.494c-1.14-.38-1.425-.893-1.425-1.596 0-.684.513-1.501 2.033-1.501.456 0 1.026.019 1.596.171l.323 1.729h.893c0-.855-.019-2.071-.133-2.622-.722-.209-1.596-.323-2.546-.323-2.28 0-3.439 1.235-3.439 2.66 0 1.254.551 2.09 1.976 2.565l1.368.437c1.368.456 1.653.912 1.653 1.653 0 .912-.798 1.558-2.166 1.558-.589 0-1.311-.133-1.938-.323l-.323-1.729zm14.098 2.622l-.209-.988c-.494.114-1.026.19-1.444.19-.551 0-.95-.209-1.14-.513-.19-.304-.285-.798-.285-1.824v-4.883h2.565V602.8h-2.565v-2.47l-1.178.095a153.935 153.935 0 00-.057 2.375c-.57 0-1.33.038-1.919.114v1.007h1.9v5.092c0 1.159.133 1.976.418 2.432.342.532.988.874 1.786.874.76 0 1.501-.152 2.128-.38zm5.757.228v-.893l-1.767-.152v-6.004c1.311-1.007 2.47-1.368 3.344-1.368.76 0 1.178.304 1.311.855.095.418.152 1.121.152 2.223v5.339h3.116v-.893l-1.9-.152v-4.617c0-1.064 0-1.691-.076-2.242-.171-1.083-.76-1.71-2.109-1.71-1.159 0-2.755.722-3.838 1.691l-.095-1.653c-.836 0-2.204.228-3.021.456v.855h1.9v7.22l-1.767.152v.893zm16.34-4.921c0-3.116-1.349-4.75-4.18-4.75-2.793 0-4.503 1.786-4.503 5.111 0 3.021 1.577 4.845 4.237 4.845 2.907 0 4.446-1.919 4.446-5.206zm-1.292.285c0 2.641-1.292 3.819-3.04 3.819-1.9 0-3.059-1.083-3.059-4.066 0-2.128 1.045-3.686 3.135-3.686 2.413 0 2.964 1.653 2.964 3.933zm3.401 1.786c0 1.045.057 2.014.171 2.622a9.724 9.724 0 003.002.513c2.242 0 3.496-1.235 3.496-2.831 0-1.178-.57-1.995-2.128-2.489l-1.501-.494c-1.14-.38-1.425-.893-1.425-1.596 0-.684.513-1.501 2.033-1.501.456 0 1.026.019 1.596.171l.323 1.729h.893c0-.855-.019-2.071-.133-2.622-.722-.209-1.596-.323-2.546-.323-2.28 0-3.439 1.235-3.439 2.66 0 1.254.551 2.09 1.976 2.565l1.368.437c1.368.456 1.653.912 1.653 1.653 0 .912-.798 1.558-2.166 1.558-.589 0-1.311-.133-1.938-.323l-.323-1.729zm14.098 2.622l-.209-.988c-.494.114-1.026.19-1.444.19-.551 0-.95-.209-1.14-.513-.19-.304-.285-.798-.285-1.824v-4.883h2.565V602.8h-2.565v-2.47l-1.178.095a153.935 153.935 0 00-.057 2.375c-.57 0-1.33.038-1.919.114v1.007h1.9v5.092c0 1.159.133 1.976.418 2.432.342.532.988.874 1.786.874.76 0 1.501-.152 2.128-.38zm2.527-10.412l2.774-2.85h-1.52l-2.318 2.85zm3.135 10.64v-.893l-1.767-.152v-8.531c-.893 0-2.109.19-3.116.437v.874h1.9v7.22l-1.767.152v.893zm-169.518 20.079c0-3.116-1.349-4.75-4.18-4.75-2.793 0-4.503 1.786-4.503 5.111 0 3.021 1.577 4.845 4.237 4.845 2.907 0 4.446-1.919 4.446-5.206zm-1.292.285c0 2.641-1.292 3.819-3.04 3.819-1.9 0-3.059-1.083-3.059-4.066 0-2.128 1.045-3.686 3.135-3.686 2.413 0 2.964 1.653 2.964 3.933zm13.49 3.648h-1.862v-13.053a12.578 12.578 0 00-3.154.475v.855h1.919v3.496c-.665-.285-1.406-.38-2.128-.38-2.432 0-4.693 1.311-4.693 5.092 0 3.211 1.52 4.712 3.648 4.712 1.406 0 2.413-.627 3.211-1.425l.095 1.349c.988 0 2.071-.114 2.964-.285zm-3.097-1.159c-.855.684-1.596 1.216-2.869 1.216-1.368 0-2.641-.741-2.641-3.724 0-2.375 1.197-3.781 3.439-3.781.703 0 1.444.152 2.071.38zm13.11 2.147v-.893l-1.748-.152v-2.204l1.71-1.52 1.786 2.812c.323.513.722 1.064 1.064 1.368.475.418.874.665 1.786.665.285 0 .703-.057.95-.114l-.076-1.026c-.171.038-.361.038-.475.038-.437 0-.893-.076-1.311-.456-.342-.304-.741-.855-1.121-1.444l-1.71-2.679c.912-.874 1.748-1.767 2.66-2.755l1.52-.133v-.874h-4.427v.874l1.387.133c-1.273 1.444-2.47 2.641-3.743 3.876v-9.538c-.969 0-2.204.19-3.097.456v.855h1.881v11.666l-1.748.152v.893zm16.91-.133v-.836h-1.881v-8.588c-.988 0-2.166.171-3.192.418v.855h1.957v5.909c-1.178 1.007-2.242 1.425-3.116 1.425-.836 0-1.425-.342-1.558-1.007-.076-.418-.133-1.064-.133-2.071v-5.529c-.893 0-2.147.19-3.097.418v.855h1.881v4.522c0 .931 0 1.615.095 2.166.171 1.121.836 1.824 2.356 1.824 1.349 0 2.565-.684 3.629-1.672l.095 1.596c.988 0 2.109-.114 2.964-.285zm5.719.133v-.893l-1.767-.152v-12.977c-.969 0-2.09.171-3.097.456v.855h1.881v11.666l-1.748.152v.893zm10.602-1.007h-1.881v-5.073c0-1.406-.076-2.147-.361-2.66-.38-.665-1.235-.931-2.28-.931-.988 0-2.451.285-3.857.798l.209 1.007c1.254-.418 2.451-.627 3.211-.627.95 0 1.292.19 1.577.532.209.285.304.912.304 1.805v.684c-1.558.038-3.192.209-4.237.532-1.121.361-1.767 1.178-1.767 2.28 0 1.463.893 2.85 2.869 2.85 1.292 0 2.413-.532 3.192-1.387l.095 1.33c.969 0 2.28-.152 2.926-.304zm-3.059-1.121c-.779.76-1.748 1.216-2.85 1.216-1.064 0-1.9-.57-1.9-1.748 0-.684.437-1.178 1.14-1.425.817-.285 2.318-.418 3.61-.456zm9.88 1.9l-.209-.988c-.494.114-1.026.19-1.444.19-.551 0-.95-.209-1.14-.513-.19-.304-.285-.798-.285-1.824v-4.883h2.565V627.8h-2.565v-2.47l-1.178.095a153.935 153.935 0 00-.057 2.375c-.57 0-1.33.038-1.919.114v1.007h1.9v5.092c0 1.159.133 1.976.418 2.432.342.532.988.874 1.786.874.76 0 1.501-.152 2.128-.38zm1.444 5.149c2.527-.361 3.895-1.862 5.282-5.662l2.755-7.581 1.33-.152v-.893h-4.427v.893l1.824.133c-1.539 4.199-1.976 5.605-2.527 7.201-.57-1.558-1.064-2.888-2.869-7.201l1.805-.133v-.893h-4.446v.893l1.311.152 3.363 8.322h.304c-.931 2.204-1.843 3.515-3.99 3.8zm3.933-15.561l2.774-2.85h-1.52l-2.318 2.85zm14.364 9.5l-.456-.855c-1.045.703-1.862 1.102-3.097 1.102-1.691 0-2.926-1.235-2.926-3.591 0-2.603 1.159-4.085 3.23-4.085.513 0 1.064.038 1.577.171l.247 1.824h1.026c0-1.159 0-2.318-.095-2.736-.741-.247-1.691-.361-2.622-.361-2.698 0-4.655 1.71-4.655 5.301 0 2.964 1.615 4.655 3.952 4.655 1.539 0 2.698-.57 3.819-1.425zm5.681 1.14v-.893l-1.767-.152v-5.985c1.292-1.026 2.489-1.387 3.325-1.387.779 0 1.216.304 1.349.855.095.418.133 1.121.133 2.223v5.339h3.116v-.893l-1.9-.152v-4.636c0-1.045 0-1.691-.076-2.223-.152-1.083-.76-1.71-2.128-1.71-1.102 0-2.698.703-3.838 1.691v-6.099c-.893 0-2.109.171-3.078.456v.855h1.881v11.666l-1.748.152v.893zm16.948 0v-.893l-2.128-.152v-5.738c.817-.988 1.938-1.558 3.078-1.558.133 0 .494.038.646.057v-1.292a6.546 6.546 0 00-.589-.038c-1.292 0-2.603.912-3.154 1.862l-.076-1.824c-1.197 0-2.546.304-3.021.456v.874h1.9v7.201l-1.767.152v.893zm11.609-4.921c0-3.116-1.349-4.75-4.18-4.75-2.793 0-4.503 1.786-4.503 5.111 0 3.021 1.577 4.845 4.237 4.845 2.907 0 4.446-1.919 4.446-5.206zm-1.292.285c0 2.641-1.292 3.819-3.04 3.819-1.9 0-3.059-1.083-3.059-4.066 0-2.128 1.045-3.686 3.135-3.686 2.413 0 2.964 1.653 2.964 3.933zm7.733 4.636v-.893l-1.767-.152v-5.985c1.292-1.026 2.489-1.387 3.325-1.387.779 0 1.216.304 1.349.855.095.418.133 1.121.133 2.223v5.339h3.116v-.893l-1.9-.152v-4.636c0-1.045 0-1.691-.076-2.223-.152-1.083-.76-1.71-2.128-1.71-1.102 0-2.698.703-3.838 1.691v-6.099c-.893 0-2.109.171-3.078.456v.855h1.881v11.666l-1.748.152v.893zm17.803-.133v-.836h-1.881v-8.588c-.988 0-2.166.171-3.192.418v.855h1.957v5.909c-1.178 1.007-2.242 1.425-3.116 1.425-.836 0-1.425-.342-1.558-1.007-.076-.418-.133-1.064-.133-2.071v-5.529c-.893 0-2.147.19-3.097.418v.855h1.881v4.522c0 .931 0 1.615.095 2.166.171 1.121.836 1.824 2.356 1.824 1.349 0 2.565-.684 3.629-1.672l.095 1.596c.988 0 2.109-.114 2.964-.285zm-4.18-11.97c0-1.007-.627-1.672-1.653-1.672-.969 0-1.691.703-1.691 1.71 0 .95.684 1.71 1.672 1.71 1.007 0 1.672-.817 1.672-1.748zm-.608.019c0 .646-.361 1.14-1.026 1.14-.741 0-1.083-.494-1.083-1.121 0-.665.38-1.14 1.045-1.14.646 0 1.064.437 1.064 1.121zm15.086 16.758v-.912l-2.147-.152v-3.857c.779.304 1.52.418 2.47.418 2.546 0 4.275-1.539 4.275-5.225 0-3.059-1.102-4.579-3.097-4.579-1.406 0-2.736.779-3.648 1.52l-.095-1.463a12.595 12.595 0 00-3.002.437v.855h1.881v11.894l-1.767.152v.912zm-2.147-6.137v-5.738c.969-.646 2.014-1.254 3.173-1.254 1.767 0 2.261 1.52 2.261 3.629 0 2.432-.95 3.895-3.002 3.895-.969 0-1.729-.171-2.432-.532zm17.708-3.458c0-3.116-1.349-4.75-4.18-4.75-2.793 0-4.503 1.786-4.503 5.111 0 3.021 1.577 4.845 4.237 4.845 2.907 0 4.446-1.919 4.446-5.206zm-1.292.285c0 2.641-1.292 3.819-3.04 3.819-1.9 0-3.059-1.083-3.059-4.066 0-2.128 1.045-3.686 3.135-3.686 2.413 0 2.964 1.653 2.964 3.933zm-151.734 29.636v-.912l-2.375-.152v-4.845h4.807v-1.197h-4.807v-4.541h4.997l.228 2.014h.95c0-1.558-.038-2.793-.152-3.211h-9.31v.912l1.976.152v10.716l-1.976.152v.912zm9.842 0v-.893l-1.767-.152v-12.977c-.969 0-2.09.171-3.097.456v.855h1.881v11.666l-1.748.152v.893zm9.861-1.197l-.475-.874c-.931.684-1.957 1.216-3.382 1.216-1.748 0-3.135-1.083-3.135-3.648v-.266h6.783c.019-.285.038-.57.038-.779 0-2.185-.741-4.123-3.629-4.123-2.356 0-4.484 1.577-4.484 5.073 0 2.85 1.52 4.883 4.218 4.883 1.729 0 2.869-.608 4.066-1.482zm-1.425-4.579h-5.51c.285-2.033 1.653-2.85 3.116-2.85 1.824 0 2.413 1.178 2.413 2.413 0 .152 0 .304-.019.437zm6.574 5.776v-.893l-1.786-.152 2.375-3.135 2.603 3.135-1.691.152v.893h4.503v-.893l-1.292-.152-3.154-3.838 2.736-3.477 1.254-.133v-.874h-4.142v.874l1.615.133-2.185 2.812-2.242-2.812 1.501-.133v-.874h-4.256v.874l1.254.152 2.774 3.458-2.926 3.838-1.349.152v.893zm8.246-.399c1.235.437 2.223.665 3.591.665 2.755 0 4.37-1.634 4.37-5.301 0-3.04-1.14-4.579-3.154-4.579-1.425 0-2.736.817-3.591 1.52v-5.928c-.893 0-2.128.19-3.116.456v.855h1.9zm1.216-.855v-5.947c.988-.665 1.995-1.235 3.211-1.235 1.634 0 2.223 1.539 2.223 3.629 0 2.394-.817 3.933-3.097 3.933a6.929 6.929 0 01-2.337-.38zm17.708-3.667c0-3.116-1.349-4.75-4.18-4.75-2.793 0-4.503 1.786-4.503 5.111 0 3.021 1.577 4.845 4.237 4.845 2.907 0 4.446-1.919 4.446-5.206zm-1.292.285c0 2.641-1.292 3.819-3.04 3.819-1.9 0-3.059-1.083-3.059-4.066 0-2.128 1.045-3.686 3.135-3.686 2.413 0 2.964 1.653 2.964 3.933zm7.049 4.636v-.893l-1.786-.152 2.375-3.135 2.603 3.135-1.691.152v.893h4.503v-.893l-1.292-.152-3.154-3.838 2.736-3.477 1.254-.133v-.874h-4.142v.874l1.615.133-2.185 2.812-2.242-2.812 1.501-.133v-.874h-4.256v.874l1.254.152 2.774 3.458-2.926 3.838-1.349.152v.893zm15.903 0v-.893l-1.767-.152v-12.977c-.969 0-2.09.171-3.097.456v.855h1.881v11.666l-1.748.152v.893zm10.602-1.007h-1.881v-5.073c0-1.406-.076-2.147-.361-2.66-.38-.665-1.235-.931-2.28-.931-.988 0-2.451.285-3.857.798l.209 1.007c1.254-.418 2.451-.627 3.211-.627.95 0 1.292.19 1.577.532.209.285.304.912.304 1.805v.684c-1.558.038-3.192.209-4.237.532-1.121.361-1.767 1.178-1.767 2.28 0 1.463.893 2.85 2.869 2.85 1.292 0 2.413-.532 3.192-1.387l.095 1.33c.969 0 2.28-.152 2.926-.304zm-3.059-1.121c-.779.76-1.748 1.216-2.85 1.216-1.064 0-1.9-.57-1.9-1.748 0-.684.437-1.178 1.14-1.425.817-.285 2.318-.418 3.61-.456zm4.522 7.049c2.527-.361 3.895-1.862 5.282-5.662l2.755-7.581 1.33-.152v-.893h-4.427v.893l1.824.133c-1.539 4.199-1.976 5.605-2.527 7.201-.57-1.558-1.064-2.888-2.869-7.201l1.805-.133v-.893h-4.446v.893l1.311.152 3.363 8.322h.304c-.931 2.204-1.843 3.515-3.99 3.8zm19.209-9.842c0-3.116-1.349-4.75-4.18-4.75-2.793 0-4.503 1.786-4.503 5.111 0 3.021 1.577 4.845 4.237 4.845 2.907 0 4.446-1.919 4.446-5.206zm-1.292.285c0 2.641-1.292 3.819-3.04 3.819-1.9 0-3.059-1.083-3.059-4.066 0-2.128 1.045-3.686 3.135-3.686 2.413 0 2.964 1.653 2.964 3.933zm13.699 4.503v-.836h-1.881v-8.588c-.988 0-2.166.171-3.192.418v.855h1.957v5.909c-1.178 1.007-2.242 1.425-3.116 1.425-.836 0-1.425-.342-1.558-1.007-.076-.418-.133-1.064-.133-2.071v-5.529c-.893 0-2.147.19-3.097.418v.855h1.881v4.522c0 .931 0 1.615.095 2.166.171 1.121.836 1.824 2.356 1.824 1.349 0 2.565-.684 3.629-1.672l.095 1.596c.988 0 2.109-.114 2.964-.285zm6.878-.095l-.209-.988c-.494.114-1.026.19-1.444.19-.551 0-.95-.209-1.14-.513-.19-.304-.285-.798-.285-1.824v-4.883h2.565V652.8H305.1v-2.47l-1.178.095a153.935 153.935 0 00-.057 2.375c-.57 0-1.33.038-1.919.114v1.007h1.9v5.092c0 1.159.133 1.976.418 2.432.342.532.988.874 1.786.874.76 0 1.501-.152 2.128-.38zm1.444 5.149c2.527-.361 3.895-1.862 5.282-5.662l2.755-7.581 1.33-.152v-.893h-4.427v.893l1.824.133c-1.539 4.199-1.976 5.605-2.527 7.201-.57-1.558-1.064-2.888-2.869-7.201l1.805-.133v-.893h-4.446v.893l1.311.152 3.363 8.322h.304c-.931 2.204-1.843 3.515-3.99 3.8zm10.792-5.795c0-.76-.475-1.007-.912-1.007-.456 0-.931.285-.931 1.007 0 .741.532 1.007.912 1.007.513 0 .931-.304.931-1.007zM79.051 493.608l10.486-27.587 3.528-.392v-5.145H76.062v5.145l4.9.392c-5.537 15.925-6.027 17.444-6.517 18.865-.49-1.764-.882-2.94-6.272-18.865l4.802-.392v-5.145H55.58v5.145l3.43.392 10.339 27.587zm38.857 0c.245-1.127.588-4.214.588-10.682h-5.39l-.931 5.145h-7.595c2.548-2.646 4.704-4.949 12.887-14.112v-4.998H95.711c-.343 1.176-.637 3.871-.637 10.094h5.194l.98-4.753h5.831c-2.744 2.94-4.998 5.684-12.495 14.357v4.949zm18.963 0v-5.096l-4.067-.441v-12.446c1.519-.588 3.332-.833 4.802-.833 1.029 0 1.862.294 2.058 1.372.147.833.147 2.45.147 4.802v12.642h11.858v-5.096l-4.116-.441v-8.918c0-2.744 0-4.851-.196-6.223-.392-2.94-1.911-4.655-5.586-4.655-2.205 0-6.272 1.421-9.016 3.332v-14.308c-3.332 0-8.33.882-11.809 1.911v4.998h4.214v23.863l-3.773.441v5.096zm45.815-.539v-4.802h-3.92v-19.796c-3.92 0-8.33.637-11.858 1.47v4.802h4.067v12.201c-1.666.588-3.087.882-4.508.882-1.323 0-2.156-.735-2.352-1.862-.147-.833-.147-2.058-.147-4.361v-13.132c-3.577 0-7.987.588-11.711 1.421v4.851h3.969v8.477c0 2.303.049 4.41.196 5.831.392 3.185 2.254 5.243 6.517 5.243 2.793 0 5.733-1.225 8.379-3.283l.49 3.038c3.773 0 8.722-.49 10.878-.98zm-11.123-30.674c0-2.695-1.666-4.459-4.508-4.459-2.646 0-4.655 1.862-4.655 4.557 0 2.499 1.911 4.557 4.606 4.557 2.744 0 4.557-2.205 4.557-4.655zm-2.107.049c0 1.47-.882 2.597-2.352 2.597-1.666 0-2.499-1.127-2.499-2.548 0-1.519.931-2.597 2.401-2.597 1.421 0 2.45.98 2.45 2.548zm31.948 31.164v-5.096l-4.753-.49v-11.809c1.715-.833 3.92-1.176 5.782-1.176 1.372 0 2.352.098 2.793.147v-6.762a16.833 16.833 0 00-1.568-.098 8.173 8.173 0 00-7.105 4.067v-4.165c-3.822.049-8.183.686-11.76 1.862v4.998h4.214v12.985l-4.018.441v5.096zm35.28-.539v-4.802h-3.92v-19.796c-3.92 0-8.33.637-11.858 1.47v4.802h4.067v12.201c-1.666.588-3.087.882-4.508.882-1.323 0-2.156-.735-2.352-1.862-.147-.833-.147-2.058-.147-4.361v-13.132c-3.577 0-7.987.588-11.711 1.421v4.851h3.969v8.477c0 2.303.049 4.41.196 5.831.392 3.185 2.254 5.243 6.517 5.243 2.793 0 5.733-1.225 8.379-3.283l.49 3.038c3.773 0 8.722-.49 10.878-.98zm42.042-4.802h-3.92V457.25c-3.969.049-8.379.882-12.348 1.96v4.998h4.557v4.851c-1.176-.441-3.136-.637-4.41-.637-6.125 0-11.76 3.675-11.76 13.426 0 7.742 4.116 12.25 9.604 12.25 2.695 0 4.998-1.078 6.958-2.891l.441 2.842c3.675 0 7.791-.343 10.878-.98zm-11.711-1.519c-1.568.833-2.94 1.225-3.92 1.225-2.401 0-4.263-1.274-4.263-6.517 0-5.635 2.499-6.664 4.998-6.664.882 0 2.009.098 3.185.343zm40.621-6.125c0-8.036-3.822-12.495-12.152-12.495-9.212 0-13.671 4.704-13.671 13.622 0 8.183 4.557 12.642 12.495 12.642 8.82 0 13.328-4.851 13.328-13.769zm-8.232.882c0 5.635-1.813 7.154-4.851 7.154-2.842 0-4.704-1.47-4.704-7.693 0-4.41 1.274-7.154 4.998-7.154 3.871 0 4.557 2.891 4.557 7.693zm53.361 7.693l-3.381-4.9c-3.479 2.45-7.203 3.185-9.555 3.185-5.096 0-7.938-3.773-7.938-9.898 0-8.33 3.675-11.417 9.065-11.417 1.078 0 2.597.147 3.92.588l.686 5.488h5.978c0-7.595-.147-9.849-.49-11.417-3.283-.784-6.174-1.225-10.878-1.225-11.025 0-16.905 6.664-16.905 18.277 0 10.241 5.782 16.611 14.994 16.611 5.733 0 10.682-2.303 14.504-5.292zm3.234-7.889c0 5.733.245 9.261.686 11.368 2.499 1.078 6.468 1.813 11.564 1.813 9.898 0 14.063-4.753 14.063-10.143 0-5.047-1.372-7.595-9.604-10.535l-4.165-1.519c-2.254-.784-2.744-1.813-2.744-3.283 0-1.421 1.029-2.891 4.9-2.891 1.421 0 3.234.245 4.655.637l.588 5.292h5.684c0-5.39-.098-10.143-.49-11.221-2.499-.637-6.566-1.176-9.751-1.176-10.241 0-14.161 4.704-14.161 10.388 0 6.076 3.479 8.428 8.232 9.898l4.312 1.274c2.842.882 3.724 1.96 3.724 3.675 0 1.764-1.176 3.087-4.263 3.087-2.156 0-4.312-.294-6.566-.98l-.784-5.684zm29.939 0c0 5.733.245 9.261.686 11.368 2.499 1.078 6.468 1.813 11.564 1.813 9.898 0 14.063-4.753 14.063-10.143 0-5.047-1.372-7.595-9.604-10.535l-4.165-1.519c-2.254-.784-2.744-1.813-2.744-3.283 0-1.421 1.029-2.891 4.9-2.891 1.421 0 3.234.245 4.655.637l.588 5.292h5.684c0-5.39-.098-10.143-.49-11.221-2.499-.637-6.566-1.176-9.751-1.176-10.241 0-14.161 4.704-14.161 10.388 0 6.076 3.479 8.428 8.232 9.898l4.312 1.274c2.842.882 3.724 1.96 3.724 3.675 0 1.764-1.176 3.087-4.263 3.087-2.156 0-4.312-.294-6.566-.98l-.784-5.684zm29.89 11.956c1.862.588 6.076 1.176 8.771 1.176 10.829 0 15.876-3.773 15.876-10.927 0-3.822-2.401-6.664-6.909-7.252 4.018-1.274 5.782-4.361 5.782-6.762 0-5.047-3.136-8.134-10.584-8.134-3.528 0-8.526 1.323-12.201 3.087l2.205 5.292c3.626-1.568 6.909-1.862 8.526-1.862 2.744 0 4.116.882 4.116 2.744 0 2.303-2.009 3.92-9.114 4.165l.294 5.978c.98-.098 3.234-.196 3.969-.196 4.165 0 5.243 1.372 5.243 3.283 0 2.45-1.421 4.067-8.183 4.067-2.107 0-5.341-.588-6.468-.931z" fill="#FFF"/><g fill="#75D310"><path d="M257.901 253.26l-51.881 26.47-15.078 7.683 1.821 18.787h85.67l-3.227 33.085-25.739 6.619-23.098-6.619-2.677-19.851h-29.614l3.854 39.704 51.517 13.234 51.517-13.234 7.71-79.408h-46.349l48.806-25.076 2.711-27.864H185.053l2.58 26.47z"/><path d="M317.675 375.258l-68.337 18.95-68.152-18.92-15.18-170.337h166.883zM146.752 183.115l18.679 209.643 83.882 23.288 84.106-23.324 18.726-209.607z"/></g><path d="M181.932 59.5v-.912l-2.014-.133c.152-6.973.19-8.246.209-10.488.532 1.311 1.064 2.641 4.047 9.386h1.007c2.793-6.422 3.42-8.056 3.952-9.424.019 1.995.076 3.439.266 10.526l-1.995.133v.912h5.187v-.912l-1.862-.133-.342-10.754 1.938-.133v-.912h-3.876c-2.508 5.681-3.192 7.391-3.743 8.892-.494-1.387-1.159-2.964-3.8-8.892h-3.952v.912l1.957.133-.304 10.754-1.862.133v.912zm21.546-1.007h-1.881V53.42c0-1.406-.076-2.147-.361-2.66-.38-.665-1.235-.931-2.28-.931-.988 0-2.451.285-3.857.798l.209 1.007c1.254-.418 2.451-.627 3.211-.627.95 0 1.292.19 1.577.532.209.285.304.912.304 1.805v.684c-1.558.038-3.192.209-4.237.532-1.121.361-1.767 1.178-1.767 2.28 0 1.463.893 2.85 2.869 2.85 1.292 0 2.413-.532 3.192-1.387l.095 1.33c.969 0 2.28-.152 2.926-.304zm-3.059-1.121c-.779.76-1.748 1.216-2.85 1.216-1.064 0-1.9-.57-1.9-1.748 0-.684.437-1.178 1.14-1.425.817-.285 2.318-.418 3.61-.456zm9.291 2.128v-.893l-2.128-.152v-5.738c.817-.988 1.938-1.558 3.078-1.558.133 0 .494.038.646.057v-1.292a6.546 6.546 0 00-.589-.038c-1.292 0-2.603.912-3.154 1.862l-.076-1.824c-1.197 0-2.546.304-3.021.456v.874h1.9v7.201l-1.767.152v.893zm9.044-.228l-.209-.988c-.494.114-1.026.19-1.444.19-.551 0-.95-.209-1.14-.513-.19-.304-.285-.798-.285-1.824v-4.883h2.565v-1.121h-2.565v-2.47l-1.178.095a153.935 153.935 0 00-.057 2.375c-.57 0-1.33.038-1.919.114v1.007h1.9v5.092c0 1.159.133 1.976.418 2.432.342.532.988.874 1.786.874.76 0 1.501-.152 2.128-.38zm3.914-11.932c0-.722-.399-.969-.874-.969-.456 0-.874.304-.874.969 0 .703.456.931.855.931.494 0 .893-.285.893-.931zm1.748 12.16v-.893l-1.767-.152v-8.531c-.893 0-2.109.19-3.116.437v.874h1.9v7.22l-1.767.152v.893zm5.928 0v-.893l-1.767-.152v-6.004c1.311-1.007 2.47-1.368 3.344-1.368.76 0 1.178.304 1.311.855.095.418.152 1.121.152 2.223V59.5h3.116v-.893l-1.9-.152v-4.617c0-1.064 0-1.691-.076-2.242-.171-1.083-.76-1.71-2.109-1.71-1.159 0-2.755.722-3.838 1.691l-.095-1.653c-.836 0-2.204.228-3.021.456v.855h1.9v7.22l-1.767.152v.893zm16.891 0v-.912l-2.014-.133c.152-6.973.19-8.246.209-10.488.532 1.311 1.064 2.641 4.047 9.386h1.007c2.793-6.422 3.42-8.056 3.952-9.424.019 1.995.076 3.439.266 10.526l-1.995.133v.912h5.187v-.912l-1.862-.133-.342-10.754 1.938-.133v-.912h-3.876c-2.508 5.681-3.192 7.391-3.743 8.892-.494-1.387-1.159-2.964-3.8-8.892h-3.952v.912l1.957.133-.304 10.754-1.862.133v.912zm15.086-12.16c0-.722-.399-.969-.874-.969-.456 0-.874.304-.874.969 0 .703.456.931.855.931.494 0 .893-.285.893-.931zm1.748 12.16v-.893l-1.767-.152v-8.531c-.893 0-2.109.19-3.116.437v.874h1.9v7.22l-1.767.152v.893zm9.329-1.14l-.456-.855c-1.045.703-1.862 1.102-3.097 1.102-1.691 0-2.926-1.235-2.926-3.591 0-2.603 1.159-4.085 3.23-4.085.513 0 1.064.038 1.577.171l.247 1.824h1.026c0-1.159 0-2.318-.095-2.736-.741-.247-1.691-.361-2.622-.361-2.698 0-4.655 1.71-4.655 5.301 0 2.964 1.615 4.655 3.952 4.655 1.539 0 2.698-.57 3.819-1.425zm5.681 1.14v-.893l-1.767-.152V52.47c1.292-1.026 2.489-1.387 3.325-1.387.779 0 1.216.304 1.349.855.095.418.133 1.121.133 2.223V59.5h3.116v-.893l-1.9-.152v-4.636c0-1.045 0-1.691-.076-2.223-.152-1.083-.76-1.71-2.128-1.71-1.102 0-2.698.703-3.838 1.691v-6.099c-.893 0-2.109.171-3.078.456v.855h1.881v11.666l-1.748.152v.893zm16.758-1.007h-1.881V53.42c0-1.406-.076-2.147-.361-2.66-.38-.665-1.235-.931-2.28-.931-.988 0-2.451.285-3.857.798l.209 1.007c1.254-.418 2.451-.627 3.211-.627.95 0 1.292.19 1.577.532.209.285.304.912.304 1.805v.684c-1.558.038-3.192.209-4.237.532-1.121.361-1.767 1.178-1.767 2.28 0 1.463.893 2.85 2.869 2.85 1.292 0 2.413-.532 3.192-1.387l.095 1.33c.969 0 2.28-.152 2.926-.304zm-3.059-1.121c-.779.76-1.748 1.216-2.85 1.216-1.064 0-1.9-.57-1.9-1.748 0-.684.437-1.178 1.14-1.425.817-.285 2.318-.418 3.61-.456zm-1.957-8.512l2.774-2.85h-1.52l-2.318 2.85zm10.678 10.64v-.893l-1.767-.152V45.478c-.969 0-2.09.171-3.097.456v.855h1.881v11.666l-1.748.152v.893zm9.861-1.197l-.475-.874c-.931.684-1.957 1.216-3.382 1.216-1.748 0-3.135-1.083-3.135-3.648v-.266h6.783c.019-.285.038-.57.038-.779 0-2.185-.741-4.123-3.629-4.123-2.356 0-4.484 1.577-4.484 5.073 0 2.85 1.52 4.883 4.218 4.883 1.729 0 2.869-.608 4.066-1.482zm-1.425-4.579h-5.51c.285-2.033 1.653-2.85 3.116-2.85 1.824 0 2.413 1.178 2.413 2.413 0 .152 0 .304-.019.437zm7.22 5.776v-.893l-1.748-.152v-2.204l1.71-1.52 1.786 2.812c.323.513.722 1.064 1.064 1.368.475.418.874.665 1.786.665.285 0 .703-.057.95-.114l-.076-1.026c-.171.038-.361.038-.475.038-.437 0-.893-.076-1.311-.456-.342-.304-.741-.855-1.121-1.444l-1.71-2.679c.912-.874 1.748-1.767 2.66-2.755l1.52-.133v-.874h-4.427v.874l1.387.133c-1.273 1.444-2.47 2.641-3.743 3.876v-9.538c-.969 0-2.204.19-3.097.456v.855h1.881v11.666l-1.748.152v.893z" fill="#FFF"/></svg>