<svg xmlns="http://www.w3.org/2000/svg" width="200" height="200"><path d="M37.546 107.609h-7.998l-1.1 3.75h-7.172l8.537-22.717h7.653l8.542 22.718h-7.347l-1.115-3.751zm-1.471-4.914l-2.512-8.166-2.497 8.166h5.009zm10.431-14.053h10.43c2.052 0 3.713.28 4.983.835 1.264.561 2.311 1.36 3.136 2.402.826 1.047 1.423 2.258 1.799 3.644.213.796.364 1.619.455 2.469h-3.967v4.893h3.898c-.138 1.059-.357 1.955-.661 2.688-.549 1.338-1.317 2.46-2.301 3.359-.978.904-2.031 1.507-3.158 1.809-1.54.413-2.936.619-4.184.619h-10.43V88.642zm7.019 5.146v12.409h1.72c1.47 0 2.512-.159 3.131-.487.619-.323 1.105-.894 1.46-1.703.349-.809.523-2.126.523-3.946 0-2.406-.391-4.051-1.174-4.939-.788-.89-2.089-1.333-3.908-1.333h-1.752z" fill="#CB2026"/><path d="M72.393 88.642h7.034v22.718h-7.034v-8.475h3.824v-4.893h-3.824v-9.35zm10.276 0h6.559l8.552 12.567V88.642h6.618v9.35h-3.203v4.893h3.203v8.475H97.78l-8.51-12.473v12.473h-6.601V88.642z" fill="#9D9E9E"/><path d="M109.619 97.992c.319-2.752 1.317-4.965 2.988-6.637 2.069-2.069 4.946-3.1 8.633-3.1 3.781 0 6.696 1.016 8.743 3.047 2.041 2.026 3.067 4.871 3.067 8.526 0 2.655-.449 4.835-1.343 6.532a9.573 9.573 0 01-3.872 3.967c-1.692.947-3.792 1.418-6.316 1.418-2.559 0-4.681-.407-6.363-1.222-1.676-.82-3.035-2.111-4.082-3.877-.641-1.086-1.086-2.34-1.333-3.762h3.814v-4.893h-3.936v.001zm6.913 2.054c0 2.295.423 3.94 1.275 4.945.851 1 2.015 1.502 3.48 1.502 1.508 0 2.676-.492 3.502-1.47.825-.984 1.243-2.745 1.243-5.284 0-2.142-.434-3.703-1.296-4.691-.862-.985-2.031-1.476-3.511-1.476-1.413 0-2.55.497-3.407 1.502-.857.999-1.286 2.66-1.286 4.972zm18.502-11.404h6.559l8.553 12.567V88.642h6.617v22.718h-6.617l-8.511-12.473v12.473h-6.601V88.642zm24.537 0h18.81v4.85h-11.774v3.613h10.922v4.633h-10.922v4.475h12.117v5.147h-19.152V88.642z" fill="#CFD1D1"/></svg>