<svg xmlns="http://www.w3.org/2000/svg" width="200" height="200"><path d="M93.084 53.01H75.958v8.515h34.551c-2.496-5.817-9.07-8.515-17.425-8.515zm16.255 21.858H75.958v-8.485h35.618c.017.331.025.668.022 1.012-.03 3.157-.785 5.591-2.259 7.473zm-33.381 4.858v8.47h31.116l-5.211-8.47H75.958zm0 13.328h34.104l5.248 8.53H75.958v-8.53m48.043 18.828h-2.749l-1.514 6.149-1.657-6.149h-2.818l2.642 7.4c.14.405.37.863.37 1.303 0 .3-.141.74-.387.934-.248.195-.794.229-1.094.229-.229 0-.457-.017-.686-.017v2.044c.229 0 .457.035.686.035 1.128 0 2.557.071 3.33-.898.371-.476.671-1.393.864-1.974l3.013-9.056zm-1.091-3.84h-3.106l-1.264 2.629h2.014l2.356-2.629zm-36.564 8.808l-2.906-.192c-.018 1.409-1.339 2.289-2.661 2.289a3.028 3.028 0 01-1.92-.67c-1.057-.881-1.269-2.272-1.269-3.559 0-2.06.828-4.104 3.189-4.104.969 0 1.833.369 2.326 1.251.106.212.211.423.264.651l2.801-.192c-.035-.301-.122-.565-.211-.846-.739-2.204-2.942-3.207-5.144-3.207-3.894 0-6.237 2.659-6.237 6.466 0 2.607 1.234 5.162 3.752 6.148.775.299 1.621.404 2.449.404 2.026 0 3.911-.739 4.951-2.554a4.831 4.831 0 00.616-1.885m9.672.353v-.441c0-2.818-1.444-5.144-4.492-5.144-2.801 0-4.615 2.096-4.615 4.827 0 2.802 1.725 4.828 4.615 4.828 2.009 0 3.736-.952 4.387-2.907l-2.608-.176c-.387.687-.897.968-1.708.968-1.198 0-1.815-.827-1.974-1.955h6.395zm-2.729-1.972h-3.648c.282-1.041.845-1.569 1.956-1.569.933 0 1.603.651 1.692 1.569m11.839 2.976c0-2.291-2.256-2.696-4.018-3.065-.475-.106-1.55-.23-1.55-.882 0-.651.774-.738 1.268-.738s1.057.175 1.375.58c.14.176.193.529.229.74l2.431-.124c-.106-2.237-1.991-3.1-4-3.1-1.849 0-3.805.74-3.805 2.889 0 3.647 5.427 2.326 5.427 3.965 0 .722-.741.846-1.305.846-1.162 0-1.779-.335-1.938-1.516l-2.465.088c0 .3.017.546.087.845.458 1.886 2.396 2.538 4.141 2.538 1.99 0 4.123-.706 4.123-3.066m10.358 2.802l-3.77-5.674 3.523-3.453h-3.365l-2.818 3.119v-6.43h-2.59v12.438h2.59v-3.032l.845-.845 2.291 3.877h3.294zm-33.539-13.525h-3.025l-1.627-2.053h2.38l.786 1.19.751-1.19h2.416l-1.681 2.053m9.871 30.243v-1.939l4.51-5.037h-3.999V128.6h7.224v2.097l-4.37 4.88h4.67v2.15h-8.035zm14.923 0v-5.11c0-.582.035-1.286-.44-1.709-.247-.228-.582-.318-.917-.318-.387 0-.704.107-1.004.353-.617.511-.58 1.374-.58 2.097v4.687h-2.574v-12.439h2.574v4.246c.404-.723 1.708-1.145 2.482-1.145.601 0 1.322.158 1.816.51 1.056.758 1.232 1.781 1.232 2.996v5.832h-2.589zm4.387-12.439h2.589v12.439h-2.589zm22.127 9.637c0-2.291-2.254-2.696-4.016-3.065-.476-.106-1.551-.229-1.551-.881s.776-.74 1.269-.74c.494 0 1.056.177 1.374.581.14.176.194.528.229.74l2.431-.124c-.106-2.237-1.99-3.1-3.999-3.1-1.849 0-3.806.74-3.806 2.889 0 3.647 5.427 2.326 5.427 3.964 0 .723-.739.846-1.304.846-1.162 0-1.779-.335-1.937-1.514l-2.467.086c0 .3.017.547.087.846.459 1.886 2.397 2.537 4.141 2.537 1.99 0 4.122-.704 4.122-3.065m-9.637-2.285c0-.741.034-1.799-.25-2.485-.668-1.587-2.378-1.833-3.893-1.833-2.062 0-3.772.881-3.895 3.155h2.398c-.037-.9.88-1.146 1.603-1.146.545 0 1.392.14 1.392.845 0 .653-.952.689-1.41.758-1.974.283-4.494.512-4.494 3.102 0 1.851 1.41 2.943 3.172 2.943 1.303 0 1.869-.387 2.873-1.092l.018.828h2.486v-5.075zm-2.576 2.114c-.439.758-1.268 1.181-2.132 1.181-.599 0-1.216-.282-1.216-.969 0-1.182 1.887-1.198 2.714-1.41.212-.053.423-.123.634-.211v1.409zm-39.729-3.943v-2.361c-.158-.018-.3-.035-.458-.035-1.233 0-1.92.528-2.361 1.673v-1.497h-2.536v9.125h2.661v-2.976c0-.459 0-.934.016-1.392.035-1.48.248-2.59 2.062-2.59.211 0 .405.017.616.053m9.866 2.307c0-2.73-1.762-4.792-4.563-4.792-2.961 0-4.88 1.921-4.88 4.881 0 2.801 1.78 4.774 4.633 4.774 2.837 0 4.81-2.044 4.81-4.863m-2.66-.105c0 1.356-.458 2.854-2.061 2.854-1.568 0-2.063-1.444-2.063-2.766 0-1.357.53-2.695 2.097-2.695 1.533 0 2.027 1.302 2.027 2.607" fill="#001647"/></svg>