<svg xmlns="http://www.w3.org/2000/svg" width="200" height="200"><g fill="#083566"><path d="M114.799 87.589h10.086c2.51 0 2.478 1.369 2.456 3.354-.022 1.858-.307 4.608-1.112 8.384-.787 3.707-1.597 6.439-2.376 8.38-.582 1.454-1.142 2.456-1.622 3.107-.742.978-1.164 1.184-1.642 1.367-.485.176-1.229.239-2.363.23H75.597c-2.451 0-2.96-.572-2.96-2.326.002-1.112.184-2.728.637-4.848.482-2.276.802-2.795 1.378-4.005.886-1.826 1.666-2.496 2.386-2.899.729-.396 1.674-.571 3.055-.571h13.233l1.381-6.497H80.093c-1.255 0-2.611.095-4.022.493a10.402 10.402 0 00-3.139 1.488c-1.51 1.059-2.797 2.59-3.815 4.529-1.021 1.95-1.565 3.141-2.2 6.11-.511 2.412-.772 4.42-.776 6.2.004 1.482.184 2.828.668 4.085a7.018 7.018 0 001.634 2.505c1.072 1.056 2.393 1.619 3.597 1.895 1.219.282 2.389.336 3.557.34 5.497-.002 37.047-.002 42.629 0 1.08-.007 2.4-.002 3.905-.409a9.044 9.044 0 003.375-1.744c1.608-1.319 2.886-3.196 4.009-5.753 1.125-2.568 2.12-5.88 3.07-10.331.859-4.057 1.25-7.186 1.253-9.73-.003-1.855-.206-3.417-.69-4.812-.364-1.043-.909-1.994-1.63-2.76-1.079-1.167-2.479-1.775-3.638-2.023-1.178-.258-2.188-.251-2.995-.255h-15.348l-5.882 27.653h6.642l4.502-21.157"/><path d="M140.837 80.687c-1.018-2.059-2.396-3.712-3.935-4.938-2.32-1.85-4.925-2.739-7.272-3.183-2.352-.441-4.511-.456-6.077-.459h-21.092l-7.793 36.639h6.644l6.411-30.141h15.83c1.322 0 2.831.023 4.318.253 1.114.168 2.202.451 3.176.884 1.463.666 2.663 1.589 3.649 3.239.972 1.658 1.734 4.191 1.736 8.12 0 2.288-.262 5.036-.881 8.294-1.114 5.889-2.494 10.214-3.979 13.317-1.114 2.33-2.275 3.97-3.422 5.142-1.728 1.744-3.409 2.542-5.389 3.027-1.973.472-4.252.521-6.748.514H74.397c-2.74.007-5.524-.735-7.439-2.323-.971-.798-1.776-1.8-2.382-3.183-.603-1.38-1.006-3.169-1.006-5.518 0-1.5.165-3.224.55-5.184.82-4.184 1.663-6.194 2.873-8.585 1.83-3.591 3.829-5.391 5.843-6.46 2.021-1.054 4.215-1.375 6.476-1.375h15.925l1.382-6.498H79.312c-1.909 0-4.02.178-6.201.805-3.271.924-6.663 2.962-9.387 6.536-2.739 3.57-4.615 7.377-5.98 14.326-.454 2.317-.671 4.455-.672 6.435 0 3.091.538 5.806 1.551 8.122a14.877 14.877 0 006.957 7.394c2.86 1.46 5.943 2.003 8.817 2.006h41.616c2.254-.003 4.705-.009 7.274-.487 1.923-.357 3.917-.999 5.837-2.124 2.89-1.684 5.497-4.419 7.617-8.395 2.129-3.985 3.853-9.225 5.195-16.282.677-3.581.992-6.722.992-9.504.003-4.228-.731-7.659-2.091-10.414"/><path d="M99.309 72.107H70.716l-1.382 6.498h22.254c6.83 0 7.721-6.498 7.721-6.498"/></g></svg>