<svg xmlns="http://www.w3.org/2000/svg" width="200" height="200"><path d="M83.93 67.48c4.43-.35 9.227-.524 13.117-.587v5.764a84.63 84.63 0 00-5.836.396c-6.796.727-8.065 2.199-8.888 8.729-.344 2.721-.445 5.606-.445 7.573 0 1.961.101 4.852.445 7.564.823 6.528 2.092 8.003 8.888 8.728 1.932.208 3.991.332 5.836.397v5.766c-3.89-.062-8.687-.236-13.117-.589-12.192-.974-14.466-2.956-15.946-11.709-.616-3.648-.797-7.526-.797-10.161s.181-6.513.797-10.161c1.48-8.753 3.754-10.733 15.946-11.71" fill="#00264A"/><path d="M133.583 89.351c0 2.635-.181 6.513-.797 10.16-1.478 8.754-3.754 10.737-15.946 11.71-4.43.353-9.224.528-13.115.59v-5.767a83.908 83.908 0 005.832-.397c6.799-.725 8.068-2.2 8.889-8.728.343-2.711.445-5.603.445-7.564 0-1.967-.102-4.852-.445-7.573-.821-6.53-2.09-8.003-8.889-8.729a83.272 83.272 0 00-5.832-.395v-5.765c3.891.063 8.685.236 13.115.588 12.192.977 14.468 2.956 15.946 11.709.616 3.648.797 7.526.797 10.161" fill="#DC3B41"/><path d="M48.281 121.822a9.52 9.52 0 013.213.554l-.228 2.121c-.8-.148-1.583-.376-2.626-.376-2.104 0-3.277 1.305-3.277 3.343 0 2.185 1.19 3.327 3.277 3.327 1.06 0 1.826-.212 2.626-.359l.228 2.105a9.15 9.15 0 01-3.213.57c-3.816 0-5.805-2.365-5.805-5.626 0-3.132 1.989-5.659 5.805-5.659zm8.56 2.152c3.408 0 4.647 2.87 4.044 5.496h-5.969c.326 1.061 1.272 1.5 2.609 1.5.849 0 1.794-.162 2.838-.407l.212 1.908c-1.076.39-2.365.636-3.538.636-2.626 0-4.844-1.371-4.844-4.567 0-2.543 1.614-4.566 4.648-4.566zm-.017 1.957c-.946 0-1.598.685-1.876 1.599h3.376c0-1.11-.619-1.599-1.5-1.599zm9.164-1.957c1.142 0 2.382.229 3.409.652l-.228 1.827c-1.321-.375-2.365-.505-3.05-.505-.995 0-1.256.245-1.256.684 0 1.207 4.941.18 4.941 3.751 0 1.924-1.761 2.724-3.799 2.724-1.288 0-2.674-.212-3.718-.652l.212-1.827c1.354.391 2.413.505 3.359.505.929 0 1.289-.196 1.289-.668 0-1.207-4.942-.196-4.942-3.751 0-2.055 1.777-2.74 3.783-2.74zm19.308 0c2.038 0 3.881.783 3.881 3.018v5.869h-2.511l-.164-.749c-.733.668-1.63.995-2.723.995-1.565 0-2.821-1.077-2.821-2.675 0-2.576 2.61-3.473 5.544-2.837v-.327c0-.798-.636-1.125-1.63-1.125a8.97 8.97 0 00-3.115.588l-.228-1.893c1.011-.537 2.429-.864 3.767-.864zm-.5 5.217c-.655.147-.992.409-1.082 1.063 0 .602.522.912 1.174.912.571 0 1.256-.342 1.614-.767v-1.076c-1.001-.187-.434-.121-1.706-.132zm20.514-5.217c3.408 0 4.647 2.87 4.044 5.496h-5.967c.325 1.061 1.271 1.5 2.608 1.5.848 0 1.793-.162 2.838-.407l.211 1.908c-1.076.39-2.363.636-3.538.636-2.626 0-4.843-1.371-4.843-4.567 0-2.543 1.614-4.566 4.647-4.566zm-.016 1.957c-.947 0-1.599.685-1.875 1.599h3.375c0-1.11-.62-1.599-1.5-1.599zm14.828-1.957c3.409 0 4.648 2.87 4.044 5.496h-5.968c.326 1.061 1.272 1.5 2.609 1.5.85 0 1.794-.162 2.838-.407l.211 1.908c-1.075.39-2.364.636-3.538.636-2.625 0-4.843-1.371-4.843-4.567 0-2.543 1.614-4.566 4.647-4.566zm-.016 1.957c-.946 0-1.598.685-1.875 1.599h3.375c0-1.11-.619-1.599-1.5-1.599zm33.227-1.957c3.409 0 4.647 2.87 4.044 5.496h-5.968c.326 1.061 1.272 1.5 2.609 1.5.848 0 1.793-.162 2.837-.407l.213 1.908c-1.077.39-2.365.636-3.54.636-2.624 0-4.843-1.371-4.843-4.567 0-2.543 1.615-4.566 4.648-4.566zm-.016 1.957c-.946 0-1.598.685-1.876 1.599h3.377c0-1.11-.62-1.599-1.501-1.599zm-55.538-3.799v2.088h1.957v1.956h-1.957v3.913c0 .767.538.963 1.908.735l.212 1.891c-2.282.734-4.794.539-4.794-2.347v-4.192H93.8v-1.795l1.305-.161.31-2.088h2.364zm40.43 2.088v8.642h-2.675v-8.642h2.675zm-64.145-3.067v11.708h-2.675v-11.708h2.675zm6.311 3.067l-3.082 3.928v.066l3.408 4.647h-3.212l-3.213-4.533 3.066-4.108h3.033zm33.414-3.067v11.708h-2.672v-11.708h2.672zm13.78 3.067l2.055 5.934h.065l2.055-5.934h2.805l-3.278 8.641h-3.278l-3.294-8.641h2.87zm20.061 0v1.956l-4.176 4.664v.065h4.338v1.956h-7.763v-1.94l4.191-4.681v-.064h-4.028v-1.956h7.438zm-59.415-3.361l-2.218 2.626h-2.152l1.37-2.626h3zm48.656-.098c1.207 0 1.582.458 1.582 1.338 0 .864-.375 1.321-1.582 1.321-1.206 0-1.582-.457-1.582-1.321 0-.88.376-1.338 1.582-1.338zm-89.552-1.891l.75 1.223.75-1.223h2.544l-1.744 2.431h-3.114l-1.746-2.431h2.56z" fill="#00264A"/></svg>