<svg xmlns="http://www.w3.org/2000/svg" width="200" height="200" viewBox="300 300 200 200"><path fill="#00ACEC" d="M400.478 394.646c9.548 0 17.323-7.775 17.323-17.323S410.026 360 400.478 360s-17.323 7.775-17.323 17.323c-.001 9.548 7.706 17.323 17.323 17.323z"/><path fill="#00ACEC" d="M413.231 391.304c-3.274 3.615-9.14 7.161-16.573 7.161-5.797 0-10.775-2.25-13.981-4.774-18.892 1.978-33.009 4.774-33.009 4.774v7.639h100.256v-15.823c.067.069-17.051 0-36.693 1.023z"/><path fill="#003A66" d="M370.605 438.977c-1.773.546-4.433 1.023-6.889 1.023-8.252 0-14.936-4.501-14.936-13.641 0-8.593 6.956-12.958 14.936-12.958 2.66 0 4.229.341 6.752.818v6.752c-1.568-.545-3.205-.955-4.773-.955-4.093 0-7.161 2.251-7.161 6.479 0 4.434 2.864 6.684 6.82 6.684 1.772 0 3.409-.341 5.183-1.022v6.819h.068zm22.643-18.141c-2.387-.819-4.842-1.296-7.365-1.296-1.501 0-4.093.067-4.093 1.705 0 3.342 13.095.204 13.095 10.094 0 6.888-6.615 8.593-12.14 8.593-3.683 0-6.684-.341-10.298-1.228v-6.684c2.591 1.091 5.729 1.705 8.593 1.705 2.251 0 4.297-.478 4.297-1.773 0-3.479-13.095-.341-13.095-10.298 0-7.093 7.161-8.321 12.822-8.321 2.659 0 5.66.342 8.252.887l-.068 6.616zM410.162 440c-8.729 0-13.845-4.501-13.845-13.299 0-8.594 5.115-13.3 13.845-13.3s13.913 4.706 13.913 13.3c0 8.73-5.183 13.299-13.913 13.299zm0-6.206c3.751 0 3.888-4.365 3.956-7.093 0-2.388-.273-7.094-3.956-7.094-3.547 0-3.819 4.706-3.819 7.094 0 2.728.409 7.093 3.819 7.093zm16.3-19.983h15.687c4.297 0 8.594 1.433 8.594 6.343 0 3.547-1.842 5.388-5.115 6.274v.137c3.478.478 5.592 3.273 5.592 5.865 0 6.479-5.047 7.161-10.229 7.161H426.53v-25.78h-.068zm9.003 20.392h2.523c1.773 0 3.614-.683 3.614-2.66 0-2.183-1.773-2.592-3.546-2.592h-2.592v5.252h.001zm0-10.571h2.387c1.705 0 3.479-.546 3.479-2.455 0-1.91-1.568-2.523-3.273-2.523h-2.592v4.978z"/><path fill="#003A66" d="M353.828 411.492s3.001 2.592 7.57 2.592c4.297 0 7.502-2.114 9.139-3.888l-.75-.546s-2.183 2.387-6.343 2.387c-4.365-.067-6.889-3.068-6.889-3.068l-2.727 2.523z"/></svg>