<svg xmlns="http://www.w3.org/2000/svg" width="200" height="200"><path fill="#EB008B" d="M22.378 93.846a6.337 6.337 0 00-.179 9.749 6.443 6.443 0 002.552-4.857c.029-.801 0-1.741-.352-2.291-.352-.55-1.447-1.627-2.021-2.601m-.169 1.534c.405.569 1.139.999 1.346 1.591.186.556.263 1.142.227 1.728a5.416 5.416 0 01-1.534 3.548 5.423 5.423 0 01-1.284-3.645 5.312 5.312 0 011.234-3.218m24.401-5.166a3.276 3.276 0 01-.965-1.448c-.121-.578.048-1.398 0-2.099 1.17.198 2.24.783 3.039 1.661a5.426 5.426 0 011.399 3.613 5.368 5.368 0 01-3.474-1.708m2.789-2.556a6.1 6.1 0 00-4.786-2.065h-.096c.212 1.105.086 2.576.155 3.304.067.729.675 1.37 1.215 1.931a6.404 6.404 0 004.771 2.05h.323a6.453 6.453 0 00-1.597-5.258m-9.788-3.623a11.807 11.807 0 01-3.667-3.314l-.125-.174.044-.207a9.84 9.84 0 00.202-2.018 10.129 10.129 0 016.333 6.754 9.354 9.354 0 01-2.769-1.056m-10.196 4.901a19.85 19.85 0 01-5.624 3.676c-2.656-4.876-.854-10.981 4.021-13.636a10.046 10.046 0 017.251-.923c.166 3.344-1.991 7.525-5.648 10.883m13.99-3.652c-1.362-5.946-7.286-9.664-13.233-8.302-5.948 1.362-9.665 7.286-8.303 13.232.221.962.568 1.89 1.035 2.759l.053.092.082.14.347.612a10.977 10.977 0 0012.132 4.674v-.993a10.047 10.047 0 01-11.225-4.063 20.906 20.906 0 005.789-3.796 19.779 19.779 0 005.113-7.139l.29-.724.521.58c.906 1 1.964 1.852 3.135 2.523 1.07.62 2.247 1.037 3.468 1.229a9.981 9.981 0 01-4.269 10.063l.14.125.594.541a10.885 10.885 0 004.52-10.613l-.189-.94z"/><path fill="#2B388F" d="M36.401 98.188v-2.563l.516.483.593.541.121.106.632.574 14.954 13.588-7.236 1.5 4.038 7.873-3.319 1.808-4.056-8.297-6.243 5.233V98.188zm-.902-1.568v24.34l6.84-5.735 3.965 8.104 4.959-2.677-3.902-7.623 7.756-1.614-16.063-14.609-.594-.539-.13-.131-.55-.483-2.257-2.054-.024 3.021zm35.368 1.142h-.145a2.89 2.89 0 00-1.52-1.166 7.173 7.173 0 00-2.682-.444 4.156 4.156 0 00-2.957 1.206 3.856 3.856 0 00-1.264 2.895 4.964 4.964 0 001.163 3.429 3.967 3.967 0 003.116 1.308c1.991 0 3.35-.481 4.077-1.448h.144v1.78a2.736 2.736 0 01-1.249 2.307 5.593 5.593 0 01-3.329.901 7.831 7.831 0 01-5.581-2.224 7.288 7.288 0 01-2.339-5.476 8.129 8.129 0 012.267-5.826c1.512-1.59 3.54-2.383 6.083-2.383a4.673 4.673 0 013.03.965 2.946 2.946 0 011.191 2.369l-.005 1.807zm14.018 8.693a1.66 1.66 0 01-.617 1.249 1.986 1.986 0 01-1.36.559h-7.555a3.045 3.045 0 01-1.963-.545 1.811 1.811 0 01-.675-1.49c0-1.146.785-2.562 2.354-4.25l3.902-4.249c.502-.535.946-1.12 1.326-1.747h-7.612v-1.176a1.85 1.85 0 01.661-1.448 2.801 2.801 0 011.896-.575h7.034a2.459 2.459 0 011.824.604c.374.361.586.859.588 1.379 0 1.286-.659 2.654-1.978 4.105l-3.859 4.192a11.25 11.25 0 00-1.447 1.929h7.521l-.04 1.463zm11.621-8.475a2.045 2.045 0 00-.776-1.736 3.511 3.511 0 00-2.152-.589 3 3 0 00-2.281.965 3.52 3.52 0 00-.965 2.34l-.029.51h1.722c1.782 0 2.973-.109 3.575-.327.534-.13.91-.611.906-1.163m3.618.482c0 1.396-.56 2.371-1.679 2.927s-2.988.821-5.605.791h-2.509a3.333 3.333 0 001.409 2.311c.856.6 1.883.907 2.928.873 2.106 0 3.685-.482 4.737-1.447h.145v1.206c0 2.335-1.865 3.502-5.596 3.502a7.482 7.482 0 01-5.306-2.18 7.387 7.387 0 01-2.297-5.597c0-2.543.703-4.582 2.108-6.116a7.096 7.096 0 015.465-2.296 6.273 6.273 0 014.341 1.664 5.576 5.576 0 011.838 4.341m14.29-.679h-.141a2.88 2.88 0 00-1.504-1.161 7.196 7.196 0 00-2.687-.444 4.16 4.16 0 00-2.958 1.206 3.862 3.862 0 00-1.263 2.895 4.958 4.958 0 001.162 3.428 3.962 3.962 0 003.117 1.309c1.989 0 3.349-.482 4.075-1.448h.146v1.78a2.735 2.735 0 01-1.271 2.302 5.578 5.578 0 01-3.327.901 7.834 7.834 0 01-5.582-2.224 7.299 7.299 0 01-2.339-5.495 8.134 8.134 0 012.267-5.826c1.512-1.589 3.541-2.383 6.088-2.383a4.686 4.686 0 013.03.965 2.945 2.945 0 011.191 2.369l-.004 1.826zm16.334 10.502h-1.263a2.645 2.645 0 01-1.931-.675 2.523 2.523 0 01-.704-1.931v-6.29c0-1.206-.283-2.095-.849-2.667a2.98 2.98 0 00-2.225-.859 2.618 2.618 0 00-1.93.888c-.565.595-.85 1.512-.85 2.754v8.779h-1.263c-1.76 0-2.64-.861-2.64-2.585V87.599h1.206a2.825 2.825 0 012.055.675c.478.473.734 1.123.704 1.795v4.418a4.687 4.687 0 011.419-1.447 3.368 3.368 0 011.93-.631c2.01 0 3.569.583 4.68 1.751 1.109 1.167 1.664 2.841 1.664 5.021l-.003 9.083z"/><path fill="#EB008B" d="M140.978 106.084a2.493 2.493 0 01-.53 1.778 2.411 2.411 0 01-1.779.546c-1.492 0-2.638-.412-3.436-1.235-.797-.824-1.194-2.02-1.191-3.589V93.111h1.091c1.837 0 2.755.965 2.755 2.894v7.236a1.996 1.996 0 00.531 1.591 2.874 2.874 0 001.823.444h.719l.017.808zm-3.431-18.234c.438.407.682.98.677 1.577a2.303 2.303 0 01-2.268 2.267 2.117 2.117 0 01-1.577-.676 2.182 2.182 0 01-.661-1.591 2.257 2.257 0 012.238-2.238 2.192 2.192 0 011.591.661m5.066 5.547a4.932 4.932 0 01.227-1.693c.219-.506.521-.972.894-1.379.611-.707 1.213-1.061 1.808-1.061h.888v3.501h5.369v1.578a1.719 1.719 0 01-.588 1.263 2.353 2.353 0 01-1.693.575h-3.073v6.058c0 1.855.814 2.784 2.44 2.784a5.479 5.479 0 002.784-.551h.145v1.38a2.283 2.283 0 01-.879 1.896 3.982 3.982 0 01-2.512.689c-1.93 0-3.377-.499-4.342-1.495-.965-.998-1.447-2.414-1.447-4.25l-.021-9.295z"/><path fill="#2B388F" d="M162.348 103.015v-1.495h-1.381c-1.398 0-2.372.154-2.928.482-.539.29-.863.865-.829 1.477a1.642 1.642 0 00.699 1.419c.59.36 1.278.529 1.967.481 1.646 0 2.467-.794 2.467-2.383m3.761-.029a5.24 5.24 0 01-1.635 3.989 5.876 5.876 0 01-4.221 1.549h-.772a6.946 6.946 0 01-4.461-1.36 4.318 4.318 0 01-1.738-3.531 4.133 4.133 0 011.824-3.544c1.212-.872 3.168-1.307 5.865-1.307h1.337v-.203c0-1.07-.26-1.813-.776-2.224-.517-.41-1.365-.617-2.558-.617a7.758 7.758 0 00-3.115.544 4.6 4.6 0 00-1.751 1.234h-.145v-1.229a3.371 3.371 0 011.385-2.629c.938-.766 2.345-1.147 4.22-1.147a8.491 8.491 0 012.5.341 6.076 6.076 0 012.052 1.104 5.024 5.024 0 011.445 2.166 9.434 9.434 0 01.531 3.329l.013 3.535zm13.889.421a4.692 4.692 0 01-1.679 3.858c-1.122.896-2.716 1.346-4.78 1.346a6.442 6.442 0 01-3.531-.916c-.966-.611-1.447-1.318-1.447-2.122v-1.737h.145a5.167 5.167 0 001.968 1.033 8.672 8.672 0 002.684.429c1.875 0 2.813-.563 2.813-1.692a1.172 1.172 0 00-.648-1.063 8.178 8.178 0 00-2.57-.632c-1.646-.228-2.865-.677-3.656-1.346a3.41 3.41 0 01-1.197-2.754 4.824 4.824 0 011.839-3.801 7.048 7.048 0 014.736-1.563c1.608 0 2.833.333 3.677 1.002a2.901 2.901 0 011.264 2.297v1.447h-.146a4.381 4.381 0 00-1.837-1.033 8.289 8.289 0 00-2.581-.405c-2.068 0-3.101.574-3.097 1.722a.965.965 0 00.582.907c.81.31 1.654.518 2.513.618 3.29.533 4.937 1.997 4.937 4.388"/></svg>