<svg xmlns="http://www.w3.org/2000/svg" width="200" height="200"><path fill="#FFF" d="M0 0h200v200H0z"/><path d="M118.933 92.141c0 3.081-2.963 9.955-3.911 11.852-4.029 7.94-9.363 7.94-15.407 7.94-2.963 0-9.482 0-9.482-5.689 0-2.607 2.134-7.229 3.911-11.733.712-1.896 3.912-8.178 14.815-8.178 4.504 0 10.074.711 10.074 5.808m-13.748.592c-.711 0-1.896.119-2.37.83-1.896 2.844-3.082 9.837-3.082 11.733 0 1.304.83 1.304 2.015 1.304.711 0 1.778 0 2.371-.711 1.659-1.896 3.081-10.193 3.081-11.733 0-1.067-.119-1.423-2.015-1.423m-25.718.711c0 7.112-4.267 8.534-9.126 8.534h-3.319c-3.318 0-10.074-.237-10.074-.237-.592 0-.948-.119-.948.237 0 2.37 2.607 5.807 6.519 5.807 3.081 0 5.096-2.015 5.57-2.37 0 0 3.555-.474 5.807-.474 2.252 0 5.452.355 5.452 1.659 0 2.489-8.059 6.4-14.696 6.4-10.193 0-19.319-5.57-19.319-12.326C45.333 89.415 66.785 81 73.067 81c5.689 0 6.4 9.126 6.4 12.444m-8.534-.592c0-1.422-.118-3.319-1.303-3.319-3.911 0-10.667 5.334-11.26 5.926-.474.474-.118.474.593.474h8.652c3.081 0 3.318-.474 3.318-3.081m18.134 5.096c0 .711-.948 2.845-1.067 3.2-.83 2.015-2.963 2.252-4.504 2.252-2.252 0-3.081-.83-3.081-2.015 0-.948.829-2.607.948-2.844 1.067-2.252 2.844-2.489 4.622-2.489 1.659-.119 3.082.474 3.082 1.896M152 92.378c0 3.674-4.267 16.237-4.978 18.133-.474 1.185-1.303 1.422-2.489 1.422-2.133 0-3.674-.474-4.385-1.066-.118-.119-.355-.356-.237-.83.83-2.37 3.793-10.904 3.793-12.681 0-1.067-.237-1.778-1.304-1.778-6.044 0-17.067 13.037-19.2 15.407-.711.711-1.659.948-2.844.948-1.423 0-2.963-.711-3.082-.829-.474-.237-.474-.474-.355-1.067l.355-1.541c.711-2.844 4.267-13.392 6.756-19.081.118-.237.237-.474.711-.474.237 0 1.066-.237 2.252-.237.829 0 2.488.118 3.318.474V90.6c0 .593.119 2.607 2.015 2.607 3.2 0 9.007-5.57 14.222-5.57 4.385-.237 5.452 2.607 5.452 4.741" fill="#EA1C0A"/></svg>