<svg xmlns="http://www.w3.org/2000/svg" width="200" height="200"><defs><clipPath id="a"><path d="M62.458 69.566h75.084v60.868H62.458z"/></clipPath><clipPath id="b"><path d="M62.458 69.566h75.084v60.868H62.458z"/></clipPath></defs><g fill="#B22C2B"><g clip-path="url(#a)"><path d="M76.695 123.545l.008-5.167c3.239 0 4.428-.162 4.992 3.81h.343v-4.421l-8.823.003v.608h1.528v11.374H73.06v.599h9.091v-4.648h-.456c-.453 3.514-1.343 4.05-3.842 4.05h-1.158v-5.526h.671c1.121.028 1.76.682 1.988 2.611h.412l-.003-5.713c-.007.01-.406 0-.406 0 0 .028-.08 2.457-2.04 2.42h-.622m-3.604.228h-4.977v.564h1.704v4.09c-.288 1.038-1.818 1.472-2.274 1.472-3.179 0-2.951-4.65-2.951-5.896 0-1.139-.114-5.899 2.951-5.899 2.16 0 3.296 2.151 3.752 4.082h.344c0-.795.013-4.582.006-4.572.007-.03-1.482 1.069-1.486 1.052.034-.007-.681-1.018-2.616-1.018-3.751 0-5.127 3.743-5.116 6.355.017 2.39 1.119 6.461 5.116 6.461 1.257 0 2.142-.639 2.616-1.365.004-.016 1.584 1.247 1.589 1.252v-6.014h1.342v-.564"/></g><path d="M116.571 125.812l1.815-5.439 1.934 5.439h-3.749zm-7.049-2.171h-2.04v-5.27h2.61c1.532.232 1.595 2.002 1.595 2.566 0 1.363-.569 2.704-2.165 2.704zm21.723 2.062c-.452 3.514-1.343 4.041-3.842 4.041h-.152v-11.371h1.59v-.612h-5.228v.612h1.59v11.371h-1.261l-4.643-12.323h-.685c.015-.008-3.858 11.181-3.866 11.214.008-.033-.292.96-.929 1.083-.588.028-.546-.278-.546-.386v-2.155c0-.565-.042-1.851-.63-2.44-.658-.664-1.784-.713-1.759-.737 0 0 2.856-.591 2.856-3.305 0-1.903-1.323-2.848-3.533-2.932h-6.277v.613h1.605v11.37h-1.605v.605h5.149v-.605h-1.607v-5.467h2.141c3.715.307-.637 6.077 4.231 6.072h3.068v-.607c-.17 0-1.295.032-1.364-.751-.047-.566.739-2.6.739-2.6h4.178c-.002-.008 1.299 3.353 1.311 3.353h-1.456v.605h11.381v-4.648h-.456m-33.506-7.332c3.24 0 4.436-.155 5.001 3.817h.342v-4.421H90.219v.604h.337c.454 0 1.531.033 1.593.982h-.001v7.255l-6.017-8.841h-3.276v.604h.544c.646 0 1.552.029 1.593.982v9.295c0 .907-1.358 1.251-1.925 1.251h-.007v.452h4.433v-.452c-.568 0-1.935-.344-1.935-1.251l.016-8.183c2.382 3.405 6.878 9.891 6.919 9.886h.225v-10.998c.062-.949 1.139-.982 1.593-.982h1.477v11.381h-1.684v.599h9.092v-4.648h-.456c-.454 3.514-1.344 4.05-3.843 4.05h-1.158v-5.526h.671c1.122.028 1.76.682 1.988 2.611h.413l-.003-5.713c-.007.01-.406 0-.406 0 0 .028-.08 2.457-2.041 2.421h-.622v-5.175"/><g clip-path="url(#b)"><path d="M137.419 118.373v-.613h-5.132v.613h1.612l.005 11.365h-1.617v.613h5.132v-.613h-1.612v-11.365h1.612m-18.288-11.064a1.11 1.11 0 01.86-.719l4.151-.926-.376-3.704-.011-.08c-.103-.484-.412-1.963-2.341-2.12-7.421-.6-9.143-1.7-10.946-2.865l-.008-.017-.01.006-.117-.076c-1.927-1.248-3.841-1.257-4.029-1.252-2.102.001-4.763.834-4.979.902-.642.189-1.242.381-1.823.567-2.324.748-4.332 1.396-7.704 1.295l-.616-.019-.158.596c-.122.458-1.065 4.185-.155 6.58-.817.644-.816 1.388-.811 1.487.033.819-.16 1.021-.224 1.087-.39.404-1.682.457-2.771.457h-.41l-.233.321c-.671.923-2.121 1.14-3.05.904-.409-1.242-.419-2.192-.026-2.759.465-.668 1.45-.741 1.853-.741h.233c.985 0 1.788-.806 1.788-1.797v-6.673c.3-.464.541-.999.751-1.601 1.629-.259 2.876-1.642 2.876-3.303 0-.638-.188-1.254-.527-1.78 1.506-.724 2.792-2.206 2.792-4.146 0-1.941-.976-2.831-1.903-3.414.261-.745.693-2.055.986-3.374l1.303-4.667c.582-1.83 2.105-3.012 3.882-3.012h22.951c-.971 1.367-2.351 2.014-4.263 2.014h-13.888l-.726 1.553h12.447c-.977 1.556-2.41 2.288-4.443 2.288h-9.026l-.724 1.554h8.052c-.975 1.497-2.391 2.205-4.387 2.205h-4.919l-.726 1.553h5.157c.047.065.177.3.177.93 0 .998-.84 1.81-1.872 1.81-.355 0-.656-.081-1.187-.297l-.684-.29-1.197 1.074.672.285c1.036.449 1.613.684 2.396.684.95 0 1.806-.394 2.414-1.021.883.057 2.309.175 3.689.287 1.65.136 3.208.264 4.013.307.403.022.782.04 1.143.058.684.034 1.311.065 1.937.111 3.132 5.085 4.738 5.754 10.805 6.482.437.782.831 1.611 1.207 2.444v9.905l.002.056c.033.455.033.609-.03.692-.21.276-1.146.667-1.471.802l-5.114 1.928c-.678-.92-.922-1.879-.652-2.571zM118.025 110h-10.11l4.332-4.573c.875-.904 1.154-1.992.786-3.058-.21-.616-.782-1.797-1.378-3.007 1.72.8 4.327 1.518 9.633 1.945.639.053.808.271.934.851l.233 2.29-2.773.619a2.67 2.67 0 00-2.003 1.679c-.379.976-.25 2.125.346 3.254zm-18.234 0c-.281-1.101-.167-1.979.335-2.552.479-.55 1.216-.717 1.737-.642l2.955.549.075.013h.411l2.088-2.251.019-.022c.357-.415 1.442-1.674.334-3.279l-2.79-4.6a9.89 9.89 0 011.355-.106l.018-.001c.014.002 1.414-.02 2.913.853.203.435.486 1.008.8 1.646.586 1.187 1.315 2.666 1.519 3.264.064.188.262.758-.437 1.481L105.772 110h-5.981zm-.838-3.574c-.564.646-1.111 1.77-.756 3.574h-9.518c1.022-.102 1.765-.341 2.278-.874.624-.648.678-1.535.657-2.168.021-.054.125-.268.591-.479l.82-.373-.492-.758c-.813-1.25-.458-3.981-.144-5.466h.074c3.228 0 5.315-.669 7.516-1.377a64.151 64.151 0 011.793-.558l.019-.006c.013-.005.656-.209 1.532-.413l3.103 5.113.029.043c.309.441.347.732-.215 1.389l-1.556 1.677-2.55-.473-.023-.004a3.566 3.566 0 00-3.158 1.153zm-16.887-.336c-.663.951-.742 2.264-.245 3.91h-1.608V97.444a6.843 6.843 0 001.773-.516c-.032.547-.108.979-.21 1.558l-.073.425-.155.906h.921c1.377 0 2.404-.215 3.193-.623v5.242a.238.238 0 01-.232.243h-.233c-1.368 0-2.51.514-3.131 1.411zm-3.411 2.549l-7.328-1.908-7.33 1.908V95.53l7.33-1.903 7.328 1.903v13.109zM64.938 110l6.389-1.663L77.715 110H64.938zm2.555-19.301c.306-.467 1.007-.87 1.883-.719l.663.116.209-.639a.905.905 0 01.235-.396c.187-.177.464-.259.819-.249.937.03 2.11.682 3.062 1.704.348.372.654.802.928 1.239.053.092.114.19.17.276.076.122.141.221.155.245.032.059.504.767.472.812.321-.451.643-.904.966-1.355.009-.013-.006-.054-.033-.113a6.237 6.237 0 00-.346-.584c-.023-.039-.049-.078-.073-.117l-.005-.008-.111-.172a8.749 8.749 0 01-.328-.545l2.028-3.242c.506.105.937.121 1.143.121h.049c2.86 0 5.819-1.65 5.819-4.41l-.001-.068c-.036-.752-.176-1.469-.289-2.046-.075-.38-.145-.738-.145-.917 0-.302.425-.639 1.034-.639h.926l-.419-2.396c1.302-.958 2.101-2.517 2.06-4.008 1.402 1.074 2.391 2.939 2.572 4.924.053.576-.061 1.382-.247 2.229l-.099.355.017.004a30.949 30.949 0 01-1.08 3.482l-.239.623.582.33c1.043.591 1.685 1.023 1.685 2.397 0 1.575-1.419 2.784-2.789 3.04l-1.874.351 1.585 1.058c.508.339.811.892.811 1.477 0 .99-.842 1.795-1.876 1.795h-.597l-.168.549c-.582 1.895-1.214 2.822-3.246 3.02.093-.576.158-1.13.158-1.914 0-.184-.015-.701-.024-.866l-.09-1.766-1.242 1.262c-.422.428-1.169.768-1.99.93v-1.541l-8.886-2.307-3.162.822c-.705-.706-.847-1.872-.672-2.144zm9.596-5.707c.024-.107.111-.192.203-.19l1.337.043c1.632-.057 3.294-.728 3.48-2.427 0-1.15-.815-2.27-1.969-2.27-.616 0-1.309.426-2.087.941-.508.337-.909.603-1.213.603-.206 0-.371-.137-.371-.25 0-.018.002-.039.009-.056l.855-1.145-.739-.497c-.158-.103-.403-.297-.43-.442-.013-.068.086-.191.118-.228.305-.357.657-.792 1.012-1.328.218-.306.345-.474.71-.474.361 0 .656.29.656.645 0 .235.259.422.58.422.321 0 .465-.228.663-.422 0 0 .763-.699.359-1.029-.46-.378-2.307.392-1.793-1.303l.127-.242c.198-.261 1.081-.915 2.905-.915.345 0 .71.025 1.083.072l.273.034 3.873-2.387c.034.08.045.139.045.139l.004.023c.202 1.172-.537 2.567-1.718 3.245l-.472.27.305 1.747c-.994.305-1.687 1.102-1.687 2.061 0 .33.076.721.173 1.215.108.55.23 1.171.261 1.804 0 1.817-2.507 3.019-4.629 2.951l-.054-.001c-.088-.003-1.439-.11-1.77-.372-.065-.047-.116-.154-.099-.237zm3.209-12.127c.244-.313.641-.657 1.117-.972a5.088 5.088 0 011.329-.601c.75-.216 1.614-.23 2.505-.058l-2.746 1.693a10.173 10.173 0 00-1.002-.053c-.466 0-.894.038-1.287.101.029-.037.056-.075.084-.11zm41.848-.399h10.355c-.97 1.368-2.352 2.014-4.262 2.014h-7.646c.61-.535 1.128-1.207 1.553-2.014zm-.519 5.855h-7.645c.677-.592 1.239-1.358 1.688-2.288h10.401c-.978 1.556-2.411 2.288-4.444 2.288zm-6.085 3.759h-7.644c.655-.575 1.204-1.313 1.646-2.205h10.386c-.975 1.496-2.391 2.205-4.388 2.205zm1.758 5.833c2.422.399 4.404 1.49 5.894 3.239.319.375.626.773.929 1.205-4.075-.535-5.493-1.128-7.77-4.586.303.04.617.086.947.142zm16.256 16.765c.148.241.275.467.4.684.152.27.3.531.476.804-1.179-.074-2.072-.728-2.899-1.962.761-.267 1.683-.077 2.023.474zM123.869 110l1.589-.6.023-.008c2.256-.935 2.576-1.518 2.471-3.018v-6.063c1.716 4.357 3.338 7.422 6.664 7.42.453 0 .936-.055 1.455-.173l1.298-.294-.892-.984c-.57-.63-.847-1.117-1.166-1.681-.131-.231-.266-.471-.43-.737-.779-1.262-2.63-1.69-4.129-1.019-.68-1.35-1.366-3.113-2.19-5.285l-.18-.414c-.142-.324-.284-.651-.43-.979v-.054h-.024c-.511-1.148-1.056-2.3-1.707-3.38a19.414 19.414 0 00-1.841-2.585c-1.735-2.037-4.031-3.305-6.825-3.767-1.932-.318-3.3-.385-5.032-.47-.36-.017-.734-.036-1.134-.057a216.71 216.71 0 01-3.97-.305c-1.056-.087-2.14-.175-2.991-.238.057-.241.091-.488.091-.746 0-.347-.032-.654-.093-.93h11.116c2.866 0 4.94-1.266 6.174-3.761 2.849-.025 4.909-1.317 6.126-3.839h.397c2.965 0 5.086-1.353 6.302-4.023l.501-1.098H97.378c-2.475 0-4.582 1.615-5.371 4.111l-.024.087c-.64-1.785-1.813-3.301-3.315-4.194-2.088-1.243-4.465-1.659-6.356-1.116a6.58 6.58 0 00-1.756.797c-.433.287-1.043.746-1.485 1.313a12.169 12.169 0 00-1.289 2.063c-.216.178-.385.36-.501.538l-.452.847-.023.048c-.54 1.217-1.196 2.061-1.706 2.659-.509.591-.534 1.153-.466 1.521.075.401.29.729.52.977l-.013.023a1.71 1.71 0 00-.229.856c0 .994.865 1.746 1.928 1.746.773 0 1.405-.361 2.074-.804.272-.179.99-.657 1.226-.683a.59.59 0 01.569.567c0 .814-1.049 1.254-1.802 1.309l-1.529.163c-1.101.103-1.623.687-1.623 1.208 0 .524.252.82.426.995l.115.115.388.346-1.623 2.613c-1.157-1.072-2.509-1.719-3.71-1.757-.776-.026-1.446.208-1.94.674a2.345 2.345 0 00-.374.46h-.029c-1.282 0-2.313.686-2.818 1.457-.549.842-.352 2.301.345 3.414l-4.094 1.063v19.574h75.101V110h-13.673"/></g><path d="M77.032 97.543l-4.898-1.272v1.605l4.898 1.271v-1.604m-11.411 1.604l4.898-1.271V96.27l-4.898 1.273v1.604m0 3.226l4.898-1.27v-1.606l-4.898 1.27v1.606m11.411-1.606l-4.898-1.27v1.606l4.898 1.27v-1.606m0 3.229l-4.898-1.273v1.605l4.898 1.273v-1.605m-11.411 1.605l4.898-1.273v-1.605l-4.898 1.273v1.605"/></g></svg>