<svg xmlns="http://www.w3.org/2000/svg" width="200" height="200"><path fill="none" d="M0 0h200v200H0z"/><path d="M75.667 115.359a2.316 2.316 0 01-2.313 2.314 2.315 2.315 0 01-2.313-2.314v-9.614h-11.41v9.614a2.316 2.316 0 01-2.314 2.314 2.315 2.315 0 01-2.313-2.314V92.502a2.314 2.314 0 014.627 0v9.015h11.41v-9.015a2.314 2.314 0 012.313-2.314 2.315 2.315 0 012.313 2.314zm8.016-9.135h7.9c0-1.956-1.118-3.869-3.711-3.869-2.313 0-3.989 1.316-4.189 3.869m4.189-7.54c6.741 0 7.979 5.186 7.979 7.94 0 1.474 0 3.19-2.434 3.19h-9.853c0 2.872 2.035 4.188 4.667 4.188 1.755 0 2.992-.597 3.949-1.236.44-.28.759-.44 1.277-.44 1.037 0 1.875.839 1.875 1.877 0 .637-.319 1.156-.678 1.475-.678.639-2.793 2.195-6.423 2.195-5.544 0-8.975-2.993-8.975-9.655 0-6.103 3.192-9.534 8.616-9.534m15.079 2.393v9.295c0 1.836.638 3.59 3.591 3.59 2.912 0 3.549-1.754 3.549-3.59v-9.295c0-1.196.956-2.154 2.153-2.154 1.198 0 2.155.958 2.155 2.154v9.295c0 3.909-1.475 7.501-7.857 7.501-6.425 0-7.9-3.592-7.9-7.501v-9.295c0-1.196.957-2.154 2.154-2.154 1.198 0 2.155.958 2.155 2.154m19.545.2c.759-1.555 2.632-2.552 4.309-2.552 1.116 0 2.033.916 2.033 2.034a2.042 2.042 0 01-2.033 2.034c-2.752 0-4.309 1.755-4.309 4.428v8.297a2.145 2.145 0 01-2.155 2.155 2.145 2.145 0 01-2.153-2.155v-14.44c0-1.197.957-2.154 2.153-2.154 1.199 0 2.155.957 2.155 2.154zm11.846 4.947h7.899c0-1.956-1.117-3.869-3.709-3.869-2.315 0-3.991 1.316-4.19 3.869m4.19-7.54c6.741 0 7.978 5.186 7.978 7.94 0 1.474 0 3.19-2.434 3.19h-9.852c0 2.872 2.033 4.188 4.667 4.188 1.755 0 2.992-.597 3.949-1.236.439-.28.758-.44 1.277-.44 1.037 0 1.874.839 1.874 1.877 0 .637-.32 1.156-.678 1.475-.678.639-2.793 2.195-6.422 2.195-5.546 0-8.976-2.993-8.976-9.655 0-6.103 3.191-9.534 8.617-9.534m22.698 18.151l-5.945-7.977-1.276.996v5.744c0 1.196-.958 2.075-2.154 2.075-1.236 0-2.154-.879-2.154-2.075V91.026c0-1.198.918-2.075 2.154-2.075 1.196 0 2.154.877 2.154 2.075v14.081l7.221-5.664c.517-.4.917-.519 1.395-.519a2.06 2.06 0 012.074 2.074 2.1 2.1 0 01-.798 1.636l-5.225 3.99 5.864 7.697c.319.44.439.879.439 1.277a2.06 2.06 0 01-2.076 2.075 2.032 2.032 0 01-1.673-.838m17.11-6.144v-1.117h-4.667c-1.754 0-2.712.838-2.712 2.275 0 1.516 1.077 2.432 3.311 2.432 2.114 0 4.068-1.356 4.068-3.59m-7.617-6.66c-.401.278-.719.399-1.197.399a1.873 1.873 0 01-1.876-1.874c0-.441.159-.919.518-1.318 1.117-1.236 3.112-2.553 6.542-2.553 4.947 0 7.899 2.433 7.899 6.661v10.213a2.129 2.129 0 01-2.114 2.114 2.128 2.128 0 01-2.114-2.114c-1.078 1.715-2.833 2.314-5.227 2.314-3.908 0-6.501-2.434-6.501-6.024 0-3.71 2.991-5.625 6.462-5.625h5.225v-.719c0-1.794-1.316-2.991-3.63-2.991-1.755 0-2.991.797-3.987 1.517" fill="#00AAD7"/><path d="M21.38 101.051c0-5.611 4.564-10.175 10.175-10.175 2.051 0 3.959.612 5.558 1.659l-5.851 9.396-2.412-3.185a1.882 1.882 0 00-1.511-.751 1.895 1.895 0 00-1.509 3.038l4.073 5.38c.358.47.921.751 1.511.751.029 0 .058 0 .087-.003a1.89 1.89 0 001.521-.891l6.874-11.036a10.107 10.107 0 011.834 5.817c0 5.611-4.564 10.176-10.175 10.176-5.611 0-10.175-4.565-10.175-10.176m26.027 14.775l-5.318-5.319.006-.006a14.103 14.103 0 003.624-9.45c0-7.81-6.353-14.163-14.164-14.163-7.81 0-14.164 6.353-14.164 14.163 0 7.811 6.354 14.164 14.164 14.164 2.405 0 4.666-.612 6.651-1.674l5.742 5.744a2.45 2.45 0 003.46 0 2.449 2.449 0 00-.001-3.459" fill="#FF7B00"/></svg>