<svg xmlns="http://www.w3.org/2000/svg" width="200" height="200" viewBox="300 300 200 200"><path d="M334.849 385.2h-9.7v37.1c3.4-1.2 6.7-2.3 9.7-3.2v-33.9zm-9.8-15.2h9.9v8.7h-9.9V370zm25.1 35.2c0-8.7 4.7-12.5 10.3-12.5 5.6 0 7.4 3.3 7.4 9.2v12.6c3.5.199 6.7.5 9.8 1.1v-15.5c0-9.8-5.1-15.7-14-15.7-7 0-11.1 3.399-13.4 8.3v-7.4h-9.8v32.399c3.4-.898 6.7-1.5 9.7-1.999v-10.5zm71.301-20h-9.7l-11.5 33.3-11.1-33.3h-10.3l11.8 33.8c5.7 1.8 11.101 3.9 16.8 5.8l14-39.6zm2.6-15.2h9.9v8.7h-9.9V370zm9.9 15.2h-9.7v43.9c3.1.5 6.3.801 9.7.9v-44.8zm24.1-.9c-11.8 0-18.4 5.3-19.101 14.3h9.101c.2-4.5 3.5-7 9.5-7s7.7 2.601 7.7 6.7v4.101c-1.2-.101-2.9-.2-4.3-.2-16.4 0-23.301 5.601-23.301 15.499 0 6 3.4 10.201 9.101 11.601 4.399-.499 9.1-1.399 14.1-2.601.2-.1.5-.1.7-.199 1.2-.3 2.4-.6 3.7-1 1.399-.4 2.8-.8 4.2-1.3 1.8-.601 3.6-1.2 5.499-1.8V398.3c.101-8-3.899-14-16.899-14zm7.2 27.399c0 6.701-5 10.601-11.101 10.601-4.1 0-6.499-2.2-6.499-6.101 0-5.398 4.6-7.6 13.5-7.6 1.399 0 2.8 0 3.999.1l.101 3z" fill="#05AFF0"/></svg>