<svg xmlns="http://www.w3.org/2000/svg" width="200" height="200"><path fill="#D52834" d="M35.407 95.806H30v1.49l2.051.467v10.254l-2.051.558v1.49h7.457v-1.49l-2.051-.467.001-12.302zm-1.678-2.33c.652 0 1.118-.187 1.398-.561.373-.372.466-.839.466-1.397 0-.56-.187-1.025-.56-1.398-.186-.279-.652-.467-1.305-.467s-1.025.187-1.397.561c-.373.372-.466.838-.466 1.397 0 .561.093 1.025.466 1.398.279.373.745.467 1.398.467zm18.082 8.948c-.187-.28-.373-.56-.559-.746-.094-.187-.28-.279-.373-.467a8.32 8.32 0 001.491-.56c.373-.187.745-.466 1.118-.745.652-.467 1.118-1.118 1.491-1.771.372-.744.56-1.49.56-2.236s-.188-1.492-.56-2.237c-.373-.746-.839-1.306-1.491-1.771-.559-.372-1.118-.651-1.771-.744-.653-.188-1.398-.28-2.237-.28H39.413v1.585l2.237.559v14.915l-2.237.559v1.585h8.296v-1.585l-2.608-.559v-6.339h2.608l3.543 6.897v1.585h6.338v-1.585l-2.331-.466-3.448-5.594zm-3.634-2.703h-2.983V92.73h2.89c1.118 0 1.957.187 2.517.653.373.279.653.652.838 1.118.188.466.28.933.28 1.399 0 .559-.093 1.117-.28 1.677-.185.466-.465.932-.838 1.212-.654.65-1.493.932-2.424.932zm24.886-6.899c-.745-.746-1.771-1.397-2.796-1.677-1.118-.373-2.33-.561-3.821-.561-1.492 0-2.797.187-3.822.561-1.025.372-1.958.931-2.703 1.77-.84.932-1.491 2.051-1.958 3.355-.466 1.398-.652 2.797-.652 4.381 0 1.585.187 2.983.652 4.289a9.498 9.498 0 001.863 3.168 6.67 6.67 0 002.704 1.678c1.024.372 2.33.56 3.822.56s2.796-.186 3.822-.56c1.024-.372 1.957-.933 2.702-1.77.932-.933 1.584-2.146 2.051-3.45.373-1.212.652-2.704.652-4.288 0-1.397-.186-2.797-.559-4.102a7.626 7.626 0 00-1.957-3.354zm-1.678 11.466c-.279 1.024-.559 1.863-1.025 2.423-.838 1.213-2.144 1.771-3.821 1.771-.933 0-1.771-.186-2.33-.465-.653-.373-1.119-.841-1.585-1.492-.467-.653-.839-1.584-1.025-2.609-.279-1.025-.372-2.331-.372-3.729 0-2.703.466-4.66 1.491-5.966a3.996 3.996 0 011.49-1.305c.56-.279 1.306-.466 2.144-.466a5.64 5.64 0 012.237.466c.652.28 1.211.839 1.678 1.491.466.653.838 1.492 1.118 2.517.279 1.024.372 2.237.372 3.636 0 1.491-.093 2.702-.372 3.728zm17.803 3.729h-8.481L91.798 92.45v-1.585H77.351v6.059h2.144l.839-4.1h7.178l-11 15.564v1.585h15.846v-6.339h-2.33l-.84 4.383zm17.43-15.661l2.236.56v6.245h-8.016v-6.245l2.237-.56v-1.491h-7.924v1.585l2.237.559v14.915l-2.237.559v1.585h7.924v-1.585l-2.237-.559v-6.805h8.016v6.805l-2.236.559v1.585h7.924v-1.585l-2.237-.559V92.916l2.237-.56v-1.491h-7.924v1.491zm23.396 15.661h-6.432V92.916l2.796-.56v-1.491h-8.762v1.585l2.517.559v14.915l-2.517.559v1.585h15.566v-6.617h-2.237l-.931 4.566zm16.311-17.431h-3.262l-6.245 17.338-2.144.559v1.585h7.084v-1.585l-2.238-.559 1.399-4.102h6.524l1.397 4.102-2.144.559v1.585h8.109v-1.585l-2.144-.559-6.336-17.338zm-4.754 11.278l2.609-7.736h.093l2.517 7.736h-5.219zm27.963 1.305c-.187-.56-.561-1.025-1.025-1.491-.467-.467-1.119-.932-1.864-1.398-.746-.467-1.678-.932-2.796-1.398a35.691 35.691 0 01-1.864-.839c-.467-.279-.932-.467-1.212-.746-.28-.278-.56-.559-.653-.839a4.138 4.138 0 01-.186-1.212c0-1.863 1.024-2.89 2.982-2.89 1.306 0 2.237.373 2.891 1.213.652.838.931 2.051.931 3.728h2.33v-6.431h-2.33l-.186 1.211c-1.119-1.024-2.517-1.491-4.288-1.491-1.771 0-3.17.467-4.287 1.398-1.025.932-1.585 2.236-1.585 4.008 0 .746.093 1.491.373 2.051.187.56.56 1.025 1.024 1.491.468.467 1.025.839 1.678 1.213.652.373 1.398.652 2.237 1.023.746.28 1.398.561 1.957.84.561.279 1.119.56 1.493.839.465.279.744.653 1.024 1.024.186.373.373.84.373 1.398 0 .932-.28 1.585-.933 1.958-.559.372-1.397.652-2.423.652-.652 0-1.212-.093-1.678-.279a3.929 3.929 0 01-1.305-.839c-.372-.372-.652-.932-.932-1.491-.187-.652-.373-1.398-.373-2.237h-2.423v6.433h2.33l.279-1.585a5.19 5.19 0 001.863 1.398 7.27 7.27 0 002.61.467c.932 0 1.77-.094 2.516-.373.839-.187 1.491-.56 2.051-1.025s1.025-1.024 1.399-1.678c.372-.652.465-1.491.465-2.33-.184-.654-.276-1.213-.463-1.773z"/></svg>