<svg xmlns="http://www.w3.org/2000/svg" width="200" height="200"><path d="M65.8 96.329a3.66 3.66 0 013.648 3.648 3.644 3.644 0 01-3.648 3.648 3.644 3.644 0 01-3.648-3.648c-.023-2.006 1.619-3.648 3.648-3.648m-4.036 11.286l-6.133 6.133s-4.423-2.69-1.824-5.289l4.378-4.378c2.189-2.189 5.791 1.3 3.579 3.534m8.072-15.23l6.133-6.133s4.423 2.69 1.824 5.289l-4.378 4.378c-2.189 2.189-5.814-1.323-3.579-3.534m-11.651 3.579a1400.78 1400.78 0 01-6.133-6.133s2.69-4.446 5.289-1.824l4.378 4.378c2.189 2.189-1.323 5.791-3.534 3.579m15.23 8.072l6.133 6.133s-2.69 4.423-5.289 1.824l-4.378-4.378c-2.189-2.189 1.3-5.814 3.534-3.579m.593-6.544h8.687s1.231 5.039-2.44 5.039h-6.201c-3.101-.023-3.17-5.039-.046-5.039m-16.439 5.016h-8.664s-1.231-5.039 2.44-5.039h6.201c3.101.023 3.17 5.039.023 5.039m10.739 5.7v8.687s-5.039 1.231-5.039-2.44v-6.201c0-3.101 5.039-3.17 5.039-.046m-5.039-16.439v-8.687s5.039-1.208 5.039 2.463v6.201c0 3.101-5.039 3.17-5.039.023m28.523 4.834v3.26c.935-1.368 1.847-2.804 3.01-4.013.547-.592.775-.638 1.573-.638h1.436v.068c-.798.821-2.873 3.306-3.921 4.811.98 1.414 1.915 3.01 3.237 4.127.297.251.525.342.821.433-.182.753-.502 1.049-1.345 1.049a2.067 2.067 0 01-1.459-.661c-1.277-1.482-2.326-2.987-3.352-4.651v5.266h-.684c-1.003 0-1.368-.706-1.368-1.413v-9.029h.661c1.003-.023 1.391.661 1.391 1.391m10.465 5.791h-1.345c.16 1.026 1.094 1.687 2.303 1.687.843 0 1.847-.159 2.508-.775h.068v.638c0 1.049-.707 1.847-2.964 1.847-2.052 0-4.035-1.619-4.035-4.127 0-2.736 1.687-4.468 4.012-4.468 1.71 0 3.284 1.208 3.284 3.192.022 1.527-1.118 2.006-3.831 2.006m.365-3.466c-.98 0-1.687.798-1.733 1.756l-.023.274h.912c1.938 0 2.372-.206 2.372-.798.022-.821-.57-1.232-1.528-1.232m12.198 6.704c-.912 0-1.482-.57-1.482-1.346v-3.26c0-1.391-.616-2.006-1.664-2.006-.89 0-1.505.661-1.505 1.846v4.743h-.616c-.866 0-1.436-.57-1.436-1.345v-3.557c0-1.733 1.14-3.511 3.693-3.511 1.938 0 3.534 1.299 3.534 3.625v4.788h-.524zm3.648-9.508c.274-.319.638-.57.958-.57h.478v1.847h2.85v.843c0 .434-.387.981-1.231.981h-1.619v3.215c0 1.071.479 1.482 1.3 1.482.661 0 1.163-.092 1.482-.297h.068v.73c0 .843-.615 1.368-1.801 1.368-2.075 0-3.078-1.117-3.078-3.055V97.72c0-.775.16-1.094.593-1.596m7.228.707a1.197 1.197 0 01-1.186-1.209c0-.661.524-1.185 1.186-1.185.661 0 1.208.524 1.208 1.185 0 .662-.547 1.209-1.208 1.209m1.459 8.869c-1.573 0-2.463-.889-2.463-2.554v-5.563h.57c.912 0 1.46.479 1.46 1.528v3.853c0 .821.342 1.072 1.254 1.072h.387v.433c0 .889-.342 1.231-1.208 1.231m9.029-5.632c-.274-.478-1.049-.843-2.235-.843-1.185 0-2.234.957-2.234 2.189 0 1.504.889 2.508 2.28 2.508 1.163 0 1.869-.388 2.166-.753h.068v.935c0 .98-.957 1.71-2.439 1.71-2.258 0-4.218-1.756-4.218-4.104s1.641-4.355 4.446-4.355c1.299 0 2.234.798 2.234 1.756v.957h-.068zm5.7-2.85c2.462 0 3.876 1.984 3.876 4.15 0 2.462-1.414 4.446-4.059 4.446-2.462 0-3.876-1.961-3.876-4.15-.023-2.462 1.414-4.446 4.059-4.446m-.183 1.824c-1.185 0-1.755.981-1.755 2.326 0 1.642.592 2.599 1.938 2.599 1.185 0 1.755-.98 1.755-2.325 0-1.619-.593-2.6-1.938-2.6" fill="#F05A22"/></svg>