<svg xmlns="http://www.w3.org/2000/svg" width="200" height="200"><defs><clipPath id="a"><path d="M150.987 101.341h4.659v5.467h-4.659z"/></clipPath><clipPath id="b"><path d="M156.393 101.13h6.375v5.677h-6.375z"/></clipPath><clipPath id="c"><path d="M164.091 101.13h5.315v5.888h-5.315z"/></clipPath><clipPath id="d"><path d="M171.293 101.34h5.055v5.468h-5.055z"/></clipPath><clipPath id="e"><path d="M39.963 112.403V87.597L29.128 98.075 18.292 87.597v24.806l10.785-10.43h-.001l2.043-1.972-.002-.002 6.08-5.879v11.76l-4.088-3.954-1.994 1.922 8.848 8.555zm-18.905-6.523V94.12l6.08 5.879-6.08 5.881z"/></clipPath><clipPath id="g"><path d="M143.395 112.2V87.8h-.69v24.4h.69z"/></clipPath><linearGradient id="f" gradientUnits="userSpaceOnUse" x1="17.511" y1="-111.623" x2="40.748" y2="-88.386" gradientTransform="scale(1 -1)"><stop offset="0" stop-color="#120658"/><stop offset=".25" stop-color="#120658"/><stop offset=".8" stop-color="#FF161F"/><stop offset="1" stop-color="#FF161F"/></linearGradient></defs><path d="M157.074 92.995v5.678h-.891v-2.979l-2.152 3.189-2.155-3.189v2.979h-.889v-5.678l3.044 4.405zm6.43 2.944c0-1.087-.867-1.967-1.936-1.967s-1.935.88-1.935 1.967c0 1.085.866 1.967 1.935 1.967s1.936-.882 1.936-1.967m.93 0c0 1.569-1.284 2.842-2.866 2.842-1.584 0-2.867-1.273-2.867-2.842 0-1.57 1.283-2.842 2.867-2.842 1.582 0 2.866 1.272 2.866 2.842m6.059 1.024v-3.758h.889v5.678l-4.429-3.97v3.76h-.887v-5.678zm6.672-1.416v.783h-2.993v1.536h3.125v.806h-4.031v-5.467h4.031v.822h-3.125v1.52zm3.406 3.125V96.53l-2.236-3.325h.98l1.708 2.528 1.705-2.528h.98l-2.231 3.325v2.142z" fill="#120658"/><g clip-path="url(#a)"><path d="M153.765 106.021c.584 0 .951-.368.951-.822 0-.452-.367-.821-.951-.821h-1.872v1.643zm-.099-2.4c.539 0 .87-.332.87-.74 0-.41-.331-.742-.87-.742h-1.773v1.482zm1.979 1.574c0 .89-.724 1.613-1.741 1.613h-2.917v-5.467h2.847c.968 0 1.608.624 1.608 1.425 0 .525-.275.93-.672 1.128.523.195.875.65.875 1.301" fill="#120658"/></g><g clip-path="url(#b)"><path d="M158.496 104.812h2.163l-1.082-1.958zm-1.106 1.995h-.997l3.188-5.677 3.187 5.677h-1l-.694-1.253h-2.992z" fill="#120658"/></g><g clip-path="url(#c)"><path d="M168.519 105.098v-3.757h.888v5.677l-4.427-3.968v3.758h-.888v-5.678z" fill="#120658"/></g><g clip-path="url(#d)"><path d="M172.199 106.808h-.906v-5.468h.906v2.52l2.77-2.52h1.233l-2.402 2.191 2.548 3.277h-1.119l-2.081-2.674-.949.861z" fill="#120658"/></g><g clip-path="url(#e)"><path d="M29.128 98.075L18.292 87.597v24.806l10.785-10.43h-.001l2.043-1.972-.002-.002 6.08-5.879v11.76l-4.088-3.954-1.994 1.922 8.848 8.555V87.597zm-8.07-3.955l6.08 5.879-6.08 5.881z" fill="url(#f)"/></g><path d="M64.856 92.682v14.092h-2.75v-6.191l-4.963 6.736-4.966-6.736v6.191h-2.748V92.682l7.714 10.249zm16.587 7.319c0 3.909-3.225 7.081-7.201 7.081-3.973 0-7.198-3.172-7.198-7.081 0-3.909 3.225-7.081 7.198-7.081 3.976 0 7.201 3.172 7.201 7.081m-2.893 0c0-2.405-1.925-4.352-4.308-4.352-2.379 0-4.307 1.947-4.307 4.352 0 2.404 1.928 4.352 4.307 4.352 2.383 0 4.308-1.948 4.308-4.352m15.378 1.6v-8.372h2.749v14.09l-10.684-8.915v8.37h-2.75V92.682zm15.566-2.808v2.416h-7.269v3.085h7.594v2.48H99.396V93.229h10.423v2.528h-7.594v3.036zm8.789-3.036v11.016h-2.829V95.757h-4.079v-2.528H124.9l-1.472 2.528zm4.914 11.016h-3.117l8.059-14.091 8.062 14.091h-3.124l-1.465-2.595h-6.959zm2.707-4.81h4.444l-2.23-3.95z" fill="#120658"/><g clip-path="url(#g)"><path d="M142.705 112.2h.69V87.8h-.69z" fill="#211350"/></g></svg>