<svg xmlns="http://www.w3.org/2000/svg" width="200" height="200"><path fill="none" d="M0 0h200v200H0z"/><defs><linearGradient id="a" gradientUnits="userSpaceOnUse" x1="33.682" y1="123.665" x2="33.682" y2="76.334"><stop offset="0" stop-color="#E64F32"/><stop offset="1" stop-color="#E8633E"/></linearGradient><linearGradient id="b" gradientUnits="userSpaceOnUse" x1="63.526" y1="123.665" x2="63.526" y2="76.334"><stop offset="0" stop-color="#E64F32"/><stop offset="1" stop-color="#E8633E"/></linearGradient><linearGradient id="c" gradientUnits="userSpaceOnUse" x1="130.732" y1="123.665" x2="130.732" y2="76.334"><stop offset="0" stop-color="#E64F32"/><stop offset="1" stop-color="#E8633E"/></linearGradient><linearGradient id="d" gradientUnits="userSpaceOnUse" x1="95.906" y1="123.665" x2="95.906" y2="76.337"><stop offset="0" stop-color="#E64F32"/><stop offset="1" stop-color="#E8633E"/></linearGradient><linearGradient id="e" gradientUnits="userSpaceOnUse" x1="166.317" y1="123.665" x2="166.317" y2="76.337"><stop offset="0" stop-color="#E64F32"/><stop offset="1" stop-color="#E8633E"/></linearGradient></defs><path d="M17.964 76.337v47.328H28.44l.003-15.778c.205 1.774.746 3.104 1.628 3.982.876.885 2.088 1.319 3.615 1.319h5.252c2.859 0 5.322-1.042 7.376-3.115 2.057-2.074 3.085-4.556 3.085-7.427V86.853c0-2.863-1.028-5.323-3.085-7.404-2.056-2.077-4.517-3.115-7.384-3.115zm12.028 29.997c-1.03-1.037-1.549-2.269-1.552-3.703V81.637l5.244-.001c1.449.001 2.685.518 3.707 1.555 1.02 1.031 1.528 2.262 1.528 3.674v15.762c0 1.438-.516 2.67-1.544 3.707-1.033 1.032-2.258 1.553-3.695 1.554-1.426 0-2.658-.522-3.688-1.554" fill="url(#a)"/><path d="M66.142 76.334l-10.504 5.303v5.177h5.299v36.851h10.478V76.334z" fill="url(#b)"/><path d="M125.481 76.334c-2.866 0-5.326 1.037-7.385 3.091-2.053 2.076-3.08 4.552-3.084 7.417l.004 26.315c0 2.875 1.027 5.35 3.08 7.419 2.059 2.063 4.519 3.089 7.385 3.089h10.495c2.863 0 5.33-1.037 7.387-3.112 2.057-2.079 3.086-4.543 3.087-7.401l-.001-26.31c0-2.852-1.029-5.316-3.086-7.398-2.057-2.072-4.52-3.11-7.387-3.11zm.008 10.486c0-1.425.522-2.643 1.564-3.66 1.04-1.018 2.281-1.523 3.721-1.524 2.745.001 4.475 1.448 5.19 4.332l-10.475 18.939zm1.706 30.44c-.868-.743-1.437-1.832-1.706-3.287l10.475-18.935v18.121c.005 1.413-.51 2.636-1.542 3.667-1.041 1.022-2.286 1.538-3.758 1.538-1.439 0-2.594-.37-3.469-1.104" fill="url(#c)"/><path d="M91.61 76.337l-.003 10.504c-.002 3.144-1.75 8.408-5.241 15.779l-2.601 5.267-2.633 5.27.002 10.508h29.546l-.002-5.301-19.071.002v-5.297l5.229-10.512c3.499-6.983 5.248-12.235 5.248-15.74v-10.48z" fill="url(#d)"/><path d="M150.598 76.337v5.3h10.482v42.028h10.483V81.636l10.473.001v-5.3z" fill="url(#e)"/></svg>