<svg xmlns="http://www.w3.org/2000/svg" width="200" height="200"><g fill="#00C5F3"><path d="M63.068 106.603a8.255 8.255 0 10-16.259 2.867 8.255 8.255 0 0016.259-2.867m43.315 30.329a8.255 8.255 0 102.868 16.257 8.255 8.255 0 00-2.868-16.257m-39.435-4.166a8.254 8.254 0 1013.523 9.467 8.254 8.254 0 00-13.523-9.467m2.314-54.102a8.254 8.254 0 00-2.028-11.496 8.254 8.254 0 102.028 11.496m82.326 24.338a21.372 21.372 0 001.402-12.141 21.378 21.378 0 00-5.643-11.127l-10.882 1.919a37.657 37.657 0 00-4.4-6.876l6.426-9.178a21.367 21.367 0 00-7.593-9.576 21.377 21.377 0 00-11.859-3.878l-6.353 9.074a39.744 39.744 0 00-7.96-1.783l-1.944-11.024a21.37 21.37 0 00-12.14-1.402 21.375 21.375 0 00-11.127 5.643l2.571 14.579a37.264 37.264 0 013.34-1.599l-2.041-11.576a17.688 17.688 0 017.876-3.533 17.7 17.7 0 018.366.544l1.428 8.097.635 3.601a37.167 37.167 0 0112.342 2.752l6.752-9.644a17.693 17.693 0 018.067 3.072 17.7 17.7 0 015.531 6.3l-6.839 9.719a37.111 37.111 0 016.833 10.683l11.567-2.043a17.679 17.679 0 013.534 7.876 17.726 17.726 0 01-.544 8.366l-11.649 2.054-.048.005v.003h-.002l.001.022a37.178 37.178 0 01-2.739 12.33l2.971 2.08 6.658 4.663a17.667 17.667 0 01-3.07 8.067 17.74 17.74 0 01-6.3 5.532l-9.731-6.814a37.148 37.148 0 01-2.861 2.352l12.238 8.569a21.341 21.341 0 009.576-7.593 21.361 21.361 0 003.878-11.858l-9.07-6.35a39.026 39.026 0 001.781-7.964z"/><path d="M86.907 102.399c-1.265-7.17 3.524-14.008 10.694-15.273 7.17-1.263 14.008 3.524 15.273 10.694 1.263 7.172-3.524 14.008-10.694 15.273-7.171 1.265-14.008-3.524-15.273-10.694m40.019-7.056c-2.633-14.932-16.872-24.902-31.803-22.269-14.932 2.633-24.901 16.872-22.268 31.803 2.633 14.932 16.87 24.902 31.803 22.268 14.931-2.632 24.901-16.87 22.268-31.802"/></g></svg>