<svg xmlns="http://www.w3.org/2000/svg" width="200" height="200"><defs><radialGradient id="a" gradientUnits="userSpaceOnUse" cx="92.2" cy="240.286" r="49.485" gradientTransform="matrix(.463 0 0 .463 .13 -.056)"><stop offset="1" stop-color="#1A7BA8"/><stop offset="1"/></radialGradient><radialGradient id="b" gradientUnits="userSpaceOnUse" cx="94.395" cy="217.463" r="34.736" gradientTransform="matrix(.463 0 0 .463 .13 -.056)"><stop offset="1" stop-color="#259BD5" stop-opacity="0"/><stop offset="1"/></radialGradient><radialGradient id="f" gradientUnits="userSpaceOnUse" cx="-11.961" cy="31.587" r="13.494" gradientTransform="matrix(.603 .307 -.122 .24 59.467 81.353)"><stop offset=".343" stop-color="#FFF"/><stop offset=".986" stop-color="#FFF" stop-opacity="0"/></radialGradient><linearGradient id="c" gradientUnits="userSpaceOnUse" x1="53.488" y1="161.193" x2="112.816" y2="161.193" gradientTransform="matrix(.463 0 0 .463 .13 -.056)"><stop offset=".413" stop-color="#259BD5"/><stop offset=".451" stop-color="#259BD5" stop-opacity=".91"/><stop offset=".829" stop-color="#259BD5" stop-opacity="0"/></linearGradient><linearGradient id="d" gradientUnits="userSpaceOnUse" x1="42.835" y1="215.031" x2="42.835" y2="256.893" gradientTransform="matrix(.463 0 0 .463 .13 -.056)"><stop offset=".081" stop-color="#5A9ECA"/><stop offset=".191" stop-color="#85B2D5"/><stop offset=".306" stop-color="#A8C6E0"/><stop offset=".424" stop-color="#C6D8EA"/><stop offset=".548" stop-color="#DDE7F2"/><stop offset=".679" stop-color="#EEF2F8"/><stop offset=".822" stop-color="#FAFBFD"/><stop offset="1" stop-color="#FFF"/></linearGradient><linearGradient id="e" gradientUnits="userSpaceOnUse" x1="42.835" y1="208.245" x2="42.835" y2="238.15" gradientTransform="matrix(.463 0 0 .463 .13 -.056)"><stop offset=".06" stop-color="#385478"/><stop offset=".157" stop-color="#606E8D"/><stop offset=".26" stop-color="#828AA4"/><stop offset=".365" stop-color="#A1A6BA"/><stop offset=".473" stop-color="#BEC1CF"/><stop offset=".587" stop-color="#D7D8E0"/><stop offset=".706" stop-color="#EBEAEE"/><stop offset=".837" stop-color="#F8F8FA"/><stop offset="1" stop-color="#FFF"/></linearGradient></defs><path d="M80.682 87.001l-6.41 12.608a50.287 50.287 0 00-2.208 4.878h-.108c-.035-1.318-.142-2.492-.392-4.558l-1.459-12.928h-2.528l2.493 20.192h2.741l10.613-20.192h-2.741zm12.536 5.911a15.82 15.82 0 00-3.918-.533c-6.303 0-10.043 5.306-10.043 10.363 0 2.742 1.603 4.807 4.167 4.807 2.066 0 4.062-1.032 5.628-4.059h.071c-.177 1.496-.32 2.885-.32 3.739h2.35c-.071-1.603.108-4.202.605-6.695l1.462-7.622zm-3.669 6.02c-.712 3.846-3.169 6.552-5.235 6.552-1.923 0-2.492-1.602-2.492-3.205 0-4.06 3.098-7.942 6.873-7.942.854 0 1.389.106 1.709.213l-.854 4.381zm10.863-8.014l3.49-4.273h-2.031l-2.136 2.741h-.071l-1.282-2.742h-1.888l2.1 4.273h1.818zm-.961 3.384c1.069 0 1.993.356 2.528.64l.677-1.887c-.535-.356-1.71-.712-3.028-.712-3.061 0-5.235 1.959-5.235 4.452 0 1.495.926 2.777 2.6 3.704 1.531.853 2.031 1.53 2.031 2.669 0 1.283-1.07 2.351-2.743 2.351-1.211 0-2.422-.463-3.099-.89l-.712 1.815c.641.499 2.066.962 3.633.998 3.061 0 5.52-1.71 5.52-4.773 0-1.603-1.069-2.92-2.708-3.81-1.317-.713-1.994-1.39-1.994-2.424-.071-1.174 1.033-2.136 2.529-2.136zm15.242 1.815c0-2.1-1.496-3.738-4.238-3.738-4.666 0-7.907 4.95-7.907 9.295 0 3.205 1.674 5.84 5.52 5.84 1.96 0 3.704-.535 4.808-1.14l-.355-1.852c-.891.463-2.173.997-3.883.997-1.496 0-2.671-.641-3.241-1.959-.32-.783-.427-2.137-.285-2.742 5.306.071 9.58-.89 9.58-4.7zm-4.631-1.815c1.319 0 2.21.64 2.21 1.815 0 2.28-3.064 2.815-6.981 2.743.641-2.245 2.423-4.559 4.772-4.559z" fill="#676867"/><path d="M128.155 85.825l3.632-3.525h-2.208l-2.172 2.173h-.108l-1.423-2.172h-2.066l2.386 3.526h1.959zm-6.162 5.308c1.568-1.425 3.669-2.245 5.769-2.245 1.782 0 3.242.357 3.99.82l.819-1.994c-.534-.392-2.172-.962-4.38-.962-2.955 0-5.556.926-7.621 2.708-2.743 2.314-4.275 5.911-4.275 9.722 0 5.164 3.099 8.369 8.191 8.369 2.28 0 4.097-.463 5.236-.962l-.32-2.03c-1.104.569-2.777.855-4.31.855-4.487 0-6.125-2.956-6.125-6.588-.071-3.099 1.14-5.948 3.028-7.693zm17.985 1.246c-4.7 0-8.012 4.416-8.012 9.188 0 3.277 2.03 5.946 5.661 5.946 4.88 0 8.05-4.628 8.05-9.115 0-3.063-1.781-6.019-5.698-6.019zm-2.029 13.177c-2.102 0-3.42-1.71-3.42-4.061 0-3.312 2.066-7.122 5.164-7.122 2.6 0 3.383 2.35 3.383 4.059.037 3.348-2.207 7.124-5.127 7.124zm16.809-14.638l3.49-4.273h-1.994l-2.172 2.741h-.071l-1.282-2.742h-1.888l2.103 4.273h1.815zm-2.708 14.531c-2.349 0-3.596-1.531-3.596-3.847 0-3.419 2.35-7.123 6.125-7.123 1.069 0 1.888.285 2.458.535l.712-1.959c-.463-.285-1.674-.642-3.027-.642-5.2 0-8.868 4.558-8.868 9.508 0 3.098 1.816 5.592 5.556 5.592 1.958 0 3.454-.5 4.202-.89l-.249-1.96a7.27 7.27 0 01-3.312.785zm27.175-12.75l-3.704 8.049c-.748 1.602-1.176 2.635-1.567 3.561h-.072a64.65 64.65 0 00-.641-3.846l-1.424-7.8h-4.808l-5.092 5.092c-.393.393-.926.962-1.354 1.462h-.071l2.529-13.32h-2.493l-4.061 21.262h2.458l1.033-5.521 1.816-1.639 3.49 7.159h2.744l-4.31-8.546 5.593-5.272 2.741 12.928c.071.285.071.426-.071.64-.783 1.425-1.816 2.6-2.813 3.348-.997.784-2.031 1.175-2.671 1.389l.641 2.172c.818-.178 2.563-.854 4.201-2.528 1.959-1.96 3.454-4.488 4.986-7.622l5.449-11.005h-2.529z" fill="#1979A3"/><path d="M78.794 118.02c-.89 0-1.958.57-3.204 1.71-1.211 1.103-1.888 2.029-2.031 2.813-.071.461-.036.854.107 1.21.214.428.57.642 1.068.642.712 0 1.674-.677 2.885-2.031v1.283c0 .427.108.641.321.641.143 0 .321-.108.5-.285.142-.178.213-.32.248-.427 0-.072.036-.285.036-.642v-.605c.143-1.034.285-1.782.393-2.209 0 .036.034-.071.07-.213.036-.177.071-.32.108-.499.212-.925.035-1.388-.5-1.388zm-.712 1.959c-.035.142-.213.498-.499.997-.284.461-.426.711-.498.783-.89.961-1.495 1.46-1.852 1.531h-.178c-.355 0-.462-.213-.391-.641.036-.285.177-.641.392-.997.285-.5.747-.998 1.424-1.603.748-.642 1.353-.926 1.781-.926 0-.036-.071.249-.178.854zm8.227-5.946c-.355.034-.746.569-1.103 1.637a33.608 33.608 0 00-.535 1.888 1.846 1.846 0 00-.212.249c-.036-.143-.108-.215-.214-.215-.998 0-1.923.642-2.814 1.96-.712 1.069-1.138 2.065-1.318 3.027-.07.392 0 .783.25 1.175.248.393.604.606 1.067.606.357-.036.785-.178 1.318-.427a7.18 7.18 0 001.069-.962v1.033c0 .534.072.783.214.783a.9.9 0 00.569-.177c.216-1.674.393-2.957.5-3.811.427-2.777.926-4.773 1.531-5.983a.598.598 0 00.108-.356c0-.321-.144-.464-.429-.427zm-2.065 6.195a3.987 3.987 0 01-.641 1.603c-.32.5-.677.856-.997 1.069l-.321.213c-.108.072-.285.108-.535.179-.249 0-.427-.108-.533-.357a.821.821 0 01-.107-.569c.108-.642.427-1.354.962-2.139.605-.924 1.211-1.423 1.852-1.53.141.036.284.284.32.784v.746zm87.823-2.813c-.071 0-.249.071-.534.177-1.46 1.283-2.6 2.209-3.454 2.85.355-2.457.64-4.345.889-5.556.036-.356-.07-.498-.32-.498-.214 0-.392.177-.569.569-.119.211-.203.44-.25.677l-.214 1.282c-.035.177-.214 1.354-.534 3.562-.32 2.065-.5 3.133-.5 3.169 0 .285.073.499.18.606.142.141.249.213.356.213a1.46 1.46 0 00.426-.249c.214-.25.285-.57.25-.998 0-.32 0-.606.035-.854 0-.25.035-.392.035-.464a.819.819 0 01.179-.392c.89.998 1.389 1.568 1.567 1.71.712.677 1.354 1.104 1.923 1.282.392 0 .606-.178.641-.569 0-.072 0-.108-.035-.179a.96.96 0 00-.179-.213 5.1 5.1 0 01-1.104-.677c-.783-.64-1.354-1.317-1.709-2.03 1.923-1.566 2.992-2.528 3.169-2.991.036-.036.036-.142 0-.249-.07-.142-.142-.177-.249-.177zm-80.559-.072c-.427-.035-.997.428-1.78 1.283a14.98 14.98 0 00-1.674 2.386 3.354 3.354 0 01-.036-1.211c.072-.498.036-.891-.071-1.175-.355 0-.604.177-.747.498a2.242 2.242 0 00-.177.713c0 .071-.036.463-.036 1.21v1.603c0 .071-.036.284-.071.605-.036.285-.072.463-.036.569 0 .108.071.216.177.357.108.108.216.179.322.179.142 0 .427-.428.783-1.318.535-1.175.962-2.031 1.318-2.565.535-.817 1.069-1.387 1.532-1.673.249.179.179 1.354-.214 3.454a30.114 30.114 0 01-.461 2.209.474.474 0 00.069.393.44.44 0 00.321.141c.177 0 .393-.248.57-.782.143-.356.25-.712.32-1.069.249-1.068.427-2.03.498-2.885.25-1.745.036-2.742-.605-2.92zm36.575-.356c.179 0 .749-.32 1.781-.997 1.033-.677 1.567-1.104 1.603-1.317 0-.108 0-.179-.108-.285-.07-.072-.177-.143-.284-.143-.177 0-.748.285-1.781.854-1.067.606-1.637 1.069-1.708 1.354 0 .035.036.142.177.284.143.179.25.249.321.249zm-58.441 3.42c.819-.5 1.602-.998 2.421-1.497 1.639-1.069 2.814-1.994 3.49-2.777.32-.392.534-.82.641-1.283.108-.64-.392-1.138-1.531-1.423-.641-.215-1.318-.286-1.959-.321-.677 0-1.282 0-1.852.07a8.838 8.838 0 00-1.674.357c-.534.249-.854.534-.89.89 0 .072.108.285.32.535.144.142.286.321.428.498l-.107 1.96c-.071.997-.142 1.709-.213 2.172-.036.285-.108.463-.143.569 0 .214.072.428.179.677 0 2.386.249 3.597.712 3.597.142 0 .32-.177.534-.534.142-.284.249-.534.285-.712 0-.072-.143-.392-.462-.926-.037-.071-.072-.356-.072-.819-.036-.462-.036-.747 0-.925-.143-.072-.143-.108-.108-.108zm.108-2.992c.106-1.175.141-1.923.213-2.208.071-.427.25-.713.5-.855.248-.142 1.067-.214 2.42-.214.357 0 .82.072 1.354.25.641.177.962.427.926.677-.036.498-.927 1.317-2.671 2.528-1.531 1.034-2.458 1.604-2.849 1.71-.036-.143.035-.748.107-1.887zm108.015.605c-.891 0-1.96.57-3.206 1.71-1.211 1.103-1.888 2.029-2.031 2.813-.07.461-.034.854.108 1.21.214.428.569.642 1.069.642.712 0 1.673-.677 2.885-2.031v1.283c0 .427.106.641.32.641.143 0 .321-.108.5-.285.141-.178.213-.32.248-.427 0-.072.036-.285.036-.642v-.605c.141-1.034.284-1.782.391-2.209 0 .036.036-.071.071-.213.036-.177.072-.32.108-.499.177-.925 0-1.388-.499-1.388zm-.713 1.959c-.036.142-.214.498-.498.997-.285.461-.428.711-.5.783-.889.961-1.495 1.46-1.851 1.531h-.177c-.357 0-.464-.213-.392-.641.035-.285.177-.641.392-.997.285-.5.746-.998 1.423-1.603.749-.642 1.354-.926 1.781-.926-.035-.036-.071.249-.177.854zm-53.277-2.031c-.321-.069-.856.571-1.639 1.923-.997 1.639-1.638 2.6-1.887 2.816-.25-.607-.393-1.426-.464-2.494-.035-.746-.035-1.389-.035-1.958-.071-.072-.108-.143-.178-.214-.071-.071-.177-.142-.285-.108-.177.037-.356.143-.569.322-.036.108-.072.213-.108.356.143 2.031.249 3.205.285 3.597.25 1.709.606 2.564 1.104 2.564.177 0 .854-.962 1.995-2.885.428-.712.855-1.389 1.282-2.101.463-.819.713-1.246.713-1.282 0-.037 0-.108-.071-.215.036-.249-.071-.32-.143-.32zm31.232.108c-.569-.427-1.14-.606-1.638-.534-.783.106-1.495.818-2.137 2.171-.462.927-.748 1.745-.89 2.457-.142.642-.072 1.247.214 1.781.392.569.891.854 1.568.854.819 0 1.602-.498 2.315-1.531.569-.925.961-1.815 1.103-2.634.108-.463.108-.927.036-1.354-.072-.569-.25-.962-.571-1.211zm-.392 2.386c-.071.569-.32 1.246-.783 2.031-.498.889-.997 1.352-1.495 1.352-.463 0-.785-.249-.927-.748-.107-.355-.071-.854.143-1.459.071-.321.214-.677.392-1.069.534-1.317 1.139-1.958 1.815-1.958.357 0 .57.213.749.677.108.392.142.783.108 1.175zm-24.786-2.422c-.89 0-1.959.57-3.206 1.71-1.211 1.103-1.888 2.029-2.031 2.813-.07.461-.035.854.108 1.21.213.428.569.642 1.068.642.712 0 1.674-.677 2.884-2.031v1.283c0 .427.108.641.321.641.143 0 .32-.108.499-.285.142-.178.214-.32.249-.427 0-.072.035-.285.035-.642v-.605c.143-1.034.285-1.782.393-2.209 0 .036.035-.071.07-.213.037-.177.072-.32.108-.499.177-.925 0-1.388-.5-1.388zm-.713 1.959c-.035.142-.214.498-.498.997-.285.461-.428.711-.499.783-.89.961-1.496 1.46-1.852 1.531h-.177c-.357 0-.464-.213-.392-.641.035-.285.177-.641.392-.997.285-.5.746-.998 1.423-1.603.749-.642 1.354-.926 1.781-.926-.035-.036-.069.249-.177.854zm35.828-1.923c-.57-.427-1.14-.606-1.639-.534-.783.106-1.495.818-2.137 2.171-.463.927-.747 1.745-.89 2.457-.142.642-.071 1.247.214 1.781.392.569.89.854 1.567.854.819 0 1.602-.498 2.315-1.531.57-.925.962-1.815 1.104-2.634.106-.463.106-.927.035-1.354-.036-.569-.25-.962-.569-1.211zm-.393 2.386c-.07.569-.32 1.246-.783 2.031-.498.889-.997 1.352-1.495 1.352-.463 0-.785-.249-.926-.748-.108-.355-.073-.854.141-1.459.072-.321.214-.677.393-1.069.533-1.317 1.138-1.958 1.815-1.958.356 0 .569.213.748.677.143.392.177.783.108 1.175zm-25.819-2.529c-.177-.035-.427.036-.748.143-.428.142-.785.427-1.14.784-.142.142-.427.533-.854 1.103 0-.356-.071-.747-.143-1.14-.177-.569-.427-.853-.748-.853-.427.035-.926.355-1.46 1.032-.392.534-.748.997-.961 1.46l.035-.356c.036-.393.072-.854.108-1.389.035-.606-.072-.926-.322-.926-.392 0-.64.356-.747 1.032 0 .037-.072.642-.179 1.781-.106 1.14-.177 1.746-.177 1.781l-.178 1.425c-.072.32.142.498.605.569.142-.106.356-.498.605-1.139.33-.748.687-1.484 1.069-2.207.426-.785.782-1.212 1.067-1.283.25.07.356.569.356 1.53-.035.677-.142 1.318-.249 1.923-.035.427 0 .713.108.82.106.142.32.142.677 0 .426-1.033.818-2.031 1.174-2.956.426-.962.89-1.531 1.388-1.71a.395.395 0 01.214.356c-.072 1.139-.142 1.994-.214 2.564-.071.393-.108.748-.142 1.14-.037.713.141 1.07.461 1.07.143 0 .285-.073.464-.25.177-.214.249-.428.214-.677 0-.036 0-.108-.071-.25-.035-.143-.071-.215-.035-.25l.356-2.992c.142-1.388-.036-2.065-.535-2.136zm11.895-3.453c.071-.322-.071-.464-.357-.428-.356.035-.747.569-1.103 1.638-.143.427-.32 1.068-.534 1.887a1.892 1.892 0 00-.213.249c-.036-.143-.108-.215-.214-.215-.997 0-1.923.642-2.813 1.96-.713 1.069-1.14 2.066-1.318 3.027-.072.392 0 .783.249 1.175.249.393.605.607 1.068.607.356-.037.783-.179 1.318-.428a7.225 7.225 0 001.069-.962v1.033c0 .534.071.784.213.784a.906.906 0 00.569-.177c.216-1.675.392-2.957.5-3.812.427-2.777.926-4.772 1.531-5.983 0-.142.035-.249.035-.356zm-2.422 5.769a3.989 3.989 0 01-.641 1.602c-.321.5-.677.856-.997 1.069l-.32.213c-.108.072-.287.108-.536.179-.249 0-.427-.108-.534-.357-.107-.178-.142-.392-.107-.569.107-.642.428-1.354.961-2.139.606-.924 1.212-1.423 1.854-1.53.142.036.285.284.319.784.036.391.036.605 0 .746zm-35.043-1.426c-.18-.498-.5-.818-.962-.997-.143-.072-.357-.072-.642-.072-.784.036-1.53.569-2.243 1.603-.5.854-.785 1.603-.927 2.316-.108.711-.036 1.352.249 1.887.32.64.89.961 1.638.961.32 0 .712-.071 1.21-.249.748-.25 1.354-.677 1.781-1.212a.107.107 0 000-.142c-.035-.071-.071-.108-.108-.178h-.248l-.498.356c-.143.107-.428.215-.82.357-.427.142-.677.177-.819.177-.392 0-.712-.142-.997-.462-.248-.321-.355-.641-.285-1.069 0-.071.037-.177.072-.249.108-.035.641-.106 1.602-.213.891-.071 1.425-.142 1.603-.142.285-.072.427-.178.464-.392.035-.177.07-.356.07-.462v-.749c-.035-.499-.07-.854-.142-1.069zm-.962 1.497c-.036.035-.072.107-.108.177-.035.072-.177.107-.427.143-.213 0-.499 0-.962.036-.427.035-.748.035-.962.035 0 0 0-.036-.035-.071v-.108c.072-.32.285-.712.677-1.104.392-.427.748-.605 1.104-.605.285 0 .498.214.641.605.107.321.143.642.071.891zm-14.246-1.497a1.577 1.577 0 00-.962-.997c-.142-.072-.356-.072-.641-.072-.784.036-1.53.569-2.244 1.603-.498.854-.783 1.603-.926 2.316-.107.711-.035 1.352.25 1.887.32.64.89.961 1.638.961.321 0 .712-.071 1.211-.249.747-.25 1.354-.677 1.781-1.212a.11.11 0 000-.142c-.037-.071-.073-.108-.108-.178h-.214l-.498.356c-.143.107-.427.215-.82.357-.427.142-.677.177-.819.177-.392 0-.712-.142-.998-.462-.249-.321-.356-.641-.284-1.069 0-.071.035-.177.071-.249.107-.035.641-.106 1.603-.213.89-.071 1.424-.142 1.602-.142.285-.072.428-.178.463-.392.035-.177.071-.356.071-.462v-.749c-.072-.499-.108-.854-.179-1.069zm-.962 1.497c-.035.035-.071.107-.108.177-.034.072-.177.107-.426.143-.214 0-.5 0-.961.036-.428.035-.749.035-.962.035 0 0 0-.036-.036-.071v-.108c.071-.32.285-.712.677-1.104.391-.427.746-.605 1.103-.605.285 0 .498.214.642.605.106.321.142.642.07.891zm9.687-2.387c-.178-.035-.428.036-.748.143-.426.142-.783.427-1.138.784-.143.142-.428.533-.855 1.103 0-.356-.072-.747-.143-1.14-.178-.569-.427-.853-.747-.853-.427.035-.926.355-1.46 1.032-.393.534-.748.997-.962 1.46l.036-.356c.035-.393.069-.854.106-1.389.036-.606-.071-.926-.32-.926-.391 0-.64.356-.747 1.032 0 .037-.072.642-.179 1.781-.108 1.14-.177 1.746-.177 1.781l-.179 1.425c-.071.32.142.498.605.569.143-.106.357-.498.607-1.139a34.22 34.22 0 011.069-2.207c.427-.785.783-1.212 1.067-1.283.25.07.357.569.357 1.53-.037.677-.143 1.318-.25 1.923-.036.427 0 .713.107.82.106.142.32.142.677 0 .426-1.033.818-2.031 1.174-2.956.429-.962.892-1.531 1.39-1.71a.391.391 0 01.214.356c-.072 1.139-.142 1.994-.214 2.564-.071.393-.108.748-.142 1.14-.036.713.142 1.07.463 1.07.142 0 .285-.073.461-.25.18-.214.251-.428.216-.677 0-.036 0-.108-.072-.25-.035-.143-.07-.215-.035-.25l.356-2.992c.143-1.388 0-2.065-.534-2.136z" fill="#A3A1A2"/><path d="M42.291 74.999c12.18 0 22.045 9.829 22.045 21.938 0 12.108-9.865 21.938-22.045 21.938-12.18 0-22.045-9.83-22.045-21.938 0-12.109 9.865-21.938 22.045-21.938z" fill="#DCF1F4"/><path d="M42.398 79.486c10.577 0 19.16 8.547 19.16 19.089 0 10.542-8.583 19.089-19.16 19.089s-19.16-8.547-19.16-19.089c-.036-10.577 8.583-19.089 19.16-19.089z" fill="url(#a)"/><path d="M42.398 79.486c10.577 0 19.16 8.547 19.16 19.089 0 10.542-8.583 19.089-19.16 19.089s-19.16-8.547-19.16-19.089c-.036-10.577 8.583-19.089 19.16-19.089z" fill="url(#b)"/><path d="M36.023 83.653c6.588-.071 10.079 4.808 11.681 10.221.962 3.241.819 7.942-.285 10.898-1.389 3.668-3.632 6.659-6.98 8.191-1.033.463-2.066.498-3.312.783-.321.071-.855 0-1.068-.071-.57-.142-1.033.036-1.567-.142-.998-.321-1.959-.82-2.814-1.247-.89-.427-1.282-.961-1.994-1.531-2.458-2.03-3.74-5.093-4.63-8.832-.534-2.173-.285-6.019.285-7.835 1.318-4.167 3.419-7.764 6.98-9.438.677-.32 1.46-.57 2.173-.783.391-.143 1.246 0 1.531-.214z" fill="url(#c)"/><path d="M27.974 96.189s4.31 3.526 14.922 3.526c10.613 0 14.602-3.526 14.602-3.526s-2.992 12.5-14.922 12.5c-11.931 0-14.602-12.5-14.602-12.5z" fill="url(#d)" opacity=".56"/><path d="M57.213 96.972s-2.956 12.251-14.637 12.251c-11.681 0-14.317-12.251-14.317-12.251s3.882 9.936 14.317 9.936 14.637-9.936 14.637-9.936m-28.954-.819c-.071 0-.142 0-.249.036-.392.107-.641.534-.57.961.036.143.712 3.241 2.885 6.411 2.92 4.238 7.158 6.481 12.215 6.481 5.057 0 9.331-2.243 12.358-6.446 2.172-2.991 2.956-5.983 3.063-6.374.035-.072.035-.143.035-.214a.815.815 0 00-.747-.819h-.179a1.062 1.062 0 00-.356.142l-.213.214c-.036.036-.036.071-.072.142-.071.178-1.104 2.493-3.276 4.773-2.956 3.098-6.517 4.665-10.577 4.665-4.096 0-7.586-1.567-10.471-4.701-2.136-2.35-3.098-4.701-3.098-4.701a.79.79 0 00-.748-.57z" fill="url(#e)" opacity=".13"/><path d="M42.577 109.223c-11.683 0-14.318-12.251-14.318-12.251s3.882 9.937 14.317 9.937c10.398 0 14.636-9.937 14.636-9.937s-2.955 12.251-14.635 12.251z" fill="#FFF"/><path d="M56.536 89.422c-1.816 3.597-6.944 4.63-11.432 2.351-4.487-2.28-6.659-7.052-4.843-10.649 1.816-3.597 6.945-4.629 11.432-2.35 4.487 2.279 6.66 7.051 4.843 10.648z" fill="url(#f)" opacity=".17"/></svg>