<?xml version="1.0" encoding="utf-8"?><!DOCTYPE svg PUBLIC "-//W3C//DTD SVG 1.1//EN" "http://www.w3.org/Graphics/SVG/1.1/DTD/svg11.dtd"><svg version="1.1" xmlns="http://www.w3.org/2000/svg" viewBox="0 0 238 182.1" style="enable-background:new 0 0 238 182.1"><path d="m203.7 62.4c0-2.1-.1-4.1-.3-6.1-.4-3.7-1.1-7.4-2.1-10.9-7.4-26.2-31.5-45.4-60.2-45.4-28.7 0-52.8 19.2-60.3 45.4 5.1 18.1 18.2 32.8 35.3 40.2-5.7-6.1-9.2-14.2-9.2-23.2 0-18.8 15.3-34 34.2-34 18.9 0 34.2 15.2 34.2 34 0 9-3.5 17.1-9.2 23.2-6.2 6.7-15.1 10.8-25 10.8-27.7 0-51.6-16.5-62.3-40.1-1.6-3.5-2.9-7.1-3.8-10.9-1.4-5.4-2.2-11.1-2.2-17 0-8.2 1.5-16 4.1-23.3.1-.3.2-.7.4-1 0-.2.1-.4.1-.7 0-1.9-1.5-3.4-3.4-3.4h-69.4c-2.6 0-4.6 2-4.6 4.5 2.3 65.2 53.9 117.9 118.8 122.2 2.8.2 5.7.1 8.6.1 9.2 0 18.8-1.6 27.5-3.5 28-6.2 48.8-31 48.8-60.9m30.9-59c-.5-1.9-2.3-3.4-4.4-3.4h-21.9c-1.9 0-3.4 1.5-3.4 3.4 0 .4.1.8.2 1.1 2.8 7.4 4.3 15.4 4.3 23.8 0 5.9-.7 11.6-2.2 17 1.4 5.4 2.2 11.1 2.2 17 0 19.4-7.6 36.6-23.1 51.2 8.6-4.5 12.9-8.4 18.1-12.2 20.5-17.7 33.5-43.8 33.5-72.9 0-8.7-1.2-17-3.3-25" style="fill:#ffce34"/><path d="m17.2 142.9l4-4.4v-1.7h-4.1l-2.4 1.7-2.4-1.7h-4.2v1.7l3.8 4.4h5.3m-1.6 26.7c-4.6 0-7-3-7-9.9 0-6.5 2.7-9.6 7.4-9.6 2.8 0 4.6 1 5.7 2h3.3v-5.8c-2.3-1.3-4.9-2.2-9.2-2.2-9.4 0-15.7 5.8-15.7 15.8 0 9.9 5.8 15.5 15 15.5 4.5 0 7.8-1.3 10.1-3v-5.5h-3c-1.4 1.4-3.3 2.7-6.6 2.7m22.7-17.9c-6.9 0-11.7 4.6-11.7 12 0 7.2 4.1 11.7 12.1 11.7 4.8 0 7.5-1.1 9.5-2.3v-4.7h-2.4c-1.4 1-3.3 1.7-5.8 1.7-3.2 0-5-1-5.4-4.9h14.4c0-.3.1-1.1.1-2 0-7.7-3.7-11.5-10.8-11.5m-3.8 9.4c.4-3.8 2-4.7 3.8-4.7 2.1 0 3.3 1.1 3.4 4.7h-7.2m27.2-.8c-2.9-.3-3.9-.8-3.9-1.8 0-1.1.8-1.7 3-1.7 2.3 0 4 .7 5.1 1.4h2.5v-5.1c-2-.9-4.1-1.5-7.8-1.5-5.8 0-9.7 2.5-9.7 7.5 0 4.8 2.8 6.5 7.6 7.1 3.2.4 4 .8 4 2 0 1.2-1.3 1.7-3.4 1.7-2.5 0-4.4-.9-5.3-1.7h-2.7v5.1c1.9 1 4.3 1.8 8.3 1.8 7 0 10.3-2.9 10.3-7.8-.1-4.7-2.7-6.3-8-7m31.6-6.4v-1.9h-6.5l-7.2 8.6v-12.2c0-3.5-.5-4.1-2.9-4.1h-5v30.7h7.9v-6.9l1.9-2.1 5.3 8.9h7.4v-1.9l-7.2-12 6.3-7.1m19.2-7.7v-1.9h-7.5l-1.4 4.8v1.4h4.6l4.3-4.3m-6.7 5.5c-4.1 0-7.2.9-9.3 1.8v5.3h2.4c1.3-.9 3.2-1.5 5.5-1.5 2.8 0 3.9.9 3.9 2.9v1.6c-1.3-.3-2.7-.4-4.4-.4-5.3 0-9 2.3-9 7.2 0 4.5 3.2 6.9 7.3 6.9 2.8 0 5-.7 6.6-2.5.4 1.5 1.3 2.2 3.1 2.2h4.3v-15.4c-.2-5.9-3.5-8.1-10.4-8.1m2.4 17.8c-.8.7-1.9 1.3-3.1 1.3-1.7 0-2.9-.8-2.9-2.8 0-1.9 1.3-2.8 3.4-2.8.9 0 1.8.1 2.6.2v4.1m36.1-17.8c-3.1 0-5.4 1.2-7.1 2.8-.3-2.1-1-2.5-2.2-2.5h-5.5v30.1h7.9v-8.9c1.4 1 3.1 1.6 5.6 1.6 5.1 0 9.9-3.1 9.9-11.9.1-8.4-4.3-11.2-8.6-11.2m-3.7 18c-1.3 0-2.3-.3-3.2-.9v-10.6c1-.4 2.4-.7 3.3-.7 2.4 0 4.3 1.1 4.3 6.1 0 5-2 6.1-4.4 6.1m26.4-18c-6.9 0-12.3 4.6-12.3 12 0 7.3 5.3 11.7 12.3 11.7 6.9 0 12.2-4.4 12.2-11.7 0-7.5-5.3-12-12.2-12m0 18.5c-2.6 0-4.3-2-4.3-6.5 0-4.6 1.7-6.7 4.3-6.7 2.5 0 4.3 2.1 4.3 6.7-.1 4.5-1.8 6.5-4.3 6.5m25.7-19.7l4-4.5v-1.7h-4.1l-2.4 1.8-2.4-1.8h-4.2v1.7l3.8 4.5h5.3m-1.3 9.8c-2.9-.3-3.9-.8-3.9-1.8 0-1.1.8-1.7 3-1.7 2.3 0 4 .7 5.1 1.4h2.5v-5.1c-2-.9-4.1-1.5-7.8-1.5-5.8 0-9.7 2.5-9.7 7.5 0 4.8 2.8 6.5 7.6 7.1 3.2.4 4 .8 4 2 0 1.2-1.3 1.7-3.4 1.7-2.5 0-4.4-.9-5.3-1.7h-2.7v5.1c1.9 1 4.3 1.8 8.3 1.8 7 0 10.3-2.9 10.3-7.8 0-4.7-2.6-6.3-8-7m19.4 7.2v-10.5h4.3v-5h-4.3v-5.8h-7.9v5.8h-2.5v5.1h2.5v11.7c0 5 3 6.7 7.7 6.7 2 0 3.4-.3 4.5-.6v-4.5h-1.5c-2.1-.1-2.8-.8-2.8-2.9m17-15.8c-4.1 0-7.2.9-9.3 1.8v5.3h2.4c1.3-.9 3.2-1.5 5.5-1.5 2.8 0 3.9.9 3.9 2.9v1.6c-1.3-.3-2.7-.4-4.4-.4-5.3 0-9 2.3-9 7.2 0 4.5 3.2 6.9 7.3 6.9 2.8 0 5-.7 6.6-2.5.4 1.5 1.3 2.2 3.1 2.2h4.3v-15.4c-.2-5.9-3.6-8.1-10.4-8.1m2.3 17.8c-.8.7-1.9 1.3-3 1.3-1.7 0-2.9-.8-2.9-2.8 0-1.9 1.3-2.8 3.4-2.8.9 0 1.8.1 2.6.2v4.1z" style="fill:#14377d"/></svg>