<?xml version="1.0" encoding="utf-8"?><!DOCTYPE svg PUBLIC "-//W3C//DTD SVG 1.1//EN" "http://www.w3.org/Graphics/SVG/1.1/DTD/svg11.dtd"><svg version="1.1" xmlns="http://www.w3.org/2000/svg" viewBox="0 0 109.3 100.5" style="enable-background:new 0 0 109.3 100.5"><path d="M27.4 8.6 41.8 0 99.7 14.4 85.2 72.4 70.8 81 13 66.6z" style="fill:#fee80d"/><path d="m30.2 13.8l2.5.6 4.9-2.9-.6-2.5-3.2-.8 2.6-1.6-.7-3-8.3 5-2.6 10.5 4.7-2.9.7-2.4m13-11.2l4.3 1.1-.6-2.4-5.1-1.3-2.8 1.7.7 3 3.5-2.1m-1.7 9.8l-4.9 2.9 8.5 2.1 4.9-2.9-.6-2.4-8.4-2.1.5 2.4m18.2-5.7l-.6-2.4-8.5-2.1.6 2.4 8.5 2.1m13.7 3.5l-.6-2.4-9.8-2.4.6 2.4 9.8 2.4m13 3.2l-.6-2.4-9.1-2.3.6 2.4 9.1 2.3m-32.6 2.1l-4.9 2.9 8.5 2.1 4.9-2.9-.6-2.4-8.5-2.1.6 2.4m12.4 3.1l-4.9 2.9 9.8 2.4 4.9-2.9-.6-2.4-9.7-2.4.5 2.4m13 .9l.6 2.4-4.9 2.9 5.4 1.3-1.3 5.4 4.9-2.9 2.1 2.6 1.3-5.3 2.9-1.8-1.9-2.4-.8-3.3-3.8 2.3-4.5-1.2m3.7 23.9l2.1-8.2-2.1-2.6-4.9 2.9-2.1 8.2 4.9-2.9 2.1 2.6m-1 4l-2.1-2.6-4.9 2.9-2.1 8.4 4.9-2.9 2.1 2.6 2.1-8.4m-5.2 20.8l2.1-8.4-2.1-2.6-4.9 2.9-2.1 8.4 4.9-2.9 2.1 2.6m-8.9 8.1l-3.7-.9-4.7 2.9 11.4 2.7 8-4.8-1.8-2.3-2 1.2.7-2.8-2.1-2.6-4.9 2.9-.9 3.7m-7.7-2l-8.4-2.1-4.7 2.9 8.4 2.1 4.7-2.9m-20.7-5.1l-4.8 2.8 8.4 2.1 4.7-2.9-8.3-2m-17.1-.3l8.2 2.1 4.7-2.9-8.2-2.1-4.7 2.9m.7-3.8l-5.3-1.3 1.3-5.3-4.7 2.9-1.3 5.2 5.3 1.3 4.7-2.8m-.6-20.2l-4.7 2.9-2.4 9.8 4.7-2.9 2.4-9.8m3.1-12.4l-4.7 2.9-2.1 8.5 4.7-2.8 2.1-8.6m3.1-12.3l-4.7 2.9-2.1 8.5 4.7-2.9 2.1-8.5m64.4-5.1l-2.7 1.6.8 3.3 1.9 2.4 2.8-1.7-1 4 1.7 2.2 3.1-12.5-10.5-2.6.6 2.4 3.3.9m.8 13.5l-2.4 9.5 1.7 2.2 2.4-9.5-1.7-2.2m-3.3 13.5l-2.1 8.2 1.7 2.2 2.1-8.2-1.7-2.2m-1.4 14.5l-1.7-2.2-2.1 8.4 1.7 2.2 2.1-8.4m-3.9 15.8l.8-3.4-1.7-2.2-.8 3.2-3.7 2.2 1.8 2.3 3.6-2.1m-79.4 21.6h1.9c-.2 1-1.1 1.6-2.5 1.6-1.8 0-2.5-1.6-2.5-3.2 0-1.6.7-3.2 2.5-3.2 1.1 0 2 .6 2.1 1.5h2.8c-.3-2.7-2.6-3.9-4.8-3.9-3.2 0-5.3 2.5-5.3 5.6 0 3.1 2.1 5.6 5.3 5.6 1 0 2.2-.4 3-1.4l.2 1.2h1.8v-5.9h-4.5v2.1m5.5 3.7h2.5v-10.6h-2.5v10.6m7.3-7.9c-2.4 0-4.1 1.8-4.1 4.1 0 2.3 1.7 4.1 4.1 4.1 2.4 0 4.1-1.8 4.1-4.1 0-2.4-1.7-4.1-4.1-4.1m0 6.2c-1.2 0-1.5-1.2-1.5-2.2 0-1 .4-2.2 1.5-2.2 1.2 0 1.6 1.2 1.6 2.2-.1 1.1-.4 2.2-1.6 2.2m9.5-6.2c-1 0-1.7.4-2.2 1.1v-3.8h-2.5v10.7h2.4v-.9c.5.7 1.2 1.1 2.1 1.1 2.4 0 3.5-2.1 3.5-4.3-.1-2-1.1-3.9-3.3-3.9m-.8 6.2c-1.2 0-1.5-.9-1.5-2.2 0-1.6.9-2.1 1.6-2.1 1.1 0 1.5 1.1 1.5 2.1-.1 1-.5 2.2-1.6 2.2m11.9-3.6c0-2.2-1.8-2.6-3.6-2.6-.9 0-1.8.1-2.5.5-.7.4-1.2 1.1-1.2 2.1h2.4c.1-.7.6-1 1.3-1 .5 0 1.2.2 1.2.8 0 .5-.2.6-.7.7-1.8.4-4.5.2-4.5 2.7 0 1.6 1.2 2.3 2.6 2.3.9 0 1.9-.3 2.6-1 0 .3.1.5.1.7h2.6c-.3-.6-.3-1.3-.3-2v-3.2m-4 4c-.6 0-1.1-.3-1.1-.9 0-.6.5-.9 1-1 .6-.1 1.2-.2 1.6-.4.2 1.6-.3 2.3-1.5 2.3m5.1 1.3h2.5v-10.6h-2.5v10.6m10.4-10.6h-2.8v10.7h7.8v-2.4h-5v-8.3m9.2 2.7c-2.4 0-4.1 1.8-4.1 4.1 0 2.3 1.7 4.1 4.1 4.1 2.4 0 4.1-1.8 4.1-4.1 0-2.4-1.7-4.1-4.1-4.1m0 6.2c-1.2 0-1.5-1.2-1.5-2.2 0-1 .4-2.2 1.5-2.2s1.6 1.2 1.6 2.2c0 1.1-.4 2.2-1.6 2.2m10.2-5c-.5-.8-1.2-1.2-2.1-1.2-2.2 0-3.4 1.7-3.4 3.8 0 2.2 1.1 3.9 3.4 3.9.8 0 1.6-.4 2.1-1.1v.6c0 1-.1 1.8-1.3 1.8-.4 0-.7 0-.9-.2-.2-.1-.4-.3-.4-.7h-2.5c.3 2.1 2 2.5 3.8 2.5 3.6 0 3.9-2.4 3.9-3.7v-6.7h-2.4v1zm-1.5 4.5c-1 0-1.5-.9-1.5-1.8 0-1 .4-1.9 1.5-1.9 1.1 0 1.5 1 1.5 2 0 .8-.5 1.7-1.5 1.7m4.9-6.5h2.5v-1.9h-2.5v1.9m0 8.7h2.5v-7.7h-2.5v7.7m8.7-4.6c-1.2-.3-2.9-.4-2.9-1.1 0-.5.7-.6 1.1-.6.3 0 .6.1.8.2.2.1.3.3.3.7h2.3c-.1-2-1.9-2.5-3.6-2.5-1.5 0-3.5.5-3.5 2.4 0 2.1 2 2.1 3.6 2.5.5.1 1.2.2 1.2.8 0 .6-.7.8-1.2.8-.4 0-.7-.1-.9-.3-.3-.2-.4-.5-.4-.9h-2.4c.1 2.2 2 2.8 3.8 2.8 1.8 0 3.7-.7 3.7-2.8 0-.5-.4-1.7-1.9-2m5.8-5.5h-2.5v2.4h-1.3v1.6h1.3v3.5c0 2.1.6 2.7 2.7 2.7.5 0 .9-.1 1.4-.1v-1.9c-.2 0-.4 0-.7 0-.6 0-.9-.1-.9-.7v-3.5h1.6v-1.6h-1.6v-2.4m2.3 1.4h2.5v-1.9h-2.5v1.9m0 8.7h2.5v-7.7h-2.5v7.7m7.3-1.7c-1.1 0-1.5-1-1.5-2 0-1.1.2-2.3 1.6-2.3.6 0 1.2.5 1.2 1.1h2.5c-.2-2.1-1.9-3.1-3.8-3.1-2.5 0-4.1 1.8-4.1 4.2 0 2.4 1.7 4 4.1 4 2.1 0 3.7-1.2 3.9-3.3h-2.5c-.1.9-.6 1.4-1.4 1.4m9.7-2.9c-1.2-.3-2.9-.4-2.9-1.1 0-.5.7-.6 1.1-.6.3 0 .6.1.8.2.2.1.3.3.3.7h2.3c-.1-2-1.9-2.5-3.6-2.5-1.5 0-3.5.5-3.5 2.4 0 2.1 2 2.1 3.6 2.5.5.1 1.2.2 1.2.8 0 .6-.7.8-1.2.8-.4 0-.7-.1-.9-.3-.3-.2-.4-.5-.4-.9h-2.4c.1 2.2 2 2.8 3.8 2.8 1.8 0 3.7-.7 3.7-2.8.1-.5-.3-1.7-1.9-2" style="fill:#e3241d"/><path d="m34.2 50.8l1.4 3.7 2.2-1.2c.2 1.4-.7 2.7-1.8 3.4-3 1.7-4.7-.7-5.3-2.4-.5-1.2-2-4.9 1.3-6.9 1.2-.7 2.5-.3 3.1.8l4.7-2.7c-2.3-3.6-5.7-4.5-9.8-2.2-3.6 2.1-6.8 7.2-4.3 13.7 1.9 4.9 6.3 7.2 11 4.4 1.7-1 3.2-2.6 3.7-4.8l.8 1.7 3.1-1.8-3.6-9.5-6.5 3.8m16.4-1.3c-1.4.8-2.5.2-3.2-1.1l8.5-4.9c-1.9-4.9-4.9-6.5-9.5-3.8-3.7 2.1-5 6.5-3.6 10.1 1.6 4.2 5.3 4.9 9 2.8 2.6-1.5 4.6-4.2 4.4-7.4l-4.1 2.4c-.1.7-.8 1.5-1.5 1.9m-2.6-7c1.1-.7 2.3-.2 2.7 1l-4.2 2.4c-.3-1.5.2-2.7 1.5-3.4m9.7-10.7l-1.3-3.3-4.4 2.5 1.3 3.3 4.4-2.5m-3.9 3.9l4.8 12.5 4.4-2.5-4.8-12.5-4.4 2.5m19.9-1.2c-.8-2-2.4-2.2-4.1-1.9-1.7.3-3.4 1.2-4.2 1.3-.3 0-.6 0-.8-.4-.3-.8.3-1.4 1-1.7.4-.2.8-.3 1.1-.2.4 0 .7.2.9.6l4-2.3c-1.3-3.1-4.6-2.1-7.1-.7-2.3 1.3-5.2 4-3.9 7.1.8 2.1 2.6 2.5 6.2 1.2 2.2-.8 2.7-.8 2.9-.1.3.7-.5 1.5-1.1 1.8-.5.3-1 .4-1.3.3-.5-.1-.8-.4-1-.8l-4.3 2.6c1.3 3.2 4.7 2.6 7.5 1.1 2.8-1.7 5.5-4.4 4.2-7.9" style="fill:#0c468c"/></svg>