<?xml version="1.0" encoding="UTF-8"?>
<!DOCTYPE svg PUBLIC "-//W3C//DTD SVG 1.1//EN" "http://www.w3.org/Graphics/SVG/1.1/DTD/svg11.dtd">
<svg version="1.1" xmlns="http://www.w3.org/2000/svg" xmlns:xlink="http://www.w3.org/1999/xlink" x="0" y="0" width="600" height="337.5" viewBox="0, 0, 600, 337.5">
  <g id="Background">
    <rect x="0" y="0" width="600" height="337.5" fill="#FFFFFF"/>
  </g>
  <g id="Layer_1">
    <path d="M0,0 L600,0 L600,337.5 L0,337.5 z" fill="#5FA316"/>
    <path d="M0,0 L600,0 L600,337.5 L0,337.5 L0,0 z" fill="#000000" opacity="0.691"/>
    <path d="M388.914,233.991 L388.914,78.007 L176.314,78.007 L176.314,233.991 L269.327,233.991 L269.327,246.99 L229.464,246.99 L229.464,259.988 L335.764,259.988 L335.764,246.99 L295.901,246.99 L295.901,233.991 L388.914,233.991 z M202.889,104.005 L362.339,104.005 L362.339,207.994 L202.889,207.994 L202.889,104.005 z M400.725,84.658 L400.725,132.302 C400.725,136.232 404.012,139.448 408.03,139.448 L471.343,139.448 C475.361,139.448 478.648,136.232 478.648,132.302 L478.648,84.658 C478.648,80.727 475.361,77.511 471.343,77.511 L408.03,77.511 C404.012,77.511 400.725,80.727 400.725,84.658 z M476.214,108.48 C476.214,109.795 475.122,110.862 473.778,110.862 C472.434,110.862 471.343,109.795 471.343,108.48 C471.343,107.165 472.434,106.098 473.778,106.098 C475.122,106.098 476.213,107.165 476.213,108.48 z M468.909,87.04 L468.909,129.919 L410.465,129.919 L410.465,87.04 L468.909,87.04 z M472.555,149.186 L444.117,149.186 C440.765,149.186 438.023,151.868 438.023,155.147 L438.023,206.812 C438.023,210.092 440.765,212.774 444.117,212.774 L472.555,212.774 C475.907,212.774 478.649,210.092 478.649,206.813 L478.649,155.147 C478.649,151.869 475.907,149.186 472.555,149.186 z M450.21,152.166 L466.461,152.166 L466.461,154.154 L450.211,154.154 L450.211,152.166 z M458.336,208.8 C456.092,208.8 454.274,207.021 454.274,204.825 C454.274,202.63 456.092,200.851 458.336,200.851 C460.581,200.851 462.399,202.63 462.399,204.825 C462.399,207.022 460.581,208.8 458.336,208.8 z M474.587,196.877 L442.086,196.877 L442.086,157.134 L474.587,157.134 L474.587,196.877 z M429.114,201.245 L403.564,201.245 C402.002,201.245 400.725,202.495 400.725,204.022 L400.725,242.902 C400.725,244.43 402.002,245.68 403.564,245.68 L429.114,245.68 C430.675,245.68 431.953,244.43 431.953,242.902 L431.953,204.023 C431.953,202.495 430.675,201.245 429.114,201.245 z M416.339,243.675 C415.12,243.675 414.13,242.708 414.13,241.515 C414.13,240.322 415.12,239.354 416.339,239.354 C417.558,239.354 418.548,240.321 418.548,241.515 C418.548,242.707 417.558,243.675 416.339,243.675 z M429.114,237.349 L403.564,237.349 L403.564,206.799 L429.114,206.799 L429.114,237.349 z M429.114,149.186 L403.564,149.186 C402.002,149.186 400.725,150.435 400.725,151.963 L400.725,190.844 C400.725,192.371 402.002,193.621 403.564,193.621 L429.114,193.621 C430.675,193.621 431.953,192.371 431.953,190.844 L431.953,151.963 C431.953,150.435 430.675,149.186 429.114,149.186 z M416.339,191.616 C415.12,191.616 414.13,190.648 414.13,189.456 C414.13,188.262 415.12,187.294 416.339,187.294 C417.558,187.294 418.548,188.262 418.548,189.455 C418.548,190.648 417.558,191.615 416.339,191.615 z M429.114,185.289 L403.564,185.289 L403.564,154.74 L429.114,154.74 L429.114,185.289 z" fill="#CFCE7A"/>
  </g>
</svg>
