<?xml version="1.0" encoding="UTF-8"?>
<!DOCTYPE svg PUBLIC "-//W3C//DTD SVG 1.1//EN" "http://www.w3.org/Graphics/SVG/1.1/DTD/svg11.dtd">
<svg version="1.1" xmlns="http://www.w3.org/2000/svg" xmlns:xlink="http://www.w3.org/1999/xlink" x="0" y="0" width="600" height="337.5" viewBox="0, 0, 600, 337.5">
  <g id="Background">
    <rect x="0" y="0" width="600" height="337.5" fill="#FFFFFF"/>
  </g>
  <g id="Layer_1">
    <path d="M0,0 L600,0 L600,337.5 L0,337.5 z" fill="#F7DF1E"/>
    <path d="M0,0 L600,0 L600,337.5 L0,337.5 L0,0 z" fill="#2F2B00" opacity="0.882"/>
    <path d="M197.25,66 L402.75,66 L402.75,271.5 L197.25,271.5 z" fill="#F7DF1E"/>
    <path d="M251.284,237.731 L267.01,228.214 C270.044,233.593 272.804,238.144 279.424,238.144 C285.77,238.144 289.77,235.661 289.77,226.006 L289.77,160.344 L309.083,160.344 L309.083,226.28 C309.083,246.281 297.357,255.386 280.252,255.386 C264.803,255.386 255.836,247.385 251.283,237.729 M319.571,235.661 L335.296,226.557 C339.436,233.317 344.815,238.283 354.333,238.283 C362.335,238.283 367.437,234.282 367.437,228.764 C367.437,222.143 362.196,219.798 353.367,215.936 L348.54,213.866 C334.607,207.935 325.364,200.486 325.364,184.761 C325.364,170.277 336.4,159.24 353.643,159.24 C365.921,159.24 374.749,163.518 381.093,174.691 L366.057,184.347 C362.746,178.416 359.161,176.07 353.643,176.07 C347.987,176.07 344.4,179.657 344.4,184.347 C344.4,190.14 347.987,192.486 356.263,196.073 L361.091,198.142 C377.506,205.177 386.748,212.35 386.748,228.489 C386.748,245.87 373.092,255.387 354.746,255.387 C336.813,255.387 325.226,246.836 319.571,235.662" fill="#2F2B00"/>
  </g>
</svg>
