<?xml version="1.0" encoding="UTF-8"?>
<!DOCTYPE svg PUBLIC "-//W3C//DTD SVG 1.1//EN" "http://www.w3.org/Graphics/SVG/1.1/DTD/svg11.dtd">
<svg version="1.1" xmlns="http://www.w3.org/2000/svg" xmlns:xlink="http://www.w3.org/1999/xlink" x="0" y="0" width="600" height="337.5" viewBox="0, 0, 600, 337.5">
  <g id="Background">
    <rect x="0" y="0" width="600" height="337.5" fill="#FFFFFF"/>
  </g>
  <g id="Layer_1">
    <path d="M0,0 L600,0 L600,337.5 L0,337.5 z" fill="#48440E"/>
    <path d="M0,0 L600,0 L600,337.5 L0,337.5 L0,0 z" fill="#000000" opacity="0.475"/>
    <g>
      <path d="M225.509,43.031 L237.123,43.031 L237.123,54.256 L247.746,54.256 L247.746,43.031 L259.362,43.031 L259.362,77.024 L247.747,77.024 L247.747,65.641 L237.122,65.641 L237.122,77.023 L225.508,77.023 L225.508,43.031 z M274.635,54.303 L264.409,54.303 L264.409,43.03 L296.477,43.03 L296.477,54.304 L286.249,54.304 L286.249,77.024 L274.634,77.024 L274.634,54.303 z M301.569,43.031 L313.68,43.031 L321.128,54.975 L328.57,43.031 L340.685,43.031 L340.685,77.024 L329.119,77.024 L329.119,60.175 L321.128,72.261 L320.929,72.261 L312.932,60.175 L312.932,77.023 L301.569,77.023 L301.569,43.031 z M346.466,43.031 L358.085,43.031 L358.085,65.788 L374.419,65.788 L374.419,77.023 L346.466,77.023 L346.466,43.031 z M269.826,174.445 L300,174.445 L300,151.551 L267.737,151.551 L269.825,174.445 z M208.769,91.929 L225.383,274.218 L299.955,294.469 L374.597,274.227 L391.232,91.929 L208.769,91.929 z M360.357,262.62 L300,278.99 L300,255.789 L299.962,255.801 L253.148,243.086 L249.874,207.188 L272.816,207.188 L274.515,225.812 L299.968,232.537 L300,232.526 L300,196.802 L248.925,196.802 L242.761,129.193 L300,129.193 L300,106.835 L374.573,106.835 L360.356,262.62 z" fill="#8CBA4D"/>
      <path d="M328.131,196.802 L300,196.802 L300,232.527 L325.479,225.799 L328.131,196.802 z M300,106.835 L300,129.193 L357.239,129.193 L355.191,151.55 L300,151.55 L300,174.445 L353.111,174.445 L346.841,243.086 L300,255.789 L300,278.989 L360.357,262.62 L374.573,106.834 L300,106.834 z" fill="#8CBA4D" opacity="0.58"/>
      <g opacity="0.2">
        <path d="M299.999,129.192 L242.76,129.192 L248.925,196.802 L299.999,196.802 L299.999,174.444 L269.826,174.444 L267.737,151.551 L299.999,151.551 z M300,232.526 L299.967,232.536 L274.515,225.812 L272.816,207.188 L249.873,207.188 L253.146,243.086 L299.963,255.799 L300,255.789 z" fill="#8CBA4D"/>
      </g>
    </g>
  </g>
</svg>
