<?xml version="1.0" encoding="UTF-8"?>
<!DOCTYPE svg PUBLIC "-//W3C//DTD SVG 1.1//EN" "http://www.w3.org/Graphics/SVG/1.1/DTD/svg11.dtd">
<svg version="1.1" xmlns="http://www.w3.org/2000/svg" xmlns:xlink="http://www.w3.org/1999/xlink" x="0" y="0" width="600" height="337.5" viewBox="0, 0, 600, 337.5">
  <g id="Background">
    <rect x="0" y="0" width="600" height="337.5" fill="#FFFFFF"/>
  </g>
  <g id="Layer_1">
    <path d="M0,0 L600,0 L600,337.5 L0,337.5 z" fill="#1A1807"/>
    <path d="M274.095,172.023 L243.376,202.743 C228.787,195.785 210.803,198.306 198.723,210.385 C180.215,228.893 189.407,251.012 189.407,251.012 C190.331,253.227 192.473,253.654 194.168,251.955 L214.145,231.977 C215.844,230.282 218.616,230.282 220.314,231.977 L232.653,244.316 C234.348,246.014 234.348,248.785 232.653,250.48 L212.674,270.459 C210.979,272.156 211.403,274.302 213.616,275.217 C213.616,275.217 235.736,284.41 254.243,265.905 C266.324,253.823 268.846,235.839 261.885,221.249 L292.085,191.048 L275.155,173.207 C274.782,172.826 274.428,172.434 274.095,172.023 z M327.41,155.724 L356.624,126.511 C371.209,133.472 389.192,130.955 401.271,118.874 C419.776,100.364 410.584,78.245 410.584,78.245 C409.665,76.03 407.522,75.603 405.825,77.302 L385.85,97.281 C384.153,98.978 381.375,98.978 379.68,97.281 L367.341,84.942 C365.646,83.247 365.646,80.471 367.341,78.773 L387.324,58.793 C389.019,57.098 388.595,54.956 386.377,54.033 C386.377,54.033 364.262,44.842 345.755,63.347 C333.674,75.428 331.159,93.413 338.12,108.004 L308.388,137.735 C308.792,138.07 309.185,138.421 309.564,138.793 L327.41,155.724 z" fill="#95926A"/>
    <path d="M301.115,53.998 C301.115,53.998 270.013,45.194 241.069,74.139 C218.954,96.253 213.278,101.93 213.278,101.93 C211.751,103.457 211.439,105.646 212.584,106.793 C213.732,107.939 213.416,110.128 211.889,111.655 L206.333,117.213 C204.806,118.74 202.619,119.054 201.471,117.907 C200.323,116.76 198.136,117.075 196.608,118.602 L188.269,126.941 C186.741,128.468 186.741,130.969 188.269,132.499 L204.945,149.172 C206.472,150.7 208.975,150.7 210.5,149.172 L218.837,140.833 C220.365,139.306 220.678,137.117 219.532,135.971 C218.386,134.824 218.7,132.636 220.227,131.109 L225.785,125.551 C227.314,124.022 229.503,123.71 230.649,124.854 C231.794,126.001 233.982,125.689 235.512,124.16 L241.069,118.602 L280.751,158.285 C280.066,160.903 280.714,163.804 282.754,165.843 L385.573,274.222 C388.624,277.277 393.628,277.279 396.689,274.222 L410.584,260.328 C413.64,257.271 413.64,252.269 410.584,249.211 L302.201,146.396 C300.16,144.356 297.261,143.708 294.641,144.395 L254.961,104.711 L260.518,99.154 C262.046,97.625 262.047,95.122 260.518,93.596 C260.518,93.596 256.35,89.429 270.245,75.533 C285.88,59.899 301.291,56.036 301.291,56.036 C303.321,55.294 303.244,54.379 301.115,53.998 z" fill="#D4D3C3"/>
  </g>
</svg>
