<?xml version="1.0" encoding="UTF-8"?>
<!DOCTYPE svg PUBLIC "-//W3C//DTD SVG 1.1//EN" "http://www.w3.org/Graphics/SVG/1.1/DTD/svg11.dtd">
<svg version="1.1" xmlns="http://www.w3.org/2000/svg" xmlns:xlink="http://www.w3.org/1999/xlink" x="0" y="0" width="600" height="337.5" viewBox="0, 0, 600, 337.5">
  <g id="Background">
    <rect x="0" y="0" width="600" height="337.5" fill="#FFFFFF"/>
  </g>
  <g id="Layer_1">
    <path d="M0,0 L600,0 L600,337.5 L0,337.5 z" fill="#43376E"/>
    <path d="M372.547,63.473 C391.671,63.473 407.173,78.638 407.173,97.345 L407.173,240.155 C407.173,258.862 391.671,274.027 372.548,274.027 L227.452,274.027 C208.329,274.027 192.827,258.862 192.827,240.154 L192.827,97.345 C192.827,78.638 208.329,63.473 227.452,63.473 L372.547,63.473 z M299.814,103.624 L247.66,103.624 L247.66,234.053 L305.318,234.053 C323.244,234.053 336.599,230.965 345.381,224.792 C354.164,218.619 358.555,209.242 358.555,196.662 C358.555,188.45 356.51,181.52 352.42,175.87 C348.329,170.221 342.554,166.348 335.095,164.251 C340.93,162.097 345.381,158.807 348.449,154.38 C351.517,149.895 353.051,144.479 353.051,138.131 C353.051,126.075 348.84,117.311 340.419,111.836 C332.057,106.361 318.522,103.624 299.814,103.624 z M302.792,177.006 C309.831,177.006 315.094,178.433 318.583,181.287 C322.072,184.082 323.816,188.304 323.816,193.953 C323.816,199.719 322.041,204.03 318.492,206.883 C315.003,209.736 309.77,211.164 302.792,211.163 L282.399,211.163 L282.399,177.006 L302.792,177.006 z M301.619,126.512 C307.093,126.512 311.244,127.706 314.071,130.094 C316.899,132.423 318.312,135.831 318.312,140.315 C318.312,144.858 316.899,148.294 314.071,150.624 C311.244,152.954 307.093,154.119 301.619,154.119 L282.399,154.119 L282.399,126.513 L301.619,126.513 z" fill="#FFFFFF"/>
  </g>
</svg>
