<?xml version="1.0" encoding="UTF-8"?>
<!DOCTYPE svg PUBLIC "-//W3C//DTD SVG 1.1//EN" "http://www.w3.org/Graphics/SVG/1.1/DTD/svg11.dtd">
<svg version="1.1" xmlns="http://www.w3.org/2000/svg" xmlns:xlink="http://www.w3.org/1999/xlink" x="0" y="0" width="600" height="337.5" viewBox="0, 0, 600, 337.5">
  <g id="Background">
    <rect x="0" y="0" width="600" height="337.5" fill="#FFFFFF"/>
  </g>
  <g id="Layer_1">
    <path d="M0,0 L600,0 L600,337.5 L0,337.5 z" fill="#5FA316"/>
    <path d="M0,0 L600,0 L600,337.5 L0,337.5 L0,0 z" fill="#000000" opacity="0.691"/>
    <path d="M312.984,191.348 C314.471,193.2 314.352,195.913 312.632,197.625 C310.91,199.333 308.201,199.44 306.358,197.947 C304.437,198.887 302.279,199.415 299.998,199.415 C292.003,199.415 285.518,192.932 285.518,184.935 C285.518,182.642 286.053,180.473 287.001,178.547 L263.103,154.544 C261.27,152.703 261.279,149.725 263.122,147.894 C264.963,146.063 267.94,146.071 269.771,147.912 L293.667,171.912 C295.58,170.979 297.729,170.458 299.998,170.458 C307.996,170.458 314.478,176.941 314.478,184.936 C314.478,187.241 313.941,189.416 312.984,191.348 z M344.465,140.473 C333.089,129.096 317.365,122.057 300.002,122.057 C282.636,122.057 266.916,129.096 255.538,140.473 C244.16,151.849 237.122,167.572 237.122,184.937 C237.122,202.302 244.16,218.022 255.538,229.4 C266.916,240.778 282.636,247.819 300.002,247.819 C317.365,247.819 333.089,240.779 344.465,229.4 C355.842,218.023 362.883,202.302 362.883,184.937 C362.883,167.573 355.842,151.85 344.465,140.473 z M318.866,86.542 L307.862,86.542 L307.862,94.098 C322.875,95.379 336.849,100.297 348.898,107.969 L359.702,95.694 C361.42,93.744 364.412,93.558 366.358,95.27 L380.519,107.732 C382.466,109.446 382.656,112.444 380.944,114.389 L370.133,126.671 C383.273,142.471 391.177,162.779 391.177,184.935 C391.177,210.115 380.972,232.911 364.472,249.407 C347.976,265.905 325.178,276.111 300.001,276.111 C274.82,276.111 252.026,265.905 235.526,249.407 C219.028,232.911 208.822,210.115 208.822,184.936 C208.822,162.779 216.726,142.47 229.867,126.671 L219.051,114.382 C217.338,112.436 217.528,109.442 219.476,107.729 L233.635,95.265 C235.581,93.552 238.576,93.74 240.289,95.688 L251.098,107.968 C263.151,100.296 277.126,95.377 292.139,94.097 L292.139,86.54 L281.134,86.54 C278.541,86.54 276.418,84.424 276.418,81.826 L276.418,66.106 C276.418,63.511 278.541,61.39 281.134,61.39 L318.864,61.39 C321.46,61.39 323.581,63.514 323.581,66.106 L323.581,81.828 C323.582,84.419 321.463,86.543 318.866,86.543 z" fill="#F4F1C7"/>
  </g>
</svg>
