<?xml version="1.0" encoding="UTF-8"?>
<!DOCTYPE svg PUBLIC "-//W3C//DTD SVG 1.1//EN" "http://www.w3.org/Graphics/SVG/1.1/DTD/svg11.dtd">
<svg version="1.1" xmlns="http://www.w3.org/2000/svg" xmlns:xlink="http://www.w3.org/1999/xlink" x="0" y="0" width="600" height="337.5" viewBox="0, 0, 600, 337.5">
  <g id="Background">
    <rect x="0" y="0" width="600" height="337.5" fill="#FFFFFF"/>
  </g>
  <g id="Layer_1">
    <path d="M0,0 L600,0 L600,337.5 L0,337.5 z" fill="#681B04"/>
    <path d="M353.49,40.254 L337.837,40.254 L354.115,57.917 L354.115,66.324 L320.587,66.324 L320.587,56.481 L336.862,56.481 L320.587,38.818 L320.587,30.398 L353.49,30.398 L353.49,40.254 z M313.942,40.254 L298.289,40.254 L314.566,57.917 L314.566,66.324 L281.039,66.324 L281.039,56.481 L297.315,56.481 L281.039,38.818 L281.039,30.398 L313.941,30.398 L313.941,40.254 z M274.78,40.654 L257.891,40.654 L257.891,56.069 L274.78,56.069 L274.78,66.325 L245.887,66.325 L245.887,30.398 L274.78,30.398 L274.78,40.654 z M274.78,40.654 M222.871,275.223 L205.708,82.726 L394.292,82.726 L377.113,275.191 L299.884,296.602 L222.871,275.223 z M222.871,275.223" fill="#FFFFFF"/>
    <path d="M300.001,280.237 L362.405,262.936 L377.086,98.466 L300.001,98.466 L300.001,280.237 z M300.001,280.237" fill="#E6D9CD"/>
    <g>
      <path d="M300.001,168.206 L331.241,168.206 L333.399,144.03 L300.001,144.03 L300.001,120.421 L359.201,120.421 L358.635,126.755 L352.832,191.814 L300.001,191.814 L300.001,168.206 z M300.001,168.206 M300.142,229.52 L300.039,229.549 L273.745,222.449 L272.064,203.62 L248.365,203.62 L251.672,240.689 L300.033,254.114 L300.142,254.084 L300.142,229.52 z M300.142,229.52" fill="#681B04"/>
      <path d="M329.235,190.815 L326.392,222.433 L300.06,229.54 L300.06,254.102 L348.46,240.689 L348.815,236.7 L352.922,190.815 L329.235,190.815 z M329.235,190.815 M300.082,120.421 L300.082,144.03 L243.055,144.03 L242.582,138.724 L241.506,126.755 L240.942,120.421 L300.083,120.421 z M300.082,120.421 M300.001,168.209 L300.001,191.818 L274.04,191.818 L273.567,186.512 L272.49,174.543 L271.927,168.209 L300.001,168.209 z M300.001,168.209" fill="#681B04"/>
    </g>
  </g>
</svg>
