<?xml version="1.0" encoding="UTF-8"?>
<!DOCTYPE svg PUBLIC "-//W3C//DTD SVG 1.1//EN" "http://www.w3.org/Graphics/SVG/1.1/DTD/svg11.dtd">
<svg version="1.1" xmlns="http://www.w3.org/2000/svg" xmlns:xlink="http://www.w3.org/1999/xlink" x="0" y="0" width="600" height="337.5" viewBox="0, 0, 600, 337.5">
  <g id="Background">
    <rect x="0" y="0" width="600" height="337.5" fill="#FFFFFF"/>
  </g>
  <g id="Layer_1">
    <path d="M0,0 L600,0 L600,337.5 L0,337.5 z" fill="#262408"/>
    <g>
      <path d="M396.694,103.076 C396.694,115.009 387.02,124.683 375.087,124.683 C363.155,124.683 353.481,115.009 353.481,103.077 C353.481,91.144 363.154,81.471 375.087,81.471 C387.02,81.471 396.693,91.145 396.693,103.077 z" fill="#ACF063"/>
      <path d="M374.958,77.333 L374.958,77.33 L427.17,77.33 C417.679,58.165 397.924,44.986 375.087,44.986 C356.601,44.986 340.133,53.622 329.493,67.079 L349.413,101.144 C350.398,87.87 361.448,77.399 374.958,77.332 z M375.087,128.823 C363.946,128.823 354.458,121.746 350.872,111.842 L326.831,70.728 C320.621,79.974 316.996,91.102 316.996,103.077 C316.996,132.318 338.601,156.508 366.719,160.566 L386.761,126.031 C383.256,127.817 379.29,128.824 375.087,128.824 z M429.023,81.471 L389.092,81.471 C396.159,86.061 400.834,94.022 400.834,103.077 C400.834,107.529 399.703,111.718 397.714,115.371 L397.729,115.38 L371.231,161.037 C372.506,161.121 373.791,161.168 375.087,161.168 C407.17,161.168 433.178,135.16 433.178,103.077 C433.178,95.441 431.702,88.15 429.023,81.471 z" fill="#ACF063"/>
    </g>
    <g>
      <path d="M169.643,90.488 C169.643,90.488 169.465,90.704 169.2,91.064 C169.162,91.261 169.122,91.457 169.086,91.655 C169.254,91.189 169.438,90.794 169.642,90.488 z M187.224,62.096 C187.338,61.98 187.449,61.863 187.564,61.748 C192.863,56.449 199.031,52.29 205.9,49.385 C213.01,46.377 220.565,44.852 228.354,44.852 C235.706,44.852 242.849,46.212 249.606,48.895 C253.554,49.576 258.815,50.89 263.199,53.382 C253.362,46.396 241.338,42.288 228.354,42.288 C211.52,42.288 196.302,49.195 185.37,60.326 C185.878,60.944 186.491,61.54 187.223,62.097 z" fill="#C5FF7C"/>
      <path d="M208.613,107.409 C208.192,107.059 207.834,106.686 207.529,106.297 C207.426,107.157 207.357,108.083 207.358,109.055 C207.358,110.866 207.584,112.821 208.203,114.759 C208.822,116.698 209.829,118.621 211.416,120.406 C212.474,121.597 213.793,122.728 215.442,123.755 L215.35,123.903 C218.448,123.96 223.491,123.9 226.046,123.048 C229.891,121.766 236.044,116.895 236.044,116.895 C237.583,115.356 239.377,116.126 240.916,116.126 C242.454,116.126 242.967,113.818 240.916,111.511 C238.865,109.203 231.686,106.896 226.302,110.485 C220.918,114.075 213.227,111.254 208.612,107.409 z M212.329,73.573 C211.985,74.851 211.688,76.473 211.689,78.236 C211.689,80.016 211.987,81.931 212.824,83.814 C213.496,85.325 214.13,86.433 214.707,87.322 C215.112,87.948 215.49,88.464 215.843,88.945 C216.565,88.282 217.409,87.615 218.099,87.155 C219.637,86.13 225.534,83.309 226.303,82.54 C227.072,81.771 228.61,77.669 227.328,76.387 C226.047,75.105 217.842,75.873 215.279,75.361 C214.199,75.145 213.164,74.382 212.329,73.573 z M213.984,98.66 L213.996,98.692 C214.006,98.672 214.014,98.651 214.024,98.631 L213.984,98.66 z M289.885,87.155 C289.885,89.239 288.002,92.159 287.638,92.705 C287.714,92.511 287.833,91.9 287.833,89.975 C287.833,87.155 288.602,79.976 285.013,72.028 C281.424,64.08 276.04,60.234 276.04,60.234 L276.04,62.029 C275.271,59.466 268.092,54.594 268.092,54.594 L268.092,57.158 C280.911,68.952 282.193,77.156 282.193,77.156 C279.886,69.72 273.219,64.08 267.579,58.696 C261.939,53.312 250.146,50.492 250.146,50.492 C262.708,57.67 268.862,68.951 268.862,68.951 C262.452,62.799 257.324,63.311 257.324,63.311 C261.17,66.131 262.964,69.208 266.554,74.848 C270.144,80.488 269.888,93.82 269.888,93.82 C268.093,89.462 264.503,87.667 264.503,87.667 C264.503,87.667 265.272,95.359 265.785,99.717 C266.298,104.076 263.991,112.28 263.991,112.28 C263.991,109.203 262.196,108.434 262.196,108.434 C262.196,108.434 262.708,110.229 260.145,118.433 C257.581,126.637 252.71,129.457 251.941,129.201 C251.172,128.945 251.941,127.663 251.941,127.663 C251.941,127.663 250.659,126.637 248.865,129.457 C247.351,131.836 244.743,133.12 243.963,133.464 C244.8,132.99 245.019,131.252 245.019,131.252 C245.019,131.252 243.225,132.278 235.02,133.56 C226.816,134.841 222.97,131.252 222.97,131.252 C223.739,130.483 227.329,131.252 227.329,131.252 C227.329,130.483 223.226,129.201 219.125,128.688 C215.79,128.271 214.173,126.724 213.399,125.484 C211.861,124.45 210.571,123.312 209.501,122.109 C208.275,120.73 207.337,119.265 206.64,117.778 C205.241,114.801 204.795,111.75 204.795,109.054 C204.796,106.509 205.191,104.271 205.587,102.656 C205.983,101.042 206.38,100.051 206.398,100.007 L206.453,100.029 C206.934,98.547 207.879,97.356 208.998,96.87 C208.647,96.631 208.287,96.408 207.915,96.212 C206.241,95.316 204.343,94.944 202.477,95.254 C200.608,95.55 198.819,96.477 197.228,97.692 C195.702,98.857 194.487,100.515 193.69,102.345 C192.888,104.181 192.486,106.207 192.486,108.244 C192.484,110.283 192.885,112.33 193.624,114.259 C194.362,116.19 195.432,118.002 196.725,119.642 C198.019,121.284 199.534,122.758 201.176,124.074 C199.462,122.851 197.859,121.458 196.455,119.866 C195.052,118.278 193.852,116.487 192.976,114.528 C192.098,112.572 191.552,110.446 191.433,108.274 C191.313,106.105 191.617,103.892 192.388,101.821 C193.16,99.754 194.386,97.819 196.133,96.321 C196.977,95.614 197.896,94.972 198.893,94.441 C199.888,93.91 200.97,93.495 202.11,93.262 C203.248,93.028 204.44,92.983 205.602,93.146 C206.766,93.303 207.894,93.661 208.937,94.157 C209.983,94.653 210.948,95.282 211.832,95.998 C212.274,96.357 212.697,96.737 213.1,97.14 C213.301,97.342 213.498,97.548 213.69,97.763 C213.85,97.943 213.997,98.113 214.158,98.316 C215.072,95.948 214.431,91.99 214.281,91.158 C213.797,90.474 213.111,89.61 212.339,88.378 C211.756,87.448 211.125,86.307 210.48,84.855 C209.472,82.585 209.124,80.299 209.124,78.236 C209.125,75.825 209.593,73.707 210.06,72.178 C210.204,71.707 210.348,71.292 210.479,70.941 C211.927,64.639 218.867,58.44 218.867,58.44 C209.125,57.158 202.458,66.131 202.458,66.131 C202.431,66.114 202.404,66.1 202.377,66.083 C201.686,66.849 199.344,69.588 199.125,71.772 C199.125,71.772 199.206,67.848 200.188,65.104 C196.47,63.92 192.095,64.539 189.852,65.004 L189.866,65.086 C187.567,65.498 185.467,66.383 183.601,67.497 C181.736,68.61 180.11,69.951 178.773,71.249 C176.103,73.84 174.595,76.262 174.579,76.289 L174.579,76.29 L174.507,76.245 C169.789,83.084 166.822,97.666 166.822,97.666 C167.335,95.359 169.643,92.538 169.643,92.538 C167.079,96.385 167.592,114.075 167.592,114.075 C167.592,111.255 169.13,107.922 169.13,107.922 C169.643,113.818 172.207,132.79 188.871,147.148 C205.536,161.505 219.637,162.787 219.637,162.787 C216.304,161.761 215.535,160.223 215.535,160.223 C226.303,164.582 232.968,163.813 232.968,163.813 C231.174,162.787 230.918,162.018 230.918,162.018 C242.455,162.531 257.838,158.428 261.427,155.864 C265.016,153.301 268.093,148.173 268.093,148.173 C277.322,143.815 283.732,134.842 285.526,130.227 C287.321,125.611 285.526,120.74 285.526,120.74 C285.526,120.74 285.526,120.484 289.885,110.742 C294.243,100.999 289.885,87.154 289.885,87.154 z M182.239,65.325 C183.32,64.676 184.487,64.09 185.732,63.607 C180.796,59.496 181.179,54.082 181.179,54.082 C176.241,58.851 175.035,66.899 174.782,71.766 C174.852,71.684 174.921,71.602 174.994,71.518 C176.665,69.597 179.104,67.207 182.239,65.325 z" fill="#C5FF7C"/>
    </g>
    <g>
      <path d="M223.309,178.904 C191.764,178.904 166.188,204.481 166.188,236.026 C166.188,266.661 190.309,291.658 220.593,293.079 C221.502,293.125 222.4,293.147 223.309,293.147 C237.939,293.147 251.273,287.646 261.379,278.608 C254.684,283.053 246.851,285.599 238.485,285.599 C224.878,285.599 212.704,278.847 204.508,268.207 C198.187,260.75 194.106,249.735 193.822,237.367 L193.822,234.673 C194.106,222.306 198.187,211.279 204.507,203.833 C212.703,193.193 224.889,186.441 238.485,186.441 C246.851,186.441 254.683,188.998 261.378,193.443 C251.33,184.451 238.064,178.961 223.525,178.904 L223.309,178.904 z" fill="#92D649"/>
      <path d="M207.654,204.865 C212.812,198.779 219.48,195.098 226.752,195.098 C243.121,195.098 256.39,213.66 256.39,236.54 C256.39,259.431 243.121,277.982 226.752,277.982 C219.469,277.982 212.812,274.311 207.654,268.225 C215.721,278.697 227.703,285.343 241.096,285.343 C249.33,285.343 257.039,282.826 263.629,278.462 C275.142,268.169 282.381,253.21 282.381,236.551 C282.381,219.903 275.142,204.933 263.629,194.64 C257.04,190.264 249.331,187.758 241.096,187.758 C227.704,187.758 215.721,194.404 207.654,204.876" fill="#92D649"/>
    </g>
    <path d="M324.647,229.615 C328.004,203.192 346.017,179.222 378.324,178.904 C397.83,179.277 413.88,188.114 423.418,204.967 C428.216,213.763 429.713,222.999 430.031,233.184 L430.031,245.156 L358.337,245.156 C358.665,274.724 401.841,273.717 420.44,260.682 L420.44,284.75 C409.551,291.293 384.858,297.122 365.729,289.625 C349.435,283.505 337.83,266.468 337.91,250.068 C337.38,228.793 348.481,214.725 365.729,206.723 C362.073,211.262 359.29,216.261 357.833,224.898 L398.317,224.898 C398.317,224.898 400.684,200.706 375.407,200.706 C351.562,201.549 334.367,215.414 324.643,229.611 z" fill="#79BD30"/>
  </g>
</svg>
