<?xml version="1.0" encoding="utf-8"?>
<!-- Generator: Adobe Illustrator 16.0.3, SVG Export Plug-In . SVG Version: 6.00 Build 0)  -->
<!DOCTYPE svg PUBLIC "-//W3C//DTD SVG 1.1//EN" "http://www.w3.org/Graphics/SVG/1.1/DTD/svg11.dtd">
<svg version="1.1" id="Vrstva_1" xmlns="http://www.w3.org/2000/svg" xmlns:xlink="http://www.w3.org/1999/xlink" x="0px" y="0px"
	 width="500px" height="500px" viewBox="170.945 47.64 500 500" enable-background="new 170.945 47.64 500 500"
	 xml:space="preserve">
<g>
	<path fill="#B2B2B2" d="M420.251,72.64l-216.424,74.509l34.201,277.388l182.455,98.104l183.395-99.435l34.188-277.377
		L420.249,72.64H420.251z"/>
	<path fill="#B52E31" d="M616.478,161.864L419.75,96.234v402.969l164.869-89.264l31.863-248.076L616.478,161.864z"/>
	<path fill="#E23237" d="M228.115,163.047l29.303,248.08l162.328,88.076V96.224L228.115,163.047z"/>
	<path fill="#F2F2F2" d="M465.347,296.665l-45.243-92.427l-39.828,92.427H465.347z M482.597,335.528H362.671l-26.832,65.651
		l-49.906,0.901L419.75,110.866l138.478,291.21H511.97L482.597,335.528L482.597,335.528z"/>
	<path fill="#B2B2B2" d="M419.75,110.866l0.355,93.372l45.198,92.497h-45.454l-0.102,38.733l62.847,0.057l29.375,66.563
		l47.752,0.866L419.75,110.866z"/>
</g>
</svg>
