<?xml version="1.0" encoding="UTF-8"?>
<!DOCTYPE svg PUBLIC "-//W3C//DTD SVG 1.1//EN" "http://www.w3.org/Graphics/SVG/1.1/DTD/svg11.dtd">
<svg version="1.1" xmlns="http://www.w3.org/2000/svg" xmlns:xlink="http://www.w3.org/1999/xlink" x="0" y="0" width="500" height="500" viewBox="0, 0, 500, 500">
  <g id="Box_Semitransparent">
    <g id="Box_-_semitransparent" opacity="0.15">
      <path d="M254.055,298.111 L22,207.318 L22,106.786 L254.055,16 L486.109,106.786 L486.109,207.318 L254.055,298.111 z M52.085,187.897 L254.055,266.923 L456.024,187.905 L456.024,126.206 L254.055,47.188 L52.085,126.206 L52.085,187.897 z" fill="#FFFFFF"/>
      <path d="M254.055,484 L37.577,399.307 L37.577,207.737 L67.662,207.737 L67.662,379.887 L254.055,452.812 L440.448,379.887 L440.448,207.737 L470.533,207.737 L470.533,399.307 z" fill="#FFFFFF"/>
      <path d="M254.055,213.101 L32.786,126.517 L41.307,106.468 L254.055,189.702 L466.802,106.468 L475.324,126.517 z" fill="#FFFFFF"/>
      <path d="M242.773,201.405 L265.337,201.405 L265.337,282.517 L242.773,282.517 z" fill="#FFFFFF"/>
      <path d="M242.773,288.04 L265.337,288.04 L265.337,469.417 L242.773,469.417 z" fill="#FFFFFF"/>
    </g>
  </g>
  <g id="Javascript">
    <g id="Layer_1">
      <path d="M128,128 L372,128 L372,372 L128,372 z" fill="#F7DF1E"/>
      <path d="M192.157,331.905 L210.829,320.604 C214.431,326.991 217.708,332.395 225.569,332.395 C233.103,332.395 237.853,329.447 237.853,317.983 L237.853,240.019 L260.784,240.019 L260.784,318.308 C260.784,342.057 246.862,352.867 226.552,352.867 C208.209,352.867 197.561,343.367 192.156,331.902 M273.238,329.447 L291.908,318.637 C296.824,326.664 303.211,332.56 314.512,332.56 C324.013,332.56 330.071,327.809 330.071,321.258 C330.071,313.396 323.848,310.612 313.365,306.026 L307.634,303.569 C291.09,296.527 280.116,287.682 280.116,269.01 C280.116,251.813 293.219,238.709 313.693,238.709 C328.271,238.709 338.753,243.787 346.286,257.054 L328.433,268.519 C324.501,261.477 320.245,258.692 313.693,258.692 C306.978,258.692 302.719,262.951 302.719,268.519 C302.719,275.398 306.978,278.183 316.804,282.442 L322.536,284.898 C342.026,293.251 353,301.768 353,320.931 C353,341.568 336.786,352.869 315.002,352.869 C293.71,352.869 279.951,342.715 273.237,329.448" fill="#2F2B00"/>
    </g>
  </g>
</svg>
