<?xml version="1.0" encoding="utf-8"?>
<!-- Generator: Adobe Illustrator 16.0.3, SVG Export Plug-In . SVG Version: 6.00 Build 0)  -->
<!DOCTYPE svg PUBLIC "-//W3C//DTD SVG 1.1//EN" "http://www.w3.org/Graphics/SVG/1.1/DTD/svg11.dtd">
<svg version="1.1" id="Vrstva_1" xmlns="http://www.w3.org/2000/svg" xmlns:xlink="http://www.w3.org/1999/xlink" x="0px" y="0px"
	 width="500px" height="500px" viewBox="-21.5 -21.5 500 500" enable-background="new -21.5 -21.5 500 500" xml:space="preserve">
<g>
	<path fill="#F7DF1E" d="M4.485,4.485H453.5V453.5H4.485V4.485z"/>
	<path fill="#2F2B00" d="M122.548,379.716l34.36-20.795c6.629,11.753,12.66,21.696,27.125,21.696
		c13.865,0,22.606-5.424,22.606-26.521V210.624h42.198v144.071c0,43.702-25.619,63.596-62.995,63.596
		c-33.756,0-53.35-17.483-63.297-38.581 M271.756,375.193l34.357-19.894c9.046,14.771,20.799,25.622,41.596,25.622
		c17.485,0,28.633-8.743,28.633-20.799c0-14.467-11.452-19.592-30.743-28.029l-10.547-4.522
		c-30.443-12.96-50.639-29.234-50.639-63.596c0-31.646,24.112-55.762,61.789-55.762c26.826,0,46.116,9.346,59.979,33.76
		l-32.854,21.098c-7.235-12.958-15.068-18.084-27.125-18.084c-12.357,0-20.195,7.838-20.195,18.084
		c0,12.659,7.838,17.784,25.921,25.621l10.547,4.521c35.868,15.37,56.062,31.044,56.062,66.308
		c0,37.978-29.838,58.772-69.925,58.772c-39.183,0-64.501-18.685-76.858-43.099"/>
	<path fill="#2F2D00" d="M219.047,3.5c0.47,1.383,0.282,0.585,0.426,2.422v53.227c0,1.917-0.64,3.756-1.918,5.515
		c-1.278,1.758-2.876,2.797-4.794,3.117l-44.356,6.714c-3.037,8.63-6.154,15.903-9.351,21.817
		c5.594,7.993,14.146,19.021,25.654,33.088c1.598,1.918,2.397,3.916,2.397,5.994s-0.719,3.916-2.157,5.514
		c-4.315,5.914-12.228,14.546-23.737,25.894c-11.509,11.349-19.021,17.023-22.537,17.023c-1.918,0-3.997-0.718-6.233-2.157
		l-33.087-25.894c-7.033,3.676-14.306,6.713-21.818,9.11c-2.558,21.738-4.875,36.604-6.954,44.595
		c-1.118,4.475-3.996,6.713-8.63,6.713H8.725c-1.864,0.013-3.687-0.544-5.226-1.596V84.659c9.398,6.248,20.738,8.528,31.838,8.775
		c16.943,0,31.409-5.994,43.397-17.981c11.988-11.988,17.982-26.454,17.982-43.397c0.029-9.953-2.199-19.79-6.943-28.556H219.047z"
		/>
</g>
</svg>
