<?xml version="1.0" encoding="utf-8"?>
<!-- Generator: Adobe Illustrator 16.0.3, SVG Export Plug-In . SVG Version: 6.00 Build 0)  -->
<!DOCTYPE svg PUBLIC "-//W3C//DTD SVG 1.1//EN" "http://www.w3.org/Graphics/SVG/1.1/DTD/svg11.dtd">
<svg version="1.1" id="Vrstva_1" xmlns="http://www.w3.org/2000/svg" xmlns:xlink="http://www.w3.org/1999/xlink" x="0px" y="0px"
	 width="500px" height="500px" viewBox="170.945 47.64 500 500" enable-background="new 170.945 47.64 500 500"
	 xml:space="preserve">
<g>
	<g>
		<path fill="#CFCE7A" d="M608.933,484.39V254.885H232.956V484.39h164.491v19.125h-70.495v19.125h187.987v-19.124h-70.496V484.39
			H608.933L608.933,484.39z M279.956,293.135h281.981v153.004H279.956V293.135z"/>
	</g>
	<g>
		<path fill="#FFFFFF" d="M589.424,245.355H484.857c-8.625,0-15.684-7.286-15.684-16.191V88.833c0-8.904,7.058-16.191,15.684-16.191
			h104.566c8.628,0,15.686,7.287,15.686,16.191v140.331C605.109,238.069,598.052,245.355,589.424,245.355z M537.141,78.039
			c-2.886,0-5.228,2.418-5.228,5.396c0,2.98,2.342,5.397,5.228,5.397s5.228-2.418,5.228-5.396
			C542.369,80.458,540.027,78.04,537.141,78.039L537.141,78.039z M584.197,94.229h-94.111v129.538h94.111V94.229z M447.802,86.148
			v63.031c0,7.429-5.889,13.507-13.084,13.507H321.324c-7.198,0-13.086-6.078-13.086-13.507V86.148
			c0-7.431,5.888-13.508,13.084-13.508h113.395c7.196,0,13.084,6.077,13.084,13.508H447.802z M441.26,135.674V99.653h-4.361v36.02
			L441.26,135.674L441.26,135.674z M316.961,117.663c0,4.975,3.904,9.004,8.725,9.004c4.818,0,8.722-4.029,8.722-9.004
			c0-4.976-3.903-9.006-8.723-9.006S316.96,112.687,316.961,117.663L316.961,117.663z M343.13,81.643v72.038h87.227V81.643H343.13z
			 M333.543,182.431v56.632c0,3.46-2.743,6.292-6.096,6.292h-85.333c-3.354,0-6.096-2.832-6.096-6.292v-56.632
			c0-3.461,2.743-6.291,6.096-6.291h85.332C330.8,176.14,333.543,178.97,333.543,182.431L333.543,182.431z M240.419,210.748
			c0,2.701,2.123,4.896,4.74,4.896c2.619,0,4.743-2.194,4.743-4.896c0-2.703-2.123-4.896-4.743-4.896
			C242.543,205.852,240.419,208.045,240.419,210.748z M254.303,182.431v56.632h67.049v-56.632H254.303L254.303,182.431z
			 M447.802,182.431v56.632c0,3.46-2.743,6.292-6.096,6.292h-85.336c-3.353,0-6.094-2.832-6.094-6.292v-56.632
			c0-3.461,2.742-6.291,6.094-6.291h85.336C445.059,176.14,447.802,178.97,447.802,182.431z M354.677,210.748
			c0,2.701,2.124,4.896,4.741,4.896s4.743-2.194,4.743-4.896c0-2.703-2.124-4.896-4.743-4.896
			C356.801,205.852,354.678,208.045,354.677,210.748L354.677,210.748z M368.561,182.431v56.632h67.05v-56.632H368.561z"/>
	</g>
</g>
</svg>
