<?xml version="1.0" encoding="UTF-8"?>
<!DOCTYPE svg PUBLIC "-//W3C//DTD SVG 1.1//EN" "http://www.w3.org/Graphics/SVG/1.1/DTD/svg11.dtd">
<svg version="1.1" xmlns="http://www.w3.org/2000/svg" xmlns:xlink="http://www.w3.org/1999/xlink" x="0" y="0" width="500" height="500" viewBox="0, 0, 500, 500">
  <g id="Rychlost_v_prohlizeci">
    <path d="M335.6,21 C354.844,21 370.444,36.819 370.444,56.333 L370.444,256.039 C357.581,256.112 346.097,260.757 335.6,267.847 L335.6,127 L56.844,127 L56.844,303.667 L311.714,303.667 C310.45,308.347 310.122,313.179 310,318 C310,323.222 310.66,328.433 311.952,333.495 C312.427,335.357 313.093,337.165 313.663,339 L56.844,339 C37.6,339 22,323.181 22,303.667 L22,56.333 C22,36.9 37.68,21 56.844,21 L335.6,21 z M335.6,56.333 L56.844,56.333 L56.844,91.667 L335.6,91.667 L335.6,56.333 z" fill="#FFFFFF"/>
    <path d="M295.667,210 C197.725,210 118.333,289.392 118.333,387.333 C118.333,419.679 127.129,449.897 142.256,476 L449.078,476 C464.204,449.897 473,419.679 473,387.333 C473,289.392 393.608,210 295.667,210 z M381.354,308.509 L327.374,389.479 C329.697,394.196 331.133,399.445 331.133,405.067 C331.133,424.662 315.262,440.533 295.667,440.533 C276.071,440.533 260.2,424.662 260.2,405.067 C260.2,385.471 276.071,369.6 295.667,369.6 C296.411,369.6 297.121,369.777 297.848,369.813 L351.846,288.825 C357.272,280.667 368.285,278.468 376.442,283.913 C384.582,289.357 386.781,300.351 381.354,308.509 z" fill="#F87049"/>
  </g>
</svg>
