<?xml version="1.0" encoding="UTF-8"?>
<!DOCTYPE svg PUBLIC "-//W3C//DTD SVG 1.1//EN" "http://www.w3.org/Graphics/SVG/1.1/DTD/svg11.dtd">
<svg version="1.1" xmlns="http://www.w3.org/2000/svg" xmlns:xlink="http://www.w3.org/1999/xlink" x="0" y="0" width="500" height="500" viewBox="0, 0, 500, 500">
  <g id="Background">
    <rect x="0" y="0" width="500" height="500" fill="#000000" fill-opacity="0"/>
  </g>
  <g id="BG">
    <path d="M-53,-25 L553,-25 L553,525 L-53,525 L-53,-25 z" fill="#2E2C09" display="none"/>
    <path d="M165.018,201.67 L22,142.763 L22,78.086 L165.018,21 L308.036,79.3 L308.036,143.066 L165.018,201.367 z M40.522,130.92 L165.018,181.629 L289.513,131.224 L289.513,91.75 L165.018,40.13 L40.522,91.75 L40.522,131.224 z" fill="#FFFFFF"/>
    <path d="M165.018,320.7 L31.413,266.651 L31.413,142.763 L50.239,142.763 L50.239,253.898 L165.018,300.356 L279.797,253.898 L279.797,142.763 L298.623,142.763 L298.623,266.043 z" fill="#FFFFFF"/>
    <path d="M165.018,147.014 L28.68,91.446 L33.842,78.389 L165.018,131.831 L296.194,78.389 L301.052,91.446 z" fill="#FFFFFF"/>
    <path d="M158.034,139.726 L172.002,139.726 L172.002,191.346 L158.034,191.346 z M158.034,195.294 L172.002,195.294 L172.002,311.287 L158.034,311.287 z" fill="#FFFFFF"/>
  </g>
  <g id="Layer_2">
    <path d="M297.667,212 C199.725,212 120.333,291.392 120.333,389.333 C120.333,421.679 129.129,451.897 144.256,478 L451.078,478 C466.204,451.897 475,421.679 475,389.333 C475,291.392 395.608,212 297.667,212 z M383.354,310.509 L329.374,391.479 C331.697,396.196 333.133,401.445 333.133,407.067 C333.133,426.662 317.262,442.533 297.667,442.533 C278.071,442.533 262.2,426.662 262.2,407.067 C262.2,387.471 278.071,371.6 297.667,371.6 C298.411,371.6 299.121,371.777 299.848,371.813 L353.846,290.825 C359.272,282.667 370.285,280.468 378.442,285.913 C386.582,291.357 388.781,302.351 383.354,310.509 z" fill="#F87049"/>
  </g>
</svg>
