<?xml version="1.0" encoding="UTF-8"?>
<!DOCTYPE svg PUBLIC "-//W3C//DTD SVG 1.1//EN" "http://www.w3.org/Graphics/SVG/1.1/DTD/svg11.dtd">
<svg version="1.1" xmlns="http://www.w3.org/2000/svg" xmlns:xlink="http://www.w3.org/1999/xlink" x="0" y="0" width="500" height="500" viewBox="0, 0, 500, 500">
  <g id="VAriable_fonts">
    <g>
      <path d="M64.109,228.5 L82.029,156.436 L88.058,155.412 L88.058,141.972 L59.001,141.972 L59.001,155.412 L67.375,156.436 C57.913,198.036 57.075,202.004 56.238,205.716 C55.401,201.108 54.731,198.036 45.52,156.436 L53.726,155.412 L53.726,141.972 L24,141.972 L24,155.412 L29.861,156.436 L47.53,228.5 z" fill="#EDAC54"/>
      <path d="M106.35,228.5 L106.35,215.06 L97.977,214.036 L100.405,203.796 L117.403,203.796 L119.832,214.036 L111.709,215.06 L111.709,228.5 L141.101,228.5 L141.101,215.06 L135.155,214.036 L117.99,141.972 L100.489,141.972 L82.988,214.036 L76.959,215.06 L76.959,228.5 z M103.922,186.388 C107.271,171.156 108.193,165.908 109.114,161.172 C109.867,166.164 110.621,170.516 113.803,186.388 z" fill="#EDAC54"/>
      <path d="M173.925,228.5 L173.925,215.06 L166.137,213.908 L166.137,194.068 L169.989,194.068 C171.496,194.964 172.836,196.884 174.511,201.492 C176.186,205.972 177.442,210.196 179.703,216.212 C182.466,223.636 186.15,228.884 192.765,228.884 C195.947,228.884 199.966,228.5 202.562,227.86 L201.809,211.86 C200.888,212.116 199.966,212.244 199.464,212.244 C195.863,212.244 193.686,210.708 191.677,205.588 C190.672,202.9 188.913,198.42 188.16,196.884 C186.736,193.556 185.48,191.636 183.889,190.484 C191.342,186.9 195.947,179.732 195.947,165.268 C195.947,154.132 191.844,146.964 185.899,144.148 C182.382,142.484 178.112,141.972 173.255,141.972 L144.199,141.972 L144.199,155.412 L152.237,156.564 L152.237,213.908 L144.199,215.06 L144.199,228.5 z M166.137,177.812 L166.137,158.612 L171.162,158.612 C174.176,158.612 176.604,158.996 178.028,160.148 C179.786,161.556 180.875,163.476 180.875,168.596 C180.875,171.796 180.289,174.356 178.363,176.02 C176.353,177.684 173.255,177.812 169.738,177.812 z" fill="#EDAC54"/>
      <path d="M235.135,228.5 L235.135,215.06 L227.097,213.908 L227.097,156.564 L235.135,155.412 L235.135,141.972 L205.074,141.972 L205.074,155.412 L213.113,156.564 L213.113,213.908 L205.074,215.06 L205.074,228.5 z" fill="#EDAC54"/>
      <path d="M266.787,228.5 L266.787,215.06 L258.414,214.036 L260.842,203.796 L277.84,203.796 L280.269,214.036 L272.146,215.06 L272.146,228.5 L301.537,228.5 L301.537,215.06 L295.592,214.036 L278.426,141.972 L260.926,141.972 L243.425,214.036 L237.396,215.06 L237.396,228.5 z M264.359,186.388 C267.708,171.156 268.629,165.908 269.551,161.172 C270.304,166.164 271.058,170.516 274.24,186.388 z" fill="#EDAC54"/>
      <path d="M304.636,228.5 L325.988,228.5 C331.263,228.5 335.785,228.372 342.065,226.964 C351.109,224.916 356.803,216.98 356.803,202.9 C356.803,190.612 351.946,184.212 343.238,182.676 C351.109,179.092 354.458,172.948 354.458,162.324 C354.458,151.7 350.523,145.428 342.149,143.252 C338.632,142.356 331.598,141.972 326.825,141.972 L304.636,141.972 L304.636,155.412 L312.674,156.564 L312.674,213.908 L304.636,215.06 z M326.574,192.404 L330.761,192.404 C332.352,192.404 334.278,192.532 335.953,192.788 C339.637,193.3 341.73,196.628 341.73,202.132 C341.73,206.868 340.307,209.556 337.795,210.964 C336.12,211.86 333.441,211.86 331.347,211.86 L326.574,211.86 z M326.574,175.892 L326.574,158.612 L331.18,158.612 C333.189,158.612 335.785,158.868 337.041,159.892 C338.8,161.3 339.804,163.348 339.804,166.932 C339.804,171.412 338.297,173.972 336.036,174.996 C334.613,175.636 332.519,175.892 330.426,175.892 z" fill="#EDAC54"/>
      <path d="M411.817,228.5 C412.319,224.276 412.654,217.62 412.654,198.036 L403.192,198.036 L401.936,211.732 L385.022,211.732 L385.022,156.564 L393.814,155.412 L393.814,141.972 L362.999,141.972 L362.999,155.412 L371.038,156.564 L371.038,213.908 L362.999,215.06 L362.999,228.5 z" fill="#EDAC54"/>
      <path d="M466.496,228.5 C466.998,224.404 467.333,217.492 467.333,198.036 L457.871,198.036 L456.615,211.732 L439.701,211.732 L439.701,192.916 L455.945,192.916 L455.945,175.38 L439.701,175.38 L439.701,159.508 L454.857,159.508 L456.113,170.772 L465.491,170.772 C465.491,151.572 464.905,145.3 464.403,141.972 L417.678,141.972 L417.678,155.412 L425.717,156.564 L425.717,213.908 L417.678,215.06 L417.678,228.5 z" fill="#EDAC54"/>
    </g>
    <g>
      <path d="M76.352,334 L76.352,320.56 L61.12,319.536 L61.12,299.568 L87.104,299.568 L87.104,282.032 L61.12,282.032 L61.12,265.008 L84.416,265.008 L86.336,276.272 L100.544,276.272 C100.544,257.072 99.776,250.8 99.008,247.472 L27.456,247.472 L27.456,260.912 L39.744,262.064 L39.744,319.408 L27.456,320.56 L27.456,334 z" fill="#FFFFFF"/>
      <path d="M194.496,288.432 C194.496,260.016 180.8,245.168 153.92,245.168 C124.992,245.168 110.144,260.912 110.144,292.528 C110.144,321.328 125.76,336.304 150.976,336.304 C178.752,336.304 194.496,319.792 194.496,288.432 z M171.456,291.504 C171.456,312.368 163.264,318.896 152.256,318.896 C142.4,318.896 132.8,313.392 132.8,289.584 C132.8,272.176 139.072,262.576 152.896,262.576 C167.232,262.576 171.456,272.56 171.456,291.504 z" fill="#FFFFFF"/>
      <path d="M249.536,334 L249.536,320.56 L237.504,319.408 C237.504,288.304 237.248,279.728 236.864,272.56 C241.088,281.136 244.672,288.816 267.712,334 L292.544,334 L292.544,262.064 L303.168,260.912 L303.168,247.472 L260.544,247.472 L260.544,261.168 L271.296,262.064 C271.296,272.176 271.296,286.512 271.936,299.952 C266.176,286.384 263.36,280.88 245.824,247.472 L203.84,247.472 L203.84,260.912 L216.128,262.064 L216.128,319.408 L203.84,320.56 L203.84,334 z" fill="#FFFFFF"/>
      <path d="M375.36,334 L375.36,320.56 L362.944,319.408 L362.944,265.008 L377.024,265.008 L379.328,280.24 L393.28,280.24 C393.28,259.888 392.768,250.544 392,247.472 L312.256,247.472 C311.488,252.336 311.104,258.48 311.104,280.24 L325.184,280.24 L327.488,265.008 L341.696,265.008 L341.696,319.408 L329.28,320.56 L329.28,334 z" fill="#FFFFFF"/>
      <path d="M399.552,301.872 C399.552,316.848 400.192,326.064 401.344,331.568 C407.872,334.384 418.24,336.304 431.552,336.304 C457.408,336.304 468.288,323.888 468.288,309.808 C468.288,296.624 464.704,289.968 443.2,282.288 L432.32,278.32 C426.432,276.272 425.152,273.584 425.152,269.744 C425.152,266.032 427.84,262.192 437.952,262.192 C441.664,262.192 446.4,262.832 450.112,263.856 L451.648,277.68 L466.496,277.68 C466.496,263.6 466.24,251.184 465.216,248.368 C458.688,246.704 448.064,245.296 439.744,245.296 C412.992,245.296 402.752,257.584 402.752,272.432 C402.752,288.304 411.84,294.448 424.256,298.288 L435.52,301.616 C442.944,303.92 445.248,306.736 445.248,311.216 C445.248,315.824 442.176,319.28 434.112,319.28 C428.48,319.28 422.848,318.512 416.96,316.72 L414.912,301.872 z" fill="#FFFFFF"/>
    </g>
  </g>
</svg>
