<?xml version="1.0" encoding="UTF-8"?>
<!DOCTYPE svg PUBLIC "-//W3C//DTD SVG 1.1//EN" "http://www.w3.org/Graphics/SVG/1.1/DTD/svg11.dtd">
<svg version="1.1" xmlns="http://www.w3.org/2000/svg" xmlns:xlink="http://www.w3.org/1999/xlink" x="0" y="0" width="500" height="500" viewBox="0, 0, 500, 500">
  <g id="Webpack">
    <g id="Layer_1">
      <path d="M249.034,76.257 L414.644,169.932 L414.644,357.325 L249.034,451 L83.423,357.325 L83.423,169.932 z" fill="#FFFFFF"/>
      <path d="M385.074,350.863 L254.511,424.725 L254.511,367.21 L335.862,322.448 L385.074,350.863 z M394.018,342.775 L394.018,188.334 L346.26,215.935 L346.26,315.216 L394.018,342.775 z M112.48,350.863 L243.043,424.725 L243.043,367.21 L161.649,322.448 L112.48,350.863 z M103.536,342.775 L103.536,188.334 L151.293,215.935 L151.293,315.216 L103.536,342.775 z M109.142,178.32 L243.043,102.575 L243.043,158.164 L157.242,205.365 L156.557,205.751 L109.142,178.32 z M388.412,178.32 L254.511,102.575 L254.511,158.164 L340.312,205.323 L340.997,205.708 L388.412,178.32 z" fill="#8ED6FB"/>
      <path d="M243.043,354.116 L162.762,309.953 L162.762,222.526 L243.043,268.871 L243.043,354.116 z M254.511,354.116 L334.792,309.995 L334.792,222.526 L254.511,268.871 L254.511,354.116 z M248.777,265.533 z M168.197,212.426 L248.777,168.135 L329.357,212.426 L248.777,258.943 L168.197,212.426 z" fill="#1C78C0"/>
    </g>
  </g>
</svg>
