<?xml version="1.0" encoding="UTF-8"?>
<!DOCTYPE svg PUBLIC "-//W3C//DTD SVG 1.1//EN" "http://www.w3.org/Graphics/SVG/1.1/DTD/svg11.dtd">
<svg version="1.1" xmlns="http://www.w3.org/2000/svg" xmlns:xlink="http://www.w3.org/1999/xlink" x="0" y="0" width="500" height="500" viewBox="0, 0, 500, 500">
  <g id="Google_Sans_font">
    <path d="M145.2,267 Q124.4,267 107.2,257.1 Q90,247.2 80.1,230.1 Q70.2,213 70.2,192.2 Q70.2,171.4 80.1,154.3 Q90,137.2 107.2,127.3 Q124.4,117.4 145.2,117.4 Q177.6,117.4 198.8,140.8 L179.8,159.2 Q166,143 145.4,143 Q132,143 121,149.1 Q110,155.2 103.7,166.4 Q97.4,177.6 97.4,192.2 Q97.4,206.8 103.7,218 Q110,229.2 121,235.3 Q132,241.4 145.4,241.4 Q168,241.4 183.2,222.6 L202.4,240.8 Q191.8,253.6 177.3,260.3 Q162.8,267 145.2,267 z" fill="#FFFFFF"/>
    <path d="M227.4,120.6 L254.4,120.6 L254.4,238.2 L315,238.2 L315,263.8 L227.4,263.8 z" fill="#FFFFFF"/>
    <path d="M380.8,267 Q362,267 347.6,256.4 Q333.2,245.8 327.4,226.4 L352.8,216.4 Q355.8,227.8 363,234.6 Q370.2,241.4 381,241.4 Q390,241.4 396.4,236.9 Q402.8,232.4 402.8,224.4 Q402.8,216.4 396.7,211.3 Q390.6,206.2 375,200.4 L366.2,197.2 Q352.4,192.4 342.6,182.5 Q332.8,172.6 332.8,157.6 Q332.8,146.4 338.6,137.2 Q344.4,128 355,122.7 Q365.6,117.4 379,117.4 Q398.4,117.4 409.6,126.5 Q420.8,135.6 425,147.8 L401.2,157.8 Q399,151.2 393.5,146.7 Q388,142.2 379.4,142.2 Q370.6,142.2 364.9,146.3 Q359.2,150.4 359.2,157 Q359.2,163.4 364.6,167.9 Q370,172.4 382.4,176.6 L391.4,179.6 Q410,186 419.9,196.5 Q429.8,207 429.8,224 Q429.8,238 422.6,247.7 Q415.4,257.4 404.1,262.2 Q392.8,267 380.8,267 z" fill="#FFFFFF"/>
  </g>
  <g id="Layer_3">
    <path d="M172.444,323 L322.889,323 L322.889,402 L172.444,402 L172.444,323 z" fill="#F8A849"/>
    <path d="M22,323 L172.444,323 L172.444,402 L22,402 L22,323 z" fill="#33AF6D"/>
    <path d="M322.889,323 L473.333,323 L473.333,402 L322.889,402 L322.889,323 z" fill="#F87049"/>
  </g>
</svg>
