<?xml version="1.0" encoding="UTF-8"?>
<!DOCTYPE svg PUBLIC "-//W3C//DTD SVG 1.1//EN" "http://www.w3.org/Graphics/SVG/1.1/DTD/svg11.dtd">
<svg version="1.1" xmlns="http://www.w3.org/2000/svg" xmlns:xlink="http://www.w3.org/1999/xlink" x="0" y="0" width="500" height="500" viewBox="0, 0, 500, 500">
  <g id="Javascript_Nástroje">
    <path d="M246.214,110.782 C186.419,110.782 149.058,140.499 134.102,199.933 C156.526,170.216 182.685,159.074 212.578,166.499 C229.633,170.735 241.829,183.036 255.317,196.656 C277.301,218.834 302.748,244.5 358.316,244.5 C418.102,244.5 455.472,214.783 470.418,155.358 C448.003,185.075 421.845,196.216 391.952,188.783 C374.888,184.547 362.692,172.246 349.204,158.635 C327.219,136.44 301.781,110.782 246.214,110.782 z M134.102,244.5 C74.317,244.5 36.946,274.217 22,333.651 C44.424,303.934 70.582,292.792 100.466,300.217 C117.53,304.453 129.727,316.754 143.214,330.374 C165.199,352.552 190.637,378.218 246.214,378.218 C305.999,378.218 343.37,348.51 358.316,289.076 C335.892,318.793 309.734,329.934 279.841,322.509 C262.786,318.265 250.589,305.964 237.102,292.353 C215.117,270.175 189.67,244.5 134.102,244.5 z" fill="#06B6D4"/>
  </g>
</svg>
