<?xml version="1.0" encoding="UTF-8"?>
<!DOCTYPE svg PUBLIC "-//W3C//DTD SVG 1.1//EN" "http://www.w3.org/Graphics/SVG/1.1/DTD/svg11.dtd">
<svg version="1.1" xmlns="http://www.w3.org/2000/svg" xmlns:xlink="http://www.w3.org/1999/xlink" x="0" y="0" width="500" height="500" viewBox="0, 0, 500, 500">
  <g id="Google_Sans_font">
    <path d="M101.9,128.8 L192.7,128.8 L192.7,154.4 L128.9,154.4 L128.9,189.2 L186.3,189.2 L186.3,214.8 L128.9,214.8 L128.9,272 L101.9,272 z" fill="#FFFFFF"/>
    <path d="M216.5,128.8 L243.5,128.8 L243.5,272 L216.5,272 z" fill="#FFFFFF"/>
    <path d="M276.1,128.8 L324.5,128.8 Q346.9,128.8 363.5,137.8 Q380.1,146.8 389.1,163 Q398.1,179.2 398.1,200.4 Q398.1,221.6 389.1,237.8 Q380.1,254 363.5,263 Q346.9,272 324.5,272 L276.1,272 z M323.3,246.4 Q346.5,246.4 358.7,234.1 Q370.9,221.8 370.9,200.4 Q370.9,179 358.7,166.7 Q346.5,154.4 323.3,154.4 L303.1,154.4 L303.1,246.4 z" fill="#FFFFFF"/>
  </g>
  <g id="Layer_3">
    <path d="M172.444,323 L322.889,323 L322.889,402 L172.444,402 L172.444,323 z" fill="#F8A849"/>
    <path d="M22,323 L172.444,323 L172.444,402 L22,402 L22,323 z" fill="#33AF6D"/>
    <path d="M322.889,323 L473.333,323 L473.333,402 L322.889,402 L322.889,323 z" fill="#F87049"/>
  </g>
</svg>
