<?xml version="1.0" encoding="UTF-8"?>
<!DOCTYPE svg PUBLIC "-//W3C//DTD SVG 1.1//EN" "http://www.w3.org/Graphics/SVG/1.1/DTD/svg11.dtd">
<svg version="1.1" xmlns="http://www.w3.org/2000/svg" xmlns:xlink="http://www.w3.org/1999/xlink" x="0" y="0" width="32" height="32" viewBox="0, 0, 32, 32">
  <g id="Background">
    <rect x="0" y="0" width="32" height="32" fill="#000000" fill-opacity="0"/>
  </g>
  <g id="Layer_1">
    <path d="M5.727,23.533 C3.673,23.536 2.007,25.199 2,27.253 C2.003,29.308 3.672,30.971 5.727,30.967 C6.714,30.97 7.663,30.581 8.363,29.884 C9.063,29.188 9.457,28.241 9.459,27.254 C9.459,25.21 7.789,23.534 5.726,23.534 M2.003,12.514 L2.003,17.88 C5.497,17.88 8.783,19.247 11.258,21.722 C13.724,24.179 15.105,27.519 15.094,31 L20.484,31 C20.484,20.806 12.191,12.514 2.004,12.514 M2.01,3 L2.01,8.37 C14.473,8.37 24.617,18.523 24.617,31 L30,31 C30,15.565 17.442,3 2.01,3 z" fill="#B5B397"/>
  </g>
</svg>
