<?xml version="1.0" encoding="UTF-8"?>
<!DOCTYPE svg PUBLIC "-//W3C//DTD SVG 1.1//EN" "http://www.w3.org/Graphics/SVG/1.1/DTD/svg11.dtd">
<svg version="1.1" xmlns="http://www.w3.org/2000/svg" xmlns:xlink="http://www.w3.org/1999/xlink" x="0" y="0" width="32" height="32" viewBox="0, 0, 32, 32">
  <g id="Background">
    <rect x="0" y="0" width="32" height="32" fill="#000000" fill-opacity="0"/>
  </g>
  <g id="Layer_1">
    <path d="M17.47,5 L9.1,5 C5.344,5 1.81,7.84 1.81,11.13 C1.81,14.492 4.37,17.205 8.19,17.205 C8.455,17.205 8.713,17.2 8.965,17.181 C8.717,17.656 8.54,18.191 8.54,18.744 C8.54,19.678 9.043,20.436 9.68,21.054 C9.2,21.054 8.735,21.068 8.228,21.068 C3.578,21.067 0,24.024 0,27.09 C0,30.11 3.923,32 8.573,32 C13.873,32 16.801,28.996 16.801,25.976 C16.801,23.554 16.087,22.104 13.875,20.542 C13.118,20.007 11.671,18.706 11.671,17.942 C11.671,17.045 11.927,16.602 13.278,15.549 C14.663,14.467 15.643,12.949 15.643,11.182 C15.643,9.078 14.705,7.028 12.943,6.352 L15.598,6.352 L17.47,5 M14.546,25.455 C14.613,25.735 14.649,26.023 14.649,26.317 C14.649,28.757 13.073,30.665 8.555,30.665 C5.341,30.665 3.02,28.633 3.02,26.193 C3.02,23.801 5.9,21.81 9.114,21.845 C9.864,21.853 10.564,21.973 11.197,22.178 C12.942,23.39 14.193,24.075 14.547,25.455 M9.4,16.353 C7.243,16.288 5.193,13.943 4.82,11.113 C4.45,8.285 5.895,6.12 8.052,6.183 C10.209,6.249 12.259,8.519 12.632,11.347 C13.004,14.177 11.557,16.417 9.402,16.353 M26,10.993 L26,5 L24,5 L24,10.992 L18,10.992 L18,12.989 L24,12.989 L24,18.979 L26,18.979 L26,12.989 L32,12.989 L32,10.99 L26,10.99 z" fill="#B5B397"/>
  </g>
</svg>
