<?xml version="1.0" encoding="UTF-8"?>
<!DOCTYPE svg PUBLIC "-//W3C//DTD SVG 1.1//EN" "http://www.w3.org/Graphics/SVG/1.1/DTD/svg11.dtd">
<svg version="1.1" xmlns="http://www.w3.org/2000/svg" xmlns:xlink="http://www.w3.org/1999/xlink" x="0" y="0" width="240" height="240" viewBox="0, 0, 24, 24">
  <g id="Background">
    <rect x="0" y="0" width="24" height="24" fill="#000000" fill-opacity="0"/>
  </g>
  <g id="Layer_1">
    <path d="M5.121,17.804 C7.153,16.655 9.5,16 12,16 C14.5,16 16.847,16.655 18.879,17.804 M15,10 C15,11.657 13.657,13 12,13 C10.343,13 9,11.657 9,10 C9,8.343 10.343,7 12,7 C13.657,7 15,8.343 15,10 z M21,12 C21,16.971 16.971,21 12,21 C7.029,21 3,16.971 3,12 C3,7.029 7.029,3 12,3 C16.971,3 21,7.029 21,12 z" fill-opacity="0" stroke="#2E2C09" stroke-width="2" stroke-linecap="round" stroke-linejoin="round"/>
  </g>
</svg>
