<?xml version="1.0" standalone="no"?>
<!DOCTYPE svg PUBLIC "-//W3C//DTD SVG 20010904//EN"
 "http://www.w3.org/TR/2001/REC-SVG-20010904/DTD/svg10.dtd">
<svg version="1.0" xmlns="http://www.w3.org/2000/svg"
 width="700.000000pt" height="700.000000pt" viewBox="0 0 700.000000 700.000000"
 preserveAspectRatio="xMidYMid meet">
<metadata>
Created by potrace 1.11, written by Peter Selenger 2001-2013
</metadata>
<g transform="translate(0.000000,700.000000) scale(0.100000,-0.100000)"
fill="#3d6a0d" stroke="none">
<path d="M2266 6419 c-40 -11 -421 -305 -591 -457 -16 -15 -48 -42 -70 -61
-45 -38 -118 -104 -187 -169 l-46 -44 -52 48 c-45 42 -59 49 -104 54 -33 4
-61 1 -81 -8 -36 -17 -350 -325 -371 -364 -17 -33 -18 -101 -2 -131 6 -12 28
-39 50 -61 21 -21 38 -43 38 -50 0 -6 -28 -40 -62 -76 -172 -183 -573 -672
-651 -793 -23 -35 -16 -82 16 -114 13 -13 78 -63 144 -111 66 -48 224 -162
349 -253 126 -91 239 -169 252 -174 45 -14 77 13 184 153 58 75 116 151 130
167 15 17 63 75 109 130 102 122 121 144 180 209 26 28 60 66 76 84 l29 32
686 -685 685 -685 -932 -933 c-629 -629 -940 -947 -956 -977 -34 -65 -34 -195
0 -259 30 -58 174 -202 231 -232 66 -35 185 -34 254 1 37 19 274 250 981 957
l932 932 964 -963 c597 -597 977 -969 999 -979 90 -41 171 -42 255 -4 59 28
204 166 234 225 44 86 41 207 -6 283 -12 19 -452 465 -979 991 l-956 957 670
671 c369 368 674 670 679 670 4 0 96 -88 203 -196 107 -107 206 -204 220 -213
69 -49 348 -131 820 -241 74 -18 144 -34 155 -37 64 -15 109 -1 126 39 10 25
10 44 -5 117 -9 47 -19 95 -22 106 -3 11 -7 31 -10 45 -3 14 -12 52 -21 85 -8
33 -17 71 -20 85 -2 14 -15 68 -29 120 -13 52 -26 102 -28 111 -10 40 -70 236
-77 249 -4 8 -18 42 -30 75 -20 54 -43 81 -237 276 l-214 217 37 38 c20 22 43
49 51 60 21 31 20 108 -1 141 -10 16 -95 105 -190 200 -153 152 -178 172 -216
181 -54 11 -82 -1 -147 -64 l-46 -45 -300 300 c-197 196 -311 302 -329 306
-15 4 -39 4 -53 1 -38 -10 -753 -727 -756 -758 -4 -65 0 -70 304 -375 273
-273 300 -303 287 -319 -7 -9 -310 -313 -673 -676 l-659 -658 -337 337 c-186
186 -494 494 -685 685 l-347 347 29 28 c16 15 62 57 103 93 40 36 81 72 90 80
38 36 247 207 380 310 80 62 151 122 159 133 22 31 15 74 -22 125 -52 72 -229
317 -376 519 -138 190 -158 208 -215 192z"/>
</g>
</svg>
