<?xml version="1.0" encoding="UTF-8"?>
<!DOCTYPE svg PUBLIC "-//W3C//DTD SVG 1.1//EN" "http://www.w3.org/Graphics/SVG/1.1/DTD/svg11.dtd">
<svg version="1.1" xmlns="http://www.w3.org/2000/svg" xmlns:xlink="http://www.w3.org/1999/xlink" x="0" y="0" width="500" height="500" viewBox="0, 0, 500, 500">
  <g id="DevTools_rychlost">
    <path d="M88.084,135.258 L50.592,70.316 C74.599,40.262 111.551,21 153.006,21 C200.967,21 242.897,46.775 265.725,85.226 L158.828,85.226 C156.908,85.058 154.967,84.968 153.002,84.968 C121.819,84.968 95.54,106.371 88.08,135.258 z M199.91,104.16 L274.997,104.16 C280.815,118.984 284.012,135.123 284.012,152.01 C284.012,223.867 226.161,282.198 154.492,282.996 L208.07,190.199 C215.615,179.354 220.045,166.192 220.045,152.01 C220.045,133.289 212.327,116.336 199.91,104.16 z M105.414,152.006 C105.414,125.764 126.764,104.414 153.006,104.414 C179.248,104.414 200.598,125.764 200.598,152.006 C200.598,178.248 179.248,199.598 153.006,199.598 C126.764,199.598 105.414,178.248 105.414,152.006 z M170.962,216.6 L133.458,281.559 C70.378,272.122 22,217.714 22,152.006 C22,128.667 28.112,106.756 38.81,87.776 L92.293,180.414 C103.007,203.213 126.191,219.045 153.006,219.045 C159.225,219.045 165.247,218.189 170.962,216.6 z" fill="#2E2C09"/>
    <path d="M295.667,211 C197.725,211 118.333,290.392 118.333,388.333 C118.333,420.679 127.129,450.897 142.256,477 L449.078,477 C464.204,450.897 473,420.679 473,388.333 C473,290.392 393.608,211 295.667,211 z M381.354,309.509 L327.374,390.479 C329.697,395.196 331.133,400.445 331.133,406.067 C331.133,425.662 315.262,441.533 295.667,441.533 C276.071,441.533 260.2,425.662 260.2,406.067 C260.2,386.471 276.071,370.6 295.667,370.6 C296.411,370.6 297.121,370.777 297.848,370.813 L351.846,289.825 C357.272,281.667 368.285,279.468 376.442,284.913 C384.582,290.357 386.781,301.351 381.354,309.509 z" fill="#F87049"/>
  </g>
</svg>
