<svg xmlns="http://www.w3.org/2000/svg" width="595.28" height="595.28" viewBox="123.305 0 595.28 595.28"><path fill="#A36DF8" d="M607.931 25.846c49.289 0 89.246 39.153 89.246 87.449v368.692c0 48.295-39.957 87.446-89.246 87.446H233.958c-49.29 0-89.246-39.151-89.246-87.448v-368.69c0-48.296 39.958-87.448 89.246-87.448l373.973-.001zM420.467 129.505H286.042v336.728h148.61c46.205 0 80.625-7.97 103.262-23.906 22.635-15.939 33.953-40.146 33.953-72.623 0-21.201-5.271-39.094-15.813-53.678-10.545-14.586-25.43-24.585-44.654-29.998 15.039-5.563 26.514-14.058 34.42-25.486 7.906-11.578 11.861-25.56 11.861-41.949 0-31.125-10.855-53.753-32.561-67.887-21.551-14.133-56.438-21.2-104.656-21.2l.003-.001zm7.673 189.452c18.143 0 31.707 3.684 40.701 11.051 8.992 7.217 13.488 18.119 13.488 32.701 0 14.887-4.576 26.014-13.723 33.381-8.992 7.367-22.482 11.051-40.469 11.051h-52.559v-88.184h52.562zm-3.021-130.361c14.109 0 24.805 3.083 32.094 9.246 7.287 6.015 10.934 14.812 10.934 26.388 0 11.729-3.646 20.6-10.934 26.615-7.289 6.015-17.982 9.023-32.094 9.023H375.58v-71.271l49.539-.001z"/></svg>