<svg xmlns="http://www.w3.org/2000/svg" xmlns:xlink="http://www.w3.org/1999/xlink" width="595.28" height="595.281" viewBox="123.305 0 595.28 595.281"><linearGradient id="a" gradientUnits="userSpaceOnUse" x1="835.907" y1="-266.646" x2="835.907" y2="277.606" gradientTransform="matrix(1 0 0 -1 -414.96 303.121)"><stop offset=".005" stop-color="#999"/><stop offset="1" stop-color="#b3b3b3"/></linearGradient><path fill="url(#a)" d="M625.425 43.681c-12.117-12.11-26.668-18.166-43.678-18.166H260.138c-17.008 0-31.568 6.056-43.682 18.166-12.11 12.116-18.167 26.674-18.167 43.684v420.557c0 17.018 6.057 31.562 18.167 43.677 12.113 12.117 26.674 18.169 43.682 18.169h321.604c17.018 0 31.566-6.052 43.684-18.169 12.113-12.115 18.178-26.673 18.178-43.677V87.364c-.003-17.01-6.077-31.57-18.179-43.683zM438.337 537.688c-4.891 4.895-10.691 7.341-17.396 7.341-6.704 0-12.5-2.446-17.396-7.341-4.898-4.899-7.344-10.705-7.344-17.392 0-6.699 2.445-12.513 7.344-17.399 4.902-4.898 10.697-7.353 17.396-7.353 6.701 0 12.504 2.453 17.396 7.353 4.895 4.888 7.352 10.7 7.352 17.399 0 6.686-2.457 12.486-7.352 17.392z"/><defs><path id="b" d="M594.117 458.438c0 3.359-1.232 6.246-3.668 8.706-2.453 2.453-5.348 3.669-8.703 3.669H260.138c-3.348 0-6.248-1.223-8.696-3.669-2.446-2.445-3.671-5.347-3.671-8.706V87.364c0-3.35 1.224-6.253 3.671-8.696 2.45-2.45 5.349-3.673 8.696-3.673h321.605c3.355 0 6.25 1.217 8.703 3.673 2.445 2.443 3.67 5.347 3.67 8.696v371.074h.001z"/></defs><clipPath id="c"><use xlink:href="#b" overflow="visible"/></clipPath><radialGradient id="d" cx="835.904" cy="30.217" r="509.749" gradientTransform="matrix(1 0 0 -1 -414.96 303.121)" gradientUnits="userSpaceOnUse"><stop offset="0" stop-color="#89831b"/><stop offset="1" stop-color="#47440f"/></radialGradient><path clip-path="url(#c)" fill="url(#d)" d="M650.007 518.323c0 4.438-1.631 8.265-4.854 11.514-3.248 3.243-7.066 4.854-11.508 4.854H208.238c-4.431 0-8.266-1.618-11.504-4.854-3.236-3.242-4.855-7.074-4.855-11.514V27.479c0-4.431 1.616-8.266 4.855-11.502 3.24-3.243 7.073-4.861 11.504-4.861h425.408c4.439 0 8.26 1.612 11.508 4.861 3.236 3.236 4.854 7.071 4.854 11.502v490.844z"/><defs><path id="e" d="M594.117 458.438c0 3.359-1.232 6.246-3.668 8.706-2.453 2.453-5.348 3.669-8.703 3.669H260.138c-3.348 0-6.248-1.223-8.696-3.669-2.446-2.445-3.671-5.347-3.671-8.706V87.364c0-3.35 1.224-6.253 3.671-8.696 2.45-2.45 5.349-3.673 8.696-3.673h321.605c3.355 0 6.25 1.217 8.703 3.673 2.445 2.443 3.67 5.347 3.67 8.696v371.074h.001z"/></defs><clipPath id="f"><use xlink:href="#e" overflow="visible"/></clipPath><path clip-path="url(#f)" fill="#56CF00" d="M353.059 180.249h135.769l-2.279 26.075-54.385 24.554h52.1l-5.701 78.424-55.525 15.819-56.288-14.854-3.994-39.767h25.672l1.902 20.389 32.708 6.77 29.473-9.32 1.904-32.147h-93.37l-2.091-24.99 60.278-27.84h-62.749l-3.424-23.113z"/><defs><path id="g" d="M594.117 458.438c0 3.359-1.232 6.246-3.668 8.706-2.453 2.453-5.348 3.669-8.703 3.669H260.138c-3.348 0-6.248-1.223-8.696-3.669-2.446-2.445-3.671-5.347-3.671-8.706V87.364c0-3.35 1.224-6.253 3.671-8.696 2.45-2.45 5.349-3.673 8.696-3.673h321.605c3.355 0 6.25 1.217 8.703 3.673 2.445 2.443 3.67 5.347 3.67 8.696v371.074h.001z"/></defs><clipPath id="h"><use xlink:href="#g" overflow="visible"/></clipPath><path clip-path="url(#h)" fill="#56CF00" d="M320.541 138.472l18.257 204.164 82.146 24.267 82.146-23.916 18.258-204.514H320.541v-.001zm168.337 191.951L421.8 348.409l-67.079-17.986-15.354-175.439h164.867l-15.356 175.439zm-67.934 85.651l97.923 30.765 97.926 30.758H225.096l97.924-30.758 97.924-30.765z"/></svg>