<svg xmlns="http://www.w3.org/2000/svg" width="595.28" height="595.281" viewBox="123.305 0 595.28 595.281"><path fill="#F7DF1E" d="M153.182 30.182H692V569H153.182V30.182z"/><path fill="#2F2B00" d="M294.858 480.459l41.232-24.955c7.955 14.104 15.192 26.036 32.55 26.036 16.639 0 27.128-6.508 27.128-31.824V277.549h50.638v172.885c0 52.443-30.744 76.315-75.595 76.315-40.507 0-64.019-20.98-75.956-46.297m179.051-5.42l41.229-23.873c10.857 17.726 24.959 30.747 49.916 30.747 20.982 0 34.359-10.491 34.359-24.959 0-17.36-13.742-23.509-36.893-33.635l-12.654-5.428c-36.533-15.551-60.768-35.082-60.768-76.314 0-37.977 28.936-66.914 74.146-66.914 32.191 0 55.34 11.215 71.975 40.512l-39.424 25.317c-8.682-15.551-18.082-21.7-32.551-21.7-14.828 0-24.234 9.405-24.234 21.7 0 15.19 9.406 21.342 31.105 30.746l12.656 5.425c43.041 18.444 67.273 37.253 67.273 79.568 0 45.573-35.805 70.527-83.91 70.527-47.018 0-77.4-22.421-92.229-51.718"/><path fill="#2F2D00" d="M410.656 29c.565 1.659.338.702.512 2.907v63.871c0 2.302-.767 4.508-2.302 6.618s-3.453 3.356-5.753 3.74l-53.227 8.056c-3.644 10.357-7.385 19.084-11.221 26.181 6.713 9.591 16.975 22.826 30.785 39.705 1.918 2.302 2.877 4.7 2.877 7.193s-.863 4.699-2.589 6.617c-5.179 7.097-14.674 17.454-28.484 31.073-13.81 13.619-22.825 20.428-27.045 20.428-2.302 0-4.795-.863-7.48-2.589l-39.704-31.073a164.165 164.165 0 01-26.181 10.932c-3.069 26.086-5.851 43.924-8.345 53.514-1.343 5.372-4.795 8.057-10.357 8.057H158.27a10.989 10.989 0 01-6.27-1.916V126.391c11.277 7.497 24.885 10.233 38.205 10.53 20.332 0 37.691-7.192 52.077-21.578 14.385-14.385 21.578-31.744 21.578-52.076.035-11.944-2.639-23.748-8.331-34.267h155.127z"/></svg>