<svg xmlns="http://www.w3.org/2000/svg" width="595.28" height="595.281" viewBox="123.305 0 595.28 595.281"><path fill="none" d="M0 0h841.89v595.281H0V0z"/><path fill="#002C3A" d="M432.111 61.67l75.293 62.079h-54.045l-32.431-26.738-32.429 26.738h-54.046l75.556-62.295c6.546-5.385 15.883-5.12 22.102.216zm-.022 252.189l44.773 37.163 125.652-104.296-43.551-35.907V166.26l80.354 66.249 23.035 18.213c.09 1.141.137 2.293.137 3.456v239.534c0 12.028-4.932 22.973-12.854 30.896-7.922 7.921-18.867 12.853-30.895 12.853H223.117c-12.032 0-22.982-4.924-30.905-12.847-7.915-7.915-12.843-18.854-12.843-30.901V254.178c0-1.161.049-2.315.139-3.456l23.032-18.213 80.352-66.249v44.559l-43.551 35.907 125.652 104.296-2.472 2.053 47.421-39.361c6.531-5.433 15.903-5.201 22.147.145zm195.895-43.614L503.765 373.352l-6.057-5.024 130.275 108.13V270.245zm-21.883 232.709l-185.173-153.7-185.174 153.7h370.347zm-392.226-26.499l124.218-103.104-124.218-103.104v206.208z"/><path fill="#59AC71" d="M282.892 115.119h284.701v160.592l-17.256 14.325v-157.66H291.52v157.66l-17.257-14.325V115.119h8.629z"/><path fill="#59AC71" d="M334.664 163.722h172.531c4.75 0 8.627 3.876 8.627 8.627 0 4.75-3.877 8.626-8.627 8.626H334.664c-4.75 0-8.627-3.876-8.627-8.626 0-4.751 3.877-8.627 8.627-8.627zm0 34.926h172.531c4.75 0 8.627 3.876 8.627 8.627 0 4.75-3.877 8.626-8.627 8.626H334.664c-4.75 0-8.627-3.876-8.627-8.626 0-4.751 3.877-8.627 8.627-8.627zm0 34.926h172.531c4.75 0 8.627 3.876 8.627 8.627 0 4.75-3.877 8.626-8.627 8.626H334.664c-4.75 0-8.627-3.876-8.627-8.626 0-4.751 3.877-8.627 8.627-8.627zm0 34.926h172.531c4.75 0 8.627 3.876 8.627 8.627 0 4.75-3.877 8.626-8.627 8.626H334.664c-4.75 0-8.627-3.876-8.627-8.626 0-4.751 3.877-8.627 8.627-8.627z"/></svg>