<svg xmlns="http://www.w3.org/2000/svg" width="595.28" height="595.281" viewBox="123.305 0 595.28 595.281"><path fill="#CFCE7A" d="M257.554 303.115h326.789v177.317H257.554V303.115zm381.248 221.642V258.782H203.087v265.975h190.629v22.168h-81.7v22.164h217.86v-22.164h-81.701v-22.168h190.627z"/><path d="M360.243 153.428v65.628h77.702v-65.628h-77.702zm-16.096 32.818c0 3.126 2.463 5.667 5.493 5.667 3.038 0 5.501-2.542 5.501-5.667 0-3.139-2.463-5.674-5.501-5.674-3.03 0-5.493 2.535-5.493 5.674zm107.925-32.818v65.628c0 4.01-3.18 7.291-7.064 7.291H346.11c-3.884 0-7.057-3.281-7.057-7.291v-65.628c0-4.009 3.173-7.291 7.057-7.291h98.897c3.885.001 7.065 3.282 7.065 7.291zm-224.243 0v65.628h77.701v-65.628h-77.701zm-16.091 32.818c0 3.126 2.458 5.667 5.489 5.667 3.035 0 5.501-2.542 5.501-5.667 0-3.139-2.466-5.674-5.495-5.674-3.037 0-5.495 2.535-5.495 5.674zm107.919-32.818v65.628c0 4.01-3.18 7.291-7.063 7.291h-98.892c-3.884 0-7.063-3.281-7.063-7.291v-65.628c0-4.009 3.18-7.291 7.063-7.291h98.887c3.888.001 7.068 3.282 7.068 7.291zm11.108-116.803v83.484h101.088V36.625H330.765zm-30.324 41.743c0 5.763 4.522 10.434 10.107 10.434 5.583 0 10.112-4.67 10.112-10.434 0-5.768-4.529-10.44-10.112-10.44-5.585 0-10.111 4.672-10.111 10.44h.004zM444.49 99.241V57.494h-5.053v41.742h5.053v.005zm7.582-57.395v73.043c0 8.609-6.824 15.654-15.166 15.654H305.495c-8.34 0-15.165-7.045-15.165-15.654V41.846c0-8.613 6.825-15.654 15.165-15.654h131.411c8.342 0 15.166 7.04 15.166 15.654zm158.066 9.366H501.074v150.121h109.064V51.212zm-54.533-18.768c-3.346 0-6.061 2.804-6.061 6.258 0 3.453 2.715 6.251 6.061 6.251 3.342 0 6.057-2.802 6.057-6.251 0-3.454-2.715-6.252-6.057-6.252v-.006zm60.588 193.903h-121.18c-9.994 0-18.178-8.441-18.178-18.762V44.954c0-10.319 8.178-18.762 18.178-18.762h121.18c9.998 0 18.178 8.443 18.178 18.762v162.631c0 10.321-8.18 18.762-18.178 18.762z"/></svg>