<svg xmlns="http://www.w3.org/2000/svg" width="595.28" height="595.281" viewBox="123.305 0 595.28 595.281"><path fill="#EDA921" d="M678.164 262.447c-19.439-19.437-50.951-19.437-70.389 0H505.912l72.029-72.029c27.484 0 49.77-22.284 49.77-49.772s-22.283-49.771-49.77-49.771c-27.49 0-49.773 22.282-49.773 49.771l-72.027 72.027V110.812c19.436-19.438 19.436-50.951 0-70.389-19.438-19.437-50.951-19.437-70.387 0-19.437 19.438-19.437 50.95 0 70.389v101.862l-72.029-72.028c0-27.488-22.284-49.771-49.771-49.771-27.488 0-49.771 22.282-49.771 49.771s22.282 49.772 49.771 49.772l72.029 72.029H234.116c-19.437-19.437-50.949-19.437-70.387 0-19.437 19.437-19.437 50.951 0 70.388 19.438 19.435 50.95 19.435 70.387 0H335.98l-72.029 72.029c-27.488 0-49.771 22.282-49.771 49.77 0 27.49 22.282 49.771 49.771 49.771 27.488 0 49.771-22.28 49.771-49.771l72.029-72.026v101.861c-19.437 19.438-19.437 50.951 0 70.39 19.437 19.438 50.952 19.438 70.387 0 19.436-19.438 19.436-50.951 0-70.39V382.607l72.027 72.025c0 27.49 22.283 49.771 49.773 49.771 27.484 0 49.77-22.28 49.77-49.771 0-27.485-22.283-49.77-49.77-49.77l-72.029-72.029h101.863c19.438 19.435 50.949 19.435 70.389 0 19.436-19.436 19.436-50.95.003-70.386z"/></svg>