<svg xmlns="http://www.w3.org/2000/svg" width="500" height="500" viewBox="0 0 500 500"><path d="M249.034 76.257l165.61 93.675v187.393L249.034 451 83.423 357.325V169.932z" fill="#FFF"/><path d="M385.074 350.863l-130.563 73.862V367.21l81.351-44.762 49.212 28.415zm8.944-8.088V188.334l-47.758 27.601v99.281l47.758 27.559zm-281.538 8.088l130.563 73.862V367.21l-81.394-44.762-49.169 28.415zm-8.944-8.088V188.334l47.757 27.601v99.281l-47.757 27.559zm5.606-164.455l133.901-75.745v55.589l-85.801 47.201-.685.386-47.415-27.431zm279.27 0l-133.901-75.745v55.589l85.801 47.159.685.385 47.415-27.388z" fill="#8ED6FB"/><path d="M243.043 354.116l-80.281-44.163v-87.427l80.281 46.345v85.245zm11.468 0l80.281-44.121v-87.469l-80.281 46.345v85.245zm-5.734-88.583zm-80.58-53.107l80.58-44.291 80.58 44.291-80.58 46.517-80.58-46.517z" fill="#1C78C0"/></svg>