<svg xmlns="http://www.w3.org/2000/svg" width="500" height="500" viewBox="0 0 500 500"><path d="M91.712 164.918c-8.742-8.743-22.917-8.743-31.659 0-8.743 8.742-8.743 22.917 0 31.66 8.742 8.742 22.917 8.742 31.659 0h168.071c8.743 8.742 22.917 8.742 31.66 0 8.743-8.743 8.743-22.918 0-31.66-8.743-8.743-22.917-8.743-31.66 0z" fill="#2E2C09"/><path d="M92.212 165.418c-8.742-8.743-22.917-8.743-31.659 0-8.743 8.742-8.743 22.917 0 31.66 8.742 8.742 22.917 8.742 31.659 0h168.071c8.743 8.742 22.917 8.742 31.66 0 8.743-8.743 8.743-22.918 0-31.66-8.743-8.743-22.917-8.743-31.66 0z" stroke="#2E2C09" stroke-width="73.362" fill="none"/><path d="M127.519 110.132c0-12.364-10.023-22.387-22.387-22.387s-22.387 10.023-22.387 22.387 10.023 22.387 22.387 22.387l118.844 118.844c0 12.364 10.023 22.387 22.387 22.387s22.387-10.023 22.387-22.387-10.023-22.387-22.387-22.387z" fill="#2E2C09"/><path d="M128.019 110.632c0-12.364-10.023-22.387-22.387-22.387s-22.387 10.023-22.387 22.387 10.023 22.387 22.387 22.387l118.844 118.844c0 12.364 10.023 22.387 22.387 22.387s22.387-10.023 22.387-22.387-10.023-22.387-22.387-22.387z" stroke="#2E2C09" stroke-width="73.362" fill="none"/><path d="M191.578 96.712c8.742-8.742 8.742-22.917 0-31.659-8.743-8.743-22.918-8.743-31.66 0-8.743 8.742-8.743 22.917 0 31.659v168.071c-8.743 8.743-8.743 22.917 0 31.66 8.742 8.743 22.917 8.743 31.66 0 8.742-8.743 8.742-22.917 0-31.66z" fill="#2E2C09"/><path d="M192.078 97.212c8.742-8.742 8.742-22.917 0-31.659-8.743-8.743-22.918-8.743-31.66 0-8.743 8.742-8.743 22.917 0 31.659v168.071c-8.743 8.743-8.743 22.917 0 31.66 8.742 8.743 22.917 8.743 31.66 0 8.742-8.743 8.742-22.917 0-31.66z" stroke="#2E2C09" stroke-width="73.362" fill="none"/><path d="M246.363 132.519c12.364 0 22.387-10.023 22.387-22.387s-10.023-22.387-22.387-22.387-22.387 10.023-22.387 22.387L105.132 228.976c-12.364 0-22.387 10.023-22.387 22.387s10.023 22.387 22.387 22.387 22.387-10.023 22.387-22.387z" fill="#2E2C09"/><path d="M246.863 133.019c12.364 0 22.387-10.023 22.387-22.387s-10.023-22.387-22.387-22.387-22.387 10.023-22.387 22.387L105.632 229.476c-12.364 0-22.387 10.023-22.387 22.387s10.023 22.387 22.387 22.387 22.387-10.023 22.387-22.387z" stroke="#2E2C09" stroke-width="73.362" fill="none"/><g fill="#FFF"><path d="M89.632 162.837c-8.743-8.742-22.917-8.742-31.66 0-8.743 8.743-8.743 22.918 0 31.66 8.743 8.743 22.917 8.743 31.66 0h168.071c8.742 8.743 22.917 8.743 31.66 0 8.742-8.742 8.742-22.917 0-31.66-8.743-8.742-22.918-8.742-31.66 0z"/><path d="M125.439 108.052c0-12.364-10.023-22.387-22.387-22.387s-22.387 10.023-22.387 22.387 10.023 22.387 22.387 22.387l118.844 118.844c0 12.364 10.023 22.387 22.387 22.387s22.387-10.023 22.387-22.387-10.023-22.387-22.387-22.387z"/><path d="M189.497 94.632c8.743-8.743 8.743-22.917 0-31.66-8.742-8.743-22.917-8.743-31.66 0-8.742 8.743-8.742 22.917 0 31.66v168.071c-8.742 8.742-8.742 22.917 0 31.66 8.743 8.742 22.918 8.742 31.66 0 8.743-8.743 8.743-22.918 0-31.66z"/><path d="M244.283 130.439c12.364 0 22.387-10.023 22.387-22.387s-10.023-22.387-22.387-22.387-22.387 10.023-22.387 22.387L103.052 226.896c-12.364 0-22.387 10.023-22.387 22.387s10.023 22.387 22.387 22.387 22.387-10.023 22.387-22.387z"/></g><path d="M295.667 210c-97.942 0-177.334 79.392-177.334 177.333 0 32.346 8.796 62.564 23.923 88.667h306.822C464.204 449.897 473 419.679 473 387.333 473 289.392 393.608 210 295.667 210zm85.687 98.509l-53.98 80.97c2.323 4.717 3.759 9.966 3.759 15.588 0 19.595-15.871 35.466-35.466 35.466-19.596 0-35.467-15.871-35.467-35.466 0-19.596 15.871-35.467 35.467-35.467.744 0 1.454.177 2.181.213l53.998-80.988c5.426-8.158 16.439-10.357 24.596-4.912 8.14 5.444 10.339 16.438 4.912 24.596z" fill="#F87049"/></svg>