<svg xmlns="http://www.w3.org/2000/svg" width="500" height="500" viewBox="0 0 500 500"><path d="M145.2 267q-20.8 0-38-9.9t-27.1-27q-9.9-17.1-9.9-37.9 0-20.8 9.9-37.9 9.9-17.1 27.1-27 17.2-9.9 38-9.9 32.4 0 53.6 23.4l-19 18.4Q166 143 145.4 143q-13.4 0-24.4 6.1-11 6.1-17.3 17.3-6.3 11.2-6.3 25.8 0 14.6 6.3 25.8 6.3 11.2 17.3 17.3 11 6.1 24.4 6.1 22.6 0 37.8-18.8l19.2 18.2q-10.6 12.8-25.1 19.5-14.5 6.7-32.1 6.7zm82.2-146.4h27v117.6H315v25.6h-87.6zM380.8 267q-18.8 0-33.2-10.6-14.4-10.6-20.2-30l25.4-10q3 11.4 10.2 18.2 7.2 6.8 18 6.8 9 0 15.4-4.5t6.4-12.5q0-8-6.1-13.1T375 200.4l-8.8-3.2q-13.8-4.8-23.6-14.7-9.8-9.9-9.8-24.9 0-11.2 5.8-20.4t16.4-14.5q10.6-5.3 24-5.3 19.4 0 30.6 9.1 11.2 9.1 15.4 21.3l-23.8 10q-2.2-6.6-7.7-11.1t-14.1-4.5q-8.8 0-14.5 4.1-5.7 4.1-5.7 10.7 0 6.4 5.4 10.9t17.8 8.7l9 3q18.6 6.4 28.5 16.9 9.9 10.5 9.9 27.5 0 14-7.2 23.7t-18.5 14.5q-11.3 4.8-23.3 4.8z" fill="#5A86F3"/><path d="M172.444 323h150.445v79H172.444v-79z" fill="#F8A849"/><path d="M22 323h150.444v79H22v-79z" fill="#33AF6D"/><path d="M322.889 323h150.444v79H322.889v-79z" fill="#F87049"/></svg>