<svg xmlns="http://www.w3.org/2000/svg" width="595.28" height="595.281" viewBox="123.305 0 595.28 595.281"><g fill="#2687B2"><path d="M185.465 297.632c0 93.205 54.162 173.765 132.719 211.925l-112.329-307.76c-13.065 29.285-20.39 61.695-20.39 95.835m394.443-11.877c0-29.112-10.457-49.258-19.414-64.943-11.936-19.407-23.133-35.822-23.133-55.228 0-21.644 16.414-41.793 39.547-41.793 1.043 0 2.033.125 3.051.188-41.895-38.386-97.713-61.824-159.017-61.824-82.271 0-154.642 42.213-196.748 106.136 5.53.178 10.737.285 15.155.285 24.625 0 62.76-2.992 62.76-2.992 12.687-.743 14.187 17.904 1.507 19.406 0 0-12.763 1.491-26.951 2.236L362.412 442.3l51.54-154.552-36.684-100.522c-12.689-.745-24.7-2.236-24.7-2.236-12.692-.751-11.203-20.149 1.494-19.406 0 0 38.882 2.992 62.019 2.992 24.62 0 62.76-2.992 62.76-2.992 12.695-.743 14.191 17.904 1.502 19.406 0 0-12.773 1.491-26.945 2.236l85.1 253.13 23.492-78.478c10.166-32.584 17.918-55.97 17.918-76.123"/><path d="M425.078 318.232l-70.662 205.3a235.407 235.407 0 0066.525 9.596c27.422 0 53.725-4.735 78.199-13.349-.625-1.013-1.211-2.081-1.688-3.245l-72.374-198.302zm202.5-133.57c1.01 7.5 1.582 15.546 1.582 24.216 0 23.885-4.473 50.747-17.908 84.341L539.33 501.17c70.008-40.816 117.088-116.664 117.088-203.539-.001-40.941-10.46-79.43-28.84-112.969"/><path d="M420.943 559.554c-144.415 0-261.911-117.502-261.911-261.921 0-144.415 117.496-261.904 261.911-261.904 144.416 0 261.912 117.489 261.912 261.904 0 144.419-117.496 261.921-261.912 261.921m0-536.413c-151.362 0-274.499 123.134-274.499 274.492 0 151.367 123.137 274.508 274.499 274.508 151.359 0 274.504-123.141 274.504-274.508 0-151.358-123.145-274.492-274.504-274.492"/></g></svg>