<svg xmlns="http://www.w3.org/2000/svg" width="500" height="500" viewBox="0 0 500 500"><path d="M408.243 144.443L298.157 34.355A45.606 45.606 0 00265.912 21H102.4c-25.184 0-45.6 20.415-45.6 45.6v364.8c0 25.184 20.416 45.6 45.6 45.6H376c25.184 0 45.6-20.416 45.6-45.6V176.688a45.598 45.598 0 00-13.357-32.245zM102.4 431.4V66.6H262v91.2c0 12.591 10.207 22.8 22.8 22.8H376v250.8H102.4z" fill="#59AC71"/><path d="M419.548 135.071L291.19 263.428l-59.9-59.9-42.786 42.786L291.19 349l171.143-171.143z" fill="#FFF"/></svg>