<svg xmlns="http://www.w3.org/2000/svg" width="500" height="500" viewBox="0 0 500 500"><g opacity=".15" fill="#FFF"><path d="M254.055 298.111L22 207.318V106.786L254.055 16l232.054 90.786v100.532l-232.054 90.793zM52.085 187.897l201.97 79.026 201.969-79.018v-61.699L254.055 47.188l-201.97 79.018v61.691z"/><path d="M254.055 484L37.577 399.307v-191.57h30.085v172.15l186.393 72.925 186.393-72.925v-172.15h30.085v191.57z"/><path d="M254.055 213.101L32.786 126.517l8.521-20.049 212.748 83.234 212.747-83.234 8.522 20.049z"/><path d="M242.773 201.405h22.564v81.112h-22.564zm0 86.635h22.564v181.377h-22.564z"/></g><path d="M250.333 141c-76.217 0-138 61.783-138 138 0 25.171 6.845 48.686 18.616 69h238.768c11.772-20.314 18.616-43.829 18.616-69 0-76.217-61.782-138-138-138zm66.682 76.659l-42.007 63.011c1.808 3.671 2.925 7.755 2.925 12.13 0 15.249-12.351 27.6-27.6 27.6s-27.6-12.351-27.6-27.6 12.351-27.6 27.6-27.6c.58 0 1.132.138 1.698.166l42.021-63.025c4.223-6.348 12.792-8.059 19.14-3.823 6.335 4.237 8.046 12.793 3.823 19.141z" fill="#F87049"/></svg>