<svg xmlns="http://www.w3.org/2000/svg" width="500" height="500" viewBox="170.945 47.64 500 500"><path d="M625.683 249.277l.391.39zm15.291 22.851a67.76 67.76 0 00-14.899-22.46l-.001-.001a67.756 67.756 0 00-22.459-14.899 67.838 67.838 0 00-19.535-4.696 67.635 67.635 0 004.229-5.603 67.737 67.737 0 008.55-17.792 67.83 67.83 0 003.056-20.163 67.762 67.762 0 00-5.344-26.417 67.952 67.952 0 00-24.545-29.82 67.713 67.713 0 00-17.793-8.55 67.85 67.85 0 00-20.161-3.056 67.746 67.746 0 00-26.418 5.345 67.904 67.904 0 00-17.138 10.49 67.874 67.874 0 00-4.698-19.535 67.794 67.794 0 00-14.9-22.46v.002a67.742 67.742 0 00-22.459-14.901 67.888 67.888 0 00-25.514-4.971 67.88 67.88 0 00-25.514 4.971 67.766 67.766 0 00-22.46 14.901 67.746 67.746 0 00-14.899 22.459 67.84 67.84 0 00-4.696 19.533 68.55 68.55 0 00-5.604-4.229 67.715 67.715 0 00-17.791-8.55 67.863 67.863 0 00-20.163-3.056 67.744 67.744 0 00-26.417 5.345 67.953 67.953 0 00-29.819 24.544 67.678 67.678 0 00-11.607 37.954 67.746 67.746 0 005.345 26.418 67.895 67.895 0 0010.491 17.139 67.84 67.84 0 00-19.535 4.697 67.772 67.772 0 00-22.459 14.899l-.002.001a67.753 67.753 0 00-14.9 22.46 67.901 67.901 0 00-4.97 25.513 67.895 67.895 0 004.97 25.514 67.785 67.785 0 0014.9 22.459l.002.001a67.756 67.756 0 0022.459 14.899 67.776 67.776 0 0019.533 4.696 68.864 68.864 0 00-4.229 5.602 67.728 67.728 0 00-8.55 17.793 67.863 67.863 0 00-3.056 20.163 67.757 67.757 0 005.345 26.418 67.952 67.952 0 0024.544 29.818 67.708 67.708 0 0017.792 8.551 67.828 67.828 0 0020.162 3.055 67.744 67.744 0 0026.418-5.343 67.937 67.937 0 0017.14-10.491 67.887 67.887 0 004.696 19.535 67.782 67.782 0 0014.899 22.459 67.769 67.769 0 0022.46 14.9 67.888 67.888 0 0025.514 4.971 67.876 67.876 0 0025.514-4.971 67.78 67.78 0 0022.459-14.9 67.75 67.75 0 0014.9-22.459 67.842 67.842 0 004.698-19.535 67.658 67.658 0 005.601 4.229 67.693 67.693 0 0017.792 8.551 67.83 67.83 0 0020.163 3.055 67.747 67.747 0 0026.417-5.343 67.944 67.944 0 0029.819-24.545 67.684 67.684 0 0011.607-37.954 67.767 67.767 0 00-5.344-26.418 67.958 67.958 0 00-10.492-17.14 67.82 67.82 0 0019.536-4.696 67.772 67.772 0 0022.459-14.899l.001-.001a67.751 67.751 0 0014.899-22.459 67.888 67.888 0 004.971-25.514 67.843 67.843 0 00-4.97-25.513z" fill="#FFF"/><path fill="#EDA921" d="M603.013 272.729c-13.759-13.758-36.065-13.758-49.824 0h-72.103l50.984-50.984c19.457 0 35.229-15.774 35.229-35.231 0-19.456-15.772-35.229-35.229-35.229s-35.23 15.773-35.23 35.229l-50.984 50.985v-72.103c13.758-13.759 13.758-36.064 0-49.824-13.758-13.758-36.064-13.758-49.822 0-13.758 13.76-13.758 36.065 0 49.824v72.103l-50.985-50.985c0-19.456-15.773-35.229-35.23-35.229-19.457 0-35.229 15.773-35.229 35.229 0 19.458 15.772 35.231 35.229 35.231l50.984 50.984H288.7c-13.758-13.758-36.064-13.758-49.823 0-13.758 13.758-13.758 36.064 0 49.822 13.759 13.759 36.065 13.759 49.823 0h72.104l-50.985 50.984c-19.457 0-35.229 15.773-35.229 35.23s15.772 35.229 35.229 35.229c19.458 0 35.23-15.772 35.23-35.229l50.985-50.985v72.104c-13.758 13.759-13.758 36.065 0 49.824 13.758 13.758 36.064 13.758 49.822 0 13.758-13.759 13.758-36.065 0-49.824V357.78l50.984 50.985c0 19.457 15.773 35.229 35.23 35.229s35.229-15.772 35.229-35.229-15.772-35.23-35.229-35.23l-50.985-50.984h72.104c13.759 13.759 36.065 13.759 49.824 0 13.758-13.757 13.758-36.064 0-49.822z"/></svg>