<svg xmlns="http://www.w3.org/2000/svg" width="500" height="500" viewBox="0 0 500 500"><path d="M83.652 121.8h27v117.6h60.6V265h-87.6zm175 146.4q-20.8 0-38-9.9t-27.1-27q-9.9-17.1-9.9-37.9 0-20.8 9.9-37.9 9.9-17.1 27.1-27 17.2-9.9 38-9.9 32.4 0 53.6 23.4l-19 18.4q-13.8-16.2-34.4-16.2-13.4 0-24.4 6.1-11 6.1-17.3 17.3-6.3 11.2-6.3 25.8 0 14.6 6.3 25.8 6.3 11.2 17.3 17.3 11 6.1 24.4 6.1 22.6 0 37.8-18.8l19.2 18.2q-10.6 12.8-25.1 19.5-14.5 6.7-32.1 6.7zm82.2-146.4h50.4q13.6 0 24.8 5.7 11.2 5.7 17.6 16 6.4 10.3 6.4 23.5t-6.4 23.6q-6.4 10.4-17.6 16.1-11.2 5.7-24.8 5.7h-23.4V265h-27zm51.2 65q10 0 15.7-5.8 5.7-5.8 5.7-14t-5.7-13.9q-5.7-5.7-15.7-5.7h-24.2v39.4z" fill="#FFF"/><path d="M172.444 323h150.445v79H172.444v-79z" fill="#F8A849"/><path d="M22 323h150.444v79H22v-79z" fill="#33AF6D"/><path d="M322.889 323h150.444v79H322.889v-79z" fill="#F87049"/></svg>