<svg xmlns="http://www.w3.org/2000/svg" width="500" height="500" viewBox="0 0 500 500"><path d="M99.252 216.405c-13.049 6.138-47.587 33.77-54.239 41.957-6.909 8.187-8.955-4.604-1.792-25.84 5.628-17.141 19.957-40.424 44.006-60.379 14.07-11.513 45.029-28.142 63.96-37.865 3.839-2.048 53.472-23.027 97.734-33.516 3.838-1.024-4.605 6.396-5.885 10.489-6.652 19.444-139.436 102.85-139.436 102.85l-4.348 2.304zm187.022 234.609c2.302 13.815.256 14.839-14.071 16.63-14.328 1.791-24.817-3.582-28.654-7.163-3.839-3.584-4.605-11.513-.768-18.677 2.304-4.606 4.606-6.141 5.886-11.769 1.279-5.372 2.303-6.652 3.325-8.698 1.022-1.793 1.28-3.584 1.535-16.12.256-12.535 0-36.074 1.28-46.051 1.28-10.233 45.541 4.605 45.541 4.605s-10.49 26.096-13.304 32.492c-2.815 6.397-2.559 18.676-2.559 21.235 0 2.559-1.022 7.675-1.791 7.931-.767.255 2.559 6.907 1.023 10.746-1.024 3.582 2.302 12.793 2.557 14.839zm16.887-391.188c-1.537-9.722 0-28.912 2.046-31.981 6.397-8.699 40.168-9.722 47.332.512 3.07 4.604 2.814 15.35 2.303 22.259-.512 6.907-2.303 21.746-2.559 26.608-.255 3.583-37.353 9.21-45.54-.512-2.304-2.558-3.582-16.886-3.582-16.886zm75.218 366.37c15.607 11.258 27.631 13.305 35.562 17.398 7.931 4.095 5.885 12.026-7.419 14.328-10.746 2.046-27.631-2.047-38.888-2.047-11.257 0-36.331 1.28-42.983-3.325-7.675-5.372-4.35-15.352-4.35-15.352 2.047-5.627 7.163-18.165 5.628-28.398-1.534-10.234-3.582-15.862-7.419-25.329-3.837-9.466-6.651-32.747-3.069-34.027 3.583-1.28 2.558 0 7.164 1.022 4.604 1.023 9.722 2.559 19.7 2.559s20.979-1.536 24.817-2.302c3.838-.768 6.907-1.537 5.628 6.396-1.279 7.93-5.116 22.77-5.373 34.283-.255 11.513-.255 24.817.513 27.12.766 2.302 6.396 4.861 10.489 7.674z"/><g fill="#88CE02"><path d="M323.628 85.411c-28.142 24.307-82.638 30.957-163.484 62.171-20.724 7.931-75.986 31.724-89.29 56.542 44.772-25.84 61.403 9.722 64.984 46.308 3.325 34.283 20.468 52.193 64.473 51.168 45.285-1.022 59.101 25.329 71.636 56.287 24.305-118.457 63.194-141.482 88.266-161.694 53.217-43.239-12.28-119.481-36.585-110.782z"/><path d="M323.628 85.411c-67.542 23.538-134.319 29.423-212.863 77.778-18.676 11.513-58.077 37.608-65.752 87.499 28.653-31.726 94.917-71.637 176.021-96.965 40.935-12.793 70.87-21.235 107.199-35.307-2.557-16.376-2.557-22.771-4.605-33.005z"/></g><path d="M409.848 225.614s-4.861 16.63-14.583 22.004c0 0-7.164 2.559-21.49-5.372-4.094-2.303-7.164-10.233-6.909-12.793.256-6.141 4.094-8.955 4.094-8.955s4.094-6.908 8.954-6.652c4.862.255 13.05 1.022 15.608-1.28 2.301-2.559 14.838 4.605 14.326 13.048zM305.463 64.687s-1.022 13.05-2.814 21.236c-.256 1.536-7.93 2.302-13.56 4.606 10.746 30.7 75.475 30.444 83.918 15.35-4.093-2.814-12.281-7.163-16.118-8.698-3.838-1.536-3.582-1.28-3.838-8.444-.255-7.164-.768-20.467-1.28-24.05-.512-3.582-40.168-3.582-46.308 0z"/><path d="M308.022 64.687s0 7.42-.768 14.583c-.255 3.326-.511 5.373-1.022 7.931-.257 1.536 8.698 7.675 11.257 21.235 12.28 27.375 40.68 13.816 52.448.768-4.093-2.815-10.746-6.652-18.42-9.722-3.839-1.536-2.048-4.861-2.302-12.025-.257-7.163-1.28-17.654-1.792-21.491-.513-3.837-33.26-4.861-39.401-1.279z" fill="#EFEFEF"/><path d="M305.463 64.687s-.256 4.606-1.022 9.979c3.324 3.324 7.674 7.93 11.001 10.745 2.303 2.048 7.93 1.791 13.049 1.791 4.604 0 8.698.512 10.489-.511 4.095-2.047 9.978-7.163 13.304-11.002-.255-4.604-.511-8.954-.766-11.002-.259-3.582-39.915-3.582-46.055 0z"/><path d="M328.746 84.131c-3.072 0-6.654-.255-9.467-.767-1.28-.255-2.559-1.023-3.583-1.535-1.791-1.28-3.582-2.814-5.627-4.35-4.095-3.07-4.35-4.861-4.35-5.627 1.791-16.119-.512-29.679-.512-29.679s-1.791-6.908 7.931-8.699c9.722-1.791 15.606-2.046 15.606-2.046s6.141 0 15.607 2.046c9.722 1.791 7.931 8.699 7.931 8.699s-2.303 13.56-.511 29.679c0 .766-.255 2.557-4.35 5.627-3.582 2.559-6.396 5.372-9.21 5.885-2.815.512-6.397.767-9.465.767z"/><path d="M328.746 24.776c-16.886 0-20.213 4.604-25.074 9.722-1.023 1.278-.256 8.954 1.536 25.328h2.302s-1.536-4.606-1.28-9.978c.257-5.372 1.28-5.116.512-6.396-1.023-1.536-3.07-4.095 1.536-6.652 4.605-2.559 11.768 2.046 20.468 2.302 8.698-.256 16.117-4.861 20.722-2.302 4.605 2.557 2.559 5.116 1.536 6.652-1.023 1.535.255 1.023.512 6.396.255 5.372-1.28 9.978-1.28 9.978h2.302c1.535-16.374 2.559-23.537 1.791-24.817-4.35-5.629-8.698-9.978-25.583-10.233zm81.102 201.606s-4.861 15.606-14.327 20.978c-2.048-1.022-1.791-2.557-3.582-4.861-.513-.766-2.304-1.279-3.07-2.046-.768-.767-.512-2.047-1.791-3.07-1.024-1.023-1.792-.256-2.815-1.023-1.023-1.023-1.28-2.303-2.046-3.069-.513-.512-2.559-.767-3.07-1.28-1.28-1.28-12.536-3.582-12.025-6.141 1.023-3.838 3.07-6.652 3.07-6.652s4.861-7.163 9.721-6.908c4.861.256 9.467 1.28 12.026-1.023 2.814-2.56 18.677 6.907 17.909 15.095z"/><path d="M376.588 113.299s16.118-3.839 27.12 6.652c11.002 10.745 10.233 24.049 6.908 32.236 2.814 3.326 7.931 12.535 4.094 23.537 16.885 14.327 9.466 36.331-5.629 50.914 0 0-3.582-13.305-17.909-14.072.512-5.116-13.304-9.211-6.908-22.515-9.722-2.302-9.466-8.955-11.001-17.14-1.28-8.189 3.325-59.612 3.325-59.612z"/><path d="M370.703 120.462s18.677-9.466 29.679 1.28c11.001 10.746 7.929 22.514 4.605 30.701 2.813 3.325 9.465 12.793 5.372 24.049-.768 2.558-6.396 2.558-10.491 9.21 10.233-5.886 16.631-4.349 18.933 3.069 3.582 11.513-4.35 25.329-11.257 33.005 0-.257-.256-.513-.256-.768-1.023 3.839-2.303 11.257-9.977 19.444-3.839 4.094-6.909 3.582-11.258 2.559-5.116-1.28-6.908-3.584-14.071-7.42-4.093-2.302-1.791-5.117-1.791-7.42 0-.511.511-1.279 1.28-2.302.511-1.28 2.046-3.325 4.348-5.628 0 0 3.326-4.605 8.189-4.35 4.861.256 9.977-.766 11.257-2.046 0-8.955-10.234-9.211-6.653-24.562.257-.767 1.537-2.047 5.629-2.558-6.141-1.28-8.955-1.536-13.304-5.629-3.07-2.813-5.373-6.396-6.141-11-1.534-7.931-4.093-49.634-4.093-49.634z" fill="#EFEFEF"/><path d="M316.72 104.344c-1.535-2.047-9.466-12.281-24.561-16.374-4.35-1.28-7.164 2.302-11.512 4.861-1.28-.768-6.909-3.326-9.978-1.536-3.07 1.79-5.116 3.582-8.188 4.861-1.536-.768-5.628-.768-8.954.511-3.326 1.024-8.443 3.326-13.304 9.978-3.07 11.002 54.238 2.814 54.238 2.814l22.259-5.115z"/><path d="M317.232 104.344c-8.188-2.815-6.908-12.281-25.073-13.816-3.583-.256-5.885 2.558-8.444 4.349 1.28 1.28 2.559 3.326 3.326 5.372-2.302-2.557-6.395-5.884-10.49-6.652-3.838-.766-6.396 2.047-10.49 4.095.766.766 1.535 2.046 2.558 3.582-3.583-2.302-6.14-3.07-11.001-1.28-3.326 1.023-9.722 3.838-14.583 10.746-3.07 11.002 51.681-1.28 51.681-1.28l22.516-5.116z" fill="#88CE02"/><path d="M365.331 108.438s0-2.815-.256-5.373c0-.511-2.046-1.791-2.046-2.302l-.511-.512s4.093-2.303 7.163-1.023c3.325 1.023 5.116 5.372 5.116 5.372 5.885-2.046 6.396.257 9.211 3.326 6.141-1.28 6.907 1.023 10.745 6.653 0 0-4.604-.768-13.559.766-8.699 1.278-15.863-7.164-15.863-6.907z"/><path d="M364.307 107.158s1.535-1.28 1.023-1.537c2.814-1.534 6.652-3.324 8.443 1.537 5.885-2.048 6.652.767 9.466 3.838 7.163-3.326 7.675.766 8.187 2.558-2.302 0-5.627.256-10.233.767-8.698 1.28-17.142-7.42-16.886-7.163z" fill="#88CE02"/><path d="M277.321 100.762s14.583 5.116 26.863 4.348c12.281-1.022 33.26-2.046 44.517 4.606 0 0 11.513-4.095 22.259-1.28 10.747 2.814 30.446 21.235 24.562 40.679-.512 1.28-3.838 3.327-7.676 4.607 0 0 2.048 8.698-1.535 15.861-3.582 6.909-11.513 20.213-11.769 38.633-.255 3.07-.766 9.466-1.279 12.536-19.956-.766-50.657-8.187-80.847-7.675.255-3.325.511-5.372.768-8.698h.766c-1.535-8.443-2.046-12.793-3.582-19.189-9.722-6.14-19.957-13.303-28.654-26.864-8.443-13.56 15.607-57.564 15.607-57.564zm98.756 138.156s15.863 56.799-2.814 80.593c0 0 2.814 11-3.582 22.77-1.024 5.116-2.304 9.722-3.07 14.838-3.326 21.235-8.956 30.189-10.491 64.216l-15.351-.255s-1.791-24.561-7.164-37.609c-3.068-7.418-15.095-17.398-14.581-27.375.511-7.676 2.046-14.072 15.095-24.306 1.022-14.838-13.817-28.911-11.513-84.173l53.471-8.699z"/><path d="M371.472 236.615c4.094 26.096 13.559 64.729-3.582 83.66.766 3.583 1.278 8.7.255 14.583-.511 3.07-1.535 6.396-2.814 9.977-2.558 6.141-3.582 15.096-4.35 20.468-3.326 21.235-3.326 22.26-4.861 56.287l-15.351-.256s-1.791-24.561-7.164-37.608c-3.068-7.42-9.465-13.816-9.977-23.794-.511-7.674 4.861-23.025 17.654-22.514-.767-30.957-15.095-24.817-18.932-89.29l49.122-11.513zm-94.151-135.853s5.628 1.791 11.768 2.302c6.141.511 12.793 0 18.676-.256 12.281-1.023 29.679-2.303 41.192 4.35 0 0 6.396-2.048 13.304-1.537 3.07.257 6.141 2.815 9.722 3.839 11.257 2.814 22.003 21.49 17.141 38.377-.512 1.28-4.094 0-8.187 1.28.766 3.582 1.28 11.769-2.815 20.467-4.349 8.7-9.977 19.957-8.955 41.448-26.863-1.28-38.888-3.07-65.496-4.349-2.303-9.467-3.839-18.933-4.094-23.794 3.582-1.791 5.627-3.325 8.443-6.396-7.674 1.28-10.745.767-15.351-1.791-4.605-2.559-12.792-10.746-16.886-16.118-.511-.513-3.325 7.929-9.72 8.187-2.304-3.326 7.418-12.793 5.627-16.374-6.395-13.05 5.631-49.635 5.631-49.635z" fill="#EFEFEF"/><path d="M373.517 215.38s.511 9.21.511 11.513c0 2.558 2.048 10.233 2.303 13.815-2.814 4.861-15.095 15.863-37.353 19.957-22.003 4.605-51.169-29.934-51.169-29.934.767-3.326 3.326-13.049 5.117-18.165.256-.511.768-1.791.768-2.302 2.303-3.326 79.823 5.116 79.823 5.116z"/><path d="M367.89 216.148c0 6.396 1.022 11.002 1.791 15.096 1.279 7.419 3.325 12.28 3.325 17.141 0 14.838-19.444 12.28-35.82 12.792-22.002 4.606-40.679-29.933-40.679-29.933 1.535-5.885 2.559-12.536 4.861-18.166.255-3.069.768-6.907 1.023-8.698 31.213 0 53.216 1.791 66.009 3.069.512 2.815.001 7.676-.51 8.699z" fill="#EFEFEF"/><path d="M343.327 249.152s-13.559-30.19-54.239-21.234c-9.721 27.375-22.77 58.844-14.327 92.871-8.443 11.513-18.165 17.911-18.165 39.144 0 21.236 1.023 24.818 1.023 24.818l29.934 1.536s9.722-12.535 13.559-26.096c1.024-3.839 2.047-10.746 1.28-18.677 1.022-1.534 5.372-5.116 5.885-12.024 0 0 14.583-7.675 23.026-26.351 7.932-16.889 5.885-31.472 12.024-53.987z"/><path d="M343.327 249.152c-.766-2.814-11-30.445-48.866-22.259-22.258 59.357-14.07 83.918-10.746 94.662-15.095 19.188-22.002 23.282-18.931 62.171h19.956c9.21-14.583 11.257-19.957 11.768-39.144 0-.768-2.813 1.535-4.861 4.093 1.537-7.931 5.885-9.465 9.211-14.326 1.535-2.048 2.814-5.118 2.814-9.211 17.909-12.025 24.561-27.12 28.398-42.727 3.071-10.744 6.653-28.398 11.257-33.259z" fill="#EFEFEF"/><path d="M280.134 207.961s6.909.255 13.05 2.303c5.884 2.046 5.884 3.324 8.187 5.884 2.302 2.56 7.931 6.396 6.908 10.234-.512 2.047-1.791 2.558-3.582 4.349-.768.768-6.397 6.907-7.676 7.675-.768.511-1.791 1.28-2.559 1.791-.766.511-3.068 2.048-3.837 2.559-2.559 1.28-4.35 2.047-7.163 1.791 0 0-6.396-.256-10.491-4.605 0 0-.511-2.047.512-3.07 0 0-5.373-4.606-6.908-7.676-1.536-3.068-1.536-7.418-.511-9.72.511-2.305 10.488-8.701 14.07-11.515zm6.397 248.937l-.767 6.398s-2.302 2.813-19.444 2.558c-17.398-.256-22.003-5.628-23.538-8.443l-1.022-6.652s3.326-4.861 4.094-4.861c5.628.511 24.817 8.187 38.121 10.233 1.277 0 1.532.511 2.556.767zm37.097-13.048c0 2.814-.256 2.814-.256 5.629 3.07 2.302 10.747 3.582 25.329 3.325 21.235-.512 40.935 6.397 64.984 2.302l.256-4.605-2.302-.255-85.197-6.908-2.814.512z"/><path d="M342.305 452.805h6.396c13.817-.511 26.865 2.559 40.935 3.326 7.42-.256 16.631-2.047 15.863-7.42l-72.66-6.141c-4.35 4.861-1.025 8.955 9.466 10.235zm-83.406-107.711c2.303 1.535 17.909 10.746 43.238 9.466-.513 4.861-.256 14.328-11.513 30.957-5.629 8.187-10.491 22.515-11.513 40.681.256 4.093 2.558 7.674-.512 13.048 1.023 3.324 5.116 9.977 7.164 14.07 2.046 4.095 3.07 8.7-10.491 8.956-13.815.255-36.074-1.28-33.003-12.024 1.536-5.629 5.884-11.514 6.397-13.817.511-2.303.511-9.21 4.86-13.816 3.838-12.792 2.558-25.072 1.792-36.585-1.28-12.026-1.536-31.214 3.581-40.936zm23.794-208.514c18.165-24.306 2.814-43.749-26.351-37.866-11.77 2.303-23.538 10.491-24.306 25.329-3.838.511-12.536 1.022-16.886 16.885-3.325 12.281-5.116 14.583-11.002 20.723-3.837 4.35.256 13.304 3.07 19.702 9.467 22.002 38.633 24.048 58.333 40.679 6.652-1.791 13.56-9.21 15.607-14.071-16.63-19.701-13.049-27.376-19.701-37.609 7.164-2.56 23.538-12.537 21.236-33.772z"/><path d="M279.111 135.045c1.022-1.536 2.813-4.861 3.582-6.141.256-.256 3.07 4.605 3.326 4.35 6.907-11.258 8.698-27.633.766-29.167-1.791-.257-5.116-1.023-7.931-2.048-5.116-1.791-9.72-1.791-17.909-.255-11.257 2.046-22.514 10.233-22.514 22.003 0 .767 7.93 3.07 10.234 12.537-3.839-5.374-10.491-11.259-18.422-6.141-8.443 5.372-4.093 17.653-15.35 30.444-3.839 4.35-3.326 9.467.766 19.701 6.652 16.119 38.122 24.817 55.263 40.168 4.094-1.792 6.907-5.885 8.955-8.955-11.513-12.024-16.119-23.283-19.444-31.47-4.094-9.465-8.7-14.838-17.654-22.003 4.606 1.791 8.188 3.582 10.233 5.117 2.302 1.535 5.628 1.791 8.699.767 11.004-3.835 16.888-19.186 17.4-28.907z" fill="#EFEFEF"/><path d="M390.404 139.139c-.768 9.722-7.931 4.861-11.769 3.069-7.675-3.326-15.351-5.628-24.306-5.628-8.954 0-20.467.767-30.444 3.326-13.816 3.837-17.911 3.582-24.05.511-6.14-3.326-16.885-11.513-16.885-11.513s-.256 2.559 2.303 5.885c3.325 4.093 10.746 9.211 20.722 12.535 4.861 1.537 8.7.512 13.05-.511 22.77-5.628 46.819-6.652 67.03 5.629 1.024.511 4.606-1.024 6.141-3.327 2.045-3.324-1.792-9.976-1.792-9.976z"/><path d="M273.995 236.615c2.046 1.28 4.604 2.047 7.418 4.35 0 0-2.302 0-3.325-1.023-1.28-.767-3.838-3.07-4.093-3.327z" fill="#001423"/><path d="M347.933 33.73c-.767-2.302-6.397-6.397-19.444-6.397-14.071 0-18.165 4.35-18.42 6.652 0 .768-1.024 8.956-1.28 12.281 0 0 0 4.093.255 10.233.256 4.094 1.28 6.396 1.791 11.769.511 5.628 2.048 9.21 4.861 13.816 1.28.766 2.303 1.535 3.583 1.791 5.117 1.023 14.071 1.279 18.932 0 2.814-.767 6.396-5.628 7.164-9.978 1.022-5.372 2.046-9.211 2.302-12.536.511-3.325.768-10.745 1.022-12.793.769-5.627-.511-14.327-.766-14.838z" fill="#EFEFEF"/><path d="M321.07 349.955s13.56 5.885 47.076.768c0 0-9.466 47.587-5.116 71.38 0 0 4.349 6.141 36.586 17.909 0 0 14.326 3.582 13.815 10.747 0 0 .511 1.535-16.885 1.022-17.397-.512-33.772-3.582-45.285-3.582-11.514 0-23.794.511-25.84-2.814-2.303-3.07.511-11.002 3.837-15.608 3.584-4.859 2.559-8.443 2.304-17.14-.77-22.77-18.168-46.308-10.492-62.682z"/><path d="M318.255 354.305c-1.791 2.559.255 12.279 2.813 21.746 2.559 9.466 8.189 15.096 9.467 30.701 1.279 15.351 1.535 17.398-2.814 26.351-4.35 8.954-5.629 17.142 9.465 17.398 15.095.257 23.283-.256 38.633 2.048 15.352 2.302 20.724 3.07 29.168 1.791 8.443-1.279 10.233-4.095 6.652-6.652-3.583-2.559-18.422-5.373-24.818-10.491-6.141-4.605-23.537-12.281-23.792-14.327-.768-6.908-1.024-31.981.255-40.168 1.28-8.188 3.07-19.956 3.582-23.026.513-3.07 3.07-6.141-1.28-5.117-4.348 1.022-20.723 3.326-33.003 2.558-12.281-.766-13.559-3.581-14.328-2.812z" fill="#88CE02"/><path d="M326.954 433.361c4.349 2.046 10.746 3.582 15.607 3.582 0 0-1.792 8.444 1.023 13.56 2.813 5.117-20.468 2.047-20.468 2.047l-1.023-18.165 4.861-1.024zm67.799 22.003c4.094-1.28 6.909-5.885 3.583-10.234-3.583-4.349-6.652-5.117-2.048-5.372 4.606-.256 21.492 9.977 21.492 9.977l-8.7 7.931-14.327-2.302zm-77.266-91.082c5.885 2.047 14.84 2.559 22.515 2.302 7.675-.255 19.188-1.28 26.609-3.837 7.418-2.559 4.349 2.814 4.349 2.814l-4.094 3.838s-9.722 3.838-25.584 3.583c-18.676-.257-24.306-2.303-24.306-2.303l.511-6.397zm.512 12.793c5.886 2.047 14.839 2.559 22.515 2.302 7.674-.255 17.909-.255 25.328-3.069 3.07-1.023 1.28 3.326 1.28 3.326l-1.28 2.302s-9.978 3.582-25.585 3.325c-18.676-.255-22.002-1.791-22.002-1.791l-.256-6.395z" opacity=".3"/><path d="M301.113 197.728c0 1.791 19.957 11.768 30.957 13.816 11.002 2.046 34.029 0 37.61-.768l-.513 3.582s-27.375 4.094-48.354-1.534c-20.98-5.629-18.676-6.909-18.676-6.909l-1.024-8.187z"/><path d="M258.387 415.963c3.07 1.536 14.071 4.35 21.235 2.815 1.022-.256 0-17.654 2.815-25.585 4.093-11.002 10.745-19.956 13.814-39.399-10.746-1.024-23.025-3.839-29.422-5.886-8.186 25.074-5.371 46.564-8.442 68.055zm17.143 16.119c1.791.512 3.069 2.558 3.582 1.28 1.022-2.303-1.791-6.652-2.048-9.722v-.256c-2.302-2.046-17.909-2.302-16.885-1.28-1.791 3.326-4.605 2.815-5.627 9.467-.511 3.325 3.582.511 7.418.255-6.907 4.605-14.838 10.491-16.118 15.607-1.535 7.163 1.024 9.211 8.7 13.049 6.652 1.535 14.583 1.791 20.723 1.535 6.908-1.28 8.188-4.605 6.14-9.211-3.072-6.908-5.118-15.863-5.885-20.724z" fill="#EFEFEF"/><path d="M278.343 99.738c8.443 4.861 20.213 3.582 24.561 3.326 1.024 0 11.259-1.791 11.77-1.536 1.022.256 1.022 1.024 1.022 1.024s-3.837 2.046-12.535 2.557c-8.187.511-17.909 0-23.282-2.557-6.397-2.814-1.536-2.814-1.536-2.814zm86.988 4.861c1.535 1.022 11.513 4.861 15.863 9.466 3.837 4.095 1.791 3.838 1.023 2.815-1.023-1.28-8.955-6.652-12.025-7.931-3.07-1.279-6.908-3.582-6.908-4.094 0-.511 2.047-.256 2.047-.256z"/><path d="M277.063 210.775c7.42-.511 15.096 1.28 19.957 6.396 2.558 2.558 6.652 5.372 6.141 7.931 0 .767-1.537 2.814-2.814 4.349-.767 1.023-3.07 3.325-3.839 4.094-1.022.767-4.604 3.582-5.372 4.093-.767.513-1.791 1.793-2.558 2.048-2.558 1.28-5.373.256-7.931-1.023-2.558-1.28.512-1.536-2.303-3.582-6.907-4.861-10.745-8.188-7.93-17.654.255-1.791 3.068-3.839 6.649-6.652z" fill="#EFEFEF"/><path d="M211.824 152.187c-23.026 9.21-81.616 38.378-98.245 47.332 13.816 8.698 20.212 29.677 22.259 50.913.255 2.047.511 3.838.767 5.884.255 1.791.512 3.07.767 3.839 0 .256 0 .767.256 1.022 15.095-41.19 69.078-84.684 71.125-88.01 1.022-1.535-1.28-8.187 2.302-14.582 4.606-8.19 13.562-11.772.769-6.398zm54.751 193.163c11.768-23.537 12.024-46.052 11.768-72.405 0-11.002 7.931-26.608 3.839-22.258-15.352 17.14-53.984 49.378-81.871 51.168 39.144-1.278 54.495 18.422 66.264 43.495z" opacity=".4"/><path d="M91.064 221.264c14.583-10.489 90.058-50.656 108.223-56.286 18.164-5.884 12.536-12.793 12.536-12.793s-73.684 31.725-117.689 59.101"/><path d="M305.974 147.326c-5.884-2.303-10.489 4.606-8.954 11.258 1.536 6.652 15.351 14.07 14.583 38.377-.512 19.956-4.861 28.142-4.861 28.142l-9.722-12.28s-1.535-27.632-4.861-31.725c-3.325-4.094-13.816-11.514-17.909-15.351-4.094-3.838 4.604-8.954 4.093-16.119-.511-6.907 4.35-20.723 4.35-20.723l23.281 18.421zm35.563 108.989c-.511 19.188 3.839 47.588 5.629 61.148 1.791 13.559 4.093 14.583 0 20.724-4.094 5.885-9.466 15.607-9.466 15.607l-17.654-1.536s14.072-17.909 14.838-21.236c.767-3.324-7.163-28.653-7.163-28.653l13.816-46.054zM307.51 77.224c3.583 7.93 7.931 11.512 14.838 13.816 4.094 1.535 20.212 3.582 26.609-3.583 2.814-3.326 1.022-12.28 1.022-12.28l-14.583 11.768-19.7-3.581-2.302-5.885-5.884-.255z" opacity=".4"/><path d="M309.544 95.377c6.652 4.35 23.283 8.443 27.887 9.211 4.605 1.022 12.025-4.861 15.607-6.396 3.839-1.791 10.491-2.815 18.165 4.093.768.768-1.791 4.094-1.791 4.094-.256-.256-1.791-.256-3.838-1.28-2.046-1.022-3.838-1.791-6.907-1.535-12.794 1.535-14.84 5.885-26.097 3.325-11.257-2.56-14.071-4.605-25.072-4.094" fill="#88CE02"/><path d="M309.544 95.377c6.652 4.35 23.283 8.443 27.887 9.211 4.605 1.022 12.025-4.861 15.607-6.396 3.839-1.791 10.491-2.815 18.165 4.093.768.768-1.791 4.094-1.791 4.094-.256-.256-1.791-.256-3.838-1.28-2.046-1.022-3.838-1.791-6.907-1.535-12.794 1.535-14.84 5.885-26.097 3.325-11.257-2.56-14.071-4.605-25.072-4.094" stroke="#000" stroke-width="1.586" stroke-linejoin="round" stroke-miterlimit="10" fill="none"/><path d="M306.742 95.644c8.443 3.583 24.817 7.42 29.422 8.444 4.605 1.023 12.024-3.583 15.607-5.885 6.397-4.093 14.583-.767 18.421 3.582 2.558 2.814 3.583 4.605 3.583 5.373 0 1.022-3.07 0-3.07 0-1.792-.768-3.839-1.023-5.373-2.048-2.047-1.022-4.094-2.557-7.163-2.302-12.793 1.536-15.352 5.885-26.352 3.326-11.001-2.559-13.816-4.861-25.584-4.095" fill="#88CE02"/><path d="M267.086 334.604c-.511-.512.511-1.023 0-1.023-3.325 0-7.931-2.559-10.49-6.141-11.001-15.862-27.12-26.351-56.286-25.584-43.751 1.023-61.148-16.885-64.473-51.168-1.791-18.677-6.909-36.842-17.398-47.077l-6.141 3.839c11.768 10.233 15.607 26.864 18.165 49.634 4.094 34.283 31.725 50.146 63.962 50.657 33.516.511 45.54 7.42 58.076 24.306 4.093 5.373 8.699 7.164 12.28 7.931l2.305-5.374z"/><path d="M385.799 170.096c.767 3.837 2.813 11.257 6.907 14.838 1.792 1.791 2.047 2.302.513 2.302-1.537 0-12.794-.511-12.794-.511l-3.069-5.372 8.443-11.257z" opacity=".4"/></svg>