<svg xmlns="http://www.w3.org/2000/svg" width="500" height="500" viewBox="0 0 500 500"><linearGradient id="a" gradientUnits="userSpaceOnUse" x1="90.915" y1="90.599" x2="409.113" y2="408.796" gradientTransform="matrix(1 0 0 -1 -.015 499.699)"><stop offset=".39" stop-color="#005af0"/><stop offset="1" stop-color="#04d4c2"/></linearGradient><path fill="url(#a)" d="M327.144 229.398l-94.387 157.08h-17.101l16.905-102.353-52.357.068s-.494.015-.728.015a8.53 8.53 0 01-8.534-8.526v-.01c0-2.023 1.882-5.452 1.882-5.452l94.079-156.892 17.386.075-17.332 102.51 52.628-.067s.561-.007.832-.007a8.529 8.529 0 018.535 8.525v.009c0 1.913-.751 3.593-1.814 5.018l.006.007zM250 25C125.732 25 25 125.74 25 250c0 124.269 100.732 225 225 225 124.26 0 225-100.731 225-225 0-124.26-100.74-225-225-225z"/></svg>