<svg xmlns="http://www.w3.org/2000/svg" width="500" height="500" viewBox="0 0 500 500"><path d="M263.898 21c61.682 0 111.683 50.774 111.683 113.517 0 1.158-.193 2.316-.193 3.475 43.631.096 79.056 36.101 78.96 80.504-.109 29.291-15.927 56.489-41.537 70.729C397.463 260.692 367.83 244.805 336 244c-35.997.085-67.604 22.134-81.5 55H108.392C60.708 298.903 22 259.617 22 211.16c0-38.515 24.422-71.238 58.592-83.014 4.537-27.607 28.283-48.747 56.759-48.747 9.266 0 18.05 2.317 25.869 6.275C181.174 47.449 219.399 21 263.898 21z" fill="#FFF"/><path d="M296.667 211c-97.942 0-177.334 79.392-177.334 177.333 0 32.346 8.796 62.564 23.923 88.667h306.822C465.204 450.897 474 420.679 474 388.333 474 290.392 394.608 211 296.667 211zm85.687 98.509l-53.98 80.97c2.323 4.717 3.759 9.966 3.759 15.588 0 19.595-15.871 35.466-35.466 35.466-19.596 0-35.467-15.871-35.467-35.466 0-19.596 15.871-35.467 35.467-35.467.744 0 1.454.177 2.181.213l53.998-80.988c5.426-8.158 16.439-10.357 24.596-4.912 8.14 5.444 10.339 16.438 4.912 24.596z" fill="#F87049"/></svg>