<svg xmlns="http://www.w3.org/2000/svg" width="500" height="500" viewBox="0 0 500 500"><path d="M188.25 184.667h123.5c8.526 0 15.438 7.312 15.438 16.333v98c0 9.021-6.912 16.333-15.438 16.333h-123.5c-8.526 0-15.438-7.312-15.438-16.333v-98c0-8.983 6.947-16.333 15.438-16.333zm123.5 70.151V201h-123.5v53.818l33.191-35.116c3.001-3.113 7.804-3.113 10.806 0l40.909 43.283 17.753-18.783c3.002-3.113 7.805-3.113 10.807 0l10.034 10.616zm0 23.03l-15.437-16.333-17.754 18.783c-3.001 3.113-7.804 3.113-10.806 0l-40.909-43.365-38.594 40.834V299h123.5v-21.152zm-38.594-44.181c-4.263 0-7.718-3.657-7.718-8.167s3.455-8.167 7.718-8.167 7.719 3.657 7.719 8.167-3.456 8.167-7.719 8.167z" fill="#47769B"/><path d="M153.392 72.529l7.424-.896V58.449H127.92v13.184l7.296.896c-2.432 13.824-3.84 21.888-4.864 28.8-1.408-6.144-3.328-12.288-11.648-40.192h-15.488c-7.552 25.6-9.088 32.256-11.136 40.32-.768-4.736-2.816-14.208-5.76-28.672L94 71.633V58.449H57.904v13.184l7.808 1.152 12.032 50.048h22.912c5.888-18.688 8.192-26.496 9.856-33.536 1.792 7.552 3.584 14.72 8.576 33.536h22.656zm70.52 43.776l-6.4-12.544c-6.272 3.456-12.928 4.992-20.352 4.992-8.32 0-12.8-4.224-14.208-10.368-.256-1.28-.256-3.456-.256-3.968h39.936c.256-2.176.384-4.736.384-5.632 0-16.512-4.48-32.512-28.288-32.512-17.408 0-32.64 11.648-32.64 35.456 0 19.712 11.136 33.152 30.08 33.152 11.904 0 21.632-2.688 31.744-8.576zM203.56 80.977h-20.224c.896-6.016 5.12-10.368 11.008-10.368 6.528 0 9.344 3.2 9.344 7.936 0 .768 0 1.536-.128 2.432zm29.816 39.552c8.704 2.56 18.816 4.096 29.184 4.096 20.608 0 33.536-11.776 33.536-36.096 0-21.12-7.936-31.616-21.888-31.616-7.936 0-16.256 4.224-21.12 8.064V27.985c-8.448 0-20.992 2.432-30.848 4.992v13.056h11.136zm19.84-12.16V75.857c3.84-1.28 7.168-2.176 11.264-2.176 5.504 0 9.984 5.12 9.984 16.768 0 13.696-5.12 18.688-13.056 18.688-3.072 0-5.504-.256-8.192-.768z" fill="#FFF"/><path d="M346.005 91.038c0-16.029-9.912-20.669-18.981-20.669-9.702 0-19.403 6.116-19.403 20.669 0 15.185 10.334 20.035 18.77 20.035 11.389 0 19.614-6.327 19.614-20.035z" fill="#59AC71"/><path d="M398.016 154.321v-13.312l-12.8-1.152v-16.384c3.072.384 6.144.512 9.344.512 20.48 0 33.536-11.52 33.536-35.84 0-21.12-7.808-31.744-21.12-31.744-8.32 0-17.28 4.48-21.76 8.192l-.384-8.32c-9.984.384-20.48 1.92-30.592 4.864v13.056h11.136v65.664l-10.496 1.152v13.312zm-12.8-46.72V75.473c3.84-1.28 7.168-2.048 11.136-2.048 6.144 0 10.112 4.864 10.112 16.64 0 13.696-5.248 18.432-13.056 18.432-3.072 0-5.632-.384-8.192-.896zM136.98 467v-13.44l-12.8-1.024 3.712-10.24h25.984l3.712 10.24-12.416 1.024V467H190.1v-13.44l-9.088-1.024-26.24-72.064H128.02l-26.752 72.064-9.216 1.024V467zm-3.712-42.112c5.12-15.232 6.528-20.48 7.936-25.216 1.152 4.992 2.304 9.344 7.168 25.216zM236.804 467l27.392-72.064 9.216-1.024v-13.44h-44.416v13.44l12.8 1.024c-14.464 41.6-15.744 45.568-17.024 49.28-1.28-4.608-2.304-7.68-16.384-49.28l12.544-1.024v-13.44h-45.44v13.44l8.96 1.024L211.46 467z" fill="#FFF"/><path d="M325.948 467v-13.44l-12.288-1.152v-57.344l12.288-1.152v-13.44h-45.952v13.44l12.288 1.152v57.344l-12.288 1.152V467z" fill="#EDAC54"/><path d="M383.756 467v-13.44l-15.232-1.024v-19.968h25.984v-17.536h-25.984v-17.024h23.296l1.92 11.264h14.208c0-19.2-.768-25.472-1.536-28.8H334.86v13.44l12.288 1.152v57.344l-12.288 1.152V467z" fill="#E77A4F"/></svg>