<svg xmlns="http://www.w3.org/2000/svg" width="200" height="50">
  <path fill="#1899D6" d="M142.717 47.5c-12.472 0-19.85-8.423-19.507-19.371.437-14.018 12.794-25.629 27.535-25.629 6.322 0 11.378 1.635 14.74 3.352l-1.966 10.366c-4.214-2.29-7.838-3.671-13.687-3.671-9.188 0-15.251 6.86-15.481 14.258-.186 5.894 3.364 10.768 10.227 10.768 1.552 0 3.349-.239 4.552-.54l2.687-14.176 10.45.002-4.051 21.393c-4.423 2.045-10.247 3.248-15.499 3.248M195.591 22.873l-20.819-12.421-5.502 29.056z"/>
  <path fill="#2F4049" d="M40.787 18.255c5.42 0 9.337 3.182 9.337 8.079 0 6.364-5.632 10.771-11.226 10.771-5.422 0-9.34-3.148-9.34-8.08.001-6.33 5.599-10.77 11.229-10.77M39.002 32.07c2.414 0 5.002-2.065 5.002-5.353 0-2.134-1.4-3.426-3.288-3.426-2.377 0-5.036 2.167-5.036 5.457.001 2.098 1.399 3.322 3.322 3.322M56.347 11.68h9.548c1.469 0 2.729.244 3.813.769 2.344 1.12 3.637 3.427 3.637 6.33 0 4.198-2.377 7.766-5.735 9.337a9.043 9.043 0 0 1-3.848.843H59.11l-1.504 7.728h-6.12l4.861-25.007zm6.75 12.031c.77 0 1.506-.141 2.063-.526 1.155-.768 1.888-2.202 1.888-3.846 0-1.469-.838-2.413-2.517-2.413h-3.078l-1.329 6.786h2.973zM84.729 25.431h.245c.036-.245.07-.56.07-.665 0-1.189-.839-1.644-2.272-1.644-2.274 0-5.211 1.644-5.211 1.644l-1.294-4.547s3.708-1.993 7.695-1.993c3.043 0 7.135 1.188 7.135 5.736 0 .524-.069 1.118-.176 1.75l-2.097 10.946h-5.527l.208-1.085a6.434 6.434 0 0 1 .316-1.118h-.07s-1.958 2.622-5.316 2.622c-2.693 0-5.282-1.608-5.282-4.65-.002-5.458 6.959-6.996 11.576-6.996m-4.022 7.03c1.574 0 3.287-1.714 3.568-3.183l.07-.388h-.561c-1.294 0-4.546.281-4.546 2.416 0 .664.454 1.155 1.469 1.155M94.181 38.941c1.049 0 2.309-.281 3.253-1.82l.524-.839-4.231-17.662h6.295l1.468 8.917c.176.981.176 2.661.176 2.661h.069s.63-1.575 1.084-2.555l4.022-9.024h6.786l-11.263 19.934c-2.237 3.954-5.35 5.424-7.868 5.424-2.658 0-4.721-1.398-4.721-1.398l2.622-4.199s.734.561 1.784.561M15.875 37.222c-7.326 0-11.661-4.909-11.459-11.286C4.673 17.765 11.932 11 20.591 11c3.715 0 6.66.936 8.636 1.938l-1.146 6.059c-2.477-1.335-4.59-2.142-8.024-2.142-5.399 0-8.961 3.997-9.096 8.308-.108 3.434 1.976 6.276 6.008 6.276.912 0 1.967-.141 2.674-.314l1.578-8.262h6.127L24.979 35.33c-2.597 1.191-6.019 1.892-9.104 1.892"/>
</svg>
