<svg xmlns="http://www.w3.org/2000/svg" width="54" height="42" viewBox="73 0 54 42">
  <path fill="#000000" d="M83.643 40.772v-2.648c0-.997-.635-1.668-1.659-1.677-.539-.009-1.095.158-1.482.75-.292-.468-.751-.75-1.396-.75-.45 0-.892.132-1.235.627v-.521h-.918v4.22h.927v-2.339c0-.733.406-1.122 1.033-1.122.608 0 .917.397.917 1.112v2.349h.928v-2.339c0-.733.423-1.122 1.032-1.122.627 0 .927.397.927 1.112v2.349h.926zm13.717-4.219h-1.501v-1.279h-.927v1.279h-.855v.839h.855v1.925c0 .979.38 1.562 1.466 1.562.396 0 .855-.123 1.147-.326l-.266-.786a1.69 1.69 0 0 1-.812.239c-.459 0-.609-.283-.609-.707v-1.906h1.501v-.84zm7.829-.106c-.529 0-.874.247-1.112.618v-.513h-.909v4.22h.918v-2.366c0-.697.301-1.085.9-1.085.186 0 .38.026.574.105l.282-.865a1.963 1.963 0 0 0-.653-.114zm-11.836.442c-.441-.291-1.05-.441-1.722-.441-1.067 0-1.756.512-1.756 1.351 0 .688.512 1.112 1.456 1.244l.433.062c.504.071.741.203.741.441 0 .327-.335.513-.962.513-.636 0-1.094-.203-1.403-.441l-.433.715c.503.37 1.139.547 1.827.547 1.219 0 1.925-.573 1.925-1.377 0-.741-.557-1.13-1.475-1.263l-.433-.062c-.396-.053-.715-.132-.715-.414 0-.31.3-.495.804-.495.538 0 1.059.203 1.315.362l.398-.742zm24.592-.442c-.53 0-.875.247-1.112.618v-.513h-.91v4.22h.918v-2.366c0-.697.301-1.085.901-1.085a1.5 1.5 0 0 1 .573.105l.282-.865a1.962 1.962 0 0 0-.652-.114zm-11.829 2.215c0 1.28.892 2.216 2.251 2.216.636 0 1.06-.141 1.519-.503l-.441-.741c-.344.247-.706.379-1.104.379-.732-.008-1.271-.538-1.271-1.351 0-.812.538-1.341 1.271-1.351.397 0 .76.133 1.104.38l.441-.741c-.459-.362-.883-.503-1.519-.503-1.359 0-2.251.936-2.251 2.215zm8.598 0v-2.109h-.918v.513c-.291-.38-.732-.618-1.333-.618-1.183 0-2.109.927-2.109 2.215 0 1.289.927 2.216 2.109 2.216.601 0 1.042-.238 1.333-.617v.512h.918v-2.112zm-3.416 0c0-.741.485-1.351 1.28-1.351.759 0 1.271.583 1.271 1.351 0 .769-.512 1.351-1.271 1.351-.795 0-1.28-.609-1.28-1.351zm-11.077-2.215c-1.236 0-2.102.9-2.102 2.215 0 1.343.9 2.216 2.163 2.216.635 0 1.218-.158 1.729-.591l-.45-.68a2.012 2.012 0 0 1-1.227.441c-.592 0-1.13-.274-1.262-1.033h3.133c.009-.115.018-.229.018-.354-.008-1.313-.821-2.214-2.002-2.214zm-.019.821c.592 0 .971.371 1.068 1.024h-2.189c.098-.609.468-1.024 1.121-1.024zm23.03 1.394v-3.804h-.918v2.207c-.292-.38-.733-.618-1.333-.618-1.183 0-2.109.927-2.109 2.215 0 1.289.927 2.216 2.109 2.216.6 0 1.041-.238 1.333-.617v.512h.918v-2.111zm-3.416 0c0-.741.485-1.351 1.279-1.351.76 0 1.271.583 1.271 1.351 0 .769-.512 1.351-1.271 1.351-.793 0-1.279-.609-1.279-1.351zm-31.001 0v-2.109h-.918v.513c-.291-.38-.732-.618-1.333-.618-1.183 0-2.109.927-2.109 2.215 0 1.289.927 2.216 2.109 2.216.601 0 1.042-.238 1.333-.617v.512h.918v-2.112zm-3.416 0c0-.741.485-1.351 1.28-1.351.759 0 1.271.583 1.271 1.351 0 .769-.512 1.351-1.271 1.351-.794 0-1.28-.609-1.28-1.351zm39.364 1.499a.422.422 0 0 1 .394.582.44.44 0 0 1-.228.223.437.437 0 0 1-.563-.223c-.022-.051-.033-.105-.033-.163a.406.406 0 0 1 .124-.296.427.427 0 0 1 .306-.123zm0 .746a.33.33 0 0 0 .126-.025.368.368 0 0 0 .103-.07.287.287 0 0 0 .069-.104.305.305 0 0 0 .025-.128.32.32 0 0 0-.094-.231c-.029-.029-.063-.053-.103-.069s-.081-.024-.126-.024a.315.315 0 0 0-.302.197.303.303 0 0 0-.025.127.321.321 0 0 0 .198.302c.04.016.083.025.129.025zm.024-.523c.05 0 .089.011.115.033a.113.113 0 0 1 .041.092c0 .031-.011.059-.032.079s-.053.034-.092.038l.127.147h-.1l-.118-.146h-.038v.146h-.083v-.39h.18zm-.097.073v.104h.096a.097.097 0 0 0 .053-.013c.013-.009.02-.021.02-.039s-.007-.03-.02-.039a.095.095 0 0 0-.053-.013h-.096z"/>
  <path fill="#FF5F00" d="M93.048 4.397h13.904v24.986H93.048z"/>
  <path fill="#EB001B" d="M93.931 16.891c0-5.069 2.373-9.584 6.069-12.494A15.825 15.825 0 0 0 90.18 1c-8.776 0-15.89 7.114-15.89 15.891 0 8.776 7.113 15.89 15.89 15.89 3.707 0 7.117-1.27 9.82-3.397a15.861 15.861 0 0 1-6.069-12.493z"/>
  <path fill="#F79E1B" d="M125.71 16.891c0 8.776-7.114 15.89-15.89 15.89-3.707 0-7.117-1.27-9.82-3.397a15.861 15.861 0 0 0 6.069-12.493c0-5.069-2.373-9.584-6.069-12.494A15.825 15.825 0 0 1 109.82 1c8.776 0 15.89 7.114 15.89 15.891zm-1.516 9.847v-.512h.206v-.104h-.525v.104h.206v.512h.113zm1.02 0v-.617h-.161l-.186.424-.185-.424h-.161v.617h.113v-.466l.174.401h.118l.174-.402v.467h.114z"/>
</svg>
