<svg xmlns="http://www.w3.org/2000/svg" width="220" height="65.672" viewBox="-8.167 0 220 65.672">
  <path fill="none" d="M0 0h200v65.672H0z"/>
  <path fill="#0098D4" d="M157.496 19.017h-11.329a1.58 1.58 0 0 0-1.559 1.33l-4.58 29.056a.945.945 0 0 0 .933 1.09h5.813c.543 0 1.006-.396 1.09-.93l1.297-8.236a1.577 1.577 0 0 1 1.555-1.33h3.585c7.467 0 11.775-3.612 12.9-10.77.504-3.131.02-5.593-1.446-7.313-1.61-1.895-4.467-2.897-8.259-2.897m1.309 10.611c-.619 4.07-3.729 4.07-6.729 4.07h-1.711l1.197-7.595a.948.948 0 0 1 .937-.799h.781c2.043 0 3.978 0 4.973 1.167.596.696.774 1.729.552 3.157"/>
  <path fill="#00317E" d="M76.677 19.017H65.346c-.775 0-1.434.565-1.554 1.33l-4.583 29.056a.944.944 0 0 0 .932 1.09h5.412c.772 0 1.435-.563 1.555-1.329l1.234-7.837a1.577 1.577 0 0 1 1.555-1.33h3.587c7.464 0 11.771-3.612 12.896-10.77.508-3.131.022-5.593-1.444-7.313-1.611-1.895-4.467-2.897-8.259-2.897m1.308 10.611c-.619 4.07-3.726 4.07-6.73 4.07h-1.71l1.198-7.595a.948.948 0 0 1 .936-.799h.782c2.047 0 3.978 0 4.973 1.167.596.696.774 1.729.551 3.157M110.546 29.499h-5.426a.945.945 0 0 0-.936.798l-.236 1.517-.38-.55c-1.176-1.705-3.794-2.274-6.409-2.274-5.996 0-11.116 4.542-12.11 10.912-.522 3.179.216 6.217 2.019 8.336 1.654 1.949 4.019 2.758 6.833 2.758 4.832 0 7.512-3.103 7.512-3.103l-.243 1.508a.948.948 0 0 0 .936 1.093h4.885a1.58 1.58 0 0 0 1.556-1.331l2.933-18.571a.949.949 0 0 0-.934-1.093m-7.565 10.559c-.521 3.102-2.984 5.184-6.123 5.184-1.575 0-2.833-.506-3.642-1.465-.804-.951-1.106-2.303-.853-3.812.489-3.071 2.989-5.222 6.082-5.222 1.542 0 2.793.513 3.618 1.481.83.971 1.159 2.338.918 3.834"/>
  <path fill="#0098D4" d="M191.366 29.499h-5.429a.944.944 0 0 0-.933.798l-.235 1.517-.384-.55c-1.172-1.705-3.789-2.274-6.406-2.274-5.992 0-11.114 4.542-12.109 10.912-.521 3.179.215 6.217 2.017 8.336 1.657 1.949 4.021 2.758 6.834 2.758 4.832 0 7.513-3.103 7.513-3.103l-.24 1.508a.943.943 0 0 0 .934 1.093h4.885c.773 0 1.432-.565 1.551-1.331l2.938-18.571a.95.95 0 0 0-.936-1.093m-7.561 10.559c-.522 3.102-2.987 5.184-6.126 5.184-1.575 0-2.832-.506-3.642-1.465-.805-.951-1.108-2.303-.852-3.812.486-3.071 2.988-5.222 6.081-5.222 1.542 0 2.793.513 3.615 1.481.832.971 1.16 2.338.924 3.834"/>
  <path fill="#00317E" d="M139.443 29.499h-5.453a1.57 1.57 0 0 0-1.302.69l-7.524 11.078-3.188-10.645a1.576 1.576 0 0 0-1.508-1.123h-5.361a.943.943 0 0 0-.894 1.25l6.005 17.625-5.648 7.971a.946.946 0 0 0 .769 1.492h5.449c.516 0 1.002-.255 1.295-.679l18.139-26.176a.947.947 0 0 0-.779-1.483"/>
  <path fill="#0098D4" d="M197.761 19.815L193.11 49.4a.944.944 0 0 0 .932 1.093h4.678c.774 0 1.434-.565 1.558-1.33l4.583-29.055a.944.944 0 0 0-.932-1.091h-5.235a.943.943 0 0 0-.933.798M36.979 20.539c.609-3.889-.006-6.536-2.108-8.934-2.314-2.638-6.5-3.769-11.854-3.769H7.476a2.222 2.222 0 0 0-2.195 1.878L-1.19 50.746a1.334 1.334 0 0 0 1.318 1.541h9.593l-.663 4.198a1.167 1.167 0 0 0 1.152 1.349h8.088c.956 0 1.771-.693 1.92-1.641l.081-.41 1.521-9.66.1-.534a1.946 1.946 0 0 1 1.92-1.643h1.208c7.836 0 13.97-3.183 15.762-12.386.749-3.846.362-7.057-1.618-9.314-.598-.683-1.343-1.246-2.213-1.707"/>
  <path fill="#102069" d="M36.979 20.539c.609-3.889-.006-6.536-2.108-8.934-2.314-2.638-6.5-3.769-11.854-3.769H7.476a2.222 2.222 0 0 0-2.195 1.878L-1.19 50.746a1.334 1.334 0 0 0 1.318 1.541h9.593l2.41-15.28-.077.479a2.218 2.218 0 0 1 2.19-1.878h4.561c8.954 0 15.967-3.637 18.014-14.159.061-.312.115-.614.16-.91"/>
  <path fill="#00317E" d="M14.721 20.591a1.941 1.941 0 0 1 1.921-1.643h12.181c1.443 0 2.788.095 4.02.293.349.056.691.123 1.024.195.333.073.656.156.966.246.158.047.311.095.462.145.603.2 1.165.438 1.685.713.609-3.89-.005-6.537-2.108-8.934-2.314-2.641-6.5-3.771-11.855-3.771H7.478A2.224 2.224 0 0 0 5.281 9.71L-1.19 50.746c-.127.81.5 1.541 1.318 1.541h9.593l2.41-15.28 2.59-16.416z"/>
</svg>
