<?xml version="1.0" encoding="UTF-8"?>
<!DOCTYPE svg PUBLIC "-//W3C//DTD SVG 1.1//EN" "http://www.w3.org/Graphics/SVG/1.1/DTD/svg11.dtd">
<svg version="1.1" xmlns="http://www.w3.org/2000/svg" xmlns:xlink="http://www.w3.org/1999/xlink" x="0" y="0" width="200" height="200" viewBox="0, 0, 200, 200">
  <defs>
    <clipPath id="Clip_1">
      <path d="M131.053,97.669 L135.235,91.56 L132.698,91.56 L128.312,97.873 L128.272,97.873 L128.272,91.56 L125.958,91.56 L125.958,106.054 L128.272,106.054 L128.272,101.365 L129.551,99.537 L130.164,100.675 L133.063,106.054 L135.681,106.054 L131.053,97.669 z"/>
    </clipPath>
    <clipPath id="Clip_2">
      <path d="M106.177,91.56 L97.022,91.56 L97.022,93.509 L100.474,93.509 L100.474,106.054 L102.787,106.054 L102.787,93.509 L106.177,93.509 L106.177,91.56 z"/>
    </clipPath>
    <clipPath id="Clip_3">
      <path d="M120.162,100.675 L119.611,103.13 L119.569,103.13 L117.114,91.56 L114.658,91.56 L118.068,106.054 L121.012,106.054 L124.665,91.56 L122.209,91.56 L120.162,100.675 z"/>
    </clipPath>
    <clipPath id="Clip_4">
      <path d="M112.975,87.662 L110.538,87.662 L109.322,90.585 L110.823,90.585 L112.975,87.662 z"/>
    </clipPath>
    <clipPath id="Clip_5">
      <path d="M81.17,104.592 C79.992,104.592 79.024,103.948 78.764,100.675 C78.719,100.11 78.694,99.477 78.694,98.746 C78.694,93.874 79.789,93.021 81.17,93.021 C82.55,93.021 83.647,93.874 83.647,98.746 C83.647,99.477 83.62,100.11 83.576,100.675 C83.315,103.948 82.348,104.592 81.17,104.592 z M81.17,91.276 C77.841,91.276 76.379,93.63 76.379,98.807 C76.379,99.477 76.405,100.097 76.455,100.675 C76.79,104.552 78.272,106.338 81.17,106.338 C84.067,106.338 85.55,104.552 85.884,100.675 C85.934,100.097 85.96,99.477 85.96,98.807 C85.96,93.63 84.499,91.276 81.17,91.276"/>
    </clipPath>
    <clipPath id="Clip_6">
      <path d="M70.452,98.319 L68.808,98.319 L68.808,93.305 L70.289,93.305 C72.137,93.305 72.766,94.26 72.766,95.822 C72.766,97.669 71.69,98.319 70.452,98.319 z M71.081,91.56 L66.493,91.56 L66.493,106.054 L68.808,106.054 L68.808,100.065 L70.837,100.065 C73.537,100.065 75.079,98.38 75.079,95.783 C75.079,93.305 73.862,91.56 71.081,91.56"/>
    </clipPath>
    <clipPath id="Clip_7">
      <path d="M91.888,98.319 L90.244,98.319 L90.244,93.305 L91.725,93.305 C93.573,93.305 94.202,94.26 94.202,95.822 C94.202,97.669 93.126,98.319 91.888,98.319 z M92.518,91.56 L87.929,91.56 L87.929,106.054 L90.244,106.054 L90.244,100.065 L92.274,100.065 C94.973,100.065 96.517,98.38 96.517,95.783 C96.517,93.305 95.298,91.56 92.518,91.56"/>
    </clipPath>
    <clipPath id="Clip_8">
      <path d="M108.949,100.675 L108.955,100.653 L110.68,93.509 L110.722,93.509 L112.39,100.675 L108.949,100.675 z M112.265,91.56 L109.299,91.56 L105.18,106.054 L107.595,106.054 L108.528,102.502 L112.772,102.502 L113.664,106.054 L116.081,106.054 L112.265,91.56"/>
    </clipPath>
    <clipPath id="Clip_9">
      <path d="M139.955,100.675 L140.15,99.864 L141.687,93.509 L141.727,93.509 L143.396,100.675 L139.955,100.675 z M145.67,100.675 L143.27,91.56 L140.306,91.56 L136.185,106.054 L138.601,106.054 L139.534,102.502 L143.778,102.502 L144.67,106.054 L147.086,106.054 L145.67,100.675"/>
    </clipPath>
    <clipPath id="Clip_10">
      <path d="M45.398,100.675 L46.433,94.523 L46.473,94.523 L47.509,100.675 L45.398,100.675 z M48.829,91.56 L44.078,91.56 L40.546,106.054 L44.566,106.054 L44.951,103.516 L47.955,103.516 L48.341,106.054 L52.361,106.054 L48.829,91.56"/>
    </clipPath>
    <clipPath id="Clip_11">
      <path d="M33.423,100.675 L34.458,94.523 L34.499,94.523 L35.534,100.675 L33.423,100.675 z M36.854,91.56 L32.103,91.56 L28.571,106.054 L32.591,106.054 L32.976,103.516 L35.981,103.516 L36.367,106.054 L40.386,106.054 L36.854,91.56"/>
    </clipPath>
    <clipPath id="Clip_12">
      <path d="M57.372,100.675 L58.407,94.523 L58.449,94.523 L59.484,100.675 L57.372,100.675 z M63.024,100.675 L60.803,91.56 L56.053,91.56 L52.521,106.054 L56.54,106.054 L56.926,103.516 L59.93,103.516 L60.316,106.054 L64.335,106.054 L63.024,100.675"/>
    </clipPath>
    <clipPath id="Clip_13">
      <path d="M57.372,100.675 L58.407,94.523 L58.449,94.523 L59.484,100.675 L63.024,100.675 L60.803,91.56 L56.053,91.56 L53.831,100.675 L57.372,100.675 z"/>
    </clipPath>
    <clipPath id="Clip_14">
      <path d="M45.398,100.675 L46.433,94.523 L46.473,94.523 L47.509,100.675 L51.049,100.675 L48.829,91.56 L44.078,91.56 L41.857,100.675 L45.398,100.675 z"/>
    </clipPath>
    <clipPath id="Clip_15">
      <path d="M33.423,100.675 L34.458,94.523 L34.499,94.523 L35.534,100.675 L39.075,100.675 L36.854,91.56 L32.103,91.56 L29.882,100.675 L33.423,100.675 z"/>
    </clipPath>
    <clipPath id="Clip_16">
      <path d="M35.534,100.675 L29.882,100.675 L28.571,106.054 L32.591,106.054 L32.976,103.516 L35.981,103.516 L36.367,106.054 L40.386,106.054 L39.075,100.675 L35.534,100.675 z"/>
    </clipPath>
    <clipPath id="Clip_17">
      <path d="M47.509,100.675 L41.857,100.675 L40.546,106.054 L44.566,106.054 L44.951,103.516 L47.955,103.516 L48.341,106.054 L52.361,106.054 L51.049,100.675 L47.509,100.675 z"/>
    </clipPath>
    <clipPath id="Clip_18">
      <path d="M59.484,100.675 L53.831,100.675 L52.521,106.054 L56.54,106.054 L56.926,103.516 L59.93,103.516 L60.316,106.054 L64.335,106.054 L63.024,100.675 L59.484,100.675 z"/>
    </clipPath>
    <clipPath id="Clip_19">
      <path d="M129.551,99.537 L130.164,100.675 L132.711,100.675 L131.053,97.669 L135.235,91.56 L132.698,91.56 L128.312,97.873 L128.272,97.873 L128.272,91.56 L125.958,91.56 L125.958,100.675 L128.755,100.675 L129.551,99.537 z"/>
    </clipPath>
    <clipPath id="Clip_20">
      <path d="M102.787,93.509 L106.177,93.509 L106.177,91.56 L97.022,91.56 L97.022,93.509 L100.474,93.509 L100.474,100.675 L102.787,100.675 L102.787,93.509 z"/>
    </clipPath>
    <clipPath id="Clip_21">
      <path d="M124.665,91.56 L122.209,91.56 L120.162,100.675 L122.367,100.675 L124.665,91.56 z"/>
    </clipPath>
    <clipPath id="Clip_22">
      <path d="M112.975,87.662 L110.538,87.662 L109.322,90.585 L110.823,90.585 L112.975,87.662 z"/>
    </clipPath>
    <clipPath id="Clip_23">
      <path d="M117.114,91.56 L114.658,91.56 L116.803,100.675 L119.048,100.675 L117.114,91.56 z"/>
    </clipPath>
    <clipPath id="Clip_24">
      <path d="M78.694,98.746 C78.694,93.874 79.789,93.021 81.17,93.021 C82.55,93.021 83.647,93.874 83.647,98.746 C83.647,99.477 83.62,100.11 83.576,100.675 L85.884,100.675 C85.934,100.097 85.96,99.477 85.96,98.807 C85.96,93.63 84.499,91.276 81.17,91.276 C77.841,91.276 76.379,93.63 76.379,98.807 C76.379,99.477 76.405,100.097 76.455,100.675 L78.764,100.675 C78.719,100.11 78.694,99.477 78.694,98.746 z"/>
    </clipPath>
    <clipPath id="Clip_25">
      <path d="M68.808,93.305 L70.289,93.305 C72.137,93.305 72.766,94.26 72.766,95.822 C72.766,97.669 71.69,98.319 70.452,98.319 L68.808,98.319 L68.808,93.305 z M68.808,100.065 L70.837,100.065 C73.537,100.065 75.079,98.38 75.079,95.783 C75.079,93.305 73.862,91.56 71.081,91.56 L66.493,91.56 L66.493,100.675 L68.808,100.675 L68.808,100.065"/>
    </clipPath>
    <clipPath id="Clip_26">
      <path d="M90.244,93.305 L91.725,93.305 C93.573,93.305 94.202,94.26 94.202,95.822 C94.202,97.669 93.126,98.319 91.888,98.319 L90.244,98.319 L90.244,93.305 z M90.244,100.065 L92.274,100.065 C94.973,100.065 96.517,98.38 96.517,95.783 C96.517,93.305 95.298,91.56 92.518,91.56 L87.929,91.56 L87.929,100.675 L90.244,100.675 L90.244,100.065"/>
    </clipPath>
    <clipPath id="Clip_27">
      <path d="M108.955,100.653 L108.955,100.653 L110.68,93.509 L110.722,93.509 L112.39,100.675 L114.664,100.675 L112.265,91.56 L109.299,91.56 L106.709,100.675 L108.949,100.675 L108.955,100.653 z"/>
    </clipPath>
    <clipPath id="Clip_28">
      <path d="M140.15,99.864 L141.687,93.509 L141.727,93.509 L143.396,100.675 L145.67,100.675 L143.27,91.56 L140.306,91.56 L137.715,100.675 L139.955,100.675 L140.15,99.864 z"/>
    </clipPath>
    <clipPath id="Clip_29">
      <path d="M100.474,106.054 L102.787,106.054 L102.787,100.674 L100.474,100.674 z"/>
    </clipPath>
    <clipPath id="Clip_30">
      <path d="M87.929,106.054 L90.244,106.054 L90.244,100.674 L87.929,100.674 z"/>
    </clipPath>
    <clipPath id="Clip_31">
      <path d="M87.929,106.054 L90.244,106.054 L90.244,100.674 L87.929,100.674 z"/>
    </clipPath>
    <clipPath id="Clip_32">
      <path d="M87.929,106.054 L90.244,106.054 L90.244,100.674 L87.929,100.674 z"/>
    </clipPath>
    <clipPath id="Clip_33">
      <path d="M81.17,106.338 C84.067,106.338 85.55,104.552 85.884,100.675 L83.576,100.675 C83.315,103.948 82.348,104.592 81.17,104.592 C79.992,104.592 79.024,103.948 78.764,100.675 L76.455,100.675 C76.79,104.552 78.272,106.338 81.17,106.338 z"/>
    </clipPath>
    <clipPath id="Clip_34">
      <path d="M138.601,106.054 L139.534,102.502 L143.778,102.502 L144.67,106.054 L147.086,106.054 L145.67,100.675 L137.715,100.675 L136.185,106.054 L138.601,106.054 z"/>
    </clipPath>
    <clipPath id="Clip_35">
      <path d="M66.493,106.054 L68.808,106.054 L68.808,100.674 L66.493,100.674 z"/>
    </clipPath>
    <clipPath id="Clip_36">
      <path d="M66.493,106.054 L68.808,106.054 L68.808,100.674 L66.493,100.674 z"/>
    </clipPath>
    <clipPath id="Clip_37">
      <path d="M66.493,106.054 L68.808,106.054 L68.808,100.674 L66.493,100.674 z"/>
    </clipPath>
    <clipPath id="Clip_38">
      <path d="M107.595,106.054 L108.528,102.502 L112.772,102.502 L113.664,106.054 L116.081,106.054 L114.664,100.675 L106.709,100.675 L105.18,106.054 L107.595,106.054 z"/>
    </clipPath>
    <clipPath id="Clip_39">
      <path d="M133.063,106.054 L135.681,106.054 L132.711,100.675 L130.165,100.675 L133.063,106.054 z"/>
    </clipPath>
    <clipPath id="Clip_40">
      <path d="M128.272,106.054 L128.272,101.365 L128.755,100.675 L125.958,100.675 L125.958,106.054 L128.272,106.054 z"/>
    </clipPath>
    <clipPath id="Clip_41">
      <path d="M121.012,106.054 L122.367,100.675 L120.162,100.675 L119.611,103.13 L119.569,103.13 L119.048,100.675 L116.803,100.675 L118.068,106.054 L121.012,106.054 z"/>
    </clipPath>
  </defs>
  <g id="Layer_1">
    <g clip-path="url(#Clip_1)">
      <path d="M125.958,106.092 L135.681,106.092 L135.681,105.518 L125.958,105.518 z" fill="#343534"/>
      <path d="M125.958,105.518 L135.681,105.518 L135.681,104.367 L125.958,104.367 z" fill="#353635"/>
      <path d="M125.958,104.367 L135.681,104.367 L135.681,103.216 L125.958,103.216 z" fill="#363736"/>
      <path d="M125.958,103.216 L135.681,103.216 L135.681,102.064 L125.958,102.064 z" fill="#373837"/>
      <path d="M125.958,102.064 L135.681,102.064 L135.681,100.914 L125.958,100.914 z" fill="#383938"/>
      <path d="M125.958,100.914 L135.681,100.914 L135.681,99.763 L125.958,99.763 z" fill="#3A3A39"/>
      <path d="M125.958,99.763 L135.681,99.763 L135.681,98.613 L125.958,98.613 z" fill="#3B3B3A"/>
      <path d="M125.958,98.612 L135.681,98.612 L135.681,97.461 L125.958,97.461 z" fill="#3C3C3B"/>
      <path d="M125.958,97.461 L135.681,97.461 L135.681,96.311 L125.958,96.311 z" fill="#3C3D3C"/>
      <path d="M125.958,96.311 L135.681,96.311 L135.681,95.16 L125.958,95.16 z" fill="#3D3E3D"/>
      <path d="M125.958,95.159 L135.681,95.159 L135.681,94.009 L125.958,94.009 z" fill="#3E3F3E"/>
      <path d="M125.958,94.009 L135.681,94.009 L135.681,92.857 L125.958,92.857 z" fill="#3F403F"/>
      <path d="M125.958,92.857 L135.681,92.857 L135.681,91.707 L125.958,91.707 z" fill="#404140"/>
      <path d="M125.958,91.707 L135.681,91.707 L135.681,91.535 L125.958,91.535 z" fill="#414241"/>
    </g>
    <g clip-path="url(#Clip_2)">
      <path d="M97.022,106.092 L106.177,106.092 L106.177,105.518 L97.022,105.518 z" fill="#343534"/>
      <path d="M97.022,105.518 L106.177,105.518 L106.177,104.367 L97.022,104.367 z" fill="#353635"/>
      <path d="M97.022,104.367 L106.177,104.367 L106.177,103.216 L97.022,103.216 z" fill="#363736"/>
      <path d="M97.022,103.216 L106.177,103.216 L106.177,102.064 L97.022,102.064 z" fill="#373837"/>
      <path d="M97.022,102.064 L106.177,102.064 L106.177,100.914 L97.022,100.914 z" fill="#383938"/>
      <path d="M97.022,100.914 L106.177,100.914 L106.177,99.763 L97.022,99.763 z" fill="#3A3A39"/>
      <path d="M97.022,99.763 L106.177,99.763 L106.177,98.613 L97.022,98.613 z" fill="#3B3B3A"/>
      <path d="M97.022,98.612 L106.177,98.612 L106.177,97.461 L97.022,97.461 z" fill="#3C3C3B"/>
      <path d="M97.022,97.461 L106.177,97.461 L106.177,96.311 L97.022,96.311 z" fill="#3C3D3C"/>
      <path d="M97.022,96.311 L106.177,96.311 L106.177,95.16 L97.022,95.16 z" fill="#3D3E3D"/>
      <path d="M97.022,95.159 L106.177,95.159 L106.177,94.009 L97.022,94.009 z" fill="#3E3F3E"/>
      <path d="M97.022,94.009 L106.177,94.009 L106.177,92.857 L97.022,92.857 z" fill="#3F403F"/>
      <path d="M97.022,92.857 L106.177,92.857 L106.177,91.707 L97.022,91.707 z" fill="#404140"/>
      <path d="M97.022,91.707 L106.177,91.707 L106.177,91.535 L97.022,91.535 z" fill="#414241"/>
    </g>
    <g clip-path="url(#Clip_3)">
      <path d="M114.658,106.092 L124.665,106.092 L124.665,105.518 L114.658,105.518 z" fill="#343534"/>
      <path d="M114.658,105.518 L124.665,105.518 L124.665,104.367 L114.658,104.367 z" fill="#353635"/>
      <path d="M114.658,104.367 L124.665,104.367 L124.665,103.216 L114.658,103.216 z" fill="#363736"/>
      <path d="M114.658,103.216 L124.665,103.216 L124.665,102.064 L114.658,102.064 z" fill="#373837"/>
      <path d="M114.658,102.064 L124.665,102.064 L124.665,100.914 L114.658,100.914 z" fill="#383938"/>
      <path d="M114.658,100.914 L124.665,100.914 L124.665,99.763 L114.658,99.763 z" fill="#3A3A39"/>
      <path d="M114.658,99.763 L124.665,99.763 L124.665,98.613 L114.658,98.613 z" fill="#3B3B3A"/>
      <path d="M114.658,98.612 L124.665,98.612 L124.665,97.461 L114.658,97.461 z" fill="#3C3C3B"/>
      <path d="M114.658,97.461 L124.665,97.461 L124.665,96.311 L114.658,96.311 z" fill="#3C3D3C"/>
      <path d="M114.658,96.311 L124.665,96.311 L124.665,95.16 L114.658,95.16 z" fill="#3D3E3D"/>
      <path d="M114.658,95.159 L124.665,95.159 L124.665,94.009 L114.658,94.009 z" fill="#3E3F3E"/>
      <path d="M114.658,94.009 L124.665,94.009 L124.665,92.857 L114.658,92.857 z" fill="#3F403F"/>
      <path d="M114.658,92.857 L124.665,92.857 L124.665,91.707 L114.658,91.707 z" fill="#404140"/>
      <path d="M114.658,91.707 L124.665,91.707 L124.665,91.535 L114.658,91.535 z" fill="#414241"/>
    </g>
    <g clip-path="url(#Clip_4)">
      <path d="M109.322,90.605 L112.975,90.605 L112.975,90.479 L109.322,90.479 z" fill="#343534"/>
      <path d="M109.322,90.479 L112.975,90.479 L112.975,90.249 L109.322,90.249 z" fill="#353635"/>
      <path d="M109.322,90.249 L112.975,90.249 L112.975,89.999 L109.322,89.999 z" fill="#363736"/>
      <path d="M109.322,89.999 L112.975,89.999 L112.975,89.769 L109.322,89.769 z" fill="#373837"/>
      <path d="M109.322,89.768 L112.975,89.768 L112.975,89.538 L109.322,89.538 z" fill="#383938"/>
      <path d="M109.322,89.538 L112.975,89.538 L112.975,89.308 L109.322,89.308 z" fill="#3A3A39"/>
      <path d="M109.322,89.308 L112.975,89.308 L112.975,89.078 L109.322,89.078 z" fill="#3B3B3A"/>
      <path d="M109.322,89.078 L112.975,89.078 L112.975,88.848 L109.322,88.848 z" fill="#3C3C3B"/>
      <path d="M109.322,88.848 L112.975,88.848 L112.975,88.618 L109.322,88.618 z" fill="#3C3D3C"/>
      <path d="M109.322,88.617 L112.975,88.617 L112.975,88.366 L109.322,88.366 z" fill="#3D3E3D"/>
      <path d="M109.322,88.366 L112.975,88.366 L112.975,88.136 L109.322,88.136 z" fill="#3E3F3E"/>
      <path d="M109.322,88.136 L112.975,88.136 L112.975,87.907 L109.322,87.907 z" fill="#3F403F"/>
      <path d="M109.322,87.906 L112.975,87.906 L112.975,87.676 L109.322,87.676 z" fill="#404140"/>
      <path d="M109.322,87.676 L112.975,87.676 L112.975,87.655 L109.322,87.655 z" fill="#414241"/>
    </g>
    <g clip-path="url(#Clip_5)">
      <path d="M76.379,106.378 L85.96,106.378 L85.96,105.781 L76.379,105.781 z" fill="#343534"/>
      <path d="M76.379,105.781 L85.96,105.781 L85.96,104.585 L76.379,104.585 z" fill="#353635"/>
      <path d="M76.379,104.585 L85.96,104.585 L85.96,103.39 L76.379,103.39 z" fill="#363736"/>
      <path d="M76.379,103.389 L85.96,103.389 L85.96,102.193 L76.379,102.193 z" fill="#373837"/>
      <path d="M76.379,102.193 L85.96,102.193 L85.96,100.997 L76.379,100.997 z" fill="#383938"/>
      <path d="M76.379,100.997 L85.96,100.997 L85.96,99.801 L76.379,99.801 z" fill="#3A3A39"/>
      <path d="M76.379,99.8 L85.96,99.8 L85.96,98.604 L76.379,98.604 z" fill="#3B3B3A"/>
      <path d="M76.379,98.604 L85.96,98.604 L85.96,97.408 L76.379,97.408 z" fill="#3C3C3B"/>
      <path d="M76.379,97.408 L85.96,97.408 L85.96,96.213 L76.379,96.213 z" fill="#3C3D3C"/>
      <path d="M76.379,96.212 L85.96,96.212 L85.96,95.017 L76.379,95.017 z" fill="#3D3E3D"/>
      <path d="M76.379,95.017 L85.96,95.017 L85.96,93.821 L76.379,93.821 z" fill="#3E3F3E"/>
      <path d="M76.379,93.821 L85.96,93.821 L85.96,92.625 L76.379,92.625 z" fill="#3F403F"/>
      <path d="M76.379,92.624 L85.96,92.624 L85.96,91.428 L76.379,91.428 z" fill="#404140"/>
      <path d="M76.379,91.428 L85.96,91.428 L85.96,91.249 L76.379,91.249 z" fill="#414241"/>
    </g>
    <g clip-path="url(#Clip_6)">
      <path d="M66.493,106.092 L75.079,106.092 L75.079,105.518 L66.493,105.518 z" fill="#343534"/>
      <path d="M66.493,105.518 L75.079,105.518 L75.079,104.367 L66.493,104.367 z" fill="#353635"/>
      <path d="M66.493,104.367 L75.079,104.367 L75.079,103.216 L66.493,103.216 z" fill="#363736"/>
      <path d="M66.493,103.216 L75.079,103.216 L75.079,102.064 L66.493,102.064 z" fill="#373837"/>
      <path d="M66.493,102.064 L75.079,102.064 L75.079,100.914 L66.493,100.914 z" fill="#383938"/>
      <path d="M66.493,100.914 L75.079,100.914 L75.079,99.763 L66.493,99.763 z" fill="#3A3A39"/>
      <path d="M66.493,99.763 L75.079,99.763 L75.079,98.613 L66.493,98.613 z" fill="#3B3B3A"/>
      <path d="M66.493,98.612 L75.079,98.612 L75.079,97.461 L66.493,97.461 z" fill="#3C3C3B"/>
      <path d="M66.493,97.461 L75.079,97.461 L75.079,96.311 L66.493,96.311 z" fill="#3C3D3C"/>
      <path d="M66.493,96.311 L75.079,96.311 L75.079,95.16 L66.493,95.16 z" fill="#3D3E3D"/>
      <path d="M66.493,95.159 L75.079,95.159 L75.079,94.009 L66.493,94.009 z" fill="#3E3F3E"/>
      <path d="M66.493,94.009 L75.079,94.009 L75.079,92.857 L66.493,92.857 z" fill="#3F403F"/>
      <path d="M66.493,92.857 L75.079,92.857 L75.079,91.707 L66.493,91.707 z" fill="#404140"/>
      <path d="M66.493,91.707 L75.079,91.707 L75.079,91.535 L66.493,91.535 z" fill="#414241"/>
    </g>
    <g clip-path="url(#Clip_7)">
      <path d="M87.929,106.092 L96.516,106.092 L96.516,105.518 L87.929,105.518 z" fill="#343534"/>
      <path d="M87.929,105.518 L96.516,105.518 L96.516,104.367 L87.929,104.367 z" fill="#353635"/>
      <path d="M87.929,104.367 L96.516,104.367 L96.516,103.216 L87.929,103.216 z" fill="#363736"/>
      <path d="M87.929,103.216 L96.516,103.216 L96.516,102.064 L87.929,102.064 z" fill="#373837"/>
      <path d="M87.929,102.064 L96.516,102.064 L96.516,100.914 L87.929,100.914 z" fill="#383938"/>
      <path d="M87.929,100.914 L96.516,100.914 L96.516,99.763 L87.929,99.763 z" fill="#3A3A39"/>
      <path d="M87.929,99.763 L96.516,99.763 L96.516,98.613 L87.929,98.613 z" fill="#3B3B3A"/>
      <path d="M87.929,98.612 L96.516,98.612 L96.516,97.461 L87.929,97.461 z" fill="#3C3C3B"/>
      <path d="M87.929,97.461 L96.516,97.461 L96.516,96.311 L87.929,96.311 z" fill="#3C3D3C"/>
      <path d="M87.929,96.311 L96.516,96.311 L96.516,95.16 L87.929,95.16 z" fill="#3D3E3D"/>
      <path d="M87.929,95.159 L96.516,95.159 L96.516,94.009 L87.929,94.009 z" fill="#3E3F3E"/>
      <path d="M87.929,94.009 L96.516,94.009 L96.516,92.857 L87.929,92.857 z" fill="#3F403F"/>
      <path d="M87.929,92.857 L96.516,92.857 L96.516,91.707 L87.929,91.707 z" fill="#404140"/>
      <path d="M87.929,91.707 L96.516,91.707 L96.516,91.535 L87.929,91.535 z" fill="#414241"/>
    </g>
    <g clip-path="url(#Clip_8)">
      <path d="M105.18,106.092 L116.081,106.092 L116.081,105.518 L105.18,105.518 z" fill="#343534"/>
      <path d="M105.18,105.518 L116.081,105.518 L116.081,104.367 L105.18,104.367 z" fill="#353635"/>
      <path d="M105.18,104.367 L116.081,104.367 L116.081,103.216 L105.18,103.216 z" fill="#363736"/>
      <path d="M105.18,103.216 L116.081,103.216 L116.081,102.064 L105.18,102.064 z" fill="#373837"/>
      <path d="M105.18,102.064 L116.081,102.064 L116.081,100.914 L105.18,100.914 z" fill="#383938"/>
      <path d="M105.18,100.914 L116.081,100.914 L116.081,99.763 L105.18,99.763 z" fill="#3A3A39"/>
      <path d="M105.18,99.763 L116.081,99.763 L116.081,98.613 L105.18,98.613 z" fill="#3B3B3A"/>
      <path d="M105.18,98.612 L116.081,98.612 L116.081,97.461 L105.18,97.461 z" fill="#3C3C3B"/>
      <path d="M105.18,97.461 L116.081,97.461 L116.081,96.311 L105.18,96.311 z" fill="#3C3D3C"/>
      <path d="M105.18,96.311 L116.081,96.311 L116.081,95.16 L105.18,95.16 z" fill="#3D3E3D"/>
      <path d="M105.18,95.159 L116.081,95.159 L116.081,94.009 L105.18,94.009 z" fill="#3E3F3E"/>
      <path d="M105.18,94.009 L116.081,94.009 L116.081,92.857 L105.18,92.857 z" fill="#3F403F"/>
      <path d="M105.18,92.857 L116.081,92.857 L116.081,91.707 L105.18,91.707 z" fill="#404140"/>
      <path d="M105.18,91.707 L116.081,91.707 L116.081,91.535 L105.18,91.535 z" fill="#414241"/>
    </g>
    <g clip-path="url(#Clip_9)">
      <path d="M136.185,106.092 L147.086,106.092 L147.086,105.518 L136.185,105.518 z" fill="#343534"/>
      <path d="M136.185,105.518 L147.086,105.518 L147.086,104.367 L136.185,104.367 z" fill="#353635"/>
      <path d="M136.185,104.367 L147.086,104.367 L147.086,103.216 L136.185,103.216 z" fill="#363736"/>
      <path d="M136.185,103.216 L147.086,103.216 L147.086,102.064 L136.185,102.064 z" fill="#373837"/>
      <path d="M136.185,102.064 L147.086,102.064 L147.086,100.914 L136.185,100.914 z" fill="#383938"/>
      <path d="M136.185,100.914 L147.086,100.914 L147.086,99.763 L136.185,99.763 z" fill="#3A3A39"/>
      <path d="M136.185,99.763 L147.086,99.763 L147.086,98.613 L136.185,98.613 z" fill="#3B3B3A"/>
      <path d="M136.185,98.612 L147.086,98.612 L147.086,97.461 L136.185,97.461 z" fill="#3C3C3B"/>
      <path d="M136.185,97.461 L147.086,97.461 L147.086,96.311 L136.185,96.311 z" fill="#3C3D3C"/>
      <path d="M136.185,96.311 L147.086,96.311 L147.086,95.16 L136.185,95.16 z" fill="#3D3E3D"/>
      <path d="M136.185,95.159 L147.086,95.159 L147.086,94.009 L136.185,94.009 z" fill="#3E3F3E"/>
      <path d="M136.185,94.009 L147.086,94.009 L147.086,92.857 L136.185,92.857 z" fill="#3F403F"/>
      <path d="M136.185,92.857 L147.086,92.857 L147.086,91.707 L136.185,91.707 z" fill="#404140"/>
      <path d="M136.185,91.707 L147.086,91.707 L147.086,91.535 L136.185,91.535 z" fill="#414241"/>
    </g>
    <g clip-path="url(#Clip_10)">
      <path d="M40.546,106.054 L52.361,106.054 L52.361,105.544 L40.546,105.544 z" fill="#2F67A3"/>
      <path d="M40.546,105.544 L52.361,105.544 L52.361,105.318 L40.546,105.318 z" fill="#2F67A3"/>
      <path d="M40.546,105.318 L52.361,105.318 L52.361,104.865 L40.546,104.865 z" fill="#3067A3"/>
      <path d="M40.546,104.865 L52.361,104.865 L52.361,104.411 L40.546,104.411 z" fill="#3068A4"/>
      <path d="M40.546,104.411 L52.361,104.411 L52.361,104.186 L40.546,104.186 z" fill="#2F68A4"/>
      <path d="M40.546,104.186 L52.361,104.186 L52.361,103.733 L40.546,103.733 z" fill="#3168A4"/>
      <path d="M40.546,103.733 L52.361,103.733 L52.361,103.054 L40.546,103.054 z" fill="#3169A4"/>
      <path d="M40.546,103.054 L52.361,103.054 L52.361,102.317 L40.546,102.317 z" fill="#3269A5"/>
      <path d="M40.546,102.317 L52.361,102.317 L52.361,102.091 L40.546,102.091 z" fill="#316AA5"/>
      <path d="M40.546,102.091 L52.361,102.091 L52.361,101.865 L40.546,101.865 z" fill="#336AA5"/>
      <path d="M40.546,101.864 L52.361,101.864 L52.361,101.185 L40.546,101.185 z" fill="#326AA5"/>
      <path d="M40.546,101.185 L52.361,101.185 L52.361,100.958 L40.546,100.958 z" fill="#326BA6"/>
      <path d="M40.546,100.958 L52.361,100.958 L52.361,100.505 L40.546,100.505 z" fill="#336BA6"/>
      <path d="M40.546,100.505 L52.361,100.505 L52.361,99.826 L40.546,99.826 z" fill="#326BA6"/>
      <path d="M40.546,99.826 L52.361,99.826 L52.361,99.373 L40.546,99.373 z" fill="#336CA7"/>
      <path d="M40.546,99.373 L52.361,99.373 L52.361,98.636 L40.546,98.636 z" fill="#336CA7"/>
      <path d="M40.546,98.636 L52.361,98.636 L52.361,97.957 L40.546,97.957 z" fill="#346DA8"/>
      <path d="M40.546,97.957 L52.361,97.957 L52.361,97.504 L40.546,97.504 z" fill="#336EA8"/>
      <path d="M40.546,97.505 L52.361,97.505 L52.361,96.825 L40.546,96.825 z" fill="#346EA8"/>
      <path d="M40.546,96.825 L52.361,96.825 L52.361,96.372 L40.546,96.372 z" fill="#346FA9"/>
      <path d="M40.546,96.372 L52.361,96.372 L52.361,96.146 L40.546,96.146 z" fill="#366FA9"/>
      <path d="M40.546,96.146 L52.361,96.146 L52.361,95.466 L40.546,95.466 z" fill="#356FA9"/>
      <path d="M40.546,95.466 L52.361,95.466 L52.361,95.24 L40.546,95.24 z" fill="#3570AA"/>
      <path d="M40.546,95.24 L52.361,95.24 L52.361,94.957 L40.546,94.957 z" fill="#3670AA"/>
      <path d="M40.546,94.957 L52.361,94.957 L52.361,94.277 L40.546,94.277 z" fill="#3670AA"/>
      <path d="M40.546,94.277 L52.361,94.277 L52.361,93.598 L40.546,93.598 z" fill="#3771AB"/>
      <path d="M40.546,93.598 L52.361,93.598 L52.361,93.145 L40.546,93.145 z" fill="#3672AB"/>
      <path d="M40.546,93.145 L52.361,93.145 L52.361,92.919 L40.546,92.919 z" fill="#3872AB"/>
      <path d="M40.546,92.919 L52.361,92.919 L52.361,92.465 L40.546,92.465 z" fill="#3772AC"/>
      <path d="M40.546,92.465 L52.361,92.465 L52.361,92.012 L40.546,92.012 z" fill="#3773AC"/>
      <path d="M40.546,92.012 L52.361,92.012 L52.361,91.786 L40.546,91.786 z" fill="#3873AC"/>
      <path d="M40.546,91.786 L52.361,91.786 L52.361,91.56 L40.546,91.56 z" fill="#3873AC"/>
    </g>
    <g clip-path="url(#Clip_11)">
      <path d="M28.571,106.054 L40.386,106.054 L40.386,105.544 L28.571,105.544 z" fill="#2F67A3"/>
      <path d="M28.571,105.544 L40.386,105.544 L40.386,105.318 L28.571,105.318 z" fill="#2F67A3"/>
      <path d="M28.571,105.318 L40.386,105.318 L40.386,104.865 L28.571,104.865 z" fill="#3067A3"/>
      <path d="M28.571,104.865 L40.386,104.865 L40.386,104.411 L28.571,104.411 z" fill="#3068A4"/>
      <path d="M28.571,104.411 L40.386,104.411 L40.386,104.186 L28.571,104.186 z" fill="#2F68A4"/>
      <path d="M28.571,104.186 L40.386,104.186 L40.386,103.733 L28.571,103.733 z" fill="#3168A4"/>
      <path d="M28.571,103.733 L40.386,103.733 L40.386,103.054 L28.571,103.054 z" fill="#3169A4"/>
      <path d="M28.571,103.054 L40.386,103.054 L40.386,102.317 L28.571,102.317 z" fill="#3269A5"/>
      <path d="M28.571,102.317 L40.386,102.317 L40.386,102.091 L28.571,102.091 z" fill="#316AA5"/>
      <path d="M28.571,102.091 L40.386,102.091 L40.386,101.865 L28.571,101.865 z" fill="#336AA5"/>
      <path d="M28.571,101.864 L40.386,101.864 L40.386,101.185 L28.571,101.185 z" fill="#326AA5"/>
      <path d="M28.571,101.185 L40.386,101.185 L40.386,100.958 L28.571,100.958 z" fill="#326BA6"/>
      <path d="M28.571,100.958 L40.386,100.958 L40.386,100.505 L28.571,100.505 z" fill="#336BA6"/>
      <path d="M28.571,100.505 L40.386,100.505 L40.386,99.826 L28.571,99.826 z" fill="#326BA6"/>
      <path d="M28.571,99.826 L40.386,99.826 L40.386,99.373 L28.571,99.373 z" fill="#336CA7"/>
      <path d="M28.571,99.373 L40.386,99.373 L40.386,98.636 L28.571,98.636 z" fill="#336CA7"/>
      <path d="M28.571,98.636 L40.386,98.636 L40.386,97.957 L28.571,97.957 z" fill="#346DA8"/>
      <path d="M28.571,97.957 L40.386,97.957 L40.386,97.504 L28.571,97.504 z" fill="#336EA8"/>
      <path d="M28.571,97.505 L40.386,97.505 L40.386,96.825 L28.571,96.825 z" fill="#346EA8"/>
      <path d="M28.571,96.825 L40.386,96.825 L40.386,96.372 L28.571,96.372 z" fill="#346FA9"/>
      <path d="M28.571,96.372 L40.386,96.372 L40.386,96.146 L28.571,96.146 z" fill="#366FA9"/>
      <path d="M28.571,96.146 L40.386,96.146 L40.386,95.466 L28.571,95.466 z" fill="#356FA9"/>
      <path d="M28.571,95.466 L40.386,95.466 L40.386,95.24 L28.571,95.24 z" fill="#3570AA"/>
      <path d="M28.571,95.24 L40.386,95.24 L40.386,94.957 L28.571,94.957 z" fill="#3670AA"/>
      <path d="M28.571,94.957 L40.386,94.957 L40.386,94.277 L28.571,94.277 z" fill="#3670AA"/>
      <path d="M28.571,94.277 L40.386,94.277 L40.386,93.598 L28.571,93.598 z" fill="#3771AB"/>
      <path d="M28.571,93.598 L40.386,93.598 L40.386,93.145 L28.571,93.145 z" fill="#3672AB"/>
      <path d="M28.571,93.145 L40.386,93.145 L40.386,92.919 L28.571,92.919 z" fill="#3872AB"/>
      <path d="M28.571,92.919 L40.386,92.919 L40.386,92.465 L28.571,92.465 z" fill="#3772AC"/>
      <path d="M28.571,92.465 L40.386,92.465 L40.386,92.012 L28.571,92.012 z" fill="#3773AC"/>
      <path d="M28.571,92.012 L40.386,92.012 L40.386,91.786 L28.571,91.786 z" fill="#3873AC"/>
      <path d="M28.571,91.786 L40.386,91.786 L40.386,91.56 L28.571,91.56 z" fill="#3873AC"/>
    </g>
    <g clip-path="url(#Clip_12)">
      <path d="M52.521,106.054 L64.336,106.054 L64.336,105.544 L52.521,105.544 z" fill="#2F67A3"/>
      <path d="M52.521,105.544 L64.336,105.544 L64.336,105.318 L52.521,105.318 z" fill="#2F67A3"/>
      <path d="M52.521,105.318 L64.336,105.318 L64.336,104.865 L52.521,104.865 z" fill="#3067A3"/>
      <path d="M52.521,104.865 L64.336,104.865 L64.336,104.411 L52.521,104.411 z" fill="#3068A4"/>
      <path d="M52.521,104.411 L64.336,104.411 L64.336,104.186 L52.521,104.186 z" fill="#2F68A4"/>
      <path d="M52.521,104.186 L64.336,104.186 L64.336,103.733 L52.521,103.733 z" fill="#3168A4"/>
      <path d="M52.521,103.733 L64.336,103.733 L64.336,103.054 L52.521,103.054 z" fill="#3169A4"/>
      <path d="M52.521,103.054 L64.336,103.054 L64.336,102.317 L52.521,102.317 z" fill="#3269A5"/>
      <path d="M52.521,102.317 L64.336,102.317 L64.336,102.091 L52.521,102.091 z" fill="#316AA5"/>
      <path d="M52.521,102.091 L64.336,102.091 L64.336,101.865 L52.521,101.865 z" fill="#336AA5"/>
      <path d="M52.521,101.864 L64.336,101.864 L64.336,101.185 L52.521,101.185 z" fill="#326AA5"/>
      <path d="M52.521,101.185 L64.336,101.185 L64.336,100.958 L52.521,100.958 z" fill="#326BA6"/>
      <path d="M52.521,100.958 L64.336,100.958 L64.336,100.505 L52.521,100.505 z" fill="#336BA6"/>
      <path d="M52.521,100.505 L64.336,100.505 L64.336,99.826 L52.521,99.826 z" fill="#326BA6"/>
      <path d="M52.521,99.826 L64.336,99.826 L64.336,99.373 L52.521,99.373 z" fill="#336CA7"/>
      <path d="M52.521,99.373 L64.336,99.373 L64.336,98.636 L52.521,98.636 z" fill="#336CA7"/>
      <path d="M52.521,98.636 L64.336,98.636 L64.336,97.957 L52.521,97.957 z" fill="#346DA8"/>
      <path d="M52.521,97.957 L64.336,97.957 L64.336,97.504 L52.521,97.504 z" fill="#336EA8"/>
      <path d="M52.521,97.505 L64.336,97.505 L64.336,96.825 L52.521,96.825 z" fill="#346EA8"/>
      <path d="M52.521,96.825 L64.336,96.825 L64.336,96.372 L52.521,96.372 z" fill="#346FA9"/>
      <path d="M52.521,96.372 L64.336,96.372 L64.336,96.146 L52.521,96.146 z" fill="#366FA9"/>
      <path d="M52.521,96.146 L64.336,96.146 L64.336,95.466 L52.521,95.466 z" fill="#356FA9"/>
      <path d="M52.521,95.466 L64.336,95.466 L64.336,95.24 L52.521,95.24 z" fill="#3570AA"/>
      <path d="M52.521,95.24 L64.336,95.24 L64.336,94.957 L52.521,94.957 z" fill="#3670AA"/>
      <path d="M52.521,94.957 L64.336,94.957 L64.336,94.277 L52.521,94.277 z" fill="#3670AA"/>
      <path d="M52.521,94.277 L64.336,94.277 L64.336,93.598 L52.521,93.598 z" fill="#3771AB"/>
      <path d="M52.521,93.598 L64.336,93.598 L64.336,93.145 L52.521,93.145 z" fill="#3672AB"/>
      <path d="M52.521,93.145 L64.336,93.145 L64.336,92.919 L52.521,92.919 z" fill="#3872AB"/>
      <path d="M52.521,92.919 L64.336,92.919 L64.336,92.465 L52.521,92.465 z" fill="#3772AC"/>
      <path d="M52.521,92.465 L64.336,92.465 L64.336,92.012 L52.521,92.012 z" fill="#3773AC"/>
      <path d="M52.521,92.012 L64.336,92.012 L64.336,91.786 L52.521,91.786 z" fill="#3873AC"/>
      <path d="M52.521,91.786 L64.336,91.786 L64.336,91.56 L52.521,91.56 z" fill="#3873AC"/>
    </g>
    <g clip-path="url(#Clip_13)">
      <path d="M53.831,91.56 L63.024,91.56 L63.024,100.675 L53.831,100.675 z" fill="#3E79B1"/>
    </g>
    <g clip-path="url(#Clip_14)">
      <path d="M41.857,91.56 L51.049,91.56 L51.049,100.675 L41.857,100.675 z" fill="#3E79B1"/>
    </g>
    <g clip-path="url(#Clip_15)">
      <path d="M29.882,91.56 L39.075,91.56 L39.075,100.675 L29.882,100.675 z" fill="#3E79B1"/>
    </g>
    <g clip-path="url(#Clip_16)">
      <path d="M28.571,106.054 L40.386,106.054 L40.386,105.864 L28.571,105.864 z" fill="#2F67A3"/>
      <path d="M28.571,105.864 L40.386,105.864 L40.386,105.78 L28.571,105.78 z" fill="#2F67A3"/>
      <path d="M28.571,105.781 L40.386,105.781 L40.386,105.613 L28.571,105.613 z" fill="#3067A3"/>
      <path d="M28.571,105.613 L40.386,105.613 L40.386,105.445 L28.571,105.445 z" fill="#3068A4"/>
      <path d="M28.571,105.445 L40.386,105.445 L40.386,105.36 L28.571,105.36 z" fill="#2F68A4"/>
      <path d="M28.571,105.36 L40.386,105.36 L40.386,105.192 L28.571,105.192 z" fill="#3168A4"/>
      <path d="M28.571,105.192 L40.386,105.192 L40.386,104.94 L28.571,104.94 z" fill="#3169A4"/>
      <path d="M28.571,104.94 L40.386,104.94 L40.386,104.666 L28.571,104.666 z" fill="#3269A5"/>
      <path d="M28.571,104.667 L40.386,104.667 L40.386,104.583 L28.571,104.583 z" fill="#316AA5"/>
      <path d="M28.571,104.583 L40.386,104.583 L40.386,104.498 L28.571,104.498 z" fill="#336AA5"/>
      <path d="M28.571,104.499 L40.386,104.499 L40.386,104.247 L28.571,104.247 z" fill="#326AA5"/>
      <path d="M28.571,104.247 L40.386,104.247 L40.386,104.162 L28.571,104.162 z" fill="#326BA6"/>
      <path d="M28.571,104.162 L40.386,104.162 L40.386,103.994 L28.571,103.994 z" fill="#336BA6"/>
      <path d="M28.571,103.994 L40.386,103.994 L40.386,103.742 L28.571,103.742 z" fill="#326BA6"/>
      <path d="M28.571,103.743 L40.386,103.743 L40.386,103.575 L28.571,103.575 z" fill="#336CA7"/>
      <path d="M28.571,103.575 L40.386,103.575 L40.386,103.301 L28.571,103.301 z" fill="#336CA7"/>
      <path d="M28.571,103.301 L40.386,103.301 L40.386,103.048 L28.571,103.048 z" fill="#346DA8"/>
      <path d="M28.571,103.048 L40.386,103.048 L40.386,102.88 L28.571,102.88 z" fill="#336EA8"/>
      <path d="M28.571,102.88 L40.386,102.88 L40.386,102.628 L28.571,102.628 z" fill="#346EA8"/>
      <path d="M28.571,102.629 L40.386,102.629 L40.386,102.461 L28.571,102.461 z" fill="#346FA9"/>
      <path d="M28.571,102.46 L40.386,102.46 L40.386,102.376 L28.571,102.376 z" fill="#366FA9"/>
      <path d="M28.571,102.376 L40.386,102.376 L40.386,102.124 L28.571,102.124 z" fill="#356FA9"/>
      <path d="M28.571,102.124 L40.386,102.124 L40.386,102.04 L28.571,102.04 z" fill="#3570AA"/>
      <path d="M28.571,102.04 L40.386,102.04 L40.386,101.936 L28.571,101.936 z" fill="#3670AA"/>
      <path d="M28.571,101.935 L40.386,101.935 L40.386,101.683 L28.571,101.683 z" fill="#3670AA"/>
      <path d="M28.571,101.684 L40.386,101.684 L40.386,101.431 L28.571,101.431 z" fill="#3771AB"/>
      <path d="M28.571,101.431 L40.386,101.431 L40.386,101.263 L28.571,101.263 z" fill="#3672AB"/>
      <path d="M28.571,101.263 L40.386,101.263 L40.386,101.179 L28.571,101.179 z" fill="#3872AB"/>
      <path d="M28.571,101.179 L40.386,101.179 L40.386,101.011 L28.571,101.011 z" fill="#3772AC"/>
      <path d="M28.571,101.011 L40.386,101.011 L40.386,100.843 L28.571,100.843 z" fill="#3773AC"/>
      <path d="M28.571,100.843 L40.386,100.843 L40.386,100.758 L28.571,100.758 z" fill="#3873AC"/>
      <path d="M28.571,100.758 L40.386,100.758 L40.386,100.674 L28.571,100.674 z" fill="#3873AC"/>
    </g>
    <g clip-path="url(#Clip_17)">
      <path d="M40.546,106.054 L52.361,106.054 L52.361,105.864 L40.546,105.864 z" fill="#2F67A3"/>
      <path d="M40.546,105.864 L52.361,105.864 L52.361,105.78 L40.546,105.78 z" fill="#2F67A3"/>
      <path d="M40.546,105.781 L52.361,105.781 L52.361,105.613 L40.546,105.613 z" fill="#3067A3"/>
      <path d="M40.546,105.613 L52.361,105.613 L52.361,105.445 L40.546,105.445 z" fill="#3068A4"/>
      <path d="M40.546,105.445 L52.361,105.445 L52.361,105.36 L40.546,105.36 z" fill="#2F68A4"/>
      <path d="M40.546,105.36 L52.361,105.36 L52.361,105.192 L40.546,105.192 z" fill="#3168A4"/>
      <path d="M40.546,105.192 L52.361,105.192 L52.361,104.94 L40.546,104.94 z" fill="#3169A4"/>
      <path d="M40.546,104.94 L52.361,104.94 L52.361,104.666 L40.546,104.666 z" fill="#3269A5"/>
      <path d="M40.546,104.667 L52.361,104.667 L52.361,104.583 L40.546,104.583 z" fill="#316AA5"/>
      <path d="M40.546,104.583 L52.361,104.583 L52.361,104.498 L40.546,104.498 z" fill="#336AA5"/>
      <path d="M40.546,104.499 L52.361,104.499 L52.361,104.247 L40.546,104.247 z" fill="#326AA5"/>
      <path d="M40.546,104.247 L52.361,104.247 L52.361,104.162 L40.546,104.162 z" fill="#326BA6"/>
      <path d="M40.546,104.162 L52.361,104.162 L52.361,103.994 L40.546,103.994 z" fill="#336BA6"/>
      <path d="M40.546,103.994 L52.361,103.994 L52.361,103.742 L40.546,103.742 z" fill="#326BA6"/>
      <path d="M40.546,103.743 L52.361,103.743 L52.361,103.575 L40.546,103.575 z" fill="#336CA7"/>
      <path d="M40.546,103.575 L52.361,103.575 L52.361,103.301 L40.546,103.301 z" fill="#336CA7"/>
      <path d="M40.546,103.301 L52.361,103.301 L52.361,103.048 L40.546,103.048 z" fill="#346DA8"/>
      <path d="M40.546,103.048 L52.361,103.048 L52.361,102.88 L40.546,102.88 z" fill="#336EA8"/>
      <path d="M40.546,102.88 L52.361,102.88 L52.361,102.628 L40.546,102.628 z" fill="#346EA8"/>
      <path d="M40.546,102.629 L52.361,102.629 L52.361,102.461 L40.546,102.461 z" fill="#346FA9"/>
      <path d="M40.546,102.46 L52.361,102.46 L52.361,102.376 L40.546,102.376 z" fill="#366FA9"/>
      <path d="M40.546,102.376 L52.361,102.376 L52.361,102.124 L40.546,102.124 z" fill="#356FA9"/>
      <path d="M40.546,102.124 L52.361,102.124 L52.361,102.04 L40.546,102.04 z" fill="#3570AA"/>
      <path d="M40.546,102.04 L52.361,102.04 L52.361,101.936 L40.546,101.936 z" fill="#3670AA"/>
      <path d="M40.546,101.935 L52.361,101.935 L52.361,101.683 L40.546,101.683 z" fill="#3670AA"/>
      <path d="M40.546,101.684 L52.361,101.684 L52.361,101.431 L40.546,101.431 z" fill="#3771AB"/>
      <path d="M40.546,101.431 L52.361,101.431 L52.361,101.263 L40.546,101.263 z" fill="#3672AB"/>
      <path d="M40.546,101.263 L52.361,101.263 L52.361,101.179 L40.546,101.179 z" fill="#3872AB"/>
      <path d="M40.546,101.179 L52.361,101.179 L52.361,101.011 L40.546,101.011 z" fill="#3772AC"/>
      <path d="M40.546,101.011 L52.361,101.011 L52.361,100.843 L40.546,100.843 z" fill="#3773AC"/>
      <path d="M40.546,100.843 L52.361,100.843 L52.361,100.758 L40.546,100.758 z" fill="#3873AC"/>
      <path d="M40.546,100.758 L52.361,100.758 L52.361,100.674 L40.546,100.674 z" fill="#3873AC"/>
    </g>
    <g clip-path="url(#Clip_18)">
      <path d="M52.521,106.054 L64.336,106.054 L64.336,105.864 L52.521,105.864 z" fill="#2F67A3"/>
      <path d="M52.521,105.864 L64.336,105.864 L64.336,105.78 L52.521,105.78 z" fill="#2F67A3"/>
      <path d="M52.521,105.781 L64.336,105.781 L64.336,105.613 L52.521,105.613 z" fill="#3067A3"/>
      <path d="M52.521,105.613 L64.336,105.613 L64.336,105.445 L52.521,105.445 z" fill="#3068A4"/>
      <path d="M52.521,105.445 L64.336,105.445 L64.336,105.36 L52.521,105.36 z" fill="#2F68A4"/>
      <path d="M52.521,105.36 L64.336,105.36 L64.336,105.192 L52.521,105.192 z" fill="#3168A4"/>
      <path d="M52.521,105.192 L64.336,105.192 L64.336,104.94 L52.521,104.94 z" fill="#3169A4"/>
      <path d="M52.521,104.94 L64.336,104.94 L64.336,104.666 L52.521,104.666 z" fill="#3269A5"/>
      <path d="M52.521,104.667 L64.336,104.667 L64.336,104.583 L52.521,104.583 z" fill="#316AA5"/>
      <path d="M52.521,104.583 L64.336,104.583 L64.336,104.498 L52.521,104.498 z" fill="#336AA5"/>
      <path d="M52.521,104.499 L64.336,104.499 L64.336,104.247 L52.521,104.247 z" fill="#326AA5"/>
      <path d="M52.521,104.247 L64.336,104.247 L64.336,104.162 L52.521,104.162 z" fill="#326BA6"/>
      <path d="M52.521,104.162 L64.336,104.162 L64.336,103.994 L52.521,103.994 z" fill="#336BA6"/>
      <path d="M52.521,103.994 L64.336,103.994 L64.336,103.742 L52.521,103.742 z" fill="#326BA6"/>
      <path d="M52.521,103.743 L64.336,103.743 L64.336,103.575 L52.521,103.575 z" fill="#336CA7"/>
      <path d="M52.521,103.575 L64.336,103.575 L64.336,103.301 L52.521,103.301 z" fill="#336CA7"/>
      <path d="M52.521,103.301 L64.336,103.301 L64.336,103.048 L52.521,103.048 z" fill="#346DA8"/>
      <path d="M52.521,103.048 L64.336,103.048 L64.336,102.88 L52.521,102.88 z" fill="#336EA8"/>
      <path d="M52.521,102.88 L64.336,102.88 L64.336,102.628 L52.521,102.628 z" fill="#346EA8"/>
      <path d="M52.521,102.629 L64.336,102.629 L64.336,102.461 L52.521,102.461 z" fill="#346FA9"/>
      <path d="M52.521,102.46 L64.336,102.46 L64.336,102.376 L52.521,102.376 z" fill="#366FA9"/>
      <path d="M52.521,102.376 L64.336,102.376 L64.336,102.124 L52.521,102.124 z" fill="#356FA9"/>
      <path d="M52.521,102.124 L64.336,102.124 L64.336,102.04 L52.521,102.04 z" fill="#3570AA"/>
      <path d="M52.521,102.04 L64.336,102.04 L64.336,101.936 L52.521,101.936 z" fill="#3670AA"/>
      <path d="M52.521,101.935 L64.336,101.935 L64.336,101.683 L52.521,101.683 z" fill="#3670AA"/>
      <path d="M52.521,101.684 L64.336,101.684 L64.336,101.431 L52.521,101.431 z" fill="#3771AB"/>
      <path d="M52.521,101.431 L64.336,101.431 L64.336,101.263 L52.521,101.263 z" fill="#3672AB"/>
      <path d="M52.521,101.263 L64.336,101.263 L64.336,101.179 L52.521,101.179 z" fill="#3872AB"/>
      <path d="M52.521,101.179 L64.336,101.179 L64.336,101.011 L52.521,101.011 z" fill="#3772AC"/>
      <path d="M52.521,101.011 L64.336,101.011 L64.336,100.843 L52.521,100.843 z" fill="#3773AC"/>
      <path d="M52.521,100.843 L64.336,100.843 L64.336,100.758 L52.521,100.758 z" fill="#3873AC"/>
      <path d="M52.521,100.758 L64.336,100.758 L64.336,100.674 L52.521,100.674 z" fill="#3873AC"/>
    </g>
    <path d="M148.628,103.374 L150.941,103.374 L150.941,106.054 L148.628,106.054 z" fill="#343534"/>
    <path d="M161.847,100.857 L161.847,101.162 C161.847,103.781 160.769,106.338 157.38,106.338 C153.726,106.338 152.589,103.983 152.589,98.807 C152.589,93.63 153.726,91.276 157.4,91.276 C161.522,91.276 161.765,94.301 161.765,95.822 L161.765,96.087 L159.452,96.087 L159.452,95.843 C159.452,94.483 159.045,92.96 157.38,93.021 C155.656,93.021 154.904,94.077 154.904,98.746 C154.904,103.415 155.656,104.592 157.38,104.592 C159.33,104.592 159.532,102.461 159.532,101.101 L159.532,100.857 L161.847,100.857" fill="#343534"/>
    <path d="M162.761,104.227 L168.83,93.509 L163.127,93.509 L163.127,91.56 L171.369,91.56 L171.369,93.509 L165.299,104.105 L171.429,104.105 L171.429,106.054 L162.761,106.054 L162.761,104.227" fill="#343534"/>
    <g clip-path="url(#Clip_19)">
      <path d="M125.958,100.675 L135.235,100.675 L135.235,100.639 L125.958,100.639 z" fill="#4C4D4C"/>
      <path d="M125.958,100.639 L135.235,100.639 L135.235,99.927 L125.958,99.927 z" fill="#4D4E4D"/>
      <path d="M125.958,99.927 L135.235,99.927 L135.235,99.215 L125.958,99.215 z" fill="#4E4F4E"/>
      <path d="M125.958,99.215 L135.235,99.215 L135.235,98.503 L125.958,98.503 z" fill="#4F504F"/>
      <path d="M125.958,98.503 L135.235,98.503 L135.235,97.791 L125.958,97.791 z" fill="#505150"/>
      <path d="M125.958,97.791 L135.235,97.791 L135.235,97.078 L125.958,97.078 z" fill="#515251"/>
      <path d="M125.958,97.078 L135.235,97.078 L135.235,96.367 L125.958,96.367 z" fill="#525352"/>
      <path d="M125.958,96.367 L135.235,96.367 L135.235,95.654 L125.958,95.654 z" fill="#535453"/>
      <path d="M125.958,95.654 L135.235,95.654 L135.235,94.942 L125.958,94.942 z" fill="#545554"/>
      <path d="M125.958,94.942 L135.235,94.942 L135.235,94.23 L125.958,94.23 z" fill="#555655"/>
      <path d="M125.958,94.23 L135.235,94.23 L135.235,93.518 L125.958,93.518 z" fill="#565756"/>
      <path d="M125.958,93.518 L135.235,93.518 L135.235,92.806 L125.958,92.806 z" fill="#575856"/>
      <path d="M125.958,92.806 L135.235,92.806 L135.235,92.094 L125.958,92.094 z" fill="#585957"/>
      <path d="M125.958,92.094 L135.235,92.094 L135.235,91.56 L125.958,91.56 z" fill="#595A58"/>
    </g>
    <g clip-path="url(#Clip_20)">
      <path d="M97.022,100.675 L106.177,100.675 L106.177,100.639 L97.022,100.639 z" fill="#4C4D4C"/>
      <path d="M97.022,100.639 L106.177,100.639 L106.177,99.927 L97.022,99.927 z" fill="#4D4E4D"/>
      <path d="M97.022,99.927 L106.177,99.927 L106.177,99.215 L97.022,99.215 z" fill="#4E4F4E"/>
      <path d="M97.022,99.215 L106.177,99.215 L106.177,98.503 L97.022,98.503 z" fill="#4F504F"/>
      <path d="M97.022,98.503 L106.177,98.503 L106.177,97.791 L97.022,97.791 z" fill="#505150"/>
      <path d="M97.022,97.791 L106.177,97.791 L106.177,97.078 L97.022,97.078 z" fill="#515251"/>
      <path d="M97.022,97.078 L106.177,97.078 L106.177,96.367 L97.022,96.367 z" fill="#525352"/>
      <path d="M97.022,96.367 L106.177,96.367 L106.177,95.654 L97.022,95.654 z" fill="#535453"/>
      <path d="M97.022,95.654 L106.177,95.654 L106.177,94.942 L97.022,94.942 z" fill="#545554"/>
      <path d="M97.022,94.942 L106.177,94.942 L106.177,94.23 L97.022,94.23 z" fill="#555655"/>
      <path d="M97.022,94.23 L106.177,94.23 L106.177,93.518 L97.022,93.518 z" fill="#565756"/>
      <path d="M97.022,93.518 L106.177,93.518 L106.177,92.806 L97.022,92.806 z" fill="#575856"/>
      <path d="M97.022,92.806 L106.177,92.806 L106.177,92.094 L97.022,92.094 z" fill="#585957"/>
      <path d="M97.022,92.094 L106.177,92.094 L106.177,91.56 L97.022,91.56 z" fill="#595A58"/>
    </g>
    <g clip-path="url(#Clip_21)">
      <path d="M120.162,100.675 L124.665,100.675 L124.665,100.639 L120.162,100.639 z" fill="#4C4D4C"/>
      <path d="M120.162,100.639 L124.665,100.639 L124.665,99.927 L120.162,99.927 z" fill="#4D4E4D"/>
      <path d="M120.162,99.927 L124.665,99.927 L124.665,99.215 L120.162,99.215 z" fill="#4E4F4E"/>
      <path d="M120.162,99.215 L124.665,99.215 L124.665,98.503 L120.162,98.503 z" fill="#4F504F"/>
      <path d="M120.162,98.503 L124.665,98.503 L124.665,97.791 L120.162,97.791 z" fill="#505150"/>
      <path d="M120.162,97.791 L124.665,97.791 L124.665,97.078 L120.162,97.078 z" fill="#515251"/>
      <path d="M120.162,97.078 L124.665,97.078 L124.665,96.367 L120.162,96.367 z" fill="#525352"/>
      <path d="M120.162,96.367 L124.665,96.367 L124.665,95.654 L120.162,95.654 z" fill="#535453"/>
      <path d="M120.162,95.654 L124.665,95.654 L124.665,94.942 L120.162,94.942 z" fill="#545554"/>
      <path d="M120.162,94.942 L124.665,94.942 L124.665,94.23 L120.162,94.23 z" fill="#555655"/>
      <path d="M120.162,94.23 L124.665,94.23 L124.665,93.518 L120.162,93.518 z" fill="#565756"/>
      <path d="M120.162,93.518 L124.665,93.518 L124.665,92.806 L120.162,92.806 z" fill="#575856"/>
      <path d="M120.162,92.806 L124.665,92.806 L124.665,92.094 L120.162,92.094 z" fill="#585957"/>
      <path d="M120.162,92.094 L124.665,92.094 L124.665,91.56 L120.162,91.56 z" fill="#595A58"/>
    </g>
    <g clip-path="url(#Clip_22)">
      <path d="M109.322,90.585 L112.975,90.585 L112.975,90.564 L109.322,90.564 z" fill="#4C4D4C"/>
      <path d="M109.322,90.565 L112.975,90.565 L112.975,90.335 L109.322,90.335 z" fill="#4D4E4D"/>
      <path d="M109.322,90.335 L112.975,90.335 L112.975,90.105 L109.322,90.105 z" fill="#4E4F4E"/>
      <path d="M109.322,90.105 L112.975,90.105 L112.975,89.875 L109.322,89.875 z" fill="#4F504F"/>
      <path d="M109.322,89.875 L112.975,89.875 L112.975,89.645 L109.322,89.645 z" fill="#505150"/>
      <path d="M109.322,89.645 L112.975,89.645 L112.975,89.415 L109.322,89.415 z" fill="#515251"/>
      <path d="M109.322,89.416 L112.975,89.416 L112.975,89.186 L109.322,89.186 z" fill="#525352"/>
      <path d="M109.322,89.186 L112.975,89.186 L112.975,88.957 L109.322,88.957 z" fill="#535453"/>
      <path d="M109.322,88.957 L112.975,88.957 L112.975,88.727 L109.322,88.727 z" fill="#545554"/>
      <path d="M109.322,88.727 L112.975,88.727 L112.975,88.497 L109.322,88.497 z" fill="#555655"/>
      <path d="M109.322,88.497 L112.975,88.497 L112.975,88.267 L109.322,88.267 z" fill="#565756"/>
      <path d="M109.322,88.268 L112.975,88.268 L112.975,88.038 L109.322,88.038 z" fill="#575856"/>
      <path d="M109.322,88.038 L112.975,88.038 L112.975,87.808 L109.322,87.808 z" fill="#585957"/>
      <path d="M109.322,87.808 L112.975,87.808 L112.975,87.662 L109.322,87.662 z" fill="#595A58"/>
    </g>
    <g clip-path="url(#Clip_23)">
      <path d="M114.658,100.675 L119.048,100.675 L119.048,100.639 L114.658,100.639 z" fill="#4C4D4C"/>
      <path d="M114.658,100.639 L119.048,100.639 L119.048,99.927 L114.658,99.927 z" fill="#4D4E4D"/>
      <path d="M114.658,99.927 L119.048,99.927 L119.048,99.215 L114.658,99.215 z" fill="#4E4F4E"/>
      <path d="M114.658,99.215 L119.048,99.215 L119.048,98.503 L114.658,98.503 z" fill="#4F504F"/>
      <path d="M114.658,98.503 L119.048,98.503 L119.048,97.791 L114.658,97.791 z" fill="#505150"/>
      <path d="M114.658,97.791 L119.048,97.791 L119.048,97.078 L114.658,97.078 z" fill="#515251"/>
      <path d="M114.658,97.078 L119.048,97.078 L119.048,96.367 L114.658,96.367 z" fill="#525352"/>
      <path d="M114.658,96.367 L119.048,96.367 L119.048,95.654 L114.658,95.654 z" fill="#535453"/>
      <path d="M114.658,95.654 L119.048,95.654 L119.048,94.942 L114.658,94.942 z" fill="#545554"/>
      <path d="M114.658,94.942 L119.048,94.942 L119.048,94.23 L114.658,94.23 z" fill="#555655"/>
      <path d="M114.658,94.23 L119.048,94.23 L119.048,93.518 L114.658,93.518 z" fill="#565756"/>
      <path d="M114.658,93.518 L119.048,93.518 L119.048,92.806 L114.658,92.806 z" fill="#575856"/>
      <path d="M114.658,92.806 L119.048,92.806 L119.048,92.094 L114.658,92.094 z" fill="#585957"/>
      <path d="M114.658,92.094 L119.048,92.094 L119.048,91.56 L114.658,91.56 z" fill="#595A58"/>
    </g>
    <g clip-path="url(#Clip_24)">
      <path d="M76.379,100.675 L85.96,100.675 L85.96,100.638 L76.379,100.638 z" fill="#4C4D4C"/>
      <path d="M76.379,100.638 L85.96,100.638 L85.96,99.903 L76.379,99.903 z" fill="#4D4E4D"/>
      <path d="M76.379,99.904 L85.96,99.904 L85.96,99.169 L76.379,99.169 z" fill="#4E4F4E"/>
      <path d="M76.379,99.169 L85.96,99.169 L85.96,98.435 L76.379,98.435 z" fill="#4F504F"/>
      <path d="M76.379,98.435 L85.96,98.435 L85.96,97.7 L76.379,97.7 z" fill="#505150"/>
      <path d="M76.379,97.7 L85.96,97.7 L85.96,96.966 L76.379,96.966 z" fill="#515251"/>
      <path d="M76.379,96.966 L85.96,96.966 L85.96,96.231 L76.379,96.231 z" fill="#525352"/>
      <path d="M76.379,96.231 L85.96,96.231 L85.96,95.497 L76.379,95.497 z" fill="#535453"/>
      <path d="M76.379,95.498 L85.96,95.498 L85.96,94.763 L76.379,94.763 z" fill="#545554"/>
      <path d="M76.379,94.763 L85.96,94.763 L85.96,94.028 L76.379,94.028 z" fill="#555655"/>
      <path d="M76.379,94.029 L85.96,94.029 L85.96,93.295 L76.379,93.295 z" fill="#565756"/>
      <path d="M76.379,93.295 L85.96,93.295 L85.96,92.56 L76.379,92.56 z" fill="#575856"/>
      <path d="M76.379,92.561 L85.96,92.561 L85.96,91.826 L76.379,91.826 z" fill="#585957"/>
      <path d="M76.379,91.826 L85.96,91.826 L85.96,91.276 L76.379,91.276 z" fill="#595A58"/>
    </g>
    <g clip-path="url(#Clip_25)">
      <path d="M66.493,100.675 L75.079,100.675 L75.079,100.639 L66.493,100.639 z" fill="#4C4D4C"/>
      <path d="M66.493,100.639 L75.079,100.639 L75.079,99.927 L66.493,99.927 z" fill="#4D4E4D"/>
      <path d="M66.493,99.927 L75.079,99.927 L75.079,99.215 L66.493,99.215 z" fill="#4E4F4E"/>
      <path d="M66.493,99.215 L75.079,99.215 L75.079,98.503 L66.493,98.503 z" fill="#4F504F"/>
      <path d="M66.493,98.503 L75.079,98.503 L75.079,97.791 L66.493,97.791 z" fill="#505150"/>
      <path d="M66.493,97.791 L75.079,97.791 L75.079,97.078 L66.493,97.078 z" fill="#515251"/>
      <path d="M66.493,97.078 L75.079,97.078 L75.079,96.367 L66.493,96.367 z" fill="#525352"/>
      <path d="M66.493,96.367 L75.079,96.367 L75.079,95.654 L66.493,95.654 z" fill="#535453"/>
      <path d="M66.493,95.654 L75.079,95.654 L75.079,94.942 L66.493,94.942 z" fill="#545554"/>
      <path d="M66.493,94.942 L75.079,94.942 L75.079,94.23 L66.493,94.23 z" fill="#555655"/>
      <path d="M66.493,94.23 L75.079,94.23 L75.079,93.518 L66.493,93.518 z" fill="#565756"/>
      <path d="M66.493,93.518 L75.079,93.518 L75.079,92.806 L66.493,92.806 z" fill="#575856"/>
      <path d="M66.493,92.806 L75.079,92.806 L75.079,92.094 L66.493,92.094 z" fill="#585957"/>
      <path d="M66.493,92.094 L75.079,92.094 L75.079,91.56 L66.493,91.56 z" fill="#595A58"/>
    </g>
    <g clip-path="url(#Clip_26)">
      <path d="M87.929,100.675 L96.516,100.675 L96.516,100.639 L87.929,100.639 z" fill="#4C4D4C"/>
      <path d="M87.929,100.639 L96.516,100.639 L96.516,99.927 L87.929,99.927 z" fill="#4D4E4D"/>
      <path d="M87.929,99.927 L96.516,99.927 L96.516,99.215 L87.929,99.215 z" fill="#4E4F4E"/>
      <path d="M87.929,99.215 L96.516,99.215 L96.516,98.503 L87.929,98.503 z" fill="#4F504F"/>
      <path d="M87.929,98.503 L96.516,98.503 L96.516,97.791 L87.929,97.791 z" fill="#505150"/>
      <path d="M87.929,97.791 L96.516,97.791 L96.516,97.078 L87.929,97.078 z" fill="#515251"/>
      <path d="M87.929,97.078 L96.516,97.078 L96.516,96.367 L87.929,96.367 z" fill="#525352"/>
      <path d="M87.929,96.367 L96.516,96.367 L96.516,95.654 L87.929,95.654 z" fill="#535453"/>
      <path d="M87.929,95.654 L96.516,95.654 L96.516,94.942 L87.929,94.942 z" fill="#545554"/>
      <path d="M87.929,94.942 L96.516,94.942 L96.516,94.23 L87.929,94.23 z" fill="#555655"/>
      <path d="M87.929,94.23 L96.516,94.23 L96.516,93.518 L87.929,93.518 z" fill="#565756"/>
      <path d="M87.929,93.518 L96.516,93.518 L96.516,92.806 L87.929,92.806 z" fill="#575856"/>
      <path d="M87.929,92.806 L96.516,92.806 L96.516,92.094 L87.929,92.094 z" fill="#585957"/>
      <path d="M87.929,92.094 L96.516,92.094 L96.516,91.56 L87.929,91.56 z" fill="#595A58"/>
    </g>
    <g clip-path="url(#Clip_27)">
      <path d="M106.709,100.675 L114.664,100.675 L114.664,100.639 L106.709,100.639 z" fill="#4C4D4C"/>
      <path d="M106.709,100.639 L114.664,100.639 L114.664,99.927 L106.709,99.927 z" fill="#4D4E4D"/>
      <path d="M106.709,99.927 L114.664,99.927 L114.664,99.215 L106.709,99.215 z" fill="#4E4F4E"/>
      <path d="M106.709,99.215 L114.664,99.215 L114.664,98.503 L106.709,98.503 z" fill="#4F504F"/>
      <path d="M106.709,98.503 L114.664,98.503 L114.664,97.791 L106.709,97.791 z" fill="#505150"/>
      <path d="M106.709,97.791 L114.664,97.791 L114.664,97.078 L106.709,97.078 z" fill="#515251"/>
      <path d="M106.709,97.078 L114.664,97.078 L114.664,96.367 L106.709,96.367 z" fill="#525352"/>
      <path d="M106.709,96.367 L114.664,96.367 L114.664,95.654 L106.709,95.654 z" fill="#535453"/>
      <path d="M106.709,95.654 L114.664,95.654 L114.664,94.942 L106.709,94.942 z" fill="#545554"/>
      <path d="M106.709,94.942 L114.664,94.942 L114.664,94.23 L106.709,94.23 z" fill="#555655"/>
      <path d="M106.709,94.23 L114.664,94.23 L114.664,93.518 L106.709,93.518 z" fill="#565756"/>
      <path d="M106.709,93.518 L114.664,93.518 L114.664,92.806 L106.709,92.806 z" fill="#575856"/>
      <path d="M106.709,92.806 L114.664,92.806 L114.664,92.094 L106.709,92.094 z" fill="#585957"/>
      <path d="M106.709,92.094 L114.664,92.094 L114.664,91.56 L106.709,91.56 z" fill="#595A58"/>
    </g>
    <g clip-path="url(#Clip_28)">
      <path d="M137.715,100.675 L145.67,100.675 L145.67,100.639 L137.715,100.639 z" fill="#4C4D4C"/>
      <path d="M137.715,100.639 L145.67,100.639 L145.67,99.927 L137.715,99.927 z" fill="#4D4E4D"/>
      <path d="M137.715,99.927 L145.67,99.927 L145.67,99.215 L137.715,99.215 z" fill="#4E4F4E"/>
      <path d="M137.715,99.215 L145.67,99.215 L145.67,98.503 L137.715,98.503 z" fill="#4F504F"/>
      <path d="M137.715,98.503 L145.67,98.503 L145.67,97.791 L137.715,97.791 z" fill="#505150"/>
      <path d="M137.715,97.791 L145.67,97.791 L145.67,97.078 L137.715,97.078 z" fill="#515251"/>
      <path d="M137.715,97.078 L145.67,97.078 L145.67,96.367 L137.715,96.367 z" fill="#525352"/>
      <path d="M137.715,96.367 L145.67,96.367 L145.67,95.654 L137.715,95.654 z" fill="#535453"/>
      <path d="M137.715,95.654 L145.67,95.654 L145.67,94.942 L137.715,94.942 z" fill="#545554"/>
      <path d="M137.715,94.942 L145.67,94.942 L145.67,94.23 L137.715,94.23 z" fill="#555655"/>
      <path d="M137.715,94.23 L145.67,94.23 L145.67,93.518 L137.715,93.518 z" fill="#565756"/>
      <path d="M137.715,93.518 L145.67,93.518 L145.67,92.806 L137.715,92.806 z" fill="#575856"/>
      <path d="M137.715,92.806 L145.67,92.806 L145.67,92.094 L137.715,92.094 z" fill="#585957"/>
      <path d="M137.715,92.094 L145.67,92.094 L145.67,91.56 L137.715,91.56 z" fill="#595A58"/>
    </g>
    <g clip-path="url(#Clip_29)">
      <path d="M100.474,106.068 L102.787,106.068 L102.787,105.855 L100.474,105.855 z" fill="#343534"/>
      <path d="M100.474,105.855 L102.787,105.855 L102.787,105.428 L100.474,105.428 z" fill="#353635"/>
      <path d="M100.474,105.427 L102.787,105.427 L102.787,105 L100.474,105 z" fill="#363736"/>
      <path d="M100.474,105 L102.787,105 L102.787,104.573 L100.474,104.573 z" fill="#373837"/>
      <path d="M100.474,104.573 L102.787,104.573 L102.787,104.146 L100.474,104.146 z" fill="#383938"/>
      <path d="M100.474,104.146 L102.787,104.146 L102.787,103.72 L100.474,103.72 z" fill="#3A3A39"/>
      <path d="M100.474,103.72 L102.787,103.72 L102.787,103.292 L100.474,103.292 z" fill="#3B3B3A"/>
      <path d="M100.474,103.291 L102.787,103.291 L102.787,102.865 L100.474,102.865 z" fill="#3C3C3B"/>
      <path d="M100.474,102.865 L102.787,102.865 L102.787,102.438 L100.474,102.438 z" fill="#3C3D3C"/>
      <path d="M100.474,102.438 L102.787,102.438 L102.787,102.011 L100.474,102.011 z" fill="#3D3E3D"/>
      <path d="M100.474,102.011 L102.787,102.011 L102.787,101.584 L100.474,101.584 z" fill="#3E3F3E"/>
      <path d="M100.474,101.583 L102.787,101.583 L102.787,101.156 L100.474,101.156 z" fill="#3F403F"/>
      <path d="M100.474,101.156 L102.787,101.156 L102.787,100.729 L100.474,100.729 z" fill="#404140"/>
      <path d="M100.474,100.729 L102.787,100.729 L102.787,100.665 L100.474,100.665 z" fill="#414241"/>
      <path d="M100.474,106.068 L102.787,106.068 L102.787,105.855 L100.474,105.855 z" fill="#343534"/>
      <path d="M100.474,105.855 L102.787,105.855 L102.787,105.428 L100.474,105.428 z" fill="#353635"/>
      <path d="M100.474,105.427 L102.787,105.427 L102.787,105 L100.474,105 z" fill="#363736"/>
      <path d="M100.474,105 L102.787,105 L102.787,104.573 L100.474,104.573 z" fill="#373837"/>
      <path d="M100.474,104.573 L102.787,104.573 L102.787,104.146 L100.474,104.146 z" fill="#383938"/>
      <path d="M100.474,104.146 L102.787,104.146 L102.787,103.72 L100.474,103.72 z" fill="#3A3A39"/>
      <path d="M100.474,103.72 L102.787,103.72 L102.787,103.292 L100.474,103.292 z" fill="#3B3B3A"/>
      <path d="M100.474,103.291 L102.787,103.291 L102.787,102.865 L100.474,102.865 z" fill="#3C3C3B"/>
      <path d="M100.474,102.865 L102.787,102.865 L102.787,102.438 L100.474,102.438 z" fill="#3C3D3C"/>
      <path d="M100.474,102.438 L102.787,102.438 L102.787,102.011 L100.474,102.011 z" fill="#3D3E3D"/>
      <path d="M100.474,102.011 L102.787,102.011 L102.787,101.584 L100.474,101.584 z" fill="#3E3F3E"/>
      <path d="M100.474,101.583 L102.787,101.583 L102.787,101.156 L100.474,101.156 z" fill="#3F403F"/>
      <path d="M100.474,101.156 L102.787,101.156 L102.787,100.729 L100.474,100.729 z" fill="#404140"/>
      <path d="M100.474,100.729 L102.787,100.729 L102.787,100.665 L100.474,100.665 z" fill="#414241"/>
    </g>
    <g clip-path="url(#Clip_30)">
      <path d="M87.929,106.068 L90.244,106.068 L90.244,106.047 L87.929,106.047 z" fill="#343534"/>
    </g>
    <path d="M87.929,106.047 L90.244,106.047 L90.244,105.855 L87.929,105.855 z" fill="#343534"/>
    <path d="M87.929,105.855 L90.244,105.855 L90.244,105.428 L87.929,105.428 z" fill="#353635"/>
    <path d="M87.929,105.427 L90.244,105.427 L90.244,105.001 L87.929,105.001 z" fill="#363736"/>
    <path d="M87.929,105.001 L90.244,105.001 L90.244,104.573 L87.929,104.573 z" fill="#373837"/>
    <path d="M87.929,104.573 L90.244,104.573 L90.244,104.146 L87.929,104.146 z" fill="#383938"/>
    <path d="M87.929,104.146 L90.244,104.146 L90.244,103.72 L87.929,103.72 z" fill="#3A3A39"/>
    <path d="M87.929,103.72 L90.244,103.72 L90.244,103.292 L87.929,103.292 z" fill="#3B3B3A"/>
    <path d="M87.929,103.291 L90.244,103.291 L90.244,102.865 L87.929,102.865 z" fill="#3C3C3B"/>
    <path d="M87.929,102.865 L90.244,102.865 L90.244,102.438 L87.929,102.438 z" fill="#3C3D3C"/>
    <path d="M87.929,102.438 L90.244,102.438 L90.244,102.011 L87.929,102.011 z" fill="#3D3E3D"/>
    <path d="M87.929,102.011 L90.244,102.011 L90.244,101.584 L87.929,101.584 z" fill="#3E3F3E"/>
    <path d="M87.929,101.583 L90.244,101.583 L90.244,101.156 L87.929,101.156 z" fill="#3F403F"/>
    <path d="M87.929,101.156 L90.244,101.156 L90.244,100.729 L87.929,100.729 z" fill="#404140"/>
    <path d="M87.929,100.729 L90.244,100.729 L90.244,100.687 L87.929,100.687 z" fill="#414241"/>
    <g clip-path="url(#Clip_31)">
      <path d="M87.929,100.686 L90.244,100.686 L90.244,100.665 L87.929,100.665 z" fill="#414241"/>
      <path d="M87.929,106.068 L90.244,106.068 L90.244,106.047 L87.929,106.047 z" fill="#343534"/>
    </g>
    <path d="M87.929,106.047 L90.244,106.047 L90.244,105.855 L87.929,105.855 z" fill="#343534"/>
    <path d="M87.929,105.855 L90.244,105.855 L90.244,105.428 L87.929,105.428 z" fill="#353635"/>
    <path d="M87.929,105.427 L90.244,105.427 L90.244,105.001 L87.929,105.001 z" fill="#363736"/>
    <path d="M87.929,105.001 L90.244,105.001 L90.244,104.573 L87.929,104.573 z" fill="#373837"/>
    <path d="M87.929,104.573 L90.244,104.573 L90.244,104.146 L87.929,104.146 z" fill="#383938"/>
    <path d="M87.929,104.146 L90.244,104.146 L90.244,103.72 L87.929,103.72 z" fill="#3A3A39"/>
    <path d="M87.929,103.72 L90.244,103.72 L90.244,103.292 L87.929,103.292 z" fill="#3B3B3A"/>
    <path d="M87.929,103.291 L90.244,103.291 L90.244,102.865 L87.929,102.865 z" fill="#3C3C3B"/>
    <path d="M87.929,102.865 L90.244,102.865 L90.244,102.438 L87.929,102.438 z" fill="#3C3D3C"/>
    <path d="M87.929,102.438 L90.244,102.438 L90.244,102.011 L87.929,102.011 z" fill="#3D3E3D"/>
    <path d="M87.929,102.011 L90.244,102.011 L90.244,101.584 L87.929,101.584 z" fill="#3E3F3E"/>
    <path d="M87.929,101.583 L90.244,101.583 L90.244,101.156 L87.929,101.156 z" fill="#3F403F"/>
    <path d="M87.929,101.156 L90.244,101.156 L90.244,100.729 L87.929,100.729 z" fill="#404140"/>
    <path d="M87.929,100.729 L90.244,100.729 L90.244,100.687 L87.929,100.687 z" fill="#414241"/>
    <g clip-path="url(#Clip_32)">
      <path d="M87.929,100.686 L90.244,100.686 L90.244,100.665 L87.929,100.665 z" fill="#414241"/>
    </g>
    <g clip-path="url(#Clip_33)">
      <path d="M76.455,106.338 L85.884,106.338 L85.884,105.855 L76.455,105.855 z" fill="#343534"/>
      <path d="M76.455,105.855 L85.884,105.855 L85.884,105.428 L76.455,105.428 z" fill="#353635"/>
      <path d="M76.455,105.427 L85.884,105.427 L85.884,105 L76.455,105 z" fill="#363736"/>
      <path d="M76.455,105 L85.884,105 L85.884,104.573 L76.455,104.573 z" fill="#373837"/>
      <path d="M76.455,104.573 L85.884,104.573 L85.884,104.146 L76.455,104.146 z" fill="#383938"/>
      <path d="M76.455,104.146 L85.884,104.146 L85.884,103.72 L76.455,103.72 z" fill="#3A3A39"/>
      <path d="M76.455,103.72 L85.884,103.72 L85.884,103.292 L76.455,103.292 z" fill="#3B3B3A"/>
      <path d="M76.455,103.291 L85.884,103.291 L85.884,102.865 L76.455,102.865 z" fill="#3C3C3B"/>
      <path d="M76.455,102.865 L85.884,102.865 L85.884,102.438 L76.455,102.438 z" fill="#3C3D3C"/>
      <path d="M76.455,102.438 L85.884,102.438 L85.884,102.011 L76.455,102.011 z" fill="#3D3E3D"/>
      <path d="M76.455,102.011 L85.884,102.011 L85.884,101.584 L76.455,101.584 z" fill="#3E3F3E"/>
      <path d="M76.455,101.583 L85.884,101.583 L85.884,101.156 L76.455,101.156 z" fill="#3F403F"/>
      <path d="M76.455,101.156 L85.884,101.156 L85.884,100.729 L76.455,100.729 z" fill="#404140"/>
      <path d="M76.455,100.729 L85.884,100.729 L85.884,100.665 L76.455,100.665 z" fill="#414241"/>
      <path d="M76.455,106.338 L85.884,106.338 L85.884,105.855 L76.455,105.855 z" fill="#343534"/>
      <path d="M76.455,105.855 L85.884,105.855 L85.884,105.428 L76.455,105.428 z" fill="#353635"/>
      <path d="M76.455,105.427 L85.884,105.427 L85.884,105 L76.455,105 z" fill="#363736"/>
      <path d="M76.455,105 L85.884,105 L85.884,104.573 L76.455,104.573 z" fill="#373837"/>
      <path d="M76.455,104.573 L85.884,104.573 L85.884,104.146 L76.455,104.146 z" fill="#383938"/>
      <path d="M76.455,104.146 L85.884,104.146 L85.884,103.72 L76.455,103.72 z" fill="#3A3A39"/>
      <path d="M76.455,103.72 L85.884,103.72 L85.884,103.292 L76.455,103.292 z" fill="#3B3B3A"/>
      <path d="M76.455,103.291 L85.884,103.291 L85.884,102.865 L76.455,102.865 z" fill="#3C3C3B"/>
      <path d="M76.455,102.865 L85.884,102.865 L85.884,102.438 L76.455,102.438 z" fill="#3C3D3C"/>
      <path d="M76.455,102.438 L85.884,102.438 L85.884,102.011 L76.455,102.011 z" fill="#3D3E3D"/>
      <path d="M76.455,102.011 L85.884,102.011 L85.884,101.584 L76.455,101.584 z" fill="#3E3F3E"/>
      <path d="M76.455,101.583 L85.884,101.583 L85.884,101.156 L76.455,101.156 z" fill="#3F403F"/>
      <path d="M76.455,101.156 L85.884,101.156 L85.884,100.729 L76.455,100.729 z" fill="#404140"/>
      <path d="M76.455,100.729 L85.884,100.729 L85.884,100.665 L76.455,100.665 z" fill="#414241"/>
    </g>
    <g clip-path="url(#Clip_34)">
      <path d="M136.185,106.068 L147.086,106.068 L147.086,105.855 L136.185,105.855 z" fill="#343534"/>
      <path d="M136.185,105.855 L147.086,105.855 L147.086,105.428 L136.185,105.428 z" fill="#353635"/>
      <path d="M136.185,105.427 L147.086,105.427 L147.086,105 L136.185,105 z" fill="#363736"/>
      <path d="M136.185,105 L147.086,105 L147.086,104.573 L136.185,104.573 z" fill="#373837"/>
      <path d="M136.185,104.573 L147.086,104.573 L147.086,104.146 L136.185,104.146 z" fill="#383938"/>
      <path d="M136.185,104.146 L147.086,104.146 L147.086,103.72 L136.185,103.72 z" fill="#3A3A39"/>
      <path d="M136.185,103.72 L147.086,103.72 L147.086,103.292 L136.185,103.292 z" fill="#3B3B3A"/>
      <path d="M136.185,103.291 L147.086,103.291 L147.086,102.865 L136.185,102.865 z" fill="#3C3C3B"/>
      <path d="M136.185,102.865 L147.086,102.865 L147.086,102.438 L136.185,102.438 z" fill="#3C3D3C"/>
      <path d="M136.185,102.438 L147.086,102.438 L147.086,102.011 L136.185,102.011 z" fill="#3D3E3D"/>
      <path d="M136.185,102.011 L147.086,102.011 L147.086,101.584 L136.185,101.584 z" fill="#3E3F3E"/>
      <path d="M136.185,101.583 L147.086,101.583 L147.086,101.156 L136.185,101.156 z" fill="#3F403F"/>
      <path d="M136.185,101.156 L147.086,101.156 L147.086,100.729 L136.185,100.729 z" fill="#404140"/>
      <path d="M136.185,100.729 L147.086,100.729 L147.086,100.665 L136.185,100.665 z" fill="#414241"/>
      <path d="M136.185,106.068 L147.086,106.068 L147.086,105.855 L136.185,105.855 z" fill="#343534"/>
      <path d="M136.185,105.855 L147.086,105.855 L147.086,105.428 L136.185,105.428 z" fill="#353635"/>
      <path d="M136.185,105.427 L147.086,105.427 L147.086,105 L136.185,105 z" fill="#363736"/>
      <path d="M136.185,105 L147.086,105 L147.086,104.573 L136.185,104.573 z" fill="#373837"/>
      <path d="M136.185,104.573 L147.086,104.573 L147.086,104.146 L136.185,104.146 z" fill="#383938"/>
      <path d="M136.185,104.146 L147.086,104.146 L147.086,103.72 L136.185,103.72 z" fill="#3A3A39"/>
      <path d="M136.185,103.72 L147.086,103.72 L147.086,103.292 L136.185,103.292 z" fill="#3B3B3A"/>
      <path d="M136.185,103.291 L147.086,103.291 L147.086,102.865 L136.185,102.865 z" fill="#3C3C3B"/>
      <path d="M136.185,102.865 L147.086,102.865 L147.086,102.438 L136.185,102.438 z" fill="#3C3D3C"/>
      <path d="M136.185,102.438 L147.086,102.438 L147.086,102.011 L136.185,102.011 z" fill="#3D3E3D"/>
      <path d="M136.185,102.011 L147.086,102.011 L147.086,101.584 L136.185,101.584 z" fill="#3E3F3E"/>
      <path d="M136.185,101.583 L147.086,101.583 L147.086,101.156 L136.185,101.156 z" fill="#3F403F"/>
      <path d="M136.185,101.156 L147.086,101.156 L147.086,100.729 L136.185,100.729 z" fill="#404140"/>
      <path d="M136.185,100.729 L147.086,100.729 L147.086,100.665 L136.185,100.665 z" fill="#414241"/>
    </g>
    <g clip-path="url(#Clip_35)">
      <path d="M66.493,106.068 L68.808,106.068 L68.808,106.047 L66.493,106.047 z" fill="#343534"/>
    </g>
    <path d="M66.493,106.047 L68.808,106.047 L68.808,105.855 L66.493,105.855 z" fill="#343534"/>
    <path d="M66.493,105.855 L68.808,105.855 L68.808,105.428 L66.493,105.428 z" fill="#353635"/>
    <path d="M66.493,105.427 L68.808,105.427 L68.808,105.001 L66.493,105.001 z" fill="#363736"/>
    <path d="M66.493,105.001 L68.808,105.001 L68.808,104.573 L66.493,104.573 z" fill="#373837"/>
    <path d="M66.493,104.573 L68.808,104.573 L68.808,104.146 L66.493,104.146 z" fill="#383938"/>
    <path d="M66.493,104.146 L68.808,104.146 L68.808,103.72 L66.493,103.72 z" fill="#3A3A39"/>
    <path d="M66.493,103.72 L68.808,103.72 L68.808,103.292 L66.493,103.292 z" fill="#3B3B3A"/>
    <path d="M66.493,103.291 L68.808,103.291 L68.808,102.865 L66.493,102.865 z" fill="#3C3C3B"/>
    <path d="M66.493,102.865 L68.808,102.865 L68.808,102.438 L66.493,102.438 z" fill="#3C3D3C"/>
    <path d="M66.493,102.438 L68.808,102.438 L68.808,102.011 L66.493,102.011 z" fill="#3D3E3D"/>
    <path d="M66.493,102.011 L68.808,102.011 L68.808,101.584 L66.493,101.584 z" fill="#3E3F3E"/>
    <path d="M66.493,101.583 L68.808,101.583 L68.808,101.156 L66.493,101.156 z" fill="#3F403F"/>
    <path d="M66.493,101.156 L68.808,101.156 L68.808,100.729 L66.493,100.729 z" fill="#404140"/>
    <path d="M66.493,100.729 L68.808,100.729 L68.808,100.687 L66.493,100.687 z" fill="#414241"/>
    <g clip-path="url(#Clip_36)">
      <path d="M66.493,100.686 L68.808,100.686 L68.808,100.665 L66.493,100.665 z" fill="#414241"/>
      <path d="M66.493,106.068 L68.808,106.068 L68.808,106.047 L66.493,106.047 z" fill="#343534"/>
    </g>
    <path d="M66.493,106.047 L68.808,106.047 L68.808,105.855 L66.493,105.855 z" fill="#343534"/>
    <path d="M66.493,105.855 L68.808,105.855 L68.808,105.428 L66.493,105.428 z" fill="#353635"/>
    <path d="M66.493,105.427 L68.808,105.427 L68.808,105.001 L66.493,105.001 z" fill="#363736"/>
    <path d="M66.493,105.001 L68.808,105.001 L68.808,104.573 L66.493,104.573 z" fill="#373837"/>
    <path d="M66.493,104.573 L68.808,104.573 L68.808,104.146 L66.493,104.146 z" fill="#383938"/>
    <path d="M66.493,104.146 L68.808,104.146 L68.808,103.72 L66.493,103.72 z" fill="#3A3A39"/>
    <path d="M66.493,103.72 L68.808,103.72 L68.808,103.292 L66.493,103.292 z" fill="#3B3B3A"/>
    <path d="M66.493,103.291 L68.808,103.291 L68.808,102.865 L66.493,102.865 z" fill="#3C3C3B"/>
    <path d="M66.493,102.865 L68.808,102.865 L68.808,102.438 L66.493,102.438 z" fill="#3C3D3C"/>
    <path d="M66.493,102.438 L68.808,102.438 L68.808,102.011 L66.493,102.011 z" fill="#3D3E3D"/>
    <path d="M66.493,102.011 L68.808,102.011 L68.808,101.584 L66.493,101.584 z" fill="#3E3F3E"/>
    <path d="M66.493,101.583 L68.808,101.583 L68.808,101.156 L66.493,101.156 z" fill="#3F403F"/>
    <path d="M66.493,101.156 L68.808,101.156 L68.808,100.729 L66.493,100.729 z" fill="#404140"/>
    <path d="M66.493,100.729 L68.808,100.729 L68.808,100.687 L66.493,100.687 z" fill="#414241"/>
    <g clip-path="url(#Clip_37)">
      <path d="M66.493,100.686 L68.808,100.686 L68.808,100.665 L66.493,100.665 z" fill="#414241"/>
    </g>
    <g clip-path="url(#Clip_38)">
      <path d="M105.18,106.068 L116.081,106.068 L116.081,105.855 L105.18,105.855 z" fill="#343534"/>
      <path d="M105.18,105.855 L116.081,105.855 L116.081,105.428 L105.18,105.428 z" fill="#353635"/>
      <path d="M105.18,105.427 L116.081,105.427 L116.081,105 L105.18,105 z" fill="#363736"/>
      <path d="M105.18,105 L116.081,105 L116.081,104.573 L105.18,104.573 z" fill="#373837"/>
      <path d="M105.18,104.573 L116.081,104.573 L116.081,104.146 L105.18,104.146 z" fill="#383938"/>
      <path d="M105.18,104.146 L116.081,104.146 L116.081,103.72 L105.18,103.72 z" fill="#3A3A39"/>
      <path d="M105.18,103.72 L116.081,103.72 L116.081,103.292 L105.18,103.292 z" fill="#3B3B3A"/>
      <path d="M105.18,103.291 L116.081,103.291 L116.081,102.865 L105.18,102.865 z" fill="#3C3C3B"/>
      <path d="M105.18,102.865 L116.081,102.865 L116.081,102.438 L105.18,102.438 z" fill="#3C3D3C"/>
      <path d="M105.18,102.438 L116.081,102.438 L116.081,102.011 L105.18,102.011 z" fill="#3D3E3D"/>
      <path d="M105.18,102.011 L116.081,102.011 L116.081,101.584 L105.18,101.584 z" fill="#3E3F3E"/>
      <path d="M105.18,101.583 L116.081,101.583 L116.081,101.156 L105.18,101.156 z" fill="#3F403F"/>
      <path d="M105.18,101.156 L116.081,101.156 L116.081,100.729 L105.18,100.729 z" fill="#404140"/>
      <path d="M105.18,100.729 L116.081,100.729 L116.081,100.665 L105.18,100.665 z" fill="#414241"/>
      <path d="M105.18,106.068 L116.081,106.068 L116.081,105.855 L105.18,105.855 z" fill="#343534"/>
      <path d="M105.18,105.855 L116.081,105.855 L116.081,105.428 L105.18,105.428 z" fill="#353635"/>
      <path d="M105.18,105.427 L116.081,105.427 L116.081,105 L105.18,105 z" fill="#363736"/>
      <path d="M105.18,105 L116.081,105 L116.081,104.573 L105.18,104.573 z" fill="#373837"/>
      <path d="M105.18,104.573 L116.081,104.573 L116.081,104.146 L105.18,104.146 z" fill="#383938"/>
      <path d="M105.18,104.146 L116.081,104.146 L116.081,103.72 L105.18,103.72 z" fill="#3A3A39"/>
      <path d="M105.18,103.72 L116.081,103.72 L116.081,103.292 L105.18,103.292 z" fill="#3B3B3A"/>
      <path d="M105.18,103.291 L116.081,103.291 L116.081,102.865 L105.18,102.865 z" fill="#3C3C3B"/>
      <path d="M105.18,102.865 L116.081,102.865 L116.081,102.438 L105.18,102.438 z" fill="#3C3D3C"/>
      <path d="M105.18,102.438 L116.081,102.438 L116.081,102.011 L105.18,102.011 z" fill="#3D3E3D"/>
      <path d="M105.18,102.011 L116.081,102.011 L116.081,101.584 L105.18,101.584 z" fill="#3E3F3E"/>
      <path d="M105.18,101.583 L116.081,101.583 L116.081,101.156 L105.18,101.156 z" fill="#3F403F"/>
      <path d="M105.18,101.156 L116.081,101.156 L116.081,100.729 L105.18,100.729 z" fill="#404140"/>
      <path d="M105.18,100.729 L116.081,100.729 L116.081,100.665 L105.18,100.665 z" fill="#414241"/>
    </g>
    <g clip-path="url(#Clip_39)">
      <path d="M130.165,106.068 L135.681,106.068 L135.681,105.855 L130.165,105.855 z" fill="#343534"/>
      <path d="M130.165,105.855 L135.681,105.855 L135.681,105.428 L130.165,105.428 z" fill="#353635"/>
      <path d="M130.165,105.427 L135.681,105.427 L135.681,105 L130.165,105 z" fill="#363736"/>
      <path d="M130.165,105 L135.681,105 L135.681,104.573 L130.165,104.573 z" fill="#373837"/>
      <path d="M130.165,104.573 L135.681,104.573 L135.681,104.146 L130.165,104.146 z" fill="#383938"/>
      <path d="M130.165,104.146 L135.681,104.146 L135.681,103.72 L130.165,103.72 z" fill="#3A3A39"/>
      <path d="M130.165,103.72 L135.681,103.72 L135.681,103.292 L130.165,103.292 z" fill="#3B3B3A"/>
      <path d="M130.165,103.291 L135.681,103.291 L135.681,102.865 L130.165,102.865 z" fill="#3C3C3B"/>
      <path d="M130.165,102.865 L135.681,102.865 L135.681,102.438 L130.165,102.438 z" fill="#3C3D3C"/>
      <path d="M130.165,102.438 L135.681,102.438 L135.681,102.011 L130.165,102.011 z" fill="#3D3E3D"/>
      <path d="M130.165,102.011 L135.681,102.011 L135.681,101.584 L130.165,101.584 z" fill="#3E3F3E"/>
      <path d="M130.165,101.583 L135.681,101.583 L135.681,101.156 L130.165,101.156 z" fill="#3F403F"/>
      <path d="M130.165,101.156 L135.681,101.156 L135.681,100.729 L130.165,100.729 z" fill="#404140"/>
      <path d="M130.165,100.729 L135.681,100.729 L135.681,100.665 L130.165,100.665 z" fill="#414241"/>
      <path d="M130.165,106.068 L135.681,106.068 L135.681,105.855 L130.165,105.855 z" fill="#343534"/>
      <path d="M130.165,105.855 L135.681,105.855 L135.681,105.428 L130.165,105.428 z" fill="#353635"/>
      <path d="M130.165,105.427 L135.681,105.427 L135.681,105 L130.165,105 z" fill="#363736"/>
      <path d="M130.165,105 L135.681,105 L135.681,104.573 L130.165,104.573 z" fill="#373837"/>
      <path d="M130.165,104.573 L135.681,104.573 L135.681,104.146 L130.165,104.146 z" fill="#383938"/>
      <path d="M130.165,104.146 L135.681,104.146 L135.681,103.72 L130.165,103.72 z" fill="#3A3A39"/>
      <path d="M130.165,103.72 L135.681,103.72 L135.681,103.292 L130.165,103.292 z" fill="#3B3B3A"/>
      <path d="M130.165,103.291 L135.681,103.291 L135.681,102.865 L130.165,102.865 z" fill="#3C3C3B"/>
      <path d="M130.165,102.865 L135.681,102.865 L135.681,102.438 L130.165,102.438 z" fill="#3C3D3C"/>
      <path d="M130.165,102.438 L135.681,102.438 L135.681,102.011 L130.165,102.011 z" fill="#3D3E3D"/>
      <path d="M130.165,102.011 L135.681,102.011 L135.681,101.584 L130.165,101.584 z" fill="#3E3F3E"/>
      <path d="M130.165,101.583 L135.681,101.583 L135.681,101.156 L130.165,101.156 z" fill="#3F403F"/>
      <path d="M130.165,101.156 L135.681,101.156 L135.681,100.729 L130.165,100.729 z" fill="#404140"/>
      <path d="M130.165,100.729 L135.681,100.729 L135.681,100.665 L130.165,100.665 z" fill="#414241"/>
    </g>
    <g clip-path="url(#Clip_40)">
      <path d="M125.958,106.068 L128.755,106.068 L128.755,105.855 L125.958,105.855 z" fill="#343534"/>
      <path d="M125.958,105.855 L128.755,105.855 L128.755,105.428 L125.958,105.428 z" fill="#353635"/>
      <path d="M125.958,105.427 L128.755,105.427 L128.755,105 L125.958,105 z" fill="#363736"/>
      <path d="M125.958,105 L128.755,105 L128.755,104.573 L125.958,104.573 z" fill="#373837"/>
      <path d="M125.958,104.573 L128.755,104.573 L128.755,104.146 L125.958,104.146 z" fill="#383938"/>
      <path d="M125.958,104.146 L128.755,104.146 L128.755,103.72 L125.958,103.72 z" fill="#3A3A39"/>
      <path d="M125.958,103.72 L128.755,103.72 L128.755,103.292 L125.958,103.292 z" fill="#3B3B3A"/>
      <path d="M125.958,103.291 L128.755,103.291 L128.755,102.865 L125.958,102.865 z" fill="#3C3C3B"/>
      <path d="M125.958,102.865 L128.755,102.865 L128.755,102.438 L125.958,102.438 z" fill="#3C3D3C"/>
      <path d="M125.958,102.438 L128.755,102.438 L128.755,102.011 L125.958,102.011 z" fill="#3D3E3D"/>
      <path d="M125.958,102.011 L128.755,102.011 L128.755,101.584 L125.958,101.584 z" fill="#3E3F3E"/>
      <path d="M125.958,101.583 L128.755,101.583 L128.755,101.156 L125.958,101.156 z" fill="#3F403F"/>
      <path d="M125.958,101.156 L128.755,101.156 L128.755,100.729 L125.958,100.729 z" fill="#404140"/>
      <path d="M125.958,100.729 L128.755,100.729 L128.755,100.665 L125.958,100.665 z" fill="#414241"/>
      <path d="M125.958,106.068 L128.755,106.068 L128.755,105.855 L125.958,105.855 z" fill="#343534"/>
      <path d="M125.958,105.855 L128.755,105.855 L128.755,105.428 L125.958,105.428 z" fill="#353635"/>
      <path d="M125.958,105.427 L128.755,105.427 L128.755,105 L125.958,105 z" fill="#363736"/>
      <path d="M125.958,105 L128.755,105 L128.755,104.573 L125.958,104.573 z" fill="#373837"/>
      <path d="M125.958,104.573 L128.755,104.573 L128.755,104.146 L125.958,104.146 z" fill="#383938"/>
      <path d="M125.958,104.146 L128.755,104.146 L128.755,103.72 L125.958,103.72 z" fill="#3A3A39"/>
      <path d="M125.958,103.72 L128.755,103.72 L128.755,103.292 L125.958,103.292 z" fill="#3B3B3A"/>
      <path d="M125.958,103.291 L128.755,103.291 L128.755,102.865 L125.958,102.865 z" fill="#3C3C3B"/>
      <path d="M125.958,102.865 L128.755,102.865 L128.755,102.438 L125.958,102.438 z" fill="#3C3D3C"/>
      <path d="M125.958,102.438 L128.755,102.438 L128.755,102.011 L125.958,102.011 z" fill="#3D3E3D"/>
      <path d="M125.958,102.011 L128.755,102.011 L128.755,101.584 L125.958,101.584 z" fill="#3E3F3E"/>
      <path d="M125.958,101.583 L128.755,101.583 L128.755,101.156 L125.958,101.156 z" fill="#3F403F"/>
      <path d="M125.958,101.156 L128.755,101.156 L128.755,100.729 L125.958,100.729 z" fill="#404140"/>
      <path d="M125.958,100.729 L128.755,100.729 L128.755,100.665 L125.958,100.665 z" fill="#414241"/>
    </g>
    <g clip-path="url(#Clip_41)">
      <path d="M116.803,106.068 L122.367,106.068 L122.367,105.855 L116.803,105.855 z" fill="#343534"/>
      <path d="M116.803,105.855 L122.367,105.855 L122.367,105.428 L116.803,105.428 z" fill="#353635"/>
      <path d="M116.803,105.427 L122.367,105.427 L122.367,105 L116.803,105 z" fill="#363736"/>
      <path d="M116.803,105 L122.367,105 L122.367,104.573 L116.803,104.573 z" fill="#373837"/>
      <path d="M116.803,104.573 L122.367,104.573 L122.367,104.146 L116.803,104.146 z" fill="#383938"/>
      <path d="M116.803,104.146 L122.367,104.146 L122.367,103.72 L116.803,103.72 z" fill="#3A3A39"/>
      <path d="M116.803,103.72 L122.367,103.72 L122.367,103.292 L116.803,103.292 z" fill="#3B3B3A"/>
      <path d="M116.803,103.291 L122.367,103.291 L122.367,102.865 L116.803,102.865 z" fill="#3C3C3B"/>
      <path d="M116.803,102.865 L122.367,102.865 L122.367,102.438 L116.803,102.438 z" fill="#3C3D3C"/>
      <path d="M116.803,102.438 L122.367,102.438 L122.367,102.011 L116.803,102.011 z" fill="#3D3E3D"/>
      <path d="M116.803,102.011 L122.367,102.011 L122.367,101.584 L116.803,101.584 z" fill="#3E3F3E"/>
      <path d="M116.803,101.583 L122.367,101.583 L122.367,101.156 L116.803,101.156 z" fill="#3F403F"/>
      <path d="M116.803,101.156 L122.367,101.156 L122.367,100.729 L116.803,100.729 z" fill="#404140"/>
      <path d="M116.803,100.729 L122.367,100.729 L122.367,100.665 L116.803,100.665 z" fill="#414241"/>
      <path d="M116.803,106.068 L122.367,106.068 L122.367,105.855 L116.803,105.855 z" fill="#343534"/>
      <path d="M116.803,105.855 L122.367,105.855 L122.367,105.428 L116.803,105.428 z" fill="#353635"/>
      <path d="M116.803,105.427 L122.367,105.427 L122.367,105 L116.803,105 z" fill="#363736"/>
      <path d="M116.803,105 L122.367,105 L122.367,104.573 L116.803,104.573 z" fill="#373837"/>
      <path d="M116.803,104.573 L122.367,104.573 L122.367,104.146 L116.803,104.146 z" fill="#383938"/>
      <path d="M116.803,104.146 L122.367,104.146 L122.367,103.72 L116.803,103.72 z" fill="#3A3A39"/>
      <path d="M116.803,103.72 L122.367,103.72 L122.367,103.292 L116.803,103.292 z" fill="#3B3B3A"/>
      <path d="M116.803,103.291 L122.367,103.291 L122.367,102.865 L116.803,102.865 z" fill="#3C3C3B"/>
      <path d="M116.803,102.865 L122.367,102.865 L122.367,102.438 L116.803,102.438 z" fill="#3C3D3C"/>
      <path d="M116.803,102.438 L122.367,102.438 L122.367,102.011 L116.803,102.011 z" fill="#3D3E3D"/>
      <path d="M116.803,102.011 L122.367,102.011 L122.367,101.584 L116.803,101.584 z" fill="#3E3F3E"/>
      <path d="M116.803,101.583 L122.367,101.583 L122.367,101.156 L116.803,101.156 z" fill="#3F403F"/>
      <path d="M116.803,101.156 L122.367,101.156 L122.367,100.729 L116.803,100.729 z" fill="#404140"/>
      <path d="M116.803,100.729 L122.367,100.729 L122.367,100.665 L116.803,100.665 z" fill="#414241"/>
    </g>
  </g>
</svg>
