<?xml version="1.0" encoding="UTF-8"?>
<!DOCTYPE svg PUBLIC "-//W3C//DTD SVG 1.1//EN" "http://www.w3.org/Graphics/SVG/1.1/DTD/svg11.dtd">
<svg version="1.1" xmlns="http://www.w3.org/2000/svg" xmlns:xlink="http://www.w3.org/1999/xlink" x="0" y="0" width="200" height="200" viewBox="0, 0, 200, 200">
  <g id="Layer_1">
    <g>
      <path d="M47.516,119.535 L44.342,119.535 C44.167,119.535 44.009,119.6 43.868,119.731 C43.725,119.861 43.655,120.014 43.655,120.189 L43.655,123.07 C43.655,123.244 43.726,123.397 43.868,123.526 C44.009,123.66 44.167,123.724 44.342,123.724 L47.516,123.724 C47.691,123.724 47.844,123.659 47.974,123.526 C48.106,123.397 48.17,123.244 48.17,123.07 L48.17,120.189 C48.17,120.014 48.105,119.861 47.974,119.731 C47.844,119.599 47.691,119.535 47.516,119.535 z M47.419,126.178 L44.407,126.178 C44.234,126.178 44.081,126.244 43.948,126.374 C43.818,126.508 43.753,126.659 43.753,126.833 L43.753,143.951 C43.753,144.126 43.819,144.284 43.948,144.426 C44.081,144.567 44.234,144.638 44.407,144.638 L47.42,144.638 C47.594,144.638 47.745,144.567 47.878,144.426 C48.008,144.284 48.074,144.126 48.074,143.951 L48.074,126.833 C48.074,126.659 48.008,126.508 47.878,126.374 C47.745,126.244 47.594,126.178 47.419,126.178 z M66.162,126.178 L58.502,126.178 C57.086,126.178 55.885,126.337 54.903,126.653 C53.922,126.969 53.119,127.407 52.498,127.962 C51.876,128.517 51.422,129.162 51.14,129.893 C50.856,130.625 50.714,131.393 50.714,132.201 L50.714,132.429 C50.714,133.258 50.812,133.979 51.008,134.59 C51.204,135.201 51.555,135.757 52.055,136.258 C51.619,136.565 51.292,136.957 51.074,137.439 C50.856,137.917 50.747,138.409 50.747,138.91 L50.747,138.943 C50.747,139.533 50.877,140.095 51.14,140.627 C51.4,141.164 51.762,141.605 52.22,141.953 C51.695,142.434 51.287,142.986 50.992,143.608 C50.697,144.229 50.55,144.878 50.55,145.555 L50.55,145.848 C50.55,147.574 51.238,148.908 52.613,149.858 C53.986,150.807 56.005,151.281 58.669,151.281 C61.459,151.281 63.495,150.845 64.772,149.973 C66.05,149.1 66.685,147.822 66.685,146.145 L66.685,145.916 C66.685,145.042 66.511,144.328 66.162,143.771 C65.813,143.214 65.321,142.751 64.689,142.379 C64.055,142.007 63.287,141.698 62.381,141.446 C61.476,141.196 60.466,140.939 59.355,140.679 L55.492,139.762 C55.12,139.675 54.844,139.555 54.658,139.402 C54.473,139.249 54.378,139.008 54.378,138.682 C54.378,138.353 54.565,138.069 54.936,137.831 C55.262,137.961 55.721,138.086 56.31,138.207 C56.899,138.327 57.63,138.388 58.501,138.388 C60.991,138.388 62.905,137.908 64.248,136.947 C65.589,135.987 66.259,134.481 66.259,132.43 L66.259,132.202 C66.259,131.633 66.188,131.15 66.048,130.744 C65.905,130.341 65.704,129.953 65.441,129.582 L66.521,129.157 C66.718,129.071 66.854,128.987 66.929,128.912 C67.007,128.837 67.044,128.676 67.044,128.436 L67.044,127.062 C67.044,126.823 66.956,126.616 66.783,126.441 C66.61,126.265 66.403,126.178 66.162,126.178 z M54.772,145.555 C54.772,144.967 54.848,144.524 55,144.229 C55.154,143.936 55.349,143.614 55.591,143.264 L58.501,143.951 C59.354,144.147 60.036,144.328 60.548,144.491 C61.061,144.655 61.454,144.812 61.727,144.966 C61.999,145.118 62.174,145.271 62.252,145.424 C62.328,145.575 62.366,145.74 62.366,145.916 L62.366,146.145 C62.366,146.449 62.322,146.717 62.233,146.945 C62.146,147.174 61.967,147.365 61.694,147.517 C61.421,147.67 61.046,147.79 60.564,147.879 C60.084,147.967 59.454,148.01 58.668,148.01 C57.903,148.01 57.27,147.962 56.768,147.862 C56.268,147.764 55.867,147.623 55.574,147.436 C55.279,147.25 55.071,147.022 54.952,146.749 C54.832,146.476 54.772,146.178 54.772,145.849 L54.772,145.555 z M62.006,132.529 C62.006,133.358 61.76,133.996 61.27,134.442 C60.778,134.89 59.855,135.114 58.502,135.114 C57.74,135.114 57.13,135.038 56.67,134.885 C56.213,134.733 55.857,134.531 55.608,134.28 C55.355,134.029 55.186,133.751 55.099,133.444 C55.012,133.14 54.967,132.834 54.967,132.529 L54.967,132.267 C54.967,131.872 55.022,131.508 55.133,131.171 C55.24,130.833 55.427,130.537 55.69,130.287 C55.95,130.033 56.31,129.839 56.768,129.697 C57.227,129.556 57.805,129.484 58.501,129.484 C59.201,129.484 59.779,129.556 60.238,129.697 C60.697,129.839 61.055,130.034 61.318,130.287 C61.579,130.537 61.759,130.833 61.857,131.171 C61.955,131.508 62.005,131.872 62.005,132.267 L62.005,132.529 z M125.753,128.045 C125.347,127.389 124.774,126.877 124.035,126.508 C123.292,126.136 122.333,125.949 121.155,125.949 C120.61,125.949 120.118,125.977 119.681,126.031 C119.246,126.086 118.821,126.174 118.404,126.293 C117.991,126.415 117.582,126.572 117.177,126.767 C116.772,126.963 116.332,127.215 115.851,127.522 L115.851,126.833 C115.851,126.659 115.788,126.508 115.656,126.376 C115.522,126.243 115.371,126.178 115.198,126.178 L112.349,126.178 C112.176,126.178 112.023,126.244 111.892,126.376 C111.761,126.507 111.696,126.659 111.696,126.833 L111.696,143.951 C111.696,144.126 111.761,144.284 111.892,144.426 C112.023,144.567 112.176,144.638 112.349,144.638 L115.36,144.638 C115.535,144.638 115.688,144.567 115.822,144.426 C115.95,144.284 116.017,144.126 116.017,143.951 L116.017,130.794 C116.717,130.422 117.362,130.133 117.964,129.926 C118.561,129.718 119.146,129.615 119.716,129.615 C120.347,129.615 120.847,129.676 121.221,129.794 C121.589,129.915 121.87,130.112 122.054,130.383 C122.239,130.657 122.359,131.029 122.414,131.497 C122.47,131.966 122.496,132.56 122.496,133.281 L122.496,143.951 C122.496,144.125 122.561,144.284 122.693,144.425 C122.823,144.566 122.977,144.637 123.151,144.637 L126.161,144.637 C126.336,144.637 126.487,144.566 126.621,144.425 C126.75,144.284 126.817,144.125 126.817,143.951 L126.817,133.281 C126.817,132.234 126.74,131.264 126.589,130.368 C126.433,129.474 126.157,128.699 125.753,128.045 z M142.779,128.275 C142.123,127.531 141.314,126.959 140.343,126.554 C139.374,126.15 138.26,125.949 136.995,125.949 C135.753,125.949 134.645,126.144 133.665,126.537 C132.685,126.929 131.865,127.486 131.201,128.207 C130.535,128.927 130.029,129.799 129.682,130.824 C129.332,131.851 129.157,132.997 129.157,134.262 L129.157,136.685 C129.157,138.298 129.412,139.635 129.921,140.694 C130.432,141.753 131.074,142.592 131.854,143.213 C132.634,143.835 133.486,144.273 134.412,144.523 C135.339,144.772 136.216,144.898 137.045,144.898 C137.788,144.898 138.436,144.889 138.993,144.867 C139.551,144.845 140.061,144.813 140.53,144.767 C140.998,144.723 141.464,144.669 141.924,144.604 C142.382,144.538 142.871,144.45 143.395,144.343 C143.702,144.298 143.892,144.211 143.969,144.08 C144.045,143.95 144.082,143.752 144.082,143.492 L144.082,141.332 C144.082,141.158 144.027,141.033 143.918,140.955 C143.809,140.879 143.668,140.84 143.493,140.84 L143.394,140.84 C142.697,140.907 141.816,140.976 140.758,141.054 C139.702,141.129 138.574,141.169 137.373,141.169 C136.586,141.169 135.937,141.043 135.425,140.792 C134.911,140.542 134.508,140.216 134.212,139.81 C133.921,139.408 133.717,138.959 133.61,138.47 C133.497,137.979 133.445,137.494 133.445,137.012 L133.445,136.914 L144.114,136.914 C144.551,136.914 144.767,136.643 144.767,136.096 L144.767,134.263 C144.767,133.041 144.599,131.923 144.261,130.908 C143.926,129.892 143.432,129.016 142.779,128.275 z M140.449,133.839 L133.479,133.839 L133.479,133.706 C133.479,132.397 133.807,131.4 134.466,130.712 C135.124,130.024 135.966,129.679 136.995,129.679 C138.026,129.679 138.859,130.027 139.495,130.726 C140.132,131.425 140.449,132.418 140.449,133.705 L140.449,133.839 z M72.781,119.535 L69.737,119.535 C69.561,119.535 69.409,119.601 69.279,119.731 C69.149,119.862 69.083,120.015 69.083,120.19 L69.083,143.951 C69.083,144.126 69.149,144.284 69.279,144.426 C69.409,144.567 69.561,144.638 69.737,144.638 L72.781,144.638 C72.956,144.638 73.102,144.567 73.222,144.426 C73.343,144.284 73.402,144.126 73.402,143.951 L73.402,120.19 C73.402,120.015 73.343,119.862 73.222,119.731 C73.103,119.6 72.956,119.535 72.781,119.535 z M155.66,141.53 L153.924,141.53 C153.617,141.53 153.383,141.513 153.22,141.481 C153.058,141.447 152.931,141.367 152.844,141.235 C152.756,141.104 152.704,140.918 152.678,140.679 C152.659,140.438 152.647,140.11 152.647,139.696 L152.647,129.42 L155.591,129.42 C155.768,129.42 155.919,129.354 156.054,129.224 C156.182,129.092 156.249,128.939 156.249,128.764 L156.249,126.833 C156.249,126.659 156.182,126.508 156.054,126.374 C155.919,126.243 155.768,126.178 155.591,126.178 L152.647,126.178 L152.647,122.807 C152.647,122.48 152.476,122.316 152.131,122.316 L151.998,122.316 L148.975,122.841 C148.802,122.884 148.651,122.961 148.523,123.07 C148.393,123.178 148.328,123.32 148.328,123.494 L148.328,126.178 L145.25,126.178 C145.074,126.178 144.921,126.244 144.793,126.374 C144.66,126.508 144.597,126.659 144.597,126.833 L144.597,128.307 C144.597,128.481 144.661,128.623 144.793,128.731 C144.921,128.841 145.074,128.918 145.25,128.961 L148.328,129.42 L148.328,139.695 C148.328,140.786 148.425,141.675 148.617,142.363 C148.814,143.051 149.116,143.579 149.529,143.951 C149.939,144.322 150.475,144.572 151.136,144.702 C151.797,144.835 152.585,144.9 153.497,144.9 C153.871,144.9 154.234,144.877 154.594,144.834 C154.956,144.789 155.332,144.734 155.724,144.669 C156.136,144.604 156.345,144.407 156.345,144.08 L156.345,142.019 C156.345,141.693 156.117,141.53 155.66,141.53 z M107.359,128.273 C106.705,127.554 105.891,126.984 104.921,126.572 C103.949,126.157 102.821,125.949 101.533,125.949 C100.244,125.949 99.114,126.157 98.144,126.572 C97.172,126.984 96.361,127.554 95.707,128.273 C95.053,128.993 94.556,129.85 94.216,130.843 C93.879,131.835 93.71,132.921 93.71,134.1 L93.71,136.75 C93.71,137.929 93.878,139.016 94.216,140.007 C94.557,141.001 95.053,141.857 95.707,142.576 C96.361,143.297 97.172,143.865 98.144,144.279 C99.115,144.693 100.244,144.901 101.533,144.901 C102.821,144.901 103.949,144.693 104.921,144.279 C105.891,143.865 106.705,143.297 107.359,142.576 C108.011,141.857 108.507,141.001 108.846,140.007 C109.186,139.016 109.354,137.929 109.354,136.75 L109.354,134.1 C109.354,132.921 109.186,131.835 108.846,130.843 C108.507,129.85 108.011,128.993 107.359,128.273 z M105.035,136.75 C105.035,138.102 104.739,139.177 104.149,139.974 C103.562,140.771 102.688,141.169 101.532,141.169 C100.376,141.169 99.502,140.77 98.912,139.974 C98.324,139.177 98.03,138.102 98.03,136.75 L98.03,134.099 C98.03,132.745 98.323,131.672 98.912,130.876 C99.501,130.079 100.376,129.68 101.532,129.68 C102.688,129.68 103.562,130.079 104.149,130.876 C104.738,131.672 105.035,132.745 105.035,134.099 L105.035,136.75 z M89.554,128.273 C88.901,127.554 88.087,126.984 87.117,126.572 C86.145,126.157 85.017,125.949 83.73,125.949 C82.443,125.949 81.314,126.157 80.344,126.572 C79.372,126.984 78.56,127.554 77.904,128.273 C77.249,128.993 76.752,129.85 76.416,130.843 C76.076,131.835 75.908,132.921 75.908,134.1 L75.908,136.75 C75.908,137.929 76.076,139.016 76.416,140.007 C76.752,141.001 77.249,141.857 77.904,142.576 C78.56,143.297 79.372,143.865 80.344,144.279 C81.314,144.693 82.443,144.901 83.73,144.901 C85.017,144.901 86.145,144.693 87.117,144.279 C88.087,143.865 88.901,143.297 89.554,142.576 C90.209,141.857 90.708,141.001 91.046,140.007 C91.381,139.016 91.553,137.929 91.553,136.75 L91.553,134.1 C91.553,132.921 91.381,131.835 91.046,130.843 C90.708,129.85 90.209,128.993 89.554,128.273 z M87.231,136.75 C87.231,138.102 86.939,139.177 86.348,139.974 C85.758,140.771 84.885,141.169 83.73,141.169 C82.571,141.169 81.701,140.77 81.112,139.974 C80.521,139.177 80.227,138.102 80.227,136.75 L80.227,134.099 C80.227,132.745 80.521,131.672 81.112,130.876 C81.701,130.079 82.571,129.68 83.73,129.68 C84.885,129.68 85.758,130.079 86.348,130.876 C86.938,131.672 87.231,132.745 87.231,134.099 L87.231,136.75 z" fill="#53565A"/>
      <path d="M110.935,104.19 C108.584,104.19 106.68,106.095 106.68,108.446 C106.68,110.796 108.584,112.701 110.935,112.701 C113.285,112.701 115.191,110.796 115.191,108.446 C115.191,106.095 113.285,104.19 110.935,104.19 z M100,70.719 C83.07,70.719 69.295,85.277 69.295,103.173 C69.295,106.664 70.7,109.712 73.254,111.759 C75.396,113.478 78.263,114.423 81.327,114.423 C87.512,114.423 94.084,110.437 94.084,103.054 C94.084,96.146 96.883,95.574 99.999,95.574 C103.56,95.574 104.714,96.851 105.355,98.77 C105.973,100.63 107.985,101.635 109.844,101.017 C111.706,100.398 112.71,98.386 112.091,96.526 C110.868,92.852 107.777,88.473 99.999,88.473 C95.139,88.473 86.984,90.367 86.984,103.054 C86.984,106.185 83.6,107.321 81.327,107.321 C79.893,107.321 78.569,106.919 77.696,106.22 C76.821,105.518 76.396,104.522 76.396,103.173 C76.396,89.192 86.986,77.819 100,77.819 C113.016,77.819 123.605,89.192 123.605,103.173 C123.605,103.908 123.605,106.577 120.711,107.461 C118.835,108.034 117.78,110.019 118.352,111.895 C118.926,113.77 120.923,114.843 122.798,114.269 C127.757,112.755 130.704,108.327 130.704,103.174 C130.705,85.277 116.931,70.719 100,70.719 z" fill="#E87722"/>
    </g>
  </g>
</svg>
