<?xml version="1.0" encoding="UTF-8"?>
<!DOCTYPE svg PUBLIC "-//W3C//DTD SVG 1.1//EN" "http://www.w3.org/Graphics/SVG/1.1/DTD/svg11.dtd">
<svg version="1.1" xmlns="http://www.w3.org/2000/svg" xmlns:xlink="http://www.w3.org/1999/xlink" x="0" y="0" width="200" height="200" viewBox="0, 0, 200, 200">
  <g id="Background"/>
  <g id="Layer_1">
    <path d="M63.068,106.603 C62.277,102.113 57.995,99.116 53.505,99.907 C49.017,100.698 46.019,104.98 46.81,109.47 C47.602,113.958 51.883,116.956 56.372,116.165 C60.862,115.373 63.859,111.092 63.068,106.603" fill="#00C5F3"/>
    <path d="M106.383,136.932 C101.893,137.723 98.896,142.005 99.688,146.495 C100.479,150.983 104.76,153.981 109.25,153.19 C113.739,152.398 116.737,148.118 115.946,143.628 C115.153,139.138 110.873,136.141 106.383,136.932" fill="#00C5F3"/>
    <path d="M66.948,132.766 C64.333,136.5 65.241,141.646 68.975,144.261 C72.71,146.876 77.856,145.968 80.471,142.234 C83.086,138.5 82.178,133.353 78.444,130.738 C74.709,128.124 69.563,129.031 66.948,132.766" fill="#00C5F3"/>
    <path d="M69.262,78.664 C71.877,74.929 70.969,69.783 67.234,67.168 C63.5,64.553 58.354,65.461 55.739,69.195 C53.124,72.929 54.032,78.076 57.766,80.691 C61.5,83.306 66.647,82.398 69.262,78.664" fill="#00C5F3"/>
    <path d="M151.588,103.002 C153.168,99.301 153.74,95.12 152.99,90.861 C152.222,86.509 150.193,82.7 147.347,79.734 L136.465,81.653 C135.228,79.166 133.774,76.904 132.065,74.777 L138.491,65.599 C136.991,61.864 134.439,58.503 130.898,56.023 C127.278,53.489 123.148,52.229 119.039,52.145 L112.686,61.219 C110.115,60.359 107.464,59.76 104.726,59.436 L102.782,48.412 C99.081,46.832 94.9,46.26 90.642,47.01 C86.29,47.778 82.48,49.807 79.515,52.653 L82.086,67.232 C83.165,66.647 84.28,66.114 85.426,65.633 L83.385,54.057 C85.614,52.307 88.278,51.05 91.261,50.524 C94.153,50.014 97.001,50.25 99.627,51.068 L101.055,59.165 L101.69,62.766 C105.998,62.969 110.159,63.932 114.032,65.518 L120.784,55.874 C123.598,56.213 126.37,57.209 128.851,58.946 C131.257,60.631 133.103,62.81 134.382,65.246 L127.543,74.965 C130.371,78.066 132.706,81.657 134.376,85.648 L145.943,83.605 C147.694,85.834 148.951,88.498 149.477,91.481 C149.986,94.373 149.75,97.22 148.933,99.847 L137.284,101.901 L137.236,101.906 C137.236,101.907 137.236,101.908 137.236,101.909 L137.234,101.909 C137.234,101.917 137.235,101.924 137.235,101.931 C137.028,106.235 136.082,110.393 134.496,114.261 L137.467,116.341 L137.467,116.341 L144.125,121.004 C143.788,123.818 142.792,126.59 141.055,129.071 C139.37,131.476 137.19,133.322 134.755,134.603 L125.024,127.789 C124.103,128.626 123.149,129.41 122.163,130.141 L134.401,138.71 C138.136,137.211 141.498,134.66 143.977,131.117 C146.512,127.498 147.771,123.369 147.855,119.259 L138.785,112.909 C139.65,110.335 140.247,107.691 140.566,104.945 z" fill="#00C5F3"/>
    <path d="M86.907,102.399 C85.642,95.229 90.431,88.391 97.601,87.126 C104.771,85.863 111.609,90.65 112.874,97.82 C114.137,104.992 109.35,111.828 102.18,113.093 C95.009,114.358 88.172,109.569 86.907,102.399 M126.926,95.343 C124.293,80.411 110.054,70.441 95.123,73.074 C80.191,75.707 70.222,89.946 72.855,104.877 C75.488,119.809 89.725,129.779 104.658,127.145 C119.589,124.513 129.559,110.275 126.926,95.343" fill="#00C5F3"/>
  </g>
</svg>
