<?xml version="1.0"?><svg xmlns="http://www.w3.org/2000/svg" viewBox="0 0 142 26" width="142" height="26"><path d="m11.553.5l-10.972 24.599c.401 0 .802-.075 1.202-.075.401 0 .797.075 1.278.075.962-3.287 2.255-6.418 3.457-9.544h8.893c1.523 3.126 2.735 6.338 3.858 9.544.561 0 1.187-.075 1.829-.075.561 0 1.132.075 1.854.075l-10.596-24.599h-.802m24.699 0c-7.375 0-13.226 4.489-13.226 12.425 0 7.695 4.649 12.575 12.425 12.575 2.645 0 5.521-.561 7.766-2l.1-2.33c-.721.641-3.697 2.881-7.465 2.881-5.611 0-9.469-4.314-9.469-11.05 0-6.01 3.226-11.222 9.719-11.222 3.607 0 6.232 2.39 6.713 3.03h.251c.16-.962.406-1.824.726-2.705-2.325-1.042-4.975-1.603-7.54-1.603m102.86 0c-1.283 0-2.33 1.102-2.33 2.305 0 1.283 1.047 2.33 2.33 2.33 1.283 0 2.305-1.047 2.305-2.33 0-1.283-1.022-2.305-2.305-2.305m0 .225c1.202 0 2.079.977 2.079 2.179 0 1.202-.877 2.154-2.079 2.154-1.202 0-2.179-.952-2.179-2.154 0-1.202.977-2.179 2.179-2.179m-92.36.175v14.1c.08 2.806.336 5.937 2.58 7.941 1.844 1.683 4.168 2.48 7.615 2.48 6.172 0 11.222-3.522 11.222-10.496v-14.03c-.321 0-.656.075-.977.075-.321 0-.631-.075-.952-.075v13.13c0 5.772-2.981 9.795-8.592 9.795-6.01 0-7.766-3.221-7.766-9.394h-.075v-13.527c-.561 0-1.047.075-1.528.075-.481 0-1.047-.075-1.528-.075m52.03 0v14.1c.08 2.806.311 5.937 2.555 7.941 1.844 1.683 4.168 2.48 7.615 2.48 6.172 0 11.222-3.522 11.222-10.496v-14.03c-.321 0-.631.075-.952.075-.321 0-.631-.075-.952-.075v13.13c0 5.772-2.981 9.795-8.592 9.795-6.01 0-7.766-3.221-7.766-9.394h-.075v-13.527c-.561 0-1.047.075-1.528.075-.481 0-1.047-.075-1.528-.075m23.647 0v23.948h12.675c0-.321-.1-.706-.1-1.027 0-.321.1-.651.1-1.052-1.042.16-2.084.326-3.206.326-2.084.08-4.173.23-6.338.15v-10.245h5.436c1.042 0 2.089.15 3.131.15 0-.401-.075-.631-.075-.952 0-.321.075-.556.075-.877-1.042 0-2.089.15-3.131.15h-5.436-.075v-8.968h2.705l3.532.075c1.122.08 2.164.16 3.206.401 0-.321-.075-.731-.075-1.052 0-.321.075-.626.075-1.027h-12.5m-51.05.15c1.523 2.966 7.44 15.792 11.448 24.05.24 0 .486-.075.726-.075.24 0 .486.075.726.075 1.202-3.848 10.426-21.884 11.548-24.05-.481 0-.902.075-1.303.075-.401 0-.877-.075-1.278-.075l-9.444 20.19h-.326l-8.667-20.19c-.641 0-1.192.075-1.754.075-.561 0-1.117-.075-1.678-.075m66.934.476v2.806h.225v-1.278h.726l.802 1.278h.25l-.802-1.278c.401-.08.701-.326.701-.726 0-.481-.235-.802-.877-.802h-1.027m.225.175h.726c.321 0 .726.15.726.551 0 .481-.476.551-.877.551h-.576v-1.102m-127.45 3.432l3.933 8.993h-7.766l3.833-8.993" style="fill-rule:evenodd"/></svg>