<?xml version="1.0"?><svg xmlns="http://www.w3.org/2000/svg" viewBox="0 0 122 26" width="122" height="26" version="1.1"><defs id="defs4"><linearGradient id="air-optix-simple-h" gradientUnits="userSpaceOnUse" x1="2.02" x2="121.87"><stop id="stop22" style="stop-color:#b1e2f9"/><stop offset="1" id="stop24" style="stop-color:#f1f8fd"/></linearGradient><linearGradient id="air-optix-simple-g" gradientUnits="userSpaceOnUse" x1="18.12" x2="26.323"><stop id="stop27" style="stop-color:#97daf8"/><stop offset="1" id="stop29" style="stop-color:#81d4f7"/></linearGradient><linearGradient id="air-optix-simple-i" gradientUnits="userSpaceOnUse" x1="40.08" y1="12.827" x2="47.869" y2="20.607"><stop id="stop32" style="stop-color:#25a6de"/><stop offset="1" id="stop34" style="stop-color:#0073b5"/></linearGradient><linearGradient id="air-optix-simple-k" gradientUnits="userSpaceOnUse" x1="26.323" x2="34.673"><stop id="stop7" style="stop-color:#81d4f7"/><stop offset="1" id="stop9" style="stop-color:#2ac5f4"/></linearGradient><linearGradient id="air-optix-simple-l" gradientUnits="userSpaceOnUse" x1="24.356" y1="-.885" x2="47.739" y2="12.614"><stop id="stop12" style="stop-color:#9ddcf9"/><stop offset="1" id="stop14" style="stop-color:#005299"/></linearGradient><linearGradient id="air-optix-simple-j" gradientUnits="userSpaceOnUse" x1="58.59" y1="10.506" x2="69.09" y2="21"><stop id="stop17" style="stop-color:#0476b8"/><stop offset="1" id="stop19" style="stop-color:#0a559b"/></linearGradient></defs><path d="m22.2 23.11c-1.129-1.074-1.728-2.63-1.728-4.501 0-3.974 2.239-6.465 5.853-6.552v-.869h-.022c-2.261 0-4.319.686-5.799 1.935-1.557 1.314-2.38 3.13-2.38 5.249 0 2.112.773 3.903 2.241 5.181 1.461 1.274 3.498 1.946 5.893 1.946.022 0 .043-.003.066-.003v-.861c-1.624 0-3.09-.541-4.126-1.524" id="path42" style="fill:url(#air-optix-simple-g)"/><path d="m2.02 12.977c29.582 15.619 91.27-10.01 119.86 4.79-27.588-10.44-90.14 19.417-119.86-4.79" id="path44" style="fill:url(#air-optix-simple-h)"/><path d="m.118 15.473c29.67 15.45 91.67-11.221 120.35 3.409-27.647-10.279-90.49 20.626-120.35-3.409" id="path46" style="fill:#c3e9fb;opacity:.23"/><path d="m45.639 11.792h-4.514v13.175l.438-.028c.242-.018.495-.033.746-.033.214 0 .43.014.659.029.135.011.525.033.525.033v-5.96c.143.002.32 0 .52.016.75.03 1.883.073 2.725-.056 3.756-.575 5.359-1.76 5.359-3.967 0-2.37-1.69-3.212-6.459-3.212m.188 6.276c-.795.054-1.716.057-2.333.007v-5.351c.741-.031 2.407-.051 3.444.024 1.71.116 2.694.972 2.694 2.348 0 1.677-1.423 2.788-3.805 2.971z" id="path48" style="fill:url(#air-optix-simple-i)"/><path d="m70.21 12.827c-.022-.128-.043-.246-.043-.365 0-.11.02-.219.04-.332.012-.069.046-.335.046-.335h-12.945c0 0 .036.265.048.336.022.114.039.222.039.332 0 .118-.022.237-.044.362-.009.063-.045.316-.045.316l.121-.001c1.513-.123 2.961-.226 5.292-.227v12.11l.438-.029c.242-.016.496-.035.748-.035.213 0 .429.016.654.029.138.001.529.033.529.033v-12.11c1.745.004 3.442.08 5.05.227l.122.001c0 0-.036-.253-.046-.315" id="path50" style="fill:url(#air-optix-simple-j)"/><path d="M125.64 31.13l-6.569-8.894 1.342-1.686 4.367-5.064c.132-.157.292-.309.464-.451l.3-.256c0 0-1 .096-1.431.096-.365 0-1.119-.077-1.119-.077l-.041.062c-.918 1.438-1.98 2.775-3.01 4.07-.559.705-1.138 1.435-1.677 2.164l-4.426-6.293c0 0-.485.024-.682.037-.321.019-.624.037-.922.037-.354 0-.72-.022-1.075-.045l-.738-.042c0 0 2.497 3.138 3 3.811.5.672 1.225 1.66 1.812 2.478l1.412 1.939-3.11 3.9c-.614.771-1.23 1.512-1.881 2.297l-1.76 2.136c.002 0 .517-.037.627-.049.228-.021.465-.041.713-.041.214 0 .43.018.658.039.127.011.463.037.463.037l.041-.062c1.662-2.58 3.321-4.904 5.058-7.098 1.748 2.314 3.335 4.633 4.839 7.096l.04.064.575-.034c.344-.021.7-.041 1.06-.041.321 0 .63.018.96.036.194.014.868.045.868.045M99.49 14.832c-.289.02-.56.04-.829.04-.317 0-.631-.022-.94-.045l-.55-.035v16.542l.549-.035c.308-.022.623-.042.94-.042.267 0 .537.018.822.036.171.014.664.041.664.041v-16.54c0 0-.489.029-.658.039" transform="matrix(.79694 0 0 .79694.118-.004)" id="path54" style="fill:#005297"/><path d="m100.95 22.883v.349h.423v1.843h.398v-1.843h.449v-.349h-1.27m1.445 0v2.192h.374v-1.768l.349 1.768h.299l.374-1.768v1.768h.349v-2.192h-.573l-.299 1.544-.274-1.544h-.598" id="path56" style="fill:#00539a"/><path d="m32.04 12.811c-1.473-1.046-3.502-1.622-5.708-1.626v.869c.066 0 .13 0 .197 0 1.76 0 3.428.705 4.46 1.889 1.118 1.311 1.348 2.808 1.348 4.303 0 1.493-.424 3.188-1.746 4.611-1.089 1.165-2.56 1.782-4.257 1.782v.861c2.399-.012 4.472-.71 5.983-2.023 1.546-1.347 2.366-3.212 2.366-5.398 0-2.219-.912-4.04-2.641-5.262" id="path58" style="fill:url(#air-optix-simple-k)"/><path d="m46.43 4.468c.19-.033.389-.072.602-.127.335-.088.653-.214.95-.374.3-.162.559-.37.768-.618.22-.263.332-.579.332-.943 0-.338-.086-.626-.257-.858-.164-.222-.392-.405-.675-.542-.275-.131-.599-.228-.96-.285-.356-.055-.737-.084-1.127-.084-.269 0-.538.001-.797.028-.253.018-.514.026-.776.026-.254 0-.516-.005-.78-.015l-.784-.038h-.167l.009.167.074 1.326c.022.43.033.873.033 1.318v1.764c0 .445-.012.891-.033 1.325l-.074 1.289-.001.168.168-.009c.203-.012.422-.018.665-.018.244 0 .461.006.664.018l.167.001-.009-.169-.073-1.289c-.022-.434-.034-.88-.034-1.325v-.599h.323c.278.215.588.477.927.787.351.322.701.65 1.038.977.337.325.648.634.927.92l.08.082.545.562.05.053.072-.006c.122-.012.248-.018.386-.018h.4.413c.137 0 .271.006.399.018l.527.047-.425-.317c-.127-.094-.295-.234-.5-.413-.215-.187-.441-.392-.671-.606l-.744-.697-.744-.697-.646-.608m.899-2.179c0 .274-.073.492-.221.666-.155.184-.355.334-.591.444-.244.112-.516.194-.81.239-.301.047-.593.07-.869.07-.182 0-.349-.003-.497-.009-.1-.004-.188-.016-.279-.028v-.449c0-.369.001-.739.028-1.1l.038-.784.001-.201c.124-.011.255-.019.403-.026.216-.001.485-.015.796-.015.228 0 .467.018.709.053.234.036.453.103.648.198.19.091.346.216.465.371.112.147.17.339.17.571zm-11.776.932v1.764c0 .445.011.891.033 1.325l.075 1.289.001.169-.168-.001c-.203-.012-.421-.018-.665-.018-.245 0-.461.006-.665.018l-.168.009.001-.168.074-1.289c.022-.434.033-.879.033-1.325v-1.764c0-.446-.011-.889-.033-1.318l-.074-1.326-.001-.181.177.022c.102.013.21.026.339.038.109.001.216.015.317.015.102 0 .206-.005.314-.015.131-.013.238-.025.341-.038l.178-.022-.001.179-.075 1.326c-.022.43-.033.873-.033 1.318m-10.522 1.823c.109.207.223.418.344.635l.406.736c.133.243.255.476.362.69.109.219.195.407.257.559l.042.103.11-.001c.12-.012.237-.018.351-.018h.365.365c.113 0 .232.006.351.018l.331.031-.196-.269c-.114-.157-.268-.396-.453-.708l-.634-1.071-.751-1.297-.797-1.405-.785-1.402-.716-1.287-.042-.077h-.088-.262-.085l-.044.074-2.135 3.61c-.703 1.178-1.434 2.38-2.176 3.57l-.155.253.295-.024c.147-.012.311-.018.498-.018.186 0 .349.006.498.018l.112.009.039-.105c.117-.311.297-.706.532-1.179.224-.453.479-.936.755-1.438l.752-.012.838-.004.909.004.807.012m-1.631-2.923l1.27 2.163-.515.009-.77.004c-.244 0-.493-.002-.74-.009-.178-.002-.336-.005-.49-.006l1.245-2.161" id="path60" style="fill:url(#air-optix-simple-l)"/><path d="m101.47 5.708l-.288-.057-.014.506-.316-.386-.193.221.428.264-.488.08.092.281.446-.242-.175.464.288.06.013-.506.313.383.197-.218-.432-.267.491-.077-.095-.281-.442.242zm-2.334 1.179c0 .217.104.359.282.468.342.205.409.259.409.448 0 .147-.104.259-.282.259-.23 0-.354-.121-.354-.309 0-.054.004-.1.016-.167h-.286c-.02.117-.068.368-.115.548.151.054.428.104.714.104.568 0 .79-.288.79-.623 0-.217-.084-.335-.429-.569-.258-.176-.286-.234-.286-.364 0-.13.107-.217.226-.217.182 0 .266.163.266.322 0 .037-.004.067 0 .1h.254c.024-.138.08-.372.115-.506-.234-.067-.389-.092-.56-.092-.448 0-.755.226-.755.598m-1.322.518c.448 0 .965-.255.965-.631 0-.331-.195-.485-.484-.485-.691 0-1.223.69-1.223 1.242 0 .401.17.706.6.706.234 0 .596-.113.977-.502l-.104-.134c-.282.276-.46.359-.624.359-.179 0-.35-.071-.35-.418 0-.046.004-.1.016-.147.072.004.159.009.226.009m.346-.941c.088 0 .19.05.19.213 0 .393-.436.552-.715.552.072-.401.31-.765.524-.765m-2.625.422c0 .217.104.359.282.468.342.205.409.259.409.448 0 .147-.104.259-.282.259-.23 0-.354-.121-.354-.309 0-.054.004-.1.016-.167h-.286c-.02.117-.068.368-.115.548.151.054.429.104.715.104.568 0 .79-.288.79-.623 0-.217-.084-.335-.429-.569-.258-.176-.286-.234-.286-.364 0-.13.108-.217.226-.217.182 0 .266.163.266.322 0 .037-.004.067 0 .1h.254c.024-.138.08-.372.115-.506-.234-.067-.389-.092-.56-.092-.448 0-.754.226-.754.598m-.421.794c-.147.13-.254.18-.306.18-.096 0-.112-.063-.112-.138 0-.213.298-.89.298-1.175 0-.167-.112-.259-.242-.259-.266 0-.6.23-.949.736.047-.225.091-.422.091-.543 0-.117-.048-.192-.151-.192-.179 0-.548.238-.79.464l.104.138c.112-.096.163-.121.214-.121.056 0 .083.046.083.126 0 .08-.02.221-.083.464l-.226.878c.131-.017.322-.037.469-.05.174-.87.592-1.413.818-1.413.072 0 .099.05.099.117 0 .309-.282.928-.282 1.121 0 .167.088.226.266.226.242 0 .564-.171.804-.414l-.096-.142m-3.181-.276c.449 0 .965-.255.965-.631 0-.331-.194-.485-.484-.485-.691 0-1.223.69-1.223 1.242 0 .401.17.706.6.706.234 0 .596-.113.977-.502l-.104-.134c-.282.276-.46.359-.624.359-.179 0-.35-.071-.35-.418 0-.046.004-.1.016-.147.072.004.158.009.226.009m.346-.941c.088 0 .19.05.19.213 0 .393-.436.552-.714.552.072-.401.309-.765.524-.765m-1.561 1.438c-.06 0-.107-.046-.107-.138 0-.041.012-.1.028-.167l.628-2.596c-.127.054-.425.109-.874.138l-.032.176h.131c.139 0 .174.054.174.151 0 .067-.012.151-.044.288l-.488 2.01c-.032.13-.048.213-.048.28 0 .121.119.197.262.197.234 0 .48-.1.81-.426l-.115-.13c-.17.171-.258.221-.326.221m-1.883-2.044c-.127.033-.338.084-.464.096l-.092.376h-.362l-.04.193h.354l-.294 1.22c-.028.113-.051.201-.051.284 0 .147.091.209.238.209.214 0 .405-.1.778-.435l-.108-.142c-.127.13-.218.184-.278.184-.072 0-.108-.05-.108-.134 0-.084.02-.176.052-.314l.211-.874h.314l.04-.193h-.306l.115-.472m-1.616.623c.174 0 .226.075.226.238l.246.054c.02-.142.056-.338.088-.476-.076-.004-.198-.009-.342-.009-.246 0-.524.063-.771.322-.346.364-.472.732-.472 1.05 0 .376.174.577.52.577.393 0 .763-.301 1.013-.719l-.143-.092c-.174.301-.334.452-.556.452-.218 0-.334-.13-.334-.409 0-.343.179-.987.524-.987m-1.517 1.363c-.072 0-.092-.037-.092-.088 0-.067.016-.188.397-1.459-.155 0-.397 0-.568 0-.413 0-.786.167-1.028.472-.381.48-.496.807-.496 1.058 0 .272.135.418.37.418.31 0 .58-.197.85-.543-.015.06-.031.176-.031.252 0 .171.088.284.262.284.238 0 .516-.201.754-.443l-.115-.147c-.151.138-.242.197-.31.197m-1.072.058c-.095 0-.158-.059-.158-.209 0-.192.214-.731.441-.965.206-.217.31-.247.576-.247-.052.338-.468 1.422-.858 1.422m-1.184-.058c-.072 0-.108-.05-.108-.134 0-.084.02-.176.052-.314l.21-.874h.314l.04-.193h-.306l.115-.472c-.127.033-.338.084-.464.096l-.092.376h-.362l-.04.193h.354l-.294 1.22c-.028.113-.052.201-.052.284 0 .147.091.209.238.209.214 0 .405-.1.778-.435l-.108-.142c-.127.13-.218.184-.278.184m-1.156.017c-.096 0-.112-.063-.112-.138 0-.213.298-.89.298-1.175 0-.167-.112-.259-.242-.259-.266 0-.6.23-.949.736.047-.225.091-.422.091-.543 0-.117-.048-.192-.151-.192-.178 0-.548.238-.79.464l.104.138c.111-.096.162-.121.214-.121.056 0 .084.046.084.126 0 .08-.02.221-.084.464l-.226.878c.131-.017.322-.037.468-.05.174-.87.592-1.413.818-1.413.072 0 .1.05.1.117 0 .309-.282.928-.282 1.121 0 .167.088.226.266.226.242 0 .564-.171.804-.414l-.096-.142c-.147.13-.254.18-.306.18m-2.772-1.572c-.762 0-1.215.702-1.215 1.233 0 .418.254.715.75.715.898 0 1.199-.836 1.199-1.225 0-.439-.286-.723-.735-.723m-.421 1.772c-.23 0-.294-.171-.294-.401 0-.552.282-1.195.683-1.195.174 0 .266.121.266.368 0 .56-.294 1.229-.655 1.229m-1.438-1.58c.174 0 .226.075.226.238l.246.054c.02-.142.056-.338.088-.476-.076-.004-.198-.009-.342-.009-.246 0-.524.063-.77.322-.346.364-.472.732-.472 1.05 0 .376.174.577.52.577.393 0 .762-.301 1.012-.719l-.143-.092c-.174.301-.334.452-.556.452-.218 0-.334-.13-.334-.409 0-.343.178-.987.524-.987m-3.062.924c.449 0 .965-.255.965-.631 0-.331-.195-.485-.484-.485-.691 0-1.223.69-1.223 1.242 0 .401.171.706.6.706.234 0 .596-.113.977-.502l-.104-.134c-.282.276-.46.359-.624.359-.178 0-.35-.071-.35-.418 0-.046.004-.1.016-.147.072.004.158.009.226.009m.346-.941c.088 0 .191.05.191.213 0 .393-.437.552-.715.552.072-.401.31-.765.524-.765m-1.56 1.438c-.06 0-.108-.046-.108-.138 0-.041.012-.1.028-.167l.628-2.596c-.127.054-.425.109-.874.138l-.032.176h.131c.139 0 .174.054.174.151 0 .067-.012.151-.044.288l-.488 2.01c-.032.13-.048.213-.048.28 0 .121.119.197.262.197.234 0 .48-.1.81-.426l-.115-.13c-.171.171-.258.221-.326.221m-1.18-1.614c-.286 0-.592.201-.914.585l.46-1.872c-.127.054-.425.109-.874.138l-.032.176h.131c.139 0 .175.054.175.151 0 .067-.012.151-.044.288l-.409 1.701c-.036.155-.072.326-.072.43 0 .197.076.351.409.351.786 0 1.573-.861 1.573-1.5 0-.264-.115-.448-.397-.448m-.91 1.739c-.162 0-.214-.108-.214-.272 0-.506.544-1.158.81-1.158.108 0 .186.067.186.238 0 .409-.377 1.191-.782 1.191m-1.219-.184c-.072 0-.092-.037-.092-.088 0-.067.016-.188.397-1.459-.155 0-.397 0-.568 0-.413 0-.786.167-1.029.472-.381.48-.496.807-.496 1.058 0 .272.135.418.37.418.31 0 .58-.197.85-.543-.015.06-.03.176-.03.252 0 .171.088.284.262.284.238 0 .516-.201.754-.443l-.115-.147c-.151.138-.242.197-.31.197m-1.072.058c-.096 0-.158-.059-.158-.209 0-.192.214-.731.44-.965.207-.217.31-.247.576-.247-.052.338-.469 1.422-.858 1.422m-1.152-.041c-.06 0-.079-.037-.079-.096 0-.046 0-.134.04-.234l.222-.74c.024-.08.044-.171.044-.225 0-.171-.076-.276-.254-.276-.29 0-.644.314-.898.669l.46-1.956c-.127.054-.425.109-.85.138l-.032.176h.108c.139 0 .175.054.175.151 0 .067-.012.151-.044.288l-.584 2.483c.143-.021.322-.037.465-.05.104-.694.441-1.413.814-1.413.064 0 .096.046.096.117 0 .096-.028.201-.068.331l-.166.569c-.028.1-.044.171-.044.234 0 .147.068.213.242.213.202 0 .405-.104.746-.439l-.104-.108c-.155.142-.214.171-.282.171m-2.164-.017c-.072 0-.108-.05-.108-.134 0-.084.02-.176.052-.314l.211-.874h.314l.04-.193h-.306l.115-.472c-.127.033-.338.084-.464.096l-.092.376h-.362l-.04.193h.354l-.294 1.22c-.028.113-.052.201-.052.284 0 .147.091.209.238.209.214 0 .405-.1.778-.435l-.108-.142c-.127.13-.218.184-.278.184m-1.199 0c-.072 0-.092-.037-.092-.088 0-.067.016-.188.397-1.459-.155 0-.397 0-.568 0-.413 0-.786.167-1.028.472-.381.48-.496.807-.496 1.058 0 .272.135.418.369.418.31 0 .58-.197.85-.543-.015.06-.031.176-.031.252 0 .171.088.284.262.284.238 0 .516-.201.754-.443l-.115-.147c-.151.138-.242.197-.31.197m-1.073.058c-.095 0-.158-.059-.158-.209 0-.192.214-.731.44-.965.207-.217.31-.247.576-.247-.052.338-.468 1.422-.858 1.422m-1.759-.498c.448 0 .965-.255.965-.631 0-.331-.194-.485-.484-.485-.691 0-1.223.69-1.223 1.242 0 .401.17.706.6.706.234 0 .596-.113.976-.502l-.104-.134c-.282.276-.46.359-.624.359-.178 0-.35-.071-.35-.418 0-.046.004-.1.016-.147.072.004.158.009.226.009m.346-.941c.088 0 .19.05.19.213 0 .393-.436.552-.715.552.072-.401.31-.765.524-.765m-1.851.535c.051-.248.087-.436.087-.511 0-.121-.036-.192-.143-.192-.191 0-.536.238-.804.489l.084.121c.115-.113.194-.147.258-.147.048 0 .083.046.083.184 0 .08-.024.209-.06.338l-.25.961c.131-.017.322-.037.468-.05.182-.794.405-1.296.814-1.296.032 0 .068.004.1.009.004-.184.052-.372.158-.61-.29.05-.468.213-.79.71m-1.33-.71c-.286 0-.592.201-.914.585l.46-1.872c-.127.054-.425.109-.874.138l-.032.176h.131c.139 0 .174.054.174.151 0 .067-.012.151-.044.288l-.409 1.701c-.036.155-.072.326-.072.43 0 .197.076.351.409.351.786 0 1.573-.861 1.573-1.5 0-.264-.115-.448-.397-.448m-.91 1.739c-.163 0-.214-.108-.214-.272 0-.506.544-1.158.81-1.158.107 0 .186.067.186.238 0 .409-.378 1.191-.782 1.191" id="path62" style="fill:#faaf42"/></svg>