<?xml version="1.0"?>
<svg xmlns="http://www.w3.org/2000/svg" xmlns:xlink="http://www.w3.org/1999/xlink" viewBox="0 0 122 26" width="122" height="26">
    <defs>
        <linearGradient id="air-optix-simple-b" gradientUnits="userSpaceOnUse" x1="32.882" x2="43.36">
            <stop stop-color="#81d4f7"/>
            <stop offset="1" stop-color="#2ac5f4"/>
        </linearGradient>
        <linearGradient id="air-optix-simple-a" gradientUnits="userSpaceOnUse" x1="30.414" y1="-1.106" x2="59.755" y2="15.833">
            <stop stop-color="#9ddcf9"/>
            <stop offset="1" stop-color="#005299"/>
        </linearGradient>
        <linearGradient id="air-optix-simple-c" gradientUnits="userSpaceOnUse" x1="73.37" y1="13.188" x2="86.55" y2="26.36">
            <stop stop-color="#0476b8"/>
            <stop offset="1" stop-color="#0a559b"/>
        </linearGradient>
        <linearGradient id="air-optix-simple-e" gradientUnits="userSpaceOnUse" x1="2.389" x2="152.78">
            <stop stop-color="#b1e2f9"/>
            <stop offset="1" stop-color="#f1f8fd"/>
        </linearGradient>
        <linearGradient id="air-optix-simple-f" gradientUnits="userSpaceOnUse" x1="22.593" x2="32.882">
            <stop stop-color="#97daf8"/>
            <stop offset="1" stop-color="#81d4f7"/>
        </linearGradient>
        <linearGradient id="air-optix-simple-d" gradientUnits="userSpaceOnUse" x1="50.15" y1="16.1" x2="59.918" y2="25.863">
            <stop stop-color="#25a6de"/>
            <stop offset="1" stop-color="#0073b5"/>
        </linearGradient>
        <linearGradient xlink:href="#air-optix-simple-a" id="air-optix-simple-l" gradientUnits="userSpaceOnUse" x1="30.414" y1="-1.106" x2="59.755" y2="15.833" gradientTransform="matrix(0.79694,0,0,0.79694,0.118,-0.004)"/>
        <linearGradient xlink:href="#air-optix-simple-b" id="air-optix-simple-k" gradientUnits="userSpaceOnUse" x1="32.882" x2="43.36" gradientTransform="matrix(0.79694,0,0,0.79694,0.118,-0.004)"/>
        <linearGradient xlink:href="#air-optix-simple-c" id="air-optix-simple-j" gradientUnits="userSpaceOnUse" x1="73.37" y1="13.188" x2="86.55" y2="26.36" gradientTransform="matrix(0.79694,0,0,0.79694,0.118,-0.004)"/>
        <linearGradient xlink:href="#air-optix-simple-d" id="air-optix-simple-i" gradientUnits="userSpaceOnUse" x1="50.15" y1="16.1" x2="59.918" y2="25.863" gradientTransform="matrix(0.79694,0,0,0.79694,0.118,-0.004)"/>
        <linearGradient xlink:href="#air-optix-simple-e" id="air-optix-simple-h" gradientUnits="userSpaceOnUse" x1="2.389" x2="152.78" gradientTransform="matrix(0.79694,0,0,0.79694,0.118,-0.004)"/>
        <linearGradient xlink:href="#air-optix-simple-f" id="air-optix-simple-g" gradientUnits="userSpaceOnUse" x1="22.593" x2="32.882" gradientTransform="matrix(0.79694,0,0,0.79694,0.118,-0.004)"/>
    </defs>
    <path d="m 22.197223,23.10726 c -1.129264,-1.074275 -1.727766,-2.629902 -1.727766,-4.501117 0,-3.97434 2.238604,-6.464777 5.852727,-6.552441 v -0.869461 h -0.02152 c -2.260919,0 -4.318618,0.686165 -5.798536,1.93497 -1.55722,1.314154 -2.379663,3.13038 -2.379663,5.248647 0,2.111891 0.773032,3.903412 2.240996,5.180907 1.460791,1.27351 3.497769,1.946127 5.892574,1.946127 0.02152,0 0.04303,-0.0032 0.06615,-0.0032 v -0.860695 c -1.624164,0 -3.089736,-0.541122 -4.125758,-1.523749" fill="url(#air-optix-simple-g)"/>
    <path d="M 2.0218897,12.977356 C 31.604302,28.596583 93.287458,2.9685862 121.88167,17.766965 94.293994,7.3270511 31.739782,37.184408 2.0218897,12.977356" class="vc-hover-opaque" fill="url(#air-optix-simple-h)"/>
    <path d="M 0.118,15.472575 C 29.788076,30.922851 91.790008,4.2516596 120.46391,18.881884 92.817264,8.602952 29.971372,39.507488 0.118,15.472575" class="vc-hover-hide" opacity=".23" fill="#c3e9fb"/>
    <path d="m 45.639213,11.791509 h -4.513868 v 13.175012 l 0.438317,-0.02789 c 0.242269,-0.01753 0.494899,-0.03347 0.745935,-0.03347 0.21358,0 0.429551,0.01435 0.65907,0.02869 0.134683,0.01116 0.525183,0.03268 0.525183,0.03268 v -5.959517 c 0.142653,0.0016 0.32037,7.9e-5 0.520402,0.01594 0.749921,0.03028 1.883169,0.07332 2.724738,-0.05579 3.755978,-0.575391 5.359421,-1.759644 5.359421,-3.967168 0,-2.370099 -1.689512,-3.211668 -6.459198,-3.211668 m 0.188078,6.275903 c -0.795346,0.05419 -1.715812,0.05658 -2.333441,0.0072 v -5.350655 c 0.741155,-0.03108 2.406759,-0.051 3.444375,0.02391 1.710233,0.116353 2.693657,0.972267 2.693657,2.347785 0,1.676762 -1.422538,2.788493 -3.804591,2.970993 z" fill="url(#air-optix-simple-i)"/>
    <path d="m 70.208873,12.826734 c -0.02152,-0.128307 -0.04304,-0.246254 -0.04304,-0.364999 0,-0.109977 0.01992,-0.219158 0.03985,-0.332323 0.01195,-0.06933 0.04622,-0.334715 0.04622,-0.334715 H 57.306414 c 0,0 0.03586,0.265381 0.04782,0.335511 0.02152,0.113963 0.03905,0.22155 0.03905,0.331527 0,0.117948 -0.02231,0.236692 -0.04383,0.361811 -0.0088,0.06296 -0.04463,0.316385 -0.04463,0.316385 l 0.121134,-0.0096 c 1.513389,-0.122729 2.960633,-0.225534 5.291682,-0.227128 v 12.106316 l 0.43752,-0.02949 c 0.24227,-0.01594 0.496494,-0.03506 0.74753,-0.03506 0.212783,0 0.428754,0.01594 0.654288,0.02949 0.13787,0.0096 0.529168,0.03347 0.529168,0.03347 V 12.902443 c 1.745298,0.004 3.441984,0.08049 5.045427,0.227128 l 0.121932,0.01036 c 0,0 -0.03586,-0.253426 -0.04622,-0.314791" fill="url(#air-optix-simple-j)"/>
    <path d="M125.64 31.13l-6.569-8.894 1.342-1.686 4.367-5.064c.132-.157.292-.309.464-.451l.3-.256c0 0-1 .096-1.431.096-.365 0-1.119-.077-1.119-.077l-.041.062c-.918 1.438-1.98 2.775-3.01 4.07-.559.705-1.138 1.435-1.677 2.164l-4.426-6.293c0 0-.485.024-.682.037-.321.019-.624.037-.922.037-.354 0-.72-.022-1.075-.045l-.738-.042c0 0 2.497 3.138 3 3.811.5.672 1.225 1.66 1.812 2.478l1.412 1.939-3.11 3.9c-.614.771-1.23 1.512-1.881 2.297l-1.76 2.136c.002 0 .517-.037.627-.049.228-.021.465-.041.713-.041.214 0 .43.018.658.039.127.011.463.037.463.037l.041-.062c1.662-2.58 3.321-4.904 5.058-7.098 1.748 2.314 3.335 4.633 4.839 7.096l.04.064.575-.034c.344-.021.7-.041 1.06-.041.321 0 .63.018.96.036.194.014.868.045.868.045M99.49 14.832c-.289.02-.56.04-.829.04-.317 0-.631-.022-.94-.045l-.55-.035v16.542l.549-.035c.308-.022.623-.042.94-.042.267 0 .537.018.822.036.171.014.664.041.664.041v-16.54c0 0-.489.029-.658.039" transform="matrix(0.79694,0,0,0.79694,0.118,-0.004)" fill="#005297" />
    <path d="m 100.94685,22.88332 v 0.34906 h 0.42317 v 1.843322 h 0.39847 V 23.23238 h 0.44868 v -0.34906 h -1.27032 m 1.44485,0 v 2.191585 h 0.37377 v -1.76841 l 0.34906,1.76841 h 0.29885 l 0.37376,-1.76841 v 1.76841 h 0.34906 V 22.88332 h -0.573 l -0.29885,1.54447 -0.27415,-1.54447 h -0.5977" fill="#00539a"/>
    <path d="M 32.035447,12.810795 C 30.562702,11.76521 28.533693,11.189022 26.326966,11.185038 v 0.869461 c 0.06615,0 0.129901,0 0.196844,0 1.76044,0 3.427639,0.705292 4.459676,1.888748 1.118107,1.310966 1.347626,2.80762 1.347626,4.303476 0,1.492669 -0.423972,3.18776 -1.746096,4.611095 -1.08862,1.165126 -2.559771,1.781958 -4.257253,1.781958 v 0.860695 c 2.398789,-0.01195 4.47163,-0.710074 5.983425,-2.022634 1.546064,-1.346829 2.366115,-3.211668 2.366115,-5.398471 0,-2.219478 -0.912496,-4.039689 -2.641059,-5.262195" fill="url(#air-optix-simple-k)"/>
    <path d="m 46.428183,4.4676303 c 0.190469,-0.033471 0.388907,-0.071725 0.60169,-0.1267134 0.334715,-0.08846 0.653491,-0.2135799 0.949953,-0.3737649 0.300446,-0.1617788 0.559451,-0.3697801 0.76825,-0.6184254 C 48.968031,3.0857364 49.0804,2.7693512 49.0804,2.4059466 49.0804,2.068044 48.99433,1.7795517 48.822988,1.5484391 48.658818,1.3268898 48.430894,1.1435936 48.14798,1.0065199 47.873036,0.87502482 47.549478,0.77859508 47.187667,0.72201234 c -0.356232,-0.0549889 -0.737169,-0.0836787 -1.126873,-0.0836787 -0.269366,0 -0.537934,0.009563 -0.79694,0.0278929 -0.25263,0.0175327 -0.514026,0.026299 -0.776219,0.026299 -0.254224,0 -0.516418,-0.004782 -0.780205,-0.0151419 l -0.784189,-0.0382531 -0.16656,-7.969e-5 0.0088,0.16656046 0.07412,1.32610815 c 0.02152,0.4295507 0.03347,0.8726493 0.03347,1.3181388 v 1.7644251 c 0,0.4454895 -0.01195,0.8909789 -0.03347,1.3245143 l -0.07412,1.288652 -0.0096,0.1681543 0.168154,-0.00877 c 0.20322,-0.011954 0.421581,-0.01833 0.665445,-0.01833 0.243864,0 0.460631,0.00638 0.663851,0.01833 l 0.167358,0.00956 -0.0088,-0.1689513 -0.07332,-1.2894489 C 44.316292,6.1044654 44.304338,5.658179 44.304338,5.2126895 V 4.6133907 h 0.322761 c 0.278132,0.2151738 0.588142,0.477367 0.926841,0.7865797 0.350654,0.3219638 0.70051,0.6503031 1.037616,0.9770485 0.337106,0.3251515 0.647912,0.6343642 0.926841,0.9196687 l 0.08049,0.082085 0.545107,0.5618427 0.05021,0.052598 0.07173,-0.00638 c 0.121932,-0.011954 0.247848,-0.01833 0.385719,-0.01833 h 0.400064 0.412815 c 0.137073,0 0.270959,0.00638 0.399267,0.01833 L 50.390569,8.0338571 49.9658,7.716675 C 49.839087,7.6226361 49.670932,7.4831716 49.465322,7.3038601 49.250148,7.1165792 49.024614,6.9117656 48.794298,6.6973888 L 48.049956,6.0008632 47.305614,5.3035407 46.660093,4.6954755 m 0.898948,-2.178834 c 0,0.2741474 -0.07252,0.491712 -0.220752,0.6662419 -0.155403,0.1840931 -0.354638,0.3339178 -0.59133,0.4438955 -0.243863,0.1123686 -0.51562,0.1936565 -0.810488,0.239082 -0.301243,0.04702 -0.592923,0.070131 -0.868664,0.070131 -0.181703,0 -0.34906,-0.00319 -0.497291,-0.00877 -0.100414,-0.00398 -0.188078,-0.015939 -0.278929,-0.027893 V 3.4498583 c 0,-0.3689833 0.0096,-0.7387634 0.02789,-1.0997772 l 0.03825,-0.784189 0.01036,-0.2008289 c 0.123526,-0.011157 0.255021,-0.019127 0.403252,-0.026299 0.215971,-0.01036 0.48454,-0.015142 0.796143,-0.015142 0.227925,0 0.467007,0.017533 0.709277,0.053395 0.2343,0.035862 0.452662,0.1028053 0.647912,0.1976411 0.189672,0.090851 0.345872,0.2159708 0.465413,0.3713741 0.112369,0.1466369 0.169748,0.3386995 0.169748,0.570609 z M 35.783456,3.4490613 v 1.7644252 c 0,0.4454894 0.01116,0.8909789 0.03347,1.3245143 l 0.07491,1.2886519 0.01036,0.1689513 -0.168154,-0.00956 c -0.20322,-0.011954 -0.420785,-0.01833 -0.664648,-0.01833 -0.244661,0 -0.461429,0.00638 -0.664648,0.01833 l -0.168155,0.00877 0.0096,-0.1681544 0.07411,-1.2886519 c 0.02152,-0.4335354 0.03347,-0.8790249 0.03347,-1.3245143 V 3.4490613 c 0,-0.4462864 -0.01116,-0.8885881 -0.03347,-1.3181387 l -0.07411,-1.32610819 -0.0096,-0.18090538 0.176921,0.0223143 c 0.102008,0.012751 0.210392,0.0255021 0.338699,0.0382531 0.109181,0.0103602 0.215971,0.0151419 0.317183,0.0151419 0.102008,0 0.20561,-0.004782 0.313994,-0.0151419 0.130698,-0.012751 0.238285,-0.0247051 0.34109,-0.0382531 l 0.177718,-0.0215174 -0.01036,0.1793115 -0.07491,1.32610813 c -0.02231,0.4295507 -0.03347,0.8726493 -0.03347,1.3181388 M 25.261457,5.2716631 c 0.109181,0.2072044 0.223143,0.4175966 0.344278,0.6351612 l 0.406439,0.7363725 c 0.133089,0.2430667 0.255021,0.4757732 0.361811,0.6901501 0.109181,0.2191585 0.195251,0.4072363 0.257412,0.5586549 l 0.04224,0.1028053 0.109977,-0.00956 c 0.119541,-0.011954 0.237489,-0.01833 0.350654,-0.01833 h 0.364999 0.364998 c 0.113166,0 0.23191,0.00638 0.351451,0.01833 l 0.33073,0.031081 -0.196048,-0.2685688 C 28.236434,7.5907585 28.082625,7.3516765 27.896938,7.040073 L 27.26337,5.9689856 26.512653,4.6723642 25.715713,3.267359 24.930727,1.8655415 24.214278,0.57848345 24.17204,0.50118027 h -0.08846 -0.262194 -0.08527 l -0.04383,0.0741154 -2.135002,3.61013821 c -0.702901,1.1778773 -1.434492,2.3796628 -2.175646,3.5702912 l -0.155404,0.25263 0.294868,-0.023908 c 0.147434,-0.011954 0.310807,-0.01833 0.498088,-0.01833 0.186484,0 0.349059,0.00638 0.498087,0.01833 l 0.112369,0.00877 0.03905,-0.1051961 c 0.11715,-0.3108066 0.297258,-0.7060888 0.531559,-1.1786742 0.22394,-0.452662 0.478961,-0.9364045 0.755499,-1.4384767 l 0.751514,-0.011954 0.838381,-0.00398 0.908512,0.00398 0.8073,0.011954 m -1.631336,-2.923176 1.269525,2.1628952 -0.514823,0.00877 -0.769844,0.00398 c -0.243864,0 -0.493306,-0.00159 -0.73956,-0.00877 -0.177718,-0.00239 -0.336309,-0.00478 -0.490118,-0.00558 l 1.24482,-2.1605043" fill="url(#air-optix-simple-l)"/>
</svg>