<svg xmlns="http://www.w3.org/2000/svg" width="88" height="26" viewBox="0 0 88 26"><path d="M38.14.503c-1.213-.003-2.486.683-2.588 2.14-.066.94-.067 1.884-.1 2.826-.008.26-.032.52-.054.86h-1.782v1.35l1.85.09v12.51h1.654V7.73h2.98V6.297h-2.98c0-.994-.015-1.89.005-2.787.023-1.015.525-1.516 1.54-1.48.514.018 1.024.162 1.578.254V.844c-.757-.21-1.385-.34-2.102-.342M16.88.855c-.708 0-1.14.45-1.132 1.12.008.67.438 1.062 1.126 1.065.688.003 1.18-.432 1.18-1.087S17.587.855 16.88.855m25.88 0c-.706.006-1.137.46-1.126 1.126.012.67.44 1.06 1.126 1.06.687 0 1.178-.44 1.175-1.09-.002-.65-.47-1.09-1.175-1.08m17.907 0c-.652 0-1.212.52-1.192 1.12.02.6.536 1.07 1.186 1.07.66 0 1.22-.52 1.2-1.12-.02-.59-.53-1.06-1.18-1.06M.18.91v19.36h1.64v-2.335c.003-.12.104-.16.16-.094 1.353 1.76 3.093 2.8 5.3 2.86 2.223.06 4.08-.79 5.59-2.43 2.23-2.42 2.487-6.45.55-9.15-1.01-1.41-2.3-2.46-4.01-2.87-2.95-.7-5.45.14-7.47 2.48-.105.08-.166.04-.16-.13V.91zm65.18.15v5.27h-2.34v1.407h2.36c.004 3.092.063 6.41.006 9.11-.025 1.197.22 2.142.927 2.942.84.94 2.76.83 3.99.17v-1.35c-.38.09-.73.18-1.07.26-1.33.28-2.07-.3-2.07-1.64V8.52c0-.24.03-.48.05-.826h2.68v-1.41h-2.76V1.06h-1.77m-17.5 7.13c-.245.354-.22.358-.364.534-.1.12-.16.092-.16-.055V6.35h-1.61v13.912h1.61c.01-2.687.09-5.586.12-7.94.02-2.062 1.71-4.562 4.57-4.824 1.64-.15 3.29.492 3.84 2.434.18.618.27 1.278.28 1.92.03 2.566.01 5.137.01 7.703 0 .24.034.48.054.734h1.61c0-.74.01-1.39 0-2.04-.043-2.61-.017-5.22-.166-7.82-.13-2.28-1.98-4.17-4.096-4.39-2.427-.26-5.066 1.21-5.71 2.13M26.27 6.03c-4.01.04-7.086 3.663-7.133 7.206-.047 3.57 2.656 7.448 7.234 7.466 4.53.018 7.21-3.62 7.32-7.118.13-4.252-3.34-7.726-7.22-7.554-.13.01-.09.01-.2.01m56.2.3l-4.72 10.77c-.056.093-.17.083-.215-.023-1.605-3.593-3.21-7.187-4.79-10.717h-1.69l5.48 12.33c.187.415.217.767.02 1.192-.896 2-1.715 3.806-2.44 5.61h1.696l8.38-19.16h-1.72m-66.4.006v13.928h1.547V6.344zm43.806.006v13.922h1.545V6.352zm24.975.01v.172h.52V7.91h.2V6.533h.51v-.17zm1.41 0V7.91h.19V6.622l.48 1.286h.17l.48-1.286v1.286h.195V6.363h-.28l-.48 1.297-.486-1.297h-.28m-44.32.006v13.92h1.55V6.37zM7.34 7.5c3.63-.017 5.635 3.134 5.645 5.822.012 2.958-2.416 5.72-5.6 5.778-2.96.052-5.675-2.603-5.64-5.81.033-3.203 2.312-5.774 5.594-5.79m19.1.116c3.37.003 5.75 3.207 5.47 5.866.23 2.52-1.93 5.726-5.52 5.706-3.06-.017-5.56-2.377-5.55-5.778 0-3.2 2.44-5.797 5.59-5.794" fill="#0164a7"/></svg>