<?xml version="1.0"?><svg xmlns="http://www.w3.org/2000/svg" width="106" height="26" viewBox="0 0 106 26"><path d="M77.09 1.094v1.188c.177.037.33.074.47.094 1.26.16 1.5.48 1.405 1.72-.014.173-.03.357-.063.53-.318 1.725-.65 3.43-.97 5.156L76.06 19.907c-.114-.35-.21-.53-.25-.72-1.045-5.097-2.09-10.18-3.125-15.28-.083-.413-.083-.844-.125-1.344l1.813-.28V1.125h-5.155v1.25c1.133-.12 1.445.575 1.625 1.47 1.058 5.245 2.142 10.478 3.22 15.718.405 1.975.806 3.963 1.218 5.938h.53c.11-.33.25-.66.32-1 1.31-6.77 2.61-13.53 3.91-20.31.18-.91.48-1.71 1.53-1.9V1.1H77.1m4.937 0v1.22c.36.027.656.06.97.093.61.07.846.27.906.87.025.264 0 .55 0 .815.003 4.895.013 9.79.03 14.688.003.73.017 1.443.157 2.156.407 2.09 2.344 4.22 5.03 4.22 1.92 0 2.926-1.365 3.562-3.095.406-1.108.53-2.258.53-3.438 0-4.72-.014-9.44 0-14.16.003-1.38.38-1.83 1.69-2.13.05-.02.11-.09.153-.13V1.09H90.44v1.19c1.4.32 1.743.757 1.75 2.157.01 2.17 0 4.33 0 6.5 0 2.61.022 5.24 0 7.85 0 1.28-.306 2.5-1.064 3.56-.91 1.275-2.465 1.45-3.688.47-.71-.57-1.208-1.286-1.406-2.158-.188-.82-.31-1.69-.314-2.53-.03-4.72-.03-9.44-.03-14.16 0-.15-.01-.3 0-.44.045-.77.296-1.04 1.062-1.13.307-.04.613-.07.906-.1V1.1H82.03m13.438 0v1.22c.328.038.59.064.875.094.484.054.734.328.75.814.005.206 0 .42 0 .625v18.28c0 1.304-.052 1.37-1.376 1.47-.052.003-.086.056-.156.093v1.094h10.16v-8.78l-.62.062c-.03.236-.02.43-.06.624-.29 1.52-.47 3.085-.9 4.563-.61 2.08-2.75 2.97-4.81 2.18-.1-.04-.18-.17-.28-.25v-9.97c1.67-.06 2.24.4 2.5 1.97.08.46.11.91.16 1.37l.19 1.68.6-.07V7.07h-.56c-.02.26-.06.49-.09.718-.08.726-.15 1.463-.25 2.188-.16 1.238-1.33 2.085-2.56 1.78v-8.25c.01-.93.15-1.09 1.1-1.124.56-.022 1.11-.01 1.66.03 1.08.074 1.83.635 2.16 1.657.21.63.3 1.3.41 1.96.16 1 .27 2.02.41 3.03h.66l-.22-7.97h-9.7" fill="#0aafed"/><path d="M6.25.5c-.762.047-1.5.412-2.22 1.063-.39.35-.786.748-1.062 1.188-.465.74-.897 1.52-1.25 2.32C.964 6.76.508 8.54.343 10.38-.07 14.953 1.41 21.142 2.687 23.032c.93 1.382 1.646 2.02 2.813 2.28.502.116 1.322.21 1.844.126 1.374-.22 2.32-1.176 3.03-2.38 1.143-1.934 1.6-4.06 1.78-6.343l-.687.03c-.088.554-.16 1.044-.25 1.53-.28 1.503-.624 2.994-1.5 4.28-1.476 2.173-4.124 2.134-5.47-.123-.43-.717-.787-1.53-.937-2.344-.305-1.665-.508-3.37-.625-5.06-.212-3.05-.066-6.097.594-9.09.21-.977.54-1.91 1.15-2.72 1.32-1.754 3.32-1.733 4.47.126.53.862.91 1.843 1.22 2.813.4 1.3.67 2.64 1 4h.65l-.21-9.56h-.63l-.72 2.123c-.59-.52-1.09-1.033-1.66-1.437C7.77.72 7.01.456 6.24.503m25.63.313l-3.562.25v1.188c.11.022.17.028.25.03 1.42.052 1.64.267 1.65 1.657v18.19c0 .18.01.36 0 .53-.04.76-.2.93-.94.97-.26.02-.53.02-.817.03v1.13h5.07V23.6c-.25 0-.45.006-.65 0-.77-.033-.9-.16-.93-.94v-.626c-.01-6.8-.01-13.575-.03-20.375 0-.26-.01-.53-.03-.85M21.22 9.16c-4.543-.025-7.806 3.5-8.094 7.467-.33 4.607 3.755 8.604 7.907 8.344 4.52.21 7.73-3.62 7.97-7.18.35-5.19-3.77-8.6-7.78-8.62m20.19 0c-4.597 0-7.96 3.65-7.97 7.93-.006 4.27 3.383 7.99 7.94 7.87 4.29.3 8.01-3.58 8.03-7.75.02-4.52-3.554-8.07-8-8.06m26.03.35c-.27 0-.55.12-.814.32-.34.26-.66.62-.85 1-.31.63-.5 1.31-.72 1.97-.16.49-.27.98-.41 1.47l-.19-.03V9.57l-3.28.156v1.22c1.66.12 1.81.297 1.81 1.874v9.25c0 .235.02.454 0 .688-.06.64-.25.816-.88.844-.29.012-.57 0-.91 0v1.22h5.6v-.595c-.01-.194-.01-.385-.03-.625h-1.03c-.79-.02-1.05-.262-1.07-1.063-.02-1.18.02-2.36 0-3.54-.04-1.57.17-3.1.59-4.6.26-.92.65-1.81 1.03-2.69.18-.42.48-.78 1.12-.82-.1.42-.17.76-.25 1.09-.18.7-.2 1.37.12 2.03.34.71 1.02.75 1.43.09.58-.92.51-3.09-.13-3.97-.31-.43-.74-.67-1.18-.66m-15.25.03l-3.22.25V11c1.31.236 1.57.54 1.59 1.75v.53c0 1.966-.017 3.913 0 5.877 0 1.47.092 2.93.652 4.314.69 1.71 2.377 2.14 3.75.91.53-.48.925-1.11 1.375-1.68.13-.16.26-.36.44-.62l.19 2.81h3.03v-1.25c-.14-.01-.225-.06-.313-.06-.98-.04-1.25-.29-1.31-1.25-.02-.26 0-.52 0-.78 0-3.72.01-7.43 0-11.15 0-.25-.05-.51-.06-.81l-3.1.18v1.22c1.274.22 1.52.52 1.53 1.75 0 1.41.02 2.81 0 4.22-.01.97-.04 1.95-.126 2.91-.078.86-.29 1.68-.818 2.38-.46.62-1.07 1.02-1.87.91-.79-.11-1.22-.71-1.37-1.44-.16-.79-.3-1.62-.31-2.43-.04-2.96-.03-5.91-.03-8.87 0-.27-.02-.55-.03-.84"/><path d="M27.99 18.716l-.145.28-.428 1.605-.22.33-.772.84-.57.31-.764 1.07-.48.27-1.23.63-.9-.15-.88.51-1-.17-.67.09-.88-.32-1.28-.36-.43-.52-1.21-.49-.24-.38-.99-.94-.01-.9-.65-.57.23-.84-.54-1.27.29-.6-.34-.95.63-.97-.05-.953.74-.73.23-1.08 1.11-.07.63-1.18.51-.16.71-.625.88-.08 1.39-.51.49.64 1.19-.55.887.834.764-.15.96.668.83.55.22.716.996.37.52.95.67.77-.2 1.124.48.795-.29 1.11z" color="#000" fill="#8b4634"/><path d="M26.296 18.086l1.256 1.797-1.987.013.524 2.13-1.86-.706-.28 2.175-1.48-1.33-1.05 1.927-.9-1.773-1.68 1.41-.2-1.98-2.08.71.53-1.92-2.19-.08 1.19-1.6-2.01-.86 1.68-1.06-1.57-1.54 1.95-.38-.91-2 1.95.35-.13-2.19 1.7 1.04.67-2.08 1.21 1.58 1.39-1.7.55 1.91 1.9-1.08-.17 1.98 2.17-.33-.88 1.78 2.14.48-1.46 1.35 1.82 1.22z" color="#000" fill="#d6947e"/><path d="M27.828 18.916l-1.82.54.72 1.758-1.89-.153.034 1.9-1.71-.82-.65 1.78-1.297-1.38-1.252 1.43-.707-1.76-1.683.88-.023-1.89-1.886.21.665-1.78-1.84-.48 1.26-1.42-1.54-1.11 1.68-.86-1.03-1.59 1.89-.19-.39-1.86 1.83.5.31-1.87 1.53 1.13.97-1.63 1.02 1.6 1.49-1.174.37 1.86 1.82-.55-.33 1.87 1.89.14-.98 1.627 1.72.81-1.5 1.16z" color="#000" fill="#fbf0eb"/><path d="M28.525 18.18l-2.7.385 2.376 1.78-2.96-.732 1.93 2.105-2.68-1.08 1.05 2.3L23.6 21.4l.06 2.7-1.45-2.53-.3 2.99-.984-2.483-.79 2.32-.122-2.487-1.772 2.294.86-3.134-2.435 1.744 1.158-2.518-2.756 1.435 2-1.95-2.99.23 2.42-1.85-2.7.02 2.63-.78-2.72-1.18 2.7-.38-2.2-1.63 2.97.72-1.8-2.64 2.4 1.39-1.29-2.55 2.42 1.73-.29-2.87 1.44 2.59L20 9.84l1 2.43 1.1-2.672.022 2.767 1.906-2.396-.338 3.2 1.914-1.81-.887 2.52 2.472-1.25-2.08 2.17 2.82-.68-2.16 1.85 2.68.04-2.48 1.16z" color="#000" fill="#fac29a"/><path d="M26.22 18.682l-1.537.234.72 1.626-1.57-.537.387 1.566-1.42-.75-.594 1.76-1.115-1.19-.9 1.22-.59-1.56-1.42.86-.01-1.62-1.59.3.77-1.68-1.73-.05 1.31-1.09-1.26-.9 1.5-.64-1.18-1.64 1.62.06-.5-1.7 1.57.71.39-1.51 1.03.91.75-1.47 1.02 1.38 1.14-1.2.2 1.86 1.72-.77-.463 1.65 1.446.19-.77 1.08 1.51.65-1.28 1.13z" color="#000" fill="#eb4539"/><path d="M21.12 13.636c-1.892 0-3.426 1.554-3.426 3.446 0 1.892 1.534 3.426 3.426 3.426 1.892 0 3.426-1.534 3.426-3.426 0-1.892-1.534-3.446-3.426-3.446" color="#000" fill="#fbf0eb"/><path d="M21.12 13.918c1.746 0 3.164 1.417 3.164 3.164 0 1.746-1.417 3.144-3.164 3.144-1.746 0-3.164-1.397-3.164-3.144 0-1.746 1.417-3.164 3.164-3.164" color="#000"/><path d="M48.48 16.027l-.214.872.398 1.08-.774.83.297.62-.548 1.22-.17.55-1.25.58v.89l-1.34.17-.18.82-1.35.07-.25.48-1.49-.35-.78.53-.71-.48-1.21.16-.73-1.01-.92.26-.6-1.43-.57.32-.44-1.72-.66-.12-.13-1.15-.52-.26.4-1.7-.6-.31.5-1.43-.3-.623 1.11-1 .03-.81 1.19-.71-.36-.49 1.68-.62.19-.784 1.46.13.13-.683 1.58.5.21-.49 1.49.88.62-.43 1.11.66.42-.12 1.09 1.29.67-.15.46 1.75.54-.085-.18 1.77z" color="#000" fill="#3d529a"/><path d="M45.962 18.906l1.26 2.185-2.256-.69.385 2.49-1.85-1.46-.54 2.47-1.2-2.03-1.39 2.1-.38-2.33-2.06 1.46.48-2.31-2.44.62 1.29-1.98-2.5-.31 1.92-1.38-2.22-1.19 2.28-.6-1.64-1.91 2.35.27-1.1-1.88 2.36.6-.11-2.13 1.75 1.39.99-2.32.81 2.22 1.76-1.81-.05 2.36 2.29-1.05-.9 2.19 2.515-.154-1.624 1.71 2.4.77-2.136 1.01 1.963 1.58z" color="#000" fill="#69a1d5"/><path d="M47.294 18.72l-1.476.403.5 1.577-1.52-.156-.102 1.65-1.362-.694-.692 1.503-1.02-1.14-1.188 1.15-.54-1.43-1.522.643.015-1.53-1.654.05.566-1.42-1.56-.55 1.04-1.12-1.26-1.078 1.37-.668-.78-1.458 1.52-.127-.21-1.642 1.46.433.4-1.604 1.21.934.95-1.35.79 1.308 1.38-.913.27 1.51 1.61-.35-.29 1.5 1.63.26-.82 1.3 1.43.83-1.23.91z" color="#000" fill="#e8f0f9"/><path d="M48.15 17.6l-2.322.297 2.05 1.306-2.43-.062 1.545 1.9-1.836-.8.562 1.91-1.56-1.24-.12 2.3-1-1.99-.44 2.32-.67-2.13-1.1 2.28-.28-2.15-1.22 1.68.15-2.13-1.79 1.53 1.01-2.05-2.09.55 1.12-1.45-2.32-.02 1.74-1.03-2.33-.45 2.09-.6-2.07-.97 2.04-.21-1.5-1.65 2.18.22-1.34-1.67 2.07.69-1.09-2.01 1.8 1.51-.77-1.88 1.73 1.29.42-2.27.91 1.98.86-2.17.4 2.13 1.35-1.82-.35 2.31 1.73-1.39-1.04 2.15 2.19-.99-.98 1.74 2.09-.03-1.958.93 2.24.738-1.77.356z" color="#000" fill="#57b7e7"/><path d="M46.226 18.205l-1.46.574.707 1.25-1.54-.22.182 1.41-1.27-.76-.33 1.66-1.097-1.29-.566 1.3-.594-1.64-1.296 1.01-.062-1.61-1.23.2.56-1.31-1.66-.07.984-1.29-1.126-.69 1.497-.49-1.005-1.35 1.54-.12-.635-1.21 1.45.43.35-1.62.87.88.913-1.19.727 1.12 1.084-.85.28 1.41 1.2-.67-.33 1.7 1.36-.04-.6 1.02 1.19.59-1.28 1.043z" color="#000" fill="#f2b591"/><path d="M41.496 13.617c-1.892 0-3.426 1.554-3.426 3.446 0 1.892 1.534 3.426 3.426 3.426 1.892 0 3.426-1.54 3.426-3.43s-1.534-3.45-3.426-3.45" color="#000" fill="#fbf0eb"/><path d="M41.496 13.9c1.746 0 3.164 1.416 3.164 3.163 0 1.746-1.417 3.144-3.164 3.144-1.746 0-3.164-1.397-3.164-3.144 0-1.746 1.417-3.164 3.164-3.164" color="#000"/></svg>