<?xml version="1.0"?><svg xmlns="http://www.w3.org/2000/svg" viewBox="0 0 124 26" width="124" height="26"><path d="m121.31.5c-.426 0-.854.072-1.258.29-.404.219-.709.562-.936.968-.227.406-.387.883-.387 1.323 0 .435.164.824.387 1.226.223.403.535.746.936.968.401.222.82.29 1.258.29.439 0 .825-.069 1.226-.29.401-.222.746-.565.968-.968.222-.403.29-.791.29-1.226 0-.44-.065-.917-.29-1.323-.225-.406-.564-.749-.968-.968-.404-.219-.802-.29-1.226-.29m-11.584.065c-1.739-.004-2.355.097-3.646.645-2.329.989-3.839 2.776-4.324 5.066-.211.996-.211 1.38 0 2.485.385 2.02 1.597 3.515 3.646 4.485 1.109.525 1.728.714 4.324 1.355 2.19.541 3.081.817 3.743 1.646.877 1.098 1.097 2.658.452 4.13-.434.99-1.148 1.645-2.13 2.097-1.65.732-3.671.692-5.808-.161-1.288-.543-2.5-1.565-3.291-2.775-.352-.537-.423-.545-.968-.355-.434.151-.426.272-.064 1.194.946 2.824 4.118 5.41 8.422 5.098 1.327-.096 1.758-.067 2.614-.323 3.495-1.044 5.447-3.558 5.421-6.905-.022-2.754-.804-4.427-2.71-5.679-1.045-.686-2.235-1.09-5-1.742-3.02-.712-4.03-1.266-4.614-2.452-.393-.801-.387-2.217.032-3.033.561-1.091 1.658-1.838 3.194-2.162 2.82-.596 5.161.382 6.615 2.775.463.762.727.862 1.194.484.248-.201.252-.205.064-.936-.388-1.112-.826-2.163-1.775-3.033-1.342-1.348-2.902-1.897-5.389-1.904m-107.87.323c-.954.005-1.594.029-1.646.065v24.265l5.356-.065c5.975-.05 6.359-.078 8.26-.71 1.652-.549 3.464-1.696 4.55-2.904.712-.791 1.662-2.261 2.097-3.259 1.363-3.123 1.361-7.408 0-10.68-.956-2.299-2.73-4.224-4.808-5.259-1.381-.688-2.687-1.094-4.162-1.258-1.096-.122-6.785-.21-9.648-.194m119.45.065c.353 0 .662.043 1 .226.338.182.618.468.807.807.189.338.29.731.29 1.097 0 .365-.105.665-.29 1-.186.334-.471.619-.807.807-.335.187-.636.226-1 .226-.365 0-.762-.039-1.097-.226-.335-.187-.556-.471-.742-.807-.187-.334-.29-.636-.29-1 0-.366.1-.759.29-1.097.191-.338.47-.624.807-.807.337-.182.676-.226 1.033-.226m-89.57.194l-10.777 23.974h3.42l2.678-6.131h9.648l2.614 6.131h4.324l-10.261-23.974h-1.646m15.327.032v23.845h3.807v-23.845h-3.807m9.68 0v23.845h15.165v-2.485h-11.293v-21.361h-3.872m17.65 0v23.845h3.807v-23.845h-3.807m9.551.032v23.813h15.52v-2.549h-11.745v-8.615h9.39v-2.452h-9.39v-7.55h11.132v-2.646h-14.907m36.27.549v2.71h.419v-1.194h.226c.154 0 .274.033.355.097.117.085.263.307.452.645l.226.452h.581l-.355-.613c-.159-.253-.277-.376-.387-.484-.057-.056-.129-.122-.226-.161.235-.018.373-.078.516-.226.141-.148.226-.317.226-.516 0-.141-.043-.295-.129-.419-.085-.125-.147-.175-.29-.226-.143-.051-.423-.065-.742-.065h-.871m.419.355h.452c.215 0 .341-.031.419 0 .079.031.18.097.226.161.045.064.097.113.097.194 0 .125-.069.215-.161.29-.092.076-.262.161-.516.161h-.516v-.807m-114.61 1.323c1.58.003 2.777.15 4.356.29 2.838.548 4.704 2.01 5.969 4.679 1.152 2.427 1.27 6.02.29 8.647-.491 1.317-.992 2.044-2.065 3.13-1.417 1.433-2.721 2.041-5.066 2.291-.563.06-1.987.096-3.162.097-1.862.002-2.054-.033-2.226-.032-.087-.227.092-18.692.161-19.07.639-.043 1.216-.033 1.742-.032m25.942 4.066l3.582 8.809h-7.325l3.743-8.809"/></svg>