<?xml version="1.0"?><svg xmlns="http://www.w3.org/2000/svg" viewBox="0 0 72 26" width="72" height="26"><defs><linearGradient id="freshlook-0" gradientUnits="userSpaceOnUse" x1="9.796" x2="65.835"><stop style="stop-color:#00a651"/><stop offset=".5" style="stop-color:#00aeef"/><stop offset="1" style="stop-color:#4f4b6a"/></linearGradient></defs><path d="m37.818.5c11.451 0 21.617 2.716 28.02 6.921-7.157-2.706-17.07-4.392-28.02-4.392-10.951 0-20.872 1.676-28.02 4.392 6.402-4.206 16.568-6.921 28.02-6.921" style="fill:url(#freshlook-0);fill-rule:evenodd"/><path d="m39.621 8.597v10.11h4.669v-.763c-1.265.176-2.462.264-3.52.156v-9.501h-1.149m-38.626.049v1.051 3.342.861 4.951h1.345v-5.04c1.382-.059 2.772-.032 4.194.086v-.861c-1.402.108-2.792.135-4.194.077v-3.627c1.294-.088 2.92.051 4.586.208v-1.051h-4.586-1.345m24.825 1.577c-.833 0-1.608.305-2.197.824-.529.451-.629 1.031-.668 1.746-.02.304.324 1.577 1.471 1.881 1.539.402 2.031.98 2.031.98.265.284.383.394.383 1.051 0 .657-.326 1.646-1.826 1.636-.823 0-1.508-.479-1.743-1.146l-.218-.04-.313 1.127c.578.461 1.312.744 2.126.744 1.245 0 2.333-.677 2.892-1.657.48-.833.383-1.627-.107-2.304-.225-.314-.509-.696-1.872-1.078-.902-.255-1.783-.773-1.783-1.685 0-.794.723-1.443 1.605-1.443.696 0 1.285.395 1.51.944l.156.058.325-1.137c-.52-.314-1.127-.502-1.773-.502m31.527.129c-1.363 0-2.636.597-3.401 1.627-.549.716-.806 1.667-.806 2.647 0 2.363 1.883 4.274 4.206 4.274 2.323 0 4.206-1.911 4.206-4.274 0-1.069-.294-2.116-.931-2.862-.774-.902-2-1.412-3.275-1.412m10.1.04c-1.382 1.49-2.716 2.89-3.97 3.802v-3.784h-1.158-.009v8.306h1.158v-4.314c1.755 1.765 3.206 3.566 4.51 5.38h1.587l-4.675-5.588c.304-.5 2.186-2.341 3.627-3.802h-1.069m-49.15.018c-1.912 0-3.459 1.932-3.459 4.304 0 2.382 1.547 4.304 3.459 4.304 1.029 0 3.1-.921 3.1-1.235l.009-.726-.178-.049c-.529.716-1.331 1.167-2.233 1.167-.392 0-.766-.088-1.109-.245-.402-.118-.775-.423-1.069-.855-.588-.745-.676-1.54-.695-2.442l5.637-.049c-.059-2.314-1.589-4.176-3.462-4.176m11.933.001v8.412h1.225v-4.167c1.539-.108 3.086-.107 4.635-.001v4.176h1.225v-8.412h-1.225v3.502c-1.549.108-3.086.099-4.635-.001v-3.493h-1.225m18.04 0c-1.363 0-2.639.61-3.404 1.63-.549.716-.803 1.667-.803 2.647 0 2.363 1.883 4.274 4.206 4.274 2.323 0 4.206-1.911 4.206-4.274 0-1.069-.294-2.119-.931-2.865-.774-.902-2-1.412-3.275-1.412m21.617.08c-.186 0-.372.049-.548.147-.176.098-.325.234-.423.411-.098.176-.147.365-.147.561 0 .196.049.381.147.558.098.176.234.316.411.414.176.098.365.147.561.147.196 0 .381-.049.558-.147.176-.098.316-.237.414-.414.098-.176.147-.362.147-.558 0-.196-.049-.384-.147-.561-.098-.176-.246-.313-.423-.411-.176-.098-.362-.147-.548-.147m-61.882.049v8.284h1.176v-4.03h.374l4.108 5.116h1.538l-4.216-5.254c1.402-.001 2.54-.931 2.54-2.059 0-1.059-.521-1.962-2.286-2.05l-.273-.001h-.031-1.755-.205-.971m61.882.138c.157 0 .314.038.441.116.157.078.264.196.352.343.088.147.129.305.129.472 0 .157-.05.313-.129.46-.078.147-.196.265-.343.343-.147.088-.303.129-.46.129-.157 0-.316-.05-.463-.129-.147-.078-.265-.196-.343-.343-.088-.147-.126-.303-.126-.46 0-.167.037-.325.126-.472.088-.147.205-.265.352-.343.147-.078.306-.116.463-.116m-12.54.165c1.627 0 2.941 1.668 2.941 3.716 0 2.059-1.314 3.716-2.941 3.716-1.627 0-2.941-1.668-2.941-3.716 0-2.049 1.323-3.716 2.941-3.716m-9.08.08c1.627 0 2.941 1.668 2.941 3.716 0 2.059-1.314 3.713-2.941 3.713-1.627 0-2.941-1.664-2.941-3.713 0-2.049 1.314-3.716 2.941-3.716m-39.09.077h1.51c.961.245 1.639.873 1.639 1.608 0 .951-1.149 1.716-2.57 1.716-.078 0-.155.0001-.224-.001l.018.001h-.374v-3.324m60.22.021v1.195h.165v-.509h.12c.069 0 .117.001.156.04.059.039.117.135.205.282l.107.187h.236l-.147-.236c-.069-.108-.129-.184-.178-.233-.02-.029-.059-.051-.098-.07.108-.001.199-.039.257-.107.069-.059.098-.138.098-.227 0-.059-.022-.116-.061-.175-.029-.059-.088-.1-.147-.12-.059-.02-.166-.028-.303-.028h-.411m-51.13.028c1.069 0 1.96 1.255 2.126 2.892h-4.243c.167-1.637 1.048-2.892 2.117-2.892m51.32.138h.224c.098 0 .157.012.196.021.029.001.06.029.08.058.02.029.031.059.031.098 0 .059-.022.108-.061.138-.049.029-.125.049-.233.049h-.236v-.365m-54.958 10.539c-.294 0-.561.05-.806.138-.245.088-.46.216-.656.392-.216.176-.373.392-.49.637-.108.245-.169.501-.169.766 0 .255.051.5.169.735.118.235.274.43.49.607.176.147.392.265.637.343.235.078.501.116.775.116.294 0 .558-.047.794-.126.235-.088.46-.216.656-.383.216-.186.382-.401.499-.646.118-.245.178-.51.178-.775 0-.265-.058-.509-.165-.744-.108-.235-.275-.431-.481-.597-.196-.147-.414-.265-.659-.343-.245-.078-.498-.12-.772-.12m9.488 0c-.294 0-.558.05-.803.138-.245.088-.463.216-.659.392-.216.176-.373.392-.49.637-.108.245-.165.501-.165.766 0 .255.048.5.165.735.118.235.274.43.49.607.176.147.392.265.637.343.235.078.501.116.775.116.294 0 .558-.047.794-.126.235-.088.463-.216.659-.383.216-.186.382-.401.499-.646.118-.245.178-.51.178-.775 0-.265-.061-.509-.169-.744-.108-.235-.275-.431-.481-.597-.196-.147-.411-.265-.656-.343-.245-.078-.501-.12-.775-.12m-14.549.021c-.333 0-.647.068-.931.205-.294.137-.527.334-.723.579-.137.176-.238.352-.306.548-.069.186-.098.382-.098.588 0 .265.061.509.169.744.108.235.265.431.481.597.186.147.411.265.656.343.245.078.529.12.833.12.147 0 .352-.031.607-.08.255-.049.452-.08.57-.08h.067l.374-.821-.129-.021c-.176.274-.38.482-.616.619-.235.137-.512.205-.806.205-.48 0-.882-.178-1.185-.521-.304-.353-.46-.793-.46-1.342 0-.225.038-.441.116-.637.088-.196.196-.362.343-.509.137-.127.303-.228.499-.306.196-.078.395-.116.6-.116.304 0 .568.079.794.236.225.157.411.382.558.686l.147.001-.058-.843c-.02 0-.039.001-.058.001h-.058c-.029 0-.09.0001-.169-.018-.02 0-.048-.012-.058-.012-.294-.069-.529-.118-.695-.147-.176-.029-.325-.037-.463-.037m42.17 0c-.086.0001-.19.004-.313.001-.245.001-.596.029-1.066.049v.126h.058c.167 0 .284.029.352.098.069.069.107.178.107.325v2.482c0 .147-.039.253-.107.322-.069.069-.186.098-.352.098h-.058v.12h1.618c.402 0 .735-.042.989-.11.255-.069.489-.186.705-.343.235-.186.421-.392.548-.637.127-.235.187-.499.187-.794 0-.284-.059-.549-.187-.784-.118-.235-.301-.431-.527-.588-.196-.127-.422-.226-.686-.285-.265-.059-.619-.086-1.06-.086-.054 0-.123-.0001-.208 0m5.119.001c-.324 0-.588.067-.784.224-.196.157-.294.355-.294.61 0 .088.001.176.04.254.02.078.058.167.116.245.088.137.363.352.833.656l.04.021c.02.001.05.029.089.058.49.304.735.588.735.843 0 .176-.07.323-.227.45-.147.127-.341.187-.567.187-.235 0-.443-.068-.61-.205-.176-.127-.292-.324-.371-.579l-.12-.018.12.852c.029-.001.067-.02.077.001.039-.001.08-.001.12-.001.049 0 .155.021.322.07.167.049.305.067.423.067.392 0 .706-.087.922-.264.225-.167.334-.412.334-.726 0-.108-.021-.217-.07-.325-.039-.108-.108-.197-.187-.285-.127-.137-.362-.312-.695-.518-.039-.02-.057-.039-.077-.049l-.021-.001c-.52-.324-.784-.61-.784-.855 0-.157.059-.294.187-.392.127-.108.285-.156.481-.156.196 0 .373.06.53.178.157.118.282.293.371.509l.12-.001-.098-.735c-.039.001-.069.018-.098.027-.029.001-.059.012-.089.012-.039 0-.137-.021-.303-.07-.167-.049-.325-.067-.463-.067m-38.929.049v.126h.058c.167 0 .284.029.352.098.069.069.11.178.11.325v2.5c0 .147-.042.244-.11.313-.069.069-.186.098-.352.098h-.058v.129h2.616l.441-.833-.126-.001c-.098.118-.176.216-.245.294-.059.069-.12.126-.169.165-.069.059-.137.1-.196.12-.069.02-.166.027-.303.027h-.588c-.176 0-.295-.019-.334-.058-.039-.049-.058-.138-.058-.285v-2.46c0-.147.041-.256.12-.325.078-.069.203-.098.38-.098h.098.061v-.126h-1.697m14.06 0v.116c0 .001-.0001.001.009.001h.018c0 0 .012-.001.021-.001.001-.001.018-.001.018-.001.157 0 .274.039.352.107.078.069.12.187.12.334v2.482c0 .147-.039.244-.107.313-.069.069-.189.098-.355.098h-.058v.129.001h1.492c.304 0 .547-.001.723-.04.176-.029.324-.069.441-.138.176-.088.306-.214.404-.362.088-.147.135-.314.135-.49 0-.245-.076-.441-.233-.597-.157-.157-.402-.294-.735-.392.265-.059.451-.157.588-.285.127-.127.196-.285.196-.472 0-.265-.12-.46-.365-.597-.235-.137-.586-.205-1.057-.205h-1.608m4.479 0v.126h.058c.167 0 .287.029.355.098.069.069.107.178.107.325v2.5c0 .147-.039.244-.107.313-.069.069-.189.098-.355.098h-.058v.129h2.619l.441-.833-.129-.001c-.098.118-.176.216-.245.294-.059.069-.116.126-.165.165-.069.059-.137.1-.196.12-.069.02-.169.027-.306.027h-.588c-.176 0-.292-.019-.331-.058-.039-.049-.061-.138-.061-.285v-2.46c0-.147.041-.256.12-.325.078-.069.206-.098.383-.098h.098.058v-.126h-1.697m8.226 0v.107c.216.029.352.068.401.107.049.049.08.127.08.254v2.561c0 .147-.039.244-.107.313-.069.069-.189.098-.355.098h-.058v.129h1.354v-.129h-.058c-.167 0-.287-.029-.355-.098-.069-.059-.107-.165-.107-.313h.009v-2.491l3.01 3.079h.165v-3.07c0-.147.029-.244.107-.313.069-.069.189-.098.355-.098h.058v-.129h-1.363v.129h.058c.157 0 .274.029.352.098.069.059.11.165.11.313v2.273l-2.757-2.822h-.901m15.53 0c-.196 0-.382.049-.539.147-.186.098-.324.233-.432.42-.108.186-.156.383-.156.579 0 .196.058.384.156.57.098.176.237.322.423.42.176.098.371.147.567.147.196 0 .384-.049.57-.147.176-.098.322-.233.42-.42.098-.176.147-.374.147-.57 0-.206-.058-.393-.156-.579-.108-.176-.246-.322-.432-.42-.186-.098-.371-.147-.567-.147m-32.802.001v.129h.058c.157 0 .274.029.352.098.069.059.107.165.107.313v2.482c0 .147-.039.244-.107.313-.069.069-.186.098-.352.098h-.058v.129.018h1.556v-.129h-.077c-.147 0-.265-.029-.334-.098-.069-.069-.107-.165-.107-.313v-.941h.098.098c.069 0 .156-.001.254-.001.098-.001.167-.012.196-.012.049 0 .078.003.107.012.02.001.048.017.058.037.039.049.138.196.285.441.157.245.303.452.45.628.127.147.266.256.423.325.157.069.322.107.509.107h.08l.009-.107c-.127-.001-.264-.097-.411-.254-.147-.157-.344-.422-.579-.784l-.352-.551c.255-.078.452-.195.579-.352.127-.147.196-.333.196-.548 0-.343-.147-.608-.441-.775-.294-.167-.737-.254-1.345-.254h-1.253m13.06 0v.129h.058c.167 0 .284.029.352.098.069.059.11.165.11.313v2.46c0 .157-.04.275-.129.334-.088.069-.246.098-.472.098h-.107v.129.001h3.088l.089-.855h-.116c-.059.255-.137.423-.245.512-.108.088-.287.138-.551.138h-.49c-.225 0-.382-.03-.45-.089-.069-.069-.107-.187-.107-.383v-1.06h.766c.265 0 .431.03.49.089.059.059.097.187.116.374h.116v-1.1h-.107c-.029.157-.069.275-.138.334-.069.059-.223.089-.478.089h-.766v-1.412h.843c.314 0 .521.041.61.12.098.078.154.233.184.478h.138l-.04-.803h-2.764m-25.93.067c.235 0 .452.061.668.169.206.108.392.264.548.46.127.157.226.343.285.539.069.196.098.411.098.646 0 .471-.148.855-.423 1.149-.275.294-.638.441-1.069.441-.235 0-.461-.051-.677-.169-.216-.108-.401-.264-.548-.46-.118-.157-.204-.342-.273-.558-.069-.216-.098-.442-.098-.677 0-.451.135-.815.42-1.109.284-.284.638-.432 1.069-.432m9.491 0c.235 0 .449.061.665.169.206.108.392.264.548.46.127.157.226.343.285.539.069.196.098.411.098.646 0 .471-.145.855-.42 1.149-.274.294-.638.441-1.069.441-.235 0-.461-.051-.677-.169-.216-.108-.401-.264-.548-.46-.118-.157-.207-.342-.276-.558-.069-.216-.098-.442-.098-.677 0-.451.138-.815.423-1.109.284-.284.638-.432 1.069-.432m27.361.021h.432c.647 0 1.137.135 1.479.42.343.274.509.687.509 1.216 0 .529-.146.941-.46 1.235-.314.294-.746.441-1.305.441-.265 0-.442-.027-.53-.086-.088-.059-.126-.169-.126-.316v-2.91m-18.354.04h.374.067.11c.324 0 .548.058.695.165.147.108.215.294.215.539 0 .206-.059.364-.187.472-.118.108-.303.165-.548.165h-.726v-1.342m-4.608.037h.061.086.129.107c.333 0 .589.079.766.236.176.157.264.392.264.686 0 .274-.078.49-.254.646-.167.157-.413.236-.717.236h-.42-.021v-1.804m31.785.012c.157 0 .312.047.469.126.157.078.276.195.365.352.088.157.126.314.126.481 0 .167-.037.334-.126.481-.078.147-.195.264-.352.352-.157.088-.314.129-.481.129-.167 0-.324-.04-.481-.129-.147-.078-.264-.205-.352-.352-.088-.157-.129-.314-.129-.481 0-.167.04-.324.129-.481.088-.147.215-.264.362-.352.147-.088.305-.126.472-.126m-.512.362v1.235.021h.208v-.53h.116c.069 0 .117.001.156.04.049.039.117.125.205.282l.11.196h.245l-.147-.245c-.078-.118-.138-.196-.187-.245-.029-.029-.068-.048-.107-.067.108-.001.186-.048.254-.116.069-.069.098-.148.098-.236 0-.069-.019-.128-.058-.187-.039-.059-.091-.097-.159-.116-.059-.02-.165-.031-.313-.031h-.423m.208.165h.224c.088 0 .157.012.196.021.039.02.069.038.089.067.02.029.031.059.031.098 0 .059-.022.099-.061.138-.039.029-.115.049-.233.049h-.245v-.374m-26.874.922h.294.11.098c.186 0 .333.001.45.04.118.02.215.058.303.116.118.078.207.179.276.306.069.118.098.254.098.401 0 .265-.099.48-.285.646-.196.167-.441.254-.744.254-.225 0-.384-.05-.472-.138-.088-.088-.129-.263-.129-.518v-1.1-.001"/></svg>