<?xml version="1.0"?><svg xmlns="http://www.w3.org/2000/svg" viewBox="0 0 92 26" width="92" height="26"><path d="m55.34.5c-1.327.531-3.087.844-4.281.844l-.344 1.344h.844c.796 0 .855.656.656 1.25l-3.375 12.156c-.332.995-.5 1.715-.5 2.313 0 1.327.591 2.125 1.719 2.125 1.459 0 2.95-1.608 3.813-3.531l-.844-.406c-.398.929-1.066 1.719-1.531 1.719-.332 0-.387-.302-.188-1.031l4.656-16.781h-.625m34.28 3.719c-.648.137-1.094.737-1.094 1.375 0 .73.645 1.406 1.375 1.406.796 0 1.406-.61 1.406-1.406 0-.796-.61-1.375-1.406-1.375-.1 0-.189-.02-.281 0m.281.188c.663 0 1.188.524 1.188 1.188 0 .663-.524 1.188-1.188 1.188-.663 0-1.188-.524-1.188-1.188 0-.663.524-1.188 1.188-1.188m-82.12.25l-1 4.125c-1.526.995-2.583 1.932-3.313 3.656h1.094c.464-.73 1.119-1.352 1.781-1.75l-2.938 11.563c-.332 1.327-.787 1.871-2.313 1.938l-.406 1.313h6.969l.281-1.375h-.406c-1.128 0-1.582-.49-1.25-1.75l.5-1.844c7.297 0 8.84-5.799 8.906-8.188.133-3.051-1.472-4.969-4.125-4.969-.265 0-.578.027-.844.094-.265.066-.551.121-.75.188l.813-2.938-3-.063m81.59.156v1.5h.219v-.719h.313l.469.719h.281l-.469-.719c.265 0 .469-.075.469-.406 0-.133-.086-.246-.219-.313-.133-.066-.274-.063-.406-.063h-.656m.219.125h.438c.199 0 .406-.015.406.25 0 .332-.332.281-.531.281h-.313v-.531m-56.656 2.438c-4.046 0-6.367 4.179-6.5 7.563-.066 2.786 1.515 5.594 4.5 5.594 3.648 0 6.305-3.512 6.438-7.625.133-3.25-1.651-5.531-4.438-5.531m29.719 0c-3.715 0-7.488 4.403-7.688 8.781-.133 2.454.999 4.375 3.719 4.375 2.189 0 3.763-1.146 5.156-2.938l-.781-1c-.663 1.061-2.067 1.719-3.063 1.719-1.194 0-2.01-1.162-1.938-2.688 4.113-.133 6.899-2.327 7.03-5.313.066-1.725-.912-2.938-2.438-2.938m9.406 0c-4.312 0-6.617 5.906-6.75 9.156-.133 2.322.853 4 2.313 4 1.26 0 2.587-1.017 3.781-2.875 0 1.725.532 2.875 1.594 2.875.796 0 1.527-.395 2.125-1.125.464-.531.856-1.145 1.188-1.875l-.656-.875c-.531.929-.953 1.469-1.219 1.469-.265 0-.323-.649-.125-1.313l2.531-9.03h-1.531l-.531 1.188c-.663-.995-1.591-1.594-2.719-1.594m-52 .094c-1.319.176-2.724 1.668-3.719 3.969l.875.531c.531-1.26 1.129-2.063 1.594-2.063.464 0 .398.919 0 2.313l-2.188 8.094h2.969c.398-2.322 3.989-10.406 4.719-10.406.464 0 .254.536.188 1-.066.862.219 1.313.75 1.313.862 0 1.461-.994 1.594-2.719.066-1.26-.353-1.969-1.281-1.969-1.725 0-2.653 1.981-4.844 7.219l-.063-.063.719-2.906c.199-.73.277-1.411.344-1.875.133-1.526-.345-2.438-1.406-2.438-.087 0-.162-.012-.25 0m25.281 0c-4.312 0-6.992 4.207-7.125 8.188-.133 2.985 1.335 4.875 3.656 4.875 1.857 0 3.443-.861 4.969-2.719l-.781-.938c-.597.73-1.579 1.313-2.375 1.313-1.459 0-2.379-1.38-2.313-3.438.066-2.919 1.838-5.781 3.563-5.781.663 0 .746.349.813 1.344.066.796.321 1.531 1.25 1.531.73 0 1.277-.724 1.344-1.719.066-1.194-.745-2.656-3-2.656m35.813 0c-1.319.176-2.724 1.668-3.719 3.969l.938.531c.531-1.26 1.129-2.063 1.594-2.063.464 0 .398.919 0 2.313l-2.219 8.094h2.938c.398-2.322 3.989-10.406 4.719-10.406.464 0 .253.536.188 1-.066.862.188 1.313.719 1.313.862 0 1.492-.994 1.625-2.719.066-1.26-.353-1.969-1.281-1.969-1.725 0-2.623 1.981-4.813 7.219l-.094-.063.75-2.906c.133-.73.246-1.411.313-1.875.133-1.526-.345-2.438-1.406-2.438-.087 0-.162-.012-.25 0m-48.22 1.25c1.061 0 1.664 1.119 1.531 2.844-.066 1.658-.948 7.625-3.469 7.625-.995 0-1.723-1.244-1.656-2.969.133-2.388 1.471-7.5 3.594-7.5m28.906.188c.597 0 1.152.668 1.219 1.531-.133 2.056-1.929 3.512-4.781 3.844.265-2.454 1.705-5.375 3.563-5.375m10.09 0c.663 0 1.129.657 1.063 1.719-.133 2.786-1.932 7.188-3.656 7.188-.597 0-1.066-.958-1-2.219.066-2.123 1.537-6.688 3.594-6.688m-61.688.344c2.189 0 2.379 2.661 2.313 3.656-.066 1.99-1.059 6.406-5.438 6.406l2.469-10c.133 0 .457-.063.656-.063" style="fill:#1e4384"/><path d="m11.502 6.661c15.191-3.914 18.242-3.847 33.23-.199-12.139-9.09-27.2-4.643-33.23.199" style="fill:#569bbe"/></svg>