<?xml version="1.0"?><svg xmlns="http://www.w3.org/2000/svg" viewBox="0 0 140 26" width="140" height="26"><path d="m75.79.503c-.711.055-1.37.28-1.863.718-.492.437-.769.984-.769 1.64 0 .656.277 1.203.769 1.64.492.437 1.097.649 1.863.649.711 0 1.37-.212 1.863-.649.492-.437.769-.984.769-1.64 0-.656-.277-1.203-.769-1.64-.492-.437-1.097-.718-1.863-.718m19.583 0c-.711.055-1.37.28-1.863.718-.492.437-.769.984-.769 1.64 0 .656.277 1.203.769 1.64.492.437 1.097.649 1.863.649.711 0 1.353-.212 1.846-.649.492-.437.769-.984.769-1.64 0-.656-.277-1.203-.769-1.64-.492-.437-1.08-.718-1.846-.718m-88.04 2.256c-1.422 0-2.679.106-3.828.325-1.148.219-2.139.54-2.905.923v21.1h5.092v-8.305l.701.051c2.242.164 4.05-.048 5.417-.649 1.422-.602 2.403-1.483 3.059-2.632.656-1.148.991-2.406.991-3.828 0-1.312-.27-2.515-.871-3.554-.547-1.039-1.476-1.91-2.734-2.512-1.258-.602-2.898-.923-4.921-.923m47.573.273l6.664 22.08h4.545l6.613-22.08h-4.921l-3.178 12.85c-.164.656-.267 1.247-.376 1.794-.109.547-.171.817-.171.871h-.051c0 0-.062-.325-.171-.871-.109-.602-.212-1.138-.376-1.794l-3.059-12.85h-5.519m-47.642 2.666c1.312 0 2.256.335 2.802.991.547.656.82 1.692.82 3.059.055 1.422-.332 2.519-1.042 3.23-.656.711-1.811.977-3.452.923l-.701-.051v-7.878c.328-.164.861-.273 1.572-.273m32.98 1.811c-1.586 0-3 .167-4.204.496-1.203.273-2.256.656-3.076 1.094v16.01h4.99v-14.1c.437-.164 1.029-.273 1.794-.273.711 0 1.429.103 2.085.376l.871-3.435c-.219-.055-.608-.065-.991-.12-.492-.055-.977-.051-1.47-.051m8.971 0c-2.461 0-4.375.824-5.742 2.409-1.312 1.586-2.033 3.776-2.033 6.511 0 2.789.766 4.976 2.187 6.562 1.476 1.64 3.506 2.406 6.186 2.461 1.476 0 2.782-.219 3.93-.547 1.148-.383 2.078-.711 2.734-1.094l-1.145-3.127c-.492.273-1.193.547-2.068.82-.875.328-1.866.496-2.905.496-1.258 0-2.249-.321-2.905-.923-.656-.602-1.083-1.596-1.247-2.854l10.39-1.692c.109-2.898-.448-5.133-1.76-6.664-1.258-1.531-3.107-2.358-5.622-2.358m36.91 0c-1.805 0-3.226.554-4.375 1.538-1.148.984-1.705 2.228-1.76 3.759 0 .875.284 1.76.94 2.58.656.82 1.75 1.579 3.281 2.29.766.328 1.364.66 1.692 1.042.328.328.496.772.496 1.265 0 .547-.215 1.039-.598 1.367-.383.383-.882.547-1.538.547-.656 0-1.258-.123-1.914-.342-.656-.219-1.141-.427-1.47-.701l-1.265 3.01c.547.383 1.306.714 2.29 1.042.93.328 1.982.478 3.076.478 2.078-.055 3.653-.533 4.802-1.572 1.148-1.039 1.76-2.365 1.76-3.896 0-.984-.277-1.849-.769-2.614-.602-.766-1.695-1.541-3.281-2.307-.656-.328-1.203-.643-1.64-1.025-.437-.383-.666-.889-.666-1.435 0-.492.164-.919.547-1.247.383-.383.882-.547 1.538-.547.602 0 1.097.109 1.589.273.437.164.82.379 1.094.598l1.247-2.837c-.656-.383-1.418-.721-2.239-.94-.82-.219-1.743-.325-2.837-.325m20.608.051c-1.64 0-3 .379-4.152 1.145-1.148.766-1.962 1.811-2.563 3.178-.601 1.312-.889 2.847-.889 4.597 0 1.75.287 3.281.889 4.648.602 1.312 1.415 2.396 2.563 3.161 1.148.82 2.563 1.213 4.204 1.213 1.695-.055 3.072-.448 4.221-1.213 1.148-.766 1.962-1.794 2.563-3.161.602-1.367.871-2.898.871-4.648 0-1.75-.267-3.284-.923-4.597-.547-1.367-1.415-2.413-2.563-3.178-1.094-.766-2.526-1.145-4.221-1.145m16.13 0c-3.117 0-5.513.444-7.262 1.265v16.353h5.02v-14.166c.328-.109.595-.219.923-.273.328-.055.721-.12 1.213-.12.984.055 1.634.277 2.02.769.383.437.547.984.547 1.64v12.08h4.973v-12.03c.055-1.64-.492-2.946-1.64-3.93-1.148-1.039-3.059-1.535-5.793-1.589m-96.84.273v13.841c-.492.328-1.21.427-2.085.427-.82 0-1.411-.212-1.794-.649-.383-.437-.547-.933-.547-1.589v-11.979h-5.04v11.603c0 2.023.608 3.544 1.811 4.528 1.203.93 3.01 1.435 5.468 1.435 1.586 0 3-.174 4.204-.393 1.203-.273 2.187-.591 3.01-.974v-16.251h-5.02m47.25 0v17.276h4.973v-17.276h-4.973m19.515 0v17.276h5.04v-17.276h-5.04m-43.694 2.632c1.859-.055 2.799 1.36 2.854 4.204l-6.02 1.094c-.055-1.805.222-3.107.769-3.982.547-.875 1.353-1.316 2.392-1.316m57.69.154c.766 0 1.326.273 1.709.82.383.492.588 1.21.752 2.085.164.82.222 1.798.222 2.837 0 1.64-.164 2.96-.547 3.999-.383 1.039-1.094 1.586-2.187 1.64-1.039 0-1.753-.602-2.136-1.64-.328-1.039-.478-2.413-.478-3.999 0-1.039.041-1.962.205-2.837.109-.875.386-1.538.769-2.085.383-.547.981-.82 1.692-.82m29.426 8.544c-1.75 0-3.178 1.411-3.178 3.161 0 1.75 1.429 3.178 3.178 3.178 1.75 0 3.178-1.429 3.178-3.178 0-1.75-1.429-3.161-3.178-3.161m0 .427c1.476 0 2.683 1.258 2.683 2.734 0 1.476-1.206 2.683-2.683 2.683-1.476 0-2.683-1.206-2.683-2.683 0-1.531 1.206-2.734 2.683-2.734m-.103.82c-.383 0-.721.062-.94.171v3.554h.496v-1.64h.103l1.162 1.64v.051h.598l-1.213-1.692c.601-.055 1.042-.441 1.042-1.042 0-.602-.482-1.042-1.247-1.042m-.256.393c.068-.007.133 0 .188 0 .383 0 .824.103.769.649 0 .547-.379.718-.871.718h-.273v-1.316c.055-.027.12-.044.188-.051"/></svg>