<?xml version="1.0"?><svg xmlns="http://www.w3.org/2000/svg" viewBox="0 0 98 26" width="98" height="26"><path d="m37.443.513c-3.754.175-6.01 2.404-6.01 6.146v1.247h-1.826v3.207h1.826v14.03h5.03v-14.03-.178h2.672v-3.162h-2.672v-1.559c0-1.955.961-2.572 2.672-2.45v-3.207c-.596-.061-1.156-.07-1.693-.045m-29.842 2.138c-4.277 0-7.082 3.059-7.082 6.726 0 2.2.987 4.513 4.409 6.102 2.2.978 3.296 1.829 3.296 3.296 0 1.589-1.24 2.717-3.073 2.717-1.589 0-3.142-.714-3.875-1.203l-1.247 3.741c1.222.733 3.814 1.336 6.503 1.336 4.4 0 7.293-2.927 7.171-7.082 0-2.2-.845-4.503-5.122-6.458-1.833-.733-2.94-1.574-2.94-3.162 0-1.467 1.14-2.45 2.851-2.45 1.344 0 2.797.592 3.652 1.203l1.203-3.207c-.978-.733-3.424-1.559-5.746-1.559m32.29.49v22h10.734v-3.519h-5.478v-18.484h-5.256m-17.86 4.409c-5.01 0-7.572 3.775-7.572 8.908 0 5.133 2.561 8.908 7.572 8.908 4.889 0 7.583-3.775 7.705-8.908 0-5.133-2.695-8.908-7.705-8.908m36.434 0c-5.01 0-7.839 3.531-7.839 8.908 0 5.377 3.03 8.908 8.284 8.908 2.811 0 5.292-.87 6.636-1.603l-1.113-3.03c-.978.489-3.03 1.381-4.988 1.381-2.566 0-3.82-1.264-4.187-3.83l10.556-1.693c.122-5.866-2.338-9.04-7.349-9.04m15.411 0c-3.055 0-5.504.469-7.215 1.203v16.257h4.988v-14.07c.489-.244 1.116-.312 2.093-.312 2.078 0 2.583 1.183 2.583 2.405v12.11h4.988v-12.11c0-3.178-1.939-5.478-7.438-5.478m14.787.223c-3.544 0-6.146 2.323-6.146 5.256 0 1.833 1.01 3.433 4.187 4.899 1.589.733 2.182 1.383 2.182 2.361 0 .978-.96 1.826-2.182 1.826-1.222 0-2.818-.625-3.43-1.113l-1.247 2.94c1.1.611 3.312 1.425 5.389 1.425 4.03 0 6.492-2.389 6.859-5.078 0-2.078-.887-3.611-4.187-5.078-1.344-.611-2.272-1.35-2.272-2.45 0-.978.704-1.826 2.049-1.826 1.1 0 2.184.524 2.672.891l1.203-2.806c-1.344-.855-2.878-1.247-5.078-1.247m-30.554 2.717c1.833 0 2.806 1.331 2.806 4.142l-6.01 1.069c-.122-3.544 1.129-5.211 3.207-5.211m-36.08.134c2.2 0 2.55 2.646 2.672 5.701 0 3.055-.473 5.612-2.672 5.612-2.2 0-2.672-2.557-2.672-5.612 0-3.055.473-5.701 2.672-5.701m74.43 11.803c-.259 0-.511.045-.757.178-.246.133-.441.332-.579.579-.138.247-.223.534-.223.802 0 .265.087.512.223.757.136.245.335.444.579.579.244.135.49.178.757.178.267 0 .513-.043.757-.178.244-.135.444-.334.579-.579.135-.245.178-.492.178-.757 0-.268-.041-.555-.178-.802-.137-.247-.333-.446-.579-.579-.246-.133-.499-.178-.757-.178m0 .267c.215 0 .418.023.624.134.206.111.375.284.49.49.115.206.178.445.178.668 0 .222-.065.42-.178.624-.113.203-.286.376-.49.49-.204.114-.402.134-.624.134-.222 0-.464-.02-.668-.134-.204-.114-.332-.286-.445-.49-.114-.203-.178-.402-.178-.624 0-.223.062-.462.178-.668.116-.206.285-.379.49-.49.205-.111.407-.134.624-.134m-.668.49v1.648h.267v-.713h.134c.094 0 .174.006.223.045.071.052.152.195.267.401l.134.267h.356l-.223-.356c-.097-.154-.156-.246-.223-.312-.035-.034-.075-.065-.134-.089.143-.011.225-.044.312-.134.086-.09.134-.191.134-.312 0-.086-.037-.191-.089-.267-.052-.076-.091-.103-.178-.134-.087-.031-.251-.045-.445-.045h-.534m.267.223h.267c.131 0 .219-.019.267 0 .048.019.106.05.134.089.027.039.045.085.045.134 0 .076-.033.132-.089.178-.056.046-.157.089-.312.089h-.312v-.49"/></svg>