<?xml version="1.0" encoding="UTF-8"?>
<!DOCTYPE svg PUBLIC "-//W3C//DTD SVG 1.1//EN" "http://www.w3.org/Graphics/SVG/1.1/DTD/svg11.dtd">
<svg version="1.1" xmlns="http://www.w3.org/2000/svg" xmlns:xlink="http://www.w3.org/1999/xlink" x="0" y="0" width="1600" height="900" viewBox="0, 0, 1600, 900">
  <g id="Background">
    <rect x="0" y="0" width="1600" height="900" fill="#F7DF1E"/>
  </g>
  <g id="Layer_2">
    <path d="M0,0 L1600,0 L1600,900 L0,900 L0,0 z" fill="#2F2B00" opacity="0.882"/>
  </g>
  <g id="Layer_1">
    <path d="M526,176 L1074,176 L1074,724 L526,724 z" fill="#F7DF1E" id="background"/>
    <path d="M670.089,633.949 L712.026,608.569 C720.117,622.914 727.477,635.05 745.13,635.05 C762.052,635.05 772.721,628.431 772.721,602.683 L772.721,427.584 L824.219,427.584 L824.219,603.412 C824.219,656.75 792.953,681.029 747.338,681.029 C706.141,681.029 682.228,659.693 670.089,633.944" fill="#2F2B00" id="j"/>
    <path d="M852.191,628.431 L894.122,604.152 C905.161,622.179 919.506,635.421 944.887,635.421 C966.226,635.421 979.832,624.752 979.832,610.038 C979.832,592.381 965.855,586.127 942.312,575.83 L929.44,570.309 C892.285,554.494 867.638,534.63 867.638,492.695 C867.638,454.071 897.066,424.641 943.049,424.641 C975.787,424.641 999.33,436.046 1016.249,465.842 L976.153,491.59 C967.324,475.775 957.762,469.521 943.049,469.521 C927.967,469.521 918.402,479.085 918.402,491.59 C918.402,507.041 927.967,513.295 950.036,522.86 L962.909,528.377 C1006.684,547.138 1031.331,566.265 1031.331,609.302 C1031.331,655.653 994.914,681.033 945.991,681.033 C898.17,681.033 867.27,658.228 852.191,628.431" fill="#2F2B00" id="s"/>
  </g>
</svg>
