<?xml version="1.0" encoding="UTF-8"?>
<!DOCTYPE svg PUBLIC "-//W3C//DTD SVG 1.1//EN" "http://www.w3.org/Graphics/SVG/1.1/DTD/svg11.dtd">
<svg version="1.1" xmlns="http://www.w3.org/2000/svg" xmlns:xlink="http://www.w3.org/1999/xlink" x="0" y="0" width="1600" height="900" viewBox="0, 0, 1600, 900">
  <g id="Background">
    <rect x="0" y="0" width="1600" height="900" fill="#48440E"/>
  </g>
  <g id="Layer_5">
    <path d="M-0,0 L1600,0 L1600,900 L-0,900 L-0,0 z" fill="#000000" opacity="0.475"/>
  </g>
  <g id="ikony_2">
    <g id="html5">
      <g>
        <path d="M601.357,114.749 L632.326,114.749 L632.326,144.684 L660.658,144.684 L660.658,114.749 L691.633,114.749 L691.633,205.397 L660.658,205.397 L660.658,175.043 L632.326,175.043 L632.326,205.395 L601.357,205.395 L601.357,114.749 z" fill="#8CBA4D"/>
        <path d="M732.359,144.808 L705.09,144.808 L705.09,114.749 L790.606,114.749 L790.606,144.81 L763.329,144.81 L763.329,205.397 L732.358,205.397 L732.358,144.808 z" fill="#8CBA4D"/>
        <path d="M804.185,114.749 L836.479,114.749 L856.343,146.6 L876.188,114.749 L908.495,114.749 L908.495,205.397 L877.652,205.397 L877.652,160.468 L856.343,192.697 L855.811,192.697 L834.487,160.468 L834.487,205.395 L804.185,205.395 L804.185,114.749 z" fill="#8CBA4D"/>
        <path d="M923.911,114.749 L954.894,114.749 L954.894,175.436 L998.45,175.436 L998.45,205.395 L923.911,205.395 L923.911,114.749 z" fill="#8CBA4D"/>
      </g>
      <path d="M719.535,465.186 L799.999,465.186 L799.999,404.135 L713.964,404.135 L719.535,465.186 z M556.717,245.144 L601.021,731.247 L799.879,785.251 L998.925,731.272 L1043.283,245.144 L556.717,245.144 z M960.953,700.321 L799.999,743.972 L799.999,682.104 L799.901,682.133 L675.06,648.229 L666.33,552.502 L727.509,552.502 L732.039,602.165 L799.914,620.098 L800,620.07 L800,524.806 L663.801,524.806 L647.362,344.514 L799.999,344.514 L799.999,284.894 L998.862,284.894 L960.953,700.321 z" fill="#8CBA4D"/>
      <path d="M875.016,524.806 L799.999,524.806 L799.999,620.072 L867.943,602.131 L875.016,524.806 z M799.999,284.894 L799.999,344.514 L952.637,344.514 L947.178,404.135 L799.999,404.135 L799.999,465.186 L941.631,465.186 L924.911,648.229 L799.999,682.104 L799.999,743.972 L960.953,700.321 L998.861,284.892 L799.999,284.892 z" fill="#8CBA4D" opacity="0.58"/>
      <g opacity="0.2">
        <path d="M799.998,344.513 L647.36,344.513 L663.8,524.805 L799.998,524.805 L799.998,465.185 L719.535,465.185 L713.964,404.134 L799.998,404.134 z" fill="#8CBA4D"/>
        <path d="M799.999,620.07 L799.913,620.097 L732.039,602.164 L727.509,552.501 L666.328,552.501 L675.058,648.227 L799.901,682.131 L799.999,682.104 z" fill="#8CBA4D"/>
      </g>
    </g>
  </g>
</svg>
