<?xml version="1.0" encoding="UTF-8"?>
<!DOCTYPE svg PUBLIC "-//W3C//DTD SVG 1.1//EN" "http://www.w3.org/Graphics/SVG/1.1/DTD/svg11.dtd">
<svg version="1.1" xmlns="http://www.w3.org/2000/svg" xmlns:xlink="http://www.w3.org/1999/xlink" x="0" y="0" width="1600" height="900" viewBox="0, 0, 1600, 900">
  <g id="Background">
    <rect x="0" y="0" width="1600" height="900" fill="#5FA316"/>
  </g>
  <g id="">
    <path d="M-0,0 L1600,0 L1600,900 L-0,900 L-0,0 z" fill="#000000" opacity="0.691"/>
  </g>
  <g id="ikony">
    <path d="M834.624,510.26 C838.59,515.199 838.271,522.434 833.685,526.999 C829.095,531.556 821.868,531.841 816.955,527.859 C811.832,530.365 806.076,531.774 799.994,531.774 C778.673,531.774 761.381,514.486 761.381,493.161 C761.381,487.045 762.806,481.26 765.334,476.125 L701.607,412.117 C696.719,407.208 696.744,399.268 701.657,394.384 C706.566,389.501 714.505,389.522 719.389,394.43 L783.112,458.43 C788.214,455.944 793.945,454.553 799.994,454.553 C821.323,454.553 838.607,471.841 838.607,493.161 C838.607,499.307 837.177,505.108 834.624,510.26 L834.624,510.26 z M918.574,374.594 C888.236,344.256 846.307,325.484 800.006,325.484 C753.697,325.484 711.776,344.256 681.435,374.594 C651.093,404.931 632.325,446.86 632.325,493.165 C632.325,539.471 651.093,581.391 681.435,611.733 C711.776,642.075 753.697,660.851 800.006,660.851 C846.307,660.851 888.236,642.075 918.574,611.733 C948.911,581.395 967.688,539.471 967.688,493.165 C967.688,446.86 948.911,404.931 918.574,374.594 L918.574,374.594 z M850.311,230.778 L820.966,230.778 L820.966,250.929 C861,254.345 898.263,267.458 930.395,287.919 L959.207,255.184 C963.785,249.985 971.766,249.487 976.956,254.052 L1014.718,287.286 C1019.908,291.855 1020.415,299.85 1015.85,305.035 L987.021,337.788 C1022.062,379.922 1043.14,434.079 1043.14,493.161 C1043.14,560.305 1015.925,621.094 971.926,665.085 C927.935,709.08 867.142,736.295 800.002,736.295 C732.854,736.295 672.07,709.08 628.07,665.085 C584.075,621.094 556.86,560.305 556.86,493.161 C556.86,434.074 577.937,379.918 612.979,337.788 L584.137,305.018 C579.568,299.829 580.075,291.843 585.269,287.274 L623.027,254.039 C628.217,249.47 636.203,249.973 640.772,255.167 L669.596,287.915 C701.737,267.454 739.004,254.337 779.038,250.924 L779.038,230.773 L749.693,230.773 C742.777,230.773 737.117,225.131 737.117,218.201 L737.117,176.281 C737.117,169.36 742.777,163.705 749.693,163.705 L850.306,163.705 C857.228,163.705 862.883,169.368 862.883,176.281 L862.883,218.206 C862.887,225.114 857.236,230.778 850.311,230.778 L850.311,230.778 z" fill="#F4F1C7"/>
  </g>
</svg>
