<?xml version="1.0" encoding="UTF-8"?>
<!DOCTYPE svg PUBLIC "-//W3C//DTD SVG 1.1//EN" "http://www.w3.org/Graphics/SVG/1.1/DTD/svg11.dtd">
<svg version="1.1" xmlns="http://www.w3.org/2000/svg" xmlns:xlink="http://www.w3.org/1999/xlink" x="0" y="0" width="150" height="150" viewBox="0, 0, 150, 150">
  <g id="Background">
    <rect x="0" y="0" width="150" height="150" fill="transparent"/>
  </g>
  <defs>
    <clipPath id="Clip_1">
      <path d="M26.609,45.935 L123.391,45.935 L123.391,104.065 L26.609,104.065 z"/>
    </clipPath>
  </defs>
  <g id="Background" display="none">
    <path d="M0,0 L150,0 L150,150 L0,150 z" fill="#FFFFFF"/>
  </g>
  <g id="Layer_3" display="none">
    <g clip-path="url(#Clip_1)">
      <path d="M94.274,104.073 L95.774,104.035 L97.254,103.921 L98.706,103.739 L100.139,103.481 L101.553,103.157 L102.938,102.765 L104.285,102.306 L105.613,101.781 L106.903,101.198 L108.154,100.558 L109.377,99.861 L110.552,99.097 L111.698,98.284 L112.797,97.425 L113.857,96.508 L114.87,95.543 L115.825,94.53 L116.742,93.47 L117.612,92.371 L118.424,91.234 L119.178,90.05 L119.876,88.827 L120.525,87.576 L121.108,86.286 L121.624,84.958 L122.082,83.611 L122.474,82.226 L122.799,80.822 L123.057,79.379 L123.238,77.927 L123.353,76.447 L123.391,74.947 L123.353,73.456 L123.238,71.985 L123.057,70.543 L122.799,69.11 L122.474,67.715 L122.082,66.34 L121.624,64.992 L121.108,63.674 L120.525,62.394 L119.876,61.143 L119.178,59.93 L118.424,58.745 L117.612,57.608 L116.742,56.51 L115.825,55.459 L114.87,54.446 L113.857,53.491 L112.797,52.574 L111.698,51.714 L110.552,50.902 L109.377,50.147 L108.154,49.45 L106.903,48.8 L105.613,48.218 L104.285,47.702 L102.938,47.243 L101.553,46.852 L100.139,46.527 L98.706,46.269 L97.254,46.087 L95.774,45.973 L94.274,45.935 L92.774,45.973 L91.293,46.087 L89.841,46.269 L88.408,46.527 L86.994,46.852 L85.619,47.243 L84.262,47.702 L82.944,48.218 L81.654,48.8 L80.403,49.45 L79.19,50.147 L78.005,50.902 L76.868,51.714 L75.77,52.574 L74.719,53.491 L73.716,54.446 L72.751,55.459 L71.834,56.51 L70.974,57.608 L70.162,58.745 L69.407,59.93 L68.71,61.143 L68.07,62.394 L67.497,63.674 L66.971,64.992 L66.513,66.34 L66.131,67.715 L65.806,69.11 L65.548,70.543 L65.367,71.985 L65.252,73.456 L65.214,74.947 L65.252,76.447 L65.367,77.927 L65.548,79.379 L65.806,80.822 L66.131,82.226 L66.513,83.611 L66.971,84.958 L67.497,86.286 L68.07,87.576 L68.71,88.827 L69.407,90.05 L70.162,91.234 L70.974,92.371 L71.834,93.47 L72.751,94.53 L73.716,95.543 L74.719,96.508 L75.77,97.425 L76.868,98.284 L78.005,99.097 L79.19,99.861 L80.403,100.558 L81.654,101.198 L82.944,101.781 L84.262,102.306 L85.619,102.765 L86.994,103.157 L88.408,103.481 L89.841,103.739 L91.293,103.921 L92.774,104.035 L94.274,104.073" fill="#D82332"/>
      <path d="M55.718,104.073 L57.218,104.035 L58.699,103.921 L60.151,103.739 L61.584,103.481 L62.997,103.157 L64.373,102.765 L65.73,102.306 L67.048,101.781 L68.338,101.198 L69.589,100.558 L70.802,99.861 L71.987,99.097 L73.124,98.284 L74.222,97.425 L75.273,96.508 L76.286,95.543 L77.241,94.53 L78.158,93.47 L79.018,92.371 L79.83,91.234 L80.584,90.05 L81.282,88.827 L81.922,87.576 L82.505,86.286 L83.02,84.958 L83.479,83.611 L83.861,82.226 L84.186,80.822 L84.444,79.379 L84.625,77.927 L84.74,76.447 L84.778,74.947 L84.74,73.456 L84.625,71.985 L84.444,70.543 L84.186,69.11 L83.861,67.715 L83.479,66.34 L83.02,64.992 L82.505,63.674 L81.922,62.394 L81.282,61.143 L80.584,59.93 L79.83,58.745 L79.018,57.608 L78.158,56.51 L77.241,55.459 L76.286,54.446 L75.273,53.491 L74.222,52.574 L73.124,51.714 L71.987,50.902 L70.802,50.147 L69.589,49.45 L68.338,48.8 L67.048,48.218 L65.73,47.702 L64.373,47.243 L62.997,46.852 L61.584,46.527 L60.151,46.269 L58.699,46.087 L57.218,45.973 L55.718,45.935 L54.218,45.973 L52.738,46.087 L51.286,46.269 L49.853,46.527 L48.439,46.852 L47.054,47.243 L45.707,47.702 L44.379,48.218 L43.089,48.8 L41.838,49.45 L40.615,50.147 L39.44,50.902 L38.294,51.714 L37.195,52.574 L36.135,53.491 L35.132,54.446 L34.167,55.459 L33.25,56.51 L32.38,57.608 L31.568,58.745 L30.814,59.93 L30.116,61.143 L29.467,62.394 L28.884,63.674 L28.368,64.992 L27.91,66.34 L27.518,67.715 L27.193,69.11 L26.935,70.543 L26.754,71.985 L26.639,73.456 L26.601,74.947 L26.639,76.447 L26.754,77.927 L26.935,79.379 L27.193,80.822 L27.518,82.226 L27.91,83.611 L28.368,84.958 L28.884,86.286 L29.467,87.576 L30.116,88.827 L30.814,90.05 L31.568,91.234 L32.38,92.371 L33.25,93.47 L34.167,94.53 L35.132,95.543 L36.135,96.508 L37.195,97.425 L38.294,98.284 L39.44,99.097 L40.615,99.861 L41.838,100.558 L43.089,101.198 L44.379,101.781 L45.707,102.306 L47.054,102.765 L48.439,103.157 L49.853,103.481 L51.286,103.739 L52.738,103.921 L54.218,104.035 L55.718,104.073" fill="#007BB1"/>
    </g>
    <path d="M71.414,57.006 L86.154,57.006 L86.154,55.382 L72.837,55.382 L71.414,57.006" fill="#D82332"/>
    <path d="M69.102,60.445 L86.154,60.445 L86.154,58.831 L70.134,58.831 L69.102,60.445" fill="#D82332"/>
    <path d="M67.373,63.942 L86.154,63.942 L86.154,62.318 L68.166,62.318 L67.373,63.942" fill="#D82332"/>
    <path d="M66.245,67.381 L86.154,67.381 L86.154,65.766 L66.742,65.766 L66.245,67.381" fill="#D82332"/>
    <path d="M65.51,70.829 L86.154,70.829 L86.154,69.205 L65.806,69.205 L65.51,70.829" fill="#D82332"/>
    <path d="M65.357,77.507 L86.154,77.507 L86.154,75.883 L65.214,75.883 L65.357,77.507" fill="#D82332"/>
    <path d="M65.854,81.147 L86.154,81.147 L86.154,79.523 L65.558,79.523 L65.854,81.147" fill="#D82332"/>
    <path d="M66.838,84.098 L86.154,84.098 L86.154,82.474 L66.341,82.474 L66.838,84.098" fill="#D82332"/>
    <path d="M68.309,87.69 L86.154,87.69 L86.154,86.066 L67.526,86.066 L68.309,87.69" fill="#D82332"/>
    <path d="M70.382,91.33 L86.154,91.33 L86.154,89.706 L69.293,89.706 L70.382,91.33" fill="#D82332"/>
    <path d="M72.98,94.826 L86.01,94.826 L86.01,93.202 L71.557,93.202 L72.98,94.826" fill="#D82332"/>
    <path d="M118.605,92.801 L118.691,92.543 L118.834,92.304 L119.016,92.094 L119.226,91.922 L119.465,91.789 L119.723,91.703 L120,91.674 L120.286,91.703 L120.554,91.789 L120.793,91.922 L121.003,92.094 L121.175,92.304 L121.309,92.543 L121.395,92.801 L121.098,92.801 L121.041,92.62 L120.936,92.419 L120.802,92.247 L120.64,92.113 L120.449,92.008 L120.229,91.941 L120,91.922 L119.771,91.941 L119.551,92.008 L119.36,92.113 L119.188,92.247 L119.054,92.419 L118.949,92.62 L118.892,92.801 L118.605,92.801" fill="#D82332"/>
    <path d="M119.503,92.801 L119.503,92.457 L120.048,92.457 L120.172,92.467 L120.277,92.476 L120.372,92.505 L120.449,92.543 L120.506,92.591 L120.554,92.648 L120.582,92.715 L120.592,92.801 L120.344,92.801 L120.334,92.753 L120.315,92.715 L120.286,92.677 L120.248,92.648 L120.2,92.629 L120.153,92.62 L120.105,92.61 L119.751,92.61 L119.751,92.801 L119.503,92.801" fill="#D82332"/>
    <path d="M118.586,93.05 L118.605,92.811 L118.605,92.801 L118.892,92.801 L118.882,92.849 L118.863,93.05 L118.586,93.05" fill="#D82332"/>
    <path d="M119.503,93.05 L119.503,92.801 L119.751,92.801 L119.751,93.002 L120.162,93.002 L120.219,92.992 L120.267,92.973 L120.296,92.954 L120.325,92.916 L120.344,92.868 L120.344,92.801 L120.592,92.801 L120.582,92.887 L120.563,92.964 L120.535,93.021 L120.506,93.05 L119.503,93.05" fill="#D82332"/>
    <path d="M121.127,93.05 L121.108,92.849 L121.098,92.801 L121.394,92.801 L121.394,92.811 L121.423,93.05 L121.127,93.05" fill="#D82332"/>
    <path d="M118.586,93.05 L118.576,93.097 L118.605,93.384 L118.691,93.651 L118.834,93.881 L119.016,94.091 L119.226,94.253 L119.465,94.377 L119.723,94.454 L120,94.482 L120.286,94.454 L120.554,94.377 L120.793,94.253 L121.003,94.091 L121.175,93.881 L121.309,93.651 L121.395,93.384 L121.423,93.097 L121.423,93.05 L121.127,93.05 L121.127,93.097 L121.108,93.346 L121.041,93.575 L120.936,93.776 L120.802,93.947 L120.64,94.091 L120.449,94.196 L120.229,94.263 L120,94.282 L119.771,94.263 L119.551,94.196 L119.36,94.091 L119.188,93.947 L119.054,93.776 L118.949,93.575 L118.882,93.346 L118.863,93.097 L118.863,93.05 L118.586,93.05" fill="#D82332"/>
    <path d="M119.503,93.05 L119.503,93.642 L119.751,93.642 L119.751,93.155 L120,93.155 L120.296,93.642 L120.544,93.642 L120.191,93.155 L120.277,93.145 L120.363,93.135 L120.43,93.107 L120.487,93.069 L120.506,93.05 L119.503,93.05" fill="#D82332"/>
    <path d="M87.978,72.501 L87.787,72.492 L87.596,72.473 L87.424,72.444 L87.252,72.425 L87.08,72.396 L86.908,72.367 L86.727,72.339 L86.536,72.31 L86.335,72.291 L86.125,72.272 L85.886,72.253 L85.628,72.243 L85.342,72.243 L85.027,72.253 L84.673,72.272 L84.291,72.301 L84.014,72.339 L83.756,72.396 L83.517,72.473 L83.307,72.558 L83.116,72.664 L82.944,72.778 L82.801,72.912 L82.686,73.046 L82.6,73.199 L82.543,73.361 L82.514,73.523 L82.514,73.695 L82.552,73.877 L82.619,74.058 L82.724,74.24 L82.858,74.421 L83.135,74.67 L83.46,74.87 L83.842,75.042 L84.253,75.186 L84.683,75.329 L85.132,75.472 L85.59,75.635 L86.03,75.826 L86.44,76.055 L86.832,76.332 L87.176,76.685 L87.463,77.106 L87.682,77.622 L87.826,78.233 L87.873,78.959 L87.826,79.819 L87.72,80.459 L87.548,81.032 L87.329,81.548 L87.052,82.006 L86.727,82.407 L86.373,82.751 L85.982,83.048 L85.561,83.305 L85.122,83.516 L84.664,83.688 L84.195,83.831 L83.727,83.936 L83.259,84.012 L82.801,84.06 L82.361,84.089 L81.931,84.098 L81.339,84.098 L80.804,84.089 L80.317,84.079 L79.868,84.07 L79.457,84.051 L79.094,84.032 L78.75,84.003 L78.445,83.965 L78.158,83.926 L77.89,83.879 L77.642,83.831 L77.394,83.764 L76.935,83.63 L76.706,83.544 L76.467,83.458 L77.059,80.459 L77.193,80.487 L77.356,80.535 L77.556,80.583 L77.776,80.64 L78.034,80.688 L78.32,80.755 L78.626,80.812 L78.951,80.87 L79.295,80.917 L79.658,80.965 L80.03,81.003 L80.422,81.041 L80.814,81.061 L81.215,81.07 L81.616,81.07 L82.027,81.051 L82.409,80.984 L82.724,80.879 L82.963,80.726 L83.154,80.554 L83.297,80.354 L83.403,80.144 L83.488,79.933 L83.546,79.723 L83.574,79.503 L83.565,79.312 L83.517,79.131 L83.441,78.978 L83.336,78.825 L83.202,78.691 L83.04,78.567 L82.858,78.453 L82.657,78.348 L82.438,78.242 L82.199,78.137 L81.702,77.946 L81.167,77.736 L80.89,77.622 L80.623,77.507 L80.355,77.383 L80.088,77.239 L79.83,77.087 L79.581,76.924 L79.352,76.743 L79.132,76.533 L78.932,76.313 L78.75,76.064 L78.588,75.797 L78.454,75.501 L78.339,75.186 L78.263,74.832 L78.215,74.45 L78.206,74.03 L78.234,73.581 L78.263,73.304 L78.301,73.036 L78.339,72.778 L78.397,72.53 L78.454,72.291 L78.521,72.052 L78.693,71.613 L78.903,71.212 L79.027,71.03 L79.161,70.849 L79.304,70.677 L79.457,70.514 L79.62,70.361 L79.801,70.218 L79.992,70.084 L80.193,69.96 L80.412,69.845 L80.642,69.731 L80.881,69.635 L81.138,69.54 L81.406,69.463 L81.693,69.387 L81.998,69.32 L82.313,69.263 L82.638,69.215 L82.982,69.177 L83.345,69.148 L83.727,69.129 L84.119,69.11 L85.036,69.11 L85.495,69.119 L85.905,69.129 L86.288,69.148 L86.622,69.167 L86.928,69.186 L87.205,69.215 L87.443,69.234 L87.663,69.263 L87.854,69.291 L88.036,69.311 L88.189,69.339 L88.322,69.358 L88.446,69.377 L88.561,69.396 L88.666,69.406 L87.978,72.501" fill="#FFFFFE"/>
    <path d="M87.978,72.501 L87.978,72.501 L87.787,72.492 L87.596,72.473 L87.424,72.444 L87.252,72.425 L87.08,72.396 L86.908,72.367 L86.727,72.339 L86.536,72.31 L86.335,72.291 L86.125,72.272 L85.886,72.253 L85.628,72.243 L85.342,72.243 L85.027,72.253 L84.673,72.272 L84.291,72.301 L84.014,72.339 L83.756,72.396 L83.517,72.473 L83.307,72.558 L83.116,72.664 L82.944,72.778 L82.801,72.912 L82.686,73.046 L82.6,73.199 L82.543,73.361 L82.514,73.523 L82.514,73.695 L82.552,73.877 L82.619,74.058 L82.724,74.24 L82.858,74.421 L83.135,74.67 L83.46,74.87 L83.842,75.042 L84.253,75.186 L84.683,75.329 L85.132,75.472 L85.59,75.635 L86.03,75.826 L86.44,76.055 L86.832,76.332 L87.176,76.685 L87.463,77.106 L87.682,77.622 L87.826,78.233 L87.873,78.959 L87.826,79.819 L87.72,80.459 L87.548,81.032 L87.329,81.548 L87.052,82.006 L86.727,82.407 L86.373,82.751 L85.982,83.048 L85.561,83.305 L85.122,83.516 L84.664,83.688 L84.195,83.831 L83.727,83.936 L83.259,84.012 L82.801,84.06 L82.361,84.089 L81.931,84.098 L81.339,84.098 L80.804,84.089 L80.317,84.079 L79.868,84.07 L79.457,84.051 L79.094,84.032 L78.75,84.003 L78.445,83.965 L78.158,83.926 L77.89,83.879 L77.642,83.831 L77.394,83.764 L76.935,83.63 L76.706,83.544 L76.467,83.458 L77.059,80.459 L77.193,80.487 L77.356,80.535 L77.556,80.583 L77.776,80.64 L78.034,80.688 L78.32,80.755 L78.626,80.812 L78.951,80.87 L79.295,80.917 L79.658,80.965 L80.03,81.003 L80.422,81.041 L80.814,81.061 L81.215,81.07 L81.616,81.07 L82.027,81.051 L82.409,80.984 L82.724,80.879 L82.963,80.726 L83.154,80.554 L83.297,80.354 L83.403,80.144 L83.488,79.933 L83.546,79.723 L83.574,79.503 L83.565,79.312 L83.517,79.131 L83.441,78.978 L83.336,78.825 L83.202,78.691 L83.04,78.567 L82.858,78.453 L82.657,78.348 L82.438,78.242 L82.199,78.137 L81.702,77.946 L81.167,77.736 L80.89,77.622 L80.623,77.507 L80.355,77.383 L80.088,77.239 L79.83,77.087 L79.581,76.924 L79.352,76.743 L79.132,76.533 L78.932,76.313 L78.75,76.064 L78.588,75.797 L78.454,75.501 L78.339,75.186 L78.263,74.832 L78.215,74.45 L78.206,74.03 L78.234,73.581 L78.263,73.304 L78.301,73.036 L78.339,72.778 L78.397,72.53 L78.454,72.291 L78.521,72.052 L78.693,71.613 L78.903,71.212 L79.027,71.03 L79.161,70.849 L79.304,70.677 L79.457,70.514 L79.62,70.361 L79.801,70.218 L79.992,70.084 L80.193,69.96 L80.412,69.845 L80.642,69.731 L80.881,69.635 L81.138,69.54 L81.406,69.463 L81.693,69.387 L81.998,69.32 L82.313,69.263 L82.638,69.215 L82.982,69.177 L83.345,69.148 L83.727,69.129 L84.119,69.11 L85.036,69.11 L85.495,69.119 L85.905,69.129 L86.288,69.148 L86.622,69.167 L86.928,69.186 L87.205,69.215 L87.443,69.234 L87.663,69.263 L87.854,69.291 L88.036,69.311 L88.189,69.339 L88.322,69.358 L88.446,69.377 L88.561,69.396 L88.666,69.406 L87.978,72.501" fill-opacity="0" stroke="#FFFFFE" stroke-width="0.215"/>
    <path d="M91.121,66.11 L94.962,66.11 L94.369,69.454 L96.729,69.454 L96.194,72.501 L93.777,72.453 L92.506,80.067 L92.487,80.229 L92.487,80.373 L92.506,80.497 L92.545,80.612 L92.602,80.707 L92.669,80.803 L92.755,80.879 L92.85,80.936 L92.965,80.994 L93.08,81.041 L93.213,81.08 L93.347,81.099 L93.5,81.127 L93.653,81.137 L93.815,81.147 L94.283,81.147 L94.551,81.127 L94.799,81.089 L95.009,81.041 L95.172,80.994 L95.296,80.946 L95.372,80.908 L95.401,80.898 L95.009,83.506 L94.914,83.563 L94.704,83.659 L94.599,83.707 L94.493,83.745 L94.264,83.821 L94.13,83.86 L93.997,83.898 L93.853,83.926 L93.691,83.955 L93.519,83.984 L93.338,84.012 L93.146,84.041 L92.927,84.07 L92.698,84.098 L91.666,84.098 L91.121,84.06 L90.634,84.003 L90.204,83.926 L89.832,83.821 L89.516,83.707 L89.249,83.563 L89.029,83.401 L88.848,83.22 L88.704,83.019 L88.599,82.799 L88.532,82.56 L88.494,82.293 L88.485,82.016 L88.494,81.71 L88.523,81.395 L88.571,81.051 L91.121,66.11" fill="#FFFFFE"/>
    <path d="M91.121,66.11 L94.962,66.11 L94.369,69.454 L96.729,69.454 L96.194,72.501 L93.777,72.453 L92.506,80.067 L92.487,80.229 L92.487,80.373 L92.506,80.497 L92.545,80.612 L92.602,80.707 L92.669,80.803 L92.755,80.879 L92.85,80.936 L92.965,80.994 L93.08,81.041 L93.213,81.08 L93.347,81.099 L93.5,81.127 L93.653,81.137 L93.815,81.147 L94.283,81.147 L94.551,81.127 L94.799,81.089 L95.009,81.041 L95.172,80.994 L95.296,80.946 L95.372,80.908 L95.401,80.898 L95.009,83.506 L94.914,83.563 L94.704,83.659 L94.599,83.707 L94.493,83.745 L94.264,83.821 L94.13,83.86 L93.997,83.898 L93.853,83.926 L93.691,83.955 L93.519,83.984 L93.338,84.012 L93.146,84.041 L92.927,84.07 L92.698,84.098 L91.666,84.098 L91.121,84.06 L90.634,84.003 L90.204,83.926 L89.832,83.821 L89.516,83.707 L89.249,83.563 L89.029,83.401 L88.848,83.22 L88.704,83.019 L88.599,82.799 L88.532,82.56 L88.494,82.293 L88.485,82.016 L88.494,81.71 L88.523,81.395 L88.571,81.051 L91.121,66.11" fill-opacity="0" stroke="#FFFFFE" stroke-width="0.215"/>
    <path d="M67.774,77.708 L67.726,77.946 L67.717,78.185 L67.736,78.443 L67.793,78.691 L67.869,78.949 L67.984,79.207 L68.118,79.456 L68.28,79.695 L68.462,79.924 L68.672,80.144 L68.892,80.335 L69.131,80.516 L69.388,80.669 L69.656,80.793 L69.942,80.889 L70.229,80.956 L70.573,81.003 L70.917,81.051 L71.27,81.089 L71.624,81.108 L71.987,81.118 L72.34,81.118 L72.713,81.099 L73.076,81.07 L73.448,81.013 L73.83,80.946 L74.213,80.85 L74.595,80.726 L74.977,80.583 L75.378,80.411 L75.77,80.201 L76.171,79.972 L75.579,83.363 L75.359,83.477 L75.139,83.583 L74.939,83.669 L74.518,83.821 L74.308,83.879 L74.088,83.926 L73.85,83.974 L73.601,84.003 L73.334,84.032 L73.038,84.06 L72.722,84.07 L72.378,84.089 L71.996,84.089 L71.576,84.098 L70.783,84.098 L70.439,84.079 L70.105,84.06 L69.761,84.022 L69.407,83.974 L69.064,83.917 L68.376,83.764 L67.707,83.554 L67.382,83.43 L67.057,83.286 L66.742,83.124 L66.437,82.952 L66.15,82.761 L65.863,82.551 L65.596,82.322 L65.338,82.073 L65.09,81.806 L64.87,81.519 L64.66,81.204 L64.469,80.879 L64.297,80.526 L64.144,80.153 L64.01,79.752 L63.905,79.332 L63.819,78.892 L63.762,78.414 L63.723,77.918 L63.723,77.402 L63.743,76.848 L63.79,76.275 L63.819,76.074 L63.848,75.845 L63.886,75.615 L63.934,75.367 L63.981,75.109 L64.048,74.842 L64.125,74.565 L64.201,74.278 L64.297,73.982 L64.402,73.695 L64.526,73.399 L64.66,73.103 L64.813,72.807 L64.975,72.511 L65.157,72.215 L65.348,71.928 L65.567,71.651 L65.796,71.374 L66.045,71.106 L66.322,70.858 L66.608,70.61 L66.924,70.38 L67.258,70.17 L67.621,69.97 L68.003,69.798 L68.414,69.635 L68.844,69.492 L69.302,69.377 L69.79,69.282 L70.305,69.215 L70.84,69.177 L71.414,69.158 L71.681,69.158 L71.949,69.177 L72.226,69.196 L72.503,69.225 L72.78,69.263 L73.066,69.32 L73.343,69.387 L73.62,69.463 L73.897,69.549 L74.174,69.654 L74.442,69.769 L74.7,69.903 L74.948,70.056 L75.197,70.218 L75.426,70.409 L75.655,70.61 L75.865,70.829 L76.066,71.068 L76.247,71.336 L76.41,71.613 L76.563,71.918 L76.696,72.243 L76.811,72.597 L76.897,72.969 L76.973,73.37 L77.021,73.791 L77.04,74.24 L77.04,74.717 L77.012,75.224 L76.964,75.759 L76.878,76.322 L76.763,76.915 L76.61,77.755 L66.685,77.755 L67.277,75.1 L73.229,75.1 L73.257,74.737 L73.257,74.402 L73.238,74.087 L73.181,73.8 L73.105,73.542 L73.009,73.304 L72.885,73.093 L72.741,72.902 L72.579,72.73 L72.398,72.587 L72.206,72.473 L72.006,72.377 L71.786,72.301 L71.557,72.243 L71.318,72.215 L71.07,72.205 L70.802,72.205 L70.554,72.243 L70.305,72.291 L70.076,72.367 L69.856,72.473 L69.646,72.597 L69.446,72.74 L69.264,72.902 L69.092,73.093 L68.94,73.294 L68.796,73.514 L68.662,73.753 L68.548,74.001 L68.452,74.268 L68.376,74.555 L68.309,74.851 L67.774,77.708" fill="#FFFFFE"/>
    <path d="M67.774,77.708 L67.774,77.708 L67.726,77.946 L67.717,78.185 L67.736,78.443 L67.793,78.691 L67.869,78.949 L67.984,79.207 L68.118,79.456 L68.28,79.695 L68.462,79.924 L68.672,80.144 L68.892,80.335 L69.131,80.516 L69.388,80.669 L69.656,80.793 L69.942,80.889 L70.229,80.956 L70.573,81.003 L70.917,81.051 L71.27,81.089 L71.624,81.108 L71.987,81.118 L72.34,81.118 L72.713,81.099 L73.076,81.07 L73.448,81.013 L73.83,80.946 L74.213,80.85 L74.595,80.726 L74.977,80.583 L75.378,80.411 L75.77,80.201 L76.171,79.972 L75.579,83.363 L75.359,83.477 L75.139,83.583 L74.939,83.669 L74.518,83.821 L74.308,83.879 L74.088,83.926 L73.85,83.974 L73.601,84.003 L73.334,84.032 L73.038,84.06 L72.722,84.07 L72.378,84.089 L71.996,84.089 L71.576,84.098 L70.783,84.098 L70.439,84.079 L70.105,84.06 L69.761,84.022 L69.407,83.974 L69.064,83.917 L68.376,83.764 L67.707,83.554 L67.382,83.43 L67.057,83.286 L66.742,83.124 L66.437,82.952 L66.15,82.761 L65.863,82.551 L65.596,82.322 L65.338,82.073 L65.09,81.806 L64.87,81.519 L64.66,81.204 L64.469,80.879 L64.297,80.526 L64.144,80.153 L64.01,79.752 L63.905,79.332 L63.819,78.892 L63.762,78.414 L63.723,77.918 L63.723,77.402 L63.743,76.848 L63.79,76.275 L63.819,76.074 L63.848,75.845 L63.886,75.615 L63.934,75.367 L63.981,75.109 L64.048,74.842 L64.125,74.565 L64.201,74.278 L64.297,73.982 L64.402,73.695 L64.526,73.399 L64.66,73.103 L64.813,72.807 L64.975,72.511 L65.157,72.215 L65.348,71.928 L65.567,71.651 L65.796,71.374 L66.045,71.106 L66.322,70.858 L66.608,70.61 L66.924,70.38 L67.258,70.17 L67.621,69.97 L68.003,69.798 L68.414,69.635 L68.844,69.492 L69.302,69.377 L69.79,69.282 L70.305,69.215 L70.84,69.177 L71.414,69.158 L71.681,69.158 L71.949,69.177 L72.226,69.196 L72.503,69.225 L72.78,69.263 L73.066,69.32 L73.343,69.387 L73.62,69.463 L73.897,69.549 L74.174,69.654 L74.442,69.769 L74.7,69.903 L74.948,70.056 L75.197,70.218 L75.426,70.409 L75.655,70.61 L75.865,70.829 L76.066,71.068 L76.247,71.336 L76.41,71.613 L76.563,71.918 L76.696,72.243 L76.811,72.597 L76.897,72.969 L76.973,73.37 L77.021,73.791 L77.04,74.24 L77.04,74.717 L77.012,75.224 L76.964,75.759 L76.878,76.322 L76.763,76.915 L76.61,77.755 L66.685,77.755 L67.277,75.1 L73.229,75.1 L73.257,74.737 L73.257,74.402 L73.238,74.087 L73.181,73.8 L73.105,73.542 L73.009,73.304 L72.885,73.093 L72.741,72.902 L72.579,72.73 L72.398,72.587 L72.206,72.473 L72.006,72.377 L71.786,72.301 L71.557,72.243 L71.318,72.215 L71.07,72.205 L70.802,72.205 L70.554,72.243 L70.305,72.291 L70.076,72.367 L69.856,72.473 L69.646,72.597 L69.446,72.74 L69.264,72.902 L69.092,73.093 L68.94,73.294 L68.796,73.514 L68.662,73.753 L68.548,74.001 L68.452,74.268 L68.376,74.555 L68.309,74.851 L67.774,77.708" fill-opacity="0" stroke="#FFFFFE" stroke-width="0.215"/>
    <path d="M62.463,81.051 L61.918,84.098 L58.469,84.098 L58.546,83.525 L58.584,83.267 L58.622,83.028 L58.66,82.828 L58.689,82.656 L58.727,82.541 L58.766,82.474 L58.584,82.685 L58.355,82.895 L58.097,83.095 L57.801,83.286 L57.485,83.468 L57.142,83.64 L56.779,83.793 L56.406,83.936 L56.014,84.06 L55.613,84.165 L55.212,84.242 L54.811,84.299 L54.409,84.328 L54.018,84.337 L53.636,84.309 L53.263,84.251 L52.776,84.137 L52.346,83.984 L51.954,83.802 L51.61,83.602 L51.305,83.382 L51.047,83.134 L50.817,82.876 L50.626,82.589 L50.464,82.302 L50.33,82.006 L50.225,81.701 L50.139,81.385 L50.082,81.08 L50.044,80.764 L50.025,80.459 L50.015,80.163 L50.053,79.628 L50.139,79.121 L50.263,78.634 L50.445,78.176 L50.665,77.746 L50.913,77.345 L51.209,76.972 L51.524,76.618 L51.878,76.303 L52.25,76.026 L52.652,75.768 L53.072,75.549 L53.511,75.357 L53.96,75.205 L54.419,75.09 L54.887,75.004 L54.906,75.004 L54.973,74.994 L55.078,74.985 L55.221,74.966 L55.384,74.947 L55.575,74.928 L55.785,74.899 L56.014,74.88 L56.244,74.861 L56.473,74.832 L56.712,74.813 L56.941,74.794 L57.151,74.775 L57.352,74.765 L57.533,74.756 L58.173,74.756 L58.345,74.765 L58.508,74.765 L58.66,74.775 L58.966,74.775 L59.1,74.784 L59.224,74.784 L59.329,74.794 L59.425,74.794 L59.501,74.803 L59.606,74.803 L59.635,74.708 L59.702,74.479 L59.749,74.211 L59.749,73.972 L59.73,73.8 L59.702,73.638 L59.654,73.485 L59.587,73.342 L59.511,73.208 L59.415,73.084 L59.32,72.969 L59.205,72.855 L59.081,72.759 L58.957,72.683 L58.813,72.606 L58.67,72.539 L58.517,72.492 L58.355,72.453 L58.192,72.425 L58.03,72.406 L57.638,72.396 L57.228,72.406 L56.798,72.415 L55.919,72.473 L55.479,72.511 L55.04,72.558 L54.61,72.606 L54.199,72.673 L53.808,72.73 L53.454,72.797 L53.12,72.874 L52.824,72.95 L52.575,73.027 L52.375,73.103 L52.231,73.189 L53.215,69.941 L53.502,69.807 L53.808,69.683 L54.113,69.578 L54.438,69.492 L54.772,69.425 L55.116,69.368 L55.479,69.32 L55.852,69.282 L56.234,69.263 L56.626,69.244 L57.027,69.234 L58.326,69.234 L58.785,69.244 L59.262,69.253 L59.654,69.291 L60.065,69.349 L60.495,69.454 L60.924,69.578 L61.354,69.74 L61.784,69.941 L62.186,70.17 L62.568,70.438 L62.921,70.743 L63.236,71.078 L63.504,71.45 L63.714,71.861 L63.867,72.31 L63.953,72.797 L63.962,73.313 L63.886,73.877 L62.463,81.051" fill="#FFFFFE"/>
    <path d="M62.463,81.051 L61.918,84.098 L58.469,84.098 L58.546,83.525 L58.584,83.267 L58.622,83.028 L58.66,82.828 L58.689,82.656 L58.727,82.541 L58.766,82.474 L58.584,82.685 L58.355,82.895 L58.097,83.095 L57.801,83.286 L57.485,83.468 L57.142,83.64 L56.779,83.793 L56.406,83.936 L56.014,84.06 L55.613,84.165 L55.212,84.242 L54.811,84.299 L54.409,84.328 L54.018,84.337 L53.636,84.309 L53.263,84.251 L52.776,84.137 L52.346,83.984 L51.954,83.802 L51.61,83.602 L51.305,83.382 L51.047,83.134 L50.817,82.876 L50.626,82.589 L50.464,82.302 L50.33,82.006 L50.225,81.701 L50.139,81.385 L50.082,81.08 L50.044,80.764 L50.025,80.459 L50.015,80.163 L50.053,79.628 L50.139,79.121 L50.263,78.634 L50.445,78.176 L50.665,77.746 L50.913,77.345 L51.209,76.972 L51.524,76.618 L51.878,76.303 L52.25,76.026 L52.652,75.768 L53.072,75.549 L53.511,75.357 L53.96,75.205 L54.419,75.09 L54.887,75.004 L54.906,75.004 L54.973,74.994 L55.078,74.985 L55.221,74.966 L55.384,74.947 L55.575,74.928 L55.785,74.899 L56.014,74.88 L56.244,74.861 L56.473,74.832 L56.712,74.813 L56.941,74.794 L57.151,74.775 L57.352,74.765 L57.533,74.756 L58.173,74.756 L58.345,74.765 L58.508,74.765 L58.66,74.775 L58.966,74.775 L59.1,74.784 L59.224,74.784 L59.329,74.794 L59.425,74.794 L59.501,74.803 L59.606,74.803 L59.635,74.708 L59.702,74.479 L59.749,74.211 L59.749,73.972 L59.73,73.8 L59.702,73.638 L59.654,73.485 L59.587,73.342 L59.511,73.208 L59.415,73.084 L59.32,72.969 L59.205,72.855 L59.081,72.759 L58.957,72.683 L58.813,72.606 L58.67,72.539 L58.517,72.492 L58.355,72.453 L58.192,72.425 L58.03,72.406 L57.638,72.396 L57.228,72.406 L56.798,72.415 L55.919,72.473 L55.479,72.511 L55.04,72.558 L54.61,72.606 L54.199,72.673 L53.808,72.73 L53.454,72.797 L53.12,72.874 L52.824,72.95 L52.575,73.027 L52.375,73.103 L52.231,73.189 L53.215,69.941 L53.502,69.807 L53.808,69.683 L54.113,69.578 L54.438,69.492 L54.772,69.425 L55.116,69.368 L55.479,69.32 L55.852,69.282 L56.234,69.263 L56.626,69.244 L57.027,69.234 L58.326,69.234 L58.785,69.244 L59.262,69.253 L59.654,69.291 L60.065,69.349 L60.495,69.454 L60.924,69.578 L61.354,69.74 L61.784,69.941 L62.186,70.17 L62.568,70.438 L62.921,70.743 L63.236,71.078 L63.504,71.45 L63.714,71.861 L63.867,72.31 L63.953,72.797 L63.962,73.313 L63.886,73.877 L62.463,81.051" fill-opacity="0" stroke="#FFFFFE" stroke-width="0.215"/>
    <path d="M59.167,77.459 L59.157,77.383 L59.1,77.325 L59.004,77.278 L58.88,77.249 L58.718,77.23 L58.546,77.22 L58.135,77.22 L57.915,77.239 L57.686,77.268 L57.466,77.297 L57.247,77.335 L57.036,77.373 L56.836,77.411 L56.664,77.459 L56.511,77.507 L56.425,77.526 L56.167,77.612 L56.014,77.679 L55.852,77.746 L55.67,77.832 L55.307,78.042 L55.126,78.176 L54.954,78.319 L54.792,78.472 L54.648,78.644 L54.514,78.825 L54.419,79.026 L54.343,79.246 L54.295,79.475 L54.276,79.943 L54.343,80.306 L54.457,80.592 L54.629,80.803 L54.839,80.946 L55.059,81.041 L55.298,81.089 L55.527,81.099 L55.947,81.089 L56.32,81.051 L56.673,80.984 L56.989,80.898 L57.275,80.803 L57.533,80.688 L57.762,80.554 L57.963,80.411 L58.145,80.268 L58.297,80.105 L58.431,79.952 L58.546,79.79 L58.641,79.628 L58.718,79.475 L58.775,79.322 L58.823,79.179 L58.871,78.969 L58.918,78.749 L58.966,78.52 L59.014,78.281 L59.052,78.051 L59.09,77.841 L59.129,77.641 L59.167,77.459" fill="#007BB1"/>
    <path d="M33.632,84.098 L29.897,84.098 L33.04,66.11 L39.535,66.11 L40.176,76.819 L44.599,66.11 L51.343,66.11 L48.19,84.098 L44.455,84.098 L46.815,70.629 L46.672,70.629 L41.112,84.098 L36.928,84.098 L36.889,83.535 L36.803,82.035 L36.393,75.023 L36.268,72.855 L36.182,71.288 L36.144,70.629 L35.953,70.629 L35.991,70.629 L33.632,84.098" fill="#FFFFFE"/>
    <path d="M33.632,84.098 L29.897,84.098 L33.04,66.11 L39.535,66.11 L40.176,76.819 L44.599,66.11 L51.343,66.11 L48.19,84.098 L44.455,84.098 L46.815,70.629 L46.672,70.629 L41.112,84.098 L36.928,84.098 L36.889,83.535 L36.803,82.035 L36.393,75.023 L36.268,72.855 L36.182,71.288 L36.144,70.629 L35.953,70.629 L35.991,70.629 L33.632,84.098" fill-opacity="0" stroke="#FFFFFE" stroke-width="0.215"/>
    <path d="M96.041,84.098 L99.929,84.098 L101.257,76.332 L101.314,76.026 L101.381,75.73 L101.458,75.434 L101.553,75.157 L101.658,74.88 L101.792,74.622 L101.954,74.374 L102.136,74.135 L102.356,73.925 L102.604,73.734 L102.9,73.562 L103.225,73.409 L103.607,73.285 L104.037,73.189 L104.514,73.132 L105.049,73.093 L105.097,73.093 L105.155,73.103 L105.231,73.113 L105.307,73.113 L105.374,73.122 L105.432,73.132 L105.47,73.141 L105.489,73.141 L105.498,73.084 L105.537,72.922 L105.584,72.673 L105.661,72.358 L105.756,72.004 L105.861,71.622 L105.986,71.24 L106.129,70.877 L106.234,70.61 L106.482,70.094 L106.616,69.855 L106.731,69.654 L106.826,69.492 L106.893,69.387 L106.912,69.349 L106.893,69.349 L106.845,69.33 L106.779,69.32 L106.683,69.301 L106.587,69.282 L106.473,69.272 L106.368,69.253 L106.272,69.253 L105.852,69.282 L105.47,69.33 L105.116,69.406 L104.792,69.492 L104.486,69.607 L104.209,69.731 L103.941,69.884 L103.702,70.046 L103.464,70.228 L103.244,70.428 L103.043,70.638 L102.833,70.868 L102.633,71.106 L102.441,71.364 L102.241,71.632 L102.04,71.909 L102.489,69.454 L98.601,69.406 L96.041,84.098" fill="#FFFFFE"/>
    <path d="M96.041,84.098 L99.929,84.098 L101.257,76.332 L101.314,76.026 L101.381,75.73 L101.458,75.434 L101.553,75.157 L101.658,74.88 L101.792,74.622 L101.954,74.374 L102.136,74.135 L102.356,73.925 L102.604,73.734 L102.9,73.562 L103.225,73.409 L103.607,73.285 L104.037,73.189 L104.514,73.132 L105.049,73.093 L105.097,73.093 L105.155,73.103 L105.231,73.113 L105.307,73.113 L105.374,73.122 L105.432,73.132 L105.47,73.141 L105.489,73.141 L105.498,73.084 L105.537,72.922 L105.584,72.673 L105.661,72.358 L105.756,72.004 L105.861,71.622 L105.986,71.24 L106.129,70.877 L106.234,70.61 L106.482,70.094 L106.616,69.855 L106.731,69.654 L106.826,69.492 L106.893,69.387 L106.912,69.349 L106.893,69.349 L106.845,69.33 L106.779,69.32 L106.683,69.301 L106.587,69.282 L106.473,69.272 L106.368,69.253 L106.272,69.253 L105.852,69.282 L105.47,69.33 L105.116,69.406 L104.792,69.492 L104.486,69.607 L104.209,69.731 L103.941,69.884 L103.702,70.046 L103.464,70.228 L103.244,70.428 L103.043,70.638 L102.833,70.868 L102.633,71.106 L102.441,71.364 L102.241,71.632 L102.04,71.909 L102.489,69.454 L98.601,69.406 L96.041,84.098" fill-opacity="0" stroke="#FFFFFE" stroke-width="0.215"/>
    <path d="M112.864,69.253 L113.294,69.263 L113.714,69.291 L114.125,69.33 L114.526,69.387 L114.908,69.463 L115.281,69.559 L115.634,69.664 L115.988,69.788 L116.322,69.931 L116.637,70.084 L116.952,70.247 L117.239,70.428 L117.526,70.629 L117.793,70.839 L118.041,71.059 L118.28,71.298 L118.51,71.546 L118.72,71.813 L118.911,72.081 L119.092,72.367 L119.264,72.664 L119.551,73.294 L119.665,73.628 L119.771,73.963 L119.856,74.316 L119.933,74.679 L119.99,75.052 L120.028,75.424 L120.048,75.816 L120.057,76.217 L120.048,76.618 L120.019,77.106 L119.962,77.574 L119.895,78.023 L119.809,78.462 L119.713,78.883 L119.589,79.284 L119.455,79.675 L119.312,80.048 L119.14,80.401 L118.968,80.745 L118.767,81.07 L118.567,81.376 L118.347,81.672 L118.108,81.949 L117.86,82.207 L117.602,82.455 L117.335,82.685 L117.057,82.904 L116.761,83.105 L116.465,83.286 L116.15,83.458 L115.825,83.611 L115.5,83.755 L115.156,83.879 L114.813,83.993 L114.45,84.089 L114.087,84.165 L113.724,84.232 L113.341,84.28 L112.959,84.318 L112.568,84.337 L112.176,84.347 L111.784,84.337 L111.393,84.318 L111.02,84.28 L110.647,84.223 L110.284,84.156 L109.921,84.079 L109.578,83.984 L109.243,83.869 L108.909,83.745 L108.594,83.602 L108.288,83.449 L107.992,83.277 L107.705,83.095 L107.438,82.895 L107.17,82.685 L106.922,82.455 L106.693,82.216 L106.463,81.959 L106.263,81.691 L106.062,81.405 L105.89,81.108 L105.718,80.793 L105.575,80.468 L105.441,80.134 L105.326,79.781 L105.221,79.408 L105.135,79.026 L105.069,78.634 L105.021,78.223 L104.992,77.803 L104.983,77.364 L104.992,76.915 L105.021,76.456 L105.069,76.017 L105.135,75.587 L105.221,75.176 L105.317,74.775 L105.432,74.383 L105.556,74.011 L105.699,73.648 L105.852,73.294 L106.024,72.96 L106.215,72.644 L106.416,72.329 L106.626,72.043 L106.855,71.756 L107.094,71.498 L107.342,71.24 L107.61,71.001 L107.887,70.782 L108.173,70.571 L108.469,70.38 L108.785,70.208 L109.109,70.037 L109.444,69.893 L109.778,69.759 L110.132,69.645 L110.495,69.54 L110.867,69.454 L111.249,69.377 L111.641,69.33 L112.042,69.282 L112.453,69.263 L112.864,69.253" fill="#FFFFFE"/>
    <path d="M112.864,69.253 L112.864,69.253 L113.294,69.263 L113.714,69.291 L114.125,69.33 L114.526,69.387 L114.908,69.463 L115.281,69.559 L115.634,69.664 L115.988,69.788 L116.322,69.931 L116.637,70.084 L116.952,70.247 L117.239,70.428 L117.526,70.629 L117.793,70.839 L118.041,71.059 L118.28,71.298 L118.51,71.546 L118.72,71.813 L118.911,72.081 L119.092,72.367 L119.264,72.664 L119.551,73.294 L119.665,73.628 L119.771,73.963 L119.856,74.316 L119.933,74.679 L119.99,75.052 L120.028,75.424 L120.048,75.816 L120.057,76.217 L120.048,76.618 L120.019,77.106 L119.962,77.574 L119.895,78.023 L119.809,78.462 L119.713,78.883 L119.589,79.284 L119.455,79.675 L119.312,80.048 L119.14,80.401 L118.968,80.745 L118.767,81.07 L118.567,81.376 L118.347,81.672 L118.108,81.949 L117.86,82.207 L117.602,82.455 L117.335,82.685 L117.057,82.904 L116.761,83.105 L116.465,83.286 L116.15,83.458 L115.825,83.611 L115.5,83.755 L115.156,83.879 L114.813,83.993 L114.45,84.089 L114.087,84.165 L113.724,84.232 L113.341,84.28 L112.959,84.318 L112.568,84.337 L112.176,84.347 L111.784,84.337 L111.393,84.318 L111.02,84.28 L110.647,84.223 L110.284,84.156 L109.921,84.079 L109.578,83.984 L109.243,83.869 L108.909,83.745 L108.594,83.602 L108.288,83.449 L107.992,83.277 L107.705,83.095 L107.438,82.895 L107.17,82.685 L106.922,82.455 L106.693,82.216 L106.463,81.959 L106.263,81.691 L106.062,81.405 L105.89,81.108 L105.718,80.793 L105.575,80.468 L105.441,80.134 L105.326,79.781 L105.221,79.408 L105.135,79.026 L105.069,78.634 L105.021,78.223 L104.992,77.803 L104.983,77.364 L104.992,76.915 L105.021,76.456 L105.069,76.017 L105.135,75.587 L105.221,75.176 L105.317,74.775 L105.432,74.383 L105.556,74.011 L105.699,73.648 L105.852,73.294 L106.024,72.96 L106.215,72.644 L106.416,72.329 L106.626,72.043 L106.855,71.756 L107.094,71.498 L107.342,71.24 L107.61,71.001 L107.887,70.782 L108.173,70.571 L108.469,70.38 L108.785,70.208 L109.109,70.037 L109.444,69.893 L109.778,69.759 L110.132,69.645 L110.495,69.54 L110.867,69.454 L111.249,69.377 L111.641,69.33 L112.042,69.282 L112.453,69.263 L112.864,69.253" fill-opacity="0" stroke="#FFFFFE" stroke-width="0.215"/>
    <path d="M118.576,83.363 L119.704,83.363 L119.704,83.506 L119.264,83.506 L119.264,84.442 L119.016,84.442 L119.016,83.506 L118.576,83.506 L118.576,83.363" fill="#FFFFFE"/>
    <path d="M118.576,83.363 L119.704,83.363 L119.704,83.506 L119.264,83.506 L119.264,84.442 L119.016,84.442 L119.016,83.506 L118.576,83.506 L118.576,83.363" fill-opacity="0" stroke="#FFFFFE" stroke-width="0.215"/>
    <path d="M119.847,83.363 L120.191,83.363 L120.592,84.194 L120.984,83.363 L121.328,83.363 L121.328,84.442 L121.079,84.442 L121.079,83.611 L120.688,84.442 L120.487,84.442 L120.095,83.611 L120.095,84.442 L119.847,84.442 L119.847,83.363" fill="#FFFFFE"/>
    <path d="M119.847,83.363 L120.191,83.363 L120.592,84.194 L120.984,83.363 L121.328,83.363 L121.328,84.442 L121.079,84.442 L121.079,83.611 L120.688,84.442 L120.487,84.442 L120.095,83.611 L120.095,84.442 L119.847,84.442 L119.847,83.363" fill-opacity="0" stroke="#FFFFFE" stroke-width="0.215"/>
    <path d="M109.816,76.275 L109.759,76.81 L109.731,77.306 L109.731,77.755 L109.759,78.176 L109.816,78.558 L109.902,78.892 L110.007,79.198 L110.141,79.475 L110.304,79.714 L110.485,79.914 L110.686,80.086 L110.905,80.22 L111.144,80.325 L111.412,80.401 L111.689,80.44 L111.985,80.459 L112.31,80.449 L112.625,80.411 L112.921,80.344 L113.208,80.239 L113.475,80.105 L113.733,79.933 L113.972,79.733 L114.201,79.494 L114.402,79.226 L114.593,78.921 L114.774,78.577 L114.927,78.204 L115.07,77.793 L115.195,77.345 L115.29,76.857 L115.376,76.332 L115.424,75.921 L115.453,75.529 L115.453,75.147 L115.424,74.784 L115.376,74.45 L115.3,74.125 L115.195,73.829 L115.07,73.552 L114.918,73.304 L114.746,73.093 L114.545,72.902 L114.325,72.75 L114.077,72.625 L113.809,72.549 L113.523,72.501 L113.208,72.501 L112.816,72.53 L112.453,72.597 L112.119,72.711 L111.803,72.855 L111.517,73.046 L111.249,73.256 L111.01,73.495 L110.8,73.762 L110.6,74.049 L110.428,74.354 L110.275,74.66 L110.151,74.985 L110.036,75.31 L109.941,75.635 L109.874,75.959 L109.816,76.275" fill="#D82332"/>
  </g>
  <g id="Layer_3">
    <path d="M80.742,101.501 C95.229,101.57 108.451,89.687 108.451,75.23 C108.451,59.421 95.229,48.493 80.742,48.499 L68.275,48.499 C53.615,48.493 41.549,59.424 41.549,75.23 C41.549,89.69 53.615,101.571 68.275,101.501 L80.742,101.501 z" fill="#0079BE"/>
    <path d="M68.334,50.689 C54.939,50.693 44.084,61.551 44.08,74.953 C44.084,88.351 54.938,99.209 68.334,99.213 C81.733,99.209 92.59,88.351 92.592,74.953 C92.59,61.551 81.733,50.693 68.334,50.689 z M52.96,74.953 L52.96,74.953 C52.973,68.404 57.063,62.82 62.83,60.601 L62.83,89.301 C57.063,87.083 52.973,81.502 52.96,74.953 z M73.836,89.307 L73.836,89.307 L73.836,60.6 C79.606,62.814 83.702,68.401 83.712,74.953 C83.702,81.506 79.606,87.089 73.836,89.307 z" fill="#FFFFFF"/>
  </g>
</svg>
