<?xml version="1.0" encoding="UTF-8"?>
<!DOCTYPE svg PUBLIC "-//W3C//DTD SVG 1.1//EN" "http://www.w3.org/Graphics/SVG/1.1/DTD/svg11.dtd">
<svg version="1.1" xmlns="http://www.w3.org/2000/svg" xmlns:xlink="http://www.w3.org/1999/xlink" x="0" y="0" width="150" height="150" viewBox="0, 0, 150, 150">
  <g id="Background">
    <rect x="0" y="0" width="150" height="150" fill="transparent"/>
  </g>
  <g id="Background"/>
  <g id="layer1">
    <g id="g10305">
      <path d="M130.512,75.188 C130.517,93.539 115.645,108.418 97.294,108.423 C78.942,108.427 64.063,93.555 64.059,75.204 C64.059,75.198 64.059,75.194 64.059,75.188 C64.054,56.837 78.926,41.957 97.276,41.952 C115.628,41.947 130.507,56.82 130.512,75.171 C130.512,75.176 130.512,75.182 130.512,75.188 z" fill="#FF9900" id="path2268"/>
      <path d="M52.5,41.961 C34.258,42.077 19.488,56.918 19.488,75.188 C19.488,93.528 34.373,108.414 52.715,108.414 C61.323,108.414 69.169,105.134 75.074,99.757 C75.073,99.757 75.072,99.756 75.071,99.755 L75.078,99.755 C76.287,98.654 77.415,97.465 78.451,96.197 L71.644,96.197 C70.735,95.099 69.909,93.955 69.166,92.775 L80.907,92.775 C81.621,91.632 82.268,90.446 82.841,89.217 L67.228,89.217 C66.696,88.076 66.234,86.909 65.84,85.726 L84.231,85.726 C85.34,82.414 85.941,78.87 85.941,75.187 C85.941,72.745 85.677,70.364 85.176,68.072 L64.864,68.072 C65.116,66.892 65.433,65.727 65.812,64.581 L84.211,64.581 C83.799,63.363 83.322,62.175 82.778,61.024 L67.226,61.024 C67.787,59.825 68.423,58.659 69.133,57.534 L80.865,57.534 C80.084,56.29 79.22,55.101 78.286,53.976 L71.745,53.976 C72.756,52.785 73.869,51.665 75.078,50.619 C69.173,45.242 61.324,41.961 52.715,41.961 C52.643,41.961 52.572,41.96 52.5,41.961 z" fill="#CC0000" id="path1350"/>
      <path d="M127.179,92.558 C127.359,92.558 127.535,92.604 127.707,92.697 C127.88,92.789 128.012,92.922 128.108,93.095 C128.204,93.266 128.252,93.446 128.252,93.633 C128.252,93.818 128.205,93.996 128.11,94.167 C128.016,94.338 127.883,94.471 127.712,94.566 C127.543,94.659 127.364,94.706 127.178,94.706 C126.992,94.706 126.814,94.659 126.644,94.566 C126.473,94.47 126.341,94.338 126.245,94.167 C126.15,93.996 126.104,93.818 126.104,93.633 C126.104,93.446 126.151,93.266 126.248,93.095 C126.344,92.922 126.478,92.79 126.649,92.697 C126.822,92.604 126.998,92.558 127.179,92.558 M127.179,92.736 C127.028,92.736 126.881,92.775 126.738,92.852 C126.595,92.93 126.484,93.04 126.404,93.185 C126.322,93.329 126.282,93.477 126.282,93.633 C126.282,93.788 126.321,93.937 126.4,94.079 C126.48,94.22 126.591,94.331 126.733,94.41 C126.876,94.49 127.024,94.529 127.178,94.529 C127.334,94.529 127.482,94.49 127.624,94.41 C127.766,94.331 127.877,94.22 127.956,94.079 C128.034,93.937 128.073,93.788 128.073,93.633 C128.073,93.477 128.033,93.328 127.953,93.185 C127.873,93.04 127.761,92.93 127.617,92.852 C127.475,92.774 127.329,92.736 127.179,92.736 M126.708,94.226 L126.708,93.071 L127.106,93.071 C127.241,93.071 127.339,93.081 127.4,93.104 C127.461,93.125 127.509,93.161 127.545,93.215 C127.581,93.268 127.599,93.324 127.599,93.384 C127.599,93.469 127.569,93.542 127.509,93.604 C127.449,93.667 127.369,93.702 127.269,93.71 C127.31,93.727 127.342,93.748 127.368,93.771 C127.415,93.816 127.471,93.893 127.539,94 L127.679,94.226 L127.452,94.226 L127.35,94.044 C127.269,93.901 127.205,93.812 127.155,93.775 C127.12,93.749 127.071,93.736 127.006,93.736 L126.896,93.736 L126.896,94.227 L126.708,94.227 M126.894,93.576 L127.121,93.576 C127.229,93.576 127.302,93.559 127.341,93.527 C127.381,93.494 127.401,93.452 127.401,93.399 C127.401,93.365 127.392,93.334 127.373,93.308 C127.353,93.28 127.327,93.261 127.293,93.247 C127.26,93.234 127.197,93.226 127.107,93.226 L126.895,93.226 L126.895,93.576" fill="#FCB340" id="use9412"/>
    </g>
    <g id="g16480">
      <g id="g13802">
        <path d="M63.741,84.72 L64.183,81.713 C63.941,81.713 63.586,81.817 63.271,81.817 C62.04,81.817 61.886,81.159 61.983,80.678 L63.196,74.63 L65.068,74.63 L65.454,71.216 L63.69,71.216 L64.049,69.147 L60.358,69.147 C60.28,69.225 58.27,80.781 58.27,82.188 C58.27,84.271 59.44,85.199 61.089,85.184 C62.38,85.173 63.386,84.816 63.741,84.72 z" fill="#000066" id="path13804"/>
        <path d="M64.861,78.987 C64.861,83.987 68.16,85.174 70.972,85.174 C73.568,85.174 74.928,84.573 74.928,84.573 L75.552,81.16 C75.552,81.16 73.359,82.052 71.576,82.052 C67.777,82.052 68.443,79.219 68.443,79.219 L75.742,79.241 C75.742,79.241 76.206,76.95 76.206,76.016 C76.206,73.684 74.936,70.822 71.052,70.822 C67.495,70.823 64.861,74.656 64.861,78.987 z M71.066,73.99 C73.062,73.99 72.694,76.234 72.694,76.416 L68.766,76.416 C68.766,76.184 69.137,73.99 71.066,73.99 z" fill="#000066" id="path13806"/>
        <path d="M93.467,84.719 L94.101,80.862 C94.101,80.862 92.364,81.733 91.173,81.733 C88.663,81.733 87.656,79.817 87.656,77.757 C87.656,73.581 89.815,71.283 92.219,71.283 C94.022,71.283 95.469,72.295 95.469,72.295 L96.046,68.548 C96.046,68.548 94.338,67.314 92.5,67.307 C86.971,67.285 83.807,71.135 83.807,77.79 C83.807,82.201 86.15,85.203 90.372,85.203 C91.565,85.203 93.467,84.719 93.467,84.719 z" fill="#000066" id="path13808"/>
        <path d="M44.282,70.877 C41.856,70.877 39.997,71.657 39.997,71.657 L39.483,74.704 C39.483,74.704 41.018,74.081 43.339,74.081 C44.656,74.081 45.62,74.229 45.62,75.3 C45.62,75.95 45.502,76.19 45.502,76.19 C45.502,76.19 44.463,76.103 43.981,76.103 C40.527,76.103 37.708,77.409 37.708,81.346 C37.708,84.448 39.816,85.16 41.123,85.16 C43.62,85.16 44.608,83.583 44.665,83.579 L44.636,84.887 C44.636,84.887 47.751,84.887 47.751,84.887 L49.141,75.144 C49.141,71.01 45.535,70.877 44.282,70.877 z M44.822,78.788 C44.889,79.383 44.668,82.195 42.537,82.195 C41.438,82.195 41.153,81.355 41.153,80.86 C41.153,79.891 41.679,78.729 44.271,78.729 C44.875,78.729 44.72,78.772 44.822,78.788 z" fill="#000066" id="path13810"/>
        <path d="M52.452,85.087 C53.249,85.087 57.804,85.29 57.804,80.59 C57.804,76.194 53.587,77.063 53.587,75.297 C53.587,74.419 54.275,74.142 55.531,74.142 C56.03,74.142 57.949,74.301 57.949,74.301 L58.395,71.177 C58.395,71.177 57.153,70.899 55.131,70.899 C52.514,70.899 49.857,71.944 49.857,75.518 C49.857,79.569 54.287,79.162 54.287,80.868 C54.287,82.007 53.049,82.101 52.095,82.101 C50.445,82.101 48.959,81.534 48.954,81.562 L48.482,84.654 C48.567,84.68 49.484,85.087 52.452,85.087 z" fill="#000066" id="path13812"/>
        <path d="M122.649,68.043 L122.009,72.809 C122.009,72.809 120.677,70.97 118.592,70.97 C114.67,70.97 112.649,74.879 112.649,79.368 C112.649,82.267 114.09,85.109 117.036,85.109 C119.155,85.109 120.33,83.631 120.33,83.631 L120.174,84.893 L123.616,84.893 L126.319,68.069 L122.649,68.043 z M121.129,77.306 C121.129,79.175 120.204,81.671 118.286,81.671 C117.013,81.671 116.416,80.602 116.416,78.925 C116.416,76.182 117.648,74.372 119.203,74.372 C120.476,74.372 121.129,75.246 121.129,77.306 z" fill="#000066" id="path13814"/>
        <path d="M25.127,84.906 L27.281,72.205 L27.597,84.906 L30.034,84.906 L34.581,72.205 L32.567,84.906 L36.189,84.906 L38.978,68.061 L33.224,68.017 L29.802,78.331 L29.708,68.061 L24.436,68.061 L21.607,84.906 L25.127,84.906 L25.127,84.906 z" fill="#000066" id="path13816"/>
        <path d="M79.634,84.93 C80.664,79.075 81.03,74.45 84.033,75.408 C84.465,73.142 85.493,71.171 85.962,70.211 C85.962,70.211 85.813,69.99 84.885,69.99 C83.301,69.99 81.186,73.206 81.186,73.206 L81.502,71.218 L78.207,71.218 L76,84.93 L79.634,84.93 z" fill="#000066" id="path13818"/>
        <path d="M100.877,70.877 C98.45,70.877 96.591,71.657 96.591,71.657 L96.078,74.704 C96.078,74.704 97.613,74.081 99.933,74.081 C101.25,74.081 102.214,74.229 102.214,75.3 C102.214,75.95 102.096,76.19 102.096,76.19 C102.096,76.19 101.057,76.103 100.576,76.103 C97.122,76.103 94.302,77.409 94.302,81.346 C94.302,84.448 96.411,85.16 97.717,85.16 C100.213,85.16 101.202,83.583 101.259,83.579 L101.229,84.887 L104.345,84.887 L105.735,75.144 C105.735,71.01 102.129,70.877 100.877,70.877 z M101.416,78.788 C101.483,79.383 101.262,82.195 99.131,82.195 C98.032,82.195 97.747,81.355 97.747,80.86 C97.747,79.891 98.272,78.729 100.865,78.729 C101.469,78.729 101.314,78.772 101.416,78.788 z" fill="#000066" id="path13810_1_"/>
        <path d="M109.321,84.93 C109.886,80.622 110.933,74.574 113.72,75.408 C114.151,73.141 113.735,73.147 112.808,73.147 C111.222,73.147 110.871,73.205 110.871,73.205 L111.188,71.217 L107.893,71.217 L105.687,84.93 L109.321,84.93 L109.321,84.93 z" fill="#000066" id="use14701"/>
      </g>
      <g id="g10289">
        <path d="M64.663,83.647 L65.106,80.64 C64.864,80.64 64.508,80.743 64.194,80.743 C62.962,80.743 62.827,80.089 62.905,79.605 L63.9,73.469 L65.772,73.469 L66.223,70.143 L64.459,70.143 L64.818,68.074 L61.28,68.074 C61.202,68.152 59.192,79.708 59.192,81.115 C59.192,83.198 60.361,84.126 62.011,84.111 C63.302,84.1 64.308,83.742 64.663,83.647 z" fill="#FFFFFF" id="path4157"/>
        <path d="M65.784,77.914 C65.784,82.913 69.084,84.101 71.895,84.101 C74.49,84.101 75.632,83.521 75.632,83.521 L76.255,80.109 C76.255,80.109 74.281,80.979 72.498,80.979 C68.7,80.979 69.365,78.146 69.365,78.146 L76.554,78.146 C76.554,78.146 77.019,75.854 77.019,74.92 C77.019,72.589 75.858,69.749 71.974,69.749 C68.417,69.749 65.784,73.582 65.784,77.914 z M71.988,72.917 C73.984,72.917 73.616,75.161 73.616,75.342 L69.688,75.342 C69.688,75.11 70.059,72.917 71.988,72.917 z" fill="#FFFFFF" id="path4155"/>
        <path d="M94.39,83.646 L95.023,79.789 C95.023,79.789 93.287,80.659 92.096,80.659 C89.586,80.659 88.58,78.743 88.58,76.684 C88.58,72.508 90.739,70.21 93.143,70.21 C94.945,70.21 96.392,71.222 96.392,71.222 L96.97,67.475 C96.97,67.475 94.824,66.607 92.985,66.607 C88.901,66.607 84.928,70.15 84.928,76.804 C84.928,81.216 87.074,84.13 91.295,84.13 C92.489,84.131 94.39,83.646 94.39,83.646 z" fill="#FFFFFF" id="path4151"/>
        <path d="M45.205,69.804 C42.779,69.804 40.92,70.583 40.92,70.583 L40.406,73.631 C40.406,73.631 41.941,73.007 44.261,73.007 C45.579,73.007 46.542,73.155 46.542,74.226 C46.542,74.876 46.424,75.116 46.424,75.116 C46.424,75.116 45.385,75.029 44.904,75.029 C41.844,75.029 38.63,76.335 38.63,80.272 C38.63,83.374 40.739,84.085 42.046,84.085 C44.542,84.085 45.618,82.466 45.675,82.461 L45.558,83.813 L48.674,83.813 L50.063,74.07 C50.063,69.937 46.458,69.804 45.205,69.804 z M45.963,77.736 C46.03,78.331 45.59,81.121 43.46,81.121 C42.361,81.121 42.075,80.282 42.075,79.785 C42.075,78.817 42.601,77.655 45.194,77.655 C45.797,77.655 45.861,77.72 45.963,77.736 z" fill="#FFFFFF" id="path4149"/>
        <path d="M53.374,84.014 C54.171,84.014 58.726,84.217 58.726,79.516 C58.726,75.121 54.51,75.99 54.51,74.224 C54.51,73.345 55.197,73.068 56.453,73.068 C56.952,73.068 58.871,73.227 58.871,73.227 L59.317,70.103 C59.317,70.104 58.075,69.825 56.053,69.825 C53.436,69.825 50.779,70.87 50.779,74.445 C50.779,78.495 55.209,78.089 55.209,79.795 C55.209,80.934 53.971,81.026 53.018,81.026 C51.367,81.026 49.881,80.46 49.876,80.487 L49.404,83.579 C49.49,83.605 50.406,84.014 53.374,84.014 z" fill="#FFFFFF" id="path4145"/>
        <path d="M123.695,67.001 L122.931,71.736 C122.931,71.736 121.6,69.896 119.515,69.896 C116.274,69.896 113.572,73.805 113.572,78.295 C113.572,81.194 115.013,84.034 117.959,84.034 C120.078,84.034 121.253,82.557 121.253,82.557 L121.097,83.819 L124.538,83.819 L127.241,66.995 L123.695,67.001 z M122.052,76.233 C122.052,78.102 121.127,80.598 119.208,80.598 C117.935,80.598 117.339,79.529 117.339,77.852 C117.339,75.109 118.571,73.299 120.125,73.299 C121.398,73.299 122.052,74.174 122.052,76.233 z" fill="#FFFFFF" id="path4139"/>
        <path d="M26.05,83.833 L28.203,71.132 L28.52,83.833 L30.957,83.833 L35.504,71.132 L33.49,83.833 L37.111,83.833 L39.901,66.987 L34.3,66.987 L30.812,77.323 L30.631,66.987 L25.468,66.987 L22.639,83.833 L26.05,83.833 z" fill="#FFFFFF" id="path4133"/>
        <path d="M80.557,83.856 C81.587,78 81.777,73.245 84.235,74.116 C84.665,71.849 85.08,70.972 85.549,70.013 C85.549,70.013 85.329,69.967 84.867,69.967 C83.283,69.967 82.109,72.132 82.109,72.132 L82.425,70.144 L79.131,70.144 L76.924,83.856 L80.557,83.856 z" fill="#FFFFFF" id="path4131"/>
        <path d="M102.553,69.804 C100.127,69.804 98.268,70.583 98.268,70.583 L97.755,73.631 C97.755,73.631 99.289,73.007 101.61,73.007 C102.927,73.007 103.89,73.155 103.89,74.226 C103.89,74.876 103.773,75.116 103.773,75.116 C103.773,75.116 102.733,75.029 102.252,75.029 C99.193,75.029 95.979,76.335 95.979,80.272 C95.979,83.374 98.087,84.085 99.394,84.085 C101.89,84.085 102.966,82.466 103.023,82.461 L102.907,83.813 C102.907,83.813 106.021,83.813 106.022,83.813 L107.411,74.07 C107.412,69.937 103.806,69.804 102.553,69.804 z M103.312,77.736 C103.38,78.331 102.939,81.121 100.808,81.121 C99.709,81.121 99.424,80.282 99.424,79.785 C99.424,78.817 99.95,77.655 102.542,77.655 C103.145,77.655 103.209,77.72 103.312,77.736 z" fill="#FFFFFF" id="path4149_1_"/>
        <path d="M110.259,83.856 C111.289,78 111.48,73.245 113.936,74.116 C114.367,71.849 114.783,70.972 115.252,70.013 C115.252,70.013 115.032,69.967 114.57,69.967 C112.985,69.967 111.812,72.132 111.812,72.132 L112.127,70.144 L108.833,70.144 L106.626,83.856 L110.259,83.856 z" fill="#FFFFFF" id="path4131_1_"/>
        <path d="M127.164,81.741 C127.344,81.741 127.521,81.787 127.692,81.881 C127.864,81.971 127.998,82.105 128.094,82.278 C128.19,82.449 128.237,82.628 128.237,82.815 C128.237,83 128.19,83.179 128.095,83.349 C128.001,83.52 127.869,83.654 127.698,83.748 C127.528,83.842 127.349,83.889 127.164,83.889 C126.977,83.889 126.799,83.842 126.628,83.748 C126.458,83.653 126.326,83.52 126.231,83.349 C126.135,83.179 126.088,83 126.088,82.815 C126.088,82.628 126.136,82.449 126.232,82.278 C126.329,82.105 126.463,81.972 126.635,81.881 C126.808,81.787 126.985,81.741 127.164,81.741 M127.164,81.918 C127.014,81.918 126.867,81.957 126.723,82.035 C126.58,82.112 126.469,82.222 126.388,82.367 C126.308,82.51 126.267,82.659 126.267,82.815 C126.267,82.97 126.306,83.118 126.385,83.26 C126.465,83.402 126.576,83.513 126.719,83.592 C126.861,83.67 127.009,83.71 127.164,83.71 C127.319,83.71 127.468,83.67 127.61,83.592 C127.752,83.513 127.863,83.402 127.941,83.26 C128.02,83.117 128.059,82.97 128.059,82.815 C128.059,82.659 128.019,82.51 127.939,82.367 C127.859,82.222 127.747,82.112 127.603,82.035 C127.461,81.957 127.315,81.918 127.164,81.918 M126.694,83.409 L126.694,82.253 L127.092,82.253 C127.227,82.253 127.326,82.263 127.386,82.286 C127.447,82.306 127.494,82.343 127.531,82.397 C127.568,82.45 127.586,82.506 127.586,82.566 C127.586,82.65 127.555,82.724 127.495,82.787 C127.435,82.849 127.356,82.885 127.256,82.892 C127.296,82.909 127.329,82.929 127.354,82.953 C127.4,82.998 127.457,83.075 127.525,83.182 L127.666,83.408 L127.438,83.408 L127.336,83.226 C127.255,83.083 127.19,82.994 127.141,82.957 C127.107,82.931 127.057,82.917 126.991,82.917 L126.882,82.917 L126.882,83.409 L126.694,83.409 M126.88,82.758 L127.107,82.758 C127.215,82.758 127.288,82.742 127.327,82.71 C127.367,82.678 127.387,82.635 127.387,82.581 C127.387,82.547 127.378,82.517 127.359,82.491 C127.34,82.463 127.314,82.443 127.279,82.429 C127.245,82.416 127.184,82.409 127.093,82.409 L126.881,82.409 L126.881,82.758" fill="#FFFFFF" id="text9407"/>
      </g>
    </g>
  </g>
</svg>
