<?xml version="1.0" encoding="UTF-8"?>
<!DOCTYPE svg PUBLIC "-//W3C//DTD SVG 1.1//EN" "http://www.w3.org/Graphics/SVG/1.1/DTD/svg11.dtd">
<svg version="1.1" xmlns="http://www.w3.org/2000/svg" xmlns:xlink="http://www.w3.org/1999/xlink" x="0" y="0" width="150" height="150" viewBox="0, 0, 150, 150">
  <g id="Background">
    <rect x="0" y="0" width="150" height="150" fill="transparent"/>
  </g>
  <g id="Background"/>
  <g id="Layer_1">
    <path d="M58.383,91.75 L64.077,58.334 L73.186,58.334 L67.487,91.75 z" fill="#00249F"/>
    <path d="M100.522,59.157 C98.717,58.48 95.89,57.753 92.358,57.753 C83.358,57.753 77.019,62.286 76.965,68.781 C76.914,73.583 81.49,76.261 84.946,77.86 C88.491,79.498 89.683,80.543 89.666,82.005 C89.643,84.245 86.835,85.268 84.217,85.268 C80.571,85.268 78.634,84.762 75.643,83.514 L74.469,82.983 L73.191,90.464 C75.318,91.396 79.252,92.205 83.337,92.247 C92.911,92.247 99.127,87.766 99.197,80.83 C99.232,77.028 96.805,74.136 91.55,71.751 C88.366,70.205 86.417,69.173 86.437,67.608 C86.437,66.219 88.088,64.734 91.654,64.734 C94.632,64.688 96.789,65.337 98.471,66.014 L99.287,66.4 L100.522,59.157" fill="#00249F"/>
    <path d="M123.878,58.366 L116.84,58.366 C114.66,58.366 113.028,58.961 112.071,61.137 L98.543,91.761 L108.108,91.761 C108.108,91.761 109.671,87.644 110.025,86.74 C111.071,86.74 120.362,86.754 121.69,86.754 C121.963,87.924 122.798,91.761 122.798,91.761 L131.25,91.761 L123.878,58.366 M112.647,79.905 C113.4,77.979 116.276,70.563 116.276,70.563 C116.222,70.652 117.023,68.629 117.483,67.374 L118.099,70.255 C118.099,70.255 119.842,78.232 120.207,79.904 L112.647,79.905 L112.647,79.905 z" fill="#00249F"/>
    <path d="M50.743,58.359 L41.826,81.146 L40.876,76.515 C39.216,71.177 34.044,65.393 28.262,62.497 L36.415,91.722 L46.052,91.711 L60.391,58.359 L50.743,58.359" fill="#00249F"/>
    <path d="M33.554,58.338 L18.866,58.338 L18.75,59.033 C30.177,61.799 37.737,68.484 40.876,76.515 L37.682,61.159 C37.131,59.043 35.532,58.412 33.554,58.338" fill="#FFA000"/>
  </g>
</svg>
