<?xml version="1.0" encoding="UTF-8"?>
<!DOCTYPE svg PUBLIC "-//W3C//DTD SVG 1.1//EN" "http://www.w3.org/Graphics/SVG/1.1/DTD/svg11.dtd">
<svg version="1.1" xmlns="http://www.w3.org/2000/svg" xmlns:xlink="http://www.w3.org/1999/xlink" x="0" y="0" width="200" height="200" viewBox="0, 0, 200, 200">
  <g id="Background">
    <rect x="0" y="0" width="200" height="200" fill="#000000" fill-opacity="0"/>
  </g>
  <g id="Layer_1">
    <path d="M69.048,71.572 C70.834,71.762 72.401,72.531 73.692,73.754 C76.66,76.705 76.66,81.496 73.692,84.449 C72.409,85.727 70.777,86.451 69.1,86.623 C68.015,86.819 66.968,87.291 66.067,88.045 C64.433,89.425 63.597,91.435 63.773,93.405 C63.927,95.106 63.974,97.133 63.827,98.993 C63.638,101.443 64.476,103.948 66.358,105.825 C67.718,107.175 69.407,108.042 71.183,108.262 C73.345,108.535 75.434,109.496 77.092,111.152 C81.069,115.105 81.069,121.523 77.092,125.48 C73.118,129.437 66.669,129.437 62.691,125.48 C60.971,123.765 59.993,121.591 59.766,119.356 C59.501,117.908 58.867,116.511 57.847,115.308 C55.992,113.13 53.285,112.013 50.633,112.252 C46.854,112.587 42.973,111.455 39.911,108.861 C38.848,107.977 36.722,108.083 35.449,108.688 C34.529,109.124 33.798,109.811 33.373,110.653 C32.852,111.68 32.003,112.548 30.879,113.08 C28.194,114.356 24.976,113.223 23.692,110.547 C23.436,109.938 23.339,109.777 23.219,109.003 C23.172,108.702 23.191,108.394 23.177,108.089 L23.177,107.921 C23.345,105.898 24.47,104.343 26.234,103.392 C27.399,102.839 28.663,102.741 29.825,103.021 C30.599,103.144 31.41,103.076 32.194,102.781 C33.555,102.268 35.091,101.537 34.903,99.541 C34.405,95.296 35.891,90.977 39.045,87.599 C40.266,86.289 39.86,85.319 39.39,84.507 C39.049,83.919 38.547,83.466 37.96,83.229 C37.244,82.937 36.616,82.419 36.202,81.698 C35.2,79.98 35.792,77.776 37.522,76.782 C39.25,75.785 41.462,76.375 42.462,78.096 C42.895,78.841 43.027,79.676 42.899,80.465 C42.859,80.986 42.946,81.523 43.185,82.029 C43.621,82.946 44.274,83.715 46.271,83.523 C49.913,83.174 50.419,83.137 53.833,83.606 C55.658,83.857 57.549,83.124 58.956,81.726 C59.968,80.715 60.617,79.46 60.784,78.143 C60.989,76.536 61.707,74.986 62.949,73.754 C64.195,72.521 65.84,71.74 67.592,71.572 C68.075,71.526 68.563,71.572 69.048,71.572 z M50.056,87.923 C47.049,87.727 44.367,88.68 42.193,90.745 C38.369,94.569 38.369,100.772 42.193,104.595 C46.014,108.419 52.217,108.419 56.043,104.594 C59.865,100.771 59.865,94.569 56.042,90.745 C54.773,89.515 53.191,88.54 51.448,88.158 C50.989,88.057 50.52,88.001 50.056,87.923 z" fill="#EDA02F"/>
    <path d="M86.055,90.26 L75.953,90.26 C74.75,90.26 73.711,90.697 72.842,91.565 C71.973,92.438 71.538,93.488 71.538,94.713 L71.538,100.621 C71.538,101.848 71.973,102.9 72.842,103.771 C73.711,104.639 74.75,105.076 75.953,105.076 L84.169,105.076 L84.169,102.993 L77.979,102.993 C77.444,102.993 76.853,102.809 76.487,102.441 C76.12,102.072 75.935,101.619 75.935,101.082 L75.935,94.254 C75.935,93.72 76.12,93.266 76.487,92.896 C76.853,92.527 77.303,92.343 77.837,92.343 L84.203,92.343 C84.715,92.343 85.154,92.527 85.521,92.896 C85.888,93.266 86.069,93.72 86.069,94.254 L86.069,105.076 L90.469,105.076 L90.469,94.713 C90.469,93.488 90.041,92.438 89.182,91.565 C88.324,90.697 87.283,90.26 86.055,90.26" fill="#43545A"/>
    <path d="M128.907,90.26 L118.805,90.26 C117.601,90.26 116.565,90.697 115.695,91.565 C114.824,92.438 114.39,93.488 114.39,94.713 L114.39,100.621 C114.39,101.848 114.824,102.9 115.695,103.771 C116.565,104.639 117.601,105.076 118.805,105.076 L127.021,105.076 L127.021,102.993 L120.688,102.993 C120.155,102.993 119.705,102.809 119.339,102.441 C118.972,102.072 118.789,101.619 118.789,101.082 L118.789,94.254 C118.789,93.72 118.972,93.266 119.339,92.896 C119.705,92.527 120.155,92.343 120.688,92.343 L127.057,92.343 C127.568,92.343 128.007,92.527 128.372,92.896 C128.739,93.266 128.921,93.72 128.921,94.254 L128.921,105.076 L133.322,105.076 L133.322,94.713 C133.322,93.488 132.89,92.438 132.034,91.565 C131.175,90.697 130.132,90.26 128.907,90.26" fill="#43545A"/>
    <path d="M169.438,100.722 L168.099,100.722 C167.67,100.722 167.312,100.872 167.023,101.172 C166.73,101.473 166.586,101.833 166.586,102.254 L166.586,103.541 C166.586,103.964 166.73,104.325 167.023,104.623 C167.312,104.925 167.67,105.072 168.099,105.072 L169.438,105.072 C169.863,105.072 170.226,104.925 170.527,104.623 C170.831,104.325 170.983,103.964 170.983,103.541 L170.983,102.254 C170.983,101.833 170.831,101.473 170.527,101.172 C170.226,100.872 169.863,100.722 169.438,100.722" fill="#43545A"/>
    <path d="M169.438,85.321 L168.035,85.321 C167.609,85.321 167.251,85.471 166.96,85.771 C166.67,86.073 166.586,86.434 166.586,86.855 L166.586,97.855 C166.586,98.277 166.73,98.637 167.023,98.938 C167.312,99.238 167.67,99.389 168.099,99.389 L169.438,99.389 C169.863,99.389 170.226,99.238 170.527,98.938 C170.831,98.637 170.983,98.277 170.983,97.855 L170.983,86.855 C170.983,86.434 170.831,86.073 170.527,85.771 C170.226,85.471 169.864,85.321 169.438,85.321" fill="#43545A"/>
    <path d="M110.129,90.26 L103.329,99.978 L102.21,101.582 C101.365,102.911 100.458,103.577 99.484,103.577 C98.964,103.577 98.528,103.387 98.171,103.011 C97.812,102.634 97.636,102.193 97.636,101.682 L97.636,94.711 L97.634,94.711 L97.634,91.793 C97.634,91.371 97.484,91.011 97.18,90.71 C96.88,90.41 96.516,90.26 96.091,90.26 L94.749,90.26 C94.324,90.26 93.966,90.41 93.676,90.71 C93.384,91.011 93.239,91.371 93.239,91.793 L93.239,100.652 C93.239,101.873 93.673,102.915 94.536,103.779 C95.402,104.644 96.431,105.076 97.628,105.076 L99.921,105.076 C101.561,105.076 102.669,104.975 103.246,104.771 C104.418,104.365 105.548,103.349 106.637,101.721 L114.58,90.26 L110.129,90.26" fill="#43545A"/>
    <path d="M162.559,102.994 C162.024,102.994 161.576,102.81 161.208,102.441 C160.84,102.072 160.66,101.619 160.66,101.082 L160.659,94.238 C160.659,93.729 160.788,93.288 161.155,92.908 C161.525,92.53 161.966,92.337 162.482,92.337 L164.332,92.337 L164.332,90.26 L160.604,90.26 C158.895,90.26 157.661,91.286 157.092,91.875 C157.157,91.75 157.231,91.618 157.321,91.484 C157.321,91.484 158.579,89.44 160.66,89.176 L160.66,87.867 L160.656,87.867 L160.656,86.855 C160.656,86.434 160.505,86.073 160.203,85.771 C159.9,85.471 159.536,85.321 159.113,85.321 L157.709,85.321 C157.281,85.321 156.925,85.471 156.634,85.771 C156.342,86.073 156.261,86.434 156.261,86.855 L156.261,101.011 L156.278,101.011 C156.361,102.072 156.788,102.994 157.564,103.771 C158.434,104.64 159.472,105.076 160.676,105.076 L164.806,105.076 L164.806,102.994 L162.559,102.994" fill="#43545A"/>
    <path d="M139.983,90.288 C138.735,90.288 137.686,90.673 136.841,91.445 C135.994,92.219 135.573,93.201 135.573,94.393 C135.573,95.563 135.987,96.905 136.824,97.667 C137.657,98.428 138.712,98.809 139.98,98.809 L147.754,98.809 C148.287,98.809 148.737,98.988 149.104,99.355 C149.47,99.72 149.652,100.169 149.652,100.7 L149.652,101.169 C149.652,101.675 149.47,102.112 149.104,102.478 C148.735,102.844 148.283,103.024 147.751,103.024 L141.865,103.024 C141.33,103.024 140.88,102.835 140.512,102.466 C140.144,102.097 139.964,101.643 139.964,101.108 L139.964,100.644 L135.564,100.644 C135.564,101.874 135.997,102.925 136.867,103.796 C137.737,104.666 138.776,105.076 139.979,105.076 L149.641,105.076 C150.888,105.076 151.939,104.691 152.783,103.916 C153.633,103.144 154.053,102.161 154.053,100.969 C154.053,99.801 153.636,98.653 152.801,97.89 C151.966,97.13 150.916,96.75 149.644,96.75 L141.87,96.75 C141.338,96.75 140.889,96.568 140.521,96.204 C140.155,95.838 139.973,95.39 139.973,94.86 L139.973,94.195 C139.973,93.688 140.155,93.249 140.523,92.885 C140.889,92.519 141.338,92.337 141.873,92.337 L147.751,92.338 C148.286,92.338 148.736,92.501 149.104,92.871 C149.47,93.24 149.652,93.692 149.652,94.23 L149.652,94.69 L154.053,94.69 C154.053,93.46 153.621,92.41 152.75,91.538 C151.879,90.67 150.84,90.26 149.636,90.26 L139.983,90.288" fill="#43545A"/>
    <path d="M174.329,84.605 L174.077,84.605 L174.077,83.93 C174.133,83.917 174.23,83.902 174.372,83.902 C174.708,83.902 174.864,84.045 174.864,84.261 C174.864,84.504 174.623,84.605 174.329,84.605 M174.96,84.777 L174.96,84.748 C175.228,84.662 175.437,84.477 175.437,84.189 C175.437,83.959 175.338,83.788 175.199,83.687 C175.044,83.573 174.847,83.499 174.416,83.499 C174.035,83.499 173.741,83.544 173.53,83.573 L173.53,85.926 L174.064,85.926 L174.064,84.993 L174.316,84.993 C174.609,84.993 174.751,85.107 174.793,85.352 C174.864,85.638 174.904,85.84 174.977,85.926 L175.535,85.926 C175.494,85.84 175.437,85.711 175.369,85.352 C175.297,85.036 175.183,84.849 174.96,84.777" fill="#43545A"/>
    <path d="M174.442,86.585 C173.417,86.585 172.647,85.753 172.647,84.704 C172.647,83.671 173.417,82.826 174.416,82.826 L174.429,82.826 C175.437,82.826 176.196,83.671 176.196,84.72 C176.196,85.753 175.437,86.6 174.442,86.585 M174.444,82.312 L174.429,82.312 C173.088,82.312 172.018,83.363 172.018,84.704 C172.018,86.048 173.088,87.112 174.429,87.112 C175.77,87.112 176.823,86.048 176.823,84.704 C176.823,83.363 175.77,82.312 174.444,82.312" fill="#43545A"/>
    <path d="M49.114,91.582 C45.748,91.582 43.017,94.311 43.017,97.679 C43.017,100.041 44.36,102.087 46.325,103.101 C46.765,103.347 47.271,103.487 47.81,103.487 C49.397,103.487 50.701,102.277 50.847,100.728 L49.114,100.728 C47.43,100.728 46.065,99.362 46.065,97.679 C46.065,95.994 47.43,94.63 49.114,94.63 C50.799,94.63 52.163,95.994 52.163,97.679 L52.163,102.877 C53.848,102.877 55.212,101.513 55.212,99.83 L55.212,97.679 C55.212,94.311 52.483,91.582 49.114,91.582" fill="#43545A"/>
    <path d="M128.617,120.774 C128.797,121.075 128.998,121.224 129.218,121.224 C129.622,121.224 130.065,121.039 130.555,120.67 C131.044,120.301 131.469,119.78 131.83,119.109 C132.19,118.44 132.37,117.884 132.37,117.439 C132.37,117.016 132.304,116.804 132.173,116.804 C131.494,116.804 130.731,117.302 129.885,118.294 C129.04,119.286 128.617,120.114 128.617,120.774 M127.86,116.227 C128.275,113.773 128.574,112.319 128.755,111.866 C128.938,111.414 129.254,111.186 129.705,111.186 C130.055,111.186 130.23,111.497 130.23,112.116 C130.23,112.538 130.055,113.416 129.705,114.749 C129.524,115.407 129.3,116.4 129.04,117.734 C129.57,117.029 130.147,116.457 130.773,116.023 C131.398,115.588 131.956,115.369 132.448,115.369 C132.849,115.369 133.183,115.541 133.449,115.886 C133.717,116.228 133.851,116.635 133.851,117.098 C133.851,118.415 133.346,119.651 132.336,120.807 C131.326,121.965 130.253,122.544 129.117,122.544 C128.776,122.544 128.457,122.452 128.162,122.266 C127.868,122.079 127.701,121.841 127.663,121.55 C127.646,121.394 127.614,121.288 127.566,121.236 C127.519,121.186 127.471,121.13 127.421,121.071 C127.295,120.941 127.234,120.764 127.234,120.533 C127.234,120.266 127.299,119.717 127.433,118.88 L127.86,116.227" fill="#43545A"/>
    <path d="M136.265,119.109 C136.94,118.975 137.534,118.685 138.049,118.245 C138.564,117.807 138.821,117.408 138.821,117.048 C138.821,116.907 138.783,116.788 138.703,116.693 C138.624,116.596 138.521,116.549 138.398,116.549 C138.027,116.549 137.615,116.821 137.163,117.368 C136.709,117.916 136.411,118.496 136.265,119.109 M140.564,120.242 C140.564,120.687 140.19,121.219 139.442,121.836 C138.695,122.452 137.851,122.761 136.912,122.761 C136.191,122.761 135.624,122.533 135.208,122.079 C134.795,121.625 134.586,120.991 134.586,120.181 C134.586,118.984 135.011,117.863 135.856,116.817 C136.701,115.771 137.604,115.247 138.565,115.247 C139.043,115.247 139.428,115.4 139.718,115.701 C140.008,116.005 140.153,116.366 140.153,116.786 C140.153,117.529 139.796,118.236 139.084,118.908 C138.371,119.582 137.456,120.045 136.341,120.301 C136.214,120.331 136.15,120.409 136.15,120.531 C136.15,120.737 136.241,120.933 136.423,121.118 C136.604,121.304 136.846,121.398 137.149,121.398 C138.008,121.398 138.859,120.954 139.705,120.073 C139.868,119.901 140.025,119.815 140.179,119.815 C140.435,119.815 140.564,119.959 140.564,120.242" fill="#43545A"/>
    <path d="M148.627,119.188 L148.519,120.333 C148.484,120.7 148.469,121.064 148.469,121.423 C148.469,121.747 148.498,122.123 148.558,122.55 C148.515,122.7 148.408,122.827 148.237,122.934 C148.066,123.041 147.887,123.094 147.698,123.094 C147.113,123.094 146.822,122.723 146.822,121.98 C146.822,121.65 146.912,120.864 147.097,119.623 C147.224,118.731 147.288,118.067 147.288,117.63 C147.288,117.606 147.264,117.575 147.213,117.54 C146.917,117.355 146.771,117.174 146.771,117.003 C146.771,116.78 146.935,116.539 147.264,116.279 C147.42,116.155 147.518,116.01 147.554,115.846 C147.59,115.682 147.643,115.422 147.712,115.069 C147.943,113.707 148.301,112.738 148.785,112.164 C149.269,111.588 149.885,111.302 150.632,111.302 C151.068,111.302 151.437,111.444 151.737,111.728 C152.039,112.011 152.189,112.364 152.189,112.783 C152.189,113.158 152.101,113.547 151.929,113.951 C151.756,114.354 151.528,114.557 151.246,114.557 C151.123,114.557 151.019,114.517 150.934,114.437 C150.848,114.358 150.804,114.255 150.804,114.127 L150.844,113.568 C150.844,112.902 150.705,112.572 150.427,112.572 C150.083,112.572 149.757,113.006 149.456,113.874 C149.155,114.744 149.006,115.483 149.006,116.093 C149.006,116.157 149.045,116.19 149.128,116.19 C150.01,116.19 150.635,116.185 151.001,116.177 C151.366,116.169 151.549,116.309 151.549,116.599 C151.549,116.882 151.328,117.09 150.886,117.223 C150.445,117.36 149.98,117.426 149.493,117.426 C149.163,117.455 148.95,117.484 148.852,117.508 C148.749,118.141 148.675,118.698 148.627,119.181 L148.627,119.188" fill="#43545A"/>
    <path d="M153.335,119.271 L153.444,119.064 C153.961,118.028 154.518,117.185 155.114,116.539 C155.709,115.892 156.291,115.568 156.859,115.568 C157.293,115.568 157.65,115.687 157.925,115.928 C158.201,116.166 158.338,116.451 158.338,116.779 C158.338,116.984 158.291,117.161 158.198,117.307 C158.104,117.455 157.973,117.528 157.808,117.528 C157.542,117.528 157.301,117.419 157.083,117.201 C156.928,117.061 156.807,116.989 156.717,116.989 C156.398,116.989 155.861,117.487 155.111,118.482 C154.358,119.478 153.905,120.597 153.753,121.838 C153.706,122.197 153.601,122.449 153.438,122.593 C153.275,122.734 153.055,122.807 152.779,122.807 C152.482,122.807 152.275,122.638 152.149,122.302 C152.027,121.968 151.965,121.42 151.965,120.66 C151.965,120.348 151.973,119.927 151.99,119.398 C152.007,118.898 152.058,118.289 152.138,117.566 C152.159,117.378 152.176,117.232 152.182,117.124 C152.222,116.706 152.264,116.417 152.313,116.264 C152.362,116.108 152.477,115.962 152.656,115.825 C152.837,115.687 153.035,115.619 153.253,115.619 C153.483,115.619 153.658,115.687 153.777,115.818 C153.897,115.951 153.957,116.095 153.957,116.253 C153.957,116.455 153.862,116.87 153.668,117.503 C153.601,117.72 153.544,117.98 153.496,118.284 L153.335,119.271" fill="#43545A"/>
    <path d="M159.888,119.109 C160.563,118.975 161.158,118.685 161.672,118.245 C162.187,117.807 162.444,117.408 162.444,117.048 C162.444,116.907 162.404,116.788 162.326,116.693 C162.247,116.596 162.145,116.549 162.022,116.549 C161.65,116.549 161.239,116.821 160.786,117.368 C160.332,117.916 160.034,118.496 159.888,119.109 M164.187,120.242 C164.187,120.687 163.814,121.219 163.065,121.836 C162.318,122.452 161.474,122.761 160.535,122.761 C159.814,122.761 159.246,122.533 158.831,122.079 C158.418,121.625 158.209,120.991 158.209,120.181 C158.209,118.984 158.634,117.863 159.479,116.817 C160.324,115.771 161.228,115.247 162.188,115.247 C162.665,115.247 163.051,115.4 163.341,115.701 C163.631,116.005 163.776,116.366 163.776,116.786 C163.776,117.529 163.419,118.236 162.707,118.908 C161.994,119.582 161.079,120.045 159.964,120.301 C159.837,120.331 159.773,120.409 159.773,120.531 C159.773,120.737 159.864,120.933 160.046,121.118 C160.226,121.304 160.469,121.398 160.772,121.398 C161.63,121.398 162.482,120.954 163.328,120.073 C163.491,119.901 163.648,119.815 163.802,119.815 C164.059,119.815 164.187,119.959 164.187,120.242" fill="#43545A"/>
    <path d="M166.684,119.109 C167.359,118.975 167.953,118.685 168.468,118.245 C168.983,117.807 169.238,117.408 169.238,117.048 C169.238,116.907 169.201,116.788 169.122,116.693 C169.043,116.596 168.94,116.549 168.817,116.549 C168.447,116.549 168.034,116.821 167.581,117.368 C167.127,117.916 166.83,118.496 166.684,119.109 M170.981,120.242 C170.981,120.687 170.608,121.219 169.862,121.836 C169.114,122.452 168.269,122.761 167.333,122.761 C166.61,122.761 166.041,122.533 165.628,122.079 C165.212,121.625 165.006,120.991 165.006,120.181 C165.006,118.984 165.428,117.863 166.274,116.817 C167.12,115.771 168.023,115.247 168.984,115.247 C169.461,115.247 169.846,115.4 170.136,115.701 C170.427,116.005 170.573,116.366 170.573,116.786 C170.573,117.529 170.215,118.236 169.502,118.908 C168.791,119.582 167.874,120.045 166.761,120.301 C166.633,120.331 166.569,120.409 166.569,120.531 C166.569,120.737 166.66,120.933 166.841,121.118 C167.023,121.304 167.265,121.398 167.568,121.398 C168.427,121.398 169.278,120.954 170.124,120.073 C170.287,119.901 170.444,119.815 170.599,119.815 C170.854,119.815 170.981,119.959 170.981,120.242" fill="#43545A"/>
  </g>
</svg>
