<?xml version="1.0" encoding="UTF-8"?>
<svg version="1.1" xmlns="http://www.w3.org/2000/svg" xmlns:xlink="http://www.w3.org/1999/xlink" viewBox="0, 0, 500, 500">
  <g id="Layer_1">
    <path d="M373.7,57.117 C437.574,57.117 460.289,79.055 460.289,149.141 C460.289,223.888 466.308,244.079 490.576,245.632 L492.517,245.632 L492.517,252.815 L490.576,252.815 C466.308,254.756 460.289,275.141 460.289,349.499 C460.289,422.692 437.574,442.883 373.7,442.883 L373.7,435.312 C397.58,434.923 403.21,427.741 403.21,349.499 C403.21,278.248 440.875,258.057 481.451,249.32 C457.902,244.242 437.954,235.762 422.301,217.209 C420.108,214.61 416.236,208.498 415.133,206.163 C405.525,185.807 403.942,171.233 403.21,149.141 C403.21,73.814 397.58,65.465 373.7,64.688 z z" fill="#FFFFFF"/>
    <path d="M126.3,57.117 L126.3,64.688 C102.42,65.465 96.79,73.814 96.79,149.141 C96.79,220.587 59.126,240.583 18.549,249.32 C42.423,254.329 66.279,264.502 80.472,285.287 C93.37,304.178 96.416,327.159 96.79,349.499 C96.79,427.741 102.42,434.923 126.3,435.312 L126.3,442.883 C62.426,442.883 39.711,422.692 39.711,349.499 C39.711,275.141 33.692,254.756 9.424,252.815 L7.483,252.815 L7.483,245.632 L9.424,245.632 C33.692,244.079 39.711,223.888 39.711,149.141 C39.711,79.055 62.426,57.117 126.3,57.117 z z" fill="#FFFFFF"/>
    <path d="M362.193,110.789 C360.252,134.863 359.474,159.325 359.474,171.168 C359.474,183.011 359.863,194.078 360.64,201.454 L351.515,201.454 C341.031,139.716 320.258,119.913 283.176,119.913 L269.974,119.913 C246.87,119.913 242.6,123.408 242.6,148.259 L242.599,248.438 L256.578,248.438 C288.417,248.438 299.678,217.375 303.755,195.824 L313.074,195.824 C311.909,213.297 311.521,225.14 311.521,234.459 C311.521,241.254 311.716,246.885 311.716,252.321 C311.716,265.522 312.103,278.531 314.239,308.817 L305.114,308.817 C300.844,281.055 288.417,256.398 256.578,256.398 L242.599,256.398 L242.599,347.84 C242.6,378.904 249.783,383.175 285.118,383.562 L285.118,392.299 C268.809,391.717 241.046,391.135 212.701,391.135 C189.792,391.135 166.883,391.717 149.604,392.299 L149.604,384.34 C174.842,383.175 179.308,379.097 179.308,350.17 L179.308,152.918 C179.308,123.991 174.649,119.913 149.604,118.749 L149.604,110.789 C192.898,111.954 252.501,111.954 279.098,111.954 C303.367,111.954 337.73,111.954 362.193,110.789 z z" fill="#FFFFFF"/>
  </g>
</svg>
