<?xml version="1.0" encoding="UTF-8"?>
<!DOCTYPE svg PUBLIC "-//W3C//DTD SVG 1.1//EN" "http://www.w3.org/Graphics/SVG/1.1/DTD/svg11.dtd">
<svg version="1.1" xmlns="http://www.w3.org/2000/svg" xmlns:xlink="http://www.w3.org/1999/xlink" x="0" y="0" width="200" height="200" viewBox="0, 0, 200, 200">
  <g id="Background">
    <rect x="0" y="0" width="200" height="200" fill="#000000" fill-opacity="0"/>
  </g>
  <g id="Layer_1">
    <path d="M91.222,45.01 L70.266,45.01 L70.266,55.429 L112.542,55.429 C109.488,48.311 101.445,45.01 91.222,45.01 z M111.111,71.755 L70.266,71.755 L70.266,61.373 L113.848,61.373 C113.869,61.778 113.879,62.19 113.875,62.611 C113.838,66.474 112.914,69.452 111.111,71.755 z M70.266,77.699 L70.266,88.063 L108.339,88.063 L101.964,77.699 L70.266,77.699 z M70.266,94.007 L111.996,94.007 L118.417,104.444 L70.266,104.444 L70.266,94.007" fill="#001647"/>
    <path d="M129.051,117.045 L125.687,117.045 L123.835,124.569 L121.808,117.045 L118.359,117.045 L121.592,126.099 C121.764,126.595 122.045,127.155 122.045,127.694 C122.045,128.061 121.872,128.599 121.571,128.836 C121.268,129.075 120.6,129.117 120.233,129.117 C119.953,129.117 119.674,129.096 119.393,129.096 L119.393,131.597 C119.674,131.597 119.953,131.64 120.233,131.64 C121.613,131.64 123.361,131.727 124.307,130.541 C124.761,129.958 125.128,128.836 125.365,128.126 L129.051,117.045 z M127.716,112.346 L123.916,112.346 L122.369,115.563 L124.834,115.563 L127.716,112.346 z M82.977,123.124 L79.421,122.888 C79.399,124.612 77.783,125.689 76.166,125.689 C75.303,125.689 74.484,125.409 73.816,124.87 C72.523,123.792 72.264,122.089 72.264,120.515 C72.264,117.994 73.277,115.493 76.166,115.493 C77.351,115.493 78.408,115.945 79.011,117.024 C79.141,117.283 79.27,117.542 79.335,117.821 L82.762,117.585 C82.719,117.217 82.612,116.894 82.504,116.55 C81.599,113.854 78.904,112.626 76.209,112.626 C71.445,112.626 68.578,115.88 68.578,120.538 C68.578,123.728 70.088,126.854 73.169,128.061 C74.117,128.427 75.152,128.555 76.166,128.555 C78.645,128.555 80.951,127.651 82.223,125.43 C82.633,124.719 82.892,123.922 82.977,123.124 M94.812,123.555 L94.812,123.016 C94.812,119.568 93.045,116.722 89.315,116.722 C85.888,116.722 83.668,119.286 83.668,122.628 C83.668,126.056 85.779,128.535 89.315,128.535 C91.773,128.535 93.886,127.37 94.683,124.978 L91.492,124.763 C91.018,125.604 90.394,125.948 89.402,125.948 C87.936,125.948 87.181,124.935 86.987,123.555 L94.812,123.555 z M91.472,121.142 L87.009,121.142 C87.354,119.869 88.043,119.223 89.402,119.223 C90.544,119.223 91.363,120.019 91.472,121.142 M105.958,124.784 C105.958,121.981 103.198,121.485 101.042,121.033 C100.461,120.904 99.145,120.752 99.145,119.955 C99.145,119.158 100.093,119.051 100.697,119.051 C101.302,119.051 101.99,119.265 102.379,119.761 C102.551,119.977 102.616,120.408 102.66,120.667 L105.634,120.515 C105.504,117.778 103.198,116.722 100.74,116.722 C98.477,116.722 96.084,117.627 96.084,120.257 C96.084,124.719 102.724,123.103 102.724,125.108 C102.724,125.992 101.818,126.143 101.128,126.143 C99.706,126.143 98.951,125.733 98.757,124.288 L95.74,124.396 C95.74,124.763 95.761,125.064 95.847,125.43 C96.407,127.738 98.778,128.535 100.913,128.535 C103.349,128.535 105.958,127.672 105.958,124.784 M118.632,128.212 L114.02,121.27 L118.33,117.045 L114.213,117.045 L110.765,120.861 L110.765,112.993 L107.595,112.993 L107.595,128.212 L110.765,128.212 L110.765,124.503 L111.799,123.468 L114.602,128.212 L118.632,128.212 z M77.595,111.664 L73.893,111.664 L71.903,109.151 L74.814,109.151 L75.776,110.608 L76.695,109.151 L79.651,109.151 L77.595,111.664" fill="#001647"/>
    <path d="M89.673,148.668 L89.673,146.296 L95.191,140.132 L90.298,140.132 L90.298,137.501 L99.137,137.501 L99.137,140.066 L93.79,146.037 L99.504,146.037 L99.504,148.668 L89.673,148.668 z M107.932,148.668 L107.932,142.416 C107.932,141.704 107.975,140.842 107.394,140.325 C107.092,140.045 106.682,139.936 106.272,139.936 C105.798,139.936 105.41,140.066 105.043,140.368 C104.288,140.993 104.333,142.049 104.333,142.933 L104.333,148.668 L101.184,148.668 L101.184,133.448 L104.333,133.448 L104.333,138.643 C104.828,137.759 106.423,137.242 107.371,137.242 C108.106,137.242 108.988,137.436 109.592,137.867 C110.885,138.794 111.1,140.045 111.1,141.532 L111.1,148.668 L107.932,148.668 z M113.3,133.448 L116.468,133.448 L116.468,148.668 L113.3,148.668 z M140.374,145.24 C140.374,142.437 137.616,141.941 135.46,141.49 C134.878,141.36 133.563,141.209 133.563,140.411 C133.563,139.614 134.512,139.506 135.115,139.506 C135.72,139.506 136.407,139.722 136.796,140.217 C136.968,140.432 137.034,140.863 137.077,141.122 L140.051,140.971 C139.921,138.234 137.616,137.177 135.158,137.177 C132.895,137.177 130.501,138.083 130.501,140.712 C130.501,145.175 137.141,143.559 137.141,145.563 C137.141,146.447 136.237,146.598 135.546,146.598 C134.124,146.598 133.369,146.188 133.176,144.745 L130.157,144.851 C130.157,145.218 130.178,145.52 130.264,145.886 C130.825,148.193 133.196,148.99 135.33,148.99 C137.766,148.99 140.374,148.129 140.374,145.24 M128.582,142.444 C128.582,141.537 128.624,140.243 128.277,139.403 C127.459,137.461 125.367,137.16 123.513,137.16 C120.99,137.16 118.898,138.238 118.747,141.021 L121.681,141.021 C121.636,139.92 122.758,139.619 123.643,139.619 C124.31,139.619 125.346,139.79 125.346,140.653 C125.346,141.452 124.181,141.495 123.621,141.58 C121.205,141.926 118.122,142.207 118.122,145.376 C118.122,147.64 119.847,148.977 122.003,148.977 C123.598,148.977 124.29,148.503 125.518,147.64 L125.541,148.653 L128.583,148.653 L128.582,142.444 z M125.431,145.031 C124.893,145.958 123.879,146.476 122.822,146.476 C122.089,146.476 121.334,146.13 121.334,145.29 C121.334,143.844 123.643,143.824 124.655,143.565 C124.914,143.5 125.172,143.414 125.431,143.306 L125.431,145.031 z M76.819,140.206 L76.819,137.317 C76.626,137.295 76.452,137.274 76.258,137.274 C74.75,137.274 73.909,137.92 73.37,139.321 L73.37,137.49 L70.266,137.49 L70.266,148.655 L73.522,148.655 L73.522,145.013 C73.522,144.452 73.522,143.87 73.542,143.31 C73.585,141.499 73.845,140.141 76.065,140.141 C76.323,140.141 76.561,140.162 76.819,140.206 M88.891,143.029 C88.891,139.688 86.735,137.165 83.308,137.165 C79.685,137.165 77.336,139.516 77.336,143.138 C77.336,146.565 79.514,148.979 83.005,148.979 C86.476,148.979 88.891,146.478 88.891,143.029 M85.636,142.9 C85.636,144.56 85.075,146.392 83.114,146.392 C81.195,146.392 80.59,144.625 80.59,143.008 C80.59,141.348 81.238,139.71 83.156,139.71 C85.032,139.71 85.636,141.304 85.636,142.9" fill="#001647"/>
  </g>
</svg>
