<?xml version="1.0" encoding="UTF-8"?>
<!DOCTYPE svg PUBLIC "-//W3C//DTD SVG 1.1//EN" "http://www.w3.org/Graphics/SVG/1.1/DTD/svg11.dtd">
<svg version="1.1" xmlns="http://www.w3.org/2000/svg" xmlns:xlink="http://www.w3.org/1999/xlink" x="0" y="0" width="200" height="200" viewBox="0, 0, 200, 200">
  <g id="Background">
    <rect x="0" y="0" width="200" height="200" fill="#000000" fill-opacity="0"/>
  </g>
  <g id="Layer_1">
    <path d="M116.656,86.032 C117.438,86.032 118.327,86.032 119.269,86.032 C122.32,86.032 125.897,86.032 128.008,86.032 C130.832,86.032 130.796,87.573 130.772,89.806 C130.747,91.898 130.426,94.993 129.52,99.242 C128.634,103.415 127.723,106.49 126.846,108.674 C126.191,110.311 125.561,111.438 125.02,112.171 C124.185,113.272 123.71,113.503 123.172,113.71 C122.627,113.907 121.789,113.978 120.513,113.968 C114.231,113.968 78.722,113.968 72.535,113.968 C69.776,113.968 69.204,113.325 69.204,111.35 C69.206,110.099 69.411,108.28 69.92,105.894 C70.463,103.332 70.823,102.748 71.471,101.387 C72.469,99.332 73.346,98.577 74.157,98.124 C74.977,97.678 76.041,97.481 77.595,97.481 L92.489,97.481 L94.043,90.169 L77.595,90.169 C76.183,90.169 74.656,90.276 73.068,90.724 C71.88,91.063 70.665,91.603 69.535,92.399 C67.836,93.59 66.387,95.314 65.242,97.496 C64.093,99.69 63.48,101.031 62.766,104.372 C62.191,107.087 61.897,109.347 61.892,111.35 C61.897,113.018 62.099,114.533 62.644,115.948 C63.051,117.002 63.679,117.988 64.483,118.767 C65.69,119.956 67.176,120.589 68.532,120.9 C69.903,121.217 71.22,121.278 72.535,121.283 C78.722,121.28 114.231,121.28 120.513,121.283 C121.728,121.275 123.214,121.28 124.908,120.822 C126.17,120.484 127.511,119.844 128.707,118.86 C130.516,117.375 131.955,115.263 133.219,112.385 C134.485,109.495 135.605,105.767 136.674,100.758 C137.641,96.191 138.081,92.67 138.084,89.806 C138.081,87.719 137.852,85.961 137.307,84.391 C136.898,83.217 136.284,82.146 135.473,81.284 C134.258,79.971 132.683,79.287 131.378,79.007 C130.053,78.717 128.916,78.725 128.008,78.72 C123.788,78.72 113.708,78.72 113.695,78.72 L110.734,78.72 L104.114,109.843 L111.589,109.843 L116.656,86.032" fill="#083566"/>
    <path d="M145.961,78.264 C144.816,75.946 143.265,74.086 141.532,72.706 C138.921,70.624 135.99,69.623 133.348,69.124 C130.701,68.627 128.271,68.61 126.508,68.607 C123.187,68.607 117.993,68.607 113.63,68.607 C109.266,68.607 105.74,68.607 105.733,68.607 L102.77,68.607 L93.999,109.843 L101.477,109.843 L108.692,75.92 C113.201,75.92 121.765,75.92 126.508,75.92 C127.996,75.92 129.695,75.946 131.368,76.205 C132.622,76.394 133.847,76.713 134.943,77.2 C136.589,77.95 137.94,78.988 139.05,80.846 C140.144,82.711 141.001,85.562 141.003,89.984 C141.003,92.56 140.709,95.652 140.012,99.319 C138.758,105.947 137.205,110.815 135.534,114.307 C134.28,116.929 132.973,118.775 131.682,120.094 C129.737,122.057 127.845,122.955 125.617,123.501 C123.396,124.032 120.832,124.088 118.022,124.08 C108.136,124.08 80.921,124.08 71.184,124.08 C68.101,124.088 64.967,123.252 62.812,121.465 C61.719,120.567 60.813,119.439 60.131,117.883 C59.452,116.33 58.999,114.316 58.999,111.672 C58.999,109.984 59.184,108.044 59.618,105.838 C60.541,101.129 61.49,98.867 62.851,96.176 C64.911,92.134 67.161,90.108 69.428,88.905 C71.702,87.719 74.171,87.357 76.716,87.357 L94.639,87.357 L96.195,80.044 L76.716,80.044 C74.568,80.044 72.192,80.244 69.737,80.95 C66.056,81.99 62.238,84.284 59.172,88.306 C56.089,92.324 53.978,96.609 52.442,104.43 C51.931,107.038 51.687,109.444 51.685,111.672 C51.685,115.151 52.291,118.207 53.431,120.813 C55.125,124.733 58.052,127.509 61.261,129.135 C64.48,130.779 67.95,131.39 71.184,131.393 C80.921,131.393 108.136,131.393 118.022,131.393 C120.559,131.39 123.318,131.383 126.209,130.845 C128.373,130.443 130.618,129.72 132.778,128.454 C136.031,126.559 138.965,123.481 141.351,119.006 C143.747,114.521 145.688,108.623 147.198,100.681 C147.96,96.651 148.315,93.115 148.315,89.984 C148.318,85.226 147.492,81.364 145.961,78.264" fill="#083566"/>
    <path d="M99.222,68.607 L67.042,68.607 L65.486,75.92 C65.486,75.92 80.334,75.92 90.532,75.92 C98.219,75.92 99.222,68.607 99.222,68.607" fill="#083566"/>
  </g>
</svg>
