<?xml version="1.0" encoding="UTF-8"?>
<!DOCTYPE svg PUBLIC "-//W3C//DTD SVG 1.1//EN" "http://www.w3.org/Graphics/SVG/1.1/DTD/svg11.dtd">
<svg version="1.1" xmlns="http://www.w3.org/2000/svg" xmlns:xlink="http://www.w3.org/1999/xlink" x="0" y="0" width="200" height="200" viewBox="0, 0, 200, 200">
  <g id="Background">
    <rect x="0" y="0" width="200" height="200" fill="#000000" fill-opacity="0"/>
  </g>
  <g id="Layer_2">
    <path d="M68.713,90.53 L68.289,92.985 C67.501,92.586 66.672,92.287 65.804,92.087 C64.936,91.887 64.047,91.787 63.144,91.787 C60.638,91.787 58.632,92.546 57.124,94.063 C55.617,95.576 54.864,97.582 54.864,100.083 C54.864,102.538 55.617,104.5 57.124,105.966 C58.632,107.434 60.648,108.168 63.173,108.168 C63.747,108.168 64.306,108.117 64.856,108.023 C65.399,107.923 65.938,107.774 66.463,107.569 L66.463,101.25 L62.12,101.25 L62.12,98.984 L67.219,98.984 L67.22,98.985 L67.828,98.985 C68.624,98.985 69.282,99.643 69.282,100.44 L69.282,101.168 L69.282,101.168 L69.282,109.396 C68.319,109.755 67.306,110.029 66.248,110.209 C65.19,110.389 64.082,110.478 62.924,110.478 C59.51,110.478 56.81,109.54 54.814,107.664 C52.822,105.787 51.824,103.242 51.824,100.022 C51.824,96.823 52.832,94.273 54.844,92.371 C56.855,90.47 59.57,89.522 62.979,89.522 C63.947,89.522 64.906,89.606 65.864,89.771 C66.817,89.936 67.77,90.19 68.713,90.53 z M50.111,89.612 L50.111,91.878 L42.275,91.878 L42.275,98.53 L49.791,98.53 L49.791,100.871 L42.275,100.871 L42.275,110.389 L39.365,110.389 C39.365,103.949 39.365,97.511 39.365,91.071 C39.365,90.275 40.028,89.612 40.825,89.612 C43.916,89.612 47.017,89.612 50.111,89.612 z M34.679,75.443 L63.336,75.443 L33.246,78.45 C31.772,78.598 30.521,79.418 29.768,80.577 L29.768,80.355 C29.768,77.653 31.977,75.443 34.679,75.443 z M34.902,124.557 L34.679,124.557 C31.977,124.557 29.768,122.347 29.768,119.646 L29.768,90.99 L32.774,121.079 C32.922,122.553 33.743,123.804 34.902,124.557 z M78.88,119.42 L78.88,119.646 C78.88,122.347 76.67,124.557 73.969,124.557 L45.312,124.557 L75.402,121.55 C76.876,121.403 78.127,120.579 78.88,119.42 z M73.744,75.443 L73.969,75.443 C76.67,75.443 78.88,77.653 78.88,80.355 L78.88,109.013 L75.873,78.922 C75.726,77.447 74.903,76.196 73.744,75.443" fill="#DC3E3D"/>
    <path d="M112.805,97.483 C111.616,97.483 110.649,97.951 109.91,98.887 C109.171,99.822 108.801,101.056 108.801,102.583 C108.801,104.098 109.171,105.323 109.91,106.258 C110.649,107.193 111.616,107.661 112.805,107.661 C114.012,107.661 114.983,107.198 115.714,106.276 C116.444,105.354 116.81,104.125 116.81,102.583 C116.81,101.038 116.444,99.8 115.714,98.873 C114.983,97.947 114.012,97.483 112.805,97.483 z M112.779,95.577 C114.841,95.577 116.466,96.205 117.651,97.461 C118.84,98.722 119.433,100.436 119.433,102.61 C119.433,104.766 118.836,106.481 117.638,107.746 C116.444,109.011 114.823,109.643 112.779,109.643 C110.734,109.643 109.117,109.011 107.932,107.75 C106.743,106.49 106.151,104.775 106.151,102.61 C106.151,100.436 106.743,98.722 107.932,97.461 C109.117,96.205 110.734,95.577 112.779,95.577" fill="#9E9F9E"/>
    <path d="M129.26,95.747 L129.179,98.125 C128.983,98.063 128.801,98.023 128.631,98 C128.467,97.978 128.302,97.969 128.137,97.969 C127.001,97.969 126.119,98.37 125.505,99.167 C124.886,99.969 124.578,101.109 124.578,102.588 L124.578,109.318 L122.098,109.318 L122.098,95.902 L124.342,95.902 L124.342,98.66 C124.716,97.684 125.238,96.94 125.901,96.428 C126.565,95.916 127.34,95.658 128.217,95.658 C128.365,95.658 128.525,95.666 128.698,95.684 C128.872,95.702 129.059,95.72 129.26,95.747" fill="#9E9F9E"/>
    <path d="M138.151,95.747 L138.071,98.125 C137.875,98.063 137.692,98.023 137.523,98 C137.358,97.978 137.193,97.969 137.029,97.969 C135.893,97.969 135.011,98.37 134.396,99.167 C133.777,99.969 133.47,101.109 133.47,102.588 L133.47,109.318 L130.989,109.318 L130.989,95.902 L133.234,95.902 L133.234,98.66 C133.608,97.684 134.129,96.94 134.793,96.428 C135.456,95.916 136.231,95.658 137.109,95.658 C137.256,95.658 137.416,95.666 137.59,95.684 C137.764,95.702 137.951,95.72 138.151,95.747" fill="#9E9F9E"/>
    <path d="M150.766,102.183 L150.766,103.198 L141.266,103.198 C141.363,104.632 141.822,105.746 142.642,106.543 C143.466,107.34 144.579,107.737 145.978,107.737 C146.597,107.737 147.207,107.657 147.817,107.496 C148.427,107.336 149.051,107.082 149.697,106.744 L149.697,108.886 C149.105,109.14 148.459,109.327 147.759,109.452 C147.06,109.581 146.285,109.643 145.443,109.643 C143.408,109.643 141.8,109.002 140.628,107.719 C139.452,106.436 138.865,104.69 138.865,102.481 C138.865,100.41 139.439,98.74 140.593,97.475 C141.746,96.21 143.252,95.577 145.114,95.577 C146.873,95.577 148.254,96.165 149.261,97.341 C150.263,98.512 150.766,100.129 150.766,102.183 z M148.432,101.541 C148.343,100.2 148,99.172 147.403,98.455 C146.802,97.738 145.996,97.377 144.984,97.377 C143.987,97.377 143.158,97.751 142.508,98.495 C141.853,99.238 141.461,100.254 141.332,101.541 z" fill="#9E9F9E"/>
    <path d="M160.321,96.254 L160.218,98.281 C159.675,98.027 159.123,97.835 158.553,97.706 C157.982,97.577 157.408,97.51 156.824,97.51 C156.147,97.51 155.6,97.648 155.194,97.929 C154.784,98.205 154.58,98.575 154.58,99.038 C154.58,99.448 154.749,99.813 155.083,100.134 C155.417,100.454 156.116,100.864 157.176,101.358 C158.584,102.013 159.555,102.646 160.085,103.265 C160.615,103.879 160.882,104.623 160.882,105.496 C160.882,106.712 160.392,107.679 159.412,108.396 C158.437,109.113 157.109,109.474 155.439,109.474 C154.829,109.474 154.228,109.416 153.631,109.305 C153.034,109.193 152.459,109.024 151.903,108.81 L151.983,106.721 C152.589,107.024 153.199,107.256 153.8,107.407 C154.406,107.558 154.985,107.634 155.542,107.634 C156.361,107.634 157.012,107.456 157.493,107.104 C157.978,106.752 158.219,106.276 158.219,105.679 C158.219,105.233 158.076,104.851 157.787,104.53 C157.501,104.209 156.833,103.79 155.778,103.278 C154.37,102.588 153.404,101.951 152.882,101.358 C152.361,100.766 152.099,100.071 152.099,99.27 C152.099,98.219 152.544,97.368 153.43,96.717 C154.317,96.072 155.502,95.747 156.98,95.747 C157.519,95.747 158.072,95.787 158.633,95.871 C159.194,95.951 159.755,96.08 160.321,96.254" fill="#9E9F9E"/>
    <path d="M166.892,91.756 L166.892,95.902 L170.103,95.902 L170.103,97.795 L166.892,97.795 L166.892,104.753 C166.892,105.795 167.043,106.534 167.351,106.975 C167.653,107.416 168.152,107.634 168.847,107.634 C169.021,107.634 169.221,107.612 169.448,107.563 C169.676,107.514 169.929,107.438 170.205,107.336 L170.232,109.291 C169.903,109.38 169.569,109.447 169.235,109.487 C168.896,109.532 168.558,109.554 168.21,109.554 C166.852,109.554 165.881,109.202 165.293,108.503 C164.705,107.804 164.411,106.632 164.411,104.984 L164.411,97.795 L161.712,97.795 L161.712,95.902 L164.491,95.902 L164.491,92.589 z" fill="#9E9F9E"/>
    <path d="M104.843,90.776 L104.843,92.798 L97.851,92.798 L97.851,98.735 L104.558,98.735 L104.558,100.824 L97.851,100.824 L97.851,109.318 L95.254,109.318 C95.254,103.571 95.252,97.825 95.252,92.078 C95.252,91.367 95.839,90.774 96.55,90.774 C99.309,90.774 102.082,90.776 104.843,90.776" fill="#9E9F9E"/>
  </g>
</svg>
