<?xml version="1.0" encoding="UTF-8"?>
<!DOCTYPE svg PUBLIC "-//W3C//DTD SVG 1.1//EN" "http://www.w3.org/Graphics/SVG/1.1/DTD/svg11.dtd">
<svg version="1.1" xmlns="http://www.w3.org/2000/svg" xmlns:xlink="http://www.w3.org/1999/xlink" x="0" y="0" width="200" height="200" viewBox="0, 0, 200, 200">
  <g id="Background">
    <rect x="0" y="0" width="200" height="200" fill="#000000" fill-opacity="0"/>
  </g>
  <g id="Layer_1">
    <g>
      <path d="M42.507,121.534 C30.636,121.534 20.972,111.93 20.972,100 C20.972,88.128 30.636,78.466 42.507,78.466 C54.376,78.466 64.04,88.128 64.04,100 C64.04,111.93 54.376,121.534 42.507,121.534 M42.507,79.48 C31.174,79.48 21.986,88.666 21.986,100 C21.986,111.333 31.174,120.519 42.507,120.519 C53.841,120.519 63.026,111.333 63.026,100 C63.026,88.727 53.841,79.48 42.507,79.48 M60.754,106.139 C60.746,106.157 60.711,106.183 60.645,106.16 C60.595,106.142 60.577,106.117 60.581,106.083 C60.584,106.05 61.303,103.927 61.296,101.492 C61.289,98.866 60.221,97.254 58.853,97.254 C58.016,97.254 57.42,97.853 57.42,98.747 C57.42,100.359 59.387,100.478 59.387,103.997 C59.387,105.429 59.09,106.8 58.611,108.291 C56.406,115.747 49.367,119.208 42.507,119.208 C39.345,119.208 37.098,118.557 36.429,118.257 C36.4,118.243 36.378,118.193 36.4,118.135 C36.416,118.098 36.461,118.066 36.488,118.076 C36.758,118.185 38.688,118.79 41.075,118.79 C43.699,118.79 45.25,117.716 45.25,116.405 C45.25,115.57 44.595,114.913 43.76,114.913 C42.148,114.913 42.028,116.94 38.569,116.94 C37.077,116.94 35.766,116.641 34.215,116.166 C26.817,113.897 23.293,106.919 23.299,100 C23.301,96.628 24.245,93.946 24.261,93.921 C24.271,93.901 24.316,93.884 24.368,93.901 C24.421,93.921 24.435,93.963 24.431,93.979 C24.343,94.259 23.717,96.182 23.717,98.567 C23.717,101.194 24.79,102.745 26.161,102.745 C26.937,102.745 27.595,102.149 27.595,101.312 C27.595,99.702 25.625,99.523 25.625,96.061 C25.625,94.571 25.923,93.257 26.4,91.708 C28.668,84.312 35.648,80.844 42.507,80.792 C45.695,80.767 48.485,81.722 48.592,81.806 C48.61,81.822 48.631,81.864 48.61,81.913 C48.587,81.968 48.55,81.976 48.53,81.972 C48.496,81.968 46.682,81.211 43.937,81.211 C41.373,81.209 39.763,82.284 39.763,83.654 C39.763,84.431 40.358,85.086 41.252,85.086 C42.865,85.086 42.985,83.118 46.443,83.118 C47.934,83.118 49.246,83.416 50.797,83.893 C58.254,86.162 61.649,93.199 61.712,100 C61.746,103.483 60.765,106.117 60.754,106.139 M50.499,101.015 C48.471,101.015 46.921,102.504 46.921,104.296 C46.921,105.787 47.815,106.98 49.008,106.98 C49.426,106.98 49.844,106.741 49.844,106.204 C49.844,105.429 48.816,105.24 48.894,104.08 C48.946,103.316 49.666,102.803 50.38,102.803 C51.811,102.803 52.481,104.191 52.481,105.622 C52.422,107.829 50.797,109.365 48.889,109.365 C46.384,109.365 44.775,106.98 44.775,104.414 C44.775,100.597 47.277,99.104 48.592,98.747 C48.604,98.747 52.022,99.357 51.915,97.85 C51.867,97.189 50.883,96.934 50.168,96.905 C49.376,96.872 48.578,97.16 48.578,97.16 C48.162,96.949 47.875,96.539 47.696,96.061 C50.142,94.213 51.871,92.422 51.871,90.397 C51.871,89.323 51.155,88.367 49.783,88.367 C47.338,88.367 45.488,91.469 45.488,94.271 C45.488,94.749 45.488,95.228 45.61,95.644 C44.058,96.777 42.904,97.481 40.817,98.734 C40.817,98.471 40.871,97.8 41.046,96.927 C41.761,96.151 42.745,94.988 42.745,94.096 C42.745,93.678 42.507,93.316 42.028,93.316 C40.836,93.316 39.942,95.106 39.702,96.359 C39.165,97.017 38.092,97.853 37.197,97.853 C36.481,97.853 36.244,97.196 36.182,96.957 C38.449,96.18 41.252,93.079 41.252,90.278 C41.252,89.682 41.016,88.367 39.225,88.367 C36.541,88.367 34.274,92.364 34.274,95.466 C33.321,95.466 32.963,94.452 32.963,93.678 C32.963,92.901 33.26,92.124 33.26,91.886 C33.26,91.648 33.141,91.351 32.783,91.351 C31.887,91.351 31.352,92.542 31.352,93.914 C31.412,95.823 32.665,97.017 34.334,97.136 C34.573,98.268 35.586,99.343 36.839,99.343 C37.615,99.343 38.569,99.104 39.225,98.506 C39.165,98.925 39.106,99.284 39.046,99.644 C36.421,101.015 34.514,101.97 32.783,103.519 C31.412,104.773 30.636,106.444 30.636,107.752 C30.636,109.544 31.77,111.213 34.096,111.213 C36.839,111.213 38.927,109.007 39.942,105.964 C40.419,104.533 40.61,102.45 40.73,100.541 C43.473,98.988 44.775,98.089 46.204,97.077 C46.384,97.374 46.564,97.613 46.802,97.792 C45.549,98.449 42.567,100.298 42.567,104.653 C42.567,107.752 44.654,111.213 48.769,111.213 C52.171,111.213 54.497,108.411 54.497,105.728 C54.497,103.282 53.125,101.015 50.499,101.015 M34.096,109.365 C33.202,109.405 32.604,108.835 32.604,107.879 C32.604,105.316 36.161,102.866 38.844,101.554 C38.368,105.133 37.159,109.225 34.096,109.365 M36.064,95.286 C36.064,93.316 38.006,89.575 39.194,89.973 C40.595,90.439 38.032,94.213 36.064,95.286 M47.338,94.394 C47.338,91.946 48.994,89.569 49.899,90.02 C50.929,90.535 49.128,92.841 47.338,94.394" fill="#4A88C6"/>
      <path d="M96.917,94.035 C96.917,94.735 96.736,95.187 96.217,95.525 C95.133,96.225 93.552,96.655 91.904,96.655 C87.545,96.655 85.084,93.425 85.084,88.84 C85.084,83.15 88.878,80.846 92.107,80.846 C94.072,80.846 95.359,81.502 96.262,82.133 C96.51,82.314 96.623,82.495 96.623,82.744 C96.623,83.082 96.307,83.488 95.923,83.488 C95.698,83.488 95.585,83.376 95.314,83.195 C94.297,82.518 93.259,82.179 92.061,82.179 C89.216,82.179 86.506,84.324 86.506,88.84 C86.506,92.703 88.516,95.322 91.971,95.322 C93.169,95.322 94.207,95.05 95.133,94.599 C95.405,94.464 95.495,94.284 95.495,93.832 L95.495,89.789 L92.085,89.789 C91.632,89.789 91.384,89.564 91.384,89.09 C91.384,88.637 91.632,88.39 92.085,88.39 L96.239,88.39 C96.691,88.39 96.917,88.637 96.917,89.09 z" fill="#4A88C6"/>
      <path d="M108.366,96.429 L102.155,96.429 C101.208,96.429 100.643,95.886 100.643,94.939 L100.643,82.788 C100.643,81.772 101.14,81.072 102.291,81.072 L108.366,81.072 C108.84,81.072 109.088,81.298 109.088,81.772 C109.088,82.246 108.862,82.473 108.366,82.473 L102.449,82.473 C102.223,82.473 102.065,82.653 102.065,82.902 L102.065,87.734 L107.643,87.734 C108.094,87.734 108.343,87.982 108.343,88.457 C108.343,88.909 108.094,89.134 107.643,89.134 L102.065,89.134 L102.065,94.689 C102.065,94.893 102.155,95.029 102.359,95.029 L108.366,95.029 C108.862,95.029 109.088,95.232 109.088,95.706 C109.088,96.18 108.84,96.429 108.366,96.429" fill="#4A88C6"/>
      <path d="M129.751,96.496 C129.345,96.496 129.119,96.27 129.119,95.796 L129.119,82.586 L124.693,90.805 C124.49,91.189 124.241,91.393 123.858,91.393 C123.383,91.393 123.18,91.167 122.999,90.828 C122.999,90.828 119.296,84.053 118.596,82.586 L118.596,95.796 C118.596,96.27 118.37,96.496 117.941,96.496 C117.466,96.496 117.263,96.27 117.263,95.796 L117.263,82.224 C117.263,81.546 117.715,81.005 118.415,81.005 C118.912,81.005 119.274,81.208 119.499,81.614 L123.858,89.699 L128.216,81.614 C128.441,81.208 128.804,81.005 129.3,81.005 C130,81.005 130.452,81.546 130.452,82.224 L130.452,95.796 C130.452,96.27 130.226,96.496 129.751,96.496" fill="#4A88C6"/>
      <path d="M141.042,87.057 C140.41,86.402 139.53,86.018 138.536,86.018 C137.565,86.018 136.684,86.402 136.051,87.057 C135.261,87.87 134.899,89.066 134.899,90.67 C134.899,92.205 135.239,93.358 136.029,94.193 C136.661,94.893 137.565,95.322 138.536,95.322 C139.507,95.322 140.41,94.893 141.065,94.193 C141.833,93.358 142.193,92.205 142.193,90.67 C142.193,89.066 141.81,87.87 141.042,87.057 M142.036,95.187 C141.11,96.18 139.913,96.654 138.536,96.654 C137.18,96.654 135.984,96.18 135.058,95.187 C134.019,94.103 133.499,92.59 133.499,90.67 C133.499,88.683 134.042,87.102 135.103,86.04 C136.029,85.137 137.204,84.685 138.536,84.685 C139.891,84.685 141.065,85.137 141.968,86.04 C143.052,87.102 143.594,88.683 143.594,90.67 C143.594,92.59 143.075,94.103 142.036,95.187" fill="#4A88C6"/>
      <path d="M154.592,96.496 C154.117,96.496 153.869,96.27 153.869,95.796 L153.869,89.157 C153.869,87.779 153.44,86.018 151.136,86.018 C149.216,86.018 147.681,87.418 147.681,90.038 L147.681,95.796 C147.681,96.27 147.455,96.496 146.981,96.496 C146.507,96.496 146.28,96.27 146.28,95.796 L146.28,85.543 C146.28,85.093 146.507,84.844 146.981,84.844 C147.455,84.844 147.681,85.093 147.681,85.543 L147.681,86.741 C148.313,85.611 149.6,84.685 151.317,84.685 C154.23,84.685 155.269,86.627 155.269,88.773 L155.269,95.796 C155.269,96.27 155.065,96.496 154.592,96.496" fill="#4A88C6"/>
      <path d="M162.946,86.018 C160.733,86.018 159.491,87.757 159.378,89.789 L166.041,89.789 C166.063,87.802 165.069,86.018 162.946,86.018 M166.379,91.099 L159.333,91.099 C159.333,93.629 160.937,95.322 163.082,95.322 C164.233,95.322 165.182,94.87 165.724,94.531 C165.973,94.374 166.063,94.305 166.244,94.305 C166.627,94.305 166.876,94.712 166.876,95.029 C166.876,95.277 166.741,95.39 166.559,95.549 C165.904,96.067 164.753,96.655 163.06,96.655 C159.762,96.655 157.91,94.215 157.91,90.783 C157.91,87.554 159.604,84.686 162.991,84.686 C165.814,84.686 167.441,86.763 167.441,89.813 C167.441,90.513 167.146,91.099 166.379,91.099" fill="#4A88C6"/>
      <path d="M179.028,85.431 C179.028,85.656 178.96,85.928 178.892,86.199 C177.989,89.563 176.295,93.494 174.579,96.316 C173.066,98.89 171.441,100.516 170.695,100.877 C170.153,101.148 169.769,101.216 169.43,101.216 C169.159,101.216 168.865,100.968 168.865,100.516 C168.865,100.245 168.933,100.087 169.498,99.951 C170.447,99.703 171.553,98.641 173.246,96.022 C172.141,94.125 171.304,92.205 170.447,89.496 C170.04,88.185 169.791,87.305 169.543,86.131 C169.498,85.883 169.453,85.612 169.453,85.499 C169.453,85.069 169.791,84.821 170.243,84.821 C170.627,84.821 170.808,85.002 170.876,85.386 C171.101,86.583 171.349,87.644 171.688,88.75 C172.389,91.032 173.27,93.358 174.014,94.803 C174.828,93.334 175.799,91.189 176.589,88.953 C176.995,87.802 177.38,86.515 177.627,85.363 C177.695,85.002 177.876,84.821 178.238,84.821 C178.689,84.821 179.028,85.024 179.028,85.431" fill="#4A88C6"/>
      <path d="M90.865,111.711 L87.523,111.711 L87.523,117.379 C87.523,117.583 87.613,117.718 87.816,117.718 L91.204,117.718 C93.214,117.718 94.5,116.679 94.5,114.67 C94.5,112.501 92.942,111.711 90.865,111.711 M90.661,105.094 L87.906,105.094 C87.681,105.094 87.523,105.275 87.523,105.524 L87.523,110.311 L90.932,110.311 C92.581,110.311 93.846,109.34 93.846,107.76 C93.846,106.02 92.987,105.094 90.661,105.094 M91.114,119.051 L87.613,119.051 C86.665,119.051 86.1,118.508 86.1,117.56 L86.1,105.411 C86.1,104.394 86.597,103.695 87.748,103.695 L90.729,103.695 C93.439,103.695 95.268,104.733 95.268,107.67 C95.268,109.069 94.388,110.536 92.897,110.921 C94.885,111.282 95.923,112.705 95.923,114.647 C95.923,117.515 93.936,119.051 91.114,119.051" fill="#4A88C6"/>
      <path d="M106.176,112.186 C106.176,110.131 104.843,108.64 102.901,108.64 C100.327,108.64 99.355,111.056 99.355,113.269 C99.355,115.483 100.078,117.944 102.901,117.944 C104.843,117.944 106.176,116.477 106.176,114.422 z M106.876,119.118 C106.401,119.118 106.176,118.893 106.176,118.418 L106.176,117.334 C105.679,118.215 104.618,119.277 102.698,119.277 C99.355,119.277 97.955,116.431 97.955,113.269 C97.955,110.152 99.4,107.307 102.856,107.307 C104.618,107.307 105.656,108.211 106.176,109.091 L106.176,108.143 C106.176,107.691 106.401,107.465 106.876,107.465 C107.327,107.465 107.576,107.691 107.576,108.143 L107.576,118.418 C107.576,118.893 107.327,119.118 106.876,119.118" fill="#4A88C6"/>
      <path d="M119.228,119.118 C118.754,119.118 118.506,118.893 118.506,118.418 L118.506,111.779 C118.506,110.402 118.077,108.64 115.773,108.64 C113.853,108.64 112.318,110.041 112.318,112.66 L112.318,118.418 C112.318,118.893 112.092,119.118 111.617,119.118 C111.144,119.118 110.917,118.893 110.917,118.418 L110.917,108.166 C110.917,107.715 111.144,107.465 111.617,107.465 C112.092,107.465 112.318,107.715 112.318,108.166 L112.318,109.362 C112.95,108.233 114.237,107.307 115.954,107.307 C118.867,107.307 119.906,109.25 119.906,111.396 L119.906,118.418 C119.906,118.893 119.702,119.118 119.228,119.118" fill="#4A88C6"/>
      <path d="M124.602,112.705 C126.747,111.192 128.397,109.499 129.593,107.805 C129.751,107.578 129.887,107.443 130.158,107.443 C130.563,107.443 130.88,107.737 130.88,108.03 C130.88,108.211 130.79,108.414 130.677,108.572 C129.773,109.882 128.622,111.079 127.154,112.366 C128.983,114.015 130.61,116.341 131.355,117.808 C131.535,118.17 131.557,118.305 131.557,118.486 C131.557,118.802 131.241,119.141 130.835,119.141 C130.496,119.141 130.36,118.961 130.203,118.667 C129.255,116.883 127.854,114.76 126.047,113.202 C125.686,113.473 125.009,113.97 124.602,114.241 L124.602,118.396 C124.602,118.869 124.377,119.118 123.902,119.118 C123.428,119.118 123.202,118.869 123.202,118.396 L123.202,102.814 C123.202,102.362 123.428,102.114 123.902,102.114 C124.377,102.114 124.602,102.362 124.602,102.814 z" fill="#4A88C6"/>
    </g>
  </g>
</svg>
