<?xml version="1.0" encoding="UTF-8"?>
<!DOCTYPE svg PUBLIC "-//W3C//DTD SVG 1.1//EN" "http://www.w3.org/Graphics/SVG/1.1/DTD/svg11.dtd">
<svg version="1.1" xmlns="http://www.w3.org/2000/svg" xmlns:xlink="http://www.w3.org/1999/xlink" x="0" y="0" width="200" height="200" viewBox="0, 0, 200, 200">
  <g id="Background">
    <rect x="0" y="0" width="200" height="200" fill="#000000" fill-opacity="0"/>
  </g>
  <g id="Layer_1">
    <path d="M36.024,85.646 C35.122,85.792 34.227,85.962 33.336,86.155 C32.746,86.281 32.157,86.399 31.575,86.547 C31.038,86.683 30.487,86.804 29.96,86.973 C29.452,87.134 28.95,87.301 28.452,87.494 C27.483,87.873 26.564,88.409 25.768,89.079 C25.28,89.492 24.824,89.939 24.441,90.457 C24.171,90.827 23.947,91.208 23.729,91.613 C23.526,91.997 23.385,92.452 23.382,92.892 C23.375,94.187 24.192,95.271 25.133,96.076 C25.442,96.339 25.771,96.581 26.104,96.813 C27.094,97.5 28.171,98.104 29.266,98.63 C30.396,99.17 31.532,99.69 32.683,100.184 C33.771,100.65 34.883,101.044 36.006,101.42 C36.329,101.527 36.655,101.634 36.978,101.741 C37.995,102.081 39.034,102.395 40.045,102.763 C40.672,102.992 41.343,103.206 41.971,103.492 C42.623,103.788 43.3,104.084 43.876,104.511 C44.262,104.791 44.595,105.142 44.841,105.551 C45.083,105.954 45.234,106.416 45.244,106.888 C45.259,107.341 45.129,107.781 44.886,108.164 C44.255,109.156 43.157,109.833 42.097,110.284 C40.515,110.956 38.894,111.537 37.244,112.025 C36.304,112.302 35.364,112.577 34.417,112.825 C33.466,113.073 32.497,113.335 31.536,113.577 C30.578,113.82 29.62,114.038 28.659,114.247 C28.108,114.365 27.554,114.482 27.006,114.597 C26.676,114.663 26.354,114.733 26.024,114.805 C25.336,114.956 24.648,115.105 23.957,115.254 C23.171,115.428 22.385,115.598 21.6,115.77 C21.371,115.82 21.143,115.882 20.915,115.933 C20.712,115.98 19.95,116.158 20.515,116.124 C21.301,116.08 23.399,115.896 27.884,115.293 C29.508,115.023 31.139,114.79 32.767,114.523 C34.795,114.19 36.81,113.798 38.809,113.321 C39.381,113.186 39.95,113.04 40.518,112.884 C40.894,112.779 41.265,112.67 41.634,112.554 C43.206,112.065 45.728,111.2 46.325,110.939 C48.606,109.935 50.027,109.179 50.767,107.379 C51.02,106.74 51.139,106.025 51.062,105.339 C50.985,104.711 50.774,104.076 50.448,103.534 C50.135,103.013 49.707,102.567 49.262,102.156 C48.43,101.395 47.497,100.78 46.5,100.258 C46.22,100.111 45.932,99.97 45.641,99.837 C45.279,99.671 44.918,99.514 44.553,99.36 C44.037,99.144 43.518,98.956 42.992,98.776 C41.623,98.306 40.234,97.885 38.859,97.434 C38.079,97.178 37.308,96.901 36.557,96.581 C36.238,96.448 35.922,96.304 35.613,96.153 C35.248,95.976 34.894,95.781 34.543,95.572 C34.111,95.311 33.406,94.86 33.602,94.248 C33.74,93.811 34.213,93.641 34.599,93.485 C34.957,93.339 35.336,93.237 35.708,93.139 C36.845,92.846 38.006,92.648 39.153,92.402 C39.49,92.33 39.827,92.257 40.164,92.178 C41.059,91.967 41.981,91.809 42.834,91.469 C43.567,91.18 44.507,90.716 44.781,89.909 C45.174,88.732 44.729,87.46 44.086,86.467 C43.855,86.111 43.616,85.762 43.371,85.413 C43.034,84.939 42.662,84.494 42.297,84.043 C42.132,83.838 41.932,83.853 41.764,83.906 C41.539,83.983 40.925,84.704 36.024,85.646" fill="#C8232A"/>
    <path d="M104.449,101.916 C104.449,101.916 104.583,101.951 104.583,101.953 C105.091,102.099 105.341,102.442 104.952,102.892 C104.829,103.036 104.73,103.197 104.632,103.353 L104.548,103.495 C104.464,103.636 104.401,103.767 104.387,103.932 C104.387,103.932 104.393,104.018 104.393,104.02 C104.418,104.249 104.601,104.495 104.713,104.691 C104.947,105.095 105.194,105.454 105.467,105.825 C105.509,105.884 106.109,104.889 106.148,104.834 C106.362,104.535 106.611,104.271 106.832,103.979 C107.109,103.612 107.411,103.265 107.811,103.032 C108.211,102.797 108.67,102.703 109.13,102.655 C109.586,102.604 110.042,102.583 110.495,102.558 C111.428,102.509 112.355,102.403 113.281,102.313 C113.639,102.277 114.168,102.188 114.492,102.365 C114.804,102.535 115.042,102.83 115.285,103.083 C115.575,103.39 115.859,103.704 116.134,104.024 C116.46,104.404 116.751,104.809 117.112,105.16 C117.34,105.384 117.576,105.581 117.835,105.77 L117.969,105.856 C118.428,106.086 118.751,105.784 118.849,105.317 C118.99,104.628 118.6,103.958 118.281,103.378 C118.109,103.064 117.941,102.732 117.797,102.405 C117.67,102.134 117.544,101.716 117.769,101.456 C117.944,101.258 118.305,101.248 118.544,101.185 C118.828,101.109 119.106,101.023 119.39,100.965 C119.958,100.848 120.522,100.695 121.101,100.622 C121.424,100.583 121.954,100.343 122.231,100.626 C122.596,100.993 122.249,101.685 122.108,102.077 C121.88,102.732 121.649,103.411 121.576,104.104 C121.512,104.735 121.666,105.414 122.067,105.918 C122.361,106.288 122.856,106.607 123.319,106.339 C123.687,106.123 123.957,105.662 124.123,105.279 C124.432,104.549 124.646,103.792 124.891,103.04 C125.112,102.364 125.34,101.688 125.593,101.02 C125.778,100.532 125.992,100.053 126.179,99.567 C126.298,99.251 126.463,98.956 126.593,98.646 C126.698,98.383 126.733,98.041 126.993,97.876 C127.308,97.678 127.697,98.251 127.849,98.451 C128.136,98.825 128.392,99.216 128.656,99.606 C128.947,100.027 129.21,100.585 129.68,100.825 C130.491,101.242 131.217,100.267 131.673,99.744 C131.99,99.387 132.309,99.018 132.635,98.66 C132.981,98.276 133.336,97.895 133.681,97.511 C133.904,97.265 134.199,96.783 134.568,96.776 C134.887,96.77 134.961,97.12 134.989,97.371 C135.129,98.569 135.181,99.788 135.361,100.99 C135.431,101.437 135.519,101.881 135.596,102.325 L135.708,102.953 C135.764,103.251 135.824,103.549 135.887,103.846 C136.024,104.462 136.168,105.078 136.354,105.68 C136.519,106.19 136.729,106.742 137.151,107.1 C137.652,107.525 138.571,107.383 138.894,106.79 C138.961,106.665 138.988,106.514 139.017,106.374 C139.073,106.079 139.045,105.77 139.02,105.474 C138.936,104.416 138.642,103.383 138.623,102.316 C138.62,101.876 138.656,101.439 138.69,101 C138.764,99.978 138.894,98.958 138.95,97.934 C139.02,96.681 139.132,95.357 138.771,94.136 C138.67,93.785 138.526,93.446 138.339,93.132 C138.178,92.853 137.975,92.588 137.754,92.357 C137.519,92.111 137.263,91.897 136.964,91.736 C136.684,91.583 136.318,91.462 136,91.446 C135.231,91.408 134.435,91.834 133.834,92.279 C133.322,92.658 132.859,93.09 132.421,93.551 C131.641,94.38 130.859,95.234 130.168,96.143 C129.968,96.407 129.726,96.886 129.323,96.836 C128.845,96.773 128.592,96.053 128.445,95.674 C128.301,95.313 128.14,94.965 127.975,94.616 C127.758,94.174 127.536,93.736 127.33,93.288 C127.157,92.916 126.982,92.53 126.715,92.22 C126.41,91.865 126.017,91.694 125.582,91.55 C125.274,91.448 124.835,91.32 124.533,91.501 C124.129,91.743 124.207,92.35 124.182,92.743 C124.157,93.094 124.119,93.434 124.087,93.785 C124,94.632 123.948,95.504 123.758,96.336 C123.673,96.704 123.551,97.167 123.234,97.404 C122.989,97.586 122.68,97.562 122.396,97.574 C122.165,97.585 121.93,97.577 121.695,97.571 C121.161,97.558 120.628,97.537 120.094,97.551 C119.639,97.566 119.179,97.594 118.72,97.611 C118.312,97.629 117.902,97.669 117.491,97.669 C117.032,97.695 116.47,97.769 116.039,97.566 C115.698,97.402 115.516,97.034 115.365,96.707 C115.147,96.242 114.87,95.808 114.61,95.365 C114.376,94.971 114.148,94.574 113.909,94.183 C113.565,93.62 113.225,93.059 112.874,92.501 C112.646,92.132 112.407,91.766 112.162,91.408 C111.962,91.116 111.709,90.725 111.358,90.604 C111.036,90.492 110.72,90.704 110.653,91.024 C110.608,91.23 110.656,91.443 110.614,91.65 C110.569,91.869 110.481,92.085 110.389,92.29 C110.211,92.704 109.972,93.09 109.73,93.469 C108.916,94.735 108.309,96.141 107.583,97.458 C107.446,97.704 107.302,97.944 107.165,98.19 C106.979,98.533 106.857,98.818 106.45,98.927 C106.084,99.023 105.692,98.974 105.323,99.065 C104.868,99.179 104.733,99.572 104.657,99.999 C104.593,100.36 104.583,100.728 104.527,101.092 C104.485,101.355 104.421,101.651 104.449,101.916 z M110.428,97.423 L110.495,97.269 L110.572,97.135 L110.639,97.013 L110.706,96.907 L110.751,96.804 L110.8,96.727 L110.839,96.652 L110.888,96.604 L111.007,96.395 L111.077,96.27 L111.162,96.148 L111.34,95.843 L111.449,95.679 L111.562,95.509 L111.59,95.481 L111.628,95.471 L111.712,95.501 L111.754,95.528 L111.811,95.595 L111.923,95.757 L112.039,95.974 L112.168,96.27 L112.305,96.623 L112.456,97.051 L112.484,97.127 L112.533,97.251 L112.597,97.413 L112.684,97.621 L112.695,97.66 L112.712,97.709 L112.741,97.804 L112.761,97.879 L112.779,97.956 L112.779,98.013 L112.789,98.071 L112.779,98.088 L112.779,98.165 L112.723,98.241 L112.684,98.288 L112.589,98.327 L112.463,98.366 L112.305,98.385 L112.207,98.385 L112.113,98.393 L111.179,98.469 L111,98.469 L110.859,98.479 L110.712,98.479 L110.6,98.488 L110.484,98.479 L110.267,98.479 L110.161,98.46 L110.095,98.441 L110.039,98.404 L110.007,98.355 L109.979,98.288 L109.993,98.223 L110.007,98.135 L110.056,98.041 L110.127,97.918 L110.19,97.813 L110.245,97.718 L110.302,97.641 L110.344,97.566 L110.383,97.508 L110.4,97.451 L110.428,97.423" fill="#1A1919"/>
    <path d="M54.7,109.333 C54.325,109.346 53.953,109.416 53.581,109.395 C53.146,109.37 52.872,109.105 52.711,108.72 C52.521,108.258 52.413,107.735 52.297,107.251 C52.191,106.793 52.107,106.342 52.156,105.874 C52.188,105.619 52.227,105.433 52.433,105.258 C52.76,104.988 53.216,105.163 53.56,104.971 C53.869,104.797 53.971,104.419 53.998,104.092 C54.048,103.54 53.988,102.95 53.96,102.397 C53.876,100.976 53.971,99.527 53.792,98.114 C53.753,97.788 53.648,97.414 53.286,97.318 C52.57,97.127 52.563,96.416 52.518,95.804 C52.49,95.42 52.486,94.967 52.641,94.606 C52.847,94.111 53.399,93.855 53.883,93.706 C54.353,93.56 54.83,93.427 55.307,93.297 C55.792,93.166 56.293,93.094 56.788,93.009 C57.297,92.923 57.805,92.85 58.318,92.771 C58.816,92.692 59.314,92.623 59.819,92.569 C60.29,92.516 60.763,92.458 61.237,92.43 C61.791,92.397 62.353,92.364 62.907,92.343 C63.405,92.322 63.903,92.332 64.398,92.336 C64.893,92.34 65.384,92.36 65.875,92.376 C66.38,92.394 66.893,92.436 67.391,92.504 C68.117,92.602 68.808,92.729 69.433,93.137 C70.082,93.567 70.514,94.446 69.872,95.095 C69.223,95.753 68.177,95.644 67.335,95.644 C66.643,95.643 65.956,95.662 65.265,95.681 C64.602,95.702 63.938,95.771 63.272,95.813 C62.654,95.851 62.04,95.895 61.419,95.943 C60.781,95.992 60.139,96.053 59.5,96.116 C58.992,96.166 58.479,96.215 57.978,96.308 C57.556,96.385 57.061,96.46 56.739,96.769 C56.5,96.999 56.489,97.383 56.588,97.683 C56.781,98.262 57.658,98.116 58.121,98.104 C59.174,98.072 60.216,97.899 61.265,97.828 C61.749,97.795 62.23,97.778 62.71,97.75 C63.293,97.715 63.872,97.695 64.458,97.723 C64.97,97.748 65.472,97.808 65.973,97.911 C66.588,98.039 67.16,98.276 67.724,98.537 C68.447,98.788 68.331,99.702 68.212,100.29 C68.149,100.599 68.047,100.87 67.77,101.043 C67.138,101.432 66.244,101.334 65.539,101.353 C64.844,101.373 64.146,101.434 63.455,101.497 C62.363,101.601 61.272,101.709 60.184,101.844 C59.518,101.928 58.851,102.044 58.184,102.115 C57.735,102.163 57.146,102.118 56.778,102.436 L56.711,102.493 L56.662,102.521 L56.627,102.588 L56.584,102.676 C56.535,102.956 56.248,103.881 56.535,104.102 L56.595,104.13 L56.69,104.13 C57.055,104.132 57.416,104.111 57.781,104.095 C58.335,104.07 58.89,104.048 59.447,104.002 C60.514,103.914 61.581,103.827 62.647,103.734 C63.342,103.672 64.058,103.634 64.759,103.57 C65.812,103.476 66.865,103.42 67.918,103.378 C68.556,103.351 69.17,103.362 69.77,103.097 C70.465,102.786 71.04,102.243 71.721,101.89 C72.58,101.446 73.461,101.049 74.331,100.63 C75.398,100.116 76.44,99.525 77.524,99.048 C78.359,98.681 79.198,98.318 80.033,97.953 C80.437,97.778 80.85,97.613 81.236,97.392 C81.503,97.236 82.194,96.897 82.019,96.478 C81.928,96.26 81.651,96.229 81.447,96.204 C80.647,96.108 78.64,96.256 77.412,96.446 C75.422,96.794 75.145,97.055 74.591,96.506 C74.17,96.055 74.275,95.418 74.338,94.86 C74.401,94.287 74.675,93.418 74.868,93.202 C75.443,92.448 77.341,92.36 78.226,92.295 C78.682,92.262 79.145,92.248 79.605,92.244 C80.25,92.239 80.893,92.283 81.534,92.283 C82.093,92.308 82.647,92.343 83.201,92.399 C83.833,92.462 84.524,92.478 85.138,92.674 C85.338,92.739 85.538,92.806 85.728,92.895 C86.363,93.192 86.941,93.58 87.373,94.134 C87.629,94.462 87.798,94.839 87.882,95.244 C87.924,95.439 87.952,95.63 87.924,95.828 C87.903,95.974 87.861,96.265 87.77,96.381 L87.731,96.43 C87.643,96.623 87.474,96.797 87.32,96.936 C86.57,97.595 85.475,97.836 84.57,98.209 C84.12,98.395 83.678,98.609 83.236,98.811 C81.994,99.378 80.763,99.967 79.496,100.481 C78.454,100.907 77.415,101.344 76.416,101.865 C76.141,102.009 75.742,102.214 75.577,102.493 C75.412,102.788 75.77,102.786 76.001,102.791 C76.254,102.8 76.51,102.785 76.766,102.766 C77.534,102.703 78.303,102.63 79.075,102.546 C79.861,102.458 80.654,102.388 81.44,102.288 C82.18,102.193 82.92,102.097 83.657,102.016 C84.464,101.93 85.25,101.9 86.057,101.899 C86.868,101.899 87.657,101.909 88.457,102.043 L88.577,102.062 L88.787,102.072 C89.124,102.072 89.478,102.027 89.65,101.688 C89.931,101.14 90.092,100.48 90.296,99.899 C90.555,99.146 90.825,98.395 91.096,97.646 C91.131,97.542 91.17,97.439 91.208,97.336 C91.516,96.488 91.819,95.637 92.155,94.801 C92.288,94.462 92.429,94.127 92.538,93.778 C92.618,93.516 92.657,93.251 92.78,93.002 C92.983,92.602 93.352,92.345 93.766,92.636 C94.099,92.871 94.327,93.279 94.52,93.634 C94.72,94.007 94.892,94.38 94.987,94.795 C95.081,95.215 94.98,95.586 94.854,95.988 C94.724,96.4 94.555,96.809 94.447,97.229 C94.211,98.129 95.095,98.855 95.776,99.265 C96.39,99.637 97.096,99.888 97.755,100.167 C98.25,100.376 98.745,100.595 99.267,100.698 C99.58,100.758 99.976,100.821 100.253,100.623 C100.702,100.297 100.839,99.66 100.99,99.158 C101.173,98.541 101.309,97.907 101.446,97.278 C101.565,96.756 101.646,96.227 101.702,95.695 C101.748,95.276 101.786,94.855 101.811,94.435 C101.838,93.89 101.797,93.364 101.79,92.82 C101.79,92.469 101.853,92.015 102.099,91.741 C102.415,91.379 102.962,91.565 103.228,91.909 C103.236,91.917 103.327,92.034 103.327,92.034 C103.489,92.308 103.607,92.608 103.698,92.913 C103.856,93.46 103.945,94.023 104.001,94.588 C104.049,95.055 104.081,95.521 104.099,95.99 C104.154,97.606 104.043,99.225 103.825,100.825 C103.706,101.688 103.516,102.528 103.334,103.378 C103.228,103.845 103.148,104.325 102.948,104.763 C102.814,105.051 102.629,105.33 102.418,105.565 C102.316,105.68 102.204,105.776 102.077,105.856 C101.639,106.132 101.067,106.121 100.569,106.072 C99.874,106.007 99.208,105.828 98.555,105.588 C98.141,105.439 97.741,105.277 97.345,105.089 C96.941,104.897 96.534,104.704 96.144,104.483 C95.752,104.26 95.369,104.014 95.004,103.753 C94.653,103.506 94.31,103.23 94.011,102.923 C93.748,102.653 93.552,102.305 93.306,102.019 C93.043,101.718 92.84,101.616 92.667,102.032 C92.563,102.302 92.506,102.586 92.443,102.87 C92.338,103.367 92.19,103.859 92.036,104.344 C91.889,104.823 91.253,106.153 90.562,105.534 C90.338,105.334 90.176,105.075 89.839,105.079 C89.496,105.084 89.169,105.225 88.836,105.298 C88.485,105.378 88.12,105.419 87.762,105.491 C87.085,105.63 86.408,105.788 85.735,105.923 C85.285,106.011 84.836,106.074 84.39,106.151 C83.959,106.225 83.524,106.281 83.089,106.346 C82.64,106.413 82.194,106.484 81.748,106.537 C81.047,106.625 80.349,106.709 79.65,106.783 C79.089,106.857 78.531,106.913 77.973,106.977 C77.506,107.028 77.043,107.077 76.577,107.123 C75.794,107.199 75.019,107.267 74.233,107.293 C73.051,107.335 71.826,107.405 70.661,107.171 C70.401,107.119 70.016,107.088 69.819,106.895 C69.679,106.758 69.791,106.525 69.686,106.364 L69.668,106.335 L69.623,106.286 L69.58,106.257 L69.535,106.237 L69.44,106.237 L69.391,106.257 L69.335,106.276 L69.286,106.314 L69.187,106.383 L69.124,106.458 L69.075,106.544 L69.047,106.641 C68.794,107.457 67.938,107.763 67.16,107.863 L54.7,109.333" fill="#1A1919"/>
    <path d="M171.023,103.004 C169.388,103.122 167.847,103.398 166.188,103.241 C165.652,103.188 164.729,103.144 164.276,102.848 C162.95,101.974 167.596,100.418 168.167,100.214 C169.777,99.639 173.024,98.702 173.024,98.702 C173.024,98.702 176.072,97.944 176.163,96.302 C176.275,94.309 174.226,93.408 172.658,92.909 C172.005,92.764 171.364,92.653 170.7,92.587 C170.255,92.541 169.802,92.522 169.353,92.506 C168.508,92.476 167.683,92.558 166.84,92.66 C165.978,92.764 164.143,92.818 163.876,93.902 C163.742,94.455 163.117,95.594 163.641,96.094 C164.195,96.625 165.097,96.404 165.778,96.337 C166.718,96.244 167.647,96.069 168.584,95.976 C169.276,95.907 170.177,95.755 170.746,96.262 C171.444,96.892 169.591,97.488 169.223,97.646 C167.824,98.242 166.361,98.67 164.957,99.255 C163.641,99.802 162.321,100.329 161.037,100.942 C160.447,101.223 159.897,101.569 159.343,101.906 L159.076,101.723 L157.459,101.895 C157.459,101.895 155.841,102.029 155.838,102.029 C154.753,102.118 153.655,102.149 152.567,102.2 C152.024,102.219 151.171,102.241 150.743,101.835 C149.807,100.946 150.329,99.714 150.947,98.855 C151.623,97.92 152.574,97.227 153.55,96.638 C154.206,96.242 154.932,95.92 155.669,95.699 C156.167,95.548 156.684,95.423 157.202,95.346 C157.276,95.49 157.36,95.634 157.441,95.774 C157.483,95.855 158.694,95.346 158.809,95.287 C159.181,95.094 159.7,94.706 159.711,94.237 C159.729,93.667 159.237,93.099 158.792,92.815 C158.294,92.497 157.728,92.392 157.143,92.386 C156.508,92.378 155.869,92.416 155.244,92.499 C154.802,92.558 154.368,92.657 153.936,92.781 C153.22,92.99 152.54,93.272 151.89,93.636 C151.027,94.118 150.185,94.764 149.508,95.483 C149.185,95.825 148.894,96.206 148.651,96.609 C148.339,97.125 148.111,97.695 147.928,98.269 C147.434,99.857 147.585,101.834 148.301,103.332 C148.792,104.361 149.554,105.255 150.529,105.855 C151.757,106.611 153.311,106.86 154.718,106.59 C155.308,106.479 155.831,106.325 156.374,106.104 C156.95,105.87 157.511,105.699 158.048,105.388 C158.153,105.331 159.301,104.674 159.367,104.762 C159.546,104.995 159.651,105.281 159.844,105.504 C160.03,105.72 160.266,105.916 160.49,106.084 C160.964,106.44 161.501,106.581 162.079,106.649 C163.528,106.823 164.999,106.911 166.459,106.93 C167.623,106.946 168.802,106.866 169.96,106.758 C170.711,106.688 171.462,106.59 172.209,106.498 C174.111,106.265 175.683,105.842 177.742,104.953 C178.714,104.495 179.318,103.907 179.69,103.472 C179.472,103.336 179.22,103.216 178.981,103.12 C177.482,102.518 175.773,102.493 174.181,102.697 C173.447,102.79 172.714,102.862 171.981,102.927 C171.662,102.956 171.342,102.981 171.023,103.004" fill="#1A1919"/>
    <path d="M145.645,104.705 C145.662,104.427 145.631,104.147 145.55,103.932 C145.336,103.37 144.743,102.8 144.154,102.691 C143.62,102.595 142.978,102.697 142.543,103.039 C142.308,103.225 142.052,103.525 141.929,103.804 C141.659,104.416 141.687,105.325 142.084,105.867 C142.754,106.784 144.171,106.784 144.96,106.04 C145.339,105.686 145.606,105.234 145.645,104.705" fill="#1A1919"/>
  </g>
</svg>
