<?xml version="1.0" encoding="UTF-8"?>
<!DOCTYPE svg PUBLIC "-//W3C//DTD SVG 1.1//EN" "http://www.w3.org/Graphics/SVG/1.1/DTD/svg11.dtd">
<svg version="1.1" xmlns="http://www.w3.org/2000/svg" xmlns:xlink="http://www.w3.org/1999/xlink" x="0" y="0" width="150" height="150" viewBox="0, 0, 150, 150">
  <g id="Background">
    <rect x="0" y="0" width="150" height="150" fill="transparent"/>
  </g>
  <g id="Background"/>
  <g id="Layer_1">
    <path d="M62.208,30.458 L82.482,30.458 C82.844,30.486 83.196,30.585 83.556,30.631 C83.942,30.653 84.33,30.634 84.718,30.629 C87.143,30.877 89.584,31.327 91.804,32.367 C93.215,33.024 94.527,33.933 95.533,35.128 C96.526,36.277 97.323,37.615 97.747,39.077 C98.389,41.17 98.303,43.409 97.988,45.55 C97.982,45.582 97.972,45.644 97.967,45.675 C97.432,45.53 96.951,45.243 96.43,45.058 C95.907,44.84 95.352,44.718 94.809,44.561 C93.673,44.242 92.496,44.12 91.33,43.972 C90.649,43.861 89.958,43.927 89.277,43.833 C87.987,43.778 86.694,43.805 85.402,43.802 C81.486,43.796 77.57,43.805 73.654,43.795 C72.541,43.803 71.418,44.61 71.272,45.753 C70.22,52.262 69.237,58.783 68.17,65.289 C68.192,65.314 68.238,65.366 68.262,65.391 C68.003,65.986 67.938,66.636 67.843,67.272 C66.973,72.778 66.103,78.285 65.237,83.791 C61.381,83.792 57.526,83.79 53.67,83.792 C52.728,83.808 51.972,82.826 52.158,81.916 C54.736,65.563 57.319,49.211 59.897,32.857 C59.973,32.333 60.172,31.814 60.53,31.416 C60.95,30.898 61.584,30.634 62.208,30.458" fill="#00409C"/>
    <path d="M36.144,101.692 C35.909,103.275 35.64,104.853 35.402,106.435 C36.432,106.431 37.47,106.456 38.491,106.294 C39.348,106.162 40.151,105.621 40.476,104.8 C40.753,104.064 40.894,103.237 40.707,102.463 C40.566,101.892 40.08,101.472 39.529,101.312 C38.621,101.052 37.668,101.123 36.736,101.116 C36.419,101.106 36.168,101.39 36.144,101.692 M31.76,97.825 C31.864,97.386 32.304,97.077 32.75,97.103 L38.498,97.103 C39.831,97.11 41.191,97.033 42.491,97.398 C43.77,97.704 45.017,98.439 45.645,99.633 C46.389,101.035 46.302,102.703 45.975,104.211 C45.655,105.797 44.974,107.364 43.772,108.481 C42.602,109.599 41.006,110.164 39.421,110.351 C38.346,110.488 37.261,110.427 36.18,110.44 C35.812,110.455 35.399,110.363 35.079,110.597 C34.79,110.772 34.643,111.099 34.607,111.424 C34.371,113.028 34.101,114.624 33.857,116.226 C33.796,116.716 33.345,117.12 32.846,117.1 C31.706,117.102 30.566,117.104 29.425,117.1 C29.128,117.124 28.928,116.874 28.779,116.653 L28.779,116.349 C29.095,114.95 29.245,113.52 29.489,112.108 C30.18,107.746 30.87,103.384 31.553,99.021 C31.626,98.623 31.668,98.219 31.76,97.825" fill="#00409C"/>
    <path d="M52.788,107.22 C51.731,107.459 50.801,108.191 50.305,109.154 C49.905,109.927 49.724,110.838 49.896,111.698 C50.044,112.509 50.637,113.221 51.411,113.511 C52.901,114.065 54.726,113.619 55.744,112.382 C56.48,111.484 56.831,110.247 56.565,109.105 C56.381,108.32 55.804,107.639 55.053,107.343 C54.336,107.064 53.532,107.04 52.788,107.22 M48.773,104.683 C50.224,103.707 52.024,103.287 53.761,103.46 C54.692,103.551 55.662,103.73 56.432,104.295 C56.764,104.528 57.002,104.861 57.221,105.195 C57.309,104.81 57.301,104.395 57.459,104.029 C57.567,103.878 57.728,103.746 57.924,103.766 C59.098,103.763 60.274,103.765 61.448,103.766 C61.807,103.738 62.098,104.129 62.022,104.469 C61.402,108.385 60.783,112.302 60.168,116.221 C60.115,116.725 59.634,117.128 59.129,117.101 C58.11,117.101 57.089,117.102 56.07,117.101 C55.754,117.112 55.426,116.834 55.461,116.505 C55.465,116.164 55.565,115.835 55.591,115.497 C54.319,116.773 52.504,117.459 50.709,117.418 C49.511,117.401 48.272,117.128 47.294,116.406 C46.042,115.478 45.319,113.96 45.165,112.431 C44.858,109.456 46.257,106.334 48.773,104.683" fill="#00409C"/>
    <path d="M63.744,104.573 C63.582,104.202 63.896,103.731 64.305,103.766 C65.449,103.763 66.592,103.766 67.736,103.764 C68.189,103.734 68.588,104.089 68.704,104.512 C69.365,106.743 70.039,108.971 70.705,111.202 C72.21,108.991 73.711,106.777 75.214,104.565 C75.394,104.312 75.541,104.007 75.834,103.863 C76.041,103.742 76.289,103.766 76.519,103.762 C77.628,103.771 78.738,103.757 79.847,103.769 C80.229,103.772 80.473,104.224 80.343,104.564 C80.238,104.799 80.07,104.998 79.927,105.211 C76.218,110.561 72.509,115.911 68.802,121.26 C68.668,121.456 68.489,121.631 68.251,121.687 L64.224,121.687 C63.823,121.577 63.748,121.024 64.003,120.738 C65.182,119.073 66.362,117.409 67.543,115.745 C66.289,112.017 65.002,108.3 63.744,104.573" fill="#00409C"/>
    <path d="M82.482,30.458 L83.349,30.458 C83.777,30.597 84.26,30.597 84.701,30.561 C84.705,30.577 84.714,30.612 84.718,30.629 C84.33,30.634 83.943,30.653 83.556,30.631 C83.196,30.585 82.844,30.486 82.482,30.458" fill="#00ACE7"/>
    <path d="M97.967,45.675 C97.972,45.644 97.982,45.582 97.988,45.55 C97.983,45.593 97.975,45.677 97.97,45.72 C99.042,46.297 100.042,47.038 100.807,47.992 C102.046,49.487 102.716,51.393 102.9,53.312 C103.117,55.576 102.842,57.862 102.313,60.066 C101.556,63.294 100.14,66.453 97.785,68.833 C95.677,71.015 92.867,72.429 89.932,73.113 C87.578,73.695 85.137,73.836 82.72,73.802 C82.146,73.781 81.54,73.808 81.035,74.113 C80.358,74.491 79.944,75.219 79.852,75.977 C79.209,79.982 78.585,83.991 77.951,87.996 C77.896,88.285 77.848,88.576 77.761,88.858 C77.477,89.774 76.562,90.451 75.602,90.453 C72.33,90.453 69.057,90.455 65.785,90.453 C65.004,90.459 64.341,89.694 64.437,88.923 C64.693,87.212 64.976,85.503 65.237,83.791 C66.103,78.285 66.972,72.778 67.843,67.272 C67.938,66.636 68.003,65.986 68.262,65.391 C68.658,64.44 69.665,63.778 70.696,63.804 C72.761,63.802 74.826,63.81 76.891,63.8 C80.548,63.72 84.264,63.131 87.579,61.517 C90.175,60.267 92.449,58.351 94.095,55.985 C96.235,52.944 97.386,49.318 97.967,45.675" fill="#00ACE7"/>
    <path d="M87.459,101.693 C87.23,103.275 86.937,104.849 86.725,106.433 C87.644,106.445 88.563,106.429 89.479,106.346 C90.246,106.261 91.041,105.954 91.501,105.304 C92.015,104.56 92.165,103.605 92.076,102.72 C92.003,102.059 91.503,101.511 90.875,101.323 C89.972,101.052 89.018,101.126 88.088,101.115 C87.762,101.087 87.474,101.375 87.459,101.693 M83.771,97.127 C86.226,97.071 88.687,97.12 91.145,97.102 C92.761,97.09 94.476,97.341 95.815,98.314 C96.707,98.958 97.264,99.983 97.438,101.059 C97.665,102.355 97.434,103.677 97.116,104.938 C96.705,106.435 95.915,107.877 94.671,108.839 C93.611,109.686 92.284,110.132 90.953,110.326 C89.576,110.522 88.182,110.405 86.797,110.445 C86.352,110.495 85.989,110.886 85.937,111.326 C85.686,113.026 85.395,114.718 85.143,116.417 C85.117,116.763 84.836,117.094 84.474,117.098 C83.243,117.108 82.011,117.099 80.778,117.102 C80.367,117.15 80.017,116.713 80.135,116.322 C81.105,110.213 82.062,104.1 83.03,97.99 C83.076,97.587 83.377,97.226 83.771,97.127" fill="#00ACE7"/>
    <path d="M117.18,97.126 C118.304,97.071 119.434,97.121 120.561,97.101 C120.794,97.087 121.103,97.121 121.201,97.37 C121.298,98.492 121.007,99.588 120.854,100.692 C120.059,105.779 119.246,110.862 118.449,115.949 C118.404,116.196 118.384,116.463 118.232,116.674 C118.036,116.969 117.669,117.122 117.322,117.103 C116.368,117.101 115.414,117.103 114.461,117.102 C114.09,117.141 113.765,116.772 113.825,116.411 C114.805,110.15 115.798,103.889 116.776,97.627 C116.805,97.401 116.969,97.207 117.18,97.126" fill="#00ACE7"/>
    <path d="M104.045,107.234 C102.598,107.575 101.467,108.85 101.218,110.304 C101.099,111.065 101.115,111.91 101.562,112.57 C101.931,113.162 102.576,113.53 103.25,113.664 C104.355,113.887 105.564,113.639 106.462,112.947 C107.484,112.167 108.062,110.844 107.949,109.564 C107.9,108.686 107.371,107.844 106.583,107.443 C105.801,107.059 104.881,107.025 104.045,107.234 M102.673,103.594 C103.992,103.311 105.383,103.384 106.676,103.762 C107.449,103.986 108.128,104.492 108.54,105.187 C108.585,104.871 108.622,104.553 108.688,104.241 C108.733,103.971 108.989,103.73 109.274,103.765 C110.448,103.766 111.622,103.762 112.796,103.767 C113.149,103.753 113.408,104.154 113.332,104.481 C112.717,108.4 112.092,112.316 111.478,116.235 C111.418,116.716 110.966,117.117 110.477,117.101 C109.429,117.1 108.382,117.106 107.334,117.098 C106.989,117.101 106.707,116.745 106.769,116.409 C106.811,116.106 106.866,115.804 106.914,115.503 C105.676,116.707 103.971,117.415 102.242,117.419 C100.958,117.437 99.617,117.165 98.573,116.382 C97.346,115.452 96.633,113.956 96.477,112.444 C96.214,109.888 97.193,107.221 99.08,105.471 C100.085,104.546 101.329,103.865 102.673,103.594" fill="#00ACE7"/>
    <path d="M71.272,45.753 C71.418,44.61 72.541,43.803 73.654,43.795 C77.57,43.805 81.486,43.796 85.403,43.802 C86.694,43.805 87.987,43.778 89.277,43.833 C89.958,43.927 90.649,43.861 91.33,43.972 C92.495,44.12 93.674,44.242 94.809,44.561 C95.352,44.718 95.907,44.84 96.431,45.058 C96.951,45.243 97.432,45.53 97.967,45.675 C97.386,49.318 96.235,52.944 94.095,55.985 C92.449,58.351 90.175,60.267 87.579,61.517 C84.264,63.131 80.548,63.72 76.891,63.8 C74.826,63.81 72.761,63.802 70.696,63.804 C69.665,63.778 68.658,64.44 68.262,65.391 C68.238,65.366 68.192,65.314 68.17,65.289 C69.237,58.783 70.22,52.262 71.272,45.753" fill="#002F7F"/>
  </g>
</svg>
