<?xml version="1.0" encoding="utf-8"?>
<!-- Generator: Adobe Illustrator 16.0.0, SVG Export Plug-In . SVG Version: 6.00 Build 0)  -->
<!DOCTYPE svg PUBLIC "-//W3C//DTD SVG 1.1//EN" "http://www.w3.org/Graphics/SVG/1.1/DTD/svg11.dtd">
<svg version="1.1" id="Vrstva_1" xmlns="http://www.w3.org/2000/svg" xmlns:xlink="http://www.w3.org/1999/xlink" x="0px" y="0px"
	 width="200px" height="200px" viewBox="-92 -184 200 200" enable-background="new -92 -184 200 200" xml:space="preserve">
<path fill="#B5B397" d="M47.926-98.003c0,0-2.16-10.479-3.427-11.746l-4.838-4.826l0.715-0.709l0.072-0.083
	c0.67-0.67,0.67-1.747,0-2.411l-1.803-1.813l-1.813-1.808c-0.726-0.664-1.522-0.898-2.41,0l-0.792,0.787l-6.925-6.931
	c-0.452-0.446-1.184-0.446-1.636,0l-8.19,8.191c-0.212,0.212-0.341,0.508-0.341,0.826c0,0.302,0.117,0.597,0.341,0.815l6.93,6.93
	L7.847-94.828L-8.38-111.061c2.79-2.578,5.726-5.011,8.783-7.276c0.469-0.346,0.569-0.993,0.234-1.462
	c-2.037-2.812-4.079-5.625-6.127-8.437c-0.184-0.223-0.457-0.368-0.747-0.391c-0.291-0.033-0.581,0.056-0.809,0.246
	c-3.555,2.634-6.953,5.468-10.184,8.471l-0.826-0.826l-0.569-0.379c-0.647-0.011-0.318,0-1.005-0.034
	c-0.357,0.034-0.547,0.201-0.836,0.413l-1.814,1.808l-1.813,1.808c-0.67,0.67-0.67,1.752,0,2.422l0.831,0.826
	c-3.007,3.236-5.842,6.64-8.487,10.2c-0.189,0.223-0.273,0.519-0.246,0.803c0.034,0.301,0.173,0.558,0.402,0.748
	c2.813,2.043,5.625,4.085,8.426,6.127c0.469,0.334,1.122,0.234,1.462-0.234c2.277-3.068,4.721-6.004,7.299-8.799L1.832-88.799
	l-21.74,21.74c-1.339,1.328-1.339,3.488,0,4.821l0.603,0.614l0.598,0.597c1.333,1.333,3.499,1.333,4.827,0L7.847-82.762
	l22.391,22.387c1.328,1.328,3.492,1.328,4.826,0l0.608-0.608l0.597-0.597c1.334-1.328,1.334-3.493,0-4.833L13.882-88.799
	l15.953-15.951l4.826,4.828c1.055,1.054,11.791,3.403,11.791,3.403c0.436,0.134,0.915,0.073,1.306-0.167
	C47.998-97.088,48.07-97.557,47.926-98.003"/>
</svg>
