<svg xmlns="http://www.w3.org/2000/svg" width="1440" height="900"><path d="M766,496L855,600L864,478Z" fill="#43410e" stroke="#43410e" stroke-width="1.51"/><path d="M766,496L793,602L855,600Z" fill="#423f0e" stroke="#423f0e" stroke-width="1.51"/><path d="M984,510L943,433L864,478Z" fill="#42400d" stroke="#42400d" stroke-width="1.51"/><path d="M864,478L756,377L766,496Z" fill="#47450e" stroke="#47450e" stroke-width="1.51"/><path d="M766,496L670,591L793,602Z" fill="#44410e" stroke="#44410e" stroke-width="1.51"/><path d="M855,600L984,510L864,478Z" fill="#413e0d" stroke="#413e0d" stroke-width="1.51"/><path d="M663,536L670,591L766,496Z" fill="#45420e" stroke="#45420e" stroke-width="1.51"/><path d="M855,600L978,594L984,510Z" fill="#3d3b0d" stroke="#3d3b0d" stroke-width="1.51"/><path d="M943,433L841,367L864,478Z" fill="#44410e" stroke="#44410e" stroke-width="1.51"/><path d="M766,496L679,398L663,536Z" fill="#48460f" stroke="#48460f" stroke-width="1.51"/><path d="M841,367L756,377L864,478Z" fill="#45420e" stroke="#45420e" stroke-width="1.51"/><path d="M793,602L862,713L855,600Z" fill="#3d3b0d" stroke="#3d3b0d" stroke-width="1.51"/><path d="M855,600L862,713L978,594Z" fill="#3c3a0d" stroke="#3c3a0d" stroke-width="1.51"/><path d="M746,700L862,713L793,602Z" fill="#3d3a0d" stroke="#3d3a0d" stroke-width="1.51"/><path d="M692,685L746,700L793,602Z" fill="#3f3d0d" stroke="#3f3d0d" stroke-width="1.51"/><path d="M670,591L692,685L793,602Z" fill="#423f0e" stroke="#423f0e" stroke-width="1.51"/><path d="M756,377L679,398L766,496Z" fill="#48450f" stroke="#48450f" stroke-width="1.51"/><path d="M663,536L594,577L670,591Z" fill="#423f0e" stroke="#423f0e" stroke-width="1.51"/><path d="M670,591L594,577L692,685Z" fill="#403d0d" stroke="#403d0d" stroke-width="1.51"/><path d="M569,479L594,577L663,536Z" fill="#42400e" stroke="#42400e" stroke-width="1.51"/><path d="M862,713L967,725L978,594Z" fill="#39370c" stroke="#39370c" stroke-width="1.51"/><path d="M837,793L967,725L862,713Z" fill="#37350c" stroke="#37350c" stroke-width="1.51"/><path d="M841,367L753,285L756,377Z" fill="#43400e" stroke="#43400e" stroke-width="1.51"/><path d="M756,377L753,285L679,398Z" fill="#45420e" stroke="#45420e" stroke-width="1.51"/><path d="M964,303L865,298L841,367Z" fill="#3e3c0d" stroke="#3e3c0d" stroke-width="1.51"/><path d="M746,700L837,793L862,713Z" fill="#3a380c" stroke="#3a380c" stroke-width="1.51"/><path d="M748,789L837,793L746,700Z" fill="#39370c" stroke="#39370c" stroke-width="1.51"/><path d="M865,298L753,285L841,367Z" fill="#413e0d" stroke="#413e0d" stroke-width="1.51"/><path d="M679,398L569,479L663,536Z" fill="#46430e" stroke="#46430e" stroke-width="1.51"/><path d="M594,368L569,479L679,398Z" fill="#45420e" stroke="#45420e" stroke-width="1.51"/><path d="M700,800L748,789L746,700Z" fill="#3b380d" stroke="#3b380d" stroke-width="1.51"/><path d="M700,800L746,700L692,685Z" fill="#3d3a0d" stroke="#3d3a0d" stroke-width="1.51"/><path d="M978,594L1090,516L984,510Z" fill="#3d3a0c" stroke="#3d3a0c" stroke-width="1.51"/><path d="M967,725L1044,683L978,594Z" fill="#37350c" stroke="#37350c" stroke-width="1.51"/><path d="M984,510L1089,426L943,433Z" fill="#403e0e" stroke="#403e0e" stroke-width="1.51"/><path d="M943,433L964,303L841,367Z" fill="#403e0c" stroke="#403e0c" stroke-width="1.51"/><path d="M1091,614L1090,516L978,594Z" fill="#39370c" stroke="#39370c" stroke-width="1.51"/><path d="M1089,426L964,303L943,433Z" fill="#3e3c0d" stroke="#3e3c0d" stroke-width="1.51"/><path d="M865,298L744,214L753,285Z" fill="#3f3d0d" stroke="#3f3d0d" stroke-width="1.51"/><path d="M1044,683L1091,614L978,594Z" fill="#37350c" stroke="#37350c" stroke-width="1.51"/><path d="M753,285L632,331L679,398Z" fill="#44410e" stroke="#44410e" stroke-width="1.51"/><path d="M632,331L594,368L679,398Z" fill="#43410d" stroke="#43410d" stroke-width="1.51"/><path d="M1090,516L1089,426L984,510Z" fill="#3e3b0d" stroke="#3e3b0d" stroke-width="1.51"/><path d="M553,699L700,800L692,685Z" fill="#3b380d" stroke="#3b380d" stroke-width="1.51"/><path d="M748,789L761,874L837,793Z" fill="#37340c" stroke="#37340c" stroke-width="1.51"/><path d="M594,577L553,699L692,685Z" fill="#3d3b0d" stroke="#3d3b0d" stroke-width="1.51"/><path d="M454,567L553,699L594,577Z" fill="#3c3a0d" stroke="#3c3a0d" stroke-width="1.51"/><path d="M1091,614L1144,575L1090,516Z" fill="#38360c" stroke="#38360c" stroke-width="1.51"/><path d="M1090,516L1155,481L1089,426Z" fill="#3d3a0d" stroke="#3d3a0d" stroke-width="1.51"/><path d="M1197,738L1144,575L1091,614Z" fill="#34320b" stroke="#34320b" stroke-width="1.51"/><path d="M967,725L998,812L1044,683Z" fill="#33310b" stroke="#33310b" stroke-width="1.51"/><path d="M1044,683L1197,738L1091,614Z" fill="#33310b" stroke="#33310b" stroke-width="1.51"/><path d="M837,793L998,812L967,725Z" fill="#34320b" stroke="#34320b" stroke-width="1.51"/><path d="M859,915L998,812L837,793Z" fill="#32300c" stroke="#32300c" stroke-width="1.51"/><path d="M753,285L744,214L632,331Z" fill="#413f0e" stroke="#413f0e" stroke-width="1.51"/><path d="M463,401L569,479L594,368Z" fill="#43400e" stroke="#43400e" stroke-width="1.51"/><path d="M853,168L744,214L865,298Z" fill="#3c3a0d" stroke="#3c3a0d" stroke-width="1.51"/><path d="M1144,575L1155,481L1090,516Z" fill="#3a380c" stroke="#3a380c" stroke-width="1.51"/><path d="M1089,426L1097,279L964,303Z" fill="#3a380c" stroke="#3a380c" stroke-width="1.51"/><path d="M700,800L761,874L748,789Z" fill="#37360d" stroke="#37360d" stroke-width="1.51"/><path d="M690,923L761,874L700,800Z" fill="#36330d" stroke="#36330d" stroke-width="1.51"/><path d="M569,479L454,567L594,577Z" fill="#403e0d" stroke="#403e0d" stroke-width="1.51"/><path d="M463,401L465,467L569,479Z" fill="#43400e" stroke="#43400e" stroke-width="1.51"/><path d="M578,262L594,368L632,331Z" fill="#403e0c" stroke="#403e0c" stroke-width="1.51"/><path d="M636,173L578,262L632,331Z" fill="#3d3b0d" stroke="#3d3b0d" stroke-width="1.51"/><path d="M993,201L853,168L865,298Z" fill="#3a370c" stroke="#3a370c" stroke-width="1.51"/><path d="M636,173L575,218L578,262Z" fill="#3b390c" stroke="#3b390c" stroke-width="1.51"/><path d="M993,201L865,298L964,303Z" fill="#3a380c" stroke="#3a380c" stroke-width="1.51"/><path d="M465,467L454,567L569,479Z" fill="#403e0d" stroke="#403e0d" stroke-width="1.51"/><path d="M1184,394L1097,279L1089,426Z" fill="#39370c" stroke="#39370c" stroke-width="1.51"/><path d="M1097,279L993,201L964,303Z" fill="#38360c" stroke="#38360c" stroke-width="1.51"/><path d="M998,812L1071,825L1044,683Z" fill="#312f0a" stroke="#312f0a" stroke-width="1.51"/><path d="M994,914L1071,825L998,812Z" fill="#2e2c0a" stroke="#2e2c0a" stroke-width="1.51"/><path d="M761,874L859,915L837,793Z" fill="#33310c" stroke="#33310c" stroke-width="1.51"/><path d="M493,324L463,401L594,368Z" fill="#3f3d0d" stroke="#3f3d0d" stroke-width="1.51"/><path d="M396,479L402,621L454,567Z" fill="#3b390c" stroke="#3b390c" stroke-width="1.51"/><path d="M553,699L563,822L700,800Z" fill="#37350c" stroke="#37350c" stroke-width="1.51"/><path d="M761,874L794,994L859,915Z" fill="#312e0c" stroke="#312e0c" stroke-width="1.51"/><path d="M453,804L563,822L553,699Z" fill="#35330b" stroke="#35330b" stroke-width="1.51"/><path d="M1261,510L1184,394L1155,481Z" fill="#3a380d" stroke="#3a380d" stroke-width="1.51"/><path d="M1155,481L1184,394L1089,426Z" fill="#3c3a0d" stroke="#3c3a0d" stroke-width="1.51"/><path d="M578,262L493,324L594,368Z" fill="#3f3d0d" stroke="#3f3d0d" stroke-width="1.51"/><path d="M578,262L492,219L493,324Z" fill="#3b390c" stroke="#3b390c" stroke-width="1.51"/><path d="M636,173L632,331L744,214Z" fill="#3e3c0d" stroke="#3e3c0d" stroke-width="1.51"/><path d="M633,119L636,173L744,214Z" fill="#3b390d" stroke="#3b390d" stroke-width="1.51"/><path d="M585,918L690,923L700,800Z" fill="#33310c" stroke="#33310c" stroke-width="1.51"/><path d="M969,979L994,914L859,915Z" fill="#2c2a0a" stroke="#2c2a0a" stroke-width="1.51"/><path d="M859,915L994,914L998,812Z" fill="#2f2d0b" stroke="#2f2d0b" stroke-width="1.51"/><path d="M454,567L439,712L553,699Z" fill="#39370c" stroke="#39370c" stroke-width="1.51"/><path d="M402,621L439,712L454,567Z" fill="#38360c" stroke="#38360c" stroke-width="1.51"/><path d="M1157,802L1044,683L1071,825Z" fill="#2f2d0a" stroke="#2f2d0a" stroke-width="1.51"/><path d="M1157,802L1197,738L1044,683Z" fill="#2f2d0a" stroke="#2f2d0a" stroke-width="1.51"/><path d="M1144,575L1261,510L1155,481Z" fill="#38360c" stroke="#38360c" stroke-width="1.51"/><path d="M1184,394L1193,326L1097,279Z" fill="#37350c" stroke="#37350c" stroke-width="1.51"/><path d="M1097,279L1074,182L993,201Z" fill="#35330b" stroke="#35330b" stroke-width="1.51"/><path d="M1286,423L1193,326L1184,394Z" fill="#37350c" stroke="#37350c" stroke-width="1.51"/><path d="M1091,920L1157,802L1071,825Z" fill="#2b2909" stroke="#2b2909" stroke-width="1.51"/><path d="M853,168L790,110L744,214Z" fill="#3a380c" stroke="#3a380c" stroke-width="1.51"/><path d="M906,90L790,110L853,168Z" fill="#37350c" stroke="#37350c" stroke-width="1.51"/><path d="M396,479L454,567L465,467Z" fill="#3f3c0d" stroke="#3f3c0d" stroke-width="1.51"/><path d="M463,401L396,479L465,467Z" fill="#413f0e" stroke="#413f0e" stroke-width="1.51"/><path d="M398,369L396,479L463,401Z" fill="#3f3c0d" stroke="#3f3c0d" stroke-width="1.51"/><path d="M993,201L954,116L853,168Z" fill="#36340b" stroke="#36340b" stroke-width="1.51"/><path d="M1158,186L1074,182L1097,279Z" fill="#33310b" stroke="#33310b" stroke-width="1.51"/><path d="M1304,621L1261,510L1144,575Z" fill="#34320b" stroke="#34320b" stroke-width="1.51"/><path d="M1074,182L954,116L993,201Z" fill="#34320b" stroke="#34320b" stroke-width="1.51"/><path d="M481,879L585,918L563,822Z" fill="#302f0b" stroke="#302f0b" stroke-width="1.51"/><path d="M563,822L585,918L700,800Z" fill="#34320c" stroke="#34320c" stroke-width="1.51"/><path d="M954,116L906,90L853,168Z" fill="#35330c" stroke="#35330c" stroke-width="1.51"/><path d="M439,712L453,804L553,699Z" fill="#35330b" stroke="#35330b" stroke-width="1.51"/><path d="M402,621L394,684L439,712Z" fill="#36340b" stroke="#36340b" stroke-width="1.51"/><path d="M290,603L394,684L402,621Z" fill="#36340c" stroke="#36340c" stroke-width="1.51"/><path d="M332,779L453,804L439,712Z" fill="#32300a" stroke="#32300a" stroke-width="1.51"/><path d="M493,324L398,369L463,401Z" fill="#3d3b0d" stroke="#3d3b0d" stroke-width="1.51"/><path d="M381,262L398,369L493,324Z" fill="#3b390c" stroke="#3b390c" stroke-width="1.51"/><path d="M632,979L794,994L690,923Z" fill="#312f0d" stroke="#312f0d" stroke-width="1.51"/><path d="M690,923L794,994L761,874Z" fill="#32300d" stroke="#32300d" stroke-width="1.51"/><path d="M575,218L492,219L578,262Z" fill="#3a380c" stroke="#3a380c" stroke-width="1.51"/><path d="M636,173L589,111L575,218Z" fill="#39370c" stroke="#39370c" stroke-width="1.51"/><path d="M790,110L633,119L744,214Z" fill="#3c390d" stroke="#3c390d" stroke-width="1.51"/><path d="M589,111L633,119L600,27Z" fill="#35330c" stroke="#35330c" stroke-width="1.51"/><path d="M589,111L492,219L575,218Z" fill="#38360c" stroke="#38360c" stroke-width="1.51"/><path d="M876,1032L969,979L859,915Z" fill="#2c2a0b" stroke="#2c2a0b" stroke-width="1.51"/><path d="M994,914L1091,920L1071,825Z" fill="#2b2909" stroke="#2b2909" stroke-width="1.51"/><path d="M1068,971L1091,920L994,914Z" fill="#292709" stroke="#292709" stroke-width="1.51"/><path d="M1291,834L1275,703L1197,738Z" fill="#2b2909" stroke="#2b2909" stroke-width="1.51"/><path d="M1261,510L1286,423L1184,394Z" fill="#39370d" stroke="#39370d" stroke-width="1.51"/><path d="M1193,326L1158,186L1097,279Z" fill="#34320b" stroke="#34320b" stroke-width="1.51"/><path d="M1401,488L1286,423L1261,510Z" fill="#36340d" stroke="#36340d" stroke-width="1.51"/><path d="M1197,738L1275,703L1144,575Z" fill="#302e0a" stroke="#302e0a" stroke-width="1.51"/><path d="M1291,834L1197,738L1157,802Z" fill="#2a2809" stroke="#2a2809" stroke-width="1.51"/><path d="M585,918L632,979L690,923Z" fill="#302e0c" stroke="#302e0c" stroke-width="1.51"/><path d="M568,982L632,979L585,918Z" fill="#2d2c0c" stroke="#2d2c0c" stroke-width="1.51"/><path d="M1074,182L1087,75L954,116Z" fill="#312f0a" stroke="#312f0a" stroke-width="1.51"/><path d="M1007,-10L900,2L906,90Z" fill="#302e0b" stroke="#302e0b" stroke-width="1.51"/><path d="M1275,303L1158,186L1193,326Z" fill="#32300b" stroke="#32300b" stroke-width="1.51"/><path d="M453,804L481,879L563,822Z" fill="#312f0b" stroke="#312f0b" stroke-width="1.51"/><path d="M394,909L481,879L453,804Z" fill="#2e2c0a" stroke="#2e2c0a" stroke-width="1.51"/><path d="M633,119L589,111L636,173Z" fill="#38360c" stroke="#38360c" stroke-width="1.51"/><path d="M768,4L633,119L790,110Z" fill="#37350d" stroke="#37350d" stroke-width="1.51"/><path d="M1275,703L1304,621L1144,575Z" fill="#312f0a" stroke="#312f0a" stroke-width="1.51"/><path d="M969,979L1068,971L994,914Z" fill="#292809" stroke="#292809" stroke-width="1.51"/><path d="M794,994L876,1032L859,915Z" fill="#2d2b0c" stroke="#2d2b0c" stroke-width="1.51"/><path d="M746,1127L876,1032L794,994Z" fill="#2b290c" stroke="#2b290c" stroke-width="1.51"/><path d="M1207,939L1253,880L1157,802Z" fill="#272508" stroke="#272508" stroke-width="1.51"/><path d="M1153,1010L1068,971L1096,1079Z" fill="#242208" stroke="#242208" stroke-width="1.51"/><path d="M1286,423L1275,303L1193,326Z" fill="#35320b" stroke="#35320b" stroke-width="1.51"/><path d="M632,979L657,1087L794,994Z" fill="#2e2c0d" stroke="#2e2c0d" stroke-width="1.51"/><path d="M481,879L568,982L585,918Z" fill="#2e2c0b" stroke="#2e2c0b" stroke-width="1.51"/><path d="M492,219L381,262L493,324Z" fill="#39370c" stroke="#39370c" stroke-width="1.51"/><path d="M246,484L290,603L396,479Z" fill="#3a380c" stroke="#3a380c" stroke-width="1.51"/><path d="M396,479L290,603L402,621Z" fill="#39370c" stroke="#39370c" stroke-width="1.51"/><path d="M365,230L381,262L492,219Z" fill="#36340b" stroke="#36340b" stroke-width="1.51"/><path d="M1158,186L1087,75L1074,182Z" fill="#302e0a" stroke="#302e0a" stroke-width="1.51"/><path d="M900,2L768,4L790,110Z" fill="#33310c" stroke="#33310c" stroke-width="1.51"/><path d="M1149,69L1087,75L1158,186Z" fill="#2d2b0a" stroke="#2d2b0a" stroke-width="1.51"/><path d="M900,2L790,110L906,90Z" fill="#33310c" stroke="#33310c" stroke-width="1.51"/><path d="M289,386L396,479L398,369Z" fill="#3d3b0d" stroke="#3d3b0d" stroke-width="1.51"/><path d="M394,684L332,779L439,712Z" fill="#32300b" stroke="#32300b" stroke-width="1.51"/><path d="M1007,-10L906,90L954,116Z" fill="#302e0b" stroke="#302e0b" stroke-width="1.51"/><path d="M481,879L479,999L568,982Z" fill="#2c2a0a" stroke="#2c2a0a" stroke-width="1.51"/><path d="M268,683L332,779L394,684Z" fill="#312f0a" stroke="#312f0a" stroke-width="1.51"/><path d="M1275,703L1347,709L1304,621Z" fill="#2d2b0a" stroke="#2d2b0a" stroke-width="1.51"/><path d="M1207,939L1157,802L1091,920Z" fill="#282608" stroke="#282608" stroke-width="1.51"/><path d="M1394,414L1349,315L1286,423Z" fill="#33310c" stroke="#33310c" stroke-width="1.51"/><path d="M1349,315L1297,234L1275,303Z" fill="#302e0b" stroke="#302e0b" stroke-width="1.51"/><path d="M1291,834L1347,709L1275,703Z" fill="#2a2809" stroke="#2a2809" stroke-width="1.51"/><path d="M281,313L289,386L398,369Z" fill="#39370c" stroke="#39370c" stroke-width="1.51"/><path d="M456,96L365,230L492,219Z" fill="#34330b" stroke="#34330b" stroke-width="1.51"/><path d="M456,96L492,219L589,111Z" fill="#35330b" stroke="#35330b" stroke-width="1.51"/><path d="M1253,880L1291,834L1157,802Z" fill="#282608" stroke="#282608" stroke-width="1.51"/><path d="M1153,1010L1207,939L1091,920Z" fill="#252308" stroke="#252308" stroke-width="1.51"/><path d="M1349,935L1402,789L1291,834Z" fill="#242207" stroke="#242207" stroke-width="1.51"/><path d="M1153,1010L1091,920L1068,971Z" fill="#262408" stroke="#262408" stroke-width="1.51"/><path d="M281,313L398,369L381,262Z" fill="#38360c" stroke="#38360c" stroke-width="1.51"/><path d="M670,-14L600,27L633,119Z" fill="#34320c" stroke="#34320c" stroke-width="1.51"/><path d="M1275,303L1297,234L1158,186Z" fill="#302e0a" stroke="#302e0a" stroke-width="1.51"/><path d="M1349,315L1275,303L1286,423Z" fill="#33310c" stroke="#33310c" stroke-width="1.51"/><path d="M332,779L394,909L453,804Z" fill="#2e2c0a" stroke="#2e2c0a" stroke-width="1.51"/><path d="M1087,75L1007,-10L954,116Z" fill="#2f2d0a" stroke="#2f2d0a" stroke-width="1.51"/><path d="M1259,123L1149,69L1158,186Z" fill="#2c2a09" stroke="#2c2a09" stroke-width="1.51"/><path d="M1401,488L1261,510L1304,621Z" fill="#33310b" stroke="#33310b" stroke-width="1.51"/><path d="M768,4L670,-14L633,119Z" fill="#35330d" stroke="#35330d" stroke-width="1.51"/><path d="M678,-102L670,-14L768,4Z" fill="#32300d" stroke="#32300d" stroke-width="1.51"/><path d="M600,27L456,96L589,111Z" fill="#33310c" stroke="#33310c" stroke-width="1.51"/><path d="M431,20L456,96L600,27Z" fill="#302e0a" stroke="#302e0a" stroke-width="1.51"/><path d="M290,603L268,683L394,684Z" fill="#34320b" stroke="#34320b" stroke-width="1.51"/><path d="M332,779L295,797L394,909Z" fill="#2c2b09" stroke="#2c2b09" stroke-width="1.51"/><path d="M138,587L268,683L290,603Z" fill="#33310b" stroke="#33310b" stroke-width="1.51"/><path d="M592,1069L657,1087L632,979Z" fill="#2b290c" stroke="#2b290c" stroke-width="1.51"/><path d="M592,1069L632,979L568,982Z" fill="#2c2a0c" stroke="#2c2a0c" stroke-width="1.51"/><path d="M1053,-10L1007,-10L1087,75Z" fill="#2c2a0a" stroke="#2c2a0a" stroke-width="1.51"/><path d="M900,2L884,-91L768,4Z" fill="#2f2d0c" stroke="#2f2d0c" stroke-width="1.51"/><path d="M1349,935L1291,834L1253,880Z" fill="#242208" stroke="#242208" stroke-width="1.51"/><path d="M1096,1079L1068,971L969,979Z" fill="#262409" stroke="#262409" stroke-width="1.51"/><path d="M967,1137L969,979L876,1032Z" fill="#28260a" stroke="#28260a" stroke-width="1.51"/><path d="M394,909L479,999L481,879Z" fill="#2b290a" stroke="#2b290a" stroke-width="1.51"/><path d="M1397,634L1401,488L1304,621Z" fill="#302e0b" stroke="#302e0b" stroke-width="1.51"/><path d="M289,386L246,484L396,479Z" fill="#3d3b0d" stroke="#3d3b0d" stroke-width="1.51"/><path d="M479,999L592,1069L568,982Z" fill="#2a280b" stroke="#2a280b" stroke-width="1.51"/><path d="M1347,709L1397,634L1304,621Z" fill="#2d2b0a" stroke="#2d2b0a" stroke-width="1.51"/><path d="M1485,696L1397,634L1347,709Z" fill="#2a2809" stroke="#2a2809" stroke-width="1.51"/><path d="M1401,488L1394,414L1286,423Z" fill="#35320d" stroke="#35320d" stroke-width="1.51"/><path d="M365,230L281,313L381,262Z" fill="#36340b" stroke="#36340b" stroke-width="1.51"/><path d="M289,386L164,429L246,484Z" fill="#3a380d" stroke="#3a380d" stroke-width="1.51"/><path d="M298,180L281,313L365,230Z" fill="#34320b" stroke="#34320b" stroke-width="1.51"/><path d="M268,683L295,797L332,779Z" fill="#2f2d0a" stroke="#2f2d0a" stroke-width="1.51"/><path d="M1149,69L1053,-10L1087,75Z" fill="#2b2909" stroke="#2b2909" stroke-width="1.51"/><path d="M985,-80L884,-91L900,2Z" fill="#2c2a0a" stroke="#2c2a0a" stroke-width="1.51"/><path d="M657,1087L746,1127L794,994Z" fill="#2d2b0d" stroke="#2d2b0d" stroke-width="1.51"/><path d="M462,1093L746,1127L657,1087Z" fill="#2a280c" stroke="#2a280c" stroke-width="1.51"/><path d="M1344,171L1259,123L1297,234Z" fill="#2b2909" stroke="#2b2909" stroke-width="1.51"/><path d="M1297,234L1259,123L1158,186Z" fill="#2d2b09" stroke="#2d2b09" stroke-width="1.51"/><path d="M1149,69L1171,-33L1053,-10Z" fill="#292708" stroke="#292708" stroke-width="1.51"/><path d="M746,1127L892,1135L876,1032Z" fill="#2a280c" stroke="#2a280c" stroke-width="1.51"/><path d="M967,1137L1096,1079L969,979Z" fill="#252309" stroke="#252309" stroke-width="1.51"/><path d="M892,1135L967,1137L876,1032Z" fill="#28260a" stroke="#28260a" stroke-width="1.51"/><path d="M985,-80L900,2L1007,-10Z" fill="#2c2a0a" stroke="#2c2a0a" stroke-width="1.51"/><path d="M1291,834L1402,789L1347,709Z" fill="#272508" stroke="#272508" stroke-width="1.51"/><path d="M1505,596L1465,476L1401,488Z" fill="#2f2d0c" stroke="#2f2d0c" stroke-width="1.51"/><path d="M1349,935L1253,880L1207,939Z" fill="#232107" stroke="#232107" stroke-width="1.51"/><path d="M1349,935L1207,939L1348,971Z" fill="#211f07" stroke="#211f07" stroke-width="1.51"/><path d="M164,429L173,535L246,484Z" fill="#38350c" stroke="#38350c" stroke-width="1.51"/><path d="M362,74L298,180L365,230Z" fill="#312f0a" stroke="#312f0a" stroke-width="1.51"/><path d="M1349,315L1344,171L1297,234Z" fill="#2d2b0a" stroke="#2d2b0a" stroke-width="1.51"/><path d="M1102,-70L985,-80L1053,-10Z" fill="#282709" stroke="#282709" stroke-width="1.51"/><path d="M1504,197L1344,171L1349,315Z" fill="#2a2809" stroke="#2a2809" stroke-width="1.51"/><path d="M1171,-33L1149,69L1252,15Z" fill="#272508" stroke="#272508" stroke-width="1.51"/><path d="M1053,-10L985,-80L1007,-10Z" fill="#2b290a" stroke="#2b290a" stroke-width="1.51"/><path d="M1394,414L1497,327L1349,315Z" fill="#2f2e0c" stroke="#2f2e0c" stroke-width="1.51"/><path d="M1401,488L1465,476L1394,414Z" fill="#33310d" stroke="#33310d" stroke-width="1.51"/><path d="M1505,596L1401,488L1397,634Z" fill="#2e2c0b" stroke="#2e2c0b" stroke-width="1.51"/><path d="M456,96L362,74L365,230Z" fill="#312f0a" stroke="#312f0a" stroke-width="1.51"/><path d="M465,-115L431,20L600,27Z" fill="#2c2b0b" stroke="#2c2b0b" stroke-width="1.51"/><path d="M592,-134L600,27L670,-14Z" fill="#302d0c" stroke="#302d0c" stroke-width="1.51"/><path d="M164,429L289,386L281,313Z" fill="#38360c" stroke="#38360c" stroke-width="1.51"/><path d="M246,484L173,535L290,603Z" fill="#37340c" stroke="#37340c" stroke-width="1.51"/><path d="M174,896L282,930L295,797Z" fill="#282608" stroke="#282608" stroke-width="1.51"/><path d="M884,-91L789,-116L768,4Z" fill="#2e2d0c" stroke="#2e2d0c" stroke-width="1.51"/><path d="M1158,-118L789,-116L884,-91Z" fill="#29270a" stroke="#29270a" stroke-width="1.51"/><path d="M431,20L362,74L456,96Z" fill="#2e2c0a" stroke="#2e2c0a" stroke-width="1.51"/><path d="M789,-116L678,-102L768,4Z" fill="#302e0d" stroke="#302e0d" stroke-width="1.51"/><path d="M1282,1026L1207,939L1153,1010Z" fill="#222007" stroke="#222007" stroke-width="1.51"/><path d="M592,1069L462,1093L657,1087Z" fill="#29270b" stroke="#29270b" stroke-width="1.51"/><path d="M479,999L462,1093L592,1069Z" fill="#27260a" stroke="#27260a" stroke-width="1.51"/><path d="M332,1006L462,1093L479,999Z" fill="#262409" stroke="#262409" stroke-width="1.51"/><path d="M332,1006L479,999L394,909Z" fill="#272609" stroke="#272609" stroke-width="1.51"/><path d="M1252,15L1149,69L1259,123Z" fill="#292709" stroke="#292709" stroke-width="1.51"/><path d="M1171,-33L1102,-70L1053,-10Z" fill="#272508" stroke="#272508" stroke-width="1.51"/><path d="M985,-80L1158,-118L884,-91Z" fill="#272609" stroke="#272609" stroke-width="1.51"/><path d="M149,277L164,429L281,313Z" fill="#35320b" stroke="#35320b" stroke-width="1.51"/><path d="M1096,1079L1210,1083L1153,1010Z" fill="#211f07" stroke="#211f07" stroke-width="1.51"/><path d="M1295,1131L1210,1083L1096,1079Z" fill="#201e07" stroke="#201e07" stroke-width="1.51"/><path d="M295,797L282,930L394,909Z" fill="#292709" stroke="#292709" stroke-width="1.51"/><path d="M158,791L295,797L268,683Z" fill="#2d2b09" stroke="#2d2b09" stroke-width="1.51"/><path d="M1210,1083L1282,1026L1153,1010Z" fill="#201e07" stroke="#201e07" stroke-width="1.51"/><path d="M1399,102L1252,15L1259,123Z" fill="#272508" stroke="#272508" stroke-width="1.51"/><path d="M1488,801L1485,696L1402,789Z" fill="#252307" stroke="#252307" stroke-width="1.51"/><path d="M1402,789L1485,696L1347,709Z" fill="#272508" stroke="#272508" stroke-width="1.51"/><path d="M282,930L332,1006L394,909Z" fill="#272508" stroke="#272508" stroke-width="1.51"/><path d="M1349,935L1444,888L1402,789Z" fill="#211f07" stroke="#211f07" stroke-width="1.51"/><path d="M1282,1026L1348,971L1207,939Z" fill="#201e07" stroke="#201e07" stroke-width="1.51"/><path d="M1485,696L1505,596L1397,634Z" fill="#2a2809" stroke="#2a2809" stroke-width="1.51"/><path d="M173,535L138,587L290,603Z" fill="#34320b" stroke="#34320b" stroke-width="1.51"/><path d="M29,484L138,587L173,535Z" fill="#32310c" stroke="#32310c" stroke-width="1.51"/><path d="M1465,476L1504,403L1394,414Z" fill="#312f0d" stroke="#312f0d" stroke-width="1.51"/><path d="M1344,171L1399,102L1259,123Z" fill="#282608" stroke="#282608" stroke-width="1.51"/><path d="M1565,464L1504,403L1465,476Z" fill="#312f0d" stroke="#312f0d" stroke-width="1.51"/><path d="M138,587L133,666L268,683Z" fill="#302e0a" stroke="#302e0a" stroke-width="1.51"/><path d="M1504,403L1497,327L1394,414Z" fill="#2f2d0c" stroke="#2f2d0c" stroke-width="1.51"/><path d="M431,20L388,-29L362,74Z" fill="#2c2a0a" stroke="#2c2a0a" stroke-width="1.51"/><path d="M678,-102L592,-134L670,-14Z" fill="#2e2c0d" stroke="#2e2c0d" stroke-width="1.51"/><path d="M789,-116L592,-134L678,-102Z" fill="#2e2c0d" stroke="#2e2c0d" stroke-width="1.51"/><path d="M1459,1005L1444,888L1349,935Z" fill="#1e1c06" stroke="#1e1c06" stroke-width="1.51"/><path d="M282,930L235,991L332,1006Z" fill="#242208" stroke="#242208" stroke-width="1.51"/><path d="M133,666L158,791L268,683Z" fill="#2d2b09" stroke="#2d2b09" stroke-width="1.51"/><path d="M465,-115L388,-29L431,20Z" fill="#2a2809" stroke="#2a2809" stroke-width="1.51"/><path d="M179,208L281,313L298,180Z" fill="#312f0a" stroke="#312f0a" stroke-width="1.51"/><path d="M179,208L149,277L281,313Z" fill="#312f0a" stroke="#312f0a" stroke-width="1.51"/><path d="M1444,888L1488,801L1402,789Z" fill="#222007" stroke="#222007" stroke-width="1.51"/><path d="M1597,705L1596,585L1505,596Z" fill="#27250a" stroke="#27250a" stroke-width="1.51"/><path d="M1504,197L1399,102L1344,171Z" fill="#272508" stroke="#272508" stroke-width="1.51"/><path d="M1279,-69L1158,-118L1171,-33Z" fill="#232108" stroke="#232108" stroke-width="1.51"/><path d="M179,208L298,180L182,120Z" fill="#2d2b0a" stroke="#2d2b0a" stroke-width="1.51"/><path d="M164,429L29,484L173,535Z" fill="#35330c" stroke="#35330c" stroke-width="1.51"/><path d="M27,585L97,702L133,666Z" fill="#2d2b0a" stroke="#2d2b0a" stroke-width="1.51"/><path d="M242,65L298,180L362,74Z" fill="#2d2b09" stroke="#2d2b09" stroke-width="1.51"/><path d="M1279,-69L1171,-33L1252,15Z" fill="#242207" stroke="#242207" stroke-width="1.51"/><path d="M1171,-33L1158,-118L1102,-70Z" fill="#252308" stroke="#252308" stroke-width="1.51"/><path d="M1102,-70L1158,-118L985,-80Z" fill="#262409" stroke="#262409" stroke-width="1.51"/><path d="M789,-116L1158,-118L592,-134Z" fill="#2b290c" stroke="#2b290c" stroke-width="1.51"/><path d="M158,791L174,896L295,797Z" fill="#282608" stroke="#282608" stroke-width="1.51"/><path d="M84,937L174,896L28,810Z" fill="#222007" stroke="#222007" stroke-width="1.51"/><path d="M592,-134L465,-115L600,27Z" fill="#2c2a0b" stroke="#2c2a0b" stroke-width="1.51"/><path d="M174,896L235,991L282,930Z" fill="#242207" stroke="#242207" stroke-width="1.51"/><path d="M332,1006L331,1096L462,1093Z" fill="#242209" stroke="#242209" stroke-width="1.51"/><path d="M1497,327L1504,197L1349,315Z" fill="#2b290a" stroke="#2b290a" stroke-width="1.51"/><path d="M1504,403L1573,329L1497,327Z" fill="#2c2a0b" stroke="#2c2a0b" stroke-width="1.51"/><path d="M1505,596L1565,464L1465,476Z" fill="#2e2c0c" stroke="#2e2c0c" stroke-width="1.51"/><path d="M1596,585L1565,464L1505,596Z" fill="#2b290b" stroke="#2b290b" stroke-width="1.51"/><path d="M133,666L97,702L158,791Z" fill="#2b2909" stroke="#2b2909" stroke-width="1.51"/><path d="M27,585L133,666L138,587Z" fill="#2f2d0a" stroke="#2f2d0a" stroke-width="1.51"/><path d="M462,1093L331,1096L746,1127Z" fill="#27260a" stroke="#27260a" stroke-width="1.51"/><path d="M257,1093L331,1096L332,1006Z" fill="#211f08" stroke="#211f08" stroke-width="1.51"/><path d="M262,-27L362,74L388,-29Z" fill="#292708" stroke="#292708" stroke-width="1.51"/><path d="M262,-27L242,65L362,74Z" fill="#292708" stroke="#292708" stroke-width="1.51"/><path d="M1378,-7L1279,-69L1252,15Z" fill="#222007" stroke="#222007" stroke-width="1.51"/><path d="M1282,1026L1349,1094L1348,971Z" fill="#1d1b06" stroke="#1d1b06" stroke-width="1.51"/><path d="M1348,971L1459,1005L1349,935Z" fill="#1e1b06" stroke="#1e1b06" stroke-width="1.51"/><path d="M1210,1083L1295,1131L1282,1026Z" fill="#1e1c06" stroke="#1e1c06" stroke-width="1.51"/><path d="M967,1137L1295,1131L1096,1079Z" fill="#222008" stroke="#222008" stroke-width="1.51"/><path d="M1399,102L1378,-7L1252,15Z" fill="#232107" stroke="#232107" stroke-width="1.51"/><path d="M1573,329L1504,197L1497,327Z" fill="#29270a" stroke="#29270a" stroke-width="1.51"/><path d="M242,65L182,120L298,180Z" fill="#2c2a09" stroke="#2c2a09" stroke-width="1.51"/><path d="M63,170L57,263L149,277Z" fill="#2c2a0a" stroke="#2c2a0a" stroke-width="1.51"/><path d="M1295,1131L1349,1094L1282,1026Z" fill="#1d1b06" stroke="#1d1b06" stroke-width="1.51"/><path d="M1594,886L1582,773L1488,801Z" fill="#201e06" stroke="#201e06" stroke-width="1.51"/><path d="M57,263L74,363L149,277Z" fill="#2f2d0b" stroke="#2f2d0b" stroke-width="1.51"/><path d="M149,277L74,363L164,429Z" fill="#33310b" stroke="#33310b" stroke-width="1.51"/><path d="M1597,705L1505,596L1485,696Z" fill="#272509" stroke="#272509" stroke-width="1.51"/><path d="M1605,389L1573,329L1504,403Z" fill="#2c2a0c" stroke="#2c2a0c" stroke-width="1.51"/><path d="M1597,705L1485,696L1582,773Z" fill="#232208" stroke="#232208" stroke-width="1.51"/><path d="M1461,28L1378,-7L1399,102Z" fill="#211f07" stroke="#211f07" stroke-width="1.51"/><path d="M1605,389L1504,403L1565,464Z" fill="#2e2c0d" stroke="#2e2c0d" stroke-width="1.51"/><path d="M1504,197L1482,120L1399,102Z" fill="#252307" stroke="#252307" stroke-width="1.51"/><path d="M1542,102L1482,120L1504,197Z" fill="#232108" stroke="#232108" stroke-width="1.51"/><path d="M465,-115L374,-109L388,-29Z" fill="#27260a" stroke="#27260a" stroke-width="1.51"/><path d="M242,65L172,-30L182,120Z" fill="#272508" stroke="#272508" stroke-width="1.51"/><path d="M300,-125L374,-109L465,-115Z" fill="#252409" stroke="#252409" stroke-width="1.51"/><path d="M235,991L257,1093L332,1006Z" fill="#222007" stroke="#222007" stroke-width="1.51"/><path d="M174,896L198,1013L235,991Z" fill="#222007" stroke="#222007" stroke-width="1.51"/><path d="M84,937L198,1013L174,896Z" fill="#211f07" stroke="#211f07" stroke-width="1.51"/><path d="M1349,1094L1459,1005L1348,971Z" fill="#1c1a05" stroke="#1c1a05" stroke-width="1.51"/><path d="M1582,773L1485,696L1488,801Z" fill="#242208" stroke="#242208" stroke-width="1.51"/><path d="M1594,886L1488,801L1444,888Z" fill="#1f1d06" stroke="#1f1d06" stroke-width="1.51"/><path d="M198,1013L257,1093L235,991Z" fill="#211e07" stroke="#211e07" stroke-width="1.51"/><path d="M331,1096L67,1128L746,1127Z" fill="#242209" stroke="#242209" stroke-width="1.51"/><path d="M1542,102L1461,28L1482,120Z" fill="#211f07" stroke="#211f07" stroke-width="1.51"/><path d="M1646,405L1605,389L1565,464Z" fill="#2d2a0c" stroke="#2d2a0c" stroke-width="1.51"/><path d="M1646,405L1565,464L1679,533Z" fill="#2c2a0d" stroke="#2c2a0d" stroke-width="1.51"/><path d="M374,-109L262,-27L388,-29Z" fill="#272508" stroke="#272508" stroke-width="1.51"/><path d="M74,363L29,484L164,429Z" fill="#35330d" stroke="#35330d" stroke-width="1.51"/><path d="M28,810L174,896L158,791Z" fill="#252408" stroke="#252408" stroke-width="1.51"/><path d="M29,484L27,585L138,587Z" fill="#302f0b" stroke="#302f0b" stroke-width="1.51"/><path d="M63,170L149,277L179,208Z" fill="#2c2b0a" stroke="#2c2b0a" stroke-width="1.51"/><path d="M74,363L-6,466L29,484Z" fill="#34310d" stroke="#34310d" stroke-width="1.51"/><path d="M63,170L179,208L182,120Z" fill="#2b2909" stroke="#2b2909" stroke-width="1.51"/><path d="M1482,120L1461,28L1399,102Z" fill="#222007" stroke="#222007" stroke-width="1.51"/><path d="M1378,-7L1409,-111L1279,-69Z" fill="#1f1d06" stroke="#1f1d06" stroke-width="1.51"/><path d="M1542,102L1504,197L1599,161Z" fill="#232107" stroke="#232107" stroke-width="1.51"/><path d="M1605,389L1696,262L1573,329Z" fill="#28260b" stroke="#28260b" stroke-width="1.51"/><path d="M1679,533L1565,464L1596,585Z" fill="#2a280b" stroke="#2a280b" stroke-width="1.51"/><path d="M29,484L-6,466L27,585Z" fill="#312f0c" stroke="#312f0c" stroke-width="1.51"/><path d="M-46,412L-6,466L74,363Z" fill="#322f0d" stroke="#322f0d" stroke-width="1.51"/><path d="M1599,161L1504,197L1573,329Z" fill="#262409" stroke="#262409" stroke-width="1.51"/><path d="M1459,1005L1594,886L1444,888Z" fill="#1c1a06" stroke="#1c1a06" stroke-width="1.51"/><path d="M1349,1094L1464,1082L1459,1005Z" fill="#191705" stroke="#191705" stroke-width="1.51"/><path d="M1295,1131L1464,1082L1349,1094Z" fill="#1b1905" stroke="#1b1905" stroke-width="1.51"/><path d="M198,1013L140,1094L257,1093Z" fill="#1f1d06" stroke="#1f1d06" stroke-width="1.51"/><path d="M28,810L158,791L97,702Z" fill="#282608" stroke="#282608" stroke-width="1.51"/><path d="M28,810L97,702L-45,726Z" fill="#272508" stroke="#272508" stroke-width="1.51"/><path d="M-38,610L97,702L27,585Z" fill="#2c2a0a" stroke="#2c2a0a" stroke-width="1.51"/><path d="M62,69L63,170L182,120Z" fill="#272508" stroke="#272508" stroke-width="1.51"/><path d="M374,-109L300,-125L262,-27Z" fill="#252308" stroke="#252308" stroke-width="1.51"/><path d="M592,-134L300,-125L465,-115Z" fill="#27250a" stroke="#27250a" stroke-width="1.51"/><path d="M-39,280L-46,412L74,363Z" fill="#2f2d0c" stroke="#2f2d0c" stroke-width="1.51"/><path d="M172,-30L242,65L262,-27Z" fill="#262408" stroke="#262408" stroke-width="1.51"/><path d="M1595,1039L1594,886L1459,1005Z" fill="#191704" stroke="#191704" stroke-width="1.51"/><path d="M1692,784L1665,682L1597,705Z" fill="#222008" stroke="#222008" stroke-width="1.51"/><path d="M1597,705L1665,682L1596,585Z" fill="#252309" stroke="#252309" stroke-width="1.51"/><path d="M1692,784L1597,705L1582,773Z" fill="#201e07" stroke="#201e07" stroke-width="1.51"/><path d="M1688,603L1679,533L1596,585Z" fill="#28260b" stroke="#28260b" stroke-width="1.51"/><path d="M1667,198L1573,329L1696,262Z" fill="#25240a" stroke="#25240a" stroke-width="1.51"/><path d="M1667,198L1599,161L1573,329Z" fill="#242209" stroke="#242209" stroke-width="1.51"/><path d="M136,-94L172,-30L262,-27Z" fill="#222007" stroke="#222007" stroke-width="1.51"/><path d="M-6,466L-38,610L27,585Z" fill="#2e2c0c" stroke="#2e2c0c" stroke-width="1.51"/><path d="M1665,682L1688,603L1596,585Z" fill="#26240a" stroke="#26240a" stroke-width="1.51"/><path d="M1279,-69L1409,-111L1158,-118Z" fill="#1f1d06" stroke="#1f1d06" stroke-width="1.51"/><path d="M1158,-118L1605,-141L592,-134Z" fill="#232108" stroke="#232108" stroke-width="1.51"/><path d="M1444,-93L1409,-111L1378,-7Z" fill="#1d1a06" stroke="#1d1a06" stroke-width="1.51"/><path d="M1444,-93L1378,-7L1461,28Z" fill="#1f1c06" stroke="#1f1c06" stroke-width="1.51"/><path d="M1444,-93L1461,28L1605,24Z" fill="#1d1a06" stroke="#1d1a06" stroke-width="1.51"/><path d="M-33,912L86,1010L84,937Z" fill="#1e1c06" stroke="#1e1c06" stroke-width="1.51"/><path d="M84,937L86,1010L198,1013Z" fill="#1f1d06" stroke="#1f1d06" stroke-width="1.51"/><path d="M-33,912L84,937L28,810Z" fill="#201e06" stroke="#201e06" stroke-width="1.51"/><path d="M-173,534L-153,633L-38,610Z" fill="#29270a" stroke="#29270a" stroke-width="1.51"/><path d="M-39,280L74,363L57,263Z" fill="#2d2c0a" stroke="#2d2c0a" stroke-width="1.51"/><path d="M86,1010L140,1094L198,1013Z" fill="#1d1b06" stroke="#1d1b06" stroke-width="1.51"/><path d="M257,1093L67,1128L331,1096Z" fill="#1f1d07" stroke="#1f1d07" stroke-width="1.51"/><path d="M746,1127L67,1128L892,1135Z" fill="#29270b" stroke="#29270b" stroke-width="1.51"/><path d="M1605,24L1461,28L1542,102Z" fill="#1f1d06" stroke="#1f1d06" stroke-width="1.51"/><path d="M-38,610L-45,726L97,702Z" fill="#292709" stroke="#292709" stroke-width="1.51"/><path d="M-133,673L-45,726L-38,610Z" fill="#272609" stroke="#272609" stroke-width="1.51"/><path d="M-51,170L-39,280L57,263Z" fill="#292709" stroke="#292709" stroke-width="1.51"/><path d="M172,-30L62,69L182,120Z" fill="#252308" stroke="#252308" stroke-width="1.51"/><path d="M-51,170L57,263L63,170Z" fill="#292709" stroke="#292709" stroke-width="1.51"/><path d="M1665,682L1692,784L1688,603Z" fill="#232109" stroke="#232109" stroke-width="1.51"/><path d="M1594,886L1692,784L1582,773Z" fill="#1e1c06" stroke="#1e1c06" stroke-width="1.51"/><path d="M1683,892L1692,784L1594,886Z" fill="#1c1a05" stroke="#1c1a05" stroke-width="1.51"/><path d="M-45,726L-48,779L28,810Z" fill="#242207" stroke="#242207" stroke-width="1.51"/><path d="M-133,673L-48,779L-45,726Z" fill="#252308" stroke="#252308" stroke-width="1.51"/><path d="M1665,93L1605,24L1542,102Z" fill="#1e1c06" stroke="#1e1c06" stroke-width="1.51"/><path d="M1696,262L1605,389L1646,405Z" fill="#29270b" stroke="#29270b" stroke-width="1.51"/><path d="M1696,262L1646,405L1679,533Z" fill="#2b290c" stroke="#2b290c" stroke-width="1.51"/><path d="M1688,603L1696,262L1679,533Z" fill="#2c2b0d" stroke="#2c2b0d" stroke-width="1.51"/><path d="M1692,784L1696,262L1688,603Z" fill="#29270b" stroke="#29270b" stroke-width="1.51"/><path d="M1464,1082L1595,1039L1459,1005Z" fill="#171504" stroke="#171504" stroke-width="1.51"/><path d="M1666,978L1683,892L1594,886Z" fill="#191705" stroke="#191705" stroke-width="1.51"/><path d="M-30,82L-51,170L63,170Z" fill="#252308" stroke="#252308" stroke-width="1.51"/><path d="M172,-30L37,-13L62,69Z" fill="#222007" stroke="#222007" stroke-width="1.51"/><path d="M300,-125L136,-94L262,-27Z" fill="#232108" stroke="#232108" stroke-width="1.51"/><path d="M1665,93L1542,102L1599,161Z" fill="#201e07" stroke="#201e07" stroke-width="1.51"/><path d="M1665,93L1599,161L1667,198Z" fill="#201e07" stroke="#201e07" stroke-width="1.51"/><path d="M86,1010L67,1128L140,1094Z" fill="#1b1a05" stroke="#1b1a05" stroke-width="1.51"/><path d="M-48,779L-33,912L28,810Z" fill="#211f07" stroke="#211f07" stroke-width="1.51"/><path d="M-30,82L63,170L62,69Z" fill="#252307" stroke="#252307" stroke-width="1.51"/><path d="M-173,534L-6,466L-46,412Z" fill="#302e0d" stroke="#302e0d" stroke-width="1.51"/><path d="M-153,633L-133,673L-38,610Z" fill="#27260a" stroke="#27260a" stroke-width="1.51"/><path d="M1696,262L1665,93L1667,198Z" fill="#222008" stroke="#222008" stroke-width="1.51"/><path d="M1595,1039L1666,978L1594,886Z" fill="#171604" stroke="#171604" stroke-width="1.51"/><path d="M136,-94L83,-71L172,-30Z" fill="#201e07" stroke="#201e07" stroke-width="1.51"/><path d="M83,-71L37,-13L172,-30Z" fill="#201e06" stroke="#201e06" stroke-width="1.51"/><path d="M-16,1116L67,1128L86,1010Z" fill="#1a1805" stroke="#1a1805" stroke-width="1.51"/><path d="M140,1094L67,1128L257,1093Z" fill="#1d1b06" stroke="#1d1b06" stroke-width="1.51"/><path d="M892,1135L67,1128L967,1137Z" fill="#2b290c" stroke="#2b290c" stroke-width="1.51"/><path d="M1595,1039L1707,1135L1666,978Z" fill="#121103" stroke="#121103" stroke-width="1.51"/><path d="M1464,1082L1589,1121L1595,1039Z" fill="#151403" stroke="#151403" stroke-width="1.51"/><path d="M1295,1131L1589,1121L1464,1082Z" fill="#181604" stroke="#181604" stroke-width="1.51"/><path d="M-48,779L-110,826L-33,912Z" fill="#201e07" stroke="#201e07" stroke-width="1.51"/><path d="M-38,610L-6,466L-173,534Z" fill="#2d2b0c" stroke="#2d2b0c" stroke-width="1.51"/><path d="M37,-13L-30,82L62,69Z" fill="#212007" stroke="#212007" stroke-width="1.51"/><path d="M-133,673L-110,826L-48,779Z" fill="#222107" stroke="#222107" stroke-width="1.51"/><path d="M-33,912L-55,1029L86,1010Z" fill="#1c1906" stroke="#1c1906" stroke-width="1.51"/><path d="M-133,673L-153,633L-110,826Z" fill="#242208" stroke="#242208" stroke-width="1.51"/><path d="M-139,330L-46,412L-39,280Z" fill="#2c2a0c" stroke="#2c2a0c" stroke-width="1.51"/><path d="M-171,188L-139,330L-39,280Z" fill="#27250a" stroke="#27250a" stroke-width="1.51"/><path d="M-171,188L-39,280L-51,170Z" fill="#262409" stroke="#262409" stroke-width="1.51"/><path d="M-139,330L-156,382L-46,412Z" fill="#2c2a0c" stroke="#2c2a0c" stroke-width="1.51"/><path d="M-156,382L-173,534L-46,412Z" fill="#2f2d0d" stroke="#2f2d0d" stroke-width="1.51"/><path d="M-141,1029L-110,889L-110,826Z" fill="#1b1905" stroke="#1b1905" stroke-width="1.51"/><path d="M-110,826L-110,889L-33,912Z" fill="#1e1c06" stroke="#1e1c06" stroke-width="1.51"/><path d="M-141,1029L-110,826L-153,633Z" fill="#1f1c06" stroke="#1f1c06" stroke-width="1.51"/><path d="M-30,82L-112,62L-51,170Z" fill="#222007" stroke="#222007" stroke-width="1.51"/><path d="M37,-13L-8,-28L-30,82Z" fill="#201e06" stroke="#201e06" stroke-width="1.51"/><path d="M83,-71L-8,-28L37,-13Z" fill="#1e1c06" stroke="#1e1c06" stroke-width="1.51"/><path d="M-110,889L-55,1029L-33,912Z" fill="#1c1905" stroke="#1c1905" stroke-width="1.51"/><path d="M1665,93L1682,-13L1605,24Z" fill="#1b1905" stroke="#1b1905" stroke-width="1.51"/><path d="M1605,24L1605,-141L1444,-93Z" fill="#191805" stroke="#191805" stroke-width="1.51"/><path d="M1444,-93L1605,-141L1409,-111Z" fill="#191705" stroke="#191705" stroke-width="1.51"/><path d="M1696,262L1682,-13L1665,93Z" fill="#1f1d07" stroke="#1f1d07" stroke-width="1.51"/><path d="M-55,1029L-16,1116L86,1010Z" fill="#191705" stroke="#191705" stroke-width="1.51"/><path d="M1682,-13L1605,-141L1605,24Z" fill="#181604" stroke="#181604" stroke-width="1.51"/><path d="M1409,-111L1605,-141L1158,-118Z" fill="#1c1a05" stroke="#1c1a05" stroke-width="1.51"/><path d="M-8,-28L-112,62L-30,82Z" fill="#1f1d06" stroke="#1f1d06" stroke-width="1.51"/><path d="M-139,330L-171,188L-156,382Z" fill="#28260a" stroke="#28260a" stroke-width="1.51"/><path d="M-112,62L-171,188L-51,170Z" fill="#222007" stroke="#222007" stroke-width="1.51"/><path d="M-156,382L-171,188L-173,534Z" fill="#2a280b" stroke="#2a280b" stroke-width="1.51"/><path d="M1589,1121L1707,1135L1595,1039Z" fill="#121103" stroke="#121103" stroke-width="1.51"/><path d="M1666,978L1707,1135L1683,892Z" fill="#151403" stroke="#151403" stroke-width="1.51"/><path d="M1683,892L1707,1135L1692,784Z" fill="#181604" stroke="#181604" stroke-width="1.51"/><path d="M1692,784L1707,1135L1696,262Z" fill="#211f08" stroke="#211f08" stroke-width="1.51"/><path d="M1295,1131L1707,1135L1589,1121Z" fill="#161403" stroke="#161403" stroke-width="1.51"/><path d="M967,1137L1707,1135L1295,1131Z" fill="#1c1a05" stroke="#1c1a05" stroke-width="1.51"/><path d="M-55,1029L-154,1111L-16,1116Z" fill="#161504" stroke="#161504" stroke-width="1.51"/><path d="M-110,889L-141,1029L-55,1029Z" fill="#191704" stroke="#191704" stroke-width="1.51"/><path d="M-154,1111L-141,1029L-153,633Z" fill="#1a1805" stroke="#1a1805" stroke-width="1.51"/><path d="M-112,62L-166,21L-171,188Z" fill="#1f1d07" stroke="#1f1d07" stroke-width="1.51"/><path d="M-8,-28L-67,-96L-112,62Z" fill="#1d1a06" stroke="#1d1a06" stroke-width="1.51"/><path d="M83,-71L-67,-96L-8,-28Z" fill="#1c1a06" stroke="#1c1a06" stroke-width="1.51"/><path d="M136,-94L-67,-96L83,-71Z" fill="#1d1b05" stroke="#1d1b05" stroke-width="1.51"/><path d="M-126,-121L-67,-96L136,-94Z" fill="#1b1805" stroke="#1b1805" stroke-width="1.51"/><path d="M1682,-13L1684,-138L1605,-141Z" fill="#151403" stroke="#151403" stroke-width="1.51"/><path d="M1696,262L1684,-138L1682,-13Z" fill="#1c1a05" stroke="#1c1a05" stroke-width="1.51"/><path d="M-67,-96L-166,21L-112,62Z" fill="#1c1a05" stroke="#1c1a05" stroke-width="1.51"/><path d="M-141,1029L-154,1111L-55,1029Z" fill="#151303" stroke="#151303" stroke-width="1.51"/><path d="M-16,1116L-154,1111L67,1128Z" fill="#181604" stroke="#181604" stroke-width="1.51"/><path d="M-173,534L-154,1111L-153,633Z" fill="#211f07" stroke="#211f07" stroke-width="1.51"/><path d="M-67,-96L-126,-121L-166,21Z" fill="#191705" stroke="#191705" stroke-width="1.51"/><path d="M300,-125L-126,-121L136,-94Z" fill="#1e1b06" stroke="#1e1b06" stroke-width="1.51"/><path d="M592,-134L-126,-121L300,-125Z" fill="#211f07" stroke="#211f07" stroke-width="1.51"/></svg>