<?xml version="1.0" standalone="no"?>
<!DOCTYPE svg PUBLIC "-//W3C//DTD SVG 1.1//EN" "http://www.w3.org/Graphics/SVG/1.1/DTD/svg11.dtd" >
<svg xmlns="http://www.w3.org/2000/svg">
<metadata></metadata>
<defs>
<font id="Foro-ExtraBoldRegular" horiz-adv-x="1218" >
<font-face units-per-em="2048" ascent="1516" descent="-532" />
<missing-glyph horiz-adv-x="468" />
<glyph horiz-adv-x="0" />
<glyph horiz-adv-x="2048" />
<glyph unicode=" "  horiz-adv-x="468" />
<glyph unicode="&#x09;" horiz-adv-x="468" />
<glyph unicode="&#xa0;" horiz-adv-x="468" />
<glyph unicode="!" horiz-adv-x="626" d="M145 172q0 99 57.5 150t135.5 51q80 0 135 -47t55 -154q0 -96 -53.5 -145.5t-142.5 -49.5q-73 0 -130 48t-57 147zM154 1384h378q0 -158 -49 -886h-282q-47 729 -47 886z" />
<glyph unicode="&#x22;" horiz-adv-x="827" d="M84 1427h268l-53 -579h-164zM473 1427h272l-55 -579h-164z" />
<glyph unicode="#" d="M72 362v234h266l24 168h-229v235h262l49 332h160l-49 -332h211l49 332h158l-49 -332h225v-235h-258l-25 -168h219v-234h-254l-51 -362h-157l53 362h-213l-51 -362h-160l53 362h-233zM498 596h211l24 168h-211z" />
<glyph unicode="$" horiz-adv-x="1140" d="M84 498h221l29 -217q118 -39 244 -39q82 0 120.5 32.5t38.5 85.5q0 51 -31.5 83.5t-107.5 56.5l-160 51q-74 24 -126.5 51.5t-99.5 71t-71 108.5t-24 150q0 148 95.5 252t289.5 135v225h174v-213q187 -3 350 -45q18 -46 18 -432h-217l-22 203q-86 26 -172 26 q-100 0 -146.5 -32.5t-46.5 -79.5q0 -43 25.5 -74t87.5 -53l156 -56q116 -41 186.5 -81.5t108 -91t49.5 -102.5t12 -132q0 -143 -98 -247.5t-291 -133.5v-207h-174v199q-252 6 -391 69q-27 132 -27 437z" />
<glyph unicode="%" horiz-adv-x="1808" d="M57 891q0 211 92.5 331.5t276.5 120.5q342 0 342 -415q0 -218 -96.5 -337.5t-263.5 -119.5q-168 0 -259.5 110.5t-91.5 309.5zM293 903q0 -74 10 -125t28.5 -76.5t38.5 -36t46 -10.5q38 0 64.5 19.5t44.5 77.5t18 155q0 149 -29.5 200.5t-97.5 51.5q-58 0 -90.5 -54 t-32.5 -202zM506 0l653 1323h139l-649 -1323h-143zM1040 401q0 211 92.5 332t276.5 121q342 0 342 -416q0 -218 -96.5 -337t-263.5 -119q-168 0 -259.5 110t-91.5 309zM1276 414q0 -74 10 -125t28.5 -76.5t38.5 -36t46 -10.5q38 0 64.5 19.5t44.5 77.5t18 155q0 150 -29 201 t-98 51q-58 0 -90.5 -54t-32.5 -202z" />
<glyph unicode="&#x26;" horiz-adv-x="1619" d="M94 420q0 289 312 411q-84 112 -84 238q0 151 104 247.5t307 96.5q84 0 152.5 -17t124 -54t86 -102.5t30.5 -154.5q0 -213 -274 -364q123 -167 203 -227q27 24 45 73l-41 4v215h479v-215l-117 -16q-30 -70 -74 -139.5t-79 -102.5q37 -21 123.5 -46.5t146.5 -35.5 l-49 -264q-291 38 -445 142q-162 -138 -411 -138q-156 0 -275.5 48.5t-191.5 151.5t-72 249zM424 432q0 -82 57 -130t158 -48q98 0 178 39q-88 75 -266 307q-63 -28 -95 -72.5t-32 -95.5zM629 1073q0 -73 71 -158q69 30 111.5 75t42.5 91q0 101 -113 101q-54 0 -83 -31 t-29 -78z" />
<glyph unicode="'" horiz-adv-x="434" d="M84 1427h268l-53 -579h-164z" />
<glyph unicode="(" horiz-adv-x="702" d="M90 565q0 515 404 891h182q-154 -226 -226.5 -428.5t-72.5 -452.5q0 -272 79 -490.5t220 -432.5h-180q-79 69 -147 155.5t-128.5 199.5t-95.5 257.5t-35 300.5z" />
<glyph unicode=")" horiz-adv-x="702" d="M27 -348q153 226 225 429t72 454q0 142 -22.5 273t-66 245.5t-93 208.5t-115.5 194h176q79 -68 148 -154.5t129.5 -199.5t96 -257t35.5 -300q0 -516 -405 -893h-180z" />
<glyph unicode="*" horiz-adv-x="872" d="M43 1073l57 184q146 -44 254 -92q-13 113 -16 267h194q0 -125 -12 -269q91 37 254 97l57 -191q-87 -25 -262 -70q141 -169 170 -208l-155 -113q-114 159 -152 219q-73 -114 -145 -217l-158 108q60 84 172 213q-71 16 -258 72z" />
<glyph unicode="+" horiz-adv-x="1435" d="M184 498v213h420v426h225v-426h422v-213h-422v-426h-223v426h-422z" />
<glyph unicode="," horiz-adv-x="520" d="M2 -350q41 120 76.5 304t50.5 359h324q-22 -165 -85.5 -355t-127.5 -308h-238z" />
<glyph unicode="-" horiz-adv-x="622" d="M68 461v207h487v-207h-487z" />
<glyph unicode="." horiz-adv-x="520" d="M70 172q0 99 56.5 150t135.5 51t134 -47t55 -154q0 -97 -53 -146t-142 -49q-73 0 -129.5 48t-56.5 147z" />
<glyph unicode="/" horiz-adv-x="843" d="M-4 -170l672 1665h163l-669 -1665h-166z" />
<glyph unicode="0" d="M61 631q0 220 60.5 378.5t189.5 248.5t318 90q528 0 528 -658q0 -347 -149 -536t-408 -189q-258 0 -398.5 175.5t-140.5 490.5zM412 651q0 -125 15.5 -209.5t44.5 -127.5t62.5 -59.5t79.5 -16.5q37 0 66 10.5t56 39t45.5 75t29 121.5t10.5 175q0 163 -23 255t-66.5 126.5 t-117.5 34.5q-45 0 -79.5 -19t-63.5 -64t-44 -131t-15 -210z" />
<glyph unicode="1" d="M150 1065q28 19 175.5 119t206.5 141h310v-1092l198 -18v-215h-772v215l238 16v766q-44 -27 -232 -137z" />
<glyph unicode="2" d="M39 0v221q285 201 524 430q61 58 94 125t33 131q0 73 -45.5 120.5t-142.5 47.5q-152 0 -342 -94l-92 227q118 67 252 103.5t247 36.5q240 0 361 -105t121 -295q0 -104 -63 -213t-167 -205q-157 -140 -344 -266q184 4 377 4l31 191h225q0 -329 -23 -459h-1046z" />
<glyph unicode="3" d="M70 14l55 262q41 -12 125 -25t145 -13q103 0 172 11.5t105.5 35.5t50.5 53t14 70q0 66 -48.5 101.5t-170.5 35.5q-84 0 -166 -8l-12 249q109 4 184.5 18t118 37.5t60.5 52.5t18 67q0 114 -172 114q-176 0 -356 -78l-93 222q117 56 259 92.5t251 36.5q443 0 443 -340 q0 -83 -62 -164.5t-180 -118.5q139 -18 214 -99.5t75 -203.5q0 -457 -664 -457q-84 0 -195.5 15t-170.5 34z" />
<glyph unicode="4" d="M51 297v186l578 842h350v-766h199v-262h-199v-317h-334v317h-594zM358 559h287q0 301 4 442q-35 -57 -71.5 -112.5t-103.5 -155.5t-116 -174z" />
<glyph unicode="5" d="M88 14l55 262q39 -13 123 -25.5t152 -12.5q88 0 148.5 14.5t91 42.5t43 59t12.5 72q0 90 -58 133t-194 43q-61 0 -146.5 -10t-138.5 -23l72 756h799v-283h-533l-16 -202q62 10 141 10q120 0 210 -31t141.5 -85t76.5 -120t25 -143q0 -504 -648 -504q-99 0 -199.5 13 t-156.5 34z" />
<glyph unicode="6" d="M88 602q0 361 181 553.5t528 192.5q58 0 148 -14.5t161 -37.5l-84 -270q-49 22 -119 35.5t-127 13.5q-154 0 -233 -71.5t-103 -241.5q58 47 139 78.5t169 31.5q197 0 295 -108t98 -315q0 -101 -33 -188t-95.5 -153.5t-160.5 -104.5t-221 -38q-255 0 -399 168.5 t-144 468.5zM451 526q0 -86 12 -145t36.5 -90.5t55 -44.5t72.5 -13q174 0 174 201q0 189 -170 189q-44 0 -95 -26.5t-85 -70.5z" />
<glyph unicode="7" d="M94 827q0 390 23 498h1034v-242q-229 -504 -463 -1083h-387q205 511 496 1042h-435l-36 -215h-232z" />
<glyph unicode="8" d="M80 367q0 104 61 183t170 124q-96 48 -144 129t-48 172q0 98 40.5 171.5t111 116.5t157.5 64t188 21q109 0 196.5 -19t155.5 -59t105 -109t37 -162q0 -92 -50 -174t-153 -135q232 -84 232 -299q0 -192 -147.5 -309t-385.5 -117q-109 0 -201 22.5t-166 69t-116.5 126 t-42.5 184.5zM418 397q0 -78 53 -121t139 -43q89 0 142 44t53 122q0 70 -50 105.5t-149 54.5q-188 -32 -188 -162zM432 940q0 -66 48 -100t138 -54q81 13 132 53t51 101q0 62 -47 100.5t-131 38.5q-85 0 -138 -36t-53 -103z" />
<glyph unicode="9" d="M80 862q0 101 33 188.5t95.5 154t160.5 105t221 38.5q261 0 402 -166t141 -471q0 -361 -181.5 -553.5t-529.5 -192.5q-60 0 -151 13.5t-160 35.5l82 271q49 -22 120.5 -35.5t128.5 -13.5q152 0 233 72.5t105 242.5q-58 -48 -139 -78.5t-168 -30.5q-393 0 -393 420z M418 877q0 -187 170 -187q46 0 96 26t84 70q0 85 -12 143.5t-36 90.5t-54.5 45.5t-71.5 13.5q-176 0 -176 -202z" />
<glyph unicode=":" horiz-adv-x="561" d="M111 172q0 99 56.5 150t135.5 51t134 -47t55 -154q0 -97 -53 -146t-142 -49q-73 0 -129.5 48t-56.5 147zM111 797q0 99 56 149.5t136 50.5q79 0 134 -46.5t55 -153.5q0 -96 -53 -145.5t-142 -49.5q-73 0 -129.5 47.5t-56.5 147.5z" />
<glyph unicode=";" horiz-adv-x="561" d="M43 -350q41 120 76.5 304t50.5 359h324q-22 -165 -85.5 -355t-127.5 -308h-238zM121 797q0 99 56 149.5t136 50.5q79 0 134 -46.5t55 -153.5q0 -96 -53 -145.5t-142 -49.5q-73 0 -129.5 47.5t-56.5 147.5z" />
<glyph unicode="&#x3c;" horiz-adv-x="1435" d="M225 489v228l936 457v-248l-704 -320l704 -313v-252z" />
<glyph unicode="=" horiz-adv-x="1435" d="M184 283v215h1067v-215h-1067zM184 709v217h1067v-217h-1067z" />
<glyph unicode="&#x3e;" horiz-adv-x="1435" d="M274 41v248l707 321l-707 312v252l936 -451v-225z" />
<glyph unicode="?" horiz-adv-x="968" d="M70 1358q74 27 192 45t191 18q226 0 341 -84t115 -266q0 -106 -46 -192.5t-171 -180.5q-31 -24 -44 -35t-32.5 -31.5t-26.5 -40.5t-7 -44t6 -39l-285 -19q-12 54 -12 68q0 64 18 107.5t74 93.5q93 82 131.5 136.5t38.5 111.5q0 137 -164 137q-131 0 -258 -41zM252 172 q0 99 57 150t137 51q79 0 134 -47t55 -154q0 -96 -53 -145.5t-142 -49.5q-74 0 -131 48t-57 147z" />
<glyph unicode="@" horiz-adv-x="1640" d="M102 416q0 177 61.5 331t168 263.5t256 172t319.5 62.5q295 0 466 -157.5t171 -430.5q0 -112 -34 -215.5t-93 -181t-143 -124t-178 -46.5q-157 0 -174 119q-53 -53 -112 -84t-146 -31q-101 0 -166.5 67.5t-65.5 198.5q0 101 37 210t104 186q117 135 316 135q95 0 172 -47 l31 59h159l-116 -497q-11 -45 -11 -95q0 -55 56 -55q72 0 140.5 113t68.5 282q0 120 -36.5 209.5t-102.5 143.5t-152.5 80t-192.5 26q-190 0 -337 -91t-225.5 -248t-78.5 -353q0 -249 156 -407t428 -158q154 0 271 38t245 109l70 -119q-289 -170 -609 -170q-329 0 -526 194 t-197 511zM649 395q0 -72 29.5 -100.5t85.5 -28.5q57 0 145 45l86 394q-53 20 -110 20q-91 0 -150 -72q-36 -43 -61 -122.5t-25 -135.5z" />
<glyph unicode="A" horiz-adv-x="1568" d="M0 0v215l147 16l428 1153h429l419 -1153l146 -16v-215h-719v215l199 16l-60 164h-416l-59 -164l205 -16v-215h-719zM659 674h242q-91 296 -115 403q-76 -252 -127 -403z" />
<glyph unicode="B" horiz-adv-x="1427" d="M55 0v215l197 18v918l-197 18v215h543q252 0 375 -20q153 -26 227 -101.5t74 -203.5t-65.5 -205.5t-209.5 -120.5q332 -39 332 -323q0 -165 -95 -262.5t-265 -122.5q-167 -25 -393 -25h-523zM592 266h117q113 0 157 15q97 37 97 141q0 66 -37 104.5t-105 44.5 q-72 7 -127 7h-102v-312zM592 842h94q54 0 90.5 5t70.5 19t51 44t17 75q0 77 -54.5 105t-155.5 28h-113v-276z" />
<glyph unicode="C" horiz-adv-x="1390" d="M94 657q0 366 181.5 565t525.5 199q242 0 454 -51q21 -99 21 -477h-250l-29 229q-76 25 -163 25q-379 0 -379 -477q0 -194 86.5 -304t244.5 -110q86 0 193.5 31.5t206.5 101.5l141 -205q-283 -221 -606 -221q-289 0 -458 186.5t-169 507.5z" />
<glyph unicode="D" horiz-adv-x="1566" d="M55 0v215l197 18v918l-197 18v215h486q294 0 422 -24q242 -43 376 -196t134 -423q0 -257 -89 -422.5t-297 -250.5q-104 -42 -248 -55t-352 -13h-432zM594 279h88q148 0 240 36q180 67 180 402q0 241 -121 325q-55 38 -124 51t-161 13h-102v-827z" />
<glyph unicode="E" horiz-adv-x="1359" d="M55 0v215l197 18v918l-197 18v215h1143q27 -119 27 -460h-230l-30 180h-371v-254h397v-281h-397v-301h414l30 219h232q0 -371 -21 -487h-1194z" />
<glyph unicode="F" horiz-adv-x="1304" d="M55 0v215l197 18v918l-197 18v215h1145q25 -110 25 -460h-228l-30 180h-373v-273h416v-280h-416v-320l244 -16v-215h-783z" />
<glyph unicode="G" horiz-adv-x="1499" d="M94 657q0 367 185 565.5t538 198.5q257 0 469 -51q12 -56 16.5 -145.5t4.5 -313.5h-248l-31 207q-95 25 -176 25q-397 0 -397 -481q0 -196 85.5 -299t247.5 -103q114 0 224 29v221l-176 14v211h606v-211l-107 -8v-442q-5 -2 -77 -26t-104 -32t-104.5 -24.5t-149.5 -22.5 t-167 -6q-294 0 -466.5 187t-172.5 507z" />
<glyph unicode="H" horiz-adv-x="1679" d="M55 0v215l197 18v918l-197 18v215h707v-215l-168 -18v-301h491v301l-170 18v215h709v-215l-199 -18v-918l199 -18v-215h-709v215l170 18v338h-491v-338l168 -18v-215h-707z" />
<glyph unicode="I" horiz-adv-x="845" d="M55 0v215l197 18v918l-197 18v215h736v-215l-197 -18v-918l197 -18v-215h-736z" />
<glyph unicode="J" horiz-adv-x="1009" d="M35 14l61 273q107 -29 203 -29q81 0 115 47q30 42 30 203v643l-217 18v215h736v-215l-179 -18v-629q0 -129 -8 -203t-31 -131q-37 -89 -135.5 -151t-255.5 -62q-200 0 -319 39z" />
<glyph unicode="K" horiz-adv-x="1560" d="M55 0v215l197 18v918l-197 18v215h697v-215l-158 -18v-391q5 4 177.5 200t180.5 201l-88 8v215h627v-215l-166 -18q-5 -3 -170 -178t-170 -178l217 -342q51 -79 109 -131q57 -46 129 -46q33 0 86 11l30 -283q-94 -22 -176 -22q-92 0 -155 12t-121 47q-103 61 -193 213 l-172 289l-145 -146v-164l176 -18v-215h-715z" />
<glyph unicode="L" horiz-adv-x="1347" d="M55 0v215l197 18v918l-197 18v215h754v-215l-215 -18v-883h414l30 219h232q0 -368 -21 -487h-1194z" />
<glyph unicode="M" horiz-adv-x="1982" d="M63 0v215l181 14l20 926l-188 14v215h712q154 -514 211 -755q70 279 213 755h684v-215l-186 -14l27 -926l182 -14v-215h-698v215l174 14q-9 815 -9 908q-31 -125 -268 -887h-262q-265 857 -274 887q5 -216 0 -908l178 -14v-215h-697z" />
<glyph unicode="N" horiz-adv-x="1693" d="M55 0v215l197 18v918l-197 18v215h672q219 -416 285 -548.5t133 -290.5q-10 215 -10 606l-172 14v219h682v-215l-170 -18v-1151h-398q-128 251 -223.5 440.5t-135.5 270t-80.5 164t-53.5 108.5q10 -192 10 -750l192 -18v-215h-731z" />
<glyph unicode="O" horiz-adv-x="1538" d="M94 664q0 757 701 757q322 0 485.5 -175t163.5 -517q0 -374 -180.5 -570t-515.5 -196q-307 0 -480.5 180t-173.5 521zM457 711q0 -469 311 -469q307 0 307 438q0 238 -66 350.5t-231 112.5q-321 0 -321 -432z" />
<glyph unicode="P" horiz-adv-x="1386" d="M55 0v215l197 18v918l-197 18v215h543q275 0 395 -28q155 -39 228 -132.5t73 -260.5q0 -148 -70 -252t-208 -150q-114 -41 -318 -41h-106v-289l227 -16v-215h-764zM592 784h108q102 0 148 21q86 42 86 153q0 89 -59.5 124.5t-169.5 35.5h-113v-334z" />
<glyph unicode="Q" horiz-adv-x="1538" d="M94 664q0 757 701 757q322 0 485.5 -175t163.5 -517q0 -260 -88.5 -435t-257.5 -259q11 -3 49 -17q172 -71 309 -71q61 0 119 8l27 -238q-25 -8 -92.5 -14t-112.5 -6q-87 0 -176 18t-171 52t-142 64t-130 71q-63 38 -139 67q-259 30 -402 207.5t-143 487.5zM457 711 q0 -469 311 -469q307 0 307 438q0 238 -66 350.5t-231 112.5q-321 0 -321 -432z" />
<glyph unicode="R" horiz-adv-x="1488" d="M55 0v215l197 18v918l-197 18v215h711q201 0 309 -34q113 -35 179.5 -122t66.5 -216q0 -166 -75.5 -262.5t-219.5 -141.5q53 -24 104 -102q32 -45 87 -139q36 -60 79 -83.5t111 -23.5q23 0 57 6l19 -256q-101 -16 -240 -16q-114 0 -188.5 52.5t-130.5 150.5 q-30 52 -69.5 127.5t-57.5 107.5q-54 97 -111 119h-94v-318l190 -18v-215h-727zM592 811h88q158 0 211 29q61 35 61 118q0 58 -17 87.5t-52 48.5q-47 24 -168 24h-123v-307z" />
<glyph unicode="S" horiz-adv-x="1251" d="M72 514h245l33 -238q130 -40 275 -40q92 0 135 35t43 94q0 56 -34.5 91t-121.5 62l-180 53q-81 25 -139 55.5t-106.5 78t-73.5 118t-25 162.5t33 168.5t101.5 137t185 94.5t272.5 34q98 0 212.5 -14t194.5 -35q21 -59 21 -469h-238l-24 221q-100 27 -195 27 q-111 0 -158 -34.5t-47 -86.5q0 -50 24 -82t91 -55l174 -64q129 -46 208 -90t121.5 -98t57 -110.5t14.5 -141.5q0 -87 -34.5 -161.5t-103 -134.5t-184 -94t-265.5 -34q-308 0 -484 76q-28 137 -28 475z" />
<glyph unicode="T" horiz-adv-x="1472" d="M78 860q0 407 18 524h1276q21 -86 21 -524h-224l-36 244h-226v-871l199 -18v-215h-737v215l198 18v871h-227l-37 -244h-225z" />
<glyph unicode="U" horiz-adv-x="1617" d="M37 1169v215h680v-215l-172 -14v-512q0 -124 4.5 -181.5t21.5 -103.5q24 -61 92 -88.5t148 -27.5q82 0 147.5 25t92.5 71q26 44 33.5 107.5t7.5 189.5v520l-179 14v215h668v-217l-154 -12v-563q0 -276 -73 -397q-65 -103 -206 -167.5t-347 -64.5q-415 0 -541 236 q-57 111 -57 379v577z" />
<glyph unicode="V" horiz-adv-x="1568" d="M0 1169v215h727v-215l-201 -16q245 -726 262 -788q14 40 273 788l-205 16v215h711v-215l-148 -16l-438 -1153h-406l-432 1153z" />
<glyph unicode="W" horiz-adv-x="2109" d="M27 1169v215h692v-215l-197 -14q13 -66 39 -194t36.5 -183t27 -144.5t30.5 -174.5q21 92 44.5 188t41 164t66 254t82.5 319h356q132 -561 201 -911q55 281 147 682l-190 14v215h682v-215l-156 -14l-282 -1155h-377q-145 588 -217 918q-60 -292 -232 -918h-379l-274 1155z " />
<glyph unicode="X" horiz-adv-x="1652" d="M29 0v213l151 18l404 488l-353 432l-145 18v215h711v-215l-133 -14q100 -115 204 -242q41 54 75 96.5t69 85.5t49 60l-137 14v215h649v-215l-148 -18l-364 -416l422 -504l141 -18v-213h-754v213l170 16q-9 7 -71 81t-121 146.5t-60 73.5q-1 -1 -56 -73t-112.5 -145.5 t-66.5 -80.5l184 -18v-213h-708z" />
<glyph unicode="Y" horiz-adv-x="1529" d="M0 1169v215h719v-215l-164 -16q136 -201 219 -340q68 113 230 340l-175 16v215h701v-215l-150 -16l-450 -635v-285l205 -18v-215h-748v215l205 18v285l-449 635z" />
<glyph unicode="Z" horiz-adv-x="1419" d="M72 0v242q483 563 747 864h-434l-37 -252h-239q0 427 22 530h1165v-245q-229 -265 -381.5 -438t-255 -286.5t-122.5 -135.5h536l43 272h225q0 -434 -24 -551h-1245z" />
<glyph unicode="[" horiz-adv-x="684" d="M137 -348v1802h488v-160h-211v-1478h211v-164h-488z" />
<glyph unicode="\" horiz-adv-x="843" d="M10 1434h166l672 -1543h-168z" />
<glyph unicode="]" horiz-adv-x="684" d="M59 -186h213v1478h-213v162h490v-1802h-490v162z" />
<glyph unicode="^" horiz-adv-x="1480" d="M221 573l397 809h248l394 -809h-254l-269 557l-262 -557h-254z" />
<glyph unicode="_" horiz-adv-x="1026" d="M0 -180h1026v-119h-1026v119z" />
<glyph unicode="`" horiz-adv-x="411" d="M-78 1475h324l246 -328h-232z" />
<glyph unicode="a" horiz-adv-x="1228" d="M88 301q0 109 52.5 179.5t146.5 99.5q147 47 418 57v29q0 83 -25.5 110t-112.5 27q-174 0 -350 -43l-45 219q111 37 261 61.5t247 24.5q220 0 285 -107q53 -83 53 -284v-441h164v-200q-80 -22 -205.5 -36.5t-235.5 -14.5l-18 118q-62 -66 -142 -95.5t-155 -29.5 q-85 0 -151.5 27.5t-106.5 74.5t-60 104t-20 120zM418 309q0 -50 28 -78t80 -28q43 0 96 19t87 50v170q-6 -1 -39 -3.5t-58 -5t-59.5 -8.5t-58.5 -15q-76 -26 -76 -101z" />
<glyph unicode="b" horiz-adv-x="1249" d="M-23 1229v209q308 80 494 80v-592q67 52 158.5 90.5t179.5 38.5q169 0 259.5 -127.5t90.5 -378.5q0 -286 -141.5 -432t-394.5 -146q-243 0 -467 66v1192h-179zM473 231q65 -12 131 -12q209 0 209 299q0 133 -45 200.5t-115 67.5q-76 0 -180 -34v-521z" />
<glyph unicode="c" horiz-adv-x="1099" d="M90 489q0 277 144.5 426.5t416.5 149.5q182 0 324 -43q12 -68 12 -371h-244l-18 166q-52 10 -92 10q-43 0 -78 -15.5t-65.5 -49.5t-48 -98.5t-17.5 -153.5q0 -141 64.5 -211t162.5 -70q76 0 134.5 16t156.5 54l94 -199q-230 -133 -465 -133q-223 0 -352 141t-129 381z " />
<glyph unicode="d" horiz-adv-x="1294" d="M90 492q0 119 27 214.5t72.5 159.5t109 106.5t134 61.5t149.5 19q110 0 184 -27v203h-191v209q293 79 517 82v-1297h163v-200q-196 -41 -454 -41l-19 118q-129 -120 -290 -120q-176 0 -289 137.5t-113 374.5zM424 508q0 -153 47 -212.5t131 -59.5q68 0 164 51v485 q-69 14 -133 14q-44 0 -77.5 -11t-65 -39t-49 -85.5t-17.5 -142.5z" />
<glyph unicode="e" horiz-adv-x="1155" d="M90 498q0 111 27.5 204.5t76 160t114.5 112.5t142.5 68t161.5 22q110 0 193 -29.5t131.5 -76.5t78.5 -117.5t40 -140.5t10 -156q0 -37 -6 -90h-639q0 -109 58.5 -169.5t172.5 -60.5q181 0 326 80l102 -201q-236 -137 -508 -137q-224 0 -352.5 145.5t-128.5 385.5z M430 670h324q2 14 2 39q0 59 -37.5 93t-112.5 34q-69 0 -117 -46.5t-59 -119.5z" />
<glyph unicode="f" horiz-adv-x="798" d="M55 784v228q80 18 176 18v62q0 216 84 303q99 110 303 110q136 0 240 -22l-31 -232q-67 9 -120 9q-99 0 -129 -41q-27 -42 -27 -138v-51h213v-246h-213v-553l203 -18v-213h-691v213l168 18v553h-176z" />
<glyph unicode="g" horiz-adv-x="1110" d="M27 -252q0 147 202 236q-131 41 -131 168q0 50 29.5 103.5t99.5 129.5q-70 37 -109.5 116.5t-39.5 174.5q0 78 26.5 146t79.5 123.5t144.5 87.5t210.5 32q161 0 254 -49h315v-232h-150q19 -45 19 -110q0 -175 -125 -270t-322 -95q-78 0 -143 19q-25 -25 -25 -54 q0 -43 66 -51l342 -39q171 -20 244 -96.5t73 -212.5q0 -179 -154.5 -293t-436.5 -114q-108 0 -191.5 17t-135 44t-84.5 64.5t-45.5 75t-12.5 79.5zM332 -190q0 -48 51 -79.5t168 -31.5q86 0 136 34.5t50 78.5q0 54 -36 83t-130 35l-174 11q-65 -65 -65 -131zM399 680 q0 -154 133 -154q69 0 106.5 40t37.5 116q0 70 -32.5 114t-106.5 44q-71 0 -104.5 -45.5t-33.5 -114.5z" />
<glyph unicode="h" horiz-adv-x="1345" d="M31 1229v209q113 33 252.5 56.5t240.5 23.5v-598q84 59 195 99t182 40q40 0 72.5 -6t56.5 -17.5t42.5 -28.5t30 -38.5t20 -48t12.5 -57t6 -64.5t2 -71.5v-77.5v-46v-373l172 -18v-213h-496v528q0 166 -6 201q-10 57 -86 57q-115 0 -201 -34v-521l170 -18v-213h-647v213 l158 18v998h-176z" />
<glyph unicode="i" horiz-adv-x="757" d="M55 774v211q260 76 496 76v-830l168 -18v-213h-656v213l168 18v543h-176zM178 1335q0 87 48.5 128.5t125.5 41.5q168 0 168 -170q0 -83 -47 -125.5t-127 -42.5q-73 0 -120.5 41t-47.5 127z" />
<glyph unicode="j" horiz-adv-x="692" d="M-82 -307q204 82 252 180q35 68 35 215v686h-176v211q126 34 263 55t232 21v-1002q0 -209 -71 -315q-56 -82 -171.5 -158t-273.5 -123zM152 1335q0 87 48.5 128.5t125.5 41.5q168 0 168 -170q0 -83 -47.5 -125.5t-127.5 -42.5q-73 0 -120 41t-47 127z" />
<glyph unicode="k" horiz-adv-x="1294" d="M31 1229v209q100 30 247.5 55t247.5 25v-930q99 88 217 221l-104 12v209h584v-203l-148 -14q-131 -131 -192 -188l149 -222q64 -93 125 -124q37 -19 74 -19q25 0 41 2l14 -252q-61 -18 -141 -18q-149 0 -225 53q-71 50 -144 162l-131 201l-119 -95v-82l158 -18v-213h-635 v213l158 18v998h-176z" />
<glyph unicode="l" horiz-adv-x="729" d="M31 1229v209q299 80 495 80v-1287l170 -18v-213h-647v213l158 18v998h-176z" />
<glyph unicode="m" horiz-adv-x="1955" d="M55 774v211q115 32 252 54t238 22l6 -141q85 60 189 99.5t180 39.5q94 0 145 -36t72 -110q210 146 379 146q35 0 64.5 -5t52 -14.5t40 -24t30 -32.5t21.5 -40t14.5 -47.5t9 -54t4 -60t1.5 -66t0 -70.5v-41v-373l174 -18v-213h-495v528q0 162 -9 201q-10 57 -82 57 q-98 0 -190 -34q2 -45 2 -148v-373l172 -18v-213h-496v528q0 166 -6 203q-10 55 -80 55q-106 0 -192 -34v-521l166 -18v-213h-654v213l168 18v543h-176z" />
<glyph unicode="n" horiz-adv-x="1370" d="M55 774v209q98 32 242 55t248 23l6 -141q83 60 192 99.5t183 39.5q51 0 90 -10t64.5 -28.5t43 -45.5t26 -61t13 -75t4.5 -87v-97v-59v-365l172 -18v-213h-495v528q0 166 -6 201q-10 57 -86 57q-110 0 -201 -34v-521l168 -18v-213h-656v213l168 18v543h-176z" />
<glyph unicode="o" horiz-adv-x="1259" d="M90 496q0 569 572 569q507 0 507 -522q0 -281 -141 -428.5t-416 -147.5q-250 0 -386 137t-136 392zM426 528q0 -95 13.5 -159.5t41 -99t61 -48.5t81.5 -14q102 0 152 65.5t50 233.5q0 82 -7 136t-27 98.5t-58.5 65.5t-97.5 21q-112 0 -160.5 -76.5t-48.5 -222.5z" />
<glyph unicode="p" horiz-adv-x="1271" d="M0 778v209q236 69 489 78l7 -133q62 51 159 91t189 40q162 0 250 -129t88 -379q0 -285 -142 -429t-395 -144q-84 0 -149 8v-262l204 -19v-213h-690v213l168 19v1050h-178zM496 244q77 -15 131 -15q209 0 209 295q0 136 -42.5 201.5t-119.5 65.5t-178 -33v-514z" />
<glyph unicode="q" horiz-adv-x="1267" d="M88 494q0 119 27 215t72.5 160t108.5 107t133.5 62t148.5 19q57 0 132 -10t117 -23l21 80h242v-1376l167 -19v-213h-690v213l203 19v358q-114 -106 -283 -106q-176 0 -287.5 138t-111.5 376zM422 510q0 -153 47 -213.5t131 -60.5q68 0 164 51v489q-76 15 -135 15 q-43 0 -76.5 -11.5t-64.5 -40t-48.5 -86.5t-17.5 -143z" />
<glyph unicode="r" horiz-adv-x="958" d="M55 774v209q229 75 492 78v-174q45 78 124 124t173 46q29 0 65 -4v-283q-54 6 -116 6q-141 0 -242 -49v-494l199 -20v-213h-687v213l168 18v543h-176z" />
<glyph unicode="s" horiz-adv-x="1067" d="M78 375h223l33 -142q68 -30 172 -30q117 0 117 82q0 35 -19 54t-59 30l-162 41q-134 35 -202 109.5t-68 217.5q0 66 28 123.5t83.5 104t147.5 73.5t210 27q202 0 340 -37q26 -64 26 -346h-223l-25 143q-64 15 -131 15q-59 0 -88.5 -23.5t-29.5 -60.5q0 -66 77 -82 l170 -39q82 -18 138 -50.5t85.5 -76t41.5 -90t12 -105.5q0 -65 -26 -124.5t-79 -110.5t-146 -81t-214 -30q-218 0 -408 58q-24 80 -24 350z" />
<glyph unicode="t" horiz-adv-x="813" d="M-20 784v226q87 20 190 20q0 59 12 256l307 21v-277h246v-246h-246v-338q0 -107 24.5 -150.5t104.5 -43.5q75 0 136 10l39 -235q-131 -43 -328 -43q-78 0 -141 26t-95 70q-63 84 -63 297v407h-186z" />
<glyph unicode="u" horiz-adv-x="1298" d="M-6 788v203q267 60 489 60v-549q0 -148 6 -183q6 -36 32 -56.5t67 -20.5q84 0 188 37v509h-170v201q260 62 496 62v-828h164v-200q-71 -16 -206 -28.5t-249 -12.5l-20 127q-178 -138 -351 -138q-246 0 -272 219q-8 79 -8 244v354h-166z" />
<glyph unicode="v" horiz-adv-x="1265" d="M0 819v211h600v-211l-129 -14q36 -92 65 -176.5t64 -194.5t43 -135q82 274 162 506l-125 14v211h586v-211l-125 -18l-320 -801h-377l-319 801z" />
<glyph unicode="w" horiz-adv-x="1650" d="M2 819v211h578v-211l-123 -18q87 -429 92 -459q80 314 178 645h248q165 -553 186 -643q15 104 78 461l-117 14v211h527v-211l-119 -14l-187 -805h-362q-84 318 -137 537q-34 -143 -158 -537h-367l-192 801z" />
<glyph unicode="x" horiz-adv-x="1302" d="M37 0v213l125 18l260 310l-252 264l-113 18v207h570v-207l-70 -14l137 -158l129 158l-100 14v207h514v-209l-119 -16l-246 -281l283 -293l113 -18v-213h-570v213l70 16l-164 174l-137 -172l129 -18v-213h-559z" />
<glyph unicode="y" horiz-adv-x="1251" d="M0 819v211h592v-211l-129 -14q37 -96 71 -193.5t66 -193t47 -137.5q11 40 38 141.5t54.5 197t57.5 185.5l-125 14v211h579v-211l-125 -18l-274 -768q-39 -110 -92 -196.5t-110 -145t-130 -103.5t-141 -72t-154 -51l-98 261q291 84 358 274h-53l-307 801z" />
<glyph unicode="z" horiz-adv-x="1132" d="M61 0v207q89 103 193 224t147 170.5t92.5 105.5t90.5 100h-244l-41 -199h-217q0 328 27 422h909v-209q-352 -394 -539 -590h318l39 215h225q0 -328 -25 -446h-975z" />
<glyph unicode="{" horiz-adv-x="794" d="M49 492v126q112 13 154.5 79.5t42.5 201.5v211q0 198 114 280.5t379 82.5v-162q-51 0 -86 -7.5t-66 -28.5t-46 -64t-15 -109v-238q0 -134 -52 -206t-163 -103q103 -21 159 -95.5t56 -197.5v-219q0 -136 55.5 -190t157.5 -54v-159q-130 0 -218.5 16.5t-152 56.5t-93 108 t-29.5 169v225q0 141 -45 203.5t-152 73.5z" />
<glyph unicode="|" horiz-adv-x="462" d="M137 -362v1863h193v-1863h-193z" />
<glyph unicode="}" horiz-adv-x="794" d="M55 -201q52 0 87.5 7.5t66.5 29t46 64.5t15 108v238q0 134 51.5 207t161.5 104q-103 21 -158 95t-55 198v217q0 137 -56 190.5t-159 53.5v162q260 0 378 -77.5t118 -275.5v-225q0 -141 44 -203t150 -71v-127q-111 -14 -152.5 -80.5t-41.5 -200.5v-213q0 -197 -115 -278.5 t-381 -81.5v159z" />
<glyph unicode="~" horiz-adv-x="1435" d="M152 553q167 233 354 233q50 0 98.5 -15t132.5 -60q106 -58 185 -58q61 0 106.5 30.5t101.5 111.5l154 -125q-55 -80 -102.5 -129t-114.5 -81t-147 -32q-106 0 -234 70q-112 61 -178 61q-52 0 -101.5 -30t-105.5 -107z" />
<glyph unicode="&#xa2;" horiz-adv-x="1099" d="M100 500q0 239 109.5 381t320.5 174v207h175v-197q177 -4 284 -39q15 -46 15 -375h-226l-18 164q-46 12 -115 12q-209 0 -209 -307q0 -140 63.5 -205t162.5 -65q77 0 143 16.5t158 52.5l96 -198q-181 -103 -354 -125v-203h-175v197q-201 15 -315.5 150.5t-114.5 359.5z " />
<glyph unicode="&#xa3;" horiz-adv-x="1347" d="M78 0v246q90 35 161 80.5t101 85.5q30 41 33 88h-244v209h180q-82 154 -82 274q0 170 126.5 267.5t367.5 97.5q258 0 426 -70q22 -74 22 -434h-231l-20 209q-73 22 -168 22q-80 0 -122 -37.5t-42 -103.5q0 -30 9 -66t15.5 -53.5t26 -60.5t20.5 -45h291v-209h-264 q-3 -53 -37 -103q-43 -63 -198 -125q186 7 548 7l43 215h203q0 -387 -22 -494h-1143z" />
<glyph unicode="&#xa5;" horiz-adv-x="1533" d="M51 1110v213h676v-213l-154 -16q128 -194 197 -310q141 211 211 310l-160 16v213h660v-213l-138 -16l-225 -316h152v-153h-260l-86 -121h346v-156h-357v-115l205 -18v-215h-710v215l202 18v115h-354v156h344l-86 121h-258v153h150l-224 316z" />
<glyph unicode="&#xa8;" horiz-adv-x="411" d="M-137 1300q0 79 42 118.5t111 39.5q64 0 101 -38.5t37 -119.5q0 -74 -39.5 -110.5t-106.5 -36.5q-65 0 -105 34.5t-40 112.5zM258 1300q0 78 42.5 118t111.5 40q63 0 100 -38.5t37 -119.5q0 -74 -39.5 -110.5t-106.5 -36.5q-65 0 -105 34.5t-40 112.5z" />
<glyph unicode="&#xa9;" horiz-adv-x="1662" d="M109 690q0 201 93.5 366.5t258.5 260t368 94.5q154 0 289.5 -55.5t231.5 -151t151 -229t55 -285.5q0 -151 -55 -284t-150.5 -228t-230.5 -150t-289 -55q-153 0 -287.5 55.5t-230 150.5t-150 228t-54.5 283zM201 690q0 -176 79.5 -320.5t224 -228.5t326.5 -84 q136 0 253.5 49t199.5 133.5t129 201.5t47 249q0 178 -80 323.5t-225 229.5t-326 84q-180 0 -324.5 -84.5t-224 -229.5t-79.5 -323zM420 668q0 228 115.5 350.5t320.5 122.5q161 0 268 -37q10 -39 12.5 -98t2.5 -207h-178l-15 143q-70 8 -108 8q-74 0 -124 -61t-50 -203 q0 -117 54.5 -174t133.5 -57q125 0 254 57l72 -164q-179 -108 -383 -108q-174 0 -274.5 114.5t-100.5 313.5z" />
<glyph unicode="&#xab;" horiz-adv-x="1202" d="M55 524l381 381h262l-342 -377l342 -391h-264zM492 524l385 381h262l-342 -377l342 -391h-262z" />
<glyph unicode="&#xad;" horiz-adv-x="622" d="M68 461v207h487v-207h-487z" />
<glyph unicode="&#xae;" horiz-adv-x="1662" d="M109 690q0 201 93.5 366.5t258.5 260t368 94.5q154 0 289.5 -55.5t231.5 -151t151 -229t55 -285.5q0 -151 -55 -284t-150.5 -228t-230.5 -150t-289 -55q-153 0 -287.5 55.5t-230 150.5t-150 228t-54.5 283zM201 690q0 -176 79.5 -320.5t224 -228.5t326.5 -84 q136 0 253.5 49t199.5 133.5t129 201.5t47 249q0 178 -80 323.5t-225 229.5t-326 84q-180 0 -324.5 -84.5t-224 -229.5t-79.5 -323zM438 299v143l109 13v516l-109 10v152h420q134 0 195 -19q66 -21 105.5 -73.5t39.5 -131.5q0 -186 -174 -243q16 -10 33 -28.5t26 -32 t27.5 -44t24.5 -39.5q24 -36 46.5 -47.5t61.5 -11.5q19 0 35 2l10 -160q-65 -10 -145 -10q-128 0 -193 123q-11 21 -25.5 50t-25.5 49.5t-22 39.5q-31 52 -66 66h-47v-168l104 -13v-143h-430zM764 793h43q32 0 51.5 1t43 5.5t36.5 13.5t22 25.5t9 40.5q0 48 -35 71 q-21 15 -105 15h-65v-172z" />
<glyph unicode="&#xb4;" horiz-adv-x="411" d="M-78 1147l246 328h324l-338 -328h-232z" />
<glyph unicode="&#xb8;" horiz-adv-x="411" d="M-23 -475l56 156q67 -21 117 -21q67 0 67 47q0 55 -86 55q-35 0 -76 -6l101 264h157l-47 -110q172 -27 172 -193q0 -91 -78.5 -156t-224.5 -65q-40 0 -87 10t-71 19z" />
<glyph unicode="&#xbb;" horiz-adv-x="1202" d="M63 139l343 377l-343 391h263l383 -387l-383 -381h-263zM502 139l342 377l-342 391h266l379 -387l-381 -381h-264z" />
<glyph unicode="&#xc1;" horiz-adv-x="1568" d="M0 0v215l147 16l428 1153h429l419 -1153l146 -16v-215h-719v215l199 16l-60 164h-416l-59 -164l205 -16v-215h-719zM543 1481l364 327h344l-460 -327h-248zM659 674h242q-91 296 -115 403q-76 -252 -127 -403z" />
<glyph unicode="&#xc9;" horiz-adv-x="1359" d="M55 0v215l197 18v918l-197 18v215h1143q27 -119 27 -460h-230l-30 180h-371v-254h397v-281h-397v-301h414l30 219h232q0 -371 -21 -487h-1194zM432 1460l365 328h344l-461 -328h-248z" />
<glyph unicode="&#xcd;" horiz-adv-x="845" d="M55 0v215l197 18v918l-197 18v215h736v-215l-197 -18v-918l197 -18v-215h-736zM170 1460l365 328h344l-461 -328h-248z" />
<glyph unicode="&#xd3;" horiz-adv-x="1538" d="M94 664q0 757 701 757q322 0 485.5 -175t163.5 -517q0 -374 -180.5 -570t-515.5 -196q-307 0 -480.5 180t-173.5 521zM457 711q0 -469 311 -469q307 0 307 438q0 238 -66 350.5t-231 112.5q-321 0 -321 -432zM514 1473l365 327h344l-461 -327h-248z" />
<glyph unicode="&#xda;" horiz-adv-x="1617" d="M37 1169v215h680v-215l-172 -14v-512q0 -124 4.5 -181.5t21.5 -103.5q24 -61 92 -88.5t148 -27.5q82 0 147.5 25t92.5 71q26 44 33.5 107.5t7.5 189.5v520l-179 14v215h668v-217l-154 -12v-563q0 -276 -73 -397q-65 -103 -206 -167.5t-347 -64.5q-415 0 -541 236 q-57 111 -57 379v577zM557 1460l365 328h344l-461 -328h-248z" />
<glyph unicode="&#xdd;" horiz-adv-x="1529" d="M0 1169v215h719v-215l-164 -16q136 -201 219 -340q68 113 230 340l-175 16v215h701v-215l-150 -16l-450 -635v-285l205 -18v-215h-748v215l205 18v285l-449 635zM545 1460l364 328h344l-460 -328h-248z" />
<glyph unicode="&#xe1;" horiz-adv-x="1228" d="M88 301q0 109 52.5 179.5t146.5 99.5q147 47 418 57v29q0 83 -25.5 110t-112.5 27q-174 0 -350 -43l-45 219q111 37 261 61.5t247 24.5q220 0 285 -107q53 -83 53 -284v-441h164v-200q-80 -22 -205.5 -36.5t-235.5 -14.5l-18 118q-62 -66 -142 -95.5t-155 -29.5 q-85 0 -151.5 27.5t-106.5 74.5t-60 104t-20 120zM408 1147l245 328h324l-338 -328h-231zM418 309q0 -50 28 -78t80 -28q43 0 96 19t87 50v170q-6 -1 -39 -3.5t-58 -5t-59.5 -8.5t-58.5 -15q-76 -26 -76 -101z" />
<glyph unicode="&#xe9;" horiz-adv-x="1155" d="M90 498q0 111 27.5 204.5t76 160t114.5 112.5t142.5 68t161.5 22q110 0 193 -29.5t131.5 -76.5t78.5 -117.5t40 -140.5t10 -156q0 -37 -6 -90h-639q0 -109 58.5 -169.5t172.5 -60.5q181 0 326 80l102 -201q-236 -137 -508 -137q-224 0 -352.5 145.5t-128.5 385.5z M420 1147l246 328h323l-338 -328h-231zM430 670h324q2 14 2 39q0 59 -37.5 93t-112.5 34q-69 0 -117 -46.5t-59 -119.5z" />
<glyph unicode="&#xed;" horiz-adv-x="757" d="M55 774v211q260 76 496 76v-830l168 -18v-213h-656v213l168 18v543h-176zM190 1147l246 328h324l-338 -328h-232z" />
<glyph unicode="&#xf3;" horiz-adv-x="1259" d="M90 496q0 569 572 569q507 0 507 -522q0 -281 -141 -428.5t-416 -147.5q-250 0 -386 137t-136 392zM424 1147l246 328h323l-338 -328h-231zM426 528q0 -95 13.5 -159.5t41 -99t61 -48.5t81.5 -14q102 0 152 65.5t50 233.5q0 82 -7 136t-27 98.5t-58.5 65.5t-97.5 21 q-112 0 -160.5 -76.5t-48.5 -222.5z" />
<glyph unicode="&#xfa;" horiz-adv-x="1298" d="M-6 788v203q267 60 489 60v-549q0 -148 6 -183q6 -36 32 -56.5t67 -20.5q84 0 188 37v509h-170v201q260 62 496 62v-828h164v-200q-71 -16 -206 -28.5t-249 -12.5l-20 127q-178 -138 -351 -138q-246 0 -272 219q-8 79 -8 244v354h-166zM430 1147l246 328h323l-337 -328 h-232z" />
<glyph unicode="&#xfd;" horiz-adv-x="1251" d="M0 819v211h592v-211l-129 -14q37 -96 71 -193.5t66 -193t47 -137.5q11 40 38 141.5t54.5 197t57.5 185.5l-125 14v211h579v-211l-125 -18l-274 -768q-39 -110 -92 -196.5t-110 -145t-130 -103.5t-141 -72t-154 -51l-98 261q291 84 358 274h-53l-307 801zM446 1147 l246 328h324l-338 -328h-232z" />
<glyph unicode="&#x10c;" horiz-adv-x="1390" d="M94 657q0 366 181.5 565t525.5 199q242 0 454 -51q21 -99 21 -477h-250l-29 229q-76 25 -163 25q-379 0 -379 -477q0 -194 86.5 -304t244.5 -110q86 0 193.5 31.5t206.5 101.5l141 -205q-283 -221 -606 -221q-289 0 -458 186.5t-169 507.5zM369 1761h227l176 -129 l180 129h226l-283 -282h-250z" />
<glyph unicode="&#x10d;" horiz-adv-x="1099" d="M90 489q0 277 144.5 426.5t416.5 149.5q182 0 324 -43q12 -68 12 -371h-244l-18 166q-52 10 -92 10q-43 0 -78 -15.5t-65.5 -49.5t-48 -98.5t-17.5 -153.5q0 -141 64.5 -211t162.5 -70q76 0 134.5 16t156.5 54l94 -199q-230 -133 -465 -133q-223 0 -352 141t-129 381z M244 1458h227l137 -160l142 160h225l-244 -311h-250z" />
<glyph unicode="&#x10e;" horiz-adv-x="1566" d="M55 0v215l197 18v918l-197 18v215h486q294 0 422 -24q242 -43 376 -196t134 -423q0 -257 -89 -422.5t-297 -250.5q-104 -42 -248 -55t-352 -13h-432zM268 1761h228l176 -129l180 129h225l-282 -282h-250zM594 279h88q148 0 240 36q180 67 180 402q0 241 -121 325 q-55 38 -124 51t-161 13h-102v-827z" />
<glyph unicode="&#x10f;" horiz-adv-x="1294" d="M90 492q0 119 27 214.5t72.5 159.5t109 106.5t134 61.5t149.5 19q110 0 184 -27v203h-191v209q293 79 517 82v-1297h163v-200q-196 -41 -454 -41l-19 118q-129 -120 -290 -120q-176 0 -289 137.5t-113 374.5zM424 508q0 -153 47 -212.5t131 -59.5q68 0 164 51v485 q-69 14 -133 14q-44 0 -77.5 -11t-65 -39t-49 -85.5t-17.5 -142.5zM1167 1047q61 174 86 469h258q-18 -115 -63 -248.5t-90 -220.5h-191z" />
<glyph unicode="&#x11a;" horiz-adv-x="1359" d="M55 0v215l197 18v918l-197 18v215h1143q27 -119 27 -460h-230l-30 180h-371v-254h397v-281h-397v-301h414l30 219h232q0 -371 -21 -487h-1194zM262 1761h227l177 -129l180 129h225l-283 -282h-249z" />
<glyph unicode="&#x11b;" horiz-adv-x="1155" d="M90 498q0 111 27.5 204.5t76 160t114.5 112.5t142.5 68t161.5 22q110 0 193 -29.5t131.5 -76.5t78.5 -117.5t40 -140.5t10 -156q0 -37 -6 -90h-639q0 -109 58.5 -169.5t172.5 -60.5q181 0 326 80l102 -201q-236 -137 -508 -137q-224 0 -352.5 145.5t-128.5 385.5z M246 1458h227l137 -160l142 160h225l-244 -311h-250zM430 670h324q2 14 2 39q0 59 -37.5 93t-112.5 34q-69 0 -117 -46.5t-59 -119.5z" />
<glyph unicode="&#x147;" horiz-adv-x="1693" d="M55 0v215l197 18v918l-197 18v215h672q219 -416 285 -548.5t133 -290.5q-10 215 -10 606l-172 14v219h682v-215l-170 -18v-1151h-398q-128 251 -223.5 440.5t-135.5 270t-80.5 164t-53.5 108.5q10 -192 10 -750l192 -18v-215h-731zM463 1761h227l176 -129l181 129h225 l-283 -282h-250z" />
<glyph unicode="&#x148;" horiz-adv-x="1370" d="M55 774v209q98 32 242 55t248 23l6 -141q83 60 192 99.5t183 39.5q51 0 90 -10t64.5 -28.5t43 -45.5t26 -61t13 -75t4.5 -87v-97v-59v-365l172 -18v-213h-495v528q0 166 -6 201q-10 57 -86 57q-110 0 -201 -34v-521l168 -18v-213h-656v213l168 18v543h-176zM295 1458h227 l137 -160l142 160h225l-244 -311h-250z" />
<glyph unicode="&#x158;" horiz-adv-x="1488" d="M55 0v215l197 18v918l-197 18v215h711q201 0 309 -34q113 -35 179.5 -122t66.5 -216q0 -166 -75.5 -262.5t-219.5 -141.5q53 -24 104 -102q32 -45 87 -139q36 -60 79 -83.5t111 -23.5q23 0 57 6l19 -256q-101 -16 -240 -16q-114 0 -188.5 52.5t-130.5 150.5 q-30 52 -69.5 127.5t-57.5 107.5q-54 97 -111 119h-94v-318l190 -18v-215h-727zM254 1761h227l176 -129l181 129h225l-283 -282h-250zM592 811h88q158 0 211 29q61 35 61 118q0 58 -17 87.5t-52 48.5q-47 24 -168 24h-123v-307z" />
<glyph unicode="&#x159;" horiz-adv-x="958" d="M55 774v209q229 75 492 78v-174q45 78 124 124t173 46q29 0 65 -4v-283q-54 6 -116 6q-141 0 -242 -49v-494l199 -20v-213h-687v213l168 18v543h-176zM109 1458h227l137 -160l141 160h226l-244 -311h-250z" />
<glyph unicode="&#x160;" horiz-adv-x="1251" d="M72 514h245l33 -238q130 -40 275 -40q92 0 135 35t43 94q0 56 -34.5 91t-121.5 62l-180 53q-81 25 -139 55.5t-106.5 78t-73.5 118t-25 162.5t33 168.5t101.5 137t185 94.5t272.5 34q98 0 212.5 -14t194.5 -35q21 -59 21 -469h-238l-24 221q-100 27 -195 27 q-111 0 -158 -34.5t-47 -86.5q0 -50 24 -82t91 -55l174 -64q129 -46 208 -90t121.5 -98t57 -110.5t14.5 -141.5q0 -87 -34.5 -161.5t-103 -134.5t-184 -94t-265.5 -34q-308 0 -484 76q-28 137 -28 475zM250 1761h227l176 -129l181 129h225l-283 -282h-250z" />
<glyph unicode="&#x161;" horiz-adv-x="1067" d="M78 375h223l33 -142q68 -30 172 -30q117 0 117 82q0 35 -19 54t-59 30l-162 41q-134 35 -202 109.5t-68 217.5q0 66 28 123.5t83.5 104t147.5 73.5t210 27q202 0 340 -37q26 -64 26 -346h-223l-25 143q-64 15 -131 15q-59 0 -88.5 -23.5t-29.5 -60.5q0 -66 77 -82 l170 -39q82 -18 138 -50.5t85.5 -76t41.5 -90t12 -105.5q0 -65 -26 -124.5t-79 -110.5t-146 -81t-214 -30q-218 0 -408 58q-24 80 -24 350zM180 1458h228l137 -160l141 160h225l-243 -311h-250z" />
<glyph unicode="&#x164;" horiz-adv-x="1472" d="M74 860q0 407 18 524h1276q21 -86 21 -524h-224l-37 244h-225v-871l199 -18v-215h-737v215l198 18v871h-227l-37 -244h-225zM330 1761h227l176 -129l180 129h226l-283 -282h-250z" />
<glyph unicode="&#x165;" horiz-adv-x="813" d="M-20 784v226q87 20 190 20q0 59 12 256l307 21v-277h246v-246h-246v-338q0 -107 24.5 -150.5t104.5 -43.5q75 0 136 10l39 -235q-131 -43 -328 -43q-78 0 -141 26t-95 70q-63 84 -63 297v407h-186zM571 1104q61 174 86 469h258q-18 -115 -63 -248.5t-90 -220.5h-191z" />
<glyph unicode="&#x16e;" horiz-adv-x="1617" d="M37 1169v215h680v-215l-172 -14v-512q0 -124 4.5 -181.5t21.5 -103.5q24 -61 92 -88.5t148 -27.5q82 0 147.5 25t92.5 71q26 44 33.5 107.5t7.5 189.5v520l-179 14v215h668v-217l-154 -12v-563q0 -276 -73 -397q-65 -103 -206 -167.5t-347 -64.5q-415 0 -541 236 q-57 111 -57 379v577zM629 1642q0 79 53 132t133 53q85 0 133.5 -49.5t48.5 -130.5q0 -78 -51.5 -134.5t-132.5 -56.5q-80 0 -132 54t-52 132zM719 1642q0 -47 26 -75.5t72 -28.5q42 0 67 29.5t25 77.5q0 46 -27 73t-69 27q-41 0 -67.5 -28.5t-26.5 -74.5z" />
<glyph unicode="&#x16f;" horiz-adv-x="1298" d="M-6 788v203q267 60 489 60v-549q0 -148 6 -183q6 -36 32 -56.5t67 -20.5q84 0 188 37v509h-170v201q260 62 496 62v-828h164v-200q-71 -16 -206 -28.5t-249 -12.5l-20 127q-178 -138 -351 -138q-246 0 -272 219q-8 79 -8 244v354h-166zM418 1300q0 84 55 137.5t139 53.5 q88 0 138.5 -50.5t50.5 -135.5q0 -79 -53.5 -137t-137.5 -58q-83 0 -137.5 55.5t-54.5 134.5zM510 1300q0 -47 27 -76.5t77 -29.5q45 0 72 31t27 78q0 49 -29 77.5t-74 28.5t-72.5 -30.5t-27.5 -78.5z" />
<glyph unicode="&#x17d;" horiz-adv-x="1419" d="M72 0v242q483 563 747 864h-434l-37 -252h-239q0 427 22 530h1165v-245q-229 -265 -381.5 -438t-255 -286.5t-122.5 -135.5h536l43 272h225q0 -434 -24 -551h-1245zM313 1761h228l176 -129l180 129h225l-282 -282h-250z" />
<glyph unicode="&#x17e;" horiz-adv-x="1132" d="M61 0v207q89 103 193 224t147 170.5t92.5 105.5t90.5 100h-244l-41 -199h-217q0 328 27 422h909v-209q-352 -394 -539 -590h318l39 215h225q0 -328 -25 -446h-975zM205 1458h227l137 -160l142 160h225l-244 -311h-250z" />
<glyph unicode="&#x2c6;" horiz-adv-x="411" d="M-160 1147l244 313h250l237 -313h-227l-137 160l-141 -160h-226z" />
<glyph unicode="&#x2da;" horiz-adv-x="411" d="M12 1300q0 84 55.5 137.5t139.5 53.5q88 0 138 -50t50 -136q0 -79 -53 -137t-137 -58q-83 0 -138 55.5t-55 134.5zM104 1300q0 -46 27.5 -76t77.5 -30q45 0 71.5 31t26.5 78q0 49 -28.5 77.5t-73.5 28.5t-73 -30.5t-28 -78.5z" />
<glyph unicode="&#x2dc;" horiz-adv-x="411" d="M-141 1139q12 127 71.5 203.5t143.5 76.5q69 0 143 -39q70 -34 98 -34q32 0 49.5 18.5t30.5 71.5h160q-15 -136 -70.5 -208.5t-140.5 -72.5q-69 0 -158 47q-59 29 -82 29q-53 0 -75 -92h-170z" />
<glyph unicode="&#x2000;" horiz-adv-x="913" />
<glyph unicode="&#x2001;" horiz-adv-x="1827" />
<glyph unicode="&#x2002;" horiz-adv-x="913" />
<glyph unicode="&#x2003;" horiz-adv-x="1827" />
<glyph unicode="&#x2004;" horiz-adv-x="609" />
<glyph unicode="&#x2005;" horiz-adv-x="456" />
<glyph unicode="&#x2006;" horiz-adv-x="304" />
<glyph unicode="&#x2007;" horiz-adv-x="304" />
<glyph unicode="&#x2008;" horiz-adv-x="228" />
<glyph unicode="&#x2009;" horiz-adv-x="365" />
<glyph unicode="&#x200a;" horiz-adv-x="101" />
<glyph unicode="&#x2010;" horiz-adv-x="622" d="M68 461v207h487v-207h-487z" />
<glyph unicode="&#x2011;" horiz-adv-x="622" d="M68 461v207h487v-207h-487z" />
<glyph unicode="&#x2012;" horiz-adv-x="622" d="M68 461v207h487v-207h-487z" />
<glyph unicode="&#x2013;" horiz-adv-x="1062" d="M68 465v201h927v-201h-927z" />
<glyph unicode="&#x2014;" horiz-adv-x="1853" d="M68 465v201h1720v-201h-1720z" />
<glyph unicode="&#x2018;" horiz-adv-x="479" d="M41 842q17 136 71 299t107 274h207q-30 -111 -58 -271t-38 -302h-289z" />
<glyph unicode="&#x2019;" horiz-adv-x="477" d="M35 842q74 286 94 573h289q-17 -136 -70.5 -300t-105.5 -273h-207z" />
<glyph unicode="&#x201a;" horiz-adv-x="477" d="M35 -225q74 291 94 575h289q-17 -138 -70.5 -302t-105.5 -273h-207z" />
<glyph unicode="&#x201c;" horiz-adv-x="845" d="M41 842q17 136 71 299t107 274h207q-30 -111 -58 -271t-38 -302h-289zM420 842q17 136 70.5 300t105.5 273h207q-31 -118 -58.5 -276.5t-35.5 -296.5h-289z" />
<glyph unicode="&#x201d;" horiz-adv-x="845" d="M35 842q74 286 94 573h289q-17 -136 -70.5 -300t-105.5 -273h-207zM412 842q29 108 57 268t39 305h289q-17 -135 -71 -298t-108 -275h-206z" />
<glyph unicode="&#x201e;" horiz-adv-x="845" d="M35 -225q74 291 94 575h289q-17 -138 -70.5 -302t-105.5 -273h-207zM412 -225q30 110 57.5 270t38.5 305h289q-17 -137 -71 -300t-108 -275h-206z" />
<glyph unicode="&#x2026;" horiz-adv-x="2029" d="M150 166q0 95 56 144.5t134 49.5q80 0 134 -45.5t54 -148.5q0 -93 -52.5 -141t-139.5 -48q-34 0 -65 10t-59 31t-45 59.5t-17 88.5zM825 166q0 95 57.5 144.5t135.5 49.5q79 0 133.5 -45.5t54.5 -148.5q0 -93 -53.5 -141t-140.5 -48q-73 0 -130 46.5t-57 142.5zM1501 166 q0 94 57 144t134 50q79 0 134.5 -45.5t55.5 -148.5q0 -93 -53.5 -141t-142.5 -48q-32 0 -63 10t-59 31t-45.5 59.5t-17.5 88.5z" />
<glyph unicode="&#x202f;" horiz-adv-x="365" />
<glyph unicode="&#x2039;" horiz-adv-x="761" d="M55 524l381 381h262l-342 -377l342 -391h-264z" />
<glyph unicode="&#x203a;" horiz-adv-x="763" d="M55 139l336 377l-336 393h289l383 -389l-383 -381h-289z" />
<glyph unicode="&#x205f;" horiz-adv-x="456" />
<glyph unicode="&#x20ac;" horiz-adv-x="1480" d="M150 449v157h137q0 84 2 117h-139v158h163q110 465 637 465q227 0 391 -54q17 -60 17 -393h-217l-23 156q-80 22 -205 22q-216 0 -254 -196h422v-158h-444q-2 -27 -2 -117h446v-157h-428q9 -98 72 -153.5t174 -55.5q190 0 395 133l127 -211q-110 -88 -255 -141.5 t-302 -53.5q-240 0 -383 125.5t-180 356.5h-151z" />
<glyph unicode="&#x2122;" horiz-adv-x="2029" d="M106 1083q0 226 11 301h706q13 -58 13 -301h-127l-21 142h-117v-445l111 -8v-123h-420v123l111 8v445h-117l-20 -142h-130zM891 649v123l98 6l12 475l-104 9v122h399q87 -277 111 -383q30 116 111 383h383v-122l-103 -9l17 -475l98 -6v-123h-393v123l96 6q-4 293 -4 449 q-32 -115 -137 -439h-154q-38 120 -135 439q3 -113 -2 -449l100 -6v-123h-393z" />
</font>
</defs>
</svg>
