<?xml version="1.0" encoding="UTF-8"?>
<!DOCTYPE svg PUBLIC "-//W3C//DTD SVG 1.1//EN" "http://www.w3.org/Graphics/SVG/1.1/DTD/svg11.dtd">
<svg version="1.1" xmlns="http://www.w3.org/2000/svg" xmlns:xlink="http://www.w3.org/1999/xlink" x="0" y="0" width="400" height="400" viewBox="0, 0, 400, 400">
  <g id="Background">
    <rect x="0" y="0" width="400" height="400" fill="#000000" fill-opacity="0"/>
  </g>
  <g id="layer1">
    <g id="g10305">
      <path d="M348.032,200.5 C348.046,249.436 308.386,289.114 259.45,289.127 C210.513,289.139 170.836,249.481 170.823,200.545 C170.823,200.529 170.823,200.516 170.823,200.5 C170.81,151.565 210.47,111.885 259.404,111.872 C308.341,111.859 348.019,151.519 348.032,200.455 C348.032,200.47 348.032,200.484 348.032,200.5 z" fill="#FF9900" id="path2268"/>
      <path d="M140.001,111.895 C91.355,112.204 51.967,151.781 51.967,200.5 C51.967,249.409 91.662,289.104 140.572,289.104 C163.527,289.104 184.451,280.356 200.196,266.018 C200.195,266.018 200.193,266.016 200.189,266.014 L200.208,266.014 C203.432,263.076 206.439,259.906 209.203,256.526 L191.05,256.526 C188.626,253.598 186.423,250.547 184.444,247.399 L215.752,247.399 C217.656,244.352 219.38,241.188 220.91,237.911 L179.275,237.911 C177.856,234.869 176.624,231.758 175.572,228.602 L224.617,228.602 C227.573,219.77 229.177,210.321 229.177,200.499 C229.177,193.987 228.471,187.638 227.135,181.525 L172.971,181.525 C173.642,178.379 174.489,175.271 175.499,172.217 L224.562,172.217 C223.465,168.967 222.191,165.8 220.742,162.73 L179.27,162.73 C180.766,159.534 182.461,156.425 184.354,153.423 L215.639,153.423 C213.557,150.106 211.253,146.937 208.762,143.935 L191.319,143.935 C194.016,140.761 196.985,137.772 200.208,134.985 C184.462,120.645 163.532,111.895 140.572,111.895 C140.381,111.895 140.192,111.894 140.001,111.895 z" fill="#CC0000" id="path1350"/>
      <path d="M339.143,246.82 C339.625,246.82 340.094,246.945 340.552,247.191 C341.012,247.437 341.366,247.792 341.622,248.253 C341.878,248.709 342.006,249.19 342.006,249.688 C342.006,250.18 341.879,250.656 341.627,251.112 C341.376,251.567 341.022,251.922 340.566,252.175 C340.115,252.424 339.638,252.55 339.142,252.55 C338.646,252.55 338.17,252.424 337.716,252.175 C337.261,251.921 336.909,251.568 336.653,251.112 C336.401,250.656 336.276,250.18 336.276,249.688 C336.276,249.19 336.403,248.709 336.66,248.253 C336.918,247.792 337.274,247.44 337.731,247.191 C338.193,246.945 338.662,246.82 339.143,246.82 M339.143,247.295 C338.742,247.295 338.35,247.399 337.967,247.606 C337.587,247.813 337.29,248.106 337.076,248.494 C336.859,248.876 336.751,249.272 336.751,249.688 C336.751,250.1 336.857,250.498 337.066,250.876 C337.28,251.253 337.576,251.549 337.954,251.761 C338.335,251.972 338.73,252.076 339.142,252.076 C339.556,252.076 339.952,251.972 340.331,251.761 C340.709,251.549 341.004,251.253 341.215,250.876 C341.424,250.498 341.528,250.101 341.528,249.688 C341.528,249.272 341.422,248.875 341.207,248.494 C340.994,248.106 340.696,247.813 340.313,247.606 C339.934,247.398 339.544,247.295 339.143,247.295 M337.887,251.27 L337.887,248.188 L338.949,248.188 C339.309,248.188 339.571,248.216 339.733,248.276 C339.895,248.333 340.024,248.43 340.121,248.573 C340.216,248.714 340.265,248.864 340.265,249.024 C340.265,249.25 340.185,249.446 340.023,249.612 C339.865,249.778 339.65,249.873 339.384,249.893 C339.493,249.938 339.58,249.995 339.648,250.057 C339.773,250.177 339.923,250.38 340.103,250.667 L340.478,251.27 L339.872,251.27 L339.6,250.785 C339.385,250.403 339.212,250.165 339.079,250.067 C338.988,249.998 338.855,249.962 338.682,249.962 L338.389,249.962 L338.389,251.273 L337.889,251.273 M338.385,249.535 L338.989,249.535 C339.277,249.535 339.472,249.491 339.577,249.406 C339.683,249.318 339.736,249.206 339.736,249.064 C339.736,248.972 339.712,248.89 339.661,248.82 C339.609,248.747 339.539,248.695 339.448,248.658 C339.359,248.623 339.193,248.603 338.951,248.603 L338.387,248.603 L338.387,249.535" fill="#FCB340" id="use9412"/>
    </g>
    <g id="g16480">
      <g id="g13802">
        <path d="M169.975,225.92 L171.155,217.9 C170.51,217.9 169.562,218.179 168.724,218.179 C165.44,218.179 165.03,216.424 165.288,215.142 L168.524,199.012 L173.516,199.012 L174.545,189.909 L169.84,189.909 L170.798,184.393 L160.956,184.393 C160.748,184.601 155.388,215.415 155.388,219.169 C155.388,224.724 158.506,227.196 162.904,227.157 C166.346,227.128 169.029,226.175 169.975,225.92 z" fill="#000066" id="path13804"/>
        <path d="M172.962,210.632 C172.962,223.964 181.761,227.131 189.259,227.131 C196.18,227.131 199.809,225.527 199.809,225.527 L201.471,216.427 C201.471,216.427 195.623,218.805 190.87,218.805 C180.739,218.805 182.515,211.251 182.515,211.251 L201.978,211.31 C201.978,211.31 203.217,205.199 203.217,202.708 C203.217,196.491 199.83,188.859 189.472,188.859 C179.986,188.861 172.962,199.082 172.962,210.632 z M189.508,197.307 C194.832,197.307 193.85,203.291 193.85,203.776 L183.376,203.776 C183.376,203.156 184.365,197.307 189.508,197.307 z" fill="#000066" id="path13806"/>
        <path d="M249.246,225.917 L250.935,215.633 C250.935,215.633 246.303,217.954 243.128,217.954 C236.435,217.954 233.75,212.844 233.75,207.353 C233.75,196.216 239.508,190.088 245.918,190.088 C250.726,190.088 254.583,192.787 254.583,192.787 L256.123,182.794 C256.123,182.794 251.569,179.505 246.667,179.486 C231.922,179.428 223.485,189.694 223.485,207.441 C223.485,219.204 229.733,227.209 240.991,227.209 C244.174,227.209 249.246,225.917 249.246,225.917 z" fill="#000066" id="path13808"/>
        <path d="M118.086,189.006 C111.617,189.006 106.659,191.085 106.659,191.085 L105.289,199.212 C105.289,199.212 109.382,197.549 115.57,197.549 C119.083,197.549 121.653,197.944 121.653,200.799 C121.653,202.533 121.339,203.173 121.339,203.173 C121.339,203.173 118.567,202.942 117.283,202.942 C108.073,202.942 100.554,206.424 100.554,216.922 C100.554,225.195 106.177,227.092 109.662,227.092 C116.319,227.092 118.954,222.889 119.106,222.877 L119.029,226.365 C119.029,226.365 127.335,226.365 127.336,226.365 L131.042,200.385 C131.042,189.36 121.426,189.006 118.086,189.006 z M119.524,210.102 C119.705,211.688 119.114,219.188 113.432,219.188 C110.502,219.188 109.741,216.948 109.741,215.626 C109.741,213.042 111.144,209.943 118.056,209.943 C119.666,209.943 119.253,210.059 119.524,210.102 z" fill="#000066" id="path13810"/>
        <path d="M139.871,226.9 C141.996,226.9 154.143,227.441 154.143,214.906 C154.143,203.185 142.899,205.502 142.899,200.792 C142.899,198.45 144.732,197.712 148.083,197.712 C149.412,197.712 154.53,198.135 154.53,198.135 L155.719,189.805 C155.719,189.806 152.407,189.064 147.015,189.064 C140.036,189.064 132.952,191.85 132.952,201.382 C132.952,212.184 144.764,211.099 144.764,215.649 C144.764,218.686 141.464,218.936 138.92,218.936 C134.519,218.936 130.557,217.425 130.543,217.498 L129.284,225.743 C129.513,225.813 131.958,226.9 139.871,226.9 z" fill="#000066" id="path13812"/>
        <path d="M327.063,181.449 L325.358,194.158 C325.358,194.158 321.805,189.253 316.246,189.253 C305.787,189.253 300.397,199.676 300.397,211.649 C300.397,219.379 304.241,226.956 312.096,226.956 C317.747,226.956 320.88,223.015 320.88,223.015 L320.465,226.38 L329.643,226.38 L336.85,181.518 L327.063,181.449 z M323.011,206.15 C323.011,211.133 320.543,217.79 315.43,217.79 C312.034,217.79 310.442,214.939 310.442,210.466 C310.442,203.151 313.727,198.326 317.874,198.326 C321.268,198.326 323.011,200.656 323.011,206.15 z" fill="#000066" id="path13814"/>
        <path d="M67.005,226.417 L72.748,192.547 L73.592,226.417 L80.091,226.417 L92.216,192.547 L86.845,226.417 L96.503,226.417 L103.94,181.495 L88.598,181.378 L79.472,208.882 L79.222,181.495 L65.162,181.495 L57.618,226.417 L67.005,226.417 L67.005,226.417 z" fill="#000066" id="path13816"/>
        <path d="M212.357,226.481 C215.103,210.866 216.081,198.534 224.089,201.088 C225.239,195.044 227.98,189.788 229.232,187.23 C229.232,187.23 228.836,186.641 226.361,186.641 C222.136,186.641 216.495,195.215 216.495,195.215 L217.338,189.914 L208.552,189.914 L202.668,226.48 L212.357,226.48 z" fill="#000066" id="path13818"/>
        <path d="M269.006,189.006 C262.534,189.006 257.576,191.085 257.576,191.085 L256.207,199.212 C256.207,199.212 260.302,197.549 266.487,197.549 C270.001,197.549 272.57,197.944 272.57,200.799 C272.57,202.533 272.257,203.173 272.257,203.173 C272.257,203.173 269.486,202.942 268.202,202.942 C258.991,202.942 251.473,206.424 251.473,216.922 C251.473,225.195 257.095,227.092 260.58,227.092 C267.235,227.092 269.872,222.889 270.023,222.877 L269.945,226.365 L278.254,226.365 L281.959,200.385 C281.96,189.36 272.344,189.006 269.006,189.006 z M270.442,210.102 C270.622,211.688 270.031,219.188 264.35,219.188 C261.418,219.188 260.658,216.948 260.658,215.626 C260.658,213.042 262.06,209.943 268.973,209.943 C270.584,209.943 270.172,210.059 270.442,210.102 z" fill="#000066" id="path13810_1_"/>
        <path d="M291.522,226.481 C293.03,214.993 295.821,198.865 303.253,201.088 C304.402,195.044 303.294,195.06 300.82,195.06 C296.592,195.06 295.656,195.214 295.656,195.214 L296.5,189.913 L287.715,189.913 L281.831,226.48 L291.522,226.48 L291.522,226.481 z" fill="#000066" id="use14701"/>
      </g>
      <g id="g10289">
        <path d="M172.434,223.059 L173.615,215.04 C172.97,215.04 172.021,215.316 171.184,215.316 C167.9,215.316 167.538,213.57 167.747,212.279 L170.4,195.917 L175.391,195.917 L176.596,187.047 L171.89,187.047 L172.848,181.531 L163.414,181.531 C163.206,181.739 157.845,212.554 157.845,216.306 C157.845,221.861 160.964,224.335 165.362,224.295 C168.806,224.266 171.488,223.313 172.434,223.059 z" fill="#FFFFFF" id="path4157"/>
        <path d="M175.423,207.77 C175.423,221.102 184.223,224.27 191.72,224.27 C198.64,224.27 201.685,222.723 201.685,222.723 L203.347,213.624 C203.347,213.624 198.083,215.943 193.329,215.943 C183.199,215.943 184.973,208.39 184.973,208.39 L204.145,208.39 C204.145,208.39 205.383,202.277 205.383,199.786 C205.383,193.57 202.289,185.996 191.931,185.996 C182.445,185.998 175.423,196.219 175.423,207.77 z M191.967,194.445 C197.291,194.445 196.309,200.428 196.309,200.912 L185.835,200.912 C185.835,200.294 186.825,194.445 191.967,194.445 z" fill="#FFFFFF" id="path4155"/>
        <path d="M251.707,223.055 L253.395,212.77 C253.395,212.77 248.766,215.091 245.589,215.091 C238.897,215.091 236.213,209.981 236.213,204.491 C236.213,193.354 241.971,187.227 248.381,187.227 C253.188,187.227 257.046,189.926 257.046,189.926 L258.586,179.933 C258.586,179.933 252.865,177.618 247.961,177.618 C237.07,177.618 226.475,187.066 226.475,204.81 C226.475,216.576 232.196,224.347 243.454,224.347 C246.637,224.348 251.707,223.055 251.707,223.055 z" fill="#FFFFFF" id="path4151"/>
        <path d="M120.547,186.143 C114.078,186.143 109.119,188.222 109.119,188.222 L107.75,196.349 C107.75,196.349 111.843,194.686 118.03,194.686 C121.543,194.686 124.113,195.081 124.113,197.936 C124.113,199.67 123.798,200.31 123.798,200.31 C123.798,200.31 121.027,200.078 119.744,200.078 C111.585,200.078 103.014,203.56 103.014,214.058 C103.014,222.33 108.637,224.228 112.122,224.228 C118.778,224.228 121.647,219.909 121.8,219.896 L121.489,223.501 L129.796,223.501 L133.502,197.52 C133.502,186.498 123.887,186.143 120.547,186.143 z M122.568,207.297 C122.748,208.884 121.573,216.323 115.893,216.323 C112.963,216.323 112.201,214.085 112.201,212.761 C112.201,210.179 113.604,207.079 120.517,207.079 C122.125,207.081 122.297,207.253 122.568,207.297 z" fill="#FFFFFF" id="path4149"/>
        <path d="M142.331,224.038 C144.456,224.038 156.604,224.578 156.604,212.043 C156.604,200.324 145.359,202.639 145.359,197.931 C145.359,195.587 147.192,194.849 150.542,194.849 C151.872,194.849 156.989,195.272 156.989,195.272 L158.179,186.942 C158.179,186.943 154.867,186.201 149.475,186.201 C142.496,186.201 135.412,188.987 135.412,198.519 C135.412,209.32 147.224,208.236 147.224,212.786 C147.224,215.823 143.924,216.07 141.381,216.07 C136.98,216.07 133.017,214.56 133.003,214.632 L131.745,222.878 C131.973,222.948 134.417,224.038 142.331,224.038 z" fill="#FFFFFF" id="path4145"/>
        <path d="M329.852,178.668 L327.817,191.295 C327.817,191.295 324.266,186.39 318.707,186.39 C310.063,186.39 302.858,196.812 302.858,208.787 C302.858,216.517 306.701,224.091 314.557,224.091 C320.208,224.091 323.341,220.151 323.341,220.151 L322.926,223.516 L332.102,223.516 L339.309,178.653 L329.852,178.668 z M325.471,203.288 C325.471,208.271 323.004,214.927 317.889,214.927 C314.494,214.927 312.903,212.077 312.903,207.604 C312.903,200.29 316.188,195.464 320.333,195.464 C323.729,195.463 325.471,197.796 325.471,203.288 z" fill="#FFFFFF" id="path4139"/>
        <path d="M69.466,223.555 L75.209,189.685 L76.052,223.555 L82.552,223.555 L94.677,189.685 L89.306,223.555 L98.964,223.555 L106.402,178.632 L91.467,178.632 L82.166,206.195 L81.682,178.632 L67.915,178.632 L60.37,223.555 L69.466,223.555 z" fill="#FFFFFF" id="path4133"/>
        <path d="M214.818,223.617 C217.564,208.001 218.073,195.321 224.626,197.642 C225.773,191.598 226.88,189.26 228.132,186.702 C228.132,186.702 227.545,186.579 226.313,186.579 C222.088,186.579 218.958,192.351 218.958,192.351 L219.799,187.05 L211.015,187.05 L205.13,223.617 L214.818,223.617 z" fill="#FFFFFF" id="path4131"/>
        <path d="M273.475,186.143 C267.006,186.143 262.047,188.222 262.047,188.222 L260.679,196.349 C260.679,196.349 264.772,194.686 270.959,194.686 C274.472,194.686 277.04,195.081 277.04,197.936 C277.04,199.67 276.727,200.31 276.727,200.31 C276.727,200.31 273.956,200.078 272.672,200.078 C264.514,200.078 255.943,203.56 255.943,214.058 C255.943,222.33 261.565,224.228 265.05,224.228 C271.706,224.228 274.575,219.909 274.727,219.896 L274.418,223.501 C274.418,223.501 282.722,223.501 282.725,223.501 L286.43,197.52 C286.431,186.498 276.815,186.143 273.475,186.143 z M275.499,207.297 C275.679,208.884 274.503,216.323 268.821,216.323 C265.891,216.323 265.131,214.085 265.131,212.761 C265.131,210.179 266.534,207.079 273.446,207.079 C275.054,207.081 275.225,207.253 275.499,207.297 z" fill="#FFFFFF" id="path4149_1_"/>
        <path d="M294.023,223.617 C296.77,208.001 297.279,195.321 303.83,197.642 C304.979,191.598 306.087,189.26 307.338,186.702 C307.338,186.702 306.751,186.579 305.519,186.579 C301.294,186.579 298.164,192.351 298.164,192.351 L299.005,187.05 L290.221,187.05 L284.336,223.617 L294.023,223.617 z" fill="#FFFFFF" id="path4131_1_"/>
        <path d="M339.105,217.975 C339.584,217.975 340.056,218.098 340.511,218.348 C340.97,218.59 341.327,218.946 341.583,219.407 C341.84,219.865 341.966,220.342 341.966,220.841 C341.966,221.334 341.84,221.81 341.587,222.265 C341.336,222.72 340.983,223.077 340.528,223.328 C340.074,223.578 339.598,223.704 339.104,223.704 C338.606,223.704 338.13,223.578 337.675,223.328 C337.221,223.075 336.869,222.72 336.617,222.265 C336.361,221.81 336.236,221.334 336.236,220.841 C336.236,220.342 336.363,219.865 336.62,219.407 C336.878,218.946 337.236,218.592 337.693,218.348 C338.154,218.098 338.626,217.975 339.105,217.975 M339.105,218.447 C338.704,218.447 338.312,218.551 337.929,218.76 C337.547,218.964 337.25,219.259 337.035,219.645 C336.821,220.026 336.713,220.425 336.713,220.839 C336.713,221.253 336.817,221.649 337.026,222.027 C337.239,222.404 337.535,222.7 337.917,222.913 C338.295,223.121 338.69,223.226 339.105,223.226 C339.517,223.226 339.915,223.121 340.293,222.913 C340.671,222.7 340.967,222.404 341.177,222.027 C341.388,221.646 341.491,221.253 341.491,220.839 C341.491,220.425 341.384,220.026 341.17,219.645 C340.957,219.259 340.66,218.964 340.276,218.76 C339.896,218.552 339.507,218.447 339.105,218.447 M337.85,222.423 L337.85,219.34 L338.911,219.34 C339.272,219.34 339.536,219.369 339.696,219.428 C339.858,219.483 339.985,219.582 340.084,219.725 C340.181,219.867 340.23,220.016 340.23,220.176 C340.23,220.401 340.148,220.598 339.986,220.764 C339.828,220.93 339.615,221.026 339.349,221.044 C339.455,221.09 339.543,221.145 339.611,221.207 C339.734,221.329 339.886,221.533 340.066,221.818 L340.443,222.422 L339.834,222.422 L339.563,221.937 C339.347,221.554 339.174,221.316 339.042,221.219 C338.951,221.148 338.818,221.113 338.643,221.113 L338.352,221.113 L338.352,222.424 L337.85,222.423 M338.348,220.688 L338.952,220.688 C339.241,220.688 339.436,220.645 339.54,220.559 C339.645,220.475 339.7,220.36 339.7,220.217 C339.7,220.126 339.675,220.044 339.625,219.975 C339.574,219.901 339.503,219.848 339.412,219.811 C339.321,219.776 339.158,219.758 338.914,219.758 L338.349,219.758 L338.349,220.688" fill="#FFFFFF" id="text9407"/>
      </g>
    </g>
  </g>
</svg>
