<?xml version="1.0" encoding="UTF-8"?>
<!DOCTYPE svg PUBLIC "-//W3C//DTD SVG 1.1//EN" "http://www.w3.org/Graphics/SVG/1.1/DTD/svg11.dtd">
<svg version="1.1" xmlns="http://www.w3.org/2000/svg" xmlns:xlink="http://www.w3.org/1999/xlink" x="0" y="0" width="400" height="400" viewBox="0, 0, 400, 400">
  <g id="Background">
    <rect x="0" y="0" width="400" height="400" fill="#000000" fill-opacity="0"/>
  </g>
  <g id="Background"/>
  <g id="Layer_1">
    <path d="M165.889,81.221 L219.953,81.221 C220.918,81.295 221.855,81.559 222.815,81.682 C223.846,81.742 224.88,81.692 225.914,81.677 C232.381,82.339 238.89,83.538 244.811,86.313 C248.572,88.063 252.073,90.488 254.755,93.674 C257.402,96.738 259.527,100.306 260.659,104.206 C262.371,109.788 262.142,115.756 261.301,121.468 C261.285,121.552 261.259,121.717 261.246,121.801 C259.818,121.413 258.537,120.649 257.148,120.155 C255.751,119.573 254.271,119.247 252.823,118.83 C249.795,117.979 246.655,117.654 243.546,117.258 C241.73,116.962 239.889,117.14 238.073,116.889 C234.631,116.74 231.184,116.814 227.74,116.805 C217.296,116.79 206.854,116.814 196.41,116.787 C193.442,116.807 190.447,118.959 190.059,122.008 C187.254,139.366 184.631,156.755 181.786,174.105 C181.846,174.172 181.969,174.308 182.031,174.375 C181.342,175.964 181.167,177.696 180.915,179.393 C178.594,194.076 176.274,208.759 173.965,223.442 C163.683,223.445 153.402,223.44 143.121,223.445 C140.609,223.487 138.591,220.869 139.089,218.443 C145.963,174.834 152.852,131.229 159.726,87.619 C159.928,86.22 160.459,84.838 161.414,83.777 C162.534,82.396 164.224,81.692 165.889,81.221" fill="#00409C"/>
    <path d="M96.385,271.18 C95.756,275.401 95.04,279.608 94.404,283.827 C97.152,283.817 99.921,283.882 102.642,283.45 C104.927,283.099 107.068,281.656 107.937,279.468 C108.675,277.504 109.05,275.3 108.551,273.235 C108.176,271.713 106.881,270.592 105.411,270.166 C102.99,269.473 100.449,269.662 97.962,269.643 C97.118,269.616 96.449,270.373 96.385,271.18 M84.692,260.866 C84.971,259.697 86.143,258.873 87.332,258.942 L102.66,258.942 C106.215,258.959 109.842,258.754 113.308,259.729 C116.721,260.543 120.044,262.505 121.719,265.687 C123.703,269.428 123.471,273.876 122.6,277.896 C121.746,282.125 119.931,286.305 116.726,289.282 C113.604,292.263 109.348,293.77 105.122,294.269 C102.255,294.634 99.363,294.471 96.481,294.506 C95.499,294.548 94.396,294.301 93.543,294.925 C92.773,295.392 92.381,296.263 92.284,297.131 C91.655,301.407 90.935,305.665 90.286,309.936 C90.123,311.242 88.919,312.32 87.589,312.268 C84.549,312.273 81.51,312.278 78.467,312.266 C77.675,312.332 77.14,311.664 76.745,311.076 L76.745,310.265 C77.586,306.534 77.986,302.719 78.638,298.954 C80.481,287.323 82.319,275.692 84.142,264.057 C84.337,262.996 84.448,261.917 84.692,260.866" fill="#00409C"/>
    <path d="M140.769,285.919 C137.949,286.558 135.47,288.51 134.147,291.076 C133.079,293.139 132.598,295.567 133.056,297.861 C133.451,300.025 135.033,301.922 137.096,302.697 C141.07,304.173 145.936,302.983 148.65,299.685 C150.614,297.291 151.549,293.992 150.841,290.948 C150.35,288.853 148.81,287.037 146.807,286.248 C144.897,285.505 142.753,285.441 140.769,285.919 M130.061,279.154 C133.932,276.551 138.731,275.431 143.363,275.892 C145.845,276.137 148.433,276.613 150.486,278.12 C151.371,278.74 152.005,279.628 152.59,280.521 C152.825,279.492 152.802,278.387 153.225,277.41 C153.511,277.007 153.942,276.657 154.465,276.709 C157.596,276.701 160.73,276.706 163.861,276.709 C164.818,276.635 165.595,277.676 165.393,278.584 C163.738,289.028 162.087,299.473 160.449,309.922 C160.306,311.266 159.025,312.34 157.678,312.268 C154.959,312.27 152.238,312.273 149.519,312.268 C148.677,312.298 147.804,311.557 147.897,310.679 C147.907,309.771 148.174,308.893 148.243,307.992 C144.85,311.395 140.01,313.223 135.223,313.114 C132.03,313.07 128.726,312.34 126.118,310.415 C122.78,307.94 120.851,303.892 120.439,299.815 C119.622,291.883 123.353,283.556 130.061,279.154" fill="#00409C"/>
    <path d="M169.985,278.86 C169.553,277.871 170.39,276.615 171.48,276.709 C174.53,276.702 177.579,276.709 180.629,276.704 C181.838,276.625 182.901,277.57 183.212,278.698 C184.974,284.649 186.77,290.59 188.547,296.539 C192.559,290.642 196.563,284.74 200.57,278.841 C201.051,278.165 201.443,277.353 202.223,276.968 C202.776,276.645 203.437,276.709 204.051,276.699 C207.009,276.724 209.968,276.685 212.926,276.716 C213.945,276.726 214.594,277.93 214.248,278.838 C213.967,279.465 213.521,279.996 213.138,280.563 C203.249,294.829 193.358,309.095 183.471,323.361 C183.116,323.884 182.637,324.348 182.003,324.499 L171.263,324.499 C170.195,324.205 169.995,322.732 170.676,321.967 C173.819,317.528 176.965,313.09 180.116,308.653 C176.77,298.713 173.338,288.799 169.985,278.86" fill="#00409C"/>
    <path d="M219.953,81.221 L222.263,81.221 C223.405,81.591 224.693,81.591 225.87,81.495 C225.88,81.539 225.904,81.631 225.914,81.677 C224.881,81.692 223.847,81.741 222.815,81.682 C221.856,81.559 220.918,81.295 219.953,81.221" fill="#00ACE7"/>
    <path d="M261.246,121.801 C261.259,121.717 261.286,121.552 261.301,121.468 C261.288,121.581 261.266,121.806 261.254,121.919 C264.111,123.459 266.778,125.435 268.819,127.979 C272.122,131.966 273.909,137.049 274.399,142.166 C274.979,148.204 274.246,154.3 272.835,160.177 C270.815,168.784 267.039,177.207 260.76,183.555 C255.14,189.373 247.644,193.144 239.818,194.969 C233.541,196.521 227.032,196.896 220.587,196.805 C219.055,196.748 217.439,196.82 216.094,197.634 C214.288,198.643 213.185,200.585 212.939,202.605 C211.224,213.286 209.561,223.975 207.868,234.656 C207.723,235.426 207.594,236.203 207.363,236.956 C206.605,239.398 204.165,241.202 201.604,241.209 C192.879,241.207 184.152,241.214 175.428,241.207 C173.343,241.224 171.576,239.184 171.831,237.128 C172.514,232.564 173.269,228.007 173.965,223.442 C176.274,208.759 178.593,194.076 180.915,179.393 C181.167,177.695 181.342,175.963 182.031,174.375 C183.087,171.84 185.773,170.074 188.522,170.143 C194.029,170.14 199.536,170.16 205.043,170.133 C214.794,169.921 224.705,168.349 233.543,164.046 C240.466,160.713 246.531,155.603 250.921,149.292 C256.627,141.184 259.697,131.515 261.246,121.801" fill="#00ACE7"/>
    <path d="M233.223,271.182 C232.613,275.401 231.833,279.596 231.266,283.822 C233.716,283.852 236.169,283.81 238.611,283.59 C240.657,283.363 242.776,282.544 244.002,280.81 C245.372,278.826 245.774,276.28 245.535,273.919 C245.342,272.157 244.007,270.696 242.332,270.195 C239.926,269.472 237.38,269.67 234.9,269.64 C234.032,269.566 233.265,270.334 233.223,271.182 M223.39,259.006 C229.936,258.855 236.499,258.986 243.052,258.939 C247.363,258.907 251.937,259.576 255.507,262.171 C257.884,263.889 259.371,266.622 259.835,269.49 C260.44,272.946 259.823,276.472 258.976,279.835 C257.881,283.827 255.774,287.671 252.455,290.237 C249.628,292.497 246.09,293.684 242.542,294.202 C238.868,294.725 235.152,294.412 231.458,294.52 C230.272,294.654 229.304,295.697 229.164,296.869 C228.495,301.402 227.72,305.915 227.047,310.445 C226.978,311.367 226.23,312.251 225.265,312.261 C221.981,312.288 218.695,312.263 215.409,312.273 C214.313,312.401 213.378,311.234 213.693,310.193 C216.279,293.901 218.831,277.6 221.414,261.306 C221.535,260.232 222.339,259.27 223.39,259.006" fill="#00ACE7"/>
    <path d="M312.48,259.003 C315.478,258.856 318.491,258.989 321.496,258.937 C322.118,258.898 322.942,258.989 323.203,259.653 C323.462,262.645 322.685,265.569 322.278,268.513 C320.156,282.076 317.99,295.633 315.863,309.196 C315.745,309.855 315.69,310.568 315.285,311.131 C314.762,311.917 313.783,312.325 312.858,312.275 C310.314,312.268 307.77,312.275 305.229,312.271 C304.239,312.377 303.373,311.392 303.534,310.43 C306.147,293.734 308.794,277.037 311.402,260.338 C311.481,259.736 311.918,259.218 312.48,259.003" fill="#00ACE7"/>
    <path d="M277.454,285.957 C273.595,286.867 270.578,290.267 269.916,294.143 C269.596,296.173 269.64,298.426 270.832,300.188 C271.816,301.765 273.536,302.747 275.332,303.105 C278.28,303.699 281.503,303.038 283.899,301.192 C286.623,299.112 288.165,295.584 287.864,292.172 C287.733,289.828 286.324,287.583 284.222,286.514 C282.137,285.49 279.682,285.399 277.454,285.957 M273.795,276.252 C277.311,275.495 281.022,275.69 284.469,276.699 C286.531,277.296 288.34,278.644 289.44,280.499 C289.561,279.655 289.66,278.809 289.835,277.977 C289.956,277.257 290.637,276.613 291.397,276.707 C294.528,276.709 297.659,276.699 300.79,276.712 C301.73,276.675 302.421,277.745 302.218,278.616 C300.578,289.066 298.912,299.51 297.274,309.959 C297.114,311.244 295.91,312.312 294.604,312.27 C291.811,312.268 289.018,312.283 286.225,312.261 C285.303,312.27 284.553,311.32 284.718,310.425 C284.829,309.616 284.977,308.812 285.105,308.009 C281.802,311.219 277.257,313.107 272.645,313.117 C269.221,313.164 265.645,312.441 262.86,310.351 C259.588,307.871 257.688,303.884 257.271,299.85 C256.571,293.035 259.181,285.924 264.214,281.256 C266.892,278.789 270.21,276.973 273.795,276.252" fill="#00ACE7"/>
    <path d="M190.059,122.008 C190.447,118.959 193.442,116.807 196.41,116.787 C206.854,116.814 217.296,116.79 227.74,116.805 C231.184,116.814 234.631,116.74 238.073,116.889 C239.889,117.14 241.73,116.962 243.546,117.258 C246.654,117.653 249.796,117.979 252.823,118.83 C254.271,119.247 255.751,119.573 257.148,120.155 C258.537,120.649 259.818,121.413 261.246,121.801 C259.697,131.515 256.627,141.184 250.921,149.292 C246.531,155.603 240.466,160.713 233.543,164.046 C224.705,168.349 214.794,169.921 205.043,170.133 C199.536,170.16 194.029,170.14 188.522,170.143 C185.773,170.074 183.087,171.84 182.031,174.375 C181.969,174.308 181.845,174.172 181.786,174.105 C184.631,156.755 187.254,139.366 190.059,122.008" fill="#002F7F"/>
  </g>
</svg>
