<?xml version="1.0" encoding="UTF-8"?>
<!DOCTYPE svg PUBLIC "-//W3C//DTD SVG 1.1//EN" "http://www.w3.org/Graphics/SVG/1.1/DTD/svg11.dtd">
<svg version="1.1" xmlns="http://www.w3.org/2000/svg" xmlns:xlink="http://www.w3.org/1999/xlink" x="0" y="0" width="400" height="400" viewBox="0, 0, 400, 400">
  <g id="Background">
    <rect x="0" y="0" width="400" height="400" fill="#000000" fill-opacity="0"/>
  </g>
  <g id="Layer_1">
    <g>
      <path d="M155.687,244.668 L170.873,155.558 L195.162,155.558 L179.965,244.668 z" fill="#00249F"/>
      <path d="M268.058,157.752 C263.246,155.947 255.706,154.009 246.289,154.009 C222.289,154.009 205.384,166.096 205.239,183.417 C205.104,196.221 217.308,203.364 226.522,207.627 C235.976,211.994 239.154,214.78 239.109,218.68 C239.049,224.653 231.559,227.382 224.578,227.382 C214.856,227.382 209.692,226.032 201.715,222.705 L198.585,221.288 L195.176,241.237 C200.848,243.724 211.339,245.879 222.232,245.991 C247.763,245.991 264.338,234.043 264.526,215.546 C264.618,205.409 258.146,197.695 244.134,191.335 C235.644,187.213 230.445,184.462 230.5,180.288 C230.5,176.584 234.901,172.623 244.41,172.623 C252.352,172.5 258.105,174.232 262.589,176.037 L264.765,177.066 L268.058,157.752" fill="#00249F"/>
      <path d="M330.341,155.643 L311.573,155.643 C305.759,155.643 301.408,157.23 298.855,163.033 L262.782,244.697 L288.287,244.697 C288.287,244.697 292.457,233.716 293.401,231.306 C296.188,231.306 320.965,231.344 324.507,231.344 C325.234,234.463 327.462,244.697 327.462,244.697 L350,244.697 L330.341,155.643 M300.391,213.079 C302.399,207.945 310.068,188.169 310.068,188.169 C309.924,188.406 312.061,183.01 313.288,179.664 L314.93,187.347 C314.93,187.347 319.58,208.618 320.553,213.078 L300.391,213.079 L300.391,213.079 z" fill="#00249F"/>
      <path d="M135.316,155.623 L111.536,216.39 L109.002,204.041 C104.576,189.805 90.783,174.382 75.364,166.66 L97.107,244.591 L122.805,244.562 L161.044,155.623 L135.316,155.623" fill="#00249F"/>
      <path d="M89.476,155.568 L50.31,155.568 L50,157.422 C80.471,164.798 100.633,182.623 109.002,204.041 L100.486,163.091 C99.015,157.448 94.751,155.765 89.476,155.568" fill="#FFA000"/>
    </g>
  </g>
</svg>
