<?xml version="1.0" encoding="utf-8"?>
<!-- Generator: Adobe Illustrator 16.0.3, SVG Export Plug-In . SVG Version: 6.00 Build 0)  -->
<!DOCTYPE svg PUBLIC "-//W3C//DTD SVG 1.1//EN" "http://www.w3.org/Graphics/SVG/1.1/DTD/svg11.dtd">
<svg version="1.1" id="Vrstva_1" xmlns="http://www.w3.org/2000/svg" xmlns:xlink="http://www.w3.org/1999/xlink" x="0px" y="0px"
	 width="500px" height="500px" viewBox="170.945 47.64 500 500" enable-background="new 170.945 47.64 500 500"
	 xml:space="preserve">
<path fill="#A36DF8" d="M573.253,76.255c40.147,0,72.692,31.893,72.692,71.23v300.313c0,39.339-32.545,71.229-72.692,71.229H268.638
	c-40.147,0-72.693-31.89-72.693-71.229V147.485c0-39.338,32.546-71.229,72.693-71.229h304.614L573.253,76.255z M420.556,160.689
	H311.061v274.275H432.11c37.635,0,65.672-6.491,84.109-19.474c18.438-12.981,27.657-32.7,27.657-59.154
	c0-17.268-4.295-31.842-12.881-43.722c-8.588-11.88-20.712-20.024-36.371-24.434c12.249-4.531,21.595-11.45,28.035-20.759
	c6.441-9.432,9.662-20.819,9.662-34.17c0-25.352-8.842-43.783-26.521-55.296c-17.555-11.512-45.969-17.268-85.247-17.268H420.556z
	 M426.806,315.003c14.777,0,25.826,3,33.152,9.002c7.324,5.878,10.987,14.758,10.987,26.636c0,12.126-3.728,21.189-11.179,27.189
	c-7.324,6.001-18.312,9.002-32.962,9.001h-42.812v-71.828H426.806L426.806,315.003z M424.344,208.82
	c11.493,0,20.206,2.511,26.142,7.531c5.938,4.899,8.904,12.064,8.904,21.494c0,9.554-2.967,16.779-8.904,21.678
	c-5.936,4.899-14.648,7.351-26.142,7.351h-40.351v-58.053L424.344,208.82L424.344,208.82z"/>
</svg>
