<?xml version="1.0" encoding="UTF-8"?>
<!DOCTYPE svg PUBLIC "-//W3C//DTD SVG 1.1//EN" "http://www.w3.org/Graphics/SVG/1.1/DTD/svg11.dtd">
<svg version="1.1" xmlns="http://www.w3.org/2000/svg" xmlns:xlink="http://www.w3.org/1999/xlink" x="0" y="0" width="500" height="500" viewBox="0, 0, 500, 500">
  <g id="Javascript_Nástroje">
    <path d="M247.5,28 C232.355,28 220.063,40.292 220.063,55.438 L220.063,110.312 C220.063,125.458 232.355,137.75 247.5,137.75 C262.646,137.75 274.938,125.458 274.938,110.312 L274.938,55.438 C274.938,40.292 262.646,28 247.5,28 z M247.5,357.25 C232.355,357.25 220.063,369.515 220.063,384.688 L220.063,439.562 C220.063,454.735 232.355,467 247.5,467 C262.646,467 274.938,454.735 274.938,439.562 L274.938,384.688 C274.938,369.515 262.646,357.25 247.5,357.25 z M363.89,169.907 L402.687,131.083 C413.415,120.382 413.415,102.987 402.687,92.286 C391.986,81.558 374.618,81.558 363.89,92.286 L325.093,131.083 C314.365,141.811 314.365,159.179 325.093,169.907 C335.821,180.607 353.189,180.607 363.89,169.907 z M131.083,325.093 L92.286,363.89 C81.558,374.618 81.558,391.986 92.286,402.686 C102.987,413.415 120.355,413.415 131.083,402.686 L169.879,363.89 C180.607,353.162 180.607,335.821 169.879,325.093 C159.179,314.393 141.811,314.393 131.083,325.093 z M363.89,325.093 C353.162,314.365 335.821,314.365 325.093,325.093 C314.365,335.821 314.365,353.162 325.093,363.89 L363.89,402.686 C374.618,413.415 391.986,413.415 402.687,402.686 C413.415,391.986 413.415,374.618 402.687,363.89 L363.89,325.093 z M439.562,220.062 L384.688,220.062 C369.515,220.062 357.25,232.355 357.25,247.5 C357.25,262.646 369.515,274.938 384.688,274.938 L439.562,274.938 C454.735,274.938 467,262.646 467,247.5 C467,232.355 454.735,220.062 439.562,220.062 z" fill="#F87049"/>
    <path d="M133.083,94.286 C122.355,83.558 104.987,83.558 94.286,94.286 C83.558,104.987 83.558,122.382 94.286,133.083 L133.083,171.907 C143.811,182.607 161.179,182.607 171.879,171.907 C182.607,161.179 182.607,143.811 171.879,133.083 L133.083,94.286 z M139.75,249.5 C139.75,234.355 127.458,222.062 112.312,222.062 L57.437,222.062 C42.292,222.062 30,234.355 30,249.5 C30,264.646 42.292,276.938 57.437,276.938 L112.312,276.938 C127.458,276.938 139.75,264.646 139.75,249.5 z" fill="#FFAF98"/>
  </g>
</svg>
