<?xml version="1.0" encoding="UTF-8"?>
<!DOCTYPE svg PUBLIC "-//W3C//DTD SVG 1.1//EN" "http://www.w3.org/Graphics/SVG/1.1/DTD/svg11.dtd">
<svg version="1.1" xmlns="http://www.w3.org/2000/svg" xmlns:xlink="http://www.w3.org/1999/xlink" x="0" y="0" width="500" height="500" viewBox="0, 0, 500, 500">
  <g id="Google_Sans_font">
    <path d="M83.652,121.8 L110.652,121.8 L110.652,239.4 L171.252,239.4 L171.252,265 L83.652,265 z" fill="#FFFFFF"/>
    <path d="M258.652,268.2 Q237.852,268.2 220.652,258.3 Q203.452,248.4 193.552,231.3 Q183.652,214.2 183.652,193.4 Q183.652,172.6 193.552,155.5 Q203.452,138.4 220.652,128.5 Q237.852,118.6 258.652,118.6 Q291.052,118.6 312.252,142 L293.252,160.4 Q279.452,144.2 258.852,144.2 Q245.452,144.2 234.452,150.3 Q223.452,156.4 217.152,167.6 Q210.852,178.8 210.852,193.4 Q210.852,208 217.152,219.2 Q223.452,230.4 234.452,236.5 Q245.452,242.6 258.852,242.6 Q281.452,242.6 296.652,223.8 L315.852,242 Q305.252,254.8 290.752,261.5 Q276.252,268.2 258.652,268.2 z" fill="#FFFFFF"/>
    <path d="M340.852,121.8 L391.252,121.8 Q404.852,121.8 416.052,127.5 Q427.252,133.2 433.652,143.5 Q440.052,153.8 440.052,167 Q440.052,180.2 433.652,190.6 Q427.252,201 416.052,206.7 Q404.852,212.4 391.252,212.4 L367.852,212.4 L367.852,265 L340.852,265 z M392.052,186.8 Q402.052,186.8 407.752,181 Q413.452,175.2 413.452,167 Q413.452,158.8 407.752,153.1 Q402.052,147.4 392.052,147.4 L367.852,147.4 L367.852,186.8 z" fill="#FFFFFF"/>
  </g>
  <g id="Layer_3">
    <path d="M172.444,323 L322.889,323 L322.889,402 L172.444,402 L172.444,323 z" fill="#F8A849"/>
    <path d="M22,323 L172.444,323 L172.444,402 L22,402 L22,323 z" fill="#33AF6D"/>
    <path d="M322.889,323 L473.333,323 L473.333,402 L322.889,402 L322.889,323 z" fill="#F87049"/>
  </g>
</svg>
