<?xml version="1.0" encoding="UTF-8"?>
<!DOCTYPE svg PUBLIC "-//W3C//DTD SVG 1.1//EN" "http://www.w3.org/Graphics/SVG/1.1/DTD/svg11.dtd">
<svg version="1.1" xmlns="http://www.w3.org/2000/svg" xmlns:xlink="http://www.w3.org/1999/xlink" x="0" y="0" width="500" height="500" viewBox="0, 0, 500, 500">
  <g id="GSAP">
    <g>
      <path d="M99.252,216.405 C86.203,222.543 51.665,250.175 45.013,258.362 C38.104,266.549 36.058,253.758 43.221,232.522 C48.849,215.381 63.178,192.098 87.227,172.143 C101.297,160.63 132.256,144.001 151.187,134.278 C155.026,132.23 204.659,111.251 248.921,100.762 C252.759,99.738 244.316,107.158 243.036,111.251 C236.384,130.695 103.6,214.101 103.6,214.101 L99.252,216.405 z" fill="#000000"/>
      <path d="M286.274,451.014 C288.576,464.829 286.53,465.853 272.203,467.644 C257.875,469.435 247.386,464.062 243.549,460.481 C239.71,456.897 238.944,448.968 242.781,441.804 C245.085,437.198 247.387,435.663 248.667,430.035 C249.946,424.663 250.97,423.383 251.992,421.337 C253.014,419.544 253.272,417.753 253.527,405.217 C253.783,392.682 253.527,369.143 254.807,359.166 C256.087,348.933 300.348,363.771 300.348,363.771 C300.348,363.771 289.858,389.867 287.044,396.263 C284.229,402.66 284.485,414.939 284.485,417.498 C284.485,420.057 283.463,425.173 282.694,425.429 C281.927,425.684 285.253,432.336 283.717,436.175 C282.693,439.757 286.019,448.968 286.274,451.014 z" fill="#000000"/>
      <path d="M303.161,59.826 C301.624,50.104 303.161,30.914 305.207,27.845 C311.604,19.146 345.375,18.123 352.539,28.357 C355.609,32.961 355.353,43.707 354.842,50.616 C354.33,57.523 352.539,72.362 352.283,77.224 C352.028,80.807 314.93,86.434 306.743,76.712 C304.439,74.154 303.161,59.826 303.161,59.826 z" fill="#000000"/>
      <path d="M378.379,426.196 C393.986,437.454 406.01,439.501 413.941,443.594 C421.872,447.689 419.826,455.62 406.522,457.922 C395.776,459.968 378.891,455.875 367.634,455.875 C356.377,455.875 331.303,457.155 324.651,452.55 C316.976,447.178 320.301,437.198 320.301,437.198 C322.348,431.571 327.464,419.033 325.929,408.8 C324.395,398.566 322.347,392.938 318.51,383.471 C314.673,374.005 311.859,350.724 315.441,349.444 C319.024,348.164 317.999,349.444 322.605,350.466 C327.209,351.489 332.327,353.025 342.305,353.025 C352.283,353.025 363.284,351.489 367.122,350.723 C370.96,349.955 374.029,349.186 372.75,357.119 C371.471,365.049 367.634,379.889 367.377,391.402 C367.122,402.915 367.122,416.219 367.89,418.522 C368.656,420.824 374.286,423.383 378.379,426.196 z" fill="#000000"/>
      <g>
        <g>
          <path d="M323.628,85.411 C295.486,109.718 240.99,116.368 160.144,147.582 C139.42,155.513 84.158,179.306 70.854,204.124 C115.626,178.284 132.257,213.846 135.838,250.432 C139.163,284.715 156.306,302.625 200.311,301.6 C245.596,300.578 259.412,326.929 271.947,357.887 C296.252,239.43 335.141,216.405 360.213,196.193 C413.43,152.954 347.933,76.712 323.628,85.411 z" fill="#88CE02"/>
          <path d="M323.628,85.411 C256.086,108.949 189.309,114.834 110.765,163.189 C92.089,174.702 52.688,200.797 45.013,250.688 C73.666,218.962 139.93,179.051 221.034,153.723 C261.969,140.93 291.904,132.488 328.233,118.416 C325.676,102.04 325.676,95.645 323.628,85.411 z" fill="#88CE02"/>
        </g>
        <path d="M409.848,225.614 C409.848,225.614 404.987,242.244 395.265,247.618 C395.265,247.618 388.101,250.177 373.775,242.246 C369.681,239.943 366.611,232.013 366.866,229.453 C367.122,223.312 370.96,220.498 370.96,220.498 C370.96,220.498 375.054,213.59 379.914,213.846 C384.776,214.101 392.964,214.868 395.522,212.566 C397.823,210.007 410.36,217.171 409.848,225.614 z" fill="#000000"/>
        <path d="M305.463,64.687 C305.463,64.687 304.441,77.737 302.649,85.923 C302.393,87.459 294.719,88.225 289.089,90.529 C299.835,121.229 364.564,120.973 373.007,105.879 C368.914,103.065 360.726,98.716 356.889,97.181 C353.051,95.645 353.307,95.901 353.051,88.737 C352.796,81.573 352.283,68.27 351.771,64.687 C351.259,61.105 311.603,61.105 305.463,64.687 z" fill="#000000"/>
        <path d="M308.022,64.687 C308.022,64.687 308.022,72.107 307.254,79.27 C306.999,82.596 306.743,84.643 306.232,87.201 C305.975,88.737 314.93,94.876 317.489,108.436 C329.769,135.811 358.169,122.252 369.937,109.204 C365.844,106.389 359.191,102.552 351.517,99.482 C347.678,97.946 349.469,94.621 349.215,87.457 C348.958,80.294 347.935,69.803 347.423,65.966 C346.91,62.129 314.163,61.105 308.022,64.687 z" fill="#EFEFEF"/>
        <path d="M305.463,64.687 C305.463,64.687 305.207,69.293 304.441,74.666 C307.765,77.99 312.115,82.596 315.442,85.411 C317.745,87.459 323.372,87.202 328.491,87.202 C333.095,87.202 337.189,87.714 338.98,86.691 C343.075,84.644 348.958,79.528 352.284,75.689 C352.029,71.085 351.773,66.735 351.518,64.687 C351.259,61.105 311.603,61.105 305.463,64.687 z" fill="#000000"/>
        <path d="M328.746,84.131 C325.674,84.131 322.092,83.876 319.279,83.364 C317.999,83.109 316.72,82.341 315.696,81.829 C313.905,80.549 312.114,79.015 310.069,77.479 C305.974,74.409 305.719,72.618 305.719,71.852 C307.51,55.733 305.207,42.173 305.207,42.173 C305.207,42.173 303.416,35.265 313.138,33.474 C322.86,31.683 328.744,31.428 328.744,31.428 C328.744,31.428 334.885,31.428 344.351,33.474 C354.073,35.265 352.282,42.173 352.282,42.173 C352.282,42.173 349.979,55.733 351.771,71.852 C351.771,72.618 351.516,74.409 347.421,77.479 C343.839,80.038 341.025,82.851 338.211,83.364 C335.396,83.876 331.814,84.131 328.746,84.131 z" fill="#000000"/>
        <path d="M328.746,24.776 C311.86,24.776 308.533,29.38 303.672,34.498 C302.649,35.776 303.416,43.452 305.208,59.826 L307.51,59.826 C307.51,59.826 305.974,55.22 306.23,49.848 C306.487,44.476 307.51,44.732 306.742,43.452 C305.719,41.916 303.672,39.357 308.278,36.8 C312.883,34.241 320.046,38.846 328.746,39.102 C337.444,38.846 344.863,34.241 349.468,36.8 C354.073,39.357 352.027,41.916 351.004,43.452 C349.981,44.987 351.259,44.475 351.516,49.848 C351.771,55.22 350.236,59.826 350.236,59.826 L352.538,59.826 C354.073,43.452 355.097,36.289 354.329,35.009 C349.979,29.38 345.631,25.031 328.746,24.776 z" fill="#000000"/>
        <path d="M409.848,226.382 C409.848,226.382 404.987,241.988 395.521,247.36 C393.473,246.338 393.73,244.803 391.939,242.499 C391.426,241.733 389.635,241.22 388.869,240.453 C388.101,239.686 388.357,238.406 387.078,237.383 C386.054,236.36 385.286,237.127 384.263,236.36 C383.24,235.337 382.983,234.057 382.217,233.291 C381.704,232.779 379.658,232.524 379.147,232.011 C377.867,230.731 366.611,228.429 367.122,225.87 C368.145,222.032 370.192,219.218 370.192,219.218 C370.192,219.218 375.053,212.055 379.913,212.31 C384.774,212.566 389.38,213.59 391.939,211.287 C394.753,208.727 410.616,218.194 409.848,226.382 z" fill="#000000"/>
        <path d="M376.588,113.299 C376.588,113.299 392.706,109.46 403.708,119.951 C414.71,130.696 413.941,144 410.616,152.187 C413.43,155.513 418.547,164.722 414.71,175.724 C431.595,190.051 424.176,212.055 409.081,226.638 C409.081,226.638 405.499,213.333 391.172,212.566 C391.684,207.45 377.868,203.355 384.264,190.051 C374.542,187.749 374.798,181.096 373.263,172.911 C371.983,164.722 376.588,113.299 376.588,113.299 z" fill="#000000"/>
        <path d="M370.703,120.462 C370.703,120.462 389.38,110.996 400.382,121.742 C411.383,132.488 408.311,144.256 404.987,152.443 C407.8,155.768 414.452,165.236 410.359,176.492 C409.591,179.05 403.963,179.05 399.868,185.702 C410.101,179.816 416.499,181.353 418.801,188.771 C422.383,200.284 414.451,214.1 407.544,221.776 C407.544,221.519 407.288,221.263 407.288,221.008 C406.265,224.847 404.985,232.265 397.311,240.452 C393.472,244.546 390.402,244.034 386.053,243.011 C380.937,241.731 379.145,239.427 371.982,235.591 C367.889,233.289 370.191,230.474 370.191,228.171 C370.191,227.66 370.702,226.892 371.471,225.869 C371.982,224.589 373.517,222.544 375.819,220.241 C375.819,220.241 379.145,215.636 384.008,215.891 C388.869,216.147 393.985,215.125 395.265,213.845 L395.265,213.845 C395.265,204.89 385.031,204.634 388.612,189.283 C388.869,188.516 390.149,187.236 394.241,186.725 C388.1,185.445 385.286,185.189 380.937,181.096 C377.867,178.283 375.564,174.7 374.796,170.096 C373.262,162.165 370.703,120.462 370.703,120.462 z" fill="#EFEFEF"/>
        <path d="M316.72,104.344 C315.185,102.297 307.254,92.063 292.159,87.97 C287.809,86.69 284.995,90.272 280.647,92.831 C279.367,92.063 273.738,89.505 270.669,91.295 C267.599,93.085 265.553,94.877 262.481,96.156 C260.945,95.388 256.853,95.388 253.527,96.667 C250.201,97.691 245.084,99.993 240.223,106.645 C237.153,117.647 294.461,109.459 294.461,109.459 L316.72,104.344 z" fill="#000000"/>
        <path d="M317.232,104.344 C309.044,101.529 310.324,92.063 292.159,90.528 C288.576,90.272 286.274,93.086 283.715,94.877 C284.995,96.157 286.274,98.203 287.041,100.249 C284.739,97.692 280.646,94.365 276.551,93.597 C272.713,92.831 270.155,95.644 266.061,97.692 C266.827,98.458 267.596,99.738 268.619,101.274 C265.036,98.972 262.479,98.204 257.618,99.994 C254.292,101.017 247.896,103.832 243.035,110.74 C239.965,121.742 294.716,109.46 294.716,109.46 L317.232,104.344 z" fill="#88CE02"/>
        <path d="M365.331,108.438 C365.331,108.438 365.331,105.623 365.075,103.065 C365.075,102.554 363.029,101.274 363.029,100.763 L362.518,100.251 C362.518,100.251 366.611,97.948 369.681,99.228 C373.006,100.251 374.797,104.6 374.797,104.6 C380.682,102.554 381.193,104.857 384.008,107.926 C390.149,106.646 390.915,108.949 394.753,114.579 C394.753,114.579 390.149,113.811 381.194,115.345 C372.495,116.623 365.331,108.181 365.331,108.438 z" fill="#000000"/>
        <path d="M364.307,107.158 C364.307,107.158 365.842,105.878 365.33,105.621 C368.144,104.087 371.982,102.297 373.773,107.158 C379.658,105.11 380.425,107.925 383.239,110.996 C390.402,107.67 390.914,111.762 391.426,113.554 C389.124,113.554 385.799,113.81 381.193,114.321 C372.495,115.601 364.051,106.901 364.307,107.158 z" fill="#88CE02"/>
        <path d="M277.321,100.762 C277.321,100.762 291.904,105.878 304.184,105.11 C316.465,104.088 337.444,103.064 348.701,109.716 C348.701,109.716 360.214,105.621 370.96,108.436 C381.707,111.25 401.406,129.671 395.522,149.115 C395.01,150.395 391.684,152.442 387.846,153.722 C387.846,153.722 389.894,162.42 386.311,169.583 C382.729,176.492 374.798,189.796 374.542,208.216 L374.542,208.216 C374.287,211.286 373.776,217.682 373.263,220.752 C353.307,219.986 322.606,212.565 292.416,213.077 C292.671,209.752 292.927,207.705 293.184,204.379 L293.95,204.379 C292.415,195.936 291.904,191.586 290.368,185.19 C280.646,179.05 270.411,171.887 261.714,158.326 C253.271,144.766 277.321,100.762 277.321,100.762 z" fill="#000000"/>
        <path d="M376.077,238.918 C376.077,238.918 391.94,295.717 373.263,319.511 C373.263,319.511 376.077,330.511 369.681,342.281 C368.657,347.397 367.377,352.003 366.611,357.119 C363.285,378.354 357.655,387.308 356.12,421.335 L340.769,421.08 C340.769,421.08 338.978,396.519 333.605,383.471 C330.537,376.053 318.51,366.073 319.024,356.096 C319.535,348.42 321.07,342.024 334.119,331.79 C335.141,316.952 320.302,302.879 322.606,247.617 L376.077,238.918 z" fill="#000000"/>
        <path d="M371.472,236.615 C375.566,262.711 385.031,301.344 367.89,320.275 C368.656,323.858 369.168,328.975 368.145,334.858 C367.634,337.928 366.61,341.254 365.331,344.835 C362.773,350.976 361.749,359.931 360.981,365.303 C357.655,386.538 357.655,387.563 356.12,421.59 L340.769,421.334 C340.769,421.334 338.978,396.773 333.605,383.726 C330.537,376.306 324.14,369.91 323.628,359.932 C323.117,352.258 328.489,336.907 341.282,337.418 C340.515,306.461 326.187,312.601 322.35,248.128 L371.472,236.615 z" fill="#EFEFEF"/>
        <path d="M277.321,100.762 C277.321,100.762 282.949,102.553 289.089,103.064 C295.23,103.575 301.882,103.064 307.765,102.808 C320.046,101.785 337.444,100.505 348.957,107.158 C348.957,107.158 355.353,105.11 362.261,105.621 C365.331,105.878 368.402,108.436 371.983,109.46 C383.24,112.274 393.986,130.95 389.124,147.837 C388.612,149.117 385.03,147.837 380.937,149.117 C381.703,152.699 382.217,160.886 378.122,169.584 C373.773,178.284 368.145,189.541 369.167,211.032 C342.304,209.752 330.279,207.962 303.671,206.683 C301.368,197.216 299.832,187.75 299.577,182.889 C303.159,181.098 305.204,179.564 308.02,176.493 C300.346,177.773 297.275,177.26 292.669,174.702 C288.064,172.143 279.877,163.956 275.783,158.584 C275.272,158.071 272.458,166.513 266.063,166.771 C263.759,163.445 273.481,153.978 271.69,150.397 C265.295,137.347 277.321,100.762 277.321,100.762 z" fill="#EFEFEF"/>
        <path d="M373.517,215.38 C373.517,215.38 374.028,224.59 374.028,226.893 C374.028,229.451 376.076,237.126 376.331,240.708 C373.517,245.569 361.236,256.571 338.978,260.665 C316.975,265.27 287.809,230.731 287.809,230.731 C288.576,227.405 291.135,217.682 292.926,212.566 C293.182,212.055 293.694,210.775 293.694,210.264 C295.997,206.938 373.517,215.38 373.517,215.38 z" fill="#000000"/>
        <path d="M367.89,216.148 C367.89,222.544 368.912,227.15 369.681,231.244 C370.96,238.663 373.006,243.524 373.006,248.385 C373.006,263.223 353.562,260.665 337.186,261.177 C315.184,265.783 296.507,231.244 296.507,231.244 C298.042,225.359 299.066,218.708 301.368,213.078 L301.368,213.078 C301.623,210.009 302.136,206.171 302.391,204.38 C333.604,204.38 355.607,206.171 368.4,207.449 C368.912,210.264 368.401,215.125 367.89,216.148 L367.89,216.148 z" fill="#EFEFEF"/>
        <path d="M343.327,249.152 C343.327,249.152 329.768,218.962 289.088,227.918 C279.367,255.293 266.318,286.762 274.761,320.789 C266.318,332.302 256.596,338.7 256.596,359.933 C256.596,381.169 257.619,384.751 257.619,384.751 L287.553,386.287 C287.553,386.287 297.275,373.752 301.112,360.191 C302.136,356.352 303.159,349.445 302.392,341.514 C303.414,339.98 307.764,336.398 308.277,329.49 C308.277,329.49 322.86,321.815 331.303,303.139 C339.235,286.25 337.188,271.667 343.327,249.152 z" fill="#000000"/>
        <path d="M343.327,249.152 C342.561,246.338 332.327,218.707 294.461,226.893 C272.203,286.25 280.391,310.811 283.715,321.555 C268.62,340.743 261.713,344.837 264.784,383.726 L284.74,383.726 C293.95,369.143 295.997,363.769 296.508,344.582 C296.508,343.814 293.695,346.117 291.647,348.675 C293.184,340.744 297.532,339.21 300.858,334.349 C302.393,332.301 303.672,329.231 303.672,325.138 C321.581,313.113 328.233,298.018 332.07,282.411 C335.141,271.667 338.723,254.013 343.327,249.152 z" fill="#EFEFEF"/>
        <path d="M280.134,207.961 C280.134,207.961 287.043,208.216 293.184,210.264 C299.068,212.31 299.068,213.588 301.371,216.148 C303.673,218.708 309.302,222.544 308.279,226.382 C307.767,228.429 306.488,228.94 304.697,230.731 C303.929,231.499 298.3,237.638 297.021,238.406 C296.253,238.917 295.23,239.686 294.462,240.197 C293.696,240.708 291.394,242.245 290.625,242.756 C288.066,244.036 286.275,244.803 283.462,244.547 C283.462,244.547 277.066,244.291 272.971,239.942 C272.971,239.942 272.46,237.895 273.483,236.872 C273.483,236.872 268.11,232.266 266.575,229.196 C265.039,226.128 265.039,221.778 266.064,219.476 C266.575,217.171 276.552,210.775 280.134,207.961 z" fill="#000000"/>
        <path d="M286.531,456.898 L285.764,463.296 C285.764,463.296 283.462,466.109 266.32,465.854 C248.922,465.598 244.317,460.226 242.782,457.411 L241.76,450.759 C241.76,450.759 245.086,445.898 245.854,445.898 C251.482,446.409 270.671,454.085 283.975,456.131 C285.252,456.131 285.507,456.642 286.531,456.898 z" fill="#000000"/>
        <path d="M323.628,443.85 C323.628,446.664 323.372,446.664 323.372,449.479 C326.442,451.781 334.119,453.061 348.701,452.804 C369.936,452.292 389.636,459.201 413.685,455.106 L413.941,450.501 L411.639,450.246 L326.442,443.338 L323.628,443.85 z" fill="#000000"/>
        <path d="M342.305,452.805 C344.352,452.805 346.398,452.805 348.701,452.805 C362.518,452.294 375.566,455.364 389.636,456.131 C397.056,455.875 406.267,454.084 405.499,448.711 L332.839,442.57 C328.489,447.431 331.814,451.525 342.305,452.805 z" fill="#000000"/>
        <path d="M258.899,345.094 C261.202,346.629 276.808,355.84 302.137,354.56 C301.624,359.421 301.881,368.888 290.624,385.517 C284.995,393.704 280.133,408.032 279.111,426.198 C279.367,430.291 281.669,433.872 278.599,439.246 C279.622,442.57 283.715,449.223 285.763,453.316 C287.809,457.411 288.833,462.016 275.272,462.272 C261.457,462.527 239.198,460.992 242.269,450.248 C243.805,444.619 248.153,438.734 248.666,436.431 C249.177,434.128 249.177,427.221 253.526,422.615 C257.364,409.823 256.084,397.543 255.318,386.03 C254.038,374.004 253.782,354.816 258.899,345.094 z" fill="#000000"/>
        <path d="M282.693,136.58 C300.858,112.274 285.507,92.831 256.342,98.714 C244.572,101.017 232.804,109.205 232.036,124.043 C228.198,124.554 219.5,125.065 215.15,140.928 C211.825,153.209 210.034,155.511 204.148,161.651 C200.311,166.001 204.404,174.955 207.218,181.353 C216.685,203.355 245.851,205.401 265.551,222.032 C272.203,220.241 279.111,212.822 281.158,207.961 C264.528,188.26 268.109,180.585 261.457,170.352 C268.621,167.792 284.995,157.815 282.693,136.58 z" fill="#000000"/>
        <path d="M279.111,135.045 C280.133,133.509 281.924,130.184 282.693,128.904 C282.949,128.648 285.763,133.509 286.019,133.254 C292.926,121.996 294.717,105.621 286.785,104.087 C284.994,103.83 281.669,103.064 278.854,102.039 C273.738,100.248 269.134,100.248 260.945,101.784 C249.688,103.83 238.431,112.017 238.431,123.787 C238.431,124.554 246.361,126.857 248.665,136.324 C244.826,130.95 238.174,125.065 230.243,130.183 C221.8,135.555 226.15,147.836 214.893,160.627 C211.054,164.977 211.567,170.094 215.659,180.328 C222.311,196.447 253.781,205.145 270.922,220.496 C275.016,218.704 277.829,214.611 279.877,211.541 C268.364,199.517 263.758,188.258 260.433,180.071 C256.339,170.606 251.733,165.233 242.779,158.068 C247.385,159.859 250.967,161.65 253.012,163.185 C255.314,164.72 258.64,164.976 261.711,163.952 C272.715,160.117 278.599,144.766 279.111,135.045 z" fill="#EFEFEF"/>
        <path d="M390.404,139.139 C389.636,148.861 382.473,144 378.635,142.208 C370.96,138.882 363.284,136.58 354.329,136.58 C345.375,136.58 333.862,137.347 323.885,139.906 C310.069,143.743 305.974,143.488 299.835,140.417 C293.695,137.091 282.95,128.904 282.95,128.904 C282.95,128.904 282.694,131.463 285.253,134.789 C288.578,138.882 295.999,144 305.975,147.324 C310.836,148.861 314.675,147.836 319.025,146.813 C341.795,141.185 365.844,140.161 386.055,152.442 C387.079,152.953 390.661,151.418 392.196,149.115 C394.241,145.791 390.404,139.139 390.404,139.139 z" fill="#000000"/>
        <path d="M273.995,236.615 C276.041,237.895 278.599,238.662 281.413,240.965 C281.413,240.965 279.111,240.965 278.088,239.942 C276.808,239.175 274.25,236.872 273.995,236.615 L273.995,236.615 z" fill="#001423"/>
        <path d="M347.933,33.73 C347.166,31.428 341.536,27.333 328.489,27.333 C314.418,27.333 310.324,31.683 310.069,33.985 C310.069,34.753 309.045,42.941 308.789,46.266 C308.789,46.266 308.789,50.359 309.044,56.499 C309.3,60.593 310.324,62.895 310.835,68.268 C311.346,73.896 312.883,77.478 315.696,82.084 C316.976,82.85 317.999,83.619 319.279,83.875 C324.396,84.898 333.35,85.154 338.211,83.875 C341.025,83.108 344.607,78.247 345.375,73.897 C346.397,68.525 347.421,64.686 347.677,61.361 C348.188,58.036 348.445,50.616 348.699,48.568 C349.468,42.941 348.188,34.241 347.933,33.73 z" fill="#EFEFEF"/>
        <path d="M321.07,349.955 C321.07,349.955 334.63,355.84 368.146,350.723 C368.146,350.723 358.68,398.31 363.03,422.103 C363.03,422.103 367.379,428.244 399.616,440.012 C399.616,440.012 413.942,443.594 413.431,450.759 C413.431,450.759 413.942,452.294 396.546,451.781 C379.149,451.269 362.774,448.199 351.261,448.199 C339.747,448.199 327.467,448.71 325.421,445.385 C323.118,442.315 325.932,434.383 329.258,429.777 C332.842,424.918 331.817,421.334 331.562,412.637 C330.792,389.867 313.394,366.329 321.07,349.955 z" fill="#000000"/>
        <path d="M318.255,354.305 C316.464,356.864 318.51,366.584 321.068,376.051 C323.627,385.517 329.257,391.147 330.535,406.752 C331.814,422.103 332.07,424.15 327.721,433.103 C323.371,442.057 322.092,450.245 337.186,450.501 C352.281,450.758 360.469,450.245 375.819,452.549 C391.171,454.851 396.543,455.619 404.987,454.34 C413.43,453.061 415.22,450.245 411.639,447.688 C408.056,445.129 393.217,442.315 386.821,437.197 C380.68,432.592 363.284,424.916 363.029,422.87 C362.261,415.962 362.005,390.889 363.284,382.702 C364.564,374.514 366.354,362.746 366.866,359.676 C367.379,356.606 369.936,353.535 365.586,354.559 C361.238,355.581 344.863,357.885 332.583,357.117 C320.302,356.351 319.024,353.536 318.255,354.305 z" fill="#88CE02"/>
        <path d="M326.954,433.361 C331.303,435.407 337.7,436.943 342.561,436.943 C342.561,436.943 340.769,445.387 343.584,450.503 C346.397,455.62 323.116,452.55 323.116,452.55 L322.093,434.385 L326.954,433.361 z" fill="#000000" opacity="0.3"/>
        <path d="M394.753,455.364 C398.847,454.084 401.662,449.479 398.336,445.13 C394.753,440.781 391.684,440.013 396.288,439.758 C400.894,439.502 417.78,449.735 417.78,449.735 L409.08,457.666 L394.753,455.364 z" fill="#000000" opacity="0.3"/>
        <path d="M317.487,364.282 C323.372,366.329 332.327,366.841 340.002,366.584 C347.677,366.329 359.19,365.304 366.611,362.747 C374.029,360.188 370.96,365.561 370.96,365.561 L366.866,369.399 C366.866,369.399 357.144,373.237 341.282,372.982 C322.606,372.725 316.976,370.679 316.976,370.679 L317.487,364.282 z" fill="#000000" opacity="0.3"/>
        <path d="M317.999,377.075 C323.885,379.122 332.838,379.634 340.514,379.377 C348.188,379.122 358.423,379.122 365.842,376.308 C368.912,375.285 367.122,379.634 367.122,379.634 L365.842,381.936 C365.842,381.936 355.864,385.518 340.257,385.261 C321.581,385.006 318.255,383.47 318.255,383.47 L317.999,377.075 z" fill="#000000" opacity="0.3"/>
        <path d="M301.113,197.728 C301.113,199.519 321.07,209.496 332.07,211.544 C343.072,213.59 366.099,211.544 369.68,210.776 L369.167,214.358 C369.167,214.358 341.792,218.452 320.813,212.824 C299.833,207.195 302.137,205.915 302.137,205.915 L301.113,197.728 z" fill="#000000"/>
        <g>
          <path d="M258.387,415.963 C261.457,417.499 272.458,420.313 279.622,418.778 C280.644,418.522 279.622,401.124 282.437,393.193 C286.53,382.191 293.182,373.237 296.251,353.794 C285.505,352.77 273.226,349.955 266.829,347.908 C258.643,372.982 261.458,394.472 258.387,415.963 z" fill="#EFEFEF"/>
          <path d="M275.53,432.082 C277.321,432.594 278.599,434.64 279.112,433.362 C280.134,431.059 277.321,426.71 277.064,423.64 C277.064,423.384 277.064,423.64 277.064,423.384 C274.762,421.338 259.155,421.082 260.179,422.104 C258.388,425.43 255.574,424.919 254.552,431.571 C254.041,434.896 258.134,432.082 261.97,431.826 C255.063,436.431 247.132,442.317 245.852,447.433 C244.317,454.596 246.876,456.644 254.552,460.482 C261.204,462.017 269.135,462.273 275.275,462.017 C282.183,460.737 283.463,457.412 281.415,452.806 C278.343,445.898 276.297,436.943 275.53,432.082 z" fill="#EFEFEF"/>
        </g>
        <path d="M278.343,99.738 C286.786,104.599 298.556,103.32 302.904,103.064 C303.928,103.064 314.163,101.273 314.674,101.528 C315.696,101.784 315.696,102.552 315.696,102.552 C315.696,102.552 311.859,104.598 303.161,105.109 C294.974,105.62 285.252,105.109 279.879,102.552 C273.482,99.738 278.343,99.738 278.343,99.738 z" fill="#000000"/>
        <path d="M365.331,104.599 C366.866,105.621 376.844,109.46 381.194,114.065 C385.031,118.16 382.985,117.903 382.217,116.88 C381.194,115.6 373.262,110.228 370.192,108.949 C367.122,107.67 363.284,105.367 363.284,104.855 C363.284,104.344 365.331,104.599 365.331,104.599 z" fill="#000000"/>
        <path d="M277.063,210.775 C284.483,210.264 292.159,212.055 297.02,217.171 C299.578,219.729 303.672,222.543 303.161,225.102 C303.161,225.869 301.624,227.916 300.347,229.451 C299.58,230.474 297.277,232.776 296.508,233.545 C295.486,234.312 291.904,237.127 291.136,237.638 C290.369,238.151 289.345,239.431 288.578,239.686 C286.02,240.966 283.205,239.942 280.647,238.663 C278.089,237.383 281.159,237.127 278.344,235.081 C271.437,230.22 267.599,226.893 270.414,217.427 C270.669,215.636 273.482,213.588 277.063,210.775 z" fill="#EFEFEF"/>
      </g>
      <path d="M211.824,152.187 C188.798,161.397 130.208,190.565 113.579,199.519 L113.579,199.519 C127.395,208.217 133.791,229.196 135.838,250.432 C136.093,252.479 136.349,254.27 136.605,256.316 C136.86,258.107 137.117,259.386 137.372,260.155 C137.372,260.411 137.372,260.922 137.628,261.177 C152.723,219.987 206.706,176.493 208.753,173.167 C209.775,171.632 207.473,164.98 211.055,158.585 C215.661,150.395 224.617,146.813 211.824,152.187 z" fill="#000000" opacity="0.4"/>
      <path d="M266.575,345.35 C278.343,321.813 278.599,299.298 278.343,272.945 C278.343,261.943 286.274,246.337 282.182,250.687 C266.83,267.827 228.198,300.065 200.311,301.855 C239.455,300.577 254.806,320.277 266.575,345.35 z" fill="#000000" opacity="0.4"/>
      <path d="M91.064,221.264 C105.647,210.775 181.122,170.608 199.287,164.978 C217.451,159.094 211.823,152.185 211.823,152.185 C211.823,152.185 138.139,183.91 94.134,211.286" fill="#000000"/>
      <path d="M305.974,147.326 C300.09,145.023 295.485,151.932 297.02,158.584 C298.556,165.236 312.371,172.654 311.603,196.961 C311.091,216.917 306.742,225.103 306.742,225.103 L297.02,212.823 C297.02,212.823 295.485,185.191 292.159,181.098 C288.834,177.004 278.343,169.584 274.25,165.747 C270.156,161.909 278.854,156.793 278.343,149.628 C277.832,142.721 282.693,128.905 282.693,128.905 L305.974,147.326 z" fill="#000000" opacity="0.4"/>
      <path d="M341.537,256.315 C341.026,275.503 345.376,303.903 347.166,317.463 C348.957,331.022 351.259,332.046 347.166,338.187 C343.072,344.072 337.7,353.794 337.7,353.794 L320.046,352.258 C320.046,352.258 334.118,334.349 334.884,331.022 C335.651,327.698 327.721,302.369 327.721,302.369 L341.537,256.315 z" fill="#000000" opacity="0.4"/>
      <path d="M307.51,77.224 C311.093,85.154 315.441,88.736 322.348,91.04 C326.442,92.575 342.56,94.622 348.957,87.457 C351.771,84.131 349.979,75.177 349.979,75.177 L335.396,86.945 L315.696,83.364 L313.394,77.479 L307.51,77.224 z" fill="#000000" opacity="0.4"/>
      <g>
        <path d="M309.544,95.377 C316.196,99.727 332.827,103.82 337.431,104.588 C342.036,105.61 349.456,99.727 353.038,98.192 C356.877,96.401 363.529,95.377 371.203,102.285 C371.971,103.053 369.412,106.379 369.412,106.379 C369.156,106.123 367.621,106.123 365.574,105.099 C363.528,104.077 361.736,103.308 358.667,103.564 C345.873,105.099 343.827,109.449 332.57,106.889 C321.313,104.329 318.499,102.284 307.498,102.795" fill="#88CE02"/>
        <path d="M309.544,95.377 C316.196,99.727 332.827,103.82 337.431,104.588 C342.036,105.61 349.456,99.727 353.038,98.192 C356.877,96.401 363.529,95.377 371.203,102.285 C371.971,103.053 369.412,106.379 369.412,106.379 C369.156,106.123 367.621,106.123 365.574,105.099 C363.528,104.077 361.736,103.308 358.667,103.564 C345.873,105.099 343.827,109.449 332.57,106.889 C321.313,104.329 318.499,102.284 307.498,102.795" fill-opacity="0" stroke="#000000" stroke-width="1.586" stroke-linejoin="round" stroke-miterlimit="10"/>
      </g>
      <path d="M306.742,95.644 C315.185,99.227 331.559,103.064 336.164,104.088 C340.769,105.111 348.188,100.505 351.771,98.203 C358.168,94.11 366.354,97.436 370.192,101.785 C372.75,104.599 373.775,106.39 373.775,107.158 C373.775,108.18 370.705,107.158 370.705,107.158 C368.913,106.39 366.866,106.135 365.332,105.11 C363.285,104.088 361.238,102.553 358.169,102.808 C345.376,104.344 342.817,108.693 331.817,106.134 C320.816,103.575 318.001,101.273 306.233,102.039" fill="#88CE02"/>
      <path d="M267.086,334.604 C266.575,334.092 267.597,333.581 267.086,333.581 C263.761,333.581 259.155,331.022 256.596,327.44 C245.595,311.578 229.476,301.089 200.31,301.856 C156.559,302.879 139.162,284.971 135.837,250.688 C134.046,232.011 128.928,213.846 118.439,203.611 L112.298,207.45 C124.066,217.683 127.905,234.314 130.463,257.084 C134.557,291.367 162.188,307.23 194.425,307.741 C227.941,308.252 239.965,315.161 252.501,332.047 C256.594,337.42 261.2,339.211 264.781,339.978 L267.086,334.604 z" fill="#000000"/>
      <path d="M385.799,170.096 C386.566,173.933 388.612,181.353 392.706,184.934 C394.498,186.725 394.753,187.236 393.219,187.236 C391.682,187.236 380.425,186.725 380.425,186.725 L377.356,181.353 L385.799,170.096 z" fill="#000000" opacity="0.4"/>
    </g>
  </g>
</svg>
