<?xml version="1.0" encoding="UTF-8"?>
<!DOCTYPE svg PUBLIC "-//W3C//DTD SVG 1.1//EN" "http://www.w3.org/Graphics/SVG/1.1/DTD/svg11.dtd">
<svg version="1.1" xmlns="http://www.w3.org/2000/svg" xmlns:xlink="http://www.w3.org/1999/xlink" x="0" y="0" width="500" height="500" viewBox="0, 0, 500, 500">
  <g id="Grid">
    <path d="M143.542,466 C138.542,466 134.5,461.949 134.5,456.958 L134.5,41.042 C134.5,36.051 138.542,32 143.542,32 C148.542,32 152.583,36.051 152.583,41.042 L152.583,456.958 C152.583,461.949 148.542,466 143.542,466 z" fill="#82DBAB"/>
    <path d="M243,466 C238,466 233.958,461.949 233.958,456.958 L233.958,41.042 C233.958,36.051 238,32 243,32 C248,32 252.042,36.051 252.042,41.042 L252.042,456.958 C252.042,461.949 248,466 243,466 z" fill="#59AC71"/>
    <path d="M342.458,466 C337.458,466 333.417,461.949 333.417,456.958 L333.417,41.042 C333.417,36.051 337.458,32 342.458,32 C347.458,32 351.5,36.051 351.5,41.042 L351.5,456.958 C351.5,461.949 347.458,466 342.458,466 z" fill="#14A557"/>
    <path d="M450.958,158.583 L35.042,158.583 C30.042,158.583 26,154.533 26,149.542 C26,144.551 30.042,140.5 35.042,140.5 L450.958,140.5 C455.958,140.5 460,144.551 460,149.542 C460,154.533 455.958,158.583 450.958,158.583 z" fill="#82DBAB"/>
    <path d="M450.958,258.042 L35.042,258.042 C30.042,258.042 26,253.991 26,249 C26,244.009 30.042,239.958 35.042,239.958 L450.958,239.958 C455.958,239.958 460,244.009 460,249 C460,253.991 455.958,258.042 450.958,258.042 z" fill="#59AC71"/>
    <path d="M450.958,357.5 L35.042,357.5 C30.042,357.5 26,353.449 26,348.458 C26,343.467 30.042,339.417 35.042,339.417 L450.958,339.417 C455.958,339.417 460,343.467 460,348.458 C460,353.449 455.958,357.5 450.958,357.5 z" fill="#14A557"/>
  </g>
</svg>
