<?xml version="1.0" encoding="utf-8"?>
<!-- Generator: Adobe Illustrator 16.0.3, SVG Export Plug-In . SVG Version: 6.00 Build 0)  -->
<!DOCTYPE svg PUBLIC "-//W3C//DTD SVG 1.1//EN" "http://www.w3.org/Graphics/SVG/1.1/DTD/svg11.dtd">
<svg version="1.1" id="Vrstva_1" xmlns="http://www.w3.org/2000/svg" xmlns:xlink="http://www.w3.org/1999/xlink" x="0px" y="0px"
	 width="22px" height="22px" viewBox="0 0 22 22" enable-background="new 0 0 22 22" xml:space="preserve">
<path fill="#B5B397" d="M20.982,10.003c0,0-0.54-2.62-0.858-2.938l-1.206-1.207l0.178-0.178l0.02-0.019
	c0.166-0.167,0.166-0.438,0-0.604l-0.453-0.453l-0.453-0.453c-0.182-0.167-0.381-0.224-0.604,0l-0.197,0.197l-1.731-1.731
	c-0.113-0.113-0.296-0.113-0.409,0l-2.047,2.047c-0.054,0.054-0.084,0.127-0.084,0.205c0,0.076,0.03,0.15,0.084,0.204l1.732,1.731
	l-3.988,3.988L6.907,6.735c0.698-0.645,1.43-1.252,2.196-1.82c0.116-0.086,0.143-0.249,0.058-0.366
	c-0.51-0.703-1.02-1.405-1.53-2.108C7.583,2.385,7.516,2.349,7.443,2.342C7.37,2.334,7.296,2.358,7.241,2.404
	C6.353,3.063,5.502,3.77,4.695,4.522L4.488,4.316L4.346,4.222c-0.162-0.003-0.08,0-0.251-0.011C4.004,4.222,3.957,4.263,3.884,4.316
	L3.431,4.769L2.979,5.221c-0.167,0.167-0.167,0.437,0,0.604l0.206,0.206c-0.753,0.81-1.462,1.66-2.122,2.55
	c-0.047,0.057-0.07,0.13-0.062,0.202c0.007,0.074,0.042,0.14,0.099,0.187c0.703,0.511,1.405,1.021,2.108,1.532
	c0.117,0.084,0.281,0.059,0.366-0.059c0.567-0.766,1.177-1.5,1.823-2.199l4.059,4.059l-5.434,5.435
	c-0.333,0.332-0.333,0.873,0,1.207l0.151,0.15l0.152,0.15c0.333,0.334,0.874,0.334,1.207,0l5.434-5.433l5.595,5.596
	c0.334,0.335,0.875,0.335,1.209,0l0.15-0.15l0.15-0.15c0.334-0.334,0.334-0.874,0-1.208l-5.597-5.597l3.988-3.988l1.207,1.208
	c0.263,0.262,2.945,0.849,2.945,0.849c0.11,0.034,0.229,0.019,0.326-0.042C21,10.231,21.016,10.113,20.982,10.003"/>
</svg>
