<svg xmlns="http://www.w3.org/2000/svg" width="1920" height="1080"><path d="M647,-199L780,-202L935,-217Z" fill="#203b24" stroke="#203b24" stroke-width="1.51"/><path d="M118,-217L647,-199L935,-217Z" fill="#193828" stroke="#193828" stroke-width="1.51"/><path d="M929,1268L804,1272L1107,1276Z" fill="#203c23" stroke="#203c23" stroke-width="1.51"/><path d="M804,1272L652,1280L1107,1276Z" fill="#203c23" stroke="#203c23" stroke-width="1.51"/><path d="M118,-217L935,-217L1279,-220Z" fill="#203b25" stroke="#203b25" stroke-width="1.51"/><path d="M935,-217L1097,-210L1279,-220Z" fill="#203b24" stroke="#203b24" stroke-width="1.51"/><path d="M1107,1276L652,1280L1557,1298Z" fill="#203b24" stroke="#203b24" stroke-width="1.51"/><path d="M1240,1265L1107,1276L1557,1298Z" fill="#1b3827" stroke="#1b3827" stroke-width="1.51"/><path d="M1694,1244L1557,1298L1860,1248Z" fill="#10342c" stroke="#10342c" stroke-width="1.51"/><path d="M1948,1254L1860,1248L2111,1297Z" fill="#0a3032" stroke="#0a3032" stroke-width="1.51"/><path d="M1860,1248L1557,1298L2111,1297Z" fill="#0c322f" stroke="#0c322f" stroke-width="1.51"/><path d="M2109,-47L1998,-62L2114,128Z" fill="#0e332d" stroke="#0e332d" stroke-width="1.51"/><path d="M1961,688L1983,810L2115,817Z" fill="#1a3a24" stroke="#1a3a24" stroke-width="1.51"/><path d="M2114,128L1989,254L2147,278Z" fill="#153629" stroke="#153629" stroke-width="1.51"/><path d="M1279,-220L1529,-215L2149,-210Z" fill="#10342d" stroke="#10342d" stroke-width="1.51"/><path d="M1685,-200L1858,-189L2149,-210Z" fill="#0b3131" stroke="#0b3131" stroke-width="1.51"/><path d="M1529,-215L1685,-200L2149,-210Z" fill="#0d322e" stroke="#0d322e" stroke-width="1.51"/><path d="M1858,-189L1942,-183L2149,-210Z" fill="#093032" stroke="#093032" stroke-width="1.51"/><path d="M1998,-62L2109,-47L2149,-210Z" fill="#0a3132" stroke="#0a3132" stroke-width="1.51"/><path d="M1942,-183L1998,-62L2149,-210Z" fill="#093132" stroke="#093132" stroke-width="1.51"/><path d="M2114,128L2147,278L2149,-210Z" fill="#0f332e" stroke="#0f332e" stroke-width="1.51"/><path d="M2109,-47L2114,128L2149,-210Z" fill="#0b3130" stroke="#0b3130" stroke-width="1.51"/><path d="M2117,942L1942,1000L2151,1089Z" fill="#10342c" stroke="#10342c" stroke-width="1.51"/><path d="M1942,1000L1999,1144L2151,1089Z" fill="#0e342d" stroke="#0e342d" stroke-width="1.51"/><path d="M1999,1144L2111,1297L2151,1089Z" fill="#0b3131" stroke="#0b3131" stroke-width="1.51"/><path d="M1961,688L2115,817L2153,688Z" fill="#1c3a25" stroke="#1c3a25" stroke-width="1.51"/><path d="M2090,538L1961,688L2153,688Z" fill="#203c23" stroke="#203c23" stroke-width="1.51"/><path d="M2147,278L2096,393L2153,688Z" fill="#203b24" stroke="#203b24" stroke-width="1.51"/><path d="M2096,393L2090,538L2153,688Z" fill="#203b24" stroke="#203b24" stroke-width="1.51"/><path d="M2117,942L2151,1089L2153,688Z" fill="#12342b" stroke="#12342b" stroke-width="1.51"/><path d="M2115,817L2117,942L2153,688Z" fill="#173729" stroke="#173729" stroke-width="1.51"/><path d="M1998,-62L1948,111L2114,128Z" fill="#10352b" stroke="#10352b" stroke-width="1.51"/><path d="M1989,254L2096,393L2147,278Z" fill="#1a3926" stroke="#1a3926" stroke-width="1.51"/><path d="M1970,547L1961,688L2090,538Z" fill="#203d21" stroke="#203d21" stroke-width="1.51"/><path d="M2004,406L2090,538L2096,393Z" fill="#203c23" stroke="#203c23" stroke-width="1.51"/><path d="M1989,254L2004,406L2096,393Z" fill="#1c3b24" stroke="#1c3b24" stroke-width="1.51"/><path d="M1999,1144L1948,1254L2111,1297Z" fill="#0a3131" stroke="#0a3131" stroke-width="1.51"/><path d="M1948,111L1989,254L2114,128Z" fill="#133628" stroke="#133628" stroke-width="1.51"/><path d="M2115,817L1983,810L2117,942Z" fill="#153628" stroke="#153628" stroke-width="1.51"/><path d="M1983,810L1942,1000L2117,942Z" fill="#133628" stroke="#133628" stroke-width="1.51"/><path d="M2004,406L1970,547L2090,538Z" fill="#203d21" stroke="#203d21" stroke-width="1.51"/><path d="M270,1265L119,1284L652,1280Z" fill="#12352b" stroke="#12352b" stroke-width="1.51"/><path d="M1795,838L1942,1000L1983,810Z" fill="#153825" stroke="#153825" stroke-width="1.51"/><path d="M1948,111L1822,235L1989,254Z" fill="#143825" stroke="#143825" stroke-width="1.51"/><path d="M1829,-47L1948,111L1998,-62Z" fill="#0f352a" stroke="#0f352a" stroke-width="1.51"/><path d="M1942,1000L1837,1139L1999,1144Z" fill="#0f352a" stroke="#0f352a" stroke-width="1.51"/><path d="M1989,254L1860,406L2004,406Z" fill="#1d3c21" stroke="#1d3c21" stroke-width="1.51"/><path d="M1860,406L1970,547L2004,406Z" fill="#203e1f" stroke="#203e1f" stroke-width="1.51"/><path d="M1822,235L1860,406L1989,254Z" fill="#1a3b21" stroke="#1a3b21" stroke-width="1.51"/><path d="M1942,-183L1829,-47L1998,-62Z" fill="#0d332d" stroke="#0d332d" stroke-width="1.51"/><path d="M1837,1139L1948,1254L1999,1144Z" fill="#0d332e" stroke="#0d332e" stroke-width="1.51"/><path d="M1795,838L1848,1009L1942,1000Z" fill="#143825" stroke="#143825" stroke-width="1.51"/><path d="M1848,1009L1837,1139L1942,1000Z" fill="#103628" stroke="#103628" stroke-width="1.51"/><path d="M1837,1139L1860,1248L1948,1254Z" fill="#0d332d" stroke="#0d332d" stroke-width="1.51"/><path d="M1844,115L1822,235L1948,111Z" fill="#133825" stroke="#133825" stroke-width="1.51"/><path d="M1829,-47L1844,115L1948,111Z" fill="#113727" stroke="#113727" stroke-width="1.51"/><path d="M1860,406L1827,528L1970,547Z" fill="#203f1d" stroke="#203f1d" stroke-width="1.51"/><path d="M1847,687L1961,688L1970,547Z" fill="#203e1f" stroke="#203e1f" stroke-width="1.51"/><path d="M1961,688L1847,687L1983,810Z" fill="#1d3c21" stroke="#1d3c21" stroke-width="1.51"/><path d="M1858,-189L1829,-47L1942,-183Z" fill="#0c332e" stroke="#0c332e" stroke-width="1.51"/><path d="M1827,528L1847,687L1970,547Z" fill="#203f1d" stroke="#203f1d" stroke-width="1.51"/><path d="M1847,687L1795,838L1983,810Z" fill="#1a3b21" stroke="#1a3b21" stroke-width="1.51"/><path d="M1652,279L1675,424L1822,235Z" fill="#1c3d1d" stroke="#1c3d1d" stroke-width="1.51"/><path d="M1685,-200L1704,-35L1829,-47Z" fill="#103529" stroke="#103529" stroke-width="1.51"/><path d="M1829,-47L1704,-35L1844,115Z" fill="#113727" stroke="#113727" stroke-width="1.51"/><path d="M1827,528L1689,686L1847,687Z" fill="#20401b" stroke="#20401b" stroke-width="1.51"/><path d="M1689,686L1795,838L1847,687Z" fill="#1d3e1d" stroke="#1d3e1d" stroke-width="1.51"/><path d="M1795,838L1692,948L1848,1009Z" fill="#143923" stroke="#143923" stroke-width="1.51"/><path d="M1713,1128L1837,1139L1848,1009Z" fill="#113727" stroke="#113727" stroke-width="1.51"/><path d="M1685,-200L1829,-47L1858,-189Z" fill="#0e342c" stroke="#0e342c" stroke-width="1.51"/><path d="M1675,424L1827,528L1860,406Z" fill="#20401b" stroke="#20401b" stroke-width="1.51"/><path d="M1822,235L1675,424L1860,406Z" fill="#1d3e1d" stroke="#1d3e1d" stroke-width="1.51"/><path d="M1837,1139L1694,1244L1860,1248Z" fill="#0f342c" stroke="#0f342c" stroke-width="1.51"/><path d="M1713,1128L1694,1244L1837,1139Z" fill="#103529" stroke="#103529" stroke-width="1.51"/><path d="M1704,-35L1661,113L1844,115Z" fill="#143825" stroke="#143825" stroke-width="1.51"/><path d="M1661,550L1689,686L1827,528Z" fill="#21401a" stroke="#21401a" stroke-width="1.51"/><path d="M1661,113L1822,235L1844,115Z" fill="#143923" stroke="#143923" stroke-width="1.51"/><path d="M1692,948L1713,1128L1848,1009Z" fill="#133825" stroke="#133825" stroke-width="1.51"/><path d="M1689,686L1667,798L1795,838Z" fill="#1b3d1e" stroke="#1b3d1e" stroke-width="1.51"/><path d="M1675,424L1661,550L1827,528Z" fill="#214019" stroke="#214019" stroke-width="1.51"/><path d="M1661,113L1652,279L1822,235Z" fill="#173b20" stroke="#173b20" stroke-width="1.51"/><path d="M1667,798L1692,948L1795,838Z" fill="#173b20" stroke="#173b20" stroke-width="1.51"/><path d="M356,1259L270,1265L652,1280Z" fill="#14362a" stroke="#14362a" stroke-width="1.51"/><path d="M1424,1254L1240,1265L1557,1298Z" fill="#173728" stroke="#173728" stroke-width="1.51"/><path d="M1529,-215L1511,-31L1685,-200Z" fill="#133629" stroke="#133629" stroke-width="1.51"/><path d="M1667,798L1544,945L1692,948Z" fill="#173b20" stroke="#173b20" stroke-width="1.51"/><path d="M1544,945L1556,1115L1692,948Z" fill="#153a22" stroke="#153a22" stroke-width="1.51"/><path d="M1571,94L1661,113L1704,-35Z" fill="#153923" stroke="#153923" stroke-width="1.51"/><path d="M1685,-200L1511,-31L1704,-35Z" fill="#123628" stroke="#123628" stroke-width="1.51"/><path d="M1556,1115L1694,1244L1713,1128Z" fill="#123727" stroke="#123727" stroke-width="1.51"/><path d="M1692,948L1556,1115L1713,1128Z" fill="#143824" stroke="#143824" stroke-width="1.51"/><path d="M1652,279L1550,387L1675,424Z" fill="#1f401a" stroke="#1f401a" stroke-width="1.51"/><path d="M1511,-31L1571,94L1704,-35Z" fill="#143924" stroke="#143924" stroke-width="1.51"/><path d="M1521,253L1652,279L1661,113Z" fill="#193c1f" stroke="#193c1f" stroke-width="1.51"/><path d="M1571,94L1521,253L1661,113Z" fill="#173b20" stroke="#173b20" stroke-width="1.51"/><path d="M1507,847L1544,945L1667,798Z" fill="#193c1e" stroke="#193c1e" stroke-width="1.51"/><path d="M1522,698L1667,798L1689,686Z" fill="#1f3f1a" stroke="#1f3f1a" stroke-width="1.51"/><path d="M1661,550L1522,698L1689,686Z" fill="#224117" stroke="#224117" stroke-width="1.51"/><path d="M1556,1115L1557,1298L1694,1244Z" fill="#123629" stroke="#123629" stroke-width="1.51"/><path d="M1550,387L1661,550L1675,424Z" fill="#224118" stroke="#224118" stroke-width="1.51"/><path d="M1550,387L1510,553L1661,550Z" fill="#224217" stroke="#224217" stroke-width="1.51"/><path d="M1510,553L1522,698L1661,550Z" fill="#224217" stroke="#224217" stroke-width="1.51"/><path d="M1522,698L1507,847L1667,798Z" fill="#1d3e1b" stroke="#1d3e1b" stroke-width="1.51"/><path d="M1279,-220L1394,-184L1529,-215Z" fill="#173728" stroke="#173728" stroke-width="1.51"/><path d="M1521,253L1550,387L1652,279Z" fill="#1d3f1b" stroke="#1d3f1b" stroke-width="1.51"/><path d="M118,-217L395,-178L647,-199Z" fill="#13352a" stroke="#13352a" stroke-width="1.51"/><path d="M1394,-184L1511,-31L1529,-215Z" fill="#153727" stroke="#153727" stroke-width="1.51"/><path d="M1406,425L1510,553L1550,387Z" fill="#234315" stroke="#234315" stroke-width="1.51"/><path d="M1544,945L1429,997L1556,1115Z" fill="#173b21" stroke="#173b21" stroke-width="1.51"/><path d="M1397,1151L1424,1254L1556,1115Z" fill="#163825" stroke="#163825" stroke-width="1.51"/><path d="M1556,1115L1424,1254L1557,1298Z" fill="#133728" stroke="#133728" stroke-width="1.51"/><path d="M1511,-31L1412,-5L1571,94Z" fill="#163a22" stroke="#163a22" stroke-width="1.51"/><path d="M1412,-5L1383,92L1571,94Z" fill="#183b20" stroke="#183b20" stroke-width="1.51"/><path d="M1383,92L1521,253L1571,94Z" fill="#183c1f" stroke="#183c1f" stroke-width="1.51"/><path d="M1383,92L1405,265L1521,253Z" fill="#1b3e1c" stroke="#1b3e1c" stroke-width="1.51"/><path d="M1521,253L1405,265L1550,387Z" fill="#1e3f1a" stroke="#1e3f1a" stroke-width="1.51"/><path d="M1405,265L1406,425L1550,387Z" fill="#214117" stroke="#214117" stroke-width="1.51"/><path d="M1429,997L1397,1151L1556,1115Z" fill="#163a22" stroke="#163a22" stroke-width="1.51"/><path d="M1379,799L1507,847L1522,698Z" fill="#1e4019" stroke="#1e4019" stroke-width="1.51"/><path d="M1510,553L1401,682L1522,698Z" fill="#234315" stroke="#234315" stroke-width="1.51"/><path d="M1507,847L1429,997L1544,945Z" fill="#183c1e" stroke="#183c1e" stroke-width="1.51"/><path d="M1406,425L1366,524L1510,553Z" fill="#244413" stroke="#244413" stroke-width="1.51"/><path d="M1394,-184L1412,-5L1511,-31Z" fill="#173924" stroke="#173924" stroke-width="1.51"/><path d="M1401,682L1379,799L1522,698Z" fill="#214217" stroke="#214217" stroke-width="1.51"/><path d="M1379,799L1429,997L1507,847Z" fill="#1b3e1c" stroke="#1b3e1c" stroke-width="1.51"/><path d="M1366,524L1401,682L1510,553Z" fill="#244413" stroke="#244413" stroke-width="1.51"/><path d="M1237,835L1269,995L1379,799Z" fill="#1f4019" stroke="#1f4019" stroke-width="1.51"/><path d="M1269,995L1246,1123L1397,1151Z" fill="#1b3d1f" stroke="#1b3d1f" stroke-width="1.51"/><path d="M1366,524L1266,561L1401,682Z" fill="#264511" stroke="#264511" stroke-width="1.51"/><path d="M1383,92L1263,284L1405,265Z" fill="#1e401a" stroke="#1e401a" stroke-width="1.51"/><path d="M1405,265L1263,284L1406,425Z" fill="#224216" stroke="#224216" stroke-width="1.51"/><path d="M1263,284L1260,428L1406,425Z" fill="#264412" stroke="#264412" stroke-width="1.51"/><path d="M1394,-184L1262,-31L1412,-5Z" fill="#1a3a22" stroke="#1a3a22" stroke-width="1.51"/><path d="M1269,995L1397,1151L1429,997Z" fill="#1a3c1f" stroke="#1a3c1f" stroke-width="1.51"/><path d="M1379,799L1269,995L1429,997Z" fill="#1c3e1b" stroke="#1c3e1b" stroke-width="1.51"/><path d="M1397,1151L1240,1265L1424,1254Z" fill="#193925" stroke="#193925" stroke-width="1.51"/><path d="M1262,73L1263,284L1383,92Z" fill="#1d3f1a" stroke="#1d3f1a" stroke-width="1.51"/><path d="M1279,-220L1262,-31L1394,-184Z" fill="#1b3a24" stroke="#1b3a24" stroke-width="1.51"/><path d="M1229,694L1379,799L1401,682Z" fill="#244314" stroke="#244314" stroke-width="1.51"/><path d="M1262,73L1383,92L1412,-5Z" fill="#1b3d1e" stroke="#1b3d1e" stroke-width="1.51"/><path d="M1262,-31L1262,73L1412,-5Z" fill="#1b3d1e" stroke="#1b3d1e" stroke-width="1.51"/><path d="M1246,1123L1240,1265L1397,1151Z" fill="#1c3b22" stroke="#1c3b22" stroke-width="1.51"/><path d="M1266,561L1229,694L1401,682Z" fill="#274610" stroke="#274610" stroke-width="1.51"/><path d="M1260,428L1366,524L1406,425Z" fill="#264511" stroke="#264511" stroke-width="1.51"/><path d="M1229,694L1237,835L1379,799Z" fill="#234315" stroke="#234315" stroke-width="1.51"/><path d="M1260,428L1266,561L1366,524Z" fill="#274610" stroke="#274610" stroke-width="1.51"/><path d="M1090,402L1260,428L1263,284Z" fill="#284610" stroke="#284610" stroke-width="1.51"/><path d="M1262,73L1126,82L1263,284Z" fill="#204019" stroke="#204019" stroke-width="1.51"/><path d="M1126,82L1071,269L1263,284Z" fill="#234315" stroke="#234315" stroke-width="1.51"/><path d="M1260,428L1075,524L1266,561Z" fill="#2a480d" stroke="#2a480d" stroke-width="1.51"/><path d="M1237,835L1125,971L1269,995Z" fill="#204018" stroke="#204018" stroke-width="1.51"/><path d="M1122,1089L1246,1123L1269,995Z" fill="#1e3e1c" stroke="#1e3e1c" stroke-width="1.51"/><path d="M1135,-59L1262,-31L1279,-220Z" fill="#1d3c21" stroke="#1d3c21" stroke-width="1.51"/><path d="M1097,-210L1135,-59L1279,-220Z" fill="#1f3c23" stroke="#1f3c23" stroke-width="1.51"/><path d="M528,1258L356,1259L652,1280Z" fill="#173728" stroke="#173728" stroke-width="1.51"/><path d="M1229,694L1106,799L1237,835Z" fill="#264512" stroke="#264512" stroke-width="1.51"/><path d="M1107,1276L1240,1265L1246,1123Z" fill="#1e3c22" stroke="#1e3c22" stroke-width="1.51"/><path d="M1090,402L1075,524L1260,428Z" fill="#2b490a" stroke="#2b490a" stroke-width="1.51"/><path d="M1126,82L1262,73L1262,-31Z" fill="#1e3f1c" stroke="#1e3f1c" stroke-width="1.51"/><path d="M1135,-59L1126,82L1262,-31Z" fill="#1f3f1c" stroke="#1f3f1c" stroke-width="1.51"/><path d="M1071,269L1090,402L1263,284Z" fill="#274610" stroke="#274610" stroke-width="1.51"/><path d="M1080,666L1229,694L1266,561Z" fill="#2a480c" stroke="#2a480c" stroke-width="1.51"/><path d="M1075,524L1080,666L1266,561Z" fill="#2b490a" stroke="#2b490a" stroke-width="1.51"/><path d="M1125,971L1122,1089L1269,995Z" fill="#20401a" stroke="#20401a" stroke-width="1.51"/><path d="M1122,1089L1107,1276L1246,1123Z" fill="#1f3e1f" stroke="#1f3e1f" stroke-width="1.51"/><path d="M1106,799L1125,971L1237,835Z" fill="#234315" stroke="#234315" stroke-width="1.51"/><path d="M1080,666L1106,799L1229,694Z" fill="#29470e" stroke="#29470e" stroke-width="1.51"/><path d="M962,996L989,1100L1122,1089Z" fill="#21401b" stroke="#21401b" stroke-width="1.51"/><path d="M989,1100L1107,1276L1122,1089Z" fill="#203e1e" stroke="#203e1e" stroke-width="1.51"/><path d="M1106,799L949,864L1125,971Z" fill="#234315" stroke="#234315" stroke-width="1.51"/><path d="M949,864L962,996L1125,971Z" fill="#224217" stroke="#224217" stroke-width="1.51"/><path d="M962,996L1122,1089L1125,971Z" fill="#214119" stroke="#214119" stroke-width="1.51"/><path d="M981,241L1071,269L1126,82Z" fill="#234315" stroke="#234315" stroke-width="1.51"/><path d="M947,111L981,241L1126,82Z" fill="#224217" stroke="#224217" stroke-width="1.51"/><path d="M959,-51L947,111L1126,82Z" fill="#214019" stroke="#214019" stroke-width="1.51"/><path d="M959,-51L1126,82L1135,-59Z" fill="#20401b" stroke="#20401b" stroke-width="1.51"/><path d="M1097,-210L959,-51L1135,-59Z" fill="#203e1f" stroke="#203e1f" stroke-width="1.51"/><path d="M1080,666L963,719L1106,799Z" fill="#29470e" stroke="#29470e" stroke-width="1.51"/><path d="M989,1100L929,1268L1107,1276Z" fill="#203d20" stroke="#203d20" stroke-width="1.51"/><path d="M1075,524L992,507L1080,666Z" fill="#2b490a" stroke="#2b490a" stroke-width="1.51"/><path d="M1071,269L946,392L1090,402Z" fill="#29470e" stroke="#29470e" stroke-width="1.51"/><path d="M992,507L1075,524L1090,402Z" fill="#2b490a" stroke="#2b490a" stroke-width="1.51"/><path d="M935,-217L959,-51L1097,-210Z" fill="#203c22" stroke="#203c22" stroke-width="1.51"/><path d="M963,719L949,864L1106,799Z" fill="#264511" stroke="#264511" stroke-width="1.51"/><path d="M981,241L946,392L1071,269Z" fill="#274511" stroke="#274511" stroke-width="1.51"/><path d="M992,507L963,719L1080,666Z" fill="#2b490a" stroke="#2b490a" stroke-width="1.51"/><path d="M946,392L992,507L1090,402Z" fill="#2b490a" stroke="#2b490a" stroke-width="1.51"/><path d="M845,-13L947,111L959,-51Z" fill="#21401b" stroke="#21401b" stroke-width="1.51"/><path d="M802,571L802,670L963,719Z" fill="#2b490a" stroke="#2b490a" stroke-width="1.51"/><path d="M947,111L840,241L981,241Z" fill="#234315" stroke="#234315" stroke-width="1.51"/><path d="M840,241L946,392L981,241Z" fill="#264511" stroke="#264511" stroke-width="1.51"/><path d="M962,996L830,1113L989,1100Z" fill="#20401b" stroke="#20401b" stroke-width="1.51"/><path d="M830,1113L929,1268L989,1100Z" fill="#203e1e" stroke="#203e1e" stroke-width="1.51"/><path d="M946,392L847,421L992,507Z" fill="#2b490a" stroke="#2b490a" stroke-width="1.51"/><path d="M847,421L802,571L992,507Z" fill="#2b490a" stroke="#2b490a" stroke-width="1.51"/><path d="M802,571L963,719L992,507Z" fill="#2b490a" stroke="#2b490a" stroke-width="1.51"/><path d="M935,-217L845,-13L959,-51Z" fill="#203e1f" stroke="#203e1f" stroke-width="1.51"/><path d="M821,857L949,864L963,719Z" fill="#254512" stroke="#254512" stroke-width="1.51"/><path d="M780,-202L845,-13L935,-217Z" fill="#203d21" stroke="#203d21" stroke-width="1.51"/><path d="M840,241L847,421L946,392Z" fill="#29470e" stroke="#29470e" stroke-width="1.51"/><path d="M845,-13L812,84L947,111Z" fill="#214119" stroke="#214119" stroke-width="1.51"/><path d="M785,1009L830,1113L962,996Z" fill="#21401a" stroke="#21401a" stroke-width="1.51"/><path d="M949,864L821,857L962,996Z" fill="#224216" stroke="#224216" stroke-width="1.51"/><path d="M821,857L785,1009L962,996Z" fill="#224217" stroke="#224217" stroke-width="1.51"/><path d="M802,670L821,857L963,719Z" fill="#28460f" stroke="#28460f" stroke-width="1.51"/><path d="M830,1113L804,1272L929,1268Z" fill="#203d21" stroke="#203d21" stroke-width="1.51"/><path d="M812,84L840,241L947,111Z" fill="#224217" stroke="#224217" stroke-width="1.51"/><path d="M802,670L697,841L821,857Z" fill="#264512" stroke="#264512" stroke-width="1.51"/><path d="M700,1105L804,1272L830,1113Z" fill="#203e1e" stroke="#203e1e" stroke-width="1.51"/><path d="M812,84L679,80L840,241Z" fill="#224217" stroke="#224217" stroke-width="1.51"/><path d="M679,80L649,263L840,241Z" fill="#214216" stroke="#214216" stroke-width="1.51"/><path d="M649,263L666,388L840,241Z" fill="#254413" stroke="#254413" stroke-width="1.51"/><path d="M697,-71L812,84L845,-13Z" fill="#20401b" stroke="#20401b" stroke-width="1.51"/><path d="M780,-202L697,-71L845,-13Z" fill="#203e1f" stroke="#203e1f" stroke-width="1.51"/><path d="M686,569L802,571L847,421Z" fill="#2b490a" stroke="#2b490a" stroke-width="1.51"/><path d="M666,388L686,569L847,421Z" fill="#2a480c" stroke="#2a480c" stroke-width="1.51"/><path d="M840,241L666,388L847,421Z" fill="#29470e" stroke="#29470e" stroke-width="1.51"/><path d="M697,841L785,1009L821,857Z" fill="#224216" stroke="#224216" stroke-width="1.51"/><path d="M697,-71L679,80L812,84Z" fill="#1f3f1b" stroke="#1f3f1b" stroke-width="1.51"/><path d="M644,688L697,841L802,670Z" fill="#274611" stroke="#274611" stroke-width="1.51"/><path d="M785,1009L700,1105L830,1113Z" fill="#20401b" stroke="#20401b" stroke-width="1.51"/><path d="M700,1105L652,1280L804,1272Z" fill="#1e3c22" stroke="#1e3c22" stroke-width="1.51"/><path d="M697,841L647,992L785,1009Z" fill="#204018" stroke="#204018" stroke-width="1.51"/><path d="M802,571L686,569L802,670Z" fill="#2b480b" stroke="#2b480b" stroke-width="1.51"/><path d="M686,569L644,688L802,670Z" fill="#2a470d" stroke="#2a470d" stroke-width="1.51"/><path d="M395,-178L551,-164L647,-199Z" fill="#183727" stroke="#183727" stroke-width="1.51"/><path d="M647,-199L697,-71L780,-202Z" fill="#1e3b23" stroke="#1e3b23" stroke-width="1.51"/><path d="M647,992L700,1105L785,1009Z" fill="#1f3f1b" stroke="#1f3f1b" stroke-width="1.51"/><path d="M536,-62L523,75L679,80Z" fill="#1b3d1e" stroke="#1b3d1e" stroke-width="1.51"/><path d="M523,75L649,263L679,80Z" fill="#1d3f1b" stroke="#1d3f1b" stroke-width="1.51"/><path d="M666,388L532,548L686,569Z" fill="#284610" stroke="#284610" stroke-width="1.51"/><path d="M647,-199L551,-164L697,-71Z" fill="#1b3a24" stroke="#1b3a24" stroke-width="1.51"/><path d="M551,-164L536,-62L697,-71Z" fill="#1a3a23" stroke="#1a3a23" stroke-width="1.51"/><path d="M536,-62L679,80L697,-71Z" fill="#1c3d1e" stroke="#1c3d1e" stroke-width="1.51"/><path d="M644,688L545,839L697,841Z" fill="#234316" stroke="#234316" stroke-width="1.51"/><path d="M549,959L647,992L697,841Z" fill="#1e3f1a" stroke="#1e3f1a" stroke-width="1.51"/><path d="M545,839L549,959L697,841Z" fill="#1e401a" stroke="#1e401a" stroke-width="1.51"/><path d="M553,1135L652,1280L700,1105Z" fill="#1b3b22" stroke="#1b3b22" stroke-width="1.51"/><path d="M647,992L553,1135L700,1105Z" fill="#1c3d1e" stroke="#1c3d1e" stroke-width="1.51"/><path d="M553,1135L528,1258L652,1280Z" fill="#193925" stroke="#193925" stroke-width="1.51"/><path d="M512,370L532,548L666,388Z" fill="#264511" stroke="#264511" stroke-width="1.51"/><path d="M532,548L644,688L686,569Z" fill="#274610" stroke="#274610" stroke-width="1.51"/><path d="M515,285L512,370L649,263Z" fill="#214217" stroke="#214217" stroke-width="1.51"/><path d="M523,75L515,285L649,263Z" fill="#1d3f1a" stroke="#1d3f1a" stroke-width="1.51"/><path d="M649,263L512,370L666,388Z" fill="#244314" stroke="#244314" stroke-width="1.51"/><path d="M532,548L509,660L644,688Z" fill="#264511" stroke="#264511" stroke-width="1.51"/><path d="M509,660L545,839L644,688Z" fill="#244315" stroke="#244315" stroke-width="1.51"/><path d="M549,959L553,1135L647,992Z" fill="#1b3d1e" stroke="#1b3d1e" stroke-width="1.51"/><path d="M118,-217L258,-158L395,-178Z" fill="#10342c" stroke="#10342c" stroke-width="1.51"/><path d="M357,134L344,248L515,285Z" fill="#1a3d1d" stroke="#1a3d1d" stroke-width="1.51"/><path d="M357,134L515,285L523,75Z" fill="#1a3d1e" stroke="#1a3d1e" stroke-width="1.51"/><path d="M357,1112L356,1259L528,1258Z" fill="#143727" stroke="#143727" stroke-width="1.51"/><path d="M512,370L385,379L532,548Z" fill="#244314" stroke="#244314" stroke-width="1.51"/><path d="M385,379L390,574L532,548Z" fill="#234315" stroke="#234315" stroke-width="1.51"/><path d="M412,-15L523,75L536,-62Z" fill="#173b21" stroke="#173b21" stroke-width="1.51"/><path d="M509,660L404,679L545,839Z" fill="#214217" stroke="#214217" stroke-width="1.51"/><path d="M404,679L344,803L545,839Z" fill="#1e4019" stroke="#1e4019" stroke-width="1.51"/><path d="M545,839L384,978L549,959Z" fill="#1b3d1d" stroke="#1b3d1d" stroke-width="1.51"/><path d="M395,-178L536,-62L551,-164Z" fill="#173826" stroke="#173826" stroke-width="1.51"/><path d="M357,1112L528,1258L553,1135Z" fill="#163924" stroke="#163924" stroke-width="1.51"/><path d="M549,959L384,978L553,1135Z" fill="#193c1f" stroke="#193c1f" stroke-width="1.51"/><path d="M384,978L357,1112L553,1135Z" fill="#153a22" stroke="#153a22" stroke-width="1.51"/><path d="M344,803L384,978L545,839Z" fill="#1a3d1d" stroke="#1a3d1d" stroke-width="1.51"/><path d="M390,574L509,660L532,548Z" fill="#244414" stroke="#244414" stroke-width="1.51"/><path d="M395,-178L412,-15L536,-62Z" fill="#153925" stroke="#153925" stroke-width="1.51"/><path d="M385,379L512,370L515,285Z" fill="#204117" stroke="#204117" stroke-width="1.51"/><path d="M412,-15L357,134L523,75Z" fill="#173b21" stroke="#173b21" stroke-width="1.51"/><path d="M390,574L404,679L509,660Z" fill="#234315" stroke="#234315" stroke-width="1.51"/><path d="M344,248L385,379L515,285Z" fill="#1e401a" stroke="#1e401a" stroke-width="1.51"/><path d="M344,803L214,949L384,978Z" fill="#173b20" stroke="#173b20" stroke-width="1.51"/><path d="M249,373L212,538L385,379Z" fill="#214118" stroke="#214118" stroke-width="1.51"/><path d="M385,379L212,538L390,574Z" fill="#224217" stroke="#224217" stroke-width="1.51"/><path d="M390,574L222,693L404,679Z" fill="#224217" stroke="#224217" stroke-width="1.51"/><path d="M219,91L357,134L412,-15Z" fill="#163a22" stroke="#163a22" stroke-width="1.51"/><path d="M204,-67L219,91L412,-15Z" fill="#133825" stroke="#133825" stroke-width="1.51"/><path d="M395,-178L258,-158L412,-15Z" fill="#133628" stroke="#133628" stroke-width="1.51"/><path d="M258,-158L204,-67L412,-15Z" fill="#123727" stroke="#123727" stroke-width="1.51"/><path d="M222,693L344,803L404,679Z" fill="#1f401a" stroke="#1f401a" stroke-width="1.51"/><path d="M270,1265L356,1259L357,1112Z" fill="#133628" stroke="#133628" stroke-width="1.51"/><path d="M230,1086L357,1112L384,978Z" fill="#153924" stroke="#153924" stroke-width="1.51"/><path d="M344,248L249,373L385,379Z" fill="#1e3f1a" stroke="#1e3f1a" stroke-width="1.51"/><path d="M212,538L222,693L390,574Z" fill="#214118" stroke="#214118" stroke-width="1.51"/><path d="M214,949L230,1086L384,978Z" fill="#153923" stroke="#153923" stroke-width="1.51"/><path d="M252,214L249,373L344,248Z" fill="#1b3d1d" stroke="#1b3d1d" stroke-width="1.51"/><path d="M219,801L214,949L344,803Z" fill="#193c1f" stroke="#193c1f" stroke-width="1.51"/><path d="M222,693L219,801L344,803Z" fill="#1d3e1d" stroke="#1d3e1d" stroke-width="1.51"/><path d="M230,1086L270,1265L357,1112Z" fill="#133727" stroke="#133727" stroke-width="1.51"/><path d="M252,214L344,248L357,134Z" fill="#183c1f" stroke="#183c1f" stroke-width="1.51"/><path d="M219,91L252,214L357,134Z" fill="#163a21" stroke="#163a21" stroke-width="1.51"/><path d="M-189,-184L-52,-165L118,-217Z" fill="#0a3132" stroke="#0a3132" stroke-width="1.51"/><path d="M57,416L212,538L249,373Z" fill="#21401a" stroke="#21401a" stroke-width="1.51"/><path d="M119,224L249,373L252,214Z" fill="#1a3c1e" stroke="#1a3c1e" stroke-width="1.51"/><path d="M230,1086L114,1136L270,1265Z" fill="#103628" stroke="#103628" stroke-width="1.51"/><path d="M114,1136L119,1284L270,1265Z" fill="#0f342c" stroke="#0f342c" stroke-width="1.51"/><path d="M219,91L117,137L252,214Z" fill="#153923" stroke="#153923" stroke-width="1.51"/><path d="M117,137L119,224L252,214Z" fill="#163a22" stroke="#163a22" stroke-width="1.51"/><path d="M118,-217L204,-67L258,-158Z" fill="#10342b" stroke="#10342b" stroke-width="1.51"/><path d="M212,538L71,660L222,693Z" fill="#21401a" stroke="#21401a" stroke-width="1.51"/><path d="M119,224L57,416L249,373Z" fill="#1d3d1d" stroke="#1d3d1d" stroke-width="1.51"/><path d="M77,534L71,660L212,538Z" fill="#20401b" stroke="#20401b" stroke-width="1.51"/><path d="M57,416L77,534L212,538Z" fill="#20401b" stroke="#20401b" stroke-width="1.51"/><path d="M64,796L69,955L214,949Z" fill="#143923" stroke="#143923" stroke-width="1.51"/><path d="M204,-67L71,-71L219,91Z" fill="#113726" stroke="#113726" stroke-width="1.51"/><path d="M71,-71L117,137L219,91Z" fill="#123725" stroke="#123725" stroke-width="1.51"/><path d="M64,796L214,949L219,801Z" fill="#183b20" stroke="#183b20" stroke-width="1.51"/><path d="M64,796L219,801L222,693Z" fill="#1c3d1e" stroke="#1c3d1e" stroke-width="1.51"/><path d="M71,660L64,796L222,693Z" fill="#1e3e1d" stroke="#1e3e1d" stroke-width="1.51"/><path d="M214,949L69,955L230,1086Z" fill="#143824" stroke="#143824" stroke-width="1.51"/><path d="M69,955L114,1136L230,1086Z" fill="#123726" stroke="#123726" stroke-width="1.51"/><path d="M118,-217L71,-71L204,-67Z" fill="#0f342b" stroke="#0f342b" stroke-width="1.51"/><path d="M64,796L-47,861L69,955Z" fill="#153924" stroke="#153924" stroke-width="1.51"/><path d="M-87,-27L-58,104L71,-71Z" fill="#0f352a" stroke="#0f352a" stroke-width="1.51"/><path d="M69,955L-51,1097L114,1136Z" fill="#103628" stroke="#103628" stroke-width="1.51"/><path d="M-51,1097L-69,1286L114,1136Z" fill="#0d332d" stroke="#0d332d" stroke-width="1.51"/><path d="M71,-71L-58,104L117,137Z" fill="#113727" stroke="#113727" stroke-width="1.51"/><path d="M-58,104L-34,274L117,137Z" fill="#143825" stroke="#143825" stroke-width="1.51"/><path d="M-52,-165L71,-71L118,-217Z" fill="#0c332e" stroke="#0c332e" stroke-width="1.51"/><path d="M117,137L-34,274L119,224Z" fill="#153a23" stroke="#153a23" stroke-width="1.51"/><path d="M-34,274L57,416L119,224Z" fill="#1a3c21" stroke="#1a3c21" stroke-width="1.51"/><path d="M114,1136L-69,1286L119,1284Z" fill="#0d322e" stroke="#0d322e" stroke-width="1.51"/><path d="M-34,274L-43,391L57,416Z" fill="#1d3c21" stroke="#1d3c21" stroke-width="1.51"/><path d="M-70,981L-51,1097L69,955Z" fill="#113628" stroke="#113628" stroke-width="1.51"/><path d="M-89,670L64,796L71,660Z" fill="#1d3d1f" stroke="#1d3d1f" stroke-width="1.51"/><path d="M-38,511L-89,670L71,660Z" fill="#203e1f" stroke="#203e1f" stroke-width="1.51"/><path d="M-38,511L71,660L77,534Z" fill="#203f1d" stroke="#203f1d" stroke-width="1.51"/><path d="M57,416L-38,511L77,534Z" fill="#203f1d" stroke="#203f1d" stroke-width="1.51"/><path d="M-89,670L-47,861L64,796Z" fill="#1a3b23" stroke="#1a3b23" stroke-width="1.51"/><path d="M-47,861L-70,981L69,955Z" fill="#133727" stroke="#133727" stroke-width="1.51"/><path d="M-52,-165L-87,-27L71,-71Z" fill="#0d332d" stroke="#0d332d" stroke-width="1.51"/><path d="M-43,391L-38,511L57,416Z" fill="#203e1f" stroke="#203e1f" stroke-width="1.51"/><path d="M-169,681L-199,800L-89,670Z" fill="#1d3a25" stroke="#1d3a25" stroke-width="1.51"/><path d="M-207,1125L-198,1278L-69,1286Z" fill="#093033" stroke="#093033" stroke-width="1.51"/><path d="M-215,108L-192,258L-58,104Z" fill="#13352a" stroke="#13352a" stroke-width="1.51"/><path d="M-207,1125L-69,1286L-51,1097Z" fill="#0b3230" stroke="#0b3230" stroke-width="1.51"/><path d="M-89,670L-199,800L-47,861Z" fill="#1a3925" stroke="#1a3925" stroke-width="1.51"/><path d="M-229,394L-185,524L-43,391Z" fill="#203c23" stroke="#203c23" stroke-width="1.51"/><path d="M-192,258L-229,394L-43,391Z" fill="#1c3a25" stroke="#1c3a25" stroke-width="1.51"/><path d="M-43,391L-185,524L-38,511Z" fill="#203d21" stroke="#203d21" stroke-width="1.51"/><path d="M-185,524L-89,670L-38,511Z" fill="#203d22" stroke="#203d22" stroke-width="1.51"/><path d="M-192,258L-43,391L-34,274Z" fill="#1a3a24" stroke="#1a3a24" stroke-width="1.51"/><path d="M-58,104L-192,258L-34,274Z" fill="#153727" stroke="#153727" stroke-width="1.51"/><path d="M-189,-184L-87,-27L-52,-165Z" fill="#0a3131" stroke="#0a3131" stroke-width="1.51"/><path d="M-70,981L-207,1125L-51,1097Z" fill="#0e342c" stroke="#0e342c" stroke-width="1.51"/><path d="M-228,983L-70,981L-47,861Z" fill="#123529" stroke="#123529" stroke-width="1.51"/><path d="M-199,800L-228,983L-47,861Z" fill="#143629" stroke="#143629" stroke-width="1.51"/><path d="M-189,-184L-219,-59L-87,-27Z" fill="#0b3131" stroke="#0b3131" stroke-width="1.51"/><path d="M-87,-27L-215,108L-58,104Z" fill="#10342b" stroke="#10342b" stroke-width="1.51"/><path d="M-228,983L-207,1125L-70,981Z" fill="#0f332d" stroke="#0f332d" stroke-width="1.51"/><path d="M-185,524L-169,681L-89,670Z" fill="#203c23" stroke="#203c23" stroke-width="1.51"/><path d="M-219,-59L-215,108L-87,-27Z" fill="#0d332e" stroke="#0d332e" stroke-width="1.51"/><path d="M-185,524L-199,800L-169,681Z" fill="#1f3b24" stroke="#1f3b24" stroke-width="1.51"/><path d="M-229,394L-199,800L-185,524Z" fill="#203b24" stroke="#203b24" stroke-width="1.51"/><path d="M-215,108L-229,394L-192,258Z" fill="#173729" stroke="#173729" stroke-width="1.51"/><path d="M-229,394L-228,983L-199,800Z" fill="#1c3926" stroke="#1c3926" stroke-width="1.51"/><path d="M-207,1125L-228,983L-198,1278Z" fill="#0a3131" stroke="#0a3131" stroke-width="1.51"/><path d="M-219,-59L-229,394L-215,108Z" fill="#11342c" stroke="#11342c" stroke-width="1.51"/></svg>