<svg xmlns="http://www.w3.org/2000/svg" width="1920" height="1080"><path d="M480,1265L-161,1254L696,1273Z" fill="#11342d" stroke="#11342d" stroke-width="1.51"/><path d="M232,-194L982,-187L1196,-187Z" fill="#1f3b25" stroke="#1f3b25" stroke-width="1.51"/><path d="M1333,1219L1123,1214L1425,1236Z" fill="#1a3926" stroke="#1a3926" stroke-width="1.51"/><path d="M1123,1214L955,1231L1425,1236Z" fill="#1e3b24" stroke="#1e3b24" stroke-width="1.51"/><path d="M955,1231L696,1273L1425,1236Z" fill="#203b24" stroke="#203b24" stroke-width="1.51"/><path d="M1196,-187L1479,-135L1603,-142Z" fill="#153629" stroke="#153629" stroke-width="1.51"/><path d="M1425,1236L696,1273L1621,1264Z" fill="#1c3927" stroke="#1c3927" stroke-width="1.51"/><path d="M1196,-187L1603,-142L1679,-150Z" fill="#13352b" stroke="#13352b" stroke-width="1.51"/><path d="M1621,1264L696,1273L1797,1269Z" fill="#17362a" stroke="#17362a" stroke-width="1.51"/><path d="M1196,-187L1679,-150L1839,-172Z" fill="#11342c" stroke="#11342c" stroke-width="1.51"/><path d="M1997,956L2083,1020L2094,871Z" fill="#11342c" stroke="#11342c" stroke-width="1.51"/><path d="M2075,630L2048,732L2094,871Z" fill="#1b3827" stroke="#1b3827" stroke-width="1.51"/><path d="M2001,594L2075,630L2095,437Z" fill="#203c23" stroke="#203c23" stroke-width="1.51"/><path d="M1979,449L2001,594L2095,437Z" fill="#203c23" stroke="#203c23" stroke-width="1.51"/><path d="M2075,630L2094,871L2095,437Z" fill="#203b24" stroke="#203b24" stroke-width="1.51"/><path d="M2094,871L2083,1020L2100,1083Z" fill="#0f332e" stroke="#0f332e" stroke-width="1.51"/><path d="M1946,1226L1797,1269L2121,1242Z" fill="#083033" stroke="#083033" stroke-width="1.51"/><path d="M2100,1083L2000,1085L2121,1242Z" fill="#0a3032" stroke="#0a3032" stroke-width="1.51"/><path d="M2000,1085L1946,1226L2121,1242Z" fill="#093032" stroke="#093032" stroke-width="1.51"/><path d="M2094,871L2100,1083L2121,1242Z" fill="#0c3130" stroke="#0c3130" stroke-width="1.51"/><path d="M1839,-172L1924,-120L2122,-111Z" fill="#0a3032" stroke="#0a3032" stroke-width="1.51"/><path d="M1924,-120L1999,-69L2122,-111Z" fill="#093032" stroke="#093032" stroke-width="1.51"/><path d="M2075,-42L2105,92L2122,-111Z" fill="#0a3131" stroke="#0a3131" stroke-width="1.51"/><path d="M1973,346L2075,357L2130,263Z" fill="#1a3926" stroke="#1a3926" stroke-width="1.51"/><path d="M1935,194L1973,346L2130,263Z" fill="#173827" stroke="#173827" stroke-width="1.51"/><path d="M2105,92L1935,194L2130,263Z" fill="#13352a" stroke="#13352a" stroke-width="1.51"/><path d="M2075,357L2095,437L2130,263Z" fill="#1c3827" stroke="#1c3827" stroke-width="1.51"/><path d="M2094,871L2121,1242L2130,263Z" fill="#183729" stroke="#183729" stroke-width="1.51"/><path d="M2095,437L2094,871L2130,263Z" fill="#203b25" stroke="#203b25" stroke-width="1.51"/><path d="M2122,-111L2105,92L2130,263Z" fill="#0e322f" stroke="#0e322f" stroke-width="1.51"/><path d="M1999,-69L2075,-42L2122,-111Z" fill="#093033" stroke="#093033" stroke-width="1.51"/><path d="M2048,732L1972,880L2094,871Z" fill="#163728" stroke="#163728" stroke-width="1.51"/><path d="M2075,-42L1999,-69L2105,92Z" fill="#0c322f" stroke="#0c322f" stroke-width="1.51"/><path d="M1999,-69L1914,133L2105,92Z" fill="#0f342d" stroke="#0f342d" stroke-width="1.51"/><path d="M1914,133L1935,194L2105,92Z" fill="#12352a" stroke="#12352a" stroke-width="1.51"/><path d="M1196,-187L1360,-141L1479,-135Z" fill="#183827" stroke="#183827" stroke-width="1.51"/><path d="M1972,880L1997,956L2094,871Z" fill="#133629" stroke="#133629" stroke-width="1.51"/><path d="M2075,357L1979,449L2095,437Z" fill="#1f3b24" stroke="#1f3b24" stroke-width="1.51"/><path d="M2083,1020L2000,1085L2100,1083Z" fill="#0d322f" stroke="#0d322f" stroke-width="1.51"/><path d="M1877,-12L1914,133L1999,-69Z" fill="#0e342b" stroke="#0e342b" stroke-width="1.51"/><path d="M1938,747L1972,880L2048,732Z" fill="#193926" stroke="#193926" stroke-width="1.51"/><path d="M1973,346L1979,449L2075,357Z" fill="#1d3b24" stroke="#1d3b24" stroke-width="1.51"/><path d="M2001,594L2048,732L2075,630Z" fill="#203c23" stroke="#203c23" stroke-width="1.51"/><path d="M1997,956L2000,1085L2083,1020Z" fill="#0f342d" stroke="#0f342d" stroke-width="1.51"/><path d="M232,-194L552,-143L982,-187Z" fill="#193828" stroke="#193828" stroke-width="1.51"/><path d="M2001,594L1938,747L2048,732Z" fill="#1e3b23" stroke="#1e3b23" stroke-width="1.51"/><path d="M232,-194L341,-168L552,-143Z" fill="#11342c" stroke="#11342c" stroke-width="1.51"/><path d="M1935,194L1855,217L1973,346Z" fill="#163925" stroke="#163925" stroke-width="1.51"/><path d="M1839,953L1849,1064L1997,956Z" fill="#113629" stroke="#113629" stroke-width="1.51"/><path d="M1924,-120L1877,-12L1999,-69Z" fill="#0c322f" stroke="#0c322f" stroke-width="1.51"/><path d="M1997,956L1849,1064L2000,1085Z" fill="#0f342b" stroke="#0f342b" stroke-width="1.51"/><path d="M1849,1064L1946,1226L2000,1085Z" fill="#0d332e" stroke="#0d332e" stroke-width="1.51"/><path d="M1867,741L1938,747L2001,594Z" fill="#1e3c21" stroke="#1e3c21" stroke-width="1.51"/><path d="M1819,589L1867,741L2001,594Z" fill="#203e1f" stroke="#203e1f" stroke-width="1.51"/><path d="M1979,449L1820,523L2001,594Z" fill="#203d20" stroke="#203d20" stroke-width="1.51"/><path d="M1820,523L1819,589L2001,594Z" fill="#203e1e" stroke="#203e1e" stroke-width="1.51"/><path d="M1972,880L1839,953L1997,956Z" fill="#123628" stroke="#123628" stroke-width="1.51"/><path d="M1938,747L1867,741L1972,880Z" fill="#193924" stroke="#193924" stroke-width="1.51"/><path d="M1867,741L1789,810L1972,880Z" fill="#183a23" stroke="#183a23" stroke-width="1.51"/><path d="M1855,217L1816,347L1973,346Z" fill="#193b22" stroke="#193b22" stroke-width="1.51"/><path d="M1973,346L1816,347L1979,449Z" fill="#1d3c21" stroke="#1d3c21" stroke-width="1.51"/><path d="M1816,347L1820,523L1979,449Z" fill="#203e1e" stroke="#203e1e" stroke-width="1.51"/><path d="M1789,810L1839,953L1972,880Z" fill="#143825" stroke="#143825" stroke-width="1.51"/><path d="M1877,-12L1820,110L1914,133Z" fill="#113628" stroke="#113628" stroke-width="1.51"/><path d="M1849,1064L1797,1269L1946,1226Z" fill="#0c322e" stroke="#0c322e" stroke-width="1.51"/><path d="M1752,1236L1797,1269L1849,1064Z" fill="#0d332d" stroke="#0d332d" stroke-width="1.51"/><path d="M1914,133L1855,217L1935,194Z" fill="#143726" stroke="#143726" stroke-width="1.51"/><path d="M1816,347L1751,437L1820,523Z" fill="#203f1c" stroke="#203f1c" stroke-width="1.51"/><path d="M1839,-172L1877,-12L1924,-120Z" fill="#0c322f" stroke="#0c322f" stroke-width="1.51"/><path d="M1820,110L1855,217L1914,133Z" fill="#133726" stroke="#133726" stroke-width="1.51"/><path d="M1210,1208L1123,1214L1333,1219Z" fill="#1d3b25" stroke="#1d3b25" stroke-width="1.51"/><path d="M1679,-150L1671,-25L1839,-172Z" fill="#0f342c" stroke="#0f342c" stroke-width="1.51"/><path d="M1680,1092L1752,1236L1849,1064Z" fill="#0f352a" stroke="#0f352a" stroke-width="1.51"/><path d="M1819,589L1698,644L1867,741Z" fill="#203f1c" stroke="#203f1c" stroke-width="1.51"/><path d="M1753,106L1820,110L1877,-12Z" fill="#113727" stroke="#113727" stroke-width="1.51"/><path d="M1671,-25L1753,106L1877,-12Z" fill="#113727" stroke="#113727" stroke-width="1.51"/><path d="M1839,-172L1671,-25L1877,-12Z" fill="#0e342b" stroke="#0e342b" stroke-width="1.51"/><path d="M1839,953L1728,1000L1849,1064Z" fill="#113727" stroke="#113727" stroke-width="1.51"/><path d="M1707,310L1816,347L1855,217Z" fill="#193b21" stroke="#193b21" stroke-width="1.51"/><path d="M1687,761L1789,810L1867,741Z" fill="#1a3c1f" stroke="#1a3c1f" stroke-width="1.51"/><path d="M1698,644L1687,761L1867,741Z" fill="#1d3e1d" stroke="#1d3e1d" stroke-width="1.51"/><path d="M1789,810L1694,859L1839,953Z" fill="#153a23" stroke="#153a23" stroke-width="1.51"/><path d="M1703,211L1707,310L1855,217Z" fill="#173b21" stroke="#173b21" stroke-width="1.51"/><path d="M1820,110L1753,106L1855,217Z" fill="#133825" stroke="#133825" stroke-width="1.51"/><path d="M1753,106L1703,211L1855,217Z" fill="#143923" stroke="#143923" stroke-width="1.51"/><path d="M1728,1000L1680,1092L1849,1064Z" fill="#113727" stroke="#113727" stroke-width="1.51"/><path d="M1694,859L1728,1000L1839,953Z" fill="#143824" stroke="#143824" stroke-width="1.51"/><path d="M1752,1236L1621,1264L1797,1269Z" fill="#0e332e" stroke="#0e332e" stroke-width="1.51"/><path d="M1698,644L1819,589L1820,523Z" fill="#20401b" stroke="#20401b" stroke-width="1.51"/><path d="M1751,437L1698,644L1820,523Z" fill="#20401b" stroke="#20401b" stroke-width="1.51"/><path d="M1707,310L1751,437L1816,347Z" fill="#1d3e1d" stroke="#1d3e1d" stroke-width="1.51"/><path d="M1617,634L1698,644L1751,437Z" fill="#214019" stroke="#214019" stroke-width="1.51"/><path d="M1687,761L1694,859L1789,810Z" fill="#193c1f" stroke="#193c1f" stroke-width="1.51"/><path d="M1542,511L1617,634L1751,437Z" fill="#214119" stroke="#214119" stroke-width="1.51"/><path d="M1707,310L1595,327L1751,437Z" fill="#1d3f1c" stroke="#1d3f1c" stroke-width="1.51"/><path d="M1680,1092L1621,1264L1752,1236Z" fill="#10342b" stroke="#10342b" stroke-width="1.51"/><path d="M1671,-25L1623,-8L1753,106Z" fill="#123826" stroke="#123826" stroke-width="1.51"/><path d="M1623,-8L1579,111L1753,106Z" fill="#143824" stroke="#143824" stroke-width="1.51"/><path d="M1579,111L1703,211L1753,106Z" fill="#153923" stroke="#153923" stroke-width="1.51"/><path d="M1595,327L1542,511L1751,437Z" fill="#214118" stroke="#214118" stroke-width="1.51"/><path d="M1577,1132L1621,1264L1680,1092Z" fill="#113629" stroke="#113629" stroke-width="1.51"/><path d="M1694,859L1571,968L1728,1000Z" fill="#153923" stroke="#153923" stroke-width="1.51"/><path d="M1571,968L1680,1092L1728,1000Z" fill="#133824" stroke="#133824" stroke-width="1.51"/><path d="M1603,-142L1671,-25L1679,-150Z" fill="#10352a" stroke="#10352a" stroke-width="1.51"/><path d="M1687,761L1623,820L1694,859Z" fill="#193c1f" stroke="#193c1f" stroke-width="1.51"/><path d="M1617,634L1687,761L1698,644Z" fill="#20401a" stroke="#20401a" stroke-width="1.51"/><path d="M1567,232L1595,327L1703,211Z" fill="#193c1e" stroke="#193c1e" stroke-width="1.51"/><path d="M1579,111L1567,232L1703,211Z" fill="#173b21" stroke="#173b21" stroke-width="1.51"/><path d="M1703,211L1595,327L1707,310Z" fill="#1a3d1e" stroke="#1a3d1e" stroke-width="1.51"/><path d="M1617,634L1550,713L1687,761Z" fill="#1f401a" stroke="#1f401a" stroke-width="1.51"/><path d="M1623,820L1571,968L1694,859Z" fill="#173b20" stroke="#173b20" stroke-width="1.51"/><path d="M1603,-142L1623,-8L1671,-25Z" fill="#123628" stroke="#123628" stroke-width="1.51"/><path d="M1571,968L1577,1132L1680,1092Z" fill="#133825" stroke="#133825" stroke-width="1.51"/><path d="M1550,713L1623,820L1687,761Z" fill="#1c3e1c" stroke="#1c3e1c" stroke-width="1.51"/><path d="M164,1225L-161,1254L480,1265Z" fill="#0d322f" stroke="#0d322f" stroke-width="1.51"/><path d="M1571,968L1490,1074L1577,1132Z" fill="#143924" stroke="#143924" stroke-width="1.51"/><path d="M1482,355L1542,511L1595,327Z" fill="#204118" stroke="#204118" stroke-width="1.51"/><path d="M1542,511L1484,647L1617,634Z" fill="#224217" stroke="#224217" stroke-width="1.51"/><path d="M1577,1132L1425,1236L1621,1264Z" fill="#123529" stroke="#123529" stroke-width="1.51"/><path d="M1499,831L1571,968L1623,820Z" fill="#183c1f" stroke="#183c1f" stroke-width="1.51"/><path d="M1550,713L1499,831L1623,820Z" fill="#1c3e1c" stroke="#1c3e1c" stroke-width="1.51"/><path d="M1499,117L1579,111L1623,-8Z" fill="#153923" stroke="#153923" stroke-width="1.51"/><path d="M1450,-42L1499,117L1623,-8Z" fill="#143923" stroke="#143923" stroke-width="1.51"/><path d="M1603,-142L1479,-135L1623,-8Z" fill="#133628" stroke="#133628" stroke-width="1.51"/><path d="M1479,-135L1450,-42L1623,-8Z" fill="#143727" stroke="#143727" stroke-width="1.51"/><path d="M1484,647L1550,713L1617,634Z" fill="#214117" stroke="#214117" stroke-width="1.51"/><path d="M1499,117L1567,232L1579,111Z" fill="#173b21" stroke="#173b21" stroke-width="1.51"/><path d="M1567,232L1482,355L1595,327Z" fill="#1c3e1c" stroke="#1c3e1c" stroke-width="1.51"/><path d="M1469,753L1499,831L1550,713Z" fill="#1d3f1a" stroke="#1d3f1a" stroke-width="1.51"/><path d="M1499,117L1457,212L1567,232Z" fill="#183c1f" stroke="#183c1f" stroke-width="1.51"/><path d="M1457,212L1482,355L1567,232Z" fill="#1b3e1c" stroke="#1b3e1c" stroke-width="1.51"/><path d="M1499,831L1417,981L1571,968Z" fill="#183b20" stroke="#183b20" stroke-width="1.51"/><path d="M1490,1074L1425,1236L1577,1132Z" fill="#143726" stroke="#143726" stroke-width="1.51"/><path d="M1482,355L1414,488L1542,511Z" fill="#234315" stroke="#234315" stroke-width="1.51"/><path d="M1417,981L1490,1074L1571,968Z" fill="#163a22" stroke="#163a22" stroke-width="1.51"/><path d="M1414,488L1484,647L1542,511Z" fill="#234315" stroke="#234315" stroke-width="1.51"/><path d="M1484,647L1469,753L1550,713Z" fill="#204118" stroke="#204118" stroke-width="1.51"/><path d="M1457,212L1322,265L1482,355Z" fill="#1e3f1a" stroke="#1e3f1a" stroke-width="1.51"/><path d="M1414,488L1312,561L1484,647Z" fill="#244413" stroke="#244413" stroke-width="1.51"/><path d="M1372,1098L1425,1236L1490,1074Z" fill="#163824" stroke="#163824" stroke-width="1.51"/><path d="M1450,-42L1304,-12L1499,117Z" fill="#173b21" stroke="#173b21" stroke-width="1.51"/><path d="M1304,-12L1292,141L1499,117Z" fill="#1a3d1e" stroke="#1a3d1e" stroke-width="1.51"/><path d="M1292,141L1457,212L1499,117Z" fill="#1a3d1e" stroke="#1a3d1e" stroke-width="1.51"/><path d="M1469,753L1371,863L1499,831Z" fill="#1c3f1b" stroke="#1c3f1b" stroke-width="1.51"/><path d="M1371,863L1417,981L1499,831Z" fill="#1a3d1d" stroke="#1a3d1d" stroke-width="1.51"/><path d="M1304,366L1414,488L1482,355Z" fill="#234315" stroke="#234315" stroke-width="1.51"/><path d="M1312,561L1344,693L1484,647Z" fill="#254413" stroke="#254413" stroke-width="1.51"/><path d="M1344,693L1469,753L1484,647Z" fill="#214216" stroke="#214216" stroke-width="1.51"/><path d="M1417,981L1372,1098L1490,1074Z" fill="#173a21" stroke="#173a21" stroke-width="1.51"/><path d="M1360,-141L1450,-42L1479,-135Z" fill="#153727" stroke="#153727" stroke-width="1.51"/><path d="M1322,265L1304,366L1482,355Z" fill="#214117" stroke="#214117" stroke-width="1.51"/><path d="M1304,366L1341,479L1414,488Z" fill="#264512" stroke="#264512" stroke-width="1.51"/><path d="M1344,693L1371,863L1469,753Z" fill="#204118" stroke="#204118" stroke-width="1.51"/><path d="M1371,863L1347,951L1417,981Z" fill="#1a3d1d" stroke="#1a3d1d" stroke-width="1.51"/><path d="M1372,1098L1333,1219L1425,1236Z" fill="#183826" stroke="#183826" stroke-width="1.51"/><path d="M1292,141L1322,265L1457,212Z" fill="#1d3f1b" stroke="#1d3f1b" stroke-width="1.51"/><path d="M1360,-141L1304,-12L1450,-42Z" fill="#183924" stroke="#183924" stroke-width="1.51"/><path d="M1341,479L1312,561L1414,488Z" fill="#264512" stroke="#264512" stroke-width="1.51"/><path d="M1347,951L1372,1098L1417,981Z" fill="#193c1f" stroke="#193c1f" stroke-width="1.51"/><path d="M1251,89L1292,141L1304,-12Z" fill="#1d3e1d" stroke="#1d3e1d" stroke-width="1.51"/><path d="M1215,814L1347,951L1371,863Z" fill="#1d401a" stroke="#1d401a" stroke-width="1.51"/><path d="M1344,693L1215,814L1371,863Z" fill="#214217" stroke="#214217" stroke-width="1.51"/><path d="M1233,1146L1333,1219L1372,1098Z" fill="#1a3a24" stroke="#1a3a24" stroke-width="1.51"/><path d="M1347,951L1231,971L1372,1098Z" fill="#1b3d1e" stroke="#1b3d1e" stroke-width="1.51"/><path d="M1231,971L1233,1146L1372,1098Z" fill="#1b3d1f" stroke="#1b3d1f" stroke-width="1.51"/><path d="M1215,814L1231,971L1347,951Z" fill="#1f3f1a" stroke="#1f3f1a" stroke-width="1.51"/><path d="M1312,561L1187,619L1344,693Z" fill="#284610" stroke="#284610" stroke-width="1.51"/><path d="M1196,-187L1304,-12L1360,-141Z" fill="#1b3924" stroke="#1b3924" stroke-width="1.51"/><path d="M1304,366L1172,495L1341,479Z" fill="#284610" stroke="#284610" stroke-width="1.51"/><path d="M1167,750L1215,814L1344,693Z" fill="#254414" stroke="#254414" stroke-width="1.51"/><path d="M1187,619L1167,750L1344,693Z" fill="#274610" stroke="#274610" stroke-width="1.51"/><path d="M1196,-187L1172,-11L1304,-12Z" fill="#1d3c21" stroke="#1d3c21" stroke-width="1.51"/><path d="M1172,495L1312,561L1341,479Z" fill="#284610" stroke="#284610" stroke-width="1.51"/><path d="M1223,343L1172,495L1304,366Z" fill="#284610" stroke="#284610" stroke-width="1.51"/><path d="M1292,141L1185,231L1322,265Z" fill="#1f4018" stroke="#1f4018" stroke-width="1.51"/><path d="M1223,343L1304,366L1322,265Z" fill="#244315" stroke="#244315" stroke-width="1.51"/><path d="M1233,1146L1210,1208L1333,1219Z" fill="#1c3a24" stroke="#1c3a24" stroke-width="1.51"/><path d="M1185,231L1223,343L1322,265Z" fill="#234216" stroke="#234216" stroke-width="1.51"/><path d="M1172,495L1187,619L1312,561Z" fill="#29470e" stroke="#29470e" stroke-width="1.51"/><path d="M1172,-11L1251,89L1304,-12Z" fill="#1d3e1e" stroke="#1d3e1e" stroke-width="1.51"/><path d="M1231,971L1130,1006L1233,1146Z" fill="#1e3f1c" stroke="#1e3f1c" stroke-width="1.51"/><path d="M1251,89L1185,231L1292,141Z" fill="#1f401a" stroke="#1f401a" stroke-width="1.51"/><path d="M982,-187L1072,-148L1196,-187Z" fill="#203b24" stroke="#203b24" stroke-width="1.51"/><path d="M1098,373L1172,495L1223,343Z" fill="#29470e" stroke="#29470e" stroke-width="1.51"/><path d="M1215,814L1130,1006L1231,971Z" fill="#204119" stroke="#204119" stroke-width="1.51"/><path d="M1130,1006L1087,1144L1233,1146Z" fill="#1f3e1d" stroke="#1f3e1d" stroke-width="1.51"/><path d="M1107,148L1185,231L1251,89Z" fill="#214118" stroke="#214118" stroke-width="1.51"/><path d="M1172,-11L1107,148L1251,89Z" fill="#203f1b" stroke="#203f1b" stroke-width="1.51"/><path d="M1072,-148L1172,-11L1196,-187Z" fill="#1f3c22" stroke="#1f3c22" stroke-width="1.51"/><path d="M1064,812L1130,1006L1215,814Z" fill="#224216" stroke="#224216" stroke-width="1.51"/><path d="M1123,1214L1210,1208L1233,1146Z" fill="#1e3c23" stroke="#1e3c23" stroke-width="1.51"/><path d="M1087,1144L1123,1214L1233,1146Z" fill="#1f3d21" stroke="#1f3d21" stroke-width="1.51"/><path d="M1185,231L1098,373L1223,343Z" fill="#264512" stroke="#264512" stroke-width="1.51"/><path d="M861,1222L696,1273L955,1231Z" fill="#203b24" stroke="#203b24" stroke-width="1.51"/><path d="M1072,-148L1084,-20L1172,-11Z" fill="#203e1f" stroke="#203e1f" stroke-width="1.51"/><path d="M1094,724L1167,750L1187,619Z" fill="#29470e" stroke="#29470e" stroke-width="1.51"/><path d="M1172,495L1099,516L1187,619Z" fill="#2b480b" stroke="#2b480b" stroke-width="1.51"/><path d="M1167,750L1064,812L1215,814Z" fill="#254413" stroke="#254413" stroke-width="1.51"/><path d="M552,-143L717,-112L982,-187Z" fill="#1e3b24" stroke="#1e3b24" stroke-width="1.51"/><path d="M1084,-20L1107,148L1172,-11Z" fill="#20401b" stroke="#20401b" stroke-width="1.51"/><path d="M1070,211L1098,373L1185,231Z" fill="#254413" stroke="#254413" stroke-width="1.51"/><path d="M1098,373L1099,516L1172,495Z" fill="#2b490a" stroke="#2b490a" stroke-width="1.51"/><path d="M1107,148L1070,211L1185,231Z" fill="#224216" stroke="#224216" stroke-width="1.51"/><path d="M1099,516L1048,582L1187,619Z" fill="#2b490a" stroke="#2b490a" stroke-width="1.51"/><path d="M1048,582L1094,724L1187,619Z" fill="#2b490a" stroke="#2b490a" stroke-width="1.51"/><path d="M1094,724L1064,812L1167,750Z" fill="#274611" stroke="#274611" stroke-width="1.51"/><path d="M1084,-20L998,57L1107,148Z" fill="#21401a" stroke="#21401a" stroke-width="1.51"/><path d="M717,-112L838,-120L982,-187Z" fill="#203c23" stroke="#203c23" stroke-width="1.51"/><path d="M933,865L943,985L1064,812Z" fill="#224216" stroke="#224216" stroke-width="1.51"/><path d="M1070,211L976,311L1098,373Z" fill="#264511" stroke="#264511" stroke-width="1.51"/><path d="M1098,373L977,522L1099,516Z" fill="#2b490a" stroke="#2b490a" stroke-width="1.51"/><path d="M1064,812L943,985L1130,1006Z" fill="#224217" stroke="#224217" stroke-width="1.51"/><path d="M984,1129L1087,1144L1130,1006Z" fill="#203f1d" stroke="#203f1d" stroke-width="1.51"/><path d="M943,985L984,1129L1130,1006Z" fill="#20401b" stroke="#20401b" stroke-width="1.51"/><path d="M1048,582L973,646L1094,724Z" fill="#2b490a" stroke="#2b490a" stroke-width="1.51"/><path d="M1087,1144L955,1231L1123,1214Z" fill="#203c22" stroke="#203c22" stroke-width="1.51"/><path d="M976,239L976,311L1070,211Z" fill="#244414" stroke="#244414" stroke-width="1.51"/><path d="M976,311L977,522L1098,373Z" fill="#2a480c" stroke="#2a480c" stroke-width="1.51"/><path d="M998,57L1070,211L1107,148Z" fill="#224117" stroke="#224117" stroke-width="1.51"/><path d="M1072,-148L963,-9L1084,-20Z" fill="#203e1f" stroke="#203e1f" stroke-width="1.51"/><path d="M984,1129L955,1231L1087,1144Z" fill="#203d20" stroke="#203d20" stroke-width="1.51"/><path d="M981,756L1064,812L1094,724Z" fill="#274511" stroke="#274511" stroke-width="1.51"/><path d="M977,522L1048,582L1099,516Z" fill="#2b490a" stroke="#2b490a" stroke-width="1.51"/><path d="M973,646L981,756L1094,724Z" fill="#29470e" stroke="#29470e" stroke-width="1.51"/><path d="M998,57L976,239L1070,211Z" fill="#224217" stroke="#224217" stroke-width="1.51"/><path d="M982,-187L963,-9L1072,-148Z" fill="#203c22" stroke="#203c22" stroke-width="1.51"/><path d="M963,-9L998,57L1084,-20Z" fill="#203f1c" stroke="#203f1c" stroke-width="1.51"/><path d="M976,311L862,448L977,522Z" fill="#2b490b" stroke="#2b490b" stroke-width="1.51"/><path d="M981,756L933,865L1064,812Z" fill="#254413" stroke="#254413" stroke-width="1.51"/><path d="M977,522L973,646L1048,582Z" fill="#2b490a" stroke="#2b490a" stroke-width="1.51"/><path d="M875,328L862,448L976,311Z" fill="#29470e" stroke="#29470e" stroke-width="1.51"/><path d="M873,-49L963,-9L982,-187Z" fill="#203d20" stroke="#203d20" stroke-width="1.51"/><path d="M838,-120L873,-49L982,-187Z" fill="#203c22" stroke="#203c22" stroke-width="1.51"/><path d="M943,985L836,1062L984,1129Z" fill="#20401b" stroke="#20401b" stroke-width="1.51"/><path d="M963,-9L795,107L998,57Z" fill="#21401a" stroke="#21401a" stroke-width="1.51"/><path d="M795,107L825,195L998,57Z" fill="#214118" stroke="#214118" stroke-width="1.51"/><path d="M825,195L976,239L998,57Z" fill="#224217" stroke="#224217" stroke-width="1.51"/><path d="M875,328L976,311L976,239Z" fill="#264512" stroke="#264512" stroke-width="1.51"/><path d="M791,627L973,646L977,522Z" fill="#2b490a" stroke="#2b490a" stroke-width="1.51"/><path d="M973,646L816,737L981,756Z" fill="#29470e" stroke="#29470e" stroke-width="1.51"/><path d="M816,737L933,865L981,756Z" fill="#264512" stroke="#264512" stroke-width="1.51"/><path d="M861,1222L955,1231L984,1129Z" fill="#203c22" stroke="#203c22" stroke-width="1.51"/><path d="M836,1062L861,1222L984,1129Z" fill="#203e1f" stroke="#203e1f" stroke-width="1.51"/><path d="M873,-49L795,107L963,-9Z" fill="#203f1b" stroke="#203f1b" stroke-width="1.51"/><path d="M862,448L791,627L977,522Z" fill="#2b490a" stroke="#2b490a" stroke-width="1.51"/><path d="M825,195L875,328L976,239Z" fill="#244414" stroke="#244414" stroke-width="1.51"/><path d="M791,627L816,737L973,646Z" fill="#2a480c" stroke="#2a480c" stroke-width="1.51"/><path d="M816,737L796,832L933,865Z" fill="#254413" stroke="#254413" stroke-width="1.51"/><path d="M933,865L803,953L943,985Z" fill="#224217" stroke="#224217" stroke-width="1.51"/><path d="M803,953L836,1062L943,985Z" fill="#214019" stroke="#214019" stroke-width="1.51"/><path d="M796,832L803,953L933,865Z" fill="#224216" stroke="#224216" stroke-width="1.51"/><path d="M836,1062L714,1146L861,1222Z" fill="#203e1f" stroke="#203e1f" stroke-width="1.51"/><path d="M709,463L791,627L862,448Z" fill="#2b490a" stroke="#2b490a" stroke-width="1.51"/><path d="M670,22L730,93L873,-49Z" fill="#1f3f1c" stroke="#1f3f1c" stroke-width="1.51"/><path d="M717,-112L670,22L873,-49Z" fill="#1e3e1f" stroke="#1e3e1f" stroke-width="1.51"/><path d="M730,93L795,107L873,-49Z" fill="#21401b" stroke="#21401b" stroke-width="1.51"/><path d="M825,195L696,236L875,328Z" fill="#244414" stroke="#244414" stroke-width="1.51"/><path d="M696,236L678,311L875,328Z" fill="#254413" stroke="#254413" stroke-width="1.51"/><path d="M709,463L862,448L875,328Z" fill="#2b480b" stroke="#2b480b" stroke-width="1.51"/><path d="M678,311L709,463L875,328Z" fill="#28460f" stroke="#28460f" stroke-width="1.51"/><path d="M838,-120L717,-112L873,-49Z" fill="#203d20" stroke="#203d20" stroke-width="1.51"/><path d="M714,1146L696,1273L861,1222Z" fill="#1f3c23" stroke="#1f3c23" stroke-width="1.51"/><path d="M341,-168L470,-138L552,-143Z" fill="#13362a" stroke="#13362a" stroke-width="1.51"/><path d="M709,463L693,610L791,627Z" fill="#2a480c" stroke="#2a480c" stroke-width="1.51"/><path d="M796,832L752,935L803,953Z" fill="#224217" stroke="#224217" stroke-width="1.51"/><path d="M791,627L738,716L816,737Z" fill="#2a470d" stroke="#2a470d" stroke-width="1.51"/><path d="M803,953L752,935L836,1062Z" fill="#214119" stroke="#214119" stroke-width="1.51"/><path d="M752,935L714,1146L836,1062Z" fill="#203f1c" stroke="#203f1c" stroke-width="1.51"/><path d="M627,1011L714,1146L752,935Z" fill="#1e3e1d" stroke="#1e3e1d" stroke-width="1.51"/><path d="M738,716L796,832L816,737Z" fill="#274611" stroke="#274611" stroke-width="1.51"/><path d="M795,107L730,93L825,195Z" fill="#224118" stroke="#224118" stroke-width="1.51"/><path d="M730,93L696,236L825,195Z" fill="#214217" stroke="#214217" stroke-width="1.51"/><path d="M692,849L752,935L796,832Z" fill="#224217" stroke="#224217" stroke-width="1.51"/><path d="M738,716L692,849L796,832Z" fill="#244314" stroke="#244314" stroke-width="1.51"/><path d="M693,610L738,716L791,627Z" fill="#2a480d" stroke="#2a480d" stroke-width="1.51"/><path d="M621,-8L670,22L717,-112Z" fill="#1c3c20" stroke="#1c3c20" stroke-width="1.51"/><path d="M624,209L696,236L730,93Z" fill="#204019" stroke="#204019" stroke-width="1.51"/><path d="M618,840L692,849L738,716Z" fill="#234216" stroke="#234216" stroke-width="1.51"/><path d="M692,849L627,1011L752,935Z" fill="#1f401a" stroke="#1f401a" stroke-width="1.51"/><path d="M678,311L562,373L709,463Z" fill="#264512" stroke="#264512" stroke-width="1.51"/><path d="M624,638L581,701L738,716Z" fill="#264512" stroke="#264512" stroke-width="1.51"/><path d="M581,701L618,840L738,716Z" fill="#244315" stroke="#244315" stroke-width="1.51"/><path d="M693,610L624,638L738,716Z" fill="#28470e" stroke="#28470e" stroke-width="1.51"/><path d="M618,840L627,1011L692,849Z" fill="#1e401a" stroke="#1e401a" stroke-width="1.51"/><path d="M540,456L693,610L709,463Z" fill="#284610" stroke="#284610" stroke-width="1.51"/><path d="M568,1208L696,1273L714,1146Z" fill="#1c3a25" stroke="#1c3a25" stroke-width="1.51"/><path d="M670,22L555,125L730,93Z" fill="#1d3e1c" stroke="#1d3e1c" stroke-width="1.51"/><path d="M555,125L624,209L730,93Z" fill="#1e3e1b" stroke="#1e3e1b" stroke-width="1.51"/><path d="M540,456L624,638L693,610Z" fill="#274610" stroke="#274610" stroke-width="1.51"/><path d="M627,1011L569,1143L714,1146Z" fill="#1b3c20" stroke="#1b3c20" stroke-width="1.51"/><path d="M569,1143L568,1208L714,1146Z" fill="#1b3a24" stroke="#1b3a24" stroke-width="1.51"/><path d="M552,-143L621,-8L717,-112Z" fill="#1b3a24" stroke="#1b3a24" stroke-width="1.51"/><path d="M568,1208L480,1265L696,1273Z" fill="#193828" stroke="#193828" stroke-width="1.51"/><path d="M562,373L540,456L709,463Z" fill="#274511" stroke="#274511" stroke-width="1.51"/><path d="M624,209L678,311L696,236Z" fill="#214217" stroke="#214217" stroke-width="1.51"/><path d="M621,-8L555,125L670,22Z" fill="#1b3d1e" stroke="#1b3d1e" stroke-width="1.51"/><path d="M624,209L562,373L678,311Z" fill="#224216" stroke="#224216" stroke-width="1.51"/><path d="M472,820L432,994L618,840Z" fill="#1a3d1d" stroke="#1a3d1d" stroke-width="1.51"/><path d="M581,701L472,820L618,840Z" fill="#204118" stroke="#204118" stroke-width="1.51"/><path d="M552,-143L439,-55L621,-8Z" fill="#173924" stroke="#173924" stroke-width="1.51"/><path d="M486,114L555,125L621,-8Z" fill="#1a3c1e" stroke="#1a3c1e" stroke-width="1.51"/><path d="M491,207L562,373L624,209Z" fill="#1e4019" stroke="#1e4019" stroke-width="1.51"/><path d="M540,456L431,584L624,638Z" fill="#254413" stroke="#254413" stroke-width="1.51"/><path d="M431,584L495,687L624,638Z" fill="#244413" stroke="#244413" stroke-width="1.51"/><path d="M455,1094L569,1143L627,1011Z" fill="#183b21" stroke="#183b21" stroke-width="1.51"/><path d="M432,994L455,1094L627,1011Z" fill="#183b21" stroke="#183b21" stroke-width="1.51"/><path d="M618,840L432,994L627,1011Z" fill="#1b3d1d" stroke="#1b3d1d" stroke-width="1.51"/><path d="M555,125L491,207L624,209Z" fill="#1c3e1c" stroke="#1c3e1c" stroke-width="1.51"/><path d="M495,687L581,701L624,638Z" fill="#254413" stroke="#254413" stroke-width="1.51"/><path d="M491,207L497,372L562,373Z" fill="#204018" stroke="#204018" stroke-width="1.51"/><path d="M439,-55L486,114L621,-8Z" fill="#173a21" stroke="#173a21" stroke-width="1.51"/><path d="M464,469L431,584L540,456Z" fill="#244314" stroke="#244314" stroke-width="1.51"/><path d="M470,-138L439,-55L552,-143Z" fill="#153727" stroke="#153727" stroke-width="1.51"/><path d="M495,687L472,820L581,701Z" fill="#214117" stroke="#214117" stroke-width="1.51"/><path d="M318,1195L164,1225L480,1265Z" fill="#11342b" stroke="#11342b" stroke-width="1.51"/><path d="M497,372L540,456L562,373Z" fill="#244314" stroke="#244314" stroke-width="1.51"/><path d="M455,1094L480,1265L568,1208Z" fill="#163827" stroke="#163827" stroke-width="1.51"/><path d="M455,1094L568,1208L569,1143Z" fill="#173924" stroke="#173924" stroke-width="1.51"/><path d="M486,114L491,207L555,125Z" fill="#1a3d1e" stroke="#1a3d1e" stroke-width="1.51"/><path d="M497,372L464,469L540,456Z" fill="#244414" stroke="#244414" stroke-width="1.51"/><path d="M64,1210L-161,1254L164,1225Z" fill="#0a3131" stroke="#0a3131" stroke-width="1.51"/><path d="M322,1148L318,1195L455,1094Z" fill="#133727" stroke="#133727" stroke-width="1.51"/><path d="M332,938L432,994L472,820Z" fill="#183b1f" stroke="#183b1f" stroke-width="1.51"/><path d="M350,824L332,938L472,820Z" fill="#183c1e" stroke="#183c1e" stroke-width="1.51"/><path d="M455,1094L318,1195L480,1265Z" fill="#133628" stroke="#133628" stroke-width="1.51"/><path d="M439,-55L348,22L486,114Z" fill="#143923" stroke="#143923" stroke-width="1.51"/><path d="M348,22L366,95L486,114Z" fill="#163a22" stroke="#163a22" stroke-width="1.51"/><path d="M486,114L366,95L491,207Z" fill="#183b1f" stroke="#183b1f" stroke-width="1.51"/><path d="M288,193L341,357L491,207Z" fill="#1a3d1e" stroke="#1a3d1e" stroke-width="1.51"/><path d="M369,755L472,820L495,687Z" fill="#1e4019" stroke="#1e4019" stroke-width="1.51"/><path d="M491,207L341,357L497,372Z" fill="#1e3f1a" stroke="#1e3f1a" stroke-width="1.51"/><path d="M341,357L464,469L497,372Z" fill="#224217" stroke="#224217" stroke-width="1.51"/><path d="M431,584L369,755L495,687Z" fill="#224217" stroke="#224217" stroke-width="1.51"/><path d="M366,95L288,193L491,207Z" fill="#173b20" stroke="#173b20" stroke-width="1.51"/><path d="M306,467L431,584L464,469Z" fill="#224216" stroke="#224216" stroke-width="1.51"/><path d="M341,357L306,467L464,469Z" fill="#224217" stroke="#224217" stroke-width="1.51"/><path d="M341,-168L439,-55L470,-138Z" fill="#133629" stroke="#133629" stroke-width="1.51"/><path d="M369,755L350,824L472,820Z" fill="#1c3e1c" stroke="#1c3e1c" stroke-width="1.51"/><path d="M304,595L369,755L431,584Z" fill="#224217" stroke="#224217" stroke-width="1.51"/><path d="M432,994L322,1148L455,1094Z" fill="#143924" stroke="#143924" stroke-width="1.51"/><path d="M-151,-146L-81,-130L232,-194Z" fill="#0a3032" stroke="#0a3032" stroke-width="1.51"/><path d="M306,467L304,595L431,584Z" fill="#224217" stroke="#224217" stroke-width="1.51"/><path d="M332,938L252,1010L432,994Z" fill="#153a22" stroke="#153a22" stroke-width="1.51"/><path d="M252,1010L322,1148L432,994Z" fill="#143924" stroke="#143924" stroke-width="1.51"/><path d="M341,-168L348,22L439,-55Z" fill="#133727" stroke="#133727" stroke-width="1.51"/><path d="M288,193L189,315L341,357Z" fill="#1b3d1e" stroke="#1b3d1e" stroke-width="1.51"/><path d="M341,-168L229,-51L348,22Z" fill="#113628" stroke="#113628" stroke-width="1.51"/><path d="M230,862L332,938L350,824Z" fill="#173b20" stroke="#173b20" stroke-width="1.51"/><path d="M255,728L350,824L369,755Z" fill="#1d3e1c" stroke="#1d3e1c" stroke-width="1.51"/><path d="M304,595L255,728L369,755Z" fill="#20401a" stroke="#20401a" stroke-width="1.51"/><path d="M348,22L180,100L366,95Z" fill="#143924" stroke="#143924" stroke-width="1.51"/><path d="M180,100L288,193L366,95Z" fill="#163923" stroke="#163923" stroke-width="1.51"/><path d="M193,237L189,315L288,193Z" fill="#183b20" stroke="#183b20" stroke-width="1.51"/><path d="M232,-194L229,-51L341,-168Z" fill="#10342c" stroke="#10342c" stroke-width="1.51"/><path d="M255,728L230,862L350,824Z" fill="#1a3c1e" stroke="#1a3c1e" stroke-width="1.51"/><path d="M229,-51L180,100L348,22Z" fill="#123826" stroke="#123826" stroke-width="1.51"/><path d="M204,559L304,595L306,467Z" fill="#214119" stroke="#214119" stroke-width="1.51"/><path d="M182,444L306,467L341,357Z" fill="#214019" stroke="#214019" stroke-width="1.51"/><path d="M189,315L182,444L341,357Z" fill="#1e3f1c" stroke="#1e3f1c" stroke-width="1.51"/><path d="M252,1010L181,1140L322,1148Z" fill="#113727" stroke="#113727" stroke-width="1.51"/><path d="M230,862L252,1010L332,938Z" fill="#153a22" stroke="#153a22" stroke-width="1.51"/><path d="M181,1140L318,1195L322,1148Z" fill="#123529" stroke="#123529" stroke-width="1.51"/><path d="M204,559L255,728L304,595Z" fill="#214119" stroke="#214119" stroke-width="1.51"/><path d="M181,1140L164,1225L318,1195Z" fill="#10342b" stroke="#10342b" stroke-width="1.51"/><path d="M182,444L204,559L306,467Z" fill="#214019" stroke="#214019" stroke-width="1.51"/><path d="M180,100L193,237L288,193Z" fill="#153a22" stroke="#153a22" stroke-width="1.51"/><path d="M123,-56L180,100L229,-51Z" fill="#103628" stroke="#103628" stroke-width="1.51"/><path d="M-81,-130L121,-106L232,-194Z" fill="#0c322f" stroke="#0c322f" stroke-width="1.51"/><path d="M121,-106L229,-51L232,-194Z" fill="#0f342c" stroke="#0f342c" stroke-width="1.51"/><path d="M115,1012L181,1140L252,1010Z" fill="#113727" stroke="#113727" stroke-width="1.51"/><path d="M230,862L123,878L252,1010Z" fill="#153923" stroke="#153923" stroke-width="1.51"/><path d="M123,878L115,1012L252,1010Z" fill="#133825" stroke="#133825" stroke-width="1.51"/><path d="M117,749L230,862L255,728Z" fill="#1a3d1e" stroke="#1a3d1e" stroke-width="1.51"/><path d="M204,559L117,749L255,728Z" fill="#1f3f1c" stroke="#1f3f1c" stroke-width="1.51"/><path d="M58,577L117,749L204,559Z" fill="#203f1c" stroke="#203f1c" stroke-width="1.51"/><path d="M121,-106L123,-56L229,-51Z" fill="#0f342b" stroke="#0f342b" stroke-width="1.51"/><path d="M117,749L123,878L230,862Z" fill="#173b21" stroke="#173b21" stroke-width="1.51"/><path d="M60,320L51,434L182,444Z" fill="#1f3e1d" stroke="#1f3e1d" stroke-width="1.51"/><path d="M60,320L182,444L189,315Z" fill="#1c3e1e" stroke="#1c3e1e" stroke-width="1.51"/><path d="M180,100L68,220L193,237Z" fill="#143923" stroke="#143923" stroke-width="1.51"/><path d="M182,444L58,577L204,559Z" fill="#20401b" stroke="#20401b" stroke-width="1.51"/><path d="M123,-56L42,130L180,100Z" fill="#113727" stroke="#113727" stroke-width="1.51"/><path d="M42,130L68,220L180,100Z" fill="#133825" stroke="#133825" stroke-width="1.51"/><path d="M115,1012L45,1067L181,1140Z" fill="#0f3628" stroke="#0f3628" stroke-width="1.51"/><path d="M51,434L58,577L182,444Z" fill="#203f1c" stroke="#203f1c" stroke-width="1.51"/><path d="M68,220L60,320L189,315Z" fill="#183b21" stroke="#183b21" stroke-width="1.51"/><path d="M68,220L189,315L193,237Z" fill="#173b21" stroke="#173b21" stroke-width="1.51"/><path d="M64,1210L164,1225L181,1140Z" fill="#0d332d" stroke="#0d332d" stroke-width="1.51"/><path d="M45,1067L64,1210L181,1140Z" fill="#0e342b" stroke="#0e342b" stroke-width="1.51"/><path d="M-65,1187L-161,1254L64,1210Z" fill="#093033" stroke="#093033" stroke-width="1.51"/><path d="M-59,1005L-3,1060L115,1012Z" fill="#10352a" stroke="#10352a" stroke-width="1.51"/><path d="M-29,643L-60,736L117,749Z" fill="#1d3c21" stroke="#1d3c21" stroke-width="1.51"/><path d="M58,577L-29,643L117,749Z" fill="#1f3e1e" stroke="#1f3e1e" stroke-width="1.51"/><path d="M121,-106L-44,-24L123,-56Z" fill="#0e342c" stroke="#0e342c" stroke-width="1.51"/><path d="M-44,-24L42,130L123,-56Z" fill="#0f352a" stroke="#0f352a" stroke-width="1.51"/><path d="M-59,1005L115,1012L123,878Z" fill="#123727" stroke="#123727" stroke-width="1.51"/><path d="M-34,822L-59,1005L123,878Z" fill="#143727" stroke="#143727" stroke-width="1.51"/><path d="M117,749L-34,822L123,878Z" fill="#173a22" stroke="#173a22" stroke-width="1.51"/><path d="M-3,1060L45,1067L115,1012Z" fill="#103529" stroke="#103529" stroke-width="1.51"/><path d="M-81,-130L-44,-24L121,-106Z" fill="#0c322f" stroke="#0c322f" stroke-width="1.51"/><path d="M-60,736L-34,822L117,749Z" fill="#1a3a23" stroke="#1a3a23" stroke-width="1.51"/><path d="M-44,-24L-12,134L42,130Z" fill="#103529" stroke="#103529" stroke-width="1.51"/><path d="M-12,134L-24,222L42,130Z" fill="#133727" stroke="#133727" stroke-width="1.51"/><path d="M51,434L-84,458L58,577Z" fill="#203e1f" stroke="#203e1f" stroke-width="1.51"/><path d="M-18,315L51,434L60,320Z" fill="#1c3c20" stroke="#1c3c20" stroke-width="1.51"/><path d="M45,1067L-3,1060L64,1210Z" fill="#0e342c" stroke="#0e342c" stroke-width="1.51"/><path d="M-3,1060L-65,1187L64,1210Z" fill="#0c322f" stroke="#0c322f" stroke-width="1.51"/><path d="M42,130L-24,222L68,220Z" fill="#143826" stroke="#143826" stroke-width="1.51"/><path d="M-18,315L60,320L68,220Z" fill="#183a23" stroke="#183a23" stroke-width="1.51"/><path d="M-24,222L-18,315L68,220Z" fill="#163925" stroke="#163925" stroke-width="1.51"/><path d="M-84,458L-29,643L58,577Z" fill="#203d20" stroke="#203d20" stroke-width="1.51"/><path d="M-18,315L-84,458L51,434Z" fill="#1f3c21" stroke="#1f3c21" stroke-width="1.51"/><path d="M-84,458L-125,597L-29,643Z" fill="#203c22" stroke="#203c22" stroke-width="1.51"/><path d="M-173,984L-59,1005L-34,822Z" fill="#12352a" stroke="#12352a" stroke-width="1.51"/><path d="M-201,863L-173,984L-34,822Z" fill="#13352a" stroke="#13352a" stroke-width="1.51"/><path d="M-44,-24L-184,107L-12,134Z" fill="#0f342c" stroke="#0f342c" stroke-width="1.51"/><path d="M-59,1005L-163,1120L-3,1060Z" fill="#0d332d" stroke="#0d332d" stroke-width="1.51"/><path d="M-163,1120L-65,1187L-3,1060Z" fill="#0b322f" stroke="#0b322f" stroke-width="1.51"/><path d="M-203,352L-84,458L-18,315Z" fill="#1d3b24" stroke="#1d3b24" stroke-width="1.51"/><path d="M-24,222L-154,239L-18,315Z" fill="#173827" stroke="#173827" stroke-width="1.51"/><path d="M-154,239L-24,222L-12,134Z" fill="#133628" stroke="#133628" stroke-width="1.51"/><path d="M-184,107L-154,239L-12,134Z" fill="#12352a" stroke="#12352a" stroke-width="1.51"/><path d="M-154,239L-203,352L-18,315Z" fill="#193827" stroke="#193827" stroke-width="1.51"/><path d="M-203,352L-146,456L-84,458Z" fill="#1f3b24" stroke="#1f3b24" stroke-width="1.51"/><path d="M-164,688L-60,736L-29,643Z" fill="#1e3b23" stroke="#1e3b23" stroke-width="1.51"/><path d="M-125,597L-164,688L-29,643Z" fill="#203c23" stroke="#203c23" stroke-width="1.51"/><path d="M-190,-48L-184,107L-44,-24Z" fill="#0c322f" stroke="#0c322f" stroke-width="1.51"/><path d="M-60,736L-201,863L-34,822Z" fill="#173827" stroke="#173827" stroke-width="1.51"/><path d="M-146,456L-125,597L-84,458Z" fill="#203c23" stroke="#203c23" stroke-width="1.51"/><path d="M-81,-130L-190,-48L-44,-24Z" fill="#0a3131" stroke="#0a3131" stroke-width="1.51"/><path d="M-164,688L-201,863L-60,736Z" fill="#1a3827" stroke="#1a3827" stroke-width="1.51"/><path d="M-173,984L-163,1120L-59,1005Z" fill="#0d332e" stroke="#0d332e" stroke-width="1.51"/><path d="M-151,-146L-190,-48L-81,-130Z" fill="#083034" stroke="#083034" stroke-width="1.51"/><path d="M-163,1120L-161,1254L-65,1187Z" fill="#083034" stroke="#083034" stroke-width="1.51"/><path d="M-146,456L-164,688L-125,597Z" fill="#203b24" stroke="#203b24" stroke-width="1.51"/><path d="M-203,352L-164,688L-146,456Z" fill="#203b24" stroke="#203b24" stroke-width="1.51"/><path d="M-184,107L-203,352L-154,239Z" fill="#14352b" stroke="#14352b" stroke-width="1.51"/><path d="M-203,352L-201,863L-164,688Z" fill="#203b25" stroke="#203b25" stroke-width="1.51"/><path d="M-163,1120L-201,863L-161,1254Z" fill="#0b3230" stroke="#0b3230" stroke-width="1.51"/><path d="M-173,984L-201,863L-163,1120Z" fill="#0f332e" stroke="#0f332e" stroke-width="1.51"/><path d="M-190,-48L-203,352L-184,107Z" fill="#10332d" stroke="#10332d" stroke-width="1.51"/></svg>