<svg xmlns="http://www.w3.org/2000/svg" width="1920" height="1080"><path d="M876,1364L295,1383L992,1370Z" fill="#22541d" stroke="#22541d" stroke-width="1.51"/><path d="M580,-269L734,-265L1225,-299Z" fill="#24561b" stroke="#24561b" stroke-width="1.51"/><path d="M219,-305L580,-269L1225,-299Z" fill="#21531d" stroke="#21531d" stroke-width="1.51"/><path d="M219,-305L1225,-299L1358,-312Z" fill="#25571b" stroke="#25571b" stroke-width="1.51"/><path d="M1427,1316L992,1370L1731,1347Z" fill="#21521e" stroke="#21521e" stroke-width="1.51"/><path d="M1358,-312L1719,-253L1856,-294Z" fill="#1d4e21" stroke="#1d4e21" stroke-width="1.51"/><path d="M1988,1289L1731,1347L2058,1319Z" fill="#1b4a22" stroke="#1b4a22" stroke-width="1.51"/><path d="M2042,80L2063,274L2064,-26Z" fill="#1f5020" stroke="#1f5020" stroke-width="1.51"/><path d="M1358,-312L1856,-294L2104,-306Z" fill="#1c4b22" stroke="#1c4b22" stroke-width="1.51"/><path d="M1960,-82L2064,-26L2104,-306Z" fill="#1b4b22" stroke="#1b4b22" stroke-width="1.51"/><path d="M1932,864L2084,868L2110,633Z" fill="#22541e" stroke="#22541e" stroke-width="1.51"/><path d="M1911,409L1871,606L2110,633Z" fill="#26591b" stroke="#26591b" stroke-width="1.51"/><path d="M1953,1130L2038,1168L2131,916Z" fill="#1e4e21" stroke="#1e4e21" stroke-width="1.51"/><path d="M2084,868L1888,1010L2131,916Z" fill="#20511f" stroke="#20511f" stroke-width="1.51"/><path d="M1888,1010L1953,1130L2131,916Z" fill="#1f5020" stroke="#1f5020" stroke-width="1.51"/><path d="M2038,1168L2058,1319L2131,916Z" fill="#1c4c22" stroke="#1c4c22" stroke-width="1.51"/><path d="M2110,633L2084,868L2131,916Z" fill="#21531e" stroke="#21531e" stroke-width="1.51"/><path d="M2063,274L1953,324L2147,451Z" fill="#23551d" stroke="#23551d" stroke-width="1.51"/><path d="M1953,324L1911,409L2147,451Z" fill="#24561c" stroke="#24561c" stroke-width="1.51"/><path d="M2104,-306L2064,-26L2147,451Z" fill="#1e4e21" stroke="#1e4e21" stroke-width="1.51"/><path d="M2064,-26L2063,274L2147,451Z" fill="#21521f" stroke="#21521f" stroke-width="1.51"/><path d="M1911,409L2110,633L2147,451Z" fill="#25571b" stroke="#25571b" stroke-width="1.51"/><path d="M2110,633L2131,916L2147,451Z" fill="#23551c" stroke="#23551c" stroke-width="1.51"/><path d="M1871,606L1932,864L2110,633Z" fill="#24561c" stroke="#24561c" stroke-width="1.51"/><path d="M2038,1168L1988,1289L2058,1319Z" fill="#1b4a22" stroke="#1b4a22" stroke-width="1.51"/><path d="M2042,80L1896,148L2063,274Z" fill="#21511f" stroke="#21511f" stroke-width="1.51"/><path d="M1932,864L1888,1010L2084,868Z" fill="#21521f" stroke="#21521f" stroke-width="1.51"/><path d="M1856,-294L1960,-82L2104,-306Z" fill="#1b4a22" stroke="#1b4a22" stroke-width="1.51"/><path d="M734,-265L896,-253L1225,-299Z" fill="#25581a" stroke="#25581a" stroke-width="1.51"/><path d="M1896,148L1953,324L2063,274Z" fill="#22541e" stroke="#22541e" stroke-width="1.51"/><path d="M1960,-82L2042,80L2064,-26Z" fill="#1d4d21" stroke="#1d4d21" stroke-width="1.51"/><path d="M1953,1130L1988,1289L2038,1168Z" fill="#1c4c22" stroke="#1c4c22" stroke-width="1.51"/><path d="M1960,-82L1896,148L2042,80Z" fill="#1f4f21" stroke="#1f4f21" stroke-width="1.51"/><path d="M1803,499L1871,606L1911,409Z" fill="#265a1a" stroke="#265a1a" stroke-width="1.51"/><path d="M1871,606L1765,868L1932,864Z" fill="#23561d" stroke="#23561d" stroke-width="1.51"/><path d="M1786,-78L1896,148L1960,-82Z" fill="#1f4f21" stroke="#1f4f21" stroke-width="1.51"/><path d="M1856,-294L1786,-78L1960,-82Z" fill="#1d4d21" stroke="#1d4d21" stroke-width="1.51"/><path d="M1953,1130L1731,1347L1988,1289Z" fill="#1c4c22" stroke="#1c4c22" stroke-width="1.51"/><path d="M1786,-78L1730,63L1896,148Z" fill="#205120" stroke="#205120" stroke-width="1.51"/><path d="M1896,148L1752,230L1953,324Z" fill="#23551d" stroke="#23551d" stroke-width="1.51"/><path d="M1705,1137L1731,1347L1953,1130Z" fill="#1e4e21" stroke="#1e4e21" stroke-width="1.51"/><path d="M1796,596L1765,868L1871,606Z" fill="#25581c" stroke="#25581c" stroke-width="1.51"/><path d="M1752,230L1911,409L1953,324Z" fill="#24571d" stroke="#24571d" stroke-width="1.51"/><path d="M1888,1010L1705,1137L1953,1130Z" fill="#1f4f21" stroke="#1f4f21" stroke-width="1.51"/><path d="M1765,868L1888,1010L1932,864Z" fill="#22531f" stroke="#22531f" stroke-width="1.51"/><path d="M1719,-253L1786,-78L1856,-294Z" fill="#1d4d22" stroke="#1d4d22" stroke-width="1.51"/><path d="M1752,230L1803,499L1911,409Z" fill="#25581c" stroke="#25581c" stroke-width="1.51"/><path d="M1803,499L1796,596L1871,606Z" fill="#275b1a" stroke="#275b1a" stroke-width="1.51"/><path d="M1765,868L1718,923L1888,1010Z" fill="#22541f" stroke="#22541f" stroke-width="1.51"/><path d="M1730,63L1752,230L1896,148Z" fill="#22541f" stroke="#22541f" stroke-width="1.51"/><path d="M1718,923L1705,1137L1888,1010Z" fill="#215220" stroke="#215220" stroke-width="1.51"/><path d="M1358,-312L1513,-220L1719,-253Z" fill="#1f5020" stroke="#1f5020" stroke-width="1.51"/><path d="M1552,681L1765,868L1796,596Z" fill="#26591b" stroke="#26591b" stroke-width="1.51"/><path d="M1581,1281L1427,1316L1731,1347Z" fill="#1f4f20" stroke="#1f4f20" stroke-width="1.51"/><path d="M1705,1137L1630,1182L1731,1347Z" fill="#1f5021" stroke="#1f5021" stroke-width="1.51"/><path d="M1552,681L1521,765L1765,868Z" fill="#275a1b" stroke="#275a1b" stroke-width="1.51"/><path d="M1719,-253L1611,-89L1786,-78Z" fill="#1f4f21" stroke="#1f4f21" stroke-width="1.51"/><path d="M1537,420L1552,681L1796,596Z" fill="#295e18" stroke="#295e18" stroke-width="1.51"/><path d="M1537,420L1796,596L1803,499Z" fill="#285c19" stroke="#285c19" stroke-width="1.51"/><path d="M1752,230L1537,420L1803,499Z" fill="#275a1b" stroke="#275a1b" stroke-width="1.51"/><path d="M1510,335L1537,420L1752,230Z" fill="#275b1a" stroke="#275b1a" stroke-width="1.51"/><path d="M1611,-89L1730,63L1786,-78Z" fill="#205121" stroke="#205121" stroke-width="1.51"/><path d="M1524,994L1705,1137L1718,923Z" fill="#22541f" stroke="#22541f" stroke-width="1.51"/><path d="M1630,1182L1581,1281L1731,1347Z" fill="#1f4f21" stroke="#1f4f21" stroke-width="1.51"/><path d="M1730,63L1547,118L1752,230Z" fill="#23551e" stroke="#23551e" stroke-width="1.51"/><path d="M1521,765L1718,923L1765,868Z" fill="#25571d" stroke="#25571d" stroke-width="1.51"/><path d="M1547,118L1510,335L1752,230Z" fill="#25581c" stroke="#25581c" stroke-width="1.51"/><path d="M1513,-220L1611,-89L1719,-253Z" fill="#1f5020" stroke="#1f5020" stroke-width="1.51"/><path d="M1611,-89L1547,118L1730,63Z" fill="#22541f" stroke="#22541f" stroke-width="1.51"/><path d="M1524,994L1630,1182L1705,1137Z" fill="#225320" stroke="#225320" stroke-width="1.51"/><path d="M1521,765L1524,994L1718,923Z" fill="#25581d" stroke="#25581d" stroke-width="1.51"/><path d="M1207,1287L992,1370L1427,1316Z" fill="#23551d" stroke="#23551d" stroke-width="1.51"/><path d="M1521,765L1449,972L1524,994Z" fill="#26591c" stroke="#26591c" stroke-width="1.51"/><path d="M1537,420L1436,610L1552,681Z" fill="#2a6017" stroke="#2a6017" stroke-width="1.51"/><path d="M1460,41L1547,118L1611,-89Z" fill="#23551e" stroke="#23551e" stroke-width="1.51"/><path d="M1419,1113L1581,1281L1630,1182Z" fill="#21521f" stroke="#21521f" stroke-width="1.51"/><path d="M1524,994L1419,1113L1630,1182Z" fill="#23541e" stroke="#23541e" stroke-width="1.51"/><path d="M1451,324L1510,335L1547,118Z" fill="#275b1b" stroke="#275b1b" stroke-width="1.51"/><path d="M1513,-220L1409,-115L1611,-89Z" fill="#21521f" stroke="#21521f" stroke-width="1.51"/><path d="M1409,-115L1460,41L1611,-89Z" fill="#22541f" stroke="#22541f" stroke-width="1.51"/><path d="M1392,807L1449,972L1521,765Z" fill="#275b1b" stroke="#275b1b" stroke-width="1.51"/><path d="M1384,498L1436,610L1537,420Z" fill="#2b6016" stroke="#2b6016" stroke-width="1.51"/><path d="M1419,1113L1427,1316L1581,1281Z" fill="#21531e" stroke="#21531e" stroke-width="1.51"/><path d="M1261,231L1451,324L1460,41Z" fill="#285b1b" stroke="#285b1b" stroke-width="1.51"/><path d="M1460,41L1451,324L1547,118Z" fill="#26591c" stroke="#26591c" stroke-width="1.51"/><path d="M1436,610L1521,765L1552,681Z" fill="#295d18" stroke="#295d18" stroke-width="1.51"/><path d="M1449,972L1419,1113L1524,994Z" fill="#24571d" stroke="#24571d" stroke-width="1.51"/><path d="M1510,335L1451,324L1537,420Z" fill="#285d19" stroke="#285d19" stroke-width="1.51"/><path d="M1451,324L1384,498L1537,420Z" fill="#2a5e17" stroke="#2a5e17" stroke-width="1.51"/><path d="M1436,610L1392,807L1521,765Z" fill="#295d18" stroke="#295d18" stroke-width="1.51"/><path d="M1358,-312L1409,-115L1513,-220Z" fill="#21521e" stroke="#21521e" stroke-width="1.51"/><path d="M1287,40L1261,231L1460,41Z" fill="#275a1b" stroke="#275a1b" stroke-width="1.51"/><path d="M1230,1109L1207,1287L1419,1113Z" fill="#24561d" stroke="#24561d" stroke-width="1.51"/><path d="M1419,1113L1207,1287L1427,1316Z" fill="#22541d" stroke="#22541d" stroke-width="1.51"/><path d="M1230,778L1392,807L1436,610Z" fill="#2a5f18" stroke="#2a5f18" stroke-width="1.51"/><path d="M1258,406L1384,498L1451,324Z" fill="#2a6016" stroke="#2a6016" stroke-width="1.51"/><path d="M1409,-115L1287,40L1460,41Z" fill="#24561d" stroke="#24561d" stroke-width="1.51"/><path d="M1214,592L1230,778L1436,610Z" fill="#2c6115" stroke="#2c6115" stroke-width="1.51"/><path d="M1203,1037L1419,1113L1449,972Z" fill="#25581c" stroke="#25581c" stroke-width="1.51"/><path d="M1392,807L1203,1037L1449,972Z" fill="#275b1b" stroke="#275b1b" stroke-width="1.51"/><path d="M1261,231L1258,406L1451,324Z" fill="#2a5f18" stroke="#2a5f18" stroke-width="1.51"/><path d="M1203,1037L1230,1109L1419,1113Z" fill="#25581c" stroke="#25581c" stroke-width="1.51"/><path d="M1230,778L1203,1037L1392,807Z" fill="#295d19" stroke="#295d19" stroke-width="1.51"/><path d="M1250,-11L1287,40L1409,-115Z" fill="#24571d" stroke="#24571d" stroke-width="1.51"/><path d="M1384,498L1214,592L1436,610Z" fill="#2c6214" stroke="#2c6214" stroke-width="1.51"/><path d="M1358,-312L1225,-299L1409,-115Z" fill="#22531e" stroke="#22531e" stroke-width="1.51"/><path d="M1225,-299L1250,-11L1409,-115Z" fill="#23561d" stroke="#23561d" stroke-width="1.51"/><path d="M1258,406L1214,592L1384,498Z" fill="#2d6213" stroke="#2d6213" stroke-width="1.51"/><path d="M1012,861L1203,1037L1230,778Z" fill="#295e17" stroke="#295e17" stroke-width="1.51"/><path d="M1225,-299L1051,-201L1250,-11Z" fill="#24571c" stroke="#24571c" stroke-width="1.51"/><path d="M1107,570L1214,592L1258,406Z" fill="#2e6412" stroke="#2e6412" stroke-width="1.51"/><path d="M1036,429L1258,406L1261,231Z" fill="#2c6115" stroke="#2c6115" stroke-width="1.51"/><path d="M1055,69L1261,231L1287,40Z" fill="#285c19" stroke="#285c19" stroke-width="1.51"/><path d="M1250,-11L1055,69L1287,40Z" fill="#265a1b" stroke="#265a1b" stroke-width="1.51"/><path d="M896,-253L1051,-201L1225,-299Z" fill="#24571b" stroke="#24571b" stroke-width="1.51"/><path d="M1082,1100L1207,1287L1230,1109Z" fill="#25581c" stroke="#25581c" stroke-width="1.51"/><path d="M1214,592L1107,570L1230,778Z" fill="#2d6313" stroke="#2d6313" stroke-width="1.51"/><path d="M1051,-201L1023,-47L1250,-11Z" fill="#26591b" stroke="#26591b" stroke-width="1.51"/><path d="M1036,429L1107,570L1258,406Z" fill="#2e6412" stroke="#2e6412" stroke-width="1.51"/><path d="M1055,69L995,220L1261,231Z" fill="#2a5f17" stroke="#2a5f17" stroke-width="1.51"/><path d="M995,220L1036,429L1261,231Z" fill="#2b6115" stroke="#2b6115" stroke-width="1.51"/><path d="M1023,-47L1055,69L1250,-11Z" fill="#275b1a" stroke="#275b1a" stroke-width="1.51"/><path d="M1012,861L997,1035L1203,1037Z" fill="#295d18" stroke="#295d18" stroke-width="1.51"/><path d="M1203,1037L1082,1100L1230,1109Z" fill="#265a1b" stroke="#265a1b" stroke-width="1.51"/><path d="M1107,570L1012,861L1230,778Z" fill="#2c6214" stroke="#2c6214" stroke-width="1.51"/><path d="M920,665L1012,861L1107,570Z" fill="#2e6412" stroke="#2e6412" stroke-width="1.51"/><path d="M997,1035L1082,1100L1203,1037Z" fill="#275b1a" stroke="#275b1a" stroke-width="1.51"/><path d="M1082,1100L992,1370L1207,1287Z" fill="#25581c" stroke="#25581c" stroke-width="1.51"/><path d="M817,1139L992,1370L1082,1100Z" fill="#275a19" stroke="#275a19" stroke-width="1.51"/><path d="M1036,429L920,665L1107,570Z" fill="#30660f" stroke="#30660f" stroke-width="1.51"/><path d="M666,1285L295,1383L876,1364Z" fill="#21531e" stroke="#21531e" stroke-width="1.51"/><path d="M817,1139L876,1364L992,1370Z" fill="#25581b" stroke="#25581b" stroke-width="1.51"/><path d="M920,665L911,848L1012,861Z" fill="#2d6313" stroke="#2d6313" stroke-width="1.51"/><path d="M883,448L920,665L1036,429Z" fill="#30670e" stroke="#30670e" stroke-width="1.51"/><path d="M997,1035L817,1139L1082,1100Z" fill="#285c19" stroke="#285c19" stroke-width="1.51"/><path d="M864,235L883,448L995,220Z" fill="#2c6313" stroke="#2c6313" stroke-width="1.51"/><path d="M896,-253L836,-62L1023,-47Z" fill="#265a1a" stroke="#265a1a" stroke-width="1.51"/><path d="M995,220L883,448L1036,429Z" fill="#2e6411" stroke="#2e6411" stroke-width="1.51"/><path d="M896,-253L1023,-47L1051,-201Z" fill="#26591a" stroke="#26591a" stroke-width="1.51"/><path d="M1023,-47L910,168L1055,69Z" fill="#295e18" stroke="#295e18" stroke-width="1.51"/><path d="M910,168L995,220L1055,69Z" fill="#2a6016" stroke="#2a6016" stroke-width="1.51"/><path d="M911,848L997,1035L1012,861Z" fill="#2b6016" stroke="#2b6016" stroke-width="1.51"/><path d="M836,-62L910,168L1023,-47Z" fill="#285d19" stroke="#285d19" stroke-width="1.51"/><path d="M911,848L811,1001L997,1035Z" fill="#2a5f17" stroke="#2a5f17" stroke-width="1.51"/><path d="M811,1001L817,1139L997,1035Z" fill="#285c19" stroke="#285c19" stroke-width="1.51"/><path d="M910,168L864,235L995,220Z" fill="#2b6115" stroke="#2b6115" stroke-width="1.51"/><path d="M515,1277L295,1383L666,1285Z" fill="#21521f" stroke="#21521f" stroke-width="1.51"/><path d="M817,1139L666,1285L876,1364Z" fill="#24571c" stroke="#24571c" stroke-width="1.51"/><path d="M864,235L717,293L883,448Z" fill="#2c6214" stroke="#2c6214" stroke-width="1.51"/><path d="M734,-265L836,-62L896,-253Z" fill="#25571c" stroke="#25571c" stroke-width="1.51"/><path d="M836,-62L742,55L910,168Z" fill="#285c19" stroke="#285c19" stroke-width="1.51"/><path d="M883,448L658,619L920,665Z" fill="#2e6511" stroke="#2e6511" stroke-width="1.51"/><path d="M678,801L911,848L920,665Z" fill="#2c6214" stroke="#2c6214" stroke-width="1.51"/><path d="M658,619L678,801L920,665Z" fill="#2c6214" stroke="#2c6214" stroke-width="1.51"/><path d="M742,55L864,235L910,168Z" fill="#2a5f17" stroke="#2a5f17" stroke-width="1.51"/><path d="M687,930L811,1001L911,848Z" fill="#295e18" stroke="#295e18" stroke-width="1.51"/><path d="M678,801L687,930L911,848Z" fill="#2a5f17" stroke="#2a5f17" stroke-width="1.51"/><path d="M717,293L664,420L883,448Z" fill="#2c6214" stroke="#2c6214" stroke-width="1.51"/><path d="M664,420L658,619L883,448Z" fill="#2e6412" stroke="#2e6412" stroke-width="1.51"/><path d="M219,-305L400,-248L580,-269Z" fill="#1f501f" stroke="#1f501f" stroke-width="1.51"/><path d="M742,55L717,293L864,235Z" fill="#295f17" stroke="#295f17" stroke-width="1.51"/><path d="M811,1001L651,1122L817,1139Z" fill="#265a1b" stroke="#265a1b" stroke-width="1.51"/><path d="M642,-15L742,55L836,-62Z" fill="#265a1b" stroke="#265a1b" stroke-width="1.51"/><path d="M734,-265L642,-15L836,-62Z" fill="#25581c" stroke="#25581c" stroke-width="1.51"/><path d="M651,1122L666,1285L817,1139Z" fill="#24571c" stroke="#24571c" stroke-width="1.51"/><path d="M687,930L651,1122L811,1001Z" fill="#275b1a" stroke="#275b1a" stroke-width="1.51"/><path d="M580,-269L523,-62L642,-15Z" fill="#23561d" stroke="#23561d" stroke-width="1.51"/><path d="M580,-269L642,-15L734,-265Z" fill="#23551d" stroke="#23551d" stroke-width="1.51"/><path d="M642,-15L461,106L742,55Z" fill="#26591c" stroke="#26591c" stroke-width="1.51"/><path d="M461,106L544,282L742,55Z" fill="#275b1a" stroke="#275b1a" stroke-width="1.51"/><path d="M544,282L717,293L742,55Z" fill="#295d18" stroke="#295d18" stroke-width="1.51"/><path d="M527,564L658,619L664,420Z" fill="#2d6313" stroke="#2d6313" stroke-width="1.51"/><path d="M529,956L651,1122L687,930Z" fill="#265a1b" stroke="#265a1b" stroke-width="1.51"/><path d="M678,801L578,831L687,930Z" fill="#295e19" stroke="#295e19" stroke-width="1.51"/><path d="M544,282L664,420L717,293Z" fill="#2a5f17" stroke="#2a5f17" stroke-width="1.51"/><path d="M651,1122L515,1277L666,1285Z" fill="#23551d" stroke="#23551d" stroke-width="1.51"/><path d="M658,619L578,831L678,801Z" fill="#2a5f17" stroke="#2a5f17" stroke-width="1.51"/><path d="M578,831L529,956L687,930Z" fill="#285c1a" stroke="#285c1a" stroke-width="1.51"/><path d="M527,564L578,831L658,619Z" fill="#2b6016" stroke="#2b6016" stroke-width="1.51"/><path d="M496,414L527,564L664,420Z" fill="#2b6115" stroke="#2b6115" stroke-width="1.51"/><path d="M529,956L477,1142L651,1122Z" fill="#25571d" stroke="#25571d" stroke-width="1.51"/><path d="M477,1142L515,1277L651,1122Z" fill="#23551d" stroke="#23551d" stroke-width="1.51"/><path d="M544,282L496,414L664,420Z" fill="#2a5f17" stroke="#2a5f17" stroke-width="1.51"/><path d="M523,-62L461,106L642,-15Z" fill="#25571d" stroke="#25571d" stroke-width="1.51"/><path d="M527,564L379,673L578,831Z" fill="#2a5e17" stroke="#2a5e17" stroke-width="1.51"/><path d="M364,825L529,956L578,831Z" fill="#275b1a" stroke="#275b1a" stroke-width="1.51"/><path d="M379,673L364,825L578,831Z" fill="#285c1a" stroke="#285c1a" stroke-width="1.51"/><path d="M400,-248L523,-62L580,-269Z" fill="#21531e" stroke="#21531e" stroke-width="1.51"/><path d="M342,-27L461,106L523,-62Z" fill="#24551e" stroke="#24551e" stroke-width="1.51"/><path d="M496,414L351,461L527,564Z" fill="#2a6016" stroke="#2a6016" stroke-width="1.51"/><path d="M359,1015L477,1142L529,956Z" fill="#24571d" stroke="#24571d" stroke-width="1.51"/><path d="M461,106L331,148L544,282Z" fill="#265a1b" stroke="#265a1b" stroke-width="1.51"/><path d="M331,148L299,319L544,282Z" fill="#275a1b" stroke="#275a1b" stroke-width="1.51"/><path d="M299,319L496,414L544,282Z" fill="#295d19" stroke="#295d19" stroke-width="1.51"/><path d="M400,-248L342,-27L523,-62Z" fill="#21531f" stroke="#21531f" stroke-width="1.51"/><path d="M364,825L359,1015L529,956Z" fill="#25581c" stroke="#25581c" stroke-width="1.51"/><path d="M351,461L379,673L527,564Z" fill="#2a6016" stroke="#2a6016" stroke-width="1.51"/><path d="M477,1142L310,1135L515,1277Z" fill="#22531f" stroke="#22531f" stroke-width="1.51"/><path d="M310,1135L295,1383L515,1277Z" fill="#205120" stroke="#205120" stroke-width="1.51"/><path d="M299,319L351,461L496,414Z" fill="#285d19" stroke="#285d19" stroke-width="1.51"/><path d="M359,1015L310,1135L477,1142Z" fill="#22541f" stroke="#22541f" stroke-width="1.51"/><path d="M342,-27L331,148L461,106Z" fill="#24561e" stroke="#24561e" stroke-width="1.51"/><path d="M219,1321L295,1383L310,1135Z" fill="#1f4f21" stroke="#1f4f21" stroke-width="1.51"/><path d="M216,679L364,825L379,673Z" fill="#275b1a" stroke="#275b1a" stroke-width="1.51"/><path d="M351,461L216,679L379,673Z" fill="#295d18" stroke="#295d18" stroke-width="1.51"/><path d="M199,-97L342,-27L400,-248Z" fill="#205120" stroke="#205120" stroke-width="1.51"/><path d="M219,-305L199,-97L400,-248Z" fill="#1e4f21" stroke="#1e4f21" stroke-width="1.51"/><path d="M212,138L331,148L342,-27Z" fill="#23551e" stroke="#23551e" stroke-width="1.51"/><path d="M166,445L216,679L351,461Z" fill="#295d18" stroke="#295d18" stroke-width="1.51"/><path d="M165,1035L359,1015L364,825Z" fill="#24561e" stroke="#24561e" stroke-width="1.51"/><path d="M151,766L165,1035L364,825Z" fill="#24571d" stroke="#24571d" stroke-width="1.51"/><path d="M212,138L299,319L331,148Z" fill="#25571d" stroke="#25571d" stroke-width="1.51"/><path d="M198,1118L310,1135L359,1015Z" fill="#21531f" stroke="#21531f" stroke-width="1.51"/><path d="M216,679L151,766L364,825Z" fill="#26591b" stroke="#26591b" stroke-width="1.51"/><path d="M299,319L166,445L351,461Z" fill="#275b1a" stroke="#275b1a" stroke-width="1.51"/><path d="M165,1035L198,1118L359,1015Z" fill="#21531f" stroke="#21531f" stroke-width="1.51"/><path d="M199,-97L212,138L342,-27Z" fill="#215220" stroke="#215220" stroke-width="1.51"/><path d="M-244,-290L-12,-215L219,-305Z" fill="#1b4a22" stroke="#1b4a22" stroke-width="1.51"/><path d="M198,1118L219,1321L310,1135Z" fill="#1f5020" stroke="#1f5020" stroke-width="1.51"/><path d="M219,1321L50,1384L295,1383Z" fill="#1c4c21" stroke="#1c4c21" stroke-width="1.51"/><path d="M212,138L117,242L299,319Z" fill="#25571d" stroke="#25571d" stroke-width="1.51"/><path d="M151,766L47,947L165,1035Z" fill="#23541f" stroke="#23541f" stroke-width="1.51"/><path d="M117,242L166,445L299,319Z" fill="#25591c" stroke="#25591c" stroke-width="1.51"/><path d="M117,242L26,327L166,445Z" fill="#25571c" stroke="#25571c" stroke-width="1.51"/><path d="M199,-97L41,-134L212,138Z" fill="#1f5021" stroke="#1f5021" stroke-width="1.51"/><path d="M41,-134L-44,164L212,138Z" fill="#205120" stroke="#205120" stroke-width="1.51"/><path d="M166,445L22,667L216,679Z" fill="#275b1a" stroke="#275b1a" stroke-width="1.51"/><path d="M198,1118L-64,1216L219,1321Z" fill="#1e4e21" stroke="#1e4e21" stroke-width="1.51"/><path d="M-64,1216L50,1384L219,1321Z" fill="#1c4c22" stroke="#1c4c22" stroke-width="1.51"/><path d="M41,-134L199,-97L219,-305Z" fill="#1d4d22" stroke="#1d4d22" stroke-width="1.51"/><path d="M-12,-215L41,-134L219,-305Z" fill="#1c4c22" stroke="#1c4c22" stroke-width="1.51"/><path d="M22,667L151,766L216,679Z" fill="#26591c" stroke="#26591c" stroke-width="1.51"/><path d="M-44,164L117,242L212,138Z" fill="#22541e" stroke="#22541e" stroke-width="1.51"/><path d="M-1,866L47,947L151,766Z" fill="#23551e" stroke="#23551e" stroke-width="1.51"/><path d="M165,1035L-64,1216L198,1118Z" fill="#1f4f21" stroke="#1f4f21" stroke-width="1.51"/><path d="M47,947L-64,1216L165,1035Z" fill="#1f5021" stroke="#1f5021" stroke-width="1.51"/><path d="M26,327L-43,429L166,445Z" fill="#25581c" stroke="#25581c" stroke-width="1.51"/><path d="M-43,429L22,667L166,445Z" fill="#265a1a" stroke="#265a1a" stroke-width="1.51"/><path d="M22,667L-1,866L151,766Z" fill="#24561d" stroke="#24561d" stroke-width="1.51"/><path d="M-44,164L26,327L117,242Z" fill="#23551d" stroke="#23551d" stroke-width="1.51"/><path d="M-180,-84L-161,120L-44,164Z" fill="#1f4f20" stroke="#1f4f20" stroke-width="1.51"/><path d="M-43,429L-191,517L22,667Z" fill="#26591a" stroke="#26591a" stroke-width="1.51"/><path d="M-183,754L-1,866L22,667Z" fill="#23551d" stroke="#23551d" stroke-width="1.51"/><path d="M-44,164L-116,310L26,327Z" fill="#22541e" stroke="#22541e" stroke-width="1.51"/><path d="M-180,-84L-44,164L41,-134Z" fill="#1e4e21" stroke="#1e4e21" stroke-width="1.51"/><path d="M-197,960L-64,1216L47,947Z" fill="#1f4f21" stroke="#1f4f21" stroke-width="1.51"/><path d="M-64,1216L-124,1302L50,1384Z" fill="#1b4a22" stroke="#1b4a22" stroke-width="1.51"/><path d="M-1,866L-197,960L47,947Z" fill="#20521f" stroke="#20521f" stroke-width="1.51"/><path d="M-12,-215L-180,-84L41,-134Z" fill="#1c4c22" stroke="#1c4c22" stroke-width="1.51"/><path d="M-191,517L-220,622L22,667Z" fill="#25571b" stroke="#25571b" stroke-width="1.51"/><path d="M-116,310L-43,429L26,327Z" fill="#23561d" stroke="#23561d" stroke-width="1.51"/><path d="M-197,960L-177,1216L-64,1216Z" fill="#1c4c22" stroke="#1c4c22" stroke-width="1.51"/><path d="M-220,622L-183,754L22,667Z" fill="#23561c" stroke="#23561c" stroke-width="1.51"/><path d="M-183,754L-197,960L-1,866Z" fill="#21521f" stroke="#21521f" stroke-width="1.51"/><path d="M-244,-290L-180,-84L-12,-215Z" fill="#1a4a22" stroke="#1a4a22" stroke-width="1.51"/><path d="M-161,120L-116,310L-44,164Z" fill="#21521f" stroke="#21521f" stroke-width="1.51"/><path d="M-116,310L-191,517L-43,429Z" fill="#24561c" stroke="#24561c" stroke-width="1.51"/><path d="M-177,1216L-124,1302L-64,1216Z" fill="#1b4a22" stroke="#1b4a22" stroke-width="1.51"/><path d="M-161,120L-191,517L-116,310Z" fill="#22541d" stroke="#22541d" stroke-width="1.51"/><path d="M-220,622L-191,517L-161,120Z" fill="#24551c" stroke="#24551c" stroke-width="1.51"/><path d="M-244,-290L-220,622L-161,120Z" fill="#1f501f" stroke="#1f501f" stroke-width="1.51"/><path d="M-180,-84L-244,-290L-161,120Z" fill="#1b4b22" stroke="#1b4b22" stroke-width="1.51"/><path d="M-220,622L-197,960L-183,754Z" fill="#21531d" stroke="#21531d" stroke-width="1.51"/></svg>