<svg xmlns="http://www.w3.org/2000/svg" width="1920" height="1080"><path d="M453,1480L-5,1472L635,1494Z" fill="#1f501f" stroke="#1f501f" stroke-width="1.51"/><path d="M-384,-396L451,-346L1043,-365Z" fill="#20511f" stroke="#20511f" stroke-width="1.51"/><path d="M1043,-365L1146,-350L1433,-337Z" fill="#23551c" stroke="#23551c" stroke-width="1.51"/><path d="M1154,1403L635,1494L1675,1451Z" fill="#24561c" stroke="#24561c" stroke-width="1.51"/><path d="M1675,1451L635,1494L1881,1475Z" fill="#21531e" stroke="#21531e" stroke-width="1.51"/><path d="M1433,-337L1726,-342L1972,-383Z" fill="#1e4f20" stroke="#1e4f20" stroke-width="1.51"/><path d="M1043,-365L1433,-337L1972,-383Z" fill="#20521f" stroke="#20521f" stroke-width="1.51"/><path d="M1881,1475L635,1494L2183,1500Z" fill="#1f501f" stroke="#1f501f" stroke-width="1.51"/><path d="M1043,-365L1972,-383L2214,-409Z" fill="#1e4e21" stroke="#1e4e21" stroke-width="1.51"/><path d="M-384,-396L1043,-365L2214,-409Z" fill="#25581a" stroke="#25581a" stroke-width="1.51"/><path d="M1972,-383L1885,-167L2214,-409Z" fill="#1b4b22" stroke="#1b4b22" stroke-width="1.51"/><path d="M2214,-409L1885,-167L2250,4Z" fill="#1d4c22" stroke="#1d4c22" stroke-width="1.51"/><path d="M2198,865L2221,1131L2262,599Z" fill="#21521e" stroke="#21521e" stroke-width="1.51"/><path d="M2046,333L2262,599L2265,348Z" fill="#24561c" stroke="#24561c" stroke-width="1.51"/><path d="M2250,4L1944,131L2302,75Z" fill="#1f5120" stroke="#1f5120" stroke-width="1.51"/><path d="M1944,131L2046,333L2302,75Z" fill="#21531e" stroke="#21531e" stroke-width="1.51"/><path d="M2214,-409L2250,4L2302,75Z" fill="#1c4c22" stroke="#1c4c22" stroke-width="1.51"/><path d="M2046,333L2265,348L2302,75Z" fill="#21531e" stroke="#21531e" stroke-width="1.51"/><path d="M2265,348L2262,599L2302,75Z" fill="#22541d" stroke="#22541d" stroke-width="1.51"/><path d="M2010,1090L1881,1475L2183,1500Z" fill="#1c4c22" stroke="#1c4c22" stroke-width="1.51"/><path d="M2198,865L2010,1090L2221,1131Z" fill="#1f5020" stroke="#1f5020" stroke-width="1.51"/><path d="M2010,1090L2183,1500L2221,1131Z" fill="#1d4c22" stroke="#1d4c22" stroke-width="1.51"/><path d="M1909,749L2198,865L2262,599Z" fill="#23561d" stroke="#23561d" stroke-width="1.51"/><path d="M2046,333L1909,749L2262,599Z" fill="#27591a" stroke="#27591a" stroke-width="1.51"/><path d="M1885,-167L1944,131L2250,4Z" fill="#1f5020" stroke="#1f5020" stroke-width="1.51"/><path d="M1888,997L2010,1090L2198,865Z" fill="#21531f" stroke="#21531f" stroke-width="1.51"/><path d="M1909,749L1888,997L2198,865Z" fill="#23551d" stroke="#23551d" stroke-width="1.51"/><path d="M1623,449L1630,645L1909,749Z" fill="#285d19" stroke="#285d19" stroke-width="1.51"/><path d="M1885,-167L1778,-31L1944,131Z" fill="#215220" stroke="#215220" stroke-width="1.51"/><path d="M1715,1232L1881,1475L2010,1090Z" fill="#1f4f21" stroke="#1f4f21" stroke-width="1.51"/><path d="M1623,449L1909,749L2046,333Z" fill="#275b1a" stroke="#275b1a" stroke-width="1.51"/><path d="M1765,230L1623,449L2046,333Z" fill="#26591b" stroke="#26591b" stroke-width="1.51"/><path d="M1944,131L1765,230L2046,333Z" fill="#24561d" stroke="#24561d" stroke-width="1.51"/><path d="M1888,997L1715,1232L2010,1090Z" fill="#215220" stroke="#215220" stroke-width="1.51"/><path d="M1726,-342L1885,-167L1972,-383Z" fill="#1d4d22" stroke="#1d4d22" stroke-width="1.51"/><path d="M1715,967L1888,997L1909,749Z" fill="#24561d" stroke="#24561d" stroke-width="1.51"/><path d="M1778,-31L1765,230L1944,131Z" fill="#23551e" stroke="#23551e" stroke-width="1.51"/><path d="M1715,1232L1675,1451L1881,1475Z" fill="#1e4f21" stroke="#1e4f21" stroke-width="1.51"/><path d="M1715,967L1715,1232L1888,997Z" fill="#22541f" stroke="#22541f" stroke-width="1.51"/><path d="M1630,645L1715,967L1909,749Z" fill="#265a1b" stroke="#265a1b" stroke-width="1.51"/><path d="M1726,-342L1778,-31L1885,-167Z" fill="#205021" stroke="#205021" stroke-width="1.51"/><path d="M1448,1355L1154,1403L1675,1451Z" fill="#21531e" stroke="#21531e" stroke-width="1.51"/><path d="M1726,-342L1446,-152L1778,-31Z" fill="#21521f" stroke="#21521f" stroke-width="1.51"/><path d="M1394,122L1765,230L1778,-31Z" fill="#25581d" stroke="#25581d" stroke-width="1.51"/><path d="M1446,-152L1394,122L1778,-31Z" fill="#24571d" stroke="#24571d" stroke-width="1.51"/><path d="M1630,645L1494,657L1715,967Z" fill="#285c1a" stroke="#285c1a" stroke-width="1.51"/><path d="M1494,657L1408,930L1715,967Z" fill="#285c1a" stroke="#285c1a" stroke-width="1.51"/><path d="M1514,1259L1715,1232L1715,967Z" fill="#23541f" stroke="#23541f" stroke-width="1.51"/><path d="M1415,355L1623,449L1765,230Z" fill="#285d19" stroke="#285d19" stroke-width="1.51"/><path d="M1394,122L1415,355L1765,230Z" fill="#285c1a" stroke="#285c1a" stroke-width="1.51"/><path d="M1514,1259L1675,1451L1715,1232Z" fill="#20521f" stroke="#20521f" stroke-width="1.51"/><path d="M1408,930L1514,1259L1715,967Z" fill="#25571d" stroke="#25571d" stroke-width="1.51"/><path d="M1433,-337L1446,-152L1726,-342Z" fill="#21521f" stroke="#21521f" stroke-width="1.51"/><path d="M1623,449L1494,657L1630,645Z" fill="#2a5f17" stroke="#2a5f17" stroke-width="1.51"/><path d="M1514,1259L1448,1355L1675,1451Z" fill="#21521f" stroke="#21521f" stroke-width="1.51"/><path d="M969,1384L635,1494L1154,1403Z" fill="#25581b" stroke="#25581b" stroke-width="1.51"/><path d="M1415,355L1494,657L1623,449Z" fill="#2b6016" stroke="#2b6016" stroke-width="1.51"/><path d="M1415,355L1273,598L1494,657Z" fill="#2c6314" stroke="#2c6314" stroke-width="1.51"/><path d="M1273,598L1408,930L1494,657Z" fill="#2a6017" stroke="#2a6017" stroke-width="1.51"/><path d="M1163,1119L1448,1355L1514,1259Z" fill="#24561d" stroke="#24561d" stroke-width="1.51"/><path d="M1408,930L1163,1119L1514,1259Z" fill="#26591c" stroke="#26591c" stroke-width="1.51"/><path d="M1238,937L1163,1119L1408,930Z" fill="#285c19" stroke="#285c19" stroke-width="1.51"/><path d="M1273,598L1238,937L1408,930Z" fill="#2a5f18" stroke="#2a5f18" stroke-width="1.51"/><path d="M1199,-156L1263,140L1394,122Z" fill="#275b1a" stroke="#275b1a" stroke-width="1.51"/><path d="M1394,122L1263,140L1415,355Z" fill="#295d19" stroke="#295d19" stroke-width="1.51"/><path d="M1433,-337L1199,-156L1446,-152Z" fill="#23551d" stroke="#23551d" stroke-width="1.51"/><path d="M1199,-156L1394,122L1446,-152Z" fill="#25581c" stroke="#25581c" stroke-width="1.51"/><path d="M1163,1119L1154,1403L1448,1355Z" fill="#24571c" stroke="#24571c" stroke-width="1.51"/><path d="M1131,498L1273,598L1415,355Z" fill="#2d6313" stroke="#2d6313" stroke-width="1.51"/><path d="M1146,-350L1199,-156L1433,-337Z" fill="#23561d" stroke="#23561d" stroke-width="1.51"/><path d="M1263,140L1131,498L1415,355Z" fill="#2b6116" stroke="#2b6116" stroke-width="1.51"/><path d="M451,-346L687,-269L1043,-365Z" fill="#23561c" stroke="#23561c" stroke-width="1.51"/><path d="M923,611L966,824L1131,498Z" fill="#2f6611" stroke="#2f6611" stroke-width="1.51"/><path d="M1040,1206L1154,1403L1163,1119Z" fill="#26591b" stroke="#26591b" stroke-width="1.51"/><path d="M873,171L991,421L1263,140Z" fill="#2c6214" stroke="#2c6214" stroke-width="1.51"/><path d="M1199,-156L961,-70L1263,140Z" fill="#285c1a" stroke="#285c1a" stroke-width="1.51"/><path d="M991,421L1131,498L1263,140Z" fill="#2d6314" stroke="#2d6314" stroke-width="1.51"/><path d="M966,824L1238,937L1273,598Z" fill="#2c6115" stroke="#2c6115" stroke-width="1.51"/><path d="M1131,498L966,824L1273,598Z" fill="#2e6412" stroke="#2e6412" stroke-width="1.51"/><path d="M961,-70L873,171L1263,140Z" fill="#2a5f17" stroke="#2a5f17" stroke-width="1.51"/><path d="M966,824L1163,1119L1238,937Z" fill="#2a5f17" stroke="#2a5f17" stroke-width="1.51"/><path d="M1146,-350L1043,-365L1199,-156Z" fill="#25571c" stroke="#25571c" stroke-width="1.51"/><path d="M1043,-365L961,-70L1199,-156Z" fill="#26591b" stroke="#26591b" stroke-width="1.51"/><path d="M1040,1206L969,1384L1154,1403Z" fill="#25591a" stroke="#25591a" stroke-width="1.51"/><path d="M966,824L1040,1206L1163,1119Z" fill="#295e18" stroke="#295e18" stroke-width="1.51"/><path d="M966,824L727,968L1040,1206Z" fill="#2a5f17" stroke="#2a5f17" stroke-width="1.51"/><path d="M991,421L923,611L1131,498Z" fill="#2f670f" stroke="#2f670f" stroke-width="1.51"/><path d="M727,968L656,1140L1040,1206Z" fill="#285c19" stroke="#285c19" stroke-width="1.51"/><path d="M687,-269L961,-70L1043,-365Z" fill="#26591a" stroke="#26591a" stroke-width="1.51"/><path d="M656,1140L969,1384L1040,1206Z" fill="#275a1a" stroke="#275a1a" stroke-width="1.51"/><path d="M923,611L734,697L966,824Z" fill="#2e6412" stroke="#2e6412" stroke-width="1.51"/><path d="M756,481L923,611L991,421Z" fill="#2f660f" stroke="#2f660f" stroke-width="1.51"/><path d="M873,171L756,481L991,421Z" fill="#2e6412" stroke="#2e6412" stroke-width="1.51"/><path d="M640,-25L873,171L961,-70Z" fill="#295d18" stroke="#295d18" stroke-width="1.51"/><path d="M656,1140L635,1494L969,1384Z" fill="#24571b" stroke="#24571b" stroke-width="1.51"/><path d="M716,177L756,481L873,171Z" fill="#2c6115" stroke="#2c6115" stroke-width="1.51"/><path d="M687,-269L640,-25L961,-70Z" fill="#26591b" stroke="#26591b" stroke-width="1.51"/><path d="M734,697L727,968L966,824Z" fill="#2b6115" stroke="#2b6115" stroke-width="1.51"/><path d="M640,-25L716,177L873,171Z" fill="#295e18" stroke="#295e18" stroke-width="1.51"/><path d="M756,481L734,697L923,611Z" fill="#2e6511" stroke="#2e6511" stroke-width="1.51"/><path d="M-384,-396L-39,-244L451,-346Z" fill="#1c4c22" stroke="#1c4c22" stroke-width="1.51"/><path d="M535,1164L635,1494L656,1140Z" fill="#24571d" stroke="#24571d" stroke-width="1.51"/><path d="M527,906L727,968L734,697Z" fill="#2a5f18" stroke="#2a5f18" stroke-width="1.51"/><path d="M716,177L449,498L756,481Z" fill="#2b6115" stroke="#2b6115" stroke-width="1.51"/><path d="M497,616L734,697L756,481Z" fill="#2d6313" stroke="#2d6313" stroke-width="1.51"/><path d="M449,498L497,616L756,481Z" fill="#2d6313" stroke="#2d6313" stroke-width="1.51"/><path d="M640,-25L522,-11L716,177Z" fill="#275b1a" stroke="#275b1a" stroke-width="1.51"/><path d="M429,113L449,498L716,177Z" fill="#295e18" stroke="#295e18" stroke-width="1.51"/><path d="M527,906L656,1140L727,968Z" fill="#285c1a" stroke="#285c1a" stroke-width="1.51"/><path d="M497,616L527,906L734,697Z" fill="#2b6016" stroke="#2b6016" stroke-width="1.51"/><path d="M535,1164L453,1480L635,1494Z" fill="#22541e" stroke="#22541e" stroke-width="1.51"/><path d="M-39,-244L212,-244L451,-346Z" fill="#1f5020" stroke="#1f5020" stroke-width="1.51"/><path d="M522,-11L640,-25L687,-269Z" fill="#25581c" stroke="#25581c" stroke-width="1.51"/><path d="M522,-11L429,113L716,177Z" fill="#275b1a" stroke="#275b1a" stroke-width="1.51"/><path d="M527,906L535,1164L656,1140Z" fill="#265a1b" stroke="#265a1b" stroke-width="1.51"/><path d="M451,-346L522,-11L687,-269Z" fill="#23561d" stroke="#23561d" stroke-width="1.51"/><path d="M429,113L285,496L449,498Z" fill="#295e18" stroke="#295e18" stroke-width="1.51"/><path d="M276,584L248,880L497,616Z" fill="#295d18" stroke="#295d18" stroke-width="1.51"/><path d="M451,-346L281,-129L522,-11Z" fill="#22551e" stroke="#22551e" stroke-width="1.51"/><path d="M497,616L248,880L527,906Z" fill="#295d19" stroke="#295d19" stroke-width="1.51"/><path d="M267,1216L453,1480L535,1164Z" fill="#22541e" stroke="#22541e" stroke-width="1.51"/><path d="M527,906L248,880L535,1164Z" fill="#265a1b" stroke="#265a1b" stroke-width="1.51"/><path d="M248,880L267,1216L535,1164Z" fill="#24571d" stroke="#24571d" stroke-width="1.51"/><path d="M122,256L285,496L429,113Z" fill="#275b1a" stroke="#275b1a" stroke-width="1.51"/><path d="M281,-129L429,113L522,-11Z" fill="#24571d" stroke="#24571d" stroke-width="1.51"/><path d="M449,498L276,584L497,616Z" fill="#2b6016" stroke="#2b6016" stroke-width="1.51"/><path d="M285,496L276,584L449,498Z" fill="#2b6016" stroke="#2b6016" stroke-width="1.51"/><path d="M212,-244L281,-129L451,-346Z" fill="#20521f" stroke="#20521f" stroke-width="1.51"/><path d="M131,1364L-5,1472L453,1480Z" fill="#1e4e21" stroke="#1e4e21" stroke-width="1.51"/><path d="M267,1216L131,1364L453,1480Z" fill="#205120" stroke="#205120" stroke-width="1.51"/><path d="M281,-129L122,256L429,113Z" fill="#25571d" stroke="#25571d" stroke-width="1.51"/><path d="M248,880L2,985L267,1216Z" fill="#23551e" stroke="#23551e" stroke-width="1.51"/><path d="M-100,753L248,880L276,584Z" fill="#265a1b" stroke="#265a1b" stroke-width="1.51"/><path d="M37,-121L122,256L281,-129Z" fill="#22541f" stroke="#22541f" stroke-width="1.51"/><path d="M22,328L276,584L285,496Z" fill="#285d19" stroke="#285d19" stroke-width="1.51"/><path d="M122,256L22,328L285,496Z" fill="#275a1b" stroke="#275a1b" stroke-width="1.51"/><path d="M212,-244L37,-121L281,-129Z" fill="#205120" stroke="#205120" stroke-width="1.51"/><path d="M2,985L-98,1132L267,1216Z" fill="#215220" stroke="#215220" stroke-width="1.51"/><path d="M22,328L-100,753L276,584Z" fill="#285c1a" stroke="#285c1a" stroke-width="1.51"/><path d="M37,-121L-54,212L122,256Z" fill="#23541f" stroke="#23541f" stroke-width="1.51"/><path d="M-98,1132L131,1364L267,1216Z" fill="#1f5021" stroke="#1f5021" stroke-width="1.51"/><path d="M-100,753L2,985L248,880Z" fill="#24561d" stroke="#24561d" stroke-width="1.51"/><path d="M-202,462L-100,753L22,328Z" fill="#265a1a" stroke="#265a1a" stroke-width="1.51"/><path d="M-39,-244L37,-121L212,-244Z" fill="#1f4f21" stroke="#1f4f21" stroke-width="1.51"/><path d="M-98,1132L-5,1472L131,1364Z" fill="#1d4d21" stroke="#1d4d21" stroke-width="1.51"/><path d="M-54,212L22,328L122,256Z" fill="#24571d" stroke="#24571d" stroke-width="1.51"/><path d="M-293,-101L-266,191L-54,212Z" fill="#20521f" stroke="#20521f" stroke-width="1.51"/><path d="M-98,1132L-318,1390L-5,1472Z" fill="#1c4c21" stroke="#1c4c21" stroke-width="1.51"/><path d="M-39,-244L-293,-101L37,-121Z" fill="#1e4e21" stroke="#1e4e21" stroke-width="1.51"/><path d="M-293,-101L-54,212L37,-121Z" fill="#205120" stroke="#205120" stroke-width="1.51"/><path d="M-54,212L-202,462L22,328Z" fill="#24571c" stroke="#24571c" stroke-width="1.51"/><path d="M-100,753L-350,908L2,985Z" fill="#22541d" stroke="#22541d" stroke-width="1.51"/><path d="M-298,1096L-98,1132L2,985Z" fill="#205020" stroke="#205020" stroke-width="1.51"/><path d="M-350,908L-298,1096L2,985Z" fill="#20511f" stroke="#20511f" stroke-width="1.51"/><path d="M-266,191L-202,462L-54,212Z" fill="#23551d" stroke="#23551d" stroke-width="1.51"/><path d="M-384,-396L-293,-101L-39,-244Z" fill="#1b4b22" stroke="#1b4b22" stroke-width="1.51"/><path d="M-309,758L-350,908L-100,753Z" fill="#22541d" stroke="#22541d" stroke-width="1.51"/><path d="M-202,462L-309,758L-100,753Z" fill="#25571c" stroke="#25571c" stroke-width="1.51"/><path d="M-298,1096L-318,1390L-98,1132Z" fill="#1d4d22" stroke="#1d4d22" stroke-width="1.51"/><path d="M-266,191L-309,758L-202,462Z" fill="#25571b" stroke="#25571b" stroke-width="1.51"/><path d="M-350,908L-309,758L-266,191Z" fill="#24561b" stroke="#24561b" stroke-width="1.51"/><path d="M-384,-396L-350,908L-266,191Z" fill="#21531e" stroke="#21531e" stroke-width="1.51"/><path d="M-293,-101L-384,-396L-266,191Z" fill="#1d4c22" stroke="#1d4c22" stroke-width="1.51"/><path d="M-350,908L-318,1390L-298,1096Z" fill="#1d4d21" stroke="#1d4d21" stroke-width="1.51"/></svg>