<?xml version="1.0" encoding="UTF-8"?>
<!DOCTYPE svg PUBLIC "-//W3C//DTD SVG 1.1//EN" "http://www.w3.org/Graphics/SVG/1.1/DTD/svg11.dtd">
<svg version="1.1" xmlns="http://www.w3.org/2000/svg" xmlns:xlink="http://www.w3.org/1999/xlink" x="0" y="0" width="1000" height="575" viewBox="0, 0, 1000, 575">
  <g id="Background">
    <rect x="0" y="0" width="1000" height="575" fill="#FFCC2F"/>
  </g>
  <g id="Layer_1"/>
  <g id="Layer_2">
    <path d="M648.861,127.073 C592.34,127.073 550.191,186.809 569.676,229.716 C649.67,229.717 617.104,155.876 648.861,127.073 z" fill="#00ACEE"/>
    <path d="M452.089,114.842 C360.1,114.842 267.765,206.28 311.707,332.399 C341.556,350.341 381.357,343.228 390.276,333.675 C403.758,337.985 415.787,339.798 426.538,339.798 C482.413,339.798 530.16,280.433 530.16,206.245 C530.159,130.156 479.941,114.842 452.089,114.842 z" fill="#EF5734"/>
    <path d="M414.419,196.264 C414.419,216.792 431.061,233.435 451.59,233.435 C472.119,233.435 488.761,216.792 488.761,196.264 C488.761,175.736 472.119,159.093 451.59,159.093 C431.061,159.094 414.419,175.736 414.419,196.264 z" fill="#FFCC2F"/>
    <path d="M429.336,196.264 C429.336,208.554 439.3,218.518 451.59,218.518 C463.881,218.518 473.844,208.554 473.844,196.264 C473.844,183.973 463.881,174.01 451.59,174.01 C439.3,174.011 429.336,183.973 429.336,196.264 z" fill="#543729"/>
    <path d="M464.557,186.39 C464.557,190.843 458.751,194.453 451.589,194.453 C444.428,194.453 438.622,190.843 438.622,186.39 C438.622,181.937 444.428,178.327 451.589,178.327 C458.751,178.327 464.557,181.937 464.557,186.39 z" fill="#FFFFFF"/>
    <path d="M527.835,177.224 C510.939,187.064 511.498,218.918 519.006,234.461 C533.544,229.072 553.801,218.384 556.947,216.472 C560.091,214.562 555.207,207.315 567.413,207.315 C584.343,207.315 599.651,212.605 604.045,214.51 C601.264,208.785 566.468,177.224 527.835,177.224 z" fill="#CECECE"/>
    <path d="M705.188,283.164 C683.241,262.075 573.501,248.912 538.873,245.08 C540.552,241.119 541.979,237.023 543.159,232.804 C547.88,230.736 552.972,228.813 558.243,227.207 C558.885,229.101 561.908,236.358 563.631,239.801 C633.262,241.722 636.838,188.057 639.668,173.355 C642.437,158.979 642.297,145.089 666.179,119.696 C630.597,109.326 579.429,135.766 562.288,175.12 C555.848,172.706 549.392,170.924 543.007,169.822 C538.433,151.366 514.608,99.948 452.089,99.948 C411.599,99.948 370.767,116.668 340.066,145.821 C323.522,161.53 310.527,180.184 301.444,201.265 C291.632,224.039 286.657,249.115 286.657,275.797 C286.657,368.722 350.098,450.157 385.944,450.157 C401.598,450.157 415.064,438.434 418.225,427.927 C420.876,435.132 429.008,457.53 431.678,463.232 C435.625,471.663 453.88,478.96 461.87,470.21 C472.142,475.918 490.99,479.355 501.263,464.136 C521.047,468.321 538.538,456.523 538.918,442.446 C548.626,441.928 553.388,428.297 551.268,417.444 C549.706,409.451 533.014,380.776 526.501,370.878 C539.392,381.362 572.04,384.33 576.004,370.885 C596.785,387.195 629.171,378.636 631.739,365.369 C656.991,371.931 685.954,357.521 681.198,340.068 C721.762,337.261 716.57,294.101 705.188,283.164 z M599.551,211.628 C588.867,207.434 575.313,204.78 565.815,204.78 C552.344,204.78 544.14,212.414 531.465,212.414 C528.804,212.414 522.454,212.427 517.359,210.612 C520.71,214.127 524.88,216.033 532.964,216.033 C537.792,216.033 547.35,213.568 555.093,211.24 C555.2,212.87 555.371,214.488 555.601,216.095 C541.099,219.563 525.88,228.788 521.475,231.183 C511.679,209.55 520.1,189.094 527.89,179.65 C562.779,179.733 590.958,203.69 599.551,211.628 z M614.636,209.997 L609.298,205.014 C603.818,199.882 598.105,195.238 592.239,191.115 C600.975,173.781 611.955,154.852 625.822,143.142 C610.56,149.294 595.49,167.681 586.58,187.336 C582.04,184.449 577.429,181.874 572.778,179.623 C585.206,153.094 614.087,130.938 645.917,129.207 C624.597,148.541 632.601,187.131 614.636,209.997 z M570.842,228.081 C568.491,222.985 566.111,214.522 566.401,209.547 C570.362,209.454 577.959,210.939 579.181,211.227 C578.717,213.563 578.469,218.681 578.459,219.343 C579.212,218.047 581.301,213.575 582.151,211.819 C589.757,213.272 599.757,215.702 605.62,218.434 C598.736,222.891 587.036,227.741 570.842,228.081 z M523.31,168.254 C495.491,196.448 506.477,232.115 516.605,248.237 C502.196,272.206 473.87,288.603 440.964,296.064 C477.906,296.064 499.631,286.556 512.27,277.241 C520.334,271.298 524.71,265.432 526.944,262.167 C581.713,265.71 668.436,283.354 676.896,289.069 C680.292,291.363 683.795,296.438 684.309,301.293 C643.152,295.531 568.965,289.469 549.537,288.439 C563.329,290.395 663.91,309.442 681.346,313.9 C676.039,322.554 663.952,328.664 645.733,324.418 C655.577,337.83 636.462,353.919 609.839,345.058 C615.699,358.224 591.994,370.076 565.053,356.354 C565.396,369.525 531.631,371.043 518.282,356.489 C518.537,358.224 520.121,361.544 520.805,362.997 C516.503,401.457 485.003,425.319 452.738,425.319 C373.739,425.319 304.918,361.158 304.918,275.798 C304.918,185.55 371.613,118.21 452.089,118.21 C498.202,118.21 519.031,154.504 523.31,168.254 z" fill="#543729"/>
  </g>
</svg>
