<?xml version="1.0" encoding="UTF-8"?>
<!DOCTYPE svg PUBLIC "-//W3C//DTD SVG 1.1//EN" "http://www.w3.org/Graphics/SVG/1.1/DTD/svg11.dtd">
<svg version="1.1" xmlns="http://www.w3.org/2000/svg" xmlns:xlink="http://www.w3.org/1999/xlink" x="0" y="0" width="1920" height="1080" viewBox="0, 0, 1920, 1080">
  <g id="Background">
    <rect x="0" y="0" width="1920" height="1080" fill="#FFFFFF"/>
  </g>
  <g id="Layer_1">
    <g>
      <path d="M0,0 L1920,0 L1920,1080 L0,1080 z" fill="#000000"/>
      <path d="M0,0 L1920,0 L1920,1080 L0,1080 z" fill="#FBF9E9"/>
    </g>
    <g opacity="0.27">
      <path d="M73.114,384.461 L1846.886,384.461" fill-opacity="0" stroke="#000000" stroke-width="2" stroke-dasharray="4,4"/>
    </g>
    <g opacity="0.267">
      <path d="M73.114,677.109 L1846.886,677.109" fill-opacity="0" stroke="#000000" stroke-width="2" stroke-dasharray="4,4"/>
    </g>
    <g opacity="0.267">
      <path d="M73.114,96.859 L1846.886,96.859" fill-opacity="0" stroke="#000000" stroke-width="2" stroke-dasharray="4,4"/>
    </g>
    <g opacity="0.267">
      <path d="M73.114,971.758 L1846.886,971.758" fill-opacity="0" stroke="#000000" stroke-width="2" stroke-dasharray="4,4"/>
    </g>
    <text transform="matrix(1, 0, -0, 1, 136.849, 235)">
      <tspan x="-42.849" y="9" font-family="Foro Light, Georgia, serif" font-size="27" fill="#8A847A">Desi</tspan>
      <tspan x="11.691" y="9" font-family="Foro Light, Georgia, serif" font-size="27" kerning="0.135" fill="#8A847A">g</tspan>
      <tspan x="25.758" y="9" font-family="Foro Light, Georgia, serif" font-size="27" kerning="0" fill="#8A847A">n</tspan>
    </text>
    <text transform="matrix(1, 0, -0, 1, 150.429, 537)">
      <tspan x="-57.429" y="9" font-family="Foro Light, Georgia, serif" font-size="27" kerning="-0.472" fill="#8A847A">F</tspan>
      <tspan x="-43.025" y="9" font-family="Foro Light, Georgia, serif" font-size="27" kerning="0.041" fill="#8A847A">r</tspan>
      <tspan x="-32.103" y="9" font-family="Foro Light, Georgia, serif" font-size="27" fill="#8A847A">onten</tspan>
      <tspan x="41.175" y="9" font-family="Foro Light, Georgia, serif" font-size="27" kerning="0" fill="#8A847A">d</tspan>
    </text>
    <text transform="matrix(1, 0, -0, 1, 150.054, 839)">
      <tspan x="-54.054" y="9" font-family="Foro Light, Georgia, serif" font-size="27" fill="#8A847A">Ba</tspan>
      <tspan x="-21.411" y="9" font-family="Foro Light, Georgia, serif" font-size="27" kerning="-0.135" fill="#8A847A">c</tspan>
      <tspan x="-8.343" y="9" font-family="Foro Light, Georgia, serif" font-size="27" kerning="-0.108" fill="#8A847A">k</tspan>
      <tspan x="6.588" y="9" font-family="Foro Light, Georgia, serif" font-size="27" fill="#8A847A">en</tspan>
      <tspan x="37.8" y="9" font-family="Foro Light, Georgia, serif" font-size="27" kerning="0" fill="#8A847A">d</tspan>
    </text>
    <path d="M1399.543,331.074 L1709.348,331.074 L1709.348,760.926 L1399.543,760.926 z M1399.543,331.074" fill="#53842D"/>
    <path d="M1715.896,187.871 L1843.45,187.871 L1843.45,688.051 L1715.896,688.051 z M1715.896,187.871" fill="#679D35"/>
    <g>
      <text transform="matrix(1, 0, -0, 1, 745.341, 480)">
        <tspan x="-10.341" y="9" font-family="Foro-ExtraBold" font-size="27" kerning="0" fill="#48440E">V</tspan>
      </text>
      <text transform="matrix(1, 0, -0, 1, 763.661, 480)">
        <tspan x="-8.248" y="9" font-family="Foro-ExtraBold" font-size="27" kerning="0" fill="#48440E">ý</tspan>
      </text>
      <text transform="matrix(1, 0, -0, 1, 801.015, 480)">
        <tspan x="-28.863" y="9" font-family="Foro-ExtraBold" font-size="27" kerning="-0.203" fill="#48440E">v</tspan>
        <tspan x="-12.785" y="9" font-family="Foro-ExtraBold" font-size="27" fill="#48440E">o</tspan>
        <tspan x="3.82" y="9" font-family="Foro-ExtraBold" font-size="27" kerning="-0.284" fill="#48440E">j</tspan>
        <tspan x="12.663" y="9" font-family="Foro-ExtraBold" font-size="27" kerning="0" fill="#48440E">á</tspan>
      </text>
      <text transform="matrix(1, 0, -0, 1, 836.115, 480)">
        <tspan x="-6.318" y="9" font-family="Foro-ExtraBold" font-size="27" kerning="0" fill="#48440E">ř</tspan>
      </text>
    </g>
    <g>
      <text transform="matrix(1, 0, -0, 1, 1553.979, 263)">
        <tspan x="-60.979" y="9" font-family="Foro-ExtraBold" font-size="27" kerning="-0.472" fill="#53832C">F</tspan>
        <tspan x="-45.198" y="9" font-family="Foro-ExtraBold" font-size="27" kerning="-0.108" fill="#53832C">r</tspan>
        <tspan x="-33.831" y="9" font-family="Foro-ExtraBold" font-size="27" fill="#53832C">on</tspan>
        <tspan x="0.837" y="9" font-family="Foro-ExtraBold" font-size="27" kerning="-0.108" fill="#53832C">t</tspan>
        <tspan x="11.232" y="9" font-family="Foro-ExtraBold" font-size="27" fill="#53832C">e</tspan>
        <tspan x="26.46" y="9" font-family="Foro-ExtraBold" font-size="27" kerning="-0.203" fill="#53832C">n</tspan>
        <tspan x="43.916" y="9" font-family="Foro-ExtraBold" font-size="27" fill="#53832C">d</tspan>
        <tspan x="60.979" y="9" font-family="Foro-ExtraBold" font-size="27" kerning="0" fill="#53832C"> </tspan>
      </text>
      <text transform="matrix(1, 0, -0, 1, 1553.772, 291)">
        <tspan x="-38.772" y="9" font-family="Foro-ExtraBold" font-size="27" kerning="-0.243" fill="#53832C">k</tspan>
        <tspan x="-22.437" y="9" font-family="Foro-ExtraBold" font-size="27" fill="#53832C">o</tspan>
        <tspan x="-5.832" y="9" font-family="Foro-ExtraBold" font-size="27" kerning="-0.108" fill="#53832C">d</tspan>
        <tspan x="10.908" y="9" font-family="Foro-ExtraBold" font-size="27" fill="#53832C">é</tspan>
        <tspan x="26.136" y="9" font-family="Foro-ExtraBold" font-size="27" kerning="0" fill="#53832C">r</tspan>
      </text>
    </g>
    <g>
      <text transform="matrix(1, 0, -0, 1, 1778.979, 127)">
        <tspan x="-60.979" y="9" font-family="Foro-ExtraBold" font-size="27" kerning="-0.472" fill="#669D36">F</tspan>
        <tspan x="-45.198" y="9" font-family="Foro-ExtraBold" font-size="27" kerning="-0.108" fill="#669D36">r</tspan>
        <tspan x="-33.831" y="9" font-family="Foro-ExtraBold" font-size="27" fill="#669D36">on</tspan>
        <tspan x="0.837" y="9" font-family="Foro-ExtraBold" font-size="27" kerning="-0.108" fill="#669D36">t</tspan>
        <tspan x="11.232" y="9" font-family="Foro-ExtraBold" font-size="27" fill="#669D36">e</tspan>
        <tspan x="26.46" y="9" font-family="Foro-ExtraBold" font-size="27" kerning="-0.203" fill="#669D36">n</tspan>
        <tspan x="43.916" y="9" font-family="Foro-ExtraBold" font-size="27" fill="#669D36">d</tspan>
        <tspan x="60.979" y="9" font-family="Foro-ExtraBold" font-size="27" kerning="0" fill="#669D36"> </tspan>
      </text>
      <text transform="matrix(1, 0, -0, 1, 1779.313, 155)">
        <tspan x="-58.313" y="9" font-family="Foro-ExtraBold" font-size="27" kerning="-0.108" fill="#669D36">d</tspan>
        <tspan x="-41.573" y="9" font-family="Foro-ExtraBold" font-size="27" fill="#669D36">esi</tspan>
        <tspan x="-2.288" y="9" font-family="Foro-ExtraBold" font-size="27" kerning="0.324" fill="#669D36">g</tspan>
        <tspan x="13.318" y="9" font-family="Foro-ExtraBold" font-size="27" kerning="-0.526" fill="#669D36">n</tspan>
        <tspan x="30.449" y="9" font-family="Foro-ExtraBold" font-size="27" fill="#669D36">é</tspan>
        <tspan x="45.677" y="9" font-family="Foro-ExtraBold" font-size="27" kerning="0" fill="#669D36">r</tspan>
      </text>
    </g>
    <path d="M300.114,534.152 L622.95,534.152 L622.95,971.621 L300.114,971.621 z M300.114,534.152" fill="#48440E"/>
    <text transform="matrix(1, 0, -0, 1, 461.707, 753)">
      <tspan x="-63.707" y="9" font-family="Foro Light, Georgia, serif" font-size="27" kerning="-0.189" fill="#FFFFFF">J</tspan>
      <tspan x="-52.907" y="9" font-family="Foro Light, Georgia, serif" font-size="27" kerning="0.257" fill="#FFFFFF">a</tspan>
      <tspan x="-37.476" y="9" font-family="Foro Light, Georgia, serif" font-size="27" kerning="-0.122" fill="#FFFFFF">v</tspan>
      <tspan x="-22.451" y="9" font-family="Foro Light, Georgia, serif" font-size="27" fill="#FFFFFF">a</tspan>
      <tspan x="-7.411" y="9" font-family="Foro Light, Georgia, serif" font-size="27" kerning="0.081" fill="#FFFFFF">s</tspan>
      <tspan x="5.062" y="9" font-family="Foro Light, Georgia, serif" font-size="27" fill="#FFFFFF">c</tspan>
      <tspan x="18.535" y="9" font-family="Foro Light, Georgia, serif" font-size="27" kerning="-0.135" fill="#FFFFFF">r</tspan>
      <tspan x="29.875" y="9" font-family="Foro Light, Georgia, serif" font-size="27" fill="#FFFFFF">ip</tspan>
      <tspan x="54.311" y="9" font-family="Foro Light, Georgia, serif" font-size="27" kerning="0" fill="#FFFFFF">t</tspan>
    </text>
    <path d="M627.176,534.152 L950.012,534.152 L950.012,971.621 L627.176,971.621 z M627.176,534.152" fill="#48440E"/>
    <text transform="matrix(1, 0, -0, 1, 788.365, 753)">
      <tspan x="-27.365" y="9" font-family="Foro Light, Georgia, serif" font-size="27" fill="#FFFFFF">PH</tspan>
      <tspan x="10.436" y="9" font-family="Foro Light, Georgia, serif" font-size="27" kerning="0" fill="#FFFFFF">P</tspan>
    </text>
    <path d="M955.176,534.152 L1106.556,534.152 L1106.556,971.621 L955.176,971.621 z M955.176,534.152" fill="#48440E"/>
    <text transform="matrix(1, 0, -0, 1, 1031.147, 753)">
      <tspan x="-28.147" y="9" font-family="Foro Light, Georgia, serif" font-size="27" kerning="-0.189" fill="#FFFFFF">J</tspan>
      <tspan x="-17.347" y="9" font-family="Foro Light, Georgia, serif" font-size="27" kerning="0.135" fill="#FFFFFF">a</tspan>
      <tspan x="-2.039" y="9" font-family="Foro Light, Georgia, serif" font-size="27" kerning="-0.108" fill="#FFFFFF">v</tspan>
      <tspan x="13.108" y="9" font-family="Foro Light, Georgia, serif" font-size="27" kerning="0" fill="#FFFFFF">a</tspan>
    </text>
    <path d="M1111.72,534.152 L1263.1,534.152 L1263.1,971.621 L1111.72,971.621 z M1111.72,534.152" fill="#48440E"/>
    <text transform="matrix(1, 0, -0, 1, 1187.193, 753)">
      <tspan x="-30.193" y="9" font-family="Foro Light, Georgia, serif" font-size="27" fill="#FFFFFF">.N</tspan>
      <tspan x="-4.408" y="9" font-family="Foro Light, Georgia, serif" font-size="27" kerning="-0.175" fill="#FFFFFF">E</tspan>
      <tspan x="11.941" y="9" font-family="Foro Light, Georgia, serif" font-size="27" kerning="0" fill="#FFFFFF">T</tspan>
    </text>
    <path d="M1269.896,534.152 L1396.011,534.152 L1396.011,971.621 L1269.896,971.621 z M1269.896,534.152" fill="#48440E"/>
    <text transform="matrix(1, 0, -0, 1, 1333.031, 753)">
      <tspan x="-23.031" y="9" font-family="Foro Light, Georgia, serif" font-size="27" fill="#FFFFFF">at</tspan>
      <tspan x="1.404" y="9" font-family="Foro Light, Georgia, serif" font-size="27" kerning="0.27" fill="#FFFFFF">d</tspan>
      <tspan x="17.928" y="9" font-family="Foro Light, Georgia, serif" font-size="27" kerning="0" fill="#FFFFFF">.</tspan>
    </text>
  </g>
</svg>
