<?xml version="1.0" encoding="UTF-8"?>
<!DOCTYPE svg PUBLIC "-//W3C//DTD SVG 1.1//EN" "http://www.w3.org/Graphics/SVG/1.1/DTD/svg11.dtd">
<svg version="1.1" xmlns="http://www.w3.org/2000/svg" xmlns:xlink="http://www.w3.org/1999/xlink" x="0" y="0" width="1600" height="900" viewBox="0, 0, 1600, 900">
  <g id="Background">
    <rect x="0" y="0" width="1600" height="900" fill="#5FA316"/>
  </g>
  <g id="">
    <path d="M-0,0 L1600,0 L1600,900 L-0,900 L-0,0 z" fill="#000000" opacity="0.691"/>
  </g>
  <g id="ikony">
    <path d="M1037.105,623.976 L1037.105,208.02 L470.171,208.02 L470.171,623.976 L718.205,623.976 L718.205,658.639 L611.905,658.639 L611.905,693.303 L895.371,693.303 L895.371,658.639 L789.071,658.639 L789.071,623.976 L1037.105,623.976 z M541.038,277.346 L966.238,277.346 L966.238,554.65 L541.038,554.65 L541.038,277.346 z" fill="#CFCE7A"/>
    <path d="M1068.599,225.755 L1068.599,352.805 C1068.599,363.286 1077.366,371.862 1088.08,371.862 L1256.916,371.862 C1267.63,371.862 1276.396,363.286 1276.396,352.805 L1276.396,225.755 C1276.396,215.273 1267.63,206.697 1256.916,206.697 L1088.08,206.697 C1077.366,206.697 1068.599,215.273 1068.599,225.755 z M1269.903,289.28 C1269.903,292.786 1266.994,295.632 1263.409,295.632 C1259.825,295.632 1256.916,292.786 1256.916,289.28 C1256.916,285.773 1259.825,282.927 1263.409,282.927 C1266.994,282.927 1269.903,285.773 1269.903,289.28 z M1250.422,232.107 L1250.422,346.452 L1094.574,346.452 L1094.574,232.107 L1250.422,232.107 z" fill="#CFCE7A"/>
    <path d="M1260.146,397.828 L1184.311,397.828 C1175.373,397.828 1168.06,404.982 1168.06,413.725 L1168.06,551.501 C1168.06,560.244 1175.373,567.398 1184.311,567.398 L1260.146,567.398 C1269.084,567.398 1276.396,560.244 1276.396,551.501 L1276.396,413.725 C1276.396,404.982 1269.084,397.828 1260.146,397.828 z M1200.561,405.776 L1243.896,405.776 L1243.896,411.075 L1200.561,411.075 L1200.561,405.776 z M1222.228,556.8 C1216.243,556.8 1211.395,552.057 1211.395,546.201 C1211.395,540.346 1216.243,535.603 1222.228,535.603 C1228.214,535.603 1233.062,540.346 1233.062,546.201 C1233.062,552.057 1228.214,556.8 1222.228,556.8 z M1265.563,525.005 L1178.894,525.005 L1178.894,419.024 L1265.563,419.024 L1265.563,525.005 z" fill="#CFCE7A"/>
    <path d="M1144.304,536.653 L1076.17,536.653 C1072.006,536.653 1068.599,539.986 1068.599,544.059 L1068.599,647.742 C1068.599,651.815 1072.006,655.148 1076.17,655.148 L1144.304,655.148 C1148.468,655.148 1151.875,651.815 1151.875,647.742 L1151.875,544.059 C1151.875,539.986 1148.468,536.653 1144.304,536.653 z M1110.237,649.801 C1106.986,649.801 1104.347,647.22 1104.347,644.039 C1104.347,640.858 1106.986,638.277 1110.237,638.277 C1113.489,638.277 1116.127,640.858 1116.127,644.039 C1116.127,647.22 1113.489,649.801 1110.237,649.801 z M1144.304,632.93 L1076.17,632.93 L1076.17,551.465 L1144.304,551.465 L1144.304,632.93 z" fill="#CFCE7A"/>
    <path d="M1144.304,397.828 L1076.17,397.828 C1072.006,397.828 1068.599,401.16 1068.599,405.234 L1068.599,508.917 C1068.599,512.99 1072.006,516.322 1076.17,516.322 L1144.304,516.322 C1148.468,516.322 1151.875,512.99 1151.875,508.917 L1151.875,405.234 C1151.875,401.16 1148.468,397.828 1144.304,397.828 z M1110.237,510.975 C1106.986,510.975 1104.347,508.394 1104.347,505.214 C1104.347,502.033 1106.986,499.452 1110.237,499.452 C1113.489,499.452 1116.127,502.033 1116.127,505.214 C1116.127,508.394 1113.489,510.975 1110.237,510.975 z M1144.304,494.105 L1076.17,494.105 L1076.17,412.64 L1144.304,412.64 L1144.304,494.105 z" fill="#CFCE7A"/>
  </g>
</svg>
