<?xml version="1.0" encoding="UTF-8"?>
<!DOCTYPE svg PUBLIC "-//W3C//DTD SVG 1.1//EN" "http://www.w3.org/Graphics/SVG/1.1/DTD/svg11.dtd">
<svg version="1.1" xmlns="http://www.w3.org/2000/svg" xmlns:xlink="http://www.w3.org/1999/xlink" x="0" y="0" width="1600" height="900" viewBox="0, 0, 1600, 900">
  <g id="Background">
    <rect x="0" y="0" width="1600" height="900" fill="#350000"/>
  </g>
  <g id="Layer_1">
    <path d="M462.482,480.07 C462.482,519.837 464.181,544.309 467.24,558.924 C484.574,566.402 512.105,571.5 547.454,571.5 C616.111,571.5 645.001,538.531 645.001,501.143 C645.001,466.135 635.485,448.461 578.383,428.067 L549.493,417.531 C533.858,412.093 530.459,404.955 530.459,394.758 C530.459,384.902 537.597,374.705 564.448,374.705 C574.305,374.705 586.881,376.404 596.737,379.124 L600.816,415.831 L640.243,415.831 C640.243,378.444 639.563,345.475 636.844,337.997 C619.51,333.579 591.299,329.84 569.206,329.84 C498.17,329.84 470.979,362.469 470.979,401.896 C470.979,444.042 495.111,460.357 528.08,470.553 L557.99,479.39 C577.704,485.508 583.822,492.986 583.822,504.882 C583.822,517.118 575.664,526.295 554.251,526.295 C539.296,526.295 524.341,524.256 508.706,519.497 L503.268,480.07 z" fill-opacity="0" stroke="#FFFFFF" stroke-width="7" stroke-dasharray="14,7"/>
    <path d="M775.018,335.118 L775.018,370.806 L741.709,373.525 C779.097,483.989 781.816,492.146 785.215,504.382 C788.614,494.525 792.013,483.989 830.42,373.525 L796.431,370.806 L796.431,335.118 L914.372,335.118 L914.372,370.806 L889.9,373.525 L817.164,564.882 L749.867,564.882 L678.15,373.525 L654.358,370.806 L654.358,335.118 L775.018,335.118 z M768.018,342.118 L661.358,342.118 L661.358,364.561 L678.945,366.57 L683.201,367.057 L684.705,371.069 L754.718,557.882 L812.336,557.882 L883.357,371.038 L884.877,367.04 L889.127,366.568 L907.372,364.541 L907.372,342.118 L803.431,342.118 L803.431,364.344 L830.978,366.547 L840.006,367.27 L837.032,375.824 C820.167,424.328 808.822,457.101 801.309,478.957 C797.329,490.535 791.984,506.225 791.832,506.664 L784.495,527.943 L778.47,506.255 C775.143,494.278 772.561,486.512 735.079,375.769 L732.205,367.278 L741.14,366.548 L768.018,364.354 L768.018,342.118 z" fill="#FFFFFF"/>
    <g>
      <path d="M1120.344,552.646 L1120.344,479.23 L1138.018,477.871 L1138.018,442.862 L1037.411,442.862 L1037.411,477.871 L1066.642,480.25 L1066.642,516.958 C1055.426,520.017 1043.869,521.716 1029.594,521.716 C993.906,521.716 974.192,498.604 974.192,455.098 C974.192,396.638 1001.044,375.225 1040.131,375.225 C1047.948,375.225 1060.524,376.924 1069.361,379.303 L1074.459,413.632 L1115.586,413.632 C1115.586,360.61 1114.566,348.713 1112.187,337.497 C1089.414,332.059 1066.642,329 1034.353,329 C955.499,329 914.372,375.225 914.372,455.778 C914.372,526.815 955.499,571 1020.417,571 C1073.1,571 1098.931,559.444 1120.344,552.646 z" fill="#FFFFFF"/>
      <path d="M1034.353,329 C1066.642,329 1089.414,332.059 1112.187,337.497 C1114.566,348.713 1115.586,360.61 1115.586,413.632 L1074.459,413.632 L1069.361,379.303 C1060.524,376.924 1047.948,375.225 1040.13,375.225 C1001.044,375.225 974.192,396.638 974.192,455.098 C974.192,498.604 993.906,521.716 1029.594,521.716 C1043.869,521.716 1055.426,520.017 1066.642,516.958 L1066.642,480.25 L1037.411,477.871 L1037.411,442.862 L1138.018,442.862 L1138.018,477.871 L1120.344,479.23 L1120.344,552.646 C1098.931,559.444 1073.1,571 1020.417,571 C955.499,571 914.372,526.815 914.372,455.778 C914.372,375.225 955.499,329 1034.353,329 z M1034.353,336 C960.44,336 921.372,377.953 921.372,455.778 C921.372,522.888 959.329,564 1020.417,564 C1051.68,564 1074.083,560.229 1097.814,552.729 C1103.004,551.056 1108.17,549.309 1113.344,547.586 L1113.344,472.748 L1119.807,472.251 L1131.018,471.388 L1131.018,449.862 L1044.411,449.862 L1044.411,471.417 L1067.21,473.273 L1073.642,473.797 L1073.642,522.304 L1068.484,523.711 C1056.078,527.094 1043.872,528.716 1029.594,528.716 C989.554,528.716 967.192,502.003 967.192,455.098 C967.192,396.85 993.417,368.225 1040.13,368.225 C1048.717,368.225 1061.911,370.048 1071.181,372.544 L1075.611,373.737 L1076.285,378.275 L1080.496,406.632 L1108.578,406.632 C1108.484,392.679 1108.578,378.715 1107.996,364.771 C1107.697,357.585 1107.263,350.42 1106.126,343.313 C1082.613,337.682 1058.444,336.132 1034.353,336 z" fill="#FFFFFF"/>
    </g>
  </g>
  <g id="Layer_3" opacity="0.864">
    <path d="M246.328,228.58 L246.328,224.38 L242.448,224.02 L242.448,207.02 L246.848,207.02 L247.568,211.78 L251.928,211.78 C251.928,205.42 251.768,202.5 251.528,201.54 L226.608,201.54 C226.368,203.06 226.248,204.98 226.248,211.78 L230.648,211.78 L231.368,207.02 L235.808,207.02 L235.808,224.02 L231.928,224.38 L231.928,228.58 z" fill="#AD3523"/>
    <path d="M266.728,228.58 L272.968,212.94 L275.408,212.58 L275.408,208.46 L263.968,208.46 L263.968,212.58 L266.408,212.86 C265.048,216.82 264.048,220.06 263.248,222.74 C262.328,219.94 261.448,216.86 259.888,212.86 L262.408,212.58 L262.408,208.46 L250.688,208.46 L250.688,212.58 L253.128,212.94 L259.368,228.58 z" fill="#AD3523"/>
    <path d="M297.248,224.02 L294.048,224.02 L294.048,215.42 C294.048,212.58 293.688,210.94 293.008,209.86 C292.128,208.42 290.368,207.78 287.448,207.78 C285.048,207.78 280.528,208.46 277.528,209.46 L278.408,213.74 C281.048,213.1 283.848,212.9 285.248,212.9 C286.608,212.9 287.248,213.14 287.608,213.62 C287.848,214.02 287.928,214.78 287.928,215.58 L287.928,216.14 C284.888,216.26 282.048,216.54 279.768,217.26 C277.408,217.98 275.888,219.78 275.888,222.7 C275.888,225.9 277.888,229.06 282.488,229.06 C284.168,229.06 286.528,228.5 288.288,226.62 L288.648,228.94 C291.528,228.94 295.168,228.5 297.248,227.94 z M288.008,223.26 C287.088,224.1 285.528,224.62 284.448,224.62 C283.088,224.62 282.328,223.82 282.328,222.54 C282.328,221.66 282.768,220.94 283.808,220.58 C285.168,220.1 287.248,220.02 288.008,219.94 z" fill="#AD3523"/>
    <path d="M312.808,228.58 L312.808,224.42 L308.928,224.02 L308.928,214.38 C310.328,213.7 312.128,213.42 313.648,213.42 C314.768,213.42 315.568,213.5 315.928,213.54 L315.928,208.02 C315.568,207.98 315.008,207.94 314.648,207.94 C312.168,207.94 310.008,209.26 308.848,211.26 L308.848,207.86 C305.728,207.9 302.168,208.42 299.248,209.38 L299.248,213.46 L302.688,213.46 L302.688,224.06 L299.408,224.42 L299.408,228.58 z" fill="#AD3523"/>
    <path d="M321.968,239.02 C327.128,237.62 331.568,235.26 334.208,227.94 L339.568,212.94 L342.008,212.58 L342.008,208.46 L330.688,208.46 L330.688,212.58 L333.128,212.86 C331.808,216.82 330.968,220.42 330.208,223.1 C329.288,220.5 328.248,217.1 326.608,212.86 L329.128,212.58 L329.128,208.46 L317.568,208.46 L317.568,212.58 L320.008,212.94 L326.008,228.58 L327.048,228.58 C326.088,231.3 323.368,232.98 320.048,233.94 z" fill="#AD3523"/>
    <path d="M985.118,102 L993.678,79.48 L996.558,79.16 L996.558,74.96 L982.678,74.96 L982.678,79.16 L986.678,79.48 C982.158,92.48 981.758,93.72 981.358,94.88 C980.958,93.44 980.638,92.48 976.238,79.48 L980.158,79.16 L980.158,74.96 L965.958,74.96 L965.958,79.16 L968.758,79.48 L977.198,102 z" fill="#AD3523"/>
    <path d="M1005.758,75.92 C1005.758,73.4 1004.358,72.6 1002.478,72.6 C1000.638,72.6 999.078,73.52 999.078,75.92 C999.078,78.32 1000.638,79.2 1002.358,79.2 C1004.358,79.2 1005.758,78.16 1005.758,75.92 z M1009.638,102 L1009.638,97.84 L1006.358,97.48 L1006.358,81.28 C1003.198,81.28 999.678,81.88 996.678,82.76 L996.678,86.88 L1000.118,86.88 L1000.118,97.48 L996.838,97.84 L996.838,102 z" fill="#AD3523"/>
    <path d="M1031.318,99.96 L1029.318,96.04 C1027.358,97.12 1025.278,97.6 1022.958,97.6 C1020.358,97.6 1018.958,96.28 1018.518,94.36 C1018.438,93.96 1018.438,93.28 1018.438,93.12 L1030.918,93.12 C1030.998,92.44 1031.038,91.64 1031.038,91.36 C1031.038,86.2 1029.638,81.2 1022.198,81.2 C1016.758,81.2 1011.998,84.84 1011.998,92.28 C1011.998,98.44 1015.478,102.64 1021.398,102.64 C1025.118,102.64 1028.158,101.8 1031.318,99.96 z M1024.958,88.92 L1018.638,88.92 C1018.918,87.04 1020.238,85.68 1022.078,85.68 C1024.118,85.68 1024.998,86.68 1024.998,88.16 C1024.998,88.4 1024.998,88.64 1024.958,88.92 z" fill="#AD3523"/>
    <path d="M1063.038,86.28 L1065.358,86 L1065.358,81.88 L1055.078,81.88 L1055.078,86 L1057.358,86.28 C1056.598,90.6 1056.158,93.12 1055.838,95.28 C1055.398,93.36 1054.798,91.44 1052.198,82.72 L1047.358,82.72 C1044.998,90.72 1044.518,92.8 1043.878,95.32 C1043.638,93.84 1042.998,90.88 1042.078,86.36 L1044.478,86 L1044.478,81.88 L1033.198,81.88 L1033.198,86 L1035.638,86.36 L1039.398,102 L1046.558,102 C1048.398,96.16 1049.118,93.72 1049.638,91.52 C1050.198,93.88 1050.758,96.12 1052.318,102 L1059.398,102 z" fill="#AD3523"/>
    <path d="M1079.278,111.84 L1079.278,107.68 L1075.278,107.32 L1075.278,102.2 C1076.238,102.32 1077.198,102.36 1078.198,102.36 C1084.598,102.36 1088.678,98.76 1088.678,91.16 C1088.678,84.56 1086.238,81.24 1082.078,81.24 C1079.478,81.24 1076.678,82.64 1075.278,83.8 L1075.158,81.2 C1072.038,81.32 1068.758,81.8 1065.598,82.72 L1065.598,86.8 L1069.078,86.8 L1069.078,107.32 L1065.798,107.68 L1065.798,111.84 z M1075.278,97.24 L1075.278,87.2 C1076.478,86.8 1077.518,86.56 1078.758,86.56 C1080.678,86.56 1081.918,88.08 1081.918,91.76 C1081.918,96.04 1080.278,97.52 1077.838,97.52 C1076.878,97.52 1076.078,97.4 1075.278,97.24 z" fill="#AD3523"/>
    <path d="M1113.278,91.4 C1113.278,84.84 1110.158,81.2 1103.358,81.2 C1095.838,81.2 1092.198,85.04 1092.198,92.32 C1092.198,99 1095.918,102.64 1102.398,102.64 C1109.598,102.64 1113.278,98.68 1113.278,91.4 z M1106.558,92.12 C1106.558,96.72 1105.078,97.96 1102.598,97.96 C1100.278,97.96 1098.758,96.76 1098.758,91.68 C1098.758,88.08 1099.798,85.84 1102.838,85.84 C1105.998,85.84 1106.558,88.2 1106.558,92.12 z" fill="#AD3523"/>
    <path d="M1129.678,102 L1129.678,97.84 L1125.798,97.44 L1125.798,87.8 C1127.198,87.12 1128.998,86.84 1130.518,86.84 C1131.638,86.84 1132.438,86.92 1132.798,86.96 L1132.798,81.44 C1132.438,81.4 1131.878,81.36 1131.518,81.36 C1129.038,81.36 1126.878,82.68 1125.718,84.68 L1125.718,81.28 C1122.598,81.32 1119.038,81.84 1116.118,82.8 L1116.118,86.88 L1119.558,86.88 L1119.558,97.48 L1116.278,97.84 L1116.278,102 z" fill="#AD3523"/>
    <path d="M1149.718,101.48 L1148.958,96.88 C1147.998,97.04 1146.878,97.08 1146.318,97.08 C1145.438,97.08 1144.758,96.88 1144.398,96.36 C1143.958,95.76 1143.798,94.92 1143.798,93.28 L1143.798,86.68 L1148.598,86.68 L1148.598,81.88 L1143.798,81.88 L1143.798,76.48 L1137.798,76.88 C1137.638,79.44 1137.558,80.56 1137.558,81.88 C1137.038,81.88 1135.038,82 1133.838,82.28 L1133.838,86.68 L1137.478,86.68 L1137.478,94.64 C1137.478,97.28 1137.878,99.32 1138.718,100.44 C1139.558,101.6 1141.278,102.32 1143.318,102.32 C1145.958,102.32 1148.238,101.96 1149.718,101.48 z" fill="#AD3523"/>
    <path d="M137.988,643.24 L137.988,639.04 L133.988,638.72 L135.148,635.52 L143.268,635.52 L144.428,638.72 L140.548,639.04 L140.548,643.24 L154.588,643.24 L154.588,639.04 L151.748,638.72 L143.548,616.2 L135.188,616.2 L126.828,638.72 L123.948,639.04 L123.948,643.24 z M136.828,630.08 C138.428,625.32 138.868,623.68 139.308,622.2 C139.668,623.76 140.028,625.12 141.548,630.08 z" fill="#AD3523"/>
    <path d="M168.628,643.24 L168.628,639.08 L165.348,638.72 L165.348,628.56 C166.748,628.04 168.068,627.88 169.268,627.88 C170.108,627.88 170.788,628.12 170.948,629 C171.068,629.68 171.068,631 171.068,632.92 L171.068,643.24 L180.748,643.24 L180.748,639.08 L177.388,638.72 L177.388,631.6 C177.388,629.36 177.388,627.52 177.228,626.36 C176.908,623.96 175.748,622.56 172.668,622.56 C170.788,622.56 167.548,623.68 165.348,625.28 L165.228,622.52 C162.508,622.52 158.228,623.2 155.668,624.04 L155.668,628.12 L159.108,628.12 L159.108,638.72 L155.828,639.08 L155.828,643.24 z" fill="#AD3523"/>
    <path d="M191.508,617.16 C191.508,614.64 190.108,613.84 188.228,613.84 C186.388,613.84 184.828,614.76 184.828,617.16 C184.828,619.56 186.388,620.44 188.108,620.44 C190.108,620.44 191.508,619.4 191.508,617.16 z M195.388,643.24 L195.388,639.08 L192.108,638.72 L192.108,622.52 C188.948,622.52 185.428,623.12 182.428,624 L182.428,628.12 L185.868,628.12 L185.868,638.72 L182.588,639.08 L182.588,643.24 z" fill="#AD3523"/>
    <path d="M210.148,643.24 L210.148,639.08 L206.908,638.72 L206.908,628.56 C208.228,628.04 209.428,627.88 210.668,627.88 C211.468,627.88 212.068,628.12 212.228,628.96 C212.348,629.68 212.348,631 212.348,632.92 L212.348,643.24 L222.028,643.24 L222.028,639.08 L218.668,638.72 L218.668,631.44 C218.668,630.32 218.668,629.44 218.628,628.56 C219.948,628.08 221.148,627.88 222.348,627.88 C223.148,627.88 223.788,628.12 223.948,629 C224.108,629.68 224.108,631 224.108,632.92 L224.108,643.24 L233.788,643.24 L233.788,639.08 L230.388,638.72 L230.388,631.44 C230.388,629.2 230.388,627.44 230.228,626.32 C229.908,623.92 228.588,622.56 225.748,622.56 C223.308,622.56 220.708,623.76 218.348,625.4 C217.828,623.52 216.628,622.56 214.108,622.56 C212.108,622.56 209.108,623.72 206.908,625.28 L206.788,622.52 C204.068,622.52 200.108,623.2 197.228,624 L197.228,628.12 L200.668,628.12 L200.668,638.72 L197.388,639.08 L197.388,643.24 z" fill="#AD3523"/>
    <path d="M256.588,638.68 L253.388,638.68 L253.388,630.08 C253.388,627.24 253.028,625.6 252.348,624.52 C251.468,623.08 249.708,622.44 246.788,622.44 C244.388,622.44 239.868,623.12 236.868,624.12 L237.748,628.4 C240.388,627.76 243.188,627.56 244.588,627.56 C245.948,627.56 246.588,627.8 246.948,628.28 C247.188,628.68 247.268,629.44 247.268,630.24 L247.268,630.8 C244.228,630.92 241.388,631.2 239.108,631.92 C236.748,632.64 235.228,634.44 235.228,637.36 C235.228,640.56 237.228,643.72 241.828,643.72 C243.508,643.72 245.868,643.16 247.628,641.28 L247.988,643.6 C250.868,643.6 254.508,643.16 256.588,642.6 z M247.348,637.92 C246.428,638.76 244.868,639.28 243.788,639.28 C242.428,639.28 241.668,638.48 241.668,637.2 C241.668,636.32 242.108,635.6 243.148,635.24 C244.508,634.76 246.588,634.68 247.348,634.6 z" fill="#AD3523"/>
    <path d="M277.148,641.28 L275.308,637.4 C273.188,638.24 271.788,638.76 269.628,638.76 C267.268,638.76 265.188,637.16 265.188,633.28 C265.188,628.44 267.188,627.08 269.268,627.08 C269.828,627.08 270.468,627.16 271.068,627.28 L271.428,630.52 L276.188,630.52 C276.188,626.6 276.188,624.6 275.948,623.28 C274.068,622.72 271.708,622.44 269.628,622.44 C262.508,622.44 258.668,626.52 258.668,633.68 C258.668,639.92 262.228,643.88 268.068,643.88 C271.468,643.88 274.308,642.92 277.148,641.28 z" fill="#AD3523"/>
    <path d="M298.588,641.2 L296.588,637.28 C294.628,638.36 292.548,638.84 290.228,638.84 C287.628,638.84 286.228,637.52 285.788,635.6 C285.708,635.2 285.708,634.52 285.708,634.36 L298.188,634.36 C298.268,633.68 298.308,632.88 298.308,632.6 C298.308,627.44 296.908,622.44 289.468,622.44 C284.028,622.44 279.268,626.08 279.268,633.52 C279.268,639.68 282.748,643.88 288.668,643.88 C292.388,643.88 295.428,643.04 298.588,641.2 z M292.228,630.16 L285.908,630.16 C286.188,628.28 287.508,626.92 289.348,626.92 C291.388,626.92 292.268,627.92 292.268,629.4 C292.268,629.64 292.268,629.88 292.228,630.16 z" fill="#AD3523"/>
    <path d="M684.584,812 L684.584,807.8 L680.864,807.44 L680.864,801.24 L682.704,801.24 C683.424,801.52 684.064,802.12 684.864,803.56 C685.664,804.96 686.264,806.28 687.344,808.16 C688.664,810.48 690.424,812.12 693.584,812.12 C695.104,812.12 697.024,812 698.264,811.8 L697.904,806.8 C697.464,806.88 697.024,806.92 696.784,806.92 C695.064,806.92 694.024,806.44 693.064,804.84 C692.584,804 691.744,802.6 691.384,802.12 C690.704,801.08 690.104,800.48 689.344,800.12 C692.904,799 695.104,796.76 695.104,792.24 C695.104,788.76 693.144,786.52 690.304,785.64 C688.624,785.12 686.584,784.96 684.264,784.96 L670.384,784.96 L670.384,789.16 L674.224,789.52 L674.224,807.44 L670.384,807.8 L670.384,812 z M680.864,796.16 L680.864,790.16 L683.264,790.16 C684.704,790.16 685.864,790.28 686.544,790.64 C687.384,791.08 687.904,791.68 687.904,793.28 C687.904,794.28 687.624,795.08 686.704,795.6 C685.744,796.12 684.264,796.16 682.584,796.16 z" fill="#AD3523"/>
    <path d="M718.984,809.96 L716.984,806.04 C715.024,807.12 712.944,807.6 710.624,807.6 C708.024,807.6 706.624,806.28 706.184,804.36 C706.104,803.96 706.104,803.28 706.104,803.12 L718.584,803.12 C718.664,802.44 718.704,801.64 718.704,801.36 C718.704,796.2 717.304,791.2 709.864,791.2 C704.424,791.2 699.664,794.84 699.664,802.28 C699.664,808.44 703.144,812.64 709.064,812.64 C712.784,812.64 715.824,811.8 718.984,809.96 z M712.624,798.92 L706.304,798.92 C706.584,797.04 707.904,795.68 709.744,795.68 C711.784,795.68 712.664,796.68 712.664,798.16 C712.664,798.4 712.664,798.64 712.624,798.92 z" fill="#AD3523"/>
    <path d="M721.984,804.68 C721.984,808.56 722.144,810.48 722.464,811.52 C724.824,812.24 727.704,812.64 730.424,812.64 C737.024,812.64 739.504,809.12 739.504,805.88 C739.504,803.04 738.504,800.6 734.104,799.6 L730.784,798.84 C729.664,798.6 729.264,797.96 729.264,797.24 C729.264,796.36 729.944,795.6 731.584,795.6 C732.184,795.6 733.144,795.64 734.144,795.88 L734.624,798.68 L738.984,798.68 C738.984,796.28 738.904,793.04 738.464,791.92 C736.784,791.48 734.104,791.2 731.824,791.2 C725.464,791.2 722.664,794.28 722.664,797.6 C722.664,801.52 724.704,803.16 727.944,804 L731.104,804.8 C732.104,805.08 732.624,805.48 732.624,806.44 C732.624,807.2 732.184,808.04 730.344,808.04 C729.224,808.04 727.784,807.8 726.984,807.44 L726.344,804.68 z" fill="#AD3523"/>
    <path d="M754.984,821.84 L754.984,817.68 L750.984,817.32 L750.984,812.2 C751.944,812.32 752.904,812.36 753.904,812.36 C760.304,812.36 764.384,808.76 764.384,801.16 C764.384,794.56 761.944,791.24 757.784,791.24 C755.184,791.24 752.384,792.64 750.984,793.8 L750.864,791.2 C747.744,791.32 744.464,791.8 741.304,792.72 L741.304,796.8 L744.784,796.8 L744.784,817.32 L741.504,817.68 L741.504,821.84 z M750.984,807.24 L750.984,797.2 C752.184,796.8 753.224,796.56 754.464,796.56 C756.384,796.56 757.624,798.08 757.624,801.76 C757.624,806.04 755.984,807.52 753.544,807.52 C752.584,807.52 751.784,807.4 750.984,807.24 z" fill="#AD3523"/>
    <path d="M788.984,801.4 C788.984,794.84 785.864,791.2 779.064,791.2 C771.544,791.2 767.904,795.04 767.904,802.32 C767.904,809 771.624,812.64 778.104,812.64 C785.304,812.64 788.984,808.68 788.984,801.4 z M782.264,802.12 C782.264,806.72 780.784,807.96 778.304,807.96 C775.984,807.96 774.464,806.76 774.464,801.68 C774.464,798.08 775.504,795.84 778.544,795.84 C781.704,795.84 782.264,798.2 782.264,802.12 z" fill="#AD3523"/>
    <path d="M804.784,812 L804.784,807.84 L801.504,807.48 L801.504,797.32 C802.904,796.8 804.224,796.64 805.424,796.64 C806.264,796.64 806.944,796.88 807.104,797.76 C807.224,798.44 807.224,799.76 807.224,801.68 L807.224,812 L816.904,812 L816.904,807.84 L813.544,807.48 L813.544,800.36 C813.544,798.12 813.544,796.28 813.384,795.12 C813.064,792.72 811.904,791.32 808.824,791.32 C806.944,791.32 803.704,792.44 801.504,794.04 L801.384,791.28 C798.664,791.28 794.384,791.96 791.824,792.8 L791.824,796.88 L795.264,796.88 L795.264,807.48 L791.984,807.84 L791.984,812 z" fill="#AD3523"/>
    <path d="M837.744,812 C837.944,811.08 838.224,808.56 838.224,803.28 L833.824,803.28 L833.064,807.48 L826.864,807.48 C828.944,805.32 830.704,803.44 837.384,795.96 L837.384,791.88 L819.624,791.88 C819.344,792.84 819.104,795.04 819.104,800.12 L823.344,800.12 L824.144,796.24 L828.904,796.24 C826.664,798.64 824.824,800.88 818.704,807.96 L818.704,812 z" fill="#AD3523"/>
    <path d="M849.784,785.92 C849.784,783.4 848.384,782.6 846.504,782.6 C844.664,782.6 843.104,783.52 843.104,785.92 C843.104,788.32 844.664,789.2 846.384,789.2 C848.384,789.2 849.784,788.16 849.784,785.92 z M853.664,812 L853.664,807.84 L850.384,807.48 L850.384,791.28 C847.224,791.28 843.704,791.88 840.704,792.76 L840.704,796.88 L844.144,796.88 L844.144,807.48 L840.864,807.84 L840.864,812 z" fill="#AD3523"/>
    <path d="M870.464,812 L876.704,796.36 L879.144,796 L879.144,791.88 L867.704,791.88 L867.704,796 L870.144,796.28 C868.784,800.24 867.784,803.48 866.984,806.16 C866.064,803.36 865.184,800.28 863.624,796.28 L866.144,796 L866.144,791.88 L854.424,791.88 L854.424,796 L856.864,796.36 L863.104,812 z" fill="#AD3523"/>
    <path d="M893.784,812 L893.784,807.84 L890.504,807.48 L890.504,797.32 C891.904,796.8 893.224,796.64 894.424,796.64 C895.264,796.64 895.944,796.88 896.104,797.76 C896.224,798.44 896.224,799.76 896.224,801.68 L896.224,812 L905.904,812 L905.904,807.84 L902.544,807.48 L902.544,800.36 C902.544,798.12 902.544,796.28 902.384,795.12 C902.064,792.72 900.904,791.32 897.824,791.32 C895.944,791.32 892.704,792.44 890.504,794.04 L890.384,791.28 C887.664,791.28 883.384,791.96 880.824,792.8 L880.824,796.88 L884.264,796.88 L884.264,807.48 L880.984,807.84 L880.984,812 z" fill="#AD3523"/>
    <path d="M914.744,789.6 L921.344,783.2 L915.024,783.2 L910.224,789.6 z M920.544,812 L920.544,807.84 L917.264,807.48 L917.264,791.28 C914.104,791.28 910.584,791.88 907.584,792.76 L907.584,796.88 L911.024,796.88 L911.024,807.48 L907.744,807.84 L907.744,812 z" fill="#AD3523"/>
    <path d="M348.448,110.9 L348.448,106.7 L344.568,106.34 L344.568,89.34 L348.968,89.34 L349.688,94.1 L354.048,94.1 C354.048,87.74 353.888,84.82 353.648,83.86 L328.728,83.86 C328.488,85.38 328.368,87.3 328.368,94.1 L332.768,94.1 L333.488,89.34 L337.928,89.34 L337.928,106.34 L334.048,106.7 L334.048,110.9 z" fill="#AD3523"/>
    <path d="M368.888,110.9 L368.888,106.74 L365.008,106.34 L365.008,96.7 C366.408,96.02 368.208,95.74 369.728,95.74 C370.848,95.74 371.648,95.82 372.008,95.86 L372.008,90.34 C371.648,90.3 371.088,90.26 370.728,90.26 C368.248,90.26 366.088,91.58 364.928,93.58 L364.928,90.18 C361.808,90.22 358.248,90.74 355.328,91.7 L355.328,95.78 L358.768,95.78 L358.768,106.38 L355.488,106.74 L355.488,110.9 z" fill="#AD3523"/>
    <path d="M394.208,106.34 L391.008,106.34 L391.008,97.74 C391.008,94.9 390.648,93.26 389.968,92.18 C389.088,90.74 387.328,90.1 384.408,90.1 C382.008,90.1 377.488,90.78 374.488,91.78 L375.368,96.06 C378.008,95.42 380.808,95.22 382.208,95.22 C383.568,95.22 384.208,95.46 384.568,95.94 C384.808,96.34 384.888,97.1 384.888,97.9 L384.888,98.46 C381.848,98.58 379.008,98.86 376.728,99.58 C374.368,100.3 372.848,102.1 372.848,105.02 C372.848,108.22 374.848,111.38 379.448,111.38 C381.128,111.38 383.488,110.82 385.248,108.94 L385.608,111.26 C388.488,111.26 392.128,110.82 394.208,110.26 z M384.968,105.58 C384.048,106.42 382.488,106.94 381.408,106.94 C380.048,106.94 379.288,106.14 379.288,104.86 C379.288,103.98 379.728,103.26 380.768,102.9 C382.128,102.42 384.208,102.34 384.968,102.26 z" fill="#AD3523"/>
    <path d="M409.168,110.9 L409.168,106.74 L405.888,106.38 L405.888,96.22 C407.288,95.7 408.608,95.54 409.808,95.54 C410.648,95.54 411.328,95.78 411.488,96.66 C411.608,97.34 411.608,98.66 411.608,100.58 L411.608,110.9 L421.288,110.9 L421.288,106.74 L417.928,106.38 L417.928,99.26 C417.928,97.02 417.928,95.18 417.768,94.02 C417.448,91.62 416.288,90.22 413.208,90.22 C411.328,90.22 408.088,91.34 405.888,92.94 L405.768,90.18 C403.048,90.18 398.768,90.86 396.208,91.7 L396.208,95.78 L399.648,95.78 L399.648,106.38 L396.368,106.74 L396.368,110.9 z" fill="#AD3523"/>
    <path d="M423.408,103.58 C423.408,107.46 423.568,109.38 423.888,110.42 C426.248,111.14 429.128,111.54 431.848,111.54 C438.448,111.54 440.928,108.02 440.928,104.78 C440.928,101.94 439.928,99.5 435.528,98.5 L432.208,97.74 C431.088,97.5 430.688,96.86 430.688,96.14 C430.688,95.26 431.368,94.5 433.008,94.5 C433.608,94.5 434.568,94.54 435.568,94.78 L436.048,97.58 L440.408,97.58 C440.408,95.18 440.328,91.94 439.888,90.82 C438.208,90.38 435.528,90.1 433.248,90.1 C426.888,90.1 424.088,93.18 424.088,96.5 C424.088,100.42 426.128,102.06 429.368,102.9 L432.528,103.7 C433.528,103.98 434.048,104.38 434.048,105.34 C434.048,106.1 433.608,106.94 431.768,106.94 C430.648,106.94 429.208,106.7 428.408,106.34 L427.768,103.58 z" fill="#AD3523"/>
    <path d="M457.448,110.9 L457.448,106.74 L453.488,106.38 L453.488,95.58 L457.648,95.58 L457.648,90.78 L453.488,90.78 L453.488,89.78 C453.488,88.54 453.608,87.7 454.008,87.1 C454.448,86.5 455.328,86.3 456.528,86.3 C457.208,86.3 458.008,86.34 458.888,86.46 L459.488,81.94 C458.368,81.7 456.168,81.5 454.808,81.5 C452.208,81.5 450.128,82.3 448.888,83.66 C447.768,84.82 447.248,86.78 447.248,89.58 L447.248,90.78 C446.648,90.78 444.848,90.9 443.808,91.14 L443.808,95.58 L447.248,95.58 L447.248,106.38 L443.968,106.74 L443.968,110.9 z" fill="#AD3523"/>
    <path d="M481.168,100.3 C481.168,93.74 478.048,90.1 471.248,90.1 C463.728,90.1 460.088,93.94 460.088,101.22 C460.088,107.9 463.808,111.54 470.288,111.54 C477.488,111.54 481.168,107.58 481.168,100.3 z M474.448,101.02 C474.448,105.62 472.968,106.86 470.488,106.86 C468.168,106.86 466.648,105.66 466.648,100.58 C466.648,96.98 467.688,94.74 470.728,94.74 C473.888,94.74 474.448,97.1 474.448,101.02 z" fill="#AD3523"/>
    <path d="M497.568,110.9 L497.568,106.74 L493.688,106.34 L493.688,96.7 C495.088,96.02 496.888,95.74 498.408,95.74 C499.528,95.74 500.328,95.82 500.688,95.86 L500.688,90.34 C500.328,90.3 499.768,90.26 499.408,90.26 C496.928,90.26 494.768,91.58 493.608,93.58 L493.608,90.18 C490.488,90.22 486.928,90.74 484.008,91.7 L484.008,95.78 L487.448,95.78 L487.448,106.38 L484.168,106.74 L484.168,110.9 z" fill="#AD3523"/>
    <path d="M515.768,110.9 L515.768,106.74 L512.528,106.38 L512.528,96.22 C513.848,95.7 515.048,95.54 516.288,95.54 C517.088,95.54 517.688,95.78 517.848,96.62 C517.968,97.34 517.968,98.66 517.968,100.58 L517.968,110.9 L527.648,110.9 L527.648,106.74 L524.288,106.38 L524.288,99.1 C524.288,97.98 524.288,97.1 524.248,96.22 C525.568,95.74 526.768,95.54 527.968,95.54 C528.768,95.54 529.408,95.78 529.568,96.66 C529.728,97.34 529.728,98.66 529.728,100.58 L529.728,110.9 L539.408,110.9 L539.408,106.74 L536.008,106.38 L536.008,99.1 C536.008,96.86 536.008,95.1 535.848,93.98 C535.528,91.58 534.208,90.22 531.368,90.22 C528.928,90.22 526.328,91.42 523.968,93.06 C523.448,91.18 522.248,90.22 519.728,90.22 C517.728,90.22 514.728,91.38 512.528,92.94 L512.408,90.18 C509.688,90.18 505.728,90.86 502.848,91.66 L502.848,95.78 L506.288,95.78 L506.288,106.38 L503.008,106.74 L503.008,110.9 z" fill="#AD3523"/>
    <path d="M562.208,106.34 L559.008,106.34 L559.008,97.74 C559.008,94.9 558.648,93.26 557.968,92.18 C557.088,90.74 555.328,90.1 552.408,90.1 C550.008,90.1 545.488,90.78 542.488,91.78 L543.368,96.06 C546.008,95.42 548.808,95.22 550.208,95.22 C551.568,95.22 552.208,95.46 552.568,95.94 C552.808,96.34 552.888,97.1 552.888,97.9 L552.888,98.46 C549.848,98.58 547.008,98.86 544.728,99.58 C542.368,100.3 540.848,102.1 540.848,105.02 C540.848,108.22 542.848,111.38 547.448,111.38 C549.128,111.38 551.488,110.82 553.248,108.94 L553.608,111.26 C556.488,111.26 560.128,110.82 562.208,110.26 z M552.968,105.58 C552.048,106.42 550.488,106.94 549.408,106.94 C548.048,106.94 547.288,106.14 547.288,104.86 C547.288,103.98 547.728,103.26 548.768,102.9 C550.128,102.42 552.208,102.34 552.968,102.26 z" fill="#AD3523"/>
    <path d="M582.768,108.94 L580.928,105.06 C578.808,105.9 577.408,106.42 575.248,106.42 C572.888,106.42 570.808,104.82 570.808,100.94 C570.808,96.1 572.808,94.74 574.888,94.74 C575.448,94.74 576.088,94.82 576.688,94.94 L577.048,98.18 L581.808,98.18 C581.808,94.26 581.808,92.26 581.568,90.94 C579.688,90.38 577.328,90.1 575.248,90.1 C568.128,90.1 564.288,94.18 564.288,101.34 C564.288,107.58 567.848,111.54 573.688,111.54 C577.088,111.54 579.928,110.58 582.768,108.94 z" fill="#AD3523"/>
    <path d="M604.208,108.86 L602.208,104.94 C600.248,106.02 598.168,106.5 595.848,106.5 C593.248,106.5 591.848,105.18 591.408,103.26 C591.328,102.86 591.328,102.18 591.328,102.02 L603.808,102.02 C603.888,101.34 603.928,100.54 603.928,100.26 C603.928,95.1 602.528,90.1 595.088,90.1 C589.648,90.1 584.888,93.74 584.888,101.18 C584.888,107.34 588.368,111.54 594.288,111.54 C598.008,111.54 601.048,110.7 604.208,108.86 z M597.848,97.82 L591.528,97.82 C591.808,95.94 593.128,94.58 594.968,94.58 C597.008,94.58 597.888,95.58 597.888,97.06 C597.888,97.3 597.888,97.54 597.848,97.82 z" fill="#AD3523"/>
    <path d="M1216.252,671.44 L1216.252,662.8 L1218.332,662.64 L1218.332,658.52 L1206.492,658.52 L1206.492,662.64 L1209.932,662.92 L1209.932,667.24 C1208.612,667.6 1207.252,667.8 1205.572,667.8 C1201.372,667.8 1199.052,665.08 1199.052,659.96 C1199.052,653.08 1202.212,650.56 1206.812,650.56 C1207.732,650.56 1209.212,650.76 1210.252,651.04 L1210.852,655.08 L1215.692,655.08 C1215.692,648.84 1215.572,647.44 1215.292,646.12 C1212.612,645.48 1209.932,645.12 1206.132,645.12 C1196.852,645.12 1192.012,650.56 1192.012,660.04 C1192.012,668.4 1196.852,673.6 1204.492,673.6 C1210.692,673.6 1213.732,672.24 1216.252,671.44 z" fill="#AD3523"/>
    <path d="M1234.092,672.88 L1234.092,668.72 L1230.212,668.32 L1230.212,658.68 C1231.612,658 1233.412,657.72 1234.932,657.72 C1236.052,657.72 1236.852,657.8 1237.212,657.84 L1237.212,652.32 C1236.852,652.28 1236.292,652.24 1235.932,652.24 C1233.452,652.24 1231.292,653.56 1230.132,655.56 L1230.132,652.16 C1227.012,652.2 1223.452,652.72 1220.532,653.68 L1220.532,657.76 L1223.972,657.76 L1223.972,668.36 L1220.692,668.72 L1220.692,672.88 z" fill="#AD3523"/>
    <path d="M1263.212,672.44 L1263.212,668.52 L1260.012,668.52 L1260.012,652.36 C1256.812,652.36 1253.212,652.88 1250.332,653.56 L1250.332,657.48 L1253.652,657.48 L1253.652,667.44 C1252.292,667.92 1251.132,668.16 1249.972,668.16 C1248.892,668.16 1248.212,667.56 1248.052,666.64 C1247.932,665.96 1247.932,664.96 1247.932,663.08 L1247.932,652.36 C1245.012,652.36 1241.412,652.84 1238.372,653.52 L1238.372,657.48 L1241.612,657.48 L1241.612,664.4 C1241.612,666.28 1241.652,668 1241.772,669.16 C1242.092,671.76 1243.612,673.44 1247.092,673.44 C1249.372,673.44 1251.772,672.44 1253.932,670.76 L1254.332,673.24 C1257.412,673.24 1261.452,672.84 1263.212,672.44 z" fill="#AD3523"/>
    <path d="M1277.892,672.88 L1277.892,668.72 L1274.612,668.36 L1274.612,658.2 C1276.012,657.68 1277.332,657.52 1278.532,657.52 C1279.372,657.52 1280.052,657.76 1280.212,658.64 C1280.332,659.32 1280.332,660.64 1280.332,662.56 L1280.332,672.88 L1290.012,672.88 L1290.012,668.72 L1286.652,668.36 L1286.652,661.24 C1286.652,659 1286.652,657.16 1286.492,656 C1286.172,653.6 1285.012,652.2 1281.932,652.2 C1280.052,652.2 1276.812,653.32 1274.612,654.92 L1274.492,652.16 C1271.772,652.16 1267.492,652.84 1264.932,653.68 L1264.932,657.76 L1268.372,657.76 L1268.372,668.36 L1265.092,668.72 L1265.092,672.88 z" fill="#AD3523"/>
    <path d="M1306.092,672.36 L1305.332,667.76 C1304.372,667.92 1303.252,667.96 1302.692,667.96 C1301.812,667.96 1301.132,667.76 1300.772,667.24 C1300.332,666.64 1300.172,665.8 1300.172,664.16 L1300.172,657.56 L1304.972,657.56 L1304.972,652.76 L1300.172,652.76 L1300.172,647.36 L1294.172,647.76 C1294.012,650.32 1293.932,651.44 1293.932,652.76 C1293.412,652.76 1291.412,652.88 1290.212,653.16 L1290.212,657.56 L1293.852,657.56 L1293.852,665.52 C1293.852,668.16 1294.252,670.2 1295.092,671.32 C1295.932,672.48 1297.652,673.2 1299.692,673.2 C1302.332,673.2 1304.612,672.84 1306.092,672.36 z" fill="#AD3523"/>
    <path d="M1335.572,673.52 L1336.532,668.36 C1335.172,668.12 1332.292,667.36 1331.252,666.76 C1332.132,665.92 1333.452,663.92 1334.252,662.04 L1336.532,661.72 L1336.532,657.52 L1327.172,657.52 L1327.172,661.72 L1327.972,661.8 C1327.772,662.32 1327.452,662.92 1327.092,663.24 C1325.772,662.24 1324.012,660 1323.132,658.8 C1326.092,657.16 1328.492,654.96 1328.492,651.68 C1328.492,646.88 1325.012,645.28 1320.812,645.28 C1315.252,645.28 1312.772,648.32 1312.772,652 C1312.772,653.88 1313.412,655.32 1314.412,656.64 C1310.532,658.16 1308.332,660.76 1308.332,664.68 C1308.332,670.56 1312.892,673.44 1318.852,673.44 C1322.292,673.44 1325.012,672.36 1326.892,670.76 C1329.372,672.44 1332.852,673.16 1335.572,673.52 z M1317.252,661.16 C1318.492,662.76 1320.852,665.8 1322.452,667.16 C1321.652,667.56 1320.452,667.92 1318.972,667.92 C1316.332,667.92 1314.772,666.56 1314.772,664.44 C1314.772,663.16 1315.572,661.92 1317.252,661.16 z M1320.172,655 C1319.372,654.04 1318.772,652.84 1318.772,651.92 C1318.772,650.76 1319.492,649.8 1320.972,649.8 C1322.412,649.8 1323.172,650.4 1323.172,651.76 C1323.172,653 1321.932,654.24 1320.172,655 z" fill="#AD3523"/>
    <path d="M1364.212,671.44 L1364.212,662.8 L1366.292,662.64 L1366.292,658.52 L1354.452,658.52 L1354.452,662.64 L1357.892,662.92 L1357.892,667.24 C1356.572,667.6 1355.212,667.8 1353.532,667.8 C1349.332,667.8 1347.012,665.08 1347.012,659.96 C1347.012,653.08 1350.172,650.56 1354.772,650.56 C1355.692,650.56 1357.172,650.76 1358.212,651.04 L1358.812,655.08 L1363.652,655.08 C1363.652,648.84 1363.532,647.44 1363.252,646.12 C1360.572,645.48 1357.892,645.12 1354.092,645.12 C1344.812,645.12 1339.972,650.56 1339.972,660.04 C1339.972,668.4 1344.812,673.6 1352.452,673.6 C1358.652,673.6 1361.692,672.24 1364.212,671.44 z" fill="#AD3523"/>
    <path d="M1392.132,672.44 L1392.132,668.52 L1388.932,668.52 L1388.932,652.36 C1385.732,652.36 1382.132,652.88 1379.252,653.56 L1379.252,657.48 L1382.572,657.48 L1382.572,667.44 C1381.212,667.92 1380.052,668.16 1378.892,668.16 C1377.812,668.16 1377.132,667.56 1376.972,666.64 C1376.852,665.96 1376.852,664.96 1376.852,663.08 L1376.852,652.36 C1373.932,652.36 1370.332,652.84 1367.292,653.52 L1367.292,657.48 L1370.532,657.48 L1370.532,664.4 C1370.532,666.28 1370.572,668 1370.692,669.16 C1371.012,671.76 1372.532,673.44 1376.012,673.44 C1378.292,673.44 1380.692,672.44 1382.852,670.76 L1383.252,673.24 C1386.332,673.24 1390.372,672.84 1392.132,672.44 z" fill="#AD3523"/>
    <path d="M1406.372,672.88 L1406.372,668.72 L1403.052,668.36 L1403.052,643.24 C1400.172,643.24 1396.652,643.92 1393.372,644.8 L1393.372,648.88 L1396.812,648.88 L1396.812,668.36 L1393.732,668.72 L1393.732,672.88 z" fill="#AD3523"/>
    <path d="M1420.692,682.72 L1420.692,678.56 L1416.692,678.2 L1416.692,673.08 C1417.652,673.2 1418.612,673.24 1419.612,673.24 C1426.012,673.24 1430.092,669.64 1430.092,662.04 C1430.092,655.44 1427.652,652.12 1423.492,652.12 C1420.892,652.12 1418.092,653.52 1416.692,654.68 L1416.572,652.08 C1413.452,652.2 1410.172,652.68 1407.012,653.6 L1407.012,657.68 L1410.492,657.68 L1410.492,678.2 L1407.212,678.56 L1407.212,682.72 z M1416.692,668.12 L1416.692,658.08 C1417.892,657.68 1418.932,657.44 1420.172,657.44 C1422.092,657.44 1423.332,658.96 1423.332,662.64 C1423.332,666.92 1421.692,668.4 1419.252,668.4 C1418.292,668.4 1417.492,668.28 1416.692,668.12 z" fill="#AD3523"/>
    <path d="M1257.012,308 L1257.012,303.8 L1253.172,303.44 L1253.172,285.52 L1257.012,285.16 L1257.012,280.96 L1242.652,280.96 L1242.652,285.16 L1246.492,285.52 L1246.492,303.44 L1242.652,303.8 L1242.652,308 z" fill="#AD3523"/>
    <path d="M1272.132,308 L1272.132,303.84 L1268.852,303.48 L1268.852,293.32 C1270.252,292.8 1271.572,292.64 1272.772,292.64 C1273.612,292.64 1274.292,292.88 1274.452,293.76 C1274.572,294.44 1274.572,295.76 1274.572,297.68 L1274.572,308 L1284.252,308 L1284.252,303.84 L1280.892,303.48 L1280.892,296.36 C1280.892,294.12 1280.892,292.28 1280.732,291.12 C1280.412,288.72 1279.252,287.32 1276.172,287.32 C1274.292,287.32 1271.052,288.44 1268.852,290.04 L1268.732,287.28 C1266.012,287.28 1261.732,287.96 1259.172,288.8 L1259.172,292.88 L1262.612,292.88 L1262.612,303.48 L1259.332,303.84 L1259.332,308 z" fill="#AD3523"/>
    <path d="M1300.332,307.48 L1299.572,302.88 C1298.612,303.04 1297.492,303.08 1296.932,303.08 C1296.052,303.08 1295.372,302.88 1295.012,302.36 C1294.572,301.76 1294.412,300.92 1294.412,299.28 L1294.412,292.68 L1299.212,292.68 L1299.212,287.88 L1294.412,287.88 L1294.412,282.48 L1288.412,282.88 C1288.252,285.44 1288.172,286.56 1288.172,287.88 C1287.652,287.88 1285.652,288 1284.452,288.28 L1284.452,292.68 L1288.092,292.68 L1288.092,300.64 C1288.092,303.28 1288.492,305.32 1289.332,306.44 C1290.172,307.6 1291.892,308.32 1293.932,308.32 C1296.572,308.32 1298.852,307.96 1300.332,307.48 z" fill="#AD3523"/>
    <path d="M1321.492,305.96 L1319.492,302.04 C1317.532,303.12 1315.452,303.6 1313.132,303.6 C1310.532,303.6 1309.132,302.28 1308.692,300.36 C1308.612,299.96 1308.612,299.28 1308.612,299.12 L1321.092,299.12 C1321.172,298.44 1321.212,297.64 1321.212,297.36 C1321.212,292.2 1319.812,287.2 1312.372,287.2 C1306.932,287.2 1302.172,290.84 1302.172,298.28 C1302.172,304.44 1305.652,308.64 1311.572,308.64 C1315.292,308.64 1318.332,307.8 1321.492,305.96 z M1315.132,294.92 L1308.812,294.92 C1309.092,293.04 1310.412,291.68 1312.252,291.68 C1314.292,291.68 1315.172,292.68 1315.172,294.16 C1315.172,294.4 1315.172,294.64 1315.132,294.92 z" fill="#AD3523"/>
    <path d="M1337.612,308 L1337.612,303.84 L1333.732,303.44 L1333.732,293.8 C1335.132,293.12 1336.932,292.84 1338.452,292.84 C1339.572,292.84 1340.372,292.92 1340.732,292.96 L1340.732,287.44 C1340.372,287.4 1339.812,287.36 1339.452,287.36 C1336.972,287.36 1334.812,288.68 1333.652,290.68 L1333.652,287.28 C1330.532,287.32 1326.972,287.84 1324.052,288.8 L1324.052,292.88 L1327.492,292.88 L1327.492,303.48 L1324.212,303.84 L1324.212,308 z" fill="#AD3523"/>
    <path d="M1362.932,303.44 L1359.732,303.44 L1359.732,294.84 C1359.732,292 1359.372,290.36 1358.692,289.28 C1357.812,287.84 1356.052,287.2 1353.132,287.2 C1350.732,287.2 1346.212,287.88 1343.212,288.88 L1344.092,293.16 C1346.732,292.52 1349.532,292.32 1350.932,292.32 C1352.292,292.32 1352.932,292.56 1353.292,293.04 C1353.532,293.44 1353.612,294.2 1353.612,295 L1353.612,295.56 C1350.572,295.68 1347.732,295.96 1345.452,296.68 C1343.092,297.4 1341.572,299.2 1341.572,302.12 C1341.572,305.32 1343.572,308.48 1348.172,308.48 C1349.852,308.48 1352.212,307.92 1353.972,306.04 L1354.332,308.36 C1357.212,308.36 1360.852,307.92 1362.932,307.36 z M1353.692,302.68 C1352.772,303.52 1351.212,304.04 1350.132,304.04 C1348.772,304.04 1348.012,303.24 1348.012,301.96 C1348.012,301.08 1348.452,300.36 1349.492,300 C1350.852,299.52 1352.932,299.44 1353.692,299.36 z" fill="#AD3523"/>
    <path d="M1377.212,308 L1377.212,303.84 L1374.132,303.48 L1374.132,301.88 L1376.452,300.04 L1379.012,303.96 C1379.732,305.08 1380.772,306.4 1381.812,307.12 C1382.852,307.84 1384.372,308.16 1386.212,308.16 C1387.532,308.16 1388.452,307.96 1388.972,307.8 L1388.692,302.88 C1388.372,302.92 1388.092,302.92 1387.892,302.92 C1387.652,302.92 1386.972,302.84 1386.452,302.56 C1385.772,302.2 1384.932,301.44 1384.012,300.12 L1381.092,295.8 C1382.292,294.68 1383.572,293.4 1384.852,292.12 L1387.732,291.84 L1387.732,287.88 L1376.332,287.88 L1376.332,291.96 L1378.372,292.2 C1376.772,294 1375.412,295.36 1374.132,296.52 L1374.132,278.36 C1371.372,278.36 1366.852,279.2 1364.452,279.92 L1364.452,284 L1367.892,284 L1367.892,303.48 L1364.812,303.84 L1364.812,308 z" fill="#AD3523"/>
    <path d="M1408.652,306.04 L1406.812,302.16 C1404.692,303 1403.292,303.52 1401.132,303.52 C1398.772,303.52 1396.692,301.92 1396.692,298.04 C1396.692,293.2 1398.692,291.84 1400.772,291.84 C1401.332,291.84 1401.972,291.92 1402.572,292.04 L1402.932,295.28 L1407.692,295.28 C1407.692,291.36 1407.692,289.36 1407.452,288.04 C1405.572,287.48 1403.212,287.2 1401.132,287.2 C1394.012,287.2 1390.172,291.28 1390.172,298.44 C1390.172,304.68 1393.732,308.64 1399.572,308.64 C1402.972,308.64 1405.812,307.68 1408.652,306.04 z" fill="#AD3523"/>
    <path d="M1430.092,305.96 L1428.092,302.04 C1426.132,303.12 1424.052,303.6 1421.732,303.6 C1419.132,303.6 1417.732,302.28 1417.292,300.36 C1417.212,299.96 1417.212,299.28 1417.212,299.12 L1429.692,299.12 C1429.772,298.44 1429.812,297.64 1429.812,297.36 C1429.812,292.2 1428.412,287.2 1420.972,287.2 C1415.532,287.2 1410.772,290.84 1410.772,298.28 C1410.772,304.44 1414.252,308.64 1420.172,308.64 C1423.892,308.64 1426.932,307.8 1430.092,305.96 z M1423.732,294.92 L1417.412,294.92 C1417.692,293.04 1419.012,291.68 1420.852,291.68 C1422.892,291.68 1423.772,292.68 1423.772,294.16 C1423.772,294.4 1423.772,294.64 1423.732,294.92 z" fill="#AD3523"/>
  </g>
  <g id="Layer_4" opacity="0.475">
    <path d="M419.366,728.8 L419.366,724.6 L415.526,724.24 L415.526,706.32 L419.366,705.96 L419.366,701.76 L405.006,701.76 L405.006,705.96 L408.846,706.32 L408.846,724.24 L405.006,724.6 L405.006,728.8 z" fill="#AD3523"/>
    <path d="M434.046,728.8 L434.046,724.64 L430.726,724.28 L430.726,699.16 C427.846,699.16 424.326,699.84 421.046,700.72 L421.046,704.8 L424.486,704.8 L424.486,724.28 L421.406,724.64 L421.406,728.8 z" fill="#AD3523"/>
    <path d="M459.406,728.36 L459.406,724.44 L456.206,724.44 L456.206,708.28 C453.006,708.28 449.406,708.8 446.526,709.48 L446.526,713.4 L449.846,713.4 L449.846,723.36 C448.486,723.84 447.326,724.08 446.166,724.08 C445.086,724.08 444.406,723.48 444.246,722.56 C444.126,721.88 444.126,720.88 444.126,719 L444.126,708.28 C441.206,708.28 437.606,708.76 434.566,709.44 L434.566,713.4 L437.806,713.4 L437.806,720.32 C437.806,722.2 437.846,723.92 437.966,725.08 C438.286,727.68 439.806,729.36 443.286,729.36 C445.566,729.36 447.966,728.36 450.126,726.68 L450.526,729.16 C453.606,729.16 457.646,728.76 459.406,728.36 z" fill="#AD3523"/>
    <path d="M461.566,721.48 C461.566,725.36 461.726,727.28 462.046,728.32 C464.406,729.04 467.286,729.44 470.006,729.44 C476.606,729.44 479.086,725.92 479.086,722.68 C479.086,719.84 478.086,717.4 473.686,716.4 L470.366,715.64 C469.246,715.4 468.846,714.76 468.846,714.04 C468.846,713.16 469.526,712.4 471.166,712.4 C471.766,712.4 472.726,712.44 473.726,712.68 L474.206,715.48 L478.566,715.48 C478.566,713.08 478.486,709.84 478.046,708.72 C476.366,708.28 473.686,708 471.406,708 C465.046,708 462.246,711.08 462.246,714.4 C462.246,718.32 464.286,719.96 467.526,720.8 L470.686,721.6 C471.686,721.88 472.206,722.28 472.206,723.24 C472.206,724 471.766,724.84 469.926,724.84 C468.806,724.84 467.366,724.6 466.566,724.24 L465.926,721.48 z" fill="#AD3523"/>
    <path d="M496.446,728.28 L495.686,723.68 C494.726,723.84 493.606,723.88 493.046,723.88 C492.166,723.88 491.486,723.68 491.126,723.16 C490.686,722.56 490.526,721.72 490.526,720.08 L490.526,713.48 L495.326,713.48 L495.326,708.68 L490.526,708.68 L490.526,703.28 L484.526,703.68 C484.366,706.24 484.286,707.36 484.286,708.68 C483.766,708.68 481.766,708.8 480.566,709.08 L480.566,713.48 L484.206,713.48 L484.206,721.44 C484.206,724.08 484.606,726.12 485.446,727.24 C486.286,728.4 488.006,729.12 490.046,729.12 C492.686,729.12 494.966,728.76 496.446,728.28 z" fill="#AD3523"/>
    <path d="M511.206,728.8 L511.206,724.64 L507.326,724.24 L507.326,714.6 C508.726,713.92 510.526,713.64 512.046,713.64 C513.166,713.64 513.966,713.72 514.326,713.76 L514.326,708.24 C513.966,708.2 513.406,708.16 513.046,708.16 C510.566,708.16 508.406,709.48 507.246,711.48 L507.246,708.08 C504.126,708.12 500.566,708.64 497.646,709.6 L497.646,713.68 L501.086,713.68 L501.086,724.28 L497.806,724.64 L497.806,728.8 z" fill="#AD3523"/>
    <path d="M536.526,724.24 L533.326,724.24 L533.326,715.64 C533.326,712.8 532.966,711.16 532.286,710.08 C531.406,708.64 529.646,708 526.726,708 C524.326,708 519.806,708.68 516.806,709.68 L517.686,713.96 C520.326,713.32 523.126,713.12 524.526,713.12 C525.886,713.12 526.526,713.36 526.886,713.84 C527.126,714.24 527.206,715 527.206,715.8 L527.206,716.36 C524.166,716.48 521.326,716.76 519.046,717.48 C516.686,718.2 515.166,720 515.166,722.92 C515.166,726.12 517.166,729.28 521.766,729.28 C523.446,729.28 525.806,728.72 527.566,726.84 L527.926,729.16 C530.806,729.16 534.446,728.72 536.526,728.16 z M527.286,723.48 C526.366,724.32 524.806,724.84 523.726,724.84 C522.366,724.84 521.606,724.04 521.606,722.76 C521.606,721.88 522.046,721.16 523.086,720.8 C524.446,720.32 526.526,720.24 527.286,720.16 z" fill="#AD3523"/>
    <path d="M552.926,728.28 L552.166,723.68 C551.206,723.84 550.086,723.88 549.526,723.88 C548.646,723.88 547.966,723.68 547.606,723.16 C547.166,722.56 547.006,721.72 547.006,720.08 L547.006,713.48 L551.806,713.48 L551.806,708.68 L547.006,708.68 L547.006,703.28 L541.006,703.68 C540.846,706.24 540.766,707.36 540.766,708.68 C540.246,708.68 538.246,708.8 537.046,709.08 L537.046,713.48 L540.686,713.48 L540.686,721.44 C540.686,724.08 541.086,726.12 541.926,727.24 C542.766,728.4 544.486,729.12 546.526,729.12 C549.166,729.12 551.446,728.76 552.926,728.28 z" fill="#AD3523"/>
    <path d="M575.846,718.2 C575.846,711.64 572.726,708 565.926,708 C558.406,708 554.766,711.84 554.766,719.12 C554.766,725.8 558.486,729.44 564.966,729.44 C572.166,729.44 575.846,725.48 575.846,718.2 z M569.126,718.92 C569.126,723.52 567.646,724.76 565.166,724.76 C562.846,724.76 561.326,723.56 561.326,718.48 C561.326,714.88 562.366,712.64 565.406,712.64 C568.566,712.64 569.126,715 569.126,718.92 z" fill="#AD3523"/>
    <path d="M592.246,728.8 L592.246,724.64 L588.366,724.24 L588.366,714.6 C589.766,713.92 591.566,713.64 593.086,713.64 C594.206,713.64 595.006,713.72 595.366,713.76 L595.366,708.24 C595.006,708.2 594.446,708.16 594.086,708.16 C591.606,708.16 589.446,709.48 588.286,711.48 L588.286,708.08 C585.166,708.12 581.606,708.64 578.686,709.6 L578.686,713.68 L582.126,713.68 L582.126,724.28 L578.846,724.64 L578.846,728.8 z" fill="#AD3523"/>
    <path d="M720.464,181.54 L720.464,177.34 L716.024,177.02 L716.024,171.38 L718.104,171.38 C720.304,171.38 722.504,171.22 724.304,170.58 C727.984,169.34 729.744,166.5 729.744,162.74 C729.744,158.34 727.864,156.06 723.864,155.06 C722.184,154.66 718.424,154.5 716.144,154.5 L705.544,154.5 L705.544,158.7 L709.384,159.06 L709.384,176.98 L705.544,177.34 L705.544,181.54 z M716.024,166.22 L716.024,159.7 L718.224,159.7 C719.504,159.7 720.744,159.9 721.424,160.3 C722.184,160.74 722.704,161.66 722.704,162.82 C722.704,164.26 722.104,165.3 721.024,165.82 C720.424,166.1 719.144,166.22 718.144,166.22 z" fill="#AD3523"/>
    <path d="M745.144,181.54 L745.144,177.38 L741.824,177.02 L741.824,166.86 C743.064,166.38 744.544,166.18 745.744,166.18 C746.584,166.18 747.264,166.42 747.424,167.3 C747.544,167.98 747.544,169.3 747.544,171.22 L747.544,181.54 L757.224,181.54 L757.224,177.38 L753.864,177.02 L753.864,169.74 C753.864,167.5 753.864,165.78 753.704,164.66 C753.384,162.26 752.144,160.86 749.144,160.86 C747.344,160.86 744.024,162.02 741.784,163.58 L741.784,151.9 C739.064,151.9 734.984,152.62 732.144,153.46 L732.144,157.54 L735.584,157.54 L735.584,177.02 L732.504,177.38 L732.504,181.54 z" fill="#AD3523"/>
    <path d="M780.064,170.94 C780.064,164.38 776.944,160.74 770.144,160.74 C762.624,160.74 758.984,164.58 758.984,171.86 C758.984,178.54 762.704,182.18 769.184,182.18 C776.384,182.18 780.064,178.22 780.064,170.94 z M773.344,171.66 C773.344,176.26 771.864,177.5 769.384,177.5 C767.064,177.5 765.544,176.3 765.544,171.22 C765.544,167.62 766.584,165.38 769.624,165.38 C772.784,165.38 773.344,167.74 773.344,171.66 z" fill="#AD3523"/>
    <path d="M797.304,181.02 L796.544,176.42 C795.584,176.58 794.464,176.62 793.904,176.62 C793.024,176.62 792.344,176.42 791.984,175.9 C791.544,175.3 791.384,174.46 791.384,172.82 L791.384,166.22 L796.184,166.22 L796.184,161.42 L791.384,161.42 L791.384,156.02 L785.384,156.42 C785.224,158.98 785.144,160.1 785.144,161.42 C784.624,161.42 782.624,161.54 781.424,161.82 L781.424,166.22 L785.064,166.22 L785.064,174.18 C785.064,176.82 785.464,178.86 786.304,179.98 C787.144,181.14 788.864,181.86 790.904,181.86 C793.544,181.86 795.824,181.5 797.304,181.02 z" fill="#AD3523"/>
    <path d="M820.224,170.94 C820.224,164.38 817.104,160.74 810.304,160.74 C802.784,160.74 799.144,164.58 799.144,171.86 C799.144,178.54 802.864,182.18 809.344,182.18 C816.544,182.18 820.224,178.22 820.224,170.94 z M813.504,171.66 C813.504,176.26 812.024,177.5 809.544,177.5 C807.224,177.5 805.704,176.3 805.704,171.22 C805.704,167.62 806.744,165.38 809.784,165.38 C812.944,165.38 813.504,167.74 813.504,171.66 z" fill="#AD3523"/>
    <path d="M823.504,174.22 C823.504,178.1 823.664,180.02 823.984,181.06 C826.344,181.78 829.224,182.18 831.944,182.18 C838.544,182.18 841.024,178.66 841.024,175.42 C841.024,172.58 840.024,170.14 835.624,169.14 L832.304,168.38 C831.184,168.14 830.784,167.5 830.784,166.78 C830.784,165.9 831.464,165.14 833.104,165.14 C833.704,165.14 834.664,165.18 835.664,165.42 L836.144,168.22 L840.504,168.22 C840.504,165.82 840.424,162.58 839.984,161.46 C838.304,161.02 835.624,160.74 833.344,160.74 C826.984,160.74 824.184,163.82 824.184,167.14 C824.184,171.06 826.224,172.7 829.464,173.54 L832.624,174.34 C833.624,174.62 834.144,175.02 834.144,175.98 C834.144,176.74 833.704,177.58 831.864,177.58 C830.744,177.58 829.304,177.34 828.504,176.98 L827.864,174.22 z" fill="#AD3523"/>
    <path d="M856.424,181.54 L856.424,177.38 L853.104,177.02 L853.104,166.86 C854.344,166.38 855.824,166.18 857.024,166.18 C857.864,166.18 858.544,166.42 858.704,167.3 C858.824,167.98 858.824,169.3 858.824,171.22 L858.824,181.54 L868.504,181.54 L868.504,177.38 L865.144,177.02 L865.144,169.74 C865.144,167.5 865.144,165.78 864.984,164.66 C864.664,162.26 863.424,160.86 860.424,160.86 C858.624,160.86 855.304,162.02 853.064,163.58 L853.064,151.9 C850.344,151.9 846.264,152.62 843.424,153.46 L843.424,157.54 L846.864,157.54 L846.864,177.02 L843.784,177.38 L843.784,181.54 z" fill="#AD3523"/>
    <path d="M891.344,170.94 C891.344,164.38 888.224,160.74 881.424,160.74 C873.904,160.74 870.264,164.58 870.264,171.86 C870.264,178.54 873.984,182.18 880.464,182.18 C887.664,182.18 891.344,178.22 891.344,170.94 z M884.624,171.66 C884.624,176.26 883.144,177.5 880.664,177.5 C878.344,177.5 876.824,176.3 876.824,171.22 C876.824,167.62 877.864,165.38 880.904,165.38 C884.064,165.38 884.624,167.74 884.624,171.66 z" fill="#AD3523"/>
    <path d="M906.784,191.38 L906.784,187.22 L902.784,186.86 L902.784,181.74 C903.744,181.86 904.704,181.9 905.704,181.9 C912.104,181.9 916.184,178.3 916.184,170.7 C916.184,164.1 913.744,160.78 909.584,160.78 C906.984,160.78 904.184,162.18 902.784,163.34 L902.664,160.74 C899.544,160.86 896.264,161.34 893.104,162.26 L893.104,166.34 L896.584,166.34 L896.584,186.86 L893.304,187.22 L893.304,191.38 z M902.784,176.78 L902.784,166.74 C903.984,166.34 905.024,166.1 906.264,166.1 C908.184,166.1 909.424,167.62 909.424,171.3 C909.424,175.58 907.784,177.06 905.344,177.06 C904.384,177.06 903.584,176.94 902.784,176.78 z" fill="#AD3523"/>
    <path d="M1190.932,182.56 L1201.132,182.56 C1203.652,182.56 1205.812,182.52 1208.812,182.08 C1213.132,181.44 1215.852,178.96 1215.852,174.56 C1215.852,170.72 1213.532,168.72 1209.372,168.24 C1213.132,167.12 1214.732,165.2 1214.732,161.88 C1214.732,158.56 1212.852,156.6 1208.852,155.92 C1207.172,155.64 1203.812,155.52 1201.532,155.52 L1190.932,155.52 L1190.932,159.72 L1194.772,160.08 L1194.772,178 L1190.932,178.36 z M1201.412,171.28 L1203.412,171.28 C1204.172,171.28 1205.092,171.32 1205.892,171.4 C1207.652,171.56 1208.652,172.6 1208.652,174.32 C1208.652,175.8 1207.972,176.64 1206.772,177.08 C1205.972,177.36 1204.692,177.36 1203.692,177.36 L1201.412,177.36 z M1201.412,166.12 L1201.412,160.72 L1203.612,160.72 C1204.572,160.72 1205.812,160.8 1206.412,161.12 C1207.252,161.56 1207.732,162.2 1207.732,163.32 C1207.732,164.72 1207.012,165.52 1205.932,165.84 C1205.252,166.04 1204.252,166.12 1203.252,166.12 z" fill="#AD3523"/>
    <path d="M1240.252,178 L1237.052,178 L1237.052,169.4 C1237.052,166.56 1236.692,164.92 1236.012,163.84 C1235.132,162.4 1233.372,161.76 1230.452,161.76 C1228.052,161.76 1223.532,162.44 1220.532,163.44 L1221.412,167.72 C1224.052,167.08 1226.852,166.88 1228.252,166.88 C1229.612,166.88 1230.252,167.12 1230.612,167.6 C1230.852,168 1230.932,168.76 1230.932,169.56 L1230.932,170.12 C1227.892,170.24 1225.052,170.52 1222.772,171.24 C1220.412,171.96 1218.892,173.76 1218.892,176.68 C1218.892,179.88 1220.892,183.04 1225.492,183.04 C1227.172,183.04 1229.532,182.48 1231.292,180.6 L1231.652,182.92 C1234.532,182.92 1238.172,182.48 1240.252,181.92 z M1231.012,177.24 C1230.092,178.08 1228.532,178.6 1227.452,178.6 C1226.092,178.6 1225.332,177.8 1225.332,176.52 C1225.332,175.64 1225.772,174.92 1226.812,174.56 C1228.172,174.08 1230.252,174 1231.012,173.92 z" fill="#AD3523"/>
    <path d="M1255.812,182.56 L1255.812,178.4 L1251.932,178 L1251.932,168.36 C1253.332,167.68 1255.132,167.4 1256.652,167.4 C1257.772,167.4 1258.572,167.48 1258.932,167.52 L1258.932,162 C1258.572,161.96 1258.012,161.92 1257.652,161.92 C1255.172,161.92 1253.012,163.24 1251.852,165.24 L1251.852,161.84 C1248.732,161.88 1245.172,162.4 1242.252,163.36 L1242.252,167.44 L1245.692,167.44 L1245.692,178.04 L1242.412,178.4 L1242.412,182.56 z" fill="#AD3523"/>
    <path d="M1276.612,182.56 L1282.852,166.92 L1285.292,166.56 L1285.292,162.44 L1273.852,162.44 L1273.852,166.56 L1276.292,166.84 C1274.932,170.8 1273.932,174.04 1273.132,176.72 C1272.212,173.92 1271.332,170.84 1269.772,166.84 L1272.292,166.56 L1272.292,162.44 L1260.572,162.44 L1260.572,166.56 L1263.012,166.92 L1269.252,182.56 z" fill="#AD3523"/>
    <path d="M1289.772,193 C1294.932,191.6 1299.372,189.24 1302.012,181.92 L1307.372,166.92 L1309.812,166.56 L1309.812,162.44 L1298.492,162.44 L1298.492,166.56 L1300.932,166.84 C1299.612,170.8 1298.772,174.4 1298.012,177.08 C1297.092,174.48 1296.052,171.08 1294.412,166.84 L1296.932,166.56 L1296.932,162.44 L1285.372,162.44 L1285.372,166.56 L1287.812,166.92 L1293.812,182.56 L1294.852,182.56 C1293.892,185.28 1291.172,186.96 1287.852,187.92 z" fill="#AD3523"/>
    <path d="M219.92,443.68 L217.16,439.68 C214.32,441.68 211.28,442.28 209.36,442.28 C205.2,442.28 202.88,439.2 202.88,434.2 C202.88,427.4 205.88,424.88 210.28,424.88 C211.16,424.88 212.4,425 213.48,425.36 L214.04,429.84 L218.92,429.84 C218.92,423.64 218.8,421.8 218.52,420.52 C215.84,419.88 213.48,419.52 209.64,419.52 C200.64,419.52 195.84,424.96 195.84,434.44 C195.84,442.8 200.56,448 208.08,448 C212.76,448 216.8,446.12 219.92,443.68 z" fill="#AD3523"/>
    <path d="M222.08,437.24 C222.08,441.92 222.28,444.8 222.64,446.52 C224.68,447.4 227.92,448 232.08,448 C240.16,448 243.56,444.12 243.56,439.72 C243.56,435.6 242.44,433.52 235.72,431.12 L232.32,429.88 C230.48,429.24 230.08,428.4 230.08,427.2 C230.08,426.04 230.92,424.84 234.08,424.84 C235.24,424.84 236.72,425.04 237.88,425.36 L238.36,429.68 L243,429.68 C243,425.28 242.92,421.4 242.6,420.52 C240.56,420 237.24,419.56 234.64,419.56 C226.28,419.56 223.08,423.4 223.08,428.04 C223.08,433 225.92,434.92 229.8,436.12 L233.32,437.16 C235.64,437.88 236.36,438.76 236.36,440.16 C236.36,441.6 235.4,442.68 232.88,442.68 C231.12,442.68 229.36,442.44 227.52,441.88 L226.88,437.24 z" fill="#AD3523"/>
    <path d="M246.52,437.24 C246.52,441.92 246.72,444.8 247.08,446.52 C249.12,447.4 252.36,448 256.52,448 C264.6,448 268,444.12 268,439.72 C268,435.6 266.88,433.52 260.16,431.12 L256.76,429.88 C254.92,429.24 254.52,428.4 254.52,427.2 C254.52,426.04 255.36,424.84 258.52,424.84 C259.68,424.84 261.16,425.04 262.32,425.36 L262.8,429.68 L267.44,429.68 C267.44,425.28 267.36,421.4 267.04,420.52 C265,420 261.68,419.56 259.08,419.56 C250.72,419.56 247.52,423.4 247.52,428.04 C247.52,433 250.36,434.92 254.24,436.12 L257.76,437.16 C260.08,437.88 260.8,438.76 260.8,440.16 C260.8,441.6 259.84,442.68 257.32,442.68 C255.56,442.68 253.8,442.44 251.96,441.88 L251.32,437.24 z" fill="#AD3523"/>
    <path d="M907.038,716.52 L907.038,707.88 L909.118,707.72 L909.118,703.6 L897.278,703.6 L897.278,707.72 L900.718,708 L900.718,712.32 C899.398,712.68 898.038,712.88 896.358,712.88 C892.158,712.88 889.838,710.16 889.838,705.04 C889.838,698.16 892.998,695.64 897.598,695.64 C898.518,695.64 899.998,695.84 901.038,696.12 L901.638,700.16 L906.478,700.16 C906.478,693.92 906.358,692.52 906.078,691.2 C903.398,690.56 900.718,690.2 896.918,690.2 C887.638,690.2 882.798,695.64 882.798,705.12 C882.798,713.48 887.638,718.68 895.278,718.68 C901.478,718.68 904.518,717.32 907.038,716.52 z" fill="#AD3523"/>
    <path d="M924.878,717.96 L924.878,713.8 L920.998,713.4 L920.998,703.76 C922.398,703.08 924.198,702.8 925.718,702.8 C926.838,702.8 927.638,702.88 927.998,702.92 L927.998,697.4 C927.638,697.36 927.078,697.32 926.718,697.32 C924.238,697.32 922.078,698.64 920.918,700.64 L920.918,697.24 C917.798,697.28 914.238,697.8 911.318,698.76 L911.318,702.84 L914.758,702.84 L914.758,713.44 L911.478,713.8 L911.478,717.96 z" fill="#AD3523"/>
    <path d="M950.198,713.4 L946.998,713.4 L946.998,704.8 C946.998,701.96 946.638,700.32 945.958,699.24 C945.078,697.8 943.318,697.16 940.398,697.16 C937.998,697.16 933.478,697.84 930.478,698.84 L931.358,703.12 C933.998,702.48 936.798,702.28 938.198,702.28 C939.558,702.28 940.198,702.52 940.558,703 C940.798,703.4 940.878,704.16 940.878,704.96 L940.878,705.52 C937.838,705.64 934.998,705.92 932.718,706.64 C930.358,707.36 928.838,709.16 928.838,712.08 C928.838,715.28 930.838,718.44 935.438,718.44 C937.118,718.44 939.478,717.88 941.238,716 L941.598,718.32 C944.478,718.32 948.118,717.88 950.198,717.32 z M940.958,712.64 C940.038,713.48 938.478,714 937.398,714 C936.038,714 935.278,713.2 935.278,711.92 C935.278,711.04 935.718,710.32 936.758,709.96 C938.118,709.48 940.198,709.4 940.958,709.32 z" fill="#AD3523"/>
    <path d="M975.038,713.6 L971.838,713.6 L971.838,688.28 C968.598,688.32 964.998,689 961.758,689.88 L961.758,693.96 L965.478,693.96 L965.478,697.92 C964.518,697.56 962.918,697.4 961.878,697.4 C956.878,697.4 952.278,700.4 952.278,708.36 C952.278,714.68 955.638,718.36 960.118,718.36 C962.318,718.36 964.198,717.48 965.798,716 L966.158,718.32 C969.158,718.32 972.518,718.04 975.038,717.52 z M965.478,712.36 C964.198,713.04 963.078,713.36 962.278,713.36 C960.318,713.36 958.798,712.32 958.798,708.04 C958.798,703.44 960.838,702.6 962.878,702.6 C963.598,702.6 964.518,702.68 965.478,702.88 z" fill="#AD3523"/>
    <path d="M985.958,691.88 C985.958,689.36 984.558,688.56 982.678,688.56 C980.838,688.56 979.278,689.48 979.278,691.88 C979.278,694.28 980.838,695.16 982.558,695.16 C984.558,695.16 985.958,694.12 985.958,691.88 z M989.838,717.96 L989.838,713.8 L986.558,713.44 L986.558,697.24 C983.398,697.24 979.878,697.84 976.878,698.72 L976.878,702.84 L980.318,702.84 L980.318,713.44 L977.038,713.8 L977.038,717.96 z" fill="#AD3523"/>
    <path d="M1011.518,715.92 L1009.518,712 C1007.558,713.08 1005.478,713.56 1003.158,713.56 C1000.558,713.56 999.158,712.24 998.718,710.32 C998.638,709.92 998.638,709.24 998.638,709.08 L1011.118,709.08 C1011.198,708.4 1011.238,707.6 1011.238,707.32 C1011.238,702.16 1009.838,697.16 1002.398,697.16 C996.958,697.16 992.198,700.8 992.198,708.24 C992.198,714.4 995.678,718.6 1001.598,718.6 C1005.318,718.6 1008.358,717.76 1011.518,715.92 z M1005.158,704.88 L998.838,704.88 C999.118,703 1000.438,701.64 1002.278,701.64 C1004.318,701.64 1005.198,702.64 1005.198,704.12 C1005.198,704.36 1005.198,704.6 1005.158,704.88 z" fill="#AD3523"/>
    <path d="M1027.038,717.96 L1027.038,713.8 L1023.758,713.44 L1023.758,703.28 C1025.158,702.76 1026.478,702.6 1027.678,702.6 C1028.518,702.6 1029.198,702.84 1029.358,703.72 C1029.478,704.4 1029.478,705.72 1029.478,707.64 L1029.478,717.96 L1039.158,717.96 L1039.158,713.8 L1035.798,713.44 L1035.798,706.32 C1035.798,704.08 1035.798,702.24 1035.638,701.08 C1035.318,698.68 1034.158,697.28 1031.078,697.28 C1029.198,697.28 1025.958,698.4 1023.758,700 L1023.638,697.24 C1020.918,697.24 1016.638,697.92 1014.078,698.76 L1014.078,702.84 L1017.518,702.84 L1017.518,713.44 L1014.238,713.8 L1014.238,717.96 z" fill="#AD3523"/>
    <path d="M1055.238,717.44 L1054.478,712.84 C1053.518,713 1052.398,713.04 1051.838,713.04 C1050.958,713.04 1050.278,712.84 1049.918,712.32 C1049.478,711.72 1049.318,710.88 1049.318,709.24 L1049.318,702.64 L1054.118,702.64 L1054.118,697.84 L1049.318,697.84 L1049.318,692.44 L1043.318,692.84 C1043.158,695.4 1043.078,696.52 1043.078,697.84 C1042.558,697.84 1040.558,697.96 1039.358,698.24 L1039.358,702.64 L1042.998,702.64 L1042.998,710.6 C1042.998,713.24 1043.398,715.28 1044.238,716.4 C1045.078,717.56 1046.798,718.28 1048.838,718.28 C1051.478,718.28 1053.758,717.92 1055.238,717.44 z" fill="#AD3523"/>
    <path d="M1059.678,728.4 C1064.838,727 1069.278,724.64 1071.918,717.32 L1077.278,702.32 L1079.718,701.96 L1079.718,697.84 L1068.398,697.84 L1068.398,701.96 L1070.838,702.24 C1069.518,706.2 1068.678,709.8 1067.918,712.48 C1066.998,709.88 1065.958,706.48 1064.318,702.24 L1066.838,701.96 L1066.838,697.84 L1055.278,697.84 L1055.278,701.96 L1057.718,702.32 L1063.718,717.96 L1064.758,717.96 C1063.798,720.68 1061.078,722.36 1057.758,723.32 z" fill="#AD3523"/>
    <path d="M1351,473.56 L1351,469.36 L1346.24,469.04 L1346.24,462.8 L1354.36,462.8 L1354.36,457.32 L1346.24,457.32 L1346.24,452 L1353.52,452 L1354.12,455.52 L1358.56,455.52 C1358.56,449.52 1358.32,447.56 1358.08,446.52 L1335.72,446.52 L1335.72,450.72 L1339.56,451.08 L1339.56,469 L1335.72,469.36 L1335.72,473.56 z" fill="#AD3523"/>
    <path d="M1368.68,447.48 C1368.68,444.96 1367.28,444.16 1365.4,444.16 C1363.56,444.16 1362,445.08 1362,447.48 C1362,449.88 1363.56,450.76 1365.28,450.76 C1367.28,450.76 1368.68,449.72 1368.68,447.48 z M1372.56,473.56 L1372.56,469.4 L1369.28,469.04 L1369.28,452.84 C1366.12,452.84 1362.6,453.44 1359.6,454.32 L1359.6,458.44 L1363.04,458.44 L1363.04,469.04 L1359.76,469.4 L1359.76,473.56 z" fill="#AD3523"/>
    <path d="M1386.92,473.56 L1386.92,469.4 L1383.6,469.04 L1383.6,443.92 C1380.72,443.92 1377.2,444.6 1373.92,445.48 L1373.92,449.56 L1377.36,449.56 L1377.36,469.04 L1374.28,469.4 L1374.28,473.56 z" fill="#AD3523"/>
    <path d="M1403.04,473.04 L1402.28,468.44 C1401.32,468.6 1400.2,468.64 1399.64,468.64 C1398.76,468.64 1398.08,468.44 1397.72,467.92 C1397.28,467.32 1397.12,466.48 1397.12,464.84 L1397.12,458.24 L1401.92,458.24 L1401.92,453.44 L1397.12,453.44 L1397.12,448.04 L1391.12,448.44 C1390.96,451 1390.88,452.12 1390.88,453.44 C1390.36,453.44 1388.36,453.56 1387.16,453.84 L1387.16,458.24 L1390.8,458.24 L1390.8,466.2 C1390.8,468.84 1391.2,470.88 1392.04,472 C1392.88,473.16 1394.6,473.88 1396.64,473.88 C1399.28,473.88 1401.56,473.52 1403.04,473.04 z" fill="#AD3523"/>
    <path d="M1417.8,473.56 L1417.8,469.4 L1413.92,469 L1413.92,459.36 C1415.32,458.68 1417.12,458.4 1418.64,458.4 C1419.76,458.4 1420.56,458.48 1420.92,458.52 L1420.92,453 C1420.56,452.96 1420,452.92 1419.64,452.92 C1417.16,452.92 1415,454.24 1413.84,456.24 L1413.84,452.84 C1410.72,452.88 1407.16,453.4 1404.24,454.36 L1404.24,458.44 L1407.68,458.44 L1407.68,469.04 L1404.4,469.4 L1404.4,473.56 z" fill="#AD3523"/>
    <path d="M1426.96,484 C1432.12,482.6 1436.56,480.24 1439.2,472.92 L1444.56,457.92 L1447,457.56 L1447,453.44 L1435.68,453.44 L1435.68,457.56 L1438.12,457.84 C1436.8,461.8 1435.96,465.4 1435.2,468.08 C1434.28,465.48 1433.24,462.08 1431.6,457.84 L1434.12,457.56 L1434.12,453.44 L1422.56,453.44 L1422.56,457.56 L1425,457.92 L1431,473.56 L1432.04,473.56 C1431.08,476.28 1428.36,477.96 1425.04,478.92 z" fill="#AD3523"/>
  </g>
</svg>
