<?xml version="1.0" encoding="UTF-8"?>
<!DOCTYPE svg PUBLIC "-//W3C//DTD SVG 1.1//EN" "http://www.w3.org/Graphics/SVG/1.1/DTD/svg11.dtd">
<svg version="1.1" xmlns="http://www.w3.org/2000/svg" xmlns:xlink="http://www.w3.org/1999/xlink" x="0" y="0" width="1600" height="900" viewBox="0, 0, 1600, 900">
  <g id="Background">
    <rect x="0" y="0" width="1600" height="900" fill="#48440D"/>
  </g>
  <g id="">
    <path d="M-0,0 L1600,0 L1600,900 L-0,900 L-0,0 z" fill="#000000" opacity="0.512"/>
  </g>
  <g id="Layer_5">
    <g id="gulp">
      <g>
        <path d="M1125.673,553.908 C1125.59,553.908 1125.506,553.908 1125.424,553.908 C1125.341,553.908 1125.257,553.908 1125.174,553.908 C1125.257,553.908 1125.341,553.908 1125.424,553.908 C1088.662,553.882 1057.372,548.399 1045.111,540.689 L1060.137,564.207 L1065.623,637.441 C1065.623,637.441 1125.511,678.834 1184.718,637.441 L1189.062,563.41 L1202.011,542.692 C1187.849,549.331 1158.91,553.884 1125.424,553.908 C1125.506,553.908 1125.59,553.908 1125.673,553.908 z" fill="#FFFFFF"/>
        <path d="M1125.673,553.908 C1125.59,553.908 1125.506,553.908 1125.424,553.908 C1125.341,553.908 1125.257,553.908 1125.174,553.908 C1125.257,553.908 1125.341,553.908 1125.424,553.908 C1088.662,553.882 1057.372,548.399 1045.111,540.689 L1060.137,564.207 L1065.623,637.441 C1065.623,637.441 1125.511,678.834 1184.718,637.441 L1189.062,563.41 L1202.011,542.692 C1187.849,549.331 1158.91,553.884 1125.424,553.908 C1125.506,553.908 1125.59,553.908 1125.673,553.908 z" fill-opacity="0" stroke="#000000" stroke-width="1.583"/>
      </g>
      <g>
        <path d="M1206.831,453.787 C1204.216,455.72 1201.66,457.217 1199.168,458.273 C1196.673,459.331 1194.004,459.861 1191.159,459.861 C1188.49,459.861 1186.427,459.291 1184.969,458.15 C1183.512,457.012 1182.783,455.446 1182.783,453.451 C1182.783,453.288 1182.783,453.137 1182.783,452.994 C1182.783,452.853 1182.8,452.677 1182.836,452.474 C1182.976,451.255 1183.522,449.848 1184.47,448.263 C1185.417,446.675 1186.558,445.026 1187.892,443.319 C1189.226,441.609 1190.649,439.88 1192.159,438.13 C1193.67,436.381 1195.065,434.724 1196.349,433.155 C1197.628,431.591 1198.691,430.156 1199.534,428.853 C1200.379,427.55 1200.8,426.493 1200.8,425.679 C1200.8,425.191 1200.623,424.805 1200.273,424.518 C1199.921,424.236 1199.341,424.091 1198.535,424.091 C1197.13,424.091 1195.68,424.448 1194.189,425.159 C1192.696,425.87 1191.219,426.828 1189.762,428.029 C1188.306,429.229 1186.883,430.604 1185.495,432.148 C1184.11,433.695 1182.809,435.302 1181.598,436.97 C1180.386,438.639 1179.281,440.317 1178.281,442.006 C1177.281,443.695 1176.427,445.251 1175.725,446.675 C1175.514,447.122 1175.216,447.755 1174.829,448.567 C1174.441,449.381 1174.02,450.298 1173.565,451.314 C1173.108,452.332 1172.625,453.381 1172.116,454.455 C1171.607,455.536 1171.142,456.554 1170.721,457.509 C1170.3,458.464 1169.922,459.318 1169.59,460.072 C1169.254,460.824 1169.017,461.344 1168.878,461.629 C1168.701,461.996 1168.413,462.685 1168.009,463.703 C1167.606,464.721 1167.141,465.912 1166.614,467.274 C1166.088,468.636 1165.535,470.071 1164.954,471.578 C1164.377,473.083 1163.831,474.508 1163.321,475.851 C1162.812,477.192 1162.363,478.373 1161.98,479.391 C1161.592,480.407 1161.345,481.099 1161.24,481.465 C1160.89,482.523 1160.477,483.519 1160.004,484.457 C1159.529,485.391 1158.986,486.216 1158.371,486.929 C1157.757,487.641 1157.053,488.211 1156.262,488.637 C1155.471,489.067 1154.585,489.279 1153.604,489.279 C1152.337,489.279 1151.294,488.982 1150.467,488.392 C1149.645,487.804 1149.231,486.673 1149.231,485.005 C1149.231,484.191 1149.336,483.357 1149.547,482.504 C1149.758,481.649 1150.022,480.803 1150.338,479.97 C1150.654,479.134 1150.98,478.322 1151.312,477.53 C1151.646,476.735 1151.954,475.972 1152.232,475.24 C1154.13,471.171 1156.062,467.091 1158.027,463.002 C1159.993,458.913 1161.881,454.865 1163.691,450.856 C1164.068,450.02 1164.413,449.201 1164.78,448.371 C1164.67,448.476 1164.562,448.586 1164.454,448.689 C1162.17,450.848 1159.898,452.75 1157.634,454.397 C1155.366,456.045 1153.118,457.357 1150.891,458.334 C1148.661,459.309 1146.491,459.797 1144.384,459.797 C1142.944,459.797 1141.742,459.574 1140.777,459.126 C1139.811,458.679 1139.038,458.068 1138.458,457.297 C1137.878,456.523 1137.464,455.608 1137.219,454.55 C1137.137,454.188 1137.085,453.809 1137.031,453.434 C1136.415,453.904 1135.793,454.361 1135.166,454.794 C1132.99,456.299 1130.848,457.51 1128.739,458.425 C1126.633,459.34 1124.737,459.797 1123.052,459.797 C1121.365,459.797 1119.996,459.249 1118.941,458.149 C1117.888,457.052 1117.362,455.179 1117.362,452.535 C1117.362,450.663 1117.644,448.485 1118.204,446.004 C1117.291,447.592 1116.15,449.198 1114.782,450.826 C1113.411,452.454 1111.849,453.939 1110.094,455.283 C1108.336,456.625 1106.37,457.714 1104.193,458.548 C1102.015,459.382 1099.644,459.798 1097.082,459.798 C1095.922,459.798 1094.809,459.657 1093.736,459.372 C1092.666,459.087 1091.725,458.598 1090.918,457.906 C1090.11,457.217 1089.462,456.29 1088.969,455.13 C1088.476,453.97 1088.232,452.514 1088.232,450.766 C1088.232,450.725 1088.302,450.105 1088.442,448.902 C1088.582,447.701 1089.03,445.81 1089.785,443.225 C1090.541,440.644 1091.708,437.295 1093.287,433.184 C1094.869,429.073 1097.098,424.09 1099.979,418.232 C1100.716,416.684 1101.568,415.575 1102.532,414.905 C1103.499,414.233 1104.543,413.897 1105.666,413.897 C1106.159,413.897 1106.668,413.969 1107.194,414.11 C1107.723,414.254 1108.212,414.475 1108.671,414.782 C1109.126,415.086 1109.496,415.474 1109.778,415.941 C1110.057,416.408 1110.199,416.946 1110.199,417.557 C1110.199,417.964 1110.145,418.352 1110.04,418.716 C1109.863,419.41 1109.487,420.314 1108.909,421.432 C1108.329,422.553 1107.653,423.835 1106.88,425.279 C1106.109,426.724 1105.29,428.28 1104.432,429.95 C1103.569,431.617 1102.772,433.347 1102.035,435.137 C1101.298,436.928 1100.665,438.749 1100.138,440.601 C1099.61,442.452 1099.312,444.254 1099.243,446.001 C1099.243,446.735 1099.417,447.405 1099.77,448.016 C1100.119,448.627 1100.7,448.931 1101.508,448.931 C1103.79,448.931 1105.967,448.198 1108.041,446.735 C1110.111,445.269 1112.024,443.448 1113.782,441.271 C1115.537,439.095 1117.126,436.754 1118.549,434.251 C1119.972,431.748 1121.156,429.461 1122.104,427.384 C1122.772,426.001 1123.36,424.514 1123.869,422.928 C1124.378,421.34 1124.932,419.877 1125.529,418.533 C1126.126,417.189 1126.809,416.071 1127.583,415.176 C1128.354,414.282 1129.322,413.834 1130.48,413.834 C1131.746,413.834 1132.746,414.303 1133.484,415.238 C1134.221,416.175 1134.588,417.294 1134.588,418.593 C1134.588,419.327 1134.353,420.335 1133.879,421.616 C1133.405,422.898 1132.807,424.363 1132.086,426.011 C1131.365,427.659 1130.586,429.419 1129.743,431.291 C1128.901,433.163 1128.117,435.065 1127.4,436.998 C1126.678,438.93 1126.083,440.823 1125.608,442.674 C1125.133,444.526 1124.898,446.245 1124.898,447.831 C1124.898,449.296 1125.669,450.03 1127.215,450.03 C1128.304,450.03 1129.656,449.663 1131.271,448.931 C1132.887,448.199 1134.582,447.17 1136.355,445.848 C1136.798,445.517 1137.243,445.172 1137.686,444.811 C1138.181,442.813 1138.76,440.966 1139.436,439.287 C1140.664,436.111 1141.912,432.96 1143.176,429.826 C1144.44,426.693 1145.598,423.824 1146.653,421.218 L1162.613,381.848 C1163.245,380.262 1164.097,379.142 1165.166,378.491 C1166.238,377.841 1167.319,377.515 1168.408,377.515 C1169.495,377.515 1170.486,377.86 1171.383,378.552 C1172.279,379.245 1172.727,380.363 1172.727,381.91 C1172.727,382.642 1172.577,383.416 1172.279,384.229 C1171.981,385.044 1171.603,385.917 1171.146,386.854 C1170.27,388.767 1169.224,391.107 1168.012,393.874 C1166.8,396.641 1165.5,399.652 1164.115,402.908 C1162.727,406.164 1161.304,409.551 1159.847,413.071 C1158.391,416.592 1156.968,420.02 1155.58,423.355 C1154.195,426.694 1152.894,429.856 1151.683,432.847 C1150.472,435.838 1149.428,438.433 1148.549,440.629 C1148.162,441.566 1147.786,442.655 1147.418,443.896 C1147.049,445.137 1146.866,446.245 1146.866,447.223 C1146.866,447.831 1146.971,448.32 1147.182,448.686 C1147.392,449.051 1147.796,449.236 1148.394,449.236 C1149.131,449.236 1150.051,448.982 1151.158,448.472 C1152.265,447.965 1153.457,447.291 1154.739,446.457 C1156.022,445.624 1157.357,444.668 1158.742,443.588 C1160.13,442.51 1161.508,441.392 1162.877,440.233 C1164.249,439.071 1165.556,437.911 1166.802,436.753 C1168.048,435.594 1169.165,434.526 1170.149,433.548 C1170.38,433.314 1170.656,433.148 1170.959,433.023 C1171.552,431.292 1172.092,429.593 1172.57,427.934 C1172.852,427.201 1173.238,426.165 1173.731,424.821 C1174.221,423.477 1174.784,422.155 1175.415,420.852 C1176.047,419.551 1176.759,418.422 1177.548,417.465 C1178.339,416.51 1179.191,416.03 1180.104,416.03 C1181.509,416.03 1182.528,416.347 1183.16,416.976 C1183.792,417.609 1184.108,418.533 1184.108,419.755 C1184.108,419.999 1184.074,420.385 1184.002,420.914 C1183.931,421.442 1183.846,422.004 1183.74,422.592 C1183.635,423.181 1183.52,423.743 1183.398,424.271 C1183.273,424.801 1183.161,425.186 1183.056,425.43 C1184.353,424.046 1185.759,422.673 1187.269,421.311 C1188.78,419.948 1190.341,418.715 1191.957,417.617 C1193.573,416.518 1195.223,415.625 1196.91,414.93 C1198.595,414.24 1200.281,413.894 1201.966,413.894 C1203.124,413.894 1204.275,414.057 1205.416,414.382 C1206.556,414.707 1207.578,415.187 1208.472,415.816 C1209.368,416.449 1210.098,417.241 1210.658,418.196 C1211.218,419.151 1211.5,420.261 1211.5,421.523 C1211.5,423.192 1211.072,424.971 1210.21,426.864 C1209.35,428.756 1208.271,430.658 1206.971,432.568 C1205.671,434.483 1204.266,436.343 1202.758,438.154 C1201.247,439.965 1199.835,441.612 1198.517,443.097 C1197.2,444.585 1196.093,445.844 1195.198,446.882 C1194.304,447.922 1193.836,448.623 1193.803,448.99 C1193.803,449.478 1193.962,449.874 1194.278,450.181 C1194.594,450.485 1195.12,450.638 1195.857,450.638 C1196.455,450.638 1197.334,450.312 1198.492,449.661 C1199.65,449.009 1201.276,447.881 1203.365,446.274 C1205.453,444.666 1208.107,442.509 1211.32,439.802 C1213.524,437.948 1216.103,435.738 1219.01,433.222 L1233.876,307.024 L1233.776,307.024 C1218.699,314.086 1176.343,321.546 1126.443,321.546 C1076.55,321.546 1034.191,314.086 1019.112,307.024 L1018.988,307.024 L1030.282,422.857 C1030.882,420.862 1031.547,418.869 1032.286,416.884 C1033.795,412.815 1035.544,408.837 1037.527,404.951 C1039.511,401.066 1041.671,397.392 1044.006,393.934 C1046.34,390.475 1048.826,387.291 1051.46,384.381 C1054.095,381.472 1056.798,378.969 1059.573,376.873 C1062.347,374.779 1065.148,373.14 1067.974,371.959 C1070.802,370.78 1073.603,370.19 1076.377,370.19 C1079.572,370.19 1082.663,371.045 1085.648,372.753 C1088.633,374.462 1091.423,377.23 1094.025,381.055 C1094.621,381.91 1094.999,382.774 1095.155,383.649 C1095.314,384.524 1095.392,385.348 1095.392,386.121 C1095.392,387.952 1094.945,389.398 1094.05,390.455 C1093.155,391.513 1092.092,392.041 1090.863,392.041 C1089.739,392.041 1088.694,391.461 1087.728,390.303 C1086.761,389.144 1085.682,387.486 1084.487,385.327 C1083.364,383.374 1082.126,381.961 1080.774,381.086 C1079.422,380.211 1077.956,379.773 1076.376,379.773 C1073.917,379.773 1071.292,380.77 1068.501,382.764 C1065.708,384.758 1062.943,387.394 1060.205,390.669 C1057.464,393.945 1054.84,397.689 1052.329,401.9 C1049.818,406.111 1047.597,410.425 1045.665,414.84 C1043.733,419.257 1042.197,423.61 1041.057,427.902 C1039.915,432.194 1039.344,436.051 1039.344,439.469 C1039.344,440.609 1039.423,441.78 1039.58,442.977 C1039.739,444.179 1040.036,445.267 1040.476,446.244 C1040.915,447.221 1041.512,448.023 1042.268,448.654 C1043.024,449.287 1043.98,449.599 1045.138,449.599 C1046.438,449.599 1047.912,449.173 1049.563,448.318 C1051.213,447.466 1052.927,446.345 1054.699,444.963 C1056.473,443.578 1058.255,442.012 1060.047,440.261 C1061.839,438.512 1063.507,436.743 1065.051,434.951 C1066.595,433.162 1067.966,431.443 1069.159,429.794 C1070.354,428.146 1071.249,426.712 1071.847,425.49 L1076.745,411.146 C1077.342,409.601 1078.123,408.502 1079.09,407.85 C1080.055,407.2 1081.048,406.874 1082.067,406.874 C1082.557,406.874 1083.048,406.956 1083.541,407.118 C1084.034,407.281 1084.471,407.535 1084.859,407.88 C1085.246,408.226 1085.552,408.674 1085.78,409.223 C1086.008,409.773 1086.121,410.414 1086.121,411.145 C1086.121,413.098 1085.945,414.928 1085.594,416.639 C1085.245,418.349 1084.796,420.016 1084.252,421.644 C1083.706,423.271 1083.101,424.909 1082.434,426.557 C1081.767,428.205 1081.117,429.924 1080.485,431.716 C1080.346,431.92 1080.091,432.56 1079.721,433.636 C1079.353,434.717 1078.907,436.069 1078.379,437.697 C1077.852,439.325 1077.281,441.145 1076.667,443.16 C1076.052,445.175 1075.42,447.229 1074.771,449.325 C1074.119,451.42 1073.497,453.476 1072.901,455.489 C1072.304,457.503 1071.768,459.324 1071.295,460.952 C1070.82,462.578 1070.426,463.942 1070.109,465.041 C1069.793,466.14 1069.6,466.79 1069.53,466.996 C1069.353,467.644 1069.072,468.368 1068.688,469.161 C1068.3,469.953 1067.844,470.709 1067.316,471.42 C1066.79,472.131 1066.211,472.723 1065.578,473.19 C1064.946,473.657 1064.296,473.891 1063.628,473.891 C1062.505,473.891 1061.688,473.525 1061.18,472.794 C1060.67,472.06 1060.417,470.717 1060.417,468.765 C1060.417,468.478 1060.417,468.193 1060.417,467.91 C1060.417,467.626 1060.434,467.319 1060.468,466.996 C1060.502,466.344 1060.766,465.123 1061.259,463.331 C1061.752,461.542 1062.338,459.519 1063.024,457.26 C1063.708,455.001 1064.447,452.661 1065.237,450.239 C1066.026,447.817 1066.737,445.653 1067.37,443.739 C1065.507,445.774 1063.489,447.799 1061.312,449.813 C1059.134,451.826 1056.903,453.638 1054.621,455.245 C1052.339,456.853 1050.038,458.165 1047.721,459.183 C1045.403,460.198 1043.173,460.708 1041.03,460.708 C1038.572,460.708 1036.456,460.179 1034.682,459.12 C1034.361,458.929 1034.061,458.713 1033.76,458.5 L1040.936,532.101 L1045.113,538.638 C1057.374,546.347 1088.664,551.83 1125.426,551.856 C1158.912,551.831 1187.852,547.279 1202.013,540.64 L1207.354,532.101 L1217.659,444.618 C1216.807,445.382 1215.979,446.129 1215.186,446.852 C1212.232,449.545 1209.448,451.854 1206.831,453.787 z" fill="#FFFFFF"/>
        <path d="M1206.831,453.787 C1204.216,455.72 1201.66,457.217 1199.168,458.273 C1196.673,459.331 1194.004,459.861 1191.159,459.861 C1188.49,459.861 1186.427,459.291 1184.969,458.15 C1183.512,457.012 1182.783,455.446 1182.783,453.451 C1182.783,453.288 1182.783,453.137 1182.783,452.994 C1182.783,452.853 1182.8,452.677 1182.836,452.474 C1182.976,451.255 1183.522,449.848 1184.47,448.263 C1185.417,446.675 1186.558,445.026 1187.892,443.319 C1189.226,441.609 1190.649,439.88 1192.159,438.13 C1193.67,436.381 1195.065,434.724 1196.349,433.155 C1197.628,431.591 1198.691,430.156 1199.534,428.853 C1200.379,427.55 1200.8,426.493 1200.8,425.679 C1200.8,425.191 1200.623,424.805 1200.273,424.518 C1199.921,424.236 1199.341,424.091 1198.535,424.091 C1197.13,424.091 1195.68,424.448 1194.189,425.159 C1192.696,425.87 1191.219,426.828 1189.762,428.029 C1188.306,429.229 1186.883,430.604 1185.495,432.148 C1184.11,433.695 1182.809,435.302 1181.598,436.97 C1180.386,438.639 1179.281,440.317 1178.281,442.006 C1177.281,443.695 1176.427,445.251 1175.725,446.675 C1175.514,447.122 1175.216,447.755 1174.829,448.567 C1174.441,449.381 1174.02,450.298 1173.565,451.314 C1173.108,452.332 1172.625,453.381 1172.116,454.455 C1171.607,455.536 1171.142,456.554 1170.721,457.509 C1170.3,458.464 1169.922,459.318 1169.59,460.072 C1169.254,460.824 1169.017,461.344 1168.878,461.629 C1168.701,461.996 1168.413,462.685 1168.009,463.703 C1167.606,464.721 1167.141,465.912 1166.614,467.274 C1166.088,468.636 1165.535,470.071 1164.954,471.578 C1164.377,473.083 1163.831,474.508 1163.321,475.851 C1162.812,477.192 1162.363,478.373 1161.98,479.391 C1161.592,480.407 1161.345,481.099 1161.24,481.465 C1160.89,482.523 1160.477,483.519 1160.004,484.457 C1159.529,485.391 1158.986,486.216 1158.371,486.929 C1157.757,487.641 1157.053,488.211 1156.262,488.637 C1155.471,489.067 1154.585,489.279 1153.604,489.279 C1152.337,489.279 1151.294,488.982 1150.467,488.392 C1149.645,487.804 1149.231,486.673 1149.231,485.005 C1149.231,484.191 1149.336,483.357 1149.547,482.504 C1149.758,481.649 1150.022,480.803 1150.338,479.97 C1150.654,479.134 1150.98,478.322 1151.312,477.53 C1151.646,476.735 1151.954,475.972 1152.232,475.24 C1154.13,471.171 1156.062,467.091 1158.027,463.002 C1159.993,458.913 1161.881,454.865 1163.691,450.856 C1164.068,450.02 1164.413,449.201 1164.78,448.371 C1164.67,448.476 1164.562,448.586 1164.454,448.689 C1162.17,450.848 1159.898,452.75 1157.634,454.397 C1155.366,456.045 1153.118,457.357 1150.891,458.334 C1148.661,459.309 1146.491,459.797 1144.384,459.797 C1142.944,459.797 1141.742,459.574 1140.777,459.126 C1139.811,458.679 1139.038,458.068 1138.458,457.297 C1137.878,456.523 1137.464,455.608 1137.219,454.55 C1137.137,454.188 1137.085,453.809 1137.031,453.434 C1136.415,453.904 1135.793,454.361 1135.166,454.794 C1132.99,456.299 1130.848,457.51 1128.739,458.425 C1126.633,459.34 1124.737,459.797 1123.052,459.797 C1121.365,459.797 1119.996,459.249 1118.941,458.149 C1117.888,457.052 1117.362,455.179 1117.362,452.535 C1117.362,450.663 1117.644,448.485 1118.204,446.004 C1117.291,447.592 1116.15,449.198 1114.782,450.826 C1113.411,452.454 1111.849,453.939 1110.094,455.283 C1108.336,456.625 1106.37,457.714 1104.193,458.548 C1102.015,459.382 1099.644,459.798 1097.082,459.798 C1095.922,459.798 1094.809,459.657 1093.736,459.372 C1092.666,459.087 1091.725,458.598 1090.918,457.906 C1090.11,457.217 1089.462,456.29 1088.969,455.13 C1088.476,453.97 1088.232,452.514 1088.232,450.766 C1088.232,450.725 1088.302,450.105 1088.442,448.902 C1088.582,447.701 1089.03,445.81 1089.785,443.225 C1090.541,440.644 1091.708,437.295 1093.287,433.184 C1094.869,429.073 1097.098,424.09 1099.979,418.232 C1100.716,416.684 1101.568,415.575 1102.532,414.905 C1103.499,414.233 1104.543,413.897 1105.666,413.897 C1106.159,413.897 1106.668,413.969 1107.194,414.11 C1107.723,414.254 1108.212,414.475 1108.671,414.782 C1109.126,415.086 1109.496,415.474 1109.778,415.941 C1110.057,416.408 1110.199,416.946 1110.199,417.557 C1110.199,417.964 1110.145,418.352 1110.04,418.716 C1109.863,419.41 1109.487,420.314 1108.909,421.432 C1108.329,422.553 1107.653,423.835 1106.88,425.279 C1106.109,426.724 1105.29,428.28 1104.432,429.95 C1103.569,431.617 1102.772,433.347 1102.035,435.137 C1101.298,436.928 1100.665,438.749 1100.138,440.601 C1099.61,442.452 1099.312,444.254 1099.243,446.001 C1099.243,446.735 1099.417,447.405 1099.77,448.016 C1100.119,448.627 1100.7,448.931 1101.508,448.931 C1103.79,448.931 1105.967,448.198 1108.041,446.735 C1110.111,445.269 1112.024,443.448 1113.782,441.271 C1115.537,439.095 1117.126,436.754 1118.549,434.251 C1119.972,431.748 1121.156,429.461 1122.104,427.384 C1122.772,426.001 1123.36,424.514 1123.869,422.928 C1124.378,421.34 1124.932,419.877 1125.529,418.533 C1126.126,417.189 1126.809,416.071 1127.583,415.176 C1128.354,414.282 1129.322,413.834 1130.48,413.834 C1131.746,413.834 1132.746,414.303 1133.484,415.238 C1134.221,416.175 1134.588,417.294 1134.588,418.593 C1134.588,419.327 1134.353,420.335 1133.879,421.616 C1133.405,422.898 1132.807,424.363 1132.086,426.011 C1131.365,427.659 1130.586,429.419 1129.743,431.291 C1128.901,433.163 1128.117,435.065 1127.4,436.998 C1126.678,438.93 1126.083,440.823 1125.608,442.674 C1125.133,444.526 1124.898,446.245 1124.898,447.831 C1124.898,449.296 1125.669,450.03 1127.215,450.03 C1128.304,450.03 1129.656,449.663 1131.271,448.931 C1132.887,448.199 1134.582,447.17 1136.355,445.848 C1136.798,445.517 1137.243,445.172 1137.686,444.811 C1138.181,442.813 1138.76,440.966 1139.436,439.287 C1140.664,436.111 1141.912,432.96 1143.176,429.826 C1144.44,426.693 1145.598,423.824 1146.653,421.218 L1162.613,381.848 C1163.245,380.262 1164.097,379.142 1165.166,378.491 C1166.238,377.841 1167.319,377.515 1168.408,377.515 C1169.495,377.515 1170.486,377.86 1171.383,378.552 C1172.279,379.245 1172.727,380.363 1172.727,381.91 C1172.727,382.642 1172.577,383.416 1172.279,384.229 C1171.981,385.044 1171.603,385.917 1171.146,386.854 C1170.27,388.767 1169.224,391.107 1168.012,393.874 C1166.8,396.641 1165.5,399.652 1164.115,402.908 C1162.727,406.164 1161.304,409.551 1159.847,413.071 C1158.391,416.592 1156.968,420.02 1155.58,423.355 C1154.195,426.694 1152.894,429.856 1151.683,432.847 C1150.472,435.838 1149.428,438.433 1148.549,440.629 C1148.162,441.566 1147.786,442.655 1147.418,443.896 C1147.049,445.137 1146.866,446.245 1146.866,447.223 C1146.866,447.831 1146.971,448.32 1147.182,448.686 C1147.392,449.051 1147.796,449.236 1148.394,449.236 C1149.131,449.236 1150.051,448.982 1151.158,448.472 C1152.265,447.965 1153.457,447.291 1154.739,446.457 C1156.022,445.624 1157.357,444.668 1158.742,443.588 C1160.13,442.51 1161.508,441.392 1162.877,440.233 C1164.249,439.071 1165.556,437.911 1166.802,436.753 C1168.048,435.594 1169.165,434.526 1170.149,433.548 C1170.38,433.314 1170.656,433.148 1170.959,433.023 C1171.552,431.292 1172.092,429.593 1172.57,427.934 C1172.852,427.201 1173.238,426.165 1173.731,424.821 C1174.221,423.477 1174.784,422.155 1175.415,420.852 C1176.047,419.551 1176.759,418.422 1177.548,417.465 C1178.339,416.51 1179.191,416.03 1180.104,416.03 C1181.509,416.03 1182.528,416.347 1183.16,416.976 C1183.792,417.609 1184.108,418.533 1184.108,419.755 C1184.108,419.999 1184.074,420.385 1184.002,420.914 C1183.931,421.442 1183.846,422.004 1183.74,422.592 C1183.635,423.181 1183.52,423.743 1183.398,424.271 C1183.273,424.801 1183.161,425.186 1183.056,425.43 C1184.353,424.046 1185.759,422.673 1187.269,421.311 C1188.78,419.948 1190.341,418.715 1191.957,417.617 C1193.573,416.518 1195.223,415.625 1196.91,414.93 C1198.595,414.24 1200.281,413.894 1201.966,413.894 C1203.124,413.894 1204.275,414.057 1205.416,414.382 C1206.556,414.707 1207.578,415.187 1208.472,415.816 C1209.368,416.449 1210.098,417.241 1210.658,418.196 C1211.218,419.151 1211.5,420.261 1211.5,421.523 C1211.5,423.192 1211.072,424.971 1210.21,426.864 C1209.35,428.756 1208.271,430.658 1206.971,432.568 C1205.671,434.483 1204.266,436.343 1202.758,438.154 C1201.247,439.965 1199.835,441.612 1198.517,443.097 C1197.2,444.585 1196.093,445.844 1195.198,446.882 C1194.304,447.922 1193.836,448.623 1193.803,448.99 C1193.803,449.478 1193.962,449.874 1194.278,450.181 C1194.594,450.485 1195.12,450.638 1195.857,450.638 C1196.455,450.638 1197.334,450.312 1198.492,449.661 C1199.65,449.009 1201.276,447.881 1203.365,446.274 C1205.453,444.666 1208.107,442.509 1211.32,439.802 C1213.524,437.948 1216.103,435.738 1219.01,433.222 L1233.876,307.024 L1233.776,307.024 C1218.699,314.086 1176.343,321.546 1126.443,321.546 C1076.55,321.546 1034.191,314.086 1019.112,307.024 L1018.988,307.024 L1030.282,422.857 C1030.882,420.862 1031.547,418.869 1032.286,416.884 C1033.795,412.815 1035.544,408.837 1037.527,404.951 C1039.511,401.066 1041.671,397.392 1044.006,393.934 C1046.34,390.475 1048.826,387.291 1051.46,384.381 C1054.095,381.472 1056.798,378.969 1059.573,376.873 C1062.347,374.779 1065.148,373.14 1067.974,371.959 C1070.802,370.78 1073.603,370.19 1076.377,370.19 C1079.572,370.19 1082.663,371.045 1085.648,372.753 C1088.633,374.462 1091.423,377.23 1094.025,381.055 C1094.621,381.91 1094.999,382.774 1095.155,383.649 C1095.314,384.524 1095.392,385.348 1095.392,386.121 C1095.392,387.952 1094.945,389.398 1094.05,390.455 C1093.155,391.513 1092.092,392.041 1090.863,392.041 C1089.739,392.041 1088.694,391.461 1087.728,390.303 C1086.761,389.144 1085.682,387.486 1084.487,385.327 C1083.364,383.374 1082.126,381.961 1080.774,381.086 C1079.422,380.211 1077.956,379.773 1076.376,379.773 C1073.917,379.773 1071.292,380.77 1068.501,382.764 C1065.708,384.758 1062.943,387.394 1060.205,390.669 C1057.464,393.945 1054.84,397.689 1052.329,401.9 C1049.818,406.111 1047.597,410.425 1045.665,414.84 C1043.733,419.257 1042.197,423.61 1041.057,427.902 C1039.915,432.194 1039.344,436.051 1039.344,439.469 C1039.344,440.609 1039.423,441.78 1039.58,442.977 C1039.739,444.179 1040.036,445.267 1040.476,446.244 C1040.915,447.221 1041.512,448.023 1042.268,448.654 C1043.024,449.287 1043.98,449.599 1045.138,449.599 C1046.438,449.599 1047.912,449.173 1049.563,448.318 C1051.213,447.466 1052.927,446.345 1054.699,444.963 C1056.473,443.578 1058.255,442.012 1060.047,440.261 C1061.839,438.512 1063.507,436.743 1065.051,434.951 C1066.595,433.162 1067.966,431.443 1069.159,429.794 C1070.354,428.146 1071.249,426.712 1071.847,425.49 L1076.745,411.146 C1077.342,409.601 1078.123,408.502 1079.09,407.85 C1080.055,407.2 1081.048,406.874 1082.067,406.874 C1082.557,406.874 1083.048,406.956 1083.541,407.118 C1084.034,407.281 1084.471,407.535 1084.859,407.88 C1085.246,408.226 1085.552,408.674 1085.78,409.223 C1086.008,409.773 1086.121,410.414 1086.121,411.145 C1086.121,413.098 1085.945,414.928 1085.594,416.639 C1085.245,418.349 1084.796,420.016 1084.252,421.644 C1083.706,423.271 1083.101,424.909 1082.434,426.557 C1081.767,428.205 1081.117,429.924 1080.485,431.716 C1080.346,431.92 1080.091,432.56 1079.721,433.636 C1079.353,434.717 1078.907,436.069 1078.379,437.697 C1077.852,439.325 1077.281,441.145 1076.667,443.16 C1076.052,445.175 1075.42,447.229 1074.771,449.325 C1074.119,451.42 1073.497,453.476 1072.901,455.489 C1072.304,457.503 1071.768,459.324 1071.295,460.952 C1070.82,462.578 1070.426,463.942 1070.109,465.041 C1069.793,466.14 1069.6,466.79 1069.53,466.996 C1069.353,467.644 1069.072,468.368 1068.688,469.161 C1068.3,469.953 1067.844,470.709 1067.316,471.42 C1066.79,472.131 1066.211,472.723 1065.578,473.19 C1064.946,473.657 1064.296,473.891 1063.628,473.891 C1062.505,473.891 1061.688,473.525 1061.18,472.794 C1060.67,472.06 1060.417,470.717 1060.417,468.765 C1060.417,468.478 1060.417,468.193 1060.417,467.91 C1060.417,467.626 1060.434,467.319 1060.468,466.996 C1060.502,466.344 1060.766,465.123 1061.259,463.331 C1061.752,461.542 1062.338,459.519 1063.024,457.26 C1063.708,455.001 1064.447,452.661 1065.237,450.239 C1066.026,447.817 1066.737,445.653 1067.37,443.739 C1065.507,445.774 1063.489,447.799 1061.312,449.813 C1059.134,451.826 1056.903,453.638 1054.621,455.245 C1052.339,456.853 1050.038,458.165 1047.721,459.183 C1045.403,460.198 1043.173,460.708 1041.03,460.708 C1038.572,460.708 1036.456,460.179 1034.682,459.12 C1034.361,458.929 1034.061,458.713 1033.76,458.5 L1040.936,532.101 L1045.113,538.638 C1057.374,546.347 1088.664,551.83 1125.426,551.856 C1158.912,551.831 1187.852,547.279 1202.013,540.64 L1207.354,532.101 L1217.659,444.618 C1216.807,445.382 1215.979,446.129 1215.186,446.852 C1212.232,449.545 1209.448,451.854 1206.831,453.787 z" fill-opacity="0" stroke="#000000" stroke-width="1.583"/>
      </g>
      <g>
        <path d="M1126.384,288.321 C1066.974,288.321 1018.814,293.781 1018.814,300.519 C1018.814,307.252 1066.974,317.156 1126.384,317.156 C1185.8,317.156 1233.954,307.252 1233.954,300.519 C1233.954,293.781 1185.8,288.321 1126.384,288.321 z M1145.568,307.566 C1138.689,307.566 1132.57,305.532 1132.57,303.779 C1132.57,303.107 1133.476,302.395 1134.972,301.771 C1135.802,300.276 1140.223,299.133 1145.568,299.133 C1150.829,299.133 1155.201,300.24 1156.128,301.701 C1157.773,302.342 1158.789,303.083 1158.789,303.781 C1158.789,305.532 1152.448,307.566 1145.568,307.566 z" fill="#FFFFFF"/>
        <path d="M1126.384,288.321 C1066.974,288.321 1018.814,293.781 1018.814,300.519 C1018.814,307.252 1066.974,317.156 1126.384,317.156 C1185.8,317.156 1233.954,307.252 1233.954,300.519 C1233.954,293.781 1185.8,288.321 1126.384,288.321 z M1145.568,307.566 C1138.689,307.566 1132.57,305.532 1132.57,303.779 C1132.57,303.107 1133.476,302.395 1134.972,301.771 C1135.802,300.276 1140.223,299.133 1145.568,299.133 C1150.829,299.133 1155.201,300.24 1156.128,301.701 C1157.773,302.342 1158.789,303.083 1158.789,303.781 C1158.789,305.532 1152.448,307.566 1145.568,307.566 z" fill-opacity="0" stroke="#000000" stroke-width="1.583"/>
      </g>
      <g>
        <path d="M1145.568,305.423 C1151.503,305.423 1156.316,304.015 1156.316,302.277 C1156.316,302.08 1156.247,301.887 1156.128,301.7 C1153.644,300.731 1149.709,299.993 1145.568,299.993 C1141.327,299.993 1137.381,300.766 1134.972,301.771 C1134.882,301.936 1134.82,302.104 1134.82,302.278 C1134.82,304.015 1139.631,305.423 1145.568,305.423 z" fill="#FFFFFF"/>
        <path d="M1145.568,305.423 C1151.503,305.423 1156.316,304.015 1156.316,302.277 C1156.316,302.08 1156.247,301.887 1156.128,301.7 C1153.644,300.731 1149.709,299.993 1145.568,299.993 C1141.327,299.993 1137.381,300.766 1134.972,301.771 C1134.882,301.936 1134.82,302.104 1134.82,302.278 C1134.82,304.015 1139.631,305.423 1145.568,305.423 z" fill-opacity="0" stroke="#000000" stroke-width="1.583"/>
      </g>
      <g>
        <path d="M1223.951,190.891 L1209.579,180.325 L1151.726,239.877 L1135.226,302.197 L1156.077,302.197 L1172.211,246.918 z" fill="#FFFFFF"/>
        <path d="M1223.951,190.891 L1209.579,180.325 L1151.726,239.877 L1135.226,302.197 L1156.077,302.197 L1172.211,246.918 z" fill-opacity="0" stroke="#000000" stroke-width="1.583"/>
      </g>
    </g>
    <g id="grunt">
      <path d="M420.304,430.99 C420.304,430.99 414.173,445.953 410.815,453.884 C407.169,462.508 393.27,466.797 393.27,466.797 C393.27,466.797 400.475,459.405 400.475,440.677 C400.475,432.821 410.843,429.697 410.843,429.697 L420.304,430.99 z" fill="#FFFFFF"/>
      <path d="M392.63,586.539 C392.63,586.539 397.111,613.33 415.054,613.33 C430.301,613.33 434.794,590.7 434.794,586.023 L392.63,586.539 z" fill="#FFFFFF"/>
      <path d="M331.578,288.276 L329.502,286.99 C323.383,287.192 331.578,288.276 331.578,288.276 z" fill="#FFFFFF"/>
      <path d="M402.591,420.901 C402.591,420.901 392.908,425.228 382.084,421.704 C367.916,417.081 366.972,402.666 366.972,402.666 C366.972,402.666 358.28,427.619 382.65,432.422 C402.195,436.274 413.755,425.194 413.755,425.194 L402.591,420.901 z" fill="#FFFFFF"/>
      <path d="M409.472,294.347 C408.431,272.947 426.364,255.903 432.577,255.177 C432.921,258.803 432.231,272.948 438.443,277.298 C440.252,265.745 446.367,253.007 470.516,244.662 C465.344,258.081 469.825,269.322 471.959,274.532 C488.45,259.889 499.561,262.309 499.561,262.309 C499.561,262.309 488.103,281.651 492.584,294.342 C459.48,291.803 409.634,297.783 409.472,294.347 z" fill="#FFFFFF"/>
      <path d="M339.292,326.943 C331.393,320.533 337.281,314.583 336.657,307.3 C336.317,303.425 336.004,299.768 334.698,297.751 C327.43,286.523 310.282,283.116 310.111,283.08 L302.063,281.538 L307.39,275.442 C308.081,274.652 329.959,254.232 363.814,264.924 C387.497,272.396 405.029,297.734 405.682,298.758 L393.807,304.22 C393.667,304.005 379.807,280.188 359.49,273.779 C343.065,268.595 327.928,273.527 321.444,276.76 C328.337,279.452 337.349,284.354 342.779,292.741 C345.34,296.702 345.772,301.689 346.19,306.518 C346.74,312.911 347.255,318.946 352.065,322.855 L339.292,326.943 z" fill="#FFFFFF"/>
      <path d="M406.776,423.008 C406.994,423.407 407.105,423.63 407.105,423.63 C407.105,423.63 390.821,435.585 374.133,423.453 C365.2,416.953 366.044,400.875 368.781,394.057 C375.897,395.634 381.934,398.479 386.979,401.8 C380.603,396.233 375.021,392.134 375.036,392.04 L367.789,390.033 L353.704,385.308 C353.523,386.359 348.385,409.918 363.215,425.97 C369.788,433.088 400.604,449.027 415.234,421.772 L406.776,423.008 z" fill="#FFFFFF"/>
      <path d="M405.25,424.76 C414.419,438.411 437.551,430.61 437.153,416.179 C437.153,416.179 421.696,424.523 408.04,409.159 C400.067,400.189 374.52,375.456 339.875,383.675 C363.801,388.822 395.474,410.206 405.25,424.76 z" fill="#FFFFFF"/>
      <path d="M336.638,463.286 C338.844,464.533 346.622,472.413 346.627,484.199 C346.627,490.109 346.026,519.8 343.035,537.939 C347.533,540.798 350.666,541.406 355.145,544.32 C357.387,523.313 358.995,492.865 358.245,480.574 C357.388,466.563 349.72,457.16 342.608,453.15 C340.381,451.897 338.054,450.665 335.711,449.426 C323.53,442.987 310.934,436.327 310.934,424.954 C310.934,416.057 314.469,413.274 318.213,410.325 L318.616,410.005 C321.1,408.042 323.911,405.816 325.576,402.16 C330.12,392.165 330.863,366.705 325.576,360.242 C322.941,357.021 315.879,346.191 317.909,338.914 C318.683,336.136 320.471,334.078 323.382,332.619 C326.462,331.076 330.624,330.293 335.747,330.293 C345.81,330.293 356.971,333.29 362.729,335.073 C383.305,341.453 408.133,359.847 415.25,365.333 C415.454,365.486 415.574,365.576 415.595,365.59 L420.149,368.688 L417.301,364.026 C417.126,363.736 399.087,334.72 366.834,324.082 C360.56,322.012 348.232,318.539 336.118,318.539 C328.905,318.539 322.784,319.771 317.938,322.199 C312.032,325.154 308.032,329.871 306.37,335.832 C302.297,350.447 315.562,366.718 316.015,367.238 C317.561,369.939 318.216,389.557 314.644,397.409 C314.152,398.493 312.805,399.559 311.1,400.905 C310.566,401.328 309.968,401.766 309.335,402.236 C304.295,405.958 296.673,411.581 296.673,424.543 C296.673,442.279 315.047,451.895 329.813,459.627 C332.236,460.902 334.548,462.108 336.638,463.286 z" fill="#FFFFFF"/>
      <path d="M418.009,425.563 L405.249,424.76 C405.249,424.76 408.511,430.385 410.624,437.659 C413.01,445.888 408.442,457.913 408.442,457.913 C408.442,457.913 425.455,439.07 418.009,425.563 z" fill="#FFFFFF"/>
      <path d="M402.081,639.862 C356.667,636.448 340.69,594.468 340.69,585.725 L352.55,585.73 L346.62,585.725 L352.55,585.725 C352.608,589.504 364.678,625.414 402.99,628.296 L402.081,639.862 z" fill="#FFFFFF"/>
      <path d="M375.589,586.88 C375.196,585.752 374.899,584.602 374.607,583.445 C374.292,582.181 372.726,578.6 374.657,582.688 C374.161,581.641 373.836,580.562 373.597,579.475 C342.916,579.437 316.225,558.83 321.382,515.507 C317.365,510.291 311.741,526.026 311.741,526.026 C311.741,526.026 296.382,569.654 336.05,586.563 C349.267,592.203 360.948,596.244 363.704,594.613 C369.445,595.754 374.627,591.839 376.57,589.264 C376.206,588.473 375.874,587.681 375.589,586.88 z" fill="#FFFFFF"/>
      <path d="M388.766,558.368 C388.814,554.711 389.577,551.169 391.384,547.64 C391.511,547.397 391.657,547.164 391.793,546.928 C379.987,546.828 366.39,545.723 354.812,541.189 C342.086,536.209 326.166,519.173 323.431,499.156 C323.431,499.156 299.464,517.248 306.507,555.973 C313.117,592.336 344.222,604.191 379.697,606.197 C379.716,605.961 375.707,597.86 376.974,592.901 C356.83,594.333 334.305,586.72 323.431,569.216 C313.476,553.196 316.268,525.844 320.359,521.837 C330.34,552.643 366.25,558.905 388.766,558.368 z" fill="#FFFFFF"/>
      <path d="M392.483,536.314 C386.099,554.64 373.06,569.471 373.06,569.471 C373.06,569.471 390.997,568.673 391.987,565.568 C392.72,563.279 408.183,527.868 414.118,486.386 C408.535,495.359 393.03,534.744 392.483,536.314 z" fill="#FFFFFF"/>
      <path d="M573.144,288.276 L575.223,286.99 C581.344,287.192 573.144,288.276 573.144,288.276 z" fill="#FFFFFF"/>
      <path d="M502.128,420.901 C502.128,420.901 511.815,425.228 522.635,421.704 C536.807,417.081 537.751,402.666 537.751,402.666 C537.751,402.666 546.438,427.619 522.069,432.422 C502.527,436.274 490.965,425.194 490.965,425.194 L502.128,420.901 z" fill="#FFFFFF"/>
      <path d="M565.43,326.943 C573.329,320.533 567.446,314.583 568.07,307.3 C568.404,303.425 568.717,299.768 570.024,297.751 C577.294,286.523 594.44,283.116 594.616,283.08 L602.665,281.538 L597.337,275.442 C596.646,274.652 574.769,254.232 540.908,264.924 C517.229,272.396 499.697,297.734 499.046,298.758 L510.916,304.22 C511.06,304.005 524.921,280.188 545.239,273.779 C561.662,268.595 576.799,273.527 583.279,276.76 C576.39,279.452 567.375,284.354 561.945,292.741 C559.383,296.702 558.955,301.689 558.539,306.518 C557.989,312.911 557.468,318.946 552.658,322.855 L565.43,326.943 z" fill="#FFFFFF"/>
      <path d="M497.949,423.008 C497.731,423.407 497.618,423.63 497.618,423.63 C497.618,423.63 513.897,435.585 530.585,423.453 C539.524,416.953 538.68,400.875 535.938,394.057 C528.825,395.634 522.789,398.479 517.742,401.8 C524.119,396.233 529.701,392.134 529.681,392.04 L536.933,390.033 L551.017,385.311 C551.198,386.361 556.334,409.92 541.499,425.973 C534.928,433.09 504.112,449.03 489.485,421.775 L497.949,423.008 z" fill="#FFFFFF"/>
      <path d="M499.469,424.76 C490.301,438.411 467.175,430.61 467.575,416.179 C467.575,416.179 483.026,424.523 496.682,409.159 C504.655,400.189 530.207,375.456 564.851,383.675 C540.927,388.822 509.25,410.206 499.469,424.76 z" fill="#FFFFFF"/>
      <path d="M568.089,463.286 C565.882,464.533 558.1,472.413 558.1,484.199 C558.095,490.109 558.698,519.8 561.692,537.939 C557.193,540.798 554.06,541.406 549.581,544.32 C547.339,523.313 545.726,492.865 546.481,480.574 C547.337,466.563 555.002,457.16 562.113,453.15 C564.34,451.897 566.668,450.665 569.016,449.426 C581.197,442.987 593.793,436.327 593.793,424.954 C593.793,416.057 590.254,413.274 586.511,410.325 L586.112,410.005 C583.628,408.042 580.813,405.816 579.152,402.16 C574.607,392.165 573.861,366.705 579.147,360.242 C581.783,357.021 588.849,346.191 586.819,338.914 C586.041,336.136 584.251,334.078 581.341,332.619 C578.26,331.076 574.104,330.293 568.976,330.293 C558.92,330.293 547.753,333.29 541.999,335.073 C521.423,341.453 496.596,359.847 489.474,365.333 C489.271,365.486 489.153,365.576 489.13,365.59 L484.574,368.688 L487.422,364.026 C487.603,363.736 505.637,334.72 537.889,324.082 C544.165,322.012 556.491,318.539 568.607,318.539 C575.82,318.539 581.934,319.771 586.785,322.199 C592.693,325.154 596.69,329.871 598.354,335.832 C602.427,350.447 589.161,366.718 588.709,367.238 C587.162,369.939 586.508,389.557 590.076,397.409 C590.567,398.493 591.914,399.559 593.624,400.905 C594.158,401.328 594.75,401.766 595.388,402.236 C600.43,405.958 608.048,411.581 608.048,424.543 C608.048,442.279 589.674,451.895 574.913,459.627 C572.488,460.902 570.173,462.108 568.089,463.286 z" fill="#FFFFFF"/>
      <path d="M546.17,324.856 C543.247,320.014 535.774,310.664 518.547,302.448 C499.324,293.281 477.075,288.629 452.409,288.618 L452.409,288.613 C452.409,288.613 452.376,288.613 452.361,288.613 C452.361,288.613 452.328,288.613 452.313,288.613 L452.313,288.616 C427.643,288.628 405.391,293.28 386.172,302.445 C368.946,310.663 361.475,320.012 358.55,324.854 L357.295,326.478 L372.046,329.69 L372.514,329.113 L372.761,328.583 C372.989,327.63 374.966,322.481 391.413,314.635 C408.995,306.246 429.502,301.993 452.359,301.986 C475.218,301.993 495.716,306.246 513.297,314.635 C529.745,322.481 531.728,327.63 531.954,328.583 L532.2,329.113 L532.662,329.69 L547.418,326.478 L546.17,324.856 z" fill="#FFFFFF"/>
      <path d="M481.383,603.319 C475.221,596.875 471.576,589.939 470.695,587.809 C470.191,586.595 469.617,584.282 471.424,582.465 C472.833,581.058 475.274,580.336 478.688,580.336 L483.941,580.336 C489.416,580.336 495.819,580.336 499.626,580.339 L502.819,580.344 C507.304,580.344 509.513,581.599 510.577,582.651 C512.124,584.182 512.366,586.313 511.3,588.98 C508.447,596.105 501.974,601.919 500.061,603.531 C497.554,605.648 493.956,606.903 490.422,606.903 L490.422,606.903 C486.8,606.903 483.59,605.629 481.383,603.319 z" fill="#FFFFFF"/>
      <path d="M486.717,425.563 L499.469,424.76 C499.469,424.76 496.212,430.385 494.099,437.659 C491.713,445.888 496.281,457.913 496.281,457.913 C496.281,457.913 479.267,439.07 486.717,425.563 z" fill="#FFFFFF"/>
      <path d="M452.364,380.999 C444.232,380.999 433.629,380.781 425.673,375.188 C425.673,375.188 436.09,393.051 452.35,393.051 L452.364,390.791 L452.377,393.051 C468.639,393.051 479.054,375.188 479.054,375.188 C471.099,380.781 460.488,380.999 452.364,380.999 z" fill="#FFFFFF"/>
      <path d="M474.754,380.913 C466.597,385.742 459.312,387.416 452.364,387.564 C445.413,387.416 438.131,385.742 429.973,380.913 C429.973,380.913 441.852,395.094 452.303,395.203 L452.303,395.211 C452.322,395.211 452.341,395.206 452.362,395.206 C452.381,395.206 452.4,395.211 452.421,395.211 L452.421,395.203 C462.87,395.094 474.754,380.913 474.754,380.913 z" fill="#FFFFFF"/>
      <path d="M502.643,639.862 L501.734,628.295 C540.037,625.413 552.106,589.503 552.169,585.724 L564.029,585.724 C564.034,594.466 548.051,636.448 502.643,639.862 z" fill="#FFFFFF"/>
      <path d="M529.129,586.88 C529.528,585.752 529.82,584.602 530.112,583.445 C530.431,582.181 531.998,578.6 530.064,582.688 C530.56,581.641 530.885,580.562 531.124,579.475 C561.805,579.437 588.496,558.83 583.334,515.507 C587.35,510.291 592.978,526.026 592.978,526.026 C592.978,526.026 608.339,569.654 568.671,586.563 C555.453,592.203 543.774,596.244 541.017,594.613 C535.271,595.754 530.089,591.839 528.151,589.264 C528.513,588.473 528.852,587.681 529.129,586.88 z" fill="#FFFFFF"/>
      <path d="M515.952,558.368 C515.909,554.711 515.141,551.169 513.339,547.64 C513.211,547.397 513.065,547.164 512.931,546.928 C524.736,546.828 538.334,545.723 549.912,541.189 C562.637,536.209 578.556,519.173 581.293,499.156 C581.293,499.156 605.26,517.248 598.217,555.973 C591.601,592.336 560.5,604.191 525.026,606.197 C525.008,605.961 529.018,597.86 527.749,592.901 C547.888,594.333 570.414,586.72 581.294,569.216 C591.243,553.196 588.452,525.844 584.36,521.837 C574.384,552.643 538.469,558.905 515.952,558.368 z" fill="#FFFFFF"/>
      <g>
        <path d="M530.277,567.489 C526.039,563.007 518.246,557.664 500.28,557.664 C500.28,557.664 466.216,557.645 452.423,557.636 L452.423,557.636 C452.405,557.636 452.381,557.636 452.364,557.636 C452.364,557.636 452.322,557.636 452.306,557.636 L452.306,557.636 C438.514,557.646 404.442,557.664 404.442,557.664 C386.48,557.664 378.688,563.008 374.447,567.489 C368.27,574.012 367.302,583.086 371.575,594.429 C382.93,624.618 398.887,655.29 452.303,655.333 L452.303,655.338 C452.323,655.338 452.341,655.333 452.362,655.333 C452.381,655.333 452.4,655.338 452.421,655.338 L452.421,655.333 C505.832,655.287 521.789,624.618 533.148,594.429 C537.421,583.086 536.45,574.012 530.277,567.489 z M521.961,592.311 C516.551,607.471 502.011,644.166 452.361,644.23 C402.704,644.166 388.169,607.472 382.759,592.311 C379.766,583.9 379.994,577.676 383.46,573.81 C385.827,571.167 391.266,568.012 403.661,568.012 L416.61,568.007 C426.163,567.999 438.157,567.989 452.362,567.984 C466.562,567.989 478.562,567.999 488.113,568.007 L501.057,568.012 C513.455,568.012 518.893,571.165 521.261,573.81 C524.724,577.68 524.955,583.9 521.961,592.311 z" fill="#FFFFFF"/>
      </g>
      <path d="M512.238,536.314 C518.621,554.64 531.659,569.471 531.659,569.471 C531.659,569.471 513.724,568.673 512.733,565.568 C512.005,563.279 496.54,527.868 490.605,486.386 C496.185,495.359 511.69,534.744 512.238,536.314 z" fill="#FFFFFF"/>
    </g>
  </g>
  <g id="Layer_4">
    <path d="M904.134,561.9 L911.741,521.007 C900.964,519.105 878.14,513.082 869.898,508.327 C876.872,501.671 887.333,485.821 893.673,470.922 L911.741,468.386 L911.741,435.101 L837.564,435.101 L837.564,468.386 L843.904,469.02 C842.319,473.141 839.783,477.896 836.93,480.432 C826.469,472.507 812.521,454.755 805.547,445.245 C829.005,432.248 848.025,414.813 848.025,388.82 C848.025,350.78 820.446,338.1 787.162,338.1 C743.099,338.1 723.445,362.192 723.445,391.356 C723.445,406.254 728.517,417.666 736.442,428.127 C705.693,440.173 688.258,460.778 688.258,491.844 C688.258,538.442 724.396,561.266 771.629,561.266 C798.891,561.266 820.446,552.707 835.345,540.027 C854.999,553.341 882.578,559.047 904.134,561.9 z M758.949,463.948 C768.776,476.628 787.479,500.72 800.159,511.497 C793.819,514.667 784.309,517.52 772.58,517.52 C751.658,517.52 739.295,506.742 739.295,489.942 C739.295,479.798 745.635,469.971 758.949,463.948 z M782.09,415.13 C775.75,407.522 770.995,398.012 770.995,390.722 C770.995,381.529 776.701,373.921 788.43,373.921 C799.841,373.921 805.864,378.676 805.864,389.454 C805.864,399.28 796.038,409.107 782.09,415.13 z" fill="#BAE36F"/>
  </g>
</svg>
