<?xml version="1.0" encoding="UTF-8"?>
<!DOCTYPE svg PUBLIC "-//W3C//DTD SVG 1.1//EN" "http://www.w3.org/Graphics/SVG/1.1/DTD/svg11.dtd">
<svg version="1.1" xmlns="http://www.w3.org/2000/svg" xmlns:xlink="http://www.w3.org/1999/xlink" x="0" y="0" width="1600" height="900" viewBox="0, 0, 1600, 900">
  <g id="Background">
    <rect x="0" y="0" width="1600" height="900" fill="#000000"/>
  </g>
  <g id="Layer_2">
    <path d="M0,0 L1600,0 L1600,900 L0,900 L0,0 z" fill="#B43B18" opacity="0.453"/>
  </g>
  <g id="Layer_1_Copy">
    <path d="M799.075,150.457 L510.948,249.652 L556.477,618.94 L799.382,749.543 L1043.537,617.167 L1089.052,247.893 L799.075,150.457 z M799.075,150.457" fill="#B2B2B2"/>
    <path d="M1060.315,269.239 L798.406,181.866 L798.406,718.339 L1017.898,599.506 L1060.315,269.239 z M1060.315,269.239" fill="#B52E31"/>
    <path d="M543.281,270.814 L582.293,601.085 L798.399,718.339 L798.399,181.855 L543.281,270.814 z M543.281,270.814" fill="#E23237"/>
    <path d="M859.113,448.7 L798.88,325.654 L745.856,448.7 L859.113,448.7 z M882.076,500.441 L722.416,500.441 L686.696,587.842 L620.257,589.041 L798.406,201.347 L982.764,589.038 L921.182,589.038 L882.076,500.441 z M882.076,500.441" fill="#F2F2F2"/>
    <path d="M798.406,201.347 L798.88,325.654 L859.05,448.795 L798.538,448.795 L798.402,500.359 L882.072,500.438 L921.179,589.052 L984.754,590.207 L798.406,201.347 z M798.406,201.347" fill="#B2B2B2"/>
  </g>
</svg>
