<?xml version="1.0" encoding="UTF-8"?>
<!DOCTYPE svg PUBLIC "-//W3C//DTD SVG 1.1//EN" "http://www.w3.org/Graphics/SVG/1.1/DTD/svg11.dtd">
<svg version="1.1" xmlns="http://www.w3.org/2000/svg" xmlns:xlink="http://www.w3.org/1999/xlink" x="0" y="0" width="1600" height="900" viewBox="0, 0, 1600, 900">
  <g id="Background">
    <rect x="0" y="0" width="1600" height="900" fill="#350000"/>
  </g>
  <g id="Layer_1">
    <g>
      <path d="M1065.188,651.011 L989.306,711.806 L1096.511,780.281 z" fill="#B43B18"/>
      <path d="M716.705,218.013 L637.954,119.719 L562.073,180.514 L640.489,278.382 z" fill="#B43B18"/>
      <path d="M695.615,598.376 C728.594,621.654 767.57,613.224 807.829,586.731 C766.453,554.399 725.076,522.062 683.701,489.727 C662.479,535.412 661.907,574.586 695.615,598.376 z" fill="#FFFFFF"/>
      <path d="M1085.657,131.972 C1016.003,147.015 763.504,339.78 690.635,477.051 L819.983,576.757 C945.753,469.407 1090.34,196.602 1085.657,131.972 z M956.45,361.449 C954.503,364.075 950.797,364.632 948.168,362.688 L878.089,310.857 C875.46,308.913 874.905,305.206 876.851,302.579 C878.799,299.951 882.499,299.393 885.129,301.339 L955.209,353.17 C957.838,355.114 958.395,358.819 956.45,361.449 z M981.87,331.028 C979.926,333.656 976.223,334.213 973.594,332.269 L903.513,280.44 C900.883,278.495 900.329,274.791 902.274,272.162 C904.218,269.534 907.921,268.979 910.554,270.924 L980.632,322.753 C983.261,324.697 983.815,328.4 981.87,331.028 z" fill="#FFFFFF"/>
      <path d="M652.368,543.466 C553.396,542.219 568.451,633.76 568.451,633.76 C588.932,718.358 503.489,729.416 503.489,729.416 C679.689,850.585 753.117,625.454 753.117,625.454 C649.083,639.763 652.368,543.466 652.368,543.466 z" fill="#FFFFFF"/>
      <path d="M720.483,378.219 L788.232,307.28 L729.604,234.105 L653.387,294.478 z" fill="#B43B18"/>
      <path d="M937.795,493.948 L873.687,569.435 L976.593,697.87 L1052.476,637.076 z" fill="#B43B18"/>
    </g>
  </g>
</svg>
