<?xml version="1.0" encoding="UTF-8"?>
<!DOCTYPE svg PUBLIC "-//W3C//DTD SVG 1.1//EN" "http://www.w3.org/Graphics/SVG/1.1/DTD/svg11.dtd">
<svg version="1.1" xmlns="http://www.w3.org/2000/svg" xmlns:xlink="http://www.w3.org/1999/xlink" x="0" y="0" width="1600" height="900" viewBox="0, 0, 1600, 900">
  <g id="Background">
    <rect x="0" y="0" width="1600" height="900" fill="#681B04"/>
  </g>
  <g id="Layer_1">
    <path d="M942.639,107.345 L900.9,107.345 L944.306,154.446 L944.306,176.866 L854.9,176.866 L854.9,150.617 L898.298,150.617 L854.9,103.514 L854.9,81.062 L942.639,81.062 L942.639,107.345 L942.639,107.345 z M837.178,107.345 L795.439,107.345 L838.843,154.446 L838.843,176.866 L749.437,176.866 L749.437,150.617 L792.84,150.617 L749.437,103.514 L749.437,81.062 L837.178,81.062 L837.178,107.345 L837.178,107.345 z M732.748,108.412 L687.708,108.412 L687.708,149.518 L732.748,149.518 L732.748,176.866 L655.697,176.866 L655.697,81.062 L732.748,81.062 L732.748,108.412 L732.748,108.412 z M732.748,108.412" fill="#FFFFFF" id="Shape"/>
    <path d="M594.322,733.927 L548.554,220.602 L1051.446,220.602 L1005.636,733.844 L799.692,790.938 L594.322,733.927 z M594.322,733.927" fill="#FFFFFF" id="Shape"/>
    <path d="M800.003,747.298 L966.412,701.163 L1005.563,262.575 L800.003,262.575 L800.003,747.298 z M800.003,747.298" fill="#E6D9CD" id="Shape"/>
    <g id="Group">
      <path d="M800.002,448.55 L883.31,448.55 L889.063,384.081 L800.002,384.081 L800.002,321.122 L800.22,321.122 L957.869,321.122 L956.359,338.013 L940.886,511.504 L800.002,511.504 L800.002,448.55 z M800.002,448.55" fill="#681B04" id="Shape"/>
      <path d="M800.379,612.052 L800.103,612.13 L729.987,593.196 L725.504,542.986 L691.435,542.986 L662.308,542.986 L671.126,641.835 L800.088,677.637 L800.379,677.556 L800.379,612.052 z M800.379,612.052" fill="#681B04" id="Shape"/>
      <path d="M877.959,508.84 L870.378,593.154 L800.161,612.106 L800.161,677.607 L929.225,641.835 L930.172,631.201 L941.124,508.84 L877.959,508.84 z M877.959,508.84" fill="#681B04" id="Shape"/>
      <path d="M800.22,321.122 L800.22,360.224 L800.22,383.925 L800.22,384.081 L648.349,384.081 L648.148,384.081 L646.885,369.93 L644.016,338.013 L642.511,321.122 L800.22,321.122 z M800.22,321.122" fill="#681B04" id="Shape"/>
      <path d="M800.002,448.557 L800.002,487.66 L800.002,511.359 L800.002,511.514 L730.975,511.514 L730.773,511.514 L729.512,497.365 L726.641,465.448 L725.137,448.557 L800.002,448.557 z M800.002,448.557" fill="#681B04" id="Shape"/>
    </g>
  </g>
</svg>
