<?xml version="1.0" encoding="UTF-8"?>
<!DOCTYPE svg PUBLIC "-//W3C//DTD SVG 1.1//EN" "http://www.w3.org/Graphics/SVG/1.1/DTD/svg11.dtd">
<svg version="1.1" xmlns="http://www.w3.org/2000/svg" xmlns:xlink="http://www.w3.org/1999/xlink" x="0" y="0" width="1600" height="900" viewBox="0, 0, 1600, 900">
  <g id="Background">
    <rect x="0" y="0" width="1600" height="900" fill="#002400"/>
  </g>
  <g id="Layer_4">
    <g>
      <path d="M546.23,457.901 L546.23,560.303 L546.344,560.303 C546.809,571.656 553.426,585.072 564.823,598.966 L580.258,474.273 L546.23,457.901 z" fill="#92D649"/>
      <path d="M800.026,573.436 C786.497,573.436 774.471,567.813 774.471,567.813 L631.211,498.859 L651.52,662.392 C692.919,682.066 743.476,696.029 798.41,696.029 C936.387,696.029 1048.438,608.979 1050.464,560.31 L1050.615,560.31 L1050.615,459.19 L825.644,567.725 C825.644,567.725 813.568,573.436 800.026,573.436 z" fill="#92D649"/>
      <path d="M574.836,710.382 C574.836,710.382 580.006,735.371 604.265,735.371 C628.525,735.371 633.695,710.382 633.695,710.382 L604.265,486.041 L574.836,710.382 z" fill="#FFFFFF"/>
      <path d="M1192.183,344.598 L825.116,169.568 C811.304,162.983 788.699,162.983 774.886,169.568 L407.813,344.529 C394.007,351.127 394.007,361.901 407.813,368.486 L568.301,444.975 C575.433,448.378 581.893,451.234 586.522,453.095 C590.862,454.838 593.68,456.624 593.68,456.165 C593.68,451.944 595.642,449.227 597.057,448.089 C597.68,447.573 600.542,445.919 604.637,443.686 L628.33,431.377 L757.175,364.429 C756.024,362.008 755.25,359.486 755.25,356.812 C755.25,341.371 775.276,328.861 799.976,328.861 C824.669,328.861 844.702,341.378 844.702,356.812 C844.702,372.254 824.669,384.77 799.976,384.77 C792.384,384.77 785.352,383.468 779.119,381.38 L623.443,462.266 C623.443,462.266 621.191,463.932 621.191,466.486 C621.191,469.14 622.569,470.417 622.569,470.417 C628.336,473.638 634.204,476.443 642.029,480.223 L774.899,543.529 C788.711,550.171 811.297,550.171 825.116,543.529 L1192.177,368.581 C1205.995,361.957 1205.995,351.183 1192.183,344.598 z" fill="#FFFFFF"/>
    </g>
  </g>
</svg>
