<?xml version="1.0" encoding="UTF-8"?>
<!DOCTYPE svg PUBLIC "-//W3C//DTD SVG 1.1//EN" "http://www.w3.org/Graphics/SVG/1.1/DTD/svg11.dtd">
<svg version="1.1" xmlns="http://www.w3.org/2000/svg" xmlns:xlink="http://www.w3.org/1999/xlink" x="0" y="0" width="1600" height="900" viewBox="0, 0, 1600, 900">
  <g id="Background">
    <rect x="0" y="0" width="1600" height="900" fill="#1A1807"/>
  </g>
  <g id="Layer_4">
    <g>
      <path d="M730.919,458.728 L649.003,540.648 C610.099,522.094 562.14,528.815 529.928,561.027 C480.573,610.382 505.086,669.365 505.086,669.365 C507.55,675.272 513.26,676.41 517.78,671.881 L571.053,618.603 C575.582,614.084 582.975,614.084 587.504,618.603 L620.408,651.507 C624.928,656.036 624.928,663.425 620.408,667.945 L567.13,721.222 C562.61,725.747 563.739,731.471 569.642,733.912 C569.642,733.912 628.629,758.425 677.98,709.079 C710.197,676.862 716.922,628.903 698.359,589.998 L778.892,509.461 L733.746,461.883 C732.753,460.868 731.808,459.823 730.919,458.728 z" fill="#95926A"/>
      <path d="M873.092,415.265 L950.996,337.362 C989.891,355.925 1037.845,349.214 1070.057,316.997 C1119.403,267.637 1094.89,208.654 1094.89,208.654 C1092.439,202.747 1086.725,201.609 1082.201,206.138 L1028.932,259.416 C1024.408,263.94 1017,263.94 1012.48,259.416 L979.577,226.512 C975.057,221.992 975.057,214.589 979.577,210.06 L1032.864,156.782 C1037.384,152.263 1036.255,146.548 1030.338,144.089 C1030.338,144.089 971.365,119.58 922.014,168.926 C889.798,201.143 883.091,249.101 901.654,288.011 L822.368,367.293 C823.445,368.186 824.494,369.122 825.505,370.115 L873.092,415.265 z" fill="#95926A"/>
    </g>
    <path d="M802.972,143.994 C802.972,143.994 720.036,120.516 642.852,197.705 C583.878,256.674 568.743,271.813 568.743,271.813 C564.67,275.886 563.838,281.723 566.89,284.78 C569.952,287.837 569.11,293.674 565.037,297.747 L550.222,312.566 C546.149,316.639 540.317,317.476 537.255,314.419 C534.194,311.362 528.362,312.199 524.289,316.272 L502.052,338.509 C497.979,342.582 497.979,349.251 502.052,353.329 L546.521,397.793 C550.594,401.866 557.268,401.866 561.336,397.793 L583.568,375.556 C587.641,371.483 588.478,365.647 585.421,362.59 C582.364,359.532 583.201,353.696 587.274,349.623 L602.094,334.803 C606.171,330.725 612.008,329.893 615.065,332.945 C618.117,336.002 623.954,335.17 628.032,331.092 L642.852,316.272 L748.669,422.094 C746.844,429.074 748.57,436.811 754.012,442.248 L1028.194,731.259 C1036.33,739.405 1049.673,739.41 1057.838,731.259 L1094.89,694.207 C1103.04,686.056 1103.04,672.718 1094.89,664.563 L805.869,390.39 C800.427,384.949 792.695,383.222 785.711,385.052 L679.894,279.23 L694.714,264.41 C698.787,260.333 698.791,253.659 694.714,249.591 C694.714,249.591 683.6,238.477 720.652,201.42 C762.346,159.731 803.442,149.431 803.442,149.431 C808.856,147.451 808.649,145.01 802.972,143.994 z" fill="#D4D3C3"/>
  </g>
</svg>
