<?xml version="1.0" encoding="UTF-8"?>
<!DOCTYPE svg PUBLIC "-//W3C//DTD SVG 1.1//EN" "http://www.w3.org/Graphics/SVG/1.1/DTD/svg11.dtd">
<svg version="1.1" xmlns="http://www.w3.org/2000/svg" xmlns:xlink="http://www.w3.org/1999/xlink" x="0" y="0" width="1600" height="900" viewBox="0, 0, 1600, 900">
  <g id="Background">
    <rect x="0" y="0" width="1600" height="900" fill="#43376E"/>
  </g>
  <defs>
    <linearGradient id="Gradient_1" gradientUnits="userSpaceOnUse" x1="800" y1="0" x2="800" y2="900">
      <stop offset="0" stop-color="#FFFFFF"/>
      <stop offset="1" stop-color="#000000"/>
    </linearGradient>
  </defs>
  <g id="" display="none" opacity="0.181">
    <path d="M-0,0 L1600,0 L1600,900 L-0,900 L-0,0 z" fill="url(#Gradient_1)" opacity="0.996" display="none"/>
  </g>
  <g id="ikony">
    <path d="M993.461,169.261 C1044.456,169.261 1085.795,209.702 1085.795,259.587 L1085.795,640.413 C1085.795,690.299 1044.456,730.739 993.461,730.739 L606.539,730.739 C555.544,730.739 514.205,690.299 514.205,640.413 L514.205,259.587 C514.205,209.702 555.544,169.261 606.539,169.261 L993.461,169.261 z M799.504,276.328 L660.426,276.328 L660.426,624.137 L814.182,624.137 C861.985,624.137 897.597,615.906 921.017,599.443 C944.437,582.981 956.147,557.976 956.148,524.43 C956.147,502.532 950.693,484.051 939.786,468.986 C928.877,453.921 913.477,443.593 893.586,438.002 C909.146,432.256 921.017,423.481 929.198,411.678 C937.379,399.719 941.47,385.276 941.47,368.347 C941.47,336.199 930.241,312.826 907.783,298.226 C885.485,283.628 849.392,276.329 799.504,276.328 z M807.444,472.014 C826.213,472.014 840.249,475.819 849.553,483.429 C858.857,490.884 863.509,502.144 863.509,517.208 C863.509,532.584 858.776,544.077 849.312,551.686 C840.008,559.297 826.052,563.102 807.444,563.101 L753.064,563.101 L753.064,472.014 L807.444,472.014 z M804.316,337.364 C818.914,337.364 829.982,340.548 837.522,346.915 C845.061,353.127 848.831,362.213 848.831,374.171 C848.831,386.285 845.061,395.448 837.522,401.66 C829.982,407.873 818.914,410.979 804.316,410.979 L753.064,410.979 L753.064,337.364 L804.316,337.364 z" fill="#FFFFFF"/>
  </g>
</svg>
