<?xml version="1.0" encoding="UTF-8"?>
<!DOCTYPE svg PUBLIC "-//W3C//DTD SVG 1.1//EN" "http://www.w3.org/Graphics/SVG/1.1/DTD/svg11.dtd">
<svg version="1.1" xmlns="http://www.w3.org/2000/svg" xmlns:xlink="http://www.w3.org/1999/xlink" x="0" y="0" width="1000" height="575" viewBox="0, 0, 1000, 575">
  <g id="Background">
    <rect x="0" y="0" width="1000" height="575" fill="#5FA316"/>
  </g>
  <g id="">
    <path d="M-0,0 L1000,0 L1000,575 L-0,575 L-0,0 z" fill="#000000" opacity="0.691"/>
  </g>
  <g id="Layer_2">
    <g opacity="0.567">
      <path d="M400.841,386.515 L390.016,392.764 L384.848,385.88 C381.332,386.974 377.603,387.487 373.81,387.335 L370.378,395.869 L358.307,392.635 L359.74,383.566 C356.381,381.799 353.408,379.492 350.91,376.786 L342.99,380.163 L336.743,369.339 L343.626,364.171 C342.533,360.654 342.02,356.927 342.171,353.133 L333.913,349.812 L337.148,337.743 L345.94,339.064 C347.706,335.702 350.014,332.732 352.72,330.233 L349.343,322.314 L360.165,316.066 L365.334,322.949 C368.851,321.857 372.579,321.342 376.373,321.494 L379.583,313.509 L391.654,316.743 L390.442,325.262 C393.801,327.028 396.774,329.336 399.271,332.042 L407.191,328.666 L413.439,339.49 L406.555,344.658 C407.65,348.174 408.162,351.902 408.012,355.695 L416.309,358.99 L413.076,371.06 L404.241,369.764 C402.475,373.125 400.167,376.097 397.461,378.595 L400.841,386.515 L400.841,386.515 z M385.739,348.256 C384.168,345.532 381.556,343.408 378.276,342.529 C374.997,341.65 371.672,342.184 368.948,343.757 C366.224,345.329 364.099,347.94 363.222,351.221 C362.341,354.499 362.875,357.824 364.449,360.548 C366.02,363.272 368.632,365.394 371.912,366.274 C375.191,367.152 378.516,366.621 381.24,365.047 C383.964,363.474 386.088,360.861 386.965,357.582 C387.846,354.305 387.314,350.98 385.739,348.256 L385.739,348.256 z" fill="#F4F1C7"/>
      <path d="M219.176,400.869 C230.345,401.081 241.213,399.463 251.456,396.265 L258.121,407.351 L274.398,400.443 L271.023,387.835 C275.611,385.263 279.995,382.346 284.134,379.112 C288.543,375.67 292.67,371.868 296.469,367.746 L308.041,374.155 L318.682,360.035 L309.256,350.6 C313.717,343.089 317.257,334.928 319.701,326.258 C311.036,325.273 302.619,323.045 294.686,319.676 C284.611,353.19 252.166,379.476 211.686,374.506 C169.64,369.343 139.738,331.043 144.901,289.003 C147.487,267.943 158.335,249.947 173.786,237.876 C193.374,222.572 218.217,218.337 240.646,224.227 C241.838,215.618 244.262,207.264 247.836,199.4 C246.647,199.08 245.449,198.779 244.243,198.499 L243.985,184.064 L226.436,181.908 L222.694,195.851 C211.938,195.669 201.466,197.184 191.564,200.172 L184.156,187.849 L167.882,194.759 L171.585,208.602 C166.808,211.244 162.25,214.255 157.957,217.61 C153.934,220.755 150.144,224.196 146.622,227.906 L134.236,221.046 L123.595,235.167 L133.478,245.058 C128.013,254.008 123.864,263.904 121.336,274.51 L107.599,274.754 L105.445,292.306 L118.553,295.822 C118.269,306.841 119.77,317.576 122.815,327.713 L111.388,334.585 L118.296,350.861 L131.073,347.442 C133.764,352.36 136.848,357.047 140.292,361.453 C143.525,365.591 147.073,369.481 150.906,373.089 L144.583,384.506 L158.704,395.146 L167.856,386.003 C177.021,391.582 187.174,395.782 198.062,398.277 L198.29,411.142 L215.84,413.295 L219.176,400.869 L219.176,400.869 z" fill="#F4F1C7"/>
    </g>
    <path d="M341.527,242.641 C342.819,244.25 342.715,246.608 341.221,248.096 C339.725,249.581 337.37,249.674 335.769,248.376 C334.099,249.193 332.224,249.652 330.242,249.652 C323.293,249.652 317.658,244.018 317.658,237.069 C317.658,235.076 318.123,233.19 318.947,231.517 L298.179,210.658 C296.586,209.058 296.594,206.471 298.195,204.879 C299.795,203.288 302.383,203.294 303.974,204.894 L324.74,225.75 C326.403,224.94 328.27,224.487 330.242,224.487 C337.192,224.487 342.825,230.121 342.825,237.069 C342.825,239.071 342.359,240.962 341.527,242.641 L341.527,242.641 z M368.885,198.43 C358.998,188.543 345.334,182.426 330.246,182.426 C315.154,182.426 301.493,188.543 291.605,198.43 C281.717,208.316 275.601,221.98 275.601,237.07 C275.601,252.16 281.717,265.821 291.605,275.709 C301.493,285.597 315.154,291.716 330.246,291.716 C345.334,291.716 358.998,285.597 368.885,275.709 C378.771,265.822 384.89,252.16 384.89,237.07 C384.89,221.98 378.771,208.316 368.885,198.43 L368.885,198.43 z M346.639,151.563 L337.076,151.563 L337.076,158.13 C350.122,159.243 362.266,163.516 372.737,170.184 L382.126,159.516 C383.618,157.822 386.219,157.66 387.91,159.147 L400.216,169.978 C401.907,171.467 402.073,174.072 400.585,175.762 L391.19,186.435 C402.61,200.166 409.478,217.815 409.478,237.069 C409.478,258.95 400.61,278.759 386.271,293.095 C371.935,307.433 352.124,316.301 330.244,316.301 C308.362,316.301 288.553,307.433 274.215,293.095 C259.877,278.759 251.009,258.95 251.009,237.069 C251.009,217.813 257.878,200.165 269.297,186.435 L259.898,175.756 C258.409,174.065 258.574,171.463 260.267,169.974 L272.571,159.143 C274.263,157.654 276.865,157.818 278.354,159.511 L287.747,170.183 C298.221,163.515 310.366,159.24 323.412,158.128 L323.412,151.561 L313.85,151.561 C311.596,151.561 309.751,149.723 309.751,147.464 L309.751,133.803 C309.751,131.548 311.596,129.705 313.85,129.705 L346.638,129.705 C348.893,129.705 350.736,131.551 350.736,133.803 L350.736,147.466 C350.737,149.717 348.896,151.563 346.639,151.563 L346.639,151.563 z" fill="#F4F1C7"/>
  </g>
  <g id="Layer_3" display="none">
    <text transform="matrix(1, 0, 0, 1, 760.11, 287.5)">
      <tspan x="-299.11" y="-51.995" font-family="Foro-ExtraBold" font-size="72" fill="#F4F1C7">Pokročilý</tspan>
      <tspan x="-299.11" y="22.405" font-family="Foro-ExtraBold" font-size="72" fill="#F4F1C7">responzivní</tspan>
      <tspan x="-299.11" y="96.805" font-family="Foro-ExtraBold" font-size="72" fill="#F4F1C7">design</tspan>
    </text>
  </g>
  <g id="text_outlines">
    <path d="M505.8,235.504 L505.8,227.944 L497.808,227.368 L497.808,217.216 L501.552,217.216 C505.512,217.216 509.472,216.928 512.712,215.776 C519.336,213.544 522.504,208.432 522.504,201.664 C522.504,193.744 519.12,189.64 511.92,187.84 C508.896,187.12 502.128,186.832 498.024,186.832 L478.944,186.832 L478.944,194.392 L485.856,195.04 L485.856,227.296 L478.944,227.944 L478.944,235.504 z M497.808,207.928 L497.808,196.192 L501.768,196.192 C504.072,196.192 506.304,196.552 507.528,197.272 C508.896,198.064 509.832,199.72 509.832,201.808 C509.832,204.4 508.752,206.272 506.808,207.208 C505.728,207.712 503.424,207.928 501.624,207.928 z" fill="#F4F1C7"/>
    <path d="M563.688,216.424 C563.688,204.616 558.072,198.064 545.832,198.064 C532.296,198.064 525.744,204.976 525.744,218.08 C525.744,230.104 532.44,236.656 544.104,236.656 C557.064,236.656 563.688,229.528 563.688,216.424 z M551.592,217.72 C551.592,226 548.928,228.232 544.464,228.232 C540.288,228.232 537.552,226.072 537.552,216.928 C537.552,210.448 539.424,206.416 544.896,206.416 C550.584,206.416 551.592,210.664 551.592,217.72 z" fill="#F4F1C7"/>
    <path d="M590.904,235.504 L590.904,228.016 L585.36,227.368 L585.36,224.488 L589.536,221.176 L594.144,228.232 C595.44,230.248 597.312,232.624 599.184,233.92 C601.056,235.216 603.792,235.792 607.104,235.792 C609.48,235.792 611.136,235.432 612.072,235.144 L611.568,226.288 C610.992,226.36 610.488,226.36 610.128,226.36 C609.696,226.36 608.472,226.216 607.536,225.712 C606.312,225.064 604.8,223.696 603.144,221.32 L597.888,213.544 C600.048,211.528 602.352,209.224 604.656,206.92 L609.84,206.416 L609.84,199.288 L589.32,199.288 L589.32,206.632 L592.992,207.064 C590.112,210.304 587.664,212.752 585.36,214.84 L585.36,182.152 C580.392,182.152 572.256,183.664 567.936,184.96 L567.936,192.304 L574.128,192.304 L574.128,227.368 L568.584,228.016 L568.584,235.504 z" fill="#F4F1C7"/>
    <path d="M638.424,235.504 L638.424,228.016 L631.44,227.296 L631.44,209.944 C633.96,208.72 637.2,208.216 639.936,208.216 C641.952,208.216 643.392,208.36 644.04,208.432 L644.04,198.496 C643.392,198.424 642.384,198.352 641.736,198.352 C637.272,198.352 633.384,200.728 631.296,204.328 L631.296,198.208 C625.68,198.28 619.272,199.216 614.016,200.944 L614.016,208.288 L620.208,208.288 L620.208,227.368 L614.304,228.016 L614.304,235.504 z" fill="#F4F1C7"/>
    <path d="M683.784,216.424 C683.784,204.616 678.168,198.064 665.928,198.064 C652.392,198.064 645.84,204.976 645.84,218.08 C645.84,230.104 652.536,236.656 664.2,236.656 C677.16,236.656 683.784,229.528 683.784,216.424 z M671.688,217.72 C671.688,226 669.024,228.232 664.56,228.232 C660.384,228.232 657.648,226.072 657.648,216.928 C657.648,210.448 659.52,206.416 664.992,206.416 C670.68,206.416 671.688,210.664 671.688,217.72 z" fill="#F4F1C7"/>
    <path d="M723.384,231.976 L720.072,224.992 C716.256,226.504 713.736,227.44 709.848,227.44 C705.6,227.44 701.856,224.56 701.856,217.576 C701.856,208.864 705.456,206.416 709.2,206.416 C710.208,206.416 711.36,206.56 712.44,206.776 L713.088,212.608 L721.656,212.608 C721.656,205.552 721.656,201.952 721.224,199.576 C717.84,198.568 713.592,198.064 709.848,198.064 C697.032,198.064 690.12,205.408 690.12,218.296 C690.12,229.528 696.528,236.656 707.04,236.656 C713.16,236.656 718.272,234.928 723.384,231.976 z M713.304,184.24 L708.336,189.856 L703.512,184.24 L695.52,184.24 L703.872,195.184 L712.656,195.184 L721.224,184.24 z" fill="#F4F1C7"/>
    <path d="M743.184,188.56 C743.184,184.024 740.664,182.584 737.28,182.584 C733.968,182.584 731.16,184.24 731.16,188.56 C731.16,192.88 733.968,194.464 737.064,194.464 C740.664,194.464 743.184,192.592 743.184,188.56 z M750.168,235.504 L750.168,228.016 L744.264,227.368 L744.264,198.208 C738.576,198.208 732.24,199.288 726.84,200.872 L726.84,208.288 L733.032,208.288 L733.032,227.368 L727.128,228.016 L727.128,235.504 z" fill="#F4F1C7"/>
    <path d="M776.016,235.504 L776.016,228.016 L770.04,227.368 L770.04,182.152 C764.856,182.152 758.52,183.376 752.616,184.96 L752.616,192.304 L758.808,192.304 L758.808,227.368 L753.264,228.016 L753.264,235.504 z" fill="#F4F1C7"/>
    <path d="M785.088,254.296 C794.376,251.776 802.368,247.528 807.12,234.352 L816.768,207.352 L821.16,206.704 L821.16,199.288 L800.784,199.288 L800.784,206.704 L805.176,207.208 C802.8,214.336 801.288,220.816 799.92,225.64 C798.264,220.96 796.392,214.84 793.44,207.208 L797.976,206.704 L797.976,199.288 L777.168,199.288 L777.168,206.704 L781.56,207.352 L792.36,235.504 L794.232,235.504 C792.504,240.4 787.608,243.424 781.632,245.152 z M801,195.184 L812.88,183.664 L801.504,183.664 L792.864,195.184 z" fill="#F4F1C7"/>
    <path d="M503.352,314.554 L503.352,307.066 L496.368,306.346 L496.368,288.994 C498.888,287.77 502.128,287.266 504.864,287.266 C506.88,287.266 508.32,287.41 508.968,287.482 L508.968,277.546 C508.32,277.474 507.312,277.402 506.664,277.402 C502.2,277.402 498.312,279.778 496.224,283.378 L496.224,277.258 C490.608,277.33 484.2,278.266 478.944,279.994 L478.944,287.338 L485.136,287.338 L485.136,306.418 L479.232,307.066 L479.232,314.554 z" fill="#F4F1C7"/>
    <path d="M545.544,310.882 L541.944,303.826 C538.416,305.77 534.672,306.634 530.496,306.634 C525.816,306.634 523.296,304.258 522.504,300.802 C522.36,300.082 522.36,298.858 522.36,298.57 L544.824,298.57 C544.968,297.346 545.04,295.906 545.04,295.402 C545.04,286.114 542.52,277.114 529.128,277.114 C519.336,277.114 510.768,283.666 510.768,297.058 C510.768,308.146 517.032,315.706 527.688,315.706 C534.384,315.706 539.856,314.194 545.544,310.882 z M534.096,291.01 L522.72,291.01 C523.224,287.626 525.6,285.178 528.912,285.178 C532.584,285.178 534.168,286.978 534.168,289.642 C534.168,290.074 534.168,290.506 534.096,291.01 z" fill="#F4F1C7"/>
    <path d="M550.944,301.378 C550.944,308.362 551.232,311.818 551.808,313.69 C556.056,314.986 561.24,315.706 566.136,315.706 C578.016,315.706 582.48,309.37 582.48,303.538 C582.48,298.426 580.68,294.034 572.76,292.234 L566.784,290.866 C564.768,290.434 564.048,289.282 564.048,287.986 C564.048,286.402 565.272,285.034 568.224,285.034 C569.304,285.034 571.032,285.106 572.832,285.538 L573.696,290.578 L581.544,290.578 C581.544,286.258 581.4,280.426 580.608,278.41 C577.584,277.618 572.76,277.114 568.656,277.114 C557.208,277.114 552.168,282.658 552.168,288.634 C552.168,295.69 555.84,298.642 561.672,300.154 L567.36,301.594 C569.16,302.098 570.096,302.818 570.096,304.546 C570.096,305.914 569.304,307.426 565.992,307.426 C563.976,307.426 561.384,306.994 559.944,306.346 L558.792,301.378 z" fill="#F4F1C7"/>
    <path d="M610.344,332.266 L610.344,324.778 L603.144,324.13 L603.144,314.914 C604.872,315.13 606.6,315.202 608.4,315.202 C619.92,315.202 627.264,308.722 627.264,295.042 C627.264,283.162 622.872,277.186 615.384,277.186 C610.704,277.186 605.664,279.706 603.144,281.794 L602.928,277.114 C597.312,277.33 591.408,278.194 585.72,279.85 L585.72,287.194 L591.984,287.194 L591.984,324.13 L586.08,324.778 L586.08,332.266 z M603.144,305.986 L603.144,287.914 C605.304,287.194 607.176,286.762 609.408,286.762 C612.864,286.762 615.096,289.498 615.096,296.122 C615.096,303.826 612.144,306.49 607.752,306.49 C606.024,306.49 604.584,306.274 603.144,305.986 z" fill="#F4F1C7"/>
    <path d="M671.544,295.474 C671.544,283.666 665.928,277.114 653.688,277.114 C640.152,277.114 633.6,284.026 633.6,297.13 C633.6,309.154 640.296,315.706 651.96,315.706 C664.92,315.706 671.544,308.578 671.544,295.474 z M659.448,296.77 C659.448,305.05 656.784,307.282 652.32,307.282 C648.144,307.282 645.408,305.122 645.408,295.978 C645.408,289.498 647.28,285.466 652.752,285.466 C658.44,285.466 659.448,289.714 659.448,296.77 z" fill="#F4F1C7"/>
    <path d="M699.984,314.554 L699.984,307.066 L694.08,306.418 L694.08,288.13 C696.6,287.194 698.976,286.906 701.136,286.906 C702.648,286.906 703.872,287.338 704.16,288.922 C704.376,290.146 704.376,292.522 704.376,295.978 L704.376,314.554 L721.8,314.554 L721.8,307.066 L715.752,306.418 L715.752,293.602 C715.752,289.57 715.752,286.258 715.464,284.17 C714.888,279.85 712.8,277.33 707.256,277.33 C703.872,277.33 698.04,279.346 694.08,282.226 L693.864,277.258 C688.968,277.258 681.264,278.482 676.656,279.994 L676.656,287.338 L682.848,287.338 L682.848,306.418 L676.944,307.066 L676.944,314.554 z" fill="#F4F1C7"/>
    <path d="M759.312,314.554 C759.672,312.898 760.176,308.362 760.176,298.858 L752.256,298.858 L750.888,306.418 L739.728,306.418 C743.472,302.53 746.64,299.146 758.664,285.682 L758.664,278.338 L726.696,278.338 C726.192,280.066 725.76,284.026 725.76,293.17 L733.392,293.17 L734.832,286.186 L743.4,286.186 C739.368,290.506 736.056,294.538 725.04,307.282 L725.04,314.554 z" fill="#F4F1C7"/>
    <path d="M780.984,267.61 C780.984,263.074 778.464,261.634 775.08,261.634 C771.768,261.634 768.96,263.29 768.96,267.61 C768.96,271.93 771.768,273.514 774.864,273.514 C778.464,273.514 780.984,271.642 780.984,267.61 z M787.968,314.554 L787.968,307.066 L782.064,306.418 L782.064,277.258 C776.376,277.258 770.04,278.338 764.64,279.922 L764.64,287.338 L770.832,287.338 L770.832,306.418 L764.928,307.066 L764.928,314.554 z" fill="#F4F1C7"/>
    <path d="M818.208,314.554 L829.44,286.402 L833.832,285.754 L833.832,278.338 L813.24,278.338 L813.24,285.754 L817.632,286.258 C815.184,293.386 813.384,299.218 811.944,304.042 C810.288,299.002 808.704,293.458 805.896,286.258 L810.432,285.754 L810.432,278.338 L789.336,278.338 L789.336,285.754 L793.728,286.402 L804.96,314.554 z" fill="#F4F1C7"/>
    <path d="M860.184,314.554 L860.184,307.066 L854.28,306.418 L854.28,288.13 C856.8,287.194 859.176,286.906 861.336,286.906 C862.848,286.906 864.072,287.338 864.36,288.922 C864.576,290.146 864.576,292.522 864.576,295.978 L864.576,314.554 L882,314.554 L882,307.066 L875.952,306.418 L875.952,293.602 C875.952,289.57 875.952,286.258 875.664,284.17 C875.088,279.85 873,277.33 867.456,277.33 C864.072,277.33 858.24,279.346 854.28,282.226 L854.064,277.258 C849.168,277.258 841.464,278.482 836.856,279.994 L836.856,287.338 L843.048,287.338 L843.048,306.418 L837.144,307.066 L837.144,314.554 z" fill="#F4F1C7"/>
    <path d="M897.912,274.234 L909.792,262.714 L898.416,262.714 L889.776,274.234 z M908.352,314.554 L908.352,307.066 L902.448,306.418 L902.448,277.258 C896.76,277.258 890.424,278.338 885.024,279.922 L885.024,287.338 L891.216,287.338 L891.216,306.418 L885.312,307.066 L885.312,314.554 z" fill="#F4F1C7"/>
    <path d="M521.136,385.756 L515.376,385.756 L515.376,340.18 C509.544,340.252 503.064,341.476 497.232,343.06 L497.232,350.404 L503.928,350.404 L503.928,357.532 C502.2,356.884 499.32,356.596 497.448,356.596 C488.448,356.596 480.168,361.996 480.168,376.324 C480.168,387.7 486.216,394.324 494.28,394.324 C498.24,394.324 501.624,392.74 504.504,390.076 L505.152,394.252 C510.552,394.252 516.6,393.748 521.136,392.812 z M503.928,383.524 C501.624,384.748 499.608,385.324 498.168,385.324 C494.64,385.324 491.904,383.452 491.904,375.748 C491.904,367.468 495.576,365.956 499.248,365.956 C500.544,365.956 502.2,366.1 503.928,366.46 z" fill="#F4F1C7"/>
    <path d="M559.872,389.932 L556.272,382.876 C552.744,384.82 549,385.684 544.824,385.684 C540.144,385.684 537.624,383.308 536.832,379.852 C536.688,379.132 536.688,377.908 536.688,377.62 L559.152,377.62 C559.296,376.396 559.368,374.956 559.368,374.452 C559.368,365.164 556.848,356.164 543.456,356.164 C533.664,356.164 525.096,362.716 525.096,376.108 C525.096,387.196 531.36,394.756 542.016,394.756 C548.712,394.756 554.184,393.244 559.872,389.932 z M548.424,370.06 L537.048,370.06 C537.552,366.676 539.928,364.228 543.24,364.228 C546.912,364.228 548.496,366.028 548.496,368.692 C548.496,369.124 548.496,369.556 548.424,370.06 z" fill="#F4F1C7"/>
    <path d="M565.272,380.428 C565.272,387.412 565.56,390.868 566.136,392.74 C570.384,394.036 575.568,394.756 580.464,394.756 C592.344,394.756 596.808,388.42 596.808,382.588 C596.808,377.476 595.008,373.084 587.088,371.284 L581.112,369.916 C579.096,369.484 578.376,368.332 578.376,367.036 C578.376,365.452 579.6,364.084 582.552,364.084 C583.632,364.084 585.36,364.156 587.16,364.588 L588.024,369.628 L595.872,369.628 C595.872,365.308 595.728,359.476 594.936,357.46 C591.912,356.668 587.088,356.164 582.984,356.164 C571.536,356.164 566.496,361.708 566.496,367.684 C566.496,374.74 570.168,377.692 576,379.204 L581.688,380.644 C583.488,381.148 584.424,381.868 584.424,383.596 C584.424,384.964 583.632,386.476 580.32,386.476 C578.304,386.476 575.712,386.044 574.272,385.396 L573.12,380.428 z" fill="#F4F1C7"/>
    <path d="M618.336,346.66 C618.336,342.124 615.816,340.684 612.432,340.684 C609.12,340.684 606.312,342.34 606.312,346.66 C606.312,350.98 609.12,352.564 612.216,352.564 C615.816,352.564 618.336,350.692 618.336,346.66 z M625.32,393.604 L625.32,386.116 L619.416,385.468 L619.416,356.308 C613.728,356.308 607.392,357.388 601.992,358.972 L601.992,366.388 L608.184,366.388 L608.184,385.468 L602.28,386.116 L602.28,393.604 z" fill="#F4F1C7"/>
    <path d="M640.296,382.084 C641.736,382.516 643.536,382.732 645.336,382.732 C654.192,382.732 661.032,378.412 661.032,369.916 C661.032,368.836 660.888,367.18 660.384,366.028 L665.64,366.028 L665.64,357.892 L654.552,357.892 C652.464,356.812 649.512,356.164 645.624,356.164 C634.032,356.164 629.424,362.788 629.424,369.844 C629.424,374.164 631.296,378.268 634.68,380.068 C631.368,383.668 630.144,385.972 630.144,388.276 C630.144,391.156 631.728,393.244 634.752,394.18 C629.856,396.34 627.624,399.22 627.624,402.46 C627.624,407.068 631.008,412.324 644.112,412.324 C657.792,412.324 664.92,406.06 664.92,397.996 C664.92,391.876 662.04,388.06 653.76,387.124 L641.736,385.756 C639.936,385.54 639.432,384.748 639.432,383.956 C639.432,383.452 639.648,382.732 640.296,382.084 z M640.656,395.692 L646.776,396.052 C651.456,396.34 652.608,397.924 652.608,400.228 C652.608,402.1 650.376,404.188 646.056,404.188 C640.08,404.188 638.352,402.244 638.352,400.3 C638.352,398.788 639.072,397.276 640.656,395.692 z M650.448,369.628 C650.448,373.228 648.648,375.1 645.408,375.1 C642.384,375.1 640.728,373.372 640.728,369.7 C640.728,366.82 641.952,364.084 645.552,364.084 C649.296,364.084 650.448,366.676 650.448,369.628 z" fill="#F4F1C7"/>
    <path d="M692.712,393.604 L692.712,386.116 L686.808,385.468 L686.808,367.18 C689.328,366.244 691.704,365.956 693.864,365.956 C695.376,365.956 696.6,366.388 696.888,367.972 C697.104,369.196 697.104,371.572 697.104,375.028 L697.104,393.604 L714.528,393.604 L714.528,386.116 L708.48,385.468 L708.48,372.652 C708.48,368.62 708.48,365.308 708.192,363.22 C707.616,358.9 705.528,356.38 699.984,356.38 C696.6,356.38 690.768,358.396 686.808,361.276 L686.592,356.308 C681.696,356.308 673.992,357.532 669.384,359.044 L669.384,366.388 L675.576,366.388 L675.576,385.468 L669.672,386.116 L669.672,393.604 z" fill="#F4F1C7"/>
  </g>
</svg>
