<?xml version="1.0" encoding="UTF-8" standalone="no"?>
<svg
   xmlns:dc="http://purl.org/dc/elements/1.1/"
   xmlns:cc="http://creativecommons.org/ns#"
   xmlns:rdf="http://www.w3.org/1999/02/22-rdf-syntax-ns#"
   xmlns:svg="http://www.w3.org/2000/svg"
   xmlns="http://www.w3.org/2000/svg"
   xmlns:sodipodi="http://sodipodi.sourceforge.net/DTD/sodipodi-0.dtd"
   xmlns:inkscape="http://www.inkscape.org/namespaces/inkscape"
   viewBox="0 0 1350 500"
   width="1350"
   height="500"
   id="svg2"
   version="1.1"
   inkscape:version="0.48.5 r10040"
   sodipodi:docname="arc-content.svg">
  <metadata
     id="metadata12">
    <rdf:RDF>
      <cc:Work
         rdf:about="">
        <dc:format>image/svg+xml</dc:format>
        <dc:type
           rdf:resource="http://purl.org/dc/dcmitype/StillImage" />
      </cc:Work>
    </rdf:RDF>
  </metadata>
  <defs
     id="defs10" />
  <sodipodi:namedview
     pagecolor="#ffffff"
     bordercolor="#666666"
     borderopacity="1"
     objecttolerance="10"
     gridtolerance="10"
     guidetolerance="10"
     inkscape:pageopacity="0"
     inkscape:pageshadow="2"
     inkscape:window-width="1920"
     inkscape:window-height="1178"
     id="namedview8"
     showgrid="false"
     inkscape:zoom="0.91439948"
     inkscape:cx="549.92811"
     inkscape:cy="160.38693"
     inkscape:window-x="0"
     inkscape:window-y="0"
     inkscape:window-maximized="1"
     inkscape:current-layer="svg2"
     fit-margin-top="0"
     fit-margin-left="0"
     fit-margin-right="0"
     fit-margin-bottom="0" />
  <path
     d="m 674.996,479.505 c -370.62,0 -671.5,7.869 -671.5,18.995 l -3.496,0 0,1.5 1350,0 0,-1.5 -3.496,0 c 0,-10.587 -300.88,-19.005 -671.51,-19.005"
     id="path4"
     style="fill:#ffffff;fill-rule:evenodd"
     inkscape:connector-curvature="0"
     sodipodi:nodetypes="cccccccc" />
  <path
     d="m 674.9965,479 c -185.31014,0 -352.87026,2.16568 -474.27035,5.68215 -60.69705,1.75673 -109.860085,3.84642 -143.93011,6.18407 -17.040013,1.16782 -30.290023,2.39564 -39.350029,3.67245 -4.532004,0.6399 -8.0100062,1.27681 -10.400008,1.94771 -1.1970009,0.33495 -2.1280016,0.6699 -2.8000021,1.03584 C 3.5720004,497.88817 3.0740001,498.37409 3,498.998 h 0.9960007 c 0.007,-0.055 0.1580002,-0.29296 0.7170006,-0.59691 0.5600004,-0.30396 1.4580011,-0.61791 2.6150019,-0.94186 2.3160017,-0.6469 5.7660048,-1.27781 10.2740078,-1.91371 9.010007,-1.27181 22.268016,-2.50563 39.290029,-3.67245 34.050025,-2.33465 83.18006,-4.42634 143.87011,-6.18407 121.38009,-3.51548 288.93021,-5.68215 474.23035,-5.68215 185.31014,0 352.8703,2.16267 474.2704,5.68215 60.696,1.75973 109.86,3.85742 143.9001,6.18407 17.02,1.16383 30.25,2.37764 39.26,3.64145 4.504,0.63191 7.963,1.30281 10.274,1.94671 1.156,0.32195 2.03,0.6399 2.583,0.94186 0.557,0.29995 0.72,0.54792 0.726,0.59691 H 1347 c -0.07,-0.62291 -0.583,-1.11183 -1.253,-1.47478 -0.67,-0.36294 -1.606,-0.70289 -2.802,-1.03584 -2.39,-0.6659 -5.84,-1.31281 -10.367,-1.94771 -9.05,-1.26981 -22.32,-2.50963 -39.35,-3.67245 -34.0701,-2.32965 -83.2301,-4.42534 -143.9301,-6.18507 C 1027.8868,481.16368 860.31664,479 674.9965,479"
     id="path6"
     style="color:#000000;fill:#f6f9fa;fill-opacity:1"
     inkscape:connector-curvature="0" />
</svg>
