<svg xmlns="http://www.w3.org/2000/svg" width="200" height="200" viewBox="0 0 200 200"><path fill="none" d="M0 0h200v200H0z"/><path d="M68.713 90.53l-.424 2.455a10.898 10.898 0 00-2.485-.898c-.868-.2-1.757-.3-2.66-.3-2.506 0-4.512.759-6.02 2.276-1.507 1.513-2.26 3.519-2.26 6.02 0 2.455.753 4.417 2.26 5.883 1.508 1.468 3.524 2.202 6.049 2.202.574 0 1.133-.051 1.683-.145a8.794 8.794 0 001.607-.454v-6.319H62.12v-2.266h5.099l.001.001h.608c.796 0 1.454.658 1.454 1.455v8.956c-.963.359-1.976.633-3.034.813-1.058.18-2.166.269-3.324.269-3.414 0-6.114-.938-8.11-2.814-1.992-1.877-2.99-4.422-2.99-7.642 0-3.199 1.008-5.749 3.02-7.651 2.011-1.901 4.726-2.849 8.135-2.849.968 0 1.927.084 2.885.249a16.91 16.91 0 012.849.759zm-18.602-.918v2.266h-7.836v6.652h7.516v2.341h-7.516v9.518h-2.91V91.071c0-.796.663-1.459 1.46-1.459h9.286zM34.679 75.443h28.657l-30.09 3.007a4.704 4.704 0 00-3.478 2.127v-.222a4.925 4.925 0 014.911-4.912zm.223 49.114h-.223a4.925 4.925 0 01-4.911-4.911V90.99l3.006 30.089a4.705 4.705 0 002.128 3.478zm43.978-5.137v.226a4.926 4.926 0 01-4.911 4.911H45.312l30.09-3.007a4.704 4.704 0 003.478-2.13zm-5.136-43.977h.225a4.926 4.926 0 014.911 4.912v28.658l-3.007-30.091a4.703 4.703 0 00-2.129-3.479" fill="#DC3E3D"/><path d="M112.805 97.483c-1.189 0-2.156.468-2.895 1.404-.739.935-1.109 2.169-1.109 3.696 0 1.515.37 2.74 1.109 3.675.739.935 1.706 1.403 2.895 1.403 1.207 0 2.178-.463 2.909-1.385.73-.922 1.096-2.151 1.096-3.693 0-1.545-.366-2.783-1.096-3.71-.731-.926-1.702-1.39-2.909-1.39zm-.026-1.906c2.062 0 3.687.628 4.872 1.884 1.189 1.261 1.782 2.975 1.782 5.149 0 2.156-.597 3.871-1.795 5.136-1.194 1.265-2.815 1.897-4.859 1.897-2.045 0-3.662-.632-4.847-1.893-1.189-1.26-1.781-2.975-1.781-5.14 0-2.174.592-3.888 1.781-5.149 1.185-1.256 2.802-1.884 4.847-1.884m16.481.17l-.081 2.378a3.266 3.266 0 00-1.042-.156c-1.136 0-2.018.401-2.632 1.198-.619.802-.927 1.942-.927 3.421v6.73h-2.48V95.902h2.244v2.758c.374-.976.896-1.72 1.559-2.232.664-.512 1.439-.77 2.316-.77.148 0 .308.008.481.026.174.018.361.036.562.063m8.891 0l-.08 2.378a3.288 3.288 0 00-1.042-.156c-1.136 0-2.018.401-2.633 1.198-.619.802-.926 1.942-.926 3.421v6.73h-2.481V95.902h2.245v2.758c.374-.976.895-1.72 1.559-2.232.663-.512 1.438-.77 2.316-.77.147 0 .307.008.481.026s.361.036.561.063m12.615 6.436v1.015h-9.5c.097 1.434.556 2.548 1.376 3.345.824.797 1.937 1.194 3.336 1.194a7.16 7.16 0 001.839-.241 9.013 9.013 0 001.88-.752v2.142a8.84 8.84 0 01-1.938.566c-.699.129-1.474.191-2.316.191-2.035 0-3.643-.641-4.815-1.924-1.176-1.283-1.763-3.029-1.763-5.238 0-2.071.574-3.741 1.728-5.006 1.153-1.265 2.659-1.898 4.521-1.898 1.759 0 3.14.588 4.147 1.764 1.002 1.171 1.505 2.788 1.505 4.842zm-2.334-.642c-.089-1.341-.432-2.369-1.029-3.086-.601-.717-1.407-1.078-2.419-1.078-.997 0-1.826.374-2.476 1.118-.655.743-1.047 1.759-1.176 3.046zm11.889-5.287l-.103 2.027a8.17 8.17 0 00-1.665-.575 7.81 7.81 0 00-1.729-.196c-.677 0-1.224.138-1.63.419-.41.276-.614.646-.614 1.109 0 .41.169.775.503 1.096.334.32 1.033.73 2.093 1.224 1.408.655 2.379 1.288 2.909 1.907.53.614.797 1.358.797 2.231 0 1.216-.49 2.183-1.47 2.9-.975.717-2.303 1.078-3.973 1.078-.61 0-1.211-.058-1.808-.169a9.87 9.87 0 01-1.728-.495l.08-2.089a8.975 8.975 0 001.817.686 7.194 7.194 0 001.742.227c.819 0 1.47-.178 1.951-.53a1.67 1.67 0 00.726-1.425c0-.446-.143-.828-.432-1.149-.286-.321-.954-.74-2.009-1.252-1.408-.69-2.374-1.327-2.896-1.92a3.059 3.059 0 01-.783-2.088c0-1.051.445-1.902 1.331-2.553.887-.645 2.072-.97 3.55-.97.539 0 1.092.04 1.653.124.561.08 1.122.209 1.688.383m6.571-4.498v4.146h3.211v1.893h-3.211v6.958c0 1.042.151 1.781.459 2.222.302.441.801.659 1.496.659.174 0 .374-.022.601-.071.228-.049.481-.125.757-.227l.027 1.955a7.026 7.026 0 01-.997.196 7.74 7.74 0 01-1.025.067c-1.358 0-2.329-.352-2.917-1.051-.588-.699-.882-1.871-.882-3.519v-7.189h-2.699v-1.893h2.779v-3.313zm-62.049-.98v2.022h-6.992v5.937h6.707v2.089h-6.707v8.494h-2.597l-.002-17.24a1.31 1.31 0 011.298-1.304l8.293.002" fill="#9E9F9E"/></svg>