<svg xmlns="http://www.w3.org/2000/svg" viewBox="0 0 500 500"><path d="M373.7 57.117c63.874 0 86.589 21.938 86.589 92.024 0 74.747 6.019 94.938 30.287 96.491h1.941v7.183h-1.941c-24.268 1.941-30.287 22.326-30.287 96.684 0 73.193-22.715 93.384-86.589 93.384v-7.571c23.88-.389 29.51-7.571 29.51-85.813 0-71.251 37.665-91.442 78.241-100.179-23.549-5.078-43.497-13.558-59.15-32.111-2.193-2.599-6.065-8.711-7.168-11.046-9.608-20.356-11.191-34.93-11.923-57.022 0-75.327-5.63-83.676-29.51-84.453zm-247.4 0v7.571c-23.88.777-29.51 9.126-29.51 84.453 0 71.446-37.664 91.442-78.241 100.179 23.874 5.009 47.73 15.182 61.923 35.967 12.898 18.891 15.944 41.872 16.318 64.212 0 78.242 5.63 85.424 29.51 85.813v7.571c-63.874 0-86.589-20.191-86.589-93.384 0-74.358-6.019-94.743-30.287-96.684H7.483v-7.183h1.941c24.268-1.553 30.287-21.744 30.287-96.491 0-70.086 22.715-92.024 86.589-92.024zm235.893 53.672c-1.941 24.074-2.719 48.536-2.719 60.379 0 11.843.389 22.91 1.166 30.286h-9.125c-10.484-61.738-31.257-81.541-68.339-81.541h-13.202c-23.104 0-27.374 3.495-27.374 28.346l-.001 100.179h13.979c31.839 0 43.1-31.063 47.177-52.614h9.319c-1.165 17.473-1.553 29.316-1.553 38.635 0 6.795.195 12.426.195 17.862 0 13.201.387 26.21 2.523 56.496h-9.125c-4.27-27.762-16.697-52.419-48.536-52.419h-13.979v91.442c.001 31.064 7.184 35.335 42.519 35.722v8.737c-16.309-.582-44.072-1.164-72.417-1.164-22.909 0-45.818.582-63.097 1.164v-7.959c25.238-1.165 29.704-5.243 29.704-34.17V152.918c0-28.927-4.659-33.005-29.704-34.169v-7.96c43.294 1.165 102.897 1.165 129.494 1.165 24.269 0 58.632 0 83.095-1.165z" fill="#FFF"/></svg>