<svg xmlns="http://www.w3.org/2000/svg" width="200" height="200" viewBox="0 0 200 200"><path fill="none" d="M0 0h200v200H0z"/><path d="M30.229 106.73c-1.238 1.65-2.991 2.269-4.538 2.269-5.156 0-8.148-3.816-8.148-8.663 0-4.951 2.992-8.767 8.148-8.767 3.403 0 6.601 2.063 7.014 5.879h-3.507c-.413-1.754-1.753-2.785-3.506-2.785-3.3 0-4.538 2.888-4.538 5.776 0 2.784 1.238 5.569 4.538 5.569 2.372 0 3.713-1.238 3.919-3.609h-3.61v-2.785h7.013v8.973h-2.372l-.413-1.857zm4.539-14.748h3.609v13.511h8.148v3.094H34.768V91.982zm13.407 10.21L42.09 92.085h4.125l3.92 6.6 3.816-6.6h4.022l-6.188 10.211v6.394h-3.61v-6.498zm10.107-10.21h7.528c4.126 0 5.776 2.578 5.776 5.363 0 2.785-1.65 5.363-5.776 5.363h-3.919v5.982h-3.609V91.982zm3.61 7.838h2.888c1.65 0 3.197-.413 3.197-2.476 0-2.166-1.547-2.475-3.197-2.475h-2.888v4.951zm10.726-7.838h3.713v6.394h6.703v-6.394h3.61v16.604h-3.61v-7.116h-6.703v7.116h-3.61V91.982h-.103zm16.089 0h3.609v16.604h-3.609V91.982zm16.811 5.672c-.206-1.651-1.856-2.992-3.61-2.992-3.3 0-4.538 2.785-4.538 5.673 0 2.784 1.238 5.569 4.538 5.569 2.27 0 3.507-1.547 3.817-3.713h3.506c-.413 4.125-3.197 6.807-7.323 6.807-5.156 0-8.147-3.816-8.147-8.664 0-4.95 2.991-8.766 8.147-8.766 3.61 0 6.704 2.166 7.22 5.981h-3.609v.105zm22.689-5.569h3.609l6.91 11.139V92.085h3.403v16.604h-3.609l-6.91-11.138v11.138h-3.403V92.085zm18.564 11.035c0 2.166 1.753 3.094 3.713 3.094 1.238 0 3.198-.413 3.198-2.063 0-1.753-2.476-2.063-4.951-2.784-2.475-.619-4.95-1.65-4.95-4.745 0-3.403 3.197-5.053 6.188-5.053 3.506 0 6.704 1.547 6.704 5.363h-3.507c-.103-1.959-1.547-2.475-3.3-2.475-1.134 0-2.475.516-2.475 1.856 0 1.238.825 1.444 4.95 2.475 1.238.31 4.951 1.032 4.951 4.848 0 3.094-2.373 5.363-6.91 5.363-3.713 0-7.116-1.856-7.116-5.878-.001-.001 3.505-.001 3.505-.001zm11.861 5.775v-1.34h1.031v1.341h-1.031zm7.116-4.537c-.206-.928-.825-1.547-1.856-1.547-1.548 0-2.27 1.444-2.27 2.784 0 1.34.722 2.784 2.27 2.784a1.848 1.848 0 001.856-1.856h.825c-.206 1.547-1.238 2.579-2.681 2.579-1.96 0-3.095-1.548-3.095-3.507s1.135-3.506 3.095-3.506c1.444 0 2.475.722 2.681 2.269h-.825zm7.219 1.237c0 1.856-1.134 3.507-3.094 3.507-1.959 0-3.094-1.548-3.094-3.507s1.134-3.506 3.094-3.506c1.96.103 3.094 1.65 3.094 3.506zm-5.465 0c0 1.444.722 2.784 2.269 2.784 1.547 0 2.269-1.444 2.269-2.784 0-1.34-.722-2.784-2.269-2.784-1.444 0-2.269 1.444-2.269 2.784zm5.981-3.197h.722v1.134c.413-.825 1.134-1.341 2.166-1.341.825 0 1.65.413 1.856 1.238.413-.825 1.238-1.238 2.063-1.238 1.444 0 2.167.722 2.167 2.269v4.435h-.826v-4.435c0-1.031-.412-1.65-1.547-1.65-1.341 0-1.753 1.134-1.753 2.372v3.713h-.825v-4.434c0-.928-.309-1.65-1.341-1.65-1.341 0-1.959 1.031-1.959 2.372v3.609h-.825v-6.394h.102zm-46.433-9.346c0-.613-.502-1.114-1.114-1.114h-14.451c-.613 0-1.115.501-1.115 1.114v14.45a1.12 1.12 0 001.115 1.116h14.451a1.12 1.12 0 001.114-1.116v-14.45z" fill="#F9F9F9"/><path d="M30.229 106.061c-1.238 1.65-2.991 2.269-4.538 2.269-5.156 0-8.148-3.816-8.148-8.664 0-4.95 2.992-8.766 8.148-8.766 3.403 0 6.601 2.063 7.014 5.878h-3.507c-.413-1.753-1.753-2.784-3.506-2.784-3.3 0-4.538 2.888-4.538 5.775 0 2.785 1.238 5.57 4.538 5.57 2.372 0 3.713-1.238 3.919-3.61h-3.61v-2.784h7.013v8.973h-2.372l-.413-1.857zm4.539-14.748h3.609v13.511h8.148v3.094H34.768V91.313zm13.407 10.21L42.09 91.416h4.125l3.92 6.6 3.816-6.6h4.022l-6.188 10.21v6.395h-3.61v-6.498zm10.107-10.21h7.528c4.126 0 5.776 2.578 5.776 5.363 0 2.785-1.65 5.363-5.776 5.363h-3.919v5.982h-3.609V91.313zm3.61 7.838h2.888c1.65 0 3.197-.413 3.197-2.476 0-2.166-1.547-2.475-3.197-2.475h-2.888v4.951zm10.726-7.838h3.713v6.394h6.703v-6.394h3.61v16.604h-3.61v-7.116h-6.703v7.116h-3.61V91.313h-.103zm16.089 0h3.609v16.604h-3.609V91.313zm16.811 5.671c-.206-1.65-1.856-2.991-3.61-2.991-3.3 0-4.538 2.785-4.538 5.673 0 2.784 1.238 5.569 4.538 5.569 2.27 0 3.507-1.547 3.817-3.713h3.506c-.413 4.125-3.197 6.807-7.323 6.807-5.156 0-8.147-3.817-8.147-8.664 0-4.95 2.991-8.767 8.147-8.767 3.61 0 6.704 2.167 7.22 5.982h-3.609v.104zm22.689-5.568h3.609l6.91 11.138V91.416h3.403v16.604h-3.609l-6.909-11.139v11.139h-3.403V91.416zm18.564 11.035c0 2.166 1.753 3.094 3.713 3.094 1.238 0 3.198-.413 3.198-2.063 0-1.753-2.476-2.063-4.951-2.784-2.475-.619-4.95-1.651-4.95-4.745 0-3.403 3.197-5.053 6.188-5.053 3.506 0 6.704 1.547 6.704 5.363h-3.507c-.103-1.959-1.547-2.475-3.3-2.475-1.134 0-2.475.516-2.475 1.856 0 1.238.825 1.444 4.95 2.475 1.238.309 4.951 1.032 4.951 4.848 0 3.094-2.373 5.363-6.91 5.363-3.713 0-7.116-1.856-7.116-5.879h3.505zm11.861 5.775v-1.34h1.031v1.341h-1.031zm7.116-4.537c-.206-.928-.825-1.547-1.856-1.547-1.548 0-2.27 1.444-2.27 2.784 0 1.34.722 2.784 2.27 2.784a1.848 1.848 0 001.856-1.856h.825c-.206 1.547-1.238 2.578-2.681 2.578-1.96 0-3.095-1.547-3.095-3.506 0-1.959 1.135-3.506 3.095-3.506 1.444 0 2.475.722 2.681 2.269h-.825zm7.219 1.237c0 1.856-1.134 3.506-3.094 3.506-1.959 0-3.094-1.547-3.094-3.506 0-1.959 1.134-3.506 3.094-3.506 1.96.103 3.094 1.65 3.094 3.506zm-5.465 0c0 1.444.722 2.784 2.269 2.784 1.547 0 2.269-1.444 2.269-2.784 0-1.34-.722-2.784-2.269-2.784-1.444 0-2.269 1.444-2.269 2.784zm5.981-3.197h.722v1.134c.413-.825 1.134-1.341 2.166-1.341.825 0 1.65.413 1.856 1.238.413-.825 1.238-1.238 2.063-1.238 1.444 0 2.167.722 2.167 2.269v4.435h-.826v-4.435c0-1.031-.412-1.65-1.547-1.65-1.341 0-1.753 1.134-1.753 2.372v3.713h-.825v-4.434c0-.928-.309-1.65-1.341-1.65-1.341 0-1.959 1.031-1.959 2.372v3.609h-.825v-6.394h.102z" fill="#191919"/><path d="M127.05 106.833a1.12 1.12 0 01-1.114 1.116h-14.451a1.12 1.12 0 01-1.115-1.116v-14.45c0-.613.502-1.114 1.115-1.114h14.451c.612 0 1.114.501 1.114 1.114v14.45z" fill="#BC2328"/><path d="M123.831 97.28h-3.451v-3.461c0-.309-.227-.558-.534-.558h-2.23a.557.557 0 00-.558.558v3.461h-3.447c-.308 0-.558.217-.558.525v2.231c0 .305.249.556.558.556h3.447v3.438c0 .308.25.557.558.557h2.23c.307 0 .534-.249.534-.557v-3.438h3.451c.308 0 .558-.25.558-.556v-2.231c0-.309-.25-.525-.558-.525z" fill="#A00000"/><path d="M123.831 97.949h-3.451v-3.461c0-.309-.227-.558-.534-.558h-2.23a.557.557 0 00-.558.558v3.461h-3.447c-.308 0-.558.217-.558.525v2.231c0 .305.249.556.558.556h3.447v3.438c0 .308.25.558.558.558h2.23c.307 0 .534-.25.534-.558v-3.438h3.451c.308 0 .558-.25.558-.556v-2.231c0-.308-.25-.525-.558-.525z" fill="#FFF"/></svg>