<svg xmlns="http://www.w3.org/2000/svg" width="200" height="200" viewBox="0 0 200 200"><path fill="none" d="M0 0h200v200H0z"/><g fill="#003E7E"><path d="M137.606 108.127c1.166-.965 2.077-2.398 2.731-4.297h11.404a19.987 19.987 0 01-1.836 4.297zM93.79 82.074l2.41 22.361 10.348-22.361h14.318l-4.638 26.054h-10.595c.423-2.205.861-4.447 1.319-6.725l1.759-6.508-6.214 13.233H88.625L87.21 94.895l-.504 5.066c-.201 1.492-.535 3.561-1.004 6.212-.122.651-.239 1.303-.351 1.955H74.834l4.639-26.054zm7.97 27.621l-3.853 8.203H89.67l-.877-8.203zm14.186 0l-1.458 8.203h-10.703c.504-2.682 1.014-5.388 1.532-8.124.007-.025.012-.053.017-.079z"/><path d="M53.382 82.074h11.905l-4.873 27.477H76.69l-1.506 8.348H47.003zm31.733 27.493c-.447 2.739-.99 5.6-1.473 8.332h-6.831l1.506-8.332zm56.628-13.562c0-2.23-.686-3.802-2.059-4.713-.905-.598-1.993-.898-3.265-.898-2.411 0-4.386 1.023-5.929 3.064-1.238 1.666-2.125 3.929-2.661 6.788a17.934 17.934 0 00-.353 3.442c0 1.969.464 3.45 1.393 4.438h-11.016l3.372-18.933a21.26 21.26 0 013.339-2.946c3.885-2.766 8.189-4.149 12.91-4.149 5.994 0 10.265 1.431 12.81 4.29 1.808 2.043 2.713 4.871 2.713 8.485v1.132zm7.149 13.69a19.143 19.143 0 01-4.135 4.177c-3.616 2.704-7.903 4.054-12.86 4.054-5.156 0-9.167-1.219-12.03-3.656a11.65 11.65 0 01-2.565-3.05l.273-1.525z"/></g></svg>