<svg xmlns="http://www.w3.org/2000/svg" width="200" height="200" viewBox="0 0 200 200"><path fill="none" d="M0 0h200v200H0z"/><defs><clipPath id="a"><path d="M35.511 78.088H164V121H35.511z"/></clipPath></defs><g fill="#63AAD2"><g clip-path="url(#a)"><path d="M97.202 101.201c-.191-3.511-2.748-6.415-6.296-6.415-3.749 0-6.245 2.604-6.862 6.415h13.158zm-13.158 5.753c.182 4.297 2.739 7.146 7.236 7.146 2.557 0 5.053-1.152 6.044-3.453h9.923c-1.939 7.264-8.862 10.413-16.098 10.413-10.54 0-17.707-6.175-17.707-16.71 0-9.623 7.914-16.529 17.464-16.529 11.602 0 17.402 8.48 16.898 19.133h-23.76m62.857 6.234c4.932 0 6.488-4.719 6.488-8.716 0-3.997-1.556-8.779-6.488-8.779-4.922 0-6.418 4.782-6.418 8.779s1.496 8.716 6.418 8.716zm0-25.367c10.045 0 17.099 7.205 17.099 16.651s-7.054 16.588-17.099 16.588c-10.036 0-17.02-7.142-17.02-16.588 0-9.446 6.984-16.651 17.02-16.651m-88.934 7.661h-6.548v13.982c0 2.557 1.496 3.117 3.8 3.117.87 0 1.809-.126 2.748-.126v7.797c-1.939.061-3.87.313-5.801.313-9.044 0-11.358-2.622-11.358-11.414V95.482h-5.357v-6.858h5.357V78.089h10.611v10.535h6.548v6.858"/></g><path d="M60.869 88.624h10.602v31.628H60.869zm0-10.536h10.603v7.64H60.869zm68.9 17.394h-6.548v13.982c0 2.557 1.496 3.117 3.8 3.117.87 0 1.809-.126 2.748-.126v7.797c-1.939.061-3.87.313-5.8.313-9.045 0-11.359-2.622-11.359-11.414V95.482h-5.357v-6.858h5.357V78.089h10.611v10.535h6.548v6.858"/></g></svg>