<svg xmlns="http://www.w3.org/2000/svg" width="500" height="500" viewBox="170.945 47.64 500 500"><path fill="#B2B2B2" d="M420.251 72.64l-216.424 74.509 34.201 277.388 182.455 98.104 183.395-99.435 34.188-277.377L420.249 72.64h.002z"/><path fill="#B52E31" d="M616.478 161.864L419.75 96.234v402.969l164.869-89.264 31.863-248.076-.004.001z"/><path fill="#E23237" d="M228.115 163.047l29.303 248.08 162.328 88.076V96.224l-191.631 66.823z"/><path fill="#F2F2F2" d="M465.347 296.665l-45.243-92.427-39.828 92.427h85.071zm17.25 38.863H362.671l-26.832 65.651-49.906.901L419.75 110.866l138.478 291.21H511.97l-29.373-66.548z"/><path fill="#B2B2B2" d="M419.75 110.866l.355 93.372 45.198 92.497h-45.454l-.102 38.733 62.847.057 29.375 66.563 47.752.866L419.75 110.866z"/></svg>