<svg xmlns="http://www.w3.org/2000/svg" width="500" height="500" viewBox="170.945 47.64 500 500"><path fill="#A36DF8" d="M573.253 76.255c40.147 0 72.692 31.893 72.692 71.23v300.313c0 39.339-32.545 71.229-72.692 71.229H268.638c-40.147 0-72.693-31.89-72.693-71.229V147.485c0-39.338 32.546-71.229 72.693-71.229h304.614l.001-.001zm-152.697 84.434H311.061v274.275H432.11c37.635 0 65.672-6.491 84.109-19.474 18.438-12.981 27.657-32.7 27.657-59.154 0-17.268-4.295-31.842-12.881-43.722-8.588-11.88-20.712-20.024-36.371-24.434 12.249-4.531 21.595-11.45 28.035-20.759 6.441-9.432 9.662-20.819 9.662-34.17 0-25.352-8.842-43.783-26.521-55.296-17.555-11.512-45.969-17.268-85.247-17.268h.003zm6.25 154.314c14.777 0 25.826 3 33.152 9.002 7.324 5.878 10.987 14.758 10.987 26.636 0 12.126-3.728 21.189-11.179 27.189-7.324 6.001-18.312 9.002-32.962 9.001h-42.812v-71.828h42.814zm-2.462-106.183c11.493 0 20.206 2.511 26.142 7.531 5.938 4.899 8.904 12.064 8.904 21.494 0 9.554-2.967 16.779-8.904 21.678-5.936 4.899-14.648 7.351-26.142 7.351h-40.351v-58.053l40.351-.001z"/></svg>