<svg xmlns="http://www.w3.org/2000/svg" width="500" height="500" viewBox="0 0 500 500"><path d="M67.083 323.048v-15.412c-11.854 0-20.548-4.939-20.548-23.511v-21.141c0-16.004-7.705-25.685-20.745-28.254 14.028-3.951 20.745-12.25 20.745-29.834v-22.919c0-17.584 8.694-20.153 20.548-20.153v-15.609c-33.786 0-47.616 9.287-47.616 34.972v20.35c0 16.399-3.952 25.29-18.967 27.068v12.25c13.83 1.383 18.967 8.496 18.967 26.673v21.734c0 26.278 15.411 33.786 47.616 33.786zm122.08-38.226l-13.993-20.279c-14.398 10.14-29.81 13.181-39.544 13.181-21.09 0-32.852-15.614-32.852-40.963 0-34.475 15.21-47.25 37.516-47.25 4.462 0 10.748.608 16.224 2.433l2.839 22.713h24.74c0-31.433-.608-40.761-2.028-47.25-13.587-3.245-25.551-5.07-45.019-5.07-45.628 0-69.963 27.579-69.963 75.641 0 42.383 23.929 68.745 62.054 68.745 23.726 0 44.208-9.531 60.026-21.901zm10.951-32.649c0 23.726 1.014 38.327 2.839 47.047 10.342 4.461 26.768 7.503 47.858 7.503 40.964 0 58.201-19.67 58.201-41.977 0-20.888-5.678-31.433-39.747-43.6l-17.237-6.287c-9.328-3.244-11.356-7.503-11.356-13.587 0-5.88 4.258-11.964 20.279-11.964 5.881 0 13.384 1.014 19.265 2.636l2.433 21.901h23.524c0-22.306-.406-41.977-2.028-46.438-10.342-2.637-27.174-4.867-40.355-4.867-42.383 0-58.607 19.467-58.607 42.991 0 25.146 14.399 34.88 34.069 40.964l17.846 5.272c11.762 3.65 15.412 8.112 15.412 15.209 0 7.301-4.867 12.776-17.643 12.776-8.923 0-17.846-1.216-27.174-4.056l-3.245-23.523zm123.904 0c0 23.726 1.014 38.327 2.84 47.047 10.342 4.461 26.768 7.503 47.858 7.503 40.964 0 58.201-19.67 58.201-41.977 0-20.888-5.678-31.433-39.747-43.6l-17.237-6.287c-9.329-3.244-11.356-7.503-11.356-13.587 0-5.88 4.258-11.964 20.279-11.964 5.88 0 13.384 1.014 19.265 2.636l2.433 21.901h23.524c0-22.306-.406-41.977-2.028-46.438-10.342-2.637-27.174-4.867-40.355-4.867-42.384 0-58.607 19.467-58.607 42.991 0 25.146 14.398 34.88 34.069 40.964l17.846 5.272c11.761 3.65 15.412 8.112 15.412 15.209 0 7.301-4.867 12.776-17.643 12.776-8.923 0-17.846-1.216-27.174-4.056l-3.245-23.523zm108.899-106.059v15.411c11.854 0 20.548 4.94 20.548 23.512v21.141c0 16.003 7.705 25.685 20.745 28.253-14.028 3.952-20.745 12.25-20.745 29.835v22.919c0 17.584-8.694 20.152-20.548 20.152v15.609c33.786 0 47.616-9.286 47.616-34.971v-20.351c0-16.399 3.952-25.29 18.967-27.068v-12.25c-13.83-1.383-18.967-8.495-18.967-26.673V179.9c0-26.278-15.411-33.786-47.616-33.786z" fill="#59AC71"/><path d="M430.548 214.071L302.19 342.428l-59.9-59.9-42.786 42.786L302.19 428l171.143-171.143z" fill="#FFF"/></svg>