<svg xmlns="http://www.w3.org/2000/svg" width="500" height="500" viewBox="0 0 500 500"><g opacity=".15" fill="#FFF"><path d="M254.055 298.111L22 207.318V106.786L254.055 16l232.054 90.786v100.532l-232.054 90.793zM52.085 187.897l201.97 79.026 201.969-79.018v-61.699L254.055 47.188l-201.97 79.018v61.691z"/><path d="M254.055 484L37.577 399.307v-191.57h30.085v172.15l186.393 72.925 186.393-72.925v-172.15h30.085v191.57z"/><path d="M254.055 213.101L32.786 126.517l8.521-20.049 212.748 83.234 212.747-83.234 8.522 20.049z"/><path d="M242.773 201.405h22.564v81.112h-22.564zm0 86.635h22.564v181.377h-22.564z"/></g><path d="M242.164 395.627v-25.589c-20.148 0-34.923-8.202-34.923-39.041v-35.104c0-26.575-13.096-42.65-35.259-46.915 23.842-6.562 35.259-20.341 35.259-49.54v-38.056c0-29.199 14.775-33.464 34.923-33.464V102c-57.421 0-80.927 15.42-80.927 58.069v33.792c0 27.23-6.716 41.994-32.237 44.946v20.341c23.506 2.297 32.237 14.107 32.237 44.29v36.089c0 43.634 26.192 56.1 80.927 56.1zM258.836 397v-25.59c20.148 0 34.923-8.202 34.923-39.041v-35.104c0-26.574 13.096-42.65 35.259-46.915-23.842-6.561-35.259-20.34-35.259-49.539v-38.057c0-29.198-14.775-33.463-34.923-33.463v-25.918c57.421 0 80.927 15.419 80.927 58.069v33.792c0 27.23 6.716 41.993 32.237 44.946v20.341c-23.506 2.296-32.237 14.107-32.237 44.29v36.088c0 43.634-26.192 56.101-80.927 56.101z" fill="#59AC71"/></svg>