<svg xmlns="http://www.w3.org/2000/svg" width="500" height="500" viewBox="170.945 47.64 500 500"><path fill="#FFF" d="M593.545 362.552h-.238.119c-17.63-.013-32.637-2.643-38.518-6.341l7.207 11.281 2.631 35.122s28.723 19.854 57.12 0l2.083-35.505 6.211-9.937c-6.793 3.185-20.672 5.368-36.734 5.38h.121-.002z"/><path fill="none" stroke="#000" stroke-width=".594" d="M594.01 363.016h-.239.121c-17.631-.012-32.639-2.643-38.52-6.34l7.207 11.28 2.631 35.123s28.723 19.854 57.12 0l2.084-35.506 6.21-9.937c-6.792 3.186-20.672 5.369-36.732 5.381h.119l-.001-.001z"/><path fill="#FFF" d="M632.47 314.532c-1.254.928-2.48 1.646-3.676 2.151a9.729 9.729 0 01-3.842.762c-1.279 0-2.27-.273-2.969-.819s-1.048-1.297-1.048-2.255v-.219c0-.067.009-.152.025-.249.067-.585.329-1.26.784-2.021a22.894 22.894 0 011.641-2.371 62.42 62.42 0 012.047-2.488c.68-.788 1.35-1.584 2.01-2.387a23.834 23.834 0 001.527-2.063c.404-.625.607-1.131.607-1.521a.684.684 0 00-.254-.558c-.168-.135-.447-.204-.834-.204-.674 0-1.369.171-2.084.512-.762.371-1.475.833-2.123 1.377a19 19 0 00-2.047 1.975 29.418 29.418 0 00-1.869 2.313 30.747 30.747 0 00-1.59 2.415 33.75 33.75 0 00-1.227 2.239l-.43.907c-.188.391-.387.831-.606 1.317a68.42 68.42 0 01-.696 1.506c-.228.486-.451.975-.668 1.467l-.541 1.229c-.111.25-.225.498-.342.745-.086.177-.225.507-.417.996-.226.569-.448 1.14-.67 1.712l-.796 2.064c-.275.721-.539 1.406-.782 2.049l-.644 1.698a14.3 14.3 0 00-.354.995c-.168.509-.366.984-.595 1.436a5.906 5.906 0 01-.781 1.185 3.558 3.558 0 01-1.012.818c-.391.21-.83.316-1.273.31-.608 0-1.108-.145-1.506-.427-.395-.283-.593-.824-.593-1.625 0-.391.052-.79.153-1.198.1-.41.227-.816.378-1.216.151-.401.309-.79.468-1.17.16-.384.307-.748.441-1.099a571.753 571.753 0 012.779-5.87 274.979 274.979 0 002.717-5.825c.182-.401.346-.794.523-1.191l-.158.153a33.396 33.396 0 01-3.27 2.737 17.557 17.557 0 01-3.235 1.887c-1.069.47-2.11.703-3.12.703-.691 0-1.267-.107-1.729-.321a2.894 2.894 0 01-1.113-.877 3.483 3.483 0 01-.593-1.319c-.041-.172-.065-.354-.092-.535-.295.226-.594.445-.894.653a18.204 18.204 0 01-3.083 1.741c-1.011.438-1.92.658-2.729.658s-1.465-.263-1.971-.79-.759-1.426-.759-2.693c0-.899.136-1.942.403-3.133a15.78 15.78 0 01-1.64 2.312 14.178 14.178 0 01-2.248 2.139 11.27 11.27 0 01-2.831 1.565c-1.044.401-2.182.601-3.41.601a6.153 6.153 0 01-1.604-.205 3.395 3.395 0 01-1.352-.702c-.388-.331-.698-.775-.935-1.331-.236-.557-.354-1.255-.354-2.094 0-.02.033-.316.1-.895.068-.575.283-1.481.645-2.724.363-1.236.922-2.844 1.68-4.814.76-1.972 1.826-4.361 3.211-7.17.353-.744.76-1.275 1.223-1.597a2.598 2.598 0 012.236-.38c.254.069.488.176.709.322.219.145.396.332.53.556.134.225.202.483.202.776 0 .194-.025.38-.076.557-.085.333-.266.766-.541 1.301-.279.538-.604 1.152-.975 1.845-.396.743-.789 1.491-1.174 2.241-.42.812-.803 1.642-1.149 2.488a23.919 23.919 0 00-.91 2.619 11.05 11.05 0 00-.429 2.591c0 .352.083.674.252.966.168.293.445.439.834.439 1.094 0 2.139-.352 3.133-1.053a13.826 13.826 0 002.754-2.621 25.245 25.245 0 002.287-3.367 43.24 43.24 0 001.705-3.292 16.64 16.64 0 00.846-2.138c.227-.716.492-1.42.795-2.108.248-.582.58-1.124.985-1.609a1.764 1.764 0 011.39-.646c.607 0 1.087.226 1.441.674.354.449.529.986.529 1.609 0 .352-.111.836-.34 1.45a41.52 41.52 0 01-.859 2.108c-.371.846-.746 1.69-1.125 2.532-.405.899-.78 1.813-1.123 2.736a27.59 27.59 0 00-.861 2.724c-.215.807-.33 1.638-.34 2.473 0 .702.37 1.055 1.112 1.055.523 0 1.17-.176 1.945-.527.774-.35 1.589-.845 2.438-1.479.213-.157.426-.323.639-.498.238-.956.516-1.842.838-2.648.59-1.516 1.187-3.027 1.795-4.536l1.668-4.13 7.654-18.883c.304-.759.713-1.296 1.225-1.608.514-.313 1.031-.469 1.555-.469a2.284 2.284 0 011.426.497c.431.333.646.869.646 1.611 0 .352-.072.723-.216 1.112-.144.393-.325.811-.544 1.259-.419.918-.922 2.04-1.502 3.367a535.067 535.067 0 00-3.916 9.208c-.698 1.688-1.382 3.333-2.047 4.933a530.17 530.17 0 00-1.869 4.553c-.502 1.242-1.004 2.485-1.504 3.73a16.652 16.652 0 00-.543 1.566 5.699 5.699 0 00-.264 1.597c0 .291.049.526.15.701.101.175.295.265.582.265.354 0 .795-.123 1.325-.367a13.29 13.29 0 001.718-.967 26.938 26.938 0 001.92-1.376 58.935 58.935 0 003.866-3.278 70.48 70.48 0 001.604-1.535c.111-.11.244-.196.389-.253.277-.808.535-1.621.771-2.44.137-.353.32-.849.557-1.494a20.77 20.77 0 01.809-1.901 8.097 8.097 0 011.023-1.625c.379-.458.787-.688 1.227-.688.672 0 1.162.152 1.465.452.304.304.455.747.455 1.334 0 .116-.018.302-.051.554-.07.542-.167 1.079-.291 1.611a3.805 3.805 0 01-.162.557 33.324 33.324 0 012.019-1.977 20.996 20.996 0 012.249-1.771c.744-.51 1.54-.942 2.375-1.288a6.349 6.349 0 012.424-.497 6.01 6.01 0 011.656.234c.523.145 1.02.377 1.465.688.43.304.781.684 1.049 1.142.27.457.404.99.404 1.596 0 .801-.205 1.654-.619 2.561-.413.908-.932 1.82-1.553 2.735a34.859 34.859 0 01-2.021 2.68c-.666.801-1.344 1.591-2.033 2.371-.535.603-1.066 1.207-1.594 1.814-.428.5-.65.836-.668 1.012 0 .234.076.424.227.571.152.146.406.22.76.22.287 0 .707-.158 1.263-.47.556-.311 1.337-.854 2.338-1.623a118.153 118.153 0 003.815-3.104 381.201 381.201 0 003.688-3.157l7.13-60.526h-.048c-7.231 3.387-27.545 6.965-51.479 6.965-23.93 0-44.246-3.578-51.477-6.965h-.061l5.417 55.555c.29-.965.61-1.92.96-2.865a54.306 54.306 0 012.514-5.723 51.296 51.296 0 013.107-5.284 40.9 40.9 0 013.577-4.581 28.245 28.245 0 013.891-3.602c1.33-1.003 2.674-1.79 4.028-2.356 1.356-.565 2.7-.849 4.031-.849 1.533 0 3.015.41 4.446 1.23 1.433.819 2.77 2.146 4.018 3.982.286.409.468.825.542 1.243.076.419.113.814.113 1.185 0 .879-.214 1.572-.643 2.078-.431.509-.939.762-1.529.762-.54 0-1.041-.278-1.504-.833-.463-.556-.981-1.353-1.554-2.386-.538-.938-1.134-1.614-1.782-2.034a3.795 3.795 0 00-2.107-.63c-1.181 0-2.439.478-3.777 1.433-1.34.957-2.666 2.221-3.979 3.792-1.313 1.572-2.571 3.368-3.776 5.387a55.267 55.267 0 00-3.197 6.207 43.431 43.431 0 00-2.21 6.263c-.548 2.06-.821 3.909-.821 5.548 0 .547.037 1.108.113 1.683.066.541.211 1.069.43 1.566.211.469.496.854.859 1.156.363.304.82.453 1.376.453.623 0 1.33-.205 2.122-.615.792-.408 1.614-.946 2.463-1.609a30.66 30.66 0 002.564-2.254 39.256 39.256 0 002.4-2.547 36.648 36.648 0 001.971-2.474c.573-.79 1.004-1.479 1.291-2.063l2.35-6.88c.284-.74.659-1.267 1.123-1.581.463-.312.939-.468 1.427-.468.235 0 .472.041.708.118.236.078.447.2.633.365.186.167.333.38.441.644.109.264.164.571.164.922 0 .937-.086 1.813-.254 2.635a20.655 20.655 0 01-.643 2.4c-.268.794-.559 1.58-.873 2.356-.33.817-.642 1.642-.934 2.475-.068.097-.189.403-.366.921a146.014 146.014 0 00-1.465 4.566c-.302.986-.604 1.973-.909 2.957-.306.984-.605 1.969-.896 2.956a727.366 727.366 0 00-1.34 4.581 40.08 40.08 0 01-.277.938 6.233 6.233 0 01-.404 1.038 7.026 7.026 0 01-.658 1.086 4.078 4.078 0 01-.833.847 1.563 1.563 0 01-.936.337c-.539 0-.931-.175-1.175-.525-.244-.353-.366-.997-.366-1.933v-.411c0-.136.009-.281.025-.438.017-.313.145-.899.38-1.759a153.38 153.38 0 011.907-6.278l1.023-3.116a49.852 49.852 0 01-2.904 2.912 31.199 31.199 0 01-3.209 2.605 19.116 19.116 0 01-3.311 1.889c-1.112.487-2.182.731-3.209.731-1.179 0-2.193-.255-3.045-.762-.154-.092-.296-.195-.441-.297l3.441 35.299 2.004 3.137c5.879 3.697 20.887 6.327 38.52 6.338 16.061-.011 29.939-2.194 36.73-5.379l2.563-4.096 4.943-41.957c-.41.366-.807.724-1.188 1.071a51.153 51.153 0 01-4.006 3.327v-.004z"/><path fill="none" stroke="#000" stroke-width=".594" d="M632.935 314.998c-1.254.927-2.48 1.645-3.676 2.15a9.744 9.744 0 01-3.842.763c-1.279 0-2.269-.274-2.968-.819-.698-.547-1.048-1.298-1.048-2.255v-.219c0-.067.008-.152.025-.249.066-.585.329-1.261.783-2.021a23.147 23.147 0 011.641-2.371 65.986 65.986 0 012.048-2.489c.68-.787 1.349-1.583 2.009-2.386a23.64 23.64 0 001.528-2.063c.404-.625.606-1.132.606-1.521a.69.69 0 00-.253-.559c-.169-.134-.448-.204-.834-.204-.675 0-1.368.171-2.085.513-.762.371-1.475.833-2.123 1.377a19.083 19.083 0 00-2.046 1.975 29.43 29.43 0 00-1.87 2.313 31.241 31.241 0 00-1.59 2.416 34.43 34.43 0 00-1.227 2.239c-.1.214-.244.518-.43.906-.188.391-.387.832-.605 1.319a75.852 75.852 0 01-.696 1.505c-.229.486-.45.975-.667 1.466l-.543 1.229a31.5 31.5 0 01-.341.746c-.085.177-.225.506-.417.995-.226.569-.449 1.141-.67 1.712l-.797 2.064-.782 2.05-.644 1.697c-.186.488-.305.82-.354.995-.167.509-.366.985-.593 1.436a6.02 6.02 0 01-.782 1.186 3.567 3.567 0 01-1.011.818 2.638 2.638 0 01-1.275.309c-.607 0-1.107-.143-1.506-.427-.395-.282-.592-.824-.592-1.624 0-.391.051-.79.152-1.198.1-.411.227-.816.379-1.216.152-.402.308-.791.467-1.171.161-.383.308-.747.441-1.098a562.045 562.045 0 012.78-5.87 267.519 267.519 0 002.716-5.825c.182-.402.347-.794.523-1.192l-.156.153a33.385 33.385 0 01-3.271 2.737 17.498 17.498 0 01-3.234 1.888c-1.068.469-2.11.702-3.121.702-.69 0-1.266-.106-1.729-.32a2.894 2.894 0 01-1.113-.878 3.474 3.474 0 01-.594-1.318c-.04-.173-.064-.354-.092-.535-.294.226-.593.445-.894.652a18.118 18.118 0 01-3.081 1.741c-1.012.439-1.922.658-2.73.658-.807 0-1.465-.263-1.971-.79-.505-.527-.758-1.425-.758-2.693 0-.898.137-1.942.404-3.132a15.939 15.939 0 01-1.641 2.312c-.67.793-1.424 1.51-2.248 2.138a11.29 11.29 0 01-2.831 1.566c-1.045.4-2.182.6-3.411.6a6.08 6.08 0 01-1.604-.205 3.387 3.387 0 01-1.352-.701c-.389-.331-.699-.776-.935-1.332-.237-.557-.353-1.254-.353-2.093 0-.02.031-.317.099-.895.068-.576.282-1.482.645-2.724.362-1.236.923-2.844 1.679-4.814.76-1.973 1.828-4.361 3.211-7.171.354-.744.762-1.275 1.225-1.596a2.577 2.577 0 011.502-.483c.236 0 .48.035.732.103.255.069.489.175.709.322.219.145.396.332.531.556.133.224.201.482.201.775 0 .194-.025.381-.075.556-.086.333-.267.767-.542 1.302-.279.537-.604 1.152-.973 1.845-.398.743-.79 1.491-1.175 2.24a30.915 30.915 0 00-1.149 2.488 24.153 24.153 0 00-.911 2.62 11.05 11.05 0 00-.429 2.591c0 .351.084.673.252.966s.447.438.834.438c1.096 0 2.141-.351 3.135-1.052a13.904 13.904 0 002.753-2.621 25.184 25.184 0 002.286-3.368 42.676 42.676 0 001.705-3.291c.32-.664.603-1.378.848-2.138.227-.717.492-1.42.795-2.108a6.401 6.401 0 01.984-1.609c.34-.417.852-.654 1.389-.646.607 0 1.088.226 1.441.674.354.449.531.986.531 1.609 0 .352-.113.835-.342 1.451a39.752 39.752 0 01-.859 2.108c-.37.846-.745 1.689-1.124 2.531-.405.9-.78 1.813-1.124 2.737a27.12 27.12 0 00-.859 2.723 9.944 9.944 0 00-.34 2.474c0 .702.369 1.055 1.111 1.055.522 0 1.17-.176 1.944-.527.776-.351 1.589-.845 2.438-1.479.213-.157.428-.324.64-.498a20.21 20.21 0 01.839-2.648 384.762 384.762 0 011.793-4.536l1.668-4.13 7.656-18.883c.302-.76.711-1.296 1.224-1.609.514-.313 1.032-.468 1.555-.468.518 0 1.021.174 1.427.498.43.332.645.869.645 1.61 0 .352-.071.722-.215 1.112-.144.392-.326.81-.544 1.258-.42.919-.923 2.04-1.503 3.368a544.297 544.297 0 00-3.916 9.208c-.698 1.688-1.381 3.333-2.046 4.934a517.075 517.075 0 00-1.869 4.552 1116.44 1116.44 0 00-1.504 3.731 16.547 16.547 0 00-.542 1.566 5.659 5.659 0 00-.266 1.597c0 .291.049.525.15.7s.295.265.582.265c.354 0 .795-.122 1.325-.366.597-.279 1.17-.603 1.718-.968a26.377 26.377 0 001.92-1.375 58.972 58.972 0 005.471-4.814c.111-.11.243-.195.39-.252.275-.808.534-1.622.77-2.44.137-.353.322-.849.557-1.494.238-.647.508-1.282.809-1.902a8.142 8.142 0 011.023-1.625c.379-.458.787-.687 1.227-.687.672 0 1.163.151 1.465.452.305.305.455.748.455 1.334a4.9 4.9 0 01-.051.555 16.57 16.57 0 01-.29 1.611c-.04.188-.095.375-.163.557a32.762 32.762 0 012.02-1.977 21.084 21.084 0 012.248-1.771 13.046 13.046 0 012.375-1.289 6.354 6.354 0 012.425-.497 6 6 0 011.655.235c.523.145 1.02.378 1.466.687.43.305.78.684 1.05 1.142.268.458.403.99.403 1.596 0 .8-.206 1.653-.619 2.561s-.931 1.82-1.554 2.735a34.35 34.35 0 01-2.021 2.68c-.665.801-1.344 1.591-2.033 2.371a248.69 248.69 0 00-1.592 1.814c-.43.499-.652.835-.669 1.012 0 .234.077.424.228.57.152.146.404.221.758.221.287 0 .707-.158 1.264-.47.556-.312 1.336-.854 2.338-1.624a116.759 116.759 0 003.814-3.103 369.657 369.657 0 003.689-3.157l7.129-60.526h-.049c-7.23 3.386-27.545 6.965-51.479 6.965-23.93 0-44.244-3.579-51.475-6.965h-.062l5.416 55.555c.291-.965.61-1.921.962-2.865a53.597 53.597 0 012.513-5.723 50.664 50.664 0 013.108-5.284 40.775 40.775 0 013.576-4.581 28.403 28.403 0 013.89-3.601c1.331-1.003 2.675-1.79 4.029-2.357 1.356-.565 2.7-.849 4.031-.849 1.532 0 3.015.411 4.446 1.231 1.432.819 2.77 2.146 4.018 3.981.285.408.467.825.541 1.244.076.419.113.814.113 1.185 0 .879-.213 1.572-.643 2.078-.43.509-.939.762-1.528.762-.54 0-1.041-.277-1.505-.833-.463-.556-.98-1.352-1.553-2.385-.538-.938-1.134-1.614-1.782-2.034a3.8 3.8 0 00-2.108-.631c-1.18 0-2.439.479-3.777 1.434-1.34.957-2.666 2.221-3.979 3.792-1.314 1.571-2.572 3.368-3.776 5.386a55.44 55.44 0 00-3.197 6.207 43.486 43.486 0 00-2.21 6.264c-.549 2.06-.822 3.909-.822 5.548 0 .547.039 1.108.113 1.683.066.54.211 1.068.432 1.566.209.469.495.854.858 1.156.362.303.821.452 1.376.452.623 0 1.33-.204 2.121-.614.793-.408 1.615-.946 2.465-1.609a30.477 30.477 0 002.563-2.255 40.096 40.096 0 004.372-5.021c.572-.79 1.002-1.479 1.289-2.063l2.35-6.879c.285-.74.66-1.267 1.123-1.581.465-.312.939-.468 1.428-.468.235 0 .471.04.707.117.236.079.447.2.633.365.187.167.334.381.441.645.11.264.164.57.164.922 0 .936-.084 1.813-.254 2.634a20.14 20.14 0 01-.643 2.401c-.266.794-.558 1.58-.873 2.355a58.492 58.492 0 00-.934 2.476c-.068.096-.188.403-.366.92a145.995 145.995 0 00-1.464 4.566c-.303.987-.605 1.973-.91 2.958-.305.983-.604 1.968-.896 2.955a747.763 747.763 0 00-1.34 4.582 34.6 34.6 0 01-.277.937 6.273 6.273 0 01-.403 1.039c-.187.38-.407.743-.658 1.085a4.058 4.058 0 01-.833.848 1.572 1.572 0 01-.936.337c-.539 0-.931-.175-1.176-.526-.244-.352-.365-.996-.365-1.933v-.41c0-.136.01-.282.025-.438.016-.313.145-.899.379-1.759.237-.856.518-1.828.847-2.911a160.96 160.96 0 011.061-3.367c.38-1.162.72-2.199 1.023-3.117a49.886 49.886 0 01-2.905 2.913 31.092 31.092 0 01-3.209 2.605 19.144 19.144 0 01-3.311 1.889c-1.112.486-2.181.731-3.209.731-1.178 0-2.192-.255-3.045-.763-.153-.091-.295-.194-.441-.297l3.441 35.301 2.004 3.136c5.879 3.696 20.887 6.326 38.52 6.338 16.061-.012 29.94-2.194 36.732-5.379l2.562-4.095 4.942-41.959c-.409.367-.807.724-1.187 1.071a51.18 51.18 0 01-4.007 3.328v-.008z"/><path fill="#FFF" d="M593.886 235.172c-28.494 0-51.592 2.62-51.592 5.852 0 3.229 23.098 7.979 51.592 7.979 28.497 0 51.593-4.75 51.593-7.979 0-3.233-23.095-5.852-51.593-5.852zm9.202 9.231c-3.3 0-6.233-.974-6.233-1.816 0-.323.433-.664 1.151-.964.398-.717 2.518-1.265 5.082-1.265 2.521 0 4.619.532 5.064 1.232.789.307 1.276.663 1.276.998 0 .84-3.042 1.815-6.34 1.815z"/><path fill="none" stroke="#000" stroke-width=".594" d="M594.351 235.637c-28.493 0-51.592 2.619-51.592 5.852 0 3.229 23.099 7.979 51.592 7.979 28.497 0 51.594-4.75 51.594-7.979 0-3.233-23.097-5.852-51.594-5.852zm9.201 9.231c-3.3 0-6.232-.975-6.232-1.816 0-.323.433-.664 1.151-.964.398-.717 2.518-1.264 5.081-1.264 2.523 0 4.621.532 5.064 1.231.79.308 1.277.663 1.277.998.001.84-3.04 1.815-6.341 1.815z"/><path fill="#FFF" d="M603.088 243.375c2.848 0 5.154-.675 5.154-1.509a.512.512 0 00-.09-.276c-1.191-.466-3.078-.819-5.064-.819-2.033 0-3.927.37-5.082.853a.514.514 0 00-.073.244c-.001.832 2.306 1.507 5.155 1.507z"/><path fill="none" stroke="#000" stroke-width=".594" d="M603.552 243.841c2.848 0 5.154-.675 5.154-1.509a.502.502 0 00-.09-.277c-1.191-.465-3.078-.818-5.064-.818-2.033 0-3.926.37-5.081.852a.507.507 0 00-.073.245c0 .832 2.307 1.507 5.154 1.507z"/><path fill="#FFF" d="M640.681 188.444l-6.894-5.067-27.747 28.562-7.913 29.89h10l7.737-26.513 24.817-26.872z"/><path fill="none" stroke="#000" stroke-width=".594" d="M641.146 188.909l-6.893-5.066-27.748 28.562-7.912 29.89h10l7.738-26.513 24.815-26.873z"/><g fill="#FFF"><path d="M255.24 303.598s-2.941 7.176-4.552 10.979c-1.748 4.138-8.414 6.194-8.414 6.194s3.456-3.546 3.456-12.528c0-3.768 4.972-5.267 4.972-5.267l4.538.622zm-13.273 74.604s2.149 12.851 10.755 12.851c7.313 0 9.469-10.855 9.469-13.098l-20.224.247zm-29.28-143.051l-.997-.617c-2.936.097.997.617.997.617z"/><path d="M246.744 298.759s-4.644 2.076-9.836.387c-6.795-2.218-7.246-9.13-7.246-9.13s-4.17 11.966 7.52 14.27c9.373 1.848 14.917-3.466 14.917-3.466l-5.355-2.061zm3.301-60.696c-.499-10.264 8.101-18.438 11.081-18.787.166 1.74-.165 8.523 2.814 10.609.869-5.542 3.801-11.648 15.382-15.653-2.479 6.437-.329 11.828.693 14.326 7.909-7.022 13.238-5.86 13.238-5.86s-5.496 9.274-3.346 15.363c-15.878-1.22-39.785 1.649-39.862.002zm-33.66 15.634c-3.788-3.074-.963-5.928-1.263-9.422-.163-1.858-.314-3.612-.94-4.58-3.485-5.385-11.709-7.019-11.791-7.035l-3.859-.739 2.555-2.925c.33-.379 10.824-10.172 27.062-5.045 11.359 3.583 19.767 15.736 20.08 16.228l-5.695 2.618c-.066-.102-6.715-11.525-16.459-14.598-7.877-2.487-15.138-.121-18.247 1.429 3.306 1.291 7.628 3.642 10.231 7.664 1.229 1.9 1.435 4.294 1.636 6.609.264 3.067.513 5.961 2.818 7.835l-6.128 1.961z"/><path d="M248.752 299.771c.105.191.16.298.16.298s-7.812 5.732-15.815-.085c-4.285-3.118-3.88-10.83-2.567-14.099a26.046 26.046 0 018.729 3.713c-3.058-2.67-5.737-4.636-5.729-4.681l-3.477-.964-6.755-2.266c-.085.503-2.552 11.803 4.56 19.503 3.155 3.413 17.934 11.058 24.95-2.014l-4.056.595z"/><path d="M248.02 300.61c4.398 6.547 15.492 2.807 15.301-4.116 0 0-7.413 4.002-13.962-3.366-3.824-4.303-16.077-16.165-32.693-12.223 11.474 2.469 26.666 12.725 31.354 19.705z"/><path d="M215.113 319.088c1.058.598 4.789 4.378 4.792 10.031 0 2.834-.29 17.074-1.725 25.773 2.158 1.372 3.659 1.662 5.808 3.06 1.075-10.074 1.846-24.679 1.487-30.573-.412-6.719-4.088-11.229-7.5-13.153-1.067-.6-2.185-1.19-3.308-1.786-5.842-3.089-11.882-6.282-11.882-11.736 0-4.267 1.694-5.602 3.491-7.017l.191-.154c1.193-.941 2.541-2.008 3.338-3.761 2.179-4.794 2.536-17.005 0-20.105-1.263-1.545-4.65-6.738-3.677-10.23.372-1.331 1.228-2.318 2.624-3.019 1.478-.74 3.475-1.115 5.931-1.115 4.827 0 10.18 1.437 12.941 2.292 9.869 3.059 21.775 11.882 25.189 14.513l.167.124 2.183 1.485-1.366-2.236c-.085-.14-8.735-14.056-24.205-19.158-3.01-.992-8.922-2.658-14.732-2.658-3.458 0-6.396.59-8.719 1.755-2.833 1.417-4.752 3.678-5.549 6.538-1.953 7.01 4.409 14.813 4.626 15.062.742 1.296 1.056 10.705-.657 14.471-.237.52-.883 1.03-1.7 1.676-.257.204-.542.414-.846.639-2.417 1.785-6.072 4.482-6.072 10.697 0 8.508 8.812 13.119 15.894 16.827 1.165.613 2.274 1.191 3.276 1.758zm39.027-18.092l-6.12-.386s1.563 2.698 2.578 6.188c1.144 3.946-1.046 9.713-1.046 9.713s8.159-9.037 4.587-15.515h.001zm-7.64 102.78c-21.781-1.638-29.443-21.771-29.443-25.965l5.688.002-2.845-.002h2.845c.028 1.812 5.816 19.036 24.191 20.418l-.436 5.547z"/><path d="M233.794 378.365a19.385 19.385 0 01-.47-1.646c-.152-.606-.902-2.325.023-.363a7.163 7.163 0 01-.507-1.542c-14.716-.018-27.518-9.901-25.045-30.68-1.926-2.501-4.623 5.046-4.623 5.046s-7.367 20.923 11.659 29.033c6.339 2.706 11.94 4.643 13.263 3.861 2.753.547 5.238-1.33 6.17-2.565a14.45 14.45 0 01-.47-1.144z"/><path d="M240.114 364.69c.023-1.754.389-3.452 1.256-5.145.061-.116.13-.229.197-.342-5.664-.047-12.185-.578-17.737-2.752-6.104-2.39-13.74-10.56-15.051-20.159 0 0-11.496 8.676-8.118 27.249 3.169 17.44 18.088 23.126 35.103 24.089.011-.115-1.914-3.998-1.306-6.377-9.661.687-20.465-2.965-25.679-11.36-4.774-7.683-3.436-20.802-1.474-22.724 4.787 14.776 22.01 17.779 32.81 17.521h-.001z"/><path d="M241.897 354.113c-3.061 8.789-9.314 15.902-9.314 15.902s8.602-.382 9.077-1.872c.352-1.099 7.768-18.08 10.614-37.976-2.678 4.303-10.115 23.193-10.377 23.946zm86.648-118.962l.998-.617c2.935.097-.998.617-.998.617zm-34.06 63.608s4.646 2.076 9.836.387c6.797-2.218 7.25-9.13 7.25-9.13s4.167 11.966-7.52 14.27c-9.373 1.848-14.919-3.466-14.919-3.466l5.353-2.061z"/><path d="M324.844 253.697c3.79-3.074.967-5.928 1.267-9.422.16-1.858.31-3.612.938-4.58 3.485-5.385 11.709-7.019 11.793-7.035l3.862-.739-2.557-2.925c-.332-.379-10.824-10.172-27.065-5.045-11.357 3.583-19.764 15.736-20.078 16.228l5.693 2.618c.07-.102 6.718-11.525 16.463-14.598 7.875-2.487 15.137-.122 18.244 1.429-3.305 1.291-7.629 3.642-10.232 7.664-1.229 1.9-1.434 4.294-1.634 6.609-.264 3.067-.514 5.961-2.82 7.835l6.126 1.961zm-32.363 46.074c-.105.191-.16.298-.16.298s7.809 5.732 15.811-.085c4.289-3.119 3.883-10.83 2.569-14.101a26.103 26.103 0 00-8.728 3.715c3.059-2.67 5.735-4.636 5.727-4.681l3.477-.964 6.756-2.262c.086.502 2.549 11.802-4.566 19.5-3.151 3.414-17.931 11.059-24.946-2.013l4.058.592h.002z"/><path d="M293.209 300.61c-4.398 6.547-15.489 2.807-15.297-4.116 0 0 7.41 4.002 13.961-3.366 3.824-4.303 16.079-16.165 32.694-12.223-11.474 2.469-26.667 12.725-31.358 19.705z"/><path d="M326.122 319.088c-1.06.598-4.792 4.378-4.792 10.031-.003 2.834.286 17.074 1.723 25.773-2.159 1.372-3.66 1.662-5.809 3.06-1.076-10.074-1.851-24.679-1.487-30.573.409-6.719 4.086-11.229 7.496-13.153 1.069-.6 2.186-1.19 3.312-1.786 5.842-3.089 11.883-6.282 11.883-11.736 0-4.267-1.696-5.602-3.492-7.017l-.192-.154c-1.19-.941-2.541-2.008-3.338-3.761-2.18-4.795-2.536-17.005-.002-20.105 1.264-1.545 4.653-6.738 3.679-10.23-.374-1.331-1.232-2.319-2.627-3.019-1.476-.74-3.471-1.115-5.93-1.115-4.823 0-10.18 1.437-12.938 2.292-9.869 3.059-21.777 11.882-25.194 14.513l-.164.124-2.186 1.485 1.367-2.236c.086-.14 8.735-14.056 24.205-19.158 3.009-.992 8.921-2.658 14.733-2.658 3.459 0 6.392.59 8.718 1.755 2.833 1.417 4.75 3.678 5.549 6.538 1.953 7.01-4.409 14.813-4.626 15.062-.742 1.296-1.057 10.705.654 14.471.235.52.883 1.03 1.703 1.676.256.204.54.414.845.639 2.418 1.785 6.072 4.482 6.072 10.697 0 8.508-8.812 13.119-15.892 16.827-1.162.612-2.273 1.19-3.272 1.755l.002.003z"/><path d="M315.608 252.696c-1.401-2.323-4.986-6.807-13.248-10.748-9.221-4.396-19.891-6.628-31.722-6.632v-.003h-.046v.002c-11.832.005-22.504 2.237-31.722 6.633-8.262 3.941-11.844 8.424-13.247 10.747l-.603.779 7.074 1.542.226-.278.118-.253c.11-.458 1.058-2.927 8.947-6.69 8.432-4.024 18.268-6.064 29.23-6.068 10.962.004 20.793 2.043 29.225 6.068 7.889 3.763 8.84 6.231 8.948 6.69l.12.253.22.278 7.077-1.542-.599-.777h.002zM284.534 386.25c-2.955-3.09-4.704-6.417-5.125-7.438-.242-.583-.519-1.691.349-2.563.675-.675 1.847-1.021 3.483-1.021h2.52l7.523.002 1.53.002c2.152 0 3.211.602 3.721 1.106.742.734.859 1.757.348 3.035-1.368 3.418-4.474 6.207-5.392 6.979-1.202 1.016-2.928 1.618-4.623 1.618-1.735-.001-3.274-.612-4.334-1.72zm2.56-85.254l6.116-.386s-1.563 2.698-2.576 6.188c-1.146 3.946 1.046 9.713 1.046 9.713s-8.159-9.037-4.588-15.515h.002zm-16.478-21.373c-3.899 0-8.985-.106-12.8-2.789 0 0 4.995 8.568 12.794 8.568l.006-1.083.005 1.083c7.802 0 12.796-8.567 12.796-8.567-3.815 2.682-8.904 2.788-12.801 2.788z"/><path d="M281.356 279.581c-3.913 2.317-7.406 3.12-10.739 3.189-3.334-.069-6.826-.872-10.738-3.189 0 0 5.696 6.801 10.709 6.854v.004l.029-.001.028.001v-.002c5.011-.054 10.711-6.855 10.711-6.856zm13.376 124.195l-.437-5.547c18.371-1.382 24.16-18.606 24.189-20.418h5.689c.002 4.192-7.664 24.327-29.441 25.965z"/><path d="M307.435 378.365c.191-.541.331-1.092.471-1.646.154-.606.903-2.325-.023-.363.238-.503.393-1.02.508-1.542 14.715-.018 27.517-9.901 25.041-30.68 1.926-2.501 4.626 5.046 4.626 5.046s7.366 20.923-11.658 29.033c-6.339 2.706-11.94 4.643-13.263 3.861-2.757.547-5.242-1.33-6.171-2.565.173-.379.337-.759.469-1.144z"/><path d="M301.115 364.69a11.341 11.341 0 00-1.254-5.145c-.063-.116-.131-.229-.196-.342 5.663-.047 12.185-.578 17.737-2.752 6.103-2.39 13.738-10.56 15.05-20.159 0 0 11.496 8.676 8.117 27.249-3.172 17.44-18.09 23.126-35.102 24.089-.011-.115 1.913-3.998 1.306-6.377 9.657.687 20.461-2.965 25.679-11.36 4.772-7.683 3.434-20.802 1.471-22.724-4.784 14.776-22.008 17.779-32.81 17.521h.002z"/><path d="M307.985 369.066c-2.032-2.15-5.769-4.713-14.386-4.713l-22.953-.015h-.056l-22.957.015c-8.615 0-12.353 2.563-14.386 4.712-2.963 3.128-3.428 7.48-1.378 12.922 5.446 14.478 13.1 29.188 38.718 29.208v.003l.029-.003.028.003v-.003c25.616-.021 33.271-14.73 38.718-29.211 2.049-5.439 1.583-9.791-1.376-12.919l-.001.001zm-3.989 11.903c-2.593 7.271-9.568 24.871-33.381 24.901-23.816-.03-30.786-17.63-33.381-24.901-1.435-4.034-1.326-7.019.337-8.872 1.134-1.268 3.743-2.781 9.688-2.781l6.21-.003c4.581-.003 10.334-.008 17.147-.011 6.81.003 12.566.008 17.146.011l6.209.003c5.945 0 8.553 1.512 9.688 2.781 1.663 1.856 1.773 4.838.337 8.872z"/><path d="M299.333 354.113c3.062 8.789 9.314 15.903 9.314 15.903s-8.603-.383-9.076-1.873c-.351-1.097-7.768-18.08-10.614-37.976 2.676 4.303 10.114 23.193 10.376 23.946z"/></g><path fill="#BAE36F" d="M487.293 366.384l3.648-19.612c-5.168-.913-16.115-3.8-20.068-6.081 3.344-3.192 8.361-10.794 11.402-17.939l8.666-1.216V305.57h-35.576v15.965l3.042.304c-.763 1.976-1.978 4.257-3.347 5.472-5.016-3.8-11.705-12.314-15.051-16.875 11.252-6.233 20.373-14.595 20.373-27.063 0-18.244-13.228-24.326-29.191-24.326-21.132 0-30.558 11.556-30.558 25.543 0 7.146 2.433 12.62 6.233 17.635-14.75 5.778-23.11 15.661-23.11 30.56 0 22.351 17.332 33.296 39.986 33.296 13.076 0 23.413-4.104 30.559-10.186 9.425 6.385 22.654 9.12 32.992 10.489zm-69.634-46.98c4.713 6.083 13.684 17.638 19.766 22.808-3.041 1.521-7.604 2.888-13.229 2.888-10.034 0-15.963-5.17-15.963-13.227.001-4.866 3.041-9.577 9.426-12.469zm11.1-23.412c-3.042-3.648-5.321-8.21-5.321-11.707 0-4.41 2.736-8.057 8.361-8.057 5.473 0 8.361 2.278 8.361 7.448 0 4.714-4.713 9.427-11.401 12.316z"/></svg>