<svg xmlns="http://www.w3.org/2000/svg" width="500" height="500" viewBox="170.945 47.64 500 500"><path fill="#F7DF1E" d="M195.945 72.641h450v449.998h-450V72.641z"/><path fill="#2F2B00" d="M314.267 448.694l34.436-20.841c6.644 11.779 12.688 21.744 27.185 21.744 13.896 0 22.655-5.435 22.655-26.578V279.232h42.291v144.386c0 43.799-25.676 63.735-63.133 63.735-33.83 0-53.466-17.521-63.435-38.664m149.536-4.526l34.432-19.938c9.066 14.804 20.846 25.678 41.688 25.678 17.523 0 28.695-8.762 28.695-20.845 0-14.5-11.477-19.635-30.811-28.091l-10.569-4.532c-30.511-12.987-50.749-29.3-50.749-63.735 0-31.717 24.164-55.884 61.924-55.884 26.885 0 46.217 9.366 60.109 33.834l-32.925 21.145c-7.252-12.987-15.103-18.124-27.185-18.124-12.385 0-20.24 7.855-20.24 18.124 0 12.686 7.855 17.822 25.978 25.678l10.569 4.529c35.947 15.404 56.186 31.113 56.186 66.454 0 38.061-29.904 58.901-70.078 58.901-39.27 0-64.643-18.727-77.026-43.193"/></svg>