<svg xmlns="http://www.w3.org/2000/svg" width="500" height="500" viewBox="0 0 500 500"><g opacity=".15" fill="#FFF"><path d="M254.055 298.111L22 207.318V106.786L254.055 16l232.054 90.786v100.532l-232.054 90.793zM52.085 187.897l201.97 79.026 201.969-79.018v-61.699L254.055 47.188l-201.97 79.018v61.691z"/><path d="M254.055 484L37.577 399.307v-191.57h30.085v172.15l186.393 72.925 186.393-72.925v-172.15h30.085v191.57z"/><path d="M254.055 213.101L32.786 126.517l8.521-20.049 212.748 83.234 212.747-83.234 8.522 20.049z"/><path d="M242.773 201.405h22.564v81.112h-22.564zm0 86.635h22.564v181.377h-22.564z"/></g><path d="M128 128h244v244H128z" fill="#F7DF1E"/><path d="M192.157 331.905l18.672-11.301c3.602 6.387 6.879 11.791 14.74 11.791 7.534 0 12.284-2.948 12.284-14.412v-77.964h22.931v78.289c0 23.749-13.922 34.559-34.232 34.559-18.343 0-28.991-9.5-34.396-20.965m81.082-2.455l18.67-10.81c4.916 8.027 11.303 13.923 22.604 13.923 9.501 0 15.559-4.751 15.559-11.302 0-7.862-6.223-10.646-16.706-15.232l-5.731-2.457c-16.544-7.042-27.518-15.887-27.518-34.559 0-17.197 13.103-30.301 33.577-30.301 14.578 0 25.06 5.078 32.593 18.345l-17.853 11.465c-3.932-7.042-8.188-9.827-14.74-9.827-6.715 0-10.974 4.259-10.974 9.827 0 6.879 4.259 9.664 14.085 13.923l5.732 2.456c19.49 8.353 30.464 16.87 30.464 36.033 0 20.637-16.214 31.938-37.998 31.938-21.292 0-35.051-10.154-41.765-23.421" fill="#2F2B00"/></svg>