<svg xmlns="http://www.w3.org/2000/svg" width="500" height="500" viewBox="0 0 500 500"><path fill="#FFF" d="M260.414 30.337l70.132 57.823h-50.34l-30.208-24.904-30.205 24.904h-50.341l70.376-58.024c6.097-5.015 14.794-4.77 20.586.201zm-.019 234.9l41.704 34.616 117.038-97.146-40.565-33.446v-41.504l74.844 61.707 21.457 16.965c.084 1.063.127 2.136.127 3.219V432.76c0 11.203-4.593 21.398-11.971 28.776-7.379 7.378-17.574 11.973-28.778 11.973H65.749c-11.208 0-21.407-4.587-28.787-11.967C29.589 454.17 25 443.982 25 432.76V209.647c0-1.081.045-2.156.128-3.219l21.454-16.965 74.842-61.707v41.504L80.86 202.707l117.038 97.146-2.303 1.911 44.171-36.663c6.083-5.06 14.814-4.843 20.629.136zm182.464-40.624l-115.701 96.038-5.643-4.681 121.344 100.717V224.613zm-20.381 216.755l-172.48-143.162L77.519 441.368h344.959zM57.14 416.685l115.701-96.034L57.14 224.614v192.071z"/><path fill="#59AC71" d="M121.425 80.121H386.61v149.584l-16.074 13.342V96.195H129.462v146.852l-16.074-13.342V80.121h8.037z"/><path fill="#59AC71" d="M169.649 125.392h160.703c4.425 0 8.035 3.611 8.035 8.036 0 4.424-3.61 8.034-8.035 8.034H169.649c-4.425 0-8.036-3.61-8.036-8.034 0-4.424 3.61-8.036 8.036-8.036zm0 32.533h160.703c4.425 0 8.035 3.61 8.035 8.035s-3.61 8.034-8.035 8.034H169.649c-4.425 0-8.036-3.609-8.036-8.034s3.61-8.035 8.036-8.035zm0 32.531h160.703c4.425 0 8.035 3.61 8.035 8.035s-3.61 8.035-8.035 8.035H169.649c-4.425 0-8.036-3.61-8.036-8.035s3.61-8.035 8.036-8.035zm0 32.531h160.703c4.425 0 8.035 3.61 8.035 8.035s-3.61 8.035-8.035 8.035H169.649c-4.425 0-8.036-3.61-8.036-8.035s3.61-8.035 8.036-8.035z"/></svg>