<svg xmlns="http://www.w3.org/2000/svg" width="500" height="500" viewBox="170.945 47.64 500 500"><path fill="#CFCE7A" d="M608.933 484.39V254.885H232.956V484.39h164.491v19.125h-70.495v19.125h187.987v-19.124h-70.496V484.39h164.49zM279.956 293.135h281.981v153.004H279.956V293.135z"/><path fill="#FFF" d="M589.424 245.355H484.857c-8.625 0-15.684-7.286-15.684-16.191V88.833c0-8.904 7.058-16.191 15.684-16.191h104.566c8.628 0 15.686 7.287 15.686 16.191v140.331c0 8.905-7.057 16.191-15.685 16.191zM537.141 78.039c-2.886 0-5.228 2.418-5.228 5.396 0 2.98 2.342 5.397 5.228 5.397s5.228-2.418 5.228-5.396c0-2.978-2.342-5.396-5.228-5.397zm47.056 16.19h-94.111v129.538h94.111V94.229zm-136.395-8.081v63.031c0 7.429-5.889 13.507-13.084 13.507H321.324c-7.198 0-13.086-6.078-13.086-13.507V86.148c0-7.431 5.888-13.508 13.084-13.508h113.395c7.196 0 13.084 6.077 13.084 13.508h.001zm-6.542 49.526V99.653h-4.361v36.02l4.361.001zm-124.299-18.011c0 4.975 3.904 9.004 8.725 9.004 4.818 0 8.722-4.029 8.722-9.004 0-4.976-3.903-9.006-8.723-9.006s-8.725 4.03-8.724 9.006zm26.169-36.02v72.038h87.227V81.643H343.13zm-9.587 100.788v56.632c0 3.46-2.743 6.292-6.096 6.292h-85.333c-3.354 0-6.096-2.832-6.096-6.292v-56.632c0-3.461 2.743-6.291 6.096-6.291h85.332c3.354 0 6.097 2.83 6.097 6.291zm-93.124 28.317c0 2.701 2.123 4.896 4.74 4.896 2.619 0 4.743-2.194 4.743-4.896 0-2.703-2.123-4.896-4.743-4.896-2.616 0-4.74 2.193-4.74 4.896zm13.884-28.317v56.632h67.049v-56.632h-67.049zm193.499 0v56.632c0 3.46-2.743 6.292-6.096 6.292H356.37c-3.353 0-6.094-2.832-6.094-6.292v-56.632c0-3.461 2.742-6.291 6.094-6.291h85.336c3.353 0 6.096 2.83 6.096 6.291zm-93.125 28.317c0 2.701 2.124 4.896 4.741 4.896s4.743-2.194 4.743-4.896c0-2.703-2.124-4.896-4.743-4.896-2.617 0-4.74 2.193-4.741 4.896zm13.884-28.317v56.632h67.05v-56.632h-67.05z"/></svg>