<svg xmlns="http://www.w3.org/2000/svg" width="500" height="500" viewBox="0 0 500 500"><path fill="none" d="M0 0h500v500H0z"/><g fill="#FFF"><path d="M165.018 201.67L22 142.763V78.086L165.018 21l143.018 58.3v63.766l-143.018 58.301zM40.522 130.92l124.496 50.709 124.495-50.405V91.75L165.018 40.13 40.522 91.75v39.474z"/><path d="M165.018 320.7L31.413 266.651V142.763h18.826v111.135l114.779 46.458 114.779-46.458V142.763h18.826v123.28z"/><path d="M165.018 147.014L28.68 91.446l5.162-13.057 131.176 53.442 131.176-53.442 4.858 13.057z"/><path d="M158.034 142.763h13.968v51.62h-13.968zm0 55.567h13.968v115.993h-13.968z"/></g><path d="M22 251h451.289v153.173H247.644V429H147.563v-24.827H22V251zm25.483 127.411h50.04v-76.822h25.021v76.822h25.019V277.232H47.483v101.179zM172.12 276.763l.463 127.88h49.577v-25.295h50.041V276.763H172.12zm49.577 24.358h26.41v51.995h-26.41v-51.995zm75.988-24.358v101.18h50.04v-76.354h25.02v75.884h25.02v-75.416h25.02v75.886h25.02v-101.18h-150.12z" fill="#81B6D2"/></svg>