<svg xmlns="http://www.w3.org/2000/svg" width="500" height="500" viewBox="0 0 500 500"><path fill="none" d="M0 0h500v500H0z"/><g fill="#FFF"><path d="M165.018 201.67L22 142.763V78.086L165.018 21l143.018 58.3v63.766l-143.018 58.301zM40.522 130.92l124.496 50.709 124.495-50.405V91.75L165.018 40.13 40.522 91.75v39.474z"/><path d="M165.018 320.7L31.413 266.651V142.763h18.826v111.135l114.779 46.458 114.779-46.458V142.763h18.826v123.28z"/><path d="M165.018 147.014L28.68 91.446l5.162-13.057 131.176 53.442 131.176-53.442 4.858 13.057z"/><path d="M158.034 139.726h13.968v51.62h-13.968zm0 55.568h13.968v115.993h-13.968z"/></g><path d="M297.667 212c-97.942 0-177.334 79.392-177.334 177.333 0 32.346 8.796 62.564 23.923 88.667h306.822C466.204 451.897 475 421.679 475 389.333 475 291.392 395.608 212 297.667 212zm85.687 98.509l-53.98 80.97c2.323 4.717 3.759 9.966 3.759 15.588 0 19.595-15.871 35.466-35.466 35.466-19.596 0-35.467-15.871-35.467-35.466 0-19.596 15.871-35.467 35.467-35.467.744 0 1.454.177 2.181.213l53.998-80.988c5.426-8.158 16.439-10.357 24.596-4.912 8.14 5.444 10.339 16.438 4.912 24.596z" fill="#F87049"/></svg>