<svg xmlns="http://www.w3.org/2000/svg" width="500" height="500" viewBox="0 0 500 500"><path d="M246.214 110.782c-59.795 0-97.156 29.717-112.112 89.151 22.424-29.717 48.583-40.859 78.476-33.434 17.055 4.236 29.251 16.537 42.739 30.157 21.984 22.178 47.431 47.844 102.999 47.844 59.786 0 97.156-29.717 112.102-89.142-22.415 29.717-48.573 40.858-78.466 33.425-17.064-4.236-29.26-16.537-42.748-30.148-21.985-22.195-47.423-47.853-102.99-47.853zM134.102 244.5c-59.785 0-97.156 29.717-112.102 89.151 22.424-29.717 48.582-40.859 78.466-33.434 17.064 4.236 29.261 16.537 42.748 30.157 21.985 22.178 47.423 47.844 103 47.844 59.785 0 97.156-29.708 112.102-89.142-22.424 29.717-48.582 40.858-78.475 33.433-17.055-4.244-29.252-16.545-42.739-30.156-21.985-22.178-47.432-47.853-103-47.853z" fill="#06B6D4"/></svg>