<svg xmlns="http://www.w3.org/2000/svg" width="500" height="500" viewBox="0 0 500 500"><path d="M143.542 466a9.04 9.04 0 01-9.042-9.042V41.042A9.04 9.04 0 01143.542 32c5 0 9.041 4.051 9.041 9.042v415.916a9.039 9.039 0 01-9.041 9.042z" fill="#82DBAB"/><path d="M243 466a9.04 9.04 0 01-9.042-9.042V41.042A9.04 9.04 0 01243 32c5 0 9.042 4.051 9.042 9.042v415.916A9.04 9.04 0 01243 466z" fill="#59AC71"/><path d="M342.458 466c-5 0-9.041-4.051-9.041-9.042V41.042A9.039 9.039 0 01342.458 32c5 0 9.042 4.051 9.042 9.042v415.916a9.04 9.04 0 01-9.042 9.042z" fill="#14A557"/><path d="M450.958 158.583H35.042c-5 0-9.042-4.05-9.042-9.041a9.04 9.04 0 019.042-9.042h415.916c5 0 9.042 4.051 9.042 9.042a9.039 9.039 0 01-9.042 9.041z" fill="#82DBAB"/><path d="M450.958 258.042H35.042A9.04 9.04 0 0126 249a9.04 9.04 0 019.042-9.042h415.916c5 0 9.042 4.051 9.042 9.042a9.04 9.04 0 01-9.042 9.042z" fill="#59AC71"/><path d="M450.958 357.5H35.042A9.04 9.04 0 0126 348.458a9.039 9.039 0 019.042-9.041h415.916c5 0 9.042 4.05 9.042 9.041a9.04 9.04 0 01-9.042 9.042z" fill="#14A557"/></svg>