<svg xmlns="http://www.w3.org/2000/svg" width="500" height="500" viewBox="0 0 500 500"><path d="M64.109 228.5l17.92-72.064 6.029-1.024v-13.44H59.001v13.44l8.374 1.024c-9.462 41.6-10.3 45.568-11.137 49.28-.837-4.608-1.507-7.68-10.718-49.28l8.206-1.024v-13.44H24v13.44l5.861 1.024L47.53 228.5zm42.241 0v-13.44l-8.373-1.024 2.428-10.24h16.998l2.429 10.24-8.123 1.024v13.44h29.392v-13.44l-5.946-1.024-17.165-72.064h-17.501l-17.501 72.064-6.029 1.024v13.44zm-2.428-42.112c3.349-15.232 4.271-20.48 5.192-25.216.753 4.992 1.507 9.344 4.689 25.216zm70.003 42.112v-13.44l-7.788-1.152v-19.84h3.852c1.507.896 2.847 2.816 4.522 7.424 1.675 4.48 2.931 8.704 5.192 14.72 2.763 7.424 6.447 12.672 13.062 12.672 3.182 0 7.201-.384 9.797-1.024l-.753-16c-.921.256-1.843.384-2.345.384-3.601 0-5.778-1.536-7.787-6.656-1.005-2.688-2.764-7.168-3.517-8.704-1.424-3.328-2.68-5.248-4.271-6.4 7.453-3.584 12.058-10.752 12.058-25.216 0-11.136-4.103-18.304-10.048-21.12-3.517-1.664-7.787-2.176-12.644-2.176h-29.056v13.44l8.038 1.152v57.344l-8.038 1.152v13.44zm-7.788-50.688v-19.2h5.025c3.014 0 5.442.384 6.866 1.536 1.758 1.408 2.847 3.328 2.847 8.448 0 3.2-.586 5.76-2.512 7.424-2.01 1.664-5.108 1.792-8.625 1.792zm68.998 50.688v-13.44l-8.038-1.152v-57.344l8.038-1.152v-13.44h-30.061v13.44l8.039 1.152v57.344l-8.039 1.152v13.44zm31.652 0v-13.44l-8.373-1.024 2.428-10.24h16.998l2.429 10.24-8.123 1.024v13.44h29.391v-13.44l-5.945-1.024-17.166-72.064h-17.5l-17.501 72.064-6.029 1.024v13.44zm-2.428-42.112c3.349-15.232 4.27-20.48 5.192-25.216.753 4.992 1.507 9.344 4.689 25.216zm40.277 42.112h21.352c5.275 0 9.797-.128 16.077-1.536 9.044-2.048 14.738-9.984 14.738-24.064 0-12.288-4.857-18.688-13.565-20.224 7.871-3.584 11.22-9.728 11.22-20.352s-3.935-16.896-12.309-19.072c-3.517-.896-10.551-1.28-15.324-1.28h-22.189v13.44l8.038 1.152v57.344l-8.038 1.152zm21.938-36.096h4.187c1.591 0 3.517.128 5.192.384 3.684.512 5.777 3.84 5.777 9.344 0 4.736-1.423 7.424-3.935 8.832-1.675.896-4.354.896-6.448.896h-4.773zm0-16.512v-17.28h4.606c2.009 0 4.605.256 5.861 1.28 1.759 1.408 2.763 3.456 2.763 7.04 0 4.48-1.507 7.04-3.768 8.064-1.423.64-3.517.896-5.61.896zm85.243 52.608c.502-4.224.837-10.88.837-30.464h-9.462l-1.256 13.696h-16.914v-55.168l8.792-1.152v-13.44h-30.815v13.44l8.039 1.152v57.344l-8.039 1.152v13.44zm54.679 0c.502-4.096.837-11.008.837-30.464h-9.462l-1.256 13.696h-16.914v-18.816h16.244V175.38h-16.244v-15.872h15.156l1.256 11.264h9.378c0-19.2-.586-25.472-1.088-28.8h-46.725v13.44l8.039 1.152v57.344l-8.039 1.152v13.44z" fill="#EDAC54"/><path d="M76.352 334v-13.44l-15.232-1.024v-19.968h25.984v-17.536H61.12v-17.024h23.296l1.92 11.264h14.208c0-19.2-.768-25.472-1.536-28.8H27.456v13.44l12.288 1.152v57.344l-12.288 1.152V334zm118.144-45.568c0-28.416-13.696-43.264-40.576-43.264-28.928 0-43.776 15.744-43.776 47.36 0 28.8 15.616 43.776 40.832 43.776 27.776 0 43.52-16.512 43.52-47.872zm-23.04 3.072c0 20.864-8.192 27.392-19.2 27.392-9.856 0-19.456-5.504-19.456-29.312 0-17.408 6.272-27.008 20.096-27.008 14.336 0 18.56 9.984 18.56 28.928zM249.536 334v-13.44l-12.032-1.152c0-31.104-.256-39.68-.64-46.848 4.224 8.576 7.808 16.256 30.848 61.44h24.832v-71.936l10.624-1.152v-13.44h-42.624v13.696l10.752.896c0 10.112 0 24.448.64 37.888-5.76-13.568-8.576-19.072-26.112-52.48H203.84v13.44l12.288 1.152v57.344l-12.288 1.152V334zm125.824 0v-13.44l-12.416-1.152v-54.4h14.08l2.304 15.232h13.952c0-20.352-.512-29.696-1.28-32.768h-79.744c-.768 4.864-1.152 11.008-1.152 32.768h14.08l2.304-15.232h14.208v54.4l-12.416 1.152V334zm24.192-32.128c0 14.976.64 24.192 1.792 29.696 6.528 2.816 16.896 4.736 30.208 4.736 25.856 0 36.736-12.416 36.736-26.496 0-13.184-3.584-19.84-25.088-27.52l-10.88-3.968c-5.888-2.048-7.168-4.736-7.168-8.576 0-3.712 2.688-7.552 12.8-7.552 3.712 0 8.448.64 12.16 1.664l1.536 13.824h14.848c0-14.08-.256-26.496-1.28-29.312-6.528-1.664-17.152-3.072-25.472-3.072-26.752 0-36.992 12.288-36.992 27.136 0 15.872 9.088 22.016 21.504 25.856l11.264 3.328c7.424 2.304 9.728 5.12 9.728 9.6 0 4.608-3.072 8.064-11.136 8.064-5.632 0-11.264-.768-17.152-2.56l-2.048-14.848z" fill="#FFF"/></svg>