<svg xmlns="http://www.w3.org/2000/svg" width="500" height="500" viewBox="0 0 500 500"><path d="M88.084 135.258L50.592 70.316C74.599 40.262 111.551 21 153.006 21c47.961 0 89.891 25.775 112.719 64.226H158.828a66.782 66.782 0 00-5.826-.258c-31.183 0-57.462 21.403-64.922 50.29zM199.91 104.16h75.087c5.818 14.824 9.015 30.963 9.015 47.85 0 71.857-57.851 130.188-129.52 130.986l53.578-92.797c7.545-10.845 11.975-24.007 11.975-38.189 0-18.721-7.718-35.674-20.135-47.85zm-94.496 47.846c0-26.242 21.35-47.592 47.592-47.592 26.242 0 47.592 21.35 47.592 47.592 0 26.242-21.35 47.592-47.592 47.592-26.242 0-47.592-21.35-47.592-47.592zm65.548 64.594l-37.504 64.959C70.378 272.122 22 217.714 22 152.006c0-23.339 6.112-45.25 16.81-64.23l53.483 92.638c10.714 22.799 33.898 38.631 60.713 38.631 6.219 0 12.241-.856 17.956-2.445z" fill="#FFF"/><path d="M295.667 211c-97.942 0-177.334 79.392-177.334 177.333 0 32.346 8.796 62.564 23.923 88.667h306.822C464.204 450.897 473 420.679 473 388.333 473 290.392 393.608 211 295.667 211zm85.687 98.509l-53.98 80.97c2.323 4.717 3.759 9.966 3.759 15.588 0 19.595-15.871 35.466-35.466 35.466-19.596 0-35.467-15.871-35.467-35.466 0-19.596 15.871-35.467 35.467-35.467.744 0 1.454.177 2.181.213l53.998-80.988c5.426-8.158 16.439-10.357 24.596-4.912 8.14 5.444 10.339 16.438 4.912 24.596z" fill="#F87049"/></svg>