<svg xmlns="http://www.w3.org/2000/svg" width="500" height="500" viewBox="0 0 500 500"><path d="M247.5 28c-15.145 0-27.437 12.292-27.437 27.438v54.874c0 15.146 12.292 27.438 27.437 27.438 15.146 0 27.438-12.292 27.438-27.438V55.438C274.938 40.292 262.646 28 247.5 28zm0 329.25c-15.145 0-27.437 12.265-27.437 27.438v54.874c0 15.173 12.292 27.438 27.437 27.438 15.146 0 27.438-12.265 27.438-27.438v-54.874c0-15.173-12.292-27.438-27.438-27.438zm116.39-187.343l38.797-38.824c10.728-10.701 10.728-28.096 0-38.797-10.701-10.728-28.069-10.728-38.797 0l-38.797 38.797c-10.728 10.728-10.728 28.096 0 38.824 10.728 10.7 28.096 10.7 38.797 0zM131.083 325.093L92.286 363.89c-10.728 10.728-10.728 28.096 0 38.796 10.701 10.729 28.069 10.729 38.797 0l38.796-38.796c10.728-10.728 10.728-28.069 0-38.797-10.7-10.7-28.068-10.7-38.796 0zm232.807 0c-10.728-10.728-28.069-10.728-38.797 0-10.728 10.728-10.728 28.069 0 38.797l38.797 38.796c10.728 10.729 28.096 10.729 38.797 0 10.728-10.7 10.728-28.068 0-38.796l-38.797-38.797zm75.672-105.031h-54.874c-15.173 0-27.438 12.293-27.438 27.438 0 15.146 12.265 27.438 27.438 27.438h54.874c15.173 0 27.438-12.292 27.438-27.438 0-15.145-12.265-27.438-27.438-27.438z" fill="#F87049"/><path d="M133.083 94.286c-10.728-10.728-28.096-10.728-38.797 0-10.728 10.701-10.728 28.096 0 38.797l38.797 38.824c10.728 10.7 28.096 10.7 38.796 0 10.728-10.728 10.728-28.096 0-38.824l-38.796-38.797zM139.75 249.5c0-15.145-12.292-27.438-27.438-27.438H57.437C42.292 222.062 30 234.355 30 249.5c0 15.146 12.292 27.438 27.437 27.438h54.875c15.146 0 27.438-12.292 27.438-27.438z" fill="#FFAF98"/></svg>