<svg xmlns="http://www.w3.org/2000/svg" width="500" height="500" viewBox="0 0 500 500"><path d="M175.875 197l-17.25-25c-17.75 12.5-36.75 16.25-48.75 16.25-26 0-40.5-19.25-40.5-50.5 0-42.5 18.75-58.25 46.25-58.25 5.5 0 13.25.75 20 3l3.5 28h30.5c0-38.75-.75-50.25-2.5-58.25-16.75-4-31.5-6.25-55.5-6.25-56.25 0-86.25 34-86.25 93.25 0 52.25 29.5 84.75 76.5 84.75 29.25 0 54.5-11.75 74-27zm13.5-40.25c0 29.25 1.25 47.25 3.5 58 12.75 5.5 33 9.25 59 9.25 50.5 0 71.75-24.25 71.75-51.75 0-25.75-7-38.75-49-53.75l-21.25-7.75c-11.5-4-14-9.25-14-16.75 0-7.25 5.25-14.75 25-14.75 7.25 0 16.5 1.25 23.75 3.25l3 27h29c0-27.5-.5-51.75-2.5-57.25-12.75-3.25-33.5-6-49.75-6-52.25 0-72.25 24-72.25 53 0 31 17.75 43 42 50.5l22 6.5c14.5 4.5 19 10 19 18.75 0 9-6 15.75-21.75 15.75-11 0-22-1.5-33.5-5l-4-29zm149.708 0c0 29.25 1.25 47.25 3.5 58 12.75 5.5 33 9.25 59 9.25 50.5 0 71.75-24.25 71.75-51.75 0-25.75-7-38.75-49-53.75l-21.25-7.75c-11.5-4-14-9.25-14-16.75 0-7.25 5.25-14.75 25-14.75 7.25 0 16.5 1.25 23.75 3.25l3 27h29c0-27.5-.5-51.75-2.5-57.25-12.75-3.25-33.5-6-49.75-6-52.25 0-72.25 24-72.25 53 0 31 17.75 43 42 50.5l22 6.5c14.5 4.5 19 10 19 18.75 0 9-6 15.75-21.75 15.75-11 0-22-1.5-33.5-5l-4-29z" fill="#FFF"/><path d="M375.333 470v-19.5c-15 0-26-6.25-26-29.75V394c0-20.25-9.75-32.5-26.25-35.75 17.75-5 26.25-15.5 26.25-37.75v-29c0-22.25 11-25.5 26-25.5v-19.75c-42.75 0-60.25 11.75-60.25 44.25v25.75c0 20.75-5 32-24 34.25V366c17.5 1.75 24 10.75 24 33.75v27.5c0 33.25 19.5 42.75 60.25 42.75zm13.5-223.75V266c15.25 0 26.25 6 26.25 29.75v26.5c0 20.5 9.5 32.5 26 35.75-17.5 5-26 15.75-26 38v29c0 22-11 25.5-26.25 25.5V470c42.75 0 60.5-11.5 60.5-44v-26c0-20.75 5-31.75 23.75-34.25v-15.5c-17.25-1.5-23.75-10.5-23.75-33.5v-27.5c0-33.25-19.75-43-60.5-43z" fill="#5FA316"/></svg>