<svg xmlns="http://www.w3.org/2000/svg" width="500" height="500" viewBox="170.945 47.64 500 500"><g fill="#2687B2"><path d="M227.929 297.634c0 76.398 44.395 142.43 108.786 173.709l-92.072-252.262c-10.709 24.004-16.714 50.569-16.714 78.553m323.313-9.735c0-23.862-8.571-40.376-15.914-53.231-9.783-15.907-18.96-29.363-18.96-45.27 0-17.741 13.454-34.257 32.414-34.257.856 0 1.667.104 2.501.155-34.34-31.464-80.092-50.677-130.341-50.677-67.435 0-126.755 34.602-161.268 86.998 4.532.146 8.8.233 12.421.233 20.185 0 51.443-2.453 51.443-2.453 10.399-.609 11.629 14.676 1.235 15.907 0 0-10.462 1.222-22.09 1.832l70.284 209.076 42.245-126.682-30.068-82.395c-10.401-.61-20.246-1.832-20.246-1.832-10.403-.615-9.183-16.517 1.224-15.907 0 0 31.871 2.453 50.835 2.453 20.181 0 51.444-2.453 51.444-2.453 10.404-.609 11.632 14.676 1.23 15.907 0 0-10.471 1.222-22.088 1.832l69.754 207.483 19.256-64.325c8.334-26.706 14.689-45.875 14.689-62.394"/><path d="M424.332 314.519l-57.919 168.277a192.94 192.94 0 0054.529 7.866 192.68 192.68 0 0064.099-10.942 17.99 17.99 0 01-1.385-2.659l-59.324-162.542zm165.982-109.483c.83 6.148 1.297 12.742 1.297 19.85 0 19.577-3.666 41.596-14.678 69.131l-58.951 170.451c57.383-33.456 95.973-95.625 95.973-166.834 0-33.559-8.574-65.107-23.641-92.598"/><path d="M420.943 512.323c-118.372 0-214.679-96.313-214.679-214.688 0-118.372 96.307-214.674 214.679-214.674 118.374 0 214.682 96.302 214.682 214.674 0 118.375-96.309 214.688-214.682 214.688m0-439.682c-124.066 0-224.998 100.931-224.998 224.993 0 124.071 100.932 225.005 224.998 225.005s225.002-100.934 225.002-225.005c0-124.062-100.936-224.993-225.002-224.993"/></g></svg>