<?xml version="1.0" encoding="UTF-8"?>
<!DOCTYPE svg PUBLIC "-//W3C//DTD SVG 1.1//EN" "http://www.w3.org/Graphics/SVG/1.1/DTD/svg11.dtd">
<svg version="1.1" xmlns="http://www.w3.org/2000/svg" xmlns:xlink="http://www.w3.org/1999/xlink" x="0" y="0" width="178.148" height="60" viewBox="0, 0, 178.148, 60">
  <g id="Background">
    <rect x="0" y="0" width="178.148" height="60" fill="#FFFFFF"/>
  </g>
  <defs>
    <radialGradient id="Gradient_1" gradientUnits="userSpaceOnUse" cx="24.762" cy="39.673" r="24.822">
      <stop offset="0" stop-color="#259BD5"/>
      <stop offset="1" stop-color="#1A7BA8"/>
    </radialGradient>
    <radialGradient id="Gradient_2" gradientUnits="userSpaceOnUse" cx="25.863" cy="28.225" r="17.423">
      <stop offset="0" stop-color="#259BD5"/>
      <stop offset="1" stop-color="#259BD5" stop-opacity="0"/>
    </radialGradient>
    <linearGradient id="Gradient_3" gradientUnits="userSpaceOnUse" x1="5.344" y1="26.158" x2="35.103" y2="26.158">
      <stop offset="0.413" stop-color="#259BD5"/>
      <stop offset="0.451" stop-color="#259BD5" stop-opacity="0.91"/>
      <stop offset="0.829" stop-color="#259BD5" stop-opacity="0"/>
    </linearGradient>
    <linearGradient id="Gradient_4" gradientUnits="userSpaceOnUse" x1="24.655" y1="27.005" x2="24.655" y2="48.003">
      <stop offset="0" stop-color="#228FC1"/>
      <stop offset="0.081" stop-color="#5A9ECA"/>
      <stop offset="0.191" stop-color="#85B2D5"/>
      <stop offset="0.306" stop-color="#A8C6E0"/>
      <stop offset="0.424" stop-color="#C6D8EA"/>
      <stop offset="0.548" stop-color="#DDE7F2"/>
      <stop offset="0.679" stop-color="#EEF2F8"/>
      <stop offset="0.822" stop-color="#FAFBFD"/>
      <stop offset="1" stop-color="#FFFFFF"/>
    </linearGradient>
    <linearGradient id="Gradient_5" gradientUnits="userSpaceOnUse" x1="24.677" y1="23.601" x2="24.677" y2="38.602">
      <stop offset="0" stop-color="#17446C"/>
      <stop offset="0.06" stop-color="#385478"/>
      <stop offset="0.157" stop-color="#606E8D"/>
      <stop offset="0.26" stop-color="#828AA4"/>
      <stop offset="0.365" stop-color="#A1A6BA"/>
      <stop offset="0.473" stop-color="#BEC1CF"/>
      <stop offset="0.586" stop-color="#D7D8E0"/>
      <stop offset="0.706" stop-color="#EBEAEE"/>
      <stop offset="0.837" stop-color="#F8F8FA"/>
      <stop offset="1" stop-color="#FFFFFF"/>
    </linearGradient>
    <radialGradient id="Gradient_6" gradientUnits="userSpaceOnUse" cx="-110.411" cy="-175.485" r="6.769" gradientTransform="matrix(1.302, 0.663, -0.264, 0.519, 128.165, 175.841)">
      <stop offset="0.343" stop-color="#FFFFFF"/>
      <stop offset="0.986" stop-color="#FFFFFF" stop-opacity="0"/>
    </radialGradient>
  </defs>
  <g id="DE">
    <g>
      <path d="M61.389,25.35 L61.389,25.273 C64.167,24.502 66.752,22.186 66.752,19.023 C66.752,16.244 64.63,13.814 60.579,13.814 C58.457,13.814 56.334,14.508 54.791,15.434 L55.447,17.788 C56.527,17.055 58.187,16.437 60.039,16.437 C62.354,16.437 63.473,17.595 63.473,19.447 C63.473,22.65 59.73,24.154 57.453,24.154 L56.219,24.154 L55.717,26.585 L56.952,26.585 C59.768,26.585 62.122,27.859 62.122,30.868 C62.122,33.376 60.232,36.193 56.103,36.193 C53.904,36.193 52.36,35.421 51.434,34.842 L50.392,37.312 C51.203,38.045 53.363,38.855 55.987,38.855 C61.235,38.855 65.363,35.421 65.363,30.83 C65.402,28.283 64.013,26.006 61.389,25.35 z M72.926,34.109 C78.714,29.325 83.383,24.849 83.383,19.717 C83.383,16.823 81.646,13.775 77.093,13.775 C74.817,13.775 72.309,14.662 70.65,15.936 L71.421,18.174 C72.54,17.402 74.238,16.437 76.399,16.437 C79.177,16.437 80.18,18.367 80.18,20.141 C80.18,24.116 76.36,27.897 69.878,33.376 L66.251,36.386 L65.865,38.431 L80.527,38.431 L81.029,35.768 L70.842,35.768 L70.842,35.691 L72.926,34.109 z M93.762,14.238 L88.244,16.977 L88.592,19.447 L92.72,17.363 L92.797,17.363 L88.823,38.469 L91.794,38.469 L96.386,14.238 L93.762,14.238 z" fill="#676867"/>
      <path d="M102.868,35.768 L107.151,13.35 L104.064,13.35 L99.28,38.469 L112.476,38.469 L113.016,35.768 L102.868,35.768 z M116.296,20.412 L112.823,38.431 L115.91,38.431 L119.344,20.412 L116.296,20.412 z M118.611,17.363 C119.846,17.363 120.695,16.514 120.733,15.28 C120.733,14.161 120,13.35 118.881,13.35 C117.801,13.35 116.913,14.238 116.875,15.434 C116.875,16.553 117.531,17.363 118.611,17.363 z M135.511,25.003 C135.511,21.222 133.08,20.026 130.92,20.026 C128.296,20.026 125.865,21.453 124.244,23.961 L124.167,23.961 L124.63,20.412 L121.891,20.412 C121.698,21.916 121.428,23.653 121.042,25.659 L118.65,38.431 L121.698,38.431 L123.357,29.672 C124.167,25.196 127.293,22.572 129.492,22.572 C131.614,22.572 132.309,23.923 132.309,25.698 C132.309,26.469 132.193,27.318 132.077,28.013 L130.109,38.431 L133.158,38.431 L135.164,27.897 C135.357,26.932 135.511,25.814 135.511,25.003 z M143.691,22.418 C145.042,22.418 146.199,22.881 146.817,23.228 L147.666,20.875 C147.01,20.412 145.543,19.987 143.884,19.987 C140.064,19.987 137.363,22.418 137.363,25.543 C137.363,27.395 138.521,29.016 140.605,30.174 C142.495,31.215 143.151,32.064 143.151,33.492 C143.151,35.113 141.801,36.424 139.717,36.424 C138.212,36.424 136.707,35.846 135.859,35.305 L134.971,37.582 C135.781,38.199 137.556,38.778 139.486,38.817 C143.305,38.817 146.354,36.695 146.354,32.875 C146.354,30.868 145.003,29.248 142.997,28.129 C141.376,27.241 140.489,26.431 140.489,25.119 C140.489,23.576 141.839,22.418 143.691,22.418 z M162.096,24.656 C162.096,22.032 160.244,19.987 156.81,19.987 C150.984,19.987 146.971,26.122 146.971,31.563 C146.971,35.537 149.055,38.817 153.839,38.817 C156.27,38.817 158.469,38.161 159.82,37.389 L159.357,35.074 C158.238,35.653 156.617,36.309 154.495,36.309 C152.643,36.309 151.177,35.537 150.482,33.878 C150.058,32.913 149.942,31.215 150.096,30.444 C156.772,30.637 162.096,29.402 162.096,24.656 z M156.386,22.418 C158.006,22.418 159.125,23.228 159.125,24.695 C159.125,27.511 155.305,28.206 150.444,28.129 C151.215,25.273 153.415,22.418 156.386,22.418 z M173.209,19.987 C170.585,19.987 168.154,21.415 166.534,23.923 L166.457,23.923 L166.92,20.373 L164.18,20.373 C163.987,21.878 163.717,23.614 163.331,25.621 L160.9,38.431 L163.949,38.431 L165.608,29.672 C166.418,25.196 169.543,22.572 171.743,22.572 C173.865,22.572 174.559,23.923 174.559,25.698 C174.559,26.469 174.444,27.318 174.328,28.013 L172.36,38.431 L175.408,38.431 L177.415,27.897 C177.608,26.932 177.762,25.814 177.762,25.003 C177.801,21.222 175.37,19.987 173.209,19.987 z" fill="#1979A3"/>
    </g>
    <path d="M90.598,48.27 C90.444,47.846 90.174,47.576 89.788,47.46 C89.672,47.421 89.479,47.383 89.248,47.383 C88.592,47.421 87.974,47.846 87.396,48.695 C86.971,49.389 86.74,50.045 86.662,50.585 C86.547,51.203 86.624,51.704 86.855,52.167 C87.125,52.707 87.588,52.939 88.206,52.939 C88.476,52.939 88.785,52.862 89.209,52.707 C89.826,52.476 90.328,52.167 90.675,51.704 C90.714,51.666 90.675,51.627 90.675,51.588 C90.637,51.55 90.637,51.473 90.598,51.434 L90.405,51.434 L90.019,51.704 C89.904,51.781 89.672,51.897 89.325,51.974 C88.977,52.09 88.746,52.129 88.63,52.129 C88.322,52.129 88.051,52.013 87.82,51.743 C87.588,51.473 87.511,51.203 87.588,50.855 C87.588,50.778 87.627,50.701 87.666,50.662 C87.743,50.624 88.206,50.547 89.016,50.469 C89.749,50.392 90.174,50.354 90.328,50.354 C90.559,50.315 90.675,50.199 90.714,50.045 C90.752,49.891 90.752,49.775 90.752,49.659 C90.752,49.582 90.752,49.389 90.752,49.042 C90.675,48.733 90.637,48.463 90.598,48.27 z M89.788,49.505 C89.749,49.543 89.749,49.582 89.711,49.621 C89.672,49.659 89.556,49.698 89.363,49.736 C89.209,49.736 88.939,49.736 88.592,49.775 C88.244,49.814 87.974,49.814 87.781,49.814 C87.781,49.814 87.781,49.775 87.781,49.775 C87.781,49.736 87.781,49.736 87.781,49.659 C87.82,49.389 88.013,49.08 88.36,48.733 C88.707,48.386 88.977,48.232 89.248,48.232 C89.479,48.232 89.672,48.386 89.749,48.733 C89.826,49.042 89.826,49.273 89.788,49.505 z M95.614,47.074 C95.267,47.074 94.765,47.421 94.148,48.154 C93.646,48.733 93.183,49.389 92.759,50.122 C92.682,49.852 92.682,49.505 92.72,49.119 C92.759,48.733 92.759,48.386 92.643,48.154 C92.373,48.154 92.141,48.27 92.026,48.54 C91.987,48.656 91.91,48.849 91.871,49.119 C91.871,49.158 91.871,49.505 91.871,50.122 C91.871,50.778 91.871,51.203 91.871,51.434 C91.871,51.473 91.833,51.666 91.794,51.936 C91.756,52.167 91.756,52.322 91.756,52.399 C91.756,52.476 91.833,52.592 91.91,52.669 C91.987,52.746 92.103,52.823 92.18,52.823 C92.296,52.823 92.527,52.476 92.836,51.743 C93.26,50.778 93.646,50.045 93.916,49.621 C94.379,48.926 94.804,48.463 95.19,48.232 C95.383,48.386 95.344,49.35 95.035,51.087 C94.92,51.743 94.804,52.36 94.65,52.939 C94.611,53.093 94.65,53.17 94.727,53.286 C94.804,53.363 94.881,53.402 94.997,53.402 C95.151,53.402 95.305,53.17 95.46,52.746 C95.576,52.437 95.653,52.167 95.73,51.859 C95.923,50.971 96.077,50.199 96.154,49.505 C96.347,48.039 96.154,47.228 95.614,47.074 z M103.023,46.495 C102.598,46.495 102.212,46.611 101.788,46.842 C101.248,47.151 100.939,47.576 100.823,48.154 C100.746,48.502 100.862,48.965 101.209,49.582 C101.479,50.084 101.749,50.585 102.058,51.048 C102.212,51.396 102.289,51.743 102.212,52.051 C102.174,52.206 102.096,52.399 101.904,52.63 C101.633,52.9 101.441,53.016 101.248,53.016 C100.977,53.016 100.746,52.823 100.592,52.476 C100.437,52.051 100.322,51.82 100.206,51.743 C100.051,51.82 99.936,51.936 99.897,52.051 C99.859,52.167 99.859,52.244 99.82,52.244 C99.743,52.746 99.859,53.132 100.167,53.402 C100.437,53.633 100.823,53.749 101.286,53.749 C101.672,53.749 102.019,53.556 102.367,53.209 C102.675,52.862 102.868,52.553 102.945,52.244 C103.061,51.666 102.984,51.087 102.752,50.547 C102.675,50.354 102.444,49.968 102.019,49.35 C101.749,48.926 101.633,48.617 101.711,48.386 C101.749,48.154 101.865,47.923 102.058,47.73 C102.251,47.537 102.482,47.46 102.791,47.46 C103.023,47.46 103.138,47.537 103.177,47.691 C103.177,47.923 103.177,48.116 103.215,48.27 C103.254,48.386 103.331,48.463 103.408,48.463 L103.601,48.463 C103.678,48.463 103.756,48.424 103.833,48.347 C103.833,48.347 103.833,48.309 103.871,48.27 C103.91,48.232 103.91,48.193 103.91,48.154 C103.987,47.768 103.987,47.421 103.871,47.151 C103.756,46.688 103.447,46.495 103.023,46.495 z M55.215,44.875 C55.447,44.45 55.601,44.219 55.601,44.18 C55.601,44.064 55.601,43.987 55.524,43.91 C55.447,43.833 55.37,43.794 55.254,43.794 C54.752,43.794 53.518,46.032 51.511,50.547 C51.318,51.01 51.164,51.241 51.01,51.241 C50.624,50.392 50.431,49.466 50.354,48.386 C50.315,47.768 50.277,47.19 50.238,46.572 C50.199,46.032 50.277,45.338 50.392,44.489 C50.431,44.373 50.392,44.219 50.354,44.026 C50.354,44.026 50.315,43.871 50.199,43.64 L50.006,43.64 C49.852,43.64 49.736,43.678 49.582,43.756 C49.389,43.871 49.273,43.987 49.273,44.141 C49.235,44.257 49.273,44.836 49.312,45.839 C49.466,48.386 49.698,50.315 50.084,51.627 C50.161,51.897 50.238,52.129 50.277,52.399 C50.392,52.746 50.469,52.939 50.547,52.939 C50.547,52.939 50.624,52.939 50.701,52.977 C50.778,52.977 50.855,52.977 50.932,52.977 C51.01,52.977 51.087,52.939 51.125,52.9 C53.093,48.733 54.251,46.379 54.598,45.762 C54.752,45.646 54.907,45.376 55.215,44.875 z M105.762,47.923 C105.569,47.923 105.376,48.193 105.145,48.733 C104.99,49.119 104.875,49.505 104.836,49.852 C104.566,51.28 104.489,52.167 104.527,52.437 C104.527,52.514 104.605,52.592 104.72,52.746 C104.836,52.862 104.913,52.939 104.99,52.939 C105.068,52.9 105.222,52.823 105.338,52.707 C105.492,52.592 105.569,52.399 105.646,52.167 C105.646,52.013 105.646,51.897 105.569,51.781 C105.531,51.666 105.492,51.588 105.492,51.588 C105.453,51.28 105.531,50.778 105.646,50.084 C105.685,49.929 105.762,49.698 105.916,49.312 C106.071,48.926 106.148,48.695 106.148,48.656 C106.148,48.54 106.148,48.424 106.109,48.27 C106.032,48 105.916,47.923 105.762,47.923 z M81.068,47.074 C80.72,47.074 80.219,47.421 79.601,48.154 C79.1,48.733 78.637,49.389 78.212,50.122 C78.135,49.852 78.135,49.505 78.174,49.119 C78.212,48.733 78.212,48.386 78.096,48.154 C77.826,48.154 77.595,48.27 77.479,48.54 C77.441,48.656 77.363,48.849 77.325,49.119 C77.325,49.158 77.325,49.505 77.325,50.122 C77.325,50.778 77.325,51.203 77.325,51.434 C77.325,51.473 77.286,51.666 77.248,51.936 C77.209,52.167 77.209,52.322 77.209,52.399 C77.209,52.476 77.286,52.592 77.363,52.669 C77.441,52.746 77.556,52.823 77.633,52.823 C77.749,52.823 77.981,52.476 78.289,51.743 C78.714,50.778 79.1,50.045 79.37,49.621 C79.833,48.926 80.257,48.463 80.643,48.232 C80.836,48.386 80.797,49.35 80.489,51.087 C80.373,51.743 80.257,52.36 80.103,52.939 C80.064,53.093 80.103,53.17 80.18,53.286 C80.257,53.363 80.334,53.402 80.45,53.402 C80.605,53.402 80.759,53.17 80.913,52.746 C81.029,52.437 81.106,52.167 81.183,51.859 C81.376,50.971 81.531,50.199 81.608,49.505 C81.762,48.039 81.608,47.228 81.068,47.074 z M75.743,47.923 C75.55,47.923 75.357,48.193 75.125,48.733 C74.971,49.119 74.855,49.505 74.817,49.852 C74.547,51.28 74.469,52.167 74.508,52.437 C74.508,52.514 74.585,52.592 74.701,52.746 C74.817,52.862 74.894,52.939 74.971,52.939 C75.048,52.9 75.203,52.823 75.318,52.707 C75.473,52.592 75.55,52.399 75.627,52.167 C75.627,52.013 75.627,51.897 75.55,51.781 C75.511,51.666 75.473,51.588 75.473,51.588 C75.434,51.28 75.511,50.778 75.627,50.084 C75.666,49.929 75.743,49.698 75.897,49.312 C76.051,48.926 76.129,48.695 76.129,48.656 C76.129,48.54 76.129,48.424 76.09,48.27 C76.051,48 75.936,47.923 75.743,47.923 z M76.592,44.72 C76.437,44.72 76.283,44.759 76.09,44.836 C75.859,44.952 75.743,45.068 75.704,45.183 C75.704,45.299 75.704,45.415 75.743,45.531 C75.781,45.646 75.859,45.801 76.013,45.955 C76.013,45.955 76.129,45.955 76.283,45.994 C76.476,45.955 76.63,45.839 76.785,45.685 C76.9,45.531 76.977,45.415 76.977,45.338 C76.977,45.299 76.977,45.183 76.939,45.029 C76.9,44.836 76.785,44.759 76.592,44.72 z M63.357,47.074 C63.01,47.074 62.508,47.421 61.891,48.154 C61.389,48.733 60.926,49.389 60.502,50.122 C60.424,49.852 60.424,49.505 60.463,49.119 C60.502,48.733 60.502,48.386 60.386,48.154 C60.116,48.154 59.884,48.27 59.768,48.54 C59.73,48.656 59.653,48.849 59.614,49.119 C59.614,49.158 59.614,49.505 59.614,50.122 C59.614,50.778 59.614,51.203 59.614,51.434 C59.614,51.473 59.576,51.666 59.537,51.936 C59.498,52.167 59.498,52.322 59.498,52.399 C59.498,52.476 59.576,52.592 59.653,52.669 C59.73,52.746 59.846,52.823 59.923,52.823 C60.039,52.823 60.27,52.476 60.579,51.743 C61.003,50.778 61.389,50.045 61.659,49.621 C62.122,48.926 62.547,48.463 62.932,48.232 C63.125,48.386 63.087,49.35 62.778,51.087 C62.662,51.743 62.547,52.36 62.392,52.939 C62.354,53.093 62.392,53.17 62.469,53.286 C62.547,53.363 62.624,53.402 62.74,53.402 C62.894,53.402 63.048,53.17 63.203,52.746 C63.318,52.437 63.396,52.167 63.473,51.859 C63.666,50.971 63.82,50.199 63.897,49.505 C64.09,48.039 63.897,47.228 63.357,47.074 z M57.994,47.653 C57.531,47.305 57.068,47.151 56.643,47.228 C55.987,47.305 55.408,47.923 54.868,49.003 C54.482,49.775 54.251,50.431 54.135,51.01 C54.019,51.55 54.058,52.013 54.289,52.476 C54.598,52.939 55.023,53.17 55.563,53.17 C56.257,53.17 56.875,52.746 57.453,51.897 C57.916,51.125 58.225,50.392 58.379,49.736 C58.457,49.35 58.457,48.965 58.418,48.617 C58.418,48.154 58.264,47.846 57.994,47.653 z M57.685,49.621 C57.608,50.084 57.415,50.662 57.029,51.28 C56.605,52.013 56.18,52.399 55.794,52.399 C55.408,52.399 55.138,52.206 55.023,51.781 C54.945,51.473 54.984,51.087 55.138,50.585 C55.215,50.315 55.331,50.006 55.447,49.698 C55.871,48.617 56.373,48.077 56.952,48.077 C57.222,48.077 57.453,48.27 57.569,48.656 C57.685,48.965 57.723,49.273 57.685,49.621 z M85.312,46.495 C84.887,46.495 84.502,46.611 84.077,46.842 C83.537,47.151 83.228,47.576 83.113,48.154 C83.035,48.502 83.151,48.965 83.498,49.582 C83.768,50.084 84.039,50.585 84.347,51.048 C84.502,51.396 84.579,51.743 84.502,52.051 C84.463,52.206 84.386,52.399 84.193,52.63 C83.923,52.9 83.73,53.016 83.537,53.016 C83.267,53.016 83.035,52.823 82.881,52.476 C82.727,52.051 82.611,51.82 82.495,51.743 C82.341,51.82 82.225,51.936 82.187,52.051 C82.148,52.167 82.148,52.244 82.109,52.244 C82.032,52.746 82.148,53.132 82.457,53.402 C82.727,53.633 83.113,53.749 83.576,53.749 C83.961,53.749 84.309,53.556 84.656,53.209 C84.965,52.862 85.158,52.553 85.235,52.244 C85.35,51.666 85.273,51.087 85.042,50.547 C84.965,50.354 84.733,49.968 84.309,49.35 C84.039,48.926 83.923,48.617 84,48.386 C84.039,48.154 84.154,47.923 84.347,47.73 C84.54,47.537 84.772,47.46 85.08,47.46 C85.312,47.46 85.428,47.537 85.466,47.691 C85.466,47.923 85.466,48.116 85.505,48.27 C85.543,48.386 85.621,48.463 85.698,48.463 L85.891,48.463 C85.968,48.463 86.045,48.424 86.122,48.347 C86.122,48.347 86.122,48.309 86.161,48.27 C86.199,48.232 86.199,48.193 86.199,48.154 C86.277,47.768 86.277,47.421 86.161,47.151 C86.045,46.688 85.775,46.495 85.312,46.495 z M72.347,51.666 L69.183,52.013 C68.836,52.09 68.913,50.431 69.453,47.113 C69.492,46.92 69.608,46.611 69.762,46.186 C69.955,45.801 70.032,45.492 70.071,45.338 C70.225,44.412 70.264,43.794 70.148,43.563 L69.801,43.563 C69.646,43.563 69.531,43.64 69.453,43.717 C69.376,43.833 69.299,44.026 69.222,44.296 C69.222,44.412 69.145,44.797 69.068,45.453 C68.952,46.109 68.836,46.65 68.72,46.997 C68.605,47.768 68.45,48.502 68.334,49.273 C68.219,50.045 68.141,50.894 68.141,51.743 C68.103,52.167 68.026,52.476 67.987,52.707 C68.026,52.9 68.141,53.016 68.334,53.093 C71.267,52.63 73.119,52.283 73.775,52.09 L73.814,51.936 C73.736,51.704 73.235,51.627 72.347,51.666 z M117.415,44.334 C117.106,44.334 116.797,44.797 116.489,45.685 C116.373,46.032 116.219,46.572 116.026,47.267 C115.91,47.383 115.871,47.46 115.833,47.46 C115.794,47.344 115.756,47.267 115.64,47.267 C114.83,47.267 114.058,47.807 113.325,48.887 C112.746,49.736 112.399,50.585 112.244,51.396 C112.167,51.743 112.244,52.051 112.437,52.36 C112.669,52.707 112.939,52.862 113.325,52.862 C113.633,52.862 113.981,52.707 114.405,52.514 C114.752,52.244 115.061,51.974 115.293,51.743 C115.293,52.013 115.293,52.322 115.293,52.592 C115.293,53.016 115.37,53.248 115.486,53.248 C115.678,53.248 115.833,53.209 115.949,53.132 C116.141,51.743 116.257,50.701 116.373,49.968 C116.72,47.691 117.145,46.032 117.608,45.029 C117.646,44.913 117.685,44.836 117.723,44.759 C117.762,44.412 117.646,44.296 117.415,44.334 z M115.717,49.428 C115.64,49.929 115.447,50.354 115.177,50.778 C114.907,51.203 114.637,51.473 114.328,51.666 C114.251,51.743 114.135,51.781 114.058,51.859 C113.981,51.897 113.826,51.974 113.633,52.013 C113.441,52.013 113.286,51.936 113.209,51.743 C113.132,51.588 113.093,51.434 113.132,51.28 C113.209,50.74 113.479,50.161 113.904,49.543 C114.405,48.772 114.907,48.347 115.408,48.27 C115.524,48.309 115.64,48.502 115.678,48.887 C115.717,49.119 115.717,49.35 115.717,49.428 z M156.772,48.27 C156.617,47.846 156.347,47.576 155.961,47.46 C155.846,47.421 155.653,47.383 155.421,47.383 C154.765,47.421 154.148,47.846 153.569,48.695 C153.145,49.389 152.913,50.045 152.836,50.585 C152.72,51.203 152.797,51.704 153.029,52.167 C153.299,52.707 153.762,52.939 154.379,52.939 C154.65,52.939 154.958,52.862 155.383,52.707 C156,52.476 156.502,52.167 156.849,51.704 C156.887,51.666 156.849,51.627 156.849,51.588 C156.81,51.55 156.81,51.473 156.772,51.434 L156.579,51.434 L156.193,51.704 C156.077,51.781 155.846,51.897 155.498,51.974 C155.151,52.051 154.92,52.129 154.804,52.129 C154.495,52.129 154.225,52.013 153.994,51.743 C153.762,51.473 153.685,51.203 153.762,50.855 C153.762,50.778 153.801,50.701 153.839,50.662 C153.955,50.624 154.379,50.547 155.19,50.469 C155.923,50.392 156.347,50.354 156.502,50.354 C156.733,50.315 156.849,50.199 156.887,50.045 C156.926,49.891 156.926,49.775 156.926,49.659 C156.926,49.582 156.926,49.389 156.926,49.042 C156.849,48.733 156.849,48.463 156.772,48.27 z M155.961,49.505 C155.923,49.543 155.923,49.582 155.884,49.621 C155.846,49.659 155.73,49.698 155.537,49.736 C155.383,49.736 155.113,49.736 154.765,49.775 C154.418,49.814 154.148,49.814 153.955,49.814 C153.955,49.814 153.955,49.775 153.955,49.775 C153.955,49.736 153.955,49.736 153.955,49.659 C153.994,49.389 154.187,49.08 154.534,48.733 C154.881,48.386 155.151,48.232 155.421,48.232 C155.653,48.232 155.846,48.386 155.923,48.733 C156,49.042 156.039,49.273 155.961,49.505 z M160.553,46.495 C160.129,46.495 159.743,46.611 159.318,46.842 C158.778,47.151 158.469,47.576 158.354,48.154 C158.277,48.502 158.392,48.965 158.74,49.582 C159.01,50.084 159.28,50.585 159.588,51.048 C159.743,51.396 159.82,51.743 159.743,52.051 C159.704,52.206 159.627,52.399 159.434,52.63 C159.164,52.9 158.971,53.016 158.778,53.016 C158.508,53.016 158.277,52.823 158.122,52.476 C157.968,52.051 157.852,51.82 157.736,51.743 C157.582,51.82 157.466,51.936 157.428,52.051 C157.389,52.167 157.389,52.244 157.35,52.244 C157.273,52.746 157.389,53.132 157.698,53.402 C157.968,53.633 158.354,53.749 158.817,53.749 C159.203,53.749 159.55,53.556 159.897,53.209 C160.206,52.862 160.399,52.553 160.476,52.244 C160.592,51.666 160.514,51.087 160.283,50.547 C160.206,50.354 159.974,49.968 159.55,49.35 C159.28,48.926 159.164,48.617 159.241,48.386 C159.28,48.154 159.396,47.923 159.588,47.73 C159.781,47.537 160.013,47.46 160.322,47.46 C160.553,47.46 160.669,47.537 160.707,47.691 C160.707,47.923 160.707,48.116 160.746,48.27 C160.785,48.386 160.862,48.463 160.939,48.463 L161.132,48.463 C161.209,48.463 161.286,48.424 161.363,48.347 C161.363,48.347 161.363,48.309 161.402,48.27 C161.441,48.232 161.441,48.193 161.441,48.154 C161.518,47.768 161.518,47.421 161.402,47.151 C161.286,46.688 161.016,46.495 160.553,46.495 z M151.524,46.495 C151.1,46.495 150.714,46.611 150.289,46.842 C149.749,47.151 149.441,47.576 149.325,48.154 C149.248,48.502 149.363,48.965 149.711,49.582 C149.981,50.084 150.251,50.585 150.559,51.048 C150.714,51.396 150.791,51.743 150.714,52.051 C150.675,52.206 150.598,52.399 150.405,52.63 C150.135,52.9 149.942,53.016 149.749,53.016 C149.479,53.016 149.248,52.823 149.093,52.476 C148.939,52.051 148.823,51.82 148.707,51.743 C148.553,51.82 148.437,51.936 148.399,52.051 C148.36,52.167 148.36,52.244 148.322,52.244 C148.244,52.746 148.36,53.132 148.669,53.402 C148.939,53.633 149.325,53.749 149.788,53.749 C150.174,53.749 150.521,53.556 150.868,53.209 C151.177,52.862 151.37,52.553 151.447,52.244 C151.563,51.666 151.486,51.087 151.254,50.547 C151.177,50.354 150.945,49.968 150.521,49.35 C150.251,48.926 150.135,48.617 150.212,48.386 C150.251,48.154 150.367,47.923 150.559,47.73 C150.752,47.537 150.984,47.46 151.293,47.46 C151.524,47.46 151.64,47.537 151.678,47.691 C151.678,47.923 151.678,48.116 151.717,48.27 C151.756,48.386 151.833,48.463 151.91,48.463 L152.103,48.463 C152.18,48.463 152.257,48.424 152.334,48.347 C152.334,48.347 152.334,48.309 152.373,48.27 C152.412,48.232 152.412,48.193 152.412,48.154 C152.489,47.768 152.489,47.421 152.373,47.151 C152.219,46.688 151.949,46.495 151.524,46.495 z M175.061,47.074 C174.714,47.074 174.212,47.421 173.595,48.154 C173.093,48.733 172.63,49.389 172.206,50.122 C172.129,49.852 172.129,49.505 172.167,49.119 C172.206,48.733 172.206,48.386 172.09,48.154 C171.82,48.154 171.588,48.27 171.473,48.54 C171.434,48.656 171.357,48.849 171.318,49.119 C171.318,49.158 171.318,49.505 171.318,50.122 C171.318,50.778 171.318,51.203 171.318,51.434 C171.318,51.473 171.28,51.666 171.241,51.936 C171.203,52.167 171.203,52.322 171.203,52.399 C171.203,52.476 171.28,52.592 171.357,52.669 C171.434,52.746 171.55,52.823 171.627,52.823 C171.743,52.823 171.974,52.476 172.283,51.743 C172.707,50.778 173.093,50.045 173.363,49.621 C173.826,48.926 174.251,48.463 174.637,48.232 C174.83,48.386 174.791,49.35 174.482,51.087 C174.367,51.743 174.251,52.36 174.096,52.939 C174.058,53.093 174.096,53.17 174.174,53.286 C174.251,53.363 174.328,53.402 174.444,53.402 C174.598,53.402 174.752,53.17 174.907,52.746 C175.023,52.437 175.1,52.167 175.177,51.859 C175.37,50.971 175.524,50.199 175.601,49.505 C175.756,48.039 175.601,47.228 175.061,47.074 z M147.704,48.27 C147.55,47.846 147.28,47.576 146.894,47.46 C146.778,47.421 146.585,47.383 146.354,47.383 C145.698,47.421 145.08,47.846 144.502,48.695 C144.077,49.389 143.846,50.045 143.768,50.585 C143.653,51.203 143.73,51.704 143.961,52.167 C144.232,52.707 144.695,52.939 145.312,52.939 C145.582,52.939 145.891,52.862 146.315,52.707 C146.932,52.476 147.434,52.167 147.781,51.704 C147.82,51.666 147.781,51.627 147.781,51.588 C147.743,51.55 147.743,51.473 147.704,51.434 L147.511,51.434 L147.125,51.704 C147.01,51.781 146.778,51.897 146.431,51.974 C146.084,52.09 145.852,52.129 145.736,52.129 C145.428,52.129 145.158,52.013 144.926,51.743 C144.695,51.473 144.617,51.203 144.695,50.855 C144.695,50.778 144.733,50.701 144.772,50.662 C144.887,50.624 145.312,50.547 146.122,50.469 C146.855,50.392 147.28,50.354 147.434,50.354 C147.666,50.315 147.781,50.199 147.82,50.045 C147.859,49.891 147.859,49.775 147.859,49.659 C147.859,49.582 147.859,49.389 147.859,49.042 C147.82,48.733 147.781,48.463 147.704,48.27 z M146.932,49.505 C146.894,49.543 146.894,49.582 146.855,49.621 C146.817,49.659 146.701,49.698 146.508,49.736 C146.354,49.736 146.084,49.736 145.736,49.775 C145.389,49.814 145.119,49.814 144.926,49.814 C144.926,49.814 144.926,49.775 144.926,49.775 C144.926,49.736 144.926,49.736 144.926,49.659 C144.965,49.389 145.158,49.08 145.505,48.733 C145.852,48.386 146.122,48.232 146.392,48.232 C146.624,48.232 146.817,48.386 146.894,48.733 C146.971,49.042 146.971,49.273 146.932,49.505 z M170.006,48.27 C169.852,47.846 169.582,47.576 169.196,47.46 C169.08,47.421 168.887,47.383 168.656,47.383 C168,47.421 167.383,47.846 166.804,48.695 C166.379,49.389 166.148,50.045 166.071,50.585 C165.955,51.203 166.032,51.704 166.264,52.167 C166.534,52.707 166.997,52.939 167.614,52.939 C167.884,52.939 168.193,52.862 168.617,52.707 C169.235,52.476 169.736,52.167 170.084,51.704 C170.122,51.666 170.084,51.627 170.084,51.588 C170.045,51.55 170.045,51.473 170.006,51.434 L169.814,51.434 L169.428,51.704 C169.312,51.781 169.08,51.897 168.733,51.974 C168.386,52.09 168.154,52.129 168.039,52.129 C167.73,52.129 167.46,52.013 167.228,51.743 C166.997,51.473 166.92,51.203 166.997,50.855 C166.997,50.778 167.035,50.701 167.074,50.662 C167.19,50.624 167.614,50.547 168.424,50.469 C169.158,50.392 169.582,50.354 169.736,50.354 C169.968,50.315 170.084,50.199 170.122,50.045 C170.161,49.891 170.161,49.775 170.161,49.659 C170.161,49.582 170.161,49.389 170.161,49.042 C170.122,48.733 170.084,48.463 170.006,48.27 z M169.235,49.505 C169.196,49.543 169.196,49.582 169.158,49.621 C169.119,49.659 169.003,49.698 168.81,49.736 C168.656,49.736 168.386,49.736 168.039,49.775 C167.691,49.814 167.421,49.814 167.228,49.814 C167.228,49.814 167.228,49.775 167.228,49.775 C167.228,49.736 167.228,49.736 167.228,49.659 C167.267,49.389 167.46,49.08 167.807,48.733 C168.154,48.386 168.424,48.232 168.695,48.232 C168.926,48.232 169.119,48.386 169.196,48.733 C169.273,49.042 169.273,49.273 169.235,49.505 z M164.759,46.495 C164.334,46.495 163.949,46.611 163.524,46.842 C162.984,47.151 162.675,47.576 162.559,48.154 C162.482,48.502 162.598,48.965 162.945,49.582 C163.215,50.084 163.486,50.585 163.794,51.048 C163.949,51.396 164.026,51.743 163.949,52.051 C163.91,52.206 163.833,52.399 163.64,52.63 C163.37,52.9 163.177,53.016 162.984,53.016 C162.714,53.016 162.482,52.823 162.328,52.476 C162.174,52.051 162.058,51.82 161.942,51.743 C161.788,51.82 161.672,51.936 161.633,52.051 C161.595,52.167 161.595,52.244 161.556,52.244 C161.479,52.746 161.595,53.132 161.904,53.402 C162.174,53.633 162.559,53.749 163.023,53.749 C163.408,53.749 163.756,53.556 164.103,53.209 C164.412,52.862 164.605,52.553 164.682,52.244 C164.797,51.666 164.72,51.087 164.489,50.547 C164.412,50.354 164.18,49.968 163.756,49.35 C163.486,48.926 163.37,48.617 163.447,48.386 C163.486,48.154 163.601,47.923 163.794,47.73 C163.987,47.537 164.219,47.46 164.527,47.46 C164.759,47.46 164.875,47.537 164.913,47.691 C164.913,47.923 164.913,48.116 164.952,48.27 C164.99,48.386 165.068,48.463 165.145,48.463 L165.338,48.463 C165.415,48.463 165.492,48.424 165.569,48.347 C165.569,48.347 165.569,48.309 165.608,48.27 C165.646,48.232 165.646,48.193 165.646,48.154 C165.723,47.768 165.723,47.421 165.608,47.151 C165.492,46.688 165.183,46.495 164.759,46.495 z M134.006,47.305 C133.235,47.305 132.502,47.73 131.884,48.502 C131.884,48.193 131.884,47.961 131.923,47.807 C131.923,47.537 131.846,47.344 131.653,47.305 C131.498,47.344 131.421,47.383 131.344,47.46 C131.228,47.498 131.113,47.923 130.958,48.656 C130.804,49.543 130.688,50.354 130.611,51.164 C130.495,52.36 130.534,52.939 130.727,52.939 C130.842,52.939 130.958,52.9 131.113,52.823 C131.267,52.746 131.344,52.514 131.421,52.129 C131.421,52.051 131.46,51.897 131.498,51.666 C131.537,51.434 131.576,51.28 131.576,51.125 C131.691,50.392 131.961,49.736 132.386,49.158 C132.887,48.463 133.312,48.116 133.659,48.116 C133.929,48.116 134.084,48.27 134.161,48.54 C134.238,48.81 134.315,48.965 134.392,48.965 C134.431,48.965 134.508,48.926 134.585,48.887 C134.662,48.849 134.74,48.733 134.817,48.617 C134.855,48.347 134.817,48.077 134.662,47.73 C134.469,47.46 134.277,47.305 134.006,47.305 z M129.145,47.923 C128.952,47.923 128.759,48.193 128.527,48.733 C128.373,49.119 128.257,49.505 128.219,49.852 C127.949,51.28 127.871,52.167 127.91,52.437 C127.91,52.514 127.987,52.592 128.103,52.746 C128.219,52.862 128.296,52.939 128.373,52.939 C128.45,52.9 128.605,52.823 128.72,52.707 C128.875,52.592 128.952,52.399 129.029,52.167 C129.029,52.013 129.029,51.897 128.952,51.781 C128.913,51.666 128.875,51.588 128.875,51.588 C128.836,51.28 128.913,50.778 129.029,50.084 C129.068,49.929 129.145,49.698 129.299,49.312 C129.453,48.926 129.531,48.695 129.531,48.656 C129.531,48.54 129.531,48.424 129.492,48.27 C129.415,48 129.299,47.923 129.145,47.923 z M127.254,47.113 C127.1,47.113 126.907,47.19 126.752,47.305 C126.251,48.54 125.981,49.235 125.904,49.389 C125.711,49.891 125.556,50.277 125.441,50.547 C125.325,50.817 125.209,51.048 125.093,51.241 C124.669,50.045 124.553,48.849 124.669,47.691 C124.669,47.653 124.63,47.614 124.553,47.537 C124.476,47.46 124.437,47.46 124.399,47.46 C124.09,47.46 123.82,47.614 123.588,47.923 C123.473,48.039 123.28,48.386 122.971,48.926 C122.701,49.428 122.392,49.891 122.122,50.354 C122.122,49.698 122.084,49.196 122.122,48.926 C122.161,48.116 122.045,47.73 121.814,47.768 C121.466,47.768 121.235,47.923 121.196,48.193 C121.196,48.27 121.196,48.463 121.235,48.772 C121.273,49.08 121.312,49.312 121.35,49.428 C121.35,50.006 121.312,50.547 121.312,51.125 C121.312,52.167 121.466,52.669 121.736,52.669 C122.006,52.669 122.238,52.399 122.469,51.859 C122.662,51.396 122.817,50.932 123.01,50.469 C123.241,49.929 123.511,49.543 123.781,49.273 C123.936,50.084 124.013,50.662 124.09,50.971 C124.167,51.357 124.244,51.743 124.322,52.129 C124.476,52.707 124.63,53.016 124.823,53.016 L125.093,53.016 C125.248,53.016 125.479,52.553 125.865,51.627 C126.945,49.042 127.524,47.614 127.563,47.383 C127.563,47.305 127.563,47.267 127.486,47.19 C127.408,47.113 127.331,47.113 127.254,47.113 z M111.048,47.074 C110.701,47.074 110.199,47.421 109.582,48.154 C109.08,48.733 108.617,49.389 108.193,50.122 C108.116,49.852 108.116,49.505 108.154,49.119 C108.193,48.733 108.193,48.386 108.077,48.154 C107.807,48.154 107.576,48.27 107.46,48.54 C107.421,48.656 107.344,48.849 107.305,49.119 C107.305,49.158 107.305,49.505 107.305,50.122 C107.305,50.778 107.305,51.203 107.305,51.434 C107.305,51.473 107.267,51.666 107.228,51.936 C107.19,52.167 107.19,52.322 107.19,52.399 C107.19,52.476 107.267,52.592 107.344,52.669 C107.421,52.746 107.537,52.823 107.614,52.823 C107.73,52.823 107.961,52.476 108.27,51.743 C108.695,50.778 109.08,50.045 109.35,49.621 C109.814,48.926 110.238,48.463 110.624,48.232 C110.817,48.386 110.778,49.35 110.469,51.087 C110.354,51.743 110.238,52.36 110.084,52.939 C110.045,53.093 110.084,53.17 110.161,53.286 C110.238,53.363 110.315,53.402 110.431,53.402 C110.585,53.402 110.74,53.17 110.894,52.746 C111.01,52.437 111.087,52.167 111.164,51.859 C111.357,50.971 111.511,50.199 111.588,49.505 C111.781,48.039 111.588,47.228 111.048,47.074 z M129.994,44.72 C129.839,44.72 129.685,44.759 129.492,44.836 C129.26,44.952 129.145,45.068 129.106,45.183 C129.106,45.299 129.106,45.415 129.145,45.531 C129.183,45.646 129.26,45.801 129.415,45.955 C129.415,45.955 129.531,45.955 129.685,45.994 C129.878,45.955 130.032,45.839 130.187,45.685 C130.302,45.531 130.379,45.415 130.379,45.338 C130.379,45.299 130.379,45.183 130.341,45.029 C130.264,44.836 130.148,44.759 129.994,44.72 z M142.379,48.116 C142.071,47.884 141.608,47.73 141.029,47.576 C140.489,47.46 140.219,47.383 140.219,47.344 C140.219,47.151 140.257,46.842 140.373,46.418 C140.45,46.109 140.527,45.839 140.605,45.531 C140.643,45.338 140.643,45.183 140.566,44.99 C140.527,44.836 140.412,44.759 140.219,44.759 C139.91,44.759 139.717,45.029 139.601,45.608 L139.331,47.113 C139.254,47.537 139.215,47.768 139.177,47.846 C139.138,47.923 139.1,48 139.023,48.154 C138.945,48.27 138.907,48.386 138.907,48.424 C138.984,48.81 138.984,49.158 138.945,49.428 L138.714,50.778 C138.444,52.36 138.675,53.132 139.37,53.132 C139.987,53.132 140.72,52.746 141.569,51.936 C142.495,51.087 142.958,50.238 143.035,49.428 C143.074,48.887 142.842,48.463 142.379,48.116 z M142.187,49.852 C142.071,50.392 141.685,50.932 140.99,51.511 C140.334,52.051 139.91,52.283 139.678,52.244 C139.408,52.129 139.37,51.473 139.563,50.315 C139.756,49.196 139.91,48.617 140.026,48.579 C140.141,48.54 140.257,48.54 140.412,48.54 C140.875,48.54 141.26,48.656 141.646,48.887 C142.071,49.119 142.225,49.466 142.187,49.852 z M106.611,44.72 C106.457,44.72 106.302,44.759 106.109,44.836 C105.878,44.952 105.762,45.068 105.723,45.183 C105.723,45.299 105.723,45.415 105.762,45.531 C105.801,45.646 105.878,45.801 106.032,45.955 C106.032,45.955 106.148,45.955 106.302,45.994 C106.495,45.955 106.65,45.839 106.804,45.685 C106.92,45.531 106.997,45.415 106.997,45.338 C106.997,45.299 106.997,45.183 106.958,45.029 C106.881,44.836 106.804,44.759 106.611,44.72 z" fill="#A3A1A2"/>
  </g>
  <g id="symbol">
    <path d="M24.193,0.463 C37.389,0.463 48.077,11.113 48.077,24.232 C48.077,37.35 37.389,48 24.193,48 C10.997,48 0.309,37.35 0.309,24.232 C0.309,11.113 10.997,0.463 24.193,0.463 z" fill="#DCF1F4"/>
    <path d="M24.309,5.325 C35.768,5.325 45.068,14.585 45.068,26.006 C45.068,37.428 35.768,46.688 24.309,46.688 C12.849,46.688 3.55,37.428 3.55,26.006 C3.511,14.547 12.849,5.325 24.309,5.325 z" fill="url(#Gradient_1)"/>
    <path d="M24.309,5.325 C35.768,5.325 45.068,14.585 45.068,26.006 C45.068,37.428 35.768,46.688 24.309,46.688 C12.849,46.688 3.55,37.428 3.55,26.006 C3.511,14.547 12.849,5.325 24.309,5.325 z" fill="url(#Gradient_2)"/>
    <path d="M17.402,9.839 C24.54,9.762 28.322,15.048 30.058,20.913 C31.1,24.424 30.945,29.518 29.749,32.72 C28.244,36.695 25.814,39.936 22.186,41.595 C21.068,42.096 19.949,42.135 18.598,42.444 C18.251,42.521 17.672,42.444 17.441,42.367 C16.823,42.212 16.322,42.405 15.743,42.212 C14.662,41.865 13.621,41.325 12.695,40.862 C11.73,40.399 11.305,39.82 10.534,39.203 C7.871,37.003 6.482,33.685 5.518,29.633 C4.939,27.28 5.209,23.113 5.826,21.145 C7.254,16.63 9.531,12.733 13.389,10.92 C14.122,10.572 14.971,10.302 15.743,10.071 C16.167,9.916 17.093,10.071 17.402,9.839 z" fill="url(#Gradient_3)"/>
    <path d="M8.682,23.421 C8.682,23.421 13.35,27.241 24.849,27.241 C36.347,27.241 40.669,23.421 40.669,23.421 C40.669,23.421 37.428,36.965 24.502,36.965 C11.576,36.965 8.682,23.421 8.682,23.421 z" fill="url(#Gradient_4)" opacity="0.56"/>
    <path d="M40.36,24.27 L40.36,24.27 M40.36,24.27 C40.36,24.27 37.158,37.543 24.502,37.543 C11.846,37.543 8.99,24.27 8.99,24.27 C8.99,24.27 13.196,35.035 24.502,35.035 C35.807,35.035 40.36,24.27 40.36,24.27 M8.99,23.383 C8.913,23.383 8.836,23.383 8.72,23.421 C8.296,23.537 8.026,24 8.103,24.463 C8.141,24.617 8.875,27.974 11.228,31.408 C14.392,36 18.984,38.431 24.463,38.431 C29.942,38.431 34.572,36 37.852,31.447 C40.206,28.206 41.055,24.965 41.17,24.54 C41.209,24.463 41.209,24.386 41.209,24.309 C41.209,23.846 40.862,23.46 40.399,23.421 C40.36,23.421 40.36,23.421 40.322,23.421 C40.283,23.421 40.244,23.421 40.206,23.421 C40.051,23.46 39.936,23.498 39.82,23.576 C39.743,23.653 39.666,23.73 39.588,23.807 C39.55,23.846 39.55,23.884 39.511,23.961 C39.434,24.154 38.315,26.662 35.961,29.132 C32.759,32.489 28.9,34.186 24.502,34.186 C20.064,34.186 16.283,32.489 13.158,29.093 C10.842,26.547 9.801,24 9.801,24 C9.685,23.614 9.338,23.383 8.99,23.383 L8.99,23.383 z" fill="url(#Gradient_5)" opacity="0.13"/>
    <path d="M24.502,37.543 C11.846,37.543 8.99,24.27 8.99,24.27 C8.99,24.27 13.196,35.035 24.502,35.035 C35.768,35.035 40.36,24.27 40.36,24.27 C40.36,24.27 37.158,37.543 24.502,37.543 z" fill="#FFFFFF"/>
    <path d="M39.627,16.09 C37.659,19.987 32.103,21.106 27.241,18.637 C22.379,16.167 20.026,10.997 21.994,7.1 C23.961,3.203 29.518,2.084 34.379,4.553 C39.241,7.023 41.595,12.193 39.627,16.09 z" fill="url(#Gradient_6)" opacity="0.17"/>
  </g>
</svg>
