<svg xmlns="http://www.w3.org/2000/svg" width="500" height="500" viewBox="0 0 500 500"><path fill="none" d="M0 0h500v500H0V0z"/><linearGradient id="a" gradientUnits="userSpaceOnUse" x1="503.08" y1="-200.541" x2="822.338" y2="118.717" gradientTransform="matrix(1 0 0 -1 -414.96 207.84)"><stop offset=".39" stop-color="#005af0"/><stop offset="1" stop-color="#04d4c2"/></linearGradient><path fill="url(#a)" d="M325.152 228.079L230.45 385.682h-17.157l16.961-102.692-52.532.067s-.496.016-.73.016a8.559 8.559 0 01-8.563-8.555v-.01c0-2.031 1.889-5.471 1.889-5.471l94.393-157.415 17.443.075-17.391 102.852 52.803-.068s.564-.007.836-.007a8.558 8.558 0 018.563 8.554v.009c0 1.919-.753 3.605-1.821 5.034l.008.008zM247.75 23C123.068 23 22 124.076 22 248.75 22 373.432 123.068 474.5 247.75 474.5c124.674 0 225.75-101.068 225.75-225.75C473.5 124.076 372.424 23 247.75 23z"/></svg>