<svg xmlns="http://www.w3.org/2000/svg" xmlns:xlink="http://www.w3.org/1999/xlink" width="595.28" height="595.281" viewBox="123.305 0 595.28 595.281"><linearGradient id="a" gradientUnits="userSpaceOnUse" x1="835.906" y1="-266.642" x2="835.906" y2="277.604" gradientTransform="matrix(1 0 0 -1 -414.96 303.121)"><stop offset=".005" stop-color="#999"/><stop offset="1" stop-color="#b3b3b3"/></linearGradient><path fill="url(#a)" d="M625.431 43.68c-12.117-12.11-26.668-18.163-43.678-18.163H260.13c-17.009 0-31.565 6.053-43.683 18.163-12.109 12.118-18.162 26.676-18.162 43.685v420.56c0 17.009 6.053 31.563 18.162 43.677 12.117 12.118 26.674 18.162 43.683 18.162h321.624c17.01 0 31.561-6.044 43.678-18.162 12.117-12.113 18.174-26.672 18.174-43.677V87.365c-.001-17.009-6.079-31.57-18.175-43.685zM438.339 537.686c-4.887 4.898-10.691 7.343-17.397 7.343-6.703 0-12.499-2.443-17.397-7.343-4.893-4.898-7.34-10.697-7.34-17.39 0-6.699 2.447-12.512 7.34-17.394 4.898-4.898 10.698-7.359 17.397-7.359 6.706 0 12.507 2.456 17.397 7.359 4.896 4.882 7.355 10.693 7.355 17.394.001 6.692-2.458 12.483-7.355 17.39z"/><defs><path id="b" d="M594.125 458.44c0 3.355-1.23 6.247-3.672 8.702-2.451 2.456-5.344 3.675-8.699 3.675H260.137c-3.352 0-6.252-1.228-8.699-3.675-2.445-2.446-3.669-5.347-3.669-8.702V87.365c0-3.353 1.224-6.252 3.669-8.695 2.447-2.451 5.348-3.673 8.699-3.673h321.616c3.354 0 6.246 1.213 8.699 3.673 2.447 2.443 3.67 5.343 3.67 8.695V458.44h.003z"/></defs><clipPath id="c"><use xlink:href="#b" overflow="visible"/></clipPath><radialGradient id="d" cx="835.902" cy="28.218" r="252.959" gradientTransform="matrix(1 0 0 -1 -414.96 303.121)" gradientUnits="userSpaceOnUse"><stop offset="0" stop-color="#35361e"/><stop offset=".693" stop-color="#323220"/><stop offset="1" stop-color="#2e2e22"/></radialGradient><path clip-path="url(#c)" fill="url(#d)" d="M606.005 473.186c0 3.587-1.314 6.675-3.922 9.3-2.623 2.622-5.709 3.92-9.297 3.92H249.098c-3.583 0-6.678-1.309-9.299-3.92-2.613-2.615-3.922-5.713-3.922-9.3V76.622c0-3.579 1.309-6.676 3.922-9.292 2.621-2.619 5.716-3.928 9.299-3.928h343.688c3.588 0 6.674 1.306 9.297 3.928 2.617 2.616 3.922 5.713 3.922 9.292v396.564z"/><defs><path id="e" d="M594.125 458.44c0 3.355-1.23 6.247-3.672 8.702-2.451 2.456-5.344 3.675-8.699 3.675H260.137c-3.352 0-6.252-1.228-8.699-3.675-2.445-2.446-3.669-5.347-3.669-8.702V87.365c0-3.353 1.224-6.252 3.669-8.695 2.447-2.451 5.348-3.673 8.699-3.673h321.616c3.354 0 6.246 1.213 8.699 3.673 2.447 2.443 3.67 5.343 3.67 8.695V458.44h.003z"/></defs><clipPath id="f"><use xlink:href="#e" overflow="visible"/></clipPath><path clip-path="url(#f)" fill="#0084A3" d="M420.942 416.075l97.931 30.763 97.924 30.763H225.09l97.928-30.763 97.924-30.763z"/><defs><path id="g" d="M594.125 458.44c0 3.355-1.23 6.247-3.672 8.702-2.451 2.456-5.344 3.675-8.699 3.675H260.137c-3.352 0-6.252-1.228-8.699-3.675-2.445-2.446-3.669-5.347-3.669-8.702V87.365c0-3.353 1.224-6.252 3.669-8.695 2.447-2.451 5.348-3.673 8.699-3.673h321.616c3.354 0 6.246 1.213 8.699 3.673 2.447 2.443 3.67 5.343 3.67 8.695V458.44h.003z"/></defs><clipPath id="h"><use xlink:href="#g" overflow="visible"/></clipPath><path clip-path="url(#h)" fill="#FFF" d="M542.847 238.417a4.913 4.913 0 01-4.004.511s-32.91-7.194-36.129-10.41l-14.801-14.807-48.9 48.904 68.637 68.639c4.09 4.092 4.09 10.72 0 14.807l-1.852 1.853-1.852 1.854c-4.092 4.089-10.721 4.089-14.811 0L420.5 281.125l-66.635 66.64c-4.084 4.089-10.709 4.093-14.798.009l-.009-.009-1.852-1.854-1.852-1.853c-4.089-4.088-4.089-10.715 0-14.803l66.633-66.64-49.768-49.771a327.085 327.085 0 00-22.366 26.972 3.236 3.236 0 01-4.482.715l-25.854-18.78a3.407 3.407 0 01-1.218-2.291 3.336 3.336 0 01.764-2.481 364.575 364.575 0 0126.022-31.274l-2.532-2.532a5.226 5.226 0 01-.013-7.392l.013-.013 5.55-5.554 5.55-5.55c.902-.639 1.482-1.15 2.59-1.281 2.113.131 1.084.093 3.083.131l1.731 1.15 2.537 2.531a364.783 364.783 0 0131.225-25.978 3.378 3.378 0 014.769.46c6.267 8.619 12.524 17.233 18.78 25.852a3.223 3.223 0 01-.712 4.48 326.777 326.777 0 00-26.926 22.331l49.768 49.767 48.901-48.909-21.236-21.235a3.54 3.54 0 01-.018-5.005l.018-.017 25.104-25.104a3.565 3.565 0 015.02 0l21.236 21.236 2.416-2.414c2.725-2.747 5.178-2.046 7.408 0l5.549 5.555 5.553 5.55a5.243 5.243 0 01.008 7.405l-.24.241-2.182 2.177 14.801 14.798c3.889 3.897 10.518 36.021 10.518 36.021a4.906 4.906 0 01-.507 4.011"/></svg>