<svg xmlns="http://www.w3.org/2000/svg" width="500" height="500" viewBox="0 0 500 500"><path d="M335.6 21c19.244 0 34.844 15.819 34.844 35.333v199.706c-12.863.073-24.347 4.718-34.844 11.808V127H56.844v176.667h254.87c-1.264 4.68-1.592 9.512-1.714 14.333 0 5.222.66 10.433 1.952 15.495.475 1.862 1.141 3.67 1.711 5.505H56.844C37.6 339 22 323.181 22 303.667V56.333C22 36.9 37.68 21 56.844 21H335.6zm0 35.333H56.844v35.334H335.6V56.333z" fill="#2E2C09"/><path d="M295.667 210c-97.942 0-177.334 79.392-177.334 177.333 0 32.346 8.796 62.564 23.923 88.667h306.822C464.204 449.897 473 419.679 473 387.333 473 289.392 393.608 210 295.667 210zm85.687 98.509l-53.98 80.97c2.323 4.717 3.759 9.966 3.759 15.588 0 19.595-15.871 35.466-35.466 35.466-19.596 0-35.467-15.871-35.467-35.466 0-19.596 15.871-35.467 35.467-35.467.744 0 1.454.177 2.181.213l53.998-80.988c5.426-8.158 16.439-10.357 24.596-4.912 8.14 5.444 10.339 16.438 4.912 24.596z" fill="#F87049"/></svg>