<svg xmlns="http://www.w3.org/2000/svg" width="500" height="500" viewBox="0 0 500 500"><path d="M101.9 128.8h90.8v25.6h-63.8v34.8h57.4v25.6h-57.4V272h-27zm114.6 0h27V272h-27zm59.6 0h48.4q22.4 0 39 9t25.6 25.2q9 16.2 9 37.4t-9 37.4q-9 16.2-25.6 25.2t-39 9h-48.4zm47.2 117.6q23.2 0 35.4-12.3t12.2-33.7q0-21.4-12.2-33.7-12.2-12.3-35.4-12.3h-20.2v92z" fill="#5A86F3"/><path d="M172.444 323h150.445v79H172.444v-79z" fill="#F8A849"/><path d="M22 323h150.444v79H22v-79z" fill="#33AF6D"/><path d="M322.889 323h150.444v79H322.889v-79z" fill="#F87049"/></svg>