<svg xmlns="http://www.w3.org/2000/svg" width="500" height="500" viewBox="0 0 500 500"><path d="M304.899 349.532c-3.12 10.763-8.111 18.562-13.727 24.802v-54.751c0-3.744-3.275-6.863-8.423-6.863-2.184 0-4.056 1.092-4.056 2.651 0 1.092.624 2.028.624 4.992v25.113c-1.871 10.919-6.551 21.058-12.79 21.058-4.524 0-7.176-4.523-7.176-12.946 0-13.103 1.716-19.966 4.524-31.509.624-2.34 5.147-8.579-2.496-8.579-8.267 0-7.175 3.119-8.267 5.771 0 0-5.226 18.562-5.226 35.097 0 13.57 5.694 22.461 16.145 22.461 6.707 0 11.543-4.523 15.286-10.763v19.81c-10.295 9.048-19.342 17.003-19.342 32.757 0 9.983 6.24 17.938 14.975 17.938 7.955 0 16.222-5.771 16.222-22.149v-26.986c8.423-7.331 17.47-16.534 22.774-34.628.156-.624.156-1.404.156-1.56 0-2.964-2.964-6.395-5.46-6.395-1.559 0-2.807 1.403-3.743 4.679zm-29.949 77.212c-2.496 0-4.056-3.743-4.056-8.579 0-9.359 3.432-15.286 8.423-20.434v16.691c0 2.963.624 12.322-4.367 12.322z" fill="#2C8EBB"/><path d="M349.666 366.378c-3.743 0-5.303-3.743-5.303-7.175v-25.737c0-3.744-3.276-6.864-8.423-6.864-2.184 0-4.056 1.092-4.056 2.652 0 1.092.624 2.028.624 4.992v24.021c-1.716 4.368-4.523 8.111-8.735 8.111-5.459 0-8.891-4.679-8.891-12.79 0-22.462 13.882-32.601 25.737-32.601 1.56 0 3.12.312 4.524.312 1.56 0 2.028-.936 2.028-3.588 0-4.055-2.964-6.551-7.176-6.551-19.03 0-37.124 15.91-37.124 41.96 0 13.258 6.395 23.553 18.562 23.553 5.928 0 10.295-2.807 13.415-6.395 2.34 3.744 6.551 6.395 12.011 6.395 13.414 0 19.654-14.038 22.305-24.333.156-.624.156-.936.156-1.092 0-2.964-2.963-6.395-5.459-6.395-1.56 0-3.12 1.403-3.744 4.679-1.403 6.863-4.211 16.846-10.451 16.846z" fill="#2C8EBB"/><path d="M394.746 376.673c13.415 0 19.498-14.038 22.306-24.333 0-.312.156-.624.156-1.092 0-2.964-2.964-6.395-5.46-6.395-1.56 0-3.119 1.403-3.743 4.679-1.404 6.863-4.056 16.846-11.231 16.846-4.212 0-6.24-4.055-6.24-8.423 0-15.598 7.02-34.004 7.02-35.876.624-3.588-5.616-8.735-7.488-8.735h-8.111c-1.56 0-3.119 0-8.267-.624-1.716-6.396-6.083-8.267-9.827-8.267-4.056 0-7.799 2.807-7.799 7.175 0 4.523 2.807 7.799 6.707 9.983-.156 7.955-.78 20.902-2.496 27.141-1.404 5.304 6.708 10.919 8.735 4.368 2.808-9.047 3.744-22.618 3.9-28.701h13.571c-4.992 13.414-7.799 24.489-7.799 34.472 0 13.727 8.735 17.782 16.066 17.782z" fill="#2C8EBB"/><path d="M408.629 369.81c0 5.771 4.367 6.863 7.487 6.863 4.523 0 4.367-3.743 4.367-6.707v-22.774c1.092-12.322 10.763-25.737 15.287-25.737 2.964 0 3.276 4.055 3.276 8.891v31.665c0 7.955 4.835 14.662 13.102 14.662 13.415 0 20.044-14.038 22.696-24.333.156-.624.156-.936.156-1.092 0-2.964-2.964-6.395-5.459-6.395-1.56 0-3.12 1.403-3.744 4.679-1.404 6.863-4.602 16.846-10.841 16.846-4.056 0-4.056-5.771-4.056-7.175v-32.289c0-7.175-2.495-15.754-12.946-15.754-7.644 0-13.259 6.707-17.471 15.442v-7.019c0-3.744-3.275-6.863-8.423-6.863-2.184 0-4.055 1.092-4.055 2.651 0 1.092.624 2.028.624 4.992v49.447zM125.673 249c55.764 0 101 45.236 101 101s-45.236 101-101 101c-55.765 0-101-45.236-101-101s45.235-101 101-101z" fill="#2C8EBB"/><path d="M194.384 380.612c-.702-5.537-5.382-9.359-11.387-9.281-8.969.117-16.495 4.757-21.487 7.838-1.95 1.209-3.627 2.106-5.069 2.769.311-4.524.039-10.451-2.301-16.963-2.847-7.8-6.669-12.596-9.398-15.365 3.158-4.602 7.487-11.309 9.515-21.682 1.755-8.852 1.209-22.618-2.808-30.339-.819-1.56-2.184-2.691-3.9-3.158-.702-.195-2.027-.585-4.64.155-3.939-8.15-5.304-9.008-6.357-9.71-2.183-1.403-4.757-1.715-7.175-.818-3.236 1.169-6.005 4.289-8.618 9.827-.39.818-.741 1.598-1.053 2.378-4.952.351-12.752 2.145-19.342 9.281-.819.897-2.418 1.56-4.095 2.184h.039c-3.431 1.209-4.991 4.017-6.902 9.086-2.652 7.098.078 14.078 2.769 18.601-3.666 3.276-8.54 8.502-11.114 14.624-3.198 7.565-3.549 14.975-3.432 18.991-2.729 2.886-6.941 8.306-7.409 14.39-.624 8.501 2.457 14.272 3.822 16.378.39.624.819 1.131 1.287 1.638-.156 1.053-.195 2.184.039 3.354.506 2.729 2.222 4.952 4.835 6.356 5.148 2.73 12.323 3.9 17.86 1.131 1.989 2.106 5.616 4.133 12.206 4.133h.39c1.677 0 22.969-1.13 29.169-2.651 2.769-.663 4.68-1.833 5.928-2.886 3.977-1.248 14.974-4.992 25.347-11.699 7.331-4.757 9.866-5.771 15.326-7.097 5.303-1.287 8.618-6.123 7.955-11.465zm-9.281 5.732c-6.24 1.482-9.398 2.847-17.12 7.878-12.049 7.799-25.23 11.425-25.23 11.425s-1.092 1.638-4.251 2.379c-5.459 1.326-26.01 2.457-27.882 2.496-5.03.039-8.111-1.287-8.969-3.354-2.613-6.239 3.744-8.969 3.744-8.969s-1.404-.858-2.223-1.638c-.741-.741-1.521-2.222-1.755-1.676-.975 2.378-1.482 8.189-4.095 10.801-3.587 3.627-10.373 2.418-14.389.312-4.407-2.339.312-7.838.312-7.838s-2.379 1.404-4.29-1.482c-1.716-2.651-3.314-7.175-2.886-12.751.468-6.357 7.566-12.518 7.566-12.518s-1.248-9.398 2.846-19.03c3.705-8.774 13.688-15.833 13.688-15.833s-8.384-9.281-5.264-17.626c2.027-5.459 2.846-5.42 3.509-5.654 2.34-.897 4.602-1.872 6.279-3.705 8.384-9.047 19.069-7.331 19.069-7.331s5.069-15.404 9.749-12.401c1.443.936 6.629 12.479 6.629 12.479s5.538-3.237 6.162-2.028c3.353 6.512 3.743 18.952 2.261 26.517-2.495 12.479-8.735 19.186-11.231 23.398-.585.975 6.708 4.056 11.309 16.807 4.251 11.66.468 21.448 1.131 22.54.117.195.156.273.156.273s4.875.39 14.663-5.654c5.225-3.237 11.426-6.864 18.484-6.942 6.824-.117 7.175 7.878 2.028 9.125z" fill="#FFF"/><path d="M74.673 48h362.552v123.055H255.949V191h-80.402v-19.945H74.673V48zm20.472 102.358h40.201V88.642h20.101v61.716h20.1V69.074H95.145v81.284zm100.13-81.661l.372 102.735h39.829v-20.321h40.201V68.697h-80.402zm39.829 19.569h21.217v41.771h-21.217V88.266zm61.046-19.569v81.285h40.201v-61.34h20.1v60.963h20.101V89.018h20.1v60.964h20.1V68.697H296.15z" fill="#2E2B09"/></svg>