<svg xmlns="http://www.w3.org/2000/svg" width="600" height="337.5" viewBox="0 0 600 337.5"><path fill="#FFF" d="M0 0h600v337.5H0z"/><path d="M0 0h600v337.5H0z"/><path d="M0 0h600v337.5H0V0z" fill="#B43B18" opacity=".453"/><path d="M299.653 56.421L191.605 93.619l17.074 138.483 91.089 48.977 91.558-49.641L408.394 92.96 299.652 56.421zm0 0" fill="#B2B2B2"/><path d="M397.618 100.965L299.402 68.2v201.178l82.31-44.564 15.907-123.85zm0 0" fill="#B52E31"/><path d="M203.73 101.555l14.63 123.852 81.04 43.971V68.195l-95.67 33.36zm0 0" fill="#E23237"/><path d="M322.167 168.263L299.58 122.12l-19.884 46.143h42.471zm8.612 19.402h-59.873l-13.395 32.776-24.915.45 66.806-145.386 69.134 145.384h-23.093l-14.664-33.224zm0 0" fill="#F2F2F2"/><path d="M299.402 75.505l.178 46.615 22.564 46.178h-22.692l-.051 19.337 31.376.029 14.665 33.23 23.84.433-69.88-145.822zm0 0" fill="#B2B2B2"/></svg>