<svg xmlns="http://www.w3.org/2000/svg" width="600" height="337.5" viewBox="0 0 600 337.5"><path fill="#FFF" d="M0 0h600v337.5H0z"/><path d="M0 0h600v337.5H0z" fill="#48440E"/><path d="M0 0h600v337.5H0V0z" opacity=".475"/><path d="M225.509 43.031h11.614v11.225h10.623V43.031h11.616v33.993h-11.615V65.641h-10.625v11.382h-11.614V43.031zm49.126 11.272h-10.226V43.03h32.068v11.274h-10.228v22.72h-11.615V54.303zm26.934-11.272h12.111l7.448 11.944 7.442-11.944h12.115v33.993h-11.566V60.175l-7.991 12.086h-.199l-7.997-12.086v16.848h-11.363V43.031zm44.897 0h11.619v22.757h16.334v11.235h-27.953V43.031zm-76.64 131.414H300v-22.894h-32.263l2.088 22.894zm-61.057-82.516l16.614 182.289 74.572 20.251 74.642-20.242 16.635-182.298H208.769zM360.357 262.62L300 278.99v-23.201l-.038.012-46.814-12.715-3.274-35.898h22.942l1.699 18.624 25.453 6.725.032-.011v-35.724h-51.075l-6.164-67.609H300v-22.358h74.573L360.356 262.62z" fill="#8CBA4D"/><path d="M328.131 196.802H300v35.725l25.479-6.728 2.652-28.997zM300 106.835v22.358h57.239l-2.048 22.357H300v22.895h53.111l-6.27 68.641L300 255.789v23.2l60.357-16.369 14.216-155.786H300z" fill="#8CBA4D" opacity=".58"/><path d="M299.999 129.192H242.76l6.165 67.61h51.074v-22.358h-30.173l-2.089-22.893h32.262zM300 232.526l-.033.01-25.452-6.724-1.699-18.624h-22.943l3.273 35.898 46.817 12.713.037-.01z" fill="#8CBA4D" opacity=".2"/></svg>