<svg xmlns="http://www.w3.org/2000/svg" width="640" height="360" viewBox="0 0 640 360"><path fill="#FFF" d="M0 0h640v360H0z"/><path d="M0 0h640v360H0z" fill="#350000"/><path d="M133 196.2c0 23.4 1 37.8 2.8 46.4C146 247 162.2 250 183 250c40.4 0 57.4-19.4 57.4-41.4 0-20.6-5.6-31-39.2-43l-17-6.2C175 156.2 173 152 173 146c0-5.8 4.2-11.8 20-11.8 5.8 0 13.2 1 19 2.6l2.4 21.6h23.2c0-22-.4-41.4-2-45.8-10.2-2.6-26.8-4.8-39.8-4.8-41.8 0-57.8 19.2-57.8 42.4 0 24.8 14.2 34.4 33.6 40.4l17.6 5.2c11.6 3.6 15.2 8 15.2 15 0 7.2-4.8 12.6-17.4 12.6-8.8 0-17.6-1.2-26.8-4l-3.2-23.2z" stroke="#FFF" stroke-width="4" stroke-dasharray="8,4" fill="none"/><path d="M317 111v21l-19.6 1.6c22 65 23.6 69.8 25.6 77 2-5.8 4-12 26.6-77l-20-1.6v-21H399v21l-14.4 1.6-42.8 112.6h-39.6L260 133.6l-14-1.6v-21h71zm-4 4h-63v13.431l10.454 1.195 2.432.278.86 2.292L304.972 242.2h34.069l41.82-110.021.868-2.284L395 128.42V115h-61.4v13.307l16.319 1.306 5.159.412-1.7 4.889c-9.923 28.541-16.599 47.826-21.02 60.686-2.342 6.814-5.487 16.046-5.576 16.304l-4.193 12.16-3.442-12.394c-1.959-7.051-3.478-11.618-25.535-76.788l-1.642-4.852 5.105-.417 15.926-1.3V115zm207.2 124v-43.2l10.4-.8v-20.6h-59.2V195l17.2 1.4V218c-6.6 1.8-13.4 2.8-21.8 2.8-21 0-32.6-13.6-32.6-39.2 0-34.4 15.8-47 38.8-47 4.6 0 12 1 17.2 2.4l3 20.2h24.2c0-31.2-.6-38.2-2-44.8-13.4-3.2-26.8-5-45.8-5-46.4 0-70.6 27.2-70.6 74.6 0 41.8 24.2 67.8 62.4 67.8 31 0 46.2-6.8 58.8-10.8z" fill="#FFF"/></svg>