<svg xmlns="http://www.w3.org/2000/svg" width="600" height="337.5" viewBox="0 0 600 337.5"><path fill="#FFF" d="M0 0h600v337.5H0z"/><path d="M0 0h600v337.5H0z" fill="#262408"/><g fill="#ACF063"><path d="M396.694 103.076c0 11.933-9.674 21.607-21.607 21.607-11.932 0-21.606-9.674-21.606-21.606 0-11.933 9.673-21.606 21.606-21.606 11.933 0 21.606 9.674 21.606 21.606z"/><path d="M374.958 77.333v-.003h52.212c-9.491-19.165-29.246-32.344-52.083-32.344-18.486 0-34.954 8.636-45.594 22.093l19.92 34.065c.985-13.274 12.035-23.745 25.545-23.812zm.129 51.49c-11.141 0-20.629-7.077-24.215-16.981l-24.041-41.114c-6.21 9.246-9.835 20.374-9.835 32.349 0 29.241 21.605 53.431 49.723 57.489l20.042-34.535a25.635 25.635 0 01-11.674 2.793zm53.936-47.352h-39.931c7.067 4.59 11.742 12.551 11.742 21.606 0 4.452-1.131 8.641-3.12 12.294l.015.009-26.498 45.657c1.275.084 2.56.131 3.856.131 32.083 0 58.091-26.008 58.091-58.091a57.908 57.908 0 00-4.155-21.606z"/></g><g fill="#C5FF7C"><path d="M169.643 90.488s-.178.216-.443.576c-.038.197-.078.393-.114.591.168-.466.352-.861.556-1.167zm17.581-28.392c.114-.116.225-.233.34-.348A57.483 57.483 0 01205.9 49.385c7.11-3.008 14.665-4.533 22.454-4.533 7.352 0 14.495 1.36 21.252 4.043 3.948.681 9.209 1.995 13.593 4.487-9.837-6.986-21.861-11.094-34.845-11.094-16.834 0-32.052 6.907-42.984 18.038a11.036 11.036 0 001.853 1.771z"/><path d="M208.613 107.409a7.305 7.305 0 01-1.084-1.112c-.103.86-.172 1.786-.171 2.758 0 1.811.226 3.766.845 5.704a15.484 15.484 0 003.213 5.647c1.058 1.191 2.377 2.322 4.026 3.349l-.092.148c3.098.057 8.141-.003 10.696-.855 3.845-1.282 9.998-6.153 9.998-6.153 1.539-1.539 3.333-.769 4.872-.769 1.538 0 2.051-2.308 0-4.615-2.051-2.308-9.23-4.615-14.614-1.026-5.384 3.59-13.075.769-17.69-3.076zm3.716-33.836c-.344 1.278-.641 2.9-.64 4.663 0 1.78.298 3.695 1.135 5.578a24.833 24.833 0 001.883 3.508 32.17 32.17 0 001.136 1.623 19.865 19.865 0 012.256-1.79c1.538-1.025 7.435-3.846 8.204-4.615.769-.769 2.307-4.871 1.025-6.153-1.281-1.282-9.486-.514-12.049-1.026-1.08-.216-2.115-.979-2.95-1.788zm1.655 25.087l.012.032.028-.061-.04.029zm75.901-11.505c0 2.084-1.883 5.004-2.247 5.55.076-.194.195-.805.195-2.73 0-2.82.769-9.999-2.82-17.947-3.589-7.948-8.973-11.794-8.973-11.794v1.795c-.769-2.563-7.948-7.435-7.948-7.435v2.564c12.819 11.794 14.101 19.998 14.101 19.998-2.307-7.436-8.974-13.076-14.614-18.46-5.64-5.384-17.433-8.204-17.433-8.204 12.562 7.178 18.716 18.459 18.716 18.459-6.41-6.152-11.538-5.64-11.538-5.64 3.846 2.82 5.64 5.897 9.23 11.537 3.59 5.64 3.334 18.972 3.334 18.972-1.795-4.358-5.385-6.153-5.385-6.153s.769 7.692 1.282 12.05c.513 4.359-1.794 12.563-1.794 12.563 0-3.077-1.795-3.846-1.795-3.846s.512 1.795-2.051 9.999c-2.564 8.204-7.435 11.024-8.204 10.768-.769-.256 0-1.538 0-1.538s-1.282-1.026-3.076 1.794c-1.514 2.379-4.122 3.663-4.902 4.007.837-.474 1.056-2.212 1.056-2.212s-1.794 1.026-9.999 2.308c-8.204 1.281-12.05-2.308-12.05-2.308.769-.769 4.359 0 4.359 0 0-.769-4.103-2.051-8.204-2.564-3.335-.417-4.952-1.964-5.726-3.204a20.47 20.47 0 01-3.898-3.375 18.008 18.008 0 01-2.861-4.331c-1.399-2.977-1.845-6.028-1.845-8.724.001-2.545.396-4.783.792-6.398.396-1.614.793-2.605.811-2.649l.055.022c.481-1.482 1.426-2.673 2.545-3.159a11.242 11.242 0 00-1.083-.658c-1.674-.896-3.572-1.268-5.438-.958-1.869.296-3.658 1.223-5.249 2.438-1.526 1.165-2.741 2.823-3.538 4.653-.802 1.836-1.204 3.862-1.204 5.899-.002 2.039.399 4.086 1.138 6.015.738 1.931 1.808 3.743 3.101 5.383 1.294 1.642 2.809 3.116 4.451 4.432-1.714-1.223-3.317-2.616-4.721-4.208-1.403-1.588-2.603-3.379-3.479-5.338a17.686 17.686 0 01-1.543-6.254c-.12-2.169.184-4.382.955-6.453.772-2.067 1.998-4.002 3.745-5.5a16.094 16.094 0 012.76-1.88 11.93 11.93 0 013.217-1.179 10.31 10.31 0 013.492-.116c1.164.157 2.292.515 3.335 1.011a14.445 14.445 0 012.895 1.841 16.52 16.52 0 011.858 1.765c.16.18.307.35.468.553.914-2.368.273-6.326.123-7.158-.484-.684-1.17-1.548-1.942-2.78a27.815 27.815 0 01-1.859-3.523c-1.008-2.27-1.356-4.556-1.356-6.619.001-2.411.469-4.529.936-6.058.144-.471.288-.886.419-1.237 1.448-6.302 8.388-12.501 8.388-12.501-9.742-1.282-16.409 7.691-16.409 7.691l-.081-.048c-.691.766-3.033 3.505-3.252 5.689 0 0 .081-3.924 1.063-6.668-3.718-1.184-8.093-.565-10.336-.1l.014.082c-2.299.412-4.399 1.297-6.265 2.411-1.865 1.113-3.491 2.454-4.828 3.752-2.67 2.591-4.178 5.013-4.194 5.04v.001l-.072-.045c-4.718 6.839-7.685 21.421-7.685 21.421.513-2.307 2.821-5.128 2.821-5.128-2.564 3.847-2.051 21.537-2.051 21.537 0-2.82 1.538-6.153 1.538-6.153.513 5.896 3.077 24.868 19.741 39.226 16.665 14.357 30.766 15.639 30.766 15.639-3.333-1.026-4.102-2.564-4.102-2.564 10.768 4.359 17.433 3.59 17.433 3.59-1.794-1.026-2.05-1.795-2.05-1.795 11.537.513 26.92-3.59 30.509-6.154 3.589-2.563 6.666-7.691 6.666-7.691 9.229-4.358 15.639-13.331 17.433-17.946 1.795-4.616 0-9.487 0-9.487s0-.256 4.359-9.998c4.358-9.743 0-23.588 0-23.588zm-107.646-21.83a22.856 22.856 0 013.493-1.718c-4.936-4.111-4.553-9.525-4.553-9.525-4.938 4.769-6.144 12.817-6.397 17.684l.212-.248c1.671-1.921 4.11-4.311 7.245-6.193z"/></g><g fill="#92D649"><path d="M223.309 178.904c-31.545 0-57.121 25.577-57.121 57.122 0 30.635 24.121 55.632 54.405 57.053.909.046 1.807.068 2.716.068 14.63 0 27.964-5.501 38.07-14.539-6.695 4.445-14.528 6.991-22.894 6.991-13.607 0-25.781-6.752-33.977-17.392-6.321-7.457-10.402-18.472-10.686-30.84v-2.694c.284-12.367 4.365-23.394 10.685-30.84 8.196-10.64 20.382-17.392 33.978-17.392 8.366 0 16.198 2.557 22.893 7.002-10.048-8.992-23.314-14.482-37.853-14.539h-.216z"/><path d="M207.654 204.865c5.158-6.086 11.826-9.767 19.098-9.767 16.369 0 29.638 18.562 29.638 41.442 0 22.891-13.269 41.442-29.638 41.442-7.283 0-13.94-3.671-19.098-9.757 8.067 10.472 20.049 17.118 33.442 17.118 8.234 0 15.943-2.517 22.533-6.881 11.513-10.293 18.752-25.252 18.752-41.911 0-16.648-7.239-31.618-18.752-41.911-6.589-4.376-14.298-6.882-22.533-6.882-13.392 0-25.375 6.646-33.442 17.118"/></g><path d="M324.647 229.615c3.357-26.423 21.37-50.393 53.677-50.711 19.506.373 35.556 9.21 45.094 26.063 4.798 8.796 6.295 18.032 6.613 28.217v11.972h-71.694c.328 29.568 43.504 28.561 62.103 15.526v24.068c-10.889 6.543-35.582 12.372-54.711 4.875-16.294-6.12-27.899-23.157-27.819-39.557-.53-21.275 10.571-35.343 27.819-43.345-3.656 4.539-6.439 9.538-7.896 18.175h40.484s2.367-24.192-22.91-24.192c-23.845.843-41.04 14.708-50.764 28.905z" fill="#79BD30"/></svg>