<svg xmlns="http://www.w3.org/2000/svg" width="600" height="337.5" viewBox="0 0 600 337.5"><path fill="#FFF" d="M0 0h600v337.5H0z"/><path d="M0 0h600v337.5H0z" fill="#002400"/><path d="M204.836 171.713v38.401h.043c.174 4.257 2.656 9.288 6.93 14.498l5.788-46.76-12.761-6.139zm95.174 43.326c-5.074 0-9.583-2.109-9.583-2.109l-53.723-25.857 7.616 61.324c15.525 7.378 34.483 12.614 55.084 12.614 51.741 0 93.76-32.644 94.52-50.895h.056v-37.92l-84.364 40.701s-4.528 2.141-9.606 2.141z" fill="#92D649"/><path d="M215.563 266.393s1.939 9.371 11.037 9.371c9.097 0 11.036-9.371 11.036-9.371L226.6 182.266l-11.037 84.127zm231.506-137.169L309.418 63.588c-5.179-2.469-13.656-2.469-18.836 0l-137.652 65.61c-5.177 2.475-5.177 6.515 0 8.984l60.183 28.684c2.675 1.276 5.097 2.347 6.833 3.045 1.628.653 2.684 1.323 2.684 1.151 0-1.583.736-2.602 1.267-3.029.233-.193 1.307-.813 2.842-1.651l8.885-4.616 48.317-25.105c-.431-.909-.722-1.854-.722-2.857 0-5.79 7.51-10.481 16.772-10.481 9.26 0 16.773 4.693 16.773 10.481 0 5.791-7.513 10.484-16.773 10.484-2.847 0-5.484-.488-7.821-1.271l-58.379 30.332s-.844.625-.844 1.583c0 .995.517 1.473.517 1.473 2.162 1.209 4.363 2.26 7.298 3.678l49.825 23.741c5.179 2.49 13.649 2.49 18.831 0l137.648-65.606c5.183-2.484 5.183-6.524.003-8.994z" fill="#FFF"/></svg>