<svg xmlns="http://www.w3.org/2000/svg" width="600" height="337.5" viewBox="0 0 600 337.5"><path fill="#FFF" d="M0 0h600v337.5H0z"/><path d="M0 0h600v337.5H0z" fill="#681B04"/><path d="M353.49 40.254h-15.653l16.278 17.663v8.407h-33.528v-9.843h16.275l-16.275-17.663v-8.42h32.903v9.856zm-39.548 0h-15.653l16.277 17.663v8.407h-33.527v-9.843h16.276l-16.276-17.663v-8.42h32.902v9.856zm-39.162.4h-16.889v15.415h16.889v10.256h-28.893V30.398h28.893v10.256zm-51.909 234.569L205.708 82.726h188.584l-17.179 192.465-77.229 21.411-77.013-21.379zm0 0" fill="#FFF"/><path d="M300.001 280.237l62.404-17.301 14.681-164.47h-77.085v181.771zm0 0" fill="#E6D9CD"/><g fill="#681B04"><path d="M300.001 168.206h31.24l2.158-24.176h-33.398v-23.609h59.2l-.566 6.334-5.803 65.059h-52.831v-23.608zm.141 61.314l-.103.029-26.294-7.1-1.681-18.829h-23.699l3.307 37.069 48.361 13.425.109-.03V229.52zm0 0"/><path d="M329.235 190.815l-2.843 31.618-26.332 7.107v24.562l48.4-13.413.355-3.989 4.107-45.885h-23.687zm-29.153-70.394v23.609h-57.027l-.473-5.306-1.076-11.969-.564-6.334h59.141zm-.081 47.788v23.609H274.04l-.473-5.306-1.077-11.969-.563-6.334h28.074zm0 0"/></g></svg>