<svg xmlns="http://www.w3.org/2000/svg" width="1920" height="1080"><path fill="#22541d" stroke="#22541d" stroke-width="1.51" d="m876 1364-581 19 697-13Z"/><path fill="#24561b" stroke="#24561b" stroke-width="1.51" d="m580-269 154 4 491-34Z"/><path fill="#21531d" stroke="#21531d" stroke-width="1.51" d="m219-305 361 36 645-30Z"/><path fill="#25571b" stroke="#25571b" stroke-width="1.51" d="m219-305 1006 6 133-13Z"/><path fill="#21521e" stroke="#21521e" stroke-width="1.51" d="m1427 1316-435 54 739-23Z"/><path fill="#1d4e21" stroke="#1d4e21" stroke-width="1.51" d="m1358-312 361 59 137-41Z"/><path fill="#1b4a22" stroke="#1b4a22" stroke-width="1.51" d="m1988 1289-257 58 327-28Z"/><path fill="#1f5020" stroke="#1f5020" stroke-width="1.51" d="m2042 80 21 194 1-300Z"/><path fill="#1c4b22" stroke="#1c4b22" stroke-width="1.51" d="m1358-312 498 18 248-12Z"/><path fill="#1b4b22" stroke="#1b4b22" stroke-width="1.51" d="m1960-82 104 56 40-280Z"/><path fill="#22541e" stroke="#22541e" stroke-width="1.51" d="m1932 864 152 4 26-235Z"/><path fill="#26591b" stroke="#26591b" stroke-width="1.51" d="m1911 409-40 197 239 27Z"/><path fill="#1e4e21" stroke="#1e4e21" stroke-width="1.51" d="m1953 1130 85 38 93-252Z"/><path fill="#20511f" stroke="#20511f" stroke-width="1.51" d="m2084 868-196 142 243-94Z"/><path fill="#1f5020" stroke="#1f5020" stroke-width="1.51" d="m1888 1010 65 120 178-214Z"/><path fill="#1c4c22" stroke="#1c4c22" stroke-width="1.51" d="m2038 1168 20 151 73-403Z"/><path fill="#21531e" stroke="#21531e" stroke-width="1.51" d="m2110 633-26 235 47 48Z"/><path fill="#23551d" stroke="#23551d" stroke-width="1.51" d="m2063 274-110 50 194 127Z"/><path fill="#24561c" stroke="#24561c" stroke-width="1.51" d="m1953 324-42 85 236 42Z"/><path fill="#1e4e21" stroke="#1e4e21" stroke-width="1.51" d="m2104-306-40 280 83 477Z"/><path fill="#21521f" stroke="#21521f" stroke-width="1.51" d="m2064-26-1 300 84 177Z"/><path fill="#25571b" stroke="#25571b" stroke-width="1.51" d="m1911 409 199 224 37-182Z"/><path fill="#23551c" stroke="#23551c" stroke-width="1.51" d="m2110 633 21 283 16-465Z"/><path fill="#24561c" stroke="#24561c" stroke-width="1.51" d="m1871 606 61 258 178-231Z"/><path fill="#1b4a22" stroke="#1b4a22" stroke-width="1.51" d="m2038 1168-50 121 70 30Z"/><path fill="#21511f" stroke="#21511f" stroke-width="1.51" d="m2042 80-146 68 167 126Z"/><path fill="#21521f" stroke="#21521f" stroke-width="1.51" d="m1932 864-44 146 196-142Z"/><path fill="#1b4a22" stroke="#1b4a22" stroke-width="1.51" d="m1856-294 104 212 144-224Z"/><path fill="#25581a" stroke="#25581a" stroke-width="1.51" d="m734-265 162 12 329-46Z"/><path fill="#22541e" stroke="#22541e" stroke-width="1.51" d="m1896 148 57 176 110-50Z"/><path fill="#1d4d21" stroke="#1d4d21" stroke-width="1.51" d="m1960-82 82 162 22-106Z"/><path fill="#1c4c22" stroke="#1c4c22" stroke-width="1.51" d="m1953 1130 35 159 50-121Z"/><path fill="#1f4f21" stroke="#1f4f21" stroke-width="1.51" d="m1960-82-64 230 146-68Z"/><path fill="#265a1a" stroke="#265a1a" stroke-width="1.51" d="m1803 499 68 107 40-197Z"/><path fill="#23561d" stroke="#23561d" stroke-width="1.51" d="m1871 606-106 262 167-4Z"/><path fill="#1f4f21" stroke="#1f4f21" stroke-width="1.51" d="m1786-78 110 226 64-230Z"/><path fill="#1d4d21" stroke="#1d4d21" stroke-width="1.51" d="m1856-294-70 216 174-4Z"/><path fill="#1c4c22" stroke="#1c4c22" stroke-width="1.51" d="m1953 1130-222 217 257-58Z"/><path fill="#205120" stroke="#205120" stroke-width="1.51" d="m1786-78-56 141 166 85Z"/><path fill="#23551d" stroke="#23551d" stroke-width="1.51" d="m1896 148-144 82 201 94Z"/><path fill="#1e4e21" stroke="#1e4e21" stroke-width="1.51" d="m1705 1137 26 210 222-217Z"/><path fill="#25581c" stroke="#25581c" stroke-width="1.51" d="m1796 596-31 272 106-262Z"/><path fill="#24571d" stroke="#24571d" stroke-width="1.51" d="m1752 230 159 179 42-85Z"/><path fill="#1f4f21" stroke="#1f4f21" stroke-width="1.51" d="m1888 1010-183 127 248-7Z"/><path fill="#22531f" stroke="#22531f" stroke-width="1.51" d="m1765 868 123 142 44-146Z"/><path fill="#1d4d22" stroke="#1d4d22" stroke-width="1.51" d="m1719-253 67 175 70-216Z"/><path fill="#25581c" stroke="#25581c" stroke-width="1.51" d="m1752 230 51 269 108-90Z"/><path fill="#275b1a" stroke="#275b1a" stroke-width="1.51" d="m1803 499-7 97 75 10Z"/><path fill="#22541f" stroke="#22541f" stroke-width="1.51" d="m1765 868-47 55 170 87Zm-35-805 22 167 144-82Z"/><path fill="#215220" stroke="#215220" stroke-width="1.51" d="m1718 923-13 214 183-127Z"/><path fill="#1f5020" stroke="#1f5020" stroke-width="1.51" d="m1358-312 155 92 206-33Z"/><path fill="#26591b" stroke="#26591b" stroke-width="1.51" d="m1552 681 213 187 31-272Z"/><path fill="#1f4f20" stroke="#1f4f20" stroke-width="1.51" d="m1581 1281-154 35 304 31Z"/><path fill="#1f5021" stroke="#1f5021" stroke-width="1.51" d="m1705 1137-75 45 101 165Z"/><path fill="#275a1b" stroke="#275a1b" stroke-width="1.51" d="m1552 681-31 84 244 103Z"/><path fill="#1f4f21" stroke="#1f4f21" stroke-width="1.51" d="M1719-253 1611-89l175 11Z"/><path fill="#295e18" stroke="#295e18" stroke-width="1.51" d="m1537 420 15 261 244-85Z"/><path fill="#285c19" stroke="#285c19" stroke-width="1.51" d="m1537 420 259 176 7-97Z"/><path fill="#275a1b" stroke="#275a1b" stroke-width="1.51" d="m1752 230-215 190 266 79Z"/><path fill="#275b1a" stroke="#275b1a" stroke-width="1.51" d="m1510 335 27 85 215-190Z"/><path fill="#205121" stroke="#205121" stroke-width="1.51" d="m1611-89 119 152 56-141Z"/><path fill="#22541f" stroke="#22541f" stroke-width="1.51" d="m1524 994 181 143 13-214Z"/><path fill="#1f4f21" stroke="#1f4f21" stroke-width="1.51" d="m1630 1182-49 99 150 66Z"/><path fill="#23551e" stroke="#23551e" stroke-width="1.51" d="m1730 63-183 55 205 112Z"/><path fill="#25571d" stroke="#25571d" stroke-width="1.51" d="m1521 765 197 158 47-55Z"/><path fill="#25581c" stroke="#25581c" stroke-width="1.51" d="m1547 118-37 217 242-105Z"/><path fill="#1f5020" stroke="#1f5020" stroke-width="1.51" d="m1513-220 98 131 108-164Z"/><path fill="#22541f" stroke="#22541f" stroke-width="1.51" d="m1611-89-64 207 183-55Z"/><path fill="#225320" stroke="#225320" stroke-width="1.51" d="m1524 994 106 188 75-45Z"/><path fill="#25581d" stroke="#25581d" stroke-width="1.51" d="m1521 765 3 229 194-71Z"/><path fill="#23551d" stroke="#23551d" stroke-width="1.51" d="m1207 1287-215 83 435-54Z"/><path fill="#26591c" stroke="#26591c" stroke-width="1.51" d="m1521 765-72 207 75 22Z"/><path fill="#2a6017" stroke="#2a6017" stroke-width="1.51" d="m1537 420-101 190 116 71Z"/><path fill="#23551e" stroke="#23551e" stroke-width="1.51" d="m1460 41 87 77 64-207Z"/><path fill="#21521f" stroke="#21521f" stroke-width="1.51" d="m1419 1113 162 168 49-99Z"/><path fill="#23541e" stroke="#23541e" stroke-width="1.51" d="m1524 994-105 119 211 69Z"/><path fill="#275b1b" stroke="#275b1b" stroke-width="1.51" d="m1451 324 59 11 37-217Z"/><path fill="#21521f" stroke="#21521f" stroke-width="1.51" d="m1513-220-104 105 202 26Z"/><path fill="#22541f" stroke="#22541f" stroke-width="1.51" d="m1409-115 51 156 151-130Z"/><path fill="#275b1b" stroke="#275b1b" stroke-width="1.51" d="m1392 807 57 165 72-207Z"/><path fill="#2b6016" stroke="#2b6016" stroke-width="1.51" d="m1384 498 52 112 101-190Z"/><path fill="#21531e" stroke="#21531e" stroke-width="1.51" d="m1419 1113 8 203 154-35Z"/><path fill="#285b1b" stroke="#285b1b" stroke-width="1.51" d="m1261 231 190 93 9-283Z"/><path fill="#26591c" stroke="#26591c" stroke-width="1.51" d="m1460 41-9 283 96-206Z"/><path fill="#295d18" stroke="#295d18" stroke-width="1.51" d="m1436 610 85 155 31-84Z"/><path fill="#24571d" stroke="#24571d" stroke-width="1.51" d="m1449 972-30 141 105-119Z"/><path fill="#285d19" stroke="#285d19" stroke-width="1.51" d="m1510 335-59-11 86 96Z"/><path fill="#2a5e17" stroke="#2a5e17" stroke-width="1.51" d="m1451 324-67 174 153-78Z"/><path fill="#295d18" stroke="#295d18" stroke-width="1.51" d="m1436 610-44 197 129-42Z"/><path fill="#21521e" stroke="#21521e" stroke-width="1.51" d="m1358-312 51 197 104-105Z"/><path fill="#275a1b" stroke="#275a1b" stroke-width="1.51" d="m1287 40-26 191 199-190Z"/><path fill="#24561d" stroke="#24561d" stroke-width="1.51" d="m1230 1109-23 178 212-174Z"/><path fill="#22541d" stroke="#22541d" stroke-width="1.51" d="m1419 1113-212 174 220 29Z"/><path fill="#2a5f18" stroke="#2a5f18" stroke-width="1.51" d="m1230 778 162 29 44-197Z"/><path fill="#2a6016" stroke="#2a6016" stroke-width="1.51" d="m1258 406 126 92 67-174Z"/><path fill="#24561d" stroke="#24561d" stroke-width="1.51" d="M1409-115 1287 40l173 1Z"/><path fill="#2c6115" stroke="#2c6115" stroke-width="1.51" d="m1214 592 16 186 206-168Z"/><path fill="#25581c" stroke="#25581c" stroke-width="1.51" d="m1203 1037 216 76 30-141Z"/><path fill="#275b1b" stroke="#275b1b" stroke-width="1.51" d="m1392 807-189 230 246-65Z"/><path fill="#2a5f18" stroke="#2a5f18" stroke-width="1.51" d="m1261 231-3 175 193-82Z"/><path fill="#25581c" stroke="#25581c" stroke-width="1.51" d="m1203 1037 27 72 189 4Z"/><path fill="#295d19" stroke="#295d19" stroke-width="1.51" d="m1230 778-27 259 189-230Z"/><path fill="#24571d" stroke="#24571d" stroke-width="1.51" d="m1250-11 37 51 122-155Z"/><path fill="#2c6214" stroke="#2c6214" stroke-width="1.51" d="m1384 498-170 94 222 18Z"/><path fill="#22531e" stroke="#22531e" stroke-width="1.51" d="m1358-312-133 13 184 184Z"/><path fill="#23561d" stroke="#23561d" stroke-width="1.51" d="m1225-299 25 288 159-104Z"/><path fill="#2d6213" stroke="#2d6213" stroke-width="1.51" d="m1258 406-44 186 170-94Z"/><path fill="#295e17" stroke="#295e17" stroke-width="1.51" d="m1012 861 191 176 27-259Z"/><path fill="#24571c" stroke="#24571c" stroke-width="1.51" d="m1225-299-174 98 199 190Z"/><path fill="#2e6412" stroke="#2e6412" stroke-width="1.51" d="m1107 570 107 22 44-186Z"/><path fill="#2c6115" stroke="#2c6115" stroke-width="1.51" d="m1036 429 222-23 3-175Z"/><path fill="#285c19" stroke="#285c19" stroke-width="1.51" d="m1055 69 206 162 26-191Z"/><path fill="#265a1b" stroke="#265a1b" stroke-width="1.51" d="m1250-11-195 80 232-29Z"/><path fill="#24571b" stroke="#24571b" stroke-width="1.51" d="m896-253 155 52 174-98Z"/><path fill="#25581c" stroke="#25581c" stroke-width="1.51" d="m1082 1100 125 187 23-178Z"/><path fill="#2d6313" stroke="#2d6313" stroke-width="1.51" d="m1214 592-107-22 123 208Z"/><path fill="#26591b" stroke="#26591b" stroke-width="1.51" d="m1051-201-28 154 227 36Z"/><path fill="#2e6412" stroke="#2e6412" stroke-width="1.51" d="m1036 429 71 141 151-164Z"/><path fill="#2a5f17" stroke="#2a5f17" stroke-width="1.51" d="m1055 69-60 151 266 11Z"/><path fill="#2b6115" stroke="#2b6115" stroke-width="1.51" d="m995 220 41 209 225-198Z"/><path fill="#275b1a" stroke="#275b1a" stroke-width="1.51" d="m1023-47 32 116 195-80Z"/><path fill="#295d18" stroke="#295d18" stroke-width="1.51" d="m1012 861-15 174 206 2Z"/><path fill="#265a1b" stroke="#265a1b" stroke-width="1.51" d="m1203 1037-121 63 148 9Z"/><path fill="#2c6214" stroke="#2c6214" stroke-width="1.51" d="m1107 570-95 291 218-83Z"/><path fill="#2e6412" stroke="#2e6412" stroke-width="1.51" d="m920 665 92 196 95-291Z"/><path fill="#275b1a" stroke="#275b1a" stroke-width="1.51" d="m997 1035 85 65 121-63Z"/><path fill="#25581c" stroke="#25581c" stroke-width="1.51" d="m1082 1100-90 270 215-83Z"/><path fill="#275a19" stroke="#275a19" stroke-width="1.51" d="m817 1139 175 231 90-270Z"/><path fill="#30660f" stroke="#30660f" stroke-width="1.51" d="M1036 429 920 665l187-95Z"/><path fill="#21531e" stroke="#21531e" stroke-width="1.51" d="m666 1285-371 98 581-19Z"/><path fill="#25581b" stroke="#25581b" stroke-width="1.51" d="m817 1139 59 225 116 6Z"/><path fill="#2d6313" stroke="#2d6313" stroke-width="1.51" d="m920 665-9 183 101 13Z"/><path fill="#30670e" stroke="#30670e" stroke-width="1.51" d="m883 448 37 217 116-236Z"/><path fill="#285c19" stroke="#285c19" stroke-width="1.51" d="m997 1035-180 104 265-39Z"/><path fill="#2c6313" stroke="#2c6313" stroke-width="1.51" d="m864 235 19 213 112-228Z"/><path fill="#265a1a" stroke="#265a1a" stroke-width="1.51" d="M896-253 836-62l187 15Z"/><path fill="#2e6411" stroke="#2e6411" stroke-width="1.51" d="M995 220 883 448l153-19Z"/><path fill="#26591a" stroke="#26591a" stroke-width="1.51" d="m896-253 127 206 28-154Z"/><path fill="#295e18" stroke="#295e18" stroke-width="1.51" d="M1023-47 910 168l145-99Z"/><path fill="#2a6016" stroke="#2a6016" stroke-width="1.51" d="m910 168 85 52 60-151Z"/><path fill="#2b6016" stroke="#2b6016" stroke-width="1.51" d="m911 848 86 187 15-174Z"/><path fill="#285d19" stroke="#285d19" stroke-width="1.51" d="m836-62 74 230 113-215Z"/><path fill="#2a5f17" stroke="#2a5f17" stroke-width="1.51" d="m911 848-100 153 186 34Z"/><path fill="#285c19" stroke="#285c19" stroke-width="1.51" d="m811 1001 6 138 180-104Z"/><path fill="#2b6115" stroke="#2b6115" stroke-width="1.51" d="m910 168-46 67 131-15Z"/><path fill="#21521f" stroke="#21521f" stroke-width="1.51" d="m515 1277-220 106 371-98Z"/><path fill="#24571c" stroke="#24571c" stroke-width="1.51" d="m817 1139-151 146 210 79Z"/><path fill="#2c6214" stroke="#2c6214" stroke-width="1.51" d="m864 235-147 58 166 155Z"/><path fill="#25571c" stroke="#25571c" stroke-width="1.51" d="M734-265 836-62l60-191Z"/><path fill="#285c19" stroke="#285c19" stroke-width="1.51" d="M836-62 742 55l168 113Z"/><path fill="#2e6511" stroke="#2e6511" stroke-width="1.51" d="M883 448 658 619l262 46Z"/><path fill="#2c6214" stroke="#2c6214" stroke-width="1.51" d="m678 801 233 47 9-183Z"/><path fill="#2c6214" stroke="#2c6214" stroke-width="1.51" d="m658 619 20 182 242-136Z"/><path fill="#2a5f17" stroke="#2a5f17" stroke-width="1.51" d="m742 55 122 180 46-67Z"/><path fill="#295e18" stroke="#295e18" stroke-width="1.51" d="m687 930 124 71 100-153Z"/><path fill="#2a5f17" stroke="#2a5f17" stroke-width="1.51" d="m678 801 9 129 224-82Z"/><path fill="#2c6214" stroke="#2c6214" stroke-width="1.51" d="m717 293-53 127 219 28Z"/><path fill="#2e6412" stroke="#2e6412" stroke-width="1.51" d="m664 420-6 199 225-171Z"/><path fill="#1f501f" stroke="#1f501f" stroke-width="1.51" d="m219-305 181 57 180-21Z"/><path fill="#295f17" stroke="#295f17" stroke-width="1.51" d="m742 55-25 238 147-58Z"/><path fill="#265a1b" stroke="#265a1b" stroke-width="1.51" d="m811 1001-160 121 166 17ZM642-15l100 70 94-117Z"/><path fill="#25581c" stroke="#25581c" stroke-width="1.51" d="M734-265 642-15l194-47Z"/><path fill="#24571c" stroke="#24571c" stroke-width="1.51" d="m651 1122 15 163 151-146Z"/><path fill="#275b1a" stroke="#275b1a" stroke-width="1.51" d="m687 930-36 192 160-121Z"/><path fill="#23561d" stroke="#23561d" stroke-width="1.51" d="M580-269 523-62l119 47Z"/><path fill="#23551d" stroke="#23551d" stroke-width="1.51" d="m580-269 62 254 92-250Z"/><path fill="#26591c" stroke="#26591c" stroke-width="1.51" d="M642-15 461 106l281-51Z"/><path fill="#275b1a" stroke="#275b1a" stroke-width="1.51" d="m461 106 83 176L742 55Z"/><path fill="#295d18" stroke="#295d18" stroke-width="1.51" d="m544 282 173 11 25-238Z"/><path fill="#2d6313" stroke="#2d6313" stroke-width="1.51" d="m527 564 131 55 6-199Z"/><path fill="#265a1b" stroke="#265a1b" stroke-width="1.51" d="m529 956 122 166 36-192Z"/><path fill="#295e19" stroke="#295e19" stroke-width="1.51" d="m678 801-100 30 109 99Z"/><path fill="#2a5f17" stroke="#2a5f17" stroke-width="1.51" d="m544 282 120 138 53-127Z"/><path fill="#23551d" stroke="#23551d" stroke-width="1.51" d="m651 1122-136 155 151 8Z"/><path fill="#2a5f17" stroke="#2a5f17" stroke-width="1.51" d="m658 619-80 212 100-30Z"/><path fill="#285c1a" stroke="#285c1a" stroke-width="1.51" d="m578 831-49 125 158-26Z"/><path fill="#2b6016" stroke="#2b6016" stroke-width="1.51" d="m527 564 51 267 80-212Z"/><path fill="#2b6115" stroke="#2b6115" stroke-width="1.51" d="m496 414 31 150 137-144Z"/><path fill="#25571d" stroke="#25571d" stroke-width="1.51" d="m529 956-52 186 174-20Z"/><path fill="#23551d" stroke="#23551d" stroke-width="1.51" d="m477 1142 38 135 136-155Z"/><path fill="#2a5f17" stroke="#2a5f17" stroke-width="1.51" d="m544 282-48 132 168 6Z"/><path fill="#25571d" stroke="#25571d" stroke-width="1.51" d="m523-62-62 168L642-15Z"/><path fill="#2a5e17" stroke="#2a5e17" stroke-width="1.51" d="M527 564 379 673l199 158Z"/><path fill="#275b1a" stroke="#275b1a" stroke-width="1.51" d="m364 825 165 131 49-125Z"/><path fill="#285c1a" stroke="#285c1a" stroke-width="1.51" d="m379 673-15 152 214 6Z"/><path fill="#21531e" stroke="#21531e" stroke-width="1.51" d="M400-248 523-62l57-207Z"/><path fill="#24551e" stroke="#24551e" stroke-width="1.51" d="m342-27 119 133 62-168Z"/><path fill="#2a6016" stroke="#2a6016" stroke-width="1.51" d="m496 414-145 47 176 103Z"/><path fill="#24571d" stroke="#24571d" stroke-width="1.51" d="m359 1015 118 127 52-186Z"/><path fill="#265a1b" stroke="#265a1b" stroke-width="1.51" d="m461 106-130 42 213 134Z"/><path fill="#275a1b" stroke="#275a1b" stroke-width="1.51" d="m331 148-32 171 245-37Z"/><path fill="#295d19" stroke="#295d19" stroke-width="1.51" d="m299 319 197 95 48-132Z"/><path fill="#21531f" stroke="#21531f" stroke-width="1.51" d="M400-248 342-27l181-35Z"/><path fill="#25581c" stroke="#25581c" stroke-width="1.51" d="m364 825-5 190 170-59Z"/><path fill="#2a6016" stroke="#2a6016" stroke-width="1.51" d="m351 461 28 212 148-109Z"/><path fill="#22531f" stroke="#22531f" stroke-width="1.51" d="m477 1142-167-7 205 142Z"/><path fill="#205120" stroke="#205120" stroke-width="1.51" d="m310 1135-15 248 220-106Z"/><path fill="#285d19" stroke="#285d19" stroke-width="1.51" d="m299 319 52 142 145-47Z"/><path fill="#22541f" stroke="#22541f" stroke-width="1.51" d="m359 1015-49 120 167 7Z"/><path fill="#24561e" stroke="#24561e" stroke-width="1.51" d="m342-27-11 175 130-42Z"/><path fill="#1f4f21" stroke="#1f4f21" stroke-width="1.51" d="m219 1321 76 62 15-248Z"/><path fill="#275b1a" stroke="#275b1a" stroke-width="1.51" d="m216 679 148 146 15-152Z"/><path fill="#295d18" stroke="#295d18" stroke-width="1.51" d="M351 461 216 679l163-6Z"/><path fill="#205120" stroke="#205120" stroke-width="1.51" d="m199-97 143 70 58-221Z"/><path fill="#1e4f21" stroke="#1e4f21" stroke-width="1.51" d="M219-305 199-97l201-151Z"/><path fill="#23551e" stroke="#23551e" stroke-width="1.51" d="m212 138 119 10 11-175Z"/><path fill="#295d18" stroke="#295d18" stroke-width="1.51" d="m166 445 50 234 135-218Z"/><path fill="#24561e" stroke="#24561e" stroke-width="1.51" d="m165 1035 194-20 5-190Z"/><path fill="#24571d" stroke="#24571d" stroke-width="1.51" d="m151 766 14 269 199-210Z"/><path fill="#25571d" stroke="#25571d" stroke-width="1.51" d="m212 138 87 181 32-171Z"/><path fill="#21531f" stroke="#21531f" stroke-width="1.51" d="m198 1118 112 17 49-120Z"/><path fill="#26591b" stroke="#26591b" stroke-width="1.51" d="m216 679-65 87 213 59Z"/><path fill="#275b1a" stroke="#275b1a" stroke-width="1.51" d="M299 319 166 445l185 16Z"/><path fill="#21531f" stroke="#21531f" stroke-width="1.51" d="m165 1035 33 83 161-103Z"/><path fill="#215220" stroke="#215220" stroke-width="1.51" d="m199-97 13 235L342-27Z"/><path fill="#1b4a22" stroke="#1b4a22" stroke-width="1.51" d="m-244-290 232 75 231-90Z"/><path fill="#1f5020" stroke="#1f5020" stroke-width="1.51" d="m198 1118 21 203 91-186Z"/><path fill="#1c4c21" stroke="#1c4c21" stroke-width="1.51" d="m219 1321-169 63 245-1Z"/><path fill="#25571d" stroke="#25571d" stroke-width="1.51" d="m212 138-95 104 182 77Z"/><path fill="#23541f" stroke="#23541f" stroke-width="1.51" d="M151 766 47 947l118 88Z"/><path fill="#25591c" stroke="#25591c" stroke-width="1.51" d="m117 242 49 203 133-126Z"/><path fill="#25571c" stroke="#25571c" stroke-width="1.51" d="m117 242-91 85 140 118Z"/><path fill="#1f5021" stroke="#1f5021" stroke-width="1.51" d="M199-97 41-134l171 272Z"/><path fill="#205120" stroke="#205120" stroke-width="1.51" d="m41-134-85 298 256-26Z"/><path fill="#275b1a" stroke="#275b1a" stroke-width="1.51" d="M166 445 22 667l194 12Z"/><path fill="#1e4e21" stroke="#1e4e21" stroke-width="1.51" d="m198 1118-262 98 283 105Z"/><path fill="#1c4c22" stroke="#1c4c22" stroke-width="1.51" d="m-64 1216 114 168 169-63Z"/><path fill="#1d4d22" stroke="#1d4d22" stroke-width="1.51" d="m41-134 158 37 20-208Z"/><path fill="#1c4c22" stroke="#1c4c22" stroke-width="1.51" d="m-12-215 53 81 178-171Z"/><path fill="#26591c" stroke="#26591c" stroke-width="1.51" d="m22 667 129 99 65-87Z"/><path fill="#22541e" stroke="#22541e" stroke-width="1.51" d="m-44 164 161 78 95-104Z"/><path fill="#23551e" stroke="#23551e" stroke-width="1.51" d="m-1 866 48 81 104-181Z"/><path fill="#1f4f21" stroke="#1f4f21" stroke-width="1.51" d="m165 1035-229 181 262-98Z"/><path fill="#1f5021" stroke="#1f5021" stroke-width="1.51" d="m47 947-111 269 229-181Z"/><path fill="#25581c" stroke="#25581c" stroke-width="1.51" d="m26 327-69 102 209 16Z"/><path fill="#265a1a" stroke="#265a1a" stroke-width="1.51" d="m-43 429 65 238 144-222Z"/><path fill="#24561d" stroke="#24561d" stroke-width="1.51" d="M22 667-1 866l152-100Z"/><path fill="#23551d" stroke="#23551d" stroke-width="1.51" d="m-44 164 70 163 91-85Z"/><path fill="#1f4f20" stroke="#1f4f20" stroke-width="1.51" d="m-180-84 19 204 117 44Z"/><path fill="#26591a" stroke="#26591a" stroke-width="1.51" d="m-43 429-148 88L22 667Z"/><path fill="#23551d" stroke="#23551d" stroke-width="1.51" d="M-183 754-1 866l23-199Z"/><path fill="#22541e" stroke="#22541e" stroke-width="1.51" d="m-44 164-72 146 142 17Z"/><path fill="#1e4e21" stroke="#1e4e21" stroke-width="1.51" d="m-180-84 136 248 85-298Z"/><path fill="#1f4f21" stroke="#1f4f21" stroke-width="1.51" d="m-197 960 133 256L47 947Z"/><path fill="#1b4a22" stroke="#1b4a22" stroke-width="1.51" d="m-64 1216-60 86 174 82Z"/><path fill="#20521f" stroke="#20521f" stroke-width="1.51" d="m-1 866-196 94 244-13Z"/><path fill="#1c4c22" stroke="#1c4c22" stroke-width="1.51" d="M-12-215-180-84l221-50Z"/><path fill="#25571b" stroke="#25571b" stroke-width="1.51" d="m-191 517-29 105 242 45Z"/><path fill="#23561d" stroke="#23561d" stroke-width="1.51" d="m-116 310 73 119 69-102Z"/><path fill="#1c4c22" stroke="#1c4c22" stroke-width="1.51" d="m-197 960 20 256h113Z"/><path fill="#23561c" stroke="#23561c" stroke-width="1.51" d="m-220 622 37 132 205-87Z"/><path fill="#21521f" stroke="#21521f" stroke-width="1.51" d="m-183 754-14 206 196-94Z"/><path fill="#1a4a22" stroke="#1a4a22" stroke-width="1.51" d="m-244-290 64 206 168-131Z"/><path fill="#21521f" stroke="#21521f" stroke-width="1.51" d="m-161 120 45 190 72-146Z"/><path fill="#24561c" stroke="#24561c" stroke-width="1.51" d="m-116 310-75 207 148-88Z"/><path fill="#1b4a22" stroke="#1b4a22" stroke-width="1.51" d="m-177 1216 53 86 60-86Z"/><path fill="#22541d" stroke="#22541d" stroke-width="1.51" d="m-161 120-30 397 75-207Z"/><path fill="#24551c" stroke="#24551c" stroke-width="1.51" d="m-220 622 29-105 30-397Z"/><path fill="#1f501f" stroke="#1f501f" stroke-width="1.51" d="m-244-290 24 912 59-502Z"/><path fill="#1b4b22" stroke="#1b4b22" stroke-width="1.51" d="m-180-84-64-206 83 410Z"/><path fill="#21531d" stroke="#21531d" stroke-width="1.51" d="m-220 622 23 338 14-206Z"/></svg>