<svg xmlns="http://www.w3.org/2000/svg" width="1920" height="1080"><path fill="#203b24" stroke="#203b24" stroke-width="1.51" d="m647-199 133-3 155-15Z"/><path fill="#193828" stroke="#193828" stroke-width="1.51" d="m118-217 529 18 288-18Z"/><path fill="#203c23" stroke="#203c23" stroke-width="1.51" d="m929 1268-125 4 303 4Z"/><path fill="#203c23" stroke="#203c23" stroke-width="1.51" d="m804 1272-152 8 455-4Z"/><path fill="#203b25" stroke="#203b25" stroke-width="1.51" d="M118-217h817l344-3Z"/><path fill="#203b24" stroke="#203b24" stroke-width="1.51" d="m935-217 162 7 182-10Zm172 1493-455 4 905 18Z"/><path fill="#1b3827" stroke="#1b3827" stroke-width="1.51" d="m1240 1265-133 11 450 22Z"/><path fill="#10342c" stroke="#10342c" stroke-width="1.51" d="m1694 1244-137 54 303-50Z"/><path fill="#0a3032" stroke="#0a3032" stroke-width="1.51" d="m1948 1254-88-6 251 49Z"/><path fill="#0c322f" stroke="#0c322f" stroke-width="1.51" d="m1860 1248-303 50 554-1Z"/><path fill="#0e332d" stroke="#0e332d" stroke-width="1.51" d="m2109-47-111-15 116 190Z"/><path fill="#1a3a24" stroke="#1a3a24" stroke-width="1.51" d="m1961 688 22 122 132 7Z"/><path fill="#153629" stroke="#153629" stroke-width="1.51" d="m2114 128-125 126 158 24Z"/><path fill="#10342d" stroke="#10342d" stroke-width="1.51" d="m1279-220 250 5 620 5Z"/><path fill="#0b3131" stroke="#0b3131" stroke-width="1.51" d="m1685-200 173 11 291-21Z"/><path fill="#0d322e" stroke="#0d322e" stroke-width="1.51" d="m1529-215 156 15 464-10Z"/><path fill="#093032" stroke="#093032" stroke-width="1.51" d="m1858-189 84 6 207-27Z"/><path fill="#0a3132" stroke="#0a3132" stroke-width="1.51" d="m1998-62 111 15 40-163Z"/><path fill="#093132" stroke="#093132" stroke-width="1.51" d="m1942-183 56 121 151-148Z"/><path fill="#0f332e" stroke="#0f332e" stroke-width="1.51" d="m2114 128 33 150 2-488Z"/><path fill="#0b3130" stroke="#0b3130" stroke-width="1.51" d="m2109-47 5 175 35-338Z"/><path fill="#10342c" stroke="#10342c" stroke-width="1.51" d="m2117 942-175 58 209 89Z"/><path fill="#0e342d" stroke="#0e342d" stroke-width="1.51" d="m1942 1000 57 144 152-55Z"/><path fill="#0b3131" stroke="#0b3131" stroke-width="1.51" d="m1999 1144 112 153 40-208Z"/><path fill="#1c3a25" stroke="#1c3a25" stroke-width="1.51" d="m1961 688 154 129 38-129Z"/><path fill="#203c23" stroke="#203c23" stroke-width="1.51" d="m2090 538-129 150h192Z"/><path fill="#203b24" stroke="#203b24" stroke-width="1.51" d="m2147 278-51 115 57 295Z"/><path fill="#203b24" stroke="#203b24" stroke-width="1.51" d="m2096 393-6 145 63 150Z"/><path fill="#12342b" stroke="#12342b" stroke-width="1.51" d="m2117 942 34 147 2-401Z"/><path fill="#173729" stroke="#173729" stroke-width="1.51" d="m2115 817 2 125 36-254Z"/><path fill="#10352b" stroke="#10352b" stroke-width="1.51" d="m1998-62-50 173 166 17Z"/><path fill="#1a3926" stroke="#1a3926" stroke-width="1.51" d="m1989 254 107 139 51-115Z"/><path fill="#203d21" stroke="#203d21" stroke-width="1.51" d="m1970 547-9 141 129-150Z"/><path fill="#203c23" stroke="#203c23" stroke-width="1.51" d="m2004 406 86 132 6-145Z"/><path fill="#1c3b24" stroke="#1c3b24" stroke-width="1.51" d="m1989 254 15 152 92-13Z"/><path fill="#0a3131" stroke="#0a3131" stroke-width="1.51" d="m1999 1144-51 110 163 43Z"/><path fill="#133628" stroke="#133628" stroke-width="1.51" d="m1948 111 41 143 125-126Z"/><path fill="#153628" stroke="#153628" stroke-width="1.51" d="m2115 817-132-7 134 132Z"/><path fill="#133628" stroke="#133628" stroke-width="1.51" d="m1983 810-41 190 175-58Z"/><path fill="#203d21" stroke="#203d21" stroke-width="1.51" d="m2004 406-34 141 120-9Z"/><path fill="#12352b" stroke="#12352b" stroke-width="1.51" d="m270 1265-151 19 533-4Z"/><path fill="#153825" stroke="#153825" stroke-width="1.51" d="m1795 838 147 162 41-190Z"/><path fill="#143825" stroke="#143825" stroke-width="1.51" d="m1948 111-126 124 167 19Z"/><path fill="#0f352a" stroke="#0f352a" stroke-width="1.51" d="m1829-47 119 158 50-173Zm113 1047-105 139 162 5Z"/><path fill="#1d3c21" stroke="#1d3c21" stroke-width="1.51" d="m1989 254-129 152h144Z"/><path fill="#203e1f" stroke="#203e1f" stroke-width="1.51" d="m1860 406 110 141 34-141Z"/><path fill="#1a3b21" stroke="#1a3b21" stroke-width="1.51" d="m1822 235 38 171 129-152Z"/><path fill="#0d332d" stroke="#0d332d" stroke-width="1.51" d="M1942-183 1829-47l169-15Z"/><path fill="#0d332e" stroke="#0d332e" stroke-width="1.51" d="m1837 1139 111 115 51-110Z"/><path fill="#143825" stroke="#143825" stroke-width="1.51" d="m1795 838 53 171 94-9Z"/><path fill="#103628" stroke="#103628" stroke-width="1.51" d="m1848 1009-11 130 105-139Z"/><path fill="#0d332d" stroke="#0d332d" stroke-width="1.51" d="m1837 1139 23 109 88 6Z"/><path fill="#133825" stroke="#133825" stroke-width="1.51" d="m1844 115-22 120 126-124Z"/><path fill="#113727" stroke="#113727" stroke-width="1.51" d="m1829-47 15 162 104-4Z"/><path fill="#203f1d" stroke="#203f1d" stroke-width="1.51" d="m1860 406-33 122 143 19Z"/><path fill="#203e1f" stroke="#203e1f" stroke-width="1.51" d="m1847 687 114 1 9-141Z"/><path fill="#1d3c21" stroke="#1d3c21" stroke-width="1.51" d="m1961 688-114-1 136 123Z"/><path fill="#0c332e" stroke="#0c332e" stroke-width="1.51" d="m1858-189-29 142 113-136Z"/><path fill="#203f1d" stroke="#203f1d" stroke-width="1.51" d="m1827 528 20 159 123-140Z"/><path fill="#1a3b21" stroke="#1a3b21" stroke-width="1.51" d="m1847 687-52 151 188-28Z"/><path fill="#1c3d1d" stroke="#1c3d1d" stroke-width="1.51" d="m1652 279 23 145 147-189Z"/><path fill="#103529" stroke="#103529" stroke-width="1.51" d="m1685-200 19 165 125-12Z"/><path fill="#113727" stroke="#113727" stroke-width="1.51" d="m1829-47-125 12 140 150Z"/><path fill="#20401b" stroke="#20401b" stroke-width="1.51" d="m1827 528-138 158 158 1Z"/><path fill="#1d3e1d" stroke="#1d3e1d" stroke-width="1.51" d="m1689 686 106 152 52-151Z"/><path fill="#143923" stroke="#143923" stroke-width="1.51" d="m1795 838-103 110 156 61Z"/><path fill="#113727" stroke="#113727" stroke-width="1.51" d="m1713 1128 124 11 11-130Z"/><path fill="#0e342c" stroke="#0e342c" stroke-width="1.51" d="m1685-200 144 153 29-142Z"/><path fill="#20401b" stroke="#20401b" stroke-width="1.51" d="m1675 424 152 104 33-122Z"/><path fill="#1d3e1d" stroke="#1d3e1d" stroke-width="1.51" d="m1822 235-147 189 185-18Z"/><path fill="#0f342c" stroke="#0f342c" stroke-width="1.51" d="m1837 1139-143 105 166 4Z"/><path fill="#103529" stroke="#103529" stroke-width="1.51" d="m1713 1128-19 116 143-105Z"/><path fill="#143825" stroke="#143825" stroke-width="1.51" d="m1704-35-43 148 183 2Z"/><path fill="#21401a" stroke="#21401a" stroke-width="1.51" d="m1661 550 28 136 138-158Z"/><path fill="#143923" stroke="#143923" stroke-width="1.51" d="m1661 113 161 122 22-120Z"/><path fill="#133825" stroke="#133825" stroke-width="1.51" d="m1692 948 21 180 135-119Z"/><path fill="#1b3d1e" stroke="#1b3d1e" stroke-width="1.51" d="m1689 686-22 112 128 40Z"/><path fill="#214019" stroke="#214019" stroke-width="1.51" d="m1675 424-14 126 166-22Z"/><path fill="#173b20" stroke="#173b20" stroke-width="1.51" d="m1661 113-9 166 170-44Zm6 685 25 150 103-110Z"/><path fill="#14362a" stroke="#14362a" stroke-width="1.51" d="m356 1259-86 6 382 15Z"/><path fill="#173728" stroke="#173728" stroke-width="1.51" d="m1424 1254-184 11 317 33Z"/><path fill="#133629" stroke="#133629" stroke-width="1.51" d="m1529-215-18 184 174-169Z"/><path fill="#173b20" stroke="#173b20" stroke-width="1.51" d="m1667 798-123 147 148 3Z"/><path fill="#153a22" stroke="#153a22" stroke-width="1.51" d="m1544 945 12 170 136-167Z"/><path fill="#153923" stroke="#153923" stroke-width="1.51" d="m1571 94 90 19 43-148Z"/><path fill="#123628" stroke="#123628" stroke-width="1.51" d="M1685-200 1511-31l193-4Z"/><path fill="#123727" stroke="#123727" stroke-width="1.51" d="m1556 1115 138 129 19-116Z"/><path fill="#143824" stroke="#143824" stroke-width="1.51" d="m1692 948-136 167 157 13Z"/><path fill="#1f401a" stroke="#1f401a" stroke-width="1.51" d="m1652 279-102 108 125 37Z"/><path fill="#143924" stroke="#143924" stroke-width="1.51" d="m1511-31 60 125 133-129Z"/><path fill="#193c1f" stroke="#193c1f" stroke-width="1.51" d="m1521 253 131 26 9-166Z"/><path fill="#173b20" stroke="#173b20" stroke-width="1.51" d="m1571 94-50 159 140-140Z"/><path fill="#193c1e" stroke="#193c1e" stroke-width="1.51" d="m1507 847 37 98 123-147Z"/><path fill="#1f3f1a" stroke="#1f3f1a" stroke-width="1.51" d="m1522 698 145 100 22-112Z"/><path fill="#224117" stroke="#224117" stroke-width="1.51" d="m1661 550-139 148 167-12Z"/><path fill="#123629" stroke="#123629" stroke-width="1.51" d="m1556 1115 1 183 137-54Z"/><path fill="#224118" stroke="#224118" stroke-width="1.51" d="m1550 387 111 163 14-126Z"/><path fill="#224217" stroke="#224217" stroke-width="1.51" d="m1550 387-40 166 151-3Zm-40 166 12 145 139-148Z"/><path fill="#1d3e1b" stroke="#1d3e1b" stroke-width="1.51" d="m1522 698-15 149 160-49Z"/><path fill="#173728" stroke="#173728" stroke-width="1.51" d="m1279-220 115 36 135-31Z"/><path fill="#1d3f1b" stroke="#1d3f1b" stroke-width="1.51" d="m1521 253 29 134 102-108Z"/><path fill="#13352a" stroke="#13352a" stroke-width="1.51" d="m118-217 277 39 252-21Z"/><path fill="#153727" stroke="#153727" stroke-width="1.51" d="m1394-184 117 153 18-184Z"/><path fill="#234315" stroke="#234315" stroke-width="1.51" d="m1406 425 104 128 40-166Z"/><path fill="#173b21" stroke="#173b21" stroke-width="1.51" d="m1544 945-115 52 127 118Z"/><path fill="#163825" stroke="#163825" stroke-width="1.51" d="m1397 1151 27 103 132-139Z"/><path fill="#133728" stroke="#133728" stroke-width="1.51" d="m1556 1115-132 139 133 44Z"/><path fill="#163a22" stroke="#163a22" stroke-width="1.51" d="m1511-31-99 26 159 99Z"/><path fill="#183b20" stroke="#183b20" stroke-width="1.51" d="m1412-5-29 97 188 2Z"/><path fill="#183c1f" stroke="#183c1f" stroke-width="1.51" d="m1383 92 138 161 50-159Z"/><path fill="#1b3e1c" stroke="#1b3e1c" stroke-width="1.51" d="m1383 92 22 173 116-12Z"/><path fill="#1e3f1a" stroke="#1e3f1a" stroke-width="1.51" d="m1521 253-116 12 145 122Z"/><path fill="#214117" stroke="#214117" stroke-width="1.51" d="m1405 265 1 160 144-38Z"/><path fill="#163a22" stroke="#163a22" stroke-width="1.51" d="m1429 997-32 154 159-36Z"/><path fill="#1e4019" stroke="#1e4019" stroke-width="1.51" d="m1379 799 128 48 15-149Z"/><path fill="#234315" stroke="#234315" stroke-width="1.51" d="m1510 553-109 129 121 16Z"/><path fill="#183c1e" stroke="#183c1e" stroke-width="1.51" d="m1507 847-78 150 115-52Z"/><path fill="#244413" stroke="#244413" stroke-width="1.51" d="m1406 425-40 99 144 29Z"/><path fill="#173924" stroke="#173924" stroke-width="1.51" d="m1394-184 18 179 99-26Z"/><path fill="#214217" stroke="#214217" stroke-width="1.51" d="m1401 682-22 117 143-101Z"/><path fill="#1b3e1c" stroke="#1b3e1c" stroke-width="1.51" d="m1379 799 50 198 78-150Z"/><path fill="#244413" stroke="#244413" stroke-width="1.51" d="m1366 524 35 158 109-129Z"/><path fill="#1f4019" stroke="#1f4019" stroke-width="1.51" d="m1237 835 32 160 110-196Z"/><path fill="#1b3d1f" stroke="#1b3d1f" stroke-width="1.51" d="m1269 995-23 128 151 28Z"/><path fill="#264511" stroke="#264511" stroke-width="1.51" d="m1366 524-100 37 135 121Z"/><path fill="#1e401a" stroke="#1e401a" stroke-width="1.51" d="m1383 92-120 192 142-19Z"/><path fill="#224216" stroke="#224216" stroke-width="1.51" d="m1405 265-142 19 143 141Z"/><path fill="#264412" stroke="#264412" stroke-width="1.51" d="m1263 284-3 144 146-3Z"/><path fill="#1a3a22" stroke="#1a3a22" stroke-width="1.51" d="M1394-184 1262-31l150 26Z"/><path fill="#1a3c1f" stroke="#1a3c1f" stroke-width="1.51" d="m1269 995 128 156 32-154Z"/><path fill="#1c3e1b" stroke="#1c3e1b" stroke-width="1.51" d="m1379 799-110 196 160 2Z"/><path fill="#193925" stroke="#193925" stroke-width="1.51" d="m1397 1151-157 114 184-11Z"/><path fill="#1d3f1a" stroke="#1d3f1a" stroke-width="1.51" d="m1262 73 1 211 120-192Z"/><path fill="#1b3a24" stroke="#1b3a24" stroke-width="1.51" d="m1279-220-17 189 132-153Z"/><path fill="#244314" stroke="#244314" stroke-width="1.51" d="m1229 694 150 105 22-117Z"/><path fill="#1b3d1e" stroke="#1b3d1e" stroke-width="1.51" d="m1262 73 121 19 29-97Z"/><path fill="#1b3d1e" stroke="#1b3d1e" stroke-width="1.51" d="M1262-31V73l150-78Z"/><path fill="#1c3b22" stroke="#1c3b22" stroke-width="1.51" d="m1246 1123-6 142 157-114Z"/><path fill="#274610" stroke="#274610" stroke-width="1.51" d="m1266 561-37 133 172-12Z"/><path fill="#264511" stroke="#264511" stroke-width="1.51" d="m1260 428 106 96 40-99Z"/><path fill="#234315" stroke="#234315" stroke-width="1.51" d="m1229 694 8 141 142-36Z"/><path fill="#274610" stroke="#274610" stroke-width="1.51" d="m1260 428 6 133 100-37Z"/><path fill="#284610" stroke="#284610" stroke-width="1.51" d="m1090 402 170 26 3-144Z"/><path fill="#204019" stroke="#204019" stroke-width="1.51" d="m1262 73-136 9 137 202Z"/><path fill="#234315" stroke="#234315" stroke-width="1.51" d="m1126 82-55 187 192 15Z"/><path fill="#2a480d" stroke="#2a480d" stroke-width="1.51" d="m1260 428-185 96 191 37Z"/><path fill="#204018" stroke="#204018" stroke-width="1.51" d="m1237 835-112 136 144 24Z"/><path fill="#1e3e1c" stroke="#1e3e1c" stroke-width="1.51" d="m1122 1089 124 34 23-128Z"/><path fill="#1d3c21" stroke="#1d3c21" stroke-width="1.51" d="m1135-59 127 28 17-189Z"/><path fill="#1f3c23" stroke="#1f3c23" stroke-width="1.51" d="m1097-210 38 151 144-161Z"/><path fill="#173728" stroke="#173728" stroke-width="1.51" d="m528 1258-172 1 296 21Z"/><path fill="#264512" stroke="#264512" stroke-width="1.51" d="m1229 694-123 105 131 36Z"/><path fill="#1e3c22" stroke="#1e3c22" stroke-width="1.51" d="m1107 1276 133-11 6-142Z"/><path fill="#2b490a" stroke="#2b490a" stroke-width="1.51" d="m1090 402-15 122 185-96Z"/><path fill="#1e3f1c" stroke="#1e3f1c" stroke-width="1.51" d="m1126 82 136-9V-31Z"/><path fill="#1f3f1c" stroke="#1f3f1c" stroke-width="1.51" d="m1135-59-9 141 136-113Z"/><path fill="#274610" stroke="#274610" stroke-width="1.51" d="m1071 269 19 133 173-118Z"/><path fill="#2a480c" stroke="#2a480c" stroke-width="1.51" d="m1080 666 149 28 37-133Z"/><path fill="#2b490a" stroke="#2b490a" stroke-width="1.51" d="m1075 524 5 142 186-105Z"/><path fill="#20401a" stroke="#20401a" stroke-width="1.51" d="m1125 971-3 118 147-94Z"/><path fill="#1f3e1f" stroke="#1f3e1f" stroke-width="1.51" d="m1122 1089-15 187 139-153Z"/><path fill="#234315" stroke="#234315" stroke-width="1.51" d="m1106 799 19 172 112-136Z"/><path fill="#29470e" stroke="#29470e" stroke-width="1.51" d="m1080 666 26 133 123-105Z"/><path fill="#21401b" stroke="#21401b" stroke-width="1.51" d="m962 996 27 104 133-11Z"/><path fill="#203e1e" stroke="#203e1e" stroke-width="1.51" d="m989 1100 118 176 15-187Z"/><path fill="#234315" stroke="#234315" stroke-width="1.51" d="m1106 799-157 65 176 107Z"/><path fill="#224217" stroke="#224217" stroke-width="1.51" d="m949 864 13 132 163-25Z"/><path fill="#214119" stroke="#214119" stroke-width="1.51" d="m962 996 160 93 3-118Z"/><path fill="#234315" stroke="#234315" stroke-width="1.51" d="m981 241 90 28 55-187Z"/><path fill="#224217" stroke="#224217" stroke-width="1.51" d="m947 111 34 130 145-159Z"/><path fill="#214019" stroke="#214019" stroke-width="1.51" d="m959-51-12 162 179-29Z"/><path fill="#20401b" stroke="#20401b" stroke-width="1.51" d="m959-51 167 133 9-141Z"/><path fill="#203e1f" stroke="#203e1f" stroke-width="1.51" d="M1097-210 959-51l176-8Z"/><path fill="#29470e" stroke="#29470e" stroke-width="1.51" d="m1080 666-117 53 143 80Z"/><path fill="#203d20" stroke="#203d20" stroke-width="1.51" d="m989 1100-60 168 178 8Z"/><path fill="#2b490a" stroke="#2b490a" stroke-width="1.51" d="m1075 524-83-17 88 159Z"/><path fill="#29470e" stroke="#29470e" stroke-width="1.51" d="M1071 269 946 392l144 10Z"/><path fill="#2b490a" stroke="#2b490a" stroke-width="1.51" d="m992 507 83 17 15-122Z"/><path fill="#203c22" stroke="#203c22" stroke-width="1.51" d="m935-217 24 166 138-159Z"/><path fill="#264511" stroke="#264511" stroke-width="1.51" d="m963 719-14 145 157-65Z"/><path fill="#274511" stroke="#274511" stroke-width="1.51" d="m981 241-35 151 125-123Z"/><path fill="#2b490a" stroke="#2b490a" stroke-width="1.51" d="m992 507-29 212 117-53Zm-46-115 46 115 98-105Z"/><path fill="#21401b" stroke="#21401b" stroke-width="1.51" d="m845-13 102 124 12-162Z"/><path fill="#2b490a" stroke="#2b490a" stroke-width="1.51" d="M802 571v99l161 49Z"/><path fill="#234315" stroke="#234315" stroke-width="1.51" d="M947 111 840 241h141Z"/><path fill="#264511" stroke="#264511" stroke-width="1.51" d="m840 241 106 151 35-151Z"/><path fill="#20401b" stroke="#20401b" stroke-width="1.51" d="m962 996-132 117 159-13Z"/><path fill="#203e1e" stroke="#203e1e" stroke-width="1.51" d="m830 1113 99 155 60-168Z"/><path fill="#2b490a" stroke="#2b490a" stroke-width="1.51" d="m946 392-99 29 145 86Z"/><path fill="#2b490a" stroke="#2b490a" stroke-width="1.51" d="m847 421-45 150 190-64Zm-45 150 161 148 29-212Z"/><path fill="#203e1f" stroke="#203e1f" stroke-width="1.51" d="M935-217 845-13l114-38Z"/><path fill="#254512" stroke="#254512" stroke-width="1.51" d="m821 857 128 7 14-145Z"/><path fill="#203d21" stroke="#203d21" stroke-width="1.51" d="m780-202 65 189 90-204Z"/><path fill="#29470e" stroke="#29470e" stroke-width="1.51" d="m840 241 7 180 99-29Z"/><path fill="#214119" stroke="#214119" stroke-width="1.51" d="m845-13-33 97 135 27Z"/><path fill="#21401a" stroke="#21401a" stroke-width="1.51" d="m785 1009 45 104 132-117Z"/><path fill="#224216" stroke="#224216" stroke-width="1.51" d="m949 864-128-7 141 139Z"/><path fill="#224217" stroke="#224217" stroke-width="1.51" d="m821 857-36 152 177-13Z"/><path fill="#28460f" stroke="#28460f" stroke-width="1.51" d="m802 670 19 187 142-138Z"/><path fill="#203d21" stroke="#203d21" stroke-width="1.51" d="m830 1113-26 159 125-4Z"/><path fill="#224217" stroke="#224217" stroke-width="1.51" d="m812 84 28 157 107-130Z"/><path fill="#264512" stroke="#264512" stroke-width="1.51" d="M802 670 697 841l124 16Z"/><path fill="#203e1e" stroke="#203e1e" stroke-width="1.51" d="m700 1105 104 167 26-159Z"/><path fill="#224217" stroke="#224217" stroke-width="1.51" d="m812 84-133-4 161 161Z"/><path fill="#214216" stroke="#214216" stroke-width="1.51" d="m679 80-30 183 191-22Z"/><path fill="#254413" stroke="#254413" stroke-width="1.51" d="m649 263 17 125 174-147Z"/><path fill="#20401b" stroke="#20401b" stroke-width="1.51" d="M697-71 812 84l33-97Z"/><path fill="#203e1f" stroke="#203e1f" stroke-width="1.51" d="M780-202 697-71l148 58Z"/><path fill="#2b490a" stroke="#2b490a" stroke-width="1.51" d="m686 569 116 2 45-150Z"/><path fill="#2a480c" stroke="#2a480c" stroke-width="1.51" d="m666 388 20 181 161-148Z"/><path fill="#29470e" stroke="#29470e" stroke-width="1.51" d="M840 241 666 388l181 33Z"/><path fill="#224216" stroke="#224216" stroke-width="1.51" d="m697 841 88 168 36-152Z"/><path fill="#1f3f1b" stroke="#1f3f1b" stroke-width="1.51" d="M697-71 679 80l133 4Z"/><path fill="#274611" stroke="#274611" stroke-width="1.51" d="m644 688 53 153 105-171Z"/><path fill="#20401b" stroke="#20401b" stroke-width="1.51" d="m785 1009-85 96 130 8Z"/><path fill="#1e3c22" stroke="#1e3c22" stroke-width="1.51" d="m700 1105-48 175 152-8Z"/><path fill="#204018" stroke="#204018" stroke-width="1.51" d="m697 841-50 151 138 17Z"/><path fill="#2b480b" stroke="#2b480b" stroke-width="1.51" d="m802 571-116-2 116 101Z"/><path fill="#2a470d" stroke="#2a470d" stroke-width="1.51" d="m686 569-42 119 158-18Z"/><path fill="#183727" stroke="#183727" stroke-width="1.51" d="m395-178 156 14 96-35Z"/><path fill="#1e3b23" stroke="#1e3b23" stroke-width="1.51" d="m647-199 50 128 83-131Z"/><path fill="#1f3f1b" stroke="#1f3f1b" stroke-width="1.51" d="m647 992 53 113 85-96Z"/><path fill="#1b3d1e" stroke="#1b3d1e" stroke-width="1.51" d="M536-62 523 75l156 5Z"/><path fill="#1d3f1b" stroke="#1d3f1b" stroke-width="1.51" d="m523 75 126 188 30-183Z"/><path fill="#284610" stroke="#284610" stroke-width="1.51" d="M666 388 532 548l154 21Z"/><path fill="#1b3a24" stroke="#1b3a24" stroke-width="1.51" d="m647-199-96 35 146 93Z"/><path fill="#1a3a23" stroke="#1a3a23" stroke-width="1.51" d="M551-164 536-62l161-9Z"/><path fill="#1c3d1e" stroke="#1c3d1e" stroke-width="1.51" d="M536-62 679 80l18-151Z"/><path fill="#234316" stroke="#234316" stroke-width="1.51" d="m644 688-99 151 152 2Z"/><path fill="#1e3f1a" stroke="#1e3f1a" stroke-width="1.51" d="m549 959 98 33 50-151Z"/><path fill="#1e401a" stroke="#1e401a" stroke-width="1.51" d="m545 839 4 120 148-118Z"/><path fill="#1b3b22" stroke="#1b3b22" stroke-width="1.51" d="m553 1135 99 145 48-175Z"/><path fill="#1c3d1e" stroke="#1c3d1e" stroke-width="1.51" d="m647 992-94 143 147-30Z"/><path fill="#193925" stroke="#193925" stroke-width="1.51" d="m553 1135-25 123 124 22Z"/><path fill="#264511" stroke="#264511" stroke-width="1.51" d="m512 370 20 178 134-160Z"/><path fill="#274610" stroke="#274610" stroke-width="1.51" d="m532 548 112 140 42-119Z"/><path fill="#214217" stroke="#214217" stroke-width="1.51" d="m515 285-3 85 137-107Z"/><path fill="#1d3f1a" stroke="#1d3f1a" stroke-width="1.51" d="m523 75-8 210 134-22Z"/><path fill="#244314" stroke="#244314" stroke-width="1.51" d="M649 263 512 370l154 18Z"/><path fill="#264511" stroke="#264511" stroke-width="1.51" d="m532 548-23 112 135 28Z"/><path fill="#244315" stroke="#244315" stroke-width="1.51" d="m509 660 36 179 99-151Z"/><path fill="#1b3d1e" stroke="#1b3d1e" stroke-width="1.51" d="m549 959 4 176 94-143Z"/><path fill="#10342c" stroke="#10342c" stroke-width="1.51" d="m118-217 140 59 137-20Z"/><path fill="#1a3d1d" stroke="#1a3d1d" stroke-width="1.51" d="m357 134-13 114 171 37Z"/><path fill="#1a3d1e" stroke="#1a3d1e" stroke-width="1.51" d="m357 134 158 151 8-210Z"/><path fill="#143727" stroke="#143727" stroke-width="1.51" d="m357 1112-1 147 172-1Z"/><path fill="#244314" stroke="#244314" stroke-width="1.51" d="m512 370-127 9 147 169Z"/><path fill="#234315" stroke="#234315" stroke-width="1.51" d="m385 379 5 195 142-26Z"/><path fill="#173b21" stroke="#173b21" stroke-width="1.51" d="m412-15 111 90 13-137Z"/><path fill="#214217" stroke="#214217" stroke-width="1.51" d="m509 660-105 19 141 160Z"/><path fill="#1e4019" stroke="#1e4019" stroke-width="1.51" d="m404 679-60 124 201 36Z"/><path fill="#1b3d1d" stroke="#1b3d1d" stroke-width="1.51" d="M545 839 384 978l165-19Z"/><path fill="#173826" stroke="#173826" stroke-width="1.51" d="M395-178 536-62l15-102Z"/><path fill="#163924" stroke="#163924" stroke-width="1.51" d="m357 1112 171 146 25-123Z"/><path fill="#193c1f" stroke="#193c1f" stroke-width="1.51" d="m549 959-165 19 169 157Z"/><path fill="#153a22" stroke="#153a22" stroke-width="1.51" d="m384 978-27 134 196 23Z"/><path fill="#1a3d1d" stroke="#1a3d1d" stroke-width="1.51" d="m344 803 40 175 161-139Z"/><path fill="#244414" stroke="#244414" stroke-width="1.51" d="m390 574 119 86 23-112Z"/><path fill="#153925" stroke="#153925" stroke-width="1.51" d="m395-178 17 163 124-47Z"/><path fill="#204117" stroke="#204117" stroke-width="1.51" d="m385 379 127-9 3-85Z"/><path fill="#173b21" stroke="#173b21" stroke-width="1.51" d="m412-15-55 149 166-59Z"/><path fill="#234315" stroke="#234315" stroke-width="1.51" d="m390 574 14 105 105-19Z"/><path fill="#1e401a" stroke="#1e401a" stroke-width="1.51" d="m344 248 41 131 130-94Z"/><path fill="#173b20" stroke="#173b20" stroke-width="1.51" d="M344 803 214 949l170 29Z"/><path fill="#214118" stroke="#214118" stroke-width="1.51" d="m249 373-37 165 173-159Z"/><path fill="#224217" stroke="#224217" stroke-width="1.51" d="M385 379 212 538l178 36Zm5 195L222 693l182-14Z"/><path fill="#163a22" stroke="#163a22" stroke-width="1.51" d="m219 91 138 43 55-149Z"/><path fill="#133825" stroke="#133825" stroke-width="1.51" d="m204-67 15 158L412-15Z"/><path fill="#133628" stroke="#133628" stroke-width="1.51" d="m395-178-137 20L412-15Z"/><path fill="#123727" stroke="#123727" stroke-width="1.51" d="m258-158-54 91 208 52Z"/><path fill="#1f401a" stroke="#1f401a" stroke-width="1.51" d="m222 693 122 110 60-124Z"/><path fill="#133628" stroke="#133628" stroke-width="1.51" d="m270 1265 86-6 1-147Z"/><path fill="#153924" stroke="#153924" stroke-width="1.51" d="m230 1086 127 26 27-134Z"/><path fill="#1e3f1a" stroke="#1e3f1a" stroke-width="1.51" d="m344 248-95 125 136 6Z"/><path fill="#214118" stroke="#214118" stroke-width="1.51" d="m212 538 10 155 168-119Z"/><path fill="#153923" stroke="#153923" stroke-width="1.51" d="m214 949 16 137 154-108Z"/><path fill="#1b3d1d" stroke="#1b3d1d" stroke-width="1.51" d="m252 214-3 159 95-125Z"/><path fill="#193c1f" stroke="#193c1f" stroke-width="1.51" d="m219 801-5 148 130-146Z"/><path fill="#1d3e1d" stroke="#1d3e1d" stroke-width="1.51" d="m222 693-3 108 125 2Z"/><path fill="#133727" stroke="#133727" stroke-width="1.51" d="m230 1086 40 179 87-153Z"/><path fill="#183c1f" stroke="#183c1f" stroke-width="1.51" d="m252 214 92 34 13-114Z"/><path fill="#163a21" stroke="#163a21" stroke-width="1.51" d="m219 91 33 123 105-80Z"/><path fill="#0a3132" stroke="#0a3132" stroke-width="1.51" d="m-189-184 137 19 170-52Z"/><path fill="#21401a" stroke="#21401a" stroke-width="1.51" d="m57 416 155 122 37-165Z"/><path fill="#1a3c1e" stroke="#1a3c1e" stroke-width="1.51" d="m119 224 130 149 3-159Z"/><path fill="#103628" stroke="#103628" stroke-width="1.51" d="m230 1086-116 50 156 129Z"/><path fill="#0f342c" stroke="#0f342c" stroke-width="1.51" d="m114 1136 5 148 151-19Z"/><path fill="#153923" stroke="#153923" stroke-width="1.51" d="m219 91-102 46 135 77Z"/><path fill="#163a22" stroke="#163a22" stroke-width="1.51" d="m117 137 2 87 133-10Z"/><path fill="#10342b" stroke="#10342b" stroke-width="1.51" d="m118-217 86 150 54-91Z"/><path fill="#21401a" stroke="#21401a" stroke-width="1.51" d="M212 538 71 660l151 33Z"/><path fill="#1d3d1d" stroke="#1d3d1d" stroke-width="1.51" d="M119 224 57 416l192-43Z"/><path fill="#20401b" stroke="#20401b" stroke-width="1.51" d="m77 534-6 126 141-122Z"/><path fill="#20401b" stroke="#20401b" stroke-width="1.51" d="m57 416 20 118 135 4Z"/><path fill="#143923" stroke="#143923" stroke-width="1.51" d="m64 796 5 159 145-6Z"/><path fill="#113726" stroke="#113726" stroke-width="1.51" d="M204-67 71-71 219 91Z"/><path fill="#123725" stroke="#123725" stroke-width="1.51" d="m71-71 46 208 102-46Z"/><path fill="#183b20" stroke="#183b20" stroke-width="1.51" d="m64 796 150 153 5-148Z"/><path fill="#1c3d1e" stroke="#1c3d1e" stroke-width="1.51" d="m64 796 155 5 3-108Z"/><path fill="#1e3e1d" stroke="#1e3e1d" stroke-width="1.51" d="m71 660-7 136 158-103Z"/><path fill="#143824" stroke="#143824" stroke-width="1.51" d="m214 949-145 6 161 131Z"/><path fill="#123726" stroke="#123726" stroke-width="1.51" d="m69 955 45 181 116-50Z"/><path fill="#0f342b" stroke="#0f342b" stroke-width="1.51" d="M118-217 71-71l133 4Z"/><path fill="#153924" stroke="#153924" stroke-width="1.51" d="m64 796-111 65 116 94Z"/><path fill="#0f352a" stroke="#0f352a" stroke-width="1.51" d="m-87-27 29 131L71-71Z"/><path fill="#103628" stroke="#103628" stroke-width="1.51" d="m69 955-120 142 165 39Z"/><path fill="#0d332d" stroke="#0d332d" stroke-width="1.51" d="m-51 1097-18 189 183-150Z"/><path fill="#113727" stroke="#113727" stroke-width="1.51" d="M71-71-58 104l175 33Z"/><path fill="#143825" stroke="#143825" stroke-width="1.51" d="m-58 104 24 170 151-137Z"/><path fill="#0c332e" stroke="#0c332e" stroke-width="1.51" d="M-52-165 71-71l47-146Z"/><path fill="#153a23" stroke="#153a23" stroke-width="1.51" d="M117 137-34 274l153-50Z"/><path fill="#1a3c21" stroke="#1a3c21" stroke-width="1.51" d="m-34 274 91 142 62-192Z"/><path fill="#0d322e" stroke="#0d322e" stroke-width="1.51" d="m114 1136-183 150 188-2Z"/><path fill="#1d3c21" stroke="#1d3c21" stroke-width="1.51" d="m-34 274-9 117 100 25Z"/><path fill="#113628" stroke="#113628" stroke-width="1.51" d="m-70 981 19 116L69 955Z"/><path fill="#1d3d1f" stroke="#1d3d1f" stroke-width="1.51" d="M-89 670 64 796l7-136Z"/><path fill="#203e1f" stroke="#203e1f" stroke-width="1.51" d="m-38 511-51 159 160-10Z"/><path fill="#203f1d" stroke="#203f1d" stroke-width="1.51" d="M-38 511 71 660l6-126Z"/><path fill="#203f1d" stroke="#203f1d" stroke-width="1.51" d="m57 416-95 95 115 23Z"/><path fill="#1a3b23" stroke="#1a3b23" stroke-width="1.51" d="m-89 670 42 191 111-65Z"/><path fill="#133727" stroke="#133727" stroke-width="1.51" d="m-47 861-23 120 139-26Z"/><path fill="#0d332d" stroke="#0d332d" stroke-width="1.51" d="M-52-165-87-27 71-71Z"/><path fill="#203e1f" stroke="#203e1f" stroke-width="1.51" d="m-43 391 5 120 95-95Z"/><path fill="#1d3a25" stroke="#1d3a25" stroke-width="1.51" d="m-169 681-30 119 110-130Z"/><path fill="#093033" stroke="#093033" stroke-width="1.51" d="m-207 1125 9 153 129 8Z"/><path fill="#13352a" stroke="#13352a" stroke-width="1.51" d="m-215 108 23 150 134-154Z"/><path fill="#0b3230" stroke="#0b3230" stroke-width="1.51" d="m-207 1125 138 161 18-189Z"/><path fill="#1a3925" stroke="#1a3925" stroke-width="1.51" d="m-89 670-110 130 152 61Z"/><path fill="#203c23" stroke="#203c23" stroke-width="1.51" d="m-229 394 44 130 142-133Z"/><path fill="#1c3a25" stroke="#1c3a25" stroke-width="1.51" d="m-192 258-37 136 186-3Z"/><path fill="#203d21" stroke="#203d21" stroke-width="1.51" d="m-43 391-142 133 147-13Z"/><path fill="#203d22" stroke="#203d22" stroke-width="1.51" d="m-185 524 96 146 51-159Z"/><path fill="#1a3a24" stroke="#1a3a24" stroke-width="1.51" d="m-192 258 149 133 9-117Z"/><path fill="#153727" stroke="#153727" stroke-width="1.51" d="m-58 104-134 154 158 16Z"/><path fill="#0a3131" stroke="#0a3131" stroke-width="1.51" d="M-189-184-87-27l35-138Z"/><path fill="#0e342c" stroke="#0e342c" stroke-width="1.51" d="m-70 981-137 144 156-28Z"/><path fill="#123529" stroke="#123529" stroke-width="1.51" d="m-228 983 158-2 23-120Z"/><path fill="#143629" stroke="#143629" stroke-width="1.51" d="m-199 800-29 183 181-122Z"/><path fill="#0b3131" stroke="#0b3131" stroke-width="1.51" d="m-189-184-30 125 132 32Z"/><path fill="#10342b" stroke="#10342b" stroke-width="1.51" d="m-87-27-128 135 157-4Z"/><path fill="#0f332d" stroke="#0f332d" stroke-width="1.51" d="m-228 983 21 142 137-144Z"/><path fill="#203c23" stroke="#203c23" stroke-width="1.51" d="m-185 524 16 157 80-11Z"/><path fill="#0d332e" stroke="#0d332e" stroke-width="1.51" d="m-219-59 4 167L-87-27Z"/><path fill="#1f3b24" stroke="#1f3b24" stroke-width="1.51" d="m-185 524-14 276 30-119Z"/><path fill="#203b24" stroke="#203b24" stroke-width="1.51" d="m-229 394 30 406 14-276Z"/><path fill="#173729" stroke="#173729" stroke-width="1.51" d="m-215 108-14 286 37-136Z"/><path fill="#1c3926" stroke="#1c3926" stroke-width="1.51" d="m-229 394 1 589 29-183Z"/><path fill="#0a3131" stroke="#0a3131" stroke-width="1.51" d="m-207 1125-21-142 30 295Z"/><path fill="#11342c" stroke="#11342c" stroke-width="1.51" d="m-219-59-10 453 14-286Z"/></svg>