<svg xmlns="http://www.w3.org/2000/svg" width="1440" height="900"><path fill="#43410e" stroke="#43410e" stroke-width="1.51" d="m766 496 89 104 9-122Z"/><path fill="#423f0e" stroke="#423f0e" stroke-width="1.51" d="m766 496 27 106 62-2Z"/><path fill="#42400d" stroke="#42400d" stroke-width="1.51" d="m984 510-41-77-79 45Z"/><path fill="#47450e" stroke="#47450e" stroke-width="1.51" d="M864 478 756 377l10 119Z"/><path fill="#44410e" stroke="#44410e" stroke-width="1.51" d="m766 496-96 95 123 11Z"/><path fill="#413e0d" stroke="#413e0d" stroke-width="1.51" d="m855 600 129-90-120-32Z"/><path fill="#45420e" stroke="#45420e" stroke-width="1.51" d="m663 536 7 55 96-95Z"/><path fill="#3d3b0d" stroke="#3d3b0d" stroke-width="1.51" d="m855 600 123-6 6-84Z"/><path fill="#44410e" stroke="#44410e" stroke-width="1.51" d="m943 433-102-66 23 111Z"/><path fill="#48460f" stroke="#48460f" stroke-width="1.51" d="m766 496-87-98-16 138Z"/><path fill="#45420e" stroke="#45420e" stroke-width="1.51" d="m841 367-85 10 108 101Z"/><path fill="#3d3b0d" stroke="#3d3b0d" stroke-width="1.51" d="m793 602 69 111-7-113Z"/><path fill="#3c3a0d" stroke="#3c3a0d" stroke-width="1.51" d="m855 600 7 113 116-119Z"/><path fill="#3d3a0d" stroke="#3d3a0d" stroke-width="1.51" d="m746 700 116 13-69-111Z"/><path fill="#3f3d0d" stroke="#3f3d0d" stroke-width="1.51" d="m692 685 54 15 47-98Z"/><path fill="#423f0e" stroke="#423f0e" stroke-width="1.51" d="m670 591 22 94 101-83Z"/><path fill="#48450f" stroke="#48450f" stroke-width="1.51" d="m756 377-77 21 87 98Z"/><path fill="#423f0e" stroke="#423f0e" stroke-width="1.51" d="m663 536-69 41 76 14Z"/><path fill="#403d0d" stroke="#403d0d" stroke-width="1.51" d="m670 591-76-14 98 108Z"/><path fill="#42400e" stroke="#42400e" stroke-width="1.51" d="m569 479 25 98 69-41Z"/><path fill="#39370c" stroke="#39370c" stroke-width="1.51" d="m862 713 105 12 11-131Z"/><path fill="#37350c" stroke="#37350c" stroke-width="1.51" d="m837 793 130-68-105-12Z"/><path fill="#43400e" stroke="#43400e" stroke-width="1.51" d="m841 367-88-82 3 92Z"/><path fill="#45420e" stroke="#45420e" stroke-width="1.51" d="m756 377-3-92-74 113Z"/><path fill="#3e3c0d" stroke="#3e3c0d" stroke-width="1.51" d="m964 303-99-5-24 69Z"/><path fill="#3a380c" stroke="#3a380c" stroke-width="1.51" d="m746 700 91 93 25-80Z"/><path fill="#39370c" stroke="#39370c" stroke-width="1.51" d="m748 789 89 4-91-93Z"/><path fill="#413e0d" stroke="#413e0d" stroke-width="1.51" d="m865 298-112-13 88 82Z"/><path fill="#46430e" stroke="#46430e" stroke-width="1.51" d="m679 398-110 81 94 57Z"/><path fill="#45420e" stroke="#45420e" stroke-width="1.51" d="m594 368-25 111 110-81Z"/><path fill="#3b380d" stroke="#3b380d" stroke-width="1.51" d="m700 800 48-11-2-89Z"/><path fill="#3d3a0d" stroke="#3d3a0d" stroke-width="1.51" d="m700 800 46-100-54-15Z"/><path fill="#3d3a0c" stroke="#3d3a0c" stroke-width="1.51" d="m978 594 112-78-106-6Z"/><path fill="#37350c" stroke="#37350c" stroke-width="1.51" d="m967 725 77-42-66-89Z"/><path fill="#403e0e" stroke="#403e0e" stroke-width="1.51" d="m984 510 105-84-146 7Z"/><path fill="#403e0c" stroke="#403e0c" stroke-width="1.51" d="m943 433 21-130-123 64Z"/><path fill="#39370c" stroke="#39370c" stroke-width="1.51" d="m1091 614-1-98-112 78Z"/><path fill="#3e3c0d" stroke="#3e3c0d" stroke-width="1.51" d="M1089 426 964 303l-21 130Z"/><path fill="#3f3d0d" stroke="#3f3d0d" stroke-width="1.51" d="m865 298-121-84 9 71Z"/><path fill="#37350c" stroke="#37350c" stroke-width="1.51" d="m1044 683 47-69-113-20Z"/><path fill="#44410e" stroke="#44410e" stroke-width="1.51" d="m753 285-121 46 47 67Z"/><path fill="#43410d" stroke="#43410d" stroke-width="1.51" d="m632 331-38 37 85 30Z"/><path fill="#3e3b0d" stroke="#3e3b0d" stroke-width="1.51" d="m1090 516-1-90-105 84Z"/><path fill="#3b380d" stroke="#3b380d" stroke-width="1.51" d="m553 699 147 101-8-115Z"/><path fill="#37340c" stroke="#37340c" stroke-width="1.51" d="m748 789 13 85 76-81Z"/><path fill="#3d3b0d" stroke="#3d3b0d" stroke-width="1.51" d="m594 577-41 122 139-14Z"/><path fill="#3c3a0d" stroke="#3c3a0d" stroke-width="1.51" d="m454 567 99 132 41-122Z"/><path fill="#38360c" stroke="#38360c" stroke-width="1.51" d="m1091 614 53-39-54-59Z"/><path fill="#3d3a0d" stroke="#3d3a0d" stroke-width="1.51" d="m1090 516 65-35-66-55Z"/><path fill="#34320b" stroke="#34320b" stroke-width="1.51" d="m1197 738-53-163-53 39Z"/><path fill="#33310b" stroke="#33310b" stroke-width="1.51" d="m967 725 31 87 46-129Zm77-42 153 55-106-124Z"/><path fill="#34320b" stroke="#34320b" stroke-width="1.51" d="m837 793 161 19-31-87Z"/><path fill="#32300c" stroke="#32300c" stroke-width="1.51" d="m859 915 139-103-161-19Z"/><path fill="#413f0e" stroke="#413f0e" stroke-width="1.51" d="m753 285-9-71-112 117Z"/><path fill="#43400e" stroke="#43400e" stroke-width="1.51" d="m463 401 106 78 25-111Z"/><path fill="#3c3a0d" stroke="#3c3a0d" stroke-width="1.51" d="m853 168-109 46 121 84Z"/><path fill="#3a380c" stroke="#3a380c" stroke-width="1.51" d="m1144 575 11-94-65 35Zm-55-149 8-147-133 24Z"/><path fill="#37360d" stroke="#37360d" stroke-width="1.51" d="m700 800 61 74-13-85Z"/><path fill="#36330d" stroke="#36330d" stroke-width="1.51" d="m690 923 71-49-61-74Z"/><path fill="#403e0d" stroke="#403e0d" stroke-width="1.51" d="m569 479-115 88 140 10Z"/><path fill="#43400e" stroke="#43400e" stroke-width="1.51" d="m463 401 2 66 104 12Z"/><path fill="#403e0c" stroke="#403e0c" stroke-width="1.51" d="m578 262 16 106 38-37Z"/><path fill="#3d3b0d" stroke="#3d3b0d" stroke-width="1.51" d="m636 173-58 89 54 69Z"/><path fill="#3a370c" stroke="#3a370c" stroke-width="1.51" d="m993 201-140-33 12 130Z"/><path fill="#3b390c" stroke="#3b390c" stroke-width="1.51" d="m636 173-61 45 3 44Z"/><path fill="#3a380c" stroke="#3a380c" stroke-width="1.51" d="m993 201-128 97 99 5Z"/><path fill="#403e0d" stroke="#403e0d" stroke-width="1.51" d="m465 467-11 100 115-88Z"/><path fill="#39370c" stroke="#39370c" stroke-width="1.51" d="m1184 394-87-115-8 147Z"/><path fill="#38360c" stroke="#38360c" stroke-width="1.51" d="m1097 279-104-78-29 102Z"/><path fill="#312f0a" stroke="#312f0a" stroke-width="1.51" d="m998 812 73 13-27-142Z"/><path fill="#2e2c0a" stroke="#2e2c0a" stroke-width="1.51" d="m994 914 77-89-73-13Z"/><path fill="#33310c" stroke="#33310c" stroke-width="1.51" d="m761 874 98 41-22-122Z"/><path fill="#3f3d0d" stroke="#3f3d0d" stroke-width="1.51" d="m493 324-30 77 131-33Z"/><path fill="#3b390c" stroke="#3b390c" stroke-width="1.51" d="m396 479 6 142 52-54Z"/><path fill="#37350c" stroke="#37350c" stroke-width="1.51" d="m553 699 10 123 137-22Z"/><path fill="#312e0c" stroke="#312e0c" stroke-width="1.51" d="m761 874 33 120 65-79Z"/><path fill="#35330b" stroke="#35330b" stroke-width="1.51" d="m453 804 110 18-10-123Z"/><path fill="#3a380d" stroke="#3a380d" stroke-width="1.51" d="m1261 510-77-116-29 87Z"/><path fill="#3c3a0d" stroke="#3c3a0d" stroke-width="1.51" d="m1155 481 29-87-95 32Z"/><path fill="#3f3d0d" stroke="#3f3d0d" stroke-width="1.51" d="m578 262-85 62 101 44Z"/><path fill="#3b390c" stroke="#3b390c" stroke-width="1.51" d="m578 262-86-43 1 105Z"/><path fill="#3e3c0d" stroke="#3e3c0d" stroke-width="1.51" d="m636 173-4 158 112-117Z"/><path fill="#3b390d" stroke="#3b390d" stroke-width="1.51" d="m633 119 3 54 108 41Z"/><path fill="#33310c" stroke="#33310c" stroke-width="1.51" d="m585 918 105 5 10-123Z"/><path fill="#2c2a0a" stroke="#2c2a0a" stroke-width="1.51" d="m969 979 25-65-135 1Z"/><path fill="#2f2d0b" stroke="#2f2d0b" stroke-width="1.51" d="m859 915 135-1 4-102Z"/><path fill="#39370c" stroke="#39370c" stroke-width="1.51" d="m454 567-15 145 114-13Z"/><path fill="#38360c" stroke="#38360c" stroke-width="1.51" d="m402 621 37 91 15-145Z"/><path fill="#2f2d0a" stroke="#2f2d0a" stroke-width="1.51" d="m1157 802-113-119 27 142Z"/><path fill="#2f2d0a" stroke="#2f2d0a" stroke-width="1.51" d="m1157 802 40-64-153-55Z"/><path fill="#38360c" stroke="#38360c" stroke-width="1.51" d="m1144 575 117-65-106-29Z"/><path fill="#37350c" stroke="#37350c" stroke-width="1.51" d="m1184 394 9-68-96-47Z"/><path fill="#35330b" stroke="#35330b" stroke-width="1.51" d="m1097 279-23-97-81 19Z"/><path fill="#37350c" stroke="#37350c" stroke-width="1.51" d="m1286 423-93-97-9 68Z"/><path fill="#2b2909" stroke="#2b2909" stroke-width="1.51" d="m1091 920 66-118-86 23Z"/><path fill="#3a380c" stroke="#3a380c" stroke-width="1.51" d="m853 168-63-58-46 104Z"/><path fill="#37350c" stroke="#37350c" stroke-width="1.51" d="m906 90-116 20 63 58Z"/><path fill="#3f3c0d" stroke="#3f3c0d" stroke-width="1.51" d="m396 479 58 88 11-100Z"/><path fill="#413f0e" stroke="#413f0e" stroke-width="1.51" d="m463 401-67 78 69-12Z"/><path fill="#3f3c0d" stroke="#3f3c0d" stroke-width="1.51" d="m398 369-2 110 67-78Z"/><path fill="#36340b" stroke="#36340b" stroke-width="1.51" d="m993 201-39-85-101 52Z"/><path fill="#33310b" stroke="#33310b" stroke-width="1.51" d="m1158 186-84-4 23 97Z"/><path fill="#34320b" stroke="#34320b" stroke-width="1.51" d="m1304 621-43-111-117 65Zm-230-439-120-66 39 85Z"/><path fill="#302f0b" stroke="#302f0b" stroke-width="1.51" d="m481 879 104 39-22-96Z"/><path fill="#34320c" stroke="#34320c" stroke-width="1.51" d="m563 822 22 96 115-118Z"/><path fill="#35330c" stroke="#35330c" stroke-width="1.51" d="m954 116-48-26-53 78Z"/><path fill="#35330b" stroke="#35330b" stroke-width="1.51" d="m439 712 14 92 100-105Z"/><path fill="#36340b" stroke="#36340b" stroke-width="1.51" d="m402 621-8 63 45 28Z"/><path fill="#36340c" stroke="#36340c" stroke-width="1.51" d="m290 603 104 81 8-63Z"/><path fill="#32300a" stroke="#32300a" stroke-width="1.51" d="m332 779 121 25-14-92Z"/><path fill="#3d3b0d" stroke="#3d3b0d" stroke-width="1.51" d="m493 324-95 45 65 32Z"/><path fill="#3b390c" stroke="#3b390c" stroke-width="1.51" d="m381 262 17 107 95-45Z"/><path fill="#312f0d" stroke="#312f0d" stroke-width="1.51" d="m632 979 162 15-104-71Z"/><path fill="#32300d" stroke="#32300d" stroke-width="1.51" d="m690 923 104 71-33-120Z"/><path fill="#3a380c" stroke="#3a380c" stroke-width="1.51" d="m575 218-83 1 86 43Z"/><path fill="#39370c" stroke="#39370c" stroke-width="1.51" d="m636 173-47-62-14 107Z"/><path fill="#3c390d" stroke="#3c390d" stroke-width="1.51" d="m790 110-157 9 111 95Z"/><path fill="#35330c" stroke="#35330c" stroke-width="1.51" d="m589 111 44 8-33-92Z"/><path fill="#38360c" stroke="#38360c" stroke-width="1.51" d="m589 111-97 108 83-1Z"/><path fill="#2c2a0b" stroke="#2c2a0b" stroke-width="1.51" d="m876 1032 93-53-110-64Z"/><path fill="#2b2909" stroke="#2b2909" stroke-width="1.51" d="m994 914 97 6-20-95Z"/><path fill="#292709" stroke="#292709" stroke-width="1.51" d="m1068 971 23-51-97-6Z"/><path fill="#2b2909" stroke="#2b2909" stroke-width="1.51" d="m1291 834-16-131-78 35Z"/><path fill="#39370d" stroke="#39370d" stroke-width="1.51" d="m1261 510 25-87-102-29Z"/><path fill="#34320b" stroke="#34320b" stroke-width="1.51" d="m1193 326-35-140-61 93Z"/><path fill="#36340d" stroke="#36340d" stroke-width="1.51" d="m1401 488-115-65-25 87Z"/><path fill="#302e0a" stroke="#302e0a" stroke-width="1.51" d="m1197 738 78-35-131-128Z"/><path fill="#2a2809" stroke="#2a2809" stroke-width="1.51" d="m1291 834-94-96-40 64Z"/><path fill="#302e0c" stroke="#302e0c" stroke-width="1.51" d="m585 918 47 61 58-56Z"/><path fill="#2d2c0c" stroke="#2d2c0c" stroke-width="1.51" d="m568 982 64-3-47-61Z"/><path fill="#312f0a" stroke="#312f0a" stroke-width="1.51" d="m1074 182 13-107-133 41Z"/><path fill="#302e0b" stroke="#302e0b" stroke-width="1.51" d="M1007-10 900 2l6 88Z"/><path fill="#32300b" stroke="#32300b" stroke-width="1.51" d="m1275 303-117-117 35 140Z"/><path fill="#312f0b" stroke="#312f0b" stroke-width="1.51" d="m453 804 28 75 82-57Z"/><path fill="#2e2c0a" stroke="#2e2c0a" stroke-width="1.51" d="m394 909 87-30-28-75Z"/><path fill="#38360c" stroke="#38360c" stroke-width="1.51" d="m633 119-44-8 47 62Z"/><path fill="#37350d" stroke="#37350d" stroke-width="1.51" d="M768 4 633 119l157-9Z"/><path fill="#312f0a" stroke="#312f0a" stroke-width="1.51" d="m1275 703 29-82-160-46Z"/><path fill="#292809" stroke="#292809" stroke-width="1.51" d="m969 979 99-8-74-57Z"/><path fill="#2d2b0c" stroke="#2d2b0c" stroke-width="1.51" d="m794 994 82 38-17-117Z"/><path fill="#2b290c" stroke="#2b290c" stroke-width="1.51" d="m746 1127 130-95-82-38Z"/><path fill="#272508" stroke="#272508" stroke-width="1.51" d="m1207 939 46-59-96-78Z"/><path fill="#242208" stroke="#242208" stroke-width="1.51" d="m1153 1010-85-39 28 108Z"/><path fill="#35320b" stroke="#35320b" stroke-width="1.51" d="m1286 423-11-120-82 23Z"/><path fill="#2e2c0d" stroke="#2e2c0d" stroke-width="1.51" d="m632 979 25 108 137-93Z"/><path fill="#2e2c0b" stroke="#2e2c0b" stroke-width="1.51" d="m481 879 87 103 17-64Z"/><path fill="#39370c" stroke="#39370c" stroke-width="1.51" d="m492 219-111 43 112 62Z"/><path fill="#3a380c" stroke="#3a380c" stroke-width="1.51" d="m246 484 44 119 106-124Z"/><path fill="#39370c" stroke="#39370c" stroke-width="1.51" d="M396 479 290 603l112 18Z"/><path fill="#36340b" stroke="#36340b" stroke-width="1.51" d="m365 230 16 32 111-43Z"/><path fill="#302e0a" stroke="#302e0a" stroke-width="1.51" d="m1158 186-71-111-13 107Z"/><path fill="#33310c" stroke="#33310c" stroke-width="1.51" d="M900 2 768 4l22 106Z"/><path fill="#2d2b0a" stroke="#2d2b0a" stroke-width="1.51" d="m1149 69-62 6 71 111Z"/><path fill="#33310c" stroke="#33310c" stroke-width="1.51" d="M900 2 790 110l116-20Z"/><path fill="#3d3b0d" stroke="#3d3b0d" stroke-width="1.51" d="m289 386 107 93 2-110Z"/><path fill="#32300b" stroke="#32300b" stroke-width="1.51" d="m394 684-62 95 107-67Z"/><path fill="#302e0b" stroke="#302e0b" stroke-width="1.51" d="M1007-10 906 90l48 26Z"/><path fill="#2c2a0a" stroke="#2c2a0a" stroke-width="1.51" d="m481 879-2 120 89-17Z"/><path fill="#312f0a" stroke="#312f0a" stroke-width="1.51" d="m268 683 64 96 62-95Z"/><path fill="#2d2b0a" stroke="#2d2b0a" stroke-width="1.51" d="m1275 703 72 6-43-88Z"/><path fill="#282608" stroke="#282608" stroke-width="1.51" d="m1207 939-50-137-66 118Z"/><path fill="#33310c" stroke="#33310c" stroke-width="1.51" d="m1394 414-45-99-63 108Z"/><path fill="#302e0b" stroke="#302e0b" stroke-width="1.51" d="m1349 315-52-81-22 69Z"/><path fill="#2a2809" stroke="#2a2809" stroke-width="1.51" d="m1291 834 56-125-72-6Z"/><path fill="#39370c" stroke="#39370c" stroke-width="1.51" d="m281 313 8 73 109-17Z"/><path fill="#34330b" stroke="#34330b" stroke-width="1.51" d="m456 96-91 134 127-11Z"/><path fill="#35330b" stroke="#35330b" stroke-width="1.51" d="m456 96 36 123 97-108Z"/><path fill="#282608" stroke="#282608" stroke-width="1.51" d="m1253 880 38-46-134-32Z"/><path fill="#252308" stroke="#252308" stroke-width="1.51" d="m1153 1010 54-71-116-19Z"/><path fill="#242207" stroke="#242207" stroke-width="1.51" d="m1349 935 53-146-111 45Z"/><path fill="#262408" stroke="#262408" stroke-width="1.51" d="m1153 1010-62-90-23 51Z"/><path fill="#38360c" stroke="#38360c" stroke-width="1.51" d="m281 313 117 56-17-107Z"/><path fill="#34320c" stroke="#34320c" stroke-width="1.51" d="m670-14-70 41 33 92Z"/><path fill="#302e0a" stroke="#302e0a" stroke-width="1.51" d="m1275 303 22-69-139-48Z"/><path fill="#33310c" stroke="#33310c" stroke-width="1.51" d="m1349 315-74-12 11 120Z"/><path fill="#2e2c0a" stroke="#2e2c0a" stroke-width="1.51" d="m332 779 62 130 59-105Z"/><path fill="#2f2d0a" stroke="#2f2d0a" stroke-width="1.51" d="m1087 75-80-85-53 126Z"/><path fill="#2c2a09" stroke="#2c2a09" stroke-width="1.51" d="m1259 123-110-54 9 117Z"/><path fill="#33310b" stroke="#33310b" stroke-width="1.51" d="m1401 488-140 22 43 111Z"/><path fill="#35330d" stroke="#35330d" stroke-width="1.51" d="m768 4-98-18-37 133Z"/><path fill="#32300d" stroke="#32300d" stroke-width="1.51" d="m678-102-8 88 98 18Z"/><path fill="#33310c" stroke="#33310c" stroke-width="1.51" d="M600 27 456 96l133 15Z"/><path fill="#302e0a" stroke="#302e0a" stroke-width="1.51" d="m431 20 25 76 144-69Z"/><path fill="#34320b" stroke="#34320b" stroke-width="1.51" d="m290 603-22 80 126 1Z"/><path fill="#2c2b09" stroke="#2c2b09" stroke-width="1.51" d="m332 779-37 18 99 112Z"/><path fill="#33310b" stroke="#33310b" stroke-width="1.51" d="m138 587 130 96 22-80Z"/><path fill="#2b290c" stroke="#2b290c" stroke-width="1.51" d="m592 1069 65 18-25-108Z"/><path fill="#2c2a0c" stroke="#2c2a0c" stroke-width="1.51" d="m592 1069 40-90-64 3Z"/><path fill="#2c2a0a" stroke="#2c2a0a" stroke-width="1.51" d="M1053-10h-46l80 85Z"/><path fill="#2f2d0c" stroke="#2f2d0c" stroke-width="1.51" d="m900 2-16-93L768 4Z"/><path fill="#242208" stroke="#242208" stroke-width="1.51" d="m1349 935-58-101-38 46Z"/><path fill="#262409" stroke="#262409" stroke-width="1.51" d="m1096 1079-28-108-99 8Z"/><path fill="#28260a" stroke="#28260a" stroke-width="1.51" d="m967 1137 2-158-93 53Z"/><path fill="#2b290a" stroke="#2b290a" stroke-width="1.51" d="m394 909 85 90 2-120Z"/><path fill="#302e0b" stroke="#302e0b" stroke-width="1.51" d="m1397 634 4-146-97 133Z"/><path fill="#3d3b0d" stroke="#3d3b0d" stroke-width="1.51" d="m289 386-43 98 150-5Z"/><path fill="#2a280b" stroke="#2a280b" stroke-width="1.51" d="m479 999 113 70-24-87Z"/><path fill="#2d2b0a" stroke="#2d2b0a" stroke-width="1.51" d="m1347 709 50-75-93-13Z"/><path fill="#2a2809" stroke="#2a2809" stroke-width="1.51" d="m1485 696-88-62-50 75Z"/><path fill="#35320d" stroke="#35320d" stroke-width="1.51" d="m1401 488-7-74-108 9Z"/><path fill="#36340b" stroke="#36340b" stroke-width="1.51" d="m365 230-84 83 100-51Z"/><path fill="#3a380d" stroke="#3a380d" stroke-width="1.51" d="m289 386-125 43 82 55Z"/><path fill="#34320b" stroke="#34320b" stroke-width="1.51" d="m298 180-17 133 84-83Z"/><path fill="#2f2d0a" stroke="#2f2d0a" stroke-width="1.51" d="m268 683 27 114 37-18Z"/><path fill="#2b2909" stroke="#2b2909" stroke-width="1.51" d="m1149 69-96-79 34 85Z"/><path fill="#2c2a0a" stroke="#2c2a0a" stroke-width="1.51" d="M985-80 884-91l16 93Z"/><path fill="#2d2b0d" stroke="#2d2b0d" stroke-width="1.51" d="m657 1087 89 40 48-133Z"/><path fill="#2a280c" stroke="#2a280c" stroke-width="1.51" d="m462 1093 284 34-89-40Z"/><path fill="#2b2909" stroke="#2b2909" stroke-width="1.51" d="m1344 171-85-48 38 111Z"/><path fill="#2d2b09" stroke="#2d2b09" stroke-width="1.51" d="m1297 234-38-111-101 63Z"/><path fill="#292708" stroke="#292708" stroke-width="1.51" d="m1149 69 22-102-118 23Z"/><path fill="#2a280c" stroke="#2a280c" stroke-width="1.51" d="m746 1127 146 8-16-103Z"/><path fill="#252309" stroke="#252309" stroke-width="1.51" d="m967 1137 129-58-127-100Z"/><path fill="#28260a" stroke="#28260a" stroke-width="1.51" d="m892 1135 75 2-91-105Z"/><path fill="#2c2a0a" stroke="#2c2a0a" stroke-width="1.51" d="M985-80 900 2l107-12Z"/><path fill="#272508" stroke="#272508" stroke-width="1.51" d="m1291 834 111-45-55-80Z"/><path fill="#2f2d0c" stroke="#2f2d0c" stroke-width="1.51" d="m1505 596-40-120-64 12Z"/><path fill="#232107" stroke="#232107" stroke-width="1.51" d="m1349 935-96-55-46 59Z"/><path fill="#211f07" stroke="#211f07" stroke-width="1.51" d="m1349 935-142 4 141 32Z"/><path fill="#38350c" stroke="#38350c" stroke-width="1.51" d="m164 429 9 106 73-51Z"/><path fill="#312f0a" stroke="#312f0a" stroke-width="1.51" d="m362 74-64 106 67 50Z"/><path fill="#2d2b0a" stroke="#2d2b0a" stroke-width="1.51" d="m1349 315-5-144-47 63Z"/><path fill="#282709" stroke="#282709" stroke-width="1.51" d="M1102-70 985-80l68 70Z"/><path fill="#2a2809" stroke="#2a2809" stroke-width="1.51" d="m1504 197-160-26 5 144Z"/><path fill="#272508" stroke="#272508" stroke-width="1.51" d="m1171-33-22 102 103-54Z"/><path fill="#2b290a" stroke="#2b290a" stroke-width="1.51" d="m1053-10-68-70 22 70Z"/><path fill="#2f2e0c" stroke="#2f2e0c" stroke-width="1.51" d="m1394 414 103-87-148-12Z"/><path fill="#33310d" stroke="#33310d" stroke-width="1.51" d="m1401 488 64-12-71-62Z"/><path fill="#2e2c0b" stroke="#2e2c0b" stroke-width="1.51" d="m1505 596-104-108-4 146Z"/><path fill="#312f0a" stroke="#312f0a" stroke-width="1.51" d="m456 96-94-22 3 156Z"/><path fill="#2c2b0b" stroke="#2c2b0b" stroke-width="1.51" d="M465-115 431 20l169 7Z"/><path fill="#302d0c" stroke="#302d0c" stroke-width="1.51" d="m592-134 8 161 70-41Z"/><path fill="#38360c" stroke="#38360c" stroke-width="1.51" d="m164 429 125-43-8-73Z"/><path fill="#37340c" stroke="#37340c" stroke-width="1.51" d="m246 484-73 51 117 68Z"/><path fill="#282608" stroke="#282608" stroke-width="1.51" d="m174 896 108 34 13-133Z"/><path fill="#2e2d0c" stroke="#2e2d0c" stroke-width="1.51" d="m884-91-95-25L768 4Z"/><path fill="#29270a" stroke="#29270a" stroke-width="1.51" d="m1158-118-369 2 95 25Z"/><path fill="#2e2c0a" stroke="#2e2c0a" stroke-width="1.51" d="m431 20-69 54 94 22Z"/><path fill="#302e0d" stroke="#302e0d" stroke-width="1.51" d="m789-116-111 14L768 4Z"/><path fill="#222007" stroke="#222007" stroke-width="1.51" d="m1282 1026-75-87-54 71Z"/><path fill="#29270b" stroke="#29270b" stroke-width="1.51" d="m592 1069-130 24 195-6Z"/><path fill="#27260a" stroke="#27260a" stroke-width="1.51" d="m479 999-17 94 130-24Z"/><path fill="#262409" stroke="#262409" stroke-width="1.51" d="m332 1006 130 87 17-94Z"/><path fill="#272609" stroke="#272609" stroke-width="1.51" d="m332 1006 147-7-85-90Z"/><path fill="#292709" stroke="#292709" stroke-width="1.51" d="m1252 15-103 54 110 54Z"/><path fill="#272508" stroke="#272508" stroke-width="1.51" d="m1171-33-69-37-49 60Z"/><path fill="#272609" stroke="#272609" stroke-width="1.51" d="m985-80 173-38-274 27Z"/><path fill="#35320b" stroke="#35320b" stroke-width="1.51" d="m149 277 15 152 117-116Z"/><path fill="#211f07" stroke="#211f07" stroke-width="1.51" d="m1096 1079 114 4-57-73Z"/><path fill="#201e07" stroke="#201e07" stroke-width="1.51" d="m1295 1131-85-48-114-4Z"/><path fill="#292709" stroke="#292709" stroke-width="1.51" d="m295 797-13 133 112-21Z"/><path fill="#2d2b09" stroke="#2d2b09" stroke-width="1.51" d="m158 791 137 6-27-114Z"/><path fill="#201e07" stroke="#201e07" stroke-width="1.51" d="m1210 1083 72-57-129-16Z"/><path fill="#272508" stroke="#272508" stroke-width="1.51" d="m1399 102-147-87 7 108Z"/><path fill="#252307" stroke="#252307" stroke-width="1.51" d="m1488 801-3-105-83 93Z"/><path fill="#272508" stroke="#272508" stroke-width="1.51" d="m1402 789 83-93-138 13ZM282 930l50 76 62-97Z"/><path fill="#211f07" stroke="#211f07" stroke-width="1.51" d="m1349 935 95-47-42-99Z"/><path fill="#201e07" stroke="#201e07" stroke-width="1.51" d="m1282 1026 66-55-141-32Z"/><path fill="#2a2809" stroke="#2a2809" stroke-width="1.51" d="m1485 696 20-100-108 38Z"/><path fill="#34320b" stroke="#34320b" stroke-width="1.51" d="m173 535-35 52 152 16Z"/><path fill="#32310c" stroke="#32310c" stroke-width="1.51" d="m29 484 109 103 35-52Z"/><path fill="#312f0d" stroke="#312f0d" stroke-width="1.51" d="m1465 476 39-73-110 11Z"/><path fill="#282608" stroke="#282608" stroke-width="1.51" d="m1344 171 55-69-140 21Z"/><path fill="#312f0d" stroke="#312f0d" stroke-width="1.51" d="m1565 464-61-61-39 73Z"/><path fill="#302e0a" stroke="#302e0a" stroke-width="1.51" d="m138 587-5 79 135 17Z"/><path fill="#2f2d0c" stroke="#2f2d0c" stroke-width="1.51" d="m1504 403-7-76-103 87Z"/><path fill="#2c2a0a" stroke="#2c2a0a" stroke-width="1.51" d="m431 20-43-49-26 103Z"/><path fill="#2e2c0d" stroke="#2e2c0d" stroke-width="1.51" d="m678-102-86-32 78 120Z"/><path fill="#2e2c0d" stroke="#2e2c0d" stroke-width="1.51" d="m789-116-197-18 86 32Z"/><path fill="#1e1c06" stroke="#1e1c06" stroke-width="1.51" d="m1459 1005-15-117-95 47Z"/><path fill="#242208" stroke="#242208" stroke-width="1.51" d="m282 930-47 61 97 15Z"/><path fill="#2d2b09" stroke="#2d2b09" stroke-width="1.51" d="m133 666 25 125 110-108Z"/><path fill="#2a2809" stroke="#2a2809" stroke-width="1.51" d="m465-115-77 86 43 49Z"/><path fill="#312f0a" stroke="#312f0a" stroke-width="1.51" d="m179 208 102 105 17-133Z"/><path fill="#312f0a" stroke="#312f0a" stroke-width="1.51" d="m179 208-30 69 132 36Z"/><path fill="#222007" stroke="#222007" stroke-width="1.51" d="m1444 888 44-87-86-12Z"/><path fill="#27250a" stroke="#27250a" stroke-width="1.51" d="m1597 705-1-120-91 11Z"/><path fill="#272508" stroke="#272508" stroke-width="1.51" d="m1504 197-105-95-55 69Z"/><path fill="#232108" stroke="#232108" stroke-width="1.51" d="m1279-69-121-49 13 85Z"/><path fill="#2d2b0a" stroke="#2d2b0a" stroke-width="1.51" d="m179 208 119-28-116-60Z"/><path fill="#35330c" stroke="#35330c" stroke-width="1.51" d="M164 429 29 484l144 51Z"/><path fill="#2d2b0a" stroke="#2d2b0a" stroke-width="1.51" d="m27 585 70 117 36-36Z"/><path fill="#2d2b09" stroke="#2d2b09" stroke-width="1.51" d="m242 65 56 115 64-106Z"/><path fill="#242207" stroke="#242207" stroke-width="1.51" d="m1279-69-108 36 81 48Z"/><path fill="#252308" stroke="#252308" stroke-width="1.51" d="m1171-33-13-85-56 48Z"/><path fill="#262409" stroke="#262409" stroke-width="1.51" d="m1102-70 56-48-173 38Z"/><path fill="#2b290c" stroke="#2b290c" stroke-width="1.51" d="m789-116 369-2-566-16Z"/><path fill="#282608" stroke="#282608" stroke-width="1.51" d="m158 791 16 105 121-99Z"/><path fill="#222007" stroke="#222007" stroke-width="1.51" d="m84 937 90-41-146-86Z"/><path fill="#2c2a0b" stroke="#2c2a0b" stroke-width="1.51" d="m592-134-127 19L600 27Z"/><path fill="#242207" stroke="#242207" stroke-width="1.51" d="m174 896 61 95 47-61Z"/><path fill="#242209" stroke="#242209" stroke-width="1.51" d="m332 1006-1 90 131-3Z"/><path fill="#2b290a" stroke="#2b290a" stroke-width="1.51" d="m1497 327 7-130-155 118Z"/><path fill="#2c2a0b" stroke="#2c2a0b" stroke-width="1.51" d="m1504 403 69-74-76-2Z"/><path fill="#2e2c0c" stroke="#2e2c0c" stroke-width="1.51" d="m1505 596 60-132-100 12Z"/><path fill="#2b290b" stroke="#2b290b" stroke-width="1.51" d="m1596 585-31-121-60 132Z"/><path fill="#2b2909" stroke="#2b2909" stroke-width="1.51" d="m133 666-36 36 61 89Z"/><path fill="#2f2d0a" stroke="#2f2d0a" stroke-width="1.51" d="m27 585 106 81 5-79Z"/><path fill="#27260a" stroke="#27260a" stroke-width="1.51" d="m462 1093-131 3 415 31Z"/><path fill="#211f08" stroke="#211f08" stroke-width="1.51" d="m257 1093 74 3 1-90Z"/><path fill="#292708" stroke="#292708" stroke-width="1.51" d="M262-27 362 74l26-103Z"/><path fill="#292708" stroke="#292708" stroke-width="1.51" d="m262-27-20 92 120 9Z"/><path fill="#222007" stroke="#222007" stroke-width="1.51" d="m1378-7-99-62-27 84Z"/><path fill="#1d1b06" stroke="#1d1b06" stroke-width="1.51" d="m1282 1026 67 68-1-123Z"/><path fill="#1e1b06" stroke="#1e1b06" stroke-width="1.51" d="m1348 971 111 34-110-70Z"/><path fill="#1e1c06" stroke="#1e1c06" stroke-width="1.51" d="m1210 1083 85 48-13-105Z"/><path fill="#222008" stroke="#222008" stroke-width="1.51" d="m967 1137 328-6-199-52Z"/><path fill="#232107" stroke="#232107" stroke-width="1.51" d="M1399 102 1378-7l-126 22Z"/><path fill="#29270a" stroke="#29270a" stroke-width="1.51" d="m1573 329-69-132-7 130Z"/><path fill="#2c2a09" stroke="#2c2a09" stroke-width="1.51" d="m242 65-60 55 116 60Z"/><path fill="#2c2a0a" stroke="#2c2a0a" stroke-width="1.51" d="m63 170-6 93 92 14Z"/><path fill="#1d1b06" stroke="#1d1b06" stroke-width="1.51" d="m1295 1131 54-37-67-68Z"/><path fill="#201e06" stroke="#201e06" stroke-width="1.51" d="m1594 886-12-113-94 28Z"/><path fill="#2f2d0b" stroke="#2f2d0b" stroke-width="1.51" d="m57 263 17 100 75-86Z"/><path fill="#33310b" stroke="#33310b" stroke-width="1.51" d="m149 277-75 86 90 66Z"/><path fill="#272509" stroke="#272509" stroke-width="1.51" d="m1597 705-92-109-20 100Z"/><path fill="#2c2a0c" stroke="#2c2a0c" stroke-width="1.51" d="m1605 389-32-60-69 74Z"/><path fill="#232208" stroke="#232208" stroke-width="1.51" d="m1597 705-112-9 97 77Z"/><path fill="#211f07" stroke="#211f07" stroke-width="1.51" d="m1461 28-83-35 21 109Z"/><path fill="#2e2c0d" stroke="#2e2c0d" stroke-width="1.51" d="m1605 389-101 14 61 61Z"/><path fill="#252307" stroke="#252307" stroke-width="1.51" d="m1504 197-22-77-83-18Z"/><path fill="#232108" stroke="#232108" stroke-width="1.51" d="m1542 102-60 18 22 77Z"/><path fill="#27260a" stroke="#27260a" stroke-width="1.51" d="m465-115-91 6 14 80Z"/><path fill="#272508" stroke="#272508" stroke-width="1.51" d="m242 65-70-95 10 150Z"/><path fill="#252409" stroke="#252409" stroke-width="1.51" d="m300-125 74 16 91-6Z"/><path fill="#222007" stroke="#222007" stroke-width="1.51" d="m235 991 22 102 75-87Zm-61-95 24 117 37-22Z"/><path fill="#211f07" stroke="#211f07" stroke-width="1.51" d="m84 937 114 76-24-117Z"/><path fill="#1c1a05" stroke="#1c1a05" stroke-width="1.51" d="m1349 1094 110-89-111-34Z"/><path fill="#242208" stroke="#242208" stroke-width="1.51" d="m1582 773-97-77 3 105Z"/><path fill="#1f1d06" stroke="#1f1d06" stroke-width="1.51" d="m1594 886-106-85-44 87Z"/><path fill="#211e07" stroke="#211e07" stroke-width="1.51" d="m198 1013 59 80-22-102Z"/><path fill="#242209" stroke="#242209" stroke-width="1.51" d="m331 1096-264 32 679-1Z"/><path fill="#211f07" stroke="#211f07" stroke-width="1.51" d="m1542 102-81-74 21 92Z"/><path fill="#2d2a0c" stroke="#2d2a0c" stroke-width="1.51" d="m1646 405-41-16-40 75Z"/><path fill="#2c2a0d" stroke="#2c2a0d" stroke-width="1.51" d="m1646 405-81 59 114 69Z"/><path fill="#272508" stroke="#272508" stroke-width="1.51" d="M374-109 262-27l126-2Z"/><path fill="#35330d" stroke="#35330d" stroke-width="1.51" d="M74 363 29 484l135-55Z"/><path fill="#252408" stroke="#252408" stroke-width="1.51" d="m28 810 146 86-16-105Z"/><path fill="#302f0b" stroke="#302f0b" stroke-width="1.51" d="m29 484-2 101 111 2Z"/><path fill="#2c2b0a" stroke="#2c2b0a" stroke-width="1.51" d="m63 170 86 107 30-69Z"/><path fill="#34310d" stroke="#34310d" stroke-width="1.51" d="M74 363-6 466l35 18Z"/><path fill="#2b2909" stroke="#2b2909" stroke-width="1.51" d="m63 170 116 38 3-88Z"/><path fill="#222007" stroke="#222007" stroke-width="1.51" d="m1482 120-21-92-62 74Z"/><path fill="#1f1d06" stroke="#1f1d06" stroke-width="1.51" d="m1378-7 31-104-130 42Z"/><path fill="#232107" stroke="#232107" stroke-width="1.51" d="m1542 102-38 95 95-36Z"/><path fill="#28260b" stroke="#28260b" stroke-width="1.51" d="m1605 389 91-127-123 67Z"/><path fill="#2a280b" stroke="#2a280b" stroke-width="1.51" d="m1679 533-114-69 31 121Z"/><path fill="#312f0c" stroke="#312f0c" stroke-width="1.51" d="m29 484-35-18 33 119Z"/><path fill="#322f0d" stroke="#322f0d" stroke-width="1.51" d="m-46 412 40 54 80-103Z"/><path fill="#262409" stroke="#262409" stroke-width="1.51" d="m1599 161-95 36 69 132Z"/><path fill="#1c1a06" stroke="#1c1a06" stroke-width="1.51" d="m1459 1005 135-119-150 2Z"/><path fill="#191705" stroke="#191705" stroke-width="1.51" d="m1349 1094 115-12-5-77Z"/><path fill="#1b1905" stroke="#1b1905" stroke-width="1.51" d="m1295 1131 169-49-115 12Z"/><path fill="#1f1d06" stroke="#1f1d06" stroke-width="1.51" d="m198 1013-58 81 117-1Z"/><path fill="#282608" stroke="#282608" stroke-width="1.51" d="m28 810 130-19-61-89Z"/><path fill="#272508" stroke="#272508" stroke-width="1.51" d="m28 810 69-108-142 24Z"/><path fill="#2c2a0a" stroke="#2c2a0a" stroke-width="1.51" d="m-38 610 135 92-70-117Z"/><path fill="#272508" stroke="#272508" stroke-width="1.51" d="m62 69 1 101 119-50Z"/><path fill="#252308" stroke="#252308" stroke-width="1.51" d="m374-109-74-16-38 98Z"/><path fill="#27250a" stroke="#27250a" stroke-width="1.51" d="m592-134-292 9 165 10Z"/><path fill="#2f2d0c" stroke="#2f2d0c" stroke-width="1.51" d="m-39 280-7 132 120-49Z"/><path fill="#262408" stroke="#262408" stroke-width="1.51" d="m172-30 70 95 20-92Z"/><path fill="#191704" stroke="#191704" stroke-width="1.51" d="m1595 1039-1-153-135 119Z"/><path fill="#222008" stroke="#222008" stroke-width="1.51" d="m1692 784-27-102-68 23Z"/><path fill="#252309" stroke="#252309" stroke-width="1.51" d="m1597 705 68-23-69-97Z"/><path fill="#201e07" stroke="#201e07" stroke-width="1.51" d="m1692 784-95-79-15 68Z"/><path fill="#28260b" stroke="#28260b" stroke-width="1.51" d="m1688 603-9-70-83 52Z"/><path fill="#25240a" stroke="#25240a" stroke-width="1.51" d="m1667 198-94 131 123-67Z"/><path fill="#242209" stroke="#242209" stroke-width="1.51" d="m1667 198-68-37-26 168Z"/><path fill="#222007" stroke="#222007" stroke-width="1.51" d="m136-94 36 64 90 3Z"/><path fill="#2e2c0c" stroke="#2e2c0c" stroke-width="1.51" d="m-6 466-32 144 65-25Z"/><path fill="#26240a" stroke="#26240a" stroke-width="1.51" d="m1665 682 23-79-92-18Z"/><path fill="#1f1d06" stroke="#1f1d06" stroke-width="1.51" d="m1279-69 130-42-251-7Z"/><path fill="#232108" stroke="#232108" stroke-width="1.51" d="m1158-118 447-23-1013 7Z"/><path fill="#1d1a06" stroke="#1d1a06" stroke-width="1.51" d="m1444-93-35-18-31 104Z"/><path fill="#1f1c06" stroke="#1f1c06" stroke-width="1.51" d="m1444-93-66 86 83 35Z"/><path fill="#1d1a06" stroke="#1d1a06" stroke-width="1.51" d="m1444-93 17 121 144-4Z"/><path fill="#1e1c06" stroke="#1e1c06" stroke-width="1.51" d="m-33 912 119 98-2-73Z"/><path fill="#1f1d06" stroke="#1f1d06" stroke-width="1.51" d="m84 937 2 73 112 3Z"/><path fill="#201e06" stroke="#201e06" stroke-width="1.51" d="m-33 912 117 25-56-127Z"/><path fill="#29270a" stroke="#29270a" stroke-width="1.51" d="m-173 534 20 99 115-23Z"/><path fill="#2d2c0a" stroke="#2d2c0a" stroke-width="1.51" d="m-39 280 113 83-17-100Z"/><path fill="#1d1b06" stroke="#1d1b06" stroke-width="1.51" d="m86 1010 54 84 58-81Z"/><path fill="#1f1d07" stroke="#1f1d07" stroke-width="1.51" d="m257 1093-190 35 264-32Z"/><path fill="#29270b" stroke="#29270b" stroke-width="1.51" d="m746 1127-679 1 825 7Z"/><path fill="#1f1d06" stroke="#1f1d06" stroke-width="1.51" d="m1605 24-144 4 81 74Z"/><path fill="#292709" stroke="#292709" stroke-width="1.51" d="m-38 610-7 116 142-24Z"/><path fill="#272609" stroke="#272609" stroke-width="1.51" d="m-133 673 88 53 7-116Z"/><path fill="#292709" stroke="#292709" stroke-width="1.51" d="m-51 170 12 110 96-17Z"/><path fill="#252308" stroke="#252308" stroke-width="1.51" d="M172-30 62 69l120 51Z"/><path fill="#292709" stroke="#292709" stroke-width="1.51" d="m-51 170 108 93 6-93Z"/><path fill="#232109" stroke="#232109" stroke-width="1.51" d="m1665 682 27 102-4-181Z"/><path fill="#1e1c06" stroke="#1e1c06" stroke-width="1.51" d="m1594 886 98-102-110-11Z"/><path fill="#1c1a05" stroke="#1c1a05" stroke-width="1.51" d="m1683 892 9-108-98 102Z"/><path fill="#242207" stroke="#242207" stroke-width="1.51" d="m-45 726-3 53 76 31Z"/><path fill="#252308" stroke="#252308" stroke-width="1.51" d="m-133 673 85 106 3-53Z"/><path fill="#1e1c06" stroke="#1e1c06" stroke-width="1.51" d="m1665 93-60-69-63 78Z"/><path fill="#29270b" stroke="#29270b" stroke-width="1.51" d="m1696 262-91 127 41 16Z"/><path fill="#2b290c" stroke="#2b290c" stroke-width="1.51" d="m1696 262-50 143 33 128Z"/><path fill="#2c2b0d" stroke="#2c2b0d" stroke-width="1.51" d="m1688 603 8-341-17 271Z"/><path fill="#29270b" stroke="#29270b" stroke-width="1.51" d="m1692 784 4-522-8 341Z"/><path fill="#171504" stroke="#171504" stroke-width="1.51" d="m1464 1082 131-43-136-34Z"/><path fill="#191705" stroke="#191705" stroke-width="1.51" d="m1666 978 17-86-89-6Z"/><path fill="#252308" stroke="#252308" stroke-width="1.51" d="m-30 82-21 88H63Z"/><path fill="#222007" stroke="#222007" stroke-width="1.51" d="M172-30 37-13l25 82Z"/><path fill="#232108" stroke="#232108" stroke-width="1.51" d="M300-125 136-94l126 67Z"/><path fill="#201e07" stroke="#201e07" stroke-width="1.51" d="m1665 93-123 9 57 59Zm0 0-66 68 68 37Z"/><path fill="#1b1a05" stroke="#1b1a05" stroke-width="1.51" d="m86 1010-19 118 73-34Z"/><path fill="#211f07" stroke="#211f07" stroke-width="1.51" d="m-48 779 15 133 61-102Z"/><path fill="#252307" stroke="#252307" stroke-width="1.51" d="m-30 82 93 88-1-101Z"/><path fill="#302e0d" stroke="#302e0d" stroke-width="1.51" d="m-173 534 167-68-40-54Z"/><path fill="#27260a" stroke="#27260a" stroke-width="1.51" d="m-153 633 20 40 95-63Z"/><path fill="#222008" stroke="#222008" stroke-width="1.51" d="m1696 262-31-169 2 105Z"/><path fill="#171604" stroke="#171604" stroke-width="1.51" d="m1595 1039 71-61-72-92Z"/><path fill="#201e07" stroke="#201e07" stroke-width="1.51" d="M136-94 83-71l89 41Z"/><path fill="#201e06" stroke="#201e06" stroke-width="1.51" d="M83-71 37-13l135-17Z"/><path fill="#1a1805" stroke="#1a1805" stroke-width="1.51" d="m-16 1116 83 12 19-118Z"/><path fill="#1d1b06" stroke="#1d1b06" stroke-width="1.51" d="m140 1094-73 34 190-35Z"/><path fill="#2b290c" stroke="#2b290c" stroke-width="1.51" d="m892 1135-825-7 900 9Z"/><path fill="#121103" stroke="#121103" stroke-width="1.51" d="m1595 1039 112 96-41-157Z"/><path fill="#151403" stroke="#151403" stroke-width="1.51" d="m1464 1082 125 39 6-82Z"/><path fill="#181604" stroke="#181604" stroke-width="1.51" d="m1295 1131 294-10-125-39Z"/><path fill="#201e07" stroke="#201e07" stroke-width="1.51" d="m-48 779-62 47 77 86Z"/><path fill="#2d2b0c" stroke="#2d2b0c" stroke-width="1.51" d="m-38 610 32-144-167 68Z"/><path fill="#212007" stroke="#212007" stroke-width="1.51" d="m37-13-67 95 92-13Z"/><path fill="#222107" stroke="#222107" stroke-width="1.51" d="m-133 673 23 153 62-47Z"/><path fill="#1c1906" stroke="#1c1906" stroke-width="1.51" d="m-33 912-22 117 141-19Z"/><path fill="#242208" stroke="#242208" stroke-width="1.51" d="m-133 673-20-40 43 193Z"/><path fill="#2c2a0c" stroke="#2c2a0c" stroke-width="1.51" d="m-139 330 93 82 7-132Z"/><path fill="#27250a" stroke="#27250a" stroke-width="1.51" d="m-171 188 32 142 100-50Z"/><path fill="#262409" stroke="#262409" stroke-width="1.51" d="m-171 188 132 92-12-110Z"/><path fill="#2c2a0c" stroke="#2c2a0c" stroke-width="1.51" d="m-139 330-17 52 110 30Z"/><path fill="#2f2d0d" stroke="#2f2d0d" stroke-width="1.51" d="m-156 382-17 152 127-122Z"/><path fill="#1b1905" stroke="#1b1905" stroke-width="1.51" d="m-141 1029 31-140v-63Z"/><path fill="#1e1c06" stroke="#1e1c06" stroke-width="1.51" d="M-110 826v63l77 23Z"/><path fill="#1f1c06" stroke="#1f1c06" stroke-width="1.51" d="m-141 1029 31-203-43-193Z"/><path fill="#222007" stroke="#222007" stroke-width="1.51" d="m-30 82-82-20 61 108Z"/><path fill="#201e06" stroke="#201e06" stroke-width="1.51" d="M37-13-8-28-30 82Z"/><path fill="#1e1c06" stroke="#1e1c06" stroke-width="1.51" d="M83-71-8-28l45 15Z"/><path fill="#1c1905" stroke="#1c1905" stroke-width="1.51" d="m-110 889 55 140 22-117Z"/><path fill="#1b1905" stroke="#1b1905" stroke-width="1.51" d="m1665 93 17-106-77 37Z"/><path fill="#191805" stroke="#191805" stroke-width="1.51" d="M1605 24v-165l-161 48Z"/><path fill="#191705" stroke="#191705" stroke-width="1.51" d="m1444-93 161-48-196 30Z"/><path fill="#1f1d07" stroke="#1f1d07" stroke-width="1.51" d="m1696 262-14-275-17 106Z"/><path fill="#191705" stroke="#191705" stroke-width="1.51" d="m-55 1029 39 87 102-106Z"/><path fill="#181604" stroke="#181604" stroke-width="1.51" d="m1682-13-77-128V24Z"/><path fill="#1c1a05" stroke="#1c1a05" stroke-width="1.51" d="m1409-111 196-30-447 23Z"/><path fill="#1f1d06" stroke="#1f1d06" stroke-width="1.51" d="m-8-28-104 90 82 20Z"/><path fill="#28260a" stroke="#28260a" stroke-width="1.51" d="m-139 330-32-142 15 194Z"/><path fill="#222007" stroke="#222007" stroke-width="1.51" d="m-112 62-59 126 120-18Z"/><path fill="#2a280b" stroke="#2a280b" stroke-width="1.51" d="m-156 382-15-194-2 346Z"/><path fill="#121103" stroke="#121103" stroke-width="1.51" d="m1589 1121 118 14-112-96Z"/><path fill="#151403" stroke="#151403" stroke-width="1.51" d="m1666 978 41 157-24-243Z"/><path fill="#181604" stroke="#181604" stroke-width="1.51" d="m1683 892 24 243-15-351Z"/><path fill="#211f08" stroke="#211f08" stroke-width="1.51" d="m1692 784 15 351-11-873Z"/><path fill="#161403" stroke="#161403" stroke-width="1.51" d="m1295 1131 412 4-118-14Z"/><path fill="#1c1a05" stroke="#1c1a05" stroke-width="1.51" d="m967 1137 740-2-412-4Z"/><path fill="#161504" stroke="#161504" stroke-width="1.51" d="m-55 1029-99 82 138 5Z"/><path fill="#191704" stroke="#191704" stroke-width="1.51" d="m-110 889-31 140h86Z"/><path fill="#1a1805" stroke="#1a1805" stroke-width="1.51" d="m-154 1111 13-82-12-396Z"/><path fill="#1f1d07" stroke="#1f1d07" stroke-width="1.51" d="m-112 62-54-41-5 167Z"/><path fill="#1d1a06" stroke="#1d1a06" stroke-width="1.51" d="m-8-28-59-68-45 158Z"/><path fill="#1c1a06" stroke="#1c1a06" stroke-width="1.51" d="M83-71-67-96l59 68Z"/><path fill="#1d1b05" stroke="#1d1b05" stroke-width="1.51" d="m136-94-203-2L83-71Z"/><path fill="#1b1805" stroke="#1b1805" stroke-width="1.51" d="m-126-121 59 25 203 2Z"/><path fill="#151403" stroke="#151403" stroke-width="1.51" d="m1682-13 2-125-79-3Z"/><path fill="#1c1a05" stroke="#1c1a05" stroke-width="1.51" d="m1696 262-12-400-2 125ZM-67-96l-99 117 54 41Z"/><path fill="#151303" stroke="#151303" stroke-width="1.51" d="m-141 1029-13 82 99-82Z"/><path fill="#181604" stroke="#181604" stroke-width="1.51" d="m-16 1116-138-5 221 17Z"/><path fill="#211f07" stroke="#211f07" stroke-width="1.51" d="m-173 534 19 577 1-478Z"/><path fill="#191705" stroke="#191705" stroke-width="1.51" d="m-67-96-59-25-40 142Z"/><path fill="#1e1b06" stroke="#1e1b06" stroke-width="1.51" d="m300-125-426 4 262 27Z"/><path fill="#211f07" stroke="#211f07" stroke-width="1.51" d="m592-134-718 13 426-4Z"/></svg>