<?xml version="1.0" standalone="no"?>
<!DOCTYPE svg PUBLIC "-//W3C//DTD SVG 1.1//EN" "http://www.w3.org/Graphics/SVG/1.1/DTD/svg11.dtd" >
<svg xmlns="http://www.w3.org/2000/svg">
<metadata>
This is a custom SVG webfont generated by Font Squirrel.
Copyright   : (c)1995 Aaron Smith  _ Coin _Toss Productions
</metadata>
<defs>
<font id="webfont" horiz-adv-x="564" >
<font-face units-per-em="1000" ascent="800" descent="-200" />
<missing-glyph horiz-adv-x="341" />
<glyph unicode=" "  horiz-adv-x="341" />
<glyph unicode="&#x09;" horiz-adv-x="341" />
<glyph unicode="&#xa0;" horiz-adv-x="341" />
<glyph unicode="!" horiz-adv-x="292" d="M234 635q-40 -224 -74 -433q-39 -32 -104 -28q-8 5 -12 16q-4 8 -7 17q0 155 11 248q8 68 31 240l50 10q36 7 59 7q55 0 55 -40q0 -15 -9 -37zM145 8q-24 -28 -64 -28q-15 0 -28 4q-40 13 -51 44q-1 9 -1 17q0 30 21 51q22 37 67 37q41 0 56 -37q11 -27 11 -48 q0 -22 -11 -40z" />
<glyph unicode="&#x22;" horiz-adv-x="299" d="M225 712q2 -2 2 -12q0 -23 -14 -85q-16 -68 -27 -73t-28 -4q-19 2 -26 11q-4 5 -4 46q0 -176 -2 61q-1 32 10 46q13 19 48 19q29 0 41 -9zM96 677q0 -123 -15 -136q-4 -3 -13 -3q-39 0 -50 19q-5 10 -12 62q-6 48 -6 67q0 10 1 13q5 10 33 16q22 6 38 6q18 0 21 -6.5 t3 -37.5z" />
<glyph unicode="#" horiz-adv-x="769" d="M710 328q0 -10 3 -29t3 -28q0 -26 -23 -49l-191 -25q-13 -96 -29 -191l-26 -23q-7 -6 -35 -5q-6 4 -19 33q0 87 3 173q-43 -4 -81 -8l-16 -176q-34 -16 -46 -16t-43 11q-10 4 -15 13q-6 74 -4 161q-87 -3 -161 4q-8 4 -18 32q-5 14 -5 26t16 45q88 9 176 17q3 38 8 80 q-86 -2 -174 -2q-12 3 -32 18q-2 27 4 36l24 26q94 15 190 28l26 192q22 23 48 23q11 0 29 -3q22 -3 28 -4q-4 -90 -10 -192q38 5 76 9q8 87 19 173q8 1 40 11q27 8 39 8q35 0 35 -56q0 -19 -10 -123q104 9 124 9q56 0 56 -34q0 -13 -8 -39q-10 -31 -12 -40 q-86 -11 -173 -20q-4 -37 -9 -76q102 7 193 11zM406 384q-37 -3 -74 -5l-6 -75l75 5q2 37 5 75z" />
<glyph unicode="$" horiz-adv-x="479" d="M441 751q2 -38 -16 -115q-21 -14 -96 -46q-62 -27 -91 -52q-42 -36 -51 -92q3 -49 40 -80q7 -5 79 -45q98 -54 98 -161q0 -29 -6 -52q-18 -71 -109 -113l-12 -131q-34 -16 -63 -16q-14 0 -48 11q-10 3 -15 13q-3 40 -4 84q-18 -2 -33 -2q-47 0 -61 21q-1 48 10 93 q75 -1 101 4q56 11 80 53q7 49 7 53q0 21 -11 37q-28 40 -90 74q-80 43 -99 59q-48 40 -52 102q19 115 127 199q-4 56 12 174q30 6 53 6q49 0 74 -27l7 -74q58 22 119 33q8 3 18 3q22 0 32 -13z" />
<glyph unicode="&#x26;" horiz-adv-x="468" d="M362 532q-26 4 -62 -2q-78 -14 -107 -56q-14 -20 -10 -35q2 -6 9 -13q25 -23 64 -23q5 0 36 5t32 4q14 -12 14 -48q0 -39 -17 -51q-164 -29 -183 -93q-4 -14 -1 -29q4 -16 15 -19q17 -5 36 -5q36 0 75 14q6 2 55 22q14 6 14 -48q0 -42 -13 -52q-51 -22 -92 -31l-14 -86 q-24 -9 -45 -9q-15 0 -44 12q-8 3 -11 10q-1 32 1 67q-52 9 -90 42q-24 21 -24 61q0 83 80 125q17 9 90 43q-48 11 -66 20q-35 16 -46 47q-3 13 -3 26q0 102 143 160l18 88q17 16 42 16q-11 0 62 -9l-9 -72q29 1 50 -1q15 -2 32 -23.5t17 -37.5q0 -21 -30 -21q-6 0 -18 2z " />
<glyph unicode="'" horiz-adv-x="225" d="M146 680q-20 -99 -70 -99q-2 0 -2 4q0 6 5.5 23t5.5 25q0 13 -14 9q-30 0 -50.5 21.5t-20.5 51.5q0 29 18.5 49t47.5 20q26 0 51 -16q31 -20 31 -65q0 -13 -2 -23z" />
<glyph unicode="(" horiz-adv-x="259" d="M224 738q-60 -141 -76 -190q-48 -147 -48 -274q0 -175 92 -312q2 -3 2 -6q0 -9 -23 -9q-33 0 -46 15q-126 146 -126 329q0 114 48 232q46 113 124 204q17 20 45 20q12 0 8 -9z" />
<glyph unicode=")" horiz-adv-x="301" d="M103 717q126 -146 126 -329q0 -114 -48 -232q-46 -113 -124 -204q-17 -20 -45 -20q-12 0 -8 9q60 141 76 190q48 147 48 274q0 175 -92 312q-2 3 -2 6q0 9 23 9q33 0 46 -15z" />
<glyph unicode="*" horiz-adv-x="718" d="M627 487l-178 -137l164 -82q56 -28 56 -54q0 -15 -25 -38l-39 -36q-111 51 -221 108l-23 -248q-34 -16 -63 -16q-14 0 -48 11q-10 3 -15 12q-4 50 -4 107q0 40 2 84q-82 -51 -155 -85q-9 -1 -32 19q-18 15 -22 32q-2 5 -4 35l198 140q-101 56 -200 118q-9 9 -18 34 q13 23 20 26q18 5 36 11l199 -87l30 229q22 23 59 23q11 0 34 -3t34 -3q-4 -104 -12 -224l189 124l28 -38q14 -19 14 -37q0 -11 -4 -25z" />
<glyph unicode="+" horiz-adv-x="640" d="M569 304q-117 -9 -196 -12q-6 -82 -20 -219q-34 -16 -63 -16q-17 0 -48 12q-10 3 -15 12q-5 67 -5 129q0 42 2 81q-72 2 -193 8q-13 4 -32 21q0 26 4 33l27 26l206 23l30 201q22 23 59 23q11 0 34 -3t34 -3q-5 -118 -11 -206q9 0 133 5q78 3 78 -35q0 -12 -10 -39z" />
<glyph unicode="," horiz-adv-x="222" d="M134 22q-6 -15 -32 -45q-33 -39 -57 -37q-1 1 -1 3q0 4 10.5 23t10.5 27q0 5 -15 12q-20 9 -22 11q-27 22 -27 55q0 32 20 54t52 22q33 0 52 -21.5t19 -54.5q0 -25 -10 -49z" />
<glyph unicode="-" horiz-adv-x="672" d="M570 304q-168 -13 -281 -13q-93 0 -258 8q-12 4 -31 21q0 26 4 33l27 26l243 26q103 9 242 14q78 3 78 -35q0 -14 -10 -40q-12 -31 -14 -40z" />
<glyph unicode="." horiz-adv-x="232" d="M143 20q-24 -28 -64 -28q-14 0 -28 4q-39 15 -51 44q-1 8 -1 15q0 32 21 53q22 38 67 38q41 0 56 -38q11 -27 11 -48q0 -22 -11 -40z" />
<glyph unicode="/" horiz-adv-x="566" d="M542 673q-165 -293 -445 -728q-59 2 -101 46q-7 8 -7 18q52 128 203 364l229 343q13 4 25 4q28 0 96 -47z" />
<glyph unicode="0" horiz-adv-x="589" d="M522 486q0 -140 -100 -253q-103 -116 -241 -116q-48 0 -91 17q-82 32 -89 167q-7 124 51 231q60 111 170 161q40 18 85 18q57 0 108 -27q107 -59 107 -198zM374 481q0 113 -81 119q-55 4 -128 -110q-54 -85 -54 -171q0 -36 16 -62q18 -31 52 -31q10 0 21 4 q79 28 126.5 97t47.5 154z" />
<glyph unicode="1" horiz-adv-x="348" d="M281 617q-19 -107 -39 -304q-21 -214 -36 -305q-38 -32 -104 -28q-8 6 -18 32q5 191 6 238q5 134 15 237q0 5 -6 5q-9 0 -35.5 -10t-37.5 -10q-5 0 -7 2q-23 69 -20 94q2 14 57 56l70 53q14 4 39 4q112 0 116 -64z" />
<glyph unicode="2" horiz-adv-x="603" d="M552 108q2 -31 -40 -91q-39 -55 -56 -62q-189 42 -401 181q-5 4 -5 28q0 23 6 62q7 49 17 54q81 21 146 70q81 60 80 125q0 24 -34 37q-25 10 -53 10q-32 0 -77 -29q-30 -19 -50 -19q-17 0 -51 38t-34 55q0 3 3 6q97 71 229 79q17 1 36 1q190 0 190 -139q0 -32 -11 -62 q-56 -154 -220 -254q35 -25 164 -58q117 -30 161 -32z" />
<glyph unicode="3" horiz-adv-x="494" d="M420 281q9 -27 9 -53q0 -101 -129 -187q-91 -61 -216 -67q-21 -1 -46.5 24t-25.5 46q0 28 57 27q29 -1 75 14q95 30 122 86q13 27 6 45q-3 7 -13 14q-28 19 -62 19q-15 0 -59 -12l-44 -12q-26 18 -26 77q0 32 13 45q55 18 108 74.5t62 111.5q3 17 -3.5 35t-20 20.5 t-22.5 2.5q-48 0 -103 -28l-75 -41q-12 -6 -20 34q-7 31 -7 51q0 29 9 38q133 81 235 81q70 0 127 -37q41 -27 41 -93q0 -116 -142 -253q59 -5 85 -13q45 -14 65 -49z" />
<glyph unicode="4" horiz-adv-x="549" d="M478 305q3 -7 3 -19q0 -37 -19 -106q-23 -1 -53 -3q-6 -82 -20 -235q-33 -16 -62 -16q-16 0 -49 11q-9 3 -14 12q-3 101 4 224q-252 -6 -263 13q-5 8 -5 36q0 49 11.5 125t26.5 122q11 8 39 8q36 0 87 -11l-7 -144q8 -12 121 -13q11 123 36 319q21 22 62 22q36 0 61 -13 q-6 -162 -18 -330z" />
<glyph unicode="5" horiz-adv-x="644" d="M589 602q-109 -21 -281 -35q-143 -11 -148 -15q-15 -64 -15 -103q0 -24 6 -33l77 53q72 42 136 42q72 0 130 -53q35 -32 35 -85q0 -59 -42 -135q-69 -125 -177 -170q-67 -28 -168 -28q-26 0 -55 2q-11 25 -11 52q0 31 15 58q101 -3 195 60q87 58 87 110q0 13 -6 21 q-22 30 -59 30q-45 0 -110 -45q-14 -10 -72 -57q-15 7 -123 89q-4 6 -4 31q0 40 14 142q15 115 28 129q170 44 332 70q129 21 182 21q13 0 17 -2q19 -55 17 -149z" />
<glyph unicode="6" horiz-adv-x="582" d="M307 -57q-27 -9 -58 -9q-57 0 -116 28q-64 31 -88 77q-45 87 -45 184q0 124 73 253q62 111 167 207q55 -9 105 -56q-65 -55 -123 -140q-78 -114 -93 -224q42 50 113 80q67 29 136 29q153 0 153 -137q0 -88 -69 -175.5t-155 -116.5zM342 205q-63 0 -114 -36 q-74 -53 -74 -93q0 -13 5 -22q14 -27 73 -27q74 0 132 74q32 41 32 70q0 34 -54 34z" />
<glyph unicode="7" horiz-adv-x="536" d="M470 366q2 -66 -12 -86q-12 -2 -69 -10l-71 -299q-29 -8 -63 0q-9 2 -23.5 11.5t-21.5 12.5q12 54 39 268q-112 0 -123 1q-7 11 -7 32q0 22 14 84q25 9 82 9q22 0 49 -1q15 129 15 141v9l-9 3q-43 14 -143 22q-37 3 -123 8q-6 28 -4 44q3 24 14 81q6 7 31 6 q213 -7 380 -80q2 -27 2 -56q0 -85 -18 -192q34 -4 61 -8z" />
<glyph unicode="8" horiz-adv-x="628" d="M540 298q23 -31 23 -68q0 -80 -86 -154q-72 -63 -160 -87q-54 -15 -111 -15q-179 0 -203 129q-3 16 -3 26q0 97 138 158q-55 14 -89 52q-37 41 -37 95q0 70 56 140q49 60 119 98q98 53 196 53q96 0 142 -56q24 -29 24 -72q0 -66 -51 -142q-44 -66 -105 -111 q112 2 147 -46zM335 593q-53 0 -122 -37q-34 -18 -60 -52q-28 -37 -28 -72q0 -32 26 -52q23 -18 56 -18q80 0 147 95q34 48 34 84q0 52 -53 52zM340 248q-35 0 -86 -15q-127 -37 -127 -100q0 -57 88 -57q92 0 158 62q36 33 36 62q0 48 -69 48z" />
<glyph unicode="9" horiz-adv-x="597" d="M485 641q44 -86 44 -183q0 -126 -72 -254q-62 -111 -168 -207q-23 4 -55 21.5t-49 34.5q66 56 123 140q78 115 93 224q-43 -51 -111.5 -79.5t-138.5 -28.5q-48 0 -82 16q-71 33 -71 120q0 88 71 177q68 87 154 116q26 9 57 9q57 0 116 -28q65 -31 89 -78zM298 653 q-76 0 -132 -74q-32 -41 -32 -69q0 -35 54 -35q62 0 114 37q74 52 74 92q0 49 -78 49z" />
<glyph unicode=":" horiz-adv-x="232" d="M152 407q-24 -27 -64 -27q-14 0 -28 3q-39 15 -51 45q-1 7 -1 14q0 32 22 54q22 37 66 37q41 0 56 -37q11 -27 11 -49t-11 -40zM134 212q3 -18 3 -35q0 -93 -85 -84q-52 17 -52 65q0 31 24.5 57t55.5 26q41 0 54 -29z" />
<glyph unicode=";" horiz-adv-x="230" d="M152 496q8 -19 8 -37q0 -25 -15 -49q-25 -30 -61 -30q-11 0 -24 3q-39 15 -51 45q-1 7 -1 14q0 32 22 54q22 37 66 37q41 0 56 -37zM134 118q-6 -15 -32 -45q-33 -39 -57 -37q-1 1 -1 3q0 4 10.5 23t10.5 27q0 4 -16 12q-19 9 -21 11q-27 22 -27 55q0 32 20 54t52 22 q33 0 52 -21.5t19 -54.5q0 -25 -10 -49z" />
<glyph unicode="=" horiz-adv-x="526" d="M448 395q-147 -19 -218 -19q-33 0 -98 1t-98 1q-12 3 -32 19q-2 26 4 35l24 26l179 30q48 8 178 19q12 1 23 1q57 0 57 -35q0 -15 -9 -39q-9 -27 -10 -39zM458 310l4 -29q3 -17 3 -28q0 -27 -23 -49q-11 -1 -157 -23q-59 -9 -112 -9q-52 0 -142 8q-8 4 -18 33 q-5 14 -5 25q0 12 16 45q150 15 215 18z" />
<glyph unicode="?" horiz-adv-x="470" d="M432 460q-7 -62 -46 -98q-22 -20 -84.5 -51t-90.5 -59q-11 -11 -13 -45q-5 -17 -25 -29t-38 -12q-23 0 -63 15q-21 8 -19 49q2 46 48 84q21 19 84 54.5t69 85.5q-9 76 -91 113l-149 49q-14 76 -11 113q12 15 51 12q138 -10 242 -77q120 -77 136 -204zM195 108 q9 -24 9 -44q0 -25 -13 -45q-26 -30 -69 -30q-56 0 -73 45q-5 41 23 69q25 40 71 40q39 0 52 -35z" />
<glyph unicode="A" horiz-adv-x="566" d="M510 11q-34 -22 -97 -20q-25 35 -58 133l-3 9l-9 -1q-102 -11 -179 -37l-6 -2l-2 -6q-7 -34 -26 -92q-14 -26 -52 -25q-35 1 -80 7q16 143 77 350q25 86 112 353q5 7 42 10q34 3 46 1q18 -26 55 -97q106 -241 180 -583zM314 246q-14 48 -56 170l-25 66l-17 -69 q-13 -48 -37 -173l-4 -26l26 1q16 1 113 31z" />
<glyph unicode="B" horiz-adv-x="574" d="M506 287q5 -15 5 -33q0 -53 -25 -92q-62 -97 -171 -137q-49 -18 -243 -53q-17 -3 -19 -3q-21 0 -26 32q-28 180 -28 409q0 119 8 217h4q86 43 119 56q89 35 157 35q72 0 124 -41q24 -19 24 -71q0 -22 -7 -44q-21 -66 -129 -176q59 -10 118 -19q69 -20 89 -80zM265 582 q1 24 -7 28q-13 5 -28 5q-57 0 -104 -50q-7 -44 -7 -173q60 24 101 74q43 54 45 116zM333 264q-19 21 -59 21q-70 0 -155 -49q-2 -70 11 -135q117 14 176 68q33 30 33 75q0 13 -6 20z" />
<glyph unicode="C" horiz-adv-x="556" d="M509 126q-6 -17 -32.5 -44t-44.5 -38q-91 -57 -205 -57q-63 0 -121 42q-106 77 -106 243q0 246 199 383q83 57 157 57q69 0 133 -49q-6 -67 -41 -147l-1 -4q-44 50 -102 50q-44 0 -85 -27q-66 -43 -101 -128q-31 -76 -32 -163q0 -82 66 -110q24 -10 50 -10q56 0 115 39 q51 34 90 86q41 -54 61 -123z" />
<glyph unicode="D" horiz-adv-x="682" d="M628 449q0 -156 -173 -293q-194 -154 -444 -178q-14 90 -5 251q8 142 48 400q82 65 211 65q138 0 252 -65q58 -33 84.5 -73t26.5 -107zM383 424q0 61 -33.5 96.5t-94.5 37.5q-7 0 -89 -10l-8 -1l-1 -8q-13 -106 -20 -199q-3 -67 -14 -202l-2 -18l17 7q81 33 147 96 q98 93 98 201z" />
<glyph unicode="E" horiz-adv-x="492" d="M456 687q5 -28 -8 -68t-33 -62q-118 -7 -211 -17l-9 -1l-1 -9q0 -5 -14 -60q-10 -40 -3 -57l3 -7h7q13 0 47 2q45 3 68 4q61 3 98 -6q3 -15 3 -32q0 -29 -8 -65q-41 -9 -116 -17q-56 -6 -112 -14l-7 -1l-2 -7q-12 -44 -4 -120l1 -9l10 -1q19 -2 131 12q32 4 60 4 q33 0 59 -6q-1 -19 -6 -69q-6 -44 -33 -49q-73 -14 -170 -22l-168 -15q-16 3 -27.5 16.5t-11.5 30.5q5 184 25 316q24 155 78 293q142 31 354 36z" />
<glyph unicode="F" horiz-adv-x="478" d="M446 631q0 -18 -10 -45l-125 -7q-108 -7 -147 -22l-8 -3l-2 -9q-15 -67 -15 -180v-16l16 1q76 3 197 9q13 -13 12 -45q0 -5 -6 -61q-27 -8 -85 -17q-30 -4 -60 -9q-39 -7 -56 -16l-7 -3l-1 -9q-2 -53 -9 -189q-12 -10 -48 -24q-19 -5 -36 -5q-15 0 -28 4l-18 210 q-11 126 -11 210q0 131 23 232q179 74 393 81q25 1 30 -6q2 -50 1 -81z" />
<glyph unicode="G" horiz-adv-x="646" d="M560 334q31 -65 31 -150q0 -102 -57 -149q-88 -73 -214 -73q-173 0 -263 153q-53 90 -57 203q-8 202 188 335q108 73 212 73q79 0 155 -41q3 -5 0 -16q-20 -72 -58 -119q-30 18 -86 18q-47 0 -66 -9q-84 -39 -133 -128q-47 -84 -47 -181q0 -55 18 -100q24 -60 80 -68 q47 -7 93 11q68 27 78 100q-2 -1 -46 -8q-32 -5 -53 -5q-35 0 -45 18q-7 12 -7 49q0 56 26 66q51 10 125 14q63 4 126 7z" />
<glyph unicode="H" horiz-adv-x="575" d="M518 666q-22 -274 -96 -680q-15 -10 -44 -9q-12 1 -55 7q-9 53 -9 128q0 21 1 69t1 70v11l-11 1q-76 7 -135 -10l-7 -2l-2 -7q-10 -78 -32 -223q-41 -16 -81 -16q-20 0 -36 5q-8 5 -10 12l25 340q19 191 62 335q32 16 82 16q18 0 38 -2q-1 -56 -12 -155q-5 -42 -8.5 -89 t-4.5 -52l-1 -9l10 -2q54 -11 124 -3l9 1l1 9q20 176 44 266q6 14 44 14q20 0 33 -4q49 -6 70 -21z" />
<glyph unicode="I" horiz-adv-x="250" d="M181 687q-13 -305 -51 -687q-34 -16 -63 -16q-14 0 -48 11q-10 3 -15 12q-4 52 -4 110q0 125 19 283q8 70 35 271q22 23 59 23q12 0 36 -3z" />
<glyph unicode="J" horiz-adv-x="520" d="M442 667q7 -432 -57 -588q-18 -43 -60 -74q-45 -33 -90 -33q-108 0 -208 163q-20 33 -29 66q11 12 33 26q30 19 47 19q6 0 10 -2q25 -37 62 -74q48 -49 77 -49q47 0 58 103q3 26 3 137q0 60 -9 300q-1 19 46 34q37 12 62 12q54 0 55 -40z" />
<glyph unicode="K" horiz-adv-x="501" d="M446 93q-1 -17 -43 -67t-54 -47q-3 0 -32 23q-55 59 -169 169q9 -58 11 -165q0 -18 -50 -24q-33 -1 -66 -3q-26 4 -27 36q-1 15 -11 253q-7 161 -7 251q0 79 4 146q4 15 67 25q53 8 79 7q10 -8 10 -19q0 -5 -1 -9q-10 -197 -9 -228q21 25 183 196q4 3 10 3q20 0 55 -35.5 t34 -55.5q-16 -17 -206 -251z" />
<glyph unicode="L" horiz-adv-x="408" d="M362 20q-68 -28 -164 -34q-43 -3 -169 -1q-12 0 -16 21q-13 75 -13 206q0 74 21 468q1 17 56 17q81 0 85 -26q1 -29 1 -63q0 -50 -3 -150t-3 -150q0 -100 9 -169h93q62 0 96 -5q2 -38 7 -114z" />
<glyph unicode="M" horiz-adv-x="782" d="M698 25q-8 -19 -41 -30q-25 -8 -52 -8q-31 0 -34 9q-11 131 -22 356q-4 4 -6 4t-5 -4l-139 -276q-16 -26 -40 -24q-37 -3 -51 16l-30 59q-17 32 -43 94q-27 66 -42 95q-24 -105 -35 -148q-26 -104 -44 -139q-22 -44 -66 -41q-40 -2 -49 21q25 224 131 654q16 15 62 15 q21 0 30 -5q49 -99 131 -327q127 214 227 339q38 4 55 4q42 0 53 -33q4 -15 4.5 -70t6.5 -203q5 -122 5 -201q0 -85 -6 -157z" />
<glyph unicode="N" horiz-adv-x="659" d="M574 341q-8 -49 -16.5 -151.5t-18.5 -154.5q-24 -24 -55 -27q-39 42 -333 335l-6 -168q-4 -96 -23 -163q-45 -21 -59 -21q-23 0 -59 27v421q-1 125 -5 206q22 41 79 45q123 -138 347 -357q6 47 9 152q3 98 7 156q3 17 44 33q31 11 58 11q9 0 17 -1q26 -53 26 -137 q0 -34 -6 -103t-6 -103z" />
<glyph unicode="O" horiz-adv-x="673" d="M604 368q0 -138 -73 -255q-87 -139 -243 -139q-85 0 -151 41q-137 85 -137 280q0 87 32 166q32 84 93 141q108 102 203 102q64 0 127 -46q149 -108 149 -290zM422 510q-16 39 -36 49q-14 7 -52 7q-74 0 -117 -62q-72 -103 -72 -206q0 -43 13 -83q18 -54 93 -88 q18 -8 39 -8q40 0 75 32q31 28 47 69q33 84 33 166q0 68 -23 124z" />
<glyph unicode="P" horiz-adv-x="434" d="M377 527q-19 -72 -90 -150q-43 -47 -133 -123q0 -30 4 -90.5t4 -90.5q0 -39 -4 -63q-26 -37 -109 -34q-30 151 -38 351q-3 100 -10 301l117 47q69 26 123 26q64 0 102.5 -36.5t38.5 -100.5q0 -18 -5 -37zM251 552q-5 22 -34 22q-20 0 -49.5 -11t-42.5 -24q-3 -28 -3 -56 q0 -45 8 -88q129 94 121 157z" />
<glyph unicode="Q" horiz-adv-x="733" d="M665 418q0 -92 -44 -189q-42 -93 -111 -160q37 -54 58 -103q-30 -83 -96 -83q-7 0 -15 1q-50 15 -95 91q-68 -25 -134 -25q-60 0 -113 21q-104 41 -113 212q-8 158 65 293q76 142 216 205q51 23 109 23q72 0 136 -35q68 -37 103 -106q34 -64 34 -145zM476 412 q0 59 -22 99q-27 49 -81 53q-69 5 -163 -141q-69 -108 -69 -217q0 -67 38 -99q22 -19 50 -19q25 0 70 23q-26 62 -26 75q0 24 24 39.5t49 15.5q6 0 12 -1q20 -13 47 -40q71 94 71 212z" />
<glyph unicode="R" horiz-adv-x="557" d="M494 158l-45 -115q-4 -3 -37 7q-102 31 -256 108q-17 -92 -15 -216q-9 -1 -123 -3q-17 85 -19 208q-3 281 56 466q154 86 263 86q65 0 110 -32q51 -36 54 -98q5 -91 -64 -187q-25 -35 -140 -157q106 -42 216 -67zM334 546q-5 42 -46 42q-31 0 -95 -31q-3 -23 -17 -123 q-11 -76 -9 -119q158 118 167 231z" />
<glyph unicode="S" horiz-adv-x="493" d="M424 149q-54 -171 -292 -219l-5 -1l-2 4q-2 4 -29 37q-18 22 -18 34q0 16 28 36l86 62q53 40 65 78q10 31 0 49q-13 25 -61 47q-8 5 -77 30q-120 44 -120 119q0 32 19 75q49 111 153 183q37 25 227 107l7 3l2 -8q3 -39 11 -129l1 -5l-5 -2q-81 -32 -164 -93 q-16 -11 -68 -65q-22 -27 -22 -53q0 -13 6 -27q24 -22 86 -47q82 -33 94 -39q87 -44 87 -119q0 -28 -9 -57z" />
<glyph unicode="T" horiz-adv-x="514" d="M462 701q1 -49 -4 -137q-74 -3 -154 -25q-15 -107 -22 -275l-12 -278q-57 -14 -69 -14q-26 0 -43 14q-6 53 -6 112q0 64 10 190.5t10 190.5q0 26 -1 51q-23 2 -64 -5q-45 -7 -63 -7q-19 0 -32 5q-9 67 -9 111q0 17 1 30q22 2 198 31q121 20 202 20q25 0 49 -2 q9 -10 9 -12z" />
<glyph unicode="U" horiz-adv-x="561" d="M488 677q0 -241 -17 -347q-31 -193 -135 -305q-44 -47 -107 -50q-82 -3 -131 54q-98 114 -98 320q0 80 36 342q13 21 83 21q57 0 63 -16l-22 -178q-12 -104 -12 -181q0 -109 27 -169q14 -32 56 -32q11 0 18 4q71 53 93 318q4 52 10 210q9 21 77 21q50 0 59 -12z" />
<glyph unicode="V" horiz-adv-x="568" d="M518 671q-57 -238 -226 -679q-20 -19 -60 -19q-24 0 -40 1q-20 -1 -34 -4q-4 3 -10 7l-4 2q-4 2 -5 3l-141 693q54 34 117 34q19 0 38 -4q10 -16 28 -118q13 -73 23.5 -159t21.5 -161l6 -43l27 69q28 71 55 187l47 196q44 13 84 13q46 0 73 -18z" />
<glyph unicode="W" horiz-adv-x="893" d="M823 649q3 -32 3 -68q0 -129 -40 -288q-33 -133 -80 -235q-44 -96 -63 -96q-2 -4 -15 -4q-24 0 -52 10q-34 13 -40 31l-54 154q-21 55 -60 148q-7 -1 -17 -23l-133 -303q-14 -19 -44 -19q-17 0 -43 8q-30 9 -38 20q-93 222 -136 514q-10 68 -10 116q0 32 3 64q0 8 39 13 q31 5 49 5q27 0 29 -7l34 -230q21 -136 57 -204q10 7 26 46q6 16 19 48l79 183q6 15 45 23q28 6 53 6q37 0 59 -11q37 -58 72 -143l60 -145q1 -4 3 -4q46 0 66 427q13 22 50 25q20 1 60 4q20 -5 19 -65z" />
<glyph unicode="X" horiz-adv-x="627" d="M575 699q-27 -57 -168 -298q4 -8 85 -148q53 -91 75 -153q-24 -45 -108 -66q-26 -6 -38 5q-34 78 -115 234q-51 -127 -92 -267q-18 -19 -55 -26q-9 -2 -63 -7q-56 4 -56 39q0 11 4 22q34 92 127 320q-29 66 -82 150l-87 138q-2 3 -2 7q0 17 53 26q34 5 67 5q72 0 80 -15 q13 -25 94 -168l136 207q12 18 56 18q50 0 89 -23z" />
<glyph unicode="Y" horiz-adv-x="642" d="M633 749q-10 -37 -37 -99q-70 -159 -187 -362l-198 -341q-8 -14 -119 -27q-24 -3 -24 9q0 5 3 12q47 86 194 394q-111 106 -262 273q-3 2 -3 6q0 16 128 83q10 4 27 10q120 -144 200 -210q53 100 105 226q9 22 21 28t38 6q18 0 114 -8z" />
<glyph unicode="Z" horiz-adv-x="508" d="M432 142q17 1 17 -46q0 -56 -29 -85q-26 -13 -76 -18.5t-150 -15.5q-28 -3 -70 2q-57 7 -61 20q-10 73 -10 64q0 14 5 25q22 50 100 243q83 206 84 217q-35 2 -100 -9q-70 -12 -101 -12q-19 0 -21 5q-23 58 -20 119q-1 7 -1 12q0 15 11 20q134 26 357 26q31 0 40 -5 q13 -7 16 -32q4 -35 -70 -201l-137 -303q-17 -38 -17 -42q0 -5 6 -5q-4 0 25 3q120 13 202 18z" />
<glyph unicode="\" horiz-adv-x="589" d="M552 -12l-46 -30q-30 -17 -51 -17q-12 0 -24 4l-229 343q-151 236 -204 365q1 9 21 31q29 31 88 32q280 -434 445 -728z" />
<glyph unicode="^" horiz-adv-x="373" d="M399 816q0 -9 -22 -25.5t-30 -13.5q-24 8 -69 38q-48 32 -70 41q-58 -33 -155 -79q-8 -2 -30.5 14t-22.5 25q0 2 94 82q58 50 100 65q5 1 12 0q28 -9 112 -71q81 -60 81 -76z" />
<glyph unicode="`" horiz-adv-x="268" d="M287 816q0 -9 -22 -25.5t-30 -13.5q-93 33 -119 43q-78 31 -114 58q-1 1 -1 3q0 14 34.5 48.5t52.5 34.5t114 -69q85 -61 85 -79z" />
<glyph unicode="a" horiz-adv-x="544" d="M480 9q-11 -22 -86 -39q-25 -6 -31 1q-2 3 -8 28q-11 45 -31 166l-2 12l-11 -3q-31 -6 -112 -27q-28 -8 -37 -44q-14 -56 -34 -122q-64 -4 -124 26l-2 1l1 3q18 54 116 374q60 193 103 287q17 6 38 6q23 0 51 -7q100 -229 169 -662zM294 275l-1 9q-2 15 -37 168l-9 39 l-12 -39q-21 -69 -44 -183l-3 -15l16 3l82 15z" />
<glyph unicode="b" horiz-adv-x="555" d="M482 280q9 -27 9 -53q0 -101 -129 -187q-106 -71 -259 -71q-38 0 -75 5q-29 105 -29 256q0 193 31 411l132 53q80 30 146 30q69 0 125 -36q42 -27 42 -93q0 -116 -143 -253q59 -5 85 -13q45 -14 65 -49zM313 532q3 17 -3 34q-6 21 -22 22q-67 3 -150 -46 q-12 -105 -10 -178q54 12 110 57q65 53 75 111zM324 214q-3 8 -12 14q-17 12 -45 12q-45 0 -141 -47q-2 -27 -2 -49q0 -45 7 -74q5 -2 11 -2q24 0 77 20q75 28 100 81q13 27 5 45z" />
<glyph unicode="c" horiz-adv-x="492" d="M472 667q-2 -31 -13 -78q-8 -34 -16 -55q-64 26 -96 26q-22 0 -43 -8q-76 -30 -122.5 -102t-46.5 -155q0 -111 74 -145q37 -17 86 -17q36 0 66 12l60 27q-2 -20 -6 -42q-16 -89 -39 -108q-48 -30 -110 -30q-120 0 -194 78.5t-74 199.5q0 94 41 186q53 118 196 195 q65 35 133 35q51 0 104 -19z" />
<glyph unicode="d" horiz-adv-x="533" d="M455 575q26 -41 26 -97q0 -86 -54 -195q-41 -82 -76 -121q-129 -142 -314 -177q-17 -1 -22 18q0 1 -4 34q-12 112 -12 271q0 84 9 351q157 35 221 35q150 0 226 -119zM233 567q-40 0 -92 -21l-5 -2l-2 -6q-14 -81 -14 -200q0 -112 7 -175l2 -18l15 10q70 47 122 138.5 t52 173.5q0 101 -85 100z" />
<glyph unicode="e" horiz-adv-x="478" d="M452 41q-109 -33 -209 -45q-35 -3 -141 -16q-24 -3 -55 9q-36 14 -38 36q-11 118 -11 250q0 178 25 377q4 28 31 29q187 8 349 -9q15 -37 15 -56q0 -6 -5 -50q-54 -16 -139 -17q-97 -2 -134 -8q-5 -73 -5 -82q0 -41 10 -54q36 -1 116 1q77 2 112 -6q7 -28 7 -58t-7 -55 l-241 -16q0 12 -2 -69q-1 -53 4 -64q50 0 146 7l148 11q25 -48 24 -115z" />
<glyph unicode="f" horiz-adv-x="463" d="M432 718q4 -14 4 -36q0 -70 -29 -105q-68 -3 -240 -18l-9 -1v-9q-3 -21 -10 -63q-2 -45 -7 -105l3 -8l8 1q18 2 127 8q47 2 82 -6q6 -24 6 -54q0 -22 -3 -47q-38 -9 -114 -18q-23 -3 -109 -15l-7 -1l-1 -8q-7 -52 -8 -144q-1 -86 -5 -92q-9 -16 -48 -16q-56 0 -67 18 q-5 97 -5 179q0 286 63 489q213 47 369 51z" />
<glyph unicode="g" horiz-adv-x="609" d="M532 44q-85 -91 -259 -81q-91 5 -165 81q-67 69 -93 163q-15 54 -15 104q0 153 106 266q128 137 355 137q18 0 15 -16q2 -20 -17 -78q-21 -62 -36 -66q-71 -19 -133 -60q-70 -46 -102 -103q-48 -85 -48 -169q0 -57 33 -88t90 -31q71 0 146 48q14 16 14 37q0 12 -6 19 q-96 -16 -127 -16q-27 0 -32 9q-8 44 -8 63q0 44 28 60q122 22 202 22q21 0 42 -1q27 -56 27 -144q0 -72 -17 -156z" />
<glyph unicode="h" horiz-adv-x="557" d="M496 633q-22 -157 -36 -366l-25 -367q-30 -6 -64 -6q-33 0 -70 6q-2 170 13 316q-30 5 -61 5q-35 0 -72 -6q-1 -4 -8.5 -4t-8.5 -4l-38 -215q-15 -4 -36 -4q-39 0 -87 14q-2 123 14 249q19 154 109 467q3 9 54 18q44 8 64 8q24 0 22 -8q-26 -133 -60 -337q42 -2 72 -2 q48 0 68 5q15 109 47 266q48 26 103 27q6 -18 0 -62z" />
<glyph unicode="i" horiz-adv-x="259" d="M198 616q-20 -112 -39 -305q-21 -220 -36 -305q-38 -32 -104 -28q-8 6 -18 32q0 342 42 667l50 10q36 7 59 7q54 0 54 -40q0 -16 -8 -38z" />
<glyph unicode="j" horiz-adv-x="545" d="M468 539q4 -34 4 -78q0 -123 -23 -236.5t-59 -169.5q-53 -83 -147 -80q-138 4 -244 160q7 32 37 56t63 26l44 -58q38 -49 77 -51q27 -2 49 35q18 29 24 62q20 107 20 206q0 138 -38 252q0 35 75 35q22 0 53 -6q42 -7 45 -19q7 -26 20 -134z" />
<glyph unicode="k" d="M520 552l-259 -227l114 -132q69 -79 102 -137q7 -22 -42 -46q-44 -22 -69 -21q-87 81 -205 241l-15 -149q-9 -81 -25 -102q-35 -4 -55 -4q-63 0 -68 31q9 262 14 341q12 183 38 333q42 8 77 8q55 0 57 -23q1 -10 1 -35q0 -8 -14 -203q80 72 115 100q77 62 144 98 q6 1 12 1q21 0 50 -25t29 -45q0 -3 -1 -4z" />
<glyph unicode="l" horiz-adv-x="398" d="M341 141q10 -2 10 -34q0 -21 -5 -53q-7 -41 -17 -45q-104 -23 -230 -22q-32 0 -56 17q-28 20 -29 50q-14 307 -14 375q0 122 10 224q2 17 49 29q36 8 63 8q60 0 57 -27q-31 -256 -31 -392q0 -70 7 -122q46 -9 123 -9q29 0 63 1z" />
<glyph unicode="m" horiz-adv-x="856" d="M793 22q0 -22 -33 -33q-24 -8 -51 -8q-29 0 -36 8q-11 6 -36 145q-22 126 -35 241l-85 -179q-54 -115 -93 -172q-6 -9 -21 -7l-30 4q-30 0 -38 45q-22 122 -70 321q-14 -58 -62 -189l-67 -186q-11 -35 -41 -35q-15 0 -40 3q-31 3 -41 3q-15 10 -15 29q0 9 8 38 q63 227 209 613q23 12 52 12q32 0 50 -16q70 -203 95 -298h10l104 197q62 118 76 126q7 11 41 11q25 0 39 -7q31 -136 61 -341z" />
<glyph unicode="n" horiz-adv-x="681" d="M626 632l-59 -393q-39 -230 -59 -258q-9 -2 -37 -14q-22 -9 -38 -9q-9 0 -17 2q-59 56 -102 132l-78 145l-64 124l-35 -353q-23 -18 -49 -24q-20 -4 -52 -3q-36 1 -36 61q1 113 19 312q23 249 26 309q8 11 20 15l27 9q22 6 30 6q15 0 34 -15q110 -177 240 -430h11 q10 80 71 432q18 2 61 17q40 14 58 14q32 0 32 -46q0 -12 -3 -33z" />
<glyph unicode="o" horiz-adv-x="730" d="M475 52q-116 -91 -224 -90q-123 1 -175 49q-77 70 -77 205q0 61 17 127q31 121 143 222q108 97 233 126q26 6 52 6q62 0 112 -30t75 -85q34 -74 34 -161q0 -220 -190 -369zM527 461q0 21 -9 42q-19 48 -78 48q-77 0 -163.5 -68t-112.5 -143q-16 -47 -14 -99 q3 -70 50 -107q26 -20 61 -20q13 0 77 15q55 13 118 109q73 111 71 223z" />
<glyph unicode="p" horiz-adv-x="473" d="M302 364q-34 -25 -156 -96q3 -55 -6 -264q-45 -37 -71 -37q-15 0 -36 7q-28 118 -31 294q-3 203 27 352q132 75 253 75q69 0 110 -33q44 -37 44 -105q0 -96 -134 -193zM293 534q3 8 3 15q0 21 -32 21q-51 0 -113 -32q-11 -69 -11 -127q41 15 87 49q54 39 66 74z" />
<glyph unicode="q" horiz-adv-x="668" d="M462 43q22 -41 57 -119q4 -17 -60.5 -45t-88.5 -28q-13 0 -18 6q-14 22 -59 119q-21 -4 -46 -4q-120 0 -177 69q-69 84 -69 201q0 49 16 96q44 129 124 226q95 114 210 139q102 6 155 -24q93 -83 93 -224q0 -120 -33 -216q-31 -87 -104 -196zM434 505q-20 31 -47 28 q-95 -11 -157 -101q-57 -82 -57 -182q0 -69 30 -95q17 -15 35 -15q5 0 10 1q-12 35 -20 95q-3 23 38 47q38 22 65 22q19 0 27 -11q14 -19 41 -88q57 100 57 204q0 60 -22 95z" />
<glyph unicode="r" horiz-adv-x="700" d="M648 161q3 -31 -40 -91q-39 -55 -56 -63q-189 42 -403 183q-11 -40 -10 -105q1 -97 0 -107q-55 -15 -85 -15q-29 0 -49 11q-4 57 -4 116q0 230 71 527q55 44 141 69q81 24 157 24q183 0 183 -141q0 -36 -10 -63q-56 -153 -221 -254q35 -26 164 -59q117 -30 162 -32z M394 530q0 24 -33 37q-26 10 -54 10q-16 0 -28 -3q-55 -13 -74 -32q-9 -9 -21 -63q-14 -65 -17 -145q80 21 147 71q80 60 80 125z" />
<glyph unicode="s" horiz-adv-x="425" d="M376 646l-3 -5q-185 -79 -200 -191q-1 -10 -1 -23q0 -49 44 -93l84 -70q69 -60 61 -140q-10 -103 -86 -142q-59 -30 -128 -30q-53 0 -98 19l-3 4q-4 11 -10 35q-3 24 12 39l5 1q23 -9 50 -9q46 0 87 23q24 20 24 59q0 16 -4 32q-20 33 -61 73l-70 66q-85 84 -80 171 q6 103 124 192q94 70 221 107q6 2 14.5 -1t11.5 -3l5 1l1 -5q9 -46 0 -110z" />
<glyph unicode="t" horiz-adv-x="526" d="M479 698q2 -31 2 -64q0 -32 -2 -64q-40 -1 -118 -5q-13 -1 -38 -4q-5 -4 -9 -50q-17 -174 -58 -530q-11 -10 -41 -7l-50 5q-3 3 -6 4q-6 75 -6 187q0 208 10 358l2 30l-68 2q-16 0 -55 1q-43 2 -40 29l13 106q118 6 248 6q104 0 216 -4z" />
<glyph unicode="u" horiz-adv-x="635" d="M571 676q5 -148 -24 -307q-38 -206 -120 -324q-57 -82 -172 -82q-62 0 -110 26q-146 80 -146 298q0 75 18 186l28 172q71 36 129 43q22 3 24 1q6 -3 3 -20l-30 -182q-16 -102 -16 -182q0 -69 13 -137q4 -20 21 -36t37 -19q57 -8 87 61q43 97 67 239q3 16 40 249 q51 21 102 21q28 0 49 -7z" />
<glyph unicode="v" horiz-adv-x="655" d="M619 683q-36 -146 -151 -404q-119 -267 -167 -297q-13 -11 -79 -11q-55 0 -63 13q-65 108 -103 252q-29 109 -52 273q-2 26 -4 78q-1 39 4 67q7 11 63 24q42 10 50 10q20 0 32 -13q-10 -307 93 -542q115 215 161 334l93 240q7 8 26 8q38 0 91 -22q0 -4 6 -10z" />
<glyph unicode="w" horiz-adv-x="955" d="M884 686q-8 -260 -21 -359q-27 -206 -106 -333q-28 -37 -90 -37q-25 0 -37 9q-68 51 -109 142q-14 32 -56 164q-123 -307 -243 -307q-70 0 -129 90q-53 108 -73 265q-7 52 -21 286q-1 20 83 50q68 24 106 30q15 0 14 -10q-10 -130 -10 -206q0 -162 33 -274q7 -14 18 -14 t20 14q119 191 169 372q4 14 55 14q64 0 68 -14l55 -192q34 -112 62 -147q5 -2 9 -2q11 0 20 31q47 155 56 461q0 12 39 12q84 0 88 -45z" />
<glyph unicode="x" horiz-adv-x="618" d="M576 653q-139 -180 -193 -274l82 -156q59 -116 73 -162q-15 -14 -41 -24q-36 -13 -43 -18q-27 -9 -40 -9q-18 0 -37 28q-36 54 -103 209q-56 -186 -111 -300q-65 1 -83 4q-53 9 -58 37q36 131 127 377l-149 253q0 24 57 45q49 18 82 18q6 0 9 -1q23 -5 65 -87l65 -130 q33 74 103 207q69 8 124 8q31 0 58 -3q16 -4 16 -13q0 -4 -3 -9z" />
<glyph unicode="y" horiz-adv-x="648" d="M679 736q-140 -174 -292 -403l-265 -414q-11 -10 -24 -10q-15 0 -38 15q-31 20 -36 22l-23 23q28 63 98 182l118 199l-216 283v18q60 35 81 46q44 22 85 35q97 -117 153 -242q95 164 166 273q33 -1 97 -4q52 -4 96 -23z" />
<glyph unicode="z" horiz-adv-x="476" d="M424 672q5 -48 -208 -526q-15 -33 -16 -38q-2 -9 5 -9q4 1 26 4l45 6q17 1 62 3q17 1 17 -45q0 -56 -29 -85q-14 -8 -28 -15q-5 -1 -104 -12q-27 -3 -70 2q-56 7 -60 20q-11 73 -11 64q0 12 6 25q23 50 100 252q81 212 83 230q-27 1 -103 -19q-80 -22 -107 -22 q-10 0 -11 3q-24 59 -21 120q-4 25 11 31q246 48 357 48q31 0 40 -5q13 -7 16 -32z" />
<glyph unicode="~" horiz-adv-x="368" d="M394 821q-37 -80 -106 -79q-33 0 -78.5 54t-79.5 55q-69 1 -121 -45q-11 13 -9 45q36 83 128 92q34 3 79 -47q47 -53 78 -53q60 -1 107 32q6 -1 6 -18q0 -13 -4 -36z" />
<glyph horiz-adv-x="879" d="M845 722q-1 -33 -3 -66q-2 -39 -9 -64q-13 -2 -26 -2q-19 0 -55.5 4t-55.5 4q-15 0 -29 -1q-19 -104 -46 -313t-46 -313q-42 -29 -114 -28q-19 -2 -24 4.5t-3 25.5q8 98 43 312q33 202 40 312q-123 3 -200 -25q-7 -9 -7 -18q0 -5 2 -9q-14 -95 -32 -294 q-17 -186 -32 -260q-56 -32 -138 -30q-2 4 -2 18q0 115 76 578q-56 -7 -165 -22q-8 2 -19 7l10 78q6 47 15 77l372 30q222 18 376 20q57 1 72 -25z" />
<glyph horiz-adv-x="450" d="M385 62q-11 -33 -120 -55q-50 -10 -222 -30q-37 -4 -44 32q-3 236 58 661q1 10 114 18q102 7 182 7q1 -1 12 -18l6 -92q0 -23 -9.5 -28t-36.5 -6q-5 -1 -78 -4q-62 -3 -64 -18q-8 -50 -15 -121q49 1 167 -3q11 -3 11 -43q0 -85 -32 -87q-27 -2 -150 -14q-10 -90 -8 -133 q9 -7 12 -5q119 16 208 20q17 -24 17 -43q0 -14 -8 -38z" />
<glyph horiz-adv-x="272" d="M178 290q-29 -34 -79 -34q-20 0 -34 5q-48 17 -63 54q-1 8 -1 15q0 42 26 69q27 45 82 45q51 0 69 -45q13 -32 13 -60q0 -27 -13 -49z" />
<glyph horiz-adv-x="645" d="M565 378q-6 -18 -44 -18q-14 0 -16 4q-5 62 -11 169q-1 2 -2 2t-3 -2l-40 -81q-24 -48 -26 -50q-7 -12 -18 -12q-18 -1 -24 8t-15 28q-22 51 -41 90q-22 -112 -37 -136q-10 -21 -31 -20q-19 -1 -23 10q11 106 62 311q4 4 21 6t22 -2q23 -47 63 -155q60 102 108 161 q17 2 25 2q20 0 26 -16q2 -7 2 -34q0 -14 4 -133q3 -82 -2 -132zM228 697q2 -15 2 -30q0 -16 -2 -31q-24 0 -73 -4q-4 -2 -6 -24l-27 -252q-4 -4 -20 -4l-23 3q-2 1 -3 2q-9 107 2 259l1 14l-33 1q-47 1 -45 15l6 50q56 3 118 3q50 0 103 -2z" />
<glyph horiz-adv-x="642" d="M500 827q-24 -28 -64 -28q-14 0 -28 4q-39 15 -51 44q-1 8 -1 15q0 32 21 53q22 38 67 38q41 0 56 -38q11 -27 11 -48q0 -22 -11 -40zM261 917q4 -18 4 -35q0 -93 -86 -84q-36 12 -48 44q-3 11 -3 21q0 31 24 57t55 26q41 0 54 -29zM633 749q-10 -37 -37 -99 q-70 -159 -187 -362l-198 -341q-8 -14 -119 -27q-24 -3 -24 9q0 5 3 12q47 86 194 394q-111 106 -262 273q-3 2 -3 6q0 16 128 83q10 4 27 10q120 -144 200 -210q53 100 105 226q9 22 21 28t38 6q18 0 114 -8z" />
<glyph unicode="&#xa1;" horiz-adv-x="300" d="M242 660q1 -8 1 -15q0 -31 -21 -53q-22 -37 -67 -37q-41 0 -56 37q-11 27 -11 49t11 40q24 27 64 27q14 0 28 -3q39 -15 51 -45zM207 482q0 -156 -11 -249q-8 -66 -31 -240l-50 -10q-36 -7 -59 -7q-55 0 -55 40q0 16 9 38l74 432q38 32 104 28q4 -3 19 -32z" />
<glyph unicode="&#xa2;" horiz-adv-x="348" d="M286 232q-15 -49 -95 -73l-11 -71q-25 -10 -44 -10q-40 0 -50 21q-2 27 -1 60q-85 38 -85 150q0 72 34 131.5t96 92.5l8 59q18 19 45 19q16 -2 46 -4l6 -1l-3 -59q23 -8 41 -22l3 -5q-4 -36 -23 -81l-3 -7l-5 5q-28 23 -52 23t-44 -13q-68 -44 -69 -153q0 -41 32 -55 q12 -4 25 -4q64 0 107 65l4 6l4 -6q25 -38 34 -68z" />
<glyph unicode="&#xa8;" horiz-adv-x="360" d="M374 818q-24 -27 -64 -27q-14 0 -28 3q-39 15 -51 45q-1 7 -1 14q0 32 22 54q22 37 66 37q41 0 56 -37q11 -27 11 -49t-11 -40zM135 917q4 -18 4 -35q0 -93 -86 -84q-51 17 -51 65q0 31 24 57t55 26q42 0 54 -29z" />
<glyph unicode="&#xa9;" horiz-adv-x="669" d="M600 372q0 -138 -72 -254q-87 -139 -244 -139q-83 0 -149 42q-136 85 -136 278q0 190 124 307q107 101 202 101q63 0 127 -46q148 -106 148 -289zM507 190q33 77 33 162q0 131 -74 221q-59 72 -145 72q-89 0 -156 -70q-107 -113 -107 -272q0 -65 19 -125q11 -36 58 -78 q43 -37 83 -55q21 -9 48 -9q62 0 139.5 49t101.5 105zM450 192q-12 -30 -51 -54q-61 -38 -137 -38q-78 0 -122 72q-29 48 -29 118q0 106 52 177q85 116 189 116q43 0 85 -32q-5 -55 -27 -99l-1 -2q-29 33 -68 33q-30 0 -57 -18q-87 -57 -88 -194q-1 -54 44 -73q16 -7 33 -7 q72 0 137 83q27 -36 40 -82z" />
<glyph unicode="&#xad;" horiz-adv-x="672" d="M570 304q-168 -13 -281 -13q-93 0 -258 8q-12 4 -31 21q0 26 4 33l27 26l243 26q103 9 242 14q78 3 78 -35q0 -14 -10 -40q-12 -31 -14 -40z" />
<glyph unicode="&#xae;" horiz-adv-x="698" d="M630 372q0 -138 -73 -254q-87 -139 -243 -139q-83 0 -150 42q-136 84 -136 278q0 85 32 166q33 85 92 141q107 101 203 101q62 0 126 -46q149 -107 149 -289zM536 190q33 78 33 162q0 133 -73 221q-59 72 -146 72q-88 0 -155 -70q-108 -114 -108 -272q0 -64 20 -125 q12 -36 59 -78q42 -37 82 -55q21 -9 47 -9q61 0 139 49t102 105zM491 244l-28 -72q-2 -1 -23 5q-63 19 -158 67q-11 -57 -10 -134q-5 -1 -75 -2q-11 51 -12 129q-2 174 35 287q94 53 162 53q40 0 68 -19q31 -22 33 -60q3 -57 -39 -116q-15 -21 -86 -97q65 -26 133 -41z M392 483q-4 26 -28 26q-20 0 -59 -19l-11 -76q-7 -47 -5 -74q97 73 103 143z" />
<glyph unicode="&#xb1;" horiz-adv-x="437" d="M364 390q-2 -10 -12 -14q-61 -14 -102 -18l-15 -92q-38 -31 -104 -28q-6 4 -19 33q-1 37 -5 92q-27 3 -81 10q-27 22 -27 64q0 21 9 62q58 3 101 6q4 37 14 113q4 1 46 10q32 7 52 7q59 0 59 -59q0 -2 -2 -19l-6 -50q36 -2 79 -6q20 -36 20 -68q-1 -13 -3 -23zM330 88 q-2 -10 -11 -15q-84 -20 -127 -20q-32 0 -165 17q-27 22 -27 64q0 21 9 62q108 7 190 7q69 0 119 -5q21 -36 21 -68q0 -12 -3 -22z" />
<glyph unicode="&#xb2;" horiz-adv-x="530" d="M463 93q-32 -35 -201 -117q-31 -15 -94 -41q-87 -36 -112 -36q-5 0 -7 2q-28 50 -28 90q0 25 33 135q111 371 111 411q0 4 -1 4q-22 2 -65 -8q-46 -12 -65 -12q-11 0 -13 4q-23 59 -20 121q-1 6 -1 11q0 15 11 20q134 26 279 26q57 0 57 -25q0 -5 -1 -12 q-69 -288 -175 -545q-2 -7 -2 -11q0 -9 8 -9q5 0 13 4l262 134q12 6 18 -31q5 -25 5 -45q0 -44 -12 -70z" />
<glyph unicode="&#xb4;" horiz-adv-x="266" d="M285 878q-45 -34 -233 -101q-7 -3 -29.5 13.5t-22.5 25.5q0 18 85 79q96 69 114 69t52.5 -34.5t34.5 -48.5q0 -2 -1 -3z" />
<glyph unicode="&#xbd;" horiz-adv-x="550" d="M471 648q13 -51 13 -117q0 -172 -61 -339q-83 -227 -226 -227q-109 0 -167 119q-30 62 -30 153q0 41 12 162q8 82 51 276q6 13 40 21q25 6 47 6q31 0 41 -10q16 -15 6 -45q-1 -12 -26 -170q-18 -113 -18 -188q0 -77 18 -137q8 -27 33 -27q18 0 31 13q53 55 78 202 q14 84 23 233v62q4 30 33 28q18 0 53 -1q31 -1 49 -14z" />
<glyph unicode="&#xbf;" horiz-adv-x="486" d="M383 697q5 -41 -23 -69q-25 -40 -71 -40q-39 0 -52 35q-9 24 -9 44q0 25 13 45q27 30 70 30q13 0 23 -3q39 -12 49 -42zM429 2q-12 -15 -50 -12q-139 10 -243 77q-120 77 -136 204q7 62 46 98q22 20 85 50.5t91 59.5q10 10 12 45q5 17 25 29t39 12q23 0 63 -15 q20 -7 18 -49q-2 -35 -22 -60q-25 -30 -111 -79q-62 -35 -67 -85q8 -76 90 -113l149 -49q14 -76 11 -113z" />
<glyph unicode="&#xc0;" d="M367 816q0 -9 -22 -25.5t-30 -13.5q-93 33 -119 43q-76 30 -113 58q-2 1 -2 4q0 14 34.5 48t52.5 34t114 -69q85 -61 85 -79zM510 11q-34 -22 -97 -20q-25 35 -58 133l-3 9l-9 -1q-102 -11 -179 -37l-6 -2l-2 -6q-7 -34 -26 -92q-14 -26 -52 -25q-35 1 -80 7 q16 143 77 350q25 86 112 353q5 7 42 10q34 3 46 1q18 -26 55 -97q106 -241 180 -583zM314 246q-14 48 -56 170l-25 66l-17 -69q-13 -48 -37 -173l-4 -26l26 1q16 1 113 31z" />
<glyph unicode="&#xc1;" d="M399 878q-47 -36 -232 -101q-8 -3 -30 13.5t-22 25.5q0 18 85 79q96 69 114 69t52.5 -34t34.5 -48q0 -3 -2 -4zM510 11q-34 -22 -97 -20q-25 35 -58 133l-3 9l-9 -1q-102 -11 -179 -37l-6 -2l-2 -6q-7 -34 -26 -92q-14 -26 -52 -25q-35 1 -80 7q16 143 77 350 q25 86 112 353q5 7 42 10q34 3 46 1q18 -26 55 -97q106 -241 180 -583zM314 246q-14 48 -56 170l-25 66l-17 -69q-13 -48 -37 -173l-4 -26l26 1q16 1 113 31z" />
<glyph unicode="&#xc2;" d="M455 816q0 -9 -22.5 -25.5t-29.5 -13.5q-25 9 -69 38q-47 31 -70 41q-59 -33 -156 -79q-7 -2 -30 14t-23 25q0 1 95 82q59 50 99 65q6 1 13 0q2 -1 10 -4q27 -13 101 -67q82 -60 82 -76zM510 11q-34 -22 -97 -20q-25 35 -58 133l-3 9l-9 -1q-102 -11 -179 -37l-6 -2 l-2 -6q-7 -34 -26 -92q-14 -26 -52 -25q-35 1 -80 7q16 143 77 350q25 86 112 353q5 7 42 10q34 3 46 1q18 -26 55 -97q106 -241 180 -583zM314 246q-14 48 -56 170l-25 66l-17 -69q-13 -48 -37 -173l-4 -26l26 1q16 1 113 31z" />
<glyph unicode="&#xc3;" d="M455 821q-37 -80 -106 -79q-33 0 -78.5 54t-79.5 55q-69 1 -121 -45q-11 13 -9 45q36 83 128 92q33 3 79 -47q47 -53 79 -53q59 -1 106 32q6 -1 6 -18q0 -13 -4 -36zM510 11q-34 -22 -97 -20q-25 35 -58 133l-3 9l-9 -1q-102 -11 -179 -37l-6 -2l-2 -6q-7 -34 -26 -92 q-14 -26 -52 -25q-35 1 -80 7q16 143 77 350q25 86 112 353q5 7 42 10q34 3 46 1q18 -26 55 -97q106 -241 180 -583zM314 246q-14 48 -56 170l-25 66l-17 -69q-13 -48 -37 -173l-4 -26l26 1q16 1 113 31z" />
<glyph unicode="&#xc4;" d="M428 818q-24 -27 -64 -27q-14 0 -28 3q-40 15 -51 45q-1 8 -1 16q0 31 21 52q22 37 67 37q41 0 56 -37q11 -27 11 -49t-11 -40zM189 917q4 -18 4 -35q0 -42 -22.5 -65t-63.5 -19q-52 17 -52 65q0 31 24.5 57t55.5 26q41 0 54 -29zM510 11q-34 -22 -97 -20q-25 35 -58 133 l-3 9l-9 -1q-102 -11 -179 -37l-6 -2l-2 -6q-7 -34 -26 -92q-14 -26 -52 -25q-35 1 -80 7q16 143 77 350q25 86 112 353q5 7 42 10q34 3 46 1q18 -26 55 -97q106 -241 180 -583zM314 246q-14 48 -56 170l-25 66l-17 -69q-13 -48 -37 -173l-4 -26l26 1q16 1 113 31z" />
<glyph unicode="&#xc8;" horiz-adv-x="486" d="M444 816q0 -9 -22.5 -25.5t-30.5 -13.5q-93 33 -119 43q-76 30 -113 58q-2 1 -2 4q0 14 35 48t52 34q19 0 115 -69q85 -61 85 -79zM456 687q5 -28 -8 -68t-33 -62q-118 -7 -211 -17l-9 -1l-1 -9q0 -5 -14 -60q-10 -40 -3 -57l3 -7h7q13 0 47 2q45 3 68 4q61 3 98 -6 q3 -15 3 -32q0 -29 -8 -65q-41 -9 -116 -17q-56 -6 -112 -14l-7 -1l-2 -7q-12 -44 -4 -120l1 -9l10 -1q19 -2 131 12q32 4 60 4q33 0 59 -6q-1 -19 -6 -69q-6 -44 -33 -49q-73 -14 -170 -22l-168 -15q-16 3 -27.5 16.5t-11.5 30.5q5 184 25 316q24 155 78 293q142 31 354 36 z" />
<glyph unicode="&#xc9;" horiz-adv-x="486" d="M441 878q-47 -36 -232 -101q-8 -3 -30.5 13.5t-22.5 25.5q0 18 85 79q96 69 114 69t53 -34t35 -48q0 -3 -2 -4zM456 687q5 -28 -8 -68t-33 -62q-118 -7 -211 -17l-9 -1l-1 -9q0 -5 -14 -60q-10 -40 -3 -57l3 -7h7q13 0 47 2q45 3 68 4q61 3 98 -6q3 -15 3 -32 q0 -29 -8 -65q-41 -9 -116 -17q-56 -6 -112 -14l-7 -1l-2 -7q-12 -44 -4 -120l1 -9l10 -1q19 -2 131 12q32 4 60 4q33 0 59 -6q-1 -19 -6 -69q-6 -44 -33 -49q-73 -14 -170 -22l-168 -15q-16 3 -27.5 16.5t-11.5 30.5q5 184 25 316q24 155 78 293q142 31 354 36z" />
<glyph unicode="&#xca;" horiz-adv-x="486" d="M493 816q0 -9 -22.5 -25.5t-30.5 -13.5q-24 8 -69 38q-48 32 -70 41q-58 -33 -155 -79q-7 -2 -30 14t-23 25q0 2 94 82q58 50 100 65q5 1 13 0q44 -22 111 -71q82 -60 82 -76zM456 687q5 -28 -8 -68t-33 -62q-118 -7 -211 -17l-9 -1l-1 -9q0 -5 -14 -60q-10 -40 -3 -57 l3 -7h7q13 0 47 2q45 3 68 4q61 3 98 -6q3 -15 3 -32q0 -29 -8 -65q-41 -9 -116 -17q-56 -6 -112 -14l-7 -1l-2 -7q-12 -44 -4 -120l1 -9l10 -1q19 -2 131 12q32 4 60 4q33 0 59 -6q-1 -19 -6 -69q-6 -44 -33 -49q-73 -14 -170 -22l-168 -15q-16 3 -27.5 16.5t-11.5 30.5 q5 184 25 316q24 155 78 293q142 31 354 36z" />
<glyph unicode="&#xcb;" horiz-adv-x="486" d="M473 818q-24 -27 -64 -27q-14 0 -28 3q-40 15 -51 45q-1 8 -1 16q0 31 21 52q22 37 67 37q41 0 56 -37q11 -27 11 -49t-11 -40zM234 909q3 -19 3 -36q0 -93 -85 -84q-52 19 -52 66q0 31 24.5 57t55.5 26q41 0 54 -29zM456 687q5 -28 -8 -68t-33 -62q-118 -7 -211 -17 l-9 -1l-1 -9q0 -5 -14 -60q-10 -40 -3 -57l3 -7h7q13 0 47 2q45 3 68 4q61 3 98 -6q3 -15 3 -32q0 -29 -8 -65q-41 -9 -116 -17q-56 -6 -112 -14l-7 -1l-2 -7q-12 -44 -4 -120l1 -9l10 -1q19 -2 131 12q32 4 60 4q33 0 59 -6q-1 -19 -6 -69q-6 -44 -33 -49q-73 -14 -170 -22 l-168 -15q-16 3 -27.5 16.5t-11.5 30.5q5 184 25 316q24 155 78 293q142 31 354 36z" />
<glyph unicode="&#xcc;" horiz-adv-x="252" d="M270 816q0 -9 -22 -25.5t-30 -13.5q-93 33 -119 43q-78 31 -114 58q-1 1 -1 3q0 14 34.5 48.5t52.5 34.5t114 -69q85 -61 85 -79zM181 687q-13 -305 -51 -687q-34 -16 -63 -16q-14 0 -48 11q-10 3 -15 12q-4 52 -4 110q0 125 19 283q8 70 35 271q22 23 59 23q12 0 36 -3z " />
<glyph unicode="&#xcd;" horiz-adv-x="266" d="M285 878q-45 -34 -233 -101q-7 -3 -29.5 13.5t-22.5 25.5q0 18 85 79q96 69 114 69t52.5 -34.5t34.5 -48.5q0 -2 -1 -3zM181 687q-13 -305 -51 -687q-34 -16 -63 -16q-14 0 -48 11q-10 3 -15 12q-4 52 -4 110q0 125 19 283q8 70 35 271q22 23 59 23q12 0 36 -3z" />
<glyph unicode="&#xce;" horiz-adv-x="310" d="M332 816q0 -10 -22.5 -25.5t-30.5 -13.5q-25 10 -69.5 39.5t-68.5 39.5q-59 -33 -156 -79q-7 -2 -30 14t-23 25q0 1 95 82q59 50 99 65q5 1 13 0q2 -1 10 -4q27 -13 101 -67q82 -60 82 -76zM181 687q-13 -305 -51 -687q-34 -16 -63 -16q-14 0 -48 11q-10 3 -15 12 q-4 52 -4 110q0 125 19 283q8 70 35 271q22 23 59 23q12 0 36 -3z" />
<glyph unicode="&#xcf;" horiz-adv-x="312" d="M323 818q-24 -27 -64 -27q-14 0 -28 3q-39 15 -51 45q-1 7 -1 14q0 32 22 54q22 37 66 37q41 0 56 -37q11 -27 11 -49t-11 -40zM84 917q4 -18 4 -35q0 -93 -86 -84q-51 17 -51 65q0 31 24 57t55 26q42 0 54 -29zM181 687q-13 -305 -51 -687q-34 -16 -63 -16q-14 0 -48 11 q-10 3 -15 12q-4 52 -4 110q0 125 19 283q8 70 35 271q22 23 59 23q12 0 36 -3z" />
<glyph unicode="&#xd1;" horiz-adv-x="654" d="M495 821q-38 -80 -107 -79q-32 0 -78 54t-79 55q-70 1 -122 -45q-11 13 -9 45q36 83 128 92q33 3 79 -47q47 -53 79 -53q59 -1 106 32q6 -1 6 -20q0 -13 -3 -34zM574 341q-8 -49 -16.5 -151.5t-18.5 -154.5q-24 -24 -55 -27q-39 42 -333 335l-6 -168q-4 -96 -23 -163 q-45 -21 -59 -21q-23 0 -59 27v421q-1 125 -5 206q22 41 79 45q123 -138 347 -357q6 47 9 152q3 98 7 156q3 17 44 33q31 11 58 11q9 0 17 -1q26 -53 26 -137q0 -34 -6 -103t-6 -103z" />
<glyph unicode="&#xd2;" horiz-adv-x="673" d="M485 816q0 -9 -22 -25.5t-30 -13.5q-93 33 -119 43q-76 30 -113 58q-2 1 -2 4q0 14 34.5 48t52.5 34q20 0 115 -69q84 -61 84 -79zM604 368q0 -138 -73 -255q-87 -139 -243 -139q-85 0 -151 41q-137 85 -137 280q0 87 32 166q32 84 93 141q108 102 203 102q64 0 127 -46 q149 -108 149 -290zM422 510q-16 39 -36 49q-14 7 -52 7q-74 0 -117 -62q-72 -103 -72 -206q0 -43 13 -83q18 -54 93 -88q18 -8 39 -8q40 0 75 32q31 28 47 69q33 84 33 166q0 68 -23 124z" />
<glyph unicode="&#xd3;" horiz-adv-x="673" d="M483 878q-45 -34 -233 -101q-7 -3 -29.5 13.5t-22.5 25.5q0 18 85 79q96 69 114 69t52.5 -34.5t34.5 -48.5q0 -2 -1 -3zM604 368q0 -138 -73 -255q-87 -139 -243 -139q-85 0 -151 41q-137 85 -137 280q0 87 32 166q32 84 93 141q108 102 203 102q64 0 127 -46 q149 -108 149 -290zM422 510q-16 39 -36 49q-14 7 -52 7q-74 0 -117 -62q-72 -103 -72 -206q0 -43 13 -83q18 -54 93 -88q18 -8 39 -8q40 0 75 32q31 28 47 69q33 84 33 166q0 68 -23 124z" />
<glyph unicode="&#xd4;" horiz-adv-x="673" d="M538 816q0 -9 -22 -25.5t-30 -13.5q-24 8 -69 38q-48 32 -70 41q-58 -33 -155 -79q-7 -2 -30 14t-23 25q0 2 94 82q58 50 100 65q5 1 12 0q28 -9 112 -71q81 -60 81 -76zM604 368q0 -138 -73 -255q-87 -139 -243 -139q-85 0 -151 41q-137 85 -137 280q0 87 32 166 q32 84 93 141q108 102 203 102q64 0 127 -46q149 -108 149 -290zM422 510q-16 39 -36 49q-14 7 -52 7q-74 0 -117 -62q-72 -103 -72 -206q0 -43 13 -83q18 -54 93 -88q18 -8 39 -8q40 0 75 32q31 28 47 69q33 84 33 166q0 68 -23 124z" />
<glyph unicode="&#xd5;" horiz-adv-x="673" d="M542 821q-37 -80 -106 -79q-33 0 -78.5 54t-79.5 55q-69 1 -121 -45q-11 13 -10 45q37 83 128 92q33 3 79 -47q48 -53 79 -53q60 -1 106 32q6 -1 6 -19q0 -13 -3 -35zM604 368q0 -138 -73 -255q-87 -139 -243 -139q-85 0 -151 41q-137 85 -137 280q0 87 32 166 q32 84 93 141q108 102 203 102q64 0 127 -46q149 -108 149 -290zM422 510q-16 39 -36 49q-14 7 -52 7q-74 0 -117 -62q-72 -103 -72 -206q0 -43 13 -83q18 -54 93 -88q18 -8 39 -8q40 0 75 32q31 28 47 69q33 84 33 166q0 68 -23 124z" />
<glyph unicode="&#xd6;" horiz-adv-x="673" d="M532 818q-24 -27 -64 -27q-14 0 -29 3q-39 15 -51 45q-1 7 -1 14q0 32 22 54q22 37 67 37q40 0 56 -37q11 -26 11 -49q0 -22 -11 -40zM293 917q3 -18 3 -35q0 -93 -85 -84q-52 17 -52 65q0 31 24 57t55 26q42 0 55 -29zM604 368q0 -138 -73 -255q-87 -139 -243 -139 q-85 0 -151 41q-137 85 -137 280q0 87 32 166q32 84 93 141q108 102 203 102q64 0 127 -46q149 -108 149 -290zM422 510q-16 39 -36 49q-14 7 -52 7q-74 0 -117 -62q-72 -103 -72 -206q0 -43 13 -83q18 -54 93 -88q18 -8 39 -8q40 0 75 32q31 28 47 69q33 84 33 166 q0 68 -23 124z" />
<glyph unicode="&#xd9;" horiz-adv-x="560" d="M412 816q0 -9 -22.5 -25.5t-29.5 -13.5l-119 43q-78 31 -114 58q-1 1 -1 3q0 14 34.5 48.5t52.5 34.5t114 -69q85 -61 85 -79zM488 677q0 -241 -17 -347q-31 -193 -135 -305q-44 -47 -107 -50q-82 -3 -131 54q-98 114 -98 320q0 80 36 342q13 21 83 21q57 0 63 -16 l-22 -178q-12 -104 -12 -181q0 -109 27 -169q14 -32 56 -32q11 0 18 4q71 53 93 318q4 52 10 210q9 21 77 21q50 0 59 -12z" />
<glyph unicode="&#xda;" horiz-adv-x="560" d="M431 878q-46 -35 -232 -101q-8 -3 -30.5 13.5t-22.5 25.5q0 18 85 79q96 69 114 69t52.5 -34.5t34.5 -48.5q0 -2 -1 -3zM488 677q0 -241 -17 -347q-31 -193 -135 -305q-44 -47 -107 -50q-82 -3 -131 54q-98 114 -98 320q0 80 36 342q13 21 83 21q57 0 63 -16l-22 -178 q-12 -104 -12 -181q0 -109 27 -169q14 -32 56 -32q11 0 18 4q71 53 93 318q4 52 10 210q9 21 77 21q50 0 59 -12z" />
<glyph unicode="&#xdb;" horiz-adv-x="560" d="M481 816q0 -9 -22.5 -25.5t-30.5 -13.5q-24 8 -69 38q-48 32 -70 41q-58 -33 -155 -79q-7 -2 -30 14t-23 25q0 2 94 82q58 50 100 65q5 1 12 0q27 -9 112 -71q82 -60 82 -76zM488 677q0 -241 -17 -347q-31 -193 -135 -305q-44 -47 -107 -50q-82 -3 -131 54 q-98 114 -98 320q0 80 36 342q13 21 83 21q57 0 63 -16l-22 -178q-12 -104 -12 -181q0 -109 27 -169q14 -32 56 -32q11 0 18 4q71 53 93 318q4 52 10 210q9 21 77 21q50 0 59 -12z" />
<glyph unicode="&#xdc;" horiz-adv-x="560" d="M463 818q-24 -27 -64 -27q-14 0 -28 3q-40 15 -52 45q-1 7 -1 14q0 32 22 54q22 37 67 37q41 0 56 -37q11 -27 11 -49t-11 -40zM224 917q3 -18 3 -35q0 -93 -85 -84q-52 17 -52 65q0 31 24 57t55 26q42 0 55 -29zM488 677q0 -241 -17 -347q-31 -193 -135 -305 q-44 -47 -107 -50q-82 -3 -131 54q-98 114 -98 320q0 80 36 342q13 21 83 21q57 0 63 -16l-22 -178q-12 -104 -12 -181q0 -109 27 -169q14 -32 56 -32q11 0 18 4q71 53 93 318q4 52 10 210q9 21 77 21q50 0 59 -12z" />
<glyph unicode="&#xdd;" horiz-adv-x="642" d="M486 878q-47 -36 -232 -101q-8 -3 -30.5 13.5t-22.5 25.5q0 18 85 79q96 69 114 69t53 -34t35 -48q0 -3 -2 -4zM633 749q-10 -37 -37 -99q-70 -159 -187 -362l-198 -341q-8 -14 -119 -27q-24 -3 -24 9q0 5 3 12q47 86 194 394q-111 106 -262 273q-3 2 -3 6q0 16 128 83 q10 4 27 10q120 -144 200 -210q53 100 105 226q9 22 21 28t38 6q18 0 114 -8z" />
<glyph unicode="&#xdf;" horiz-adv-x="852" d="M797 646l-3 -5q-201 -86 -201 -214q0 -52 45 -93l83 -70q70 -60 62 -140q-10 -103 -86 -142q-59 -30 -128 -30q-53 0 -98 19l-3 4q-6 17 -10 35q-5 23 11 39l6 1q23 -9 49 -9q46 0 87 23q24 20 24 59q0 16 -4 32q-22 35 -61 73l-70 66q-84 82 -79 171q5 104 123 192 q94 71 221 107q7 2 15 -1t11 -3l6 1v-5q4 -27 4 -55t-4 -55zM439 751q2 -37 -16 -114q-24 -15 -95 -46q-62 -27 -91 -52q-43 -37 -51 -91q3 -50 40 -80q9 -7 78 -45q98 -54 98 -161q0 -28 -6 -51q-29 -111 -214 -147q-36 -7 -67 -7q-48 0 -63 21q-1 49 10 93q75 -1 101 4 q56 11 79 53q8 48 8 52q0 22 -11 38q-26 38 -91 73q-78 42 -98 59q-47 40 -51 101q21 126 146 213q91 63 244 97q10 4 18 4q22 0 32 -14z" />
<glyph unicode="&#xe0;" horiz-adv-x="538" d="M397 816q0 -9 -22.5 -25.5t-30.5 -13.5q-93 33 -119 43q-76 30 -113 58q-2 1 -2 4q0 14 35 48t52 34q19 0 115 -69q85 -61 85 -79zM480 9q-11 -22 -86 -39q-25 -6 -31 1q-2 3 -8 28q-11 45 -31 166l-2 12l-11 -3q-31 -6 -112 -27q-28 -8 -37 -44q-14 -56 -34 -122 q-64 -4 -124 26l-2 1l1 3q18 54 116 374q60 193 103 287q17 6 38 6q23 0 51 -7q100 -229 169 -662zM294 275l-1 9q-2 15 -37 168l-9 39l-12 -39q-21 -69 -44 -183l-3 -15l16 3l82 15z" />
<glyph unicode="&#xe1;" horiz-adv-x="538" d="M403 878q-47 -36 -232 -101q-8 -3 -30.5 13.5t-22.5 25.5q0 18 85 79q96 69 115 69q17 0 52 -34t35 -48q0 -3 -2 -4zM480 9q-11 -22 -86 -39q-25 -6 -31 1q-2 3 -8 28q-11 45 -31 166l-2 12l-11 -3q-31 -6 -112 -27q-28 -8 -37 -44q-14 -56 -34 -122q-64 -4 -124 26l-2 1 l1 3q18 54 116 374q60 193 103 287q17 6 38 6q23 0 51 -7q100 -229 169 -662zM294 275l-1 9q-2 15 -37 168l-9 39l-12 -39q-21 -69 -44 -183l-3 -15l16 3l82 15z" />
<glyph unicode="&#xe2;" horiz-adv-x="538" d="M457 816q0 -10 -22.5 -25.5t-30.5 -13.5q-25 10 -69.5 39.5t-68.5 39.5q-59 -33 -156 -79q-7 -2 -30 14t-23 25q0 1 95 82q59 50 99 65q5 1 13 0q2 -1 10 -4q27 -13 101 -67q82 -60 82 -76zM480 9q-11 -22 -86 -39q-25 -6 -31 1q-2 3 -8 28q-11 45 -31 166l-2 12l-11 -3 q-31 -6 -112 -27q-28 -8 -37 -44q-14 -56 -34 -122q-64 -4 -124 26l-2 1l1 3q18 54 116 374q60 193 103 287q17 6 38 6q23 0 51 -7q100 -229 169 -662zM294 275l-1 9q-2 15 -37 168l-9 39l-12 -39q-21 -69 -44 -183l-3 -15l16 3l82 15z" />
<glyph unicode="&#xe3;" horiz-adv-x="538" d="M462 821q-37 -80 -106 -79q-33 0 -78.5 54t-79.5 55q-69 1 -121 -45q-11 13 -9 45q36 84 127 92q34 3 80 -47q47 -53 78 -53q60 -1 107 32q6 -1 6 -18q0 -13 -4 -36zM480 9q-11 -22 -86 -39q-25 -6 -31 1q-2 3 -8 28q-11 45 -31 166l-2 12l-11 -3q-31 -6 -112 -27 q-28 -8 -37 -44q-14 -56 -34 -122q-64 -4 -124 26l-2 1l1 3q18 54 116 374q60 193 103 287q17 6 38 6q23 0 51 -7q100 -229 169 -662zM294 275l-1 9q-2 15 -37 168l-9 39l-12 -39q-21 -69 -44 -183l-3 -15l16 3l82 15z" />
<glyph unicode="&#xe4;" horiz-adv-x="538" d="M456 818q-24 -27 -64 -27q-14 0 -28 3q-40 15 -51 45q-1 8 -1 16q0 31 21 52q22 37 67 37q41 0 56 -37q11 -27 11 -49t-11 -40zM217 917q3 -18 3 -35q0 -93 -85 -84q-52 17 -52 65q0 31 24.5 57t55.5 26q41 0 54 -29zM480 9q-11 -22 -86 -39q-25 -6 -31 1q-2 3 -8 28 q-11 45 -31 166l-2 12l-11 -3q-31 -6 -112 -27q-28 -8 -37 -44q-14 -56 -34 -122q-64 -4 -124 26l-2 1l1 3q18 54 116 374q60 193 103 287q17 6 38 6q23 0 51 -7q100 -229 169 -662zM294 275l-1 9q-2 15 -37 168l-9 39l-12 -39q-21 -69 -44 -183l-3 -15l16 3l82 15z" />
<glyph unicode="&#xe8;" horiz-adv-x="500" d="M370 816q0 -9 -22 -25.5t-30 -13.5q-93 33 -119 43q-76 30 -113 58q-2 1 -2 4q0 14 34.5 48t52.5 34t114 -69q85 -61 85 -79zM452 41q-109 -33 -209 -45q-35 -3 -141 -16q-24 -3 -55 9q-36 14 -38 36q-11 118 -11 250q0 178 25 377q4 28 31 29q187 8 349 -9 q15 -37 15 -56q0 -6 -5 -50q-54 -16 -139 -17q-97 -2 -134 -8q-5 -73 -5 -82q0 -41 10 -54q36 -1 116 1q77 2 112 -6q7 -28 7 -58t-7 -55l-241 -16q0 12 -2 -69q-1 -53 4 -64q50 0 146 7l148 11q25 -48 24 -115z" />
<glyph unicode="&#xe9;" horiz-adv-x="500" d="M375 878q-47 -36 -232 -101q-8 -3 -30.5 13.5t-22.5 25.5q0 18 85 79q96 69 114 69t53 -34t35 -48q0 -3 -2 -4zM452 41q-109 -33 -209 -45q-35 -3 -141 -16q-24 -3 -55 9q-36 14 -38 36q-11 118 -11 250q0 178 25 377q4 28 31 29q187 8 349 -9q15 -37 15 -56q0 -6 -5 -50 q-54 -16 -139 -17q-97 -2 -134 -8q-5 -73 -5 -82q0 -41 10 -54q36 -1 116 1q77 2 112 -6q7 -28 7 -58t-7 -55l-241 -16q0 12 -2 -69q-1 -53 4 -64q50 0 146 7l148 11q25 -48 24 -115z" />
<glyph unicode="&#xea;" horiz-adv-x="500" d="M425 816q0 -10 -22.5 -25.5t-30.5 -13.5q-25 10 -69.5 39.5t-68.5 39.5q-59 -33 -156 -79q-7 -2 -30 14t-23 25q0 1 95 82q59 50 99 65q5 1 13 0q2 -1 10 -4q27 -13 101 -67q82 -60 82 -76zM452 41q-109 -33 -209 -45q-35 -3 -141 -16q-24 -3 -55 9q-36 14 -38 36 q-11 118 -11 250q0 178 25 377q4 28 31 29q187 8 349 -9q15 -37 15 -56q0 -6 -5 -50q-54 -16 -139 -17q-97 -2 -134 -8q-5 -73 -5 -82q0 -41 10 -54q36 -1 116 1q77 2 112 -6q7 -28 7 -58t-7 -55l-241 -16q0 12 -2 -69q-1 -53 4 -64q50 0 146 7l148 11q25 -48 24 -115z" />
<glyph unicode="&#xeb;" horiz-adv-x="500" d="M400 818q-24 -27 -64 -27q-14 0 -28 3q-40 15 -51 45q-1 8 -1 16q0 31 21 52q22 37 67 37q41 0 56 -37q11 -27 11 -49t-11 -40zM161 917q3 -18 3 -35q0 -93 -85 -84q-52 17 -52 65q0 31 24.5 57t55.5 26q41 0 54 -29zM452 41q-109 -33 -209 -45q-35 -3 -141 -16 q-24 -3 -55 9q-36 14 -38 36q-11 118 -11 250q0 178 25 377q4 28 31 29q187 8 349 -9q15 -37 15 -56q0 -6 -5 -50q-54 -16 -139 -17q-97 -2 -134 -8q-5 -73 -5 -82q0 -41 10 -54q36 -1 116 1q77 2 112 -6q7 -28 7 -58t-7 -55l-241 -16q0 12 -2 -69q-1 -53 4 -64q50 0 146 7 l148 11q25 -48 24 -115z" />
<glyph unicode="&#xec;" horiz-adv-x="259" d="M270 816q0 -9 -22 -25.5t-30 -13.5q-93 33 -119 43q-78 31 -114 58q-1 1 -1 3q0 14 34.5 48.5t52.5 34.5t114 -69q85 -61 85 -79zM198 616q-20 -112 -39 -305q-21 -220 -36 -305q-38 -32 -104 -28q-8 6 -18 32q0 342 42 667l50 10q36 7 59 7q54 0 54 -40q0 -16 -8 -38z " />
<glyph unicode="&#xed;" horiz-adv-x="266" d="M285 878q-45 -34 -233 -101q-7 -3 -29.5 13.5t-22.5 25.5q0 18 85 79q96 69 114 69t52.5 -34.5t34.5 -48.5q0 -2 -1 -3zM198 616q-20 -112 -39 -305q-21 -220 -36 -305q-38 -32 -104 -28q-8 6 -18 32q0 342 42 667l50 10q36 7 59 7q54 0 54 -40q0 -16 -8 -38z" />
<glyph unicode="&#xee;" horiz-adv-x="310" d="M332 816q0 -10 -22.5 -25.5t-30.5 -13.5q-25 10 -69.5 39.5t-68.5 39.5q-59 -33 -156 -79q-7 -2 -30 14t-23 25q0 1 95 82q59 50 99 65q5 1 13 0q2 -1 10 -4q27 -13 101 -67q82 -60 82 -76zM198 616q-20 -112 -39 -305q-21 -220 -36 -305q-38 -32 -104 -28q-8 6 -18 32 q0 342 42 667l50 10q36 7 59 7q54 0 54 -40q0 -16 -8 -38z" />
<glyph unicode="&#xef;" horiz-adv-x="312" d="M323 818q-24 -27 -64 -27q-14 0 -28 3q-39 15 -51 45q-1 7 -1 14q0 32 22 54q22 37 66 37q41 0 56 -37q11 -27 11 -49t-11 -40zM84 917q4 -18 4 -35q0 -93 -86 -84q-51 17 -51 65q0 31 24 57t55 26q42 0 54 -29zM198 616q-20 -112 -39 -305q-21 -220 -36 -305 q-38 -32 -104 -28q-8 6 -18 32q0 342 42 667l50 10q36 7 59 7q54 0 54 -40q0 -16 -8 -38z" />
<glyph unicode="&#xf1;" horiz-adv-x="687" d="M540 821q-37 -80 -106 -79q-33 0 -79 54t-79 55q-70 1 -121 -45q-12 13 -10 45q36 83 128 92q33 3 79 -47q47 -53 79 -53q59 -1 106 32q6 -1 6 -19q0 -13 -3 -35zM626 632l-59 -393q-39 -230 -59 -258q-9 -2 -37 -14q-22 -9 -38 -9q-9 0 -17 2q-59 56 -102 132l-78 145 l-64 124l-35 -353q-23 -18 -49 -24q-20 -4 -52 -3q-36 1 -36 61q1 113 19 312q23 249 26 309q8 11 20 15l27 9q22 6 30 6q15 0 34 -15q110 -177 240 -430h11q10 80 71 432q18 2 61 17q40 14 58 14q32 0 32 -46q0 -12 -3 -33z" />
<glyph unicode="&#xf2;" horiz-adv-x="722" d="M600 816q0 -9 -22.5 -25.5t-30.5 -13.5q-93 33 -119 43q-76 30 -113 58q-2 1 -2 4q0 14 35 48t53 34t114 -69q85 -61 85 -79zM475 52q-116 -91 -224 -90q-123 1 -175 49q-77 70 -77 205q0 61 17 127q31 121 143 222q108 97 233 126q26 6 52 6q62 0 112 -30t75 -85 q34 -74 34 -161q0 -220 -190 -369zM527 461q0 21 -9 42q-19 48 -78 48q-77 0 -163.5 -68t-112.5 -143q-16 -47 -14 -99q3 -70 50 -107q26 -20 61 -20q13 0 77 15q55 13 118 109q73 111 71 223z" />
<glyph unicode="&#xf3;" horiz-adv-x="722" d="M597 878q-47 -36 -232 -101q-8 -3 -30 13.5t-22 25.5q0 18 85 79q96 69 114 69t52.5 -34t34.5 -48q0 -3 -2 -4zM475 52q-116 -91 -224 -90q-123 1 -175 49q-77 70 -77 205q0 61 17 127q31 121 143 222q108 97 233 126q26 6 52 6q62 0 112 -30t75 -85q34 -74 34 -161 q0 -220 -190 -369zM527 461q0 21 -9 42q-19 48 -78 48q-77 0 -163.5 -68t-112.5 -143q-16 -47 -14 -99q3 -70 50 -107q26 -20 61 -20q13 0 77 15q55 13 118 109q73 111 71 223z" />
<glyph unicode="&#xf4;" horiz-adv-x="722" d="M663 816q0 -9 -22 -25.5t-30 -13.5q-24 8 -69 38q-48 32 -70 41q-58 -33 -155 -79q-8 -2 -30.5 14t-22.5 25q0 2 1 4q5 2 93 78q58 50 100 65q5 1 12 0q28 -9 112 -71q81 -60 81 -76zM475 52q-116 -91 -224 -90q-123 1 -175 49q-77 70 -77 205q0 61 17 127 q31 121 143 222q108 97 233 126q26 6 52 6q62 0 112 -30t75 -85q34 -74 34 -161q0 -220 -190 -369zM527 461q0 21 -9 42q-19 48 -78 48q-77 0 -163.5 -68t-112.5 -143q-16 -47 -14 -99q3 -70 50 -107q26 -20 61 -20q13 0 77 15q55 13 118 109q73 111 71 223z" />
<glyph unicode="&#xf5;" horiz-adv-x="722" d="M671 821q-37 -80 -106 -79q-33 0 -78.5 54t-79.5 55q-69 1 -121 -45q-11 13 -9 45q36 83 128 92q34 3 79 -47q47 -53 78 -53q60 -1 107 32q6 -1 6 -18q0 -13 -4 -36zM475 52q-116 -91 -224 -90q-123 1 -175 49q-77 70 -77 205q0 61 17 127q31 121 143 222q108 97 233 126 q26 6 52 6q62 0 112 -30t75 -85q34 -74 34 -161q0 -220 -190 -369zM527 461q0 21 -9 42q-19 48 -78 48q-77 0 -163.5 -68t-112.5 -143q-16 -47 -14 -99q3 -70 50 -107q26 -20 61 -20q13 0 77 15q55 13 118 109q73 111 71 223z" />
<glyph unicode="&#xf6;" horiz-adv-x="722" d="M668 818q-24 -27 -65 -27q-13 0 -28 3q-39 15 -51 45q-1 7 -1 14q0 32 22 54q22 37 67 37q40 0 56 -37q11 -26 11 -49q0 -22 -11 -40zM429 917q3 -18 3 -35q0 -93 -85 -84q-52 17 -52 65q0 31 24 57t55 26q42 0 55 -29zM475 52q-116 -91 -224 -90q-123 1 -175 49 q-77 70 -77 205q0 61 17 127q31 121 143 222q108 97 233 126q26 6 52 6q62 0 112 -30t75 -85q34 -74 34 -161q0 -220 -190 -369zM527 461q0 21 -9 42q-19 48 -78 48q-77 0 -163.5 -68t-112.5 -143q-16 -47 -14 -99q3 -70 50 -107q26 -20 61 -20q13 0 77 15q55 13 118 109 q73 111 71 223z" />
<glyph unicode="&#xf7;" horiz-adv-x="627" d="M391 596q16 -20 16 -47q0 -28 -16 -47t-44 -20q-57 -1 -82 31q-9 17 -9 37q0 30 19 58q28 31 60 32q41 -9 56 -44zM570 304q-168 -13 -281 -13q-93 0 -258 8q-12 4 -31 21q0 26 4 33l27 26l243 26q103 9 242 14q78 3 78 -35q0 -14 -10 -40q-12 -31 -14 -40zM358 85 q-24 -28 -64 -28q-17 0 -28 4q-40 14 -51 44q-1 9 -1 17q0 30 21 51q22 38 67 38q41 0 56 -38q11 -27 11 -48q0 -22 -11 -40z" />
<glyph unicode="&#xf9;" horiz-adv-x="635" d="M464 816q0 -9 -22 -25.5t-30 -13.5q-93 33 -119 43q-76 30 -113 58q-2 1 -2 4q0 14 34.5 48t52.5 34t114 -69q85 -61 85 -79zM571 676q5 -148 -24 -307q-38 -206 -120 -324q-57 -82 -172 -82q-62 0 -110 26q-146 80 -146 298q0 75 18 186l28 172q71 36 129 43q22 3 24 1 q6 -3 3 -20l-30 -182q-16 -102 -16 -182q0 -69 13 -137q4 -20 21 -36t37 -19q57 -8 87 61q43 97 67 239q3 16 40 249q51 21 102 21q28 0 49 -7z" />
<glyph unicode="&#xfa;" horiz-adv-x="627" d="M476 878q-47 -36 -232 -101q-8 -3 -30.5 13.5t-22.5 25.5q0 18 85 79q96 69 114 69t53 -34t35 -48q0 -3 -2 -4zM571 676q5 -148 -24 -307q-38 -206 -120 -324q-57 -82 -172 -82q-62 0 -110 26q-146 80 -146 298q0 75 18 186l28 172q71 36 129 43q22 3 24 1q6 -3 3 -20 l-30 -182q-16 -102 -16 -182q0 -69 13 -137q4 -20 21 -36t37 -19q57 -8 87 61q43 97 67 239q3 16 40 249q51 21 102 21q28 0 49 -7z" />
<glyph unicode="&#xfb;" horiz-adv-x="635" d="M520 816q0 -9 -22 -25.5t-30 -13.5q-24 8 -69 38q-48 32 -70 41q-58 -33 -155 -79q-7 -2 -30 14t-23 25q0 2 94 82q58 50 100 65q5 1 12 0q28 -9 112 -71q81 -60 81 -76zM571 676q5 -148 -24 -307q-38 -206 -120 -324q-57 -82 -172 -82q-62 0 -110 26q-146 80 -146 298 q0 75 18 186l28 172q71 36 129 43q22 3 24 1q6 -3 3 -20l-30 -182q-16 -102 -16 -182q0 -69 13 -137q4 -20 21 -36t37 -19q57 -8 87 61q43 97 67 239q3 16 40 249q51 21 102 21q28 0 49 -7z" />
<glyph unicode="&#xfc;" horiz-adv-x="570" d="M464 818q-24 -27 -64 -27q-14 0 -28 3q-39 15 -51 45q-1 8 -1 15q0 31 21 53q23 37 67 37q41 0 56 -37q11 -27 11 -49t-11 -40zM226 917q3 -19 3 -35q0 -85 -70 -85q-7 0 -15 1q-52 17 -52 65q0 31 24 57t55 26q42 0 55 -29zM492 675q11 -64 11 -128q0 -153 -65 -311 q-56 -136 -104 -192q-36 -42 -62 -58q-32 -20 -81 -20q-55 -1 -97 27q-45 28 -63 78q-31 87 -31 193q0 134 65 380q36 37 94 37q63 0 63 -31q0 -3 -7 -30l-50 -198q-25 -107 -21 -211q1 -38 20 -67q7 -11 17 -15t28 1q71 20 105 105q61 153 61 334q0 57 -6 113q67 24 82 24 q31 0 41 -31z" />
<glyph unicode="&#xfe;" horiz-adv-x="383" d="M329 132q7 -4 7 -38q0 -75 -22 -92q-135 -24 -225 -24q-30 0 -59 3q-30 97 -30 245q0 95 8 224q10 164 26 225q1 8 45 15q35 5 53 5q41 0 38 -15q-23 -129 -23 -346q0 -178 13 -199q20 1 48 1q49 0 121 -4z" />
<glyph unicode="&#xff;" horiz-adv-x="664" d="M511 827q-24 -28 -64 -28q-14 0 -28 4q-39 15 -51 44q-1 8 -1 15q0 32 21 53q23 38 67 38q41 0 56 -38q11 -27 11 -48q0 -22 -11 -40zM272 917q4 -18 4 -35q0 -93 -86 -84q-36 12 -48 44q-3 11 -3 21q0 31 24 57t55 26q41 0 54 -29zM679 736q-140 -174 -292 -403 l-265 -414q-11 -10 -24 -10q-15 0 -38 15q-31 20 -36 22l-23 23q28 63 98 182l118 199l-216 283v18q60 35 81 46q44 22 85 35q97 -117 153 -242q95 164 166 273q33 -1 97 -4q52 -4 96 -23z" />
<glyph unicode="&#x2000;" horiz-adv-x="485" />
<glyph unicode="&#x2001;" horiz-adv-x="970" />
<glyph unicode="&#x2002;" horiz-adv-x="485" />
<glyph unicode="&#x2003;" horiz-adv-x="970" />
<glyph unicode="&#x2004;" horiz-adv-x="323" />
<glyph unicode="&#x2005;" horiz-adv-x="242" />
<glyph unicode="&#x2006;" horiz-adv-x="161" />
<glyph unicode="&#x2007;" horiz-adv-x="161" />
<glyph unicode="&#x2008;" horiz-adv-x="121" />
<glyph unicode="&#x2009;" horiz-adv-x="194" />
<glyph unicode="&#x200a;" horiz-adv-x="53" />
<glyph unicode="&#x2010;" horiz-adv-x="672" d="M570 304q-168 -13 -281 -13q-93 0 -258 8q-12 4 -31 21q0 26 4 33l27 26l243 26q103 9 242 14q78 3 78 -35q0 -14 -10 -40q-12 -31 -14 -40z" />
<glyph unicode="&#x2011;" horiz-adv-x="672" d="M570 304q-168 -13 -281 -13q-93 0 -258 8q-12 4 -31 21q0 26 4 33l27 26l243 26q103 9 242 14q78 3 78 -35q0 -14 -10 -40q-12 -31 -14 -40z" />
<glyph unicode="&#x202f;" horiz-adv-x="194" />
<glyph unicode="&#x205f;" horiz-adv-x="242" />
</font>
</defs>
</svg>
