<?xml version="1.0" encoding="UTF-8"?>
<!DOCTYPE svg PUBLIC "-//W3C//DTD SVG 1.1//EN" "http://www.w3.org/Graphics/SVG/1.1/DTD/svg11.dtd">
<svg version="1.1" xmlns="http://www.w3.org/2000/svg" xmlns:xlink="http://www.w3.org/1999/xlink" x="0" y="0" width="178.148" height="60" viewBox="0, 0, 178.148, 60">
  <g id="Background">
    <rect x="0" y="0" width="178.148" height="60" fill="#FFFFFF"/>
  </g>
  <g id="Background">
    <path d="M0,0 L178.148,0 L178.148,60 L0,60 z" fill="#FFFFFF"/>
  </g>
  <g id="CZ">
    <path d="M24.135,13.708 L14.466,32.723 C12.801,35.945 11.888,38.201 11.136,40.081 L10.975,40.081 C10.921,38.094 10.76,36.321 10.384,33.206 L8.182,13.708 L4.368,13.708 L8.128,44.163 L12.264,44.163 L28.271,13.708 L24.135,13.708 z M43.042,22.624 C41.485,22.195 39.228,21.818 37.134,21.818 C27.626,21.818 21.986,29.822 21.986,37.449 C21.986,41.585 24.403,44.701 28.271,44.701 C31.386,44.701 34.394,43.143 36.758,38.577 L36.865,38.577 C36.597,40.833 36.382,42.928 36.382,44.217 L39.927,44.217 C39.819,41.8 40.088,37.879 40.84,34.119 L43.042,22.624 z M37.509,31.702 C36.435,37.503 32.729,41.585 29.614,41.585 C26.713,41.585 25.854,39.168 25.854,36.751 C25.854,30.627 30.527,24.773 36.22,24.773 C37.509,24.773 38.316,24.934 38.799,25.095 L37.509,31.702 z M53.892,19.616 L59.157,13.171 L56.095,13.171 L52.872,17.307 L52.765,17.307 L50.831,13.171 L47.984,13.171 L51.153,19.616 L53.892,19.616 z M52.442,24.719 C54.054,24.719 55.45,25.256 56.256,25.686 L57.276,22.839 C56.471,22.302 54.698,21.765 52.711,21.765 C48.091,21.765 44.815,24.719 44.815,28.479 C44.815,30.735 46.211,32.669 48.736,34.065 C51.046,35.354 51.798,36.375 51.798,38.094 C51.798,40.028 50.186,41.639 47.662,41.639 C45.835,41.639 44.009,40.941 42.989,40.296 L41.914,43.036 C42.881,43.788 45.03,44.486 47.393,44.54 C52.012,44.54 55.719,41.961 55.719,37.342 C55.719,34.925 54.107,32.937 51.636,31.594 C49.649,30.52 48.629,29.5 48.629,27.942 C48.521,26.169 50.186,24.719 52.442,24.719 z M75.432,27.458 C75.432,24.289 73.176,21.818 69.04,21.818 C62.003,21.818 57.115,29.285 57.115,35.838 C57.115,40.672 59.64,44.647 65.441,44.647 C68.395,44.647 71.027,43.841 72.692,42.928 L72.155,40.135 C70.812,40.833 68.879,41.639 66.301,41.639 C64.045,41.639 62.272,40.672 61.412,38.685 C60.929,37.503 60.768,35.462 60.983,34.549 C68.986,34.656 75.432,33.206 75.432,27.458 z M68.449,24.719 C70.437,24.719 71.779,25.686 71.779,27.458 C71.779,30.896 67.16,31.702 61.251,31.594 C62.218,28.21 64.904,24.719 68.449,24.719 z" fill="#676867"/>
    <path d="M95.736,11.935 L101.214,6.617 L97.884,6.617 L94.608,9.894 L94.447,9.894 L92.298,6.617 L89.183,6.617 L92.782,11.935 L95.736,11.935 z M86.443,19.939 C88.807,17.79 91.976,16.555 95.145,16.555 C97.83,16.555 100.033,17.092 101.161,17.79 L102.396,14.782 C101.591,14.191 99.12,13.332 95.789,13.332 C91.331,13.332 87.41,14.728 84.295,17.414 C80.158,20.905 77.849,26.331 77.849,32.078 C77.849,39.866 82.522,44.701 90.203,44.701 C93.641,44.701 96.38,44.002 98.099,43.251 L97.616,40.189 C95.951,41.048 93.426,41.478 91.116,41.478 C84.348,41.478 81.877,37.019 81.877,31.541 C81.77,26.868 83.596,22.57 86.443,19.939 z M113.569,21.818 C106.479,21.818 101.483,28.479 101.483,35.677 C101.483,40.618 104.545,44.647 110.024,44.647 C117.382,44.647 122.163,37.664 122.163,30.896 C122.163,26.277 119.478,21.818 113.569,21.818 z M110.507,41.693 C107.338,41.693 105.351,39.114 105.351,35.569 C105.351,30.574 108.466,24.826 113.139,24.826 C117.06,24.826 118.242,28.372 118.242,30.95 C118.296,35.999 114.912,41.693 110.507,41.693 z M135.86,19.616 L141.124,13.171 L138.116,13.171 L134.839,17.307 L134.732,17.307 L132.798,13.171 L129.952,13.171 L133.121,19.616 L135.86,19.616 z M131.778,41.532 C128.233,41.532 126.353,39.222 126.353,35.73 C126.353,30.574 129.898,24.987 135.592,24.987 C137.203,24.987 138.438,25.417 139.298,25.793 L140.372,22.839 C139.674,22.409 137.848,21.872 135.806,21.872 C127.964,21.872 122.432,28.748 122.432,36.214 C122.432,40.887 125.171,44.647 130.811,44.647 C133.765,44.647 136.021,43.895 137.149,43.304 L136.773,40.35 C135.699,40.887 134.034,41.532 131.778,41.532 z M172.762,22.302 L167.175,34.441 C166.048,36.859 165.403,38.416 164.812,39.813 L164.705,39.813 C164.49,38.201 164.221,36.536 163.738,34.012 L161.589,22.248 L154.338,22.248 L146.657,29.929 C146.066,30.52 145.26,31.379 144.615,32.131 L144.508,32.131 L148.322,12.042 L144.562,12.042 L138.438,44.11 L142.145,44.11 L143.703,35.784 L146.442,33.313 L151.706,44.11 L155.842,44.11 L149.343,31.219 L157.776,23.269 L161.912,42.767 C162.019,43.197 162.019,43.411 161.804,43.734 C160.623,45.882 159.065,47.655 157.561,48.783 C156.057,49.965 154.499,50.556 153.532,50.878 L154.499,54.154 C155.735,53.886 158.366,52.865 160.837,50.341 C163.792,47.386 166.048,43.573 168.357,38.846 L176.576,22.248 L172.762,22.248 z" fill="#1979A3"/>
  </g>
</svg>
