<?xml version="1.0" encoding="UTF-8"?>
<!DOCTYPE svg PUBLIC "-//W3C//DTD SVG 1.1//EN" "http://www.w3.org/Graphics/SVG/1.1/DTD/svg11.dtd">
<svg version="1.1" xmlns="http://www.w3.org/2000/svg" xmlns:xlink="http://www.w3.org/1999/xlink" x="0" y="0" width="640" height="360" viewBox="0, 0, 640, 360">
  <g id="Background">
    <rect x="0" y="0" width="640" height="360" fill="#FFFFFF"/>
  </g>
  <g id="Layer_1">
    <path d="M0,0 L640,0 L640,360 L0,360 z" fill="#350000"/>
    <path d="M133,196.2 C133,219.6 134,234 135.8,242.6 C146,247 162.2,250 183,250 C223.4,250 240.4,230.6 240.4,208.6 C240.4,188 234.8,177.6 201.2,165.6 L184.2,159.4 C175,156.2 173,152 173,146 C173,140.2 177.2,134.2 193,134.2 C198.8,134.2 206.2,135.2 212,136.8 L214.4,158.4 L237.6,158.4 C237.6,136.4 237.2,117 235.6,112.6 C225.4,110 208.8,107.8 195.8,107.8 C154,107.8 138,127 138,150.2 C138,175 152.2,184.6 171.6,190.6 L189.2,195.8 C200.8,199.4 204.4,203.8 204.4,210.8 C204.4,218 199.6,223.4 187,223.4 C178.2,223.4 169.4,222.2 160.2,219.4 L157,196.2 z" fill-opacity="0" stroke="#FFFFFF" stroke-width="4" stroke-dasharray="8,4"/>
    <path d="M317,111 L317,132 L297.4,133.6 C319.4,198.6 321,203.4 323,210.6 C325,204.8 327,198.6 349.6,133.6 L329.6,132 L329.6,111 L399,111 L399,132 L384.6,133.6 L341.8,246.2 L302.2,246.2 L260,133.6 L246,132 L246,111 L317,111 z M313,115 L250,115 L250,128.431 L260.454,129.626 L262.886,129.904 L263.746,132.196 L304.972,242.2 L339.041,242.2 L380.861,132.179 L381.729,129.895 L395,128.42 L395,115 L333.6,115 L333.6,128.307 L349.919,129.613 L355.078,130.025 L353.378,134.914 C343.455,163.455 336.779,182.74 332.358,195.6 C330.016,202.414 326.871,211.646 326.782,211.904 L322.589,224.064 L319.147,211.67 C317.188,204.619 315.669,200.052 293.612,134.882 L291.97,130.03 L297.075,129.613 L313.001,128.313 L313.001,115 z M520.2,239 L520.2,195.8 L530.6,195 L530.6,174.4 L471.4,174.4 L471.4,195 L488.6,196.4 L488.6,218 C482,219.8 475.2,220.8 466.8,220.8 C445.8,220.8 434.2,207.2 434.2,181.6 C434.2,147.2 450,134.6 473,134.6 C477.6,134.6 485,135.6 490.2,137 L493.2,157.2 L517.4,157.2 C517.4,126 516.8,119 515.4,112.4 C502,109.2 488.6,107.4 469.6,107.4 C423.2,107.4 399,134.6 399,182 C399,223.8 423.2,249.8 461.4,249.8 C492.4,249.8 507.6,243 520.2,239 z" fill="#FFFFFF"/>
  </g>
</svg>
