<?xml version="1.0" encoding="UTF-8"?>
<!DOCTYPE svg PUBLIC "-//W3C//DTD SVG 1.1//EN" "http://www.w3.org/Graphics/SVG/1.1/DTD/svg11.dtd">
<svg version="1.1" xmlns="http://www.w3.org/2000/svg" xmlns:xlink="http://www.w3.org/1999/xlink" x="0" y="0" width="600" height="337.5" viewBox="0, 0, 600, 337.5">
  <g id="Background">
    <rect x="0" y="0" width="600" height="337.5" fill="#FFFFFF"/>
  </g>
  <g id="Layer_1">
    <path d="M0,0 L600,0 L600,337.5 L0,337.5 z" fill="#48440D"/>
    <path d="M0,0 L600,0 L600,337.5 L0,337.5 L0,0 z" fill="#000000" opacity="0.512"/>
    <path d="M422.127,207.715 L421.94,207.715 L422.034,207.715 C408.249,207.706 396.515,205.649 391.917,202.758 L397.552,211.578 L399.609,239.04 C399.609,239.04 422.067,254.563 444.27,239.04 L445.899,211.279 L450.755,203.51 C445.444,206 434.592,207.707 422.034,207.716 L422.128,207.716 z" fill="#FFFFFF"/>
    <path d="M422.127,207.715 L421.94,207.715 L422.034,207.715 C408.249,207.706 396.515,205.649 391.917,202.758 L397.552,211.578 L399.609,239.04 C399.609,239.04 422.067,254.563 444.27,239.04 L445.899,211.279 L450.755,203.51 C445.444,206 434.592,207.707 422.034,207.716 L422.128,207.716 z" fill-opacity="0" stroke="#000000" stroke-width="0.594"/>
    <path d="M452.561,170.17 C451.581,170.895 450.622,171.456 449.688,171.852 C448.752,172.249 447.751,172.448 446.684,172.448 C445.684,172.448 444.91,172.234 444.363,171.807 C443.817,171.38 443.544,170.793 443.544,170.044 L443.544,169.873 C443.544,169.821 443.55,169.754 443.563,169.678 C443.616,169.221 443.821,168.693 444.176,168.099 C444.531,167.503 444.959,166.885 445.459,166.245 C445.96,165.604 446.493,164.955 447.06,164.299 C447.626,163.642 448.149,163.021 448.631,162.433 C449.11,161.847 449.508,161.308 449.825,160.82 C450.142,160.331 450.3,159.935 450.3,159.63 C450.3,159.446 450.233,159.301 450.102,159.194 C449.97,159.088 449.752,159.034 449.45,159.034 C448.923,159.034 448.38,159.168 447.82,159.435 C447.26,159.701 446.707,160.06 446.16,160.511 C445.614,160.961 445.08,161.476 444.56,162.055 C444.04,162.636 443.553,163.238 443.098,163.864 C442.644,164.49 442.23,165.119 441.855,165.752 C441.48,166.386 441.16,166.969 440.896,167.503 C440.818,167.671 440.705,167.908 440.56,168.212 C440.414,168.518 440.257,168.862 440.086,169.243 C439.915,169.624 439.734,170.018 439.542,170.42 C439.352,170.826 439.177,171.208 439.02,171.566 L438.596,172.527 C438.47,172.809 438.381,173.004 438.329,173.11 C438.262,173.248 438.154,173.506 438.003,173.888 C437.852,174.27 437.677,174.717 437.48,175.227 C437.283,175.738 437.075,176.276 436.857,176.841 C436.641,177.405 436.436,177.94 436.245,178.443 C436.054,178.947 435.886,179.389 435.742,179.771 C435.597,180.152 435.504,180.412 435.465,180.549 C435.334,180.946 435.179,181.319 435.001,181.671 C434.823,182.021 434.62,182.331 434.389,182.598 C434.159,182.864 433.895,183.078 433.599,183.238 C433.302,183.399 432.97,183.479 432.602,183.479 C432.127,183.479 431.736,183.367 431.425,183.146 C431.117,182.925 430.962,182.501 430.962,181.876 C430.962,181.57 431.002,181.258 431.081,180.938 C431.16,180.617 431.259,180.3 431.377,179.988 C431.496,179.674 431.618,179.37 431.743,179.073 C431.868,178.774 431.983,178.488 432.088,178.214 C432.799,176.688 433.524,175.158 434.261,173.625 C434.998,172.091 435.706,170.573 436.385,169.07 C436.527,168.756 436.656,168.449 436.794,168.138 C436.752,168.178 436.712,168.219 436.671,168.258 C435.815,169.067 434.963,169.78 434.114,170.398 C433.263,171.016 432.42,171.508 431.585,171.874 C430.749,172.24 429.935,172.423 429.145,172.423 C428.605,172.423 428.155,172.339 427.793,172.172 C427.431,172.004 427.14,171.774 426.923,171.486 C426.705,171.195 426.55,170.852 426.459,170.455 C426.427,170.32 426.408,170.178 426.387,170.037 C426.157,170.213 425.923,170.385 425.688,170.547 C424.872,171.111 424.069,171.565 423.278,171.908 C422.488,172.252 421.777,172.423 421.145,172.423 C420.513,172.423 419.999,172.218 419.604,171.805 C419.209,171.393 419.011,170.691 419.011,169.699 C419.011,168.997 419.117,168.181 419.327,167.251 C418.985,167.846 418.557,168.448 418.044,169.058 C417.53,169.669 416.944,170.226 416.286,170.73 C415.627,171.233 414.889,171.641 414.073,171.954 C413.256,172.267 412.367,172.423 411.406,172.423 C410.971,172.423 410.554,172.371 410.152,172.263 C409.75,172.156 409.398,171.973 409.095,171.714 C408.792,171.455 408.549,171.108 408.364,170.673 C408.179,170.238 408.088,169.692 408.088,169.036 C408.088,169.021 408.114,168.789 408.166,168.337 C408.219,167.887 408.387,167.178 408.67,166.208 C408.954,165.241 409.391,163.984 409.983,162.443 C410.577,160.901 411.412,159.033 412.493,156.836 C412.769,156.255 413.088,155.839 413.45,155.588 C413.812,155.336 414.204,155.21 414.625,155.21 C414.81,155.21 415.001,155.237 415.198,155.29 C415.397,155.344 415.58,155.427 415.752,155.542 C415.923,155.656 416.062,155.802 416.167,155.977 C416.272,156.152 416.325,156.354 416.325,156.583 C416.325,156.735 416.305,156.881 416.266,157.018 C416.199,157.278 416.058,157.617 415.842,158.036 C415.624,158.456 415.371,158.937 415.081,159.478 C414.792,160.02 414.484,160.603 414.163,161.23 C413.839,161.855 413.54,162.504 413.264,163.175 C412.987,163.846 412.75,164.529 412.552,165.224 C412.354,165.918 412.243,166.594 412.217,167.249 C412.217,167.524 412.282,167.776 412.414,168.005 C412.546,168.234 412.763,168.348 413.066,168.348 C413.922,168.348 414.739,168.073 415.516,167.525 C416.292,166.975 417.01,166.292 417.669,165.476 C418.327,164.66 418.923,163.782 419.457,162.843 C419.99,161.905 420.434,161.047 420.79,160.269 C421.04,159.75 421.261,159.192 421.452,158.598 C421.642,158.002 421.85,157.454 422.074,156.949 C422.298,156.445 422.554,156.026 422.844,155.691 C423.133,155.355 423.496,155.187 423.93,155.187 C424.405,155.187 424.78,155.364 425.057,155.714 C425.333,156.065 425.471,156.485 425.471,156.972 C425.471,157.247 425.383,157.625 425.205,158.106 C425.027,158.586 424.803,159.136 424.533,159.754 C424.263,160.372 423.97,161.032 423.654,161.734 C423.338,162.436 423.044,163.149 422.775,163.874 C422.505,164.599 422.281,165.309 422.103,166.003 C421.925,166.697 421.837,167.341 421.837,167.937 C421.837,168.486 422.126,168.762 422.706,168.762 C423.115,168.762 423.621,168.624 424.227,168.349 C424.833,168.075 425.469,167.689 426.134,167.193 C426.3,167.07 426.467,166.94 426.633,166.804 C426.819,166.056 427.036,165.363 427.289,164.733 C427.75,163.542 428.218,162.361 428.691,161.186 C429.166,160.011 429.6,158.935 429.996,157.957 L435.981,143.193 C436.218,142.599 436.537,142.179 436.938,141.935 C437.34,141.691 437.745,141.569 438.154,141.569 C438.561,141.569 438.933,141.699 439.269,141.958 C439.605,142.218 439.773,142.637 439.773,143.217 C439.773,143.492 439.717,143.782 439.605,144.087 C439.493,144.393 439.351,144.72 439.18,145.071 C438.852,145.789 438.459,146.666 438.005,147.704 C437.55,148.741 437.063,149.871 436.543,151.092 C436.023,152.313 435.49,153.583 434.943,154.903 C434.397,156.223 433.863,157.509 433.343,158.76 C432.823,160.012 432.336,161.197 431.882,162.319 C431.428,163.44 431.036,164.414 430.706,165.237 C430.561,165.588 430.42,165.997 430.282,166.462 C430.143,166.927 430.075,167.343 430.075,167.71 C430.075,167.938 430.114,168.121 430.193,168.258 C430.272,168.395 430.423,168.465 430.648,168.465 C430.924,168.465 431.269,168.369 431.684,168.178 C432.099,167.988 432.547,167.736 433.027,167.422 C433.508,167.11 434.009,166.751 434.528,166.346 C435.049,165.942 435.565,165.523 436.079,165.088 C436.593,164.653 437.084,164.218 437.551,163.783 C438.018,163.348 438.437,162.948 438.806,162.582 C438.892,162.494 438.996,162.432 439.11,162.385 C439.332,161.736 439.534,161.098 439.713,160.476 C439.819,160.201 439.964,159.813 440.148,159.309 C440.332,158.805 440.544,158.31 440.78,157.821 C441.017,157.333 441.284,156.91 441.58,156.551 C441.876,156.193 442.196,156.013 442.539,156.013 C443.065,156.013 443.448,156.132 443.685,156.367 C443.922,156.605 444.04,156.951 444.04,157.41 C444.04,157.501 444.027,157.646 444,157.844 C443.974,158.042 443.942,158.253 443.902,158.473 C443.863,158.695 443.82,158.905 443.774,159.103 C443.727,159.302 443.685,159.446 443.646,159.538 C444.132,159.019 444.659,158.504 445.225,157.993 C445.792,157.482 446.377,157.02 446.983,156.608 C447.589,156.195 448.208,155.861 448.84,155.6 C449.472,155.341 450.104,155.212 450.736,155.212 C451.171,155.212 451.603,155.273 452.03,155.395 C452.458,155.517 452.841,155.697 453.176,155.932 C453.512,156.17 453.786,156.467 453.996,156.825 C454.206,157.183 454.312,157.599 454.312,158.073 C454.312,158.699 454.151,159.366 453.828,160.075 C453.505,160.785 453.1,161.498 452.613,162.214 C452.125,162.933 451.599,163.63 451.033,164.309 C450.467,164.988 449.937,165.606 449.443,166.163 C448.949,166.721 448.534,167.193 448.198,167.582 C447.863,167.972 447.688,168.235 447.675,168.373 C447.675,168.556 447.735,168.704 447.853,168.819 C447.972,168.933 448.169,168.991 448.446,168.991 C448.67,168.991 448.999,168.868 449.434,168.624 C449.868,168.381 450.478,167.957 451.261,167.355 C452.044,166.752 453.039,165.943 454.244,164.928 C455.071,164.232 456.038,163.404 457.128,162.46 L462.703,115.136 L462.665,115.136 C457.011,117.784 441.128,120.582 422.415,120.582 C403.705,120.582 387.821,117.784 382.167,115.136 L382.12,115.136 L386.355,158.573 C386.58,157.825 386.829,157.078 387.106,156.333 C387.673,154.807 388.328,153.316 389.071,151.858 C389.816,150.402 390.626,149.024 391.501,147.727 C392.377,146.43 393.309,145.236 394.297,144.145 C395.285,143.055 396.298,142.116 397.339,141.33 C398.379,140.545 399.43,139.93 400.489,139.487 C401.55,139.045 402.6,138.823 403.641,138.823 C404.839,138.823 405.998,139.144 407.117,139.785 C408.237,140.426 409.283,141.463 410.259,142.898 C410.482,143.218 410.624,143.543 410.682,143.871 C410.742,144.198 410.771,144.507 410.771,144.797 C410.771,145.484 410.604,146.026 410.268,146.422 C409.932,146.819 409.534,147.017 409.073,147.017 C408.651,147.017 408.259,146.8 407.897,146.366 C407.535,145.931 407.13,145.309 406.682,144.5 C406.261,143.767 405.796,143.238 405.289,142.91 C404.782,142.581 404.233,142.417 403.64,142.417 C402.718,142.417 401.734,142.791 400.687,143.538 C399.64,144.286 398.603,145.275 397.576,146.503 C396.549,147.731 395.565,149.136 394.623,150.714 C393.681,152.293 392.848,153.911 392.124,155.567 C391.399,157.223 390.823,158.856 390.396,160.465 C389.967,162.075 389.753,163.521 389.753,164.803 C389.753,165.23 389.783,165.669 389.842,166.118 C389.902,166.569 390.013,166.977 390.178,167.343 C390.343,167.709 390.566,168.01 390.85,168.247 C391.133,168.484 391.492,168.601 391.926,168.601 C392.413,168.601 392.966,168.441 393.585,168.12 C394.204,167.801 394.847,167.38 395.511,166.862 C396.176,166.343 396.844,165.756 397.516,165.099 C398.188,164.443 398.814,163.78 399.393,163.108 C399.972,162.437 400.486,161.793 400.934,161.174 C401.382,160.556 401.718,160.018 401.942,159.56 L403.779,154.181 C404.002,153.602 404.295,153.19 404.658,152.945 C405.02,152.701 405.392,152.579 405.774,152.579 C405.958,152.579 406.142,152.61 406.327,152.671 C406.512,152.732 406.676,152.827 406.822,152.956 C406.967,153.086 407.082,153.254 407.167,153.46 C407.253,153.666 407.295,153.906 407.295,154.181 C407.295,154.913 407.229,155.599 407.097,156.241 C406.966,156.882 406.798,157.507 406.594,158.118 C406.389,158.728 406.163,159.342 405.912,159.96 C405.662,160.578 405.418,161.223 405.181,161.895 C405.129,161.971 405.034,162.211 404.895,162.615 C404.757,163.02 404.59,163.527 404.392,164.137 C404.194,164.748 403.98,165.43 403.75,166.186 C403.519,166.942 403.282,167.712 403.039,168.498 C402.795,169.284 402.562,170.054 402.338,170.809 C402.114,171.564 401.913,172.247 401.736,172.858 C401.558,173.467 401.41,173.979 401.291,174.391 C401.172,174.803 401.1,175.047 401.074,175.124 C401.007,175.367 400.902,175.639 400.758,175.936 C400.612,176.233 400.441,176.517 400.243,176.784 C400.046,177.05 399.829,177.272 399.592,177.447 C399.355,177.622 399.111,177.71 398.86,177.71 C398.439,177.71 398.133,177.573 397.942,177.299 C397.751,177.024 397.656,176.52 397.656,175.788 L397.656,175.467 C397.656,175.361 397.663,175.246 397.675,175.125 C397.688,174.88 397.788,174.422 397.972,173.75 C398.157,173.08 398.376,172.321 398.634,171.474 C398.89,170.626 399.167,169.749 399.463,168.841 C399.76,167.933 400.026,167.121 400.263,166.404 C399.565,167.167 398.808,167.926 397.992,168.681 C397.175,169.436 396.338,170.116 395.483,170.718 C394.627,171.321 393.764,171.813 392.895,172.195 C392.025,172.576 391.189,172.767 390.386,172.767 C389.464,172.767 388.671,172.568 388.005,172.171 C387.885,172.1 387.773,172.019 387.66,171.939 L390.351,199.539 L391.917,201.991 C396.514,204.882 408.248,206.938 422.034,206.947 C434.592,206.938 445.444,205.231 450.754,202.741 L452.757,199.539 L456.622,166.733 C456.302,167.02 455.992,167.299 455.694,167.571 C454.586,168.581 453.542,169.447 452.561,170.172 z" fill="#FFFFFF"/>
    <path d="M452.561,170.17 C451.581,170.895 450.622,171.456 449.688,171.852 C448.752,172.249 447.751,172.448 446.684,172.448 C445.684,172.448 444.91,172.234 444.363,171.807 C443.817,171.38 443.544,170.793 443.544,170.044 L443.544,169.873 C443.544,169.821 443.55,169.754 443.563,169.678 C443.616,169.221 443.821,168.693 444.176,168.099 C444.531,167.503 444.959,166.885 445.459,166.245 C445.96,165.604 446.493,164.955 447.06,164.299 C447.626,163.642 448.149,163.021 448.631,162.433 C449.11,161.847 449.508,161.308 449.825,160.82 C450.142,160.331 450.3,159.935 450.3,159.63 C450.3,159.446 450.233,159.301 450.102,159.194 C449.97,159.088 449.752,159.034 449.45,159.034 C448.923,159.034 448.38,159.168 447.82,159.435 C447.26,159.701 446.707,160.06 446.16,160.511 C445.614,160.961 445.08,161.476 444.56,162.055 C444.04,162.636 443.553,163.238 443.098,163.864 C442.644,164.49 442.23,165.119 441.855,165.752 C441.48,166.386 441.16,166.969 440.896,167.503 C440.818,167.671 440.705,167.908 440.56,168.212 C440.414,168.518 440.257,168.862 440.086,169.243 C439.915,169.624 439.734,170.018 439.542,170.42 C439.352,170.826 439.177,171.208 439.02,171.566 L438.596,172.527 C438.47,172.809 438.381,173.004 438.329,173.11 C438.262,173.248 438.154,173.506 438.003,173.888 C437.852,174.27 437.677,174.717 437.48,175.227 C437.283,175.738 437.075,176.276 436.857,176.841 C436.641,177.405 436.436,177.94 436.245,178.443 C436.054,178.947 435.886,179.389 435.742,179.771 C435.597,180.152 435.504,180.412 435.465,180.549 C435.334,180.946 435.179,181.319 435.001,181.671 C434.823,182.021 434.62,182.331 434.389,182.598 C434.159,182.864 433.895,183.078 433.599,183.238 C433.302,183.399 432.97,183.479 432.602,183.479 C432.127,183.479 431.736,183.367 431.425,183.146 C431.117,182.925 430.962,182.501 430.962,181.876 C430.962,181.57 431.002,181.258 431.081,180.938 C431.16,180.617 431.259,180.3 431.377,179.988 C431.496,179.674 431.618,179.37 431.743,179.073 C431.868,178.774 431.983,178.488 432.088,178.214 C432.799,176.688 433.524,175.158 434.261,173.625 C434.998,172.091 435.706,170.573 436.385,169.07 C436.527,168.756 436.656,168.449 436.794,168.138 C436.752,168.178 436.712,168.219 436.671,168.258 C435.815,169.067 434.963,169.78 434.114,170.398 C433.263,171.016 432.42,171.508 431.585,171.874 C430.749,172.24 429.935,172.423 429.145,172.423 C428.605,172.423 428.155,172.339 427.793,172.172 C427.431,172.004 427.14,171.774 426.923,171.486 C426.705,171.195 426.55,170.852 426.459,170.455 C426.427,170.32 426.408,170.178 426.387,170.037 C426.157,170.213 425.923,170.385 425.688,170.547 C424.872,171.111 424.069,171.565 423.278,171.908 C422.488,172.252 421.777,172.423 421.145,172.423 C420.513,172.423 419.999,172.218 419.604,171.805 C419.209,171.393 419.011,170.691 419.011,169.699 C419.011,168.997 419.117,168.181 419.327,167.251 C418.985,167.846 418.557,168.448 418.044,169.058 C417.53,169.669 416.944,170.226 416.286,170.73 C415.627,171.233 414.889,171.641 414.073,171.954 C413.256,172.267 412.367,172.423 411.406,172.423 C410.971,172.423 410.554,172.371 410.152,172.263 C409.75,172.156 409.398,171.973 409.095,171.714 C408.792,171.455 408.549,171.108 408.364,170.673 C408.179,170.238 408.088,169.692 408.088,169.036 C408.088,169.021 408.114,168.789 408.166,168.337 C408.219,167.887 408.387,167.178 408.67,166.208 C408.954,165.241 409.391,163.984 409.983,162.443 C410.577,160.901 411.412,159.033 412.493,156.836 C412.769,156.255 413.088,155.839 413.45,155.588 C413.812,155.336 414.204,155.21 414.625,155.21 C414.81,155.21 415.001,155.237 415.198,155.29 C415.397,155.344 415.58,155.427 415.752,155.542 C415.923,155.656 416.062,155.802 416.167,155.977 C416.272,156.152 416.325,156.354 416.325,156.583 C416.325,156.735 416.305,156.881 416.266,157.018 C416.199,157.278 416.058,157.617 415.842,158.036 C415.624,158.456 415.371,158.937 415.081,159.478 C414.792,160.02 414.484,160.603 414.163,161.23 C413.839,161.855 413.54,162.504 413.264,163.175 C412.987,163.846 412.75,164.529 412.552,165.224 C412.354,165.918 412.243,166.594 412.217,167.249 C412.217,167.524 412.282,167.776 412.414,168.005 C412.546,168.234 412.763,168.348 413.066,168.348 C413.922,168.348 414.739,168.073 415.516,167.525 C416.292,166.975 417.01,166.292 417.669,165.476 C418.327,164.66 418.923,163.782 419.457,162.843 C419.99,161.905 420.434,161.047 420.79,160.269 C421.04,159.75 421.261,159.192 421.452,158.598 C421.642,158.002 421.85,157.454 422.074,156.949 C422.298,156.445 422.554,156.026 422.844,155.691 C423.133,155.355 423.496,155.187 423.93,155.187 C424.405,155.187 424.78,155.364 425.057,155.714 C425.333,156.065 425.471,156.485 425.471,156.972 C425.471,157.247 425.383,157.625 425.205,158.106 C425.027,158.586 424.803,159.136 424.533,159.754 C424.263,160.372 423.97,161.032 423.654,161.734 C423.338,162.436 423.044,163.149 422.775,163.874 C422.505,164.599 422.281,165.309 422.103,166.003 C421.925,166.697 421.837,167.341 421.837,167.937 C421.837,168.486 422.126,168.762 422.706,168.762 C423.115,168.762 423.621,168.624 424.227,168.349 C424.833,168.075 425.469,167.689 426.134,167.193 C426.3,167.07 426.467,166.94 426.633,166.804 C426.819,166.056 427.036,165.363 427.289,164.733 C427.75,163.542 428.218,162.361 428.691,161.186 C429.166,160.011 429.6,158.935 429.996,157.957 L435.981,143.193 C436.218,142.599 436.537,142.179 436.938,141.935 C437.34,141.691 437.745,141.569 438.154,141.569 C438.561,141.569 438.933,141.699 439.269,141.958 C439.605,142.218 439.773,142.637 439.773,143.217 C439.773,143.492 439.717,143.782 439.605,144.087 C439.493,144.393 439.351,144.72 439.18,145.071 C438.852,145.789 438.459,146.666 438.005,147.704 C437.55,148.741 437.063,149.871 436.543,151.092 C436.023,152.313 435.49,153.583 434.943,154.903 C434.397,156.223 433.863,157.509 433.343,158.76 C432.823,160.012 432.336,161.197 431.882,162.319 C431.428,163.44 431.036,164.414 430.706,165.237 C430.561,165.588 430.42,165.997 430.282,166.462 C430.143,166.927 430.075,167.343 430.075,167.71 C430.075,167.938 430.114,168.121 430.193,168.258 C430.272,168.395 430.423,168.465 430.648,168.465 C430.924,168.465 431.269,168.369 431.684,168.178 C432.099,167.988 432.547,167.736 433.027,167.422 C433.508,167.11 434.009,166.751 434.528,166.346 C435.049,165.942 435.565,165.523 436.079,165.088 C436.593,164.653 437.084,164.218 437.551,163.783 C438.018,163.348 438.437,162.948 438.806,162.582 C438.892,162.494 438.996,162.432 439.11,162.385 C439.332,161.736 439.534,161.098 439.713,160.476 C439.819,160.201 439.964,159.813 440.148,159.309 C440.332,158.805 440.544,158.31 440.78,157.821 C441.017,157.333 441.284,156.91 441.58,156.551 C441.876,156.193 442.196,156.013 442.539,156.013 C443.065,156.013 443.448,156.132 443.685,156.367 C443.922,156.605 444.04,156.951 444.04,157.41 C444.04,157.501 444.027,157.646 444,157.844 C443.974,158.042 443.942,158.253 443.902,158.473 C443.863,158.695 443.82,158.905 443.774,159.103 C443.727,159.302 443.685,159.446 443.646,159.538 C444.132,159.019 444.659,158.504 445.225,157.993 C445.792,157.482 446.377,157.02 446.983,156.608 C447.589,156.195 448.208,155.861 448.84,155.6 C449.472,155.341 450.104,155.212 450.736,155.212 C451.171,155.212 451.603,155.273 452.03,155.395 C452.458,155.517 452.841,155.697 453.176,155.932 C453.512,156.17 453.786,156.467 453.996,156.825 C454.206,157.183 454.312,157.599 454.312,158.073 C454.312,158.699 454.151,159.366 453.828,160.075 C453.505,160.785 453.1,161.498 452.613,162.214 C452.125,162.933 451.599,163.63 451.033,164.309 C450.467,164.988 449.937,165.606 449.443,166.163 C448.949,166.721 448.534,167.193 448.198,167.582 C447.863,167.972 447.688,168.235 447.675,168.373 C447.675,168.556 447.735,168.704 447.853,168.819 C447.972,168.933 448.169,168.991 448.446,168.991 C448.67,168.991 448.999,168.868 449.434,168.624 C449.868,168.381 450.478,167.957 451.261,167.355 C452.044,166.752 453.039,165.943 454.244,164.928 C455.071,164.232 456.038,163.404 457.128,162.46 L462.703,115.136 L462.665,115.136 C457.011,117.784 441.128,120.582 422.415,120.582 C403.705,120.582 387.821,117.784 382.167,115.136 L382.12,115.136 L386.355,158.573 C386.58,157.825 386.829,157.078 387.106,156.333 C387.673,154.807 388.328,153.316 389.071,151.858 C389.816,150.402 390.626,149.024 391.501,147.727 C392.377,146.43 393.309,145.236 394.297,144.145 C395.285,143.055 396.298,142.116 397.339,141.33 C398.379,140.545 399.43,139.93 400.489,139.487 C401.55,139.045 402.6,138.823 403.641,138.823 C404.839,138.823 405.998,139.144 407.117,139.785 C408.237,140.426 409.283,141.463 410.259,142.898 C410.482,143.218 410.624,143.543 410.682,143.871 C410.742,144.198 410.771,144.507 410.771,144.797 C410.771,145.484 410.604,146.026 410.268,146.422 C409.932,146.819 409.534,147.017 409.073,147.017 C408.651,147.017 408.259,146.8 407.897,146.366 C407.535,145.931 407.13,145.309 406.682,144.5 C406.261,143.767 405.796,143.238 405.289,142.91 C404.782,142.581 404.233,142.417 403.64,142.417 C402.718,142.417 401.734,142.791 400.687,143.538 C399.64,144.286 398.603,145.275 397.576,146.503 C396.549,147.731 395.565,149.136 394.623,150.714 C393.681,152.293 392.848,153.911 392.124,155.567 C391.399,157.223 390.823,158.856 390.396,160.465 C389.967,162.075 389.753,163.521 389.753,164.803 C389.753,165.23 389.783,165.669 389.842,166.118 C389.902,166.569 390.013,166.977 390.178,167.343 C390.343,167.709 390.566,168.01 390.85,168.247 C391.133,168.484 391.492,168.601 391.926,168.601 C392.413,168.601 392.966,168.441 393.585,168.12 C394.204,167.801 394.847,167.38 395.511,166.862 C396.176,166.343 396.844,165.756 397.516,165.099 C398.188,164.443 398.814,163.78 399.393,163.108 C399.972,162.437 400.486,161.793 400.934,161.174 C401.382,160.556 401.718,160.018 401.942,159.56 L403.779,154.181 C404.002,153.602 404.295,153.19 404.658,152.945 C405.02,152.701 405.392,152.579 405.774,152.579 C405.958,152.579 406.142,152.61 406.327,152.671 C406.512,152.732 406.676,152.827 406.822,152.956 C406.967,153.086 407.082,153.254 407.167,153.46 C407.253,153.666 407.295,153.906 407.295,154.181 C407.295,154.913 407.229,155.599 407.097,156.241 C406.966,156.882 406.798,157.507 406.594,158.118 C406.389,158.728 406.163,159.342 405.912,159.96 C405.662,160.578 405.418,161.223 405.181,161.895 C405.129,161.971 405.034,162.211 404.895,162.615 C404.757,163.02 404.59,163.527 404.392,164.137 C404.194,164.748 403.98,165.43 403.75,166.186 C403.519,166.942 403.282,167.712 403.039,168.498 C402.795,169.284 402.562,170.054 402.338,170.809 C402.114,171.564 401.913,172.247 401.736,172.858 C401.558,173.467 401.41,173.979 401.291,174.391 C401.172,174.803 401.1,175.047 401.074,175.124 C401.007,175.367 400.902,175.639 400.758,175.936 C400.612,176.233 400.441,176.517 400.243,176.784 C400.046,177.05 399.829,177.272 399.592,177.447 C399.355,177.622 399.111,177.71 398.86,177.71 C398.439,177.71 398.133,177.573 397.942,177.299 C397.751,177.024 397.656,176.52 397.656,175.788 L397.656,175.467 C397.656,175.361 397.663,175.246 397.675,175.125 C397.688,174.88 397.788,174.422 397.972,173.75 C398.157,173.08 398.376,172.321 398.634,171.474 C398.89,170.626 399.167,169.749 399.463,168.841 C399.76,167.933 400.026,167.121 400.263,166.404 C399.565,167.167 398.808,167.926 397.992,168.681 C397.175,169.436 396.338,170.116 395.483,170.718 C394.627,171.321 393.764,171.813 392.895,172.195 C392.025,172.576 391.189,172.767 390.386,172.767 C389.464,172.767 388.671,172.568 388.005,172.171 C387.885,172.1 387.773,172.019 387.66,171.939 L390.351,199.539 L391.917,201.991 C396.514,204.882 408.248,206.938 422.034,206.947 C434.592,206.938 445.444,205.231 450.754,202.741 L452.757,199.539 L456.622,166.733 C456.302,167.02 455.992,167.299 455.694,167.571 C454.586,168.581 453.542,169.447 452.561,170.172 z" fill-opacity="0" stroke="#000000" stroke-width="0.594"/>
    <path d="M422.394,108.12 C400.115,108.12 382.055,110.168 382.055,112.695 C382.055,115.22 400.115,118.934 422.394,118.934 C444.675,118.934 462.733,115.22 462.733,112.695 C462.733,110.167 444.675,108.12 422.394,108.12 z M429.588,115.337 C427.008,115.337 424.714,114.575 424.714,113.917 C424.714,113.665 425.053,113.398 425.615,113.163 C425.926,112.603 427.583,112.175 429.588,112.175 C431.56,112.175 433.2,112.59 433.548,113.138 C434.165,113.378 434.546,113.656 434.546,113.918 C434.546,114.575 432.168,115.337 429.588,115.337 z" fill="#FFFFFF"/>
    <path d="M422.394,108.12 C400.115,108.12 382.055,110.168 382.055,112.695 C382.055,115.22 400.115,118.934 422.394,118.934 C444.675,118.934 462.733,115.22 462.733,112.695 C462.733,110.167 444.675,108.12 422.394,108.12 z M429.588,115.337 C427.008,115.337 424.714,114.575 424.714,113.917 C424.714,113.665 425.053,113.398 425.615,113.163 C425.926,112.603 427.583,112.175 429.588,112.175 C431.56,112.175 433.2,112.59 433.548,113.138 C434.165,113.378 434.546,113.656 434.546,113.918 C434.546,114.575 432.168,115.337 429.588,115.337 z" fill-opacity="0" stroke="#000000" stroke-width="0.594"/>
    <g>
      <path d="M429.588,114.534 C431.814,114.534 433.618,114.006 433.618,113.354 C433.618,113.28 433.592,113.208 433.548,113.138 C432.616,112.774 431.141,112.497 429.588,112.497 C427.998,112.497 426.518,112.787 425.615,113.164 C425.581,113.226 425.557,113.289 425.557,113.355 C425.557,114.006 427.361,114.534 429.588,114.534 z" fill="#FFFFFF"/>
      <path d="M429.588,114.534 C431.814,114.534 433.618,114.006 433.618,113.354 C433.618,113.28 433.592,113.208 433.548,113.138 C432.616,112.774 431.141,112.497 429.588,112.497 C427.998,112.497 426.518,112.787 425.615,113.164 C425.581,113.226 425.557,113.289 425.557,113.355 C425.557,114.006 427.361,114.534 429.588,114.534 z" fill-opacity="0" stroke="#000000" stroke-width="0.594"/>
    </g>
    <g>
      <path d="M458.981,71.584 L453.592,67.622 L431.897,89.954 L425.71,113.324 L433.529,113.324 L439.579,92.594 z" fill="#FFFFFF"/>
      <path d="M458.981,71.584 L453.592,67.622 L431.897,89.954 L425.71,113.324 L433.529,113.324 L439.579,92.594 z" fill-opacity="0" stroke="#000000" stroke-width="0.594"/>
    </g>
    <g>
      <path d="M157.614,161.621 C157.614,161.621 155.315,167.232 154.055,170.206 C152.688,173.441 147.476,175.049 147.476,175.049 C147.476,175.049 150.178,172.277 150.178,165.254 C150.178,162.308 154.066,161.136 154.066,161.136 L157.614,161.621 z M147.236,219.952 C147.236,219.952 148.916,229.999 155.645,229.999 C161.363,229.999 163.048,221.512 163.048,219.759 L147.236,219.952 z M124.342,108.104 L123.563,107.621 C121.268,107.697 124.342,108.104 124.342,108.104 z" fill="#FFFFFF"/>
      <path d="M150.971,157.837 C150.971,157.837 147.34,159.46 143.281,158.139 C137.968,156.405 137.615,151 137.615,151 C137.615,151 134.355,160.357 143.494,162.158 C150.823,163.603 155.158,159.448 155.158,159.448 L150.971,157.837 z M153.552,110.38 C153.162,102.355 159.886,95.964 162.216,95.691 C162.345,97.051 162.087,102.355 164.416,103.986 C165.095,99.654 167.388,94.878 176.443,91.748 C174.504,96.781 176.185,100.996 176.985,102.949 C183.168,97.458 187.335,98.366 187.335,98.366 C187.335,98.366 183.038,105.618 184.719,110.378 C172.305,109.425 153.612,111.668 153.552,110.38 z M127.234,122.604 C124.272,120.2 126.481,117.969 126.246,115.237 C126.119,113.784 126.001,112.413 125.511,111.656 C122.786,107.446 116.356,106.168 116.292,106.155 L113.274,105.577 L115.272,103.291 C115.53,102.994 123.735,95.337 136.431,99.346 C145.312,102.148 151.886,111.65 152.131,112.034 L147.678,114.082 C147.626,114.002 142.428,105.07 134.809,102.667 C128.65,100.723 122.973,102.573 120.542,103.785 C123.127,104.794 126.506,106.633 128.542,109.777 C129.503,111.263 129.664,113.134 129.821,114.944 C130.027,117.342 130.221,119.605 132.024,121.071 L127.234,122.604 z" fill="#FFFFFF"/>
      <path d="M152.541,158.628 C152.623,158.778 152.665,158.861 152.665,158.861 C152.665,158.861 146.558,163.344 140.3,158.795 C136.95,156.357 137.266,150.328 138.293,147.771 C140.962,148.363 143.226,149.43 145.118,150.675 C142.727,148.587 140.633,147.05 140.639,147.015 L137.921,146.262 L132.639,144.49 C132.572,144.884 130.644,153.719 136.205,159.739 C138.671,162.408 150.227,168.385 155.713,158.165 L152.541,158.628 z" fill="#FFFFFF"/>
      <path d="M151.969,159.285 C155.408,164.404 164.081,161.479 163.932,156.067 C163.932,156.067 158.136,159.196 153.015,153.435 C150.025,150.071 140.445,140.796 127.453,143.878 C136.425,145.808 148.303,153.827 151.969,159.285 z" fill="#FFFFFF"/>
      <path d="M126.239,173.732 C127.066,174.2 129.983,177.155 129.986,181.575 C129.986,183.791 129.76,194.925 128.638,201.727 C130.325,202.799 131.499,203.027 133.179,204.12 C134.02,196.242 134.623,184.824 134.342,180.215 C134.02,174.961 131.145,171.435 128.478,169.931 C127.643,169.461 126.77,168.999 125.892,168.534 C121.324,166.119 116.601,163.622 116.601,159.357 C116.601,156.021 117.926,154.977 119.331,153.871 L119.481,153.751 C120.413,153.015 121.467,152.181 122.091,150.81 C123.795,147.062 124.074,137.514 122.091,135.09 C121.103,133.883 118.455,129.822 119.216,127.092 C119.506,126.051 120.176,125.279 121.268,124.732 C122.423,124.153 123.984,123.859 125.905,123.859 C129.679,123.859 133.864,124.983 136.023,125.652 C143.739,128.044 153.049,134.942 155.718,136.999 C155.795,137.057 155.84,137.09 155.848,137.096 L157.555,138.257 L156.487,136.509 C156.421,136.4 149.657,125.519 137.562,121.53 C135.209,120.754 130.586,119.451 126.043,119.451 C123.339,119.451 121.043,119.913 119.226,120.824 C117.011,121.932 115.511,123.7 114.888,125.936 C113.361,131.417 118.335,137.518 118.505,137.713 C119.085,138.726 119.33,146.083 117.991,149.027 C117.806,149.434 117.301,149.833 116.662,150.338 C116.461,150.497 116.237,150.661 116,150.837 C114.11,152.233 111.252,154.342 111.252,159.202 C111.252,165.854 118.142,169.46 123.679,172.359 C124.588,172.837 125.455,173.289 126.238,173.732 z M156.754,159.586 L151.969,159.285 C151.969,159.285 153.191,161.394 153.984,164.122 C154.879,167.208 153.166,171.717 153.166,171.717 C153.166,171.717 159.546,164.651 156.753,159.586 z M150.78,239.948 C133.75,238.668 127.759,222.926 127.759,219.647 L132.206,219.649 L129.982,219.647 L132.206,219.647 C132.228,221.064 136.754,234.531 151.121,235.611 L150.78,239.948 z" fill="#FFFFFF"/>
      <path d="M140.846,220.08 C140.699,219.657 140.587,219.226 140.478,218.792 C140.359,218.318 139.773,216.975 140.496,218.508 C140.31,218.115 140.189,217.711 140.099,217.303 C128.594,217.289 118.584,209.561 120.518,193.315 C119.012,191.359 116.903,197.26 116.903,197.26 C116.903,197.26 111.143,213.62 126.019,219.961 C130.975,222.076 135.355,223.591 136.389,222.98 C138.542,223.407 140.485,221.94 141.214,220.974 C141.077,220.677 140.953,220.38 140.846,220.08 z" fill="#FFFFFF"/>
      <path d="M145.787,209.388 C145.805,208.017 146.091,206.688 146.769,205.365 C146.817,205.274 146.871,205.187 146.923,205.098 C142.495,205.061 137.396,204.646 133.055,202.946 C128.282,201.078 122.312,194.69 121.287,187.184 C121.287,187.184 112.299,193.968 114.94,208.49 C117.419,222.126 129.083,226.572 142.386,227.324 C142.394,227.235 140.89,224.198 141.365,222.338 C133.811,222.875 125.364,220.02 121.287,213.456 C117.554,207.449 118.601,197.192 120.135,195.689 C123.878,207.242 137.344,209.59 145.788,209.388 z" fill="#FFFFFF"/>
      <path d="M147.181,201.118 C144.788,207.99 139.898,213.551 139.898,213.551 C139.898,213.551 146.624,213.252 146.995,212.088 C147.27,211.229 153.069,197.951 155.294,182.395 C153.201,185.76 147.386,200.529 147.181,201.118 z M214.929,108.104 L215.709,107.621 C218.004,107.697 214.929,108.104 214.929,108.104 z M188.298,157.837 C188.298,157.837 191.931,159.46 195.988,158.139 C201.303,156.405 201.657,151 201.657,151 C201.657,151 204.915,160.357 195.777,162.158 C188.448,163.603 184.112,159.448 184.112,159.448 L188.298,157.838 z" fill="#FFFFFF"/>
      <path d="M212.036,122.604 C214.999,120.2 212.792,117.969 213.026,115.237 C213.151,113.784 213.269,112.413 213.759,111.656 C216.485,107.446 222.915,106.168 222.981,106.155 L226,105.577 L224.001,103.291 C223.742,102.994 215.538,95.337 202.84,99.346 C193.96,102.148 187.387,111.65 187.142,112.034 L191.593,114.082 C191.647,114.002 196.845,105.07 204.465,102.667 C210.623,100.723 216.3,102.573 218.73,103.785 C216.146,104.794 212.765,106.633 210.729,109.777 C209.768,111.263 209.608,113.134 209.452,114.944 C209.245,117.342 209.05,119.605 207.246,121.071 L212.035,122.604 z M186.731,158.628 C186.649,158.778 186.607,158.861 186.607,158.861 C186.607,158.861 192.712,163.344 198.969,158.795 C202.322,156.357 202.005,150.328 200.977,147.771 C198.309,148.363 196.045,149.43 194.153,150.675 C196.545,148.587 198.638,147.05 198.631,147.015 L201.349,146.262 L206.631,144.492 C206.699,144.885 208.625,153.72 203.062,159.74 C200.598,162.409 189.042,168.387 183.556,158.166 L186.73,158.628 z" fill="#FFFFFF"/>
      <path d="M187.301,159.285 C183.862,164.404 175.191,161.479 175.341,156.067 C175.341,156.067 181.134,159.196 186.256,153.435 C189.246,150.071 198.828,140.796 211.819,143.878 C202.848,145.808 190.969,153.827 187.301,159.285 z" fill="#FFFFFF"/>
      <path d="M213.034,173.732 C212.206,174.2 209.288,177.155 209.288,181.575 C209.286,183.791 209.512,194.925 210.635,201.727 C208.947,202.799 207.773,203.027 206.093,204.12 C205.252,196.242 204.647,184.824 204.931,180.215 C205.251,174.961 208.126,171.435 210.792,169.931 C211.628,169.461 212.501,168.999 213.381,168.534 C217.949,166.119 222.672,163.622 222.672,159.357 C222.672,156.021 221.345,154.977 219.942,153.871 L219.792,153.751 C218.861,153.015 217.805,152.181 217.182,150.81 C215.478,147.061 215.199,137.514 217.18,135.09 C218.169,133.883 220.819,129.822 220.057,127.092 C219.765,126.051 219.094,125.279 218.003,124.732 C216.848,124.153 215.289,123.859 213.366,123.859 C209.595,123.859 205.407,124.983 203.25,125.652 C195.533,128.044 186.223,134.942 183.552,136.999 C183.476,137.057 183.432,137.09 183.423,137.096 L181.715,138.257 L182.783,136.509 C182.85,136.4 189.613,125.519 201.708,121.53 C204.061,120.754 208.683,119.451 213.227,119.451 C215.932,119.451 218.225,119.913 220.044,120.824 C222.259,121.932 223.758,123.7 224.382,125.936 C225.909,131.417 220.935,137.518 220.765,137.713 C220.185,138.726 219.939,146.083 221.277,149.027 C221.461,149.434 221.967,149.833 222.608,150.338 C222.808,150.497 223.03,150.661 223.269,150.837 C225.16,152.233 228.017,154.342 228.017,159.202 C228.017,165.854 221.127,169.46 215.591,172.359 C214.682,172.837 213.814,173.289 213.032,173.731 z" fill="#FFFFFF"/>
      <path d="M204.814,121.821 C203.718,120.005 200.915,116.499 194.455,113.418 C187.246,109.98 178.903,108.235 169.653,108.232 L169.653,108.23 L169.635,108.23 L169.617,108.23 L169.617,108.231 C160.366,108.235 152.021,109.98 144.814,113.417 C138.354,116.499 135.553,120.004 134.456,121.82 L133.985,122.429 L139.516,123.634 L139.693,123.417 L139.785,123.219 C139.871,122.861 140.612,120.93 146.78,117.988 C153.373,114.842 161.064,113.247 169.635,113.244 C178.206,113.247 185.893,114.842 192.486,117.988 C198.654,120.93 199.397,122.861 199.482,123.219 L199.575,123.417 L199.748,123.634 L205.281,122.429 L204.813,121.821 z M180.519,226.245 C178.208,223.828 176.841,221.227 176.511,220.429 C176.322,219.973 176.106,219.106 176.784,218.424 C177.312,217.897 178.228,217.626 179.508,217.626 L181.478,217.626 C183.531,217.626 185.933,217.626 187.36,217.627 L188.557,217.629 C190.239,217.629 191.067,218.099 191.466,218.494 C192.046,219.068 192.138,219.867 191.738,220.867 C190.668,223.539 188.24,225.72 187.522,226.324 C186.583,227.118 185.233,227.589 183.908,227.589 C182.55,227.589 181.346,227.111 180.518,226.245 z M182.519,159.586 L187.301,159.285 C187.301,159.285 186.079,161.394 185.287,164.122 C184.392,167.208 186.105,171.717 186.105,171.717 C186.105,171.717 179.725,164.651 182.518,159.586 z M169.636,142.875 C166.587,142.875 162.611,142.792 159.628,140.695 C159.628,140.695 163.534,147.394 169.631,147.394 L169.636,146.547 L169.641,147.394 C175.74,147.394 179.645,140.696 179.645,140.696 C176.662,142.793 172.683,142.875 169.636,142.875 z" fill="#FFFFFF"/>
      <path d="M178.033,142.842 C174.974,144.654 172.242,145.281 169.636,145.336 C167.03,145.281 164.299,144.654 161.24,142.842 C161.24,142.842 165.694,148.16 169.614,148.201 L169.614,148.204 C169.621,148.204 169.628,148.203 169.636,148.203 C169.643,148.203 169.65,148.204 169.658,148.204 L169.658,148.202 C173.576,148.161 178.033,142.843 178.033,142.843 z M188.491,239.948 L188.15,235.611 C202.514,234.53 207.04,221.064 207.063,219.647 L211.511,219.647 C211.512,222.924 205.518,238.668 188.491,239.948 z" fill="#FFFFFF"/>
      <path d="M198.424,220.08 C198.573,219.657 198.682,219.226 198.792,218.792 C198.912,218.318 199.499,216.975 198.774,218.508 C198.96,218.115 199.081,217.711 199.171,217.303 C210.676,217.289 220.686,209.561 218.75,193.315 C220.256,191.359 222.367,197.26 222.367,197.26 C222.367,197.26 228.127,213.62 213.252,219.961 C208.295,222.076 203.916,223.591 202.882,222.98 C200.727,223.407 198.784,221.94 198.057,220.974 C198.193,220.677 198.32,220.38 198.424,220.08 z" fill="#FFFFFF"/>
      <path d="M193.482,209.388 C193.466,208.017 193.178,206.688 192.502,205.365 C192.453,205.274 192.399,205.187 192.348,205.098 C196.776,205.061 201.875,204.646 206.217,202.946 C210.988,201.078 216.958,194.69 217.984,187.184 C217.984,187.184 226.972,193.968 224.331,208.49 C221.85,222.126 210.187,226.572 196.885,227.324 C196.877,227.235 198.381,224.198 197.906,222.338 C205.457,222.875 213.904,220.02 217.984,213.456 C221.716,207.449 220.669,197.192 219.134,195.689 C215.393,207.242 201.926,209.59 193.481,209.388 z" fill="#FFFFFF"/>
      <path d="M198.854,212.809 C197.265,211.128 194.343,209.124 187.605,209.124 L169.659,209.113 L169.636,209.113 L169.615,209.113 C164.443,209.117 151.666,209.124 151.666,209.124 C144.93,209.124 142.008,211.128 140.418,212.808 C138.101,215.254 137.738,218.657 139.341,222.911 C143.599,234.231 149.583,245.733 169.614,245.749 L169.614,245.751 C169.621,245.751 169.628,245.749 169.636,245.749 C169.643,245.749 169.65,245.751 169.658,245.751 L169.658,245.749 C189.687,245.732 195.672,234.231 199.931,222.91 C201.533,218.656 201.169,215.254 198.855,212.808 z M195.735,222.116 C193.707,227.801 188.254,241.562 169.635,241.586 C151.014,241.562 145.564,227.802 143.535,222.116 C142.413,218.962 142.498,216.628 143.798,215.179 C144.685,214.188 146.725,213.005 151.373,213.005 L156.229,213.003 C159.811,213 164.309,212.996 169.636,212.994 C174.961,212.996 179.461,213 183.042,213.003 L187.897,213.005 C192.546,213.005 194.585,214.187 195.473,215.179 C196.772,216.63 196.859,218.962 195.736,222.116 z" fill="#FFFFFF"/>
      <path d="M192.089,201.118 C194.483,207.99 199.372,213.552 199.372,213.552 C199.372,213.552 192.646,213.253 192.275,212.088 C192.002,211.23 186.202,197.951 183.977,182.395 C186.069,185.76 191.884,200.529 192.089,201.118 z" fill="#FFFFFF"/>
    </g>
    <path d="M339.05,210.712 L341.903,195.378 C337.862,194.664 329.303,192.406 326.212,190.623 C328.827,188.127 332.75,182.183 335.128,176.596 L341.903,175.645 L341.903,163.163 L314.087,163.163 L314.087,175.645 L316.465,175.883 C315.87,177.428 314.92,179.211 313.849,180.162 C309.927,177.19 304.696,170.533 302.081,166.967 C310.878,162.093 318.01,155.555 318.01,145.807 C318.01,131.542 307.668,126.787 295.186,126.787 C278.663,126.787 271.293,135.822 271.293,146.758 C271.293,152.345 273.195,156.625 276.167,160.547 C264.635,165.065 258.098,172.792 258.098,184.441 C258.098,201.916 271.649,210.475 289.361,210.475 C299.585,210.475 307.668,207.265 313.255,202.51 C320.625,207.503 330.967,209.642 339.051,210.712 z M284.606,173.98 C288.291,178.736 295.305,187.77 300.06,191.812 C297.682,193.001 294.116,194.07 289.717,194.07 C281.872,194.07 277.236,190.028 277.236,183.728 C277.236,179.924 279.613,176.24 284.606,173.98 z M293.284,155.674 C290.906,152.821 289.123,149.255 289.123,146.521 C289.123,143.073 291.263,140.221 295.661,140.221 C299.94,140.221 302.199,142.003 302.199,146.045 C302.199,149.73 298.514,153.415 293.284,155.674 z" fill="#BAE36F"/>
  </g>
</svg>
