<?xml version="1.0" encoding="UTF-8"?>
<!DOCTYPE svg PUBLIC "-//W3C//DTD SVG 1.1//EN" "http://www.w3.org/Graphics/SVG/1.1/DTD/svg11.dtd">
<svg version="1.1" xmlns="http://www.w3.org/2000/svg" xmlns:xlink="http://www.w3.org/1999/xlink" x="0" y="0" width="600" height="337.5" viewBox="0, 0, 600, 337.5">
  <g id="Background">
    <rect x="0" y="0" width="600" height="337.5" fill="#FFFFFF"/>
  </g>
  <g id="Layer_1">
    <path d="M0,0 L600,0 L600,337.5 L0,337.5 z" fill="#000000"/>
    <path d="M0,0 L600,0 L600,337.5 L0,337.5 L0,0 z" fill="#B43B18" opacity="0.453"/>
    <path d="M299.653,56.421 L191.605,93.619 L208.679,232.102 L299.768,281.079 L391.326,231.438 L408.394,92.96 L299.652,56.421 z M299.653,56.421" fill="#B2B2B2"/>
    <path d="M397.618,100.965 L299.402,68.2 L299.402,269.378 L381.712,224.814 L397.619,100.964 z M397.618,100.965" fill="#B52E31"/>
    <path d="M203.73,101.555 L218.36,225.407 L299.4,269.378 L299.4,68.195 L203.73,101.555 z M203.73,101.555" fill="#E23237"/>
    <path d="M322.167,168.263 L299.58,122.12 L279.696,168.263 L322.167,168.263 z M330.779,187.665 L270.906,187.665 L257.511,220.441 L232.596,220.891 L299.402,75.505 L368.536,220.889 L345.443,220.889 L330.779,187.665 z M330.779,187.665" fill="#F2F2F2"/>
    <path d="M299.402,75.505 L299.58,122.12 L322.144,168.298 L299.452,168.298 L299.401,187.635 L330.777,187.664 L345.442,220.894 L369.282,221.327 L299.402,75.505 z M299.402,75.505" fill="#B2B2B2"/>
  </g>
</svg>
