<?xml version="1.0" encoding="UTF-8"?>
<!DOCTYPE svg PUBLIC "-//W3C//DTD SVG 1.1//EN" "http://www.w3.org/Graphics/SVG/1.1/DTD/svg11.dtd">
<svg version="1.1" xmlns="http://www.w3.org/2000/svg" xmlns:xlink="http://www.w3.org/1999/xlink" x="0" y="0" width="600" height="337.5" viewBox="0, 0, 600, 337.5">
  <g id="Background">
    <rect x="0" y="0" width="600" height="337.5" fill="#FFFFFF"/>
  </g>
  <g id="Layer_1">
    <path d="M0,0 L600,0 L600,337.5 L0,337.5 z" fill="#002400"/>
    <path d="M204.836,171.713 L204.836,210.114 L204.879,210.114 C205.053,214.371 207.535,219.402 211.809,224.612 L217.597,177.852 L204.836,171.713 z M300.01,215.039 C294.936,215.039 290.427,212.93 290.427,212.93 L236.704,187.073 L244.32,248.397 C259.845,255.775 278.803,261.011 299.404,261.011 C351.145,261.011 393.164,228.367 393.924,210.116 L393.98,210.116 L393.98,172.196 L309.616,212.897 C309.616,212.897 305.088,215.038 300.01,215.038 z" fill="#92D649"/>
    <path d="M215.563,266.393 C215.563,266.393 217.502,275.764 226.6,275.764 C235.697,275.764 237.636,266.393 237.636,266.393 L226.6,182.266 L215.563,266.393 z M447.069,129.224 L309.418,63.588 C304.239,61.119 295.762,61.119 290.582,63.588 L152.93,129.198 C147.753,131.673 147.753,135.713 152.93,138.182 L213.113,166.866 C215.788,168.142 218.21,169.213 219.946,169.911 C221.574,170.564 222.63,171.234 222.63,171.062 C222.63,169.479 223.366,168.46 223.897,168.033 C224.13,167.84 225.204,167.22 226.739,166.382 L235.624,161.766 L283.941,136.661 C283.51,135.752 283.219,134.807 283.219,133.804 C283.219,128.014 290.729,123.323 299.991,123.323 C309.251,123.323 316.764,128.016 316.764,133.804 C316.764,139.595 309.251,144.288 299.991,144.288 C297.144,144.288 294.507,143.8 292.17,143.017 L233.791,173.349 C233.791,173.349 232.947,173.974 232.947,174.932 C232.947,175.927 233.464,176.405 233.464,176.405 C235.626,177.614 237.827,178.665 240.762,180.083 L290.587,203.824 C295.766,206.314 304.236,206.314 309.418,203.824 L447.066,138.218 C452.249,135.734 452.249,131.694 447.069,129.224 z" fill="#FFFFFF"/>
  </g>
</svg>
