<?xml version="1.0" encoding="UTF-8"?>
<!DOCTYPE svg PUBLIC "-//W3C//DTD SVG 1.1//EN" "http://www.w3.org/Graphics/SVG/1.1/DTD/svg11.dtd">
<svg version="1.1" xmlns="http://www.w3.org/2000/svg" xmlns:xlink="http://www.w3.org/1999/xlink" x="0" y="0" width="600" height="337.5" viewBox="0, 0, 600, 337.5">
  <g id="Background">
    <rect x="0" y="0" width="600" height="337.5" fill="#FFFFFF"/>
  </g>
  <g id="Layer_1">
    <path d="M0,0 L600,0 L600,337.5 L0,337.5 z" fill="#350000"/>
    <path d="M399.445,244.129 L370.99,266.927 L411.192,292.605 z M268.764,81.755 L239.233,44.895 L210.777,67.692 L240.183,104.393 z" fill="#B43B18"/>
    <path d="M260.856,224.391 C273.223,233.12 287.839,229.959 302.936,220.024 C287.419,207.9 271.903,195.774 256.387,183.648 C248.43,200.78 248.215,215.471 260.855,224.392 z M407.121,49.489 C381.001,55.131 286.314,127.417 258.988,178.895 L307.494,216.284 C354.657,176.028 408.878,73.726 407.121,49.489 z M358.669,135.544 C357.939,136.528 356.549,136.737 355.563,136.008 L329.283,116.572 C328.297,115.842 328.089,114.452 328.819,113.467 C329.55,112.482 330.938,112.272 331.924,113.002 L358.204,132.439 C359.19,133.168 359.398,134.557 358.669,135.544 z M368.201,124.135 C367.472,125.121 366.084,125.33 365.098,124.6 L338.818,105.165 C337.831,104.436 337.623,103.046 338.353,102.061 C339.082,101.075 340.47,100.867 341.458,101.596 L367.737,121.033 C368.723,121.761 368.931,123.15 368.201,124.135 z" fill="#FFFFFF"/>
    <path d="M244.638,203.8 C207.523,203.332 213.169,237.66 213.169,237.66 C220.85,269.384 188.809,273.531 188.809,273.531 C254.884,318.97 282.419,234.545 282.419,234.545 C243.407,239.911 244.638,203.8 244.638,203.8 z" fill="#FFFFFF"/>
    <path d="M270.181,141.833 L295.587,115.23 L273.601,87.789 L245.02,110.429 z M351.673,185.23 L327.633,213.538 L366.222,261.701 L394.678,238.904 z" fill="#B43B18"/>
  </g>
</svg>
