<?xml version="1.0"?><svg xmlns="http://www.w3.org/2000/svg" viewBox="0 0 200 90" enable-background="new 0 0 200 120" width="200" height="90"><path d="m54.1 78.7h-3.3l-3.9 5v-5h-2.9v11h2.8v-3.6l.7-.8 3.3 4.4h3.5l-4.5-5.9 4.3-5.1m-8.2-32.6l-6.6 1-23.3 3.6h36.2c-.1-2.3-.4-4.6-1.2-7-.7-1.8-1.6-3.5-2.7-5.2-.8-1-1.6-2-2.8-3-.9-.8-2-1.6-3.1-2.3-1.2-.7-2.5-1.3-3.9-1.8-1-.3-2-.6-3.1-.8-.6-.1-1.5-.2-2.3-.3h-1.2c-.5 0-1 0-1.5.1-.3 0-.6.1-.9.1-.1 0-.2.1 0 .1.9.1 1.8.3 2.7.6 1.1.3 2.2.8 3.2 1.2.7.4 1.5.8 2.1 1.2.9.6 1.9 1.3 2.6 2 .9.8 1.7 1.7 2.4 2.6.7 1 1.4 2 1.9 3 .4.7.8 1.5 1.1 2.3.2.6.4 1.2.6 1.8l.1.5c-.2.1-.1.3-.3.3m-15.1 43.6h8v-2.1h-5.1v-2.7h4.8v-2.1h-4.8v-1.9h5.1v-2.1h-8v10.9m-25.6-11l-4.1 11h2.9l.8-2.2h4.1l.8 2.2h2.9l-4.1-11h-3.3m.2 6.7l1.4-3.9 1.4 3.9h-2.8m19.2-6c-.4-.2-.8-.4-1.3-.5-.5-.1-1.1-.2-1.8-.2h-4.7v11h2.8v-3.6h1.8c.8 0 1.5-.1 2-.3.5-.2 1-.5 1.5-1 .3-.3.6-.7.7-1.2.2-.5.3-1 .3-1.4 0-.6-.1-1.2-.4-1.6-.1-.6-.4-.9-.9-1.2m-1.7 3.6c-.1.2-.2.4-.4.6-.2.2-.5.3-.8.4-.3 0-.7 0-1.2 0h-.8v-3.3h.5c.5 0 .8 0 1.1 0 .3 0 .6.1.9.2.2.1.4.2.6.5.2.2.2.5.2.8 0 .3 0 .6-.1.8m25-10.1c.7-.1 1.4-.3 2.1-.5.5-.2 1-.4 1.5-.6.2-.1.4-.3.6-.5.1-.1.1-.2.2-.3 0-.1 0-.2 0-.3 0-.1-.1-.2-.1-.3-.1-.2-.3-.3-.6-.4-.3-.2-.7-.3-1-.5-.7-.2-1.4-.5-2.2-.6-.7-.2-1.4-.3-2.2-.4-.5-.1-1.1-.2-1.7-.3-.4 0-.9-.1-1.4-.2-.2 0-.3-.1-.4-.1v-.1l.4-.3c.5-.3.9-.6 1.3-1 .5-.4 1-.8 1.5-1.3.6-.6 1.2-1.3 1.7-1.9.4-.5.8-1 1.1-1.5.3-.4.5-.9.8-1.3.4-.7.8-1.5 1.1-2.3.2-.5.4-1 .6-1.5.2-.5.3-1 .4-1.5 0-.1 0-.2 0-.3h-5.5c-.1.6-.3 1.2-.5 1.8l-.8 2c-.6 1.3-1.3 2.5-2.2 3.7-.6.8-1.3 1.6-2 2.3-.8.8-1.7 1.5-2.7 2.2-1 .6-2.1 1.2-3.2 1.8-1.2.5-2.1.8-3.2 1.2-.7.2-1.5.3-2.3.5-.8.1-1.6.2-2.4.2-.6 0-1.3 0-1.9-.1-.6-.1-1.1-.1-1.7-.2-.7-.1-1.4-.3-2.1-.5-.6-.2-1.2-.3-1.8-.6-.3-.1-.7-.2-1-.4l-.9-.4c-.5-.2-1-.5-1.4-.8l-2 .2-1.8.2-2.3.3c-1 .1-2.1.3-3.1.5-.7.1-1.3.3-2 .5-.4.3-.8.5-1.2.7-.2.1-.4.2-.6.4-.1.1-.2.2-.3.3 0 .1-.1.2-.1.3 0 .1 0 .2.1.3.1.1.2.2.3.3.3.2.7.4 1 .5l.6.2c1.2.4 2.3.7 3.4.9.9.2 1.8.3 2.7.4 1.5.1 2.9.3 4.4.4 1.7.2 3.4.2 5.2.3l5.7.1h4.8l3.2-.1c1.8-.1 3.6-.2 5.4-.3l4.1-.4c.8-.1 1.5-.2 2.2-.3.8-.1 1.5-.2 2.2-.4m22.7 16.8h1.5v-59.4h-1.5v59.4m84-51.8h-4v-2.1h3.5v-1.6h-3.5v-2h3.5v-1.7h-5.7v9.3h6.3v-1.9zm-57.4 25.8v9.3h5.7v-1.7h-3.5v-7.6h-2.2m27.7 9.3v-7.6h2.5v-1.7h-7.3v1.7h2.5v7.6h2.3m13-.8c.8.7 1.9 1 3.2 1 1.3 0 2.4-.3 3.2-1 1.1-.9 1.6-2.1 1.6-3.9 0-1.8-.5-3-1.6-3.8-.8-.7-1.9-1-3.2-1-1.3 0-2.3.3-3.2 1-1 .8-1.6 2.1-1.6 3.8 0 1.8.5 3 1.6 3.9m3.2-7c1.4 0 2.3 1.2 2.3 3.1 0 1.9-.9 3.1-2.3 3.1-1.4 0-2.3-1.2-2.3-3.2-.1-1.8.9-3 2.3-3m-40.1-27.1c-.8 0-1.4-.4-1.7-1.2l-2 .8c.3.8.6 1.1 1.1 1.4.7.4 1.4.6 2.5.6 1.1 0 1.9-.2 2.5-.7.8-.6 1.2-1.4 1.2-2.4 0-.8-.3-1.5-.8-1.9-.4-.3-1-.6-1.8-.9-1.2-.4-1.2-.4-1.4-.5-.3-.2-.5-.5-.5-.8 0-.6.5-1 1.1-1 .7 0 1.2.4 1.4 1.1l1.9-.9c-.5-1.2-1.5-1.8-3.2-1.8-1.1 0-1.9.3-2.5.8-.6.5-.9 1.2-.9 2 0 .6.3 1.3.6 1.7.4.4 1.2.9 1.9 1.1 1 .3 1 .3 1.3.5.4.2.6.5.6.9 0 .8-.5 1.2-1.3 1.2m6.2 17.4c.8.7 1.9 1 3.2 1 1.3 0 2.4-.3 3.2-1 1.1-.9 1.6-2.1 1.6-3.9 0-1.8-.5-3-1.6-3.8-.8-.7-1.9-1-3.2-1-1.3 0-2.3.3-3.2 1-1 .8-1.6 2.1-1.6 3.8 0 1.9.5 3 1.6 3.9m3.1-7c1.4 0 2.3 1.2 2.3 3.1 0 1.9-.9 3.1-2.3 3.1-1.4 0-2.3-1.2-2.3-3.2 0-1.7.9-3 2.3-3m10.9-8.6c1 0 1.9-.2 2.5-.6.6-.4.9-.8 1.3-1.7l-2-.9c-.2.5-.3.8-.5 1-.3.3-.8.5-1.3.5-1.4 0-2.3-1.1-2.3-3.1 0-1 .2-1.8.6-2.4.4-.5 1-.8 1.7-.8.5 0 1 .2 1.3.4.3.2.4.5.5 1.1l2-.9c-.4-1-.7-1.4-1.1-1.8-.5-.4-1.4-.6-2.5-.6-3.1 0-4.9 1.8-4.9 4.9-.1 3.2 1.6 4.9 4.7 4.9m-13.8-1c.8.7 1.9 1 3.2 1 1.3 0 2.4-.3 3.2-1 1.1-.9 1.6-2.1 1.6-3.9 0-1.8-.5-3-1.6-3.8-.8-.7-1.9-1-3.2-1-1.3 0-2.3.3-3.2 1-1 .8-1.6 2.1-1.6 3.8 0 1.8.5 3 1.6 3.9m3.2-7c1.4 0 2.3 1.2 2.3 3.1 0 1.9-.9 3.1-2.3 3.1-1.4 0-2.3-1.2-2.3-3.2-.1-1.8.8-3 2.3-3m-.8 33.5v-1.7h-5.8v9.3h6.3v-1.7h-4v-2.1h3.5v-1.6h-3.5v-2h3.5zm22.3-27.7h3.3l.7 2h2.3l-3.2-9.3h-2.5l-3.5 9.3h2.1l.8-2m1.7-4.9l1.1 3.3h-2.3l1.2-3.3m-30 18.6c.3-.5.5-1.1.5-1.7 0-1-.5-1.9-1.3-2.3-.5-.3-.9-.3-2.2-.3h-3.3v9.3h2.2v-3.7h.9l1.9 3.7h2.6l-2.3-4.1c.5-.4.7-.6 1-.9m-2.7-.5c-.2 0-.3.1-.8.1h-.6v-2.2h.5.3c1.1 0 1.5.3 1.5 1 0 .6-.3 1-.9 1.1m27.3-20.6h-2.2v9.3h2.2v-9.3m29.8 42.7h2.2v-9.3h-2.2v9.3m-11.1 16.7h2.2v-9.3h-2.2v9.3m6.8-20.2l-4.3-5.8h-2.1v9.3h2.2v-5.7l4.2 5.7h2.2v-9.3h-2.2v5.8m-62.9-31.8h3.3l.7 2h2.3l-3.2-9.3h-2.5l-3.5 9.3h2.1l.8-2m1.7-4.9l1.1 3.3h-2.3l1.2-3.3m91.9 30.7c-1.3 0-2.3.3-3.2 1-1 .8-1.6 2.1-1.6 3.8 0 1.9.5 3.1 1.6 3.9.8.7 1.9 1 3.2 1 1.3 0 2.4-.3 3.2-1 1.1-.9 1.6-2.1 1.6-3.9 0-1.8-.5-3-1.6-3.8-.8-.7-1.9-1-3.2-1m0 8c-1.4 0-2.3-1.2-2.3-3.2 0-1.9.9-3.1 2.3-3.1 1.4 0 2.3 1.2 2.3 3.1 0 1.9-.8 3.2-2.3 3.2m12.1-7.8v5.4c0 .8-.1 1.2-.2 1.5-.3.5-.8.8-1.6.8-.7 0-1.2-.3-1.5-.7-.2-.3-.3-.7-.3-1.7v-5.4h-2.2v5.5c0 1.3.1 1.9.5 2.5.6 1 1.8 1.6 3.5 1.6 1.6 0 2.7-.5 3.4-1.4.5-.6.6-1.3.6-2.7v-5.5h-2.2zm-53.2 23.9c-.3.3-.8.5-1.3.5-1.4 0-2.3-1.1-2.3-3.1 0-1 .2-1.8.6-2.4.4-.5 1-.8 1.7-.8.5 0 1 .2 1.3.4.3.2.4.5.5 1.1l2-.9c-.4-1-.7-1.4-1.1-1.8-.5-.4-1.4-.6-2.5-.6-3.1 0-4.9 1.8-4.9 4.9 0 3.2 1.7 4.9 4.8 4.9 1 0 1.9-.2 2.5-.6.6-.4.9-.8 1.3-1.7l-2-.9c-.3.5-.4.8-.6 1m36-23.9h-2.5l-3 4v-4h-2.2v9.3h2.2v-4.2l3.2 4.2h2.9l-3.8-5 3.2-4.3m-11.4 7.2c-.3.3-.8.5-1.3.5-1.4 0-2.3-1.1-2.3-3.1 0-1 .2-1.8.6-2.4.4-.5 1-.8 1.7-.8.5 0 1 .2 1.3.4.3.2.4.5.5 1.1l2-.9c-.4-1-.7-1.4-1.1-1.8-.5-.4-1.4-.6-2.5-.6-3.1 0-4.9 1.8-4.9 4.9 0 3.2 1.7 4.9 4.8 4.9 1 0 1.9-.2 2.5-.6.6-.4.9-.8 1.3-1.7l-2-.9c-.2.6-.3.8-.6 1m-22.9-34.3c-.2.5-.3.8-.5 1-.3.3-.8.5-1.3.5-1.5 0-2.3-1.1-2.3-3.1 0-1 .2-1.8.6-2.4.4-.5 1-.8 1.7-.8.5 0 1 .2 1.3.4.3.2.4.5.5 1.1l2-.9c-.4-1-.7-1.4-1.1-1.8-.5-.4-1.4-.6-2.5-.6-3.1 0-4.9 1.8-4.9 4.9 0 3.2 1.7 4.9 4.8 4.9 1 0 1.9-.2 2.5-.6.6-.4.9-.8 1.3-1.7l-2.1-.9m-50 10.9c-.6-.4-1.1-.5-2.2-.5h-3.6v9.3h2.2v-3.5h.6c1 0 1.8-.1 2.3-.4 1.1-.5 1.7-1.5 1.7-2.7 0-.9-.4-1.7-1-2.2m-3 3.6h-.6v-2.3h.6c.7 0 .9 0 1.1.1.4.2.6.5.6 1 0 .8-.5 1.2-1.7 1.2m4.9 29.3h-2.5l-3 4v-4h-2.2v9.3h2.2v-4.2l3.2 4.2h2.9l-3.8-5 3.2-4.3m-2-15v-1.7h-5.7v9.3h6.3v-1.7h-4v-2.1h3.5v-1.6h-3.5v-2h3.4zm7.1 14.7c-1.3 0-2.3.3-3.2 1-1 .8-1.6 2.1-1.6 3.8 0 1.9.5 3.1 1.6 3.9.8.7 1.9 1 3.2 1 1.3 0 2.4-.3 3.2-1 1.1-.9 1.6-2.1 1.6-3.9 0-1.8-.5-3-1.6-3.8-.8-.6-1.9-1-3.2-1m0 8c-1.4 0-2.3-1.2-2.3-3.2 0-1.9.9-3.1 2.3-3.1 1.4 0 2.3 1.2 2.3 3.1.1 2-.9 3.2-2.3 3.2m28.2-18.8h.9l1.9 3.7h2.6l-2.3-4.1c.6-.3.8-.5 1.1-.9.3-.5.5-1.1.5-1.7 0-1-.5-1.9-1.3-2.3-.5-.3-.9-.3-2.2-.3h-3.3v9.3h2.2v-3.7zm0-3.9h.5.3c1.1 0 1.5.3 1.5 1 0 .6-.3 1-.9 1.1-.2 0-.3.1-.8.1h-.6v-2.2m5.2 19.3c.3-.5.5-1.1.5-1.7 0-1-.5-1.9-1.3-2.3-.5-.3-.9-.3-2.2-.3h-3.3v9.3h2.2v-3.7h.9l1.9 3.7h2.6l-2.3-4.1c.5-.3.7-.5 1-.9m-2.7-.4c-.2 0-.3.1-.8.1h-.6v-2.2h.5.3c1.1 0 1.5.3 1.5 1 0 .5-.3.9-.9 1.1m-9.2 1.5h3.5v-1.6h-3.5v-2h3.5v-1.7h-5.7v9.3h6.3v-1.7h-4v-2.3zm-4-22.1h-2.5l-3 4v-4h-2.2v9.3h2.2v-4.2l3.2 4.2h2.9l-3.8-5 3.2-4.3m-5.7 22.6l-2.6-5.9h-2.8v9.3h2.2v-6l2.4 6h1.7l2.4-6v6h2.2v-9.3h-2.8l-2.7 5.9" fill="#fff" transform="matrix(.8089 0 0 .8089 19.11-3.413)"/></svg>