<?xml version="1.0"?><svg xmlns="http://www.w3.org/2000/svg" viewBox="0 0 200 90" enable-background="new 0 0 200 120" width="200" height="90"><path d="m73.4 62.5c-2.9-2-6-2.1-9.2-1.2-2.9.8-3.9 2.2-3.9 5.2 0 6.1 0 12.2 0 18.3v1.2h5.7v-1.3c0-6.1 0-12.2 0-18.3 0-.4 0-.7 0-1.1.1-.7.5-1.1 1.2-1.2 1.5-.1 2 .3 2 1.8 0 6.3 0 12.6 0 19v1h5.8c0-.2 0-.4 0-.5 0-6.6 0-13.2 0-19.8 0-1.3-.5-2.3-1.6-3.1m-27.3 23.6h12.4v-3.5h-6.6v-8.3h6.5v-3.3h-6.5v-6h6.7v-3.3h-12.5v24.4m8.2-36.3c0-5.1 0-10.2 0-15.4 0-.3 0-.6 0-1-.3 0-.4-.1-.6-.1-5.5 0-11 0-16.6 0-.3 0-.6 0-.9.1-4.4.9-7.1 4.1-7.1 8.7 0 5.2 0 10.3 0 15.5 0 .3 0 .6.1 1h1c5.1 0 10.2 0 15.4 0 5.1 0 8.7-3.6 8.7-8.8m-12.5 24.5c-.4-.1-.9-.3-1.5-.5 2.6-.7 3.4-1.8 3.4-4.2 0-1.3 0-2.5 0-3.8 0-1.4-.6-2.5-1.7-3.3-2.8-2.1-8.4-2.1-11.2 0-1.2.9-1.8 2-1.8 3.5 0 5.3 0 10.5 0 15.8 0 2.2 1 3.6 3.1 4.3.6.2 1.3.4 1.9.6h5c.2-.1.4-.2.6-.2 2.7-.5 4-1.9 4.2-4.7.1-1.7.1-3.4 0-5-.2-1.3-.9-2.1-2-2.5m-3.9 7.8c0 .9-.6 1.4-1.5 1.5-.9 0-1.6-.5-1.6-1.3-.1-2.2 0-4.5 0-6.8.6 0 1 .1 1.4.1 1.1.1 1.7.6 1.7 1.8.1 1.5 0 3.1 0 4.7m0-12.2c-.1 2-1 2.8-3.2 2.5 0-2.4 0-4.7 0-7.1 0-.8.5-1.2 1.3-1.3.8-.1 1.6.1 1.7.9.2 1.3.2 2.7.2 4 .2.4.1.7 0 1m-11.5-8.4c-.2-.1-.3-.1-.3-.1-5.9 0-11.7-.1-17.6.1-3.7.1-7.2 3.7-7.3 7.3-.1 5.5-.1 11-.1 16.5 0 .5.1.9.1 1.4h17.5c.1 0 .2-.1.3-.1 4.8-.9 7.4-4 7.4-8.9 0-5 0-10 0-15 0-.5 0-.9 0-1.2m-25.3-19c.1 0 .1 0 0 0 0 2.6-.1 5.3.1 7.9.2 4.7 3.8 8.1 8.5 8.1 5.2 0 10.4 0 15.6 0 .9 0 1.1-.3 1.1-1.1 0-5.2 0-10.3 0-15.5 0-4.9-3.6-8.5-8.5-8.6-5.2 0-10.4 0-15.6 0-.8 0-1.1.2-1.1 1.1 0 2.7-.1 5.4-.1 8.1m181.1 19.2h-5.8v1.2c0 6.4 0 12.7 0 19.1 0 .7-.1 1.3-.9 1.5-1.4.5-2.3-.2-2.3-1.6 0-6.3 0-12.6 0-19 0-.4 0-.8 0-1.2h-5.7v1.1c0 6.3 0 12.6 0 19 0 1.6.7 2.8 2 3.6.9.5 1.8.8 2.8 1.2h5.2c.6-.2 1.1-.4 1.7-.6 2.3-1 3.1-2.2 3.1-4.7 0-6.2 0-12.4 0-18.6-.1-.3-.1-.7-.1-1m-22.6-.1h-5.7v24.4h12.5v-3.5h-6.9v-20.9zm-7.2 4.1c0-1.4-.5-2.4-1.7-3.2-2.7-1.9-5.8-1.9-8.8-1.1-3 .8-4.3 2.4-4.2 5.6.1 5.9 0 11.9 0 17.8v1.1h5.8v-10.1c1.4-.2 2.8-.3 4.1-.5 2.5-.5 5.2-3 4.9-6.1-.1-1.2-.1-2.3-.1-3.5m-5.7 4.3c-.1 1.9-1.1 2.7-3.2 2.4 0-2.3 0-4.7 0-7 0-.8.5-1.2 1.3-1.3.8-.1 1.6.2 1.7 1 .2 1.3.2 2.7.2 4.1.1.2 0 .5 0 .8m49.5 4.5c-1.2-1-2.4-1.9-3.6-2.9-1.8-1.4-2.9-3.2-2.9-5.6 0-1.1.4-1.8 1.2-1.9 1-.2 1.7.2 2 1.3.2.7.2 1.5.2 2.2 0 1-.1 1.9-.2 3h5.7c.1-1.4.2-2.7.2-3.9 0-2.8-1.3-4.6-3.9-5.3-2.5-.6-5.1-.6-7.6.1-2.3.6-3.3 2.1-3.4 4.5 0 .5 0 .9 0 1.4-.2 2.4 1 4.1 2.7 5.6 1.3 1.1 2.6 2.2 4 3.2 1.9 1.4 2.6 3.3 2.4 5.6-.1 1.1-.7 1.7-1.8 1.7-1 0-1.5-.5-1.6-1.6 0-.8 0-1.5 0-2.3 0-1 0-2.1 0-3.1h-5.6c0 1.9-.2 3.8 0 5.6.2 2.1 1.4 3.5 3.5 4.1.4.1.8.3 1.2.4h5.2c.2-.1.4-.1.6-.2 2-.5 3.7-1.4 4.1-3.6.2-1 0-2.1.1-3.1.2-2.2-.9-3.8-2.5-5.2m-113.2-.2h6.6v-3.3h-6.6v-6.1h6.8v-3.3h-12.5v24.4h12.6v-3.4h-6.9v-8.3m8.8 11.7h5.7v-11.7h6.5v-3.3h-6.5v-6h6.7v-3.3h-12.4v24.3m13.9.1h5.6v-24.4h-5.6v24.4m6.7-21.3h4.9v21.3c1.7 0 3.2 0 4.7 0 .9 0 1-.3 1-1.1 0-6.3 0-12.7 0-19 0-.4 0-.8.1-1.2h4.7v-3.1h-15.4v3.1" fill="#fff" transform="matrix(.8092 0 0 .8092 19.13-3.552)"/></svg>