<?xml version="1.0" encoding="UTF-8" standalone="no"?>
<svg
   xmlns:dc="http://purl.org/dc/elements/1.1/"
   xmlns:cc="http://creativecommons.org/ns#"
   xmlns:rdf="http://www.w3.org/1999/02/22-rdf-syntax-ns#"
   xmlns:svg="http://www.w3.org/2000/svg"
   xmlns="http://www.w3.org/2000/svg"
   xmlns:sodipodi="http://sodipodi.sourceforge.net/DTD/sodipodi-0.dtd"
   xmlns:inkscape="http://www.inkscape.org/namespaces/inkscape"
   viewBox="0 0 50 50"
   enable-background="new 0 0 50 50"
   width="50"
   height="50"
   id="svg2"
   version="1.1"
   inkscape:version="0.48.5 r10040"
   sodipodi:docname="heureka-color.svg">
  <metadata
     id="metadata62">
    <rdf:RDF>
      <cc:Work
         rdf:about="">
        <dc:format>image/svg+xml</dc:format>
        <dc:type
           rdf:resource="http://purl.org/dc/dcmitype/StillImage" />
      </cc:Work>
    </rdf:RDF>
  </metadata>
  <defs
     id="defs60" />
  <sodipodi:namedview
     pagecolor="#737373"
     bordercolor="#666666"
     borderopacity="1"
     objecttolerance="10"
     gridtolerance="10"
     guidetolerance="10"
     inkscape:pageopacity="1"
     inkscape:pageshadow="2"
     inkscape:window-width="1920"
     inkscape:window-height="1178"
     id="namedview58"
     showgrid="false"
     inkscape:zoom="22.627417"
     inkscape:cx="16.605171"
     inkscape:cy="28.008131"
     inkscape:window-x="-8"
     inkscape:window-y="-8"
     inkscape:window-maximized="1"
     inkscape:current-layer="svg2"
     fit-margin-top="0"
     fit-margin-left="0"
     fit-margin-right="0"
     fit-margin-bottom="0" />
  <circle
     r="219.7"
     cy="282"
     cx="307.20001"
     stroke-miterlimit="10"
     id="circle8"
     d="m 526.90001,282 c 0,121.33696 -98.36304,219.7 -219.7,219.7 -121.33696,0 -219.699995,-98.36304 -219.699995,-219.7 0,-121.33696 98.363035,-219.699997 219.699995,-219.699997 121.33696,0 219.7,98.363037 219.7,219.699997 z"
     sodipodi:cx="307.20001"
     sodipodi:cy="282"
     sodipodi:rx="219.7"
     sodipodi:ry="219.7"
     style="fill:#ffffff;stroke:#f3c400;stroke-width:11;stroke-miterlimit:10;stroke-opacity:1"
     transform="matrix(0.11101244,0,0,0.11101244,-9.1030212,-6.3055067)" />
  <g
     id="g3860"
     transform="matrix(0.69443535,0,0,0.69443535,-44.444225,-6.2498685)">
    <path
       inkscape:connector-curvature="0"
       id="path12"
       d="m 113.625,59.5625 c -0.31972,0 -0.5625,0.21153 -0.5625,0.53125 l 0,6.46875 c 0,0.31972 0.24278,0.53125 0.5625,0.53125 0.30373,0 0.5625,-0.21153 0.5625,-0.53125 l 0,-1.53125 0.34375,-0.25 1.5625,2.09375 c 0.0959,0.127892 0.21442,0.21947 0.40625,0.1875 0.30373,0 0.5625,-0.227516 0.5625,-0.53125 0,-0.111902 -0.0451,-0.231848 -0.125,-0.34375 l -1.53125,-2 1.375,-1.03125 C 116.90917,63.044348 117,62.87861 117,62.71875 c 0,-0.303734 -0.25877,-0.5625 -0.5625,-0.5625 -0.12789,0 -0.21586,0.04435 -0.34375,0.15625 l -1.90625,1.5 0,-3.71875 c 0,-0.31972 -0.24278,-0.53125 -0.5625,-0.53125 z M 88.84375,59.90625 C 88.508044,59.90625 88.25,60.164294 88.25,60.5 l 0,6 c 0,0.335706 0.258044,0.59375 0.59375,0.59375 0.335706,0 0.59375,-0.258044 0.59375,-0.59375 l 0,-2.53125 3,0 0,2.53125 c 0,0.335706 0.289294,0.59375 0.625,0.59375 0.335706,0 0.59375,-0.258044 0.59375,-0.59375 l 0,-6 c 0,-0.335706 -0.258044,-0.59375 -0.59375,-0.59375 -0.335706,0 -0.59375,0.258044 -0.59375,0.59375 l 0,2.375 -3.03125,0 0,-2.375 c 0,-0.335706 -0.258044,-0.59375 -0.59375,-0.59375 z M 96.875,62.125 c -1.422754,0 -2.28197,0.916664 -2.25,2.53125 0,1.742474 0.889024,2.53125 2.34375,2.53125 0.943174,0 1.511654,-0.43389 1.6875,-0.59375 0.09592,-0.07993 0.1875,-0.21514 0.1875,-0.375 0,-0.271762 -0.228238,-0.5 -0.5,-0.5 -0.143874,0 -0.231848,0.04507 -0.34375,0.125 -0.255776,0.15986 -0.567656,0.3125 -1.03125,0.3125 -0.687398,0 -1.21875,-0.373658 -1.21875,-1.125 l 2.5625,0 c 0.63944,0 0.65625,-0.428836 0.65625,-0.8125 0,-0.71937 -0.33529,-2.09375 -2.09375,-2.09375 z m 10.1875,0 c -0.4476,0 -0.93317,0.28785 -1.125,0.6875 l 0,-0.0625 c 0,-0.303734 -0.24278,-0.5625 -0.5625,-0.5625 -0.30374,0 -0.5625,0.24278 -0.5625,0.5625 l 0,3.78125 c 0,0.303734 0.24278,0.5625 0.5625,0.5625 0.30373,0 0.5625,-0.24278 0.5625,-0.5625 l 0,-2.15625 c 0,-0.703384 0.40563,-1.1875 1.125,-1.1875 0.28775,0 0.53125,-0.243502 0.53125,-0.53125 0,-0.287748 -0.2435,-0.53125 -0.53125,-0.53125 z m 3.0625,0 c -1.42276,0 -2.23475,0.916664 -2.21875,2.53125 0,1.742474 0.88902,2.53125 2.34375,2.53125 0.94317,0 1.51165,-0.43389 1.6875,-0.59375 0.0959,-0.07993 0.15625,-0.21514 0.15625,-0.375 0,-0.271762 -0.22824,-0.5 -0.5,-0.5 -0.14388,0 -0.2006,0.04507 -0.3125,0.125 -0.25577,0.15986 -0.5989,0.3125 -1.0625,0.3125 -0.6874,0 -1.1875,-0.373658 -1.1875,-1.125 l 2.5625,0 c 0.63944,0 0.625,-0.428836 0.625,-0.8125 0,-0.71937 -0.33529,-2.09375 -2.09375,-2.09375 z m 9.46875,0 c -0.89521,0 -1.431,0.33653 -1.71875,0.65625 -0.0799,0.111902 -0.125,0.263098 -0.125,0.375 0,0.271762 0.22824,0.46875 0.5,0.46875 0.12789,0 0.2006,-0.01382 0.3125,-0.09375 0.27176,-0.191832 0.58436,-0.39026 1,-0.40625 0.59148,0 0.9375,0.317656 0.9375,0.78125 l 0,0.1875 -1.375,0 c -0.9112,0 -1.6875,0.493604 -1.6875,1.46875 0,0.943174 0.69565,1.59375 1.71875,1.59375 0.63944,0 1.08725,-0.177392 1.375,-0.625 0,0.303734 0.25876,0.5625 0.5625,0.5625 0.30373,0 0.5625,-0.258766 0.5625,-0.5625 l 0,-2.65625 c 0,-1.103034 -0.76763,-1.75 -2.0625,-1.75 z M 100.25,62.1875 c -0.303732,0 -0.5625,0.24278 -0.5625,0.5625 l 0,2.4375 c 0,1.023104 0.38397,1.96875 2.0625,1.96875 1.67853,0 2.0625,-0.945646 2.0625,-1.96875 l 0,-2.4375 c 0,-0.303734 -0.24278,-0.5625 -0.5625,-0.5625 -0.30373,0 -0.5625,0.24278 -0.5625,0.5625 l 0,2.4375 c 0,0.47958 -0.17017,0.9375 -0.9375,0.9375 -0.78331,0 -0.9375,-0.45792 -0.9375,-0.9375 l 0,-2.4375 c 0,-0.31972 -0.24278,-0.5625 -0.5625,-0.5625 z m -3.40625,0.90625 c 0.687398,0 0.96875,0.488448 0.96875,1 l -2.0625,0 c 0.04796,-0.671412 0.502268,-1 1.09375,-1 z m 13.28125,0 c 0.6874,0 0.96875,0.488448 0.96875,1 l -2.0625,0 c 0.048,-0.671412 0.50227,-1 1.09375,-1 z m 9.21875,1.875 1.21875,0 0,0.3125 c 0,0.591482 -0.51897,0.9375 -1.0625,0.9375 -0.57549,0 -0.84375,-0.2566 -0.84375,-0.65625 0,-0.367678 0.22391,-0.59375 0.6875,-0.59375 z"
       style="fill:#30a9d4;fill-opacity:1" />
    <path
       d="M 86.253032,66.629458 84.86225,65.238676 c 0.591482,-0.655426 0.943174,-1.51867 0.943174,-2.47783 0,-2.046208 -1.662544,-3.708752 -3.708752,-3.708752 -2.046208,0 -3.708752,1.662544 -3.708752,3.708752 0,2.046208 1.662544,3.708752 3.708752,3.708752 0.623454,0 1.214936,-0.15986 1.742474,-0.431622 l 1.502684,1.502684 c 0.255776,0.255776 0.655426,0.255776 0.911202,0 0.255776,-0.255776 0.255776,-0.671412 0,-0.911202 M 79.442996,62.74486 c 0,-1.470712 1.19895,-2.669662 2.669662,-2.669662 0.543524,0 1.03909,0.15986 1.454726,0.431622 l -1.534656,2.461844 -0.63944,-0.831272 c -0.09592,-0.127888 -0.23979,-0.191832 -0.39965,-0.191832 -0.111902,0 -0.207818,0.03197 -0.303734,0.09592 -0.223804,0.15986 -0.255776,0.47958 -0.09592,0.687398 l 1.071062,1.406768 c 0.09592,0.127888 0.23979,0.191832 0.39965,0.191832 0,0 0.01599,0 0.01599,0 0.15986,0 0.31972,-0.09592 0.39965,-0.23979 l 1.806418,-2.893466 c 0.303734,0.431622 0.47958,0.95916 0.47958,1.51867 0,1.470712 -1.19895,2.669662 -2.669662,2.669662 -1.454726,0.03197 -2.653676,-1.166978 -2.653676,-2.63769"
       id="path26"
       inkscape:connector-curvature="0"
       style="fill:#ff7a04;fill-opacity:1" />
  </g>
  <g
     style="fill:#ffffff"
     id="g28"
     transform="matrix(0.11101244,0,0,0.11101244,-9.1030212,64.964477)">
    <path
       inkscape:connector-curvature="0"
       id="path30"
       d="m 302.1,-432.4 h -5.6 v 15 h 6.3 c 5.2,0 8.8,-2.9 8.8,-8.5 0,-5.1 -3.4,-6.5 -9.5,-6.5" />
    <path
       inkscape:connector-curvature="0"
       id="path32"
       d="m 429.9,-399.2 c 7.2,0 13.2,-4.6 13.2,-17.2 0,-12.5 -5.9,-16.8 -13.2,-16.8 -7.2,0 -13,4.4 -13,16.9 0,12.6 5.9,17.1 13,17.1" />
  </g>
  <path
     style="fill:#ffffff"
     d="m 11.645203,20.648313 c 0.799289,0 1.465364,-0.510658 1.465364,-1.909414 0,-1.387656 -0.654973,-1.865009 -1.465364,-1.865009 -0.79929,0 -1.443162,0.488454 -1.443162,1.87611 0,1.398757 0.654974,1.898313 1.443162,1.898313"
     id="path38"
     inkscape:connector-curvature="0" />
  <path
     style="fill:#f3c400;fill-opacity:1"
     d="M 25 2.25 C 12.433394 2.25 2.25 12.433392 2.25 25 C 2.25 27.331261 2.6061279 29.578264 3.25 31.6875 L 46.75 31.6875 C 47.40497 29.567162 47.75 27.331261 47.75 25 C 47.761111 12.433392 37.566607 2.25 25 2.25 z M 25.03125 3.625 L 25.96875 5.53125 L 28.0625 5.8125 L 26.53125 7.28125 L 26.90625 9.375 L 25.03125 8.40625 L 23.15625 9.375 L 23.5 7.28125 L 21.96875 5.8125 L 24.09375 5.53125 L 25.03125 3.625 z M 17.15625 6.46875 L 17.8125 7.8125 L 19.3125 8.03125 L 18.21875 9.09375 L 18.46875 10.59375 L 17.15625 9.875 L 15.8125 10.59375 L 16.0625 9.09375 L 15 8.03125 L 16.5 7.8125 L 17.15625 6.46875 z M 32.8125 6.46875 L 33.46875 7.8125 L 34.96875 8.03125 L 33.875 9.09375 L 34.125 10.59375 L 32.8125 9.875 L 31.46875 10.59375 L 31.71875 9.09375 L 30.65625 8.03125 L 32.125 7.8125 L 32.8125 6.46875 z M 12.15625 9.3125 L 12.71875 10.46875 L 13.96875 10.625 L 13.0625 11.5 L 13.28125 12.75 L 12.15625 12.15625 L 11.0625 12.75 L 11.28125 11.5 L 10.375 10.625 L 11.625 10.46875 L 12.15625 9.3125 z M 37.84375 9.3125 L 38.40625 10.46875 L 39.65625 10.625 L 38.75 11.5 L 38.96875 12.75 L 37.84375 12.15625 L 36.71875 12.75 L 36.9375 11.5 L 36.03125 10.625 L 37.28125 10.46875 L 37.84375 9.3125 z M 19.15625 14.65625 L 20 14.65625 L 20.75 15.25 L 21.40625 14.65625 L 22.25 14.65625 L 21.15625 15.90625 L 20.3125 15.90625 L 19.15625 14.65625 z M 23.15625 14.65625 L 24 14.65625 L 24.75 15.25 L 25.40625 14.65625 L 26.25 14.65625 L 25.1875 15.90625 L 24.34375 15.90625 L 23.15625 14.65625 z M 11.65625 16.0625 C 13.099412 16.0625 14 17.018206 14 18.75 C 14 20.459591 13.110513 21.4375 11.65625 21.4375 C 10.213089 21.4375 9.28125 20.481794 9.28125 18.75 C 9.28125 17.05151 10.213089 16.0625 11.65625 16.0625 z M 38.625 16.0625 C 40.079266 16.0625 41 17.018206 41 18.75 C 41 20.459591 40.079266 21.4375 38.625 21.4375 C 37.181838 21.4375 36.25 20.481794 36.25 18.75 C 36.25 17.05151 37.181838 16.0625 38.625 16.0625 z M 14.1875 16.15625 L 15.09375 16.15625 L 16.5 20.34375 L 17.875 16.15625 L 18.71875 16.15625 L 17 21.34375 L 15.96875 21.34375 L 14.1875 16.15625 z M 19.15625 16.15625 L 22 16.15625 L 22 16.9375 L 20.03125 16.9375 L 20.03125 18.34375 L 21.875 18.34375 L 21.875 19.0625 L 20.03125 19.0625 L 20.03125 20.59375 L 22 20.59375 L 22 21.34375 L 19.15625 21.34375 L 19.15625 16.15625 z M 22.96875 16.15625 L 24.40625 16.15625 C 25.68289 16.15625 26.34375 16.655084 26.34375 17.6875 C 26.34375 18.386878 26.009825 18.816219 25.34375 19.09375 L 26.875 21.34375 L 25.78125 21.34375 L 24.5 19.25 L 23.8125 19.25 L 23.8125 21.34375 L 22.96875 21.34375 L 22.96875 16.15625 z M 27.375 16.15625 L 30.21875 16.15625 L 30.21875 16.9375 L 28.21875 16.9375 L 28.21875 18.34375 L 30.0625 18.34375 L 30.0625 19.0625 L 28.21875 19.0625 L 28.21875 20.59375 L 30.21875 20.59375 L 30.21875 21.34375 L 27.375 21.34375 L 27.375 16.15625 z M 31.15625 16.15625 L 32.1875 16.15625 L 34.65625 20.28125 C 34.61181 19.992617 34.59375 19.326432 34.59375 18.59375 L 34.59375 16.15625 L 35.34375 16.15625 L 35.34375 21.34375 L 34.28125 21.34375 L 31.84375 17.28125 C 31.89924 17.736401 31.90625 18.264043 31.90625 19.21875 L 31.90625 21.34375 L 31.15625 21.34375 L 31.15625 16.15625 z M 11.65625 16.875 C 10.85696 16.875 10.1875 17.362344 10.1875 18.75 C 10.1875 20.148757 10.868062 20.65625 11.65625 20.65625 C 12.455539 20.65625 13.125 20.148756 13.125 18.75 C 13.125 17.362344 12.466641 16.875 11.65625 16.875 z M 38.625 16.875 C 37.825712 16.875 37.1875 17.362344 37.1875 18.75 C 37.1875 20.137655 37.836816 20.65625 38.625 20.65625 C 39.424295 20.65625 40.09375 20.148756 40.09375 18.75 C 40.09375 17.362344 39.435392 16.875 38.625 16.875 z M 23.8125 16.96875 L 23.8125 18.625 L 24.5 18.625 C 25.077265 18.625 25.5 18.309169 25.5 17.6875 C 25.5 17.121336 25.114675 16.96875 24.4375 16.96875 L 23.8125 16.96875 z M 14.78125 22.125 L 15.625 22.15625 L 14.6875 23.09375 L 14.09375 23.09375 L 14.78125 22.125 z M 33.65625 22.125 L 34.46875 22.15625 L 33.53125 23.09375 L 32.9375 23.09375 L 33.65625 22.125 z M 9.375 23.40625 L 12.3125 23.40625 L 12.3125 23.9375 L 10.21875 27 L 12.3125 27 L 12.3125 27.65625 L 9.28125 27.65625 L 9.28125 27.15625 L 11.375 24.0625 L 9.375 24.0625 L 9.375 23.40625 z M 14.03125 23.40625 L 14.8125 23.40625 L 16.4375 27.65625 L 15.625 27.65625 L 15.21875 26.4375 L 13.6875 26.4375 L 13.28125 27.65625 L 12.46875 27.65625 L 14.03125 23.40625 z M 16.6875 23.40625 L 17.4375 23.40625 L 17.4375 25.28125 L 19.0625 23.40625 L 19.875 23.40625 L 18.34375 25.21875 L 20 27.6875 L 19.125 27.6875 L 19.125 27.65625 L 17.78125 25.71875 L 17.4375 26.0625 L 17.4375 27.65625 L 16.6875 27.65625 L 16.6875 23.40625 z M 21.84375 23.40625 L 22.625 23.40625 L 24.25 27.65625 L 23.4375 27.65625 L 23.03125 26.4375 L 21.5 26.4375 L 21.09375 27.65625 L 20.28125 27.65625 L 21.84375 23.40625 z M 24.6875 23.40625 L 27.625 23.40625 L 27.625 23.9375 L 25.53125 27 L 27.65625 27 L 27.65625 27.65625 L 24.59375 27.65625 L 24.59375 27.15625 L 26.71875 24.0625 L 24.6875 24.0625 L 24.6875 23.40625 z M 28.46875 23.40625 L 29.34375 23.40625 L 31.34375 26.78125 C 31.29938 26.548124 31.3125 25.974467 31.3125 25.375 L 31.3125 23.40625 L 31.9375 23.40625 L 31.9375 27.625 L 31.90625 27.625 L 31.03125 27.625 L 29.03125 24.3125 C 29.07562 24.689942 29.125 25.118061 29.125 25.90625 L 29.125 27.625 L 28.46875 27.625 L 28.46875 23.40625 z M 32.84375 23.40625 L 33.6875 23.40625 L 33.6875 27.65625 L 32.84375 27.65625 L 32.84375 23.40625 z M 34.5 23.40625 L 35.25 23.40625 L 35.25 25.28125 L 36.875 23.40625 L 37.6875 23.40625 L 38.46875 23.40625 L 39.4375 25.28125 L 40.4375 23.40625 L 41.15625 23.40625 L 39.84375 25.9375 L 39.84375 27.65625 L 39.03125 27.65625 L 39.03125 25.9375 L 37.6875 23.40625 L 36.15625 25.21875 L 37.8125 27.6875 L 36.9375 27.6875 L 36.9375 27.65625 L 35.59375 25.71875 L 35.25 26.0625 L 35.25 27.65625 L 34.5 27.65625 L 34.5 23.40625 z M 14.4375 24.03125 L 13.875 25.875 L 15.03125 25.875 L 14.4375 24.03125 z M 22.25 24.03125 L 21.65625 25.875 L 22.84375 25.875 L 22.25 24.03125 z "
     id="path3052" />
</svg>
