<?xml version="1.0" encoding="UTF-8" standalone="no"?>
<svg
   xmlns:dc="http://purl.org/dc/elements/1.1/"
   xmlns:cc="http://creativecommons.org/ns#"
   xmlns:rdf="http://www.w3.org/1999/02/22-rdf-syntax-ns#"
   xmlns:svg="http://www.w3.org/2000/svg"
   xmlns="http://www.w3.org/2000/svg"
   xmlns:sodipodi="http://sodipodi.sourceforge.net/DTD/sodipodi-0.dtd"
   xmlns:inkscape="http://www.inkscape.org/namespaces/inkscape"
   viewBox="0 0 200 90"
   enable-background="new 0 0 612 792"
   width="200"
   height="90"
   id="svg2"
   version="1.1"
   inkscape:version="0.48.5 r10040"
   sodipodi:docname="heureka.svg">
  <metadata
     id="metadata62">
    <rdf:RDF>
      <cc:Work
         rdf:about="">
        <dc:format>image/svg+xml</dc:format>
        <dc:type
           rdf:resource="http://purl.org/dc/dcmitype/StillImage" />
      </cc:Work>
    </rdf:RDF>
  </metadata>
  <defs
     id="defs60" />
  <sodipodi:namedview
     pagecolor="#000000"
     bordercolor="#666666"
     borderopacity="1"
     objecttolerance="10"
     gridtolerance="10"
     guidetolerance="10"
     inkscape:pageopacity="1"
     inkscape:pageshadow="2"
     inkscape:window-width="1920"
     inkscape:window-height="1178"
     id="namedview58"
     showgrid="false"
     inkscape:zoom="5.4166445"
     inkscape:cx="129.91261"
     inkscape:cy="45.080355"
     inkscape:window-x="-8"
     inkscape:window-y="-8"
     inkscape:window-maximized="1"
     inkscape:current-layer="svg2" />
  <g
     id="g6"
     transform="matrix(0.15986,0,0,0.15986,50.892,-0.08012)">
    <circle
       style="fill:none;stroke:#ffffff;stroke-width:11;stroke-miterlimit:10"
       sodipodi:ry="219.7"
       sodipodi:rx="219.7"
       sodipodi:cy="282"
       sodipodi:cx="307.20001"
       d="m 526.90001,282 c 0,121.33696 -98.36304,219.7 -219.7,219.7 -121.33696,0 -219.699995,-98.36304 -219.699995,-219.7 0,-121.33696 98.363035,-219.699997 219.699995,-219.699997 121.33696,0 219.7,98.363037 219.7,219.699997 z"
       id="circle8"
       stroke-miterlimit="10"
       cx="307.20001"
       cy="282"
       r="219.7" />
    <g
       style="fill:#ffffff"
       id="g10">
      <path
         inkscape:connector-curvature="0"
         id="path12"
         d="m 267.5,416.5 c 0,2.1 -1.7,3.8 -3.8,3.8 -2.1,0 -3.8,-1.7 -3.8,-3.8 v -15.8 h -18.7 v 15.8 c 0,2.1 -1.7,3.8 -3.8,3.8 -2.1,0 -3.8,-1.7 -3.8,-3.8 V 379 c 0,-2.1 1.7,-3.8 3.8,-3.8 2.1,0 3.8,1.7 3.8,3.8 v 14.8 H 260 V 379 c 0,-2.1 1.7,-3.8 3.8,-3.8 2.1,0 3.8,1.7 3.8,3.8 v 37.5 z" />
      <path
         inkscape:connector-curvature="0"
         id="path14"
         d="m 287.6,389.2 c 11,0 13.1,8.5 13.1,13 0,2.4 0,5.2 -4,5.2 h -16.1 c 0,4.7 3.3,6.9 7.6,6.9 2.9,0 4.9,-1 6.5,-2 0.7,-0.5 1.2,-0.7 2.1,-0.7 1.7,0 3.1,1.4 3.1,3.1 0,1 -0.5,1.9 -1.1,2.4 -1.1,1 -4.6,3.6 -10.5,3.6 -9.1,0 -14.7,-4.9 -14.7,-15.8 -0.2,-10.1 5.1,-15.7 14,-15.7 m -6.9,12.3 h 12.9 c 0,-3.2 -1.8,-6.3 -6.1,-6.3 -3.7,0 -6.5,2.1 -6.8,6.3" />
      <path
         inkscape:connector-curvature="0"
         id="path16"
         d="m 312.3,393.1 v 15.2 c 0,3 1,5.9 5.9,5.9 4.8,0 5.8,-2.9 5.8,-5.9 v -15.2 c 0,-2 1.6,-3.5 3.5,-3.5 2,0 3.5,1.6 3.5,3.5 v 15.2 c 0,6.4 -2.4,12.3 -12.9,12.3 -10.5,0 -12.9,-5.9 -12.9,-12.3 v -15.2 c 0,-2 1.6,-3.5 3.5,-3.5 2,0 3.6,1.5 3.6,3.5" />
      <path
         inkscape:connector-curvature="0"
         id="path18"
         d="m 344.3,393.4 c 1.2,-2.5 4.3,-4.2 7.1,-4.2 1.8,0 3.3,1.5 3.3,3.3 0,1.8 -1.5,3.3 -3.3,3.3 -4.5,0 -7.1,2.9 -7.1,7.3 v 13.6 c 0,2 -1.6,3.5 -3.5,3.5 -2,0 -3.5,-1.6 -3.5,-3.5 V 393 c 0,-2 1.6,-3.5 3.5,-3.5 2,0 3.5,1.6 3.5,3.5 v 0.4" />
      <path
         inkscape:connector-curvature="0"
         id="path20"
         d="m 370.6,389.2 c 11,0 13.1,8.5 13.1,13 0,2.4 0,5.2 -4,5.2 h -16.1 c 0,4.7 3.3,6.9 7.6,6.9 2.9,0 4.9,-1 6.5,-2 0.7,-0.5 1.2,-0.7 2.1,-0.7 1.7,0 3.1,1.4 3.1,3.1 0,1 -0.5,1.9 -1.1,2.4 -1.1,1 -4.6,3.6 -10.5,3.6 -9.1,0 -14.7,-4.9 -14.7,-15.8 -0.1,-10.1 5.1,-15.7 14,-15.7 m -6.9,12.3 h 12.9 c 0,-3.2 -1.8,-6.3 -6.1,-6.3 -3.7,0 -6.5,2.1 -6.8,6.3" />
      <path
         inkscape:connector-curvature="0"
         id="path22"
         d="m 407.8,418.9 -9.7,-13.1 -2.1,1.6 v 9.4 c 0,2 -1.6,3.4 -3.5,3.4 -2,0 -3.5,-1.4 -3.5,-3.4 v -40.3 c 0,-2 1.5,-3.4 3.5,-3.4 2,0 3.5,1.4 3.5,3.4 v 23.1 l 11.8,-9.3 c 0.8,-0.7 1.5,-0.9 2.3,-0.9 1.9,0 3.4,1.5 3.4,3.4 0,1 -0.5,2 -1.3,2.7 l -8.6,6.5 9.6,12.6 c 0.5,0.7 0.7,1.4 0.7,2.1 0,1.9 -1.5,3.4 -3.4,3.4 -1.2,0.2 -2.1,-0.4 -2.7,-1.2" />
      <path
         inkscape:connector-curvature="0"
         id="path24"
         d="m 423.3,397.9 c -0.7,0.5 -1.2,0.7 -2,0.7 -1.7,0 -3.1,-1.4 -3.1,-3.1 0,-0.7 0.3,-1.5 0.8,-2.2 1.8,-2 5.1,-4.2 10.7,-4.2 8.1,0 12.9,4 12.9,10.9 v 16.7 c 0,1.9 -1.6,3.5 -3.5,3.5 -1.9,0 -3.5,-1.6 -3.5,-3.5 -1.8,2.8 -4.6,3.8 -8.6,3.8 -6.4,0 -10.7,-4 -10.7,-9.9 0,-6.1 4.9,-9.2 10.6,-9.2 h 8.6 v -1.2 c 0,-2.9 -2.2,-4.9 -5.9,-4.9 -2.6,0.1 -4.6,1.4 -6.3,2.6 m 12.5,10.9 V 407 h -7.6 c -2.9,0 -4.4,1.4 -4.4,3.7 0,2.5 1.8,4 5.4,4 3.4,0 6.6,-2.2 6.6,-5.9" />
      <path
         inkscape:connector-curvature="0"
         id="path26"
         d="m 221.2,417.3 -8.7,-8.7 c 3.7,-4.1 5.9,-9.5 5.9,-15.5 0,-12.8 -10.4,-23.2 -23.2,-23.2 -12.8,0 -23.2,10.4 -23.2,23.2 0,12.8 10.4,23.2 23.2,23.2 3.9,0 7.6,-1 10.9,-2.7 l 9.4,9.4 c 1.6,1.6 4.1,1.6 5.7,0 1.6,-1.6 1.6,-4.2 0,-5.7 M 178.6,393 c 0,-9.2 7.5,-16.7 16.7,-16.7 3.4,0 6.5,1 9.1,2.7 l -9.6,15.4 -4,-5.2 c -0.6,-0.8 -1.5,-1.2 -2.5,-1.2 -0.7,0 -1.3,0.2 -1.9,0.6 -1.4,1 -1.6,3 -0.6,4.3 l 6.7,8.8 c 0.6,0.8 1.5,1.2 2.5,1.2 0,0 0.1,0 0.1,0 1,0 2,-0.6 2.5,-1.5 l 11.3,-18.1 c 1.9,2.7 3,6 3,9.5 0,9.2 -7.5,16.7 -16.7,16.7 -9.1,0.2 -16.6,-7.3 -16.6,-16.5" />
    </g>
  </g>
  <g
     style="fill:#ffffff"
     id="g28"
     transform="matrix(0.15986,0,0,0.15986,50.892,102.55)">
    <path
       inkscape:connector-curvature="0"
       id="path30"
       d="m 302.1,-432.4 h -5.6 v 15 h 6.3 c 5.2,0 8.8,-2.9 8.8,-8.5 0,-5.1 -3.4,-6.5 -9.5,-6.5" />
    <path
       inkscape:connector-curvature="0"
       id="path32"
       d="m 429.9,-399.2 c 7.2,0 13.2,-4.6 13.2,-17.2 0,-12.5 -5.9,-16.8 -13.2,-16.8 -7.2,0 -13,4.4 -13,16.9 0,12.6 5.9,17.1 13,17.1" />
  </g>
  <path
     style="fill:#ffffff"
     inkscape:connector-curvature="0"
     id="0"
     d="m 83.967034,46.247308 h 1.67853 l -0.847258,-2.63769 z" />
  <path
     style="fill:#ffffff"
     inkscape:connector-curvature="0"
     id="1"
     d="m 95.205192,46.247308 h 1.694516 l -0.847258,-2.63769 z" />
  <path
     style="fill:#ffffff"
     d="m 80.769834,38.733888 c 1.150992,0 2.110152,-0.735356 2.110152,-2.749592 0,-1.99825 -0.943174,-2.685648 -2.110152,-2.685648 -1.150992,0 -2.07818,0.703384 -2.07818,2.701634 0,2.014236 0.943174,2.733606 2.07818,2.733606"
     id="path38"
     inkscape:connector-curvature="0" />
  <path
     style="fill:#ffffff"
     d="m 80.769834,38.733888 c 1.150992,0 2.110152,-0.735356 2.110152,-2.749592 0,-1.99825 -0.943174,-2.685648 -2.110152,-2.685648 -1.150992,0 -2.07818,0.703384 -2.07818,2.701634 0,2.014236 0.943174,2.733606 2.07818,2.733606"
     id="path50"
     inkscape:connector-curvature="0" />
  <path
     style="fill:#ffffff"
     d="m 117.53763,36.000282 c 0,1.99825 0.94318,2.733606 2.07818,2.733606 1.151,0 2.11016,-0.735356 2.11016,-2.749592 0,-1.99825 -0.94318,-2.685648 -2.11016,-2.685648 -1.15099,0 -2.07818,0.703384 -2.07818,2.701634"
     id="path52"
     inkscape:connector-curvature="0" />
  <path
     style="fill:#ffffff"
     d="m 100.00099,12.2291 c -18.09615,0 -32.771298,14.675148 -32.771298,32.7713 0,3.35706 0.511552,6.602218 1.43874,9.639558 h 62.649138 c 0.94317,-3.053326 1.43874,-6.282498 1.43874,-9.639558 0.016,-18.096152 -14.65917,-32.7713 -32.75532,-32.7713 m 23.01984,23.771182 c 0,2.461844 -1.31085,3.884598 -3.40502,3.884598 -2.07818,0 -3.40501,-1.390782 -3.40501,-3.884598 0,-2.445858 1.32683,-3.884598 3.40501,-3.884598 2.09417,0 3.40502,1.390782 3.40502,3.884598 m -5.32334,-11.941542 0.7993,-1.630572 0.7993,1.630572 1.79044,0.255776 -1.29487,1.262894 0.30373,1.790432 -1.5986,-0.847258 -1.5986,0.847258 0.30374,-1.790432 -1.29487,-1.262894 z m -7.4175,-3.788682 0.95916,-1.950292 0.95916,1.950292 2.14212,0.303734 -1.55064,1.51867 0.36768,2.142124 -1.91832,-1.007118 -1.91832,1.007118 0.36768,-2.142124 -1.55064,-1.51867 z m -2.9734,15.138742 v 1.055076 h -2.66966 v 2.190082 h 2.8615 v 1.071062 h -4.09242 v -7.449476 h 4.09242 v 1.135006 h -2.8615 v 1.99825 z m -8.600464,-18.46383 1.342824,-2.733606 1.34282,2.733606 3.02136,0.431622 -2.19008,2.126138 0.51155,3.005368 -2.70164,-1.422754 -2.70163,1.422754 0.511552,-3.005368 -2.190082,-2.126138 z m 3.117274,13.140492 -1.56663,1.806418 h -1.198952 l -1.694516,-1.806418 h 1.214936 l 1.071062,0.895216 0.94317,-0.895216 z m -7.945046,0.895216 0.943174,-0.895216 h 1.214936 l -1.566628,1.806418 h -1.19895 L 91.57637,30.085462 h 1.214936 z m 1.630572,4.428122 v 1.055076 h -2.669662 v 2.190082 h 2.861494 v 1.071062 h -4.092416 v -7.449476 h 4.092416 v 1.135006 h -2.861494 v 1.99825 z m -7.769196,-15.138742 0.95916,-1.950292 0.95916,1.950292 2.142124,0.303734 -1.550642,1.51867 0.367678,2.142124 -1.91832,-1.007118 -1.91832,1.007118 0.367678,-2.142124 -1.550642,-1.51867 z m -2.014236,12.005486 2.030222,6.026722 1.982264,-6.026722 h 1.214936 L 88.4591,39.72502 h -1.470712 l -2.55776,-7.449476 z m 0.773882,8.616454 -1.35881,1.35881 h -0.847258 l 1.007118,-1.374796 z m -5.77734,-16.833258 0.7993,-1.630572 0.7993,1.630572 1.790432,0.255776 -1.294866,1.262894 0.303734,1.790432 -1.5986,-0.847258 -1.5986,0.847258 0.303734,-1.790432 -1.294866,-1.262894 z m 0.04796,8.056944 c 2.07818,0 3.405018,1.390782 3.405018,3.884598 0,2.461844 -1.310852,3.884598 -3.405018,3.884598 -2.07818,0 -3.405018,-1.390782 -3.405018,-3.884598 0,-2.445858 1.326838,-3.884598 3.405018,-3.884598 M 81.74514,48.83704 h -4.380164 v -0.735356 l 3.03734,-4.460094 h -2.909452 v -0.927188 h 4.220304 v 0.751342 l -2.989382,4.412136 h 3.021354 z m 4.763828,0 -0.607468,-1.75846 h -2.206068 l -0.575496,1.75846 h -1.150992 l 2.254026,-6.122638 h 1.11902 l 2.31797,6.122638 z m 5.019604,0 -1.934306,-2.813536 -0.495566,0.527538 V 48.83704 H 88.027638 V 42.714402 H 89.0987 v 2.701634 l 2.349942,-2.701634 h 1.166978 l -2.206068,2.621704 2.381914,3.51692 h -1.262894 z m 6.23454,0 -0.607468,-1.75846 h -2.206068 l -0.575496,1.75846 h -1.150992 l 2.254026,-6.122638 h 1.11902 l 2.31797,6.122638 z M 98.29065,36.735638 v 2.989382 h -1.230922 v -7.449476 h 2.094166 c 1.838386,0 2.781566,0.703384 2.781566,2.190082 0,1.007118 -0.4636,1.614586 -1.42276,2.014236 l 2.1741,3.245158 h -1.55064 l -1.870364,-2.989382 z m 5.51517,12.101402 H 99.425656 V 48.101684 L 102.463,43.64159 h -2.909456 v -0.927188 h 4.220306 v 0.751342 l -2.98938,4.412136 h 3.02135 z m 6.16212,-0.05499 h -1.26289 l -2.87748,-4.779814 c 0.0639,0.543524 0.0959,1.166978 0.0959,2.301984 v 2.47783 h -0.91121 v -6.090666 h 1.23093 l 2.89346,4.87573 c -0.0639,-0.335706 -0.0639,-1.150992 -0.0639,-2.014236 v -2.861494 h 0.9112 v 6.090666 z m 2.52435,0.05499 h -1.19895 v -6.122638 h 1.19895 z m -0.1979,-6.586232 h -0.84726 l 1.00712,-1.374796 1.18296,0.01599 z m -2.4457,-8.376664 c 0.0799,0.655426 0.1119,1.43874 0.1119,2.813536 v 3.03734 h -1.10303 v -7.449476 h 1.50268 l 3.53291,5.946792 c -0.064,-0.415636 -0.0799,-1.406768 -0.0799,-2.461844 v -3.484948 h 1.10303 v 7.449476 h -1.55064 z m 7.32159,14.962896 -1.93431,-2.813536 -0.49557,0.527538 v 2.285998 h -1.07106 v -6.122638 h 1.07106 v 2.701634 l 2.34995,-2.701634 h 1.16697 l -2.20606,2.621704 2.38191,3.51692 h -1.26289 z m 4.20431,-2.47783 v 2.47783 h -1.16697 v -2.47783 l -1.93431,-3.660794 h 1.10303 l 1.42276,2.685648 1.42275,-2.685648 h 1.05508 z"
     id="path54"
     inkscape:connector-curvature="0" />
  <path
     style="fill:#ffffff"
     d="M 99.185706,33.426536 H 98.29049 v 2.3979 h 1.007118 c 0.831272,0 1.406772,-0.463594 1.406772,-1.35881 0,-0.815286 -0.54353,-1.03909 -1.518674,-1.03909"
     id="path56"
     inkscape:connector-curvature="0" />
</svg>
