<?xml version="1.0"?><svg xmlns="http://www.w3.org/2000/svg" viewBox="0 0 200 90" enable-background="new 0 0 200 120" width="200" height="90"><path d="m36.3 42.9h-4v-2.2h3.5v-1.9h-3.4c0-.3-.1-.4-.1-.5-.1-1.4-.1-1.4 1.3-1.4.9 0 1.8 0 2.7 0v-2c-2.2 0-4.3 0-6.4 0v9.9h6.5v-1.9zm-32.3-8.5c.8 0 1.5-.7 1.5-1.5 0-.9-.7-1.5-1.6-1.4-.8 0-1.4.6-1.4 1.4-.1.9.7 1.6 1.5 1.5m18.4 10.5h2.5v-7.9h2.9v-2h-8.3v2h2.9v7.9m-18.8 27c-.9 0-1.5.6-1.5 1.5 0 .9.6 1.5 1.5 1.5.8 0 1.5-.6 1.6-1.5 0-.8-.7-1.5-1.6-1.5m-.8-27.1h2.4v-9.1h-2.4v9.1m-.4 40.6h2.4v-9.2h-2.4v9.2m8.1-46.6c.3.2.5.3.6.5 1.2 1.7 2.4 3.3 3.6 5 .2.3.5.6.8.6.6.1 1.2 0 1.9 0v-9.9h-2.2v5.8c-1.4-1.7-2.7-3.5-3.9-5.2-.2-.3-.5-.6-.8-.7-.7-.1-1.4 0-2.2 0v9.9h2.2v-6m30.2 14.2c0-.4 0-.7 0-1.1h-4.6c-.1.1-.1.2-.1.2 0 3.7-.1 7.3 0 11 .1 2.4 1.5 4.2 3.9 5 2 .6 4.1.7 6.1.2 2.4-.6 3.8-2.2 4.3-4.5.2-.8.2-1.6.2-2.4 0-2.8 0-5.6 0-8.4 0-.3 0-.6-.1-1h-4.2c0 .4-.1.8-.1 1.1 0 2.7 0 5.4 0 8.1 0 .7-.1 1.4-.2 2.1-.2.9-.8 1.4-1.6 1.5-2.2.3-3.7-.3-3.8-2.9 0-.3 0-.5 0-.8.2-2.8.2-5.4.2-8.1m41.7-17.3v9.1h2.4v-9.1h-2.4m87.1-4.8c-15.3 0-28.7 12.3-29 28.5-.3 16.3 12.7 29.5 28.7 29.7 16.4.2 29.5-12.7 29.6-29.2 0-15.9-12.8-29-29.3-29m-.4 23.8c.4 1.1-.3 1.2-.5 1.4-.4.3-.8.2-1.2-.1-1.7-1.5-3.7-1.5-5.8-1.4-.5 0-1.1.1-1.7 0 .5-.6 1.2-.8 1.9-.8.6 0 1.2 0 1.8 0 .4 0 .7-.2.7-.6.1-1.5.2-3 .3-4.7-.6-.1-1.1-.2-1.6-.2-2.3.1-4.4.8-6.2 2.2-2.1 1.6-3.5 4.3-2.2 7.9-.2.2-.4.4-.6.6-.7-.2-1.2-.5-1.4-1.2-.4-1.2-1-2.4-1.5-3.8-.4.2-.8.4-1.1.7-.9.6-1.7 1.2-2.6 1.8-.6.4-.7.9-.5 1.6.2.5.4 1.1.6 1.7.1.4.1.8-.4.9-.8.1-1.2.6-1.5 1.3 0 .1-.1.1-.3.2-.1.2-.2.3-.3.4-.1.2 0 .1-.5.4-.5-.6-1.1-1.1-.9-2.1.1-1.1-.2-2.3-.4-3.5 0-.2-.3-.4-.3-.4.1-.6.3-1 .3-1.5-.1-1.3.2-2.6.4-3.9.3-2.9 1.7-5.5 2.9-8 .7-1.3 1.8-2.4 2.8-3.5 3.9-4.4 8.8-7 14.5-8.2 3.2-.7 6.3-.7 9.5-.2 2 .3 3.8 1 5.7 1.6 2.7.9 4.8 2.7 6.9 4.4.8.6 1.5 1.5 2.1 2.3 1 1.4 2 2.8 3 4.3.3.5.3 1.1.5 1.7-.9.3-1.7.7-2.5.9-.9.3-1.2 0-1.3-.9-.1-.8-.2-1.7-.4-2.5-.1-.3-.3-.7-.6-.8-2.6-1.4-6.1-1.1-8.1.7-1.5 1.4-2.1 3.2-2 5.2.1 1.2.5 2.3.8 3.4.2.7.1 1.1-.6 1.3-.4.2-.8.3-.9-.2-.1-.2-.4-.7-.3-1-.5-.7-.4-.6-.6-1.3-.8-2-1.6-3.9-2.4-5.8-.2-.4-.4-.6-.8-.5-1.9.6-3.7 1.3-5.6 1.9-.1 0-.1.1-.2.2.5 1.3 1.1 2.7 1.6 4.1.3.8.6 1.6.9 2.4l.6 1.6m3.9 6.8c-1.9-4.7-3.7-9.4-5.6-14.2 1.4-.4 2.7-.9 4.1-1.2.5-.1.8.2 1 .6.4.8.8 1.7 1.1 2.5 1.2 3.4 2.4 6.9 3.6 10.3.1.1 0 .3 0 .5-1.4.5-2.7 1-4.2 1.5m-12.4 5.2c-.8.1-.9 0-1-.9 0-.4-.1-.8-.2-1.2-.1-.8 0-.9.8-1 .8-.1 1.6-.2 2.4-.5.5-.2 1-.5 1.4-.8.4-.3.7-.8.4-1.4-.2-.6-.6-.9-1.3-.9-.8 0-1.6.1-2.5.1-.6 0-1.1.1-1.7 0-3.5-.4-5.2-4-3.2-6.9 1.4-2 3.4-3 5.8-3.5.6-.1 1.2-.2 2.1-.3-.1 1.1-.2 2.1-.3 3.2-.7.1-1.4.1-2.1.3-.7.2-1.4.5-2 .9-.5.3-.6.8-.6 1.4 0 .6.3 1 .9 1.1.6 0 1.1 0 1.7 0 1.1 0 2.2-.1 3.2 0 1.9.3 3.2 1.4 3.8 3.3.5 1.9-.2 3.4-1.5 4.6-1.6 1.5-3.8 2.3-6.1 2.5m-12.7-9c1.1-.5 1.8-1.4 3-1.8 1.7 4.7 3.7 9.2 6.7 13.3-.2.1-.3.3-.4.4-.7.5-1.4 1-2.2 1.5-3.2-4-5.6-8.5-7.1-13.4m41.2.1c-2.6 1.1-5.1.6-7.2-1.1-2.5-2-3.8-4.8-4.1-8.1-.1-1.7 1.3-4.4 3.8-5.2 1.4-.4 2.7-.4 4.1-.1.8.2 1.2.6 1.2 1.3 0 .4 0 .8.1 1.2-.8-.1-1.4-.1-2-.1-1.3 0-2.1.8-2.3 2-.3 2.4.5 4.5 2.1 6.3 1 1.2 2.3 1.3 3.7.7 1-.4 1-.4 1.5.6 0 .1.1.2.1.3.5 1.3.4 1.5-1 2.2m-86.3-19.2c.3.4.4.5.6.7 1.2 1.7 2.4 3.4 3.7 5 .2.2.5.6.7.6.6.1 1.3 0 1.9 0v-9.9h-2.1v6.1c-.2-.3-.3-.3-.4-.4-1.2-1.7-2.4-3.4-3.6-5.1-.2-.3-.5-.6-.8-.6-.7-.1-1.4 0-2.1 0v9.9h2.2v-6.3zm-10.1 6.5c3.3 0 5.5-2 5.5-5.1 0-3-2.2-5.2-5.4-5.2-3.3 0-5.5 2.1-5.5 5.1 0 3 2.2 5.1 5.4 5.2m-2.5-6.6c.5-1.5 2.2-2.2 3.7-1.6 1.1.4 1.7 1.5 1.6 3 0 2.1-1.2 3.2-3.2 3-.2 0-.3 0-.5-.1-1.5-.4-2.2-2.5-1.6-4.3m40.4 4.4h-3.9v-7.9h-2.5v9.8h6.4v-1.9m-89.1-1.8c.7-.1 1 .3 1.2.7.6.8 1.1 1.7 1.7 2.6.2.2.4.5.6.5.7.1 1.5 0 2.5 0-1-1.5-2-2.9-2.9-4.3.2-.1.4-.2.5-.2 1.1-.5 1.6-1.4 1.5-2.6 0-1.2-.6-2-1.6-2.4-2-.7-4-.4-6-.4v9.9h2.5v-3.8m.1-4.2c.8-.1 1.7-.3 2.3.4.4.4.4 1 .1 1.5-.6.7-1.4.6-2.4.5v-2.4m71.4 8c1.1 0 1.1 0 1.5-1 .2-.5.4-.8 1-.7.9 0 1.8 0 2.7 0 .5 0 .8.1.9.6.2 1.1.9 1.3 1.8 1.2.4 0 .7 0 1.2 0-.2-.5-.3-.8-.4-1.2-1-2.5-2.1-5-3.1-7.5-.6-1.5-.3-1.3-2.1-1.4-.7 0-1 .2-1.3.8-1.1 2.8-2.2 5.6-3.3 8.3-.1.2-.1.5-.2.8.5.1.9.1 1.3.1m3.7-7.1c.1 0 .1 0 .2 0 .4 1.1.8 2.2 1.3 3.5h-2.7c.4-1.3.8-2.4 1.2-3.5m-53.4 6.2c.1-.7.6-.9 1.3-.9.6 0 1.3 0 1.9 0 1.4 0 1.2-.1 1.6 1.1.1.3.2.7.7.7.7 0 1.4 0 2.1 0 0-.2 0-.4-.1-.5-1.2-3-2.5-6-3.7-8.9-.2-.4-.4-.6-.8-.6-.4 0-.7 0-1.1 0-.6-.1-.9.2-1.1.8-1.1 2.8-2.3 5.6-3.4 8.4-.1.2-.1.5-.2.8h2.5c.1-.3.3-.6.3-.9m2.2-6.2c.1 0 .1 0 .2 0 .4 1.1.8 2.2 1.2 3.5h-2.6c.5-1.3.9-2.4 1.2-3.5m13.1 30.4h10.4v-3.8h-5.7v-2.8h4.9v-3.5h-4.9v-2.5h5.5v-3.7h-10.2v16.3m-3.7-23.4h2.6v-7.8c1 0 1.9-.1 2.8-.1v-1.9h-8.3v2h2.9v7.8m-62 18.9c.1-2-.6-3.6-2.4-4.6-.9-.5-1.8-.9-2.8-1.3-.4-.2-.8-.4-1.2-.6-.4-.2-.7-.6-.5-1.1.1-.3.5-.7.8-.7.5-.1 1.1-.1 1.6 0 .8.2 1.5.4 2.4.7.6-1 1.1-2 1.7-3.2-2.6-1.5-5.2-1.9-7.9-.9-2 .7-3 2.4-3 4.5 0 2.1.9 3.7 2.7 4.7 1 .5 2.2.9 3.3 1.4.5.2 1 .5.9 1.2-.1.6-.6.9-1.1.9-1.2.2-2.4 0-3.5-.6-.4-.1-.6-.2-.9-.3-.6 1.1-1.2 2.2-1.8 3.3 2.8 1.6 5.6 2 8.5 1 2-.7 3.1-2.2 3.2-4.4m70.7-29.3c.8 0 1.5-.7 1.5-1.5 0-.8-.6-1.5-1.5-1.5-.9 0-1.6.6-1.6 1.4 0 .9.8 1.6 1.6 1.6m-29 51h2.4v-9.2h-2.4v9.2m-39.9-9.6c-1.9-.5-3.9-.4-5.8-.3-.1 0-.1.1-.2.1v9.8c2.1 0 4.2.3 6.2-.4.2-.1.5-.2.7-.3 1.8-.9 2.7-2.8 2.5-5-.2-2-1.4-3.4-3.4-3.9m.3 6.3c-.8 1.5-2.2 1.4-3.8 1.4v-5.8c1.4-.4 3-.1 3.6.7.8 1.2.9 2.5.2 3.7m110.2-13.9v-12.6h4.3v-3.7c-.4 0-.8-.1-1.2-.1-3.7 0-7.4 0-11.1 0-.2 0-.5-.1-.7 0-.2.1-.5.3-.5.5 0 1.1 0 2.1 0 3.4h4.4v12.5h4.8m2.4 7.7c-2-.7-4.1-.4-6.3-.4v10c2.1-.1 4.1.3 6-.4.4-.1.9-.3 1.2-.6 1.8-1.2 2.3-2.9 2.1-4.9-.1-1.9-1.2-3.1-3-3.7m-.1 6.3c-.9 1.3-2.2 1.3-3.7 1.2v-5.9c1.4-.1 2.6-.2 3.6.9.7.9.8 2.9.1 3.8m-23.6-4.9c-.9-2.1-.9-2.1-3.1-1.8 0 0-.1 0-.2.1-1.3 3.2-2.6 6.5-4 9.9.5 0 .8 0 1.2 0 1 .1 1.7-.1 1.8-1.2.1-.4.4-.6.8-.6.8 0 1.5 0 2.3 0 1.4 0 1.2-.1 1.6 1.1.1.3.4.6.6.6.7.1 1.5 0 2.3 0-.2-.5-.3-.8-.4-1.1-.9-2.3-1.9-4.6-2.9-7m-3.4 4.5c.4-1.2.8-2.4 1.2-3.5.1 0 .1 0 .2 0 .4 1.1.8 2.3 1.3 3.5h-2.7m10.1-29.9h-4.1v9.2c-.2-.3-.3-.3-.4-.4-1.9-2.7-3.7-5.5-5.6-8.2-.2-.2-.5-.5-.7-.6-1.4-.1-2.9 0-4.4 0v16.3h4.2v-9.4c.3.3.4.5.5.6 1.9 2.7 3.8 5.4 5.8 8.1.2.3.5.7.8.7 1.3.1 2.7 0 4 0v-16.3zm5.8 28.9c.7-.4 1.1-.9 1.3-1.7.4-1.7-.4-3.1-2.2-3.5-1.8-.4-3.6-.2-5.5-.2v9.9h2.4c.2-1.3-.1-2.6.2-4 .5.5.9.7 1.1 1 .6.8 1.1 1.7 1.6 2.5.2.2.5.6.7.6.7.1 1.5 0 2.2 0 0-.1.1-.2.1-.2-.9-1.3-1.8-2.7-2.8-4.1.4 0 .6-.2.9-.3m-1.4-1.5c-.6.8-1.5.6-2.4.5v-2.4c.9-.1 1.7-.3 2.4.4.3.5.3 1.1 0 1.5m50.1-35.2c.7.4 1.5.6 2.2.9 1.2-.1 2.2-.5 3.1-1.2 1.4-1.2 1.3-3.1-.2-4.1-1.6-1.1-4.1-.8-5.4.6-1.2 1.2-1 2.9.3 3.8m1.2-3.5c1.3-.7 2.5-.5 3.7.4.6.4.6.8.3 1.5-.6 1.1-1.7 1.4-2.9 1.5-.3-.1-.6-.1-.8-.2-.8-.3-1.6-.6-1.6-1.5-.1-.8.7-1.3 1.3-1.7m-17.4 13.9c1.2-1 1.7-2.3 1.8-4-.1-.3-.1-.7-.2-1.1-.4-1.3-1.6-1.7-2.7-.8-1.5 1.3-2.2 2.9-1.9 4.9.3 1.7 1.7 2.1 3 1m-1.2-4.4c.4-.5 1.2-.7 1.6-.5.5.3.7.9.5 1.5-.3.8-.7 1.7-1.2 2.5-.2.4-1 .7-1.3.6-.4-.1-.5-.8-.8-1.2.2-1.2.6-2.2 1.2-2.9m-104.3 27.5h2.9v7.9h2.6v-7.9h2.9v-2h-8.3v2zm13.2-32.7c.6.1 1.2 0 1.9 0v-9.9h-2.2v6c-.2-.3-.3-.4-.4-.5-1.2-1.6-2.3-3.3-3.5-4.9-.2-.3-.4-.6-.7-.6-.7-.1-1.5 0-2.2 0v9.9h2.1v-6.4c.3.3.4.4.5.6 1.3 1.7 2.5 3.5 3.8 5.2.1.2.4.5.7.6m-18.3 36.7c-1.4-1.9-2.7-3.7-4-5.5-.2-.3-.5-.6-.8-.6-.7-.1-1.4 0-2.2 0v10h2.2v-6.3c.3.3.4.5.5.6 1.2 1.7 2.5 3.4 3.7 5.1.2.3.5.6.8.6.6.1 1.2 0 1.9 0v-10h-2.2v6.1zm-14.5 1.9v-2.2h3.6v-1.9h-3.6v-2h3.9v-1.9h-6.5v9.9h6.7c0-.7-.1-1.2-.1-1.9h-4m-6.6-27.9h4.3c0 .5.1.9.1 1.3 0 3.3 0 6.7 0 10 0 .3-.1.6 0 .8.1.2.3.5.5.5 1.3 0 2.7 0 4.2 0v-12.6h4.3v-3.7h-13.4v3.7m46.8 12.6c1.1-.1 2.2-.3 3.3-.6 3.7-1.2 5.7-4.4 5.4-8.6-.3-3.7-2.6-6.2-6.4-6.9-2.9-.5-5.8-.3-8.7-.2-.1 0-.1.1-.2.1v16.2c.3 0 .4.1.6.1 2 0 4 0 6-.1m-1.9-12.6c1.8 0 3.6-.3 4.9 1.5 1 1.4.9 4.6-.1 6-.9 1.3-2.8 1.8-4.8 1.3v-8.8m-6.3 16.3c-.9 0-1.5.7-1.5 1.6 0 .8.7 1.5 1.5 1.4.9 0 1.6-.7 1.5-1.6 0-.8-.6-1.4-1.5-1.4m4.1 5.6h2.9v7.9h2.5v-7.9h2.9v-2h-8.4v2zm16.1-.4c-.4.7-.8 1.5-1.2 2.4-.6-1.3-1.2-2.3-1.7-3.4-.1-.3-.4-.6-.6-.6-.8-.1-1.5 0-2.5 0 .2.4.4.7.5 1 .8 1.5 1.7 2.9 2.4 4.4.3.5.4 1.2.5 1.8.1.9 0 1.8 0 2.8h2.6c0-.8 0-1.6 0-2.4 0-.9.2-1.6.6-2.3.8-1.4 1.5-2.8 2.3-4.3.1-.3.3-.6.4-.9-.2 0-.4-.1-.5-.1-2.4 0-1.8-.4-2.8 1.6m13.5 5.6c-.9-1.1-1.1-3-.2-4.2 1.2-1.7 2.8-1.3 4.4-.7.3-.6.6-1.1 1-1.7-2.1-1.5-5.7-1.1-7.4.8-1.7 2-1.7 5.3.1 7.1 1.8 1.9 5.4 2.1 7.4.5-.3-.5-.6-1.1-.9-1.6-2.1.9-3.5.8-4.4-.2" fill="#fff" transform="matrix(.80972 0 0 .80972 19.03-3.584)"/></svg>