<?xml version="1.0"?><svg xmlns="http://www.w3.org/2000/svg" viewBox="0 0 200 90" enable-background="new 0 0 200 120" width="200" height="90"><path d="m9.6 42.5c.5.6 1 1.2 1.6 1.8.1.1.3 0 .4 0 0-.1 0-.3-.1-.4-.4-.4-.8-.8-1.2-1.2-.4-.3-.5-.6-.3-1.1.4-.9.1-1.9-.7-2.4-.8-.6-1.8-.6-2.6-.1-.8.5-1.1 1.5-.8 2.4.4 1.4 1.8 1.8 3.7 1m7.6 25.8c-.4-.3-.4-.6-.3-1 .1-.3.1-.6.1-.9-.1 0-.2 0-.3 0-.1.4-.3.9-.5 1.4-.2 0-.4 0-.6.1-1.1.2-1.8 1-1.9 2.1 0 1 .7 1.9 1.7 2.2 1 .2 2-.2 2.4-1.1.5-1.1.3-2.2-.6-2.8m-3.2-11c.5-.3 1.1-.6 1.6-.9.4-.3 1.1-.3 1.3-1-.2 0-.2-.1-.2-.1-.9.5-1.9 1-2.8 1.5-1.3-1-2.3-1.1-3.2-.4-.8.7-1 1.8-.5 2.8.5.9 1.6 1.3 2.6 1 .9-.4 1.4-1.4 1.2-2.9m-10.1-6.4c1-.2 1.7-1.1 1.7-2.1 0-1-.7-1.9-1.7-2.1-1-.2-2 .3-2.4 1.3-.1.2-.2.4-.2.6v.6c.1.2.2.4.2.6.4.8 1.4 1.3 2.4 1.1m17 10c-.8-.5-.8-1-.6-1.7.1-.3.1-.6.1-.8 0-.2-.1-.3-.2-.4-.1 0-.1 0-.2 0-.1.4-.1.7-.2 1.1-.1.4-.1.8-.2 1.2-.3 0-.5.1-.7.1-1 .3-1.6 1.2-1.6 2.2 0 1 .7 1.8 1.7 2 1 .2 2-.2 2.4-1.1.4-.9.3-2.2-.5-2.6m-10.8 2.3c-.4.4-.7.7-1.4.4-.8-.4-1.6-.1-2.3.6-.6.7-.7 1.5-.4 2.3.4.8 1 1.3 2 1.3 1.3.1 2.9-1.5 1.8-3.5.5-.5 1-1 1.4-1.5.1-.1 0-.3.1-.4-.1 0-.3 0-.4.1-.3.1-.5.4-.8.7m-2.3-6.3c.1 0 .2-.2.3-.3-.1-.1-.3-.2-.4-.2-.4.1-.8.2-1.1.3-.6.2-1 .3-1.4-.4-.5-.8-1.7-1-2.6-.5-.9.5-1.4 1.5-1.1 2.5.2.9 1.1 1.6 2.1 1.6 1.1 0 1.9-.8 2.1-1.8.1-.5.2-.7.7-.8.4-.1.9-.2 1.4-.4m127.2-18.4c1.5 0 2.7-1.2 2.7-2.7 0-1.5-1.2-2.7-2.6-2.7-1.5 0-2.7 1.1-2.8 2.7 0 1.6 1.2 2.7 2.7 2.7m-24.7 24.9c2.8 1.1 5.7 1.7 8.7 1.6 5.2-.2 9.4-3.5 10.7-8.5.7-2.7.7-5.4-.1-8-1-3.4-3.2-5.7-6.6-6.7-1.9-.6-3.9-.7-5.9-.3-1.2.3-2.4.7-3.7 1.1v-.8c0-2.7 0-5.4 0-8 0-.4-.2-.8-.3-1.1h-.6c-.7.2-1.4.3-2.1.5-1 .2-1.1.4-1.1 1.3 0 9.1 0 18.2 0 27.3 0 .8.3 1.3 1 1.6m3.2-10.1c0-2 0-3.9 0-5.9 0-.5.2-.8.6-1 2.4-1 4.9-1.3 7.4-.5 1.9.6 3.2 2 3.7 4 .7 2.3.6 4.5-.2 6.7-.8 2.2-2.3 3.5-4.5 4.1-2.1.5-4.2.4-6.3-.3-.6-.2-.8-.5-.8-1.1.2-2.1.1-4.1.1-6m6.7 17.7c-.5.3-.8.9-1.2 1.3-.2.3-.4.6-.6.9-.1.2-.2.4-.2.7.2 0 .5 0 .7-.1.5-.3 1.1-.6 1.5-1 .3-.3.6-.7.7-.8.1-.9-.4-1.3-.9-1m-92.5-24.9c.2-.1.4-.2.6-.3.9-.9 1.7-1.7 2.6-2.6.3-.4.6-.6 1.2-.3 1 .4 2-.1 2.5-1 .5-.8.3-2-.4-2.6-.8-.7-1.9-.8-2.7-.2-.8.6-1.1 1.7-.7 2.6.1.2.2.4.3.6.1.1.2.2.3.3-1.2 1.1-2.5 2.2-3.7 3.3v.2m-7 5.1c-1.2 0-2.2.9-2.2 2.1 0 1.2.9 2.2 2.1 2.2 1.2 0 2.2-1 2.2-2.2 0-1.1-.9-2.1-2.1-2.1m161.6 16.1c.5 0 1-.3.9-.8 0-.3-.4-.5-.7-.9-.4.4-.9.6-1 .9-.1.5.2.9.8.8m-166.1-28.8c.4 1.2.7 2.3 1.1 3.5l.3-.1c-.1-1.2-.7-2.4-.9-3.6 1.2-.9 1.6-2 1-3-.5-.9-1.5-1.4-2.5-1.1-1 .3-1.7 1.2-1.6 2.3.2 1.2 1 1.9 2.6 2m9.4 12.8c0 1.2 1 2.1 2.1 2.1 1.2 0 2.2-1 2.2-2.2 0-1.2-1-2.2-2.2-2.2-1.1.1-2.1 1.1-2.1 2.3m-7.7-6.3c-.6-.7-1.7-1-2.6-.6-.9.4-1.4 1.3-1.2 2.3.1.9.9 1.9 1.9 1.8 1.1-.1 1.6.3 2 1.1 0 0 .1 0 .4 0-.3-.6-.5-1-.7-1.6.1-.2.3-.3.4-.5.5-.7.4-1.8-.2-2.5m-7.5 3.9c-1 0-1.8.8-2 1.8-.2 1 .3 2 1.2 2.4.9.4 2 .1 2.6-.7.1-.2.3-.4.4-.5 1.2.3 2.4.5 3.6.8 0-.1.1-.3.1-.4-.2-.1-.4-.2-.7-.2-.7-.2-1.4-.4-2-.5-.6-.1-.9-.3-1-1-.2-1.1-1.1-1.7-2.2-1.7m11.9-4.2c.4.3.5.6.3 1.1-.3 1-.6 1.9-.9 2.9 0 .2.1.4.1.6.1-.1.3-.3.4-.4.3-1 .6-2 .9-3.1.1-.4.3-.6.7-.6 1.1-.1 2-1 2-2.1 0-1-.7-1.9-1.7-2.1-1-.2-2 .3-2.4 1.2-.4.8-.2 1.9.6 2.5m2.5-6.2c1.2 0 2.2-.9 2.2-2.1 0-1.2-.9-2.2-2.1-2.2-1.2 0-2.2 1-2.2 2.2-.1 1.1.9 2.1 2.1 2.1m75.2 36.4c.5-1.7-.7-3.1-2.5-2.6-.7.2-1.3.7-2 1-.2.1-.5.3-.7.2-1-.4-1.4-.1-1.4 1 .1 1.9.2 3.8-.6 5.6 0 .1 0 .2 0 .3 0 .6.1 1.2 0 1.8-.1 1.1-.4 2.2-.4 3.3 0 .6.3 1.1.5 1.7h.6c.1-.3.4-.6.4-.9 0-1.6 0-3.3 0-4.9 0-.2.1-.5.3-.6 1.1-.9 2.2-1.6 3.2-2.5 1.3-.9 2.2-2 2.6-3.4m-5.6 4.6c.2-1.7.3-3.1 1-4.4.4-.9 1.2-1.3 2.1-1.5.8-.2 1.4.3 1.3 1.1-.1.5-.2 1.1-.5 1.6-.9 1.4-2.2 2.3-3.9 3.2m41.7-37.7c-.7 0-1.4 0-2.1 0-.9 0-1 .1-1 1 0 3.4 0 6.9 0 10.3 0 3.4 0 6.9 0 10.3 0 1.1.1 1.1 1.1 1.1.7 0 1.4 0 2.1 0 1 0 1.1-.1 1.1-1.1 0-3.6 0-7.3 0-10.9 0-3.2 0-6.4 0-9.6-.1-1.1-.1-1.1-1.2-1.1m33.5 28.8c-1.1-.3-2.3-.6-3.4 0-.1.1-.2.3-.3.4-.7 1.2-1.5 2.4-2.2 3.6-.3.4-.6.9-.9 1.3-.1 0-.2 0-.3 0-.2-.9-.4-1.7-.6-2.6-.1-.4-.2-.9-.4-1-.4-.1-1 0-1.3.2-.9.8-1.7 1.6-2.5 2.5-.6.7-1.1 1.5-1.7 2.3-.2-.3-.2-.6-.2-.9.1-1.1.2-2.1.3-3.2 0-.3-.1-.9-.3-1-.3-.2-.8-.1-1.1 0-.3.1-.6.3-.7.6-1 1.3-2 2.6-3 3.9-.1.1-.2.2-.4.6.1-.4.1-.6.1-.8.3-1 .7-2 1-3 .1-.3-.1-.8-.2-1.1-.4.1-.8.1-1.1.3-.2.1-.3.4-.4.7-.4 1.9-.7 3.9-1 5.8 0 .3.1.8.2.8.3.1.7 0 1-.2.3-.2.6-.6.6-1 .4-1.6 1.2-2.9 2.4-4 .4-.4.9-.5 1.4-.8 0 .5.1 1 .1 1.5 0 1-.2 2-.2 2.9 0 .3.2.7.4.8.3.1.7-.1.9-.3.4-.4.7-.8 1-1.3.7-.9 1.4-1.9 2.1-2.8.3-.4.8-.6 1.3-1 .2.8.3 1.3.5 1.9.2.7.5 1.4.8 2 .1.2.6.5.8.4.3-.1.6-.4.8-.7.1-.2.1-.4.2-.7.4-1.4 1-2.7 2.1-3.9-.1.4-.1.6-.1.8-.1 1.2-.3 2.4-.4 3.6 0 .7.1 1.4.8 1.7.7.3 1.4 0 1.9-.5 1.7-1.6 2.8-3.6 3-6 0-.6-.1-1.5-1-1.8m-2.7 7.3c-.1.1-.4.2-.5.2-.2-.1-.3-.4-.3-.6-.1-.2 0-.4 0-.6 0 0 0 0-.1 0 .2-1 .3-2 .5-3 .1-.8.5-1.4 1.1-1.9.3-.2.8-.4 1-.3.3.1.6.6.6.9 0 2.1-.9 3.8-2.3 5.3m11.7-9.8c-.8-.3-1.4.1-1.9.6-.9.9-1.7 1.9-2.6 2.9-.3.4-.6.7-.9 1.1-.1-.1-.1-.2-.1-.2.5-2.3 1.1-4.5 2.5-6.4.3-.4.5-.8.1-1.2-.4-.4-.9-.4-1.2 0-.3.4-.7.9-.8 1.4-.5 1.5-.8 3.1-1.2 4.6-.5 1.8-.9 3.6-1.3 5.3-.1.6-.1 1 .6 1.2.2 0 .4.1.4.3.4.7.9.6 1.5.4.7-.3 1.4-.7 2-1.2 1.6-1.4 2.8-3.2 3.5-5.3.2-.5.3-1.1.4-1.6-.1-.8-.2-1.6-1-1.9m-.6 3.3c-.6 1.7-1.5 3.2-2.7 4.4-.4.4-.8.7-1.3.9-.8.3-1.1 0-1.1-.9 0-1.1.4-2 1.1-2.8 1-1.1 2.1-2.3 3.1-3.4.2-.2.6-.4.8-.3.2.1.3.5.4.8-.1.5-.2.9-.3 1.3m-38.4 8.4c-.1 0-.2 0-.3-.1-.1-.4-.1-.7-.1-1.1 0-1.4 0-2.8 0-4.1 0-.5 0-1.1-.7-1.1-.6 0-.9.4-.9 1.1.1 1.5.1 3 .2 4.5 0 .5.1 1.1.3 1.6.3 1.1.9 1.3 1.7.5.5-.4.9-.9 1.2-1.5 1.4-2.2 2.9-4.5 4.3-6.7.3-.4.4-.8 0-1.3-2.2 2.6-3.3 5.8-5.7 8.2m17-17.6c4.8 4.1 12.2 3.5 16.3-.7 4-4.1 4.5-11.2 1-15.8-3.3-4.4-10-5.7-15.1-3-2.5 1.4-4.3 3.4-5.3 6.1-1.4 3.9-1 7.8 1.2 11.4-1.6.8-3.2 1.1-4.9.9-1.9-.2-2.8-1.1-2.9-3 0-.3 0-.6 0-.9 0-3.7 0-7.3 0-11 0-.3 0-.5 0-.8 1.5 0 3 0 4.5 0 .6 0 .9-.3.9-.8 0-.7 0-1.4 0-2.1 0-.6-.2-.8-.8-.8-.9 0-1.7 0-2.6 0-.7 0-1.3 0-2 0 0-1.8 0-3.4 0-5.1 0-.8-.3-1.1-1.1-.9-.6.1-1.3.2-1.9.4-1.1.2-1.2.3-1.2 1.4 0 1.4 0 2.7 0 4.2-.6 0-1.1 0-1.6 0-.9 0-1 .1-1 1 0 .6 0 1.1 0 1.7 0 .7.2 1 .9 1 .5 0 1.1 0 1.7 0 0 .4 0 .8 0 1.2 0 4.1-.1 8.2.1 12.2.1 3.5 2 5.5 5.5 6 3 .5 5.8-.4 8.3-2.6m1.7-13.3c1.6-2.7 4.7-4.1 8-3.4 3.1.7 5.1 3.2 5.4 6.5 0 .3 0 .7 0 .9 0 3.8-1.9 6.7-5 7.7-4.1 1.2-9.2-.7-9.4-7-.2-1.6.1-3.2 1-4.7m20.8-5.4c.1-.1-.3-.6-.5-.7-.2-.1-.6 0-.9 0v2.2c.1 0 .1 0 .2 0l.2-.8c.1-.1.2-.1.2-.2.2.4.4.8.6 1.2.1-.1.2-.1.3-.2-.3-.6-.5-1-.1-1.5m19.1 28.3c-.6.5-1.2 1.1-1.8 1.6-.2.2-.5.3-.8.4-.1-.3-.3-.5-.3-.8 0-1 0-1.9-.1-2.9 0-.5-.3-1-.4-1.5-.4.3-.9.6-1.2 1.1-1 1.3-2 2.7-3.1 4-.4.5-.9.9-1.4 1.4-.1-.3-.1-.4-.1-.5 0-.2 0-.4.1-.6.5-1.7.7-3.5 1.9-5 .2-.3-.1-1-.2-1.5-.4.2-.8.3-1 .6-.2.2-.3.6-.4.9-.5 1.8-.9 3.5-1.4 5.3-.2.6-.3 1.2-.3 1.8 0 .8.4 1.1 1 .7.6-.4 1.1-.9 1.5-1.4 1.3-1.5 2.5-3 3.7-4.4.1 0 .1.1.2.1 0 .2.1.5.1.7 0 .9 0 1.9 0 2.8 0 .9.5 1.1 1.2.7.4-.3.8-.6 1.2-1 .8-.9 1.5-1.8 2.3-2.7v-.2c-.3.2-.6.2-.7.4m-12.4 5.1c.6-3.5 1.3-7 2-10.5.1-.5.2-1 .3-1.5 0-.5-.3-.8-.8-.8-.5.1-.9.3-.9.9 0 .7 0 1.4-.1 2-.5 2.9-2 5.4-3.6 7.8-.3.4-.6.7-.9 1-.1-.1-.2-.1-.3-.2.2-1.6.4-3.1.9-4.6.1-.3.2-.9 0-1-.3-.2-.8-.4-1.2-.3-.2 0-.5.6-.5.9-.2 1.8-.3 3.6-.4 5.4 0 .7 0 1.4.7 1.5.3.1.9-.5 1.2-.9 1.1-1.9 2-3.9 3-5.8.1-.2.2-.4.3-.6.1.3.1.6 0 .9-.4 2.1-.8 4.2-1.1 6.4-.1.6.1 1.3.3 1.9.1.2.3.4.5.6.2-.3.4-.5.5-.8.1-.2 0-.5 0-.7.1-.6 0-1.1.1-1.6m-7.5-35.1c-1.3 0-2.1.9-2.1 2.1 0 1.2.9 2.1 2.1 2.1 1.2 0 2.1-.9 2.1-2.1 0-1.3-.9-2.1-2.1-2.1m0 3.8c-1.1 0-1.8-.8-1.8-1.8 0-1.1.8-1.8 1.9-1.7 1 0 1.7.7 1.7 1.8 0 1.1-.7 1.8-1.8 1.7m-153 22.3c-.7-.1-.8-.4-.9-.9-.3-1.1-.5-2.1-.8-3.2-.1 0-.2 0-.3 0 0 .2 0 .4 0 .6.2.9.4 1.7.7 2.6.1.5.2.9-.4 1.3-.9.5-1 1.7-.6 2.6.5.9 1.5 1.3 2.5 1.1.9-.2 1.6-1.2 1.6-2.1-.1-1-.8-2-1.8-2m10.3-11.7c-.4.5-.7.5-1.2.4-.8-.2-1.6-.4-2.4-.6-.2 0-.4 0-.6 0 0 .1 0 .2 0 .3.8.2 1.5.4 2.3.6.8.2 1.5.3 1.4 1.4 0 .2.1.4.2.6.7 1.1 2.1 1.3 3.1.5 1-.8 1.1-2.3.3-3.2-.8-1-2.3-1-3.1 0m1.4-9.7c-1.1.1-1.8.9-2 2 0 .2-.3.5-.5.6-.7.3-1.5.4-2.2.7-.2.1-.4.2-.5.3.1.1.1.2.2.3.9-.2 1.8-.5 2.7-.8.4-.1.6-.1.8.2.7 1 1.8 1.2 2.8.7.9-.5 1.4-1.5 1.1-2.5-.4-.9-1.4-1.6-2.4-1.5m-4.4 16.8c-1.1.2-1.8.2-2.4-.7 0-.1-.3 0-.4 0 0 .1 0 .3.1.4.1.2.2.3.4.4.5.4.7.8.4 1.5-.4.8-.1 1.6.6 2.2.7.6 1.5.7 2.3.3.9-.4 1.2-1.1 1.3-1.9-.1-1.4-1.1-2.5-2.3-2.2m-4.2-6.7c-.6 0-1.3.2-2.2.4-.4-.3-1-.7-1.6-1.1-.1-.1-.3 0-.5 0 .1.1.1.3.2.4.3.3.7.5 1 .7.5.3.8.6.6 1.4-.3 1.2.6 2.2 1.9 2.4 1.2.1 2.2-.7 2.4-1.8.2-1.2-.7-2.4-1.8-2.4m89.3 19.4c-.5 0-.9.4-.9 1 0 .6 0 1.3-.1 1.9-.2 1.2-.6 2.3-.9 3.7.2.2.5.8.8.8.7 0 .6-.6.6-1.1 0-.7.1-1.5.2-2.2.2-1.1.6-2.1.9-3.1.1-.5 0-1-.6-1m14.1-1.8c-.6.1-1.3.3-1.7.7-.8.9-1.7 1.8-2.2 2.9-.6 1.4-1.6 2.3-3 2.9-.9.4-1.8.7-2.8 1-.4.1-.9.2-1.5.3.1-.2.1-.3.1-.3 1.7-1.8 3.4-3.5 5.1-5.3.2-.2.3-.6.5-.9-.3-.1-.7-.3-.9-.2-1.5.3-3.1.6-4.6.9-.4.1-.8.2-1.1.4-.2.1-.2.3-.3.5.2.1.4.2.6.2 1-.1 1.9-.3 2.9-.5.3 0 .6 0 1.1-.1-.4.5-.6.8-.9 1-1 1.1-2.1 2.2-3.1 3.3-.4.5-.8 1-1.1 1.6-.1.2 0 .7.1.8.2.2.6.3.8.2 2.1-.9 4.1-1.8 6.2-2.7.2-.1.5-.2.7-.4 0 .5 0 1 0 1.4.1.8.5 1.2 1.3 1.4 1.5.4 3.3-1.2 2.4-2.6-.2.2-.2.5-.4.6-.3.3-.6.6-.9.8-.7.4-1.2.1-1.2-.7-.1-1.1.3-1.9 1.3-2.5 1-.6 1.9-1.3 2.7-2 .4-.4.7-1.1.8-1.7.2-.7-.3-1.1-.9-1m-2.7 3.6c.5-1 1.1-1.9 2.2-2.3-.4 1-1.2 1.7-2.2 2.3m-14.5 4.3c-.5-.1-.6-.4-.6-.8-.1-.9-.1-1.8-.2-2.7-.1-.4-.2-1.2-.4-1.2-.5-.1-1.1.1-1.5.3-.4.2-.8.6-1.2 1-.9 1.2-1.8 2.5-2.7 3.7-.1.2-.2.3-.3.5-.1-.5-.1-1 0-1.4.3-1.1.6-2.3.9-3.4.2-.6-.3-1.1-.9-.9-.4.1-.7.4-.9.7-.4.6-.7 1.2-1 1.8-1.1 1.8-2.4 3.5-4.1 4.7-.5.3-1.1.5-1.7.7-.2 0-.6-.3-.6-.4.3-.9.5-2 1.1-2.7.7-.9 1.9-1.4 2.8-2.1.5-.4.9-.8 1.3-1.2.8-.8 1-1.9.5-2.4-.5-.5-1.5-.5-2.4.2-2.2 1.6-3.7 3.8-4.4 6.4-.2.6-.2 1.2-.3 1.8 0 1.1.6 1.7 1.7 1.7 1.3 0 2.3-.6 3.1-1.5 1.2-1.3 2.3-2.7 3.5-4.1 0 .1.1.2.1.4-.1.9-.2 1.7-.2 2.6 0 .4.1.8.3 1 .1.1.7 0 .9-.2.5-.5 1-1 1.2-1.5.7-1.4 1.6-2.7 2.8-3.7.2-.2.5-.4.8-.6.2 1.4.3 2.6.5 3.8.1.4.4 1 .6 1 .5 0 .9-.3 1.3-.6.5-.4.5-.8 0-.9m-10.8-4.8c0 .8-1.3 2.1-2.5 2.5.8-1 1.3-2.1 2.5-2.5m-29.8-36c-2.7 0-5.1.8-7.3 2.4-.2.2-.5.4-.8.6-1.2-2-3-2.8-5.2-2.9-2.5-.2-4.7.5-6.9 1.7-.4.3-.9.5-1.4.8-.1-.4-.2-.8-.3-1.2 0-.7-.4-.9-1-.8-.6 0-1.2 0-1.9 0-.9 0-1 .1-1 1.1 0 3.1 0 6.2 0 9.4 0 3.7 0 7.5 0 11.2 0 .9.1 1 1 1 .6 0 1.3 0 1.9 0 1.3 0 1.3 0 1.3-1.3 0-4.9 0-9.9 0-14.8 0-.3.1-.8.3-.9 2.1-1.4 4.4-2.3 6.9-2.1 1.6.1 2.5 1.1 2.5 2.8 0 .4 0 .7 0 1.1 0 4.7 0 9.4 0 14.1 0 1 .1 1.1 1.1 1.1.6 0 1.3 0 1.9 0 1.2 0 1.2 0 1.2-1.2 0-5 0-10 0-15 0-.3.2-.8.4-1 1.9-1.3 4-1.9 6.2-1.9 2.1 0 3.1 1 3.1 3.2 0 4 0 8 0 12 0 1 0 2.1 0 3.1 0 .6.2.9.9.9.9 0 1.8 0 2.7 0 .5 0 .8-.2.8-.7 0-.1 0-.2 0-.2 0-5.2 0-10.4 0-15.6.3-4.6-2.1-6.9-6.4-6.9m32.7 11.8c0-6.9-4.8-11.8-11.6-11.8-6.7 0-11.9 5.1-11.9 11.9 0 6.8 4.8 11.8 11.4 11.8 6.9 0 12.1-5.1 12.1-11.9m-19 .2c0-3.8 2-6.7 5.2-7.6 5.2-1.5 9.7 2.3 9.3 7.9-.2 3.6-2 6.2-5 7.1-4.4 1.2-9.5-1.1-9.5-7.4" fill="#fff" transform="matrix(.80972 0 0 .80972 18.947-3.543)"/></svg>