<?xml version="1.0" encoding="UTF-8" standalone="no"?>
<svg
   xmlns:dc="http://purl.org/dc/elements/1.1/"
   xmlns:cc="http://creativecommons.org/ns#"
   xmlns:rdf="http://www.w3.org/1999/02/22-rdf-syntax-ns#"
   xmlns:svg="http://www.w3.org/2000/svg"
   xmlns="http://www.w3.org/2000/svg"
   xmlns:sodipodi="http://sodipodi.sourceforge.net/DTD/sodipodi-0.dtd"
   xmlns:inkscape="http://www.inkscape.org/namespaces/inkscape"
   viewBox="0 0 200 90"
   enable-background="new 0 0 200 120"
   width="200"
   height="90"
   id="svg2"
   version="1.1"
   inkscape:version="0.48.5 r10040"
   sodipodi:docname="paypal.svg">
  <metadata
     id="metadata31">
    <rdf:RDF>
      <cc:Work
         rdf:about="">
        <dc:format>image/svg+xml</dc:format>
        <dc:type
           rdf:resource="http://purl.org/dc/dcmitype/StillImage" />
      </cc:Work>
    </rdf:RDF>
  </metadata>
  <sodipodi:namedview
     pagecolor="#000000"
     bordercolor="#666666"
     borderopacity="1"
     objecttolerance="10"
     gridtolerance="10"
     guidetolerance="10"
     inkscape:pageopacity="1"
     inkscape:pageshadow="2"
     inkscape:window-width="1920"
     inkscape:window-height="1178"
     id="namedview29"
     showgrid="false"
     inkscape:zoom="8.8393993"
     inkscape:cx="100"
     inkscape:cy="45"
     inkscape:window-x="0"
     inkscape:window-y="0"
     inkscape:window-maximized="1"
     inkscape:current-layer="svg2" />
  <defs
     id="defs4">
    <clipPath
       id="0">
      <path
         d="m0 55.44h216v-55.37h-216v55.37"
         id="path7" />
    </clipPath>
  </defs>
  <path
     style="fill:#ffffff"
     inkscape:connector-curvature="0"
     id="path11"
     d="m 146.4221,51.320387 c -0.54667,0.344444 -1.12444,0.639259 -1.72963,0.890369 -0.81333,0.328148 -1.58444,0.5 -2.29777,0.5 -1.09482,0 -1.9363,-0.154815 -2.50519,-0.485925 -0.56963,-0.314074 -0.86814,-0.86 -0.85851,-1.64148 0,-0.902222 0.20814,-1.602221 0.63925,-2.151109 0.43408,-0.528148 1.07926,-0.953333 1.87926,-1.270369 0.79556,-0.26963 1.77407,-0.491852 2.9037,-0.651111 1.00445,-0.126666 2.99259,-0.355555 3.24444,-0.357037 0.25408,-0.0022 0.42297,-0.142222 0.30963,0.534815 -0.0504,0.294074 -0.6237,2.648145 -0.88666,3.718515 -0.0763,0.32074 -0.50296,0.788147 -0.69852,0.913332 m 7.79407,-16.545169 c -1.67259,-0.933332 -4.28889,-1.405183 -7.86888,-1.405183 -1.77037,0 -3.54963,0.142222 -5.33481,0.419258 -1.31037,0.200741 -1.44519,0.234074 -2.25926,0.411111 -1.67481,0.364444 -1.93333,2.04148 -1.93333,2.04148 l -0.53778,2.211849 c -0.30518,1.414814 0.50074,1.356295 0.86,1.246666 0.73111,-0.220741 1.12741,-0.44 2.61926,-0.777777 1.42592,-0.323704 2.93259,-0.565926 4.13481,-0.556296 1.76296,0 3.1037,0.193333 3.99481,0.565185 0.89185,0.388888 1.33333,1.05111 1.33333,1.998516 0.003,0.225185 0.009,0.437777 -0.0726,0.623703 -0.0733,0.173333 -0.21408,0.34074 -0.63556,0.397777 -2.51629,0.14963 -4.32222,0.379259 -6.49703,0.696296 -2.14592,0.302222 -4.0237,0.819999 -5.59333,1.537036 -1.67333,0.74074 -2.92518,1.735553 -3.78814,2.992589 -0.84,1.264443 -1.26222,2.795553 -1.26444,4.599255 0,1.704443 0.61259,3.094812 1.79777,4.17407 1.19926,1.065184 2.75926,1.592591 4.64666,1.592591 1.17926,-0.0081 2.10222,-0.09333 2.76371,-0.258519 0.65481,-0.165185 1.36888,-0.399999 2.12296,-0.726665 0.5637,-0.235556 1.17185,-0.576296 1.81407,-1.003703 0.64296,-0.428889 1.08815,-0.733333 1.65926,-1.107406 l 0.0207,0.03555 -0.16074,0.708888 c -8e-5,0.0067 -0.0104,0.01037 -0.0104,0.01704 l 0.005,0.01333 c -0.1837,0.854073 0.32963,1.564442 1.17556,1.648146 l 0.0104,0.01481 h 0.0748 l 0.003,0.0037 c 0.56148,0 2.48889,-7.4e-5 3.38963,-0.0037 h 0.62889 c 0.0415,0 0.0459,-0.01259 0.0622,-0.02222 0.8637,-0.105926 1.69185,-0.809629 1.88666,-1.654073 l 3.21704,-13.885171 c 0.0741,-0.326666 0.13259,-0.703703 0.16741,-1.137777 0.04,-0.438518 0.0874,-0.799258 0.0733,-1.059999 7.4e-4,-1.965183 -0.83704,-3.417774 -2.50518,-4.351847" />
  <path
     style="fill:#ffffff"
     d="m 98.873999,33.677441 c -0.943703,0 -2.181479,0.763703 -2.767405,1.686665 0,0 -6.312586,10.822211 -6.932585,11.903692 -0.337037,0.581481 -0.678518,0.211851 -0.735555,-0.0044 -0.04593,-0.262962 -1.956294,-11.828136 -1.956294,-11.828136 -0.214815,-0.93111 -1.187407,-1.730369 -2.403702,-1.726665 l -3.936292,0.0059 c -0.948888,0 -1.540739,0.759999 -1.329628,1.678517 0,0 3.008885,17.051835 3.595552,21.065905 0.292592,2.218516 -0.03037,2.611849 -0.03037,2.611849 l -3.900737,6.801475 C 77.905872,66.794445 78.218464,67.55 79.162908,67.55 l 4.561477,-0.0037 c 0.944443,0 2.195553,-0.751851 2.757775,-1.675554 L 104.03029,36.18929 c 0,0 1.67852,-2.535553 0.13037,-2.514071 -1.05555,0.01481 -5.286661,0 -5.286661,0"
     id="path15"
     inkscape:connector-curvature="0" />
  <path
     style="fill:#ffffff"
     d="m 52.992564,30.905592 c -0.547407,-1.068147 -1.368147,-1.935554 -2.415553,-2.590368 -1.086666,-0.670369 -2.350368,-1.132591 -3.8237,-1.411109 -1.48148,-0.265926 -3.21333,-0.396296 -5.199995,-0.414074 l -9.195546,0.0067 c -0.955555,0.01111 -1.89185,0.760739 -2.112591,1.679257 l -6.200734,26.955529 c -0.213333,0.922221 0.383703,1.684442 1.335554,1.684442 h 4.405181 c 0.952591,0 1.896294,-0.74074 2.110368,-1.684442 l 1.517776,-6.541475 c 0.202963,-0.914814 1.144444,-1.67185 2.099257,-1.67185 h 1.259258 c 5.387402,-0.0052 9.565917,-1.107407 12.568877,-3.31333 2.998515,-2.20148 4.498514,-5.119995 4.488884,-8.728881 7.41e-4,-1.585183 -0.267407,-2.911849 -0.839999,-3.971107 m -9.511842,8.807399 c -1.328147,0.97111 -3.168886,1.457776 -5.558513,1.457776 h -1.079999 c -0.951851,0 -1.552591,-0.754814 -1.342962,-1.68222 l 1.325925,-5.714069 c 0.202222,-0.92074 1.15185,-1.684442 2.103701,-1.675554 l 1.44148,-0.0089 c 1.683702,0 2.96296,0.288147 3.827404,0.86148 0.85111,0.557777 1.283702,1.438517 1.268888,2.62296 0.02518,1.783702 -0.651111,3.164442 -1.985924,4.138515"
     id="path17"
     inkscape:connector-curvature="0" />
  <path
     style="fill:#ffffff"
     inkscape:connector-curvature="0"
     id="path19"
     d="m 132.97026,31.001888 c -0.54889,-1.068147 -1.37778,-1.928146 -2.42592,-2.597775 -1.07482,-0.668148 -2.35185,-1.134073 -3.83037,-1.405925 -1.46222,-0.256296 -3.20074,-0.402962 -5.18148,-0.407407 l -9.21628,0.0044 c -0.94889,0.0163 -1.88,0.76148 -2.09926,1.679257 l -6.19629,26.964418 c -0.22593,0.916295 0.39037,1.679998 1.32222,1.674813 l 4.42222,-0.0081 c 0.93777,0.0081 1.89333,-0.75037 2.11481,-1.666665 l 1.4963,-6.543697 c 0.20962,-0.917036 1.16296,-1.685184 2.11629,-1.671851 h 1.25704 c 5.39406,0 9.57628,-1.108147 12.57109,-3.31407 2.98519,-2.217035 4.48889,-5.12518 4.48889,-8.742214 -0.01,-1.579257 -0.27852,-2.909627 -0.84,-3.965181 m -9.50814,8.81925 c -1.32,0.959999 -3.17259,1.44148 -5.55629,1.44148 h -1.0963 c -0.94814,0.01111 -1.56073,-0.755554 -1.33555,-1.674813 l 1.32148,-5.722957 c 0.19704,-0.905184 1.15926,-1.675554 2.09407,-1.668146 l 1.44815,-7.41e-4 c 1.69037,7.41e-4 2.95481,0.29037 3.82814,0.852592 0.85852,0.568888 1.27482,1.451109 1.28148,2.626664 0.004,1.79185 -0.65925,3.170367 -1.98518,4.152588" />
  <path
     style="fill:#ffffff"
     inkscape:connector-curvature="0"
     id="path21"
     d="m 66.429587,51.299646 c -0.546666,0.344444 -1.123703,0.637777 -1.728887,0.889629 -0.813333,0.326666 -1.588147,0.499999 -2.299257,0.499999 -1.091851,0 -1.935554,-0.155555 -2.505183,-0.485184 -0.568888,-0.314815 -0.868888,-0.86074 -0.859258,-1.642962 0,-0.899999 0.21037,-1.60222 0.64074,-2.150368 0.434814,-0.528888 1.077036,-0.954814 1.877035,-1.27111 0.797777,-0.271111 1.779258,-0.49037 2.905182,-0.649629 1.004444,-0.126666 2.99259,-0.354814 3.245923,-0.358518 0.251852,-7.4e-5 0.421481,-0.142222 0.308148,0.534814 -0.04889,0.294074 -0.622962,2.649627 -0.885925,3.718515 -0.07926,0.322222 -0.505926,0.789629 -0.698518,0.914073 m 7.794066,-16.545909 c -1.672591,-0.933333 -4.288144,-1.404443 -7.86814,-1.404443 -1.771109,0 -3.549626,0.14074 -5.33555,0.418518 -1.312592,0.199259 -1.444443,0.233333 -2.259257,0.41037 -1.675554,0.365925 -1.933332,2.041479 -1.933332,2.041479 l -0.537777,2.213331 c -0.304444,1.414073 0.502222,1.355555 0.859999,1.245925 0.729629,-0.22074 1.128147,-0.439259 2.619998,-0.778518 1.423702,-0.322221 2.932589,-0.563703 4.133329,-0.555555 1.764443,0 3.1037,0.192593 3.994811,0.564444 0.892591,0.388889 1.33185,1.052592 1.33185,1.999258 0.0059,0.225184 0.01037,0.438518 -0.06889,0.622962 -0.07481,0.174815 -0.217036,0.341481 -0.638518,0.397777 -2.51333,0.151852 -4.318514,0.380741 -6.49703,0.697777 -2.145924,0.302222 -4.022959,0.82 -5.593328,1.536295 -1.673331,0.74074 -2.923701,1.737035 -3.785181,2.99259 -0.842962,1.263702 -1.264443,2.794812 -1.265925,4.599254 0,1.703702 0.613333,3.094812 1.797035,4.17333 1.199999,1.065184 2.758516,1.593331 4.645922,1.593331 1.179998,-0.0081 2.10222,-0.09481 2.765923,-0.258518 0.654073,-0.166667 1.368887,-0.4 2.119998,-0.726666 0.565925,-0.235555 1.172591,-0.577777 1.815553,-1.004443 0.641481,-0.428148 1.088888,-0.732592 1.662221,-1.106666 l 0.01778,0.03482 -0.160741,0.708147 c -0.0015,0.0067 -0.01037,0.01111 -0.01037,0.01926 l 0.0067,0.01111 c -0.183704,0.856295 0.328147,1.565924 1.174813,1.648146 l 0.01037,0.0163 h 0.07407 l 0.0022,0.0052 c 0.562962,0 2.491108,-0.003 3.389626,-0.0052 h 0.629629 c 0.04222,0 0.04815,-0.01407 0.06148,-0.02296 0.865925,-0.108888 1.69111,-0.81111 1.888147,-1.65259 l 3.217033,-13.886653 c 0.07259,-0.325926 0.131852,-0.702963 0.164445,-1.136295 0.04296,-0.440741 0.08963,-0.8 0.07704,-1.059999 7.4e-4,-1.966665 -0.838518,-3.419256 -2.505924,-4.353329" />
  <path
     style="fill:#ffffff"
     inkscape:connector-curvature="0"
     id="path23"
     d="m 169.40726,26.811522 h -3.94148 c -0.002,0 -0.004,7.4e-5 -0.006,7.4e-5 l -0.002,-7.4e-5 c -0.90222,0 -1.81777,0.69111 -2.07333,1.570369 -0.0104,0.03556 -0.0281,0.06963 -0.0363,0.106666 0,0 -0.0941,0.428889 -0.25704,1.17037 l -5.41407,24.540716 c -0.12518,0.554814 -0.20889,0.916295 -0.23407,1.010369 l 0.0104,0.01333 c -0.18741,0.857777 0.32815,1.567406 1.17481,1.646665 l 0.0111,0.0163 h 4.09111 c 0.8963,0 1.80592,-0.684444 2.06963,-1.552591 0.0126,-0.04222 0.0326,-0.08148 0.0422,-0.123704 l 5.90592,-26.725899 -0.009,-0.003 c 0.20074,-0.914073 -0.38815,-1.672591 -1.33185,-1.672591" />
  <path
     style="fill:#ffffff"
     inkscape:connector-curvature="0"
     id="path25"
     d="m 176.86651,32.252258 c -0.13407,0.03556 -0.28074,0.06518 -0.44148,0.08815 -0.16,0.02222 -0.3037,0.03482 -0.42741,0.03482 -0.44,0 -0.77185,-0.118519 -0.99926,-0.353333 -0.22814,-0.235555 -0.34148,-0.613333 -0.34148,-1.132592 v -2.279257 h -0.48815 v -0.607406 h 0.48815 v -1.231851 h 0.72074 v 1.231851 h 1.48889 v 0.607406 h -1.48889 v 1.953332 c 0,0.224444 0.007,0.40074 0.0156,0.527407 0.0111,0.127407 0.0467,0.245185 0.10815,0.354814 0.0556,0.102963 0.13259,0.177037 0.23185,0.224444 0.0993,0.04815 0.24963,0.07185 0.45185,0.07185 0.11704,0 0.24,-0.01778 0.36889,-0.05259 0.12666,-0.03407 0.21926,-0.06296 0.27555,-0.08593 h 0.037 v 0.648888" />
  <path
     style="fill:#ffffff"
     inkscape:connector-curvature="0"
     id="path27"
     d="m 183.99984,32.290035 h -0.72074 v -2.441479 c 0,-0.183704 -0.009,-0.362222 -0.0259,-0.533333 -0.017,-0.171852 -0.0533,-0.308148 -0.10592,-0.411111 -0.0593,-0.109629 -0.14296,-0.193333 -0.25333,-0.248888 -0.11038,-0.0563 -0.26815,-0.08444 -0.47556,-0.08444 -0.20296,0 -0.4037,0.05037 -0.60667,0.151852 -0.20222,0.100741 -0.4037,0.228889 -0.60592,0.385185 7.4e-4,0.05926 0.0133,0.127407 0.0185,0.205926 0.006,0.07778 0.008,0.154814 0.008,0.231851 v 2.744442 h -0.72074 v -2.441479 c 0,-0.189629 -0.01,-0.368889 -0.0259,-0.539259 -0.0163,-0.17037 -0.0526,-0.305925 -0.10519,-0.408147 -0.06,-0.110371 -0.14444,-0.192593 -0.25481,-0.248148 -0.10963,-0.05482 -0.26815,-0.08222 -0.47556,-0.08222 -0.19703,0 -0.39333,0.04889 -0.59259,0.145926 -0.19852,0.09704 -0.39555,0.220741 -0.59333,0.371852 v 3.201478 h -0.72222 v -4.287403 h 0.72222 v 0.475555 c 0.22593,-0.186667 0.45037,-0.332592 0.67407,-0.437777 0.22519,-0.103704 0.46148,-0.157037 0.71556,-0.157037 0.29111,0 0.53926,0.06148 0.74074,0.183703 0.20296,0.123704 0.35481,0.293333 0.45481,0.511111 0.29111,-0.245926 0.55778,-0.423703 0.79852,-0.531851 0.24,-0.108148 0.49704,-0.162963 0.77111,-0.162963 0.47111,0 0.81852,0.142963 1.04222,0.427407 0.22371,0.285925 0.3363,0.684443 0.3363,1.196295 v 2.78296" />
</svg>
