<?xml version="1.0"?><svg xmlns="http://www.w3.org/2000/svg" viewBox="0 0 200 90" enable-background="new 0 0 200 120" width="200" height="90"><path d="m34 44.5c-4.2-1.2-8.4-.7-12.6.2-2.7.6-2.7.8-2.7 3.6 0 7.9 0 15.8-.1 23.8 0 1.8 0 3.5 0 5.3 0 1.9.2 2 2.1 2.1 1.8 0 3.5 0 5.3 0 .6 0 1.1-.2 1.9-.3v-9.5c.6 0 1.1-.1 1.5 0 6.5.9 10.5-3.1 11.9-7.3.8-2.4.8-4.8.7-7.2 0-5.2-3.1-9.2-8-10.7m-1.3 16.8c-.7 2.4-1.9 3.1-4.7 2.7v-14.4c2.8-.5 4.1.1 4.8 2.5.8 3.1.7 6.2-.1 9.2m27.7-17.1c-3-.6-6.1-.4-9.1.2-1.6.3-3.2.9-5 1.4.7 1.8 1.3 3.4 1.9 5.1 1.1-.3 1.8-.6 2.6-.8 2-.4 4-1.2 6-.4 1.7.6 2 1.2 1.5 3-1.5.2-3 .3-4.5.7-1.5.4-3.1.8-4.5 1.5-3.5 1.7-4.7 3.9-4.4 8.2.2 2.7 2.2 5 5.5 6 4.3 1.3 8.6 1.1 12.9.1 1.3-.3 2.5-.8 3.8-1.2 0-5.4.1-10.4 0-15.4-.1-4.5-2.7-7.6-6.7-8.4m-1.7 20.3c-1.7.3-3.4.6-4.6-.9-1-1.4-1-3.1-.2-4.5 1-1.8 2.8-2.1 4.8-2v7.4m138.9-11.8c-3.3-11.3-13.6-19.1-25.1-19.1-48.5.1-97 0-145.6.1-2.3 0-4.7.3-7 .9-12.4 3.3-20.9 15.8-18.3 29.5 1 5.3 3.5 9.8 7.1 13.6 3.4 3.6 7.1 7 12.3 7.9 2.2.4 4.5.7 6.8.7 24.2.1 48.4 0 72.6 0 6.3 0 12.7 0 19 0 18.2 0 36.3.1 54.5 0 8.7-.1 15.4-4.1 20.5-11 5-6.9 5.5-14.7 3.2-22.6m-20.5 31.1c-1.8.4-3.6.5-5.4.5-24 0-48 0-72.1 0-23.9 0-47.7 0-71.6 0-5.3 0-10.3-1-14.7-4.1-7-4.8-11.1-11.3-11.4-19.8-.6-13.9 9.7-24.3 21.4-25.8 2-.3 4.1-.4 6.1-.4 47.4 0 94.7 0 142.1 0 7.5 0 14.1 2.4 19.3 8 6.5 7.2 8.5 15.6 5.5 24.8-3.1 9.3-9.7 14.8-19.2 16.8m-89.5-39.6c-1.3-.1-1.9.5-2.2 1.7-.4 2-.9 4-1.4 6-.6 2.3-1.1 4.6-1.8 7.3-1.1-5.2-2.1-10.1-3-14.8h-9.3c.1.6.2 1.1.3 1.5 1.9 5.9 3.7 11.8 5.6 17.8.6 1.9 1.7 3.8 1.6 5.6-.1 1.9-1.3 3.7-2 5.5-.5 1.4-1.1 2.8-1.7 4.4.9.1 1.4.3 2 .3 1.8 0 3.7-.1 5.5 0 1.5.1 2.1-.5 2.5-2 2.7-8.6 5.4-17.2 8.1-25.8.7-2.4 1.4-4.7 2.3-7.5-2.3 0-4.4.1-6.5 0m82.5-5.1c-16.3.1-32.5 0-48.8.1-1.5 0-3.1.1-4.5.4-8.7 1.7-15.9 9.3-15.7 19.5.3 12.1 10.5 19.5 19.8 19.2 8.2-.2 16.3 0 24.5 0 8.5 0 16.9 0 25.4 0 10.2 0 20.5-9.1 18.9-22-1.3-11.3-10.9-17.3-19.6-17.2m-40.9 29.9c-1.4.8-3 1.4-4.6 1.7-3.1.4-6.2.3-9.3-1.6.7-1.8 1.3-3.4 2-5 1.3.3 2.4.7 3.6.9 1.1.2 2.2.1 2.6-1.2.4-1.3-.5-2-1.4-2.6-.6-.4-1.2-.6-1.8-.9-3.2-1.6-4.6-3.7-4.4-6.8.2-3.1 2.3-5.6 5.4-6.7 3-1 7.8-.3 10.4 1.5-.6 1.4-1.2 2.9-1.8 4.3-1.2-.3-2.3-.6-3.3-.8-.9-.1-1.9 0-2 1.1-.1.7.3 1.6.7 2.2.3.5 1 .7 1.5 1 1 .6 2 1.1 2.9 1.7 4 2.9 2.8 9.4-.5 11.2m27.5-9.4c-4.5.7-9 1.3-13.4 2 .5 2.8 2.2 4 5.3 3.7 1.8-.2 3.6-.7 5.6-1.1.5 1.5 1.1 3.1 1.7 4.8-.4.3-.7.6-1.1.7-3.8 1.4-7.8 1.8-11.7.9-5-1.2-7.5-4.7-8.2-10.1-.3-2.7-.1-5.5 1.1-8 1.7-3.5 4.4-5.5 8.3-5.8 1.2-.1 2.4-.1 3.6 0 3 .3 5.3 1.7 6.8 4.3 1.8 2.5 2.3 5.4 2 8.6m12.6 11.3c-6.4-.4-8.8-4.7-9.5-10.1-.4-2.7-.2-5.3.9-7.9 2.6-6.4 8.2-7.5 13.5-5.7 1.5.5 1.6 1 1.1 2.4-.3.9-.7 1.9-1 2.9-.5-.1-.9-.2-1.3-.3-2-.6-3.5.1-4.1 2.1-.8 2.5-.9 5.1-.2 7.7.8 2.8 1.9 3.4 4.7 2.6.2-.1.4-.1.9-.1.5 1.5 1 3 1.6 4.5-1.9 2-4.3 2-6.6 1.9m-25.7-18.6c-1.2 1.5-1.5 3.2-1.1 5.1 2.1-.3 4.1-.6 6.5-1-.3-1.3-.3-2.4-.7-3.4-.8-1.9-3.4-2.3-4.7-.7" fill="#fff" transform="matrix(.80896 0 0 .80896 19.09-3.515)"/></svg>