<?xml version="1.0"?><svg xmlns="http://www.w3.org/2000/svg" viewBox="0 0 200 90" enable-background="new 0 0 200 120" width="200" height="90"><path d="m29.5 37c.7 0 1.4-.1 2-.3l.3-2c-.7.3-1.3.5-2.1.5-1.2 0-1.7-.5-1.7-1.4 0-.1 0-.1 0-.2h4c.2-.8.2-1.4.2-2 0-1.8-1-2.9-2.7-2.9-2 0-3.5 2-3.5 4.7.1 2.4 1.2 3.6 3.5 3.6m0-6.4c.6 0 .9.4.9 1 0 .1 0 .2 0 .4h-2.2c.2-.9.6-1.4 1.3-1.4m-18.9 10.3c-1.9 0-3.2 2-3.2 4.7 0 2.3 1.1 3.5 3.1 3.5.7 0 1.3-.1 1.9-.3l.3-2c-.7.3-1.3.5-1.9.5-1.1 0-1.6-.5-1.6-1.4 0-.1 0-.1 0-.2h3.7c.2-.8.2-1.4.2-2 0-1.7-1-2.8-2.5-2.8m.7 3.2h-2c.2-.9.6-1.4 1.2-1.4.5 0 .9.4.9 1-.1.1-.1.3-.1.4m12.5-7.1c.5 0 .9-.1 1.4-.3l.3-1.7c-.1 0-.3.1-.5.1-.5 0-.7-.2-.7-.6 0-.1 0-.2 0-.3l.5-3.3h1l.3-1.9h-1l.2-1.2h-2l-.9 5.4-.1.6-.1.8c0 .3-.1.5-.1.7.1 1.1.7 1.7 1.7 1.7m-10.3 8.6c0 2 1 3.6 2.6 3.6.8 0 1.3-.1 1.6-.3l.3-2c-.4.2-.8.3-1.2.3-.8 0-1.3-.8-1.3-1.7 0-1.6.7-2.5 1.7-2.5.4 0 .8.2 1.2.4l.4-1.9c-.6-.3-1.3-.5-1.7-.5-2.1-.1-3.6 2-3.6 4.6m-8.2-4.7c.7 0 1.2.2 1.5.5l.5-2c-.5-.3-1.3-.4-2.2-.4-1.5 0-3.1.8-3.1 3.3 0 2.8 2.7 2.2 2.7 3.8 0 1-.9 1.2-1.5 1.2-.6 0-1.4-.2-1.7-.6l-.4 2c.6.3 1.4.5 2.2.5 1.6 0 3.4-.7 3.4-3.5 0-3-2.7-2.5-2.7-3.9 0-.8.6-.9 1.3-.9m13.4-5.7c-.6 0-1.1-.1-1.8-.3l-.3 1.8h.1l.4.1c.1 0 .3 0 .5.1.5 0 .8.1 1.1.1 2.1 0 3-.8 3-2.6 0-1.1-.4-1.7-1.4-2.2-.8-.4-.9-.5-.9-.9 0-.4.3-.6 1-.6.4 0 .9 0 1.4.1l.3-1.8c-.5-.1-1.3-.2-1.7-.2-2.2 0-3 1.2-3 2.7 0 1 .5 1.7 1.5 2.2.8.4.9.5.9.9 0 .4-.3.6-1.1.6m-4.7-3.4c-2.2 0-3.5 1.1-3.5 3.1 0 1.3.7 2.2 1.8 2.2.9 0 1.6-.3 2.1-1v.8h1.6v-.2-.3l.1-.4.1-.5.4-2.8c.1-.9.2-1.2.2-1.6 0-1.5-.9-2.3-2.6-2.3-.7 0-1.4.1-2.4.4l-.3 1.8.2-.1.3-.1c.4-.1 1.1-.2 1.6-.2.9 0 1.3.2 1.3.7 0 .1 0 .3-.1.5-.3 0-.6 0-.8 0m-.9 3.5c-.4 0-.7-.3-.7-.8 0-.8.6-1.2 1.7-1.2.1 0 .2 0 .4 0 0 1.2-.6 2-1.4 2m-8.6-5.9l.2 7.4h1.4l2.5-7.5-1.1 7.5h2l1.5-9.7h-3.1l-1.9 6-.1-6h-2.9l-1.5 9.7h1.9l1.1-7.4m57.5 19.4v-1.3h.4v-.3h-1.2v.3h.4v1.3h.4m-1.3-3.1c.2-.8.2-1.4.2-2 0-1.8-1-2.9-2.5-2.9-1.9 0-3.2 2-3.2 4.7 0 2.3 1.1 3.5 3.1 3.5.7 0 1.3-.1 1.9-.3l.3-2c-.7.3-1.3.5-1.9.5-1.1 0-1.6-.5-1.6-1.4 0-.1 0-.1 0-.2h3.7zm-2.4-3c.6 0 .9.4.9 1 0 .1 0 .2 0 .4h-2c.1-.9.5-1.4 1.1-1.4m2.3-7c0 .7.5 1.2 1.2 1.2.7 0 1.2-.6 1.2-1.2 0-.7-.5-1.2-1.2-1.2-.7 0-1.2.5-1.2 1.2m1.2-.9c.5 0 .9.4.9.9 0 .5-.4 1-.9 1-.5 0-.9-.4-.9-1 0-.5.4-.9.9-.9m.8 14h.3v-1.3l.3 1.3h.3l.3-1.3v1.3h.2v-1.6h-.4l-.3 1.3-.3-1.3h-.4v1.6m-1-13h.2l.2.4h.3l-.3-.4c.1 0 .2-.2.2-.3 0-.1 0-.2-.1-.3-.1-.1-.2-.1-.3-.1h-.4v1.1h.2v-.4m0-.4h.1c0 0 .1 0 .2 0 0 0 .1.1.1.1 0 0 0 .1-.1.1 0 0-.1 0-.1 0h-.1v-.2zm-16.8 5.5c-2.1 0-3.5 1.9-3.5 4.7 0 2 .8 3.6 2.8 3.6 2 0 3.5-1.4 3.5-4.7.1-2-.9-3.6-2.8-3.6m-.5 6.4c-.6 0-1-.7-1-1.8 0-1.3.6-2.7 1.5-2.7.7 0 1 .8 1 1.6-.1 1.8-.6 2.9-1.5 2.9m9.6 1.6l1.4-9.7h-1.8l-.4 2.8c-.5-.7-1.1-1.1-1.8-1.1-1.6 0-3 2.2-3 4.9 0 2 .9 3.3 2.2 3.3.7 0 1.2-.3 1.7-.9l-.1.8h1.8zm-2.8-1.9c-.6 0-.9-.5-.9-1.6 0-1.6.6-2.7 1.4-2.7.6 0 1 .5 1 1.5 0 1.7-.6 2.8-1.5 2.8m-4.6-15.2c-2.2 0-3.5 1.1-3.5 3.1 0 1.3.7 2.2 1.8 2.2.9 0 1.6-.3 2.1-1v.8h1.6v-.2-.3l.1-.4.1-.5.4-2.8c.1-.9.2-1.2.2-1.6 0-1.5-.9-2.3-2.6-2.3-.7 0-1.4.1-2.4.4l-.3 1.8.2-.1.3-.1c.4-.1 1.1-.2 1.6-.2.9 0 1.3.2 1.3.7 0 .1 0 .3-.1.5-.3 0-.6 0-.8 0m-.9 3.5c-.4 0-.7-.3-.7-.8 0-.8.6-1.2 1.7-1.2.1 0 .2 0 .4 0 0 1.2-.5 2-1.4 2m7.6-4.1c.1 0 .1 0 .1 0 .2-1 .4-1.7.8-2.3h-.1c-.1 0-.1 0-.2 0-.7 0-1 .3-1.6 1.3l.2-1.2h-1.8l-1.2 7.9h2c.7-4.9.9-5.7 1.8-5.7m2.6 5.8c.7 0 1.3-.3 1.8-.9l-.1.8h1.9l1.5-9.7h-2l-.4 2.8c-.5-.7-1.1-1.1-1.9-1.1-1.8 0-3.2 2.2-3.2 4.9 0 1.9 1 3.2 2.4 3.2m1.2-6.2c.7 0 1.1.5 1.1 1.6 0 1.6-.6 2.7-1.6 2.7-.7 0-1-.5-1-1.6 0-1.6.6-2.7 1.5-2.7m-16.5 6.2c.5 0 1-.1 1.8-.3l.3-2.2c-.7.3-1.2.5-1.7.5-1.2 0-1.9-.9-1.9-2.4 0-2.1 1-3.6 2.5-3.6.6 0 1.1.1 1.8.5l.3-2.1c-.2-.1-.2-.1-.5-.2l-.7-.2c-.2-.1-.5-.1-.9-.1-2.6 0-4.5 2.4-4.5 5.9 0 2.6 1.3 4.2 3.5 4.2m-1.5 12.1c.5 0 1-.1 1.6-.3l.3-2.2c-.6.3-1.1.5-1.6.5-1.1 0-1.7-.9-1.7-2.4 0-2.1 1-3.6 2.4-3.6.5 0 1 .2 1.7.5l.3-2.1c-.2-.1-.2-.1-.4-.2l-.8-.2c-.2-.1-.5-.1-.8-.1-2.5 0-4.2 2.4-4.2 5.9 0 2.6 1.2 4.2 3.2 4.2m-6.4-8.2c-1.9 0-3.2 2-3.2 4.7 0 2.3 1.1 3.5 3.1 3.5.7 0 1.3-.1 1.9-.3l.3-2c-.7.3-1.3.5-1.9.5-1.1 0-1.6-.5-1.6-1.4 0-.1 0-.1 0-.2h3.7c.2-.8.2-1.4.2-2 0-1.7-1-2.8-2.5-2.8m.7 3.2h-2c.2-.9.6-1.4 1.2-1.4.5 0 .9.4.9 1 0 .1-.1.3-.1.4m-9.7-3l-.5 3.6c-.1 1.2-.6 2.2-1.4 2.2-.5 0-.7-.4-.7-.9 0-.4.1-.8.1-1.2l.5-3.7h-2l-.5 3.7c-.1.8-.1 1.1-.1 1.6 0 1.5.6 2.7 1.7 2.7 1 0 1.6-.6 2.1-1.5l-.2 1.3h1.8c.1-.7.1-1.4.2-2.1l.9-5.8h-1.9zm12.8-9.9c.2-1 .4-1.7.7-2.3h-.1c-.1 0-.1 0-.2 0-.7 0-1 .3-1.6 1.3l.2-1.2h-1.8l-1.2 7.9h2c.7-4.8.9-5.7 1.8-5.7.1 0 .1 0 .2 0m-6.7 9.8c-.1 0-.1 0-.2 0-.6 0-1 .3-1.5 1.3l.2-1.2h-1.7l-1.1 7.9h1.9c.7-4.8.8-5.7 1.7-5.7.1 0 .1 0 .1 0 .1-1 .4-1.7.6-2.3m80.8-.3c-.1 0-.2 0-.3 0-.6 0-1.2 0-1.9 0-.3 0-.3 0-.4.3-.7 1.8-1.4 3.6-2.1 5.4 0 .1-.1.1-.1.2 0-.1-.1-.1-.1-.2-.2-.8-.3-1.5-.5-2.3-.2-.9-.4-1.8-.6-2.6-.1-.4-.3-.6-.6-.7-.1 0-.3-.1-.5-.1-1.2 0-2.4 0-3.6 0-.1 0-.1 0-.2 0 0 0 0 0 0 .1.1 0 .1.1.2.1.7.2 1.5.5 2.1.8.1.1.2.1.2.2.6 2.3 1.3 4.7 1.9 7 0 .1.1.3.1.4.8 0 1.6 0 2.4 0 .1 0 .2-.1.2-.2 1.2-2.7 2.4-5.5 3.5-8.2.2-.1.2-.1.3-.2m-17.1 4.8c-.1-.6-.4-1.1-1-1.5-.7-.4-1.4-.3-2.1.1-.2.1-.3.2-.5.4.2-1.3.4-2.6.5-3.9-.5 0-1 0-1.5 0-.1 0-.1.1-.1.2-.1.3-.1.7-.1 1.1-.1.7-.2 1.4-.3 2.1-.1.7-.2 1.4-.3 2.1-.1.7-.2 1.4-.3 2.2 0 .3-.1.7-.1 1h1.6c0-.2.1-.3.1-.6.1.1.2.2.2.2.2.3.5.4.9.5.6.1 1.1 0 1.5-.3 1.1-.7 1.8-2.3 1.5-3.6m-2.7 2.3c-.1 0-.2 0-.3.1-.5 0-.9-.4-1-.9-.1-.6.3-1.3 1-1.5.6-.2 1.1.1 1.2.7.3.7-.3 1.5-.9 1.6m7.7-3.9c-.2 0-.2.1-.3.2-.5.8-1 1.6-1.5 2.4 0 .1-.1.1-.1.2 0-.1-.1-.2-.1-.3-.2-.7-.5-1.5-.7-2.2-.1-.2-.1-.2-.3-.2-.5 0-1 0-1.4 0h-.3c0 .1.1.2.1.2.5 1.4 1 2.8 1.5 4.2 0 .1 0 .2 0 .4-.3.5-.6.9-.9 1.4-.4.6-.8 1.2-1.2 1.8h1.8c1.7-2.7 3.3-5.3 5-8.1-.5 0-1.1.1-1.6 0m11.6 5.4h2.3c.5-2.9 1-5.8 1.5-8.7h-2.3c-.5 2.9-1 5.8-1.5 8.7m-29.2-11h5.6c.1-.7.2-1.4.3-2.1-.5 0-1 0-1.5 0-.5 0-1 0-1.5 0 .1-.6.2-1.2.3-1.8h.3c.8 0 1.6 0 2.4 0 .1 0 .2 0 .2-.1.1-.6.2-1.2.3-1.8 0-.1 0-.1 0-.2h-2.9c.1-.6.2-1.2.3-1.7h3c.1-.7.2-1.4.3-2.1h-5.6c-.5 3.2-1 6.5-1.5 9.8m-8.8-9.8c.2.6.3 1.2.4 1.8.1.5.1 1 .2 1.5.1.5.1 1 .2 1.5.1.6.1 1.3.2 1.9.1.7.1 1.4.2 2.1 0 .3.1.6.1 1 0 0 .1 0 .1 0 1.1 0 2.1 0 3.2 0 .1 0 .2-.1.2-.2.5-1 1-2.1 1.5-3.1 1.3-2.7 2.7-5.3 4-8 1-1.9 1.9-3.8 2.9-5.7.5-.9 1-1.9 1.4-2.8h-1.5c0 .1-.1.1-.1.2-1.1 1.7-2.1 3.4-3.2 5.1-2 3.2-3.9 6.5-5.8 9.7-.1.2-.2.4-.4.6 0 0 0 0-.1 0-.2-2.4-.4-4.7-.6-7.1h-.3c-1.4 0-2.8 0-4.1 0-.1 0-.2 0-.3 0v.3c.1 0 .1 0 .2 0 .8.2 1.4.6 1.6 1.2m48.6 17.7c0-.3-.2-.6-.4-.9-.2-.3-.5-.6-.9-.8-.4-.2-.8-.4-1.2-.6-.2-.1-.5-.3-.7-.4-.3-.3-.3-.6 0-.9.1-.1.2-.2.3-.2.2-.1.5-.1.7-.1.7 0 1.4.1 2.1.4 0-.1 0-.1.1-.1.1-.5.2-1 .2-1.5 0-.2 0-.2-.2-.3-.4-.1-.8-.2-1.3-.2-.8-.1-1.6 0-2.4.2-.8.2-1.4.6-1.9 1.3-.5.7-.6 1.5-.1 2.3.2.4.6.7 1.1 1 .4.2.8.4 1.2.6.2.1.4.2.6.4.3.3.3.8-.1 1-.2.1-.4.2-.7.3-.7.1-1.4.1-2.1-.2-.3-.1-.6-.2-1-.4-.1.6-.2 1.3-.3 1.9 0 0 0 0 .1 0 .1 0 .1 0 .2.1.8.3 1.7.4 2.6.4.8 0 1.5-.1 2.2-.5 1.3-.5 2-1.5 1.9-2.8m-48.2-23.2c1.1.5 2.3 1 3.4 1.4.3.1.5.2.4.6.1.7.1 1.4.2 2.1 0 .5.1 1 .1 1.5 0 .2 0 .3.1.5.2.1.3 0 .3-.1.4-.8.9-1.5 1.3-2.3.7-1.2 1.4-2.4 2.1-3.6.1-.1.1-.3 0-.4h-8.2c.1.2.1.2.3.3m52.5 17.7c-.1 0-.1 0-.2 0-.4.1-.6.4-.8.7-.9 2.1-1.9 4.3-2.8 6.4-.2.5-.4.9-.6 1.4.1 0 .1 0 .2 0 .7 0 1.4 0 2.1 0 .1 0 .2-.1.2-.2.1-.3.2-.6.4-1 0-.1.1-.2.2-.2.9 0 1.8 0 2.7 0 .1 0 .2 0 .2.2.1.3.2.6.2.9 0 .2.1.2.2.2.6 0 1.2 0 1.8 0 .1 0 .1 0 .2 0-.6-2.9-1.3-5.8-1.9-8.6-.7.2-1.4.2-2.1.2m-.8 5.6c.4-1.1.8-2.2 1.2-3.2 0 0 0 0 .1 0 .2 1.1.5 2.1.7 3.2-.6 0-1.3 0-2 0m-5.8-8c.1 0 .2 0 .2-.2.1-.4.1-.7.2-1.1 0-.3.1-.5.1-.8h-3c.1-.6.2-1.2.3-1.8h.3c.8 0 1.6 0 2.4 0 .2 0 .2 0 .2-.2.1-.4.1-.9.2-1.3 0-.2 0-.4.1-.6-.1 0-.2 0-.3 0-.8 0-1.5 0-2.3 0-.1 0-.2 0-.3 0 .1-.6.2-1.1.3-1.7h3c.1-.7.2-1.4.3-2.1h-5.6c-.5 3.3-1 6.5-1.6 9.8.1 0 .1 0 .1 0 1.9 0 3.6 0 5.4 0m-7.4 0c.5-3.3 1-6.5 1.6-9.8h-2.5c-.5 3.3-1 6.5-1.6 9.8h2.5m10.6 0c.8 0 1.7 0 2.5 0 1.1-.1 2.1-.4 3-1.1 1.2-.9 2-2 2.4-3.5.1-.2.1-.5.1-.7v-.7c0-.1 0-.1-.1-.2-.1-.5-.2-1.1-.5-1.5-.7-1.3-1.9-2-3.4-2.1-1.3-.1-2.5 0-3.8 0-.1 0-.2 0-.2.2-.2 1.1-.3 2.2-.5 3.3-.2 1-.3 2-.5 3.1-.1.9-.3 1.7-.4 2.6 0 .2-.1.5-.1.7.5-.1 1-.1 1.5-.1m2.2-7.7c.8-.1 1.6 0 2.3.5.6.5.9 1.2.8 1.9-.1.8-.4 1.5-.9 2.1-.5.6-1.2.9-1.9 1-.3 0-.6 0-.9 0-.1 0-.1 0-.3 0 .3-1.8.6-3.7.9-5.5m-33.3 7.7c.2-1.3.4-2.5.6-3.8 0 0 0 0 .1 0 .6 1.3 1.2 2.5 1.8 3.8h3.2c-.8-1.3-1.6-2.7-2.4-4 0 0 0 0 .1 0 .1 0 .1-.1.2-.1 1-.3 1.7-.9 2.1-1.9.2-.6.3-1.2.2-1.8-.1-.8-.4-1.3-1.1-1.7-.4-.2-.8-.3-1.2-.3-1.4 0-2.8 0-4.3 0-.1 0-.2.1-.2.2-.1.6-.2 1.2-.3 1.8-.1.7-.2 1.4-.3 2.2-.1.8-.3 1.7-.4 2.5-.1.7-.2 1.5-.4 2.2 0 .3-.1.6-.1 1h2.4zm1.3-7.9c.4 0 .7-.1 1.1 0 .6.1 1 .7.8 1.4-.2.6-.8 1.1-1.5 1.1-.2 0-.5 0-.8 0 .1-.9.2-1.7.4-2.5m12.6 4h2.8c.1-.7.2-1.4.3-2.1h-2.8c.1-.6.2-1.1.3-1.7h3.1c.1-.7.2-1.4.3-2.1-.1 0-.2 0-.3 0-1.7 0-3.4 0-5.1 0 0 0-.1 0-.1 0-.1 0-.1 0-.2.1-.1.5-.2 1-.2 1.5-.1.8-.3 1.7-.4 2.5-.1.8-.3 1.6-.4 2.4-.1.8-.3 1.7-.4 2.5 0 .2-.1.5-.1.7h2.5c.3-1.2.5-2.5.7-3.8m-3.5-6c-.8 0-1.6 0-2.4 0-.1 0-.1.1-.2.2 0 .3-.1.6-.1.9-.1.7-.2 1.5-.3 2.2-.1.8-.3 1.7-.4 2.5-.1.7-.2 1.5-.4 2.2-.1.6-.2 1.2-.3 1.9h2.5c.6-3.3 1.1-6.6 1.6-9.9m96.5 19.9c0-.1 0-.1-.1-.1 0 0-.1 0-.1 0h-.2v.5h.1v-.2h.1l.1.2h.1l-.1-.2c.1-.1.1-.2.1-.2m-.2 0c0 0 0 0 0 0h-.1v-.1h.1c0 0 .1 0 .1 0 0 0 0 0-.1.1m-47-7.8c0 .4.3.7.7.7.8 0 1.3-.7 1.4-1.8-.2 0-.3 0-.4 0-1.1 0-1.7.3-1.7 1.1m47 7.3c-.3 0-.6.3-.6.6 0 .3.3.6.6.6.3 0 .6-.3.6-.6 0-.4-.3-.6-.6-.6m0 1c-.2 0-.5-.2-.5-.4 0-.2.2-.5.5-.5.2 0 .5.2.5.5-.1.2-.3.4-.5.4m0-6.9c-.2 0-.5.2-.5.4 0 .2.2.4.5.4.3 0 .4-.2.4-.4 0-.2-.2-.4-.4-.4m.1.7l-.1-.2h-.1v.2h-.1v-.5h.2c0 0 .1 0 .1 0 0 0 .1.1.1.1 0 .1 0 .1-.1.1l.1.2h-.1zm-16.6-22.8c-4.1 0-8 1.4-11 3.7 2.7 2.5 4.8 5.8 5.7 9.5h-1.7c-1-3.3-2.8-6.2-5.3-8.5-2.5 2.3-4.4 5.2-5.3 8.5h-1.7c1-3.7 3-7 5.7-9.5-3.1-2.3-6.9-3.7-11-3.7-10.1 0-18.3 8.2-18.3 18.3 0 10.1 8.2 18.3 18.3 18.3 4.1 0 8-1.4 11-3.7-2.6-2.4-4.5-5.4-5.5-8.9h1.7c1 3 2.8 5.7 5.1 7.8 2.3-2.1 4.1-4.8 5.1-7.8h1.7c-1 3.4-3 6.5-5.5 8.9 3.1 2.3 6.9 3.7 11 3.7 10.1 0 18.3-8.2 18.3-18.3 0-10.1-8.2-18.3-18.3-18.3m-35.3 22.8l1.1-6.8-2.4 6.8h-1.3l-.2-6.7-1.1 6.7h-1.8l1.5-8.8h2.7l.1 5.5 1.8-5.5h2.9l-1.5 8.8h-1.8m8.8-3.8c-.2 1-.5 3.3-.6 3.8-.3 0-1.6 0-1.6 0v-.7c-.5.6-1.1.9-2 .9-1 0-1.7-.8-1.7-2 0-1.7 1.2-2.8 3.3-2.8.2 0 .5 0 .8.1.1-.2.1-.3.1-.5 0-.5-.3-.7-1.2-.7-.9 0-1.7.2-2 .3 0-.1.3-1.6.3-1.6.9-.3 1.6-.4 2.3-.4 1.6 0 2.5.7 2.5 2.1-.1.4-.1.9-.2 1.5m5.1-1.7c-.5-.1-1-.1-1.4-.1-.6 0-.9.2-.9.6 0 .3.1.4.9.8.9.4 1.3 1 1.3 2 0 1.6-.9 2.4-2.9 2.4-1.2 0-1.5-.1-2-.2 0-.1.3-1.7.3-1.7.6.2 1.1.3 1.7.3.7 0 1.1-.2 1.1-.6 0-.3-.1-.4-.9-.8-1-.5-1.4-1.1-1.4-2 0-1.3.7-2.4 2.8-2.4.4 0 1.2.1 1.7.1l-.3 1.6m3.9 0h-1c-.2 1.4-.5 3.1-.5 3.3 0 .4.2.5.6.5.2 0 .4 0 .5-.1l-.3 1.6c-.5.2-.9.2-1.4.2-1 0-1.5-.6-1.5-1.6 0-.3.1-1.1.3-1.9.1-.7.8-4.9.8-4.9h1.9l-.2 1.1h1l-.2 1.8m5.9 2.5h-3.7c-.1 1 .5 1.5 1.6 1.5.7 0 1.3-.1 2-.5l-.3 1.8c-.6.2-1.3.3-1.9.3-2.1 0-3.2-1.1-3.2-3.2 0-2.5 1.4-4.3 3.3-4.3 1.5 0 2.5 1 2.5 2.6 0 .6-.1 1.1-.3 1.8m4.2-2.1c-1.1-.1-1.2.7-1.9 5.1h-1.9l.1-.5c.3-2.2.7-4.5 1-6.7h1.7c0 .4-.1.7-.1 1.1.6-.8 1-1.3 1.8-1.1-.2.4-.5 1.2-.7 2.1m5.7 5c-.7.2-1.1.3-1.7.3-2 0-3.3-1.5-3.3-3.8 0-3.2 1.7-5.4 4.2-5.4.8 0 1.8.3 2.1.5l-.3 1.9c-.7-.3-1.2-.5-1.7-.5-1.4 0-2.4 1.4-2.4 3.3 0 1.3.7 2.1 1.8 2.1.5 0 1-.1 1.6-.5l-.3 2.1m6.6-3.7c-.2 1-.5 3.3-.6 3.8-.3 0-1.6 0-1.6 0v-.7c-.5.6-1.1.9-2 .9-1 0-1.7-.8-1.7-2 0-1.7 1.2-2.8 3.3-2.8.2 0 .5 0 .8.1.1-.2.1-.3.1-.5 0-.5-.3-.7-1.2-.7-.9 0-1.7.2-2 .3 0-.1.3-1.6.3-1.6.9-.3 1.6-.4 2.3-.4 1.6 0 2.5.7 2.5 2.1 0 .4-.1.9-.2 1.5m2.3 3.8h-1.9l.1-.5c.3-2.2.7-4.5 1-6.7h1.7c0 .4-.1.7-.1 1.1.6-.8 1-1.3 1.8-1.1-.2.4-.5 1.2-.7 2.1-1.1-.2-1.2.7-1.9 5.1m6 0l.1-.7c-.5.6-1 .8-1.7.8-1.4 0-2.3-1.2-2.3-3 0-2.4 1.4-4.4 3.1-4.4.7 0 1.3.3 1.8 1l.4-2.5h1.9l-1.4 8.8h-1.9m3.3.3c-.3 0-.6-.3-.6-.6 0-.3.3-.6.6-.6.3 0 .6.3.6.6 0 .3-.3.6-.6.6m-30.5-6c-.6 0-1 .5-1.2 1.3h2.1c0-.2.2-1.3-.9-1.3m30.5 5.2l-.1.1h.1c0 0 .1 0 .1 0 0 0 0 0 0-.1 0 .1 0 .1-.1 0m-3.8-5c-.9 0-1.5 1-1.5 2.4 0 .9.3 1.4 1 1.4.9 0 1.5-1 1.5-2.4 0-.9-.4-1.4-1-1.4m-11.7 3.4c0 .4.3.7.7.7.8 0 1.3-.7 1.4-1.8-.2 0-.3 0-.4 0-1.2 0-1.7.3-1.7 1.1m-108.2 49.2h2.8c-.2-3.8-.3-7.6-.5-11.4h-.3c-.9 0-1.8 0-2.7 0-.2 0-.3.1-.4.2-2 3.7-4 7.3-6 11 0 .1-.1.1-.1.2.9 0 1.7 0 2.5 0 .1 0 .2-.1.2-.2.3-.6.7-1.3 1-1.9.1-.1.1-.2.3-.2 1 0 2 0 3 0 .2 0 .2.1.2.2 0 .6 0 1.2 0 1.8 0 .1 0 .2 0 .3m-2.6-4.2c.7-1.4 1.4-2.7 2.1-4.1h.1c.1 1.3.2 2.7.3 4h-2.5zm-14.4-7.4c-.2 0-.3.1-.4.3-1 3-1.9 6-2.9 9-.2.8-.5 1.5-.8 2.3h.3c.8 0 1.5 0 2.3 0 .3 0 .4-.1.5-.4.9-2.8 1.8-5.7 2.7-8.5.3-.9.6-1.8.9-2.7-.1 0-.2 0-.3 0-.7 0-1.5 0-2.3 0m6.6 9.3c-.2.1-.4.2-.6.3-.6.2-1.1.2-1.7.1-.8-.1-1.5-.4-2.2-.8-.3.6-.6 1.1-1 1.7.3.2.5.4.8.5 1.8.8 3.7.9 5.6.2 1.1-.4 1.9-1.2 2.2-2.4.5-1.6.1-2.9-1.2-3.8-.3-.2-.5-.4-.8-.5-.3-.2-.6-.4-.8-.7-.4-.5-.4-1.1-.1-1.6.3-.3.6-.5 1.1-.6.5-.1.9.1 1.3.2.5.2 1 .5 1.4.7.4-.5.7-1 1.1-1.5-.2-.2-.4-.3-.6-.5-.9-.6-1.8-.9-2.9-.9-1.5 0-2.8.4-3.9 1.5-1.5 1.5-1.4 3.5.3 4.9.4.4.9.7 1.4 1 .3.2.5.5.7.7.5.6.4 1.1-.1 1.5m21.7 3.9c-8.4 0-16.8 0-25.2 0-8.4 0-16.8 0-25.2 0-.3 0-.3 0-.3.3 0 2.6 0 5.1 0 7.7 0 .3 0 .3.3.3 16.8 0 33.6 0 50.4 0 .3 0 .3 0 .3-.3 0-2.5 0-5.1 0-7.6.1-.4.1-.4-.3-.4m-32.4-12.8c-1.3 2.3-2.7 4.5-4 6.8 0 .1-.1.1-.1.2 0 0 0 0-.1 0 0-2.4-.1-4.8-.1-7.3-1.7 0-3.5-.1-5.2-.1-.1.3 0 .4.2.4.2 0 .3.1.5.1.7.1 1.1.6 1.3 1.3.1.2.1.4.1.7.1 1.9.1 3.7.2 5.6 0 1.1.1 2.2.1 3.3 0 .2.1.3.3.3.8 0 1.7 0 2.5 0 .1 0 .2 0 .3-.2 2.2-3.7 4.4-7.4 6.7-11.1 0-.1.1-.1.1-.2-.8 0-1.5 0-2.3 0-.3-.1-.4 0-.5.2m-20.6 22.9h55.7v-35h-55.7v35m.6-34.4h54.4v33.8h-54.4v-33.8m1.7 9.5h51.1v-8.3h-51.1v8.3m81.6-7.6c0 10 0 20 0 30 0 .4 0 .4.4.4 7.7 0 15.4 0 23.1 0 9.2 0 18.4 0 27.7 0 .1 0 .2 0 .3 0v-30.6h-51.5v.2m19 25.4c-1.1 0-2.1 0-3.2 0h-.3c-.1.4.2.8.7 1 .6.2 1.1.1 1.7-.2.2-.1.3-.2.5-.3.2.3.4.7.6 1 .1.1 0 .2-.1.2-.4.3-.9.5-1.4.6-.6.1-1.2.2-1.8 0-1.1-.3-1.9-1.1-2-2.4-.2-1.5.8-3 2.3-3.3 1-.2 1.9-.1 2.6.7.5.5.6 1.1.7 1.8 0 .2 0 .3 0 .5 0 .4 0 .4-.3.4m4.5 2.4c-.7.1-1.4.1-2-.2-.8-.4-1.3-1.1-1.5-2-.1-.5-.1-1 .1-1.5.3-1.1 1-1.7 2.1-2 .9-.2 1.7-.1 2.5.2.1 0 .2.1.3.2-.2.4-.4.8-.6 1.2-.3-.1-.5-.1-.8-.2-.6-.1-1.2.2-1.5.7-.3.5-.2 1.2.2 1.6.4.4 1 .6 1.5.4.2-.1.3-.1.5-.2.2.4.5.8.7 1.3-.5.3-.9.4-1.5.5m6.4-4.2h-1.6c0 .8 0 1.5 0 2.2 0 .4.3.6.7.5.2 0 .3-.1.5-.2.1.4.3.8.4 1.2 0 0 0 .1-.1.1-.7.4-1.5.6-2.4.4-.5-.1-.8-.4-.9-.9-.1-.3-.1-.6-.1-.9 0-.7 0-1.3 0-2 0-.1 0-.3 0-.5h-.8v-1.4h.8c0-.1 0-.2 0-.3 0-.4 0-.9 0-1.3 0-.2 0-.2.2-.2.5 0 1 0 1.5 0 .2 0 .2.1.2.2 0 .4 0 .9 0 1.3 0 .1 0 .2 0 .3.4 0 .8 0 1.3 0 .2 0 .3.1.3.3-.1.4 0 .8 0 1.2m4.5.4c-.2 0-.3-.1-.4-.1-.3-.1-.6 0-.9.2-.3.2-.5.4-.5.8 0 .8 0 1.7 0 2.6 0 .1 0 .2-.2.2-.5 0-1.1 0-1.6 0 0 0-.1 0-.1 0v-5.4h1.9v.7c.1-.2.3-.3.4-.4.4-.5 1-.5 1.5-.4 0 0 .1.1.1.1 0 .5-.1 1.1-.2 1.7m7.7-1.8h1.9c0 .2 0 .3 0 .5.1-.1.2-.1.2-.2.5-.3 1-.5 1.5-.5 1 0 1.6.6 1.7 1.5.1.6 0 1.2 0 1.8 0 .7 0 1.4 0 2.1 0 .2-.1.3-.2.3-.5 0-1.1 0-1.7 0 0-.8 0-1.5 0-2.2 0-.4 0-.8 0-1.1 0-.5-.4-.7-.8-.6-.2.1-.5.2-.7.4-.1.1-.1.2-.1.3 0 1 0 2 0 3 0 .1 0 .2 0 .3h-1.9v-5.6zm-2.1.4c.7.5 1 1.3 1.1 2.2.1 1.3-.5 2.5-2 3-.5.2-1.1.2-1.6.1-.8-.1-1.4-.4-1.9-1-.4-.6-.6-1.2-.6-1.9 0-1.1.4-2 1.4-2.5.4-.2 1-.4 1.7-.4.7-.1 1.4 0 1.9.5m-2.5-9c0 .7-.1 1.4-.1 2.2 0 0 0 .1 0 .1-8-1.7-15.7-.9-23.2 2.3 0 0 0-.1-.1-.1.1-.1.1-.2.2-.2.8-.4 1.7-.8 2.6-1.2 1.4-.6 2.8-1.2 4.3-1.6 2.5-.8 5-1.4 7.6-1.7 2-.2 4-.3 6-.2.8 0 1.7.1 2.5.2.1 0 .2 0 .2.2m-3.5-10.4c.8 0 1.5 0 2.3 0h.3c.2 2.6.5 5.2.7 7.8-.1 0-.1 0-.2 0-.6 0-1.2 0-1.8 0-.2 0-.2-.1-.2-.2 0-.3 0-.6 0-.9h-.6c-.6 0-1.2 0-1.8 0-.1 0-.2 0-.3.2-.1.3-.3.6-.4.8 0 .1-.1.1-.2.1-.7 0-1.4 0-2 0 0 0-.1 0-.1 0 0-.1.1-.2.1-.2 1.3-2.5 2.6-4.9 3.9-7.4 0-.1.1-.2.3-.2m-8.1.3c1.1-.6 2.3-.6 3.4-.2.5.2.9.4 1.3.7-.4.5-.8.9-1.2 1.4-.2-.1-.3-.2-.5-.3-.4-.3-.9-.5-1.5-.3-.1 0-.3.1-.4.2-.3.2-.3.5-.1.8.2.2.4.3.6.5.4.3.9.6 1.3.9.4.3.7.7.8 1.3.2.7-.1 1.3-.5 1.8-.5.7-1.3 1.1-2.1 1.2-1.3.1-2.6-.1-3.8-.8 0 0-.1-.1-.1-.1.3-.5.7-1 1-1.6.2.1.4.2.6.3.6.3 1.2.4 1.8.4.3 0 .6-.2.8-.5.1-.2.1-.4-.1-.6-.2-.2-.4-.3-.6-.5-.4-.3-.8-.5-1.2-.8-1.2-1.1-1-3 .5-3.8m-3.6-.3c.5 0 1.1 0 1.6 0 .1 0 .2 0 .3 0-.2.5-.3 1.1-.5 1.6-.6 2-1.2 4-1.8 6-.1.2-.1.3-.3.3-.5 0-1.1 0-1.6 0-.1 0-.2 0-.3 0 .1-.5.3-.9.4-1.3.6-2.1 1.3-4.2 1.9-6.3 0-.2.1-.3.3-.3m-10.1 0c1.1 0 2.1 0 3.2 0 .1 0 .2 0 .2.2.1 1.4.2 2.9.3 4.3 0 .2 0 .3 0 .4.7-1.2 1.4-2.4 2.1-3.7.2-.4.4-.7.6-1.1 0-.1.1-.2.2-.2.7 0 1.3 0 2 0 0 0 .1 0 .1 0 0 .1-.1.1-.1.2-1.4 2.5-2.8 4.9-4.2 7.4-.1.2-.2.2-.4.2-.6 0-1.2 0-1.7 0-.2 0-.2 0-.3-.2-.1-1.3-.3-2.7-.5-4-.1-.7-.1-1.4-.2-2-.1-.9-.6-1.2-1.4-1.3 0 0-.1 0-.1 0 0-.1 0-.2.2-.2m-1.6 16.4c.1 0 .2 0 .2 0 .5 0 1 0 1.5 0 .2 0 .2.1.2.2 0 .1 0 .2 0 .3 0 2.5 0 4.9 0 7.4 0 .2 0 .3-.3.3-.5 0-1 0-1.4 0-.2 0-.3-.1-.2-.3 0-1.2 0-2.5 0-3.7 0-1.3 0-2.6 0-3.8 0-.2 0-.3 0-.4m-6.4 7.8c0-2.3 0-4.6 0-6.9 0-.1 0-.2 0-.3h5.2v1.6c-.1 0-.2 0-.3 0-.9 0-1.8 0-2.6 0-.2 0-.3.1-.3.3 0 .4 0 .7 0 1.1.1 0 .2 0 .3 0 .9 0 1.7 0 2.6 0 .2 0 .3 0 .3.3 0 .4 0 .7 0 1.1 0 .2-.1.2-.2.2-.9 0-1.8 0-2.7 0-.1 0-.2 0-.3 0v1.3h.3c.9 0 1.8 0 2.6 0 .2 0 .3.1.2.3 0 .4 0 .7 0 1.1 0 .2 0 .2-.2.2-1.6 0-3.2 0-4.7 0-.2 0-.2-.2-.2-.3m30.6-22.6c-.5 1.2-1.1 2.4-1.6 3.6h1.8c-.1-1.2-.1-2.4-.2-3.6m3.3 21.6c.5 0 .8-.2 1-.7.2-.5.2-1 0-1.5-.2-.5-.5-.8-1-.8-.5 0-.9.3-1 .8-.1.2-.1.4-.1.7.1.2.1.5.2.8.1.5.4.7.9.7m-40.4 6.2h56.2v-35.1h-56.2v35.1m.6-34.5c.1 0 .2 0 .3 0 18.2 0 36.3 0 54.5 0 .2 0 .3.1.3.3 0 11.1 0 22.2 0 33.3v.3h-55v-33.9zm18.5 25.1c-.5-.1-1.1.4-1.2 1h1.9c.1-.6-.2-.9-.7-1" fill="#fff" transform="matrix(.8089 0 0 .8089 19.11-3.534)"/></svg>