<?xml version="1.0" encoding="UTF-8"?>
<!DOCTYPE svg PUBLIC "-//W3C//DTD SVG 1.1//EN" "http://www.w3.org/Graphics/SVG/1.1/DTD/svg11.dtd">
<svg version="1.1" xmlns="http://www.w3.org/2000/svg" xmlns:xlink="http://www.w3.org/1999/xlink" x="0" y="0" width="178.148" height="60" viewBox="0, 0, 178.148, 60">
  <g id="Background">
    <rect x="0" y="0" width="178.148" height="60" fill="#FFFFFF"/>
  </g>
  <defs>
    <radialGradient id="Gradient_1" gradientUnits="userSpaceOnUse" cx="24.762" cy="39.673" r="24.822">
      <stop offset="0" stop-color="#259BD5"/>
      <stop offset="1" stop-color="#1A7BA8"/>
    </radialGradient>
    <radialGradient id="Gradient_2" gradientUnits="userSpaceOnUse" cx="25.863" cy="28.225" r="17.423">
      <stop offset="0" stop-color="#259BD5"/>
      <stop offset="1" stop-color="#259BD5" stop-opacity="0"/>
    </radialGradient>
    <linearGradient id="Gradient_3" gradientUnits="userSpaceOnUse" x1="5.344" y1="26.158" x2="35.103" y2="26.158">
      <stop offset="0.413" stop-color="#259BD5"/>
      <stop offset="0.451" stop-color="#259BD5" stop-opacity="0.91"/>
      <stop offset="0.829" stop-color="#259BD5" stop-opacity="0"/>
    </linearGradient>
    <linearGradient id="Gradient_4" gradientUnits="userSpaceOnUse" x1="24.655" y1="27.005" x2="24.655" y2="48.003">
      <stop offset="0" stop-color="#228FC1"/>
      <stop offset="0.081" stop-color="#5A9ECA"/>
      <stop offset="0.191" stop-color="#85B2D5"/>
      <stop offset="0.306" stop-color="#A8C6E0"/>
      <stop offset="0.424" stop-color="#C6D8EA"/>
      <stop offset="0.548" stop-color="#DDE7F2"/>
      <stop offset="0.679" stop-color="#EEF2F8"/>
      <stop offset="0.822" stop-color="#FAFBFD"/>
      <stop offset="1" stop-color="#FFFFFF"/>
    </linearGradient>
    <linearGradient id="Gradient_5" gradientUnits="userSpaceOnUse" x1="24.677" y1="23.601" x2="24.677" y2="38.602">
      <stop offset="0" stop-color="#17446C"/>
      <stop offset="0.06" stop-color="#385478"/>
      <stop offset="0.157" stop-color="#606E8D"/>
      <stop offset="0.26" stop-color="#828AA4"/>
      <stop offset="0.365" stop-color="#A1A6BA"/>
      <stop offset="0.473" stop-color="#BEC1CF"/>
      <stop offset="0.586" stop-color="#D7D8E0"/>
      <stop offset="0.706" stop-color="#EBEAEE"/>
      <stop offset="0.837" stop-color="#F8F8FA"/>
      <stop offset="1" stop-color="#FFFFFF"/>
    </linearGradient>
    <radialGradient id="Gradient_6" gradientUnits="userSpaceOnUse" cx="-110.411" cy="-175.485" r="6.769" gradientTransform="matrix(1.302, 0.663, -0.264, 0.519, 128.165, 175.841)">
      <stop offset="0.343" stop-color="#FFFFFF"/>
      <stop offset="0.986" stop-color="#FFFFFF" stop-opacity="0"/>
    </radialGradient>
  </defs>
  <g id="CZ">
    <path d="M65.788,13.466 L58.842,27.125 C57.646,29.441 56.99,31.061 56.45,32.412 L56.334,32.412 C56.296,30.984 56.18,29.711 55.91,27.473 L54.328,13.466 L51.588,13.466 L54.289,35.344 L57.26,35.344 L68.759,13.466 L65.788,13.466 z M79.37,19.871 C78.251,19.563 76.63,19.293 75.125,19.293 C68.296,19.293 64.244,25.042 64.244,30.521 C64.244,33.492 65.981,35.73 68.759,35.73 C70.997,35.73 73.158,34.611 74.855,31.331 L74.932,31.331 C74.74,32.952 74.585,34.457 74.585,35.383 L77.132,35.383 C77.055,33.646 77.248,30.83 77.788,28.129 L79.37,19.871 z M75.395,26.392 C74.624,30.559 71.961,33.492 69.723,33.492 C67.64,33.492 67.023,31.756 67.023,30.019 C67.023,25.621 70.379,21.415 74.469,21.415 C75.395,21.415 75.974,21.531 76.322,21.646 L75.395,26.392 z M87.164,17.711 L90.945,13.08 L88.746,13.08 L86.431,16.051 L86.354,16.051 L84.965,13.08 L82.92,13.08 L85.196,17.711 L87.164,17.711 z M86.122,21.376 C87.28,21.376 88.283,21.762 88.862,22.071 L89.595,20.026 C89.016,19.64 87.743,19.254 86.315,19.254 C82.997,19.254 80.643,21.376 80.643,24.077 C80.643,25.698 81.646,27.087 83.46,28.09 C85.119,29.016 85.659,29.749 85.659,30.984 C85.659,32.373 84.502,33.531 82.688,33.531 C81.376,33.531 80.064,33.029 79.331,32.566 L78.559,34.534 C79.254,35.074 80.797,35.576 82.495,35.614 C85.813,35.614 88.476,33.762 88.476,30.444 C88.476,28.707 87.318,27.28 85.543,26.315 C84.116,25.543 83.383,24.81 83.383,23.691 C83.305,22.418 84.502,21.376 86.122,21.376 z M102.637,23.344 C102.637,21.068 101.016,19.293 98.045,19.293 C92.99,19.293 89.479,24.656 89.479,29.363 C89.479,32.836 91.293,35.691 95.46,35.691 C97.582,35.691 99.473,35.113 100.669,34.457 L100.283,32.45 C99.318,32.952 97.929,33.531 96.077,33.531 C94.457,33.531 93.183,32.836 92.566,31.408 C92.219,30.559 92.103,29.093 92.257,28.437 C98.006,28.514 102.637,27.473 102.637,23.344 z M97.621,21.376 C99.048,21.376 100.013,22.071 100.013,23.344 C100.013,25.814 96.695,26.392 92.45,26.315 C93.145,23.884 95.074,21.376 97.621,21.376 z" fill="#676867"/>
    <path d="M117.222,12.193 L121.158,8.373 L118.765,8.373 L116.412,10.727 L116.296,10.727 L114.752,8.373 L112.514,8.373 L115.1,12.193 L117.222,12.193 z M110.547,17.942 C112.244,16.399 114.521,15.511 116.797,15.511 C118.727,15.511 120.309,15.897 121.119,16.399 L122.006,14.238 C121.428,13.814 119.653,13.196 117.26,13.196 C114.058,13.196 111.241,14.199 109.003,16.129 C106.032,18.637 104.373,22.534 104.373,26.662 C104.373,32.257 107.73,35.73 113.248,35.73 C115.717,35.73 117.685,35.228 118.92,34.688 L118.572,32.489 C117.376,33.106 115.563,33.415 113.904,33.415 C109.042,33.415 107.267,30.212 107.267,26.277 C107.19,22.92 108.502,19.833 110.547,17.942 z M130.032,19.293 C124.939,19.293 121.35,24.077 121.35,29.248 C121.35,32.797 123.55,35.691 127.486,35.691 C132.772,35.691 136.206,30.675 136.206,25.814 C136.206,22.495 134.277,19.293 130.032,19.293 z M127.833,33.569 C125.556,33.569 124.129,31.717 124.129,29.17 C124.129,25.582 126.367,21.453 129.723,21.453 C132.54,21.453 133.389,24 133.389,25.852 C133.428,29.479 130.997,33.569 127.833,33.569 z M146.045,17.711 L149.826,13.08 L147.666,13.08 L145.312,16.051 L145.235,16.051 L143.846,13.08 L141.801,13.08 L144.077,17.711 L146.045,17.711 z M143.113,33.453 C140.566,33.453 139.215,31.794 139.215,29.286 C139.215,25.582 141.762,21.569 145.852,21.569 C147.01,21.569 147.897,21.878 148.514,22.148 L149.286,20.026 C148.785,19.717 147.473,19.331 146.006,19.331 C140.373,19.331 136.399,24.27 136.399,29.633 C136.399,32.99 138.367,35.691 142.418,35.691 C144.54,35.691 146.161,35.151 146.971,34.727 L146.701,32.605 C145.929,32.99 144.733,33.453 143.113,33.453 z M172.553,19.64 L168.54,28.36 C167.73,30.096 167.267,31.215 166.842,32.219 L166.765,32.219 C166.611,31.061 166.418,29.865 166.071,28.051 L164.527,19.601 L159.318,19.601 L153.801,25.119 C153.376,25.543 152.797,26.161 152.334,26.701 L152.257,26.701 L154.997,12.27 L152.296,12.27 L147.897,35.305 L150.559,35.305 L151.678,29.325 L153.646,27.55 L157.428,35.305 L160.399,35.305 L155.73,26.045 L161.788,20.334 L164.759,34.341 C164.836,34.65 164.836,34.804 164.682,35.035 C163.833,36.579 162.714,37.852 161.633,38.662 C160.553,39.511 159.434,39.936 158.74,40.167 L159.434,42.521 C160.322,42.328 162.212,41.595 163.987,39.781 C166.109,37.659 167.73,34.92 169.389,31.524 L175.293,19.601 L172.553,19.601 z" fill="#1979A3"/>
    <path d="M63.743,47.074 C62.778,47.074 61.621,47.691 60.27,48.926 C58.958,50.122 58.225,51.125 58.071,51.974 C57.994,52.476 58.032,52.9 58.186,53.286 C58.418,53.749 58.804,53.981 59.344,53.981 C60.116,53.981 61.158,53.248 62.469,51.781 C62.469,52.244 62.469,52.707 62.469,53.17 C62.469,53.633 62.585,53.865 62.817,53.865 C62.971,53.865 63.164,53.749 63.357,53.556 C63.511,53.363 63.588,53.209 63.627,53.093 C63.627,53.016 63.666,52.785 63.666,52.399 C63.666,52.167 63.666,51.974 63.666,51.743 C63.82,50.624 63.974,49.814 64.09,49.35 C64.09,49.389 64.129,49.273 64.167,49.119 C64.206,48.926 64.244,48.772 64.283,48.579 C64.514,47.576 64.322,47.074 63.743,47.074 z M62.971,49.196 C62.932,49.35 62.74,49.736 62.431,50.277 C62.122,50.778 61.968,51.048 61.891,51.125 C60.926,52.167 60.27,52.707 59.884,52.785 C59.807,52.785 59.73,52.785 59.691,52.785 C59.305,52.785 59.19,52.553 59.267,52.09 C59.305,51.781 59.46,51.395 59.691,51.01 C60,50.469 60.502,49.929 61.235,49.273 C62.045,48.579 62.701,48.27 63.164,48.27 C63.164,48.232 63.087,48.54 62.971,49.196 z M71.884,42.752 C71.498,42.791 71.074,43.37 70.688,44.527 C70.534,44.99 70.341,45.685 70.109,46.572 C69.955,46.727 69.878,46.842 69.878,46.842 C69.839,46.688 69.762,46.611 69.646,46.611 C68.566,46.611 67.563,47.305 66.598,48.733 C65.826,49.891 65.363,50.971 65.17,52.013 C65.093,52.437 65.17,52.862 65.441,53.286 C65.711,53.711 66.096,53.942 66.598,53.942 C66.984,53.904 67.447,53.749 68.026,53.479 C68.489,53.132 68.875,52.785 69.183,52.437 C69.183,52.823 69.183,53.17 69.183,53.556 C69.183,54.135 69.26,54.405 69.415,54.405 C69.685,54.405 69.878,54.328 70.032,54.212 C70.264,52.399 70.457,51.01 70.572,50.084 C71.035,47.074 71.576,44.913 72.232,43.601 C72.309,43.486 72.347,43.37 72.347,43.215 C72.347,42.868 72.193,42.714 71.884,42.752 z M69.646,49.466 C69.531,50.122 69.299,50.701 68.952,51.203 C68.604,51.743 68.219,52.129 67.871,52.36 C67.756,52.437 67.64,52.514 67.524,52.592 C67.408,52.669 67.215,52.707 66.945,52.785 C66.675,52.785 66.482,52.669 66.367,52.399 C66.251,52.206 66.212,51.974 66.251,51.781 C66.367,51.087 66.714,50.315 67.293,49.466 C67.949,48.463 68.604,47.923 69.299,47.807 C69.453,47.846 69.608,48.116 69.646,48.656 C69.646,49.08 69.646,49.312 69.646,49.466 z M164.797,46.418 C164.72,46.418 164.527,46.495 164.219,46.611 C162.637,48 161.402,49.003 160.476,49.698 C160.862,47.035 161.17,44.99 161.441,43.678 C161.479,43.293 161.363,43.138 161.093,43.138 C160.862,43.138 160.669,43.331 160.476,43.756 C160.322,44.026 160.244,44.296 160.206,44.489 L159.974,45.878 C159.936,46.071 159.743,47.344 159.395,49.736 C159.048,51.974 158.855,53.132 158.855,53.17 C158.855,53.479 158.932,53.711 159.048,53.826 C159.203,53.981 159.318,54.058 159.434,54.058 C159.55,54.019 159.704,53.942 159.897,53.788 C160.129,53.518 160.206,53.17 160.167,52.707 C160.167,52.36 160.167,52.051 160.206,51.781 C160.206,51.511 160.244,51.357 160.244,51.28 C160.283,51.087 160.36,50.932 160.437,50.855 C161.402,51.936 161.942,52.553 162.135,52.707 C162.907,53.441 163.601,53.904 164.219,54.096 C164.643,54.096 164.875,53.904 164.913,53.479 C164.913,53.402 164.913,53.363 164.875,53.286 C164.836,53.209 164.759,53.132 164.682,53.055 C164.257,52.862 163.871,52.63 163.486,52.322 C162.637,51.627 162.019,50.894 161.633,50.122 C163.717,48.424 164.875,47.383 165.068,46.881 C165.106,46.842 165.106,46.727 165.068,46.611 C164.99,46.457 164.913,46.418 164.797,46.418 z M77.518,46.341 C77.055,46.302 76.437,46.804 75.588,47.73 C74.932,48.502 74.315,49.35 73.775,50.315 C73.698,49.968 73.659,49.505 73.736,49.003 C73.813,48.463 73.775,48.039 73.659,47.73 C73.273,47.73 73.003,47.923 72.849,48.27 C72.772,48.424 72.695,48.695 72.656,49.042 C72.656,49.119 72.617,49.543 72.617,50.354 C72.617,51.203 72.617,51.781 72.617,52.09 C72.617,52.167 72.579,52.399 72.54,52.746 C72.502,53.055 72.463,53.248 72.502,53.363 C72.502,53.479 72.579,53.595 72.695,53.749 C72.81,53.865 72.926,53.942 73.042,53.942 C73.196,53.942 73.505,53.479 73.891,52.514 C74.469,51.241 74.932,50.315 75.318,49.736 C75.897,48.849 76.476,48.232 76.977,47.923 C77.248,48.116 77.17,49.389 76.746,51.666 C76.592,52.514 76.437,53.325 76.244,54.058 C76.206,54.251 76.244,54.367 76.322,54.482 C76.437,54.598 76.553,54.637 76.669,54.637 C76.862,54.637 77.093,54.367 77.286,53.788 C77.441,53.402 77.556,53.016 77.633,52.63 C77.904,51.473 78.096,50.431 78.174,49.505 C78.444,47.614 78.212,46.534 77.518,46.341 z M117.145,45.955 C117.338,45.955 117.955,45.608 119.074,44.875 C120.193,44.141 120.772,43.678 120.81,43.447 C120.81,43.331 120.81,43.254 120.695,43.138 C120.617,43.061 120.502,42.984 120.386,42.984 C120.193,42.984 119.576,43.293 118.457,43.91 C117.299,44.566 116.682,45.068 116.604,45.376 C116.604,45.415 116.643,45.531 116.797,45.685 C116.952,45.878 117.068,45.955 117.145,45.955 z M53.826,49.659 C54.714,49.119 55.563,48.579 56.45,48.039 C58.225,46.881 59.498,45.878 60.232,45.029 C60.579,44.604 60.81,44.141 60.926,43.64 C61.042,42.945 60.502,42.405 59.267,42.096 C58.572,41.865 57.839,41.788 57.145,41.749 C56.412,41.749 55.756,41.749 55.138,41.826 C54.521,41.904 53.904,42.019 53.325,42.212 C52.746,42.482 52.399,42.791 52.36,43.177 C52.36,43.254 52.476,43.486 52.707,43.756 C52.862,43.91 53.016,44.103 53.17,44.296 C53.132,44.99 53.093,45.723 53.055,46.418 C52.977,47.498 52.9,48.27 52.823,48.772 C52.785,49.08 52.707,49.273 52.669,49.389 C52.669,49.621 52.746,49.852 52.862,50.122 C52.862,52.707 53.132,54.019 53.633,54.019 C53.788,54.019 53.981,53.826 54.212,53.441 C54.367,53.132 54.482,52.862 54.521,52.669 C54.521,52.592 54.367,52.244 54.019,51.666 C53.981,51.588 53.942,51.28 53.942,50.778 C53.904,50.277 53.904,49.968 53.942,49.775 C53.788,49.698 53.788,49.659 53.826,49.659 z M53.942,46.418 C54.058,45.145 54.096,44.334 54.174,44.026 C54.251,43.563 54.444,43.254 54.714,43.1 C54.984,42.945 55.871,42.868 57.338,42.868 C57.723,42.868 58.225,42.945 58.804,43.138 C59.498,43.331 59.846,43.601 59.807,43.871 C59.768,44.412 58.804,45.299 56.913,46.611 C55.254,47.73 54.251,48.347 53.826,48.463 C53.788,48.309 53.865,47.653 53.942,46.418 z M170.971,47.074 C170.006,47.074 168.849,47.691 167.498,48.926 C166.186,50.122 165.453,51.125 165.299,51.974 C165.222,52.476 165.26,52.9 165.415,53.286 C165.646,53.749 166.032,53.981 166.572,53.981 C167.344,53.981 168.386,53.248 169.698,51.781 C169.698,52.244 169.698,52.707 169.698,53.17 C169.698,53.633 169.814,53.865 170.045,53.865 C170.199,53.865 170.392,53.749 170.585,53.556 C170.74,53.363 170.817,53.209 170.855,53.093 C170.855,53.016 170.894,52.785 170.894,52.399 C170.894,52.167 170.894,51.974 170.894,51.743 C171.048,50.624 171.203,49.814 171.318,49.35 C171.318,49.389 171.357,49.273 171.395,49.119 C171.434,48.926 171.473,48.772 171.511,48.579 C171.704,47.576 171.511,47.074 170.971,47.074 z M170.199,49.196 C170.161,49.35 169.968,49.736 169.659,50.277 C169.35,50.778 169.196,51.048 169.119,51.125 C168.154,52.167 167.498,52.707 167.113,52.785 C167.035,52.785 166.958,52.785 166.92,52.785 C166.534,52.785 166.418,52.553 166.495,52.09 C166.534,51.781 166.688,51.395 166.92,51.01 C167.228,50.469 167.73,49.929 168.463,49.273 C169.273,48.579 169.929,48.27 170.392,48.27 C170.354,48.232 170.315,48.54 170.199,49.196 z M112.476,46.997 C112.129,46.92 111.55,47.614 110.701,49.08 C109.621,50.855 108.926,51.897 108.656,52.129 C108.386,51.473 108.232,50.585 108.154,49.428 C108.116,48.617 108.116,47.923 108.116,47.305 C108.039,47.228 108,47.151 107.923,47.074 C107.846,46.997 107.73,46.92 107.614,46.958 C107.421,46.997 107.228,47.113 106.997,47.305 C106.958,47.421 106.92,47.537 106.881,47.691 C107.035,49.891 107.151,51.164 107.19,51.588 C107.46,53.441 107.846,54.367 108.386,54.367 C108.579,54.367 109.312,53.325 110.547,51.241 C111.01,50.469 111.473,49.736 111.936,48.965 C112.437,48.077 112.707,47.614 112.707,47.576 C112.707,47.537 112.707,47.46 112.63,47.344 C112.669,47.074 112.553,46.997 112.476,46.997 z M146.315,47.113 C145.698,46.65 145.08,46.457 144.54,46.534 C143.691,46.65 142.92,47.421 142.225,48.887 C141.723,49.891 141.415,50.778 141.26,51.55 C141.106,52.244 141.183,52.9 141.492,53.479 C141.916,54.096 142.457,54.405 143.19,54.405 C144.077,54.405 144.926,53.865 145.698,52.746 C146.315,51.743 146.74,50.778 146.894,49.891 C147.01,49.389 147.01,48.887 146.932,48.424 C146.855,47.807 146.662,47.383 146.315,47.113 z M145.891,49.698 C145.814,50.315 145.543,51.048 145.042,51.897 C144.502,52.862 143.961,53.363 143.421,53.363 C142.92,53.363 142.572,53.093 142.418,52.553 C142.302,52.167 142.341,51.627 142.572,50.971 C142.65,50.624 142.804,50.238 142.997,49.814 C143.576,48.386 144.232,47.691 144.965,47.691 C145.35,47.691 145.582,47.923 145.775,48.424 C145.891,48.849 145.929,49.273 145.891,49.698 z M119.035,47.074 C118.071,47.074 116.913,47.691 115.563,48.926 C114.251,50.122 113.518,51.125 113.363,51.974 C113.286,52.476 113.325,52.9 113.479,53.286 C113.711,53.749 114.096,53.981 114.637,53.981 C115.408,53.981 116.45,53.248 117.762,51.781 C117.762,52.244 117.762,52.707 117.762,53.17 C117.762,53.633 117.878,53.865 118.109,53.865 C118.264,53.865 118.457,53.749 118.65,53.556 C118.804,53.363 118.881,53.209 118.92,53.093 C118.92,53.016 118.958,52.785 118.958,52.399 C118.958,52.167 118.958,51.974 118.958,51.743 C119.113,50.624 119.267,49.814 119.383,49.35 C119.383,49.389 119.421,49.273 119.46,49.119 C119.498,48.926 119.537,48.772 119.576,48.579 C119.768,47.576 119.576,47.074 119.035,47.074 z M118.264,49.196 C118.225,49.35 118.032,49.736 117.723,50.277 C117.415,50.778 117.26,51.048 117.183,51.125 C116.219,52.167 115.563,52.707 115.177,52.785 C115.1,52.785 115.023,52.785 114.984,52.785 C114.598,52.785 114.482,52.553 114.559,52.09 C114.598,51.781 114.752,51.395 114.984,51.01 C115.293,50.469 115.794,49.929 116.527,49.273 C117.338,48.579 117.994,48.27 118.457,48.27 C118.418,48.232 118.379,48.54 118.264,49.196 z M157.08,47.113 C156.463,46.65 155.846,46.457 155.305,46.534 C154.457,46.65 153.685,47.421 152.99,48.887 C152.489,49.891 152.18,50.778 152.026,51.55 C151.871,52.244 151.949,52.9 152.257,53.479 C152.682,54.096 153.222,54.405 153.955,54.405 C154.842,54.405 155.691,53.865 156.463,52.746 C157.08,51.743 157.505,50.778 157.659,49.891 C157.775,49.389 157.775,48.887 157.698,48.424 C157.659,47.807 157.428,47.383 157.08,47.113 z M156.656,49.698 C156.579,50.315 156.309,51.048 155.807,51.897 C155.267,52.862 154.727,53.363 154.186,53.363 C153.685,53.363 153.338,53.093 153.183,52.553 C153.068,52.167 153.106,51.627 153.338,50.971 C153.415,50.624 153.569,50.238 153.762,49.814 C154.341,48.386 154.997,47.691 155.73,47.691 C156.116,47.691 156.347,47.923 156.54,48.424 C156.695,48.849 156.733,49.273 156.656,49.698 z M128.682,46.958 C128.489,46.92 128.219,46.997 127.871,47.113 C127.408,47.267 127.023,47.576 126.637,47.961 C126.482,48.116 126.174,48.54 125.711,49.158 C125.711,48.772 125.633,48.347 125.556,47.923 C125.363,47.305 125.093,46.997 124.746,46.997 C124.283,47.035 123.743,47.383 123.164,48.116 C122.74,48.695 122.354,49.196 122.122,49.698 L122.161,49.312 C122.199,48.887 122.238,48.386 122.277,47.807 C122.315,47.151 122.199,46.804 121.929,46.804 C121.505,46.804 121.235,47.19 121.119,47.923 C121.119,47.961 121.042,48.617 120.926,49.852 C120.81,51.087 120.733,51.743 120.733,51.781 L120.54,53.325 C120.463,53.672 120.695,53.865 121.196,53.942 C121.35,53.826 121.582,53.402 121.852,52.707 C122.354,51.588 122.74,50.817 123.01,50.315 C123.473,49.466 123.859,49.003 124.167,48.926 C124.437,49.003 124.553,49.543 124.553,50.585 C124.514,51.318 124.399,52.013 124.283,52.669 C124.244,53.132 124.283,53.441 124.399,53.556 C124.514,53.711 124.746,53.711 125.132,53.556 C125.595,52.437 126.019,51.357 126.405,50.354 C126.868,49.312 127.37,48.695 127.91,48.502 C128.064,48.579 128.141,48.733 128.141,48.887 C128.064,50.122 127.987,51.048 127.91,51.666 C127.833,52.09 127.794,52.476 127.756,52.9 C127.717,53.672 127.91,54.058 128.257,54.058 C128.412,54.058 128.566,53.981 128.759,53.788 C128.952,53.556 129.029,53.325 128.99,53.055 C128.99,53.016 128.99,52.939 128.913,52.785 C128.875,52.63 128.836,52.553 128.875,52.514 L129.26,49.273 C129.415,47.768 129.222,47.035 128.682,46.958 z M141.569,43.215 C141.646,42.868 141.492,42.714 141.183,42.752 C140.797,42.791 140.373,43.37 139.987,44.527 C139.833,44.99 139.64,45.685 139.408,46.572 C139.254,46.727 139.177,46.842 139.177,46.842 C139.138,46.688 139.061,46.611 138.945,46.611 C137.865,46.611 136.862,47.305 135.897,48.733 C135.125,49.891 134.662,50.971 134.469,52.013 C134.392,52.437 134.469,52.862 134.74,53.286 C135.01,53.711 135.395,53.942 135.897,53.942 C136.283,53.904 136.746,53.749 137.325,53.479 C137.788,53.132 138.174,52.785 138.482,52.437 C138.482,52.823 138.482,53.17 138.482,53.556 C138.482,54.135 138.559,54.405 138.714,54.405 C138.984,54.405 139.177,54.328 139.331,54.212 C139.563,52.399 139.756,51.01 139.871,50.084 C140.334,47.074 140.875,44.913 141.531,43.601 C141.531,43.447 141.569,43.331 141.569,43.215 z M138.945,49.466 C138.83,50.122 138.598,50.701 138.251,51.203 C137.904,51.743 137.518,52.129 137.17,52.36 C137.055,52.437 136.939,52.514 136.823,52.592 C136.707,52.669 136.514,52.707 136.244,52.785 C135.974,52.785 135.781,52.669 135.666,52.399 C135.55,52.206 135.511,51.974 135.55,51.781 C135.666,51.087 136.013,50.315 136.592,49.466 C137.248,48.463 137.904,47.923 138.598,47.807 C138.752,47.846 138.907,48.116 138.945,48.656 C138.984,49.08 138.984,49.312 138.945,49.466 z M100.977,47.923 C100.785,47.383 100.437,47.035 99.936,46.842 C99.781,46.765 99.55,46.765 99.241,46.765 C98.392,46.804 97.582,47.383 96.81,48.502 C96.27,49.428 95.961,50.238 95.807,51.01 C95.691,51.781 95.768,52.476 96.077,53.055 C96.424,53.749 97.042,54.096 97.852,54.096 C98.199,54.096 98.624,54.019 99.164,53.826 C99.974,53.556 100.63,53.093 101.093,52.514 C101.132,52.476 101.132,52.399 101.093,52.36 C101.055,52.283 101.016,52.244 100.977,52.167 L100.707,52.167 L100.167,52.553 C100.013,52.669 99.704,52.785 99.28,52.939 C98.817,53.093 98.547,53.132 98.392,53.132 C97.968,53.132 97.621,52.977 97.312,52.63 C97.042,52.283 96.926,51.936 97.003,51.473 C97.003,51.395 97.042,51.28 97.08,51.203 C97.196,51.164 97.775,51.087 98.817,50.971 C99.781,50.894 100.36,50.817 100.553,50.817 C100.862,50.74 101.016,50.624 101.055,50.392 C101.093,50.199 101.132,50.006 101.132,49.891 C101.132,49.775 101.132,49.505 101.132,49.08 C101.093,48.54 101.055,48.154 100.977,47.923 z M99.936,49.543 C99.897,49.582 99.859,49.659 99.82,49.736 C99.781,49.814 99.627,49.852 99.357,49.891 C99.125,49.891 98.817,49.891 98.315,49.929 C97.852,49.968 97.505,49.968 97.273,49.968 C97.273,49.968 97.273,49.929 97.235,49.891 C97.235,49.852 97.235,49.814 97.235,49.775 C97.312,49.428 97.543,49.003 97.968,48.579 C98.392,48.116 98.778,47.923 99.164,47.923 C99.473,47.923 99.704,48.154 99.859,48.579 C99.974,48.926 100.013,49.273 99.936,49.543 z M84.502,47.923 C84.309,47.383 83.961,47.035 83.46,46.842 C83.305,46.765 83.074,46.765 82.765,46.765 C81.916,46.804 81.106,47.383 80.334,48.502 C79.794,49.428 79.486,50.238 79.331,51.01 C79.215,51.781 79.293,52.476 79.601,53.055 C79.949,53.749 80.566,54.096 81.376,54.096 C81.723,54.096 82.148,54.019 82.688,53.826 C83.498,53.556 84.154,53.093 84.617,52.514 C84.656,52.476 84.656,52.399 84.617,52.36 C84.579,52.283 84.54,52.244 84.502,52.167 L84.27,52.167 L83.73,52.553 C83.576,52.669 83.267,52.785 82.842,52.939 C82.379,53.093 82.109,53.132 81.955,53.132 C81.531,53.132 81.183,52.977 80.875,52.63 C80.604,52.283 80.489,51.936 80.566,51.473 C80.566,51.395 80.604,51.28 80.643,51.203 C80.759,51.164 81.338,51.087 82.379,50.971 C83.344,50.894 83.923,50.817 84.116,50.817 C84.424,50.74 84.579,50.624 84.617,50.392 C84.656,50.199 84.695,50.006 84.695,49.891 C84.695,49.775 84.695,49.505 84.695,49.08 C84.617,48.54 84.579,48.154 84.502,47.923 z M83.46,49.543 C83.421,49.582 83.383,49.659 83.344,49.736 C83.305,49.814 83.151,49.852 82.881,49.891 C82.65,49.891 82.341,49.891 81.839,49.929 C81.376,49.968 81.029,49.968 80.797,49.968 C80.797,49.968 80.797,49.929 80.759,49.891 C80.759,49.852 80.759,49.814 80.759,49.775 C80.836,49.428 81.068,49.003 81.492,48.579 C81.916,48.116 82.302,47.923 82.688,47.923 C82.997,47.923 83.228,48.154 83.383,48.579 C83.498,48.926 83.537,49.273 83.46,49.543 z M93.955,46.958 C93.762,46.92 93.492,46.997 93.145,47.113 C92.682,47.267 92.296,47.576 91.91,47.961 C91.756,48.116 91.447,48.54 90.984,49.158 C90.984,48.772 90.907,48.347 90.83,47.923 C90.637,47.305 90.367,46.997 90.019,46.997 C89.556,47.035 89.016,47.383 88.437,48.116 C88.013,48.695 87.627,49.196 87.395,49.698 L87.434,49.312 C87.473,48.887 87.511,48.386 87.55,47.807 C87.588,47.151 87.473,46.804 87.203,46.804 C86.778,46.804 86.508,47.19 86.392,47.923 C86.392,47.961 86.315,48.617 86.199,49.852 C86.084,51.087 86.006,51.743 86.006,51.781 L85.813,53.325 C85.736,53.672 85.968,53.865 86.469,53.942 C86.624,53.826 86.855,53.402 87.125,52.707 C87.627,51.588 88.013,50.817 88.283,50.315 C88.746,49.466 89.132,49.003 89.441,48.926 C89.711,49.003 89.826,49.543 89.826,50.585 C89.788,51.318 89.672,52.013 89.556,52.669 C89.518,53.132 89.556,53.441 89.672,53.556 C89.788,53.711 90.019,53.711 90.405,53.556 C90.868,52.437 91.293,51.357 91.678,50.354 C92.141,49.312 92.643,48.695 93.183,48.502 C93.338,48.579 93.415,48.733 93.415,48.887 C93.338,50.122 93.26,51.048 93.183,51.666 C93.106,52.09 93.068,52.476 93.029,52.9 C92.99,53.672 93.183,54.058 93.531,54.058 C93.685,54.058 93.839,53.981 94.032,53.788 C94.225,53.556 94.302,53.325 94.264,53.055 C94.264,53.016 94.264,52.939 94.186,52.785 C94.148,52.63 94.109,52.553 94.148,52.514 L94.534,49.273 C94.688,47.768 94.534,47.035 93.955,46.958 z" fill="#A3A1A2"/>
  </g>
  <g id="symbol">
    <path d="M24.193,0.463 C37.389,0.463 48.077,11.113 48.077,24.232 C48.077,37.35 37.389,48 24.193,48 C10.997,48 0.309,37.35 0.309,24.232 C0.309,11.113 10.997,0.463 24.193,0.463 z" fill="#DCF1F4"/>
    <path d="M24.309,5.325 C35.768,5.325 45.068,14.585 45.068,26.006 C45.068,37.428 35.768,46.688 24.309,46.688 C12.849,46.688 3.55,37.428 3.55,26.006 C3.511,14.547 12.849,5.325 24.309,5.325 z" fill="url(#Gradient_1)"/>
    <path d="M24.309,5.325 C35.768,5.325 45.068,14.585 45.068,26.006 C45.068,37.428 35.768,46.688 24.309,46.688 C12.849,46.688 3.55,37.428 3.55,26.006 C3.511,14.547 12.849,5.325 24.309,5.325 z" fill="url(#Gradient_2)"/>
    <path d="M17.402,9.839 C24.54,9.762 28.322,15.048 30.058,20.913 C31.1,24.424 30.945,29.518 29.749,32.72 C28.244,36.695 25.814,39.936 22.186,41.595 C21.068,42.096 19.949,42.135 18.598,42.444 C18.251,42.521 17.672,42.444 17.441,42.367 C16.823,42.212 16.322,42.405 15.743,42.212 C14.662,41.865 13.621,41.325 12.695,40.862 C11.73,40.399 11.305,39.82 10.534,39.203 C7.871,37.003 6.482,33.685 5.518,29.633 C4.939,27.28 5.209,23.113 5.826,21.145 C7.254,16.63 9.531,12.733 13.389,10.92 C14.122,10.572 14.971,10.302 15.743,10.071 C16.167,9.916 17.093,10.071 17.402,9.839 z" fill="url(#Gradient_3)"/>
    <path d="M8.682,23.421 C8.682,23.421 13.35,27.241 24.849,27.241 C36.347,27.241 40.669,23.421 40.669,23.421 C40.669,23.421 37.428,36.965 24.502,36.965 C11.576,36.965 8.682,23.421 8.682,23.421 z" fill="url(#Gradient_4)" opacity="0.56"/>
    <path d="M40.36,24.27 L40.36,24.27 M40.36,24.27 C40.36,24.27 37.158,37.543 24.502,37.543 C11.846,37.543 8.99,24.27 8.99,24.27 C8.99,24.27 13.196,35.035 24.502,35.035 C35.807,35.035 40.36,24.27 40.36,24.27 M8.99,23.383 C8.913,23.383 8.836,23.383 8.72,23.421 C8.296,23.537 8.026,24 8.103,24.463 C8.141,24.617 8.875,27.974 11.228,31.408 C14.392,36 18.984,38.431 24.463,38.431 C29.942,38.431 34.572,36 37.852,31.447 C40.206,28.206 41.055,24.965 41.17,24.54 C41.209,24.463 41.209,24.386 41.209,24.309 C41.209,23.846 40.862,23.46 40.399,23.421 C40.36,23.421 40.36,23.421 40.322,23.421 C40.283,23.421 40.244,23.421 40.206,23.421 C40.051,23.46 39.936,23.498 39.82,23.576 C39.743,23.653 39.666,23.73 39.588,23.807 C39.55,23.846 39.55,23.884 39.511,23.961 C39.434,24.154 38.315,26.662 35.961,29.132 C32.759,32.489 28.9,34.186 24.502,34.186 C20.064,34.186 16.283,32.489 13.158,29.093 C10.842,26.547 9.801,24 9.801,24 C9.685,23.614 9.338,23.383 8.99,23.383 L8.99,23.383 z" fill="url(#Gradient_5)" opacity="0.13"/>
    <path d="M24.502,37.543 C11.846,37.543 8.99,24.27 8.99,24.27 C8.99,24.27 13.196,35.035 24.502,35.035 C35.768,35.035 40.36,24.27 40.36,24.27 C40.36,24.27 37.158,37.543 24.502,37.543 z" fill="#FFFFFF"/>
    <path d="M39.627,16.09 C37.659,19.987 32.103,21.106 27.241,18.637 C22.379,16.167 20.026,10.997 21.994,7.1 C23.961,3.203 29.518,2.084 34.379,4.553 C39.241,7.023 41.595,12.193 39.627,16.09 z" fill="url(#Gradient_6)" opacity="0.17"/>
  </g>
</svg>
