<?xml version="1.0" encoding="UTF-8"?>
<!DOCTYPE svg PUBLIC "-//W3C//DTD SVG 1.1//EN" "http://www.w3.org/Graphics/SVG/1.1/DTD/svg11.dtd">
<svg version="1.1" xmlns="http://www.w3.org/2000/svg" xmlns:xlink="http://www.w3.org/1999/xlink" x="0" y="0" width="178.148" height="60" viewBox="0, 0, 178.148, 60">
  <g id="Background">
    <rect x="0" y="0" width="178.148" height="60" fill="#FFFFFF"/>
  </g>
  <g id="DE">
    <g>
      <path d="M17.282,29.565 L17.282,29.459 C21.113,28.395 24.678,25.202 24.678,20.839 C24.678,17.008 21.752,13.656 16.165,13.656 C13.238,13.656 10.312,14.613 8.183,15.89 L9.088,19.136 C10.578,18.125 12.866,17.274 15.42,17.274 C18.612,17.274 20.155,18.87 20.155,21.424 C20.155,25.841 14.994,27.916 11.855,27.916 L10.152,27.916 L9.46,31.268 L11.163,31.268 C15.047,31.268 18.293,33.024 18.293,37.174 C18.293,40.633 15.686,44.517 9.992,44.517 C6.959,44.517 4.831,43.453 3.554,42.655 L2.117,46.06 C3.235,47.071 6.214,48.189 9.833,48.189 C17.069,48.189 22.763,43.453 22.763,37.121 C22.816,33.609 20.9,30.47 17.282,29.565 z M33.192,41.644 C41.173,35.046 47.611,28.874 47.611,21.797 C47.611,17.806 45.217,13.602 38.938,13.602 C35.799,13.602 32.34,14.826 30.052,16.582 L31.116,19.668 C32.66,18.604 35.001,17.274 37.98,17.274 C41.812,17.274 43.195,19.934 43.195,22.382 C43.195,27.863 37.927,33.077 28.988,40.633 L23.986,44.783 L23.454,47.603 L43.674,47.603 L44.366,43.932 L30.318,43.932 L30.318,43.825 L33.192,41.644 z M61.925,14.241 L54.316,18.019 L54.795,21.424 L60.488,18.551 L60.595,18.551 L55.114,47.657 L59.211,47.657 L65.543,14.241 L61.925,14.241 z" fill="#676867"/>
      <path d="M74.482,43.932 L80.388,13.017 L76.132,13.017 L69.534,47.657 L87.731,47.657 L88.476,43.932 L74.482,43.932 z M92.999,22.754 L88.21,47.603 L92.467,47.603 L97.203,22.754 L92.999,22.754 z M96.192,18.551 C97.894,18.551 99.065,17.38 99.118,15.678 C99.118,14.135 98.107,13.017 96.564,13.017 C95.074,13.017 93.85,14.241 93.797,15.89 C93.797,17.434 94.702,18.551 96.192,18.551 z M119.497,29.086 C119.497,23.872 116.145,22.222 113.166,22.222 C109.547,22.222 106.195,24.191 103.96,27.65 L103.854,27.65 L104.492,22.754 L100.715,22.754 C100.448,24.83 100.076,27.224 99.544,29.991 L96.245,47.603 L100.448,47.603 L102.736,35.525 C103.854,29.352 108.164,25.734 111.197,25.734 C114.123,25.734 115.081,27.597 115.081,30.044 C115.081,31.108 114.921,32.279 114.762,33.237 L112.048,47.603 L116.252,47.603 L119.019,33.077 C119.285,31.747 119.497,30.204 119.497,29.086 z M130.778,25.521 C132.64,25.521 134.237,26.16 135.088,26.639 L136.258,23.393 C135.354,22.754 133.332,22.169 131.044,22.169 C125.776,22.169 122.052,25.521 122.052,29.831 C122.052,32.385 123.648,34.62 126.521,36.216 C129.128,37.653 130.033,38.824 130.033,40.793 C130.033,43.027 128.171,44.836 125.297,44.836 C123.222,44.836 121.147,44.038 119.976,43.293 L118.753,46.433 C119.87,47.284 122.318,48.082 124.978,48.135 C130.246,48.135 134.449,45.209 134.449,39.941 C134.449,37.174 132.587,34.939 129.82,33.396 C127.585,32.173 126.361,31.055 126.361,29.246 C126.361,27.118 128.224,25.521 130.778,25.521 z M156.159,28.608 C156.159,24.989 153.605,22.169 148.869,22.169 C140.834,22.169 135.301,30.629 135.301,38.132 C135.301,43.613 138.174,48.135 144.772,48.135 C148.124,48.135 151.157,47.231 153.019,46.167 L152.381,42.974 C150.838,43.772 148.603,44.677 145.677,44.677 C143.122,44.677 141.101,43.613 140.143,41.325 C139.557,39.994 139.398,37.653 139.611,36.589 C148.816,36.855 156.159,35.152 156.159,28.608 z M148.284,25.521 C150.519,25.521 152.062,26.639 152.062,28.661 C152.062,32.545 146.794,33.503 140.09,33.396 C141.154,29.459 144.187,25.521 148.284,25.521 z M171.483,22.169 C167.865,22.169 164.513,24.138 162.278,27.597 L162.172,27.597 L162.81,22.701 L159.032,22.701 C158.766,24.776 158.394,27.171 157.862,29.938 L154.509,47.603 L158.713,47.603 L161.001,35.525 C162.118,29.352 166.428,25.734 169.461,25.734 C172.388,25.734 173.346,27.597 173.346,30.044 C173.346,31.108 173.186,32.279 173.026,33.237 L170.313,47.603 L174.516,47.603 L177.283,33.077 C177.549,31.747 177.762,30.204 177.762,29.086 C177.815,23.872 174.463,22.169 171.483,22.169 z" fill="#1979A3"/>
    </g>
  </g>
</svg>
