<?xml version="1.0" encoding="UTF-8"?>
<!DOCTYPE svg PUBLIC "-//W3C//DTD SVG 1.1//EN" "http://www.w3.org/Graphics/SVG/1.1/DTD/svg11.dtd">
<svg version="1.1" xmlns="http://www.w3.org/2000/svg" xmlns:xlink="http://www.w3.org/1999/xlink" x="0" y="0" width="200" height="200" viewBox="0, 0, 200, 200">
  <g id="Layer_1">
    <path d="M114.799,87.589 C115.494,87.589 116.284,87.589 117.121,87.589 C119.832,87.589 123.01,87.589 124.885,87.589 C127.395,87.589 127.363,88.958 127.341,90.943 C127.319,92.801 127.034,95.551 126.229,99.327 C125.442,103.034 124.632,105.766 123.853,107.707 C123.271,109.161 122.711,110.163 122.231,110.814 C121.489,111.792 121.067,111.998 120.589,112.181 C120.104,112.357 119.36,112.42 118.226,112.411 C112.644,112.411 81.094,112.411 75.597,112.411 C73.146,112.411 72.637,111.839 72.637,110.085 C72.639,108.973 72.821,107.357 73.274,105.237 C73.756,102.961 74.076,102.442 74.652,101.232 C75.538,99.406 76.318,98.736 77.038,98.333 C77.767,97.937 78.712,97.762 80.093,97.762 L93.326,97.762 L94.707,91.265 L80.093,91.265 C78.838,91.265 77.482,91.36 76.071,91.758 C75.015,92.059 73.936,92.539 72.932,93.246 C71.422,94.305 70.135,95.836 69.117,97.775 C68.096,99.725 67.552,100.916 66.917,103.885 C66.406,106.297 66.145,108.305 66.141,110.085 C66.145,111.567 66.325,112.913 66.809,114.17 C67.17,115.106 67.728,115.983 68.443,116.675 C69.515,117.731 70.836,118.294 72.04,118.57 C73.259,118.852 74.429,118.906 75.597,118.91 C81.094,118.908 112.644,118.908 118.226,118.91 C119.306,118.903 120.626,118.908 122.131,118.501 C123.252,118.2 124.444,117.632 125.506,116.757 C127.114,115.438 128.392,113.561 129.515,111.004 C130.64,108.436 131.635,105.124 132.585,100.673 C133.444,96.616 133.835,93.487 133.838,90.943 C133.835,89.088 133.632,87.526 133.148,86.131 C132.784,85.088 132.239,84.137 131.518,83.371 C130.439,82.204 129.039,81.596 127.88,81.348 C126.702,81.09 125.692,81.097 124.885,81.093 C121.136,81.093 112.18,81.093 112.168,81.093 L109.537,81.093 L103.655,108.746 L110.297,108.746 L114.799,87.589" fill="#083566"/>
    <path d="M140.837,80.687 C139.819,78.628 138.441,76.975 136.902,75.749 C134.582,73.899 131.977,73.01 129.63,72.566 C127.278,72.125 125.119,72.11 123.553,72.107 C120.602,72.107 115.987,72.107 112.11,72.107 C108.233,72.107 105.1,72.107 105.094,72.107 L102.461,72.107 L94.668,108.746 L101.312,108.746 L107.723,78.605 C111.729,78.605 119.338,78.605 123.553,78.605 C124.875,78.605 126.384,78.628 127.871,78.858 C128.985,79.026 130.073,79.309 131.047,79.742 C132.51,80.408 133.71,81.331 134.696,82.981 C135.668,84.639 136.43,87.172 136.432,91.101 C136.432,93.389 136.17,96.137 135.551,99.395 C134.437,105.284 133.057,109.609 131.572,112.712 C130.458,115.042 129.297,116.682 128.15,117.854 C126.422,119.598 124.741,120.396 122.761,120.881 C120.788,121.353 118.509,121.402 116.013,121.395 C107.229,121.395 83.048,121.395 74.397,121.395 C71.657,121.402 68.873,120.66 66.958,119.072 C65.987,118.274 65.182,117.272 64.576,115.889 C63.973,114.509 63.57,112.72 63.57,110.371 C63.57,108.871 63.735,107.147 64.12,105.187 C64.94,101.003 65.783,98.993 66.993,96.602 C68.823,93.011 70.822,91.211 72.836,90.142 C74.857,89.088 77.051,88.767 79.312,88.767 L95.237,88.767 L96.619,82.269 L79.312,82.269 C77.403,82.269 75.292,82.447 73.111,83.074 C69.84,83.998 66.448,86.036 63.724,89.61 C60.985,93.18 59.109,96.987 57.744,103.936 C57.29,106.253 57.073,108.391 57.072,110.371 C57.072,113.462 57.61,116.177 58.623,118.493 C60.128,121.976 62.729,124.442 65.58,125.887 C68.44,127.347 71.523,127.89 74.397,127.893 C83.048,127.893 107.229,127.893 116.013,127.893 C118.267,127.89 120.718,127.884 123.287,127.406 C125.21,127.049 127.204,126.407 129.124,125.282 C132.014,123.598 134.621,120.863 136.741,116.887 C138.87,112.902 140.594,107.662 141.936,100.605 C142.613,97.024 142.928,93.883 142.928,91.101 C142.931,86.873 142.197,83.442 140.837,80.687" fill="#083566"/>
    <path d="M99.309,72.107 L70.716,72.107 L69.334,78.605 C69.334,78.605 82.527,78.605 91.588,78.605 C98.418,78.605 99.309,72.107 99.309,72.107" fill="#083566"/>
  </g>
</svg>
