<?xml version="1.0" encoding="utf-8"?>
<!-- Generator: Adobe Illustrator 16.0.3, SVG Export Plug-In . SVG Version: 6.00 Build 0)  -->
<!DOCTYPE svg PUBLIC "-//W3C//DTD SVG 1.1//EN" "http://www.w3.org/Graphics/SVG/1.1/DTD/svg11.dtd">
<svg version="1.1" id="Layer_1" xmlns="http://www.w3.org/2000/svg" xmlns:xlink="http://www.w3.org/1999/xlink" x="0px" y="0px"
	 width="200px" height="200px" viewBox="0 0 200 200" enable-background="new 0 0 200 200" xml:space="preserve">
<title>Artboard 1</title>
<g>
	<path fill="#EB008B" d="M22.378,93.846c-2.734,2.188-3.176,6.176-0.988,8.909c0.244,0.305,0.515,0.585,0.809,0.84l0,0
		c1.532-1.158,2.468-2.939,2.552-4.857c0.029-0.801,0-1.741-0.352-2.291C24.047,95.897,22.952,94.82,22.378,93.846 M22.209,95.38
		c0.405,0.569,1.139,0.999,1.346,1.591c0.186,0.556,0.263,1.142,0.227,1.728c-0.058,1.332-0.604,2.595-1.534,3.548
		c-0.861-1.016-1.318-2.313-1.284-3.645c0.042-1.18,0.477-2.313,1.234-3.218"/>
	<path fill="#EB008B" d="M46.599,90.218c-0.446-0.387-0.78-0.887-0.965-1.448c-0.121-0.578,0.048-1.398,0-2.099
		c1.17,0.198,2.24,0.783,3.039,1.661c0.895,0.991,1.393,2.277,1.399,3.613c-1.331-0.118-2.568-0.726-3.474-1.708 M49.387,87.681
		c-1.206-1.37-2.962-2.127-4.786-2.065h-0.096c0.212,1.105,0.086,2.576,0.155,3.304c0.067,0.729,0.675,1.37,1.215,1.931
		c1.229,1.326,2.962,2.071,4.771,2.05h0.323c0.278-1.903-0.308-3.831-1.597-5.258"/>
	<path fill="#EB008B" d="M39.584,84.02c-1.442-0.833-2.692-1.963-3.667-3.314l-0.125-0.174l0.044-0.207
		c0.137-0.665,0.204-1.339,0.202-2.018c3.077,1.098,5.435,3.614,6.333,6.754c-0.973-0.202-1.909-0.56-2.769-1.056 M29.406,88.906
		c-1.652,1.536-3.554,2.779-5.624,3.676c-2.656-4.876-0.854-10.981,4.021-13.636c2.215-1.208,4.804-1.536,7.251-0.923
		C35.22,81.367,33.063,85.548,29.406,88.906 M43.396,85.254c-1.362-5.946-7.286-9.664-13.233-8.302
		c-5.948,1.362-9.665,7.286-8.303,13.232c0.221,0.962,0.568,1.89,1.035,2.759l0,0l0.053,0.092l0.082,0.14l0.347,0.612
		c2.588,4.043,7.501,5.936,12.132,4.674v-0.993c-4.228,1.256-8.78-0.391-11.225-4.063c2.127-0.934,4.083-2.218,5.789-3.796
		c2.218-1.967,3.965-4.406,5.113-7.139l0.29-0.724l0.521,0.58c0.906,1,1.964,1.852,3.135,2.523c1.07,0.62,2.247,1.037,3.468,1.229
		c0.703,3.905-0.972,7.855-4.269,10.063l0.14,0.125l0.594,0.541c3.411-2.383,5.166-6.502,4.52-10.613L43.396,85.254z"/>
	<path fill="#2B388F" d="M36.401,98.188v-2.563l0.516,0.483l0.593,0.541l0.121,0.106l0.632,0.574l14.954,13.588l-7.236,1.5
		l4.038,7.873l-3.319,1.808l-4.056-8.297l-6.243,5.233V98.188z M35.499,96.62v24.34l6.84-5.735l3.965,8.104l4.959-2.677
		l-3.902-7.623l7.756-1.614L39.054,96.806l-0.594-0.539l-0.13-0.131l-0.55-0.483l-2.257-2.054L35.499,96.62z"/>
	<path fill="#2B388F" d="M70.867,97.762h-0.145c-0.359-0.549-0.895-0.962-1.52-1.166c-0.858-0.317-1.768-0.469-2.682-0.444
		c-1.106-0.008-2.171,0.426-2.957,1.206c-0.815,0.74-1.275,1.792-1.264,2.895c-0.058,1.247,0.357,2.473,1.163,3.429
		c0.791,0.879,1.935,1.358,3.116,1.308c1.991,0,3.35-0.481,4.077-1.448h0.144v1.78c0.003,0.932-0.467,1.801-1.249,2.307
		c-0.987,0.643-2.151,0.959-3.329,0.901c-2.082,0.03-4.09-0.77-5.581-2.224c-1.524-1.41-2.375-3.401-2.339-5.476
		c-0.051-2.166,0.765-4.265,2.267-5.826c1.512-1.59,3.54-2.383,6.083-2.383c1.091-0.042,2.163,0.298,3.03,0.965
		c0.75,0.556,1.192,1.436,1.191,2.369L70.867,97.762z"/>
	<path fill="#2B388F" d="M84.885,106.455c-0.012,0.485-0.238,0.943-0.617,1.249c-0.365,0.353-0.852,0.554-1.36,0.559h-7.555
		c-0.697,0.05-1.39-0.144-1.963-0.545c-0.449-0.361-0.7-0.914-0.675-1.49c0-1.146,0.785-2.562,2.354-4.25l3.902-4.249
		c0.502-0.535,0.946-1.12,1.326-1.747h-7.612v-1.176c-0.009-0.558,0.233-1.088,0.661-1.448c0.541-0.417,1.215-0.62,1.896-0.575
		h7.034c0.664-0.054,1.323,0.163,1.824,0.604c0.374,0.361,0.586,0.859,0.588,1.379c0,1.286-0.659,2.654-1.978,4.105l-3.859,4.192
		c-0.55,0.59-1.035,1.235-1.447,1.929h7.521L84.885,106.455z"/>
	<path fill="#2B388F" d="M96.506,97.98c0.042-0.672-0.248-1.321-0.776-1.736c-0.634-0.426-1.39-0.631-2.152-0.589
		c-0.864-0.022-1.695,0.33-2.281,0.965c-0.6,0.633-0.945,1.467-0.965,2.34l-0.029,0.51h1.722c1.782,0,2.973-0.109,3.575-0.327
		C96.134,99.013,96.51,98.532,96.506,97.98 M100.124,98.462c0,1.396-0.56,2.371-1.679,2.927s-2.988,0.821-5.605,0.791h-2.509
		c0.122,0.935,0.633,1.774,1.409,2.311c0.856,0.6,1.883,0.907,2.928,0.873c2.106,0,3.685-0.482,4.737-1.447h0.145v1.206
		c0,2.335-1.865,3.502-5.596,3.502c-1.988,0.008-3.897-0.778-5.306-2.18c-1.529-1.452-2.366-3.489-2.297-5.597
		c0-2.543,0.703-4.582,2.108-6.116c1.4-1.526,3.396-2.365,5.465-2.296c1.606-0.022,3.161,0.574,4.341,1.664
		c1.225,1.105,1.897,2.694,1.838,4.341"/>
	<path fill="#2B388F" d="M114.393,97.762h-0.141c-0.355-0.545-0.886-0.956-1.504-1.161c-0.859-0.317-1.771-0.469-2.687-0.444
		c-1.106-0.008-2.171,0.426-2.958,1.206c-0.814,0.74-1.274,1.794-1.263,2.895c-0.058,1.247,0.356,2.474,1.162,3.428
		c0.791,0.881,1.935,1.359,3.117,1.309c1.989,0,3.349-0.482,4.075-1.448h0.146v1.78c-0.004,0.934-0.481,1.802-1.271,2.302
		c-0.984,0.644-2.151,0.959-3.327,0.901c-2.082,0.03-4.091-0.77-5.582-2.224c-1.527-1.414-2.379-3.413-2.339-5.495
		c-0.051-2.165,0.765-4.263,2.267-5.826c1.512-1.589,3.541-2.383,6.088-2.383c1.091-0.041,2.162,0.299,3.03,0.965
		c0.75,0.556,1.192,1.435,1.191,2.369L114.393,97.762z"/>
	<path fill="#2B388F" d="M130.727,108.264h-1.263c-0.709,0.043-1.403-0.2-1.931-0.675c-0.497-0.515-0.755-1.216-0.704-1.931v-6.29
		c0-1.206-0.283-2.095-0.849-2.667c-0.589-0.583-1.396-0.895-2.225-0.859c-0.739,0.009-1.441,0.333-1.93,0.888
		c-0.565,0.595-0.85,1.512-0.85,2.754v8.779h-1.263c-1.76,0-2.64-0.861-2.64-2.585V87.599h1.206
		c0.748-0.056,1.487,0.186,2.055,0.675c0.478,0.473,0.734,1.123,0.704,1.795v4.418c0.362-0.58,0.846-1.074,1.419-1.447
		c0.563-0.404,1.237-0.624,1.93-0.631c2.01,0,3.569,0.583,4.68,1.751c1.109,1.167,1.664,2.841,1.664,5.021L130.727,108.264z"/>
	<path fill="#EB008B" d="M140.978,106.084c0.059,0.639-0.132,1.277-0.53,1.778c-0.497,0.413-1.139,0.61-1.779,0.546
		c-1.492,0-2.638-0.412-3.436-1.235c-0.797-0.824-1.194-2.02-1.191-3.589V93.111h1.091c1.837,0,2.755,0.965,2.755,2.894v7.236
		c-0.065,0.581,0.128,1.164,0.531,1.591c0.541,0.348,1.183,0.504,1.823,0.444h0.719L140.978,106.084z M137.547,87.85
		c0.438,0.407,0.682,0.98,0.677,1.577c-0.019,1.244-1.024,2.249-2.268,2.267c-0.598,0.007-1.17-0.238-1.577-0.676
		c-0.43-0.418-0.668-0.993-0.661-1.591c0.011-1.232,1.006-2.228,2.238-2.238C136.555,87.183,137.129,87.422,137.547,87.85"/>
	<path fill="#EB008B" d="M142.613,93.397c-0.023-0.573,0.053-1.146,0.227-1.693c0.219-0.506,0.521-0.972,0.894-1.379
		c0.611-0.707,1.213-1.061,1.808-1.061h0.888v3.501h5.369v1.578c-0.009,0.485-0.223,0.945-0.588,1.263
		c-0.468,0.407-1.075,0.614-1.693,0.575h-3.073v6.058c0,1.855,0.814,2.784,2.44,2.784c0.961,0.063,1.92-0.125,2.784-0.551h0.145
		v1.38c0.031,0.737-0.297,1.442-0.879,1.896c-0.736,0.504-1.621,0.748-2.512,0.689c-1.93,0-3.377-0.499-4.342-1.495
		c-0.965-0.998-1.447-2.414-1.447-4.25L142.613,93.397z"/>
	<path fill="#2B388F" d="M162.348,103.015v-1.495h-1.381c-1.398,0-2.372,0.154-2.928,0.482c-0.539,0.29-0.863,0.865-0.829,1.477
		c-0.025,0.561,0.238,1.097,0.699,1.419c0.59,0.36,1.278,0.529,1.967,0.481c1.646,0,2.467-0.794,2.467-2.383 M166.104,102.967
		c0.053,1.504-0.544,2.956-1.635,3.989c-1.146,1.056-2.664,1.612-4.221,1.549h-0.772c-1.599,0.074-3.176-0.406-4.461-1.36
		c-1.113-0.829-1.76-2.143-1.738-3.531c-0.039-1.416,0.649-2.754,1.824-3.544c1.212-0.872,3.168-1.307,5.865-1.307h1.337V98.56
		c0-1.07-0.26-1.813-0.776-2.224c-0.517-0.41-1.365-0.617-2.558-0.617c-1.063-0.035-2.125,0.151-3.115,0.544
		c-0.674,0.268-1.272,0.691-1.751,1.234h-0.145v-1.229c0.029-1.043,0.542-2.015,1.385-2.629c0.938-0.766,2.345-1.147,4.22-1.147
		c0.846-0.012,1.688,0.104,2.5,0.341c0.749,0.231,1.445,0.608,2.052,1.104c0.663,0.582,1.162,1.329,1.445,2.166
		c0.375,1.07,0.556,2.197,0.531,3.329L166.104,102.967z"/>
	<path fill="#2B388F" d="M179.993,103.388c0.08,1.479-0.541,2.909-1.679,3.858c-1.122,0.896-2.716,1.346-4.78,1.346
		c-1.242,0.041-2.467-0.277-3.531-0.916c-0.966-0.611-1.447-1.318-1.447-2.122v-1.737h0.145c0.574,0.483,1.245,0.836,1.968,1.033
		c0.866,0.283,1.772,0.428,2.684,0.429c1.875,0,2.813-0.563,2.813-1.692c0.006-0.448-0.245-0.861-0.648-1.063
		c-0.816-0.349-1.685-0.562-2.57-0.632c-1.646-0.228-2.865-0.677-3.656-1.346c-0.804-0.684-1.245-1.7-1.197-2.754
		c-0.003-1.482,0.674-2.884,1.839-3.801c1.336-1.081,3.021-1.637,4.736-1.563c1.608,0,2.833,0.333,3.677,1.002
		c0.763,0.521,1.232,1.373,1.264,2.297v1.447h-0.146c-0.52-0.489-1.149-0.843-1.837-1.033c-0.834-0.271-1.705-0.407-2.581-0.405
		c-2.068,0-3.101,0.574-3.097,1.722c-0.01,0.393,0.223,0.751,0.582,0.907c0.81,0.31,1.654,0.518,2.513,0.618
		c3.29,0.533,4.937,1.997,4.937,4.388"/>
</g>
</svg>
