<?xml version="1.0" encoding="UTF-8"?>
<!DOCTYPE svg PUBLIC "-//W3C//DTD SVG 1.1//EN" "http://www.w3.org/Graphics/SVG/1.1/DTD/svg11.dtd">
<svg version="1.1" xmlns="http://www.w3.org/2000/svg" xmlns:xlink="http://www.w3.org/1999/xlink" x="0" y="0" width="200" height="200" viewBox="0, 0, 200, 200">
  <g id="Background">
    <rect x="0" y="0" width="200" height="200" fill="#FFFFFF"/>
  </g>
  <g id="Background">
    <path d="M118.933,92.141 C118.933,95.222 115.97,102.096 115.022,103.993 C110.993,111.933 105.659,111.933 99.615,111.933 C96.652,111.933 90.133,111.933 90.133,106.244 C90.133,103.637 92.267,99.015 94.044,94.511 C94.756,92.615 97.956,86.333 108.859,86.333 C113.363,86.333 118.933,87.044 118.933,92.141 M105.185,92.733 C104.474,92.733 103.289,92.852 102.815,93.563 C100.919,96.407 99.733,103.4 99.733,105.296 C99.733,106.6 100.563,106.6 101.748,106.6 C102.459,106.6 103.526,106.6 104.119,105.889 C105.778,103.993 107.2,95.696 107.2,94.156 C107.2,93.089 107.081,92.733 105.185,92.733 M79.467,93.444 C79.467,100.556 75.2,101.978 70.341,101.978 L67.022,101.978 C63.704,101.978 56.948,101.741 56.948,101.741 C56.356,101.741 56,101.622 56,101.978 C56,104.348 58.607,107.785 62.519,107.785 C65.6,107.785 67.615,105.77 68.089,105.415 C68.089,105.415 71.644,104.941 73.896,104.941 C76.148,104.941 79.348,105.296 79.348,106.6 C79.348,109.089 71.289,113 64.652,113 C54.459,113 45.333,107.43 45.333,100.674 C45.333,89.415 66.785,81 73.067,81 C78.756,81 79.467,90.126 79.467,93.444 M70.933,92.852 C70.933,91.43 70.815,89.533 69.63,89.533 C65.719,89.533 58.963,94.867 58.37,95.459 C57.896,95.933 58.252,95.933 58.963,95.933 L67.615,95.933 C70.696,95.933 70.933,95.459 70.933,92.852 M89.067,97.948 C89.067,98.659 88.119,100.793 88,101.148 C87.17,103.163 85.037,103.4 83.496,103.4 C81.244,103.4 80.415,102.57 80.415,101.385 C80.415,100.437 81.244,98.778 81.363,98.541 C82.43,96.289 84.207,96.052 85.985,96.052 C87.644,95.933 89.067,96.526 89.067,97.948 M152,92.378 C152,96.052 147.733,108.615 147.022,110.511 C146.548,111.696 145.719,111.933 144.533,111.933 C142.4,111.933 140.859,111.459 140.148,110.867 C140.03,110.748 139.793,110.511 139.911,110.037 C140.741,107.667 143.704,99.133 143.704,97.356 C143.704,96.289 143.467,95.578 142.4,95.578 C136.356,95.578 125.333,108.615 123.2,110.985 C122.489,111.696 121.541,111.933 120.356,111.933 C118.933,111.933 117.393,111.222 117.274,111.104 C116.8,110.867 116.8,110.63 116.919,110.037 L117.274,108.496 C117.985,105.652 121.541,95.104 124.03,89.415 C124.148,89.178 124.267,88.941 124.741,88.941 C124.978,88.941 125.807,88.704 126.993,88.704 C127.822,88.704 129.481,88.822 130.311,89.178 L130.311,90.6 C130.311,91.193 130.43,93.207 132.326,93.207 C135.526,93.207 141.333,87.637 146.548,87.637 C150.933,87.4 152,90.244 152,92.378" fill="#EA1C0A"/>
  </g>
</svg>
