<?xml version="1.0" encoding="UTF-8"?>
<!DOCTYPE svg PUBLIC "-//W3C//DTD SVG 1.1//EN" "http://www.w3.org/Graphics/SVG/1.1/DTD/svg11.dtd">
<svg version="1.1" xmlns="http://www.w3.org/2000/svg" xmlns:xlink="http://www.w3.org/1999/xlink" x="0" y="0" width="200" height="200" viewBox="0, 0, 200, 200">
  <defs>
    <clipPath id="Clip_1">
      <path d="M62.458,69.566 L137.542,69.566 L137.542,130.434 L62.458,130.434 z"/>
    </clipPath>
    <clipPath id="Clip_2">
      <path d="M62.458,69.566 L137.542,69.566 L137.542,130.434 L62.458,130.434 z"/>
    </clipPath>
  </defs>
  <g id="Layer_1">
    <g clip-path="url(#Clip_1)">
      <path d="M76.695,123.545 L76.703,118.378 C79.942,118.378 81.131,118.216 81.695,122.188 L82.038,122.188 L82.038,117.767 L73.215,117.77 L73.215,118.378 L74.743,118.378 L74.743,129.752 L73.06,129.752 L73.06,130.351 L82.151,130.351 L82.151,125.703 L81.695,125.703 C81.242,129.217 80.352,129.753 77.853,129.753 L76.695,129.753 L76.695,124.227 C76.729,124.227 77.143,124.227 77.366,124.227 C78.487,124.255 79.126,124.909 79.354,126.838 L79.766,126.838 L79.763,121.125 C79.756,121.135 79.357,121.125 79.357,121.125 C79.357,121.153 79.277,123.582 77.317,123.545 L76.695,123.545" fill="#B22C2B"/>
      <path d="M73.091,123.773 L68.114,123.773 L68.114,124.337 L69.818,124.337 L69.818,128.427 C69.53,129.465 68,129.899 67.544,129.899 C64.365,129.899 64.593,125.249 64.593,124.003 C64.593,122.864 64.479,118.104 67.544,118.104 C69.704,118.104 70.84,120.255 71.296,122.186 L71.64,122.186 C71.64,121.391 71.653,117.604 71.646,117.614 C71.653,117.584 70.164,118.683 70.16,118.666 C70.194,118.659 69.479,117.648 67.544,117.648 C63.793,117.648 62.417,121.391 62.428,124.003 C62.445,126.393 63.547,130.464 67.544,130.464 C68.801,130.464 69.686,129.825 70.16,129.099 C70.164,129.083 71.744,130.346 71.749,130.351 L71.749,124.337 L73.091,124.337 L73.091,123.773" fill="#B22C2B"/>
    </g>
    <path d="M116.571,125.812 L118.386,120.373 L120.32,125.812 L116.571,125.812 z M109.522,123.641 L107.482,123.641 L107.482,118.371 L110.092,118.371 C111.624,118.603 111.687,120.373 111.687,120.937 C111.687,122.3 111.118,123.641 109.522,123.641 z M131.245,125.703 C130.793,129.217 129.902,129.744 127.403,129.744 L127.251,129.744 L127.251,118.373 L128.841,118.373 L128.841,117.761 L123.613,117.761 L123.613,118.373 L125.203,118.373 L125.203,129.744 L123.942,129.744 L119.299,117.421 L118.614,117.421 C118.629,117.413 114.756,128.602 114.748,128.635 C114.756,128.602 114.456,129.595 113.819,129.718 C113.231,129.746 113.273,129.44 113.273,129.332 L113.273,127.177 C113.273,126.612 113.231,125.326 112.643,124.737 C111.985,124.073 110.859,124.024 110.884,124 C110.884,124 113.74,123.409 113.74,120.695 C113.74,118.792 112.417,117.847 110.207,117.763 L103.93,117.763 L103.93,118.376 L105.535,118.376 L105.535,129.746 C105.535,129.746 103.962,129.746 103.93,129.746 L103.93,130.351 L109.079,130.351 L109.079,129.746 C109.045,129.746 107.472,129.746 107.472,129.746 L107.472,124.279 C107.464,124.279 109.499,124.279 109.613,124.279 C113.328,124.586 108.976,130.356 113.844,130.351 L116.912,130.351 L116.912,129.744 C116.742,129.744 115.617,129.776 115.548,128.993 C115.501,128.427 116.287,126.393 116.287,126.393 L120.465,126.393 C120.463,126.385 121.764,129.746 121.776,129.746 L120.32,129.746 L120.32,130.351 L131.701,130.351 L131.701,125.703 L131.245,125.703" fill="#B22C2B"/>
    <path d="M97.739,118.371 C100.979,118.371 102.175,118.216 102.74,122.188 L103.082,122.188 L103.082,117.767 L90.219,117.767 L90.219,118.371 L90.556,118.371 C91.01,118.371 92.087,118.404 92.149,119.353 L92.148,119.353 L92.148,126.608 L86.131,117.767 L82.855,117.767 L82.855,118.371 L83.399,118.371 C84.045,118.371 84.951,118.4 84.992,119.353 L84.992,128.648 C84.992,129.555 83.634,129.899 83.067,129.899 L83.06,129.899 L83.06,130.351 L87.493,130.351 L87.493,129.899 C86.925,129.899 85.558,129.555 85.558,128.648 L85.574,120.465 C87.956,123.87 92.452,130.356 92.493,130.351 L92.718,130.351 L92.718,119.353 C92.78,118.404 93.857,118.371 94.311,118.371 L95.788,118.371 L95.788,129.752 L94.104,129.752 L94.104,130.351 L103.196,130.351 L103.196,125.703 L102.74,125.703 C102.286,129.217 101.396,129.753 98.897,129.753 L97.739,129.753 L97.739,124.227 C97.774,124.227 98.187,124.227 98.41,124.227 C99.532,124.255 100.17,124.909 100.398,126.838 L100.811,126.838 L100.808,121.125 C100.801,121.135 100.402,121.125 100.402,121.125 C100.402,121.153 100.322,123.582 98.361,123.546 L97.739,123.546 L97.739,118.371" fill="#B22C2B"/>
    <g clip-path="url(#Clip_2)">
      <path d="M137.419,118.373 L137.419,117.76 L132.287,117.76 L132.287,118.373 L133.899,118.373 L133.904,129.738 L132.287,129.738 L132.287,130.351 L137.419,130.351 L137.419,129.738 L135.807,129.738 L135.807,118.373 L137.419,118.373" fill="#B22C2B"/>
      <path d="M119.131,107.309 C119.284,106.918 119.58,106.669 119.991,106.59 L124.142,105.664 L123.766,101.96 L123.755,101.88 C123.652,101.396 123.343,99.917 121.414,99.76 C113.993,99.16 112.271,98.06 110.468,96.895 C110.465,96.89 110.463,96.884 110.46,96.878 L110.45,96.884 L110.333,96.808 C108.406,95.56 106.492,95.551 106.304,95.556 C104.202,95.557 101.541,96.39 101.325,96.458 C100.683,96.647 100.083,96.839 99.502,97.025 C97.178,97.773 95.17,98.421 91.798,98.32 L91.182,98.301 L91.024,98.897 C90.902,99.355 89.959,103.082 90.869,105.477 C90.052,106.121 90.053,106.865 90.058,106.964 C90.091,107.783 89.898,107.985 89.834,108.051 C89.444,108.455 88.152,108.508 87.063,108.508 C87.06,108.508 87.054,108.508 87.05,108.508 L86.653,108.508 L86.42,108.829 C85.749,109.752 84.299,109.969 83.37,109.733 C82.961,108.491 82.951,107.541 83.344,106.974 C83.809,106.306 84.794,106.233 85.197,106.233 L85.43,106.233 C86.415,106.233 87.218,105.427 87.218,104.436 L87.218,97.763 C87.518,97.299 87.759,96.764 87.969,96.162 C89.598,95.903 90.845,94.52 90.845,92.859 C90.845,92.221 90.657,91.605 90.318,91.079 C91.824,90.355 93.11,88.873 93.11,86.933 C93.11,84.992 92.134,84.102 91.207,83.519 C91.468,82.774 91.9,81.464 92.193,80.145 L93.496,75.478 C94.078,73.648 95.601,72.466 97.378,72.466 L120.329,72.466 C119.358,73.833 117.978,74.48 116.066,74.48 L102.178,74.48 L101.452,76.033 L113.899,76.033 C112.922,77.589 111.489,78.321 109.456,78.321 L100.43,78.321 L99.706,79.875 L107.758,79.875 C106.783,81.372 105.367,82.08 103.371,82.08 L98.452,82.08 L97.726,83.633 L102.883,83.633 C102.93,83.698 103.06,83.933 103.06,84.563 C103.06,85.561 102.22,86.373 101.188,86.373 C100.833,86.373 100.532,86.292 100.001,86.076 C99.773,85.979 99.545,85.882 99.317,85.786 L98.12,86.86 C98.344,86.955 98.567,87.05 98.792,87.145 L98.792,87.145 C99.828,87.594 100.405,87.829 101.188,87.829 C102.138,87.829 102.994,87.435 103.602,86.808 C104.485,86.865 105.911,86.983 107.291,87.095 C108.941,87.231 110.499,87.359 111.304,87.402 C111.707,87.424 112.086,87.442 112.447,87.46 C113.131,87.494 113.758,87.525 114.384,87.571 C117.516,92.656 119.122,93.325 125.189,94.053 C125.626,94.835 126.02,95.664 126.396,96.497 L126.396,106.402 L126.398,106.458 C126.431,106.913 126.431,107.067 126.368,107.15 C126.158,107.426 125.222,107.817 124.897,107.952 L119.783,109.88 C119.105,108.96 118.861,108.001 119.131,107.309 z M118.025,110 L107.915,110 L112.247,105.427 C113.122,104.523 113.401,103.435 113.033,102.369 C112.823,101.753 112.251,100.572 111.655,99.362 C113.375,100.162 115.982,100.88 121.288,101.307 C121.927,101.36 122.096,101.578 122.222,102.158 L122.455,104.448 L119.682,105.067 C118.754,105.251 118.024,105.862 117.679,106.746 C117.3,107.722 117.429,108.871 118.025,110 z M99.791,110 C99.51,108.899 99.624,108.021 100.126,107.448 C100.605,106.898 101.342,106.731 101.863,106.806 L104.818,107.355 L104.893,107.368 L105.304,107.368 L107.392,105.117 L107.411,105.095 C107.768,104.68 108.853,103.421 107.745,101.816 L104.955,97.216 C105.417,97.151 105.88,97.11 106.31,97.11 L106.328,97.109 C106.342,97.111 107.742,97.089 109.241,97.962 C109.444,98.397 109.727,98.97 110.041,99.608 C110.627,100.795 111.356,102.274 111.56,102.872 C111.624,103.06 111.822,103.63 111.123,104.353 L105.772,110 L99.791,110 z M98.953,106.426 C98.389,107.072 97.842,108.196 98.197,110 L88.679,110 C89.701,109.898 90.444,109.659 90.957,109.126 C91.581,108.478 91.635,107.591 91.614,106.958 C91.635,106.904 91.739,106.69 92.205,106.479 L93.025,106.106 L92.533,105.348 C91.72,104.098 92.075,101.367 92.389,99.882 C92.414,99.882 92.439,99.882 92.463,99.882 C95.691,99.882 97.778,99.213 99.979,98.505 C100.553,98.32 101.146,98.129 101.772,97.947 L101.791,97.941 C101.804,97.936 102.447,97.732 103.323,97.528 L106.426,102.641 L106.455,102.684 C106.764,103.125 106.802,103.416 106.24,104.073 L104.684,105.75 L102.134,105.277 L102.111,105.273 C100.96,105.095 99.72,105.549 98.953,106.426 z M82.066,106.09 C81.403,107.041 81.324,108.354 81.821,110 L80.213,110 L80.213,97.444 C80.789,97.356 81.409,97.19 81.986,96.928 C81.954,97.475 81.878,97.907 81.776,98.486 C81.752,98.621 81.728,98.762 81.703,98.911 L81.548,99.817 L82.469,99.817 C83.846,99.817 84.873,99.602 85.662,99.194 L85.662,104.436 C85.662,104.57 85.558,104.679 85.43,104.679 L85.197,104.679 C83.829,104.679 82.687,105.193 82.066,106.09 z M78.655,108.639 L71.327,106.731 L63.997,108.639 L63.997,95.53 L71.327,93.627 L78.655,95.53 L78.655,108.639 z M64.938,110 L71.327,108.337 L77.715,110 L64.938,110 z M67.493,90.699 C67.799,90.232 68.5,89.829 69.376,89.98 L70.039,90.096 L70.248,89.457 C70.304,89.285 70.379,89.159 70.483,89.061 C70.67,88.884 70.947,88.802 71.302,88.812 C72.239,88.842 73.412,89.494 74.364,90.516 C74.712,90.888 75.018,91.318 75.292,91.755 C75.345,91.847 75.406,91.945 75.462,92.031 C75.538,92.153 75.603,92.252 75.617,92.276 C75.649,92.335 76.121,93.043 76.089,93.088 C76.41,92.637 76.732,92.184 77.055,91.733 C77.064,91.72 77.049,91.679 77.022,91.62 C76.95,91.465 76.779,91.195 76.676,91.036 C76.653,90.997 76.627,90.958 76.603,90.919 C76.601,90.917 76.599,90.913 76.598,90.911 C76.588,90.895 76.545,90.828 76.487,90.739 C76.38,90.571 76.227,90.327 76.159,90.194 L78.187,86.952 C78.693,87.057 79.124,87.073 79.33,87.073 L79.379,87.073 C82.239,87.073 85.198,85.423 85.198,82.663 L85.197,82.595 C85.161,81.843 85.021,81.126 84.908,80.549 C84.833,80.169 84.763,79.811 84.763,79.632 C84.763,79.33 85.188,78.993 85.797,78.993 L86.723,78.993 L86.304,76.597 C87.606,75.639 88.405,74.08 88.364,72.589 C89.766,73.663 90.755,75.528 90.936,77.513 C90.989,78.089 90.875,78.895 90.689,79.742 L90.59,80.097 L90.607,80.101 C90.275,81.485 89.786,82.908 89.527,83.583 L89.288,84.206 L89.87,84.536 C90.913,85.127 91.555,85.559 91.555,86.933 C91.555,88.508 90.136,89.717 88.766,89.973 L86.892,90.324 L88.477,91.382 C88.985,91.721 89.288,92.274 89.288,92.859 C89.288,93.849 88.446,94.654 87.412,94.654 L86.815,94.654 L86.647,95.203 C86.065,97.098 85.433,98.025 83.401,98.223 C83.494,97.647 83.559,97.093 83.559,96.309 C83.559,96.125 83.544,95.608 83.535,95.443 L83.445,93.677 L82.203,94.939 C81.781,95.367 81.034,95.707 80.213,95.869 L80.213,94.328 L71.327,92.021 L68.165,92.843 C67.46,92.137 67.318,90.971 67.493,90.699 z M77.089,84.992 C77.113,84.885 77.2,84.8 77.292,84.802 L78.629,84.845 C80.261,84.788 81.923,84.117 82.109,82.418 C82.109,81.268 81.294,80.148 80.14,80.148 C79.524,80.148 78.831,80.574 78.053,81.089 C77.545,81.426 77.144,81.692 76.84,81.692 C76.634,81.692 76.469,81.555 76.469,81.442 C76.469,81.424 76.471,81.403 76.478,81.386 L77.333,80.241 L76.594,79.744 C76.436,79.641 76.191,79.447 76.164,79.302 C76.151,79.234 76.25,79.111 76.282,79.074 C76.587,78.717 76.939,78.282 77.294,77.746 C77.512,77.44 77.639,77.272 78.004,77.272 C78.365,77.272 78.66,77.562 78.66,77.917 C78.66,78.152 78.919,78.339 79.24,78.339 C79.561,78.339 79.705,78.111 79.903,77.917 C79.903,77.917 80.666,77.218 80.262,76.888 C79.802,76.51 77.955,77.28 78.469,75.585 L78.596,75.343 C78.794,75.082 79.677,74.428 81.501,74.428 C81.846,74.428 82.211,74.453 82.584,74.5 L82.857,74.534 L86.73,72.147 C86.764,72.227 86.775,72.286 86.775,72.286 L86.779,72.309 C86.981,73.481 86.242,74.876 85.061,75.554 L84.589,75.824 L84.894,77.571 C83.9,77.876 83.207,78.673 83.207,79.632 C83.207,79.962 83.283,80.353 83.38,80.847 C83.488,81.397 83.61,82.018 83.641,82.651 C83.641,84.468 81.134,85.67 79.012,85.602 L78.958,85.601 C78.87,85.598 77.519,85.491 77.188,85.229 C77.123,85.182 77.072,85.075 77.089,84.992 z M80.298,72.865 C80.542,72.552 80.939,72.208 81.415,71.893 C81.787,71.648 82.271,71.429 82.744,71.292 C83.494,71.076 84.358,71.062 85.249,71.234 L82.503,72.927 C82.161,72.893 81.825,72.874 81.501,72.874 C81.035,72.874 80.607,72.912 80.214,72.975 C80.243,72.938 80.27,72.9 80.298,72.865 z M122.146,72.466 L132.501,72.466 C131.531,73.834 130.149,74.48 128.239,74.48 L120.593,74.48 C121.203,73.945 121.721,73.273 122.146,72.466 z M121.627,78.321 L113.982,78.321 C114.659,77.729 115.221,76.963 115.67,76.033 L126.071,76.033 C125.093,77.589 123.66,78.321 121.627,78.321 z M115.542,82.08 L107.898,82.08 C108.553,81.505 109.102,80.767 109.544,79.875 L119.93,79.875 C118.955,81.371 117.539,82.08 115.542,82.08 z M117.3,87.913 C119.722,88.312 121.704,89.403 123.194,91.152 C123.513,91.527 123.82,91.925 124.123,92.357 C120.048,91.822 118.63,91.229 116.353,87.771 C116.656,87.811 116.97,87.857 117.3,87.913 z M133.556,104.678 C133.704,104.919 133.831,105.145 133.956,105.362 C134.108,105.632 134.256,105.893 134.432,106.166 C133.253,106.092 132.36,105.438 131.533,104.204 C132.294,103.937 133.216,104.127 133.556,104.678 z M123.869,110 L125.458,109.4 L125.481,109.392 C127.737,108.457 128.057,107.874 127.952,106.374 L127.952,100.311 C129.668,104.668 131.29,107.733 134.616,107.731 C135.069,107.731 135.552,107.676 136.071,107.558 L137.369,107.264 L136.477,106.28 C135.907,105.65 135.63,105.163 135.311,104.599 C135.18,104.368 135.045,104.128 134.881,103.862 C134.102,102.6 132.251,102.172 130.752,102.843 C130.072,101.493 129.386,99.73 128.562,97.558 L128.382,97.144 C128.24,96.82 128.098,96.493 127.952,96.165 L127.952,96.111 L127.928,96.111 C127.417,94.963 126.872,93.811 126.221,92.731 C125.629,91.751 125.027,90.905 124.38,90.146 C122.645,88.109 120.349,86.841 117.555,86.379 C115.623,86.061 114.255,85.994 112.523,85.909 C112.163,85.892 111.789,85.873 111.389,85.852 C110.605,85.807 108.985,85.676 107.419,85.547 C106.363,85.46 105.279,85.372 104.428,85.309 C104.485,85.068 104.519,84.821 104.519,84.563 C104.519,84.216 104.487,83.909 104.426,83.633 L115.542,83.633 C118.408,83.633 120.482,82.367 121.716,79.872 C124.565,79.847 126.625,78.555 127.842,76.033 L128.239,76.033 C131.204,76.033 133.325,74.68 134.541,72.01 L135.042,70.912 L97.378,70.912 C94.903,70.912 92.796,72.527 92.007,75.023 L91.983,75.11 C91.343,73.325 90.17,71.809 88.668,70.916 C86.58,69.673 84.203,69.257 82.312,69.8 C81.685,69.981 81.062,70.263 80.556,70.597 C80.123,70.884 79.513,71.343 79.071,71.91 C78.589,72.527 78.123,73.275 77.782,73.973 C77.566,74.151 77.397,74.333 77.281,74.511 L76.829,75.358 L76.806,75.406 C76.266,76.623 75.61,77.467 75.1,78.065 C74.591,78.656 74.566,79.218 74.634,79.586 C74.709,79.987 74.924,80.315 75.154,80.563 L75.141,80.586 C74.991,80.845 74.912,81.141 74.912,81.442 C74.912,82.436 75.777,83.188 76.84,83.188 C77.613,83.188 78.245,82.827 78.914,82.384 C79.186,82.205 79.904,81.727 80.14,81.701 C80.439,81.701 80.709,81.972 80.709,82.268 C80.709,83.082 79.66,83.522 78.907,83.577 L77.378,83.74 C76.277,83.843 75.755,84.427 75.755,84.948 C75.755,85.472 76.007,85.768 76.181,85.943 L76.296,86.058 L76.684,86.404 L75.061,89.017 C73.904,87.945 72.552,87.298 71.351,87.26 C70.575,87.234 69.905,87.468 69.411,87.934 C69.268,88.069 69.143,88.225 69.037,88.394 C69.027,88.394 69.017,88.394 69.008,88.394 C67.726,88.394 66.695,89.08 66.19,89.851 C65.641,90.693 65.838,92.152 66.535,93.265 L62.441,94.328 L62.441,113.902 L137.542,113.902 L137.542,110 L123.869,110" fill="#B22C2B"/>
    </g>
    <path d="M77.032,97.543 L72.134,96.271 L72.134,97.876 L77.032,99.147 L77.032,97.543" fill="#B22C2B"/>
    <path d="M65.621,99.147 L70.519,97.876 L70.519,96.27 L65.621,97.543 L65.621,99.147" fill="#B22C2B"/>
    <path d="M65.621,102.373 L70.519,101.103 L70.519,99.497 L65.621,100.767 L65.621,102.373" fill="#B22C2B"/>
    <path d="M77.032,100.767 L72.134,99.497 L72.134,101.103 L77.032,102.373 L77.032,100.767" fill="#B22C2B"/>
    <path d="M77.032,103.996 L72.134,102.723 L72.134,104.328 L77.032,105.601 L77.032,103.996" fill="#B22C2B"/>
    <path d="M65.621,105.601 L70.519,104.328 L70.519,102.723 L65.621,103.996 L65.621,105.601" fill="#B22C2B"/>
  </g>
</svg>
