<?xml version="1.0" encoding="UTF-8"?>
<!DOCTYPE svg PUBLIC "-//W3C//DTD SVG 1.1//EN" "http://www.w3.org/Graphics/SVG/1.1/DTD/svg11.dtd">
<svg version="1.1" xmlns="http://www.w3.org/2000/svg" xmlns:xlink="http://www.w3.org/1999/xlink" x="0" y="0" width="200" height="200" viewBox="0, 0, 200, 200">
  <g id="Background">
    <rect x="0" y="0" width="200" height="200" fill="#000000" fill-opacity="0"/>
  </g>
  <g id="Background"/>
  <g id="Layer_1">
    <g>
      <path d="M75.667,115.359 C75.667,116.635 74.63,117.673 73.354,117.673 C72.077,117.673 71.041,116.635 71.041,115.359 L71.041,105.745 L59.631,105.745 L59.631,115.359 C59.631,116.635 58.594,117.673 57.317,117.673 C56.04,117.673 55.004,116.635 55.004,115.359 L55.004,92.502 C55.004,91.225 56.04,90.188 57.317,90.188 C58.594,90.188 59.631,91.225 59.631,92.502 L59.631,101.517 L71.041,101.517 L71.041,92.502 C71.041,91.225 72.077,90.188 73.354,90.188 C74.63,90.188 75.667,91.225 75.667,92.502 z" fill="#00AAD7"/>
      <path d="M83.683,106.224 L91.583,106.224 C91.583,104.268 90.465,102.355 87.872,102.355 C85.559,102.355 83.883,103.671 83.683,106.224 M87.872,98.684 C94.613,98.684 95.851,103.87 95.851,106.624 C95.851,108.098 95.851,109.814 93.417,109.814 L83.564,109.814 C83.564,112.686 85.599,114.002 88.231,114.002 C89.986,114.002 91.223,113.405 92.18,112.766 C92.62,112.486 92.939,112.326 93.457,112.326 C94.494,112.326 95.332,113.165 95.332,114.203 C95.332,114.84 95.013,115.359 94.654,115.678 C93.976,116.317 91.861,117.873 88.231,117.873 C82.687,117.873 79.256,114.88 79.256,108.218 C79.256,102.115 82.448,98.684 87.872,98.684" fill="#00AAD7"/>
      <path d="M102.951,101.077 L102.951,110.372 C102.951,112.208 103.589,113.962 106.542,113.962 C109.454,113.962 110.091,112.208 110.091,110.372 L110.091,101.077 C110.091,99.881 111.047,98.923 112.244,98.923 C113.442,98.923 114.399,99.881 114.399,101.077 L114.399,110.372 C114.399,114.281 112.924,117.873 106.542,117.873 C100.117,117.873 98.642,114.281 98.642,110.372 L98.642,101.077 C98.642,99.881 99.599,98.923 100.796,98.923 C101.994,98.923 102.951,99.881 102.951,101.077" fill="#00AAD7"/>
      <path d="M122.496,101.277 C123.255,99.722 125.128,98.725 126.805,98.725 C127.921,98.725 128.838,99.641 128.838,100.759 C128.838,101.876 127.921,102.793 126.805,102.793 C124.053,102.793 122.496,104.548 122.496,107.221 L122.496,115.518 C122.496,116.715 121.54,117.673 120.341,117.673 C119.145,117.673 118.188,116.715 118.188,115.518 L118.188,101.078 C118.188,99.881 119.145,98.924 120.341,98.924 C121.54,98.924 122.496,99.881 122.496,101.078 z" fill="#00AAD7"/>
      <path d="M134.342,106.224 L142.241,106.224 C142.241,104.268 141.124,102.355 138.532,102.355 C136.217,102.355 134.541,103.671 134.342,106.224 M138.532,98.684 C145.273,98.684 146.51,103.87 146.51,106.624 C146.51,108.098 146.51,109.814 144.076,109.814 L134.224,109.814 C134.224,112.686 136.257,114.002 138.891,114.002 C140.646,114.002 141.883,113.405 142.84,112.766 C143.279,112.486 143.598,112.326 144.117,112.326 C145.154,112.326 145.991,113.165 145.991,114.203 C145.991,114.84 145.671,115.359 145.313,115.678 C144.635,116.317 142.52,117.873 138.891,117.873 C133.345,117.873 129.915,114.88 129.915,108.218 C129.915,102.115 133.106,98.684 138.532,98.684" fill="#00AAD7"/>
      <path d="M161.23,116.835 L155.285,108.858 L154.009,109.854 L154.009,115.598 C154.009,116.794 153.051,117.673 151.855,117.673 C150.619,117.673 149.701,116.794 149.701,115.598 L149.701,91.026 C149.701,89.828 150.619,88.951 151.855,88.951 C153.051,88.951 154.009,89.828 154.009,91.026 L154.009,105.107 L161.23,99.443 C161.747,99.043 162.147,98.924 162.625,98.924 C163.781,98.924 164.699,99.841 164.699,100.998 C164.699,101.595 164.42,102.235 163.901,102.634 L158.676,106.624 L164.54,114.321 C164.859,114.761 164.979,115.2 164.979,115.598 C164.979,116.756 164.061,117.673 162.903,117.673 C162.147,117.673 161.588,117.314 161.23,116.835" fill="#00AAD7"/>
      <path d="M178.34,110.691 L178.34,109.574 L173.673,109.574 C171.919,109.574 170.961,110.412 170.961,111.849 C170.961,113.365 172.038,114.281 174.272,114.281 C176.386,114.281 178.34,112.925 178.34,110.691 M170.723,104.031 C170.322,104.309 170.004,104.43 169.526,104.43 C168.487,104.43 167.65,103.591 167.65,102.556 C167.65,102.115 167.809,101.637 168.168,101.238 C169.285,100.002 171.28,98.685 174.71,98.685 C179.657,98.685 182.609,101.118 182.609,105.346 L182.609,115.559 C182.609,116.715 181.651,117.673 180.495,117.673 C179.338,117.673 178.381,116.715 178.381,115.559 C177.303,117.274 175.548,117.873 173.154,117.873 C169.246,117.873 166.653,115.439 166.653,111.849 C166.653,108.139 169.644,106.224 173.115,106.224 L178.34,106.224 L178.34,105.505 C178.34,103.711 177.024,102.514 174.71,102.514 C172.955,102.514 171.719,103.311 170.723,104.031" fill="#00AAD7"/>
      <path d="M21.38,101.051 C21.38,95.44 25.944,90.876 31.555,90.876 C33.606,90.876 35.514,91.488 37.113,92.535 L31.262,101.931 L28.85,98.746 C28.489,98.269 27.937,97.995 27.339,97.995 C26.923,97.995 26.529,98.128 26.197,98.38 C25.364,99.01 25.199,100.199 25.83,101.033 L29.903,106.413 C30.261,106.883 30.824,107.164 31.414,107.164 C31.443,107.164 31.472,107.164 31.501,107.161 C32.125,107.132 32.693,106.8 33.022,106.27 L39.896,95.234 C41.051,96.883 41.73,98.889 41.73,101.051 C41.73,106.662 37.166,111.227 31.555,111.227 C25.944,111.227 21.38,106.662 21.38,101.051 M47.407,115.826 L42.089,110.507 L42.095,110.501 C44.347,107.993 45.719,104.679 45.719,101.051 C45.719,93.241 39.366,86.888 31.555,86.888 C23.745,86.888 17.391,93.241 17.391,101.051 C17.391,108.862 23.745,115.215 31.555,115.215 C33.96,115.215 36.221,114.603 38.206,113.541 L43.948,119.285 C44.903,120.239 46.453,120.239 47.408,119.285 C48.361,118.33 48.361,116.78 47.407,115.826" fill="#FF7B00"/>
    </g>
  </g>
</svg>
