<?xml version="1.0" encoding="utf-8"?>
<!-- Generator: Adobe Illustrator 16.0.3, SVG Export Plug-In . SVG Version: 6.00 Build 0)  -->
<!DOCTYPE svg PUBLIC "-//W3C//DTD SVG 1.1//EN" "http://www.w3.org/Graphics/SVG/1.1/DTD/svg11.dtd">
<svg version="1.1" id="Vrstva_1" xmlns="http://www.w3.org/2000/svg" xmlns:xlink="http://www.w3.org/1999/xlink" x="0px" y="0px"
	 width="200px" height="200px" viewBox="0 0 200 200" enable-background="new 0 0 200 200" xml:space="preserve">
<g id="Background_1_">
</g>
<g>
	<path fill="#0089CF" d="M25.526,130.917h50.781c3.053,0,5.528-2.474,5.528-5.526V74.609c0-3.052-2.475-5.526-5.528-5.526H25.526
		c-3.052,0-5.526,2.475-5.526,5.526v50.781C20,128.443,22.474,130.917,25.526,130.917z M65.377,120.757
		c0,0.665-0.544,1.208-1.208,1.208H37.665c-0.665,0-1.208-0.543-1.208-1.208v-2.416c0-0.666,0.543-1.209,1.208-1.209h26.503
		c0.664,0,1.208,0.543,1.208,1.209V120.757z M41.774,113.457v-2.416c0-0.665,0.544-1.208,1.208-1.208h15.868
		c0.665,0,1.208,0.543,1.208,1.208v2.416c0,0.665-0.543,1.21-1.208,1.21H42.983C42.318,114.667,41.774,114.122,41.774,113.457z
		 M71.394,123.736h-2.417c-0.663,0-1.204-0.539-1.207-1.201h-0.001c-0.011-9.02-7.333-14.083-15.682-19.032l4.808-2.741
		c3.247,2.005,6.368,4.156,8.944,6.664c4.544,4.427,6.757,9.367,6.763,15.104C72.602,123.193,72.059,123.736,71.394,123.736z
		 M36.457,78.768c0-0.664,0.544-1.208,1.208-1.208h26.503c0.664,0,1.208,0.544,1.208,1.208v2.418c0,0.664-0.544,1.207-1.208,1.207
		H37.665c-0.664,0-1.208-0.543-1.208-1.207V78.768z M60.059,86.067v2.416c0,0.665-0.543,1.21-1.208,1.21H42.983
		c-0.665,0-1.208-0.545-1.208-1.21v-2.416c0-0.664,0.544-1.209,1.208-1.209h15.868C59.515,84.858,60.059,85.403,60.059,86.067z
		 M29.231,77.466L29.231,77.466c0.004-0.662,0.545-1.203,1.208-1.203h2.417c0.665,0,1.208,0.544,1.208,1.209
		c-0.011,9.021,7.308,14.086,15.654,19.034l-4.721,2.795c-3.278-2.021-6.431-4.188-9.027-6.72c-4.541-4.427-6.745-9.369-6.74-15.109
		h0c0,0,0-0.001,0-0.002S29.231,77.467,29.231,77.466z M29.231,122.529c-0.005-5.74,2.199-10.683,6.739-15.108
		c3.824-3.729,8.852-6.67,13.716-9.513c9.292-5.433,18.071-10.564,18.083-20.442h0.001c0.003-0.662,0.544-1.203,1.208-1.203h2.417
		c0.664,0,1.208,0.544,1.208,1.209c-0.007,5.737-2.22,10.678-6.764,15.103c-3.826,3.726-8.852,6.665-13.713,9.506
		c-9.294,5.436-18.073,10.567-18.062,20.449c0,0.664-0.543,1.207-1.208,1.207h-2.417c-0.663,0-1.204-0.539-1.208-1.201h0
		C29.231,122.533,29.231,122.532,29.231,122.529C29.231,122.53,29.231,122.53,29.231,122.529L29.231,122.529z"/>
	<g>
		<path fill="#F04E26" d="M97.974,122.135c0,0.974-0.278,1.391-1.252,1.391h-4.245c-0.905,0-1.252-0.417-1.252-1.391v-44.53
			c0-0.973,0.347-1.391,1.252-1.391h4.245c0.974,0,1.252,0.418,1.252,1.391V122.135z"/>
		<path fill="#F04E26" d="M143.891,122.203c0,0.905-0.346,1.322-1.251,1.322h-4.105c-0.904,0-1.253-0.417-1.253-1.322V90.269
			c-0.138,0.348-1.042,3.549-1.67,5.147l-8.069,19.552c-0.348,0.904-0.905,1.392-1.739,1.392h-3.618
			c-0.905,0-1.322-0.557-1.669-1.392l-8.628-20.387c-0.696-1.53-1.253-3.965-1.322-4.174v31.796c0,0.905-0.349,1.322-1.252,1.322
			h-3.896c-0.905,0-1.252-0.417-1.252-1.322V77.536c0-0.904,0.347-1.322,1.252-1.322h3.896c0.624,0,0.973,0.278,1.183,0.764
			l12.036,27.971c0.486,1.183,1.391,3.896,1.461,4.175c0.069-0.278,1.044-2.922,1.531-4.105l11.827-28.178
			c0.21-0.487,0.558-0.626,1.183-0.626h4.105c0.905,0,1.251,0.418,1.251,1.322V122.203z"/>
		<path fill="#F04E26" d="M178.677,99.869c0.905,0,1.323,0.349,1.323,1.253v12.245c0,5.706-3.409,10.714-15.376,10.714
			c-11.968,0-15.376-5.008-15.376-10.714V86.372c0-5.706,3.408-10.715,15.376-10.715c11.967,0,15.376,5.009,15.376,10.715v3.061
			c0,0.904-0.348,1.322-1.253,1.322h-4.034c-0.975,0-1.323-0.418-1.323-1.322v-1.948c0-3.757-2.436-6.053-8.697-6.053
			s-8.627,2.296-8.627,6.053v24.77c0,3.758,2.365,6.053,8.627,6.053c6.193,0,8.697-2.227,8.697-5.982v-6.68h-8.28
			c-0.903,0-1.32-0.348-1.32-1.321v-3.201c0-0.904,0.417-1.253,1.32-1.253H178.677z"/>
	</g>
</g>
</svg>
