<?xml version="1.0" encoding="UTF-8"?>
<!DOCTYPE svg PUBLIC "-//W3C//DTD SVG 1.1//EN" "http://www.w3.org/Graphics/SVG/1.1/DTD/svg11.dtd">
<svg version="1.1" xmlns="http://www.w3.org/2000/svg" xmlns:xlink="http://www.w3.org/1999/xlink" x="0" y="0" width="200" height="200" viewBox="0, 0, 200, 200">
  <defs>
    <clipPath id="Clip_1">
      <path d="M150.987,101.341 L155.646,101.341 L155.646,106.808 L150.987,106.808 z"/>
    </clipPath>
    <clipPath id="Clip_2">
      <path d="M156.393,101.13 L162.768,101.13 L162.768,106.807 L156.393,106.807 z"/>
    </clipPath>
    <clipPath id="Clip_3">
      <path d="M164.091,101.13 L169.406,101.13 L169.406,107.018 L164.091,107.018 z"/>
    </clipPath>
    <clipPath id="Clip_4">
      <path d="M171.293,101.34 L176.348,101.34 L176.348,106.808 L171.293,106.808 z"/>
    </clipPath>
    <linearGradient id="Gradient_1" gradientUnits="userSpaceOnUse" x1="17.511" y1="-111.623" x2="40.748" y2="-88.386" gradientTransform="matrix(1, 0, 0, -1, 0, 0)">
      <stop offset="0" stop-color="#120658"/>
      <stop offset="0.25" stop-color="#120658"/>
      <stop offset="0.8" stop-color="#FF161F"/>
      <stop offset="1" stop-color="#FF161F"/>
    </linearGradient>
    <clipPath id="Clip_5">
      <path d="M39.963,112.403 L39.963,87.597 L29.128,98.075 L18.292,87.597 L18.292,112.403 L29.077,101.973 L29.076,101.973 L31.119,100.001 L31.117,99.999 L37.197,94.12 L37.197,105.88 L33.109,101.926 L31.115,103.848 L39.963,112.403 z M21.058,105.88 L21.058,94.12 L27.138,99.999 L21.058,105.88 z"/>
    </clipPath>
    <clipPath id="Clip_6">
      <path d="M143.395,112.2 L143.395,87.8 L142.705,87.8 L142.705,112.2 L143.395,112.2 z"/>
    </clipPath>
  </defs>
  <g id="Layer_1">
    <path d="M157.074,92.995 L157.074,98.673 L156.183,98.673 L156.183,95.694 L154.031,98.883 L151.876,95.694 L151.876,98.673 L150.987,98.673 L150.987,92.995 L154.031,97.4 z" fill="#120658"/>
    <g>
      <path d="M163.504,95.939 C163.504,94.852 162.637,93.972 161.568,93.972 C160.499,93.972 159.633,94.852 159.633,95.939 C159.633,97.024 160.499,97.906 161.568,97.906 C162.637,97.906 163.504,97.024 163.504,95.939 M164.434,95.939 C164.434,97.508 163.15,98.781 161.568,98.781 C159.984,98.781 158.701,97.508 158.701,95.939 C158.701,94.369 159.984,93.097 161.568,93.097 C163.15,93.097 164.434,94.369 164.434,95.939" fill="#120658"/>
      <path d="M170.493,96.963 L170.493,93.205 L171.382,93.205 L171.382,98.883 L166.953,94.913 L166.953,98.673 L166.066,98.673 L166.066,92.995 z" fill="#120658"/>
      <path d="M177.165,95.547 L177.165,96.33 L174.172,96.33 L174.172,97.866 L177.297,97.866 L177.297,98.672 L173.266,98.672 L173.266,93.205 L177.297,93.205 L177.297,94.027 L174.172,94.027 L174.172,95.547 z" fill="#120658"/>
      <path d="M180.571,98.672 L180.571,96.53 L178.335,93.205 L179.315,93.205 L181.023,95.733 L182.728,93.205 L183.708,93.205 L181.477,96.53 L181.477,98.672 z" fill="#120658"/>
      <g clip-path="url(#Clip_1)">
        <path d="M153.765,106.021 C154.349,106.021 154.716,105.653 154.716,105.199 C154.716,104.747 154.349,104.378 153.765,104.378 L151.893,104.378 L151.893,106.021 z M153.666,103.621 C154.205,103.621 154.536,103.289 154.536,102.881 C154.536,102.471 154.205,102.139 153.666,102.139 L151.893,102.139 L151.893,103.621 z M155.645,105.195 C155.645,106.085 154.921,106.808 153.904,106.808 L150.987,106.808 L150.987,101.341 L153.834,101.341 C154.802,101.341 155.442,101.965 155.442,102.766 C155.442,103.291 155.167,103.696 154.77,103.894 C155.293,104.089 155.645,104.544 155.645,105.195" fill="#120658"/>
      </g>
      <g clip-path="url(#Clip_2)">
        <path d="M158.496,104.812 L160.659,104.812 L159.577,102.854 z M157.39,106.807 L156.393,106.807 L159.581,101.13 L162.768,106.807 L161.768,106.807 L161.074,105.554 L158.082,105.554 z" fill="#120658"/>
      </g>
      <g clip-path="url(#Clip_3)">
        <path d="M168.519,105.098 L168.519,101.341 L169.407,101.341 L169.407,107.018 L164.98,103.05 L164.98,106.808 L164.092,106.808 L164.092,101.13 z" fill="#120658"/>
      </g>
      <g clip-path="url(#Clip_4)">
        <path d="M172.199,106.808 L171.293,106.808 L171.293,101.34 L172.199,101.34 L172.199,103.86 L174.969,101.34 L176.202,101.34 L173.8,103.531 L176.348,106.808 L175.229,106.808 L173.148,104.134 L172.199,104.995 z" fill="#120658"/>
      </g>
      <g clip-path="url(#Clip_5)">
        <path d="M29.128,98.075 L18.292,87.597 L18.292,112.403 L29.077,101.973 L29.076,101.973 L31.119,100.001 L31.117,99.999 L37.197,94.12 L37.197,105.88 L33.109,101.926 L31.115,103.848 L39.963,112.403 L39.963,87.597 z M21.058,94.12 L27.138,99.999 L21.058,105.88 z" fill="url(#Gradient_1)"/>
      </g>
      <path d="M64.856,92.682 L64.856,106.774 L62.106,106.774 L62.106,100.583 L57.143,107.319 L52.177,100.583 L52.177,106.774 L49.429,106.774 L49.429,92.682 L57.143,102.931 z" fill="#120658"/>
      <path d="M81.443,100.001 C81.443,103.91 78.218,107.082 74.242,107.082 C70.269,107.082 67.044,103.91 67.044,100.001 C67.044,96.092 70.269,92.92 74.242,92.92 C78.218,92.92 81.443,96.092 81.443,100.001 M78.55,100.001 C78.55,97.596 76.625,95.649 74.242,95.649 C71.863,95.649 69.935,97.596 69.935,100.001 C69.935,102.405 71.863,104.353 74.242,104.353 C76.625,104.353 78.55,102.405 78.55,100.001" fill="#120658"/>
      <path d="M93.928,101.601 L93.928,93.229 L96.677,93.229 L96.677,107.319 L85.993,98.404 L85.993,106.774 L83.243,106.774 L83.243,92.682 z" fill="#120658"/>
      <path d="M109.494,98.793 L109.494,101.209 L102.225,101.209 L102.225,104.294 L109.819,104.294 L109.819,106.774 L99.396,106.774 L99.396,93.229 L109.819,93.229 L109.819,95.757 L102.225,95.757 L102.225,98.793 z" fill="#120658"/>
      <path d="M118.283,95.757 L118.283,106.773 L115.454,106.773 L115.454,95.757 L111.375,95.757 L111.375,93.229 L124.9,93.229 L123.428,95.757 z" fill="#120658"/>
      <path d="M123.197,106.773 L120.08,106.773 L128.139,92.682 L136.201,106.773 L133.077,106.773 L131.612,104.178 L124.653,104.178 z M125.904,101.963 L130.348,101.963 L128.118,98.013 z" fill="#120658"/>
      <g clip-path="url(#Clip_6)">
        <path d="M142.705,112.2 L143.395,112.2 L143.395,87.8 L142.705,87.8 z" fill="#211350"/>
      </g>
    </g>
  </g>
</svg>
