<?xml version="1.0" encoding="utf-8"?>
<!-- Generator: Adobe Illustrator 16.0.3, SVG Export Plug-In . SVG Version: 6.00 Build 0)  -->
<!DOCTYPE svg PUBLIC "-//W3C//DTD SVG 1.1//EN" "http://www.w3.org/Graphics/SVG/1.1/DTD/svg11.dtd">
<svg version="1.1" id="Vrstva_1" xmlns="http://www.w3.org/2000/svg" xmlns:xlink="http://www.w3.org/1999/xlink" x="0px" y="0px"
	 width="200px" height="200px" viewBox="0 0 200 200" enable-background="new 0 0 200 200" xml:space="preserve">
<g id="Background_1_">
</g>
<g>
	<g>
		<path fill="#BD3632" d="M94.854,87.701v24.606h2.773v-10.723h13.325v-2.529H97.627v-8.788h14.906v-2.566H94.854z M118.237,112.307
			h2.776V87.701h-2.776V112.307z M145.516,87.701v19.715l-15.5-19.715h-2.599v24.606h2.707V92.128l15.884,20.178h2.214V87.701
			H145.516z M154.942,112.307h2.774V87.701h-2.774V112.307z M163.164,87.701v2.566h8.261v22.04h2.812v-22.04h8.264v-2.566H163.164z"
			/>
		<g>
			<path fill="#BD3632" d="M35.919,95.54c0-4.884-3.657-7.844-9.213-7.844H17.5v24.611h2.775v-8.68h5.976
				C31.491,103.627,35.919,100.881,35.919,95.54 M33.107,95.645c0,3.267-2.671,5.445-6.75,5.445h-6.082V90.266h6.223
				C30.471,90.266,33.107,92.093,33.107,95.645 M61.331,112.307l-7.559-10.055c3.866-0.703,6.681-3.095,6.681-7.206
				c0-4.428-3.482-7.351-8.895-7.351H40.978v24.611h2.78v-9.561h7.028l7.136,9.561H61.331z M57.639,95.149
				c0,3.202-2.637,5.098-6.327,5.098h-7.554v-9.98h7.59C55.318,90.266,57.639,92.093,57.639,95.149 M89.96,99.967
				c0-6.817-5.024-12.691-12.515-12.691c-7.486,0-12.582,5.943-12.582,12.764c0,6.816,5.025,12.685,12.516,12.685
				C84.864,112.725,89.96,106.789,89.96,99.967 M87.078,100.04c0,5.625-4.01,10.119-9.633,10.119c-5.624,0-9.7-4.566-9.7-10.191
				c0-5.624,4.009-10.122,9.634-10.122C83,89.845,87.078,94.412,87.078,100.04"/>
		</g>
	</g>
</g>
</svg>
