<?xml version="1.0" encoding="UTF-8"?>
<!DOCTYPE svg PUBLIC "-//W3C//DTD SVG 1.1//EN" "http://www.w3.org/Graphics/SVG/1.1/DTD/svg11.dtd">
<svg version="1.1" xmlns="http://www.w3.org/2000/svg" xmlns:xlink="http://www.w3.org/1999/xlink" x="0" y="0" width="200" height="200" viewBox="0, 0, 200, 200">
  <g id="Background">
    <rect x="0" y="0" width="200" height="200" fill="#FFFFFF"/>
  </g>
  <g id="Background">
    <path d="M67.11,97.72 L67.11,101.28 L69.38,101.28 L69.38,104.25 C69.18,104.35 68.59,104.45 67.9,104.45 C65.72,104.45 63.85,102.57 63.85,99.41 C63.85,95.95 66.32,94.47 68.2,94.47 C70.08,94.47 71.26,94.77 72.25,95.16 L73.14,91.5 C72.25,91.1 70.47,90.71 68.2,90.71 C62.66,90.71 59.1,93.77 59.1,99.71 C59.1,102.18 59.89,104.36 61.57,105.84 C63.15,107.32 64.54,108.11 67.8,108.11 C70.07,108.11 72.45,107.62 73.73,107.12 L73.73,97.73 C73.74,97.72 67.11,97.72 67.11,97.72 z M57.33,99.9 C57.33,99.8 57.33,99.7 57.33,99.6 L57.33,99.5 L57.33,99.5 L57.33,99.4 C57.33,98.81 57.33,98.21 57.43,97.62 L53.97,97.62 L53.97,94.46 L58.22,94.46 C58.62,93.57 59.11,92.78 59.7,92.09 L59.7,90.7 L49.42,90.7 L49.42,107.8 L53.97,107.8 L53.97,101.27 L57.43,101.27 C57.33,100.88 57.33,100.39 57.33,99.9" fill="#FFFFFF"/>
    <path d="M79.072,109.088 C79.072,110.404 78.62,111.496 77.714,112.361 C76.807,113.23 75.692,113.664 74.368,113.664 C72.451,113.664 70.921,112.929 69.777,111.461 L71.035,110.031 C72.055,111.184 73.137,111.76 74.282,111.76 C75.035,111.76 75.705,111.516 76.29,111.025 C76.877,110.533 77.17,109.916 77.17,109.174 C77.17,108.42 76.822,107.758 76.126,107.185 C75.783,106.899 75.106,106.499 74.095,105.983 C72.942,105.393 72.098,104.807 71.564,104.224 C70.84,103.443 70.477,102.508 70.477,101.422 C70.477,100.212 70.885,99.223 71.701,98.454 C72.515,97.687 73.529,97.303 74.739,97.303 C76.169,97.303 77.609,98.003 79.058,99.406 L77.771,100.736 C76.703,99.696 75.66,99.177 74.639,99.177 C74.02,99.177 73.471,99.382 72.994,99.792 C72.518,100.201 72.28,100.712 72.28,101.322 C72.28,102.35 73.271,103.381 75.254,104.411 C76.474,105.04 77.36,105.641 77.913,106.213 C78.686,107.014 79.072,107.972 79.072,109.088 z" fill="#A7C721"/>
    <path d="M94.999,113.263 L92.996,113.263 L92.996,105.841 C92.996,104.049 92.924,102.852 92.781,102.251 C92.285,100.183 90.979,99.148 88.864,99.148 C87.653,99.148 86.568,99.547 85.61,100.342 C84.652,101.139 84.02,102.133 83.715,103.323 C83.524,104.068 83.429,105.479 83.429,107.557 L83.429,113.263 L81.427,113.263 L81.427,91.698 L83.429,91.698 L83.429,100.493 C85.04,98.367 86.985,97.304 89.264,97.304 C90.399,97.304 91.421,97.591 92.332,98.169 C93.242,98.746 93.914,99.54 94.348,100.549 C94.782,101.56 95,103.13 95,105.255 L95,113.263 z" fill="#A7C721"/>
    <path d="M111.52,105.569 C111.52,103.853 110.936,102.374 109.768,101.13 C108.601,99.885 107.164,99.263 105.457,99.263 C103.75,99.263 102.313,99.885 101.145,101.13 C99.978,102.373 99.394,103.853 99.394,105.569 C99.394,106.675 99.655,107.71 100.18,108.674 C100.723,109.664 101.463,110.428 102.396,110.961 C103.331,111.496 104.35,111.761 105.456,111.761 C107.821,111.761 109.571,110.746 110.705,108.716 C111.248,107.743 111.52,106.694 111.52,105.569 z M113.551,105.527 C113.551,107.815 112.774,109.743 111.22,111.311 C109.665,112.88 107.744,113.664 105.456,113.664 C103.169,113.664 101.245,112.882 99.686,111.317 C98.127,109.756 97.347,107.823 97.347,105.526 C97.347,103.371 98.063,101.502 99.493,99.921 C101.066,98.176 103.054,97.304 105.456,97.304 C107.849,97.304 109.832,98.172 111.404,99.906 C112.835,101.489 113.551,103.363 113.551,105.527 z" fill="#A7C721"/>
    <path d="M130.288,105.511 C130.288,104.407 130.012,103.356 129.46,102.366 C128.906,101.375 128.156,100.604 127.207,100.057 C126.259,99.509 125.227,99.234 124.112,99.234 C122.339,99.234 120.868,99.844 119.7,101.065 C118.531,102.284 117.947,103.787 117.947,105.569 C117.947,108.049 118.973,109.86 121.023,111.003 C122.005,111.557 123.045,111.833 124.14,111.833 C125.246,111.833 126.276,111.547 127.228,110.975 C128.154,110.413 128.895,109.634 129.452,108.644 C130.01,107.652 130.288,106.609 130.288,105.511 z M132.304,105.442 C132.304,107.71 131.542,109.64 130.017,111.233 C128.471,112.853 126.576,113.664 124.325,113.664 C121.857,113.664 119.777,112.639 118.091,110.589 L118.091,118.954 L116.103,118.954 L116.103,97.704 L118.091,97.704 L118.091,100.565 C119.674,98.391 121.733,97.304 124.269,97.304 C126.51,97.304 128.409,98.101 129.966,99.693 C131.526,101.284 132.304,103.201 132.304,105.442 z" fill="#A7C721"/>
    <path d="M141.871,99.421 L138.696,99.421 L138.696,113.263 L136.68,113.263 L136.68,99.421 L133.948,99.421 L133.948,97.704 L136.68,97.704 L136.68,91.927 L138.696,91.927 L138.696,97.704 L141.871,97.704 z" fill="#6C963D"/>
    <path d="M156.762,103.91 C156.267,101.937 155.203,100.57 153.573,99.806 C152.733,99.415 151.852,99.22 150.928,99.22 C149.401,99.22 148.09,99.711 146.996,100.692 C146.194,101.409 145.588,102.482 145.178,103.911 L156.762,103.911 z M158.963,105.642 L144.979,105.642 C145.017,107.386 145.561,108.841 146.609,110.003 C147.715,111.222 149.126,111.833 150.842,111.833 C152.501,111.833 153.907,111.328 155.061,110.319 C155.585,109.861 156.153,109.121 156.762,108.101 L158.449,108.987 C157.402,111.038 155.948,112.421 154.088,113.134 C153.182,113.488 152.158,113.664 151.014,113.664 C148.678,113.664 146.745,112.891 145.214,111.347 C143.685,109.803 142.92,107.862 142.92,105.527 C142.92,103.554 143.526,101.794 144.736,100.249 C146.271,98.286 148.326,97.304 150.898,97.304 C153.55,97.304 155.667,98.309 157.249,100.32 C158.374,101.751 158.945,103.524 158.963,105.642 z" fill="#6C963D"/>
    <path d="M168.434,99.421 L165.259,99.421 L165.259,113.263 L163.243,113.263 L163.243,99.421 L160.513,99.421 L160.513,97.704 L163.243,97.704 L163.243,91.927 L165.259,91.927 L165.259,97.704 L168.434,97.704 z" fill="#6C963D"/>
    <path d="M31.566,97.474 L48.096,97.474 L48.096,114.005 L31.566,114.005 z" fill="#A7C721"/>
    <path d="M49.184,97.474 L65.715,97.474 L65.715,114.005 L49.184,114.005 z" fill="#14B1EF"/>
    <path d="M40.266,79.856 L56.797,79.856 L56.797,96.387 L40.266,96.387 z" fill="#F7A12B"/>
  </g>
</svg>
