<?xml version="1.0" encoding="UTF-8"?>
<!DOCTYPE svg PUBLIC "-//W3C//DTD SVG 1.1//EN" "http://www.w3.org/Graphics/SVG/1.1/DTD/svg11.dtd">
<svg version="1.1" xmlns="http://www.w3.org/2000/svg" xmlns:xlink="http://www.w3.org/1999/xlink" x="0" y="0" width="200" height="200" viewBox="0, 0, 200, 200">
  <g id="Background">
    <rect x="0" y="0" width="200" height="200" fill="#FFFFFF"/>
  </g>
  <defs>
    <linearGradient id="Gradient_1" gradientUnits="userSpaceOnUse" x1="170.711" y1="170.711" x2="29.289" y2="29.289">
      <stop offset="0" stop-color="#EC57E2"/>
      <stop offset="1" stop-color="#FFD302"/>
    </linearGradient>
  </defs>
  <g id="Layer_1">
    <path d="M0,0 L200,0 L200,200 L0,200 z" fill="url(#Gradient_1)"/>
  </g>
  <g id="Layer_1">
    <path d="M75.094,96.295 L125.952,113.472 C126.626,113.809 126.962,114.146 126.962,114.819 C126.962,115.493 126.626,116.167 125.952,116.167 L75.094,133.681 C74.421,134.017 73.41,133.681 73.074,132.67 C72.737,131.997 73.074,130.986 74.084,130.649 L120.563,114.819 L74.084,98.99 C73.41,98.653 72.737,97.979 73.074,96.969 C73.41,96.295 74.421,95.958 75.094,96.295 L75.094,96.295 z M125.952,69.351 L79.473,85.181 L125.952,101.01 C126.626,101.347 127.299,102.021 126.962,103.031 C126.626,103.705 125.952,104.378 124.942,104.042 L74.084,86.528 C73.41,86.191 73.074,85.854 73.074,85.181 C73.074,84.507 73.41,83.833 74.084,83.833 L124.942,66.319 C125.615,65.983 126.626,66.319 126.962,67.33 C127.299,68.003 126.626,69.014 125.952,69.351 L125.952,69.351 z" fill="#FFFFFF"/>
  </g>
</svg>
