<?xml version="1.0" encoding="utf-8"?>
<!-- Generator: Adobe Illustrator 16.0.3, SVG Export Plug-In . SVG Version: 6.00 Build 0)  -->
<!DOCTYPE svg PUBLIC "-//W3C//DTD SVG 1.1//EN" "http://www.w3.org/Graphics/SVG/1.1/DTD/svg11.dtd">
<svg version="1.1" id="Vrstva_1" xmlns="http://www.w3.org/2000/svg" xmlns:xlink="http://www.w3.org/1999/xlink" x="0px" y="0px"
	 width="500px" height="500px" viewBox="0 0 500 500" enable-background="new 0 0 500 500" xml:space="preserve">
<path fill="none" d="M0,0h500v500H0V0z"/>
<linearGradient id="SVGID_1_" gradientUnits="userSpaceOnUse" x1="503.0801" y1="-200.541" x2="822.3381" y2="118.717" gradientTransform="matrix(1 0 0 -1 -414.96 207.8398)">
	<stop  offset="0.39" style="stop-color:#005AF0"/>
	<stop  offset="1" style="stop-color:#04D4C2"/>
</linearGradient>
<path fill="url(#SVGID_1_)" d="M325.152,228.079L230.45,385.682h-17.157l16.961-102.692l-52.532,0.067c0,0-0.496,0.016-0.73,0.016
	c-4.727,0.002-8.561-3.828-8.563-8.555c0-0.004,0-0.007,0-0.01c0-2.031,1.889-5.471,1.889-5.471l94.393-157.415l17.443,0.075
	l-17.391,102.852l52.803-0.068c0,0,0.564-0.007,0.836-0.007c4.727-0.003,8.561,3.827,8.563,8.554c0,0.003,0,0.006,0,0.009
	c0,1.919-0.753,3.605-1.821,5.034L325.152,228.079L325.152,228.079z M247.75,23C123.068,23,22,124.076,22,248.75
	C22,373.432,123.068,474.5,247.75,474.5c124.674,0,225.75-101.068,225.75-225.75C473.5,124.076,372.424,23,247.75,23z"/>
</svg>
