<?xml version="1.0" encoding="utf-8"?>
<!-- Generator: Adobe Illustrator 16.0.3, SVG Export Plug-In . SVG Version: 6.00 Build 0)  -->
<!DOCTYPE svg PUBLIC "-//W3C//DTD SVG 1.1//EN" "http://www.w3.org/Graphics/SVG/1.1/DTD/svg11.dtd">
<svg version="1.1" id="Vrstva_1" xmlns="http://www.w3.org/2000/svg" xmlns:xlink="http://www.w3.org/1999/xlink" x="0px" y="0px"
	 width="595.28px" height="595.28px" viewBox="123.305 0 595.28 595.28" enable-background="new 123.305 0 595.28 595.28"
	 xml:space="preserve">
<path fill="#A36DF8" d="M607.931,25.846c49.289,0,89.246,39.153,89.246,87.449v368.692c0,48.295-39.957,87.446-89.246,87.446
	H233.958c-49.29,0-89.246-39.151-89.246-87.448v-368.69c0-48.296,39.958-87.448,89.246-87.448L607.931,25.846L607.931,25.846z
	 M420.467,129.505H286.042v336.728h148.61c46.205,0,80.625-7.97,103.262-23.906c22.635-15.939,33.953-40.146,33.953-72.623
	c0-21.201-5.271-39.094-15.813-53.678c-10.545-14.586-25.43-24.585-44.654-29.998c15.039-5.563,26.514-14.058,34.42-25.486
	c7.906-11.578,11.861-25.56,11.861-41.949c0-31.125-10.855-53.753-32.561-67.887c-21.551-14.133-56.438-21.2-104.656-21.2
	L420.467,129.505L420.467,129.505z M428.14,318.957c18.143,0,31.707,3.684,40.701,11.051c8.992,7.217,13.488,18.119,13.488,32.701
	c0,14.887-4.576,26.014-13.723,33.381c-8.992,7.367-22.482,11.051-40.469,11.051h-52.559v-88.184H428.14z M425.119,188.596
	c14.109,0,24.805,3.083,32.094,9.246c7.287,6.015,10.934,14.812,10.934,26.388c0,11.729-3.646,20.6-10.934,26.615
	c-7.289,6.015-17.982,9.023-32.094,9.023H375.58v-71.271L425.119,188.596L425.119,188.596L425.119,188.596z"/>
</svg>
