<?xml version="1.0" encoding="utf-8"?>
<!-- Generator: Adobe Illustrator 16.0.3, SVG Export Plug-In . SVG Version: 6.00 Build 0)  -->
<!DOCTYPE svg PUBLIC "-//W3C//DTD SVG 1.1//EN" "http://www.w3.org/Graphics/SVG/1.1/DTD/svg11.dtd">
<svg version="1.1" id="Vrstva_1" xmlns="http://www.w3.org/2000/svg" xmlns:xlink="http://www.w3.org/1999/xlink" x="0px" y="0px"
	 width="595.28px" height="595.281px" viewBox="123.305 0 595.28 595.281" enable-background="new 123.305 0 595.28 595.281"
	 xml:space="preserve">
<linearGradient id="SVGID_1_" gradientUnits="userSpaceOnUse" x1="835.9058" y1="-266.6421" x2="835.9058" y2="277.604" gradientTransform="matrix(1 0 0 -1 -414.96 303.1211)">
	<stop  offset="0.005" style="stop-color:#999999"/>
	<stop  offset="1" style="stop-color:#B3B3B3"/>
</linearGradient>
<path fill="url(#SVGID_1_)" d="M625.431,43.68c-12.117-12.11-26.668-18.163-43.678-18.163H260.13
	c-17.009,0-31.565,6.053-43.683,18.163c-12.109,12.118-18.162,26.676-18.162,43.685v420.56c0,17.009,6.053,31.563,18.162,43.677
	c12.117,12.118,26.674,18.162,43.683,18.162h321.624c17.01,0,31.561-6.044,43.678-18.162c12.117-12.113,18.174-26.672,18.174-43.677
	V87.365C643.605,70.356,637.527,55.795,625.431,43.68z M438.339,537.686c-4.887,4.898-10.691,7.343-17.397,7.343
	c-6.703,0-12.499-2.443-17.397-7.343c-4.893-4.898-7.34-10.697-7.34-17.39c0-6.699,2.447-12.512,7.34-17.394
	c4.898-4.898,10.698-7.359,17.397-7.359c6.706,0,12.507,2.456,17.397,7.359c4.896,4.882,7.355,10.693,7.355,17.394
	C445.695,526.988,443.236,532.779,438.339,537.686z"/>
<g>
	<defs>
		<path id="SVGID_2_" d="M594.125,458.44c0,3.355-1.23,6.247-3.672,8.702c-2.451,2.456-5.344,3.675-8.699,3.675H260.137
			c-3.352,0-6.252-1.228-8.699-3.675c-2.445-2.446-3.669-5.347-3.669-8.702V87.365c0-3.353,1.224-6.252,3.669-8.695
			c2.447-2.451,5.348-3.673,8.699-3.673h321.616c3.354,0,6.246,1.213,8.699,3.673c2.447,2.443,3.67,5.343,3.67,8.695V458.44H594.125
			z"/>
	</defs>
	<clipPath id="SVGID_3_">
		<use xlink:href="#SVGID_2_"  overflow="visible"/>
	</clipPath>
	
		<radialGradient id="SVGID_4_" cx="835.9019" cy="28.2178" r="252.9587" gradientTransform="matrix(1 0 0 -1 -414.96 303.1211)" gradientUnits="userSpaceOnUse">
		<stop  offset="0" style="stop-color:#35361E"/>
		<stop  offset="0.693" style="stop-color:#323220"/>
		<stop  offset="1" style="stop-color:#2E2E22"/>
	</radialGradient>
	<path clip-path="url(#SVGID_3_)" fill="url(#SVGID_4_)" d="M606.005,473.186c0,3.587-1.314,6.675-3.922,9.3
		c-2.623,2.622-5.709,3.92-9.297,3.92H249.098c-3.583,0-6.678-1.309-9.299-3.92c-2.613-2.615-3.922-5.713-3.922-9.3V76.622
		c0-3.579,1.309-6.676,3.922-9.292c2.621-2.619,5.716-3.928,9.299-3.928h343.688c3.588,0,6.674,1.306,9.297,3.928
		c2.617,2.616,3.922,5.713,3.922,9.292V473.186z"/>
</g>
<g>
	<defs>
		<path id="SVGID_5_" d="M594.125,458.44c0,3.355-1.23,6.247-3.672,8.702c-2.451,2.456-5.344,3.675-8.699,3.675H260.137
			c-3.352,0-6.252-1.228-8.699-3.675c-2.445-2.446-3.669-5.347-3.669-8.702V87.365c0-3.353,1.224-6.252,3.669-8.695
			c2.447-2.451,5.348-3.673,8.699-3.673h321.616c3.354,0,6.246,1.213,8.699,3.673c2.447,2.443,3.67,5.343,3.67,8.695V458.44H594.125
			z"/>
	</defs>
	<clipPath id="SVGID_6_">
		<use xlink:href="#SVGID_5_"  overflow="visible"/>
	</clipPath>
	<path clip-path="url(#SVGID_6_)" fill="#0084A3" d="M420.942,416.075l97.931,30.763l97.924,30.763H225.09l97.928-30.763
		L420.942,416.075z"/>
</g>
<g>
	<defs>
		<path id="SVGID_7_" d="M594.125,458.44c0,3.355-1.23,6.247-3.672,8.702c-2.451,2.456-5.344,3.675-8.699,3.675H260.137
			c-3.352,0-6.252-1.228-8.699-3.675c-2.445-2.446-3.669-5.347-3.669-8.702V87.365c0-3.353,1.224-6.252,3.669-8.695
			c2.447-2.451,5.348-3.673,8.699-3.673h321.616c3.354,0,6.246,1.213,8.699,3.673c2.447,2.443,3.67,5.343,3.67,8.695V458.44H594.125
			z"/>
	</defs>
	<clipPath id="SVGID_8_">
		<use xlink:href="#SVGID_7_"  overflow="visible"/>
	</clipPath>
	<path clip-path="url(#SVGID_8_)" fill="#FFFFFF" d="M542.847,238.417c-1.199,0.736-2.658,0.922-4.004,0.511
		c0,0-32.91-7.194-36.129-10.41l-14.801-14.807l-48.9,48.904l68.637,68.639c4.09,4.092,4.09,10.72,0,14.807l-1.852,1.853
		l-1.852,1.854c-4.092,4.089-10.721,4.089-14.811,0l-68.635-68.643l-66.635,66.64c-4.084,4.089-10.709,4.093-14.798,0.009
		c-0.003-0.003-0.006-0.006-0.009-0.009l-1.852-1.854l-1.852-1.853c-4.089-4.088-4.089-10.715,0-14.803l66.633-66.64l-49.768-49.771
		c-7.932,8.585-15.398,17.588-22.366,26.972c-1.048,1.422-3.043,1.74-4.482,0.715l-25.854-18.78
		c-0.692-0.573-1.13-1.396-1.218-2.291c-0.091-0.896,0.185-1.791,0.764-2.481c8.085-10.901,16.773-21.342,26.022-31.274
		l-2.532-2.532c-2.045-2.038-2.051-5.347-0.013-7.392c0.004-0.004,0.009-0.008,0.013-0.013l5.55-5.554l5.55-5.55
		c0.902-0.639,1.482-1.15,2.59-1.281c2.113,0.131,1.084,0.093,3.083,0.131l1.731,1.15l2.537,2.531
		c9.917-9.232,20.342-17.905,31.225-25.978c0.693-0.572,1.585-0.846,2.48-0.762c0.896,0.087,1.719,0.526,2.289,1.222
		c6.267,8.619,12.524,17.233,18.78,25.852c1.032,1.436,0.714,3.435-0.712,4.48c-9.368,6.958-18.356,14.412-26.926,22.331
		l49.768,49.767l48.901-48.909l-21.236-21.235c-1.387-1.377-1.395-3.618-0.018-5.005c0.006-0.006,0.012-0.011,0.018-0.017
		l25.104-25.104c1.391-1.378,3.631-1.378,5.02,0l21.236,21.236l2.416-2.414c2.725-2.747,5.178-2.046,7.408,0l5.549,5.555l5.553,5.55
		c2.043,2.044,2.047,5.356,0.008,7.405l-0.24,0.241l-2.182,2.177l14.801,14.798c3.889,3.897,10.518,36.021,10.518,36.021
		C543.769,235.753,543.585,237.215,542.847,238.417"/>
</g>
</svg>
