<?xml version="1.0" encoding="utf-8"?>
<!-- Generator: Adobe Illustrator 16.0.3, SVG Export Plug-In . SVG Version: 6.00 Build 0)  -->
<!DOCTYPE svg PUBLIC "-//W3C//DTD SVG 1.1//EN" "http://www.w3.org/Graphics/SVG/1.1/DTD/svg11.dtd">
<svg version="1.1" id="Vrstva_1" xmlns="http://www.w3.org/2000/svg" xmlns:xlink="http://www.w3.org/1999/xlink" x="0px" y="0px"
	 width="595.28px" height="595.281px" viewBox="123.305 0 595.28 595.281" enable-background="new 123.305 0 595.28 595.281"
	 xml:space="preserve">
<path fill="#CFCE7A" d="M257.554,303.115h326.789v177.317H257.554V303.115z M638.802,524.757V258.782H203.087v265.975h190.629
	v22.168h-81.7v22.164h217.86v-22.164h-81.701v-22.168H638.802L638.802,524.757z"/>
<path d="M360.243,153.428v65.628h77.702v-65.628H360.243L360.243,153.428z M344.147,186.246c0,3.126,2.463,5.667,5.493,5.667
	c3.038,0,5.501-2.542,5.501-5.667c0-3.139-2.463-5.674-5.501-5.674C346.61,180.572,344.147,183.107,344.147,186.246z
	 M452.072,153.428v65.628c0,4.01-3.18,7.291-7.064,7.291H346.11c-3.884,0-7.057-3.281-7.057-7.291v-65.628
	c0-4.009,3.173-7.291,7.057-7.291h98.897C448.892,146.138,452.072,149.419,452.072,153.428L452.072,153.428z M227.829,153.428
	v65.628h77.701v-65.628H227.829L227.829,153.428z M211.738,186.246c0,3.126,2.458,5.667,5.489,5.667
	c3.035,0,5.501-2.542,5.501-5.667c0-3.139-2.466-5.674-5.495-5.674C214.196,180.572,211.738,183.107,211.738,186.246
	L211.738,186.246z M319.657,153.428v65.628c0,4.01-3.18,7.291-7.063,7.291h-98.892c-3.884,0-7.063-3.281-7.063-7.291v-65.628
	c0-4.009,3.18-7.291,7.063-7.291h98.887C316.477,146.138,319.657,149.419,319.657,153.428z M330.765,36.625v83.484h101.088V36.625
	H330.765z M300.441,78.368c0,5.763,4.522,10.434,10.107,10.434c5.583,0,10.112-4.67,10.112-10.434c0-5.768-4.529-10.44-10.112-10.44
	c-5.585,0-10.111,4.672-10.111,10.44H300.441z M444.49,99.241V57.494h-5.053v41.742h5.053V99.241z M452.072,41.846v73.043
	c0,8.609-6.824,15.654-15.166,15.654H305.495c-8.34,0-15.165-7.045-15.165-15.654V41.846c0-8.613,6.825-15.654,15.165-15.654
	h131.411C445.248,26.192,452.072,33.232,452.072,41.846L452.072,41.846z M610.138,51.212H501.074v150.121h109.064V51.212z
	 M555.605,32.444c-3.346,0-6.061,2.804-6.061,6.258c0,3.453,2.715,6.251,6.061,6.251c3.342,0,6.057-2.802,6.057-6.251
	c0-3.454-2.715-6.252-6.057-6.252V32.444z M616.193,226.347h-121.18c-9.994,0-18.178-8.441-18.178-18.762V44.954
	c0-10.319,8.178-18.762,18.178-18.762h121.18c9.998,0,18.178,8.443,18.178,18.762v162.631
	C634.371,217.906,626.191,226.347,616.193,226.347L616.193,226.347z"/>
</svg>
