<?xml version="1.0" encoding="UTF-8"?>
<!DOCTYPE svg PUBLIC "-//W3C//DTD SVG 1.1//EN" "http://www.w3.org/Graphics/SVG/1.1/DTD/svg11.dtd">
<svg version="1.1" xmlns="http://www.w3.org/2000/svg" xmlns:xlink="http://www.w3.org/1999/xlink" x="0" y="0" width="500" height="500" viewBox="0, 0, 500, 500">
  <g id="Box_Semitransparent">
    <g id="Box_-_semitransparent" opacity="0.15">
      <path d="M254.055,298.111 L22,207.318 L22,106.786 L254.055,16 L486.109,106.786 L486.109,207.318 L254.055,298.111 z M52.085,187.897 L254.055,266.923 L456.024,187.905 L456.024,126.206 L254.055,47.188 L52.085,126.206 L52.085,187.897 z" fill="#2E2C09"/>
      <path d="M254.055,484 L37.577,399.307 L37.577,207.737 L67.662,207.737 L67.662,379.887 L254.055,452.812 L440.448,379.887 L440.448,207.737 L470.533,207.737 L470.533,399.307 z" fill="#2E2C09"/>
      <path d="M254.055,213.101 L32.786,126.517 L41.307,106.468 L254.055,189.702 L466.802,106.468 L475.324,126.517 z" fill="#2E2C09"/>
      <path d="M242.773,201.405 L265.337,201.405 L265.337,282.517 L242.773,282.517 z" fill="#2E2C09"/>
      <path d="M242.773,288.04 L265.337,288.04 L265.337,469.417 L242.773,469.417 z" fill="#2E2C09"/>
    </g>
  </g>
  <g id="Rychlost">
    <path d="M250.333,141 C174.116,141 112.333,202.783 112.333,279 C112.333,304.171 119.178,327.686 130.949,348 L369.717,348 C381.489,327.686 388.333,304.171 388.333,279 C388.333,202.783 326.551,141 250.333,141 z M317.015,217.659 L275.008,280.67 C276.816,284.341 277.933,288.425 277.933,292.8 C277.933,308.049 265.582,320.4 250.333,320.4 C235.084,320.4 222.733,308.049 222.733,292.8 C222.733,277.551 235.084,265.2 250.333,265.2 C250.913,265.2 251.465,265.338 252.031,265.366 L294.052,202.341 C298.275,195.993 306.844,194.282 313.192,198.518 C319.527,202.755 321.238,211.311 317.015,217.659 z" fill="#F87049"/>
  </g>
</svg>
