<?xml version="1.0" encoding="utf-8"?>
<!-- Generator: Adobe Illustrator 16.0.3, SVG Export Plug-In . SVG Version: 6.00 Build 0)  -->
<!DOCTYPE svg PUBLIC "-//W3C//DTD SVG 1.1//EN" "http://www.w3.org/Graphics/SVG/1.1/DTD/svg11.dtd">
<svg version="1.1" id="Vrstva_1" xmlns="http://www.w3.org/2000/svg" xmlns:xlink="http://www.w3.org/1999/xlink" x="0px" y="0px"
	 width="595.28px" height="595.281px" viewBox="123.305 0 595.28 595.281" enable-background="new 123.305 0 595.28 595.281"
	 xml:space="preserve">
<path fill="#EDA921" d="M678.164,262.447c-19.439-19.437-50.951-19.437-70.389,0H505.912l72.029-72.029
	c27.484,0,49.77-22.284,49.77-49.772s-22.283-49.771-49.77-49.771c-27.49,0-49.773,22.282-49.773,49.771l-72.027,72.027V110.812
	c19.436-19.438,19.436-50.951,0-70.389c-19.438-19.437-50.951-19.437-70.387,0c-19.437,19.438-19.437,50.95,0,70.389v101.862
	l-72.029-72.028c0-27.488-22.284-49.771-49.771-49.771c-27.488,0-49.771,22.282-49.771,49.771s22.282,49.772,49.771,49.772
	l72.029,72.029H234.116c-19.437-19.437-50.949-19.437-70.387,0c-19.437,19.437-19.437,50.951,0,70.388
	c19.438,19.435,50.95,19.435,70.387,0H335.98l-72.029,72.029c-27.488,0-49.771,22.282-49.771,49.77
	c0,27.49,22.282,49.771,49.771,49.771c27.488,0,49.771-22.28,49.771-49.771l72.029-72.026v101.861
	c-19.437,19.438-19.437,50.951,0,70.39c19.437,19.438,50.952,19.438,70.387,0c19.436-19.438,19.436-50.951,0-70.39V382.607
	l72.027,72.025c0,27.49,22.283,49.771,49.773,49.771c27.484,0,49.77-22.28,49.77-49.771c0-27.485-22.283-49.77-49.77-49.77
	l-72.029-72.029h101.863c19.438,19.435,50.949,19.435,70.389,0C697.597,313.397,697.597,281.883,678.164,262.447L678.164,262.447z"
	/>
</svg>
