<?xml version="1.0" encoding="UTF-8"?>
<!DOCTYPE svg PUBLIC "-//W3C//DTD SVG 1.1//EN" "http://www.w3.org/Graphics/SVG/1.1/DTD/svg11.dtd">
<svg version="1.1" xmlns="http://www.w3.org/2000/svg" xmlns:xlink="http://www.w3.org/1999/xlink" x="0" y="0" width="500" height="500" viewBox="0, 0, 500, 500">
  <g id="Grid">
    <path d="M250,464.5 C131.535,464.5 35.5,368.465 35.5,250 C35.5,131.535 131.535,35.5 250,35.5 C368.465,35.5 464.5,131.535 464.5,250 C464.5,368.465 368.465,464.5 250,464.5 z M114.436,144.895 C95.532,169.143 83.527,198.045 79.687,228.55 L99.85,228.55 C111.697,228.55 121.3,238.153 121.3,250 C121.3,261.846 111.697,271.45 99.85,271.45 L79.687,271.45 C83.019,298.371 92.726,324.108 108.001,346.525 C141.659,316.768 183.841,298.379 228.55,293.973 L228.55,185.65 C228.55,173.803 238.153,164.2 250,164.2 C261.846,164.2 271.45,173.803 271.45,185.65 L271.45,293.973 C316.159,298.379 358.341,316.768 391.999,346.525 C407.274,324.108 416.981,298.371 420.313,271.45 L400.15,271.45 C388.303,271.45 378.7,261.846 378.7,250 C378.7,238.153 388.303,228.55 400.15,228.55 L420.313,228.55 C416.473,198.045 404.468,169.143 385.564,144.895 L371.407,159.052 C362.996,167.463 349.359,167.463 340.948,159.052 C332.537,150.641 332.537,137.004 340.948,128.593 L355.319,114.436 C331.011,95.497 302.03,83.489 271.45,79.687 L271.45,99.85 C271.45,111.697 261.846,121.3 250,121.3 C238.153,121.3 228.55,111.697 228.55,99.85 L228.55,79.687 C197.233,83.548 168.49,95.989 144.895,114.436 L159.052,128.593 C167.463,137.004 167.463,150.641 159.052,159.052 C150.641,167.463 137.004,167.463 128.593,159.052 L114.436,144.68 z M136.529,378.7 C201.269,436.15 298.731,436.15 363.47,378.7 C298.731,321.25 201.269,321.25 136.529,378.7 z" fill="#2F80ED"/>
  </g>
</svg>
