<?xml version="1.0" encoding="UTF-8"?>
<!DOCTYPE svg PUBLIC "-//W3C//DTD SVG 1.1//EN" "http://www.w3.org/Graphics/SVG/1.1/DTD/svg11.dtd">
<svg version="1.1" xmlns="http://www.w3.org/2000/svg" xmlns:xlink="http://www.w3.org/1999/xlink" x="0" y="0" width="500" height="500" viewBox="0, 0, 500, 500">
  <g id="Rychlost_SVG">
    <g id="Layer_1">
      <path d="M91.712,164.918 C82.97,156.175 68.795,156.175 60.053,164.918 C51.31,173.66 51.31,187.835 60.053,196.578 C68.795,205.32 82.97,205.32 91.712,196.578 L259.783,196.578 C268.526,205.32 282.7,205.32 291.443,196.578 C300.186,187.835 300.186,173.66 291.443,164.918 C282.7,156.175 268.526,156.175 259.783,164.918 z" fill="#2E2C09"/>
      <path d="M92.212,165.418 C83.47,156.675 69.295,156.675 60.553,165.418 C51.81,174.16 51.81,188.335 60.553,197.078 C69.295,205.82 83.47,205.82 92.212,197.078 L260.283,197.078 C269.026,205.82 283.2,205.82 291.943,197.078 C300.686,188.335 300.686,174.16 291.943,165.418 C283.2,156.675 269.026,156.675 260.283,165.418 z" fill-opacity="0" stroke="#2E2C09" stroke-width="73.362"/>
      <path d="M127.519,110.132 C127.519,97.768 117.496,87.745 105.132,87.745 C92.768,87.745 82.745,97.768 82.745,110.132 C82.745,122.496 92.768,132.519 105.132,132.519 L223.976,251.363 C223.976,263.727 233.999,273.75 246.363,273.75 C258.727,273.75 268.75,263.727 268.75,251.363 C268.75,238.999 258.727,228.976 246.363,228.976 z" fill="#2E2C09"/>
      <path d="M128.019,110.632 C128.019,98.268 117.996,88.245 105.632,88.245 C93.268,88.245 83.245,98.268 83.245,110.632 C83.245,122.996 93.268,133.019 105.632,133.019 L224.476,251.863 C224.476,264.227 234.499,274.25 246.863,274.25 C259.227,274.25 269.25,264.227 269.25,251.863 C269.25,239.499 259.227,229.476 246.863,229.476 z" fill-opacity="0" stroke="#2E2C09" stroke-width="73.362"/>
      <path d="M191.578,96.712 C200.32,87.97 200.32,73.795 191.578,65.053 C182.835,56.31 168.66,56.31 159.918,65.053 C151.175,73.795 151.175,87.97 159.918,96.712 L159.918,264.783 C151.175,273.526 151.175,287.7 159.918,296.443 C168.66,305.186 182.835,305.186 191.578,296.443 C200.32,287.7 200.32,273.526 191.578,264.783 z" fill="#2E2C09"/>
      <path d="M192.078,97.212 C200.82,88.47 200.82,74.295 192.078,65.553 C183.335,56.81 169.16,56.81 160.418,65.553 C151.675,74.295 151.675,88.47 160.418,97.212 L160.418,265.283 C151.675,274.026 151.675,288.2 160.418,296.943 C169.16,305.686 183.335,305.686 192.078,296.943 C200.82,288.2 200.82,274.026 192.078,265.283 z" fill-opacity="0" stroke="#2E2C09" stroke-width="73.362"/>
      <path d="M246.363,132.519 C258.727,132.519 268.75,122.496 268.75,110.132 C268.75,97.768 258.727,87.745 246.363,87.745 C233.999,87.745 223.976,97.768 223.976,110.132 L105.132,228.976 C92.768,228.976 82.745,238.999 82.745,251.363 C82.745,263.727 92.768,273.75 105.132,273.75 C117.496,273.75 127.519,263.727 127.519,251.363 z" fill="#2E2C09"/>
      <path d="M246.863,133.019 C259.227,133.019 269.25,122.996 269.25,110.632 C269.25,98.268 259.227,88.245 246.863,88.245 C234.499,88.245 224.476,98.268 224.476,110.632 L105.632,229.476 C93.268,229.476 83.245,239.499 83.245,251.863 C83.245,264.227 93.268,274.25 105.632,274.25 C117.996,274.25 128.019,264.227 128.019,251.863 z" fill-opacity="0" stroke="#2E2C09" stroke-width="73.362"/>
      <g>
        <path d="M89.632,162.837 C80.889,154.095 66.715,154.095 57.972,162.837 C49.229,171.58 49.229,185.755 57.972,194.497 C66.715,203.24 80.889,203.24 89.632,194.497 L257.703,194.497 C266.445,203.24 280.62,203.24 289.363,194.497 C298.105,185.755 298.105,171.58 289.363,162.837 C280.62,154.095 266.445,154.095 257.703,162.837 z" fill="#FFFFFF"/>
        <path d="M125.439,108.052 C125.439,95.688 115.416,85.665 103.052,85.665 C90.688,85.665 80.665,95.688 80.665,108.052 C80.665,120.416 90.688,130.439 103.052,130.439 L221.896,249.283 C221.896,261.647 231.919,271.67 244.283,271.67 C256.647,271.67 266.67,261.647 266.67,249.283 C266.67,236.919 256.647,226.896 244.283,226.896 z" fill="#FFFFFF"/>
        <path d="M189.497,94.632 C198.24,85.889 198.24,71.715 189.497,62.972 C180.755,54.229 166.58,54.229 157.837,62.972 C149.095,71.715 149.095,85.889 157.837,94.632 L157.837,262.703 C149.095,271.445 149.095,285.62 157.837,294.363 C166.58,303.105 180.755,303.105 189.497,294.363 C198.24,285.62 198.24,271.445 189.497,262.703 z" fill="#FFFFFF"/>
        <path d="M244.283,130.439 C256.647,130.439 266.67,120.416 266.67,108.052 C266.67,95.688 256.647,85.665 244.283,85.665 C231.919,85.665 221.896,95.688 221.896,108.052 L103.052,226.896 C90.688,226.896 80.665,236.919 80.665,249.283 C80.665,261.647 90.688,271.67 103.052,271.67 C115.416,271.67 125.439,261.647 125.439,249.283 z" fill="#FFFFFF"/>
      </g>
    </g>
    <path d="M295.667,210 C197.725,210 118.333,289.392 118.333,387.333 C118.333,419.679 127.129,449.897 142.256,476 L449.078,476 C464.204,449.897 473,419.679 473,387.333 C473,289.392 393.608,210 295.667,210 z M381.354,308.509 L327.374,389.479 C329.697,394.196 331.133,399.445 331.133,405.067 C331.133,424.662 315.262,440.533 295.667,440.533 C276.071,440.533 260.2,424.662 260.2,405.067 C260.2,385.471 276.071,369.6 295.667,369.6 C296.411,369.6 297.121,369.777 297.848,369.813 L351.846,288.825 C357.272,280.667 368.285,278.468 376.442,283.913 C384.582,289.357 386.781,300.351 381.354,308.509 z" fill="#F87049"/>
  </g>
</svg>
