<?xml version="1.0" encoding="utf-8"?>
<!DOCTYPE svg PUBLIC "-//W3C//DTD SVG 1.1//EN" "http://www.w3.org/Graphics/SVG/1.1/DTD/svg11.dtd">
<svg version="1.1" id="Vrstva_1" xmlns="http://www.w3.org/2000/svg" xmlns:xlink="http://www.w3.org/1999/xlink" x="0px" y="0px"
	 width="500px" height="500px" viewBox="0 0 500 500" enable-background="new 0 0 500 500" xml:space="preserve">
<g>
	<path fill="#2E2C09" d="M260.414,30.337l70.132,57.823h-50.34l-30.208-24.904L219.793,88.16h-50.341l70.376-58.024
		C245.925,25.121,254.622,25.366,260.414,30.337z M260.395,265.237l41.704,34.616l117.038-97.146l-40.565-33.446v-41.504
		l74.844,61.707l21.457,16.965c0.084,1.063,0.127,2.136,0.127,3.219V432.76c0,11.203-4.593,21.398-11.971,28.776
		c-7.379,7.378-17.574,11.973-28.778,11.973H65.749c-11.208,0-21.407-4.587-28.787-11.967C29.589,454.17,25,443.982,25,432.76
		V209.647c0-1.081,0.045-2.156,0.128-3.219l21.454-16.965l74.842-61.707v41.504L80.86,202.707l117.038,97.146l-2.303,1.911
		l44.171-36.663C245.849,260.041,254.58,260.258,260.395,265.237z M442.859,224.613l-115.701,96.038l-5.643-4.681l121.344,100.717
		V224.613L442.859,224.613z M422.478,441.368l-172.48-143.162L77.519,441.368H422.478L422.478,441.368z M57.14,416.685
		l115.701-96.034L57.14,224.614V416.685z"/>
	<path fill="#59AC71" d="M121.425,80.121h265.185v149.584l-16.074,13.342V96.195H129.462v146.852l-16.074-13.342V80.121H121.425z"/>
	<path fill="#59AC71" d="M169.649,125.392h160.703c4.425,0,8.035,3.611,8.035,8.036c0,4.424-3.61,8.034-8.035,8.034H169.649
		c-4.425,0-8.036-3.61-8.036-8.034C161.613,129.004,165.223,125.392,169.649,125.392L169.649,125.392z M169.649,157.925h160.703
		c4.425,0,8.035,3.61,8.035,8.035s-3.61,8.034-8.035,8.034H169.649c-4.425,0-8.036-3.609-8.036-8.034
		S165.223,157.925,169.649,157.925z M169.649,190.456h160.703c4.425,0,8.035,3.61,8.035,8.035s-3.61,8.035-8.035,8.035H169.649
		c-4.425,0-8.036-3.61-8.036-8.035S165.223,190.456,169.649,190.456z M169.649,222.987h160.703c4.425,0,8.035,3.61,8.035,8.035
		s-3.61,8.035-8.035,8.035H169.649c-4.425,0-8.036-3.61-8.036-8.035S165.223,222.987,169.649,222.987z"/>
</g>
</svg>
