<?xml version="1.0" encoding="UTF-8"?>
<!DOCTYPE svg PUBLIC "-//W3C//DTD SVG 1.1//EN" "http://www.w3.org/Graphics/SVG/1.1/DTD/svg11.dtd">
<svg version="1.1" xmlns="http://www.w3.org/2000/svg" xmlns:xlink="http://www.w3.org/1999/xlink" x="0" y="0" width="500" height="500" viewBox="0, 0, 500, 500">
  <g id="Javascript_Nástroje">
    <path d="M304.899,349.532 C301.779,360.295 296.788,368.094 291.172,374.334 L291.172,319.583 C291.172,315.839 287.897,312.72 282.749,312.72 C280.565,312.72 278.693,313.812 278.693,315.371 C278.693,316.463 279.317,317.399 279.317,320.363 L279.317,345.476 C277.446,356.395 272.766,366.534 266.527,366.534 C262.003,366.534 259.351,362.011 259.351,353.588 C259.351,340.485 261.067,333.622 263.875,322.079 C264.499,319.739 269.022,313.5 261.379,313.5 C253.112,313.5 254.204,316.619 253.112,319.271 C253.112,319.271 247.886,337.833 247.886,354.368 C247.886,367.938 253.58,376.829 264.031,376.829 C270.738,376.829 275.574,372.306 279.317,366.066 L279.317,385.876 C269.022,394.924 259.975,402.879 259.975,418.633 C259.975,428.616 266.215,436.571 274.95,436.571 C282.905,436.571 291.172,430.8 291.172,414.422 L291.172,387.436 C299.595,380.105 308.642,370.902 313.946,352.808 C314.102,352.184 314.102,351.404 314.102,351.248 C314.102,348.284 311.138,344.853 308.642,344.853 C307.083,344.853 305.835,346.256 304.899,349.532 z M274.95,426.744 C272.454,426.744 270.894,423.001 270.894,418.165 C270.894,408.806 274.326,402.879 279.317,397.731 L279.317,414.422 C279.317,417.385 279.941,426.744 274.95,426.744 z" fill="#2C8EBB"/>
    <path d="M349.666,366.378 C345.923,366.378 344.363,362.635 344.363,359.203 L344.363,333.466 C344.363,329.722 341.087,326.602 335.94,326.602 C333.756,326.602 331.884,327.694 331.884,329.254 C331.884,330.346 332.508,331.282 332.508,334.246 L332.508,358.267 C330.792,362.635 327.985,366.378 323.773,366.378 C318.314,366.378 314.882,361.699 314.882,353.588 C314.882,331.126 328.764,320.987 340.619,320.987 C342.179,320.987 343.739,321.299 345.143,321.299 C346.703,321.299 347.171,320.363 347.171,317.711 C347.171,313.656 344.207,311.16 339.995,311.16 C320.965,311.16 302.871,327.07 302.871,353.12 C302.871,366.378 309.266,376.673 321.433,376.673 C327.361,376.673 331.728,373.866 334.848,370.278 C337.188,374.022 341.399,376.673 346.859,376.673 C360.273,376.673 366.513,362.635 369.164,352.34 C369.32,351.716 369.32,351.404 369.32,351.248 C369.32,348.284 366.357,344.853 363.861,344.853 C362.301,344.853 360.741,346.256 360.117,349.532 C358.714,356.395 355.906,366.378 349.666,366.378 z" fill="#2C8EBB"/>
    <path d="M394.746,376.673 C408.161,376.673 414.244,362.635 417.052,352.34 C417.052,352.028 417.208,351.716 417.208,351.248 C417.208,348.284 414.244,344.853 411.748,344.853 C410.188,344.853 408.629,346.256 408.005,349.532 C406.601,356.395 403.949,366.378 396.774,366.378 C392.562,366.378 390.534,362.323 390.534,357.955 C390.534,342.357 397.554,323.951 397.554,322.079 C398.178,318.491 391.938,313.344 390.066,313.344 L381.955,313.344 C380.395,313.344 378.836,313.344 373.688,312.72 C371.972,306.324 367.605,304.453 363.861,304.453 C359.805,304.453 356.062,307.26 356.062,311.628 C356.062,316.151 358.869,319.427 362.769,321.611 C362.613,329.566 361.989,342.513 360.273,348.752 C358.869,354.056 366.981,359.671 369.008,353.12 C371.816,344.073 372.752,330.502 372.908,324.419 L386.479,324.419 C381.487,337.833 378.68,348.908 378.68,358.891 C378.68,372.618 387.415,376.673 394.746,376.673 z" fill="#2C8EBB"/>
    <path d="M408.629,369.81 C408.629,375.581 412.996,376.673 416.116,376.673 C420.639,376.673 420.483,372.93 420.483,369.966 L420.483,347.192 C421.575,334.87 431.246,321.455 435.77,321.455 C438.734,321.455 439.046,325.51 439.046,330.346 L439.046,362.011 C439.046,369.966 443.881,376.673 452.148,376.673 C465.563,376.673 472.192,362.635 474.844,352.34 C475,351.716 475,351.404 475,351.248 C475,348.284 472.036,344.853 469.541,344.853 C467.981,344.853 466.421,346.256 465.797,349.532 C464.393,356.395 461.195,366.378 454.956,366.378 C450.9,366.378 450.9,360.607 450.9,359.203 L450.9,326.914 C450.9,319.739 448.405,311.16 437.954,311.16 C430.31,311.16 424.695,317.867 420.483,326.602 L420.483,319.583 C420.483,315.839 417.208,312.72 412.06,312.72 C409.876,312.72 408.005,313.812 408.005,315.371 C408.005,316.463 408.629,317.399 408.629,320.363 L408.629,369.81 z M125.673,249 C181.437,249 226.673,294.236 226.673,350 C226.673,405.764 181.437,451 125.673,451 C69.908,451 24.673,405.764 24.673,350 C24.673,294.236 69.908,249 125.673,249 z" fill="#2C8EBB"/>
    <path d="M194.384,380.612 C193.682,375.075 189.002,371.253 182.997,371.331 C174.028,371.448 166.502,376.088 161.51,379.169 C159.56,380.378 157.883,381.275 156.441,381.938 C156.752,377.414 156.48,371.487 154.14,364.975 C151.293,357.175 147.471,352.379 144.742,349.61 C147.9,345.008 152.229,338.301 154.257,327.928 C156.012,319.076 155.466,305.31 151.449,297.589 C150.63,296.029 149.265,294.898 147.549,294.431 C146.847,294.236 145.522,293.846 142.909,294.586 C138.97,286.436 137.605,285.578 136.552,284.876 C134.369,283.473 131.795,283.161 129.377,284.058 C126.141,285.227 123.372,288.347 120.759,293.885 C120.369,294.703 120.018,295.483 119.706,296.263 C114.754,296.614 106.954,298.408 100.364,305.544 C99.545,306.441 97.946,307.104 96.269,307.728 L96.308,307.728 C92.877,308.937 91.317,311.745 89.406,316.814 C86.754,323.912 89.484,330.892 92.175,335.415 C88.509,338.691 83.635,343.917 81.061,350.039 C77.863,357.604 77.512,365.014 77.629,369.03 C74.9,371.916 70.688,377.336 70.22,383.42 C69.596,391.921 72.677,397.692 74.042,399.798 C74.432,400.422 74.861,400.929 75.329,401.436 C75.173,402.489 75.134,403.62 75.368,404.79 C75.874,407.519 77.59,409.742 80.203,411.146 C85.351,413.876 92.526,415.046 98.063,412.277 C100.052,414.383 103.679,416.41 110.269,416.41 L110.659,416.41 C112.336,416.41 133.628,415.28 139.828,413.759 C142.597,413.096 144.508,411.926 145.756,410.873 C149.733,409.625 160.73,405.881 171.103,399.174 C178.434,394.417 180.969,393.403 186.429,392.077 C191.732,390.79 195.047,385.954 194.384,380.612 z M185.103,386.344 C178.863,387.826 175.705,389.191 167.983,394.222 C155.934,402.021 142.753,405.647 142.753,405.647 C142.753,405.647 141.661,407.285 138.502,408.026 C133.043,409.352 112.492,410.483 110.62,410.522 C105.59,410.561 102.509,409.235 101.651,407.168 C99.038,400.929 105.395,398.199 105.395,398.199 C105.395,398.199 103.991,397.341 103.172,396.561 C102.431,395.82 101.651,394.339 101.417,394.885 C100.442,397.263 99.935,403.074 97.322,405.686 C93.735,409.313 86.949,408.104 82.933,405.998 C78.526,403.659 83.245,398.16 83.245,398.16 C83.245,398.16 80.866,399.564 78.955,396.678 C77.239,394.027 75.641,389.503 76.069,383.927 C76.537,377.57 83.635,371.409 83.635,371.409 C83.635,371.409 82.387,362.011 86.481,352.379 C90.186,343.605 100.169,336.546 100.169,336.546 C100.169,336.546 91.785,327.265 94.905,318.92 C96.932,313.461 97.751,313.5 98.414,313.266 C100.754,312.369 103.016,311.394 104.693,309.561 C113.077,300.514 123.762,302.23 123.762,302.23 C123.762,302.23 128.831,286.826 133.511,289.829 C134.954,290.765 140.14,302.308 140.14,302.308 C140.14,302.308 145.678,299.071 146.302,300.28 C149.655,306.792 150.045,319.232 148.563,326.797 C146.068,339.276 139.828,345.983 137.332,350.195 C136.747,351.17 144.04,354.251 148.641,367.002 C152.892,378.662 149.109,388.45 149.772,389.542 C149.889,389.737 149.928,389.815 149.928,389.815 C149.928,389.815 154.803,390.205 164.591,384.161 C169.816,380.924 176.017,377.297 183.075,377.219 C189.899,377.102 190.25,385.097 185.103,386.344 z" fill="#FFFFFF"/>
    <path d="M74.673,48 L437.225,48 L437.225,171.055 L255.949,171.055 L255.949,191 L175.547,191 L175.547,171.055 L74.673,171.055 L74.673,48 z M95.145,150.358 L135.346,150.358 L135.346,88.642 L155.447,88.642 L155.447,150.358 L175.547,150.358 L175.547,69.074 L95.145,69.074 L95.145,150.358 z M195.275,68.697 L195.647,171.432 L235.476,171.432 L235.476,151.111 L275.677,151.111 L275.677,68.697 L195.275,68.697 z M235.104,88.266 L256.321,88.266 L256.321,130.037 L235.104,130.037 L235.104,88.266 z M296.15,68.697 L296.15,149.982 L336.351,149.982 L336.351,88.642 L356.451,88.642 L356.451,149.605 L376.552,149.605 L376.552,89.018 L396.652,89.018 L396.652,149.982 L416.752,149.982 L416.752,68.697 L296.15,68.697 z" fill="#2E2B09" id="Layer_1"/>
  </g>
</svg>
