<svg xmlns="http://www.w3.org/2000/svg" width="32" height="32" viewBox="0 0 32 32"><path fill="none" d="M0 0h32v32H0z"/><path d="M17.47 5H9.1c-3.756 0-7.29 2.84-7.29 6.13 0 3.362 2.56 6.075 6.38 6.075.265 0 .523-.005.775-.024-.248.475-.425 1.01-.425 1.563 0 .934.503 1.692 1.14 2.31-.48 0-.945.014-1.452.014C3.578 21.067 0 24.024 0 27.09 0 30.11 3.923 32 8.573 32c5.3 0 8.228-3.004 8.228-6.024 0-2.422-.714-3.872-2.926-5.434-.757-.535-2.204-1.836-2.204-2.6 0-.897.256-1.34 1.607-2.393 1.385-1.082 2.365-2.6 2.365-4.367 0-2.104-.938-4.154-2.7-4.83h2.655L17.47 5m-2.924 20.455c.067.28.103.568.103.862 0 2.44-1.576 4.348-6.094 4.348-3.214 0-5.535-2.032-5.535-4.472 0-2.392 2.88-4.383 6.094-4.348.75.008 1.45.128 2.083.333 1.745 1.212 2.996 1.897 3.35 3.277M9.4 16.353c-2.157-.065-4.207-2.41-4.58-5.24-.37-2.828 1.075-4.993 3.232-4.93 2.157.066 4.207 2.336 4.58 5.164.372 2.83-1.075 5.07-3.23 5.006M26 10.993V5h-2v5.992h-6v1.997h6v5.99h2v-5.99h6V10.99h-6z" fill="#B5B397"/></svg>