<svg xmlns="http://www.w3.org/2000/svg" width="32" height="32" viewBox="0 0 32 32"><path fill="none" d="M0 0h32v32H0z"/><path d="M32 5.314c-1.189.57-2.462.946-3.77 1.113 1.355-.874 2.396-2.26 2.886-3.91a12.59 12.59 0 01-4.17 1.715C25.75 2.858 24.044 2 22.157 2c-3.627 0-6.566 3.165-6.566 7.068 0 .554.058 1.094.17 1.61-5.457-.294-10.294-3.108-13.532-7.384a7.443 7.443 0 00-.89 3.553c0 2.453 1.16 4.616 2.922 5.884a6.189 6.189 0 01-2.974-.883v.09c0 3.424 2.262 6.28 5.266 6.93a6.163 6.163 0 01-2.965.12c.835 2.81 3.26 4.853 6.133 4.91-2.247 1.896-5.078 3.026-8.154 3.026-.53 0-1.052-.033-1.566-.1C2.905 28.83 6.356 30 10.064 30c12.075 0 18.68-10.77 18.68-20.112 0-.306-.008-.61-.02-.915A13.942 13.942 0 0032 5.313z" fill="#B5B397"/></svg>