<?xml version="1.0" encoding="UTF-8"?>
<!DOCTYPE svg PUBLIC "-//W3C//DTD SVG 1.1//EN" "http://www.w3.org/Graphics/SVG/1.1/DTD/svg11.dtd">
<svg version="1.1" xmlns="http://www.w3.org/2000/svg" xmlns:xlink="http://www.w3.org/1999/xlink" x="0" y="0" width="200" height="200" viewBox="0, 0, 200, 200">
  <g id="Background">
    <rect x="0" y="0" width="200" height="200" fill="#000000" fill-opacity="0"/>
  </g>
  <g id="Background"/>
  <g id="Layer_1">
    <path d="M34.546,118.185 L31.299,118.185 L31.299,115.822 L31.222,115.822 C29.562,117.713 27.336,118.658 24.665,118.658 C19.075,118.658 15.558,114.404 15.558,109.673 C15.558,104.799 18.996,100.615 24.711,100.615 C27.298,100.615 29.643,101.703 31.222,103.524 L31.299,103.524 L31.299,101.088 L34.546,101.088 z M18.873,109.456 C18.873,112.804 21.062,115.969 25.109,115.969 C29.279,115.969 31.464,112.947 31.464,109.491 C31.464,106.074 29.076,103.307 25.075,103.307 C21.306,103.307 18.873,106.252 18.873,109.456" fill="#07183E"/>
    <path d="M44.489,118.185 L41.254,118.185 L41.254,103.78 L39.269,103.78 L39.269,101.088 L41.254,101.088 L41.254,94.939 L44.489,94.939 L44.489,101.088 L47.897,101.088 L47.897,103.78 L44.489,103.78 z" fill="#07183E"/>
    <g>
      <path d="M69.193,118.185 L65.955,118.185 L65.955,115.822 L65.878,115.822 C64.218,117.713 61.992,118.658 59.321,118.658 C53.731,118.658 50.209,114.404 50.209,109.673 C50.209,104.799 53.652,100.615 59.367,100.615 C61.945,100.615 64.299,101.703 65.878,103.524 L65.955,103.524 L65.955,101.088 L69.193,101.088 z M53.529,109.456 C53.529,112.804 55.718,115.969 59.761,115.969 C63.935,115.969 66.115,112.947 66.115,109.491 C66.115,106.074 63.732,103.307 59.723,103.307 C55.964,103.307 53.529,106.252 53.529,109.456" fill="#07183E"/>
      <path d="M89.32,106.179 L89.235,106.179 C87.737,104.471 85.878,103.309 83.325,103.309 C79.396,103.309 76.606,106.219 76.606,109.636 C76.606,113.021 79.197,115.966 83.164,115.966 C85.878,115.966 87.783,114.874 89.358,113.021 L89.434,113.021 L89.434,116.915 C87.58,118.043 85.678,118.659 83.41,118.659 C77.656,118.659 73.283,114.804 73.283,109.636 C73.283,104.544 77.859,100.616 83.447,100.616 C85.518,100.616 87.622,101.232 89.32,102.325 z" fill="#07183E"/>
      <path d="M108.591,106.179 L108.501,106.179 C107.012,104.471 105.148,103.309 102.599,103.309 C98.666,103.309 95.876,106.219 95.876,109.636 C95.876,113.021 98.464,115.966 102.439,115.966 C105.148,115.966 107.054,114.874 108.633,113.021 L108.714,113.021 L108.714,116.915 C106.85,118.043 104.946,118.659 102.68,118.659 C96.927,118.659 92.558,114.804 92.558,109.636 C92.558,104.544 97.138,100.616 102.722,100.616 C104.784,100.616 106.893,101.232 108.591,102.325 z" fill="#07183E"/>
      <path d="M131.103,118.185 L127.86,118.185 L127.86,115.822 L127.784,115.822 C126.119,117.713 123.897,118.658 121.225,118.658 C115.637,118.658 112.119,114.404 112.119,109.673 C112.119,104.799 115.553,100.615 121.268,100.615 C123.851,100.615 126.205,101.703 127.784,103.524 L127.86,103.524 L127.86,101.088 L131.103,101.088 z M115.43,109.456 C115.43,112.804 117.619,115.969 121.666,115.969 C125.84,115.969 128.021,112.947 128.021,109.491 C128.021,106.074 125.633,103.307 121.628,103.307 C117.859,103.307 115.43,106.252 115.43,109.456" fill="#07183E"/>
      <path d="M140.335,102.945 L140.42,102.945 C141.424,101.527 143.045,100.613 144.988,100.613 C147.215,100.613 149.239,101.67 150.255,103.453 C151.381,101.562 153.659,100.613 155.958,100.613 C160.823,100.613 162.037,104.18 162.037,107.78 L162.037,118.187 L158.79,118.187 L158.79,108.249 C158.79,106.037 158.63,103.309 155.314,103.309 C151.593,103.309 151.182,106.544 151.182,109.128 L151.182,118.187 L147.948,118.187 L147.948,108.473 C147.948,106.362 147.66,103.309 144.544,103.309 C140.737,103.309 140.335,106.765 140.335,109.346 L140.335,118.187 L137.092,118.187 L137.092,101.089 L140.335,101.089 z" fill="#07183E"/>
      <path d="M185.558,118.185 L182.315,118.185 L182.315,115.822 L182.239,115.822 C180.576,117.713 178.352,118.658 175.682,118.658 C170.092,118.658 166.57,114.404 166.57,109.673 C166.57,104.799 170.008,100.615 175.724,100.615 C178.315,100.615 180.66,101.703 182.239,103.524 L182.315,103.524 L182.315,101.088 L185.558,101.088 z M169.894,109.456 C169.894,112.804 172.079,115.969 176.121,115.969 C180.296,115.969 182.485,112.947 182.485,109.491 C182.485,106.074 180.097,103.307 176.088,103.307 C172.316,103.307 169.894,106.252 169.894,109.456" fill="#07183E"/>
    </g>
  </g>
</svg>
