<?xml version="1.0" encoding="UTF-8"?>
<!DOCTYPE svg PUBLIC "-//W3C//DTD SVG 1.1//EN" "http://www.w3.org/Graphics/SVG/1.1/DTD/svg11.dtd">
<svg version="1.1" xmlns="http://www.w3.org/2000/svg" xmlns:xlink="http://www.w3.org/1999/xlink" x="0" y="0" width="200" height="200" viewBox="0, 0, 200, 200">
  <g id="Layer_1">
    <path d="M71.457,79.067 C72.772,79.207 73.926,79.773 74.877,80.674 C77.062,82.847 77.062,86.375 74.877,88.549 C73.932,89.49 72.73,90.023 71.495,90.15 C70.696,90.294 69.925,90.642 69.262,91.197 C68.059,92.213 67.443,93.693 67.573,95.144 C67.686,96.396 67.721,97.889 67.612,99.259 C67.473,101.063 68.09,102.907 69.476,104.29 C70.478,105.284 71.721,105.922 73.029,106.084 C74.621,106.285 76.159,106.993 77.38,108.212 C80.309,111.123 80.309,115.849 77.38,118.763 C74.454,121.677 69.705,121.677 66.776,118.763 C65.509,117.5 64.789,115.899 64.622,114.253 C64.427,113.187 63.96,112.158 63.209,111.272 C61.843,109.669 59.85,108.846 57.897,109.022 C55.114,109.269 52.256,108.435 50.002,106.525 C49.219,105.874 47.653,105.952 46.716,106.398 C46.038,106.719 45.5,107.225 45.187,107.845 C44.804,108.601 44.178,109.24 43.351,109.632 C41.374,110.571 39.004,109.737 38.059,107.767 C37.87,107.318 37.799,107.2 37.71,106.63 C37.676,106.408 37.69,106.181 37.679,105.957 L37.679,105.833 C37.803,104.343 38.631,103.198 39.93,102.498 C40.788,102.091 41.719,102.019 42.575,102.225 C43.145,102.315 43.742,102.265 44.319,102.048 C45.321,101.67 46.452,101.132 46.314,99.662 C45.947,96.536 47.041,93.356 49.364,90.869 C50.263,89.904 49.964,89.19 49.618,88.592 C49.367,88.159 48.997,87.825 48.565,87.651 C48.038,87.436 47.575,87.054 47.27,86.523 C46.533,85.258 46.969,83.635 48.242,82.903 C49.515,82.169 51.144,82.604 51.88,83.871 C52.199,84.42 52.296,85.034 52.202,85.615 C52.172,85.999 52.236,86.394 52.412,86.767 C52.733,87.442 53.214,88.009 54.685,87.867 C57.367,87.61 57.739,87.583 60.253,87.928 C61.597,88.113 62.99,87.573 64.026,86.544 C64.771,85.8 65.249,84.875 65.372,83.906 C65.523,82.722 66.051,81.581 66.966,80.674 C67.883,79.766 69.095,79.191 70.385,79.067 C70.74,79.033 71.1,79.067 71.457,79.067 z M57.472,91.107 C55.258,90.963 53.283,91.665 51.682,93.185 C48.866,96.001 48.866,100.569 51.682,103.384 C54.496,106.2 59.063,106.2 61.881,103.383 C64.695,100.568 64.695,96.001 61.88,93.185 C60.945,92.28 59.78,91.562 58.497,91.28 C58.159,91.206 57.814,91.165 57.472,91.107 z" fill="#EDA02F"/>
    <path d="M83.98,92.828 L76.542,92.828 C75.656,92.828 74.891,93.15 74.251,93.789 C73.611,94.432 73.291,95.205 73.291,96.107 L73.291,100.458 C73.291,101.361 73.611,102.136 74.251,102.777 C74.891,103.416 75.656,103.738 76.542,103.738 L82.591,103.738 L82.591,102.204 L78.033,102.204 C77.639,102.204 77.204,102.069 76.935,101.798 C76.665,101.526 76.528,101.192 76.528,100.797 L76.528,95.769 C76.528,95.376 76.665,95.042 76.935,94.769 C77.204,94.497 77.536,94.362 77.929,94.362 L82.617,94.362 C82.994,94.362 83.317,94.497 83.587,94.769 C83.857,95.042 83.991,95.376 83.991,95.769 L83.991,103.738 L87.231,103.738 L87.231,96.107 C87.231,95.205 86.915,94.432 86.283,93.789 C85.651,93.15 84.885,92.828 83.98,92.828" fill="#43545A"/>
    <path d="M115.535,92.828 L108.096,92.828 C107.21,92.828 106.447,93.15 105.806,93.789 C105.165,94.432 104.845,95.205 104.845,96.107 L104.845,100.458 C104.845,101.361 105.165,102.136 105.806,102.777 C106.447,103.416 107.21,103.738 108.096,103.738 L114.146,103.738 L114.146,102.204 L109.483,102.204 C109.09,102.204 108.759,102.069 108.489,101.798 C108.219,101.526 108.084,101.192 108.084,100.797 L108.084,95.769 C108.084,95.376 108.219,95.042 108.489,94.769 C108.759,94.497 109.09,94.362 109.483,94.362 L114.173,94.362 C114.549,94.362 114.872,94.497 115.141,94.769 C115.411,95.042 115.545,95.376 115.545,95.769 L115.545,103.738 L118.786,103.738 L118.786,96.107 C118.786,95.205 118.468,94.432 117.837,93.789 C117.205,93.15 116.437,92.828 115.535,92.828" fill="#43545A"/>
    <path d="M145.38,100.532 L144.394,100.532 C144.078,100.532 143.815,100.642 143.602,100.863 C143.386,101.085 143.28,101.35 143.28,101.66 L143.28,102.608 C143.28,102.919 143.386,103.185 143.602,103.404 C143.815,103.627 144.078,103.735 144.394,103.735 L145.38,103.735 C145.693,103.735 145.961,103.627 146.182,103.404 C146.406,103.185 146.518,102.919 146.518,102.608 L146.518,101.66 C146.518,101.35 146.406,101.085 146.182,100.863 C145.961,100.642 145.693,100.532 145.38,100.532" fill="#43545A"/>
    <path d="M145.38,89.191 L144.347,89.191 C144.034,89.191 143.77,89.302 143.556,89.523 C143.342,89.745 143.28,90.011 143.28,90.321 L143.28,98.421 C143.28,98.731 143.386,98.997 143.602,99.218 C143.815,99.439 144.078,99.55 144.394,99.55 L145.38,99.55 C145.693,99.55 145.961,99.439 146.182,99.218 C146.406,98.997 146.518,98.731 146.518,98.421 L146.518,90.321 C146.518,90.011 146.406,89.745 146.182,89.523 C145.961,89.302 145.694,89.191 145.38,89.191" fill="#43545A"/>
    <path d="M101.707,92.828 L96.7,99.984 L95.876,101.165 C95.254,102.144 94.586,102.634 93.869,102.634 C93.486,102.634 93.165,102.494 92.902,102.217 C92.638,101.94 92.508,101.615 92.508,101.239 L92.508,96.106 L92.507,96.106 L92.507,93.957 C92.507,93.646 92.396,93.381 92.172,93.159 C91.951,92.939 91.683,92.828 91.37,92.828 L90.382,92.828 C90.069,92.828 89.806,92.939 89.592,93.159 C89.377,93.381 89.27,93.646 89.27,93.957 L89.27,100.48 C89.27,101.379 89.59,102.147 90.225,102.783 C90.863,103.42 91.621,103.738 92.502,103.738 L94.191,103.738 C95.398,103.738 96.214,103.664 96.639,103.513 C97.502,103.214 98.334,102.466 99.136,101.268 L104.985,92.828 L101.707,92.828" fill="#43545A"/>
    <path d="M140.315,102.205 C139.921,102.205 139.591,102.069 139.32,101.798 C139.049,101.526 138.917,101.192 138.917,100.797 L138.916,95.757 C138.916,95.383 139.011,95.058 139.281,94.778 C139.554,94.5 139.878,94.358 140.258,94.358 L141.62,94.358 L141.62,92.828 L138.875,92.828 C137.617,92.828 136.708,93.584 136.289,94.017 C136.337,93.925 136.392,93.828 136.458,93.729 C136.458,93.729 137.384,92.224 138.917,92.03 L138.917,91.066 L138.914,91.066 L138.914,90.321 C138.914,90.011 138.802,89.745 138.58,89.523 C138.357,89.302 138.089,89.191 137.777,89.191 L136.744,89.191 C136.428,89.191 136.166,89.302 135.952,89.523 C135.737,89.745 135.677,90.011 135.677,90.321 L135.677,100.745 L135.69,100.745 C135.751,101.526 136.065,102.205 136.637,102.777 C137.277,103.417 138.042,103.738 138.928,103.738 L141.97,103.738 L141.97,102.205 L140.315,102.205" fill="#43545A"/>
    <path d="M123.691,92.849 C122.772,92.849 121.999,93.132 121.377,93.701 C120.753,94.271 120.443,94.994 120.443,95.871 C120.443,96.733 120.748,97.721 121.365,98.282 C121.978,98.843 122.755,99.123 123.689,99.123 L129.413,99.123 C129.806,99.123 130.137,99.255 130.407,99.525 C130.677,99.794 130.811,100.125 130.811,100.516 L130.811,100.861 C130.811,101.234 130.677,101.555 130.407,101.825 C130.135,102.094 129.803,102.227 129.411,102.227 L125.077,102.227 C124.683,102.227 124.351,102.088 124.08,101.816 C123.809,101.544 123.677,101.21 123.677,100.816 L123.677,100.474 L120.437,100.474 C120.437,101.38 120.756,102.154 121.396,102.795 C122.037,103.436 122.802,103.738 123.688,103.738 L130.803,103.738 C131.721,103.738 132.495,103.455 133.116,102.884 C133.742,102.315 134.051,101.592 134.051,100.714 C134.051,99.854 133.744,99.008 133.129,98.447 C132.515,97.887 131.741,97.607 130.805,97.607 L125.08,97.607 C124.689,97.607 124.358,97.473 124.087,97.205 C123.817,96.936 123.683,96.606 123.683,96.215 L123.683,95.726 C123.683,95.352 123.817,95.029 124.088,94.761 C124.358,94.492 124.689,94.358 125.083,94.358 L129.411,94.358 C129.805,94.358 130.136,94.478 130.407,94.751 C130.677,95.022 130.811,95.355 130.811,95.751 L130.811,96.09 L134.051,96.09 C134.051,95.184 133.733,94.411 133.092,93.769 C132.451,93.13 131.685,92.828 130.799,92.828 L123.691,92.849" fill="#43545A"/>
    <path d="M148.982,88.664 L148.796,88.664 L148.796,88.167 C148.838,88.157 148.909,88.146 149.014,88.146 C149.261,88.146 149.376,88.252 149.376,88.411 C149.376,88.59 149.198,88.664 148.982,88.664 M149.447,88.791 L149.447,88.769 C149.644,88.706 149.798,88.57 149.798,88.358 C149.798,88.188 149.725,88.062 149.623,87.988 C149.508,87.904 149.363,87.85 149.046,87.85 C148.765,87.85 148.549,87.883 148.394,87.904 L148.394,89.637 L148.787,89.637 L148.787,88.95 L148.972,88.95 C149.188,88.95 149.293,89.034 149.324,89.214 C149.376,89.425 149.405,89.573 149.459,89.637 L149.87,89.637 C149.84,89.573 149.798,89.478 149.748,89.214 C149.695,88.981 149.611,88.844 149.447,88.791" fill="#43545A"/>
    <path d="M149.065,90.122 C148.31,90.122 147.743,89.509 147.743,88.737 C147.743,87.976 148.31,87.354 149.046,87.354 L149.056,87.354 C149.798,87.354 150.357,87.976 150.357,88.749 C150.357,89.509 149.798,90.133 149.065,90.122 M149.067,86.975 L149.056,86.975 C148.068,86.975 147.28,87.749 147.28,88.737 C147.28,89.727 148.068,90.51 149.056,90.51 C150.043,90.51 150.818,89.727 150.818,88.737 C150.818,87.749 150.043,86.975 149.067,86.975" fill="#43545A"/>
    <path d="M56.778,93.802 C54.3,93.802 52.289,95.811 52.289,98.291 C52.289,100.03 53.278,101.537 54.725,102.284 C55.049,102.465 55.421,102.568 55.818,102.568 C56.987,102.568 57.947,101.677 58.054,100.536 L56.778,100.536 C55.538,100.536 54.533,99.53 54.533,98.291 C54.533,97.05 55.538,96.046 56.778,96.046 C58.019,96.046 59.023,97.05 59.023,98.291 L59.023,102.119 C60.264,102.119 61.269,101.114 61.269,99.875 L61.269,98.291 C61.269,95.811 59.259,93.802 56.778,93.802" fill="#43545A"/>
    <path d="M115.321,115.297 C115.454,115.519 115.602,115.629 115.764,115.629 C116.061,115.629 116.388,115.493 116.748,115.221 C117.108,114.949 117.421,114.565 117.687,114.071 C117.952,113.579 118.085,113.169 118.085,112.842 C118.085,112.53 118.036,112.374 117.94,112.374 C117.44,112.374 116.878,112.741 116.255,113.471 C115.633,114.202 115.321,114.811 115.321,115.297 M114.764,111.949 C115.069,110.142 115.29,109.072 115.423,108.738 C115.558,108.405 115.79,108.237 116.122,108.237 C116.38,108.237 116.509,108.466 116.509,108.922 C116.509,109.233 116.38,109.879 116.122,110.861 C115.989,111.345 115.824,112.077 115.633,113.059 C116.023,112.54 116.448,112.119 116.909,111.799 C117.369,111.479 117.78,111.317 118.142,111.317 C118.438,111.317 118.684,111.444 118.879,111.698 C119.077,111.95 119.175,112.25 119.175,112.591 C119.175,113.56 118.804,114.471 118.06,115.322 C117.316,116.174 116.526,116.601 115.689,116.601 C115.438,116.601 115.203,116.533 114.986,116.396 C114.77,116.258 114.647,116.083 114.619,115.869 C114.606,115.754 114.583,115.676 114.547,115.638 C114.513,115.601 114.477,115.56 114.441,115.516 C114.348,115.42 114.303,115.29 114.303,115.12 C114.303,114.923 114.351,114.519 114.449,113.903 L114.764,111.949" fill="#43545A"/>
    <path d="M120.953,114.071 C121.45,113.973 121.887,113.759 122.267,113.435 C122.646,113.113 122.835,112.819 122.835,112.554 C122.835,112.45 122.807,112.362 122.748,112.292 C122.69,112.221 122.614,112.186 122.524,112.186 C122.25,112.186 121.947,112.387 121.614,112.789 C121.28,113.193 121.061,113.62 120.953,114.071 M124.119,114.906 C124.119,115.233 123.843,115.625 123.292,116.079 C122.742,116.533 122.121,116.761 121.429,116.761 C120.899,116.761 120.481,116.593 120.175,116.258 C119.871,115.924 119.717,115.457 119.717,114.861 C119.717,113.979 120.03,113.154 120.652,112.384 C121.274,111.613 121.939,111.228 122.647,111.228 C122.999,111.228 123.282,111.34 123.496,111.562 C123.709,111.786 123.816,112.052 123.816,112.361 C123.816,112.908 123.553,113.429 123.029,113.923 C122.504,114.42 121.83,114.761 121.009,114.949 C120.915,114.971 120.868,115.029 120.868,115.118 C120.868,115.27 120.935,115.415 121.069,115.551 C121.203,115.688 121.381,115.757 121.604,115.757 C122.236,115.757 122.863,115.43 123.486,114.781 C123.606,114.655 123.722,114.591 123.835,114.591 C124.024,114.591 124.119,114.697 124.119,114.906" fill="#43545A"/>
    <path d="M130.056,114.13 L129.976,114.973 C129.951,115.243 129.94,115.511 129.94,115.775 C129.94,116.014 129.961,116.291 130.005,116.605 C129.973,116.716 129.895,116.809 129.769,116.888 C129.643,116.967 129.511,117.006 129.372,117.006 C128.941,117.006 128.727,116.733 128.727,116.185 C128.727,115.942 128.793,115.364 128.929,114.45 C129.023,113.793 129.07,113.304 129.07,112.982 C129.07,112.965 129.052,112.942 129.015,112.916 C128.797,112.78 128.689,112.647 128.689,112.521 C128.689,112.356 128.81,112.179 129.052,111.987 C129.167,111.896 129.239,111.789 129.266,111.669 C129.292,111.548 129.331,111.356 129.382,111.096 C129.552,110.094 129.816,109.38 130.172,108.957 C130.529,108.533 130.982,108.323 131.532,108.323 C131.853,108.323 132.125,108.427 132.346,108.636 C132.568,108.845 132.679,109.105 132.679,109.413 C132.679,109.689 132.614,109.976 132.487,110.273 C132.36,110.57 132.192,110.719 131.984,110.719 C131.894,110.719 131.817,110.69 131.755,110.631 C131.691,110.573 131.659,110.497 131.659,110.403 L131.688,109.991 C131.688,109.501 131.586,109.258 131.381,109.258 C131.128,109.258 130.888,109.577 130.666,110.217 C130.445,110.857 130.335,111.401 130.335,111.851 C130.335,111.898 130.364,111.922 130.425,111.922 C131.074,111.922 131.535,111.918 131.804,111.912 C132.073,111.906 132.208,112.01 132.208,112.223 C132.208,112.432 132.045,112.585 131.719,112.683 C131.395,112.784 131.052,112.832 130.694,112.832 C130.451,112.853 130.294,112.875 130.222,112.892 C130.146,113.359 130.091,113.769 130.056,114.124 L130.056,114.13" fill="#43545A"/>
    <path d="M133.523,114.191 L133.603,114.038 C133.984,113.275 134.394,112.655 134.833,112.179 C135.271,111.703 135.699,111.464 136.118,111.464 C136.437,111.464 136.7,111.552 136.903,111.729 C137.106,111.904 137.207,112.114 137.207,112.356 C137.207,112.507 137.172,112.637 137.104,112.744 C137.034,112.853 136.938,112.907 136.816,112.907 C136.621,112.907 136.443,112.827 136.283,112.666 C136.168,112.563 136.079,112.51 136.013,112.51 C135.778,112.51 135.383,112.877 134.83,113.61 C134.276,114.343 133.942,115.167 133.831,116.081 C133.796,116.345 133.719,116.531 133.599,116.637 C133.479,116.741 133.317,116.794 133.113,116.794 C132.895,116.794 132.742,116.67 132.649,116.423 C132.56,116.177 132.514,115.773 132.514,115.213 C132.514,114.984 132.52,114.674 132.532,114.284 C132.545,113.916 132.582,113.468 132.641,112.935 C132.657,112.797 132.669,112.689 132.674,112.61 C132.703,112.302 132.734,112.089 132.77,111.976 C132.806,111.862 132.891,111.754 133.023,111.653 C133.156,111.552 133.302,111.501 133.462,111.501 C133.632,111.501 133.761,111.552 133.848,111.648 C133.937,111.746 133.981,111.852 133.981,111.968 C133.981,112.117 133.911,112.423 133.768,112.889 C133.719,113.049 133.677,113.24 133.641,113.464 L133.523,114.191" fill="#43545A"/>
    <path d="M138.348,114.071 C138.845,113.973 139.283,113.759 139.662,113.435 C140.041,113.113 140.23,112.819 140.23,112.554 C140.23,112.45 140.201,112.362 140.143,112.292 C140.085,112.221 140.01,112.186 139.919,112.186 C139.646,112.186 139.343,112.387 139.009,112.789 C138.675,113.193 138.456,113.62 138.348,114.071 M141.514,114.906 C141.514,115.233 141.239,115.625 140.688,116.079 C140.137,116.533 139.516,116.761 138.825,116.761 C138.294,116.761 137.875,116.593 137.57,116.258 C137.266,115.924 137.112,115.457 137.112,114.861 C137.112,113.979 137.425,113.154 138.047,112.384 C138.669,111.613 139.335,111.228 140.042,111.228 C140.393,111.228 140.677,111.34 140.891,111.562 C141.104,111.786 141.211,112.052 141.211,112.361 C141.211,112.908 140.948,113.429 140.424,113.923 C139.899,114.42 139.225,114.761 138.404,114.949 C138.311,114.971 138.263,115.029 138.263,115.118 C138.263,115.27 138.33,115.415 138.464,115.551 C138.597,115.688 138.776,115.757 138.999,115.757 C139.631,115.757 140.258,115.43 140.881,114.781 C141.001,114.655 141.117,114.591 141.23,114.591 C141.419,114.591 141.514,114.697 141.514,114.906" fill="#43545A"/>
    <path d="M143.352,114.071 C143.849,113.973 144.287,113.759 144.666,113.435 C145.045,113.113 145.233,112.819 145.233,112.554 C145.233,112.45 145.206,112.362 145.148,112.292 C145.089,112.221 145.014,112.186 144.923,112.186 C144.651,112.186 144.346,112.387 144.013,112.789 C143.679,113.193 143.46,113.62 143.352,114.071 M146.517,114.906 C146.517,115.233 146.242,115.625 145.693,116.079 C145.142,116.533 144.52,116.761 143.83,116.761 C143.298,116.761 142.879,116.593 142.575,116.258 C142.268,115.924 142.117,115.457 142.117,114.861 C142.117,113.979 142.428,113.154 143.05,112.384 C143.673,111.613 144.338,111.228 145.046,111.228 C145.397,111.228 145.681,111.34 145.894,111.562 C146.109,111.786 146.216,112.052 146.216,112.361 C146.216,112.908 145.952,113.429 145.427,113.923 C144.904,114.42 144.229,114.761 143.409,114.949 C143.315,114.971 143.268,115.029 143.268,115.118 C143.268,115.27 143.335,115.415 143.468,115.551 C143.602,115.688 143.78,115.757 144.003,115.757 C144.636,115.757 145.263,115.43 145.885,114.781 C146.006,114.655 146.121,114.591 146.235,114.591 C146.423,114.591 146.517,114.697 146.517,114.906" fill="#43545A"/>
  </g>
</svg>
