<?xml version="1.0" encoding="UTF-8"?>
<!DOCTYPE svg PUBLIC "-//W3C//DTD SVG 1.1//EN" "http://www.w3.org/Graphics/SVG/1.1/DTD/svg11.dtd">
<svg version="1.1" xmlns="http://www.w3.org/2000/svg" xmlns:xlink="http://www.w3.org/1999/xlink" x="0" y="0" width="200" height="200" viewBox="0, 0, 200, 200">
  <g id="Layer_1">
    <path d="M93.084,53.01 L75.958,53.01 L75.958,61.525 L110.509,61.525 C108.013,55.708 101.439,53.01 93.084,53.01 z M109.339,74.868 L75.958,74.868 L75.958,66.383 L111.576,66.383 C111.593,66.714 111.601,67.051 111.598,67.395 C111.568,70.552 110.813,72.986 109.339,74.868 z M75.958,79.726 L75.958,88.196 L107.074,88.196 L101.863,79.726 L75.958,79.726 z M75.958,93.054 L110.062,93.054 L115.31,101.584 L75.958,101.584 L75.958,93.054" fill="#001647"/>
    <path d="M124.001,111.882 L121.252,111.882 L119.738,118.031 L118.081,111.882 L115.263,111.882 L117.905,119.282 C118.045,119.687 118.275,120.145 118.275,120.585 C118.275,120.885 118.134,121.325 117.888,121.519 C117.64,121.714 117.094,121.748 116.794,121.748 C116.565,121.748 116.337,121.731 116.108,121.731 L116.108,123.775 C116.337,123.775 116.565,123.81 116.794,123.81 C117.922,123.81 119.351,123.881 120.124,122.912 C120.495,122.436 120.795,121.519 120.988,120.938 L124.001,111.882 z M122.91,108.042 L119.804,108.042 L118.54,110.671 L120.554,110.671 L122.91,108.042 z M86.346,116.85 L83.44,116.658 C83.422,118.067 82.101,118.947 80.779,118.947 C80.074,118.947 79.405,118.718 78.859,118.277 C77.802,117.396 77.59,116.005 77.59,114.718 C77.59,112.658 78.418,110.614 80.779,110.614 C81.748,110.614 82.612,110.983 83.105,111.865 C83.211,112.077 83.316,112.288 83.369,112.516 L86.17,112.324 C86.135,112.023 86.048,111.759 85.959,111.478 C85.22,109.274 83.017,108.271 80.815,108.271 C76.921,108.271 74.578,110.93 74.578,114.737 C74.578,117.344 75.812,119.899 78.33,120.885 C79.105,121.184 79.951,121.289 80.779,121.289 C82.805,121.289 84.69,120.55 85.73,118.735 C86.065,118.154 86.276,117.503 86.346,116.85 M96.018,117.203 L96.018,116.762 C96.018,113.944 94.574,111.618 91.526,111.618 C88.725,111.618 86.911,113.714 86.911,116.445 C86.911,119.247 88.636,121.273 91.526,121.273 C93.535,121.273 95.262,120.321 95.913,118.366 L93.305,118.19 C92.918,118.877 92.408,119.158 91.597,119.158 C90.399,119.158 89.782,118.331 89.623,117.203 L96.018,117.203 z M93.289,115.231 L89.641,115.231 C89.923,114.19 90.486,113.662 91.597,113.662 C92.53,113.662 93.2,114.313 93.289,115.231 M105.128,118.207 C105.128,115.916 102.872,115.511 101.11,115.142 C100.635,115.036 99.56,114.912 99.56,114.26 C99.56,113.609 100.334,113.522 100.828,113.522 C101.322,113.522 101.885,113.697 102.203,114.102 C102.343,114.278 102.396,114.631 102.432,114.842 L104.863,114.718 C104.757,112.481 102.872,111.618 100.863,111.618 C99.014,111.618 97.058,112.358 97.058,114.507 C97.058,118.154 102.485,116.833 102.485,118.472 C102.485,119.194 101.744,119.318 101.18,119.318 C100.018,119.318 99.401,118.983 99.242,117.802 L96.777,117.89 C96.777,118.19 96.794,118.436 96.864,118.735 C97.322,120.621 99.26,121.273 101.005,121.273 C102.995,121.273 105.128,120.567 105.128,118.207 M115.486,121.009 L111.716,115.335 L115.239,111.882 L111.874,111.882 L109.056,115.001 L109.056,108.571 L106.466,108.571 L106.466,121.009 L109.056,121.009 L109.056,117.977 L109.901,117.132 L112.192,121.009 L115.486,121.009 z M81.947,107.484 L78.922,107.484 L77.295,105.431 L79.675,105.431 L80.461,106.621 L81.212,105.431 L83.628,105.431 L81.947,107.484" fill="#001647"/>
    <path d="M91.818,137.727 L91.818,135.788 L96.328,130.751 L92.329,130.751 L92.329,128.6 L99.553,128.6 L99.553,130.697 L95.183,135.577 L99.853,135.577 L99.853,137.727 L91.818,137.727 z M106.741,137.727 L106.741,132.617 C106.741,132.035 106.776,131.331 106.301,130.908 C106.054,130.68 105.719,130.59 105.384,130.59 C104.997,130.59 104.68,130.697 104.38,130.943 C103.763,131.454 103.8,132.317 103.8,133.04 L103.8,137.727 L101.226,137.727 L101.226,125.288 L103.8,125.288 L103.8,129.534 C104.204,128.811 105.508,128.389 106.282,128.389 C106.883,128.389 107.604,128.547 108.098,128.899 C109.154,129.657 109.33,130.68 109.33,131.895 L109.33,137.727 L106.741,137.727 z M111.128,125.288 L113.717,125.288 L113.717,137.727 L111.128,137.727 z M133.255,134.925 C133.255,132.634 131.001,132.229 129.239,131.86 C128.763,131.754 127.688,131.631 127.688,130.979 C127.688,130.327 128.464,130.239 128.957,130.239 C129.451,130.239 130.013,130.416 130.331,130.82 C130.471,130.996 130.525,131.348 130.56,131.56 L132.991,131.436 C132.885,129.199 131.001,128.336 128.992,128.336 C127.143,128.336 125.186,129.076 125.186,131.225 C125.186,134.872 130.613,133.551 130.613,135.189 C130.613,135.912 129.874,136.035 129.309,136.035 C128.147,136.035 127.53,135.7 127.372,134.521 L124.905,134.607 C124.905,134.907 124.922,135.154 124.992,135.453 C125.451,137.339 127.389,137.99 129.133,137.99 C131.123,137.99 133.255,137.286 133.255,134.925 M123.618,132.64 C123.618,131.899 123.652,130.841 123.368,130.155 C122.7,128.568 120.99,128.322 119.475,128.322 C117.413,128.322 115.703,129.203 115.58,131.477 L117.978,131.477 C117.941,130.577 118.858,130.331 119.581,130.331 C120.126,130.331 120.973,130.471 120.973,131.176 C120.973,131.829 120.021,131.865 119.563,131.934 C117.589,132.217 115.069,132.446 115.069,135.036 C115.069,136.887 116.479,137.979 118.241,137.979 C119.544,137.979 120.11,137.592 121.114,136.887 L121.132,137.715 L123.618,137.715 L123.618,132.64 z M121.042,134.754 C120.603,135.512 119.774,135.935 118.91,135.935 C118.311,135.935 117.694,135.653 117.694,134.966 C117.694,133.784 119.581,133.768 120.408,133.556 C120.62,133.503 120.831,133.433 121.042,133.345 L121.042,134.754 z M81.313,130.811 L81.313,128.45 C81.155,128.432 81.013,128.415 80.855,128.415 C79.622,128.415 78.935,128.943 78.494,130.088 L78.494,128.591 L75.958,128.591 L75.958,137.716 L78.619,137.716 L78.619,134.74 C78.619,134.281 78.619,133.806 78.635,133.348 C78.67,131.868 78.883,130.758 80.697,130.758 C80.908,130.758 81.102,130.775 81.313,130.811 M91.179,133.118 C91.179,130.388 89.417,128.326 86.616,128.326 C83.655,128.326 81.736,130.247 81.736,133.207 C81.736,136.008 83.516,137.981 86.369,137.981 C89.206,137.981 91.179,135.937 91.179,133.118 M88.519,133.013 C88.519,134.369 88.061,135.867 86.458,135.867 C84.89,135.867 84.395,134.423 84.395,133.101 C84.395,131.744 84.925,130.406 86.492,130.406 C88.025,130.406 88.519,131.708 88.519,133.013" fill="#001647"/>
  </g>
</svg>
