<?xml version="1.0" encoding="UTF-8"?>
<!DOCTYPE svg PUBLIC "-//W3C//DTD SVG 1.1//EN" "http://www.w3.org/Graphics/SVG/1.1/DTD/svg11.dtd">
<svg version="1.1" xmlns="http://www.w3.org/2000/svg" xmlns:xlink="http://www.w3.org/1999/xlink" x="0" y="0" width="200" height="200" viewBox="0, 0, 200, 200">
  <g id="Layer_1">
    <path d="M83.93,67.48 C88.36,67.13 93.157,66.956 97.047,66.893 L97.047,72.657 C95.202,72.723 93.143,72.846 91.211,73.053 C84.415,73.78 83.146,75.252 82.323,81.782 C81.979,84.503 81.878,87.388 81.878,89.355 C81.878,91.316 81.979,94.207 82.323,96.919 C83.146,103.447 84.415,104.922 91.211,105.647 C93.143,105.855 95.202,105.979 97.047,106.044 L97.047,111.81 C93.157,111.748 88.36,111.574 83.93,111.221 C71.738,110.247 69.464,108.265 67.984,99.512 C67.368,95.864 67.187,91.986 67.187,89.351 C67.187,86.716 67.368,82.838 67.984,79.19 C69.464,70.437 71.738,68.457 83.93,67.48" fill="#00264A"/>
    <path d="M133.583,89.351 C133.583,91.986 133.402,95.864 132.786,99.511 C131.308,108.265 129.032,110.248 116.84,111.221 C112.41,111.574 107.616,111.749 103.725,111.811 L103.725,106.044 C105.568,105.978 107.627,105.855 109.557,105.647 C116.356,104.922 117.625,103.447 118.446,96.919 C118.789,94.208 118.891,91.316 118.891,89.355 C118.891,87.388 118.789,84.503 118.446,81.782 C117.625,75.252 116.356,73.779 109.557,73.053 C107.627,72.846 105.568,72.722 103.725,72.658 L103.725,66.893 C107.616,66.956 112.41,67.129 116.84,67.481 C129.032,68.458 131.308,70.437 132.786,79.19 C133.402,82.838 133.583,86.716 133.583,89.351" fill="#DC3B41"/>
    <path d="M48.281,121.822 C49.406,121.822 50.499,122.018 51.494,122.376 L51.266,124.497 C50.466,124.349 49.683,124.121 48.64,124.121 C46.536,124.121 45.363,125.426 45.363,127.464 C45.363,129.649 46.553,130.791 48.64,130.791 C49.7,130.791 50.466,130.579 51.266,130.432 L51.494,132.537 C50.499,132.911 49.406,133.107 48.281,133.107 C44.465,133.107 42.476,130.742 42.476,127.481 C42.476,124.349 44.465,121.822 48.281,121.822 z M56.841,123.974 C60.249,123.974 61.488,126.844 60.885,129.47 L54.916,129.47 C55.242,130.531 56.188,130.97 57.525,130.97 C58.374,130.97 59.319,130.808 60.363,130.563 L60.575,132.471 C59.499,132.861 58.21,133.107 57.037,133.107 C54.411,133.107 52.193,131.736 52.193,128.54 C52.193,125.997 53.807,123.974 56.841,123.974 z M56.824,125.931 C55.878,125.931 55.226,126.616 54.948,127.53 L58.324,127.53 C58.324,126.42 57.705,125.931 56.824,125.931 z M65.988,123.974 C67.13,123.974 68.37,124.203 69.397,124.626 L69.169,126.453 C67.848,126.078 66.804,125.948 66.119,125.948 C65.124,125.948 64.863,126.193 64.863,126.632 C64.863,127.839 69.804,126.812 69.804,130.383 C69.804,132.307 68.043,133.107 66.005,133.107 C64.717,133.107 63.331,132.895 62.287,132.455 L62.499,130.628 C63.853,131.019 64.912,131.133 65.858,131.133 C66.787,131.133 67.147,130.937 67.147,130.465 C67.147,129.258 62.205,130.269 62.205,126.714 C62.205,124.659 63.982,123.974 65.988,123.974 z M85.296,123.974 C87.334,123.974 89.177,124.757 89.177,126.992 L89.177,132.861 L86.666,132.861 L86.502,132.112 C85.769,132.78 84.872,133.107 83.779,133.107 C82.214,133.107 80.958,132.03 80.958,130.432 C80.958,127.856 83.568,126.959 86.502,127.595 L86.502,127.268 C86.502,126.47 85.866,126.143 84.872,126.143 C84.056,126.143 82.898,126.29 81.757,126.731 L81.529,124.838 C82.54,124.301 83.958,123.974 85.296,123.974 z M84.796,129.191 C84.141,129.338 83.804,129.6 83.714,130.254 C83.714,130.856 84.236,131.166 84.888,131.166 C85.459,131.166 86.144,130.824 86.502,130.399 L86.502,129.323 C85.501,129.136 86.068,129.202 84.796,129.191 z M105.31,123.974 C108.718,123.974 109.957,126.844 109.354,129.47 L103.387,129.47 C103.712,130.531 104.658,130.97 105.995,130.97 C106.843,130.97 107.788,130.808 108.833,130.563 L109.044,132.471 C107.968,132.861 106.681,133.107 105.506,133.107 C102.88,133.107 100.663,131.736 100.663,128.54 C100.663,125.997 102.277,123.974 105.31,123.974 z M105.294,125.931 C104.347,125.931 103.695,126.616 103.419,127.53 L106.794,127.53 C106.794,126.42 106.174,125.931 105.294,125.931 z M120.122,123.974 C123.531,123.974 124.77,126.844 124.166,129.47 L118.198,129.47 C118.524,130.531 119.47,130.97 120.807,130.97 C121.657,130.97 122.601,130.808 123.645,130.563 L123.856,132.471 C122.781,132.861 121.492,133.107 120.318,133.107 C117.693,133.107 115.475,131.736 115.475,128.54 C115.475,125.997 117.089,123.974 120.122,123.974 z M120.106,125.931 C119.16,125.931 118.508,126.616 118.231,127.53 L121.606,127.53 C121.606,126.42 120.987,125.931 120.106,125.931 z M153.333,123.974 C156.742,123.974 157.98,126.844 157.377,129.47 L151.409,129.47 C151.735,130.531 152.681,130.97 154.018,130.97 C154.866,130.97 155.811,130.808 156.855,130.563 L157.068,132.471 C155.991,132.861 154.703,133.107 153.528,133.107 C150.904,133.107 148.685,131.736 148.685,128.54 C148.685,125.997 150.3,123.974 153.333,123.974 z M153.317,125.931 C152.371,125.931 151.719,126.616 151.441,127.53 L154.818,127.53 C154.818,126.42 154.198,125.931 153.317,125.931 z M97.779,122.132 L97.779,124.22 L99.736,124.22 L99.736,126.176 L97.779,126.176 L97.779,130.089 C97.779,130.856 98.317,131.052 99.687,130.824 L99.899,132.715 C97.617,133.449 95.105,133.254 95.105,130.368 L95.105,126.176 L93.8,126.176 L93.8,124.381 L95.105,124.22 L95.415,122.132 L97.779,122.132 z M138.209,124.22 L138.209,132.862 L135.534,132.862 L135.534,124.22 L138.209,124.22 z M74.064,121.153 L74.064,132.861 L71.389,132.861 L71.389,121.153 L74.064,121.153 z M80.375,124.22 L77.293,128.148 L77.293,128.214 L80.701,132.861 L77.489,132.861 L74.276,128.328 L77.342,124.22 L80.375,124.22 z M113.789,121.153 L113.789,132.861 L111.117,132.861 L111.117,121.153 L113.789,121.153 z M127.569,124.22 L129.624,130.154 L129.689,130.154 L131.744,124.22 L134.549,124.22 L131.271,132.861 L127.993,132.861 L124.699,124.22 L127.569,124.22 z M147.63,124.22 L147.63,126.176 L143.454,130.84 L143.454,130.905 L147.792,130.905 L147.792,132.861 L140.029,132.861 L140.029,130.921 L144.22,126.24 L144.22,126.176 L140.192,126.176 L140.192,124.22 L147.63,124.22 z M88.215,120.859 L85.997,123.485 L83.845,123.485 L85.215,120.859 L88.215,120.859 z M136.871,120.761 C138.078,120.761 138.453,121.219 138.453,122.099 C138.453,122.963 138.078,123.42 136.871,123.42 C135.665,123.42 135.289,122.963 135.289,122.099 C135.289,121.219 135.665,120.761 136.871,120.761 z M47.319,118.87 L48.069,120.093 L48.819,118.87 L51.363,118.87 L49.619,121.301 L46.505,121.301 L44.759,118.87 L47.319,118.87 z" fill="#00264A"/>
  </g>
</svg>
