<?xml version="1.0" encoding="utf-8"?>
<!-- Generator: Adobe Illustrator 16.0.3, SVG Export Plug-In . SVG Version: 6.00 Build 0)  -->
<!DOCTYPE svg PUBLIC "-//W3C//DTD SVG 1.1//EN" "http://www.w3.org/Graphics/SVG/1.1/DTD/svg11.dtd">
<svg version="1.1" id="Vrstva_1" xmlns="http://www.w3.org/2000/svg" xmlns:xlink="http://www.w3.org/1999/xlink" x="0px" y="0px"
	 width="200px" height="200px" viewBox="300 300 200 200" enable-background="new 300 300 200 200" xml:space="preserve">
<g>
	<path fill="#00ACEC" d="M400.478,394.646c9.548,0,17.323-7.775,17.323-17.323c0-9.548-7.775-17.323-17.323-17.323
		s-17.323,7.775-17.323,17.323C383.154,386.871,390.861,394.646,400.478,394.646z"/>
	<path fill="#00ACEC" d="M413.231,391.304c-3.274,3.615-9.14,7.161-16.573,7.161c-5.797,0-10.775-2.25-13.981-4.774
		c-18.892,1.978-33.009,4.774-33.009,4.774v7.639h100.256v-15.823C449.991,390.35,432.873,390.281,413.231,391.304L413.231,391.304z
		"/>
	<path fill="#003A66" d="M370.605,438.977c-1.773,0.546-4.433,1.023-6.889,1.023c-8.252,0-14.936-4.501-14.936-13.641
		c0-8.593,6.956-12.958,14.936-12.958c2.66,0,4.229,0.341,6.752,0.818v6.752c-1.568-0.545-3.205-0.955-4.773-0.955
		c-4.093,0-7.161,2.251-7.161,6.479c0,4.434,2.864,6.684,6.82,6.684c1.772,0,3.409-0.341,5.183-1.022v6.819H370.605z
		 M393.248,420.836c-2.387-0.819-4.842-1.296-7.365-1.296c-1.501,0-4.093,0.067-4.093,1.705c0,3.342,13.095,0.204,13.095,10.094
		c0,6.888-6.615,8.593-12.14,8.593c-3.683,0-6.684-0.341-10.298-1.228v-6.684c2.591,1.091,5.729,1.705,8.593,1.705
		c2.251,0,4.297-0.478,4.297-1.773c0-3.479-13.095-0.341-13.095-10.298c0-7.093,7.161-8.321,12.822-8.321
		c2.659,0,5.66,0.342,8.252,0.887L393.248,420.836L393.248,420.836L393.248,420.836z M410.162,440
		c-8.729,0-13.845-4.501-13.845-13.299c0-8.594,5.115-13.3,13.845-13.3s13.913,4.706,13.913,13.3
		C424.075,435.431,418.892,440,410.162,440z M410.162,433.794c3.751,0,3.888-4.365,3.956-7.093c0-2.388-0.273-7.094-3.956-7.094
		c-3.547,0-3.819,4.706-3.819,7.094C406.343,429.429,406.752,433.794,410.162,433.794z M426.462,413.811h15.687
		c4.297,0,8.594,1.433,8.594,6.343c0,3.547-1.842,5.388-5.115,6.274v0.137c3.478,0.478,5.592,3.273,5.592,5.865
		c0,6.479-5.047,7.161-10.229,7.161H426.53v-25.78H426.462z M435.465,434.203h2.523c1.773,0,3.614-0.683,3.614-2.66
		c0-2.183-1.773-2.592-3.546-2.592h-2.592V434.203L435.465,434.203z M435.465,423.632h2.387c1.705,0,3.479-0.546,3.479-2.455
		c0-1.91-1.568-2.523-3.273-2.523h-2.592V423.632z"/>
	<path fill="#003A66" d="M353.828,411.492c0,0,3.001,2.592,7.57,2.592c4.297,0,7.502-2.114,9.139-3.888l-0.75-0.546
		c0,0-2.183,2.387-6.343,2.387c-4.365-0.067-6.889-3.068-6.889-3.068L353.828,411.492L353.828,411.492z"/>
</g>
</svg>
