<?xml version="1.0" encoding="UTF-8"?>
<!DOCTYPE svg PUBLIC "-//W3C//DTD SVG 1.1//EN" "http://www.w3.org/Graphics/SVG/1.1/DTD/svg11.dtd">
<svg version="1.1" xmlns="http://www.w3.org/2000/svg" xmlns:xlink="http://www.w3.org/1999/xlink" x="0" y="0" width="200" height="200" viewBox="0, 0, 200, 200">
  <g id="Background">
    <rect x="0" y="0" width="200" height="200" fill="#FFFFFF"/>
  </g>
  <g id="Background">
    <path d="M75.81,82 L46.65,82 C45.07,82 43.78,83.29 43.78,84.87 L43.78,114.14 C43.78,115.71 45.07,117 46.65,117 L65.93,117 L75.92,117 C77.5,117 78.79,115.71 78.79,114.13 L78.79,84.87 C78.68,83.29 77.4,82 75.81,82 M97.66,95.15 L97.66,91.89 L88.07,91.89 L88.07,106.82 L92.12,106.82 L92.12,101.18 L97.36,101.18 L97.36,97.92 L92.12,97.92 L92.12,95.15 L97.66,95.15 z M104.29,107.11 C107.35,107.11 110.12,105.23 110.12,101.28 C110.12,98.02 107.85,95.74 104.48,95.74 C100.72,95.74 98.45,98.01 98.45,101.47 C98.55,105.04 101.03,107.11 104.29,107.11 L104.29,107.11 z M104.39,104.25 C103.2,104.25 102.61,102.96 102.61,101.38 C102.61,99.9 103.01,98.51 104.39,98.51 C105.58,98.51 106.07,99.89 106.07,101.38 C106.07,103.16 105.47,104.25 104.39,104.25 L104.39,104.25 z M118.13,95.74 C117.14,95.74 115.76,96.33 115.26,97.92 L115.16,97.92 L114.96,95.94 L111.6,95.94 C111.7,96.83 111.7,97.92 111.7,99.6 L111.7,106.82 L115.75,106.82 L115.75,101.48 C115.75,101.18 115.75,100.99 115.75,100.79 C115.95,99.9 116.74,99.41 117.93,99.41 C118.33,99.41 118.62,99.41 118.92,99.51 L118.92,95.75 C118.62,95.74 118.43,95.74 118.13,95.74 M126.53,95.74 C125.54,95.74 124.16,96.33 123.66,97.92 L123.56,97.92 L123.36,95.94 L119.9,95.94 C120,96.83 120,97.92 120,99.6 L120,106.82 L124.05,106.82 L124.05,101.48 C124.05,101.18 124.05,100.99 124.05,100.79 C124.25,99.9 125.04,99.41 126.23,99.41 C126.63,99.41 126.92,99.41 127.22,99.51 L127.22,95.75 C127.03,95.74 126.83,95.74 126.53,95.74 M138.3,102.76 C138.4,102.46 138.5,101.87 138.5,101.28 C138.5,98.31 137.02,95.74 133.46,95.74 C129.41,95.74 127.82,99 127.82,101.57 C127.82,105.03 130,107.11 133.85,107.11 C135.23,107.11 136.62,106.91 137.9,106.42 L137.41,103.75 C136.42,104.05 135.43,104.15 134.44,104.15 C133.06,104.15 131.77,103.66 131.67,102.77 L138.3,102.77 z M131.58,100.09 C131.68,99.4 132.07,98.31 133.26,98.31 C134.55,98.31 134.84,99.5 134.84,100.09 L131.58,100.09 z M145.02,100.09 C143.73,99.69 143.34,99.5 143.34,99.1 C143.34,98.7 143.74,98.51 144.43,98.51 C145.32,98.51 146.31,98.91 146.8,99.1 L147.39,96.43 C146.7,96.13 145.51,95.84 144.13,95.84 C141.26,95.84 139.38,97.42 139.38,99.6 C139.38,100.89 140.17,102.17 142.54,102.96 C143.73,103.36 143.92,103.45 143.92,103.85 C143.92,104.25 143.62,104.44 142.73,104.44 C141.74,104.44 140.36,104.04 139.76,103.65 L139.07,106.42 C139.96,106.82 141.25,107.21 142.83,107.21 C146.19,107.21 147.77,105.63 147.77,103.55 C147.99,101.87 147.1,100.69 145.02,100.09 M156,98.91 L156,95.94 L153.73,95.94 L153.73,92.88 L149.87,93.97 L149.87,96.05 L148.49,96.05 L148.49,99.02 L149.87,99.02 L149.87,102.88 C149.87,104.56 150.27,105.65 150.86,106.24 C151.45,106.83 152.44,107.23 153.63,107.23 C154.62,107.23 155.51,107.13 156,106.93 L156,103.77 C155.7,103.87 155.51,103.87 155.01,103.87 C154.02,103.87 153.72,103.38 153.72,102.09 L153.72,98.93 L156,98.93 z" fill="#F02828"/>
    <path d="M67.11,97.72 L67.11,101.28 L69.38,101.28 L69.38,104.25 C69.18,104.35 68.59,104.45 67.9,104.45 C65.72,104.45 63.85,102.57 63.85,99.41 C63.85,95.95 66.32,94.47 68.2,94.47 C70.08,94.47 71.26,94.77 72.25,95.16 L73.14,91.5 C72.25,91.1 70.47,90.71 68.2,90.71 C62.66,90.71 59.1,93.77 59.1,99.71 C59.1,102.18 59.89,104.36 61.57,105.84 C63.15,107.32 64.54,108.11 67.8,108.11 C70.07,108.11 72.45,107.62 73.73,107.12 L73.73,97.73 C73.74,97.72 67.11,97.72 67.11,97.72 z M57.33,99.9 C57.33,99.8 57.33,99.7 57.33,99.6 L57.33,99.5 L57.33,99.5 L57.33,99.4 C57.33,98.81 57.33,98.21 57.43,97.62 L53.97,97.62 L53.97,94.46 L58.22,94.46 C58.62,93.57 59.11,92.78 59.7,92.09 L59.7,90.7 L49.42,90.7 L49.42,107.8 L53.97,107.8 L53.97,101.27 L57.43,101.27 C57.33,100.88 57.33,100.39 57.33,99.9" fill="#FFFFFF"/>
  </g>
</svg>
