<?xml version="1.0" encoding="utf-8"?>
<!-- Generator: Adobe Illustrator 16.0.3, SVG Export Plug-In . SVG Version: 6.00 Build 0)  -->
<!DOCTYPE svg PUBLIC "-//W3C//DTD SVG 1.1//EN" "http://www.w3.org/Graphics/SVG/1.1/DTD/svg11.dtd">
<svg version="1.1" id="Vrstva_1" xmlns="http://www.w3.org/2000/svg" xmlns:xlink="http://www.w3.org/1999/xlink" x="0px" y="0px"
	 width="200px" height="200px" viewBox="0 0 200 200" enable-background="new 0 0 200 200" xml:space="preserve">
<g id="Background_1_">
</g>
<linearGradient id="SVGID_1_" gradientUnits="userSpaceOnUse" x1="95.2021" y1="672.6328" x2="165.6461" y2="773.2361" gradientTransform="matrix(1.0773 0 0 1.0773 -40.7722 -679.0842)">
	<stop  offset="0.243" style="stop-color:#F19303"/>
	<stop  offset="0.283" style="stop-color:#E98C06"/>
	<stop  offset="1" style="stop-color:#601334"/>
</linearGradient>
<path fill="url(#SVGID_1_)" d="M88.797,101.323h-8.931v27.207h3.792v-10.762h5.139c2.541,0,4.534-0.753,5.979-2.257
	s2.167-3.493,2.167-5.967c0-2.46-0.723-4.445-2.167-5.955C93.332,102.078,91.338,101.323,88.797,101.323L88.797,101.323z
	 M92.049,113.379c-0.735,1.008-1.819,1.511-3.252,1.511h-5.139v-10.688h5.139c1.445,0,2.531,0.509,3.261,1.527
	c0.728,1.02,1.092,2.304,1.092,3.854C93.151,111.107,92.784,112.373,92.049,113.379z M105.661,116.794h5.14
	c1.207,0,2.157,0.444,2.85,1.329c0.69,0.887,1.036,2.091,1.036,3.612v2.302c0,0.924,0.059,1.801,0.178,2.63
	c0.119,0.831,0.389,1.45,0.813,1.863h3.904V128.1c-0.411-0.41-0.7-0.975-0.867-1.69c-0.175-0.765-0.258-1.546-0.253-2.328v-2.376
	c0-1.619-0.302-2.98-0.908-4.083c-0.604-1.104-1.584-1.886-2.942-2.348c1.233-0.599,2.178-1.426,2.832-2.485
	c0.654-1.057,0.981-2.297,0.981-3.717c0-2.49-0.704-4.399-2.111-5.731c-1.41-1.333-3.401-1.999-5.98-1.999h-8.464v27.188h3.791
	v-11.735L105.661,116.794L105.661,116.794z M105.661,104.22h4.673c1.443,0,2.521,0.43,3.231,1.291
	c0.711,0.862,1.066,2.072,1.066,3.632c0,1.523-0.364,2.7-1.094,3.528c-0.729,0.832-1.858,1.246-3.391,1.246h-4.486V104.22
	L105.661,104.22z M116.798,92.45c1.824-2.167,2.738-4.97,2.738-8.407v-3.868c0-3.426-0.914-6.229-2.738-8.41
	c-1.824-2.179-4.182-3.269-7.072-3.269h-7.476v27.206h7.476C112.616,95.702,114.974,94.618,116.798,92.45L116.798,92.45z
	 M106.046,92.824V71.373h3.549c1.906,0,3.411,0.813,4.513,2.442s1.652,3.729,1.652,6.298v3.913c0,2.597-0.551,4.711-1.652,6.346
	c-1.104,1.635-2.606,2.452-4.513,2.452L106.046,92.824L106.046,92.824z M81.754,93.497c-1.745-1.732-2.616-4.199-2.616-7.4v-8.072
	c0-3.153,0.827-5.593,2.484-7.325c1.657-1.732,3.856-2.598,6.597-2.598c2.778,0,4.902,0.701,6.373,2.103
	c1.469,1.4,2.254,3.367,2.354,5.895l-0.038,0.112h-3.587c-0.063-1.705-0.508-3.005-1.336-3.896c-0.83-0.89-2.065-1.336-3.711-1.336
	c-1.656,0-2.963,0.595-3.924,1.789c-0.959,1.191-1.439,2.922-1.439,5.193v8.123c0,2.321,0.514,4.089,1.542,5.306
	c1.028,1.216,2.426,1.825,4.195,1.825c1.296,0,2.301-0.221,3.018-0.664c0.716-0.442,1.249-1.005,1.597-1.69v-6.186h-4.652v-2.747
	h8.446v9.903c-0.624,1.096-1.635,2.08-3.037,2.952c-1.401,0.873-3.192,1.308-5.372,1.308c-2.854,0-5.152-0.864-6.897-2.596
	L81.754,93.497L81.754,93.497z M147.233,147.233v-95h-95v95H147.233z M53.744,53.744h91.978v91.978H53.744V53.744L53.744,53.744z"/>
</svg>
