<?xml version="1.0" encoding="UTF-8"?>
<!DOCTYPE svg PUBLIC "-//W3C//DTD SVG 1.1//EN" "http://www.w3.org/Graphics/SVG/1.1/DTD/svg11.dtd">
<svg version="1.1" xmlns="http://www.w3.org/2000/svg" xmlns:xlink="http://www.w3.org/1999/xlink" x="0" y="0" width="200" height="200" viewBox="0, 0, 200, 200">
  <defs>
    <clipPath id="Clip_1">
      <path d="M100,49.001 C121.431,49.001 138.805,66.373 138.804,87.805 C138.805,109.236 121.431,126.61 100,126.609 C78.569,126.61 61.196,109.236 61.196,87.805 C61.196,66.373 78.569,49.001 100,49.001 z M100,75.658 C93.293,75.658 87.853,81.096 87.853,87.805 C87.853,94.513 93.293,99.951 100,99.951 C106.708,99.951 112.146,94.513 112.146,87.805 C112.146,81.096 106.708,75.658 100,75.658 z"/>
    </clipPath>
  </defs>
  <g id="Layer_2">
    <path d="M138.743,126.604 C131.878,126.592 125.216,124.692 119.464,121.382 C130.432,115.011 137.992,103.419 138.743,90.008 L138.743,126.604 M101.976,99.792 C100.776,96.068 100.125,92.097 100.109,87.975 L138.743,87.975 L112.145,87.975 C112.063,93.934 107.689,98.857 101.976,99.792 M138.743,87.975 L138.743,87.975 M138.743,87.975 L138.743,87.88 L138.743,87.975 M100.108,87.975 L100.108,87.975 L100.108,87.819 C100.108,87.871 100.109,87.923 100.109,87.975" fill="#464644"/>
    <g clip-path="url(#Clip_1)">
      <path d="M72.587,115.27 C65.587,108.282 61.241,98.636 61.196,87.975 L87.854,87.975 C87.9,91.271 89.258,94.249 91.429,96.412 L72.587,115.27" fill="#5F605C"/>
      <path d="M100,126.609 C89.334,126.609 79.673,122.306 72.659,115.341 L91.508,96.489 C93.698,98.631 96.695,99.952 100,99.952 C100.037,99.952 100.073,99.952 100.109,99.951 L100.109,126.609 C100.072,126.609 100.036,126.609 100,126.609" fill="#20211F"/>
      <path d="M72.659,115.342 C72.635,115.318 72.612,115.294 72.587,115.27 L91.429,96.412 C91.455,96.437 91.482,96.463 91.508,96.489 L72.659,115.342" fill="#111210"/>
      <path d="M91.311,79.318 L72.46,60.467 C79.49,53.385 89.233,49 99.999,49 C100.036,49 100.072,49 100.109,49 L100.109,75.659 C100.072,75.659 100.037,75.658 100,75.658 C96.595,75.658 93.516,77.06 91.311,79.318" fill="#161615"/>
      <path d="M87.855,87.975 L61.195,87.975 C61.195,87.919 61.195,87.861 61.195,87.805 C61.195,77.147 65.492,67.492 72.448,60.479 L91.237,79.394 C89.141,81.577 87.854,84.541 87.854,87.805 C87.854,87.862 87.854,87.918 87.855,87.975" fill="#464644"/>
      <path d="M91.237,79.394 L72.448,60.478 C72.453,60.475 72.456,60.471 72.46,60.467 L91.31,79.318 C91.286,79.343 91.261,79.369 91.237,79.394" fill="#0E0E0C"/>
      <path d="M108.618,79.245 C106.479,77.091 103.537,75.734 100.279,75.661 L100.279,49.001 C110.899,49.076 120.504,53.418 127.468,60.395 L108.618,79.245" fill="#5F605C"/>
      <path d="M100.279,75.661 C100.222,75.66 100.166,75.659 100.109,75.658 L100.109,49.001 C100.165,49.001 100.223,49.001 100.279,49.001 L100.279,75.661" fill="#0F0F0D"/>
      <path d="M100.109,126.609 L100.109,99.951 C100.744,99.946 101.367,99.892 101.976,99.791 C103.874,105.688 107.144,110.967 111.431,115.248 C113.806,117.62 116.516,119.686 119.463,121.383 C113.771,124.689 107.162,126.589 100.109,126.609 M138.743,90.008 L138.743,87.975 L138.804,87.975 C138.801,88.658 138.781,89.334 138.743,90.008" fill="#464644"/>
      <path d="M119.464,121.382 C116.516,119.686 113.806,117.62 111.431,115.247 C107.144,110.966 103.874,105.688 101.976,99.792 C107.69,98.857 112.062,93.934 112.145,87.975 L138.742,87.975 L138.742,90.008 C137.993,103.418 130.432,115.011 119.464,121.382" fill="#151614"/>
    </g>
    <g>
      <path d="M78.947,145.18 L78.947,149.997 C77.995,150.574 76.435,150.894 75.249,150.894 C71.939,150.894 70.019,148.534 70.019,145.76 C70.019,142.863 72.132,140.626 75.112,140.626 C76.906,140.626 77.995,141.111 78.754,141.897 L77.816,142.904 C77.016,142.131 76.091,141.87 75.112,141.87 C72.876,141.87 71.427,143.623 71.427,145.76 C71.427,147.965 73.07,149.649 75.222,149.649 C76.146,149.649 77.03,149.472 77.622,149.14 L77.622,146.421 L75.457,146.421 L75.457,145.18 z" fill="#0A0B09"/>
      <path d="M75.112,140.734 C72.224,140.734 70.125,142.848 70.125,145.76 C70.125,148.718 72.233,150.785 75.25,150.785 C76.289,150.785 77.844,150.517 78.841,149.934 L78.841,145.287 L75.562,145.287 L75.562,146.316 L77.728,146.316 L77.728,149.202 L77.675,149.232 C77.079,149.567 76.185,149.758 75.222,149.758 C72.999,149.758 71.321,148.039 71.321,145.76 C71.321,143.442 72.915,141.762 75.112,141.762 C76.199,141.762 77.083,142.086 77.812,142.754 L78.606,141.897 C77.798,141.103 76.683,140.734 75.112,140.734 M75.25,150.999 C72.107,150.999 69.914,148.842 69.914,145.76 C69.914,142.775 72.148,140.519 75.112,140.519 C76.793,140.519 77.975,140.933 78.832,141.822 L78.901,141.894 L77.821,143.055 L77.742,142.981 C77.041,142.304 76.18,141.975 75.112,141.975 C73.038,141.975 71.533,143.566 71.533,145.76 C71.533,147.916 73.118,149.542 75.222,149.542 C76.121,149.542 76.95,149.375 77.517,149.077 L77.517,146.527 L75.348,146.527 L75.348,145.071 L79.053,145.071 L79.053,150.057 L79.005,150.087 C77.975,150.714 76.337,150.999 75.25,150.999" fill="#0A0B09"/>
      <path d="M83.437,149.649 C84.762,149.649 85.589,148.7 85.589,147.373 C85.589,146.05 84.762,145.099 83.437,145.099 C82.112,145.099 81.285,146.05 81.285,147.373 C81.285,148.7 82.112,149.649 83.437,149.649 M83.437,143.938 C85.384,143.938 86.916,145.47 86.916,147.373 C86.916,149.278 85.384,150.808 83.437,150.808 C81.493,150.808 79.958,149.278 79.958,147.373 C79.958,145.47 81.493,143.938 83.437,143.938" fill="#0A0B09"/>
      <path d="M83.437,145.204 C82.214,145.204 81.391,146.076 81.391,147.373 C81.391,148.67 82.214,149.543 83.437,149.543 C84.66,149.543 85.484,148.67 85.484,147.373 C85.484,146.076 84.66,145.204 83.437,145.204 M83.437,149.758 C82.088,149.758 81.177,148.8 81.177,147.373 C81.177,145.949 82.088,144.99 83.437,144.99 C84.788,144.99 85.697,145.949 85.697,147.373 C85.697,148.8 84.788,149.758 83.437,149.758 M83.437,144.044 C81.548,144.044 80.067,145.509 80.067,147.373 C80.067,149.239 81.548,150.704 83.437,150.704 C85.327,150.704 86.807,149.239 86.807,147.373 C86.807,145.509 85.327,144.044 83.437,144.044 M83.437,150.916 C81.427,150.916 79.855,149.359 79.855,147.373 C79.855,145.387 81.427,143.831 83.437,143.831 C85.449,143.831 87.019,145.387 87.019,147.373 C87.019,149.359 85.449,150.916 83.437,150.916" fill="#0A0B09"/>
      <path d="M91.097,149.649 C92.422,149.649 93.249,148.7 93.249,147.373 C93.249,146.05 92.422,145.099 91.097,145.099 C89.77,145.099 88.945,146.05 88.945,147.373 C88.945,148.7 89.77,149.649 91.097,149.649 M91.097,143.938 C93.042,143.938 94.574,145.47 94.574,147.373 C94.574,149.278 93.042,150.808 91.097,150.808 C89.151,150.808 87.621,149.278 87.621,147.373 C87.621,145.47 89.151,143.938 91.097,143.938" fill="#0A0B09"/>
      <path d="M91.097,145.204 C89.872,145.204 89.053,146.076 89.053,147.373 C89.053,148.67 89.872,149.543 91.097,149.543 C92.32,149.543 93.141,148.67 93.141,147.373 C93.141,146.076 92.32,145.204 91.097,145.204 M91.097,149.758 C89.744,149.758 88.837,148.8 88.837,147.373 C88.837,145.949 89.744,144.99 91.097,144.99 C92.449,144.99 93.355,145.949 93.355,147.373 C93.355,148.8 92.449,149.758 91.097,149.758 M91.097,144.044 C89.209,144.044 87.727,145.509 87.727,147.373 C87.727,149.239 89.209,150.704 91.097,150.704 C92.987,150.704 94.469,149.239 94.469,147.373 C94.469,145.509 92.987,144.044 91.097,144.044 M91.097,150.916 C89.086,150.916 87.513,149.359 87.513,147.373 C87.513,145.387 89.086,143.831 91.097,143.831 C93.106,143.831 94.68,145.387 94.68,147.373 C94.68,149.359 93.106,150.916 91.097,150.916" fill="#0A0B09"/>
      <path d="M100.937,147.373 C100.937,146.051 100.11,145.099 98.784,145.099 C97.461,145.099 96.634,146.051 96.634,147.373 C96.634,148.7 97.461,149.65 98.784,149.65 C100.11,149.65 100.937,148.7 100.937,147.373 M102.181,150.644 L100.937,150.644 L100.937,149.707 L100.909,149.707 C100.429,150.41 99.517,150.808 98.633,150.808 C96.607,150.808 95.311,149.305 95.311,147.373 C95.311,145.414 96.62,143.938 98.633,143.938 C99.573,143.938 100.467,144.366 100.909,145.044 L100.937,145.044 L100.937,140.715 L102.181,140.715 z" fill="#0A0B09"/>
      <path d="M98.785,145.204 C97.562,145.204 96.739,146.076 96.739,147.373 C96.739,148.67 97.562,149.543 98.785,149.543 C100.011,149.543 100.83,148.67 100.83,147.373 C100.83,146.076 100.011,145.204 98.785,145.204 M98.785,149.758 C97.435,149.758 96.528,148.8 96.528,147.373 C96.528,145.949 97.435,144.99 98.785,144.99 C100.137,144.99 101.043,145.949 101.043,147.373 C101.043,148.8 100.137,149.758 98.785,149.758 M98.632,144.044 C96.739,144.044 95.414,145.413 95.414,147.373 C95.414,149.334 96.739,150.704 98.632,150.704 C99.522,150.704 100.382,150.289 100.822,149.646 L100.857,149.601 L101.017,149.601 L101.043,149.707 L101.043,150.539 L102.073,150.539 L102.073,140.82 L101.043,140.82 L101.043,145.149 L100.879,145.149 L100.822,145.099 C100.403,144.458 99.544,144.044 98.632,144.044 M98.632,150.916 C96.616,150.916 95.203,149.458 95.203,147.373 C95.203,145.288 96.616,143.831 98.632,143.831 C99.504,143.831 100.336,144.189 100.83,144.761 L100.83,140.609 L102.287,140.609 L102.287,150.751 L100.83,150.751 L100.83,149.98 C100.321,150.554 99.49,150.916 98.632,150.916" fill="#0A0B09"/>
      <path d="M105.154,149.403 L106.392,149.403 C108.627,149.403 110.531,148.174 110.531,145.76 C110.531,144.516 109.883,142.044 106.71,142.044 L105.154,142.044 z M103.828,140.805 L106.805,140.805 C110.93,140.805 111.937,143.952 111.937,145.76 C111.937,148.258 110.076,150.644 106.584,150.644 L103.828,150.644 z" fill="#0A0B09"/>
      <path d="M105.259,149.296 L106.392,149.296 C108.251,149.296 110.424,148.371 110.424,145.76 C110.424,145.389 110.321,142.15 106.71,142.15 L105.259,142.15 z M106.392,149.508 L105.046,149.508 L105.046,141.938 L106.71,141.938 C110.528,141.938 110.636,145.369 110.636,145.76 C110.636,148.35 108.508,149.508 106.392,149.508 M103.933,150.539 L106.584,150.539 C110.189,150.539 111.832,148.059 111.832,145.76 C111.832,145.262 111.692,140.911 106.805,140.911 L103.933,140.911 z M106.584,150.751 L103.723,150.751 L103.723,140.699 L106.805,140.699 C110.943,140.699 112.044,143.88 112.044,145.76 C112.044,148.239 110.171,150.751 106.584,150.751" fill="#0A0B09"/>
      <path d="M116.417,147.497 C115.241,147.497 113.806,147.704 113.806,148.756 C113.806,149.499 114.359,149.815 115.216,149.815 C116.594,149.815 117.078,148.796 117.078,147.912 L117.078,147.497 z M112.91,144.906 C113.601,144.256 114.595,143.938 115.504,143.938 C117.436,143.938 118.237,144.987 118.237,146.117 L118.237,149.458 C118.237,149.914 118.251,150.298 118.292,150.643 L117.189,150.643 C117.161,150.313 117.147,149.984 117.147,149.65 L117.119,149.65 C116.566,150.491 115.82,150.808 114.829,150.808 C113.615,150.808 112.565,150.119 112.565,148.85 C112.565,147.168 114.179,146.588 116.168,146.588 L117.078,146.588 L117.078,146.311 C117.078,145.633 116.58,144.931 115.518,144.931 C114.567,144.931 114.11,145.334 113.656,145.677 z" fill="#0A0B09"/>
      <path d="M116.417,147.605 C115.273,147.605 113.912,147.804 113.912,148.755 C113.912,149.386 114.352,149.709 115.216,149.709 C116.508,149.709 116.972,148.782 116.972,147.911 L116.972,147.605 z M115.216,149.923 C114.239,149.923 113.7,149.508 113.7,148.755 C113.7,148.133 114.173,147.391 116.417,147.391 L117.184,147.391 L117.184,147.911 C117.184,148.84 116.667,149.923 115.216,149.923 M116.168,146.693 C114.571,146.693 112.674,147.066 112.674,148.849 C112.674,150.131 113.756,150.704 114.829,150.704 C115.848,150.704 116.525,150.359 117.03,149.591 L117.062,149.542 L117.225,149.542 L117.252,149.649 C117.252,149.947 117.262,150.243 117.287,150.539 L118.173,150.539 C118.142,150.243 118.131,149.902 118.131,149.458 L118.131,146.116 C118.131,145.114 117.442,144.044 115.504,144.044 C114.59,144.044 113.687,144.366 113.065,144.91 L113.665,145.534 L113.682,145.522 C114.108,145.196 114.595,144.824 115.518,144.824 C116.664,144.824 117.184,145.594 117.184,146.311 L117.184,146.693 z M114.829,150.916 C113.433,150.916 112.459,150.066 112.459,148.849 C112.459,147.322 113.776,146.48 116.168,146.48 L116.972,146.48 L116.972,146.311 C116.972,145.698 116.516,145.039 115.518,145.039 C114.665,145.039 114.233,145.371 113.811,145.693 L113.645,145.817 L112.761,144.901 L112.839,144.827 C113.5,144.203 114.497,143.831 115.504,143.831 C117.599,143.831 118.342,145.01 118.342,146.116 L118.342,149.458 C118.342,149.956 118.358,150.317 118.398,150.633 L118.411,150.75 L117.089,150.75 L117.082,150.654 C117.062,150.417 117.048,150.177 117.044,149.937 C116.519,150.604 115.806,150.916 114.829,150.916" fill="#0A0B09"/>
      <path d="M123.37,145.18 L121.589,145.18 L121.589,148.147 C121.589,148.878 121.589,149.649 122.527,149.649 C122.817,149.649 123.162,149.608 123.408,149.458 L123.408,150.589 C123.121,150.755 122.541,150.808 122.294,150.808 C120.375,150.808 120.35,149.635 120.35,148.587 L120.35,145.18 L118.914,145.18 L118.914,144.104 L120.35,144.104 L120.35,142.268 L121.589,142.268 L121.589,144.104 L123.37,144.104 z" fill="#0A0B09"/>
      <path d="M119.02,145.071 L120.455,145.071 L120.455,148.587 C120.455,149.581 120.455,150.704 122.293,150.704 C122.559,150.704 123.041,150.646 123.303,150.522 L123.303,149.63 C123.049,149.732 122.75,149.757 122.526,149.757 C121.481,149.757 121.481,148.864 121.481,148.147 L121.481,145.071 L123.264,145.071 L123.264,144.21 L121.481,144.21 L121.481,142.376 L120.455,142.376 L120.455,144.21 L119.02,144.21 z M122.293,150.916 C120.242,150.916 120.242,149.571 120.242,148.587 L120.242,145.287 L118.806,145.287 L118.806,143.998 L120.242,143.998 L120.242,142.165 L121.695,142.165 L121.695,143.998 L123.477,143.998 L123.477,145.287 L121.695,145.287 L121.695,148.147 C121.695,149.016 121.752,149.542 122.526,149.542 C122.773,149.542 123.116,149.513 123.355,149.366 L123.517,149.264 L123.517,150.651 L123.464,150.682 C123.128,150.873 122.49,150.916 122.293,150.916" fill="#0A0B09"/>
      <path d="M128.088,147.497 C126.916,147.497 125.479,147.704 125.479,148.756 C125.479,149.499 126.032,149.815 126.887,149.815 C128.265,149.815 128.75,148.796 128.75,147.912 L128.75,147.497 z M124.585,144.906 C125.273,144.256 126.269,143.938 127.178,143.938 C129.108,143.938 129.909,144.987 129.909,146.117 L129.909,149.458 C129.909,149.914 129.925,150.298 129.966,150.643 L128.862,150.643 C128.835,150.313 128.821,149.984 128.821,149.65 L128.79,149.65 C128.241,150.491 127.496,150.808 126.502,150.808 C125.287,150.808 124.238,150.119 124.238,148.85 C124.238,147.168 125.853,146.588 127.839,146.588 L128.75,146.588 L128.75,146.311 C128.75,145.633 128.254,144.931 127.193,144.931 C126.24,144.931 125.784,145.334 125.329,145.677 z" fill="#0A0B09"/>
      <path d="M128.088,147.605 C126.948,147.605 125.588,147.804 125.588,148.755 C125.588,149.386 126.024,149.709 126.887,149.709 C128.182,149.709 128.643,148.782 128.643,147.911 L128.643,147.605 z M126.887,149.923 C125.911,149.923 125.375,149.508 125.375,148.755 C125.375,148.133 125.844,147.391 128.088,147.391 L128.856,147.391 L128.856,147.911 C128.856,148.84 128.339,149.923 126.887,149.923 M127.839,146.693 C126.245,146.693 124.346,147.066 124.346,148.849 C124.346,150.131 125.428,150.704 126.502,150.704 C127.519,150.704 128.199,150.359 128.702,149.591 L128.735,149.542 L128.899,149.542 L128.927,149.649 C128.927,149.947 128.938,150.243 128.959,150.539 L129.846,150.539 C129.816,150.243 129.802,149.902 129.802,149.458 L129.802,146.116 C129.802,145.114 129.113,144.044 127.178,144.044 C126.264,144.044 125.36,144.366 124.735,144.91 L125.339,145.534 L125.353,145.522 C125.782,145.196 126.265,144.824 127.193,144.824 C128.337,144.824 128.856,145.594 128.856,146.311 L128.856,146.693 z M126.502,150.916 C125.105,150.916 124.132,150.066 124.132,148.849 C124.132,147.322 125.449,146.48 127.839,146.48 L128.643,146.48 L128.643,146.311 C128.643,145.698 128.188,145.039 127.193,145.039 C126.339,145.039 125.904,145.371 125.484,145.693 L125.319,145.817 L124.431,144.901 L124.511,144.827 C125.173,144.203 126.169,143.831 127.178,143.831 C129.272,143.831 130.015,145.01 130.015,146.116 L130.015,149.458 C130.015,149.956 130.033,150.317 130.069,150.633 L130.085,150.75 L128.763,150.75 L128.756,150.654 C128.735,150.417 128.721,150.177 128.714,149.937 C128.191,150.604 127.477,150.916 126.502,150.916" fill="#0A0B09"/>
    </g>
  </g>
</svg>
