<?xml version="1.0" encoding="UTF-8"?>
<!DOCTYPE svg PUBLIC "-//W3C//DTD SVG 1.1//EN" "http://www.w3.org/Graphics/SVG/1.1/DTD/svg11.dtd">
<svg version="1.1" xmlns="http://www.w3.org/2000/svg" xmlns:xlink="http://www.w3.org/1999/xlink" x="0" y="0" width="200" height="200" viewBox="0, 0, 200, 200">
  <g id="Layer_1">
    <path d="M108.02,103.224 C108.02,104.188 107.325,104.363 106.816,104.374 L106.08,104.374 C105.104,104.378 104.93,103.839 104.93,103.321 L104.93,100.51 C104.93,100.51 101.602,103.867 101.602,103.916 C99.983,105.287 98.111,103.298 99.356,101.76 L102.794,98.35 L100.051,98.35 C99.454,98.324 98.954,98.224 98.954,97.2 L98.954,96.344 C98.954,95.468 99.555,95.204 100.151,95.194 L108.02,95.194 z M111.042,91.18 L96.346,91.18 C94.832,91.289 93.968,92.386 93.968,94.027 L93.968,95.708 L93.968,107.402 L93.968,117.938 L99.734,117.938 L99.734,108.831 L109.973,108.831 C111.482,108.942 113.003,108.065 113.003,106.311 L113.003,93.667 C113.003,91.764 111.689,91.18 111.042,91.18" fill="#BA2229"/>
    <path d="M135.166,82.12 C133.046,82.12 131.334,83.837 131.334,85.955 C131.334,88.071 133.046,89.785 135.166,89.785 C137.284,89.785 138.996,88.071 138.996,85.955 C138.996,83.837 137.284,82.12 135.166,82.12" fill="#BA2229"/>
    <path d="M122.896,94.756 L122.83,94.756 L122.83,91.171 L116.521,91.171 L116.521,108.908 L123.458,108.908 L123.458,102.783 C123.458,98.959 124.902,97.602 127.738,97.602 C128.203,97.602 128.7,97.734 129.168,97.805 L129.168,90.762 C128.874,90.727 128.566,90.66 128.273,90.66 C125.572,90.66 123.86,91.983 122.896,94.756" fill="#BA2229"/>
    <path d="M131.676,108.908 L138.622,108.908 L138.622,91.169 L131.676,91.169 z" fill="#BA2229"/>
    <path d="M176.211,95.227 L176.211,91.167 L172.882,91.167 L172.882,85.647 L166.033,85.647 L166.033,91.167 L157.591,91.167 C156.734,90.836 155.74,90.658 154.575,90.658 C151.941,90.658 150.241,91.811 148.672,93.941 L148.672,91.167 L142.326,91.167 L142.326,108.907 L149.273,108.907 L149.273,99.875 C149.273,97.6 149.843,96.21 151.975,96.21 C153.946,96.21 154.413,97.769 154.413,99.53 L154.413,108.907 L161.355,108.907 L161.355,98.277 C161.355,97.141 161.227,96.127 160.994,95.227 L165.936,95.227 L165.936,102.646 C165.936,108.778 167.036,109.415 176.144,108.907 L176.144,103.867 L175.049,103.867 C173.109,103.867 172.882,103.296 172.882,101.662 L172.882,95.227 z" fill="#BA2229"/>
    <path d="M24.086,108.908 L31.033,108.908 L31.033,91.169 L24.086,91.169 z" fill="#BA2229"/>
    <path d="M46.826,108.907 L46.826,99.53 C46.826,97.769 46.354,96.21 44.385,96.21 C42.249,96.21 41.681,97.6 41.681,99.874 L41.681,108.907 L34.737,108.907 L34.737,91.166 L41.081,91.166 L41.081,93.939 C42.648,91.81 44.355,90.658 46.989,90.658 C51.596,90.658 53.766,93.401 53.766,98.277 L53.766,108.907 z" fill="#5D5E5D"/>
    <path d="M63.386,98.038 C63.386,96.146 64.555,94.957 66.627,94.957 C68.258,94.957 69.696,96.419 69.696,98.038 z M90.897,95.227 L90.897,91.166 L87.557,91.166 L87.557,85.647 L80.713,85.647 L80.713,91.166 L69.696,91.166 C68.67,90.865 67.575,90.658 66.357,90.658 C60.749,90.658 56.44,94.384 56.44,100.213 C56.44,106.17 60.78,109.415 66.389,109.415 C70.461,109.415 74.868,107.966 76.072,103.56 L69.428,103.56 C68.927,104.61 67.925,105.119 66.824,105.119 C64.987,105.119 63.386,103.729 63.386,101.63 L76.638,101.63 C76.679,99.166 76.119,96.986 75.063,95.227 L80.618,95.227 L80.618,102.646 C80.618,108.778 81.718,109.415 90.832,108.907 L90.832,103.868 L89.73,103.868 C87.792,103.868 87.557,103.294 87.557,101.662 L87.557,95.227 z" fill="#5D5E5D"/>
    <path d="M31.447,85.898 C31.447,88.008 29.736,89.724 27.618,89.724 C25.501,89.724 23.789,88.008 23.789,85.898 C23.789,83.781 25.501,82.062 27.618,82.062 C29.736,82.062 31.447,83.781 31.447,85.898" fill="#5D5E5D"/>
  </g>
</svg>
