<?xml version="1.0" encoding="utf-8"?>
<!-- Generator: Adobe Illustrator 16.0.3, SVG Export Plug-In . SVG Version: 6.00 Build 0)  -->
<!DOCTYPE svg PUBLIC "-//W3C//DTD SVG 1.1//EN" "http://www.w3.org/Graphics/SVG/1.1/DTD/svg11.dtd">
<svg version="1.1" id="Vrstva_1" xmlns="http://www.w3.org/2000/svg" xmlns:xlink="http://www.w3.org/1999/xlink" x="0px" y="0px"
	 width="200px" height="200px" viewBox="300 300 200 200" enable-background="new 300 300 200 200" xml:space="preserve">
<g>
	<path fill="#05AFF0" d="M334.849,385.2h-9.7v37.1c3.4-1.2,6.7-2.3,9.7-3.2V385.2L334.849,385.2z"/>
	<path fill="#05AFF0" d="M325.049,370h9.9v8.7h-9.9V370z"/>
	<path fill="#05AFF0" d="M350.149,405.2c0-8.7,4.7-12.5,10.3-12.5c5.6,0,7.4,3.3,7.4,9.2v12.6c3.5,0.199,6.7,0.5,9.8,1.1v-15.5
		c0-9.8-5.1-15.7-14-15.7c-7,0-11.1,3.399-13.4,8.3v-7.4h-9.8v32.399c3.4-0.898,6.7-1.5,9.7-1.999V405.2L350.149,405.2z"/>
	<path fill="#05AFF0" d="M421.45,385.2h-9.7l-11.5,33.3l-11.1-33.3h-10.3l11.8,33.8c5.7,1.8,11.101,3.9,16.8,5.8L421.45,385.2
		L421.45,385.2z"/>
	<path fill="#05AFF0" d="M424.05,370h9.9v8.7h-9.9V370z"/>
	<path fill="#05AFF0" d="M433.95,385.2h-9.7V429.1c3.1,0.5,6.3,0.801,9.7,0.9V385.2L433.95,385.2z"/>
	<path fill="#05AFF0" d="M458.05,384.3c-11.8,0-18.4,5.3-19.101,14.3h9.101c0.2-4.5,3.5-7,9.5-7s7.7,2.601,7.7,6.7v4.101
		c-1.2-0.101-2.9-0.2-4.3-0.2c-16.4,0-23.301,5.601-23.301,15.499c0,6,3.4,10.201,9.101,11.601c4.399-0.499,9.1-1.399,14.1-2.601
		c0.2-0.1,0.5-0.1,0.7-0.199c1.2-0.3,2.4-0.6,3.7-1c1.399-0.4,2.8-0.8,4.2-1.3c1.8-0.601,3.6-1.2,5.499-1.8V398.3
		C475.05,390.3,471.05,384.3,458.05,384.3L458.05,384.3z M465.25,411.699c0,6.701-5,10.601-11.101,10.601
		c-4.1,0-6.499-2.2-6.499-6.101c0-5.398,4.6-7.6,13.5-7.6c1.399,0,2.8,0,3.999,0.1L465.25,411.699L465.25,411.699z"/>
</g>
</svg>
