<?xml version="1.0" encoding="utf-8"?>
<!-- Generator: Adobe Illustrator 16.0.3, SVG Export Plug-In . SVG Version: 6.00 Build 0)  -->
<!DOCTYPE svg PUBLIC "-//W3C//DTD SVG 1.1//EN" "http://www.w3.org/Graphics/SVG/1.1/DTD/svg11.dtd">
<svg version="1.1" id="Vrstva_1" xmlns="http://www.w3.org/2000/svg" xmlns:xlink="http://www.w3.org/1999/xlink" x="0px" y="0px"
	 width="200px" height="200px" viewBox="0 0 200 200" enable-background="new 0 0 200 200" xml:space="preserve">
<path fill="#D52834" d="M35.407,95.806H30v1.49l2.051,0.467v10.254L30,108.575v1.49h7.457v-1.49l-2.051-0.467L35.407,95.806
	L35.407,95.806z M33.729,93.476c0.652,0,1.118-0.187,1.398-0.561c0.373-0.372,0.466-0.839,0.466-1.397
	c0-0.56-0.187-1.025-0.56-1.398c-0.186-0.279-0.652-0.467-1.305-0.467s-1.025,0.187-1.397,0.561
	c-0.373,0.372-0.466,0.838-0.466,1.397c0,0.561,0.093,1.025,0.466,1.398C32.61,93.382,33.076,93.476,33.729,93.476z M51.811,102.424
	c-0.187-0.28-0.373-0.56-0.559-0.746c-0.094-0.187-0.28-0.279-0.373-0.467c0.652-0.186,1.119-0.372,1.491-0.56
	c0.373-0.187,0.745-0.466,1.118-0.745c0.652-0.467,1.118-1.118,1.491-1.771c0.372-0.744,0.56-1.49,0.56-2.236
	s-0.188-1.492-0.56-2.237c-0.373-0.746-0.839-1.306-1.491-1.771c-0.559-0.372-1.118-0.651-1.771-0.744
	c-0.653-0.188-1.398-0.28-2.237-0.28H39.413v1.585l2.237,0.559v14.915l-2.237,0.559v1.585h8.296v-1.585l-2.608-0.559v-6.339h2.608
	l3.543,6.897v1.585h6.338v-1.585l-2.331-0.466L51.811,102.424z M48.177,99.721h-2.983v-6.991h2.89c1.118,0,1.957,0.187,2.517,0.653
	c0.373,0.279,0.653,0.652,0.838,1.118c0.188,0.466,0.28,0.933,0.28,1.399c0,0.559-0.093,1.117-0.28,1.677
	c-0.185,0.466-0.465,0.932-0.838,1.212C49.947,99.439,49.108,99.721,48.177,99.721z M73.063,92.822
	c-0.745-0.746-1.771-1.397-2.796-1.677c-1.118-0.373-2.33-0.561-3.821-0.561c-1.492,0-2.797,0.187-3.822,0.561
	c-1.025,0.372-1.958,0.931-2.703,1.77c-0.84,0.932-1.491,2.051-1.958,3.355c-0.466,1.398-0.652,2.797-0.652,4.381
	c0,1.585,0.187,2.983,0.652,4.289c0.466,1.305,1.118,2.33,1.863,3.168c0.746,0.745,1.586,1.306,2.704,1.678
	c1.024,0.372,2.33,0.56,3.822,0.56s2.796-0.186,3.822-0.56c1.024-0.372,1.957-0.933,2.702-1.77c0.932-0.933,1.584-2.146,2.051-3.45
	c0.373-1.212,0.652-2.704,0.652-4.288c0-1.397-0.186-2.797-0.559-4.102C74.648,94.873,73.995,93.755,73.063,92.822z M71.385,104.288
	c-0.279,1.024-0.559,1.863-1.025,2.423c-0.838,1.213-2.144,1.771-3.821,1.771c-0.933,0-1.771-0.186-2.33-0.465
	c-0.653-0.373-1.119-0.841-1.585-1.492c-0.467-0.653-0.839-1.584-1.025-2.609c-0.279-1.025-0.372-2.331-0.372-3.729
	c0-2.703,0.466-4.66,1.491-5.966c0.372-0.559,0.931-1.024,1.49-1.305c0.56-0.279,1.306-0.466,2.144-0.466
	c0.839,0,1.585,0.187,2.237,0.466c0.652,0.28,1.211,0.839,1.678,1.491c0.466,0.653,0.838,1.492,1.118,2.517
	c0.279,1.024,0.372,2.237,0.372,3.636C71.757,102.051,71.664,103.262,71.385,104.288z M89.188,108.017h-8.481L91.798,92.45v-1.585
	H77.351v6.059h2.144l0.839-4.1h7.178l-11,15.564v1.585h15.846v-6.339h-2.33L89.188,108.017z M106.618,92.356l2.236,0.56v6.245
	h-8.016v-6.245l2.237-0.56v-1.491h-7.924v1.585l2.237,0.559v14.915l-2.237,0.559v1.585h7.924v-1.585l-2.237-0.559v-6.805h8.016
	v6.805l-2.236,0.559v1.585h7.924v-1.585l-2.237-0.559V92.916l2.237-0.56v-1.491h-7.924V92.356z M130.014,108.017h-6.432V92.916
	l2.796-0.56v-1.491h-8.762v1.585l2.517,0.559v14.915l-2.517,0.559v1.585h15.566v-6.617h-2.237L130.014,108.017z M146.325,90.586
	h-3.262l-6.245,17.338l-2.144,0.559v1.585h7.084v-1.585l-2.238-0.559l1.399-4.102h6.524l1.397,4.102l-2.144,0.559v1.585h8.109
	v-1.585l-2.144-0.559L146.325,90.586L146.325,90.586z M141.571,101.864l2.609-7.736h0.093l2.517,7.736H141.571L141.571,101.864z
	 M169.534,103.169c-0.187-0.56-0.561-1.025-1.025-1.491c-0.467-0.467-1.119-0.932-1.864-1.398c-0.746-0.467-1.678-0.932-2.796-1.398
	c-0.653-0.279-1.306-0.56-1.864-0.839c-0.467-0.279-0.932-0.467-1.212-0.746c-0.28-0.278-0.56-0.559-0.653-0.839
	c-0.093-0.279-0.186-0.745-0.186-1.212c0-1.863,1.024-2.89,2.982-2.89c1.306,0,2.237,0.373,2.891,1.213
	c0.652,0.838,0.931,2.051,0.931,3.728h2.33v-6.431h-2.33l-0.186,1.211c-1.119-1.024-2.517-1.491-4.288-1.491
	c-1.771,0-3.17,0.467-4.287,1.398c-1.025,0.932-1.585,2.236-1.585,4.008c0,0.746,0.093,1.491,0.373,2.051
	c0.187,0.56,0.56,1.025,1.024,1.491c0.468,0.467,1.025,0.839,1.678,1.213c0.652,0.373,1.398,0.652,2.237,1.023
	c0.746,0.28,1.398,0.561,1.957,0.84c0.561,0.279,1.119,0.56,1.493,0.839c0.465,0.279,0.744,0.653,1.024,1.024
	c0.186,0.373,0.373,0.84,0.373,1.398c0,0.932-0.28,1.585-0.933,1.958c-0.559,0.372-1.397,0.652-2.423,0.652
	c-0.652,0-1.212-0.093-1.678-0.279c-0.466-0.186-0.931-0.467-1.305-0.839c-0.372-0.372-0.652-0.932-0.932-1.491
	c-0.187-0.652-0.373-1.398-0.373-2.237h-2.423v6.433h2.33l0.279-1.585c0.56,0.652,1.212,1.118,1.863,1.398
	c0.746,0.279,1.585,0.467,2.61,0.467c0.932,0,1.77-0.094,2.516-0.373c0.839-0.187,1.491-0.56,2.051-1.025s1.025-1.024,1.399-1.678
	c0.372-0.652,0.465-1.491,0.465-2.33C169.813,104.288,169.721,103.729,169.534,103.169L169.534,103.169z"/>
</svg>
