<?xml version="1.0" encoding="UTF-8"?>
<!DOCTYPE svg PUBLIC "-//W3C//DTD SVG 1.1//EN" "http://www.w3.org/Graphics/SVG/1.1/DTD/svg11.dtd">
<svg version="1.1" xmlns="http://www.w3.org/2000/svg" xmlns:xlink="http://www.w3.org/1999/xlink" x="0" y="0" width="200" height="200" viewBox="0, 0, 200, 200">
  <g id="Layer_1">
    <g>
      <path d="M65.8,96.329 C67.806,96.329 69.448,97.971 69.448,99.977 C69.448,102.006 67.806,103.625 65.8,103.625 C63.771,103.625 62.152,101.984 62.152,99.977 C62.129,97.971 63.771,96.329 65.8,96.329" fill="#F05A22"/>
      <path d="M61.764,107.615 C59.279,110.1 55.631,113.748 55.631,113.748 C55.631,113.748 51.208,111.058 53.807,108.459 C55.221,107.045 56.931,105.335 58.185,104.081 C60.374,101.892 63.976,105.381 61.764,107.615" fill="#F05A22"/>
      <path d="M69.836,92.385 C72.321,89.9 75.969,86.252 75.969,86.252 C75.969,86.252 80.392,88.942 77.793,91.541 C76.379,92.955 74.669,94.665 73.415,95.919 C71.226,98.108 67.601,94.596 69.836,92.385" fill="#F05A22"/>
      <path d="M58.185,95.964 C55.7,93.502 52.052,89.831 52.052,89.831 C52.052,89.831 54.742,85.385 57.341,88.007 C58.755,89.421 60.465,91.131 61.719,92.385 C63.908,94.574 60.396,98.176 58.185,95.964" fill="#F05A22"/>
      <path d="M73.415,104.036 C75.9,106.521 79.548,110.169 79.548,110.169 C79.548,110.169 76.858,114.592 74.259,111.993 C72.845,110.579 71.135,108.869 69.881,107.615 C67.692,105.426 71.181,101.801 73.415,104.036" fill="#F05A22"/>
      <path d="M74.008,97.492 L82.695,97.492 C82.695,97.492 83.926,102.531 80.255,102.531 L74.054,102.531 C70.953,102.508 70.884,97.492 74.008,97.492" fill="#F05A22"/>
      <path d="M57.569,102.508 L48.905,102.508 C48.905,102.508 47.674,97.469 51.345,97.469 L57.546,97.469 C60.647,97.492 60.716,102.508 57.569,102.508" fill="#F05A22"/>
      <path d="M68.308,108.208 L68.308,116.895 C68.308,116.895 63.269,118.126 63.269,114.455 C63.269,112.449 63.269,110.055 63.269,108.254 C63.269,105.153 68.308,105.084 68.308,108.208" fill="#F05A22"/>
      <path d="M63.269,91.769 C63.269,88.258 63.269,83.082 63.269,83.082 C63.269,83.082 68.308,81.874 68.308,85.545 L68.308,91.746 C68.308,94.847 63.269,94.916 63.269,91.769" fill="#F05A22"/>
      <path d="M91.792,96.603 L91.792,99.863 C92.727,98.495 93.639,97.059 94.802,95.85 C95.349,95.258 95.577,95.212 96.375,95.212 L97.811,95.212 L97.811,95.28 C97.013,96.101 94.938,98.586 93.89,100.091 C94.87,101.505 95.805,103.101 97.127,104.218 C97.424,104.469 97.652,104.56 97.948,104.651 C97.766,105.404 97.446,105.7 96.603,105.7 C96.101,105.7 95.508,105.449 95.144,105.039 C93.867,103.557 92.818,102.052 91.792,100.388 L91.792,105.654 L91.108,105.654 C90.105,105.654 89.74,104.948 89.74,104.241 L89.74,95.212 L90.401,95.212 C91.404,95.189 91.792,95.873 91.792,96.603" fill="#F05A22"/>
      <path d="M102.257,102.394 L100.912,102.394 C101.072,103.42 102.006,104.081 103.215,104.081 C104.058,104.081 105.062,103.922 105.723,103.306 L105.791,103.306 L105.791,103.944 C105.791,104.993 105.084,105.791 102.827,105.791 C100.775,105.791 98.792,104.172 98.792,101.664 C98.792,98.928 100.479,97.196 102.804,97.196 C104.514,97.196 106.088,98.404 106.088,100.388 C106.11,101.915 104.97,102.394 102.257,102.394 M102.622,98.928 C101.642,98.928 100.935,99.726 100.889,100.684 L100.866,100.958 L101.778,100.958 C103.716,100.958 104.15,100.752 104.15,100.16 C104.172,99.339 103.58,98.928 102.622,98.928" fill="#F05A22"/>
      <path d="M114.82,105.632 C113.908,105.632 113.338,105.062 113.338,104.286 L113.338,101.026 C113.338,99.635 112.722,99.02 111.674,99.02 C110.784,99.02 110.169,99.681 110.169,100.866 L110.169,105.609 L109.553,105.609 C108.687,105.609 108.117,105.039 108.117,104.264 L108.117,100.707 C108.117,98.974 109.257,97.196 111.81,97.196 C113.748,97.196 115.344,98.495 115.344,100.821 L115.344,105.609 L114.82,105.609 z" fill="#F05A22"/>
      <path d="M118.468,96.124 C118.742,95.805 119.106,95.554 119.426,95.554 L119.904,95.554 L119.904,97.401 L122.754,97.401 L122.754,98.244 C122.754,98.678 122.367,99.225 121.523,99.225 L119.904,99.225 L119.904,102.44 C119.904,103.511 120.383,103.922 121.204,103.922 C121.865,103.922 122.367,103.83 122.686,103.625 L122.754,103.625 L122.754,104.355 C122.754,105.198 122.139,105.723 120.953,105.723 C118.878,105.723 117.875,104.606 117.875,102.668 L117.875,97.72 C117.875,96.945 118.035,96.626 118.468,96.124" fill="#F05A22"/>
      <path d="M125.696,96.831 C125.034,96.831 124.51,96.284 124.51,95.622 C124.51,94.961 125.034,94.437 125.696,94.437 C126.357,94.437 126.904,94.961 126.904,95.622 C126.904,96.284 126.357,96.831 125.696,96.831 M127.155,105.7 C125.582,105.7 124.692,104.811 124.692,103.146 L124.692,97.583 L125.262,97.583 C126.174,97.583 126.722,98.062 126.722,99.111 L126.722,102.964 C126.722,103.785 127.064,104.036 127.976,104.036 L128.363,104.036 L128.363,104.469 C128.363,105.358 128.021,105.7 127.155,105.7" fill="#F05A22"/>
      <path d="M136.184,100.068 C135.91,99.59 135.135,99.225 133.949,99.225 C132.764,99.225 131.715,100.182 131.715,101.414 C131.715,102.918 132.604,103.922 133.995,103.922 C135.158,103.922 135.864,103.534 136.161,103.169 L136.229,103.169 L136.229,104.104 C136.229,105.084 135.272,105.814 133.79,105.814 C131.532,105.814 129.572,104.058 129.572,101.71 C129.572,99.362 131.213,97.355 134.018,97.355 C135.317,97.355 136.252,98.153 136.252,99.111 L136.252,100.068 L136.184,100.068 z" fill="#F05A22"/>
      <path d="M141.884,97.218 C144.346,97.218 145.76,99.202 145.76,101.368 C145.76,103.83 144.346,105.814 141.701,105.814 C139.239,105.814 137.825,103.853 137.825,101.664 C137.802,99.202 139.239,97.218 141.884,97.218 M141.701,99.042 C140.516,99.042 139.946,100.023 139.946,101.368 C139.946,103.01 140.538,103.967 141.884,103.967 C143.069,103.967 143.639,102.987 143.639,101.642 C143.639,100.023 143.046,99.042 141.701,99.042" fill="#F05A22"/>
    </g>
  </g>
</svg>
