<?xml version="1.0" encoding="UTF-8"?>
<!DOCTYPE svg PUBLIC "-//W3C//DTD SVG 1.1//EN" "http://www.w3.org/Graphics/SVG/1.1/DTD/svg11.dtd">
<svg version="1.1" xmlns="http://www.w3.org/2000/svg" xmlns:xlink="http://www.w3.org/1999/xlink" x="0" y="0" width="200" height="200" viewBox="0, 0, 200, 200">
  <g id="Background">
    <rect x="0" y="0" width="200" height="200" fill="#000000" fill-opacity="0"/>
  </g>
  <defs>
    <linearGradient id="Gradient_1" gradientUnits="userSpaceOnUse" x1="33.682" y1="123.665" x2="33.682" y2="76.334">
      <stop offset="0" stop-color="#E64F32"/>
      <stop offset="1" stop-color="#E8633E"/>
    </linearGradient>
    <linearGradient id="Gradient_2" gradientUnits="userSpaceOnUse" x1="63.526" y1="123.665" x2="63.526" y2="76.334">
      <stop offset="0" stop-color="#E64F32"/>
      <stop offset="1" stop-color="#E8633E"/>
    </linearGradient>
    <linearGradient id="Gradient_3" gradientUnits="userSpaceOnUse" x1="130.732" y1="123.665" x2="130.732" y2="76.334">
      <stop offset="0" stop-color="#E64F32"/>
      <stop offset="1" stop-color="#E8633E"/>
    </linearGradient>
    <linearGradient id="Gradient_4" gradientUnits="userSpaceOnUse" x1="95.906" y1="123.665" x2="95.906" y2="76.337">
      <stop offset="0" stop-color="#E64F32"/>
      <stop offset="1" stop-color="#E8633E"/>
    </linearGradient>
    <linearGradient id="Gradient_5" gradientUnits="userSpaceOnUse" x1="166.317" y1="123.665" x2="166.317" y2="76.337">
      <stop offset="0" stop-color="#E64F32"/>
      <stop offset="1" stop-color="#E8633E"/>
    </linearGradient>
  </defs>
  <g id="Layer_1">
    <path d="M17.964,76.337 L17.964,123.665 L28.44,123.665 L28.443,107.887 C28.648,109.661 29.189,110.991 30.071,111.869 L30.071,111.869 C30.947,112.754 32.159,113.188 33.686,113.188 L33.686,113.188 L38.938,113.188 C41.797,113.188 44.26,112.146 46.314,110.073 L46.314,110.073 C48.371,107.999 49.399,105.517 49.399,102.646 L49.399,102.646 L49.399,86.853 C49.399,83.99 48.371,81.53 46.314,79.449 L46.314,79.449 C44.258,77.372 41.797,76.334 38.93,76.334 L38.93,76.334 z M29.992,106.334 C28.962,105.297 28.443,104.065 28.44,102.631 L28.44,102.631 L28.44,81.637 L33.684,81.636 C35.133,81.637 36.369,82.154 37.391,83.191 L37.391,83.191 C38.411,84.222 38.919,85.453 38.919,86.865 L38.919,86.865 L38.919,102.627 C38.919,104.065 38.403,105.297 37.375,106.334 L37.375,106.334 C36.342,107.366 35.117,107.887 33.68,107.888 L33.68,107.888 C32.254,107.888 31.022,107.366 29.992,106.334" fill="url(#Gradient_1)"/>
    <path d="M66.142,76.334 L55.638,81.637 L55.638,86.814 L60.937,86.814 L60.937,123.665 L71.415,123.665 L71.415,76.334 z" fill="url(#Gradient_2)"/>
    <path d="M125.481,76.334 C122.615,76.334 120.155,77.371 118.096,79.425 L118.096,79.425 C116.043,81.501 115.016,83.977 115.012,86.842 L115.012,86.842 L115.016,113.157 C115.016,116.032 116.043,118.507 118.096,120.576 L118.096,120.576 C120.155,122.639 122.615,123.665 125.481,123.665 L125.481,123.665 L135.976,123.665 C138.839,123.665 141.306,122.628 143.363,120.553 L143.363,120.553 C145.42,118.474 146.449,116.01 146.45,113.152 L146.45,113.152 L146.449,86.842 C146.449,83.99 145.42,81.526 143.363,79.444 L143.363,79.444 C141.306,77.372 138.843,76.334 135.976,76.334 L135.976,76.334 z M125.489,86.82 C125.489,85.395 126.011,84.177 127.053,83.16 L127.053,83.16 C128.093,82.142 129.334,81.637 130.774,81.636 L130.774,81.636 C133.519,81.637 135.249,83.084 135.964,85.968 L135.964,85.968 L125.489,104.907 z M127.195,117.26 C126.327,116.517 125.758,115.428 125.489,113.973 L125.489,113.973 L135.964,95.038 L135.964,113.159 C135.969,114.572 135.454,115.795 134.422,116.826 L134.422,116.826 C133.381,117.848 132.136,118.364 130.664,118.364 L130.664,118.364 C129.225,118.364 128.07,117.994 127.195,117.26" fill="url(#Gradient_3)"/>
    <path d="M91.61,76.337 L91.607,86.841 C91.605,89.985 89.857,95.249 86.366,102.62 L86.366,102.62 L83.765,107.887 L81.132,113.157 L81.134,123.665 L110.68,123.665 L110.678,118.364 L91.607,118.366 L91.607,113.069 L96.836,102.557 C100.335,95.574 102.084,90.322 102.084,86.817 L102.084,86.817 L102.084,76.337 z" fill="url(#Gradient_4)"/>
    <path d="M150.598,76.337 L150.598,81.637 L161.08,81.637 L161.08,123.665 L171.563,123.665 L171.563,81.636 L182.036,81.637 L182.036,76.337 z" fill="url(#Gradient_5)"/>
  </g>
</svg>
