<?xml version="1.0" encoding="UTF-8"?>
<!DOCTYPE svg PUBLIC "-//W3C//DTD SVG 1.1//EN" "http://www.w3.org/Graphics/SVG/1.1/DTD/svg11.dtd">
<svg version="1.1" xmlns="http://www.w3.org/2000/svg" xmlns:xlink="http://www.w3.org/1999/xlink" x="0" y="0" width="200" height="200" viewBox="0, 0, 200, 200">
  <g id="Background">
    <rect x="0" y="0" width="200" height="200" fill="#000000" fill-opacity="0"/>
  </g>
  <g id="Layer_1">
    <g>
      <path d="M173.88,135.578 L66.69,135.578 L66.69,114.295 L173.88,114.295 z M91.735,124.721 C91.776,123.338 91.818,121.908 91.717,120.428 L91.66,120.281 L91.575,120.213 C91.497,120.151 91.39,120.066 91.217,120.001 L91.175,119.986 L91.129,119.986 C91.085,119.986 91.041,119.978 90.998,119.971 C90.93,119.962 90.864,119.953 90.8,119.953 C90.552,119.953 90.371,120.078 90.264,120.326 L90.233,120.396 L90.247,120.472 C90.344,120.962 90.288,121.465 90.231,121.998 C90.179,122.475 90.126,122.961 90.18,123.46 C90.139,123.427 90.086,123.407 90.014,123.407 L89.909,123.411 L89.839,123.472 C89.232,123.999 88.434,124.072 87.662,124.072 C87.406,124.072 87.146,124.063 86.885,124.054 C86.621,124.044 86.359,124.035 86.099,124.035 C85.611,124.035 84.986,124.064 84.424,124.286 C84.189,124.169 84.197,123.984 84.336,123.506 C84.392,123.309 84.446,123.123 84.438,122.946 L84.436,122.896 L84.415,122.852 C84.223,122.442 84.251,121.986 84.279,121.546 C84.311,121.041 84.341,120.517 84.029,120.087 L83.94,119.978 L83.804,119.986 C83.454,120.009 82.926,120.041 82.724,120.595 L82.702,120.655 L82.711,120.717 C83.086,123.194 82.959,125.675 82.837,128.076 C82.816,128.522 82.771,129.472 82.771,129.472 L82.791,129.523 C82.934,129.865 83.26,130.208 83.668,130.208 L83.782,130.202 L83.837,130.166 C84.661,129.626 84.506,128.749 84.369,127.974 C84.292,127.536 84.211,127.085 84.288,126.683 L84.945,126.54 C85.477,126.423 86.032,126.371 86.744,126.371 C87.143,126.371 87.554,126.387 87.98,126.404 C88.353,126.419 88.741,126.435 89.146,126.44 C89.613,126.449 89.688,126.722 89.688,127.596 C89.69,127.999 89.69,128.416 89.84,128.742 L90.106,129.321 L90.301,128.716 C90.311,128.683 90.321,128.648 90.329,128.614 C90.301,128.857 90.254,129.107 90.186,129.365 L90.172,129.416 L90.182,129.468 C90.25,129.875 90.533,130.127 90.919,130.127 C91.236,130.127 91.566,129.949 91.758,129.675 L91.81,129.601 L91.801,129.509 C91.645,127.865 91.69,126.266 91.735,124.721 M101.178,128.619 C101.327,128.447 101.56,128.447 101.794,128.341 C100.497,128.001 98.836,128.639 97.518,128.065 C97.261,127.597 97.474,126.936 97.687,126.447 C98.879,126.149 100.028,126.427 101.135,125.958 C99.752,125.617 101.518,125.787 101.582,125.235 C100.858,123.404 99.113,124.128 97.411,123.723 C97.474,123.234 97.198,122.531 97.581,122.105 C99.262,121.871 100.56,122.296 101.987,121.829 C101.667,121.68 101.391,121.042 102.37,121.254 C102.603,120.998 102.583,120.913 102.732,120.593 C101.156,119.381 98.539,120.062 96.283,120.084 C96.087,120.084 95.947,120.264 95.771,120.471 C95.739,120.511 95.705,120.551 95.666,120.593 C95.793,123.468 95.517,126.469 95.666,129.512 C95.836,129.746 95.836,130.066 96.176,130.044 C98.092,130.044 99.944,130.193 101.945,130.022 C102.434,130.087 102.988,129.895 102.903,129.426 C102.689,128.554 101.732,128.746 101.178,128.619 M117.727,119.787 C116.744,119.787 115.7,119.946 114.782,120.087 C114.338,120.154 113.911,120.219 113.519,120.264 L113.263,120.292 L113.301,120.546 C113.534,122.09 113.438,123.627 113.336,125.255 C113.249,126.67 113.157,128.134 113.32,129.699 C113.45,129.983 113.716,130.313 114.046,130.313 C114.115,130.313 114.182,130.298 114.169,130.29 C114.478,130.256 114.82,130.238 115.218,130.238 C115.616,130.238 116.021,130.256 116.425,130.271 C116.834,130.287 117.242,130.304 117.64,130.304 C118.937,130.304 120.399,130.14 121.419,128.927 L121.452,128.888 L121.468,128.838 C122.11,126.697 122.172,124.099 121.613,121.64 C120.884,120.393 119.613,119.787 117.727,119.787 M120.212,127.588 C119.887,127.641 119.551,127.881 119.225,128.117 C119.068,128.229 118.913,128.341 118.848,128.396 C118.159,128.511 117.382,128.53 116.629,128.55 C116.021,128.567 115.446,128.581 114.918,128.642 C114.832,128.595 114.722,128.461 114.629,128.29 C114.703,127.367 114.643,126.435 114.585,125.53 C114.492,124.105 114.405,122.754 114.814,121.486 C114.957,121.475 115.103,121.465 115.252,121.458 C115.107,121.542 114.88,121.707 114.922,121.949 C114.978,122.261 115.392,122.321 115.792,122.379 C115.87,122.389 115.936,122.4 116.033,122.416 L116.14,122.417 C116.43,122.417 116.74,122.398 117.058,122.379 C117.382,122.359 117.714,122.338 118.043,122.338 C118.911,122.338 119.492,122.491 119.928,122.833 L120.033,122.915 L120.16,122.872 C120.232,122.849 120.292,122.816 120.34,122.778 C120.585,124.79 120.543,126.368 120.212,127.588 M133.678,121.253 L133.652,121.215 C132.88,120.153 131.668,119.636 129.949,119.636 C128.998,119.636 127.996,119.79 127.115,119.924 L126.789,119.973 L126.75,119.997 C124.344,121.388 124.816,124.381 125.194,126.786 C125.272,127.275 125.346,127.744 125.412,128.248 C125.788,129.117 126.709,129.849 127.64,129.993 C127.966,129.993 128.326,130.015 128.703,130.036 C129.133,130.061 129.583,130.086 130.036,130.086 C131.247,130.086 132.751,129.923 133.688,128.579 C134.292,126.436 134.293,123.648 133.691,121.299 z M131.744,127.56 C131.062,128.106 130.36,128.182 129.703,128.182 C129.445,128.182 129.181,128.168 128.908,128.157 C128.613,128.14 128.308,128.126 127.994,128.126 C127.883,128.126 127.77,128.127 127.656,128.132 C126.401,127.102 126.421,124.965 126.606,123.025 C126.718,122.45 126.876,121.896 127.26,121.652 C127.186,121.758 127.121,121.886 127.065,122.044 L126.949,122.369 L127.417,122.375 C127.845,122.375 128.278,122.341 128.712,122.308 C129.134,122.275 129.555,122.243 129.973,122.243 C130.562,122.243 131.041,122.31 131.47,122.457 C132.289,123.993 132.155,126.078 131.744,127.56 M143.2,128.619 C143.351,128.447 143.584,128.447 143.818,128.341 C142.52,128.001 140.859,128.639 139.541,128.065 C139.285,127.597 139.496,126.936 139.71,126.447 C140.903,126.149 142.051,126.427 143.158,125.958 C141.775,125.617 143.542,125.787 143.605,125.235 C142.882,123.404 141.137,124.128 139.434,123.723 C139.496,123.234 139.221,122.531 139.603,122.105 C141.286,121.871 142.584,122.296 144.01,121.829 C143.691,121.68 143.414,121.042 144.394,121.254 C144.627,120.998 144.606,120.913 144.755,120.593 C143.18,119.381 140.561,120.062 138.306,120.084 C138.111,120.084 137.971,120.264 137.795,120.471 C137.763,120.511 137.729,120.551 137.689,120.593 C137.816,123.468 137.54,126.469 137.689,129.512 C137.858,129.746 137.858,130.066 138.2,130.044 C140.114,130.044 141.966,130.193 143.967,130.022 C144.457,130.087 145.01,129.895 144.925,129.426 C144.713,128.554 143.754,128.746 143.2,128.619 M156.826,121.786 C155.57,119.105 152.015,120.317 149.356,120.19 C149.185,120.36 149.122,120.446 148.973,120.615 C148.93,123.51 149.25,126.702 148.887,129.533 C148.973,129.768 149.229,129.915 149.398,130.151 C150.973,129.682 149.527,127.83 150.037,126.596 C150.037,126.362 150.334,126.022 150.654,126.086 C152.038,126.342 150.208,126.66 150.803,127.362 C151.824,126.831 153.187,127.022 154.316,127.043 C155.762,126.894 155.039,128.788 155.55,129.15 C155.57,128.278 155.848,126.894 155.081,126.277 C156.806,126.852 155.294,128.937 156.23,130.022 C156.55,130.087 156.699,129.915 156.933,129.831 C156.869,128.214 157.273,126.66 156.337,125.34 C157.422,124.488 156.955,122.978 156.826,121.786 M154.527,124.702 C153.102,124.766 151.612,123.957 150.441,124.957 C150.292,124.893 150.121,124.744 150.037,124.574 C150.143,123.532 150.016,122.425 150.292,121.446 C151.015,121.318 150.314,121.998 150.739,122.382 C152.101,122.489 154.167,121.658 155.25,122.829 C155.21,123.552 155.57,124.574 154.527,124.702 M76.738,121.702 C76.567,123.148 78.184,121.553 78.993,121.764 C78.333,121.553 77.525,121.424 76.738,121.702 M79.773,120.768 C79.78,120.579 79.792,120.295 79.583,120.111 L79.536,120.069 L79.473,120.055 C78.554,119.847 77.546,119.754 76.21,119.754 C75.566,119.754 74.914,119.776 74.259,119.797 C73.604,119.819 72.946,119.839 72.291,119.839 L71.842,119.836 C71.635,119.836 71.431,119.943 71.284,120.129 C71.089,120.373 71.018,120.709 71.09,121.033 L71.104,121.094 L71.146,121.142 C71.34,121.361 71.563,121.499 71.808,121.559 L71.644,121.9 L71.712,121.93 C72.075,122.076 72.471,122.087 72.854,122.1 C73.332,122.114 73.785,122.127 74.111,122.408 C74.144,123.059 74.181,123.327 74.459,123.327 L74.597,123.317 L74.67,123.22 C74.723,123.151 74.766,122.971 74.8,122.743 C74.781,123.598 74.795,124.472 74.808,125.326 C74.83,126.664 74.851,128.047 74.746,129.322 L74.739,129.398 L74.777,129.465 C74.794,129.494 74.807,129.53 74.821,129.566 C74.878,129.717 74.975,129.969 75.266,130.048 C75.266,130.048 75.468,130.059 75.511,130.063 C75.573,130.07 75.635,130.075 75.694,130.075 C75.975,130.075 76.171,129.956 76.28,129.723 L76.305,129.671 L76.303,129.614 C76.283,128.243 76.283,126.898 76.283,125.553 C76.283,124.236 76.283,122.919 76.262,121.575 C76.282,121.554 76.303,121.532 76.324,121.513 C76.52,121.536 76.712,121.546 76.899,121.546 C77.522,121.546 78.095,121.438 78.649,121.332 C78.952,121.275 79.254,121.218 79.556,121.181 L79.805,121.149 L79.771,120.902 C79.766,120.866 79.77,120.818 79.773,120.768 M96.985,130.406 C98.368,130.682 99.901,130.682 101.009,130.469 C99.709,130.3 98.283,130.598 96.985,130.406 M139.009,130.406 C140.392,130.682 141.924,130.682 143.031,130.469 C141.733,130.3 140.306,130.598 139.009,130.406 M162.875,130.406 C164.194,130.832 165.706,130.598 167.068,130.448 C165.706,130.598 164.259,130.427 162.875,130.406 M167.344,124.17 C167.497,124.16 167.67,124.136 167.837,124.129 C166.595,123.91 165.044,123.794 163.556,123.85 C163.236,124.106 162.598,124.148 162.173,123.681 C161.917,123.127 161.789,122.169 162.258,121.595 C163.578,120.722 162.428,122.212 162.62,122.701 C163.874,122 166.11,121.744 167.6,122.638 C167.664,122.149 167.324,121.764 167.218,121.446 C168.111,121.404 167.749,122.382 168.174,122.765 C168.43,123.148 168.727,122.743 169.047,122.723 C169.409,121.744 168.663,121.063 168.067,120.446 C166.28,119.87 164.174,119.806 162.28,120.297 C161.172,120.744 160.895,122.042 160.874,123.085 C160.661,123.83 162.173,125.362 161.108,124.937 C162.237,126.894 164.854,125.894 166.642,126.362 C167.131,126.511 167.558,126.978 167.431,127.554 C166.344,128.725 164.386,128.235 162.875,128.235 C162.96,128.299 163.024,128.299 163.109,128.384 C161.853,129.086 162.471,126.724 161.13,127.107 C160.661,127.596 160.852,128.086 160.959,128.554 C162.428,130.895 165.748,129.875 167.982,129.448 C169.09,128.832 169.26,127.469 169.047,126.191 C169.09,125.128 167.834,124.468 167.344,124.17" fill="#F05123"/>
      <path d="M35.042,82.727 C38.469,85.298 43.41,87.212 47.038,90.137 C49.056,91.749 50.315,94.723 50.315,97.495 C50.315,103.344 44.82,107.929 38.065,107.929 C31.212,107.929 26.12,103.192 26.12,96.89 C26.12,94.926 26.373,94.321 27.835,94.321 L32.32,94.321 C33.479,94.321 33.782,95.025 33.782,96.99 C33.782,99.158 34.942,100.772 37.966,100.772 C41.342,100.772 42.703,99.059 42.703,97.395 C42.703,95.378 40.032,93.967 39.024,93.464 C35.848,91.698 32.269,90.086 29.446,87.718" fill="#000000"/>
      <path d="M39.024,93.464 C35.848,91.698 32.269,90.086 29.446,87.717 C27.431,85.954 26.12,83.181 26.12,80.509 C26.12,75.066 30.44,70.422 37.194,70.422 C45.915,70.422 48.996,74.612 48.996,80.308 C48.996,82.273 48.592,82.677 47.433,82.677 L42.744,82.677 C41.787,82.677 41.335,82.273 41.335,80.308 C41.335,78.544 40.823,77.68 37.296,77.68 C34.372,77.68 33.632,79.05 33.632,80.407 C33.632,81.67 34.186,81.97 35.042,82.727 C38.469,85.298 43.41,87.213 47.038,90.137" fill="#000000"/>
      <path d="M74.012,88.371 L74.012,101.075 C74.012,104.904 70.334,107.929 66.452,107.929 C64.435,107.929 63.075,107.526 61.311,106.467 C60.909,106.215 60.304,106.415 60.304,106.768 L60.304,117.404 C60.304,118.413 59.801,119.218 58.789,119.218 L54.204,119.218 C53.144,119.218 52.592,118.665 52.592,117.556 L52.592,83.583 C52.592,82.475 53.144,81.921 54.204,81.921 L58.135,81.921 C58.892,81.921 59.446,81.971 59.801,82.576 C60.051,83.079 60.404,83.181 60.808,82.878 C62.419,81.72 63.932,81.014 66.503,81.014 C70.383,81.014 74.012,83.988 74.012,88.371 M66.352,90.289 C66.352,89.178 66.301,87.163 63.932,87.163 C61.565,87.163 60.304,88.624 60.304,90.187 L60.304,98.653 C60.304,101.276 61.966,101.882 63.932,101.882 C65.495,101.882 66.352,100.519 66.352,98.755 z" fill="#000000"/>
      <path d="M84.763,105.609 C84.763,106.872 84.409,107.121 83.25,107.121 L78.664,107.121 C77.454,107.121 77.101,106.92 77.101,105.761 L77.101,83.583 C77.101,82.474 77.606,81.92 78.664,81.92 L83.301,81.92 C84.51,81.92 84.813,82.373 84.813,83.03 C84.813,83.583 85.367,83.686 85.72,83.332 C87.485,81.467 89.853,81.014 91.819,81.014 C92.475,81.014 93.029,81.568 93.029,82.223 L93.029,86.104 C93.029,86.911 92.677,87.567 91.618,87.567 L90.106,87.567 C87.132,87.567 84.763,90.49 84.763,92.859 z" fill="#000000"/>
      <path d="M94.906,75.067 C94.906,72.696 96.924,70.73 99.494,70.73 C102.064,70.73 104.082,72.645 104.082,75.067 C104.082,77.434 102.064,79.35 99.494,79.35 C96.924,79.35 94.906,77.434 94.906,75.067 M95.664,83.534 C95.664,82.324 96.066,81.921 97.227,81.921 L101.863,81.921 C102.821,81.921 103.325,82.526 103.325,83.685 L103.325,105.106 C103.325,106.366 103.223,107.122 101.663,107.122 L97.427,107.122 C95.664,107.122 95.664,106.164 95.664,105.005 z" fill="#000000"/>
      <path d="M108.524,107.122 C107.266,107.122 106.963,106.568 106.963,105.41 L106.963,83.583 C106.963,82.424 107.366,81.921 108.524,81.921 L112.658,81.921 C113.463,81.921 113.716,82.172 114.07,82.828 C114.271,83.281 114.523,83.382 114.877,83.131 C116.439,82.123 118.454,81.014 121.024,81.014 C125.208,81.014 128.333,84.038 128.333,88.27 L128.333,105.156 C128.333,106.415 127.982,107.122 126.822,107.122 L122.235,107.122 C121.024,107.122 120.671,106.568 120.671,105.41 L120.671,90.437 C120.671,88.171 119.866,87.414 118.303,87.414 C116.539,87.414 114.624,88.371 114.624,90.437 L114.624,105.156 C114.624,106.114 114.422,107.122 113.061,107.122 z" fill="#000000"/>
      <path d="M142.195,101.933 C141.793,101.175 141.288,101.074 140.734,102.031 L137.86,107.224 C137.659,107.778 136.953,107.978 136.198,107.626 L131.814,105.156 C130.955,104.652 130.805,103.947 131.359,103.091 L135.944,95.933 C136.399,95.177 136.499,93.865 135.944,93.008 L131.309,85.751 C130.754,84.892 130.904,84.189 131.763,83.685 L136.096,81.265 C136.803,80.912 137.306,81.014 137.659,81.618 L140.533,86.609 C141.137,87.665 141.793,87.566 142.347,86.557 L144.967,81.82 C145.22,81.265 146.077,80.963 146.681,81.316 L151.065,83.685 C151.975,84.138 152.125,84.892 151.52,85.853 L146.933,93.008 C146.379,93.865 146.479,95.177 146.933,95.933 L151.37,102.889 C151.924,103.897 151.721,104.601 150.865,105.006 L146.63,107.626 C145.774,108.08 145.117,107.576 144.967,107.224 z" fill="#000000"/>
    </g>
  </g>
</svg>
