<?xml version="1.0" encoding="UTF-8"?>
<!DOCTYPE svg PUBLIC "-//W3C//DTD SVG 1.1//EN" "http://www.w3.org/Graphics/SVG/1.1/DTD/svg11.dtd">
<svg version="1.1" xmlns="http://www.w3.org/2000/svg" xmlns:xlink="http://www.w3.org/1999/xlink" x="0" y="0" width="200" height="200" viewBox="0, 0, 200, 200">
  <defs>
    <clipPath id="Clip_1">
      <path d="M35.511,78.088 L164,78.088 L164,121 L35.511,121 z"/>
    </clipPath>
  </defs>
  <g id="Layer_1">
    <g clip-path="url(#Clip_1)">
      <path d="M97.202,101.201 C97.011,97.69 94.454,94.786 90.906,94.786 C87.157,94.786 84.661,97.39 84.044,101.201 L97.202,101.201 z M84.044,106.954 C84.226,111.251 86.783,114.1 91.28,114.1 C93.837,114.1 96.333,112.948 97.324,110.647 L107.247,110.647 C105.308,117.911 98.385,121.06 91.149,121.06 C80.609,121.06 73.442,114.885 73.442,104.35 C73.442,94.727 81.356,87.821 90.906,87.821 C102.508,87.821 108.308,96.301 107.804,106.954 L84.044,106.954" fill="#63AAD2"/>
      <path d="M146.901,113.188 C151.833,113.188 153.389,108.469 153.389,104.472 C153.389,100.475 151.833,95.693 146.901,95.693 C141.979,95.693 140.483,100.475 140.483,104.472 C140.483,108.469 141.979,113.188 146.901,113.188 z M146.901,87.821 C156.946,87.821 164,95.026 164,104.472 C164,113.918 156.946,121.06 146.901,121.06 C136.865,121.06 129.881,113.918 129.881,104.472 C129.881,95.026 136.865,87.821 146.901,87.821" fill="#63AAD2"/>
      <path d="M57.967,95.482 L51.419,95.482 L51.419,109.464 C51.419,112.021 52.915,112.581 55.219,112.581 C56.089,112.581 57.028,112.455 57.967,112.455 L57.967,120.252 C56.028,120.313 54.097,120.565 52.166,120.565 C43.122,120.565 40.808,117.943 40.808,109.151 L40.808,95.482 L35.451,95.482 L35.451,88.624 L40.808,88.624 L40.808,78.089 L51.419,78.089 L51.419,88.624 L57.967,88.624 L57.967,95.482" fill="#63AAD2"/>
    </g>
    <path d="M60.869,88.624 L71.471,88.624 L71.471,120.252 L60.869,120.252 z M60.869,78.088 L71.472,78.088 L71.472,85.728 L60.869,85.728 z" fill="#63AAD2"/>
    <path d="M129.769,95.482 L123.221,95.482 L123.221,109.464 C123.221,112.021 124.717,112.581 127.021,112.581 C127.891,112.581 128.83,112.455 129.769,112.455 L129.769,120.252 C127.83,120.313 125.899,120.565 123.969,120.565 C114.924,120.565 112.61,117.943 112.61,109.151 L112.61,95.482 L107.253,95.482 L107.253,88.624 L112.61,88.624 L112.61,78.089 L123.221,78.089 L123.221,88.624 L129.769,88.624 L129.769,95.482" fill="#63AAD2"/>
  </g>
</svg>
