<?xml version="1.0" encoding="UTF-8"?>
<!DOCTYPE svg PUBLIC "-//W3C//DTD SVG 1.1//EN" "http://www.w3.org/Graphics/SVG/1.1/DTD/svg11.dtd">
<svg version="1.1" xmlns="http://www.w3.org/2000/svg" xmlns:xlink="http://www.w3.org/1999/xlink" x="0" y="0" width="200" height="200" viewBox="0, 0, 200, 200">
  <defs>
    <radialGradient id="Gradient_1" gradientUnits="userSpaceOnUse" cx="92.2" cy="240.286" r="49.485" gradientTransform="matrix(0.463, 0, 0, 0.463, 0.13, -0.056)">
      <stop offset="1" stop-color="#1A7BA8"/>
      <stop offset="1" stop-color="#000000"/>
    </radialGradient>
    <radialGradient id="Gradient_2" gradientUnits="userSpaceOnUse" cx="94.395" cy="217.463" r="34.736" gradientTransform="matrix(0.463, 0, 0, 0.463, 0.13, -0.056)">
      <stop offset="1" stop-color="#259BD5" stop-opacity="0"/>
      <stop offset="1" stop-color="#000000"/>
    </radialGradient>
    <linearGradient id="Gradient_3" gradientUnits="userSpaceOnUse" x1="53.488" y1="161.193" x2="112.816" y2="161.193" gradientTransform="matrix(0.463, 0, 0, 0.463, 0.13, -0.056)">
      <stop offset="0.413" stop-color="#259BD5"/>
      <stop offset="0.451" stop-color="#259BD5" stop-opacity="0.91"/>
      <stop offset="0.829" stop-color="#259BD5" stop-opacity="0"/>
    </linearGradient>
    <linearGradient id="Gradient_4" gradientUnits="userSpaceOnUse" x1="42.835" y1="215.031" x2="42.835" y2="256.893" gradientTransform="matrix(0.463, 0, 0, 0.463, 0.13, -0.056)">
      <stop offset="0.081" stop-color="#5A9ECA"/>
      <stop offset="0.191" stop-color="#85B2D5"/>
      <stop offset="0.306" stop-color="#A8C6E0"/>
      <stop offset="0.424" stop-color="#C6D8EA"/>
      <stop offset="0.548" stop-color="#DDE7F2"/>
      <stop offset="0.679" stop-color="#EEF2F8"/>
      <stop offset="0.822" stop-color="#FAFBFD"/>
      <stop offset="1" stop-color="#FFFFFF"/>
    </linearGradient>
    <linearGradient id="Gradient_5" gradientUnits="userSpaceOnUse" x1="42.835" y1="208.245" x2="42.835" y2="238.15" gradientTransform="matrix(0.463, 0, 0, 0.463, 0.13, -0.056)">
      <stop offset="0.06" stop-color="#385478"/>
      <stop offset="0.157" stop-color="#606E8D"/>
      <stop offset="0.26" stop-color="#828AA4"/>
      <stop offset="0.365" stop-color="#A1A6BA"/>
      <stop offset="0.473" stop-color="#BEC1CF"/>
      <stop offset="0.587" stop-color="#D7D8E0"/>
      <stop offset="0.706" stop-color="#EBEAEE"/>
      <stop offset="0.837" stop-color="#F8F8FA"/>
      <stop offset="1" stop-color="#FFFFFF"/>
    </linearGradient>
    <radialGradient id="Gradient_6" gradientUnits="userSpaceOnUse" cx="-11.961" cy="31.587" r="13.494" gradientTransform="matrix(0.603, 0.307, -0.122, 0.24, 59.467, 81.353)">
      <stop offset="0.343" stop-color="#FFFFFF"/>
      <stop offset="0.986" stop-color="#FFFFFF" stop-opacity="0"/>
    </radialGradient>
  </defs>
  <g id="Layer_1">
    <path d="M80.682,87.001 L74.272,99.609 C73.167,101.745 72.562,103.241 72.064,104.487 L71.956,104.487 C71.921,103.169 71.814,101.995 71.564,99.929 L70.105,87.001 L67.577,87.001 L70.07,107.193 L72.811,107.193 L83.424,87.001 L80.683,87.001 z M93.218,92.912 C92.185,92.628 90.69,92.379 89.3,92.379 C82.997,92.379 79.257,97.685 79.257,102.742 C79.257,105.484 80.86,107.549 83.424,107.549 C85.49,107.549 87.486,106.517 89.052,103.49 L89.123,103.49 C88.946,104.986 88.803,106.375 88.803,107.229 L91.153,107.229 C91.082,105.626 91.261,103.027 91.758,100.534 L93.22,92.912 z M89.549,98.932 C88.837,102.778 86.38,105.484 84.314,105.484 C82.391,105.484 81.822,103.882 81.822,102.279 C81.822,98.219 84.92,94.337 88.695,94.337 C89.549,94.337 90.084,94.443 90.404,94.55 L89.55,98.931 z M100.412,90.918 L103.902,86.645 L101.871,86.645 L99.735,89.386 L99.664,89.386 L98.382,86.644 L96.494,86.644 L98.594,90.917 L100.412,90.917 z M99.451,94.302 C100.52,94.302 101.444,94.658 101.979,94.942 L102.656,93.055 C102.121,92.699 100.946,92.343 99.628,92.343 C96.567,92.343 94.393,94.302 94.393,96.795 C94.393,98.29 95.319,99.572 96.993,100.499 C98.524,101.352 99.024,102.029 99.024,103.168 C99.024,104.451 97.954,105.519 96.281,105.519 C95.07,105.519 93.859,105.056 93.182,104.629 L92.47,106.444 C93.111,106.943 94.536,107.406 96.103,107.442 C99.164,107.442 101.623,105.732 101.623,102.669 C101.623,101.066 100.554,99.749 98.915,98.859 C97.598,98.146 96.921,97.469 96.921,96.435 C96.85,95.261 97.954,94.299 99.45,94.299 z M114.693,96.117 C114.693,94.017 113.197,92.379 110.455,92.379 C105.789,92.379 102.548,97.329 102.548,101.674 C102.548,104.879 104.222,107.514 108.068,107.514 C110.028,107.514 111.772,106.979 112.876,106.374 L112.521,104.522 C111.63,104.985 110.348,105.519 108.638,105.519 C107.142,105.519 105.967,104.878 105.397,103.56 C105.077,102.777 104.97,101.423 105.112,100.818 C110.418,100.889 114.692,99.928 114.692,96.118 z M110.062,94.302 C111.381,94.302 112.272,94.942 112.272,96.117 C112.272,98.397 109.208,98.932 105.291,98.86 C105.932,96.615 107.714,94.301 110.063,94.301 z" fill="#676867"/>
    <path d="M128.155,85.825 L131.787,82.3 L129.579,82.3 L127.407,84.473 L127.299,84.473 L125.876,82.301 L123.81,82.301 L126.196,85.827 L128.155,85.827 z M121.993,91.133 C123.561,89.708 125.662,88.888 127.762,88.888 C129.544,88.888 131.004,89.245 131.752,89.708 L132.571,87.714 C132.037,87.322 130.399,86.752 128.191,86.752 C125.236,86.752 122.635,87.678 120.57,89.46 C117.827,91.774 116.295,95.371 116.295,99.182 C116.295,104.346 119.394,107.551 124.486,107.551 C126.766,107.551 128.583,107.088 129.722,106.589 L129.402,104.559 C128.298,105.128 126.625,105.414 125.092,105.414 C120.605,105.414 118.967,102.458 118.967,98.826 C118.896,95.727 120.107,92.878 121.995,91.133 z M139.978,92.379 C135.278,92.379 131.966,96.795 131.966,101.567 C131.966,104.844 133.996,107.513 137.627,107.513 C142.507,107.513 145.677,102.885 145.677,98.398 C145.677,95.335 143.896,92.379 139.979,92.379 z M137.949,105.556 C135.847,105.556 134.529,103.846 134.529,101.495 C134.529,98.183 136.595,94.373 139.693,94.373 C142.293,94.373 143.076,96.723 143.076,98.432 C143.113,101.78 140.869,105.556 137.949,105.556 z M154.758,90.918 L158.248,86.645 L156.254,86.645 L154.082,89.386 L154.011,89.386 L152.729,86.644 L150.841,86.644 L152.944,90.917 L154.759,90.917 z M152.05,105.449 C149.701,105.449 148.454,103.918 148.454,101.602 C148.454,98.183 150.804,94.479 154.579,94.479 C155.648,94.479 156.467,94.764 157.037,95.014 L157.749,93.055 C157.286,92.77 156.075,92.413 154.722,92.413 C149.522,92.413 145.854,96.971 145.854,101.921 C145.854,105.019 147.67,107.513 151.41,107.513 C153.368,107.513 154.864,107.013 155.612,106.623 L155.363,104.663 C154.337,105.183 153.202,105.452 152.051,105.448 z M179.225,92.699 L175.521,100.748 C174.773,102.35 174.345,103.383 173.954,104.309 L173.882,104.309 C173.74,103.24 173.562,102.136 173.241,100.463 L171.817,92.663 L167.009,92.663 L161.917,97.755 C161.524,98.148 160.991,98.717 160.563,99.217 L160.492,99.217 L163.021,85.897 L160.528,85.897 L156.467,107.159 L158.925,107.159 L159.958,101.638 L161.774,99.999 L165.264,107.158 L168.008,107.158 L163.698,98.612 L169.291,93.34 L172.032,106.268 C172.103,106.553 172.103,106.694 171.961,106.908 C171.178,108.333 170.145,109.508 169.148,110.256 C168.151,111.04 167.117,111.431 166.477,111.645 L167.118,113.817 C167.936,113.639 169.681,112.963 171.319,111.289 C173.278,109.329 174.773,106.801 176.305,103.667 L181.754,92.662 L179.225,92.662 z" fill="#1979A3"/>
    <path d="M78.794,118.02 C77.904,118.02 76.836,118.59 75.59,119.73 C74.379,120.833 73.702,121.759 73.559,122.543 C73.488,123.004 73.523,123.397 73.666,123.753 C73.88,124.181 74.236,124.395 74.734,124.395 C75.446,124.395 76.408,123.718 77.619,122.364 L77.619,123.647 C77.619,124.074 77.727,124.288 77.94,124.288 C78.083,124.288 78.261,124.18 78.44,124.003 C78.582,123.825 78.653,123.683 78.688,123.576 C78.688,123.504 78.724,123.291 78.724,122.934 L78.724,122.329 C78.867,121.295 79.009,120.547 79.117,120.12 C79.117,120.156 79.151,120.049 79.187,119.907 C79.223,119.73 79.258,119.587 79.295,119.408 C79.507,118.483 79.33,118.02 78.795,118.02 z M78.082,119.979 C78.047,120.121 77.869,120.477 77.583,120.976 C77.299,121.437 77.157,121.687 77.085,121.759 C76.195,122.72 75.59,123.219 75.233,123.29 L75.055,123.29 C74.7,123.29 74.593,123.077 74.664,122.649 C74.7,122.364 74.841,122.008 75.056,121.652 C75.341,121.152 75.803,120.654 76.48,120.049 C77.228,119.407 77.833,119.123 78.261,119.123 C78.261,119.087 78.19,119.372 78.083,119.977 z M86.309,114.033 C85.954,114.067 85.563,114.602 85.206,115.67 C85.064,116.098 84.885,116.739 84.671,117.558 C84.53,117.7 84.459,117.807 84.459,117.807 C84.423,117.664 84.351,117.592 84.245,117.592 C83.247,117.592 82.322,118.234 81.431,119.552 C80.719,120.621 80.293,121.617 80.113,122.579 C80.043,122.971 80.113,123.362 80.363,123.754 C80.611,124.147 80.967,124.36 81.43,124.36 C81.787,124.324 82.215,124.182 82.748,123.933 C83.136,123.649 83.494,123.326 83.817,122.971 L83.817,124.004 C83.817,124.538 83.889,124.787 84.031,124.787 C84.28,124.787 84.459,124.717 84.6,124.61 C84.816,122.936 84.993,121.653 85.1,120.799 C85.527,118.022 86.026,116.026 86.631,114.816 C86.704,114.711 86.742,114.587 86.739,114.46 C86.739,114.139 86.595,113.996 86.31,114.033 z M84.244,120.228 C84.15,120.803 83.931,121.35 83.603,121.831 C83.283,122.331 82.926,122.687 82.606,122.9 L82.285,123.113 C82.177,123.185 82,123.221 81.75,123.292 C81.501,123.292 81.323,123.184 81.217,122.935 C81.11,122.757 81.074,122.543 81.11,122.366 C81.218,121.724 81.537,121.012 82.072,120.227 C82.677,119.303 83.283,118.804 83.924,118.697 C84.065,118.733 84.208,118.981 84.244,119.481 L84.244,120.227 z M172.067,117.415 C171.996,117.415 171.818,117.486 171.533,117.592 C170.073,118.875 168.933,119.801 168.079,120.442 C168.434,117.985 168.719,116.097 168.968,114.886 C169.004,114.53 168.898,114.388 168.648,114.388 C168.434,114.388 168.256,114.565 168.079,114.957 C167.96,115.168 167.876,115.397 167.829,115.634 L167.615,116.916 C167.58,117.093 167.401,118.27 167.081,120.478 C166.761,122.543 166.581,123.611 166.581,123.647 C166.581,123.932 166.654,124.146 166.761,124.253 C166.903,124.394 167.01,124.466 167.117,124.466 C167.223,124.43 167.365,124.358 167.543,124.217 C167.757,123.967 167.828,123.647 167.793,123.219 C167.793,122.899 167.793,122.613 167.828,122.365 C167.828,122.115 167.863,121.973 167.863,121.901 C167.899,121.724 167.971,121.581 168.042,121.509 C168.932,122.507 169.431,123.077 169.609,123.219 C170.321,123.896 170.963,124.323 171.532,124.501 C171.924,124.501 172.138,124.323 172.173,123.932 C172.173,123.86 172.173,123.824 172.138,123.753 C172.089,123.674 172.029,123.602 171.959,123.54 C171.567,123.362 171.211,123.148 170.855,122.863 C170.072,122.223 169.501,121.546 169.146,120.833 C171.069,119.267 172.138,118.305 172.315,117.842 C172.351,117.806 172.351,117.7 172.315,117.593 C172.245,117.451 172.173,117.416 172.066,117.416 z M91.508,117.343 C91.081,117.308 90.511,117.771 89.728,118.626 C89.094,119.365 88.533,120.164 88.054,121.012 C87.969,120.614 87.956,120.204 88.018,119.801 C88.09,119.303 88.054,118.91 87.947,118.626 C87.592,118.626 87.343,118.803 87.2,119.124 C87.129,119.267 87.057,119.517 87.023,119.837 C87.023,119.908 86.987,120.3 86.987,121.047 L86.987,122.65 C86.987,122.721 86.951,122.934 86.916,123.255 C86.88,123.54 86.844,123.718 86.88,123.824 C86.88,123.932 86.951,124.04 87.057,124.181 C87.165,124.289 87.273,124.36 87.379,124.36 C87.521,124.36 87.806,123.932 88.162,123.042 C88.697,121.867 89.124,121.011 89.48,120.477 C90.015,119.66 90.549,119.09 91.012,118.804 C91.261,118.983 91.191,120.158 90.798,122.258 C90.656,123.043 90.514,123.79 90.337,124.467 C90.3,124.644 90.337,124.752 90.406,124.86 C90.514,124.966 90.621,125.001 90.727,125.001 C90.904,125.001 91.12,124.753 91.297,124.219 C91.44,123.863 91.547,123.507 91.617,123.15 C91.866,122.082 92.044,121.12 92.115,120.265 C92.365,118.52 92.151,117.523 91.51,117.345 z M128.083,116.987 C128.262,116.987 128.832,116.667 129.864,115.99 C130.897,115.313 131.431,114.886 131.467,114.673 C131.467,114.565 131.467,114.494 131.359,114.388 C131.289,114.316 131.182,114.245 131.075,114.245 C130.898,114.245 130.327,114.53 129.294,115.099 C128.227,115.705 127.657,116.168 127.586,116.453 C127.586,116.488 127.622,116.595 127.763,116.737 C127.906,116.916 128.013,116.986 128.084,116.986 z M69.642,120.407 C70.461,119.907 71.244,119.409 72.063,118.91 C73.702,117.841 74.877,116.916 75.553,116.133 C75.873,115.741 76.087,115.313 76.194,114.85 C76.302,114.21 75.802,113.712 74.663,113.427 C74.022,113.212 73.345,113.141 72.704,113.106 C72.027,113.106 71.422,113.106 70.852,113.176 C70.283,113.248 69.713,113.355 69.178,113.533 C68.644,113.782 68.324,114.067 68.288,114.423 C68.288,114.495 68.396,114.708 68.608,114.958 C68.752,115.1 68.894,115.279 69.036,115.456 C69.001,116.098 68.965,116.774 68.929,117.416 C68.858,118.413 68.787,119.125 68.716,119.588 C68.68,119.873 68.608,120.051 68.573,120.157 C68.573,120.371 68.645,120.585 68.752,120.834 C68.752,123.22 69.001,124.431 69.464,124.431 C69.606,124.431 69.784,124.254 69.998,123.897 C70.14,123.613 70.247,123.363 70.283,123.185 C70.283,123.113 70.14,122.793 69.821,122.259 C69.784,122.188 69.749,121.903 69.749,121.44 C69.713,120.978 69.713,120.693 69.749,120.515 C69.606,120.443 69.606,120.407 69.641,120.407 z M69.75,117.415 C69.856,116.24 69.891,115.492 69.963,115.207 C70.034,114.78 70.213,114.494 70.463,114.352 C70.711,114.21 71.53,114.138 72.883,114.138 C73.24,114.138 73.703,114.21 74.237,114.388 C74.878,114.565 75.199,114.815 75.163,115.065 C75.127,115.563 74.236,116.382 72.492,117.593 C70.961,118.627 70.034,119.197 69.643,119.303 C69.607,119.16 69.678,118.555 69.75,117.416 z M177.765,118.02 C176.874,118.02 175.805,118.59 174.559,119.73 C173.348,120.833 172.671,121.759 172.528,122.543 C172.458,123.004 172.494,123.397 172.636,123.753 C172.85,124.181 173.205,124.395 173.705,124.395 C174.417,124.395 175.378,123.718 176.59,122.364 L176.59,123.647 C176.59,124.074 176.696,124.288 176.91,124.288 C177.053,124.288 177.231,124.18 177.41,124.003 C177.551,123.825 177.623,123.683 177.658,123.576 C177.658,123.504 177.694,123.291 177.694,122.934 L177.694,122.329 C177.835,121.295 177.978,120.547 178.085,120.12 C178.085,120.156 178.121,120.049 178.156,119.907 C178.192,119.73 178.228,119.587 178.264,119.408 C178.441,118.483 178.264,118.02 177.765,118.02 z M177.052,119.979 C177.016,120.121 176.838,120.477 176.554,120.976 C176.269,121.437 176.126,121.687 176.054,121.759 C175.165,122.72 174.559,123.219 174.203,123.29 L174.026,123.29 C173.669,123.29 173.562,123.077 173.634,122.649 C173.669,122.364 173.811,122.008 174.026,121.652 C174.311,121.152 174.772,120.654 175.449,120.049 C176.198,119.407 176.803,119.123 177.23,119.123 C177.195,119.087 177.159,119.372 177.053,119.977 z M123.775,117.948 C123.454,117.879 122.919,118.519 122.136,119.871 C121.139,121.51 120.498,122.471 120.249,122.687 C119.999,122.08 119.856,121.261 119.785,120.193 C119.75,119.447 119.75,118.804 119.75,118.235 C119.679,118.163 119.642,118.092 119.572,118.021 C119.501,117.95 119.395,117.879 119.287,117.913 C119.11,117.95 118.931,118.056 118.718,118.235 C118.682,118.343 118.646,118.448 118.61,118.591 C118.753,120.622 118.859,121.796 118.895,122.188 C119.145,123.897 119.501,124.752 119.999,124.752 C120.176,124.752 120.853,123.79 121.994,121.867 C122.422,121.155 122.849,120.478 123.276,119.766 C123.739,118.947 123.989,118.52 123.989,118.484 C123.989,118.447 123.989,118.376 123.918,118.269 C123.954,118.02 123.847,117.949 123.775,117.949 z M155.007,118.056 C154.438,117.629 153.867,117.45 153.369,117.522 C152.586,117.628 151.874,118.34 151.232,119.693 C150.77,120.62 150.484,121.438 150.342,122.15 C150.2,122.792 150.27,123.397 150.556,123.931 C150.948,124.5 151.447,124.785 152.124,124.785 C152.943,124.785 153.726,124.287 154.439,123.254 C155.008,122.329 155.4,121.439 155.542,120.62 C155.65,120.157 155.65,119.693 155.578,119.266 C155.506,118.697 155.328,118.304 155.007,118.055 z M154.615,120.442 C154.544,121.011 154.295,121.688 153.832,122.473 C153.334,123.362 152.835,123.825 152.337,123.825 C151.874,123.825 151.552,123.576 151.41,123.077 C151.303,122.722 151.339,122.223 151.553,121.618 C151.624,121.297 151.767,120.941 151.945,120.549 C152.479,119.232 153.084,118.591 153.76,118.591 C154.117,118.591 154.33,118.804 154.509,119.268 C154.617,119.66 154.651,120.051 154.617,120.443 z M129.829,118.02 C128.939,118.02 127.87,118.59 126.623,119.73 C125.412,120.833 124.735,121.759 124.592,122.543 C124.522,123.004 124.557,123.397 124.7,123.753 C124.913,124.181 125.269,124.395 125.768,124.395 C126.48,124.395 127.442,123.718 128.652,122.364 L128.652,123.647 C128.652,124.074 128.76,124.288 128.973,124.288 C129.116,124.288 129.293,124.18 129.472,124.003 C129.614,123.825 129.686,123.683 129.721,123.576 C129.721,123.504 129.756,123.291 129.756,122.934 L129.756,122.329 C129.899,121.295 130.041,120.547 130.149,120.12 C130.149,120.156 130.184,120.049 130.219,119.907 C130.256,119.73 130.291,119.587 130.327,119.408 C130.504,118.483 130.327,118.02 129.827,118.02 z M129.116,119.979 C129.081,120.121 128.902,120.477 128.618,120.976 C128.333,121.437 128.19,121.687 128.119,121.759 C127.229,122.72 126.623,123.219 126.267,123.29 L126.09,123.29 C125.733,123.29 125.626,123.077 125.698,122.649 C125.733,122.364 125.875,122.008 126.09,121.652 C126.375,121.152 126.836,120.654 127.513,120.049 C128.262,119.407 128.867,119.123 129.294,119.123 C129.259,119.087 129.225,119.372 129.117,119.977 z M164.944,118.056 C164.374,117.629 163.804,117.45 163.305,117.522 C162.522,117.628 161.81,118.34 161.168,119.693 C160.705,120.62 160.421,121.438 160.278,122.15 C160.136,122.792 160.207,123.397 160.492,123.931 C160.884,124.5 161.382,124.785 162.059,124.785 C162.878,124.785 163.661,124.287 164.374,123.254 C164.944,122.329 165.336,121.439 165.478,120.62 C165.584,120.157 165.584,119.693 165.513,119.266 C165.477,118.697 165.263,118.304 164.944,118.055 z M164.551,120.442 C164.481,121.011 164.231,121.688 163.768,122.473 C163.27,123.362 162.771,123.825 162.273,123.825 C161.81,123.825 161.488,123.576 161.347,123.077 C161.239,122.722 161.274,122.223 161.488,121.618 C161.56,121.297 161.702,120.941 161.881,120.549 C162.414,119.232 163.019,118.591 163.696,118.591 C164.052,118.591 164.265,118.804 164.444,119.268 C164.587,119.66 164.621,120.051 164.552,120.443 z M138.732,117.913 C138.555,117.878 138.305,117.949 137.984,118.056 C137.556,118.198 137.199,118.483 136.844,118.84 C136.702,118.982 136.417,119.373 135.99,119.943 C135.99,119.587 135.919,119.196 135.847,118.803 C135.67,118.234 135.42,117.95 135.099,117.95 C134.672,117.985 134.173,118.305 133.639,118.982 C133.247,119.516 132.891,119.979 132.678,120.442 L132.713,120.086 C132.749,119.693 132.785,119.232 132.821,118.697 C132.856,118.091 132.749,117.771 132.499,117.771 C132.107,117.771 131.859,118.127 131.752,118.803 C131.752,118.84 131.68,119.445 131.573,120.584 C131.467,121.724 131.396,122.33 131.396,122.365 L131.218,123.79 C131.146,124.11 131.36,124.288 131.823,124.359 C131.965,124.253 132.179,123.861 132.428,123.22 C132.758,122.472 133.115,121.736 133.497,121.013 C133.923,120.228 134.279,119.801 134.564,119.73 C134.814,119.8 134.92,120.299 134.92,121.26 C134.885,121.937 134.778,122.578 134.671,123.183 C134.636,123.61 134.671,123.896 134.779,124.003 C134.885,124.145 135.099,124.145 135.456,124.003 C135.882,122.97 136.274,121.972 136.63,121.047 C137.056,120.085 137.52,119.516 138.018,119.337 C138.151,119.405 138.234,119.544 138.232,119.693 C138.16,120.832 138.09,121.687 138.018,122.257 C137.947,122.65 137.91,123.005 137.876,123.397 C137.839,124.11 138.017,124.467 138.337,124.467 C138.48,124.467 138.622,124.394 138.801,124.217 C138.978,124.003 139.05,123.789 139.015,123.54 C139.015,123.504 139.015,123.432 138.944,123.29 C138.909,123.147 138.873,123.075 138.909,123.04 L139.265,120.048 C139.407,118.66 139.229,117.983 138.73,117.912 z M150.627,114.46 C150.698,114.138 150.556,113.996 150.27,114.032 C149.914,114.067 149.523,114.601 149.167,115.67 C149.024,116.097 148.847,116.738 148.633,117.557 C148.491,117.7 148.42,117.806 148.42,117.806 C148.384,117.663 148.312,117.591 148.206,117.591 C147.209,117.591 146.283,118.233 145.393,119.551 C144.68,120.62 144.253,121.617 144.075,122.578 C144.003,122.97 144.075,123.361 144.324,123.753 C144.573,124.146 144.929,124.36 145.392,124.36 C145.748,124.323 146.175,124.181 146.71,123.932 C147.097,123.648 147.455,123.326 147.779,122.97 L147.779,124.003 C147.779,124.537 147.85,124.787 147.992,124.787 C148.241,124.787 148.42,124.716 148.561,124.61 C148.777,122.935 148.953,121.653 149.061,120.798 C149.488,118.021 149.987,116.026 150.592,114.815 C150.592,114.673 150.627,114.566 150.627,114.459 z M148.205,120.229 C148.111,120.803 147.892,121.35 147.564,121.831 C147.243,122.331 146.887,122.687 146.567,122.9 L146.247,123.113 C146.139,123.185 145.96,123.221 145.711,123.292 C145.462,123.292 145.284,123.184 145.177,122.935 C145.07,122.757 145.035,122.543 145.07,122.366 C145.177,121.724 145.498,121.012 146.031,120.227 C146.637,119.303 147.243,118.804 147.885,118.697 C148.027,118.733 148.17,118.981 148.204,119.481 C148.24,119.872 148.24,120.086 148.204,120.227 z M113.162,118.803 C112.982,118.305 112.662,117.985 112.2,117.806 C112.057,117.734 111.843,117.734 111.558,117.734 C110.774,117.77 110.028,118.303 109.315,119.337 C108.815,120.191 108.53,120.94 108.388,121.653 C108.28,122.364 108.352,123.005 108.637,123.54 C108.957,124.18 109.527,124.501 110.275,124.501 C110.595,124.501 110.987,124.43 111.485,124.252 C112.233,124.002 112.839,123.575 113.266,123.04 C113.302,123 113.302,122.939 113.266,122.898 C113.231,122.827 113.195,122.79 113.158,122.72 L112.91,122.72 L112.412,123.076 C112.269,123.183 111.984,123.291 111.592,123.433 C111.165,123.575 110.915,123.61 110.773,123.61 C110.381,123.61 110.061,123.468 109.776,123.148 C109.528,122.827 109.421,122.507 109.491,122.079 C109.491,122.008 109.528,121.902 109.563,121.83 C109.671,121.795 110.204,121.724 111.165,121.617 C112.056,121.546 112.59,121.475 112.768,121.475 C113.053,121.403 113.195,121.297 113.232,121.083 C113.267,120.906 113.302,120.727 113.302,120.621 L113.302,119.872 C113.267,119.373 113.232,119.018 113.16,118.803 z M112.2,120.3 C112.164,120.335 112.128,120.407 112.092,120.477 C112.057,120.549 111.915,120.584 111.665,120.62 C111.452,120.62 111.166,120.62 110.703,120.656 C110.276,120.691 109.955,120.691 109.741,120.691 C109.741,120.691 109.741,120.655 109.706,120.62 L109.706,120.512 C109.778,120.192 109.991,119.8 110.383,119.408 C110.775,118.981 111.131,118.803 111.487,118.803 C111.772,118.803 111.985,119.017 112.128,119.408 C112.235,119.729 112.271,120.05 112.199,120.299 z M97.954,118.803 C97.777,118.305 97.455,117.985 96.992,117.806 C96.85,117.734 96.636,117.734 96.351,117.734 C95.567,117.77 94.821,118.303 94.107,119.337 C93.609,120.191 93.324,120.94 93.181,121.653 C93.074,122.364 93.146,123.005 93.431,123.54 C93.751,124.18 94.321,124.501 95.069,124.501 C95.39,124.501 95.781,124.43 96.28,124.252 C97.027,124.002 97.634,123.575 98.061,123.04 C98.096,123 98.096,122.939 98.061,122.898 C98.024,122.827 97.988,122.79 97.953,122.72 L97.739,122.72 L97.241,123.076 C97.098,123.183 96.814,123.291 96.421,123.433 C95.994,123.575 95.744,123.61 95.602,123.61 C95.21,123.61 94.89,123.468 94.604,123.148 C94.355,122.827 94.248,122.507 94.32,122.079 C94.32,122.008 94.355,121.902 94.391,121.83 C94.498,121.795 95.032,121.724 95.994,121.617 C96.884,121.546 97.418,121.475 97.596,121.475 C97.881,121.403 98.024,121.297 98.059,121.083 C98.094,120.906 98.13,120.727 98.13,120.621 L98.13,119.872 C98.058,119.373 98.022,119.018 97.951,118.803 z M96.992,120.3 C96.957,120.335 96.921,120.407 96.884,120.477 C96.85,120.549 96.707,120.584 96.458,120.62 C96.244,120.62 95.958,120.62 95.497,120.656 C95.069,120.691 94.748,120.691 94.535,120.691 C94.535,120.691 94.535,120.655 94.499,120.62 L94.499,120.512 C94.57,120.192 94.784,119.8 95.176,119.408 C95.567,118.981 95.922,118.803 96.279,118.803 C96.564,118.803 96.777,119.017 96.921,119.408 C97.027,119.729 97.063,120.05 96.991,120.299 z M106.679,117.913 C106.501,117.878 106.251,117.949 105.931,118.056 C105.505,118.198 105.148,118.483 104.793,118.84 C104.65,118.982 104.365,119.373 103.938,119.943 C103.938,119.587 103.866,119.196 103.795,118.803 C103.617,118.234 103.368,117.95 103.048,117.95 C102.621,117.985 102.122,118.305 101.588,118.982 C101.195,119.516 100.84,119.979 100.626,120.442 L100.662,120.086 C100.697,119.693 100.731,119.232 100.768,118.697 C100.804,118.091 100.697,117.771 100.448,117.771 C100.057,117.771 99.808,118.127 99.701,118.803 C99.701,118.84 99.629,119.445 99.522,120.584 C99.414,121.724 99.345,122.33 99.345,122.365 L99.166,123.79 C99.095,124.11 99.308,124.288 99.771,124.359 C99.914,124.253 100.128,123.861 100.378,123.22 C100.708,122.472 101.064,121.736 101.447,121.013 C101.874,120.228 102.23,119.801 102.514,119.73 C102.764,119.8 102.871,120.299 102.871,121.26 C102.834,121.937 102.728,122.578 102.621,123.183 C102.585,123.61 102.621,123.896 102.728,124.003 C102.834,124.145 103.048,124.145 103.405,124.003 C103.831,122.97 104.223,121.972 104.579,121.047 C105.008,120.085 105.471,119.516 105.969,119.337 C106.103,119.405 106.186,119.544 106.183,119.693 C106.111,120.832 106.041,121.687 105.969,122.257 C105.898,122.65 105.861,123.005 105.827,123.397 C105.791,124.11 105.969,124.467 106.29,124.467 C106.432,124.467 106.575,124.394 106.751,124.217 C106.931,124.003 107.002,123.789 106.967,123.54 C106.967,123.504 106.967,123.432 106.895,123.29 C106.86,123.147 106.825,123.075 106.86,123.04 L107.216,120.048 C107.359,118.66 107.216,117.983 106.682,117.912 z" fill="#A3A1A2"/>
    <g>
      <g>
        <path d="M42.291,74.999 C54.471,74.999 64.336,84.828 64.336,96.937 C64.336,109.045 54.471,118.875 42.291,118.875 C30.111,118.875 20.246,109.045 20.246,96.937 C20.246,84.828 30.111,74.999 42.291,74.999 z" fill="#DCF1F4"/>
        <path d="M42.398,79.486 C52.975,79.486 61.558,88.033 61.558,98.575 C61.558,109.117 52.975,117.664 42.398,117.664 C31.821,117.664 23.238,109.117 23.238,98.575 C23.202,87.998 31.821,79.486 42.398,79.486 z" fill="url(#Gradient_1)" id="a"/>
        <path d="M42.398,79.486 C52.975,79.486 61.558,88.033 61.558,98.575 C61.558,109.117 52.975,117.664 42.398,117.664 C31.821,117.664 23.238,109.117 23.238,98.575 C23.202,87.998 31.821,79.486 42.398,79.486 z" fill="url(#Gradient_2)" id="a"/>
      </g>
      <path d="M36.023,83.653 C42.611,83.582 46.102,88.461 47.704,93.874 C48.666,97.115 48.523,101.816 47.419,104.772 C46.03,108.44 43.787,111.431 40.439,112.963 C39.406,113.426 38.373,113.461 37.127,113.746 C36.806,113.817 36.272,113.746 36.059,113.675 C35.489,113.533 35.026,113.711 34.492,113.533 C33.494,113.212 32.533,112.713 31.678,112.286 C30.788,111.859 30.396,111.325 29.684,110.755 C27.226,108.725 25.944,105.662 25.054,101.923 C24.52,99.75 24.769,95.904 25.339,94.088 C26.657,89.921 28.758,86.324 32.319,84.65 C32.996,84.33 33.779,84.08 34.492,83.867 C34.883,83.724 35.738,83.867 36.023,83.653 z" fill="url(#Gradient_3)"/>
      <path d="M27.974,96.189 C27.974,96.189 32.284,99.715 42.896,99.715 C53.509,99.715 57.498,96.189 57.498,96.189 C57.498,96.189 54.506,108.689 42.576,108.689 C30.645,108.689 27.974,96.189 27.974,96.189 z" fill="url(#Gradient_4)" opacity="0.56"/>
      <path d="M57.213,96.972 C57.213,96.972 54.257,109.223 42.576,109.223 C30.895,109.223 28.259,96.972 28.259,96.972 C28.259,96.972 32.141,106.908 42.576,106.908 C53.011,106.908 57.213,96.972 57.213,96.972 M28.259,96.153 C28.188,96.153 28.117,96.153 28.01,96.189 C27.618,96.296 27.369,96.723 27.44,97.15 C27.476,97.293 28.152,100.391 30.325,103.561 C33.245,107.799 37.483,110.042 42.54,110.042 C47.597,110.042 51.871,107.799 54.898,103.596 C57.07,100.605 57.854,97.613 57.961,97.222 C57.996,97.15 57.996,97.079 57.996,97.008 C57.996,96.581 57.676,96.224 57.249,96.189 L57.07,96.189 C56.928,96.224 56.821,96.26 56.714,96.331 L56.501,96.545 C56.465,96.581 56.465,96.616 56.429,96.687 C56.358,96.865 55.325,99.18 53.153,101.46 C50.197,104.558 46.636,106.125 42.576,106.125 C38.48,106.125 34.99,104.558 32.105,101.424 C29.969,99.074 29.007,96.723 29.007,96.723 C28.9,96.367 28.58,96.153 28.259,96.153 z" fill="url(#Gradient_5)" opacity="0.13"/>
      <path d="M42.577,109.223 C30.894,109.223 28.259,96.972 28.259,96.972 C28.259,96.972 32.141,106.909 42.576,106.909 C52.974,106.909 57.212,96.972 57.212,96.972 C57.212,96.972 54.257,109.223 42.577,109.223 z" fill="#FFFFFF"/>
      <path d="M56.536,89.422 C54.72,93.019 49.592,94.052 45.104,91.773 C40.617,89.493 38.445,84.721 40.261,81.124 C42.077,77.527 47.206,76.495 51.693,78.774 C56.18,81.053 58.353,85.825 56.536,89.422 z" fill="url(#Gradient_6)" opacity="0.17"/>
    </g>
  </g>
</svg>
