<svg xmlns="http://www.w3.org/2000/svg" width="200" height="200" viewBox="0 0 200 200"><path fill="none" d="M0 0h200v200H0z"/><path d="M69.048 71.572c1.786.19 3.353.959 4.644 2.182a7.536 7.536 0 010 10.695 7.582 7.582 0 01-4.592 2.174 6.52 6.52 0 00-3.033 1.422c-1.634 1.38-2.47 3.39-2.294 5.36.154 1.701.201 3.728.054 5.588a8.663 8.663 0 002.531 6.832c1.36 1.35 3.049 2.217 4.825 2.437a10.125 10.125 0 015.909 2.89 10.095 10.095 0 010 14.328c-3.974 3.957-10.423 3.957-14.401 0a10.062 10.062 0 01-2.925-6.124 8.643 8.643 0 00-1.919-4.048c-1.855-2.178-4.562-3.295-7.214-3.056a14.572 14.572 0 01-10.722-3.391c-1.063-.884-3.189-.778-4.462-.173-.92.436-1.651 1.123-2.076 1.965a5.35 5.35 0 01-2.494 2.427c-2.685 1.276-5.903.143-7.187-2.533-.256-.609-.353-.77-.473-1.544-.047-.301-.028-.609-.042-.914v-.168c.168-2.023 1.293-3.578 3.057-4.529a5.399 5.399 0 013.591-.371 4.632 4.632 0 002.369-.24c1.361-.513 2.897-1.244 2.709-3.24-.498-4.245.988-8.564 4.142-11.942 1.221-1.31.815-2.28.345-3.092-.341-.588-.843-1.041-1.43-1.278a3.568 3.568 0 01-1.758-1.531 3.586 3.586 0 011.32-4.916 3.623 3.623 0 014.94 1.314 3.56 3.56 0 01.437 2.369c-.04.521.047 1.058.286 1.564.436.917 1.089 1.686 3.086 1.494 3.642-.349 4.148-.386 7.562.083 1.825.251 3.716-.482 5.123-1.88 1.012-1.011 1.661-2.266 1.828-3.583a7.488 7.488 0 012.165-4.389 7.661 7.661 0 014.643-2.182c.483-.046.971 0 1.456 0zM50.056 87.923c-3.007-.196-5.689.757-7.863 2.822-3.824 3.824-3.824 10.027 0 13.85 3.821 3.824 10.024 3.824 13.85-.001 3.822-3.823 3.822-10.025-.001-13.849-1.269-1.23-2.851-2.205-4.594-2.587-.459-.101-.928-.157-1.392-.235z" fill="#EDA02F"/><path d="M86.055 90.26H75.953c-1.203 0-2.242.437-3.111 1.305-.869.873-1.304 1.923-1.304 3.148v5.908c0 1.227.435 2.279 1.304 3.15.869.868 1.908 1.305 3.111 1.305h8.216v-2.083h-6.19c-.535 0-1.126-.184-1.492-.552a1.854 1.854 0 01-.552-1.359v-6.828c0-.534.185-.988.552-1.358a1.827 1.827 0 011.35-.553h6.366c.512 0 .951.184 1.318.553.367.37.548.824.548 1.358v10.822h4.4V94.713c0-1.225-.428-2.275-1.287-3.148-.858-.868-1.899-1.305-3.127-1.305m42.852 0h-10.102c-1.204 0-2.24.437-3.11 1.305-.871.873-1.305 1.923-1.305 3.148v5.908c0 1.227.434 2.279 1.305 3.15.87.868 1.906 1.305 3.11 1.305h8.216v-2.083h-6.333a1.83 1.83 0 01-1.349-.552 1.852 1.852 0 01-.55-1.359v-6.828c0-.534.183-.988.55-1.358a1.826 1.826 0 011.349-.553h6.369c.511 0 .95.184 1.315.553.367.37.549.824.549 1.358v10.822h4.401V94.713c0-1.225-.432-2.275-1.288-3.148-.859-.868-1.902-1.305-3.127-1.305m40.531 10.462h-1.339c-.429 0-.787.15-1.076.45a1.493 1.493 0 00-.437 1.082v1.287c0 .423.144.784.437 1.082.289.302.647.449 1.076.449h1.339c.425 0 .788-.147 1.089-.449a1.46 1.46 0 00.456-1.082v-1.287c0-.421-.152-.781-.456-1.082-.301-.3-.664-.45-1.089-.45m0-15.401h-1.403c-.426 0-.784.15-1.075.45-.29.302-.374.663-.374 1.084v11c0 .422.144.782.437 1.083.289.3.647.451 1.076.451h1.339c.425 0 .788-.151 1.089-.451.304-.301.456-.661.456-1.083v-11c0-.421-.152-.782-.456-1.084-.301-.3-.663-.45-1.089-.45m-59.309 4.939l-6.8 9.718-1.119 1.604c-.845 1.329-1.752 1.995-2.726 1.995-.52 0-.956-.19-1.313-.566a1.858 1.858 0 01-.535-1.329v-6.971h-.002v-2.918c0-.422-.15-.782-.454-1.083-.3-.3-.664-.45-1.089-.45h-1.342c-.425 0-.783.15-1.073.45a1.498 1.498 0 00-.437 1.083v8.859c0 1.221.434 2.263 1.297 3.127.866.865 1.895 1.297 3.092 1.297h2.293c1.64 0 2.748-.101 3.325-.305 1.172-.406 2.302-1.422 3.391-3.05l7.943-11.461h-4.451m52.43 12.734a1.83 1.83 0 01-1.351-.553c-.368-.369-.548-.822-.548-1.359l-.001-6.844c0-.509.129-.95.496-1.33.37-.378.811-.571 1.327-.571h1.85V90.26h-3.728c-1.709 0-2.943 1.026-3.512 1.615.065-.125.139-.257.229-.391 0 0 1.258-2.044 3.339-2.308v-1.309h-.004v-1.012c0-.421-.151-.782-.453-1.084-.303-.3-.667-.45-1.09-.45h-1.404c-.428 0-.784.15-1.075.45-.292.302-.373.663-.373 1.084v14.156h.017c.083 1.061.51 1.983 1.286 2.76.87.869 1.908 1.305 3.112 1.305h4.13v-2.082h-2.247m-22.576-12.706c-1.248 0-2.297.385-3.142 1.157-.847.774-1.268 1.756-1.268 2.948 0 1.17.414 2.512 1.251 3.274.833.761 1.888 1.142 3.156 1.142h7.774c.533 0 .983.179 1.35.546.366.365.548.814.548 1.345v.469c0 .506-.182.943-.548 1.309a1.847 1.847 0 01-1.353.546h-5.886a1.84 1.84 0 01-1.353-.558 1.848 1.848 0 01-.548-1.358v-.464h-4.4c0 1.23.433 2.281 1.303 3.152.87.87 1.909 1.28 3.112 1.28h9.662c1.247 0 2.298-.385 3.142-1.16.85-.772 1.27-1.755 1.27-2.947 0-1.168-.417-2.316-1.252-3.079-.835-.76-1.885-1.14-3.157-1.14h-7.774c-.532 0-.981-.182-1.349-.546a1.827 1.827 0 01-.548-1.344v-.665c0-.507.182-.946.55-1.31a1.833 1.833 0 011.35-.548l5.878.001c.535 0 .985.163 1.353.533.366.369.548.821.548 1.359v.46h4.401c0-1.23-.432-2.28-1.303-3.152-.871-.868-1.91-1.278-3.114-1.278l-9.653.028m34.346-5.683h-.252v-.675a1.33 1.33 0 01.295-.028c.336 0 .492.143.492.359 0 .243-.241.344-.535.344m.631.172v-.029c.268-.086.477-.271.477-.559a.6.6 0 00-.238-.502c-.155-.114-.352-.188-.783-.188-.381 0-.675.045-.886.074v2.353h.534v-.933h.252c.293 0 .435.114.477.359.071.286.111.488.184.574h.558c-.041-.086-.098-.215-.166-.574-.072-.316-.186-.503-.409-.575" fill="#43545A"/><path d="M174.442 86.585c-1.025 0-1.795-.832-1.795-1.881 0-1.033.77-1.878 1.769-1.878h.013c1.008 0 1.767.845 1.767 1.894 0 1.033-.759 1.88-1.754 1.865m.002-4.273h-.015c-1.341 0-2.411 1.051-2.411 2.392a2.395 2.395 0 002.411 2.408 2.38 2.38 0 002.394-2.408 2.365 2.365 0 00-2.379-2.392m-125.33 9.27a6.097 6.097 0 00-2.789 11.519 3.05 3.05 0 004.522-2.373h-1.733a3.05 3.05 0 113.049-3.049v5.198a3.047 3.047 0 003.049-3.047v-2.151a6.096 6.096 0 00-6.098-6.097m79.503 29.192c.18.301.381.45.601.45.404 0 .847-.185 1.337-.554.489-.369.914-.89 1.275-1.561.36-.669.54-1.225.54-1.67 0-.423-.066-.635-.197-.635-.679 0-1.442.498-2.288 1.49-.845.992-1.268 1.82-1.268 2.48m-.757-4.547c.415-2.454.714-3.908.895-4.361.183-.452.499-.68.95-.68.35 0 .525.311.525.93 0 .422-.175 1.3-.525 2.633-.181.658-.405 1.651-.665 2.985.53-.705 1.107-1.277 1.733-1.711.625-.435 1.183-.654 1.675-.654.401 0 .735.172 1.001.517.268.342.402.749.402 1.212 0 1.317-.505 2.553-1.515 3.709-1.01 1.158-2.083 1.737-3.219 1.737-.341 0-.66-.092-.955-.278-.294-.187-.461-.425-.499-.716-.017-.156-.049-.262-.097-.314a4.358 4.358 0 01-.145-.165c-.126-.13-.187-.307-.187-.538 0-.267.065-.816.199-1.653l.427-2.653m8.405 2.882a3.86 3.86 0 001.784-.864c.515-.438.772-.837.772-1.197a.532.532 0 00-.118-.355.376.376 0 00-.305-.144c-.371 0-.783.272-1.235.819-.454.548-.752 1.128-.898 1.741m4.299 1.133c0 .445-.374.977-1.122 1.594-.747.616-1.591.925-2.53.925-.721 0-1.288-.228-1.704-.682-.413-.454-.622-1.088-.622-1.898 0-1.197.425-2.318 1.27-3.364.845-1.046 1.748-1.57 2.709-1.57.478 0 .863.153 1.153.454.29.304.435.665.435 1.085 0 .743-.357 1.45-1.069 2.122-.713.674-1.628 1.137-2.743 1.393-.127.03-.191.108-.191.23 0 .206.091.402.273.587.181.186.423.28.726.28.859 0 1.71-.444 2.556-1.325.163-.172.32-.258.474-.258.256 0 .385.144.385.427m8.063-1.054l-.108 1.145c-.035.367-.05.731-.05 1.09 0 .324.029.7.089 1.127-.043.15-.15.277-.321.384a.998.998 0 01-.539.16c-.585 0-.876-.371-.876-1.114 0-.33.09-1.116.275-2.357.127-.892.191-1.556.191-1.993 0-.024-.024-.055-.075-.09-.296-.185-.442-.366-.442-.537 0-.223.164-.464.493-.724a.764.764 0 00.29-.433c.036-.164.089-.424.158-.777.231-1.362.589-2.331 1.073-2.905a2.306 2.306 0 011.847-.862c.436 0 .805.142 1.105.426.302.283.452.636.452 1.055 0 .375-.088.764-.26 1.168-.173.403-.401.606-.683.606a.438.438 0 01-.312-.12.402.402 0 01-.13-.31l.04-.559c0-.666-.139-.996-.417-.996-.344 0-.67.434-.971 1.302-.301.87-.45 1.609-.45 2.219 0 .064.039.097.122.097.882 0 1.507-.005 1.873-.013.365-.008.548.132.548.422 0 .283-.221.491-.663.624a4.671 4.671 0 01-1.393.203c-.33.029-.543.058-.641.082-.103.633-.177 1.19-.225 1.673v.007m4.708.083l.109-.207c.517-1.036 1.074-1.879 1.67-2.525.595-.647 1.177-.971 1.745-.971.434 0 .791.119 1.066.36.276.238.413.523.413.851a.965.965 0 01-.14.528.44.44 0 01-.39.221c-.266 0-.507-.109-.725-.327-.155-.14-.276-.212-.366-.212-.319 0-.856.498-1.606 1.493a6.853 6.853 0 00-1.358 3.356c-.047.359-.152.611-.315.755-.163.141-.383.214-.659.214-.297 0-.504-.169-.63-.505-.122-.334-.184-.882-.184-1.642 0-.312.008-.733.025-1.262.017-.5.068-1.109.148-1.832.021-.188.038-.334.044-.442.04-.418.082-.707.131-.86.049-.156.164-.302.343-.439a.96.96 0 01.597-.206c.23 0 .405.068.524.199.12.133.18.277.18.435 0 .202-.095.617-.289 1.25a5.695 5.695 0 00-.172.781l-.161.987m6.553-.162a3.855 3.855 0 001.784-.864c.515-.438.772-.837.772-1.197 0-.141-.04-.26-.118-.355a.374.374 0 00-.304-.144c-.372 0-.783.272-1.236.819-.454.548-.752 1.128-.898 1.741m4.299 1.133c0 .445-.373.977-1.122 1.594-.747.616-1.591.925-2.53.925-.721 0-1.289-.228-1.704-.682-.413-.454-.622-1.088-.622-1.898 0-1.197.425-2.318 1.27-3.364.845-1.046 1.749-1.57 2.709-1.57.477 0 .863.153 1.153.454.29.304.435.665.435 1.085 0 .743-.357 1.45-1.069 2.122-.713.674-1.628 1.137-2.743 1.393-.127.03-.191.108-.191.23 0 .206.091.402.273.587.18.186.423.28.726.28.858 0 1.71-.444 2.556-1.325.163-.172.32-.258.474-.258.257 0 .385.144.385.427m2.497-1.133a3.86 3.86 0 001.784-.864c.515-.438.77-.837.77-1.197a.536.536 0 00-.116-.355.376.376 0 00-.305-.144c-.37 0-.783.272-1.236.819-.454.548-.751 1.128-.897 1.741m4.297 1.133c0 .445-.373.977-1.119 1.594-.748.616-1.593.925-2.529.925-.723 0-1.292-.228-1.705-.682-.416-.454-.622-1.088-.622-1.898 0-1.197.422-2.318 1.268-3.364.846-1.046 1.749-1.57 2.71-1.57.477 0 .862.153 1.152.454.291.304.437.665.437 1.085 0 .743-.358 1.45-1.071 2.122-.711.674-1.628 1.137-2.741 1.393-.128.03-.192.108-.192.23 0 .206.091.402.272.587.182.186.424.28.727.28.859 0 1.71-.444 2.556-1.325.163-.172.32-.258.475-.258.255 0 .382.144.382.427" fill="#43545A"/></svg>