<svg xmlns="http://www.w3.org/2000/svg" width="200" height="200" viewBox="0 0 200 200"><path fill="none" d="M0 0h200v200H0z"/><g fill="#083566"><path d="M116.656 86.032h11.352c2.824 0 2.788 1.541 2.764 3.774-.025 2.092-.346 5.187-1.252 9.436-.886 4.173-1.797 7.248-2.674 9.432-.655 1.637-1.285 2.764-1.826 3.497-.835 1.101-1.31 1.332-1.848 1.539-.545.197-1.383.268-2.659.258H72.535c-2.759 0-3.331-.643-3.331-2.618.002-1.251.207-3.07.716-5.456.543-2.562.903-3.146 1.551-4.507.998-2.055 1.875-2.81 2.686-3.263.82-.446 1.884-.643 3.438-.643h14.894l1.554-7.312H77.595c-1.412 0-2.939.107-4.527.555a11.714 11.714 0 00-3.533 1.675c-1.699 1.191-3.148 2.915-4.293 5.097-1.149 2.194-1.762 3.535-2.476 6.876-.575 2.715-.869 4.975-.874 6.978.005 1.668.207 3.183.752 4.598.407 1.054 1.035 2.04 1.839 2.819 1.207 1.189 2.693 1.822 4.049 2.133 1.371.317 2.688.378 4.003.383 6.187-.003 41.696-.003 47.978 0 1.215-.008 2.701-.003 4.395-.461a10.181 10.181 0 003.799-1.962c1.809-1.485 3.248-3.597 4.512-6.475 1.266-2.89 2.386-6.618 3.455-11.627.967-4.567 1.407-8.088 1.41-10.952-.003-2.087-.232-3.845-.777-5.415-.409-1.174-1.023-2.245-1.834-3.107-1.215-1.313-2.79-1.997-4.095-2.277-1.325-.29-2.462-.282-3.37-.287h-17.274l-6.62 31.123h7.475l5.067-23.811"/><path d="M145.961 78.264c-1.145-2.318-2.696-4.178-4.429-5.558-2.611-2.082-5.542-3.083-8.184-3.582-2.647-.497-5.077-.514-6.84-.517H102.77l-8.771 41.236h7.478l7.215-33.923h17.816c1.488 0 3.187.026 4.86.285 1.254.189 2.479.508 3.575.995 1.646.75 2.997 1.788 4.107 3.646 1.094 1.865 1.951 4.716 1.953 9.138 0 2.576-.294 5.668-.991 9.335-1.254 6.628-2.807 11.496-4.478 14.988-1.254 2.622-2.561 4.468-3.852 5.787-1.945 1.963-3.837 2.861-6.065 3.407-2.221.531-4.785.587-7.595.579H71.184c-3.083.008-6.217-.828-8.372-2.615-1.093-.898-1.999-2.026-2.681-3.582-.679-1.553-1.132-3.567-1.132-6.211 0-1.688.185-3.628.619-5.834.923-4.709 1.872-6.971 3.233-9.662 2.06-4.042 4.31-6.068 6.577-7.271 2.274-1.186 4.743-1.548 7.288-1.548h17.923l1.556-7.313H76.716c-2.148 0-4.524.2-6.979.906-3.681 1.04-7.499 3.334-10.565 7.356-3.083 4.018-5.194 8.303-6.73 16.124-.511 2.608-.755 5.014-.757 7.242 0 3.479.606 6.535 1.746 9.141a16.743 16.743 0 007.83 8.322c3.219 1.644 6.689 2.255 9.923 2.258h46.838c2.537-.003 5.296-.01 8.187-.548 2.164-.402 4.409-1.125 6.569-2.391 3.253-1.895 6.187-4.973 8.573-9.448 2.396-4.485 4.337-10.383 5.847-18.325.762-4.03 1.117-7.566 1.117-10.697.003-4.758-.823-8.62-2.354-11.72"/><path d="M99.222 68.607h-32.18l-1.556 7.313h25.046c7.687 0 8.69-7.313 8.69-7.313"/></g></svg>