<svg xmlns="http://www.w3.org/2000/svg" width="200" height="200" viewBox="0 0 200 200"><path fill="none" d="M0 0h200v200H0z"/><path d="M91.222 45.01H70.266v10.419h42.276c-3.054-7.118-11.097-10.419-21.32-10.419zm19.889 26.745H70.266V61.373h43.582c.021.405.031.817.027 1.238-.037 3.863-.961 6.841-2.764 9.144zm-40.845 5.944v10.364h38.073l-6.375-10.364H70.266zm0 16.308h41.73l6.421 10.437H70.266V94.007m58.785 23.038h-3.364l-1.852 7.524-2.027-7.524h-3.449l3.233 9.054c.172.496.453 1.056.453 1.595 0 .367-.173.905-.474 1.142-.303.239-.971.281-1.338.281-.28 0-.559-.021-.84-.021v2.501c.281 0 .56.043.84.043 1.38 0 3.128.087 4.074-1.099.454-.583.821-1.705 1.058-2.415l3.686-11.081zm-1.335-4.699h-3.8l-1.547 3.217h2.465l2.882-3.217zm-44.739 10.778l-3.556-.236c-.022 1.724-1.638 2.801-3.255 2.801a3.71 3.71 0 01-2.35-.819c-1.293-1.078-1.552-2.781-1.552-4.355 0-2.521 1.013-5.022 3.902-5.022 1.185 0 2.242.452 2.845 1.531.13.259.259.518.324.797l3.427-.236c-.043-.368-.15-.691-.258-1.035-.905-2.696-3.6-3.924-6.295-3.924-4.764 0-7.631 3.254-7.631 7.912 0 3.19 1.51 6.316 4.591 7.523.948.366 1.983.494 2.997.494 2.479 0 4.785-.904 6.057-3.125.41-.711.669-1.508.754-2.306m11.835.431v-.539c0-3.448-1.767-6.294-5.497-6.294-3.427 0-5.647 2.564-5.647 5.906 0 3.428 2.111 5.907 5.647 5.907 2.458 0 4.571-1.165 5.368-3.557l-3.191-.215c-.474.841-1.098 1.185-2.09 1.185-1.466 0-2.221-1.013-2.415-2.393h7.825zm-3.34-2.413h-4.463c.345-1.273 1.034-1.919 2.393-1.919 1.142 0 1.961.796 2.07 1.919m14.486 3.642c0-2.803-2.76-3.299-4.916-3.751-.581-.129-1.897-.281-1.897-1.078s.948-.904 1.552-.904c.605 0 1.293.214 1.682.71.172.216.237.647.281.906l2.974-.152c-.13-2.737-2.436-3.793-4.894-3.793-2.263 0-4.656.905-4.656 3.535 0 4.462 6.64 2.846 6.64 4.851 0 .884-.906 1.035-1.596 1.035-1.422 0-2.177-.41-2.371-1.855l-3.017.108c0 .367.021.668.107 1.034.56 2.308 2.931 3.105 5.066 3.105 2.436 0 5.045-.863 5.045-3.751m12.674 3.428l-4.612-6.942 4.31-4.225h-4.117l-3.448 3.816v-7.868h-3.17v15.219h3.17v-3.709l1.034-1.035 2.803 4.744h4.03zm-41.037-16.548h-3.702l-1.99-2.513h2.911l.962 1.457.919-1.457h2.956l-2.056 2.513m12.078 37.004v-2.372l5.518-6.164h-4.893v-2.631h8.839v2.565l-5.347 5.971h5.714v2.631h-9.831zm18.259 0v-6.252c0-.712.043-1.574-.538-2.091-.302-.28-.712-.389-1.122-.389-.474 0-.862.13-1.229.432-.755.625-.71 1.681-.71 2.565v5.735h-3.149v-15.22h3.149v5.195c.495-.884 2.09-1.401 3.038-1.401.735 0 1.617.194 2.221.625 1.293.927 1.508 2.178 1.508 3.665v7.136h-3.168zm5.368-15.22h3.168v15.22H113.3zm27.074 11.792c0-2.803-2.758-3.299-4.914-3.75-.582-.13-1.897-.281-1.897-1.079 0-.797.949-.905 1.552-.905.605 0 1.292.216 1.681.711.172.215.238.646.281.905l2.974-.151c-.13-2.737-2.435-3.794-4.893-3.794-2.263 0-4.657.906-4.657 3.535 0 4.463 6.64 2.847 6.64 4.851 0 .884-.904 1.035-1.595 1.035-1.422 0-2.177-.41-2.37-1.853l-3.019.106c0 .367.021.669.107 1.035.561 2.307 2.932 3.104 5.066 3.104 2.436 0 5.044-.861 5.044-3.75m-11.792-2.796c0-.907.042-2.201-.305-3.041-.818-1.942-2.91-2.243-4.764-2.243-2.523 0-4.615 1.078-4.766 3.861h2.934c-.045-1.101 1.077-1.402 1.962-1.402.667 0 1.703.171 1.703 1.034 0 .799-1.165.842-1.725.927-2.416.346-5.499.627-5.499 3.796 0 2.264 1.725 3.601 3.881 3.601 1.595 0 2.287-.474 3.515-1.337l.023 1.013h3.042l-.001-6.209zm-3.151 2.587c-.538.927-1.552 1.445-2.609 1.445-.733 0-1.488-.346-1.488-1.186 0-1.446 2.309-1.466 3.321-1.725.259-.065.517-.151.776-.259v1.725zm-48.612-4.825v-2.889c-.193-.022-.367-.043-.561-.043-1.508 0-2.349.646-2.888 2.047v-1.831h-3.104v11.165h3.256v-3.642c0-.561 0-1.143.02-1.703.043-1.811.303-3.169 2.523-3.169.258 0 .496.021.754.065m12.072 2.823c0-3.341-2.156-5.864-5.583-5.864-3.623 0-5.972 2.351-5.972 5.973 0 3.427 2.178 5.841 5.669 5.841 3.471 0 5.886-2.501 5.886-5.95m-3.255-.129c0 1.66-.561 3.492-2.522 3.492-1.919 0-2.524-1.767-2.524-3.384 0-1.66.648-3.298 2.566-3.298 1.876 0 2.48 1.594 2.48 3.19" fill="#001647"/></svg>