<svg xmlns="http://www.w3.org/2000/svg" width="200" height="200" viewBox="0 0 200 200"><path fill="none" d="M0 0h200v200H0z"/><path d="M80.047 59.622c5.5-.435 11.456-.651 16.286-.729v7.157c-2.29.082-4.847.235-7.246.491-8.438.903-10.014 2.731-11.035 10.839-.427 3.378-.553 6.961-.553 9.403 0 2.434.126 6.024.553 9.392 1.021 8.105 2.597 9.936 11.035 10.837 2.399.258 4.956.412 7.246.493v7.159c-4.83-.077-10.786-.293-16.286-.731-15.138-1.21-17.962-3.671-19.799-14.539-.765-4.529-.99-9.345-.99-12.616 0-3.272.225-8.087.99-12.616 1.837-10.869 4.661-13.327 19.799-14.54" fill="#00264A"/><path d="M141.698 86.778c0 3.271-.225 8.087-.99 12.615-1.835 10.869-4.66 13.331-19.799 14.54-5.5.438-11.453.655-16.284.732v-7.16c2.289-.082 4.845-.235 7.242-.493 8.441-.901 10.017-2.732 11.036-10.837.426-3.367.553-6.958.553-9.392 0-2.442-.127-6.025-.553-9.403-1.019-8.108-2.595-9.937-11.036-10.839-2.397-.256-4.953-.41-7.242-.49v-7.158c4.831.078 10.784.293 16.284.73 15.139 1.213 17.964 3.67 19.799 14.539.765 4.529.99 9.344.99 12.616" fill="#DC3B41"/><path d="M35.784 127.095c1.397 0 2.754.243 3.989.688l-.283 2.633c-.993-.183-1.965-.466-3.26-.466-2.613 0-4.07 1.62-4.07 4.15 0 2.713 1.478 4.131 4.07 4.131 1.316 0 2.267-.263 3.26-.446l.283 2.614a11.343 11.343 0 01-3.989.708c-4.738 0-7.208-2.936-7.208-6.986 0-3.888 2.47-7.026 7.208-7.026zm10.628 2.672c4.232 0 5.77 3.564 5.021 6.824h-7.411c.405 1.317 1.579 1.863 3.24 1.863 1.053 0 2.227-.202 3.523-.506l.263 2.369c-1.336.485-2.936.79-4.393.79-3.26 0-6.014-1.702-6.014-5.67 0-3.158 2.004-5.67 5.771-5.67zm-.021 2.43c-1.174 0-1.984.851-2.329 1.985h4.192c0-1.378-.769-1.985-1.863-1.985zm11.379-2.43c1.417 0 2.957.284 4.232.81l-.283 2.268c-1.64-.466-2.936-.627-3.787-.627-1.235 0-1.559.304-1.559.85 0 1.498 6.135.223 6.135 4.657 0 2.389-2.187 3.382-4.718 3.382-1.599 0-3.32-.263-4.616-.81l.263-2.268c1.681.485 2.996.627 4.171.627 1.154 0 1.6-.243 1.6-.83 0-1.498-6.136-.243-6.136-4.657 0-2.552 2.207-3.402 4.698-3.402zm23.973 0c2.531 0 4.819.972 4.819 3.747v7.288h-3.118l-.203-.931c-.911.83-2.024 1.236-3.381 1.236-1.944 0-3.503-1.337-3.503-3.322 0-3.198 3.24-4.312 6.884-3.522v-.406c0-.991-.79-1.397-2.024-1.397-1.013 0-2.451.183-3.868.73l-.283-2.35c1.255-.667 3.016-1.073 4.677-1.073zm-.621 6.478c-.813.182-1.231.508-1.343 1.319 0 .748.648 1.133 1.458 1.133.708 0 1.559-.425 2.004-.952v-1.336c-1.244-.232-.54-.15-2.119-.164zm25.471-6.478c4.232 0 5.77 3.564 5.022 6.824h-7.41c.404 1.317 1.579 1.863 3.239 1.863 1.053 0 2.226-.202 3.523-.506l.263 2.369c-1.336.485-2.935.79-4.394.79-3.26 0-6.013-1.702-6.013-5.67 0-3.158 2.004-5.67 5.77-5.67zm-.02 2.43c-1.175 0-1.985.851-2.328 1.985h4.191c0-1.378-.77-1.985-1.863-1.985zm18.412-2.43c4.232 0 5.771 3.564 5.021 6.824h-7.411c.405 1.317 1.58 1.863 3.24 1.863 1.055 0 2.228-.202 3.524-.506l.262 2.369c-1.335.485-2.936.79-4.393.79-3.26 0-6.013-1.702-6.013-5.67 0-3.158 2.004-5.67 5.77-5.67zm-.02 2.43c-1.175 0-1.984.851-2.329 1.985h4.191c0-1.378-.768-1.985-1.862-1.985zm41.256-2.43c4.232 0 5.77 3.564 5.021 6.824h-7.41c.404 1.317 1.579 1.863 3.239 1.863 1.053 0 2.226-.202 3.523-.506l.264 2.369c-1.337.485-2.936.79-4.395.79-3.259 0-6.013-1.702-6.013-5.67 0-3.158 2.005-5.67 5.771-5.67zm-.02 2.43c-1.175 0-1.985.851-2.33 1.985h4.193c0-1.378-.77-1.985-1.863-1.985zm-68.958-4.717v2.592h2.429v2.429h-2.429v4.859c0 .952.668 1.195 2.369.912l.263 2.348c-2.834.912-5.953.669-5.953-2.914v-5.205h-1.62v-2.228l1.62-.201.385-2.592h2.936zm50.199 2.592v10.731h-3.321v-10.731h3.321zm-79.645-3.808v14.538h-3.321v-14.538h3.321zm7.836 3.808l-3.827 4.878v.082l4.232 5.77h-3.989l-3.989-5.629 3.807-5.101h3.766zm41.488-3.808v14.538h-3.318v-14.538h3.318zm17.11 3.808l2.551 7.369h.081l2.552-7.369h3.482l-4.07 10.73h-4.07l-4.09-10.73h3.564zm24.908 0v2.429l-5.185 5.791v.081h5.386v2.429h-9.638v-2.409l5.204-5.812v-.08h-5.002v-2.429h9.235zM85.367 125.9l-2.753 3.26h-2.673l1.701-3.26h3.725zm60.414-.122c1.498 0 1.964.568 1.964 1.661 0 1.073-.466 1.64-1.964 1.64s-1.965-.567-1.965-1.64c0-1.093.467-1.661 1.965-1.661zM34.589 123.43l.932 1.518.931-1.518h3.159l-2.166 3.018h-3.867l-2.167-3.018h3.178z" fill="#00264A"/></svg>